<?xml version="1.0" encoding="UTF-8"?><svg id="_レイヤー_27" xmlns="http://www.w3.org/2000/svg" width="1700" height="2000" viewBox="0 0 1700 2000"><path d="M1209.56,1266.17c-5.88,0-10.83-3.98-13-9.96-1.36,1.58-2.9,2.66-4.62,3.24-3.7,1.26-7.75.11-12.04-3.42-5.12-4.21-8.48-10.3-9.46-17.16l-4-27.91c-.27-1.92-.72-3.76-1.32-5.47-1.25-3.59-2.76-7.05-4.3-10.21l4.05,18.74c1.04,4.83-.24,9.8-3.43,13.29-4.96,5.43-11.71,4.3-15.87.95-4.49-3.62-8.29-13.76-13.56-27.79-.67-1.79-1.36-3.62-2.06-5.48-8.29-21.86-8.76-46.02-1.33-68.02,4.4-13.01,9.24-21.95,9.45-22.33.79-1.45,2.62-1.99,4.07-1.2,1.45.79,1.99,2.62,1.2,4.07-.05.09-4.81,8.88-9.03,21.37-6.99,20.69-6.54,43.41,1.26,63.98.71,1.87,1.4,3.7,2.07,5.5,4.37,11.64,8.49,22.64,11.71,25.23.71.57,4.42,3.25,7.68-.32,1.88-2.06,2.63-5.04,1.99-7.97l-7.99-37.01c-.3-1.39.41-2.79,1.71-3.37,1.29-.58,2.82-.17,3.65.98.38.52,9.24,12.83,14.42,27.62.73,2.08,1.26,4.3,1.59,6.6l4,27.91c.77,5.37,3.37,10.12,7.33,13.38,1.77,1.46,4.3,3.05,6.3,2.37,1.19-.4,3.26-1.97,5.12-7.69-2.17-30.74-8.55-53.35-8.62-53.58-.4-1.42.28-2.92,1.61-3.54,1.33-.62,2.92-.19,3.75,1.02,11.39,16.67,10.3,51.49,10.25,52.97,0,.19-.03.38-.08.57-.27,1.15-.55,2.23-.85,3.26.07,1.11.14,2.24.21,3.37.38,6.75,4.53,10.14,8.39,10.03,5.7-.18,11.39-7.26,11.25-22.67-.08-8.71-.64-14.88-1.55-19.99l-6.13-21.26c-.79-2.53-1.62-5.33-2.45-8.52-.42-1.59.52-3.22,2.11-3.65,1.59-.43,3.22.48,3.68,2.06l2.41,8.37c.65,2.08,1.28,3.98,1.88,5.77,1.72,5.19,3.25,9.8,4.35,15.82l4.04,14.01c.05.17.08.34.1.51.61,5.68,2.97,14.06,5.83,15.05,1.04.36,2.73-.58,4.66-2.56,4.61-4.74,6.92-14.3,5.05-20.87l-14.2-49.85c-.44-1.56.43-3.19,1.97-3.68,1.55-.49,3.2.33,3.74,1.86l16.02,45.32c.9,1.82,2.62,3.87,3.56,3.87h0c.5,0,1.9-.99,3.57-4.68,2.37-5.24,3.09-11.14,2.08-17.06-3.2-18.73-6.09-32.01-7.94-36.45-.71-1.7-1.46-3.54-2.09-5.46-2.35-7.12-10.62-31.09-18.56-40.85-7.45-9.16-23.56-25.93-36.67-30.66-1.56-.56-2.37-2.28-1.8-3.84s2.28-2.37,3.84-1.8c17.67,6.38,37.13,29.86,39.29,32.52,8.35,10.26,16.49,33.32,19.6,42.75.57,1.73,1.26,3.44,1.93,5.03,2.62,6.29,5.97,24,8.32,37.75,1.21,7.11.34,14.21-2.53,20.55-2.45,5.42-5.48,8.18-8.99,8.21-.02,0-.03,0-.05,0-1.8,0-3.36-.72-4.65-1.72.95,8.07-1.95,17.85-7.2,23.25-3.78,3.89-7.46,5.25-10.93,4.05-3.01-1.04-5.13-3.95-6.61-7.26-1.61,14.86-9.18,21.83-16.74,22.07-.14,0-.28,0-.42,0Z" fill="#2b2b2b"/><path d="M626.03,426.25s0,.05.02.08l-.02-.08Z" fill="#f9e2cd"/><path d="M923.7,1965.85c-51.42,0-62.29-19.51-70.04-43.03-2.68-8.11-2.74-18.57-.2-31.97.81-4.28,1.72-8.01,2.44-11.01.49-2.02.88-3.61,1.03-4.56.51-3.09,4.17-36.71,10.04-92.24,1.08-10.18,4.17-27.19,4.3-27.91.3-1.63,1.86-2.71,3.49-2.41,1.63.3,2.71,1.86,2.41,3.49-.03.17-3.18,17.5-4.24,27.46-3.46,32.7-9.36,88.21-10.08,92.58-.19,1.17-.6,2.86-1.12,5-.71,2.93-1.6,6.58-2.38,10.71-2.32,12.2-2.32,21.95,0,28.98,7.81,23.7,18.39,41.58,76.21,38.58,32.27-1.68,51.82-8.9,61.51-22.73,8.6-12.28,8.64-28.75,8.69-46.2v-1.28c0-.13-.13-1.12-.5-3.33-.51-3-1-5.46-1.13-5.91l-23.42-76.6c-.31-.87-.51-1.79-.62-2.73-.52-3.37-12.14-42.34-14.81-46.02-1.08-1.25-.93-3.12.32-4.21,1.25-1.08,3.17-.92,4.25.33,3.59,4.14,15.93,46.89,16.19,49.22.06.51.17,1,.33,1.45l.04.13,23.42,76.58c.42,1.33,1.24,6.17,1.33,6.74.59,3.5.59,4.09.59,4.34v1.28c-.05,18.41-.1,35.8-9.78,49.62-10.83,15.46-31.84,23.5-66.11,25.28-4.3.22-8.35.33-12.18.33Z" fill="#2b2b2b"/><path d="M971.15,1791.67c-.77,0-1.54-.21-2.23-.65-33.77-21.11-78.4-10.69-90.01-1.61-1.08.85-2.45,1-3.67.43-1.34-.64-2.19-2.02-2.21-3.6-.02-.97.75-1.76,1.72-1.78.99.02,1.76.75,1.78,1.72,0,.33.17.49.23.5,12.19-9.56,58.88-20.59,94.03,1.37.38.24.69.05.81-.04.16-.12.33-.34.23-.68-.61-2.01-1.69-4.36-2.55-6.25-.78-1.71-1.2-2.63-1.34-3.28-.2-.95.4-1.88,1.35-2.08.94-.2,1.87.4,2.08,1.34.08.33.64,1.56,1.1,2.55.91,1.98,2.04,4.45,2.72,6.69.51,1.66-.06,3.42-1.45,4.48-.76.58-1.66.88-2.56.88Z" fill="#2b2b2b"/><path d="M942.76,1847.24c-3.32,0-6.84-.1-10.55-.3-53.78-2.85-58.06-5.47-60.32-20.51h0c-.38-2.56.51-5.18,2.31-6.82,5.66-5.17,22.3-17.02,54.58-15.29,33.11,1.75,47.98,13.49,52.84,18.45,1.46,1.5,2.29,3.5,2.35,5.65.07,2.53-.59,6.28-4.17,9.78-6.15,6.01-18.59,9.04-37.04,9.04ZM875.35,1825.92c1.78,11.82,2.2,14.63,57.04,17.53,29.03,1.54,40.47-3.37,44.97-7.75,2.67-2.61,3.17-5.34,3.11-7.17-.04-1.25-.53-2.46-1.36-3.31-3.56-3.64-17.74-15.67-50.52-17.4-30.94-1.64-46.7,9.51-52.03,14.38-.96.87-1.42,2.3-1.21,3.72h0Z" fill="#2b2b2b"/><path d="M927.31,1949.4c-26.54,0-46.21-6.72-58.54-20.01-15.36-16.57-13.41-37.09-13.32-37.95.1-.96.95-1.67,1.92-1.56.96.1,1.66.96,1.56,1.92h0c-.02.2-1.85,19.87,12.44,35.25,12.32,13.26,32.67,19.58,60.5,18.79,69.93-1.99,72.25-32.74,73.79-53.09.11-1.44.21-2.82.34-4.13.11-1.23.24-2.33.39-3.34.14-.96,1.02-1.62,1.99-1.47.96.14,1.62,1.03,1.47,1.99-.14.95-.26,1.98-.37,3.15-.12,1.3-.23,2.66-.33,4.08-1.54,20.29-4.1,54.24-77.18,56.33-1.58.04-3.14.07-4.67.07Z" fill="#2b2b2b"/><path d="M857.19,1893.37c-.5,0-1-.21-1.34-.63-.62-.74-.52-1.84.22-2.46.64-.54,16-13.24,42.59-20.07,24.5-6.29,63.45-8.44,109.94,17.03.34.19.68.37,1.03.57.84.47,1.15,1.54.68,2.38-.47.84-1.54,1.15-2.38.68-.34-.19-.67-.37-1-.55-45.41-24.88-83.37-22.85-107.22-16.76-25.88,6.61-41.23,19.28-41.38,19.4-.33.27-.73.41-1.12.41Z" fill="#2b2b2b"/><path d="M796.13,671.22c-24.51,0-42.18-5.89-52.53-17.5-10.61-11.9-10.24-26.24-9.59-31.85.19-1.65,1.68-2.83,3.32-2.64,1.65.19,2.83,1.68,2.64,3.33-.56,4.81-.88,17.08,8.11,27.17,9.16,10.28,25.33,15.5,48.05,15.5,37.75,0,53.15-14.99,59.42-27.56.74-1.48,2.54-2.09,4.02-1.35,1.48.74,2.08,2.54,1.35,4.02-7.03,14.09-23.97,30.88-64.79,30.88Z" fill="#2b2b2b"/><path d="M690.39,621.57c-1.36,0-2.6-.94-2.92-2.32-.37-1.61.63-3.23,2.25-3.6,10.61-2.46,16.1-3.26,26.24-4.28,1.65-.17,3.12,1.03,3.29,2.68.17,1.65-1.04,3.12-2.68,3.29-9.87,1-15.2,1.77-25.49,4.16-.23.05-.46.08-.68.08Z" fill="#2b2b2b"/><path d="M791.84,1115.46c-28.29,0-52.67-1.54-72.73-3.62-60.84-6.32-94.74-18.49-98.42-19.86-9.72-1.66-17-6.62-21.66-14.74-15.8-27.55,4.34-83.01,6.61-89.04l.54-10.96,8.47-194.68c.07-1.65,1.47-2.92,3.13-2.87,1.66.07,2.94,1.47,2.87,3.13l-8.47,194.7-.56,11.45c-.02.32-.08.63-.2.93-.22.58-22.13,58.3-7.18,84.37,3.81,6.65,9.61,10.52,17.72,11.85.2.03.4.09.59.16.34.13,35.01,13.18,97.47,19.64,57.59,5.96,151.24,7.37,270.48-19.68,2.59-1.37,22.37-12.43,28.71-34.42,4.92-17.08.73-36.55-12.47-57.89-.26-.42-.41-.89-.44-1.39l-14.8-229.63c-.11-1.65,1.15-3.08,2.8-3.19,1.65-.1,3.08,1.15,3.19,2.8l14.75,228.89c13.83,22.62,18.11,43.53,12.71,62.14-7.54,26.01-31.11,37.73-32.11,38.22-.21.1-.42.18-.65.23-78.85,17.92-146.64,23.47-200.36,23.47Z" fill="#2b2b2b"/><path d="M983.67,646.02c-.51,0-1.02-.13-1.49-.4-15.68-8.99-32.26-16.15-49.28-21.28-1.59-.48-2.48-2.15-2.01-3.74.48-1.58,2.15-2.48,3.74-2.01,17.45,5.26,34.46,12.6,50.53,21.82,1.44.82,1.93,2.66,1.11,4.09-.55.97-1.57,1.51-2.61,1.51Z" fill="#2b2b2b"/><path d="M803.89,1309.81c-15.82,0-25.24-6.85-25.82-7.29-1.33-.99-1.6-2.87-.6-4.2.99-1.32,2.86-1.6,4.19-.61.77.57,19.05,13.62,48.26-.3,1.49-.71,3.29-.08,4,1.42.71,1.5.08,3.29-1.42,4-10.96,5.22-20.6,6.98-28.61,6.98Z" fill="#2b2b2b"/><path d="M933.32,1519.67c-29.32,0-54.43-5.18-71.37-9.97-19.81-5.59-31.59-11.42-32.08-11.66-.89-.44-1.5-1.3-1.63-2.28l-25.67-188.58c-.22-1.64.93-3.15,2.57-3.38,1.64-.23,3.15.93,3.38,2.57l25.45,186.97c3.66,1.68,14.23,6.25,29.62,10.59,19.7,5.57,50.7,11.68,86.47,9.16,37.07-2.61,72.05-13.87,103.99-33.46-.1-9.06-.98-54.27-8.24-118.69-7.48-66.33-23.46-167.19-57.12-270.94-.51-1.58.35-3.27,1.93-3.78,1.58-.51,3.27.35,3.78,1.93,33.82,104.27,49.88,205.59,57.39,272.22,8.14,72.21,8.28,120.44,8.28,120.92,0,1.04-.53,2-1.41,2.55-33.16,20.66-69.55,32.52-108.17,35.24-5.85.41-11.58.6-17.16.6Z" fill="#2b2b2b"/><path d="M686.49,1517.21c-.52,0-1.03,0-1.55,0-52.41-.21-93.29-11.5-121.49-33.56-.76-.6-1.19-1.53-1.15-2.5.04-.77,3.62-77.59,12.3-163.95,11.69-116.19,26.55-193.38,44.18-229.45.73-1.49,2.52-2.11,4.01-1.38,1.49.73,2.11,2.52,1.38,4.01-39.84,81.5-54.63,365.74-55.8,389.48,27.09,20.6,66.3,31.14,116.59,31.34.51,0,1.02,0,1.53,0,32.81,0,64.05-4.51,84.62-8.33,17.83-3.31,30.95-6.68,35.95-8.03l-4.52-188c-.04-1.66,1.27-3.03,2.93-3.07,1.64-.05,3.03,1.27,3.07,2.93l4.58,190.34c.03,1.36-.86,2.58-2.17,2.95-.15.04-15.54,4.47-38.75,8.78-20.82,3.87-52.46,8.43-85.72,8.43Z" fill="#2b2b2b"/><path d="M967.91,1789.2c-1.57,0-2.89-1.22-2.99-2.8l-7.05-107.73-10.56-161.8c-.11-1.65,1.15-3.08,2.8-3.19,1.66-.12,3.08,1.14,3.19,2.8l10.56,161.8,7.05,107.73c.11,1.65-1.14,3.08-2.8,3.19-.07,0-.13,0-.2,0Z" fill="#2b2b2b"/><path d="M876.02,1788.1c-1.57,0-2.9-1.23-2.99-2.82l-6.19-103.1-7.07-175.25c-.07-1.66,1.22-3.05,2.88-3.12,1.67-.1,3.05,1.22,3.12,2.88l7.07,175.19,6.18,103.04c.1,1.65-1.16,3.08-2.81,3.17-.06,0-.12,0-.18,0Z" fill="#2b2b2b"/><path d="M907.26,1695.17c-26.45,0-38.13-11.4-38.66-11.93-.68-.68-.68-1.79,0-2.47.68-.68,1.79-.68,2.47,0h0c.13.13,13.58,13.1,44.04,10.57,30.71-2.55,44.48-14.08,44.61-14.19.73-.63,1.84-.54,2.47.19.63.73.55,1.83-.18,2.46-.58.5-14.65,12.37-46.61,15.03-2.85.24-5.57.34-8.14.34Z" fill="#2b2b2b"/><path d="M730.91,1965.86c-3.83,0-7.89-.11-12.18-.33-34.26-1.78-55.27-9.81-66.1-25.28-9.68-13.82-9.73-31.21-9.78-49.62v-1.28c0-.26,0-.85.59-4.35.04-.22.91-5.39,1.33-6.73l23.47-76.74c.16-.43.27-.91.32-1.41.13-1.14.83-3.55,2.54-9.37,2.68-9.13,7.17-24.41,10.47-39.81.35-1.62,1.94-2.65,3.56-2.31,1.62.35,2.65,1.94,2.31,3.56-3.34,15.62-7.87,31.04-10.58,40.25-1.15,3.91-2.23,7.59-2.34,8.35-.1.93-.31,1.85-.62,2.72l-23.43,76.62c-.11.39-.62,2.91-1.12,5.87-.38,2.22-.5,3.2-.51,3.41v1.2c.05,17.44.1,33.92,8.7,46.2,9.69,13.83,29.23,21.05,61.5,22.73,57.84,3,68.41-14.89,76.22-38.58,2.31-7.01,2.31-16.72.02-28.88l-.06-.35c-.77-4.01-1.63-7.57-2.33-10.44-.52-2.14-.93-3.83-1.13-5.01-.51-3.07-3.46-30.4-5.85-52.79-1.4-13.05-2.8-26.25-3.9-36.63l-.33-3.17c-1.06-9.96-4.21-27.29-4.24-27.47-.3-1.63.78-3.19,2.41-3.49,1.64-.3,3.19.78,3.49,2.41.13.72,3.22,17.73,4.3,27.91l.33,3.17c1.1,10.38,2.49,23.57,3.89,36.62,3.37,31.54,5.43,50.17,5.81,52.45.16.95.54,2.55,1.04,4.57.73,2.99,1.63,6.71,2.44,10.97l.06.35c2.48,13.24,2.39,23.6-.26,31.65-7.75,23.51-18.62,43.03-70.04,43.03Z" fill="#2b2b2b"/><path d="M683.46,1791.68c-.9,0-1.8-.29-2.56-.88-1.38-1.06-1.95-2.82-1.44-4.48.68-2.24,1.81-4.71,2.72-6.69.45-.99,1.02-2.23,1.1-2.56.22-.93,1.16-1.53,2.09-1.32.94.21,1.53,1.12,1.33,2.06-.14.65-.55,1.57-1.34,3.28-.86,1.89-1.94,4.23-2.55,6.25-.1.34.07.56.23.68.12.09.43.28.8.04,35.14-21.96,81.83-10.94,94.03-1.4.11-.04.23-.18.23-.47.01-.96.79-1.73,1.75-1.73h.02c.97.01,1.74.81,1.73,1.77-.02,1.16-.5,2.26-1.32,3.01-1.32,1.17-3.19,1.24-4.56.17-11.62-9.09-56.25-19.49-90.02,1.61-.69.43-1.46.64-2.23.64Z" fill="#2b2b2b"/><path d="M711.83,1847.24c-18.44,0-30.87-3.03-37.02-9.04-3.58-3.5-4.24-7.25-4.17-9.78.02-.78.15-1.56.39-2.32h0c.4-1.28,1.08-2.43,1.97-3.34,4.85-4.96,19.73-16.7,52.83-18.45,32.29-1.71,48.92,10.12,54.57,15.3,1.13,1.03,1.93,2.47,2.25,4.05.18.91.2,1.85.06,2.77-2.25,15.04-6.53,17.66-60.32,20.51-3.72.2-7.25.3-10.57.3ZM674.37,1827.14c-.14.46-.22.93-.23,1.4-.05,1.83.44,4.56,3.11,7.17,4.49,4.39,15.94,9.29,44.96,7.75,54.85-2.9,55.27-5.71,57.04-17.53.08-.52.07-1.06-.04-1.57-.17-.85-.59-1.62-1.17-2.15-5.33-4.88-21.07-16.04-52.03-14.39-32.77,1.74-46.96,13.76-50.52,17.41-.51.52-.9,1.18-1.13,1.91Z" fill="#2b2b2b"/><path d="M727.3,1949.41c-1.53,0-3.09-.02-4.67-.07-73.08-2.08-75.65-36.04-77.18-56.33-.11-1.41-.21-2.77-.33-4.06-.09-1.07-.22-2.13-.37-3.16-.14-.96.52-1.85,1.48-1.99.95-.14,1.85.52,1.99,1.48.16,1.09.29,2.22.39,3.35.12,1.3.23,2.68.33,4.12,1.54,20.35,3.86,51.11,73.79,53.1,27.84.79,48.19-5.53,60.51-18.79,14.29-15.38,12.46-35.05,12.44-35.25-.1-.96.6-1.82,1.56-1.92.97-.11,1.82.6,1.92,1.56.09.87,2.04,21.38-13.32,37.95-12.32,13.29-32,20.02-58.54,20.02Z" fill="#2b2b2b"/><path d="M797.42,1893.37c-.4,0-.79-.13-1.12-.41-.15-.13-15.5-12.8-41.38-19.4-23.85-6.09-61.81-8.13-107.21,16.75-.32.17-.61.33-.9.5l-.11.06c-.84.47-1.91.17-2.38-.68-.47-.84-.17-1.91.68-2.38l.11-.06c.32-.18.63-.35.95-.52,46.46-25.46,85.42-23.31,109.91-17.02,26.59,6.83,41.95,19.53,42.59,20.07.74.62.84,1.72.22,2.46-.35.41-.84.63-1.34.63Z" fill="#2b2b2b"/><path d="M685.01,1684.03c-1.66,0-3-1.34-3-3l-.06-166.05c0-1.66,1.34-3,3-3h0c1.66,0,3,1.34,3,3l.06,166.05c0,1.66-1.34,3-3,3h0Z" fill="#2b2b2b"/><path d="M685.05,1784.88c-1.66,0-3-1.34-3-3l-.04-100.84c0-1.66,1.34-3,3-3h0c1.66,0,3,1.34,3,3l.04,100.84c0,1.66-1.34,3-3,3Z" fill="#2b2b2b"/><path d="M778.84,1790.7c-1.62,0-2.96-1.29-3-2.92l-7.19-282.17c-.05-1.66,1.25-3.04,2.9-3.09,1.65-.04,3.04,1.25,3.09,2.9v.32s7.19,281.89,7.19,281.89c.04,1.66-1.27,3.03-2.92,3.08-.03,0-.05,0-.08,0Z" fill="#2b2b2b"/><path d="M733.49,1694.5c-.67,0-1.35,0-2.04-.02-32.07-.63-46.89-11.58-47.5-12.04-.44-.33-.69-.85-.69-1.4,0-.97.78-1.75,1.75-1.75.43,0,.83.16,1.14.42,1.21.86,15.76,10.69,45.38,11.28,30.46.63,42.73-12.74,43.24-13.31.03-.04.06-.07.1-.1.69-.66,1.8-.65,2.47.04.67.68.67,1.77,0,2.44-.97,1.06-13.83,14.45-43.84,14.45Z" fill="#2b2b2b"/><path d="M791.79,693.23c-23.88,0-43.42-5.81-58.35-17.39-27.14-21.05-28.8-53.19-28.86-54.55-.04-.96.71-1.78,1.67-1.82.95-.05,1.78.71,1.82,1.67.01.32,1.69,31.94,27.55,51.96,21.79,16.87,54.02,20.93,95.81,12.06.94-.2,1.87.4,2.08,1.35.2.95-.4,1.88-1.35,2.08-14.58,3.09-28.06,4.64-40.37,4.64Z" fill="#2b2b2b"/><path d="M847.97,682.26c-.74,0-1.43-.48-1.67-1.22-.29-.92.22-1.9,1.14-2.19.3-.1,30.45-9.99,36.2-43.45.16-.95,1.07-1.59,2.02-1.43.95.16,1.59,1.07,1.43,2.02-6.12,35.61-38.27,46.09-38.6,46.19-.17.05-.35.08-.52.08Z" fill="#2b2b2b"/><path d="M694.55,1488.1c-20.6,0-38.26-2.1-52.15-4.65-32.53-5.99-51.39-15.44-52.17-15.84-.86-.44-1.21-1.49-.77-2.35.44-.86,1.49-1.21,2.35-.77.19.1,19.29,9.66,51.37,15.55,29.58,5.43,76.58,8.74,132.45-6.3.93-.25,1.89.3,2.14,1.23.25.93-.3,1.89-1.24,2.14-30.36,8.17-58.14,10.98-81.99,10.98Z" fill="#2b2b2b"/><path d="M924.13,1491.62c-8.72,0-16.63-.46-23.61-1.16-33.03-3.31-52.51-12.27-53.33-12.65-.88-.41-1.25-1.45-.84-2.33.41-.88,1.45-1.25,2.33-.85.19.09,19.88,9.13,52.36,12.36,29.97,2.98,77.28,1.49,132.49-22.56.88-.39,1.92.02,2.3.91.39.89-.02,1.92-.91,2.3-43.13,18.78-81.53,23.97-110.79,23.97Z" fill="#2b2b2b"/><path d="M1027.22,969.59c-1.65,0-2.99-1.33-3-2.99,0-1.66,1.33-3,2.99-3.01.11,0,10.81-.06,26.51-1.41,13.97-1.2,35.05-3.73,56.19-8.93,35.28-8.66,59.57-21.7,72.22-38.77-3.61-8.99-23.21-56.76-52.6-109.32-42.81-76.56-86.85-128.47-127.36-150.13-.28-.15-28.01-14.96-44.67-21.64-1.54-.62-2.28-2.36-1.67-3.9.62-1.54,2.36-2.29,3.9-1.67,16.96,6.8,44.11,21.3,45.26,21.91,42.13,22.52,85.8,73.85,129.8,152.55,32.67,58.43,53.31,110.98,53.52,111.51.36.93.24,1.99-.33,2.81-13.23,18.94-39.01,33.23-76.64,42.46-21.51,5.29-42.93,7.86-57.11,9.08-15.97,1.37-26.9,1.43-27.01,1.43h-.01Z" fill="#2b2b2b"/><path d="M1026.67,969.67c-1.35,0-2.58-.92-2.91-2.29l-26.05-107.19c-.39-1.61.6-3.23,2.21-3.62,1.61-.39,3.23.6,3.62,2.21l26.05,107.19c.39,1.61-.6,3.23-2.21,3.62-.24.06-.48.09-.71.09Z" fill="#2b2b2b"/><path d="M1052.68,939.27c-.54,0-1.08,0-1.63,0-.97,0-1.74-.8-1.73-1.77,0-.96.79-1.73,1.75-1.73h.02c64.62.58,105.35-35.1,105.75-35.46.72-.64,1.83-.58,2.47.14.64.72.58,1.83-.14,2.47-.41.37-41.42,36.36-106.49,36.36Z" fill="#2b2b2b"/><path d="M1197.31,1087.68c-1.24,0-2.4-.78-2.83-2.01l-49.18-141.07c-.55-1.56.28-3.27,1.85-3.82,1.56-.54,3.27.28,3.82,1.85l49.18,141.07c.55,1.56-.28,3.27-1.85,3.82-.33.11-.66.17-.99.17Z" fill="#2b2b2b"/><path d="M1142.78,1106.41c-1.24,0-2.4-.78-2.83-2.02l-49.6-143.07c-.54-1.57.29-3.27,1.85-3.82,1.57-.54,3.27.29,3.82,1.85l49.6,143.07c.54,1.57-.29,3.27-1.85,3.82-.33.11-.66.17-.98.17Z" fill="#2b2b2b"/><path d="M635.35,536.41c2.23,0,3.66,1.2,4.35,2.76.07.03.13.05.2.08-2.11-7.9-2.83-15.51-2.72-22.5.41-25.2,11.49-44.7,11.6-44.89.2-.35.33-.73.38-1.13l1.95-15.67c.03-.22.03-.44,0-.66-.7-7.21-1.43-19.66-1.97-28.75-.15-2.57-.29-4.9-.41-6.82,0,0,0-.01,0-.02,0-.09-.01-.18-.02-.25-.21-1.64-1.72-2.81-3.35-2.6-1.59.2-2.73,1.61-2.62,3.19,0,.02,0,.04,0,.06.12,1.91.25,4.24.41,6.8.53,9,1.25,21.28,1.95,28.65l-1.83,14.76c-1.92,3.5-11.7,22.54-12.1,47.25-.1,6.35.43,13.17,1.95,20.24.63-.3,1.36-.48,2.22-.48Z" fill="#2b2b2b"/><path d="M982.52,502.83c-1.63-.27-3.18.83-3.45,2.47l-4.31,25.86c-.04.24-.05.49-.03.73,1.02,12.66.1,24.27-2.81,35.5-1.62,6.27-4.02,12.34-7.14,18.04-10.82,19.86-31.1,35.26-55.65,42.24-17.22,4.91-39.83,7.61-63.67,7.61h-.15c-38.46-.03-79.12-7.02-117.58-20.21-1.7-.58-3.37-1.17-5.02-1.77-24.47-8.93-42.25-19.58-55.05-30.91,1.18,1.91,1.02,4.66-.48,6.34.06.4.08.81.06,1.21,13.01,10.64,30.36,20.58,53.41,28.99,1.68.62,3.39,1.22,5.13,1.82,39.07,13.4,80.4,20.5,119.52,20.54h.15c24.38,0,47.57-2.78,65.31-7.84,26.09-7.42,47.69-23.87,59.27-45.14,3.35-6.13,5.93-12.66,7.68-19.41,3.05-11.77,4.04-23.91,3.01-37.11l4.25-25.5c.27-1.63-.83-3.18-2.47-3.45Z" fill="#2b2b2b"/><path d="M977.68,591.69c-3.89,0-7.76-.56-11.55-1.81-1.57-.52-2.43-2.21-1.91-3.79.52-1.57,2.21-2.43,3.79-1.91,21.78,7.15,48.08-13.33,61.82-26.17,1.08-1,2.14-2.03,3.16-3.08,11.66-11.79,20.76-26.26,26.35-41.84,12.43-34.68,9.68-56.63-8.17-65.24-16.01-7.72-38.74-2.11-38.96-2.05-1.61.41-3.24-.56-3.64-2.17-.41-1.61.56-3.24,2.17-3.64,1.01-.26,25.04-6.22,43.05,2.46,14.49,6.99,28.2,25.28,11.22,72.67-5.88,16.4-15.46,31.62-27.72,44.02-1.08,1.1-2.21,2.2-3.35,3.26-15.06,14.08-36.02,29.29-56.23,29.29Z" fill="#2b2b2b"/><path d="M634.27,513.7c-3.84-.24-7.52-.72-11.06-1.43,1.85,1.45,2.3,4.23,1.34,6.33,3.03.51,6.14.88,9.34,1.08.06,0,.13,0,.19,0,1.57,0,2.89-1.22,2.99-2.81.1-1.65-1.15-3.08-2.81-3.18Z" fill="#2b2b2b"/><path d="M647.82,371.67s-.48-.37-1.36-.98c-6.54-4.57-29.55-18.97-50.99-12.15-18.08,5.76-29.82,24.81-34.88,56.63-.43,2.7-.74,5.4-.96,8.09.81-.94,2.02-1.57,3.63-1.57.97,0,1.8.23,2.48.62.2-2.06.45-4.13.78-6.19,4.68-29.4,15.04-46.84,30.78-51.86,19.3-6.14,41.48,8.38,45.74,11.36.68.47,1.06.76,1.11.8,1.31,1.01,3.19.77,4.2-.53,1.02-1.31.78-3.19-.53-4.21Z" fill="#2b2b2b"/><path d="M989.66,565.13c-.62,0-1.22-.33-1.54-.91-.46-.85-.15-1.91.69-2.38,40.42-22.15,52.15-51.08,55.32-62.48,3.06-11.01,2.66-21.02-1.09-27.46-9.79-16.81-32.92-6.57-33.9-6.12-.88.4-1.92,0-2.32-.87-.4-.88-.01-1.92.87-2.32.27-.12,27-12,38.38,7.55,4.22,7.25,4.75,18.24,1.44,30.15-3.29,11.84-15.42,41.83-57.01,64.62-.27.15-.55.22-.84.22Z" fill="#2b2b2b"/><path d="M625.9,494.44c-.19,0-.37-.03-.56-.09-20.16-6.8-34.14-24.03-39.36-48.52-5-23.43-.63-50.27,9.74-59.84,4.7-4.34,10.05-6.39,15.92-6.1,13.21.65,24.27,12.92,24.74,13.44.64.72.58,1.83-.14,2.47-.72.64-1.83.58-2.47-.14-.1-.12-10.58-11.71-22.31-12.27-4.9-.24-9.39,1.51-13.36,5.18-8.37,7.73-13.86,32.29-8.69,56.54,2.87,13.45,11.5,37.31,37.06,45.93.92.31,1.41,1.3,1.1,2.22-.25.73-.93,1.19-1.66,1.19Z" fill="#2b2b2b"/><path d="M801.55,511.92c-.44,0-.88-.17-1.22-.5l-17.61-17.2c-.44-.43-.63-1.07-.48-1.67.15-.6.61-1.08,1.2-1.26,12.52-3.69,22.85-14.63,22.96-14.74.66-.71,1.77-.74,2.47-.08.71.66.74,1.77.08,2.47-.42.44-9.64,10.22-21.75,14.78l15.56,15.2c.69.68.7,1.78.03,2.47-.34.35-.8.53-1.25.53Z" fill="#2b2b2b"/><path d="M647.73,373.23c.63-21.66,3.76-41.25,9.26-58.54-.3-.31-.59-.63-.87-1.01-.53-.72-1.05-1.45-1.58-2.17-.18-.18-.31-.37-.3-.37-.02-.02-.03-.05-.05-.07-.28-.33-.57-.65-.88-.96-.36-.37-.62-.77-.84-1.2-6.44,18.73-10.05,40.2-10.74,64.06-.78,14.13-.43,29.23,1.03,44.86.15,1.55,1.45,2.72,2.98,2.72.09,0,.19,0,.28-.01,1.65-.15,2.86-1.62,2.71-3.27-1.44-15.34-1.78-30.13-1.01-44.05Z" fill="#2b2b2b"/><path d="M682.82,264.89c-.59-.94-1.21-1.85-1.79-2.79-.25-.39-.43-.78-.55-1.17-4.06,4.39-7.84,9.1-11.29,14.16.6.58,1.06,1.39,1.27,2.47.3,1.57.88,3.02,1.48,4.45,3.61-5.75,7.63-11.05,12.02-15.94-.44-.33-.83-.73-1.12-1.19Z" fill="#2b2b2b"/><path d="M750.34,225.32c-1.06.05-25.71,1.5-51.56,19.6,1.92.72,3.52,2.87,3.36,4.97,24.41-17.11,48.26-18.56,48.5-18.58,1.65-.09,2.92-1.49,2.84-3.15-.08-1.66-1.51-2.92-3.15-2.85Z" fill="#2b2b2b"/><path d="M981.22,438.43c-.21,0-.43-.02-.65-.07-.36-.08-.7-.16-1.04-.24-26.94-6.3-50.32-23.91-69.43-52.34-23.78-35.33-34.02-77.67-36.75-90.66-39.57,22.34-40.47,97.51-40.48,98.29,0,.99-.5,1.91-1.32,2.47-.82.56-1.86.67-2.78.31-41.8-16.32-50.81-85.6-52.54-105.37-21.17,14.09-114.77,78.72-127.35,127.55l-.25,1c-.4,1.61-2.03,2.58-3.64,2.18-1.61-.4-2.58-2.03-2.18-3.64l.25-1.02c14.72-57.13,129.3-130.81,134.17-133.92.9-.57,2.04-.63,2.99-.14.95.49,1.57,1.45,1.62,2.52.04.85,4.57,82.71,45.15,103.46.82-17.91,6.59-82.14,47.26-100.91.85-.39,1.83-.37,2.65.07.83.43,1.4,1.23,1.56,2.15.09.51,9.01,51.31,36.6,92.3,18.23,27.13,40.4,43.91,65.87,49.86.34.09.62.15.91.21,1.62.36,2.64,1.96,2.28,3.58-.31,1.4-1.55,2.35-2.93,2.35Z" fill="#2b2b2b"/><path d="M980.7,512.53c-.34,0-.69-.06-1.03-.18-1.32-.48-2.13-1.81-1.95-3.21,2.99-22.8,2.84-47.55-.44-73.56-8.15-64.68-33.17-116.53-33.42-117.05-.73-1.49-.11-3.29,1.38-4.01,1.49-.73,3.29-.11,4.01,1.38.26.52,25.7,53.22,33.98,118.93,2.67,21.23,3.3,41.66,1.88,60.92,6.32-11.76,15.7-30.94,23.38-53.86,22.58-67.3,27.11-155.16-79.58-191.51-1.57-.53-2.41-2.24-1.87-3.81.53-1.57,2.24-2.4,3.81-1.87,50.55,17.22,81.65,47.44,92.43,89.81,7.89,31,4.83,67.77-9.11,109.28-11.12,33.17-25.73,58.66-29.95,65.69-.65,1.09-1.01,1.66-1.01,1.66-.56.88-1.53,1.39-2.53,1.39Z" fill="#2b2b2b"/><path d="M597.9,349.23c-1.08,0-1.97-.28-2.68-.75-.64,3.64-1.25,7.32-1.82,11.03-.25,1.64.87,3.17,2.51,3.42,1.64.25,3.17-.87,3.42-2.51.66-4.27,1.37-8.5,2.12-12.68-.8.89-1.98,1.48-3.54,1.48Z" fill="#2b2b2b"/><path d="M1020.37,218.09c-29.88-34.27-68.95-50.84-96.47-58.7-27.74-7.92-49.1-8.84-52.65-8.93-3.37-1.14-23.79-7.7-52.72-9.87-28.69-2.15-71.36-.12-111.69,21.8-32.34,17.57-58.38,44.97-77.88,81.82,2.18,1.18,2.9,3.97,2.15,6.21.24.7.33,1.46.27,2.21,19.24-38.63,45.41-67.08,78.27-84.95,38.99-21.2,80.38-23.2,108.22-21.13,30.31,2.25,51.63,9.65,51.84,9.72.3.11.63.17.95.17.22,0,22.72.44,51.77,8.77,26.69,7.65,64.57,23.73,93.44,56.86,36.85,42.3,50.84,101.98,41.6,177.37-1.73,14.25-4.34,29.27-7.77,44.64-.36,1.62.66,3.22,2.28,3.58.22.05.44.07.65.07,1.38,0,2.61-.95,2.93-2.35,3.46-15.57,6.11-30.78,7.86-45.22,9.47-77.18-5.02-138.44-43.07-182.08Z" fill="#2b2b2b"/><path d="M1110.83,670.66c-.64,0-1.27-.21-1.79-.59-3.03-2.26-74.19-55.96-76.89-112.89-.08-1.66,1.2-3.06,2.85-3.14,1.68-.08,3.06,1.2,3.14,2.85,2.26,47.63,57.75,95,71.45,105.99,7.74-20.85,13.4-75.01,13.46-75.59.12-1.16.9-2.15,2.01-2.53,4.37-1.5,13.51.32,45.66,28,12.04,10.36,23.45,21.08,29.36,26.72,13.39-92.96-10.47-115.03-10.72-115.25-1.23-1.07-1.37-2.93-.33-4.18,6.21-7.45,25.14-1.67,35.4,2.21-21.09-64.51-101.87-100.7-102.71-101.07-1.09-.48-1.79-1.56-1.79-2.75s.7-2.27,1.79-2.75c17.07-7.5,22.76-41.69,24.46-56.66-25.86,19.49-82.02,42.49-84.59,43.53-.18.08-.31.13-.31.13-1.54.59-3.28-.18-3.88-1.72-.59-1.54.16-3.26,1.69-3.86l.15-.07c2.82-1.15,67.3-27.56,88.54-47.11.9-.83,2.21-1.03,3.31-.51,1.1.52,1.78,1.66,1.72,2.88-.12,2.18-2.96,50.06-23.55,65.82,7.94,3.95,24.09,12.66,41.62,26,22.48,17.11,51.32,45.3,61.08,82.48.29,1.11-.08,2.29-.95,3.04-.87.75-2.09.93-3.15.47-11.9-5.19-26.1-8.94-32-7.46,6.54,8.93,22.25,40.13,9.28,123.46-.17,1.11-.95,2.03-2.02,2.39-1.06.36-2.24.08-3.04-.7-.16-.16-16.08-15.71-33.3-30.53-24.89-21.42-34.57-25.92-38.05-26.75-1.34,12.21-7.22,62.02-15.21,78.43-.39.8-1.12,1.39-1.99,1.6-.23.06-.47.08-.71.08Z" fill="#2b2b2b"/><path d="M484.94,474.05c-20.07,23.74-47.32,46.74-56.77,54.49-15.49-53.85,21.77-123.94,22.16-124.66.51-.95.47-2.1-.1-3.01-.55-.87-1.48-1.39-2.53-1.4-2.65.79-5.41.93-8.15.68-16.38,2.11-33.48,8.15-42.33,11.62.2-.57.41-1.13.61-1.7-2.15.7-4.44,1.09-6.71,1.01-.39,1.15-.78,2.3-1.15,3.48-.16.52-.33,1.04-.49,1.57-.34,1.12,0,2.34.88,3.12.88.78,2.13.98,3.2.5.28-.12,26.3-11.53,49.02-13.92-8.64,17.66-35.79,79.54-18.81,128.78.32.92,1.06,1.63,1.99,1.9.93.27,1.94.08,2.7-.52,1.77-1.4,34.73-27.51,59.21-55.9l-2.76-6.05Z" fill="#2b2b2b"/><path d="M500.61,517.78c.4,0,.77.04,1.11.11-.76-4.95-1.2-9.85-1.39-14.6l-6.25-3.83c.09,6.9.66,14.2,1.97,21.6.58-1.81,2.1-3.28,4.56-3.28Z" fill="#2b2b2b"/><path d="M712.55,328.24c-.19,0-.38-.03-.56-.09-.45-.15-.82-.48-1.02-.91l-35.39-74.28c-.42-.87-.05-1.92.83-2.33l20.64-9.86c.86-.41,1.88-.06,2.31.79l36.94,72.69c.44.86.1,1.91-.76,2.35l-22.19,11.45c-.25.13-.53.19-.8.19ZM679.5,253.04l33.86,71.07,19.04-9.82-35.38-69.62-17.52,8.37Z" fill="#2b2b2b"/><path d="M678.02,358.63c-.14,0-.28-.02-.42-.05-.52-.13-.95-.49-1.18-.98l-36.17-80.06c-.37-.83-.05-1.8.74-2.25l21.7-12.17c.42-.24.93-.29,1.39-.14.46.15.84.48,1.05.92l35.76,75.6c.35.74.14,1.62-.5,2.13l-21.29,16.62c-.31.24-.69.37-1.08.37ZM644.1,277.56l34.59,76.57,18.43-14.39-34.36-72.64-18.67,10.46Z" fill="#2b2b2b"/><path d="M880.41,495.25c-2.39-.92-4.93-3.27-4.86-5.59.46-16.63,5.22-83.2,36.25-77.33s14.4,68.74,9.5,85.42c-.71,2.43-3.17,4.03-5.96,3.89-7.58-.38-22.82-1.71-34.93-6.39Z"/><path d="M697.85,460.9c-2.51-.92-4.18-2.98-4.17-5.18.14-15.84,2.75-80.03,35.96-73.75,32.84,6.21,16.69,66.46,11.84,82.27-.7,2.28-3.24,3.73-6.16,3.55-8.06-.51-24.43-2.1-37.48-6.88Z"/><g id="eyebrow_basic"><path d="M938.81,412.97c-.88,0-1.64-.66-1.74-1.55-1.78-15.76-8.03-24.13-18.58-24.87-7.24-.51-13.94,2.87-14,2.9-.86.44-1.91.1-2.35-.76-.44-.86-.1-1.91.76-2.35.31-.16,7.59-3.85,15.84-3.28,8.58.6,19.33,5.94,21.82,27.97.11.96-.58,1.83-1.54,1.94-.07,0-.13.01-.2.01Z" fill="#2b2b2b"/><path d="M696.95,367.22c-.37,0-.74-.12-1.06-.36-.77-.58-.92-1.68-.33-2.45,19.1-25.11,43.1-9.8,43.34-9.64.81.53,1.03,1.62.5,2.42-.53.81-1.61,1.03-2.42.5h0c-.87-.57-21.54-13.64-38.63,8.83-.34.45-.87.69-1.39.69Z" fill="#2b2b2b"/></g><path d="M848.72,575.63c-.11,0-.22,0-.33-.03-6.34-1.2-13.86-6.19-21.82-11.47-9.19-6.1-19.6-13.01-29.55-14.89-12.33-2.33-21.58.35-30.53,2.94-8.52,2.47-16.56,4.8-26.59,2.9-.95-.18-1.57-1.1-1.39-2.04.18-.95,1.09-1.57,2.04-1.39,9.2,1.74,16.86-.48,24.96-2.82,9.34-2.71,19.01-5.5,32.15-3.02,10.64,2.01,21.37,9.13,30.83,15.41,7.66,5.08,14.89,9.88,20.54,10.95.95.18,1.57,1.09,1.39,2.04-.16.84-.89,1.42-1.72,1.42Z" fill="#383233"/><path d="M690.28,623.21c-.96,0-1.91-.46-2.49-1.32-54.38-80.2-110.34-182.2-120.65-201.17-7.32,6.85-18.73,25.81-28.1,41.38-5.39,8.97-10.49,17.43-14.21,22.62-10.85,15.11-15.41,22.55-22.31,33.81-3.64,5.94-7.77,12.68-13.75,22.07-.04.06-.08.11-.12.17-6.86,9.3-11.39,16.67-15.77,23.79-7.03,11.44-13.68,22.25-28.88,40.01-1.08,1.26-2.97,1.41-4.23.33-1.26-1.08-1.41-2.97-.33-4.23,14.89-17.41,21.42-28.02,28.33-39.25,4.44-7.21,9.02-14.67,15.99-24.13,5.93-9.3,10.02-15.99,13.64-21.89,6.71-10.96,11.57-18.89,22.55-34.17,3.58-4.98,8.61-13.35,13.94-22.21,14.27-23.72,24.97-40.86,32.68-45.4.7-.41,1.54-.52,2.33-.3.79.22,1.45.75,1.83,1.47.62,1.15,62.29,115.67,122.01,203.75.93,1.37.57,3.24-.8,4.17-.52.35-1.1.52-1.68.52Z" fill="#2b2b2b"/><path d="M613.62,808.09c-.85,0-1.7-.36-2.29-1.06l-171.88-202.47c-1.07-1.26-.92-3.16.35-4.23,1.26-1.07,3.16-.92,4.23.35l171.88,202.47c1.07,1.26.92,3.16-.35,4.23-.56.48-1.25.71-1.94.71Z" fill="#2b2b2b"/><path d="M482.81,614.52c-.24,0-.48-.05-.72-.15-.88-.4-1.27-1.43-.88-2.32,31.36-69.52,75.76-129.46,96.38-150.92.67-.7,1.78-.72,2.47-.05.7.67.72,1.78.05,2.47-20.46,21.28-64.54,80.81-95.72,149.93-.29.65-.93,1.03-1.6,1.03Z" fill="#2b2b2b"/><path d="M559.15,426.14c-.91,0-1.81-.41-2.4-1.19-3.19-4.23-5.83-8.44-8.38-12.5-2.51-4.01-4.89-7.8-7.77-11.64-6.55-8.42-12.91-16.8-18.35-26.24-.83-1.44-.33-3.27,1.1-4.1,1.43-.83,3.27-.33,4.1,1.1,5.24,9.1,11.47,17.3,17.91,25.59,3.07,4.09,5.62,8.16,8.09,12.1,2.48,3.96,5.05,8.05,8.08,12.07,1,1.32.74,3.2-.59,4.2-.54.41-1.18.61-1.8.61Z" fill="#2b2b2b"/><path d="M502.01,511.96c-1.1,0-2.16-.61-2.69-1.66-13.34-26.63-26.92-53.22-40.05-78.93-4.68-9.16-9.36-18.33-14.05-27.53-.75-1.48-.17-3.28,1.31-4.04,1.48-.75,3.28-.17,4.03,1.31,4.69,9.2,9.37,18.37,14.05,27.52,13.14,25.72,26.72,52.32,40.07,78.97.74,1.48.14,3.28-1.34,4.03-.43.22-.89.32-1.34.32Z" fill="#2b2b2b"/><path d="M222.32,476.22c-.37,0-.74-.07-1.1-.21-.56-.22-1.03-.6-1.36-1.07-.24-.1-.47-.22-.68-.36-.17.05-.34.09-.52.11-.41.46-.96.8-1.59.95-1.14.26-2.31-.17-3.01-1.06-.06,0-.11.02-.17.02-1.19.13-2.32-.45-2.91-1.44-1.14-.02-2.26-.69-2.76-1.72-.22-.47-.32-.98-.29-1.48-.25-.19-.45-.39-.61-.6-.42-.4-.73-.92-.87-1.51-.04-.17-.07-.36-.08-.55-1.28-.41-2.18-1.52-2.34-2.93-.03-.25-.02-.5,0-.75.08-.55.25-1.08.5-1.56-.03-.4.01-.8.13-1.18-.05-.14-.09-.28-.13-.42-.21-.77-.11-1.55.24-2.22,0-.07,0-.14,0-.21,0-.19,0-.45,0-.55h0s-.18-.21-.66-.6c-.44-.35-.78-.82-.97-1.36l-.42-1.19c-.89-2.5-1.25-3.53-1.58-6.04-1.58-3.17-1.84-4.25-1.82-5.74,0-.28,0-.44-.11-.95-.09-.06-.62-.35-.98-.54-1.61-.86-4.31-2.3-4.82-6.46-.07-.61.04-1.22.32-1.76l.41-.77c1.36-2.54,1.28-2.63.74-3.2-.25-.26-.45-.57-.59-.9-.53-1.27-1.09-2.29-1.58-3.18-1.09-1.99-2.22-4.04-1.59-6.79-.23-.69-.33-1.2-.37-1.69-.16-.26-.54-.81-1.37-1.93-.64-.85-.77-1.98-.36-2.96-.09-.08-.19-.17-.27-.25-1.08-.97-2.88-2.6-3.98-5.9-.04-.11-.07-.22-.09-.34-.41-1.98-.32-3.13-.18-4.02-.13-.21-.37-.56-.82-1.14-.56-.73-.76-1.68-.53-2.57l.17-.65c.12-.46.23-.9.31-1.24-.38-.66-.76-1.5-1.15-2.84-2.32-2.78-3.88-5.36-1.49-8.26.01-.02.03-.04.05-.05-.42-1.36-.93-1.94-1.42-2.51-.87-1.01-1.69-2.14-1.66-3.95-1.59-1.43-2.61-3.08-1.7-5.55.02-.06.05-.12.07-.19h0s-.09-.53-.9-1.81c-.5-.79-.6-1.77-.28-2.65-1.02-.71-2.63-1.88-4.56-4.05-.69-.77-.93-1.84-.64-2.84.26-.88.9-1.59,1.74-1.93.14-.33.24-1.24-.6-2.12-.44-.45-.72-1.03-.81-1.64-.98-.92-2.3-2.53-2.47-5.11-1.37-1.25-1.78-2.87-2.15-4.34-.22-.87-.46-1.85-.92-3.07-.11-.29-.17-.59-.18-.9-.06-1.27-.07-2.2-.08-2.9,0-.07,0-.14,0-.22l-.05-.03c-.3-.16-.56-.38-.79-.63-2.7-3.04-3.1-4.96-1.65-7.94.06-.13.13-.27.2-.41-.76-.81-1.3-1.24-1.8-1.63-1.44-1.13-2.42-2.05-3.85-5.29-.06-.13-.1-.25-.14-.39-1.03-3.59-.24-6.04.54-7.49-.89-1.35-1.48-1.8-2.06-2.23-.87-.65-1.96-1.47-3.01-3.6-.46-.92-.41-2.01.12-2.88,1.43-2.37,1.53-2.93-.23-5.4-.33-.46-.52-.99-.55-1.55-.07-.04-.14-.09-.21-.14-1.11-.76-2.98-2.02-4.29-5.65-.47-1.31.02-2.78,1.19-3.54.42-.27.52-.41.52-.41.12-.28.07-1.55.03-2.57-.02-.57-.05-1.2-.06-1.9-.56-.33-1.52-.58-2.27-.77-.83-.22-1.7-.44-2.48-.82-1.07-.52-1.73-1.63-1.68-2.82.1-2.26.39-4.07.62-5.53.23-1.45.44-2.7.21-3.19-.32-.7-.37-1.49-.13-2.21-.77-.64-1.84-1.64-2.76-3.45-1.9-2.45-1.18-4.5-.83-5.51.21-.59.39-1.11-.48-2.67-2.85-1.42-2.85-5.48-2.67-8.03-.41-.64-.68-.89-.89-1.09-1.25-1.17-1.63-2.22-1.55-4.33.01-.31.07-.61.17-.89.24-.67-1.52-2.2-2.58-3.12-.84-.73-1.64-1.43-2.28-2.21-.53-.65-.77-1.5-.64-2.34.22-1.5.64-2.59.98-3.47.54-1.42.66-1.72-.62-3.76-.1-.16-.18-.32-.25-.5-1.32-.72-3.08-2.21-3.45-5.48-.34-2.43.48-4.23,1.03-5.42.5-1.08.56-1.25.34-1.7-1.78-2.19-2.44-2.64-2.47-2.65-1.03-.57-1.62-1.57-1.64-2.64-1.35-3.54-1.2-5.75-1-7.07-1.59-1.89-2.38-3.71-3.09-5.31-.41-.94-.81-1.85-1.36-2.76-.73-.58-1.04-1.33-1.18-1.91-.05-.21-.08-.42-.09-.62-.85-.48-1.43-1.31-1.58-2.26-.1-.67.02-1.35.35-1.93.09-.15.17-.31.26-.46.02-.34.11-.69.25-1.02.05-.11.1-.21.15-.31-.13-.6-.08-1.2.11-1.72.26-.73.79-1.31,1.44-1.65,0,0,0-.01,0-.02.24-.39.56-.71.93-.94,0-.03,0-.05,0-.08.03-.2.07-.39.13-.56-.41-.71-.52-1.56-.29-2.37.28-.93.99-1.67,1.89-1.98.13-.12.27-.23.42-.33,0-.02,0-.03.01-.05.32-1.33,1.38-2.3,2.71-2.54.11-.08.22-.14.34-.2.23-.3.5-.61.8-.91.5-.72,1.17-1.34,1.96-1.77.68-.37,1.45-.45,2.16-.28,3.43-.79,5.68-.21,7.69.3,1.58.41,2.96.76,5.19.51,2.07-.67,2.61-1.31,3.48-2.34,1.07-1.28,2.4-2.86,5.76-4.31,3.5-1.47,6.18-1.98,10.63-2.82l1.41-.27c.07-.01.14-.02.22-.03,2.12-.25,3.04-.95,4.2-1.83,1.1-.84,2.45-1.87,4.57-2.26,3.03-.98,4.99-.82,6.58-.69,1.74.14,2.8.23,5.89-1.79,2.24-1.52,3.58-2.19,5.13-2.96.92-.46,1.96-.98,3.41-1.79,3.14-1.9,5.45-1.66,7.3-1.46,1.7.18,3.04.32,6.08-1.75.49-.33,1.06-.51,1.66-.52,3.06-.03,3.35-.13,6.89-1.38.78-.28,1.7-.6,2.82-.98,3.29-2.03,4.75-2.22,6.56-2.26,1.06-.03,2.27-.05,5.72-1.46.44-.18.92-.25,1.4-.21,1.73.15,1.84-.03,2.68-1.46.72-1.23,1.71-2.91,3.86-3.94.14-.07.29-.13.45-.17,5.39-1.59,8.28-.81,10.57.04.12.04.26.1.38.14,2.42-.99,3.47-1.8,4.68-2.74,1.5-1.17,3.21-2.49,7.1-3.91,3.89-1.35,5.3-1.22,7.88-.85,1.1.16,2.54.37,4.85.48,2.57-3.39,5.46-7.19,10.51-6.02,2.35-.63,3.68-1.11,4.67-1.47,1.85-.67,2.85-.98,5.37-.85,2.41-.77,3.1-1.41,4.3-2.51.98-.9,2.19-2.03,4.4-3.41.17-.11.35-.19.53-.26,6.63-2.52,8.22-2.43,12.14-.95.6.22,1.25.47,2.05.73,1.26-.52,1.72-1.08,2.56-2.12,1.29-1.59,3.07-3.76,7.9-6.16.75-.37,1.63-.41,2.41-.11l.21.08c3.31,1.27,3.44,1.32,9.1,1.24,1.69-.91,2.72-1.88,3.72-2.82,1.67-1.57,3.53-3.33,7.17-3.14,1.33-.99,2.72-1.4,3.89-1.74,1.5-.44,2.8-.83,4.41-2.35.53-.5,1.22-.79,1.95-.81,2.29-.08,3-.32,4.57-.83,1.47-.48,3.46-1.13,7.4-1.89,1.74-1.29,3.08-1.63,4.38-1.97,1.24-.32,2.65-.68,5.29-2.22.76-.44,1.67-.53,2.5-.24q2.61.91,4.17-.19c1.06-.75,2.52-1.79,4.91-2.9.04-.02.09-.04.14-.06,3.14-1.27,4.54-1.33,6.19-1.27.9.03,1.75.06,3.97-.56,1.46-.97,2.54-1.79,3.42-2.46,2.47-1.87,4.11-3.14,8.04-3.04,2.96-.47,4.63-.26,6.11-.08,1.54.19,3,.37,6.65-.31,1.28-1.05,1.82-1.68,2.31-2.25,1.35-1.56,2.3-2.51,7.43-5.05,3.11-2.14,4.27-2.23,7.33-2.22,1.04,0,2.44.02,4.46-.09,1.95-.7,2.2-1.07,2.73-1.83.96-1.4,2.07-2.81,5.05-4.69.35-.22.75-.37,1.16-.43,4.77-.7,6.86.2,8.75,1.26.83.46,1.26.71,3.76-.13,2.85-1.67,3.53-2.72,4.08-3.57.89-1.38,1.84-2.58,4.49-3.3.09-.02.18-.04.27-.06,4.76-.83,6.91-.41,9.22.23,1.33.37,2.41.67,5.13.3,1.67-1.21,2.53-2.13,3.44-3.1,1.31-1.39,2.66-2.83,5.83-4.57.3-.16.62-.28.96-.33,1.38-.22,2.36-.37,3.11-.48q1.92-.28,3.97-1.09c.73-.29,1.69-.67,3.01-1.17.29-.11.59-.18.9-.19,4.24-.25,5.12-1.04,6.13-1.96.72-.65,1.62-1.47,3.12-2.07,3.79-1.44,6.52-.98,8.32-.68.49.08,1.16.19,1.36.16,0,0,.04-.03.12-.1.56-.54,1.31-.83,2.1-.84,3.18,0,3.57-.43,4.63-1.65,1.25-1.43,2.94-3.37,7.36-4.98.61-.35,1.32-.52,2.08-.47.5.04.98.19,1.38.45.13-.05.26-.09.4-.13.01-.01.03-.02.04-.03,1.31-1.01,3.19-.76,4.2.55,0,0,.01.01.02.02l.23.3c.28.36.55.7.79,1.02.02,0,.04,0,.06,0,.33,0,.65.06.95.16.04,0,.09.02.13.03.14,0,.28.01.42.04,1.68-.38,2.74.55,3.06.89.12.12.22.25.31.38.51.14,1.02.39,1.49.83.14.13.28.28.42.46,1.11-.03,2.18.55,2.73,1.53.45.81.73,1.6.85,2.35.33.3.64.69.89,1.21.61.32,1.16.84,1.58,1.66.49.98.4,2.12-.18,3-.06.38-.17.75-.35,1.08.14.57.18,1.22.11,1.94-.06.6-.13,1.26.16,2.34.87.77,1.36,1.36,1.88,1.98.52.63,1.11,1.35,2.39,2.6.37.36.64.81.78,1.31,1.1,3.8.01,6.04-.76,7.35,1.51,3.58,1.93,4.08,2.38,4.62.33.39.73.88,1.29,1.8.06.1.11.2.16.3,1.47,3.2,1.58,5.07,1.08,6.57.13.16.29.36.5.6.42.48.67,1.08.72,1.72.14,1.71.58,2.2,1.14,2.83,1.33,1.49,2.05,3.03,1.29,5.38.57,1.19.7,2.14.79,2.84.1.72.12.87.76,1.54.57.6.87,1.42.82,2.25-.02.34,0,.45,0,.46.04.07.32.45.56.79.64.89,1.62,2.24,2.94,4.63,1.25,2.44.31,4.82-.88,6.89,1.17,1.4,2.06,2.19,2.65,2.71.84.74,1.88,1.66,1.91,3.28.01.76-.21,1.38-.53,1.92,1.06,2.98,1.25,4.25.74,7.41.31.11.62.19.94.27,2.07.54,4.02,1.34,5.2,5.03.09.28.14.57.14.86.04,1.94-.5,3.51-.94,4.77-.66,1.91-.74,2.26.16,3.36.29.35.49.75.6,1.18,1.22.97,2.38,2.39,3.1,5.29,1.35,1.22,2.19,3.06.7,5.7-.36.63-.4.7.18,1.62.04.07.08.14.12.21,1.26.41,3.21,1.17,5.03,3.13.65.7.93,1.66.75,2.6-.21,1.13-.37,2.08-.5,2.88-.32,1.95-.56,3.44-1.27,4.86,1.46,2.32,1.98,2.57,2.17,2.66.42.2,1.11.53,1.84,1.32.47.52.75,1.19.78,1.9.12,2.9-.05,4.75-.19,6.23-.13,1.41-.21,2.31-.01,3.64.2.3.39.43.87.75.98.65,2.31,1.53,4.08,4.02.3.43.49.93.54,1.46.12,1.3.12,1.89.13,2.42,0,.64,0,1.25.39,4.07.38,1.02.58,1.96.78,2.86.23,1.06.47,2.16,1.03,3.67.38.27.67.57.87.85,1.28,1.71.96,3.64.24,7.87l-.15.87c.13.43.36.55,1.16.95.77.38,1.82.91,2.64,1.96.26.33.45.72.55,1.13.69,2.86.39,5.38.23,6.73-.02.13-.03.25-.04.36.39,1.34,1.03,2.08,1.84,3,.84.96,1.91,2.19,2.36,4.05.68.52,1.33,1.25,1.59,2.28.42,1.68-.47,2.96-.95,3.64-.38.54-.72,1.03-.8,1.91,2.75,1.99,3.42,3.37,3.82,5.57.08.42.14.79.3,1.26,2.62,3.21,2.66,4.89,1.38,8.65.6.34,1.07.56,1.49.77,1.43.69,2.42,1.23,4.13,3,.53.55.83,1.27.84,2.03.03,1.68-.24,3.23-.43,4.36-.05.27-.1.61-.14.88.26.53.36,1.13.27,1.74-.12.87-.14,1.35-.12,1.59.1.07.22.14.32.2.72.44,1.82,1.11,2.98,2.38.09.1.17.2.25.31,1.93,2.78,1.41,5.02,1.1,6.35-.22.96-.24,1.02.28,1.71.24.33.41.7.51,1.1.46,2.01,1.14,2.82,1.86,3.67.74.88,1.75,2.08,1.94,4.03.06.68-.1,1.36-.48,1.93-.71,1.09-.8,2.39-.91,5.23h0c.86,1.09,1.19,1.35,1.62,1.7.53.42,1.2.95,2.38,2.25.11.12.2.25.29.38,2.17,3.35,1.79,5.97,1.58,7.38.44.49.73,1.11.79,1.76.08.94.17,1.42.22,1.65.03.02.06.04.1.06,1.14.75,2.5,1.78,4.3,4.48.61.92.66,2.08.17,3.03.25.26.46.56.6.9.33.76.33,1.63,0,2.4-.3.69-.77,1.24-1.34,1.6.21.19.4.42.56.67.73,1.21.52,2.76-.5,3.73-.44.41-.89.74-1.35.99-.1.12-.21.24-.33.35-.04.83-.42,1.6-1.05,2.13,0,.03.01.07.02.1.19,1.27-.34,3.08-2.44,3.98-.16.07-.33.13-.5.17-.31.4-.72.74-1.21.98-.23.11-.47.19-.72.25-.45.09-.9.13-1.33.12-.05.04-.1.07-.15.1-.04,1.02-.6,2-1.56,2.53-1,.54-2.17.46-3.06-.11-.25.13-.52.23-.81.29-2.67.55-4.39.07-5.52-.25-.89-.25-1.15-.32-3.14,1.43-.53.47-1.2.73-1.91.75-2.73.07-3.14.32-4.02.87-.85.52-1.98,1.22-4.22,1.96-3.49,2.91-5.02,3.35-7.76,3.68-1.16.14-2.6.31-5.11,1.13-.21.07-.44.12-.66.14-2.08.19-2.77.46-4.45,1.13-1.25.5-2.95,1.17-5.8,2.02-1.67.83-3.01.89-4.01.93-1.25.06-2.44.11-5.64,2.58-.34.26-.72.44-1.14.54-2.87.68-3.88,1.3-4.76,1.83-1.58.96-2.84,1.56-6.21,1.43-2.94,1.48-4.6,1.59-6.5,1.72-1.14.08-2.43.16-4.47.64-1.9,1.12-2.78,1.59-3.71,2.09-1.36.73-2.76,1.48-7.92,4.59-.72.43-1.58.54-2.39.31-3.17-.92-3.36-.84-4.44-.4-.61.25-1.44.59-2.65.93-.06.02-.12.03-.18.04-3.97.86-4.98,1.74-6.16,2.76-1.6,1.39-3.12,2.53-6.67,3.35-3.07,1.19-4.98,1.33-6.38,1.43-1.06.08-1.38.1-2.03.5-.16.1-.33.19-.51.25-4.6,1.75-5.75,1.87-9.46,2.08-.93.05-2.07.11-3.53.23-2.62,1.78-4.75,1.54-6.34,1.36-1.16-.13-2.01-.23-3.44.37-.78.69-1.45,1.43-2.1,2.15-2.14,2.36-4.56,5.03-10.21,5.06-1.32.36-2.42.27-3.33.2-1.5-.12-3.19-.25-7.75,2.78-.28.19-.59.33-.92.41l-.4.1c-1.82.46-3.02.77-3.44,1.08-.4.29-.99,1.28-1.87,2.77l-.25.43c-.53.89-1.48,1.44-2.51,1.46-4.87.11-7.56-.88-9.34-1.53-.68-.25-1.07-.38-1.36-.44l-.99.77c-5.1,3.96-5.84,4.55-10.09,5.66-5.28,2.47-6.71,2.73-9.89,1.89-.7-.18-1.52-.4-2.75-.58-.5.49-.94.94-1.35,1.35-2.48,2.51-4.16,4.22-8.04,4.92-3.54,2.23-5.85,2.22-7.9,2.01-.23-.03-.55-.06-.67-.05,0,.01-.23.17-.68.7-.49.59-1.18.97-1.94,1.06-5.67.71-6.46,1.04-8.56,1.92-.96.41-2.16.91-4.03,1.57-3.89,2.04-6.32,1.58-8.48.92-.71-.21-.83-.25-1-.18-1.01.64-1.82,1.2-2.54,1.69-2.98,2.05-4.6,3.05-9.94,4.04-2.51,2.15-4.41,1.97-6.28,1.55-1.01-.22-1.8-.4-3.74.39-1.91.8-2.81,1.58-4.06,2.65-1.3,1.12-2.91,2.52-5.89,4.02-.41.21-.87.32-1.34.32-4.37.03-5.53.21-7.45.53-1.28.21-2.86.47-5.73.74-.58.28-1.37,1.02-2.21,1.79-1.8,1.68-4.27,3.98-8.3,5.34-.86.29-1.79.18-2.56-.3-.61-.38-2.68-.3-4.51-.23-1.36.05-2.87.11-4.57.07-.21.22-.4.43-.6.64-1.42,1.52-2.89,3.1-6.75,6.68-.23.21-.5.39-.78.52-2.92,1.34-5.57.97-7.7.67-1.93-.27-3.48-.49-5.32.33-.16.14-.32.28-.47.42-1.89,1.67-4,3.57-8.68,3.41-3.5,2.2-6.18,1.99-8.01,1.84q-1.35-.1-1.79.42c-.48.58-1.15.95-1.9,1.05-1.27.18-1.75.65-2.79,1.82-1.25,1.39-2.96,3.29-6.53,3.98-4.47,1.01-7,.58-9.03.23-1.63-.28-2.55-.44-4.43.22-1.11.6-1.85,1.04-2.48,1.41-1.78,1.04-2.72,1.56-6.31,2.99-.12.05-.24.09-.36.12-1.52.39-2.64.83-3.74,1.25-2.3.9-4.49,1.75-8.07,1.02-1.75.96-2.83,1.75-3.73,2.42-1.96,1.45-3.38,2.36-6.52,2.36h-.06c-.12.08-.23.15-.35.21-.48,1.04-1.28,1.79-2.31,2.08-.16.05-.33.08-.5.1-.01.02-.02.04-.04.06-.56.89-1.53,1.39-2.53,1.39ZM227.31,466.36c1.96.15,2.29-.1,3.74-1.17,1.16-.86,2.76-2.04,5.54-3.45.67-.34,1.44-.41,2.16-.21,2.39.67,3.23.34,5.48-.54,1.1-.43,2.46-.96,4.23-1.43,3.18-1.27,3.86-1.67,5.33-2.52.7-.41,1.55-.91,2.84-1.61.13-.07.26-.13.4-.18,3.52-1.29,5.75-.91,7.71-.58,1.75.3,3.4.58,6.73-.17.04,0,.07-.02.11-.02,1.62-.3,2.23-.98,3.24-2.11,1.1-1.22,2.57-2.85,5.33-3.53,2.2-2.03,4.5-1.85,6.07-1.72,1.56.12,2.78.22,4.95-1.35.59-.43,1.31-.63,2.03-.56,2.88.26,3.57-.36,5.26-1.85.28-.25.57-.5.87-.76.18-.16.39-.29.6-.4,3.64-1.8,6.69-1.38,9.13-1.04,1.74.24,2.86.37,3.98-.02,3.4-3.17,4.69-4.55,6.05-6,.49-.53.99-1.07,1.59-1.69.61-.63,1.45-.96,2.33-.91,2,.11,3.81.04,5.41-.02,2.41-.09,4.56-.17,6.42.44,2.2-.96,3.66-2.32,5.08-3.64,1.45-1.35,2.83-2.63,4.75-3.22.19-.06.39-.1.6-.12,2.92-.27,4.41-.51,5.72-.73,1.95-.32,3.38-.55,7.65-.6,1.92-1.04,2.97-1.94,4.07-2.89,1.41-1.22,2.87-2.48,5.7-3.66,3.42-1.38,5.5-1.1,7.33-.69.19.04.45.1.58.12.1-.05.39-.23.9-.74.44-.43,1-.72,1.6-.83,5.01-.86,5.87-1.46,8.44-3.23.8-.55,1.7-1.17,2.88-1.92.08-.05.16-.1.25-.14,2.4-1.21,4.29-.64,5.55-.26,1.18.36,1.95.59,4.1-.58.14-.08.29-.14.44-.2,1.83-.64,2.98-1.12,3.9-1.51,2.44-1.02,3.73-1.5,9.05-2.2,2.1-2.04,3.98-2.05,5.74-1.87,1.13.12,2.11.22,4.5-1.39.38-.25.81-.42,1.26-.48,2.37-.33,2.99-.96,5.3-3.3.71-.72,1.51-1.54,2.5-2.47.63-.6,1.49-.9,2.36-.81,2.5.25,4.03.65,5.04.92,1.46.38,1.65.44,6.06-1.64.17-.08.35-.14.53-.19q3.29-.85,8.18-4.65l1.74-1.35c.37-.29.8-.48,1.26-.57,2.08-.41,3.69.18,5.1.69,1.35.49,2.85,1.04,5.52,1.15,2.29-3.71,3.27-4.25,8.27-5.52,5.52-3.58,8.41-3.7,11.11-3.48.77.06,1.05.07,1.38-.05.35-.13.73-.19,1.09-.18,3.29.06,4.18-.92,6.15-3.09.83-.92,1.77-1.95,3-2.98.2-.17.42-.31.66-.42,3.17-1.47,5.38-1.23,6.99-1.04,1.34.15,1.65.18,2.69-.65.47-.38,1.04-.61,1.63-.66,1.96-.17,3.39-.24,4.54-.31,3.11-.17,3.72-.21,7.42-1.6,1.78-1.03,3.22-1.13,4.5-1.23,1.22-.09,2.47-.18,4.82-1.11.15-.06.3-.11.45-.14,2.53-.56,3.22-1.16,4.26-2.07,1.82-1.58,3.74-2.99,8.73-4.08.83-.24,1.39-.47,1.92-.69,2.24-.91,3.6-1.08,7.11-.16,4.39-2.63,5.75-3.36,7.07-4.07.93-.5,1.81-.97,3.87-2.19.25-.15.52-.26.8-.33,2.8-.7,4.54-.82,5.94-.91,1.68-.11,2.53-.17,4.81-1.41.5-.27,1.07-.4,1.63-.36,2.44.16,2.7,0,3.56-.52,1.01-.62,2.52-1.53,5.87-2.39,4.02-2.99,6.32-3.33,8.51-3.43.8-.04,1.13-.05,1.74-.38.18-.1.37-.18.57-.23,2.76-.81,4.31-1.43,5.56-1.93,1.78-.71,3.08-1.22,5.79-1.5,2.87-.91,4.63-1.12,5.93-1.28,1.71-.21,2.23-.27,5.05-2.69.31-.27.68-.47,1.07-.59,1.91-.58,2.68-1.06,3.42-1.52,1.5-.93,2.71-1.53,5.94-1.72,3.24-2.63,5.26-2.75,7.89-2.01.35.1.67.19,1,.24.02-.44.13-.91.39-1.38.27-.49.68-.89,1.16-1.17.13-.2.29-.4.49-.59.39-.56.93-.93,1.45-1.12.37-.14.8-.21,1.23-.18.01-.05.02-.1.04-.14.24-.92.89-1.64,1.71-2-.07-.41-.09-.88-.03-1.42.11-.96.67-1.8,1.51-2.28.28-.16.58-.27.89-.33.16-.2.35-.38.55-.53-.09-.09-.17-.2-.26-.31-.37-.5-1.13-1.88-.13-3.79.06-.12.13-.23.21-.34-.02-.94.23-1.84.7-2.61-1.5-1.1-2.13-2.29-2.45-4.74-1.28-1.55-1.01-3.36-.87-4.33.15-.99.25-1.72-.56-3.04-.73-.79-1.1-1.08-1.48-1.39-.91-.72-1.64-1.36-3.34-3.62-.42-.56-.63-1.25-.6-1.94l.05-1.08c.11-2.59.2-4.73,1.09-6.79-.08-.09-.16-.19-.23-.28-.88-1.04-2.17-2.58-2.98-5.61-1.72-2.68-1.23-4.8-.92-6.11.2-.84.22-.95-.07-1.4-.53-.54-1-.83-1.54-1.16-2.25-1.37-3.45-2.9-3.14-6.65-.43-1.28-.17-2.77.03-3.91.11-.64.23-1.34.3-2.06-.49-.41-.86-.59-1.52-.91-.91-.44-2.15-1.03-4.2-2.41-1.15-.77-1.63-2.23-1.14-3.54l.12-.33c.58-1.57,1.19-3.2,1.17-3.63-.09-.23-.85-1.12-1.13-1.46-.21-.25-.38-.53-.5-.83-.49-1.22-.65-2.14-.77-2.81-.14-.75-.18-1-2.48-2.49-.74-.48-1.23-1.26-1.34-2.14-.36-2.85.3-4.8.99-6.08-.45-.53-.71-1.22-.71-1.94,0-.62-.18-.87-1.09-1.92-1.07-1.23-2.53-2.91-3.25-5.92-.03-.14-.06-.28-.07-.43-.05-.52.01-1.03.09-1.66.11-.91.26-2.2.08-3.63-.07-.04-.14-.07-.21-.1-1.35-.67-3.88-1.93-4.5-5.79-.05-.32-.05-.65,0-.97l.24-1.42c.2-1.18.4-2.4.5-3.2-.35-.3-.63-.69-.82-1.13-1.07-2.61-1.46-4.36-1.77-5.77-.2-.91-.34-1.57-.63-2.27-.09-.23-.16-.47-.19-.72-.48-3.51-.49-4.33-.49-5.2,0-.3,0-.59-.04-1.08-.85-1.08-1.42-1.46-2.03-1.86-.9-.6-2.03-1.35-3.07-3.32-.14-.27-.24-.55-.3-.85-.46-2.42-.31-4.05-.15-5.77.1-1.07.21-2.25.2-3.9-1.23-.75-2.58-2.11-4.97-6.26-.64-1.11-.5-2.51.34-3.47.63-.71.74-1.18,1.15-3.75.07-.41.14-.84.22-1.32-.61-.38-1.21-.56-1.81-.74-1-.3-2.36-.72-3.11-2.17-.18-.35-.35-.82-.39-1.4-1.31-2.66-.82-4.65-.25-5.9-.33-.39-.56-.87-.66-1.39-.43-2.32-.98-2.71-1.42-3.03-.46-.33-1.65-1.17-1.92-2.77-2.23-3.35-1.23-6.26-.54-8.25.28-.82.54-1.55.6-2.28-.1-.24-.17-.37-.21-.43-.14-.05-.43-.13-.66-.19-1.04-.27-2.61-.69-4.5-2.05-.95-.68-1.41-1.85-1.19-3q.78-4.03-.63-7.83l-.07-.19c-.24-.64-.24-1.33-.04-1.95-.94-.89-2.25-2.25-3.81-4.37-.73-.99-.78-2.32-.13-3.37l.21-.33c.51-.82,1.26-2.02,1.43-2.61-1.03-1.84-1.8-2.91-2.37-3.7-.92-1.27-1.54-2.23-1.68-3.83-1.12-1.47-1.38-2.7-1.54-3.92-.09-.67-.13-.98-.64-1.69-.66-.92-.74-2.14-.21-3.14.06-.12.11-.22.15-.3-.99-1.12-2.03-2.55-2.44-5.23-1.34-1.67-2.24-3.4-1.11-5.61-.03-.23-.16-.85-.73-2.11-.27-.43-.45-.65-.68-.92-.88-1.05-1.54-1.99-3.21-5.92-1.7-2.37-.34-4.58.12-5.34.41-.67.68-1.11.49-2.18-1.11-1.13-1.73-1.88-2.21-2.46-.56-.68-.85-1.03-1.71-1.71-.44-.35-.78-.82-.97-1.36-.68-1.94-.8-3.44-.77-4.5-.49-.35-.86-.85-1.06-1.41-1.06.07-2.04-.47-2.62-1.38-.57-.88-.62-1.98-.19-2.89-.56-.3-1.04-.78-1.36-1.4-.13-.02-.25-.04-.38-.08-.25-.07-.49-.17-.71-.29-.93,0-1.87-.41-2.46-1.18-1,.96-2.53,1.12-3.71.35-.11-.07-.21-.15-.31-.23-.86.07-1.75-.29-2.37-.96-.46-.09-1.08-.33-1.62-.88-.03-.02-.06-.03-.09-.05-.64.51-1.09,1.02-1.53,1.52-1.72,1.97-3.45,3.51-8.11,3.68-2.03,1.32-4.07.98-5.62.72-1.51-.25-2.93-.5-5.14.35-.43.17-.7.41-1.27.93-1.84,1.67-3.83,3.09-9.34,3.48-1.08.41-1.89.73-2.53.99-2.6,1.03-2.8,1.08-5.3,1.45-.62.09-1.42.21-2.5.38-2.01,1.15-2.82,2.01-3.9,3.17-1.07,1.13-2.39,2.54-4.96,4.32-.37.25-.79.42-1.23.5-4.52.73-6.56.16-8.36-.34-1.47-.41-2.74-.76-6.44-.13-.41.12-.53.21-.53.21-.06.06-.23.32-.35.52-1.04,1.62-2.39,3.39-6.39,5.67-.16.09-.33.17-.51.23-4.9,1.69-6.86.94-8.92-.22-.9-.5-1.68-.94-4.32-.63-1.74,1.16-2.24,1.89-2.76,2.65-1.13,1.65-2.23,2.92-6.12,4.25-.25.09-.52.14-.79.15-2.45.15-4.08.14-5.28.12q-2.19-.02-4.03,1.27c-.12.09-.26.16-.39.23-4.47,2.2-4.95,2.76-5.75,3.68-.66.76-1.56,1.81-3.7,3.49-.37.29-.8.49-1.26.58-5.13,1.04-7.34.76-9.29.52-1.33-.17-2.39-.3-4.67.09-.2.04-.41.05-.61.04-2.01-.08-2.24.1-4.51,1.82-1.03.78-2.31,1.75-4.13,2.94-.25.16-.52.29-.8.37-3.21.95-4.75.98-6.3.92-.94-.03-1.51-.05-3.66.81-1.85.86-2.94,1.63-3.89,2.31-2.52,1.79-4.28,2.56-8.31,1.39-2.66,1.41-4.35,1.85-5.62,2.18-1.17.3-1.66.43-2.69,1.28-.39.33-.86.54-1.36.64-4.05.75-5.89,1.35-7.37,1.84-1.51.49-2.74.89-5.12,1.06-2.31,1.89-4.39,2.51-5.96,2.97-1.27.38-1.86.57-2.38,1.14-.69.76-1.72,1.11-2.73.94-1.7-.3-1.95-.07-3.54,1.43-1.23,1.16-2.92,2.75-5.78,4.14-.4.19-.83.3-1.27.3-6.6.1-7.55.06-10.98-1.22-2.79,1.54-3.8,2.78-4.78,3.98-1.22,1.5-2.61,3.2-6.25,4.35-.58.18-1.19.19-1.77.01-1.43-.43-2.5-.83-3.35-1.16-2.41-.91-2.7-1.02-7.6.84-1.58,1.02-2.44,1.81-3.28,2.58-1.54,1.42-2.99,2.77-7.14,4.01-.35.1-.71.14-1.07.12-1.81-.13-1.97-.07-3.5.48-1.14.41-2.87,1.03-5.97,1.83-.56.14-1.16.12-1.71-.06-1.28-.43-1.84-.16-4.77,3.73-.3.4-.61.81-.94,1.23-.58.75-1.49,1.22-2.44,1.17-3.59-.08-5.61-.38-7.09-.59-1.97-.29-2.38-.34-5.02.57-2.96,1.08-4.1,1.96-5.42,2.99-1.38,1.07-2.95,2.29-6.22,3.61-1.9.88-3.53.28-4.61-.12-1.24-.46-2.77-1.03-6.49.01-.37.24-.63.65-1.12,1.48-1.02,1.74-2.69,4.59-7.63,4.44-3.69,1.44-5.52,1.6-7.19,1.64-.96.02-1.44.04-3.81,1.53-.2.13-.41.23-.64.3-1.24.42-2.24.77-3.09,1.07-3.47,1.22-4.6,1.62-7.94,1.71-4.41,2.77-7.23,2.47-9.31,2.25-1.44-.15-2.16-.23-3.65.67-1.66.93-2.78,1.49-3.76,1.98-1.47.73-2.53,1.26-4.48,2.59-4.51,2.93-6.96,2.99-9.7,2.77-1.3-.1-2.42-.2-4.42.48-.16.05-.32.09-.49.12-.74.12-1.18.44-2.12,1.15-1.42,1.08-3.35,2.55-7.03,3l-1.31.25c-4.33.82-6.5,1.23-9.39,2.44-2.03.87-2.68,1.65-3.51,2.64-1.15,1.38-2.58,3.08-6.56,4.3-.16.05-.33.08-.49.11-3.53.46-5.85-.14-7.71-.62-.75-.19-1.4-.36-2.07-.44.04.92-.3,2.36-2.34,3.49-.21,1.02-.8,1.86-1.69,2.37-.39.22-.81.36-1.24.42-.04.18-.09.36-.16.54-.27.66-.76,1.19-1.37,1.51.64,1.12.59,2.47-.16,3.55-.06.09-.13.18-.21.26.56.54.89,1.29.91,2.09.02,1.01-.28,2.61-2.11,3.7.1.22.2.44.29.66.65,1.48,1.17,2.67,2.23,3.92,1.81,1.49,1.49,3.47,1.36,4.34-.14.89-.33,2.1.78,4.8.75.64,1.74,1.68,3.2,3.49.11.13.2.28.29.43,1.83,3.3.67,5.82-.02,7.33-.45.97-.64,1.42-.54,2.09,0,.04.01.08.02.13.09.81.13.83.83,1.12.67.27,2.06.84,2.54,2.46.09.3.15.67.14,1.09,1.86,3.51,1.34,5.6.46,7.91-.11.28-.21.55-.31.84.19.17.39.34.58.51,2.08,1.81,5.48,4.77,4.52,8.89.58.59,1.25,1.41,2.09,2.93.29.52.41,1.12.36,1.71-.16,1.77-.12,2.76-.05,3.27.47.24.88.6,1.17,1.05,2.79,4.35,2.32,6.8,1.64,8.76.16.2.3.41.41.65.51,1.07,1.01,1.48,1.59,1.95,1.39,1.12,2.65,2.63,1.93,5.36.42,1.72.14,3.46-.17,5.41-.13.78-.26,1.61-.37,2.54,1.87.5,4.38,1.33,5.81,3.72.28.46.42.99.42,1.53,0,1.11.04,2.05.07,2.86.1,2.39.18,4.54-1.24,6.42.36.48.74.73,1.16,1.02.9.61,2.32,1.58,2.73,3.82,2.51,3.81,2.4,6.6.98,9.59.12.1.25.2.41.32,1.35,1.01,2.71,2.19,4.57,5.56.06.11.11.22.16.33.65,1.62-.27,2.93-.61,3.42-.44.63-.99,1.41-.48,3.37.87,1.93,1.18,2.18,1.99,2.81.86.68,2.04,1.6,3.86,3.84.62.76.82,1.77.55,2.71-.37,1.28-.8,2.18-1.12,2.83-.04.08-.08.17-.12.25.1.15.27.37.53.68,2.53,1.36,2.67,2.78,2.7,5.17,0,.56.02,1.29.06,2.24.47,1.33.74,2.43.95,3.26.13.51.28,1.14.39,1.38.03.02.08.04.15.07,1.27.53,2.01,1.86,1.8,3.22-.19,1.26.17,1.56.95,2.21.61.5,1.72,1.42,1.78,2.99,1.17,1.89,1.52,4.11.95,6.22-.12.45-.29.88-.48,1.28.66.56,1.22.96,1.7,1.29,1.73,1.21,3.31,2.65,2.52,5.58,1.16,2.26,1.2,3.83.89,5.12.2.17.47.39.84.66,1.01.75,1.44,2.06,1.08,3.27-.03.09-.05.17-.06.23.05.05.1.11.15.17.8.92,2.14,2.46,2.93,5.81.08.33.1.66.07,1-.13,1.32-.6,2.23-1.03,2.85.25.36.67.91,1.35,1.7.29.34.51.75.62,1.19.43,1.62.71,2.03.87,2.26,1.05,1.52.92,2.52.35,4.79,1.1,1.62,1.43,2.74,1.12,4.44-.06.36-.13.73.07,1.77.6,1.69,1.4,2.41,2.25,3.18,1.01.91,2.76,2.49,2.31,5.28,1.26,1.76,1.62,2.55,1.66,3.8,0,.04.04.26.31.89.31.72.33,1.54.04,2.27-.26.67-.27.84.89,2.95.48.87,1.06,1.94,1.65,3.27,2.96,3.53,1.25,7.04-.05,9.47.21.42.62.65,1.49,1.11,1.32.7,3.31,1.76,3.98,4.39.29,1.19.3,1.88.29,2.49,0,.07,0,.13,0,.2.01.09.13.66,1.41,3.21.16.31.26.65.3,1,.26,2.24.45,2.76,1.34,5.26l.16.45c2.12,1.96,2.27,3.73,2.24,5.38,0,.22,0,.42,0,.61.35,0,.71.03,1.08.07.94.12,1.77.68,2.24,1.51.2.36.32.76.37,1.16.26.14.49.33.7.55.73.76.99,1.85.72,2.85,0,0,0,0,0,0,.57-.1,1.15-.12,1.74-.05.79.09,1.47.48,1.95,1.04.42-.32.9-.53,1.41-.6.54-.46,1.23-.7,1.98-.72,2.04.02,3.45.79,4.33,1.79ZM189.14,411.03h0s0,0,0,0ZM638.62,261.63s0,0,.01,0c0,0,0,0-.01,0Z" fill="#2b2b2b"/><path d="M227.18,446.92c-.27,0-.54-.06-.79-.19-.41-.21-.73-.57-.87-1.02l-8.44-25.63c-.3-.92.2-1.91,1.12-2.21.92-.3,1.91.2,2.21,1.12l7.89,23.97,20.2-6.65c.92-.3,1.91.2,2.21,1.12.3.92-.2,1.91-1.12,2.21l-21.86,7.19c-.18.06-.36.09-.55.09ZM296.54,424.1c-.73,0-1.42-.47-1.66-1.2-.3-.92.2-1.91,1.12-2.21l47.49-15.63c.92-.3,1.91.2,2.21,1.12.3.92-.2,1.91-1.12,2.21l-47.49,15.63c-.18.06-.37.09-.55.09ZM391.53,392.84c-.73,0-1.42-.47-1.66-1.2-.3-.92.2-1.91,1.12-2.21l47.49-15.63c.92-.3,1.91.2,2.21,1.12.3.92-.2,1.91-1.12,2.21l-47.49,15.63c-.18.06-.37.09-.55.09ZM203.12,373.79c-.73,0-1.42-.47-1.66-1.2l-15.63-47.5c-.3-.92.2-1.91,1.12-2.21.92-.3,1.91.2,2.21,1.12l15.63,47.5c.3.92-.2,1.91-1.12,2.21-.18.06-.37.09-.55.09ZM486.52,361.58c-.73,0-1.42-.47-1.66-1.2-.3-.92.2-1.91,1.12-2.21l47.49-15.63c.92-.3,1.91.2,2.21,1.12.3.92-.2,1.91-1.12,2.21l-47.49,15.63c-.18.06-.37.09-.55.09ZM581.5,330.32c-.73,0-1.42-.47-1.66-1.2-.3-.92.2-1.91,1.12-2.21l47.49-15.63c.92-.3,1.91.2,2.21,1.12.3.92-.2,1.91-1.12,2.21l-47.49,15.63c-.18.06-.37.09-.55.09ZM621.96,293.29c-.73,0-1.42-.47-1.66-1.2l-15.63-47.49c-.3-.92.2-1.91,1.12-2.21.92-.3,1.91.2,2.21,1.12l15.63,47.49c.3.92-.2,1.91-1.12,2.21-.18.06-.37.09-.55.09ZM171.86,278.8c-.73,0-1.42-.47-1.66-1.2l-15.63-47.49c-.3-.92.2-1.91,1.12-2.21.92-.3,1.91.2,2.21,1.12l15.63,47.49c.3.92-.2,1.91-1.12,2.21-.18.06-.37.09-.55.09ZM590.7,198.3c-.73,0-1.42-.47-1.66-1.2l-15.63-47.49c-.3-.92.2-1.91,1.12-2.21.92-.3,1.91.2,2.21,1.12l15.63,47.49c.3.92-.2,1.91-1.12,2.21-.18.06-.37.09-.55.09ZM157.94,192.57c-.73,0-1.42-.47-1.66-1.2-.3-.92.2-1.91,1.12-2.21l47.49-15.63c.92-.3,1.91.2,2.21,1.12.3.92-.2,1.91-1.12,2.21l-47.49,15.63c-.18.06-.37.09-.55.09ZM252.93,161.31c-.73,0-1.42-.47-1.66-1.2-.3-.92.2-1.91,1.12-2.21l47.49-15.63c.92-.3,1.91.2,2.21,1.12.3.92-.2,1.91-1.12,2.21l-47.49,15.63c-.18.06-.37.09-.55.09ZM347.92,130.05c-.73,0-1.42-.47-1.66-1.2-.3-.92.2-1.91,1.12-2.21l47.49-15.63c.92-.3,1.91.2,2.21,1.12.3.92-.2,1.91-1.12,2.21l-47.49,15.63c-.18.06-.37.09-.55.09ZM559.44,103.31c-.73,0-1.42-.47-1.66-1.2l-12.18-37.02-7.15,2.35c-.92.3-1.91-.2-2.21-1.12s.2-1.91,1.12-2.21l8.81-2.9c.92-.3,1.91.2,2.21,1.12l12.73,38.68c.3.92-.2,1.91-1.12,2.21-.18.06-.37.09-.55.09ZM442.91,98.79c-.73,0-1.42-.47-1.66-1.2-.3-.92.2-1.91,1.12-2.21l47.49-15.63c.92-.3,1.91.2,2.21,1.12.3.92-.2,1.91-1.12,2.21l-47.49,15.63c-.18.06-.37.09-.55.09Z" fill="#2b2b2b"/><path d="M629,314.69c-.14,0-.28-.02-.42-.05l-17.72-4.31c-.94-.23-1.51-1.17-1.29-2.11s1.18-1.52,2.11-1.29l17.72,4.31c.94.23,1.51,1.17,1.29,2.11-.19.8-.91,1.34-1.7,1.34ZM572.42,300.92c-.14,0-.28-.02-.42-.05l-38.87-9.46c-.94-.23-1.52-1.17-1.29-2.11.23-.94,1.18-1.51,2.11-1.29l38.87,9.46c.94.23,1.52,1.17,1.29,2.11-.19.8-.91,1.34-1.7,1.34ZM494.68,282c-.14,0-.28-.02-.42-.05l-38.86-9.46c-.94-.23-1.52-1.17-1.29-2.11.23-.94,1.18-1.52,2.11-1.29l38.87,9.46c.94.23,1.51,1.17,1.29,2.11-.19.8-.91,1.34-1.7,1.34ZM416.95,263.08c-.14,0-.28-.02-.42-.05l-38.87-9.46c-.94-.23-1.51-1.17-1.29-2.11.23-.94,1.18-1.52,2.11-1.29l38.87,9.46c.94.23,1.51,1.17,1.29,2.11-.19.8-.91,1.34-1.7,1.34ZM339.22,244.16c-.14,0-.28-.02-.42-.05l-38.87-9.46c-.94-.23-1.51-1.17-1.29-2.11.23-.94,1.18-1.52,2.11-1.29l38.87,9.46c.94.23,1.51,1.17,1.29,2.11-.19.8-.91,1.34-1.7,1.34ZM261.49,225.24c-.14,0-.28-.02-.42-.05l-38.87-9.46c-.94-.23-1.51-1.17-1.29-2.11.23-.94,1.18-1.52,2.11-1.29l38.86,9.46c.94.23,1.52,1.17,1.29,2.11-.19.8-.91,1.34-1.7,1.34ZM183.76,206.32c-.14,0-.28-.02-.42-.05l-38.87-9.46c-.94-.23-1.51-1.17-1.29-2.11.23-.94,1.18-1.51,2.11-1.29l38.87,9.46c.94.23,1.51,1.17,1.29,2.11-.19.8-.91,1.34-1.7,1.34Z" fill="#2b2b2b"/><path d="M227.18,446.92c-.4,0-.79-.13-1.12-.41-.74-.62-.84-1.72-.22-2.46l11.7-13.99c.62-.74,1.72-.84,2.47-.22.74.62.84,1.72.22,2.46l-11.7,13.99c-.35.41-.84.63-1.34.63ZM264.53,402.23c-.4,0-.79-.13-1.12-.41-.74-.62-.84-1.72-.22-2.46l25.65-30.69c.62-.74,1.72-.84,2.46-.22.74.62.84,1.72.22,2.46l-25.65,30.69c-.35.41-.84.63-1.34.63ZM315.84,340.85c-.4,0-.79-.13-1.12-.41-.74-.62-.84-1.72-.22-2.46l25.65-30.69c.62-.74,1.72-.84,2.46-.22.74.62.84,1.72.22,2.46l-25.65,30.69c-.35.41-.84.63-1.34.63ZM367.14,279.47c-.4,0-.79-.13-1.12-.41-.74-.62-.84-1.72-.22-2.46l25.65-30.69c.62-.74,1.72-.84,2.46-.22.74.62.84,1.72.22,2.46l-25.65,30.69c-.35.41-.84.63-1.34.63ZM418.45,218.09c-.4,0-.79-.13-1.12-.41-.74-.62-.84-1.72-.22-2.46l25.65-30.69c.62-.74,1.72-.84,2.46-.22.74.62.84,1.72.22,2.46l-25.65,30.69c-.35.41-.84.63-1.34.63ZM469.75,156.7c-.4,0-.79-.13-1.12-.41-.74-.62-.84-1.72-.22-2.46l25.65-30.69c.62-.74,1.72-.84,2.47-.22.74.62.84,1.72.22,2.46l-25.65,30.69c-.35.41-.84.63-1.34.63ZM521.06,95.32c-.4,0-.79-.13-1.12-.41-.74-.62-.84-1.72-.22-2.46l25.65-30.69c.62-.74,1.72-.84,2.46-.22.74.62.84,1.72.22,2.46l-25.65,30.69c-.35.41-.84.63-1.34.63Z" fill="#2b2b2b"/><path d="M1350.14,1563.58h-.9c-6.8,0-13.59-.1-20.18-.27-51.57-1.27-99.29-7.23-134.38-16.77-25.48-6.93-55.86-18.92-55.86-36.64,0-30.1,92.82-53.68,211.32-53.68s211.33,23.58,211.33,53.68c0,6.88-4.71,13.49-14,19.65-.71.52-1.71.43-2.31-.23-.66-.71-.61-1.82.1-2.47.05-.04.1-.09.16-.13.03-.02.06-.04.08-.06,8.28-5.48,12.47-11.11,12.47-16.75,0-12.8-21.89-25.56-60.06-35.02-39.45-9.78-91.93-15.16-147.77-15.16s-108.32,5.38-147.77,15.16c-38.17,9.46-60.05,22.22-60.05,35.02,0,11.92,19.42,24.05,53.28,33.26,34.82,9.48,82.25,15.39,133.55,16.65,6.57.17,13.33.26,20.1.26h.9c.97,0,1.75.78,1.75,1.75s-.78,1.75-1.75,1.75Z" fill="#2b2b2b"/><path d="M1566.21,1592.04c-.09,0-.18,0-.27-.01-1.65-.15-2.87-1.58-2.72-3.23v-.07s.01-.08.02-.13l5.35-39.7c.22-1.64,1.74-2.79,3.37-2.57,1.64.22,2.79,1.73,2.57,3.37l-5.34,39.68c-.19,1.5-1.48,2.65-2.98,2.65Z" fill="#2b2b2b"/><path d="M1354.84,1960.17c-71.21,0-122.91-12.11-153.66-36-22.91-17.79-25.24-35.73-25.41-37.38l-13.38-95.2c-.23-1.64.91-3.16,2.55-3.39,1.64-.22,3.16.91,3.39,2.55l13.39,95.26c0,.05.01.11.02.16.01.15,1.86,17,23.69,33.69,20.47,15.64,63,34.29,149.4,34.29s127.68-19.03,147.12-34.99c20.7-17,21.46-34.16,21.46-34.33,0-.1.01-.22.03-.32l22.31-165.88c.22-1.64,1.73-2.79,3.37-2.57,1.64.22,2.79,1.73,2.57,3.37l-22.29,165.74c-.1,2.19-1.6,20.24-23.08,38.16-29.27,24.43-80.23,36.82-151.49,36.82Z" fill="#2b2b2b"/><path d="M1157.75,1739.97c-1.47,0-2.76-1.08-2.97-2.58l-26.18-186.37c-.23-1.63.89-3.15,2.51-3.4,1.62-.24,3.14.83,3.41,2.45v.04s26.2,186.44,26.2,186.44c.23,1.64-.91,3.16-2.55,3.39-.14.02-.28.03-.42.03Z" fill="#2b2b2b"/><path d="M1264.91,1784.44c-3.13,0-5.83-.04-8.05-.08h-.16c-.85-.02-1.66-.39-2.22-1.04-.56-.65-.82-1.5-.71-2.35l.31-2.42c.05-1.36-.28-1.57-1.85-2.2l-26.07-6.78c-19.92-5.63-39.22-13.36-57.44-22.96l-25.36-13.37c-.3.16-.93.69-1.35,1.75l-.59,1.5c-.58,1.47-2.2,2.24-3.7,1.76-1.69-.54-41.39-14.12-38.27-98.43.91-24.57,8.02-60.72,19.53-99.17.48-1.59,2.15-2.49,3.73-2.01,1.59.47,2.49,2.15,2.01,3.73-11.37,37.99-18.4,73.59-19.28,97.67-1.54,41.64,7.89,64.61,16.07,76.55,6.02,8.78,12.25,13.01,15.58,14.8.97-1.69,2.35-3,3.93-3.68,1.47-.63,3.03-.68,4.41-.13.1.04.2.08.29.13l25.79,13.59c17.85,9.41,36.76,16.98,56.21,22.48l26.19,6.82c.12.03.24.07.36.12,1.79.72,5.8,2.32,5.8,7.68,61.32.42,115.73-16.04,161.72-48.87.29-.2.53-.38.77-.55l1.81,2.39,1.72,2.46c-.28.21-.57.41-.85.61-30.64,21.87-65.28,36.82-102.91,44.38-24.39,4.9-44.54,5.62-57.42,5.62Z" fill="#2b2b2b"/><path d="M1243.08,1820.22c-1.95,0-3.84-.33-5.02-.78l-27.74-8.07c-15.83-4.61-31.35-10.58-46.14-17.75-3.7-1.79-7.4-3.67-10.99-5.6l-22.95-10.87c-.13-.06-.27-.14-.39-.22-3.33-2.24-6.63-6.3-5.16-10.49l1.26-5.61c-22.97-20.95-36.74-48.47-40.94-81.83-8-63.52,17.95-134.93,29.47-162.69.64-1.53,2.39-2.25,3.92-1.62,1.53.64,2.26,2.39,1.62,3.92-8.85,21.31-37.1,95.81-29.06,159.64,4.09,32.51,17.65,59.18,40.29,79.28.82.73,1.18,1.84.94,2.9l-1.69,7.52c-.03.15-.08.3-.14.45-.18.45.7,2.06,2.66,3.43l22.8,10.8s.09.04.13.07c3.54,1.9,7.18,3.76,10.83,5.52,14.49,7.02,29.7,12.87,45.21,17.39l27.86,8.11c.1.03.21.07.31.11.99.41,4.05.58,5.07.11l1.55-5.25c.41-1.4,1.77-2.3,3.23-2.13.31.04,31.46,3.57,73.8-4.31,38.98-7.26,95.72-25.96,144.69-73.87.17-.16.28-.27.4-.38l.21-.21c1.19-1.15,3.09-1.12,4.24.07,1.15,1.19,1.12,3.09-.07,4.24l-.19.18c-.15.15-.3.29-.45.43-50.06,48.98-108.09,68.08-147.95,75.47-36.7,6.8-64.53,5.28-72.86,4.58l-.99,3.35c-.03.08-.05.17-.09.25-.38.95-1.23,2.25-3.15,3.07-1.32.56-2.95.78-4.54.78Z" fill="#2b2b2b"/><path d="M1348.82,1575.92c-62.06,0-120.44-6.42-164.39-18.07-45.15-11.97-70.01-28.42-70.01-46.3s24.86-34.33,70.01-46.3c43.95-11.66,102.33-18.08,164.39-18.08s120.45,6.42,164.39,18.08c45.14,11.97,70.01,28.42,70.01,46.3,0,11.53-9.83,22.21-29.22,31.76-1.49.73-3.29.12-4.02-1.37-.73-1.49-.12-3.29,1.37-4.02,16.93-8.33,25.87-17.45,25.87-26.38,0-14.69-23.89-29.46-65.54-40.5-43.46-11.53-101.3-17.87-162.85-17.87s-119.39,6.35-162.85,17.87c-41.66,11.05-65.55,25.81-65.55,40.5s23.89,29.45,65.55,40.5c43.46,11.53,101.3,17.87,162.85,17.87h.04c1.27,0,2.55,0,3.82-.01h.56c1.66,0,3,1.34,3,3s-1.34,3-3,3h-.53c-1.28.01-2.58.01-3.89.01Z" fill="#2b2b2b"/><path d="M1558.85,1560.7c-1.02,0-2.01-.52-2.57-1.46-.85-1.42-.39-3.26,1.03-4.12,4.46-2.68,8.28-5.49,11.37-8.35,3.89-3.61,6.58-7.27,8.01-10.89.03-.07.05-.13.08-.19h0s2.06-5.4.47-23.89c-.14-1.65,1.08-3.1,2.73-3.25,1.64-.12,3.1,1.08,3.25,2.73,1.67,19.31-.4,25.56-.97,26.87-1.77,4.44-4.96,8.82-9.48,13.02-3.39,3.14-7.55,6.2-12.36,9.09-.48.29-1.02.43-1.54.43Z" fill="#2b2b2b"/><path d="M1333.4,1596.43c-129.77,0-183.32-27.24-203.7-43.48-2.33-1.85-4.42-3.73-6.22-5.57-1.44-1.46-2.7-2.91-3.74-4.29-1.51-2-2.54-3.83-2.95-5.27-1.48-5.16-2.04-13.87-2.25-20.26-.12-3.47-.12-5.9-.12-6,0-1.66,1.34-3,3-3s3,1.34,3,3c0,.02,0,2.43.12,5.8.29,8.57,1.01,15.25,2.03,18.82.03.12.37,1.19,1.97,3.31.89,1.18,1.97,2.42,3.23,3.7,1.63,1.67,3.54,3.38,5.67,5.08,19.76,15.75,72.02,42.17,199.96,42.17,7.11,0,14.27-.05,21.29-.16h.05c1.64,0,2.97,1.31,3,2.95.03,1.66-1.3,3.02-2.95,3.05-7.05.11-14.24.16-21.38.16Z" fill="#2b2b2b"/><path d="M1559.76,1566.8c-.06,0-.13,0-.19,0-1.65-.11-2.91-1.53-2.8-3.19l.34-5.33c.11-1.65,1.53-2.91,3.19-2.8,1.65.11,2.91,1.53,2.8,3.19l-.34,5.33c-.1,1.59-1.42,2.81-2.99,2.81Z" fill="#2b2b2b"/><path d="M1430.74,1734.51c-2.41,0-4.82-.02-7.23-.05-17.03-.23-34.19-1.28-51.01-3.13-3.62-.4-7.39-1.03-10.11-4.02-3.3-3.62-3.43-9.17-3.52-12.85-.76-33.06-2.6-66.52-5.46-99.43-.38-4.35-.56-9.09-.75-14.1-.1-2.49-.19-5.02-.32-7.55-.27-5.84-.75-13.38-2.08-19.98-.49-2.48-1.08-4.76-1.77-6.77-.48-1.38-.98-2.78-1.43-3.57q-.41-.74-3.11-.64c-.63.02-1.34.05-2.14.06-.28,0-1.33.15-2.27.27-2.79.38-7.01.94-10.52.83h0c-4.64-.16-7.22-1.63-7.65-4.38-.63-4.03.95-8.26,4.58-12.25.43-.48.87-.92,1.29-1.33,7.88-7.54,18.78-11.93,32.38-13.04,7-.57,14.04-.29,20.85,0,4.12.17,8.37.34,12.53.32,9.93-.07,20.06-1.26,29.86-2.42l1.18-.14c9.39-1.11,18.94-2.35,28.18-3.55,16.54-2.15,33.64-4.37,50.52-5.92,8.88-.81,17.03-1.38,24.9-1.73,3.49-.16,6.71-.26,9.86-.33.11,0,.22,0,.32,0,6.66,0,9.19,4.25,9.98,6.09.32.74.64,1.48.95,2.23,1.89,4.43,3.66,8.79,5.26,12.96,2.22,5.72,4.29,11.5,6.16,17.16,3.49,10.61,6.27,20.82,8.49,31.23,3.71,17.37,5.75,34.81,6.24,53.33.13,4.86.47,9.93.84,15.3,1.08,15.94,2.2,32.43-2.09,46.48-.82,2.69-1.77,5.52-3.46,7.94-3.77,5.42-10.06,7.27-15.67,8.59-1.76.41-3.52.82-5.28,1.21-25.81,5.79-52.2,9.71-78.45,11.67-13.26,1-26.7,1.5-40.06,1.5ZM1345.41,1557.38c2.45,0,4.44.43,6.01,3.22.61,1.07,1.14,2.48,1.8,4.4.76,2.23,1.42,4.73,1.95,7.42,1.39,6.93,1.89,14.71,2.17,20.72.12,2.55.22,5.1.32,7.6.19,4.96.37,9.63.74,13.86,2.87,33.02,4.71,66.58,5.48,99.75.09,3.88.33,7.53,2.21,9.6,1.55,1.7,4.17,2.11,6.96,2.42,16.66,1.83,33.67,2.87,50.54,3.1,15.58.21,31.35-.27,46.85-1.44,26.01-1.94,52.16-5.83,77.72-11.56,1.75-.4,3.49-.8,5.24-1.2,4.91-1.15,9.95-2.61,12.7-6.58,1.28-1.84,2.04-4.15,2.78-6.55,4.02-13.17,2.94-29.19,1.88-44.68-.37-5.42-.72-10.55-.85-15.51-.48-18.21-2.48-35.35-6.13-52.42-2.19-10.23-4.92-20.28-8.35-30.71-1.84-5.58-3.88-11.27-6.07-16.92-1.58-4.12-3.33-8.43-5.2-12.81-.31-.74-.63-1.47-.95-2.21-.89-2.1-2.78-3.11-5.61-3.07-3.11.07-6.3.17-9.74.33-7.79.35-15.86.91-24.67,1.72-16.78,1.54-33.84,3.76-50.33,5.9-9.25,1.2-18.82,2.45-28.23,3.56l-1.18.14c-9.93,1.17-20.2,2.39-30.41,2.45-4.27,0-8.59-.15-12.76-.32-6.66-.27-13.54-.55-20.24,0-12.43,1.01-22.3,4.94-29.34,11.67-.36.34-.71.7-1.04,1.07-1.74,1.91-3.7,4.78-3.38,7.8.31.14,1.11.41,2.92.47h0c3.09.1,7.06-.43,9.68-.79,1.51-.2,2.32-.31,2.87-.32.76,0,1.43-.03,2.03-.06.57-.02,1.11-.04,1.64-.04Z" fill="#2b2b2b"/><path d="M1441.18,1714.53h-.03c-8.49-.12-16.93-.53-25.09-1.21-.96-.08-1.68-.93-1.6-1.89.08-.96.92-1.67,1.89-1.6,8.07.68,16.43,1.08,24.84,1.2.97.01,1.74.81,1.73,1.78-.01.96-.79,1.72-1.75,1.72ZM1466.17,1714.1c-.93,0-1.7-.73-1.75-1.67-.05-.97.7-1.79,1.66-1.83,8.15-.39,16.51-1.03,24.83-1.91.96-.12,1.82.6,1.92,1.56.1.96-.6,1.82-1.56,1.92-8.39.88-16.82,1.53-25.03,1.92-.03,0-.06,0-.09,0ZM1391.41,1710.27c-.09,0-.19,0-.29-.02-3.11-.51-6.25-1.08-9.31-1.68-.8-.16-1.39-.86-1.41-1.67,0-.06-.15-6.14-.49-15.67-.03-.97.72-1.78,1.69-1.81.99-.04,1.78.72,1.81,1.69.25,6.88.39,11.98.46,14.31,2.59.5,5.22.97,7.83,1.39.95.16,1.6,1.06,1.44,2.01-.14.86-.88,1.47-1.73,1.47ZM1515.89,1708.9c-.84,0-1.59-.61-1.73-1.47-.15-.95.5-1.85,1.45-2,8.32-1.33,16.56-2.89,24.48-4.62.95-.2,1.88.39,2.08,1.34.21.94-.39,1.88-1.34,2.08-7.99,1.74-16.29,3.31-24.68,4.65-.09.02-.19.02-.28.02ZM1559.87,1694.03s-.09,0-.14,0c-.96-.08-1.68-.92-1.61-1.88.53-6.69.8-13.63.8-20.64,0-1.39-.01-2.78-.03-4.17-.01-.97.76-1.76,1.72-1.78.94-.02,1.76.76,1.78,1.72.02,1.4.03,2.81.03,4.22,0,7.1-.27,14.14-.81,20.92-.07.92-.84,1.61-1.74,1.61ZM1380.58,1667.86c-.93,0-1.7-.73-1.75-1.66-.43-8.71-.91-17.12-1.42-25-.06-.96.67-1.8,1.63-1.86.95-.07,1.8.67,1.86,1.63.52,7.9.99,16.33,1.42,25.05.05.96-.7,1.79-1.66,1.83-.03,0-.06,0-.09,0ZM1559.24,1644.09c-.89,0-1.65-.68-1.74-1.58-.77-8.05-1.87-16.35-3.26-24.67-.16-.95.48-1.86,1.44-2.01.96-.16,1.86.48,2.01,1.44,1.41,8.4,2.51,16.79,3.29,24.92.09.96-.61,1.82-1.58,1.91-.06,0-.11,0-.17,0ZM1377.26,1617.84c-.9,0-1.66-.69-1.74-1.6-.83-9.34-1.73-17.69-2.68-24.84-.13-.96.55-1.84,1.5-1.96.96-.13,1.84.54,1.97,1.5.96,7.2,1.87,15.61,2.7,24.99.09.96-.63,1.81-1.59,1.9-.05,0-.1,0-.16,0ZM1551.06,1594.77c-.8,0-1.52-.55-1.7-1.35-1.85-7.98-3.98-16.09-6.34-24.09-.27-.93.26-1.9,1.19-2.17.93-.28,1.9.26,2.17,1.19,2.37,8.07,4.52,16.24,6.39,24.29.22.94-.37,1.88-1.31,2.1-.13.03-.27.04-.4.04ZM1369.89,1568.31c-.75,0-1.45-.49-1.68-1.25-1.81-6.03-3.28-7.37-3.83-7.67-4.18-2.26-8.79-4.31-13.33-5.91-.91-.32-1.39-1.32-1.07-2.23.32-.91,1.32-1.38,2.23-1.07,4.71,1.66,9.49,3.78,13.84,6.13,2.12,1.15,3.87,4.24,5.52,9.74.28.93-.25,1.9-1.17,2.18-.17.05-.34.07-.5.07ZM1536.97,1546.78c-.72,0-1.39-.45-1.65-1.16-5.12-14.37-9.12-23.06-9.16-23.15-.4-.88-.02-1.92.86-2.32.88-.4,1.92-.02,2.32.86.04.09,4.1,8.91,9.28,23.44.32.91-.15,1.91-1.06,2.24-.19.07-.39.1-.59.1Z" fill="#2b2b2b"/><path d="M1382.14,1708.6c-.36,0-.73-.11-1.04-.34-.78-.58-.94-1.67-.36-2.45.07-.1,7.45-10.05,18.37-25.05.57-.78,1.66-.95,2.44-.38.78.57.95,1.66.39,2.45-10.93,15.01-18.31,24.97-18.39,25.07-.34.46-.87.71-1.41.71ZM1418.7,1658.38c-.35,0-.71-.11-1.02-.33-.79-.56-.97-1.66-.4-2.44,6.25-8.72,12.31-17.22,17.98-25.27.56-.79,1.65-.98,2.44-.42.79.56.98,1.65.42,2.44-5.68,8.06-11.74,16.57-18,25.3-.34.48-.88.73-1.42.73ZM1454.45,1607.65c-.34,0-.69-.1-.99-.31-.8-.55-1-1.64-.45-2.43,5.29-7.68,10.24-14.97,14.72-21.68.9-1.34,1.78-2.67,2.66-3.99.53-.81,1.62-1.03,2.43-.49.81.53,1.03,1.62.49,2.43-.88,1.32-1.77,2.66-2.66,4-4.49,6.72-9.45,14.02-14.75,21.72-.34.49-.89.76-1.44.76ZM1488.57,1555.84c-.31,0-.63-.08-.91-.26-.82-.5-1.08-1.58-.58-2.41,8.13-13.32,12.84-22.41,13.98-27,.23-.94,1.18-1.51,2.12-1.28.94.23,1.51,1.18,1.28,2.12-1.25,5.01-5.95,14.17-14.39,27.98-.33.54-.91.84-1.5.84Z" fill="#2b2b2b"/><path d="M1559.36,1699.57c-.64,0-1.26-.35-1.57-.97-.05-.11-5.49-10.9-15.56-26.66-.52-.81-.28-1.9.53-2.42s1.9-.28,2.42.53c10.18,15.92,15.68,26.87,15.74,26.98.43.86.08,1.92-.78,2.35-.25.13-.52.19-.78.19ZM1526.1,1647.23c-.53,0-1.06-.24-1.41-.71-6.23-8.38-12.74-16.48-19.34-24.07-.63-.73-.56-1.83.17-2.47.73-.63,1.84-.56,2.47.17,6.66,7.66,13.22,15.83,19.51,24.28.58.78.42,1.87-.36,2.45-.31.23-.68.35-1.04.35ZM1485.36,1600.53c-.44,0-.88-.16-1.22-.49-5.28-5.11-10.7-9.98-16.09-14.5-2.36-1.98-4.75-3.92-7.12-5.77-.76-.6-.9-1.7-.3-2.46.6-.76,1.7-.9,2.46-.3,2.4,1.88,4.82,3.84,7.21,5.84,5.45,4.57,10.93,9.5,16.27,14.67.7.67.71,1.78.04,2.47-.34.36-.8.53-1.26.53ZM1436.51,1562.57c-.31,0-.61-.08-.9-.25-9.04-5.39-18.28-10.01-27.46-13.73-.9-.36-1.33-1.38-.97-2.28.36-.9,1.38-1.33,2.28-.96,9.35,3.78,18.75,8.48,27.94,13.97.83.5,1.1,1.57.61,2.4-.33.55-.91.85-1.5.85ZM1379.21,1539.66c-.12,0-.24-.01-.36-.04-6.34-1.32-12.79-2.26-19.16-2.79-.96-.08-1.68-.93-1.6-1.89s.93-1.68,1.89-1.6c6.52.54,13.11,1.5,19.59,2.85.95.2,1.55,1.12,1.36,2.07-.17.83-.9,1.39-1.71,1.39Z" fill="#2b2b2b"/><path d="M1249.68,1811.28c-.79,0-1.51-.54-1.7-1.34-5.37-22.29,7.35-29.8,7.89-30.11.84-.47,1.91-.18,2.39.66.48.84.18,1.9-.65,2.38-.47.27-10.94,6.67-6.22,26.25.23.94-.35,1.88-1.29,2.11-.14.03-.28.05-.41.05Z" fill="#2b2b2b"/><path d="M1129.89,1762.11s-.08,0-.12,0c-.96-.06-1.69-.9-1.63-1.86,0,0,.01-.21.06-.61.39-3.64,2.24-16.2,9.52-24.99.19-.24.42-.51.65-.77.64-.72,1.75-.78,2.47-.14.72.64.79,1.75.14,2.47-.19.21-.37.42-.55.64-6.85,8.27-8.49,20.75-8.76,23.17-.03.29-.04.45-.04.47-.06.92-.83,1.63-1.74,1.63Z" fill="#2b2b2b"/></svg>