<?xml version="1.0" encoding="UTF-8"?><svg id="_レイヤー_38" xmlns="http://www.w3.org/2000/svg" width="2000" height="2000" viewBox="0 0 2000 2000"><path d="M1449.35,1500.71h-7.57c-1.66,0-3-1.34-3-3s1.34-3,3-3h7.57c1.66,0,3,1.34,3,3s-1.34,3-3,3Z" fill="#2b2b2b"/><path d="M590.33,1500.71h-13.44c-1.66,0-3-1.34-3-3s1.34-3,3-3h13.44c1.66,0,3,1.34,3,3s-1.34,3-3,3Z" fill="#2b2b2b"/><path d="M1801.09,1730.93H198.89c-10.14,0-18.95-6.51-21.94-16.2-1.38-4.36-1.38-9.05,0-13.54l58.65-190.28c3-9.69,11.82-16.2,21.96-16.2h183.09c1.66,0,3,1.34,3,3s-1.34,3-3,3h-183.09c-7.49,0-14.01,4.81-16.23,11.97l-58.65,190.27c-1.02,3.32-1.02,6.77,0,9.99,2.21,7.18,8.73,11.99,16.21,11.99h1602.2c7.55,0,14.27-5.08,16.34-12.36.86-2.97.86-6.17,0-9.24l-53.92-190.29c-2.06-7.26-8.78-12.33-16.34-12.33h-162.78c-1.66,0-3-1.34-3-3s1.34-3,3-3h162.78c10.22,0,19.31,6.86,22.11,16.69l53.92,190.3c1.17,4.16,1.16,8.49,0,12.53-2.8,9.83-11.89,16.7-22.1,16.7Z" fill="#2b2b2b"/><path d="M1795.8,1786.37h-.09l-114.54-.36-1352.52-4.22-124.41-.38c-15.12-.05-27.41-12.39-27.41-27.51v-43.26c0-1.66,1.34-3,3-3s3,1.34,3,3v43.26c0,11.82,9.61,21.47,21.43,21.51l124.41.38,1352.52,4.22,114.54.36h.07c5.74,0,11.13-2.23,15.19-6.28,4.08-4.06,6.32-9.47,6.32-15.23v-47.78c0-1.66,1.34-3,3-3s3,1.34,3,3v47.78c0,7.36-2.87,14.28-8.09,19.48-5.2,5.18-12.09,8.03-19.43,8.03Z" fill="#2b2b2b"/><path d="M235.05,3236.8s-.04,0-.07,0c-1.66-.04-2.97-1.41-2.94-3.06l30.12-1407.86c.33-15.65,9.48-29.16,23.89-35.26,14.43-6.12,30.55-3.29,42.05,7.38l1.09,1.02c.61.57.95,1.38.94,2.22l-1.56,146.16-10.32,961.55-1.2,110.99-2.27,211.42c-.02,1.66-1.35,3.01-3.03,2.97-1.66-.02-2.99-1.38-2.97-3.03l2.72-253.35.75-69.05,10.32-961.55,1.55-144.84-.11-.1c-9.74-9.03-23.39-11.43-35.62-6.24-12.2,5.17-19.95,16.62-20.23,29.87l-30.12,1407.86c-.04,1.63-1.37,2.94-3,2.94Z" fill="#2b2b2b"/><path d="M1762.18,3239.73c-1.65,0-2.99-1.34-3-2.99l-5.03-1412.84c-.06-17.52-13.55-32.03-30.72-33.02-18.37-1.06-31.31,7.03-34.99,9.67v1207.27c0,1.66-1.34,3-3,3s-3-1.34-3-3v-1208.76c0-.89.39-1.73,1.07-2.3.65-.54,16.13-13.27,40.27-11.87,20.32,1.18,36.3,18.3,36.37,38.99l5.03,1412.84c0,1.66-1.33,3-2.99,3.01h-.01Z" fill="#2b2b2b"/><path d="M1629.17,2016.65h-.02l-1245.75-7.68c-.07,0-.15,0-.22,0-21.5-1.71-37.59-9.51-47.84-23.17-10.34-13.78-11.88-29.99-11.88-38.42,0-2.93.19-4.92.26-5.52l1.95-161.48c.02-1.66,1.39-3.03,3.04-2.96,1.66.02,2.98,1.38,2.96,3.04l-1.95,161.63c0,.12,0,.23-.02.34,0,.01-.23,1.9-.23,4.95,0,7.69,1.39,22.43,10.68,34.82,9.15,12.2,23.76,19.2,43.41,20.78l1245.51,7.68c1.78-.16,26.95-2.74,41.07-21.37,6.47-8.53,9.75-19.26,9.75-31.9l-1.69-174.34v-.71c0-1.66,1.34-3,3-3s3,1.34,3,3v.68l1.69,174.34c0,14.01-3.69,25.96-10.97,35.56-16.24,21.43-44.34,23.66-45.52,23.74-.07,0-.14,0-.21,0Z" fill="#2b2b2b"/><path d="M316.26,2911.93s-.04,0-.06,0c-1.66-.03-2.97-1.41-2.94-3.06l19.18-922.79c.03-1.66,1.41-3.01,3.06-2.94,1.66.03,2.97,1.41,2.94,3.06l-19.18,922.79c-.03,1.63-1.37,2.94-3,2.94Z" fill="#2b2b2b"/><path d="M1682.23,2909.06c-1.65,0-2.99-1.33-3-2.98l-6.14-914.29c-.01-1.66,1.32-3.01,2.98-3.02h.02c1.65,0,2.99,1.33,3,2.98l6.14,914.29c.01,1.66-1.32,3.01-2.98,3.02h-.02Z" fill="#2b2b2b"/><path d="M1168.82,1942.02h-337.65c-.97,0-1.75-.78-1.75-1.75v-97.2c0-.97.78-1.75,1.75-1.75h337.65c.97,0,1.75.78,1.75,1.75v97.2c0,.97-.78,1.75-1.75,1.75ZM832.92,1938.52h334.15v-93.7h-334.15v93.7Z" fill="#2b2b2b"/><path d="M1605.64,1402.1c-.06,0-.12,0-.19,0-.13,0-13.46-.83-31.75-1.34-1.66-.05-2.96-1.43-2.92-3.08.05-1.66,1.44-2.98,3.08-2.92,11.84.33,21.62.79,27.12,1.08-5.85-13.58-25.31-57.66-57.96-120.72-.76-1.47-.19-3.28,1.28-4.04,1.47-.76,3.28-.19,4.04,1.29,39.56,76.42,59.85,125.11,60.05,125.59.4.96.27,2.05-.33,2.89-.56.79-1.48,1.26-2.44,1.26Z" fill="#2b2b2b"/><path d="M1455.45,1118.6c-.94,0-1.86-.44-2.45-1.26-3.13-4.4-6.37-8.76-9.63-12.96-1.02-1.31-.78-3.19.53-4.21,1.31-1.02,3.19-.78,4.21.53,3.31,4.27,6.61,8.7,9.78,13.17.96,1.35.64,3.22-.71,4.18-.53.38-1.13.56-1.74.56Z" fill="#2b2b2b"/><path d="M1518.98,1535.17c-8.74,0-17.8-1.14-26.94-3.45-21.07-5.32-37.99-18.75-50.28-39.91-.83-1.43-.35-3.27,1.09-4.1,1.43-.83,3.27-.35,4.1,1.09,11.61,19.99,26.84,32.13,46.56,37.11,26.62,6.73,52.39,2.96,70.68-10.34,15.73-11.43,24.81-29.03,26.27-50.89.4-5.93-1.91-17.24-6.66-32.69-5.48-17.82-14.43-34.15-26.59-48.53l-32.69-38.65c-1.07-1.27-.91-3.16.35-4.23s3.16-.91,4.23.35l32.69,38.65c12.69,15.01,22.03,32.05,27.74,50.64,5.04,16.38,7.36,28.1,6.91,34.85-1.58,23.69-11.51,42.83-28.73,55.34-13.38,9.72-30.36,14.75-48.74,14.75Z" fill="#2b2b2b"/><path d="M420.27,1405.36c-.97,0-1.88-.47-2.44-1.26-.6-.84-.73-1.94-.33-2.89.2-.49,20.78-49.88,60.91-127.25.76-1.47,2.57-2.05,4.04-1.28,1.47.76,2.04,2.57,1.28,4.04-33.17,63.95-52.92,108.68-58.82,122.38,5.5-.29,15.28-.75,27.12-1.08,1.66-.07,3.04,1.26,3.08,2.92.05,1.66-1.26,3.04-2.92,3.08-18.29.51-31.62,1.33-31.75,1.34-.06,0-.12,0-.19,0Z" fill="#2b2b2b"/><path d="M570.35,1122.03c-.6,0-1.21-.18-1.74-.55-1.35-.96-1.67-2.83-.71-4.18,4.73-6.66,9.67-13.17,14.68-19.37,1.04-1.29,2.93-1.49,4.22-.45,1.29,1.04,1.49,2.93.45,4.22-4.93,6.1-9.79,12.51-14.45,19.07-.58.82-1.51,1.26-2.45,1.26Z" fill="#2b2b2b"/><path d="M506.93,1535.17c-18.38,0-35.36-5.02-48.74-14.75-17.22-12.51-27.15-31.65-28.73-55.34-.45-6.75,1.88-18.48,6.91-34.85,5.72-18.6,15.05-35.64,27.74-50.64l32.96-38.98c1.07-1.26,2.96-1.42,4.23-.35,1.27,1.07,1.42,2.96.35,4.23l-32.96,38.98c-12.17,14.38-21.11,30.71-26.59,48.53-4.75,15.46-7.06,26.76-6.66,32.69,1.46,21.86,10.54,39.46,26.27,50.89,18.29,13.29,44.06,17.06,70.68,10.34,22.04-5.57,38.59-20.17,50.57-44.63.73-1.49,2.53-2.1,4.01-1.37,1.49.73,2.1,2.53,1.37,4.01-12.81,26.14-30.63,41.78-54.49,47.81-9.14,2.31-18.2,3.45-26.94,3.45Z" fill="#2b2b2b"/><path d="M1278.22,880.65c-.68,0-1.36-.23-1.93-.7-1.27-1.06-1.44-2.96-.37-4.23,12.28-14.63,21.27-30.66,26.74-47.62,3.51-10.83,5.67-22.06,6.42-33.39,1.35-20.21-.84-40.42-6.7-61.79-.07-.24-.1-.48-.11-.73l-.98-45.22c-.04-1.66,1.27-3.03,2.93-3.07,1.64-.08,3.03,1.27,3.07,2.93l.09,3.76.89,41.09c5.96,21.9,8.19,42.65,6.8,63.42-.78,11.82-3.04,23.54-6.7,34.83-5.7,17.7-15.07,34.4-27.85,49.63-.59.71-1.44,1.07-2.3,1.07Z" fill="#2b2b2b"/><path d="M742.82,879.92c-.94,0-1.86-.44-2.44-1.26-12.85-18-21.34-38.6-25.25-61.23-7.34-42.54,3.69-78.17,5.41-83.33l-1.67-26.27c-3.54-12.19-8.73-32.91-12.53-48.07-1.08-4.31-2.06-8.22-2.88-11.43h0s-.02-.07-.03-.11c-.41-1.52.44-3.11,1.95-3.62,1.57-.52,3.27.32,3.8,1.89.03.09.06.21.09.32,0,0,0,.02,0,.03.82,3.21,1.8,7.13,2.88,11.45,3.82,15.25,9.06,36.13,12.57,48.17.06.21.1.43.11.65l1.73,27.19c.03.4-.03.8-.16,1.18-.13.37-12.86,37.46-5.36,80.92,3.75,21.74,11.9,41.51,24.22,58.77.96,1.35.65,3.22-.7,4.18-.53.38-1.14.56-1.74.56Z" fill="#2b2b2b"/><path d="M1312.32,832.89c-2.57,0-5.15-.16-7.75-.5-1.64-.22-2.8-1.72-2.58-3.37s1.73-2.8,3.36-2.58c40.32,5.29,78.99-38.5,98.45-65.07,1.52-2.06,3.01-4.18,4.43-6.31,16.15-23.98,27.07-51.73,31.59-80.24,5.61-35.38,4.29-62.9-3.91-81.79-6.49-14.96-17.41-24.59-32.45-28.63-30.46-8.18-67.82,8.96-68.19,9.14-1.5.7-3.29.05-3.99-1.45-.7-1.5-.05-3.29,1.45-3.99,1.61-.75,39.74-18.23,72.28-9.49,16.89,4.54,29.14,15.32,36.4,32.04,8.66,19.96,10.12,48.59,4.33,85.12-4.65,29.37-15.9,57.95-32.53,82.64-1.46,2.19-3,4.39-4.58,6.52-23.17,31.63-58.1,67.97-96.32,67.97Z" fill="#2b2b2b"/><path d="M699.67,821.12c-19.96,0-38.44-4.27-55.11-12.77-17.29-8.81-32.5-21.86-46.51-39.88-2.19-2.82-4.31-5.75-6.3-8.71-17.89-26.51-27.85-58.13-28.82-91.43-1.58-54.68,11.82-90.08,39.84-105.21,33.28-17.96,76.08-1.23,88.41,4.32,1.59.71,2.49,1.17,2.53,1.19,1.48.75,2.06,2.56,1.31,4.03-.75,1.47-2.56,2.06-4.03,1.31,0,0-.81-.41-2.25-1.05-8.34-3.75-51.45-21.59-83.11-4.52-25.86,13.97-38.2,47.53-36.69,99.76.93,32.16,10.55,62.68,27.8,88.25,1.92,2.85,3.96,5.67,6.06,8.38,30.28,38.96,67.82,55.05,114.75,49.19,1.64-.21,3.14.96,3.35,2.6.21,1.64-.96,3.14-2.6,3.35-6.34.79-12.55,1.19-18.62,1.19Z" fill="#2b2b2b"/><path d="M1335.69,783.82c-.51,0-1.01-.22-1.35-.64-.61-.75-.51-1.85.24-2.46,61.79-50.82,72.48-104.02,74.21-124.54,1.68-19.99-2.31-37.17-10.96-47.13-22.74-26.23-60.75.02-61.13.28-.79.56-1.88.37-2.44-.42-.56-.79-.37-1.88.42-2.44.41-.29,40.97-28.34,65.79.28,9.26,10.67,13.56,28.79,11.8,49.72-1.68,19.93-8.61,41.33-20.04,61.9-13.24,23.8-31.88,45.69-55.43,65.05-.33.27-.72.4-1.11.4Z" fill="#2b2b2b"/><path d="M696.35,780.63c-.08,0-.16,0-.24-.02-35.89-5-64.76-29.45-81.29-68.86-15.83-37.74-17.1-84.1-2.83-103.33,6.36-8.57,14.5-13.6,24.19-14.95,22.08-3.07,44.36,13.88,45.3,14.61.77.59.91,1.69.32,2.45-.59.77-1.69.91-2.45.32-.22-.17-22.08-16.78-42.69-13.91-8.72,1.21-16.07,5.78-21.85,13.57-11.87,16-14.01,58.75,3.25,99.89,9.28,22.14,31.83,60.24,78.54,66.75.96.13,1.62,1.02,1.49,1.97-.12.88-.87,1.51-1.73,1.51Z" fill="#2b2b2b"/><path d="M999.73,753.94c-.33,0-.67-.09-.97-.29l-35.37-23.52c-.52-.34-.81-.94-.78-1.56.04-.62.4-1.17.95-1.46,20.39-10.44,34.55-32.58,34.69-32.8.52-.82,1.6-1.06,2.41-.54.82.52,1.06,1.6.54,2.41-.57.9-13.67,21.37-33.46,32.64l32.95,21.91c.8.54,1.02,1.62.49,2.43-.34.51-.89.78-1.46.78Z" fill="#2b2b2b"/><path d="M705.92,648.15c-1.3,0-2.5-.86-2.88-2.17-7.47-25.94-12.87-51.31-16.07-75.4-6.63-41.63-7.28-80.15-1.92-114.42.26-1.64,1.79-2.76,3.43-2.5,1.64.26,2.76,1.79,2.5,3.43-5.27,33.65-4.62,71.54,1.92,112.63,3.17,23.88,8.51,48.95,15.9,74.61.46,1.59-.46,3.25-2.05,3.71-.28.08-.56.12-.83.12Z" fill="#2b2b2b"/><path d="M703.29,404.43c-.38,0-.77-.07-1.15-.23-1.53-.64-2.25-2.39-1.62-3.92,4.24-10.19,9.25-20,14.88-29.15.87-1.41,2.72-1.85,4.13-.98,1.41.87,1.85,2.72.98,4.13-5.47,8.88-10.33,18.41-14.45,28.31-.48,1.15-1.6,1.85-2.77,1.85Z" fill="#2b2b2b"/><path d="M744.4,341.83c-.76,0-1.51-.29-2.1-.86-1.18-1.16-1.2-3.06-.04-4.24,37.54-38.33,78.13-48.49,79.84-48.9,1.61-.39,3.23.6,3.62,2.21.39,1.61-.6,3.23-2.21,3.62-.44.11-40.7,10.24-76.96,47.27-.59.6-1.37.9-2.14.9Z" fill="#2b2b2b"/><path d="M706.22,649.98c-.06,0-.12,0-.17,0-1.65-.09-2.92-1.51-2.82-3.17l.1-1.81c2.77-42.42,34.6-100.55,94.6-172.79,44.51-53.58,88.8-95.39,89.24-95.81.78-.73,1.89-1,2.91-.69,1.02.31,1.81,1.13,2.06,2.17.09.38,9.23,37.88,28.54,76.77,17.04,34.34,45.6,76.62,85.95,86.61-1.6-10.71-5.22-39.59-3.35-72.03,3.15-54.55,20.34-94.46,49.71-115.39.76-.54,1.73-.7,2.62-.42.89.27,1.61.95,1.93,1.82.31.84,31.87,84.5,92.13,145.51,40.01,40.55,83.45,62.1,129.12,64.05.57.04,1.08.05,1.6.07l-.14,6c-.63-.02-1.2-.04-1.77-.07-47.17-2.01-91.96-24.16-133.07-65.83-53.88-54.55-85.12-126.86-92.02-143.92-32.64,25.66-42.04,72.83-44.11,108.41-2.33,40.16,3.9,74.78,3.96,75.13.18.97-.13,1.97-.83,2.67s-1.7,1.01-2.67.82c-19.99-3.75-38.95-15.06-56.34-33.63-13.76-14.69-26.59-33.94-38.14-57.22-15.43-31.11-24.46-61.33-27.64-72.95-11.49,11.11-48.23,47.39-85.11,91.81-58.32,70.22-90.55,128.76-93.19,169.28l-.1,1.79c-.09,1.6-1.41,2.83-2.99,2.83Z" fill="#2b2b2b"/><path d="M1303.24,696.66c-.16,0-.32-.01-.49-.04-1.39-.23-2.43-1.39-2.51-2.79-2.26-39.8-10.48-81.89-24.43-125.11-34.68-107.41-93.92-187.55-94.51-188.35-.99-1.33-.72-3.21.61-4.2,1.33-.99,3.21-.72,4.2.61.6.8,60.42,81.69,95.41,190.09,12.47,38.62,20.41,76.37,23.67,112.44,6.83-20.22,19.01-60.64,25.65-108.94,16.84-122.32-3.87-273.93-198.16-301.59-1.64-.23-2.78-1.75-2.55-3.39.23-1.64,1.75-2.79,3.39-2.55,90.45,12.88,152.3,53.72,183.84,121.38,23.13,49.64,29.67,112.54,19.42,186.97-8.19,59.57-24.72,107.3-29.59,120.51-.74,2.02-1.17,3.08-1.17,3.08-.46,1.15-1.57,1.89-2.78,1.89Z" fill="#2b2b2b"/><path d="M603.71,566.35c-1.61,0-2.94-1.28-3-2.9-.81-23.52-.67-46.51.42-68.33,6.72-135.58,49.76-236.68,127.91-300.49,60.93-49.75,132.18-66.77,181.22-72.29,49.91-5.62,87.65-.78,92.32-.13,4.65-.74,42.16-6.32,91.89-1.77,48.88,4.48,120,19.93,181.22,68.13,77.98,61.39,121.91,160.07,130.57,293.3,1.65,24.97,2.04,51.54,1.16,78.97-.05,1.66-1.45,2.99-3.09,2.9-1.66-.05-2.96-1.44-2.9-3.09.87-27.23.49-53.6-1.15-78.38-8.54-131.44-51.69-228.65-128.25-288.95-60.02-47.27-129.87-62.46-177.9-66.88-52.18-4.81-90.62,1.7-91,1.77-.32.06-.65.06-.97,0-.38-.06-39.08-5.8-91.43.11-48.2,5.45-118.19,22.19-177.94,70.99-76.75,62.69-119.03,162.31-125.67,296.1-1.08,21.66-1.22,44.48-.41,67.83.06,1.66-1.24,3.04-2.89,3.1-.04,0-.07,0-.11,0Z" fill="#2b2b2b"/><path d="M1574.55,923.01c-.45,0-.9-.1-1.32-.3-.36-.17-36.02-17.69-73.95-46.56-35.18-26.78-79.6-69.11-91.44-118.71-.38-1.61.61-3.23,2.22-3.62,1.61-.38,3.23.61,3.61,2.22,11.43,47.85,54.79,89.09,89.16,115.26,30.76,23.42,59.99,39.28,69.67,44.3,7.44-36.14-.76-134.91-.85-135.94-.1-1.16.49-2.28,1.5-2.86,5.92-3.38,21.09-3.64,84.22,32.82,26.34,15.21,51.49,31.41,61.78,38.12-3.37-85.82-18.24-134.88-30.27-161.06-13.27-28.89-25.99-36.81-26.12-36.89-1.38-.83-1.87-2.62-1.09-4.04,8.13-14.61,47.1-8.73,62.89-5.67-28.32-54.64-82.39-90.35-123.42-110.89-46.14-23.09-86.28-32.54-86.68-32.63-1.16-.27-2.05-1.2-2.27-2.37s.27-2.36,1.25-3.03c29.39-20.15,25.83-88.53,23.81-110.95-35.11,41.26-128.24,101.7-132.37,104.37-.28.19-.46.3-.46.3-1.41.86-3.26.43-4.13-.98-.87-1.4-.45-3.24.95-4.11h0s.13-.08.3-.2c4.37-2.83,105.53-68.47,135.51-108.74.73-.98,1.98-1.42,3.16-1.11,1.18.31,2.06,1.3,2.22,2.51.51,3.8,11.52,89.51-20.79,119.98,12.91,3.51,45.65,13.34,82.05,31.54,43.28,21.64,100.8,59.89,129.01,119.23.49,1.04.35,2.27-.37,3.16-.72.9-1.89,1.3-3.01,1.05-19.6-4.47-51.67-8.12-60.73-.53,4.75,3.93,14.87,14.2,25.3,36.58,12.71,27.28,28.48,78.93,31.45,170.09.04,1.12-.56,2.17-1.54,2.72-.98.55-2.19.5-3.12-.12-.32-.21-32.35-21.5-66.35-41.13-53.58-30.95-70.94-34.25-76.54-33.34,1.29,16.2,8.14,108.06-.39,139.33-.23.86-.84,1.57-1.66,1.94-.39.18-.82.27-1.24.27Z" fill="#2b2b2b"/><path d="M524.45,925.81c-.82,0-1.61-.33-2.17-.93-31.79-33.46-43.58-78.38-47.88-110.18-2.37-17.53-2.8-32.9-2.64-43.9-29.63,64.67-97.08,142.52-97.82,143.37-.64.73-1.59,1.11-2.56,1.02-.97-.1-1.83-.65-2.31-1.5-26.7-46.73-27.06-107.25-22.66-149.79,3.7-35.79,11.3-65.23,14.53-76.65-39.14,10.66-82.6,40.39-83.05,40.71-.97.67-2.23.71-3.24.1-1.01-.6-1.57-1.74-1.44-2.9,4.4-39.85,15.94-76.54,34.29-109.07,14.69-26.03,33.74-49.45,56.63-69.62,29.07-25.6,56.52-39.23,69.24-44.72-39.85-19.21-51.43-99-51.93-102.59-.18-1.3.51-2.57,1.7-3.13,1.19-.56,2.61-.28,3.49.7,42.42,46.56,215.75,95.14,217.5,95.63,1.6.44,2.53,2.1,2.09,3.69-.44,1.6-2.1,2.53-3.69,2.09-6.87-1.91-161.5-45.26-213.54-90.78,4.54,22.98,19.46,82.48,53.49,91.38,1.28.33,2.19,1.46,2.24,2.78s-.76,2.52-2.01,2.95c-.36.13-36.67,13.03-74.79,46.67-34.24,30.22-76.84,83.73-87.95,168.26,13.78-8.9,50.97-31.49,84.68-39.26,1.05-.24,2.15.1,2.88.89s.98,1.92.65,2.94c-.11.35-11.12,35.34-15.8,80.67-4.18,40.49-3.99,97.53,19.84,142.32,14.3-16.9,79.27-95.57,100.62-154.46.52-1.43,2.02-2.25,3.5-1.9,1.48.34,2.47,1.74,2.3,3.25-.03.26-2.82,26.56,1.74,60.2,4.07,29.99,14.97,71.96,43.68,103.9,12.48-19.26,76.16-120.1,66.34-158.48-.41-1.61.56-3.24,2.16-3.65,1.6-.41,3.24.56,3.65,2.16,11.48,44.88-65.95,161.55-69.25,166.49-.51.76-1.33,1.25-2.24,1.32-.09,0-.17.01-.26.01Z" fill="#2b2b2b"/><g id="hair_clip-3"><path d="M789.96,471.09c-.08,0-.16,0-.24-.02-.47-.07-.89-.32-1.17-.7l-83.81-114.58c-.57-.78-.4-1.87.38-2.44l31.83-23.34c.77-.56,1.84-.41,2.42.34l85.93,111.39c.59.76.45,1.86-.31,2.45l-33.95,26.52c-.31.24-.69.37-1.08.37ZM708.59,355.14l81.71,111.71,31.15-24.34-83.83-108.66-29.04,21.3Z" fill="#2b2b2b"/><path d="M741.16,533.68s-.06,0-.1,0c-.54-.03-1.03-.3-1.34-.74l-86.99-124.12c-.52-.74-.39-1.76.31-2.34l32.89-27.58c.37-.31.86-.45,1.34-.4.48.06.92.32,1.2.71l84.87,116.7c.48.66.44,1.57-.1,2.18l-30.77,35.01c-.33.38-.81.59-1.31.59ZM656.52,408.12l84.79,120.99,28.37-32.28-82.94-114.05-30.22,25.35Z" fill="#2b2b2b"/></g><g id="eye_open-4"><path d="M1129.92,707.02c-4.34-.8-9.4-3.96-10.04-7.93-4.55-28.34-17.83-142.72,36.67-142.72s46.45,111.91,43.5,141.77c-.43,4.35-4.08,7.85-8.86,8.51-12.97,1.79-39.24,4.42-61.27.37Z"/><path d="M809.42,707.34c-4.56-.76-8.05-3.72-8.72-7.44-4.84-26.9-20.99-136.56,37.31-136.56s49.6,107.31,46.45,135.67c-.45,4.09-4.29,7.37-9.3,7.99-13.83,1.71-42.09,4.27-65.74.35Z"/></g><g id="eyebrow_basic-4"><path d="M1196.58,529.43c-.59,0-1.16-.3-1.49-.84-14.67-23.93-31.07-32.6-48.76-25.8-12.07,4.65-20.23,15.07-20.31,15.17-.59.76-1.69.91-2.46.31-.76-.59-.9-1.69-.31-2.46.36-.46,8.85-11.3,21.82-16.3,13.4-5.16,33.48-4.62,53,27.24.51.82.25,1.9-.58,2.41-.29.17-.6.26-.91.26Z" fill="#2b2b2b"/><path d="M788.22,527.38c-.4,0-.8-.14-1.13-.42-.74-.63-.82-1.73-.2-2.47,18.01-21.16,37.14-23.39,50.02-21.54,13.91,2,23.43,8.93,23.83,9.22.78.57.94,1.67.37,2.45-.57.78-1.67.95-2.45.37-.09-.07-9.31-6.75-22.39-8.59-17.41-2.46-33.13,4.4-46.72,20.36-.35.41-.84.62-1.33.62Z" fill="#2b2b2b"/></g><g id="mouth_smile-2"><path d="M1020.91,859.26c-10.82,0-21.76-.71-32.9-1.52-30.11-2.18-64.9-5.54-96.83-17.89-34.46-13.33-60.7-35.8-73.89-63.29-.42-.87-.05-1.92.82-2.33s1.92-.05,2.33.82c12.8,26.67,38.36,48.53,71.99,61.54,31.48,12.17,65.96,15.5,95.82,17.66,14.39,1.04,27.39,1.86,40.71,1.37,78.01-2.91,129.94-27.76,168.38-80.57.57-.78,1.66-.95,2.44-.38.78.57.95,1.66.39,2.45-39.13,53.76-91.9,79.05-171.08,82-2.72.1-5.45.15-8.19.15Z" fill="#2b2b2b"/></g><path d="M588.26,1120.75h-6s.24-209.2.24-209.2c.01-10.14,3.97-19.66,11.15-26.82,7.16-7.15,16.68-11.08,26.8-11.08h.05l791.08.91c20.92.02,37.93,17.07,37.9,37.99l-.24,204.92h-6s.24-204.93.24-204.93c.02-17.62-14.29-31.96-31.91-31.98l-791.08-.91h-.04c-8.52,0-16.53,3.31-22.56,9.33-6.04,6.03-9.37,14.04-9.38,22.58l-.24,209.2Z" fill="#2b2b2b"/><path d="M1410.87,1517.17h-.05l-791.08-.91c-10.14-.01-19.66-3.97-26.82-11.14s-11.1-16.71-11.08-26.85l.19-161.9h6s-.19,161.91-.19,161.91c0,8.53,3.3,16.56,9.33,22.6,6.03,6.04,14.05,9.37,22.58,9.38l791.08.91h.04c8.52,0,16.53-3.31,22.56-9.33,6.04-6.03,9.37-14.05,9.38-22.58l.19-165.52h6s-.19,165.53-.19,165.53c-.01,10.13-3.97,19.66-11.15,26.82-7.16,7.15-16.68,11.08-26.8,11.08Z" fill="#2b2b2b"/><path d="M1479.71,1328.93c-.47,0-.95-.11-1.4-.35l-14.01-7.4c-6.81-3.6-14.48-5.35-22.17-5.06-1.66.07-3.05-1.23-3.11-2.89-.06-1.66,1.23-3.05,2.89-3.11,8.75-.33,17.45,1.67,25.19,5.75l14.01,7.4c1.47.77,2.03,2.59,1.25,4.05-.54,1.02-1.58,1.6-2.66,1.6Z" fill="#2b2b2b"/><path d="M1425.64,1316.71c-7.72,0-14.81-4.13-18.22-10.68-2.66-5.12-2.77-10.68-.29-16.09,5.4-11.81,21.34-20.38,33.87-23.35,22.08-5.23,63.26,13.25,65,14.04,1.51.68,2.18,2.46,1.49,3.97-.68,1.51-2.46,2.18-3.97,1.5-.41-.18-41.06-18.43-61.15-13.67-11.22,2.66-25.48,10.57-29.8,20-1.72,3.77-1.67,7.31.16,10.82,2.46,4.73,7.76,7.64,13.47,7.44l15.7-.58c1.66-.04,3.05,1.23,3.11,2.89s-1.23,3.05-2.89,3.11l-15.7.58c-.27,0-.53.01-.8.01Z" fill="#2b2b2b"/><path d="M1411.54,1238.26c-.3,0-.61-.05-.92-.15-17.11-5.51-18.64-21.52-17.05-29.21.02-.11.05-.22.09-.33,7.74-23.64,27.56-37.35,57.34-39.65,22.01-1.71,41.45,3.36,42.27,3.57,1.6.42,2.56,2.07,2.13,3.67-.42,1.6-2.06,2.56-3.67,2.13-.19-.05-19.4-5.03-40.41-3.38-27.39,2.16-44.85,14.05-51.9,35.34-.32,1.78-2.55,17.12,13.04,22.14,1.58.51,2.44,2.2,1.94,3.78-.41,1.27-1.59,2.08-2.85,2.08Z" fill="#2b2b2b"/><path d="M1419.54,1280.39c-.32,0-.64-.05-.96-.16-14.41-4.84-16.15-21.56-15.06-29.78.71-7.23,4.12-13.27,10.14-17.95,23.74-18.45,81.35-9.79,83.79-9.41,1.64.25,2.76,1.79,2.51,3.42-.25,1.64-1.79,2.75-3.42,2.51-.57-.09-57.49-8.65-79.19,8.22-4.75,3.69-7.32,8.22-7.86,13.84,0,.04,0,.08-.01.12-.1.76-2.33,18.85,11.01,23.34,1.57.53,2.42,2.23,1.89,3.8-.42,1.25-1.59,2.04-2.84,2.04Z" fill="#2b2b2b"/><path d="M1471.46,1374.19c-18.32,0-24.15-5.09-24.96-5.9-1.17-1.17-1.17-3.07,0-4.24,1.17-1.17,3.07-1.17,4.24,0,.04.03,10.45,8.8,50.82.67,7.28-1.47,14.56-8.31,21.05-19.78,21.15-37.39,30.76-118.19,10.76-174.43-1.22-2.57-23.34-47.79-61.56-51.92-26.2-2.83-52.51,11.26-64.97,26.64-6.68,8.24-9.2,16.29-7.11,22.67,4.29,13.07,16.76,10.03,17.28,9.9,1.6-.41,3.24.55,3.65,2.16.41,1.6-.55,3.24-2.16,3.65-6.36,1.64-19.66.85-24.48-13.84-2.75-8.38.14-18.44,8.15-28.32,13.06-16.13,40.62-32.03,70.28-28.83,42.55,4.6,65.46,53.41,66.42,55.49.04.08.07.16.1.25,20.61,57.77,10.67,140.99-11.14,179.54-7.48,13.22-15.92,20.86-25.09,22.71-13.15,2.65-23.38,3.6-31.28,3.6Z" fill="#2b2b2b"/><path d="M665.39,1002.36c-22.71,0-41.19-18.48-41.19-41.19s18.48-41.19,41.19-41.19,41.19,18.48,41.19,41.19-18.48,41.19-41.19,41.19ZM665.39,923.49c-20.78,0-37.69,16.91-37.69,37.69s16.91,37.69,37.69,37.69,37.69-16.91,37.69-37.69-16.91-37.69-37.69-37.69ZM665.39,992.49c-17.27,0-31.32-14.05-31.32-31.32s14.05-31.32,31.32-31.32,31.32,14.05,31.32,31.32-14.05,31.32-31.32,31.32ZM665.39,933.36c-15.34,0-27.82,12.48-27.82,27.82s12.48,27.82,27.82,27.82,27.82-12.48,27.82-27.82-12.48-27.82-27.82-27.82Z" fill="#2b2b2b"/><path d="M665.39,992.49c-17.27,0-31.32-14.05-31.32-31.32s14.05-31.32,31.32-31.32,31.32,14.05,31.32,31.32-14.05,31.32-31.32,31.32ZM665.39,933.36c-15.34,0-27.82,12.48-27.82,27.82s12.48,27.82,27.82,27.82,27.82-12.48,27.82-27.82-12.48-27.82-27.82-27.82ZM654.82,965.14c-6.91,0-12.53-5.62-12.53-12.53s5.62-12.53,12.53-12.53,12.53,5.62,12.53,12.53-5.62,12.53-12.53,12.53ZM654.82,943.57c-4.98,0-9.03,4.05-9.03,9.03s4.05,9.03,9.03,9.03,9.03-4.05,9.03-9.03-4.05-9.03-9.03-9.03Z" fill="#2b2b2b"/><path d="M654.82,965.14c-6.91,0-12.53-5.62-12.53-12.53s5.62-12.53,12.53-12.53,12.53,5.62,12.53,12.53-5.62,12.53-12.53,12.53ZM654.82,943.57c-4.98,0-9.03,4.05-9.03,9.03s4.05,9.03,9.03,9.03,9.03-4.05,9.03-9.03-4.05-9.03-9.03-9.03Z" fill="#2b2b2b"/><path d="M548.21,1332.19c-1.08,0-2.12-.58-2.66-1.6-.77-1.46-.21-3.28,1.25-4.05l14.01-7.4c7.74-4.09,16.45-6.08,25.19-5.75l15.7.58c5.73.2,11.01-2.71,13.47-7.44,1.83-3.51,1.88-7.05.16-10.82-4.31-9.43-18.57-17.34-29.8-20-20.08-4.76-60.74,13.49-61.15,13.67-1.51.68-3.29.02-3.97-1.5-.68-1.51-.01-3.29,1.49-3.97,1.74-.79,42.93-19.27,65-14.04,12.53,2.97,28.47,11.54,33.87,23.35,2.47,5.41,2.37,10.97-.29,16.09-3.53,6.77-10.99,10.97-19.01,10.66l-15.7-.58c-7.69-.28-15.36,1.47-22.17,5.06l-14.01,7.4c-.45.24-.93.35-1.4.35Z" fill="#2b2b2b"/><path d="M616.38,1241.52c-1.27,0-2.45-.81-2.85-2.08-.51-1.58.36-3.27,1.94-3.78,15.58-5.02,13.37-20.32,13.04-22.14-16.97-51.26-91.56-32.16-92.31-31.96-1.6.42-3.24-.53-3.67-2.13-.42-1.6.53-3.24,2.13-3.67.82-.21,20.26-5.28,42.27-3.57,29.77,2.3,49.6,16.01,57.34,39.65.04.11.06.22.09.33,1.58,7.69.06,23.7-17.05,29.21-.31.1-.62.15-.92.15Z" fill="#2b2b2b"/><path d="M608.38,1283.65c-1.25,0-2.42-.79-2.84-2.04-.53-1.57.32-3.27,1.89-3.8,13.34-4.49,11.11-22.58,11.01-23.35,0-.04,0-.08-.01-.11-.54-5.63-3.11-10.15-7.86-13.84-21.7-16.87-78.62-8.31-79.19-8.22-1.64.25-3.17-.87-3.42-2.51-.25-1.64.87-3.17,2.51-3.42,2.44-.38,60.05-9.04,83.79,9.41,6.02,4.68,9.43,10.72,10.14,17.95,1.1,8.22-.65,24.93-15.06,29.78-.32.11-.64.16-.96.16Z" fill="#2b2b2b"/><path d="M556.45,1377.45c-7.9,0-18.13-.95-31.28-3.6-9.17-1.85-17.61-9.49-25.09-22.71-21.81-38.55-31.74-121.77-11.14-179.54.03-.08.06-.17.1-.25.95-2.08,23.87-50.89,66.42-55.49,29.65-3.21,57.21,12.7,70.27,28.83,8,9.88,10.9,19.94,8.15,28.32-4.82,14.68-18.12,15.47-24.48,13.84-1.6-.41-2.57-2.05-2.16-3.65.41-1.6,2.04-2.56,3.64-2.16,1.35.33,13.12,2.84,17.29-9.89,2.09-6.38-.43-14.43-7.11-22.67-12.45-15.38-38.77-29.46-64.97-26.64-38.22,4.13-60.34,49.35-61.56,51.92-20,56.24-10.39,137.04,10.76,174.43,6.49,11.48,13.77,18.32,21.05,19.78,40.37,8.13,50.78-.64,50.88-.73,1.17-1.17,3.04-1.14,4.21.03,1.17,1.17,1.14,3.1-.03,4.27-.81.81-6.65,5.9-24.96,5.9Z" fill="#2b2b2b"/></svg>