<?xml version="1.0" encoding="UTF-8"?><svg id="_レイヤー_28" xmlns="http://www.w3.org/2000/svg" width="1700" height="2000" viewBox="0 0 1700 2000"><path d="M1209.56,1266.17c-5.88,0-10.83-3.98-13-9.96-1.36,1.58-2.9,2.66-4.62,3.24-3.71,1.26-7.76.11-12.04-3.42-5.12-4.21-8.48-10.3-9.46-17.16l-4-27.91c-.27-1.92-.72-3.76-1.32-5.47-1.25-3.59-2.76-7.05-4.3-10.21l4.05,18.74c1.04,4.83-.24,9.8-3.43,13.29-4.96,5.44-11.71,4.3-15.87.95-4.49-3.62-8.29-13.76-13.56-27.79-.67-1.79-1.36-3.62-2.06-5.48-8.29-21.86-8.77-46.02-1.34-68.02,4.39-13.01,9.24-21.95,9.45-22.33.79-1.45,2.61-1.99,4.07-1.2,1.45.79,1.99,2.62,1.2,4.07-.05.09-4.81,8.88-9.03,21.37-6.99,20.69-6.54,43.41,1.26,63.98.71,1.87,1.4,3.7,2.07,5.5,4.37,11.64,8.49,22.64,11.71,25.23.71.57,4.42,3.25,7.68-.32,1.88-2.06,2.63-5.04,1.99-7.97l-7.99-37.01c-.3-1.39.41-2.79,1.71-3.37,1.29-.58,2.82-.17,3.65.98.38.52,9.24,12.83,14.42,27.62.73,2.08,1.26,4.3,1.59,6.6l4,27.91c.77,5.37,3.37,10.12,7.33,13.38,1.77,1.46,4.3,3.05,6.3,2.37,1.19-.4,3.26-1.97,5.12-7.69-2.17-30.74-8.55-53.35-8.62-53.58-.4-1.42.28-2.92,1.61-3.54,1.33-.62,2.92-.19,3.75,1.02,11.39,16.67,10.3,51.49,10.25,52.97,0,.19-.03.38-.08.57-.27,1.15-.55,2.23-.85,3.26.07,1.11.14,2.24.21,3.37.38,6.75,4.52,10.14,8.4,10.03,5.7-.18,11.39-7.26,11.25-22.67-.08-8.7-.64-14.88-1.55-19.99l-6.13-21.26c-.79-2.53-1.62-5.33-2.46-8.52-.42-1.59.52-3.22,2.11-3.65,1.58-.44,3.22.48,3.68,2.06l2.41,8.38c.65,2.08,1.28,3.98,1.88,5.77,1.72,5.19,3.25,9.8,4.35,15.82l4.04,14.01c.05.17.08.34.1.51.61,5.68,2.97,14.06,5.83,15.05,1.04.36,2.73-.58,4.66-2.56,4.61-4.74,6.92-14.3,5.05-20.87l-14.2-49.85c-.44-1.56.43-3.19,1.97-3.68,1.54-.49,3.2.33,3.74,1.86l16.02,45.32c.9,1.82,2.62,3.87,3.56,3.87h0c.5,0,1.9-.99,3.57-4.68,2.37-5.24,3.09-11.14,2.08-17.06-3.2-18.73-6.09-32.01-7.94-36.45-.71-1.7-1.46-3.54-2.09-5.46-2.35-7.12-10.62-31.09-18.56-40.85-7.45-9.16-23.56-25.92-36.67-30.66-1.56-.56-2.37-2.28-1.8-3.84.56-1.56,2.28-2.37,3.84-1.8,17.67,6.38,37.13,29.86,39.29,32.52,8.35,10.27,16.49,33.32,19.6,42.75.57,1.72,1.26,3.44,1.93,5.03,2.62,6.29,5.97,24,8.32,37.75,1.21,7.11.34,14.21-2.53,20.55-2.45,5.42-5.48,8.18-8.99,8.21-.02,0-.03,0-.05,0-1.8,0-3.36-.72-4.65-1.72.95,8.07-1.95,17.85-7.19,23.25-3.78,3.89-7.46,5.25-10.93,4.05-3.01-1.04-5.13-3.95-6.61-7.26-1.61,14.86-9.18,21.83-16.74,22.07-.14,0-.28,0-.42,0Z" fill="#2b2b2b"/><path d="M626.03,426.25s.01.05.02.08l-.02-.08Z" fill="#f9e2cd"/><path d="M923.7,1965.85c-51.42,0-62.29-19.51-70.04-43.03-2.67-8.11-2.74-18.57-.2-31.97.81-4.27,1.72-8.01,2.44-11.01.49-2.02.88-3.61,1.03-4.56.51-3.08,4.16-36.7,10.04-92.24,1.08-10.18,4.17-27.19,4.3-27.91.3-1.63,1.86-2.71,3.49-2.41,1.63.3,2.71,1.86,2.41,3.49-.03.17-3.18,17.5-4.24,27.46-3.46,32.71-9.36,88.22-10.08,92.58-.19,1.17-.6,2.86-1.12,5-.71,2.93-1.6,6.58-2.38,10.71-2.31,12.2-2.31,21.95,0,28.98,7.81,23.7,18.38,41.58,76.21,38.58,32.27-1.68,51.82-8.9,61.5-22.73,8.6-12.28,8.64-28.75,8.69-46.2v-1.28c0-.14-.13-1.12-.5-3.33-.51-3-1-5.46-1.13-5.91l-23.42-76.59c-.31-.87-.51-1.79-.62-2.73-.52-3.37-12.14-42.34-14.81-46.01-1.08-1.25-.93-3.12.32-4.21,1.25-1.08,3.17-.92,4.25.33,3.59,4.14,15.92,46.88,16.19,49.22.06.51.17,1,.33,1.45l.04.13,23.42,76.59c.42,1.34,1.24,6.17,1.33,6.73.59,3.49.59,4.09.59,4.34v1.28c-.05,18.41-.1,35.8-9.78,49.62-10.83,15.46-31.84,23.5-66.11,25.28-4.3.22-8.35.33-12.18.33Z" fill="#2b2b2b"/><path d="M971.15,1791.67c-.77,0-1.54-.21-2.23-.65-33.77-21.1-78.4-10.69-90.02-1.61-1.08.85-2.45,1-3.67.43-1.34-.64-2.19-2.02-2.21-3.6-.02-.97.75-1.76,1.72-1.78.96-.02,1.76.75,1.78,1.72,0,.33.17.49.23.5,12.19-9.56,58.88-20.59,94.03,1.37.38.24.69.05.8-.04.16-.12.33-.34.23-.68-.61-2.01-1.69-4.36-2.55-6.25-.78-1.71-1.2-2.64-1.34-3.28-.2-.94.4-1.88,1.35-2.08.95-.2,1.88.4,2.08,1.35.08.33.64,1.56,1.1,2.56.91,1.98,2.04,4.45,2.72,6.69.5,1.66-.06,3.42-1.45,4.48-.76.58-1.66.88-2.56.88Z" fill="#2b2b2b"/><path d="M942.76,1847.24c-3.32,0-6.84-.1-10.55-.3-53.78-2.85-58.06-5.47-60.32-20.51h0c-.38-2.56.5-5.17,2.31-6.82,5.66-5.17,22.32-17.01,54.58-15.29,33.11,1.75,47.98,13.49,52.84,18.45,1.44,1.48,2.3,3.54,2.35,5.65.08,2.53-.59,6.28-4.17,9.78-6.15,6.01-18.59,9.04-37.04,9.04ZM875.35,1825.92c1.78,11.82,2.2,14.63,57.04,17.53,29.02,1.55,40.47-3.37,44.96-7.75,2.67-2.61,3.17-5.34,3.11-7.17-.03-1.25-.53-2.46-1.36-3.31-3.56-3.64-17.74-15.67-50.52-17.4-30.95-1.65-46.7,9.51-52.03,14.38-.96.88-1.42,2.3-1.21,3.72h0Z" fill="#2b2b2b"/><path d="M927.31,1949.4c-26.54,0-46.21-6.72-58.54-20.01-15.36-16.57-13.41-37.09-13.32-37.95.1-.96.94-1.67,1.92-1.56.96.1,1.66.96,1.56,1.92h0c-.02.2-1.85,19.87,12.45,35.25,12.32,13.26,32.68,19.57,60.5,18.79,69.93-1.99,72.25-32.75,73.79-53.09.11-1.44.21-2.82.34-4.13.11-1.23.24-2.32.39-3.34.14-.96,1.03-1.61,1.99-1.48.96.14,1.62,1.03,1.48,1.99-.14.96-.26,1.99-.37,3.15-.12,1.3-.23,2.66-.33,4.08-1.54,20.29-4.1,54.25-77.18,56.33-1.58.04-3.14.07-4.67.07Z" fill="#2b2b2b"/><path d="M857.19,1893.37c-.5,0-1-.21-1.34-.63-.62-.74-.52-1.84.22-2.46.64-.54,16-13.24,42.59-20.07,24.5-6.29,63.45-8.44,109.94,17.03.34.19.68.37,1.03.57.84.47,1.15,1.54.67,2.38-.47.84-1.53,1.15-2.38.67-.33-.19-.67-.37-1-.55-45.41-24.88-83.37-22.85-107.22-16.76-25.88,6.61-41.23,19.28-41.38,19.4-.33.27-.73.41-1.12.41Z" fill="#2b2b2b"/><path d="M796.13,671.22c-24.51,0-42.18-5.89-52.53-17.51-10.61-11.9-10.24-26.24-9.59-31.85.19-1.65,1.68-2.83,3.33-2.64,1.65.19,2.83,1.68,2.64,3.33-.56,4.81-.88,17.08,8.11,27.17,9.16,10.28,25.33,15.5,48.05,15.5,37.75,0,53.15-14.99,59.42-27.56.74-1.48,2.54-2.09,4.02-1.35,1.48.74,2.08,2.54,1.35,4.02-7.03,14.09-23.97,30.88-64.79,30.88Z" fill="#2b2b2b"/><path d="M690.39,621.57c-1.36,0-2.6-.94-2.92-2.32-.37-1.61.63-3.23,2.25-3.6,10.61-2.46,16.1-3.26,26.24-4.28,1.64-.17,3.12,1.03,3.29,2.68.17,1.65-1.04,3.12-2.68,3.29-9.86,1-15.2,1.77-25.49,4.16-.23.05-.46.08-.68.08Z" fill="#2b2b2b"/><path d="M791.84,1115.46c-28.29,0-52.67-1.54-72.73-3.62-60.84-6.32-94.74-18.49-98.42-19.86-9.72-1.66-17-6.62-21.66-14.74-15.8-27.55,4.34-83.01,6.61-89.04l.54-10.96,8.47-194.68c.07-1.65,1.47-2.92,3.13-2.87,1.66.07,2.94,1.47,2.87,3.13l-8.47,194.7-.56,11.45c-.02.32-.08.63-.2.93-.22.58-22.13,58.3-7.18,84.37,3.81,6.65,9.61,10.52,17.72,11.85.2.03.4.09.59.16.34.13,35.01,13.18,97.47,19.64,57.59,5.96,151.24,7.37,270.48-19.68,2.59-1.37,22.37-12.43,28.71-34.42,4.92-17.08.73-36.55-12.47-57.89-.26-.42-.41-.89-.44-1.39l-14.8-229.63c-.11-1.65,1.15-3.08,2.8-3.19,1.68-.09,3.08,1.15,3.19,2.8l14.75,228.89c13.83,22.62,18.11,43.53,12.71,62.14-7.54,26.01-31.11,37.73-32.11,38.22-.21.1-.42.18-.65.23-78.85,17.92-146.64,23.47-200.36,23.47Z" fill="#2b2b2b"/><path d="M983.67,646.02c-.51,0-1.02-.13-1.49-.4-15.68-8.99-32.26-16.15-49.28-21.28-1.59-.48-2.48-2.15-2.01-3.74.48-1.59,2.15-2.48,3.74-2.01,17.45,5.26,34.46,12.6,50.53,21.82,1.44.82,1.93,2.66,1.11,4.09-.55.97-1.57,1.51-2.61,1.51Z" fill="#2b2b2b"/><path d="M803.89,1309.81c-15.82,0-25.24-6.85-25.82-7.29-1.33-.99-1.6-2.87-.6-4.2.99-1.32,2.87-1.59,4.19-.61.77.57,19.05,13.62,48.26-.3,1.5-.71,3.29-.08,4,1.42.71,1.5.08,3.29-1.42,4-10.96,5.22-20.61,6.98-28.61,6.98Z" fill="#2b2b2b"/><path d="M933.32,1519.67c-29.33,0-54.43-5.18-71.37-9.97-19.81-5.59-31.59-11.42-32.08-11.66-.89-.44-1.5-1.3-1.63-2.28l-25.67-188.58c-.22-1.64.93-3.15,2.57-3.38,1.63-.23,3.15.93,3.38,2.57l25.45,186.97c3.66,1.68,14.23,6.25,29.62,10.59,19.71,5.57,50.7,11.67,86.47,9.16,37.07-2.61,72.05-13.87,103.99-33.46-.1-9.06-.98-54.27-8.24-118.69-7.48-66.33-23.46-167.19-57.12-270.94-.51-1.58.35-3.27,1.93-3.78,1.58-.51,3.27.35,3.78,1.93,33.83,104.27,49.88,205.59,57.39,272.22,8.14,72.21,8.28,120.44,8.28,120.92,0,1.04-.53,2-1.41,2.55-33.16,20.66-69.55,32.52-108.17,35.24-5.85.41-11.58.6-17.16.6Z" fill="#2b2b2b"/><path d="M686.49,1517.21c-.52,0-1.03,0-1.55,0-52.41-.21-93.29-11.5-121.49-33.56-.76-.6-1.19-1.53-1.15-2.5.04-.77,3.62-77.59,12.3-163.95,11.69-116.19,26.55-193.38,44.18-229.45.73-1.49,2.53-2.1,4.01-1.38,1.49.73,2.11,2.52,1.38,4.01-39.84,81.5-54.63,365.74-55.8,389.48,27.09,20.6,66.3,31.14,116.59,31.34,33.35.1,65.26-4.45,86.15-8.33,17.83-3.31,30.95-6.68,35.95-8.03l-4.52-188c-.04-1.66,1.27-3.03,2.93-3.07,1.64-.06,3.03,1.27,3.07,2.93l4.58,190.34c.03,1.36-.86,2.58-2.17,2.95-.15.04-15.54,4.47-38.75,8.78-20.82,3.87-52.46,8.43-85.72,8.43Z" fill="#2b2b2b"/><path d="M967.91,1789.2c-1.57,0-2.89-1.22-2.99-2.8l-7.05-107.73-10.56-161.8c-.11-1.65,1.14-3.08,2.8-3.19,1.66-.11,3.08,1.15,3.19,2.8l10.56,161.8,7.05,107.73c.11,1.65-1.14,3.08-2.8,3.19-.07,0-.13,0-.2,0Z" fill="#2b2b2b"/><path d="M876.02,1788.1c-1.57,0-2.9-1.23-2.99-2.82l-6.19-103.1-7.07-175.25c-.07-1.66,1.22-3.05,2.88-3.12,1.64-.06,3.05,1.22,3.12,2.88l7.07,175.19,6.18,103.04c.1,1.65-1.16,3.08-2.81,3.17-.06,0-.12,0-.18,0Z" fill="#2b2b2b"/><path d="M907.26,1695.17c-26.45,0-38.13-11.4-38.66-11.93-.68-.68-.68-1.79,0-2.47.68-.68,1.79-.68,2.47,0,.21.2,13.66,13.09,44.04,10.57,30.71-2.55,44.48-14.08,44.61-14.19.73-.63,1.84-.54,2.47.19.63.73.55,1.83-.18,2.46-.58.5-14.65,12.37-46.61,15.03-2.85.24-5.57.34-8.14.34Z" fill="#2b2b2b"/><path d="M730.91,1965.86c-3.83,0-7.89-.11-12.18-.33-34.26-1.78-55.27-9.81-66.1-25.28-9.68-13.82-9.73-31.21-9.78-49.62v-1.28c0-.28,0-.85.59-4.35.04-.23.92-5.41,1.33-6.74l23.47-76.74c.16-.43.27-.91.32-1.41.13-1.14.83-3.55,2.54-9.37,2.68-9.13,7.17-24.41,10.47-39.81.35-1.62,1.94-2.65,3.56-2.31,1.62.35,2.65,1.94,2.31,3.56-3.34,15.62-7.87,31.04-10.58,40.24-1.15,3.91-2.23,7.6-2.34,8.36-.1.93-.31,1.85-.62,2.72l-23.43,76.62c-.11.39-.62,2.92-1.12,5.87-.38,2.22-.5,3.2-.51,3.41v1.2c.05,17.44.1,33.92,8.7,46.2,9.69,13.83,29.23,21.05,61.5,22.73,57.84,3.01,68.41-14.89,76.21-38.58,2.31-7.01,2.31-16.72.02-28.88l-.06-.35c-.77-4.01-1.63-7.57-2.33-10.44-.52-2.14-.93-3.83-1.12-5.01-.5-3.06-3.46-30.39-5.85-52.79-1.43-13.32-2.86-26.79-3.96-37.27l-.27-2.52c-1.06-9.96-4.21-27.29-4.24-27.47-.3-1.63.78-3.19,2.41-3.49,1.63-.3,3.19.78,3.49,2.41.13.72,3.22,17.73,4.3,27.91l.27,2.52c1.11,10.47,2.53,23.94,3.96,37.26,3.37,31.55,5.43,50.18,5.81,52.45.16.95.54,2.55,1.04,4.57.73,2.99,1.63,6.71,2.44,10.97l.06.35c2.48,13.24,2.39,23.6-.26,31.65-7.75,23.51-18.62,43.03-70.04,43.03Z" fill="#2b2b2b"/><path d="M683.46,1791.68c-.9,0-1.8-.29-2.56-.88-1.38-1.06-1.95-2.82-1.45-4.48.68-2.24,1.81-4.71,2.72-6.69.45-.99,1.02-2.23,1.1-2.56.22-.93,1.16-1.53,2.09-1.32.94.21,1.53,1.12,1.33,2.06-.14.65-.55,1.57-1.34,3.28-.86,1.89-1.94,4.23-2.55,6.25-.1.34.07.56.23.68.12.09.43.28.8.04,35.14-21.96,81.83-10.94,94.03-1.4.11-.04.23-.18.23-.47.01-.96.79-1.73,1.75-1.73h.02c.97.01,1.74.81,1.73,1.77-.02,1.16-.5,2.26-1.32,3.01-1.32,1.17-3.19,1.23-4.56.17-11.62-9.09-56.25-19.49-90.02,1.61-.69.43-1.46.64-2.23.64Z" fill="#2b2b2b"/><path d="M711.83,1847.24c-18.44,0-30.87-3.03-37.02-9.04-3.58-3.5-4.24-7.25-4.17-9.78.03-.79.16-1.57.39-2.32h0c.4-1.28,1.08-2.43,1.97-3.34,4.85-4.96,19.73-16.7,52.83-18.45,32.29-1.71,48.92,10.12,54.57,15.3,1.13,1.03,1.93,2.46,2.25,4.05.18.91.2,1.85.06,2.77-2.25,15.04-6.53,17.66-60.32,20.51-3.72.2-7.25.3-10.57.3ZM674.37,1827.14c-.14.46-.22.93-.23,1.4-.05,1.83.44,4.56,3.11,7.17,4.49,4.39,15.94,9.29,44.96,7.75,54.85-2.9,55.27-5.71,57.04-17.53.08-.52.07-1.06-.04-1.57-.17-.85-.59-1.62-1.17-2.15-5.33-4.88-21.06-16.03-52.03-14.39-32.77,1.74-46.96,13.76-50.52,17.41-.51.52-.9,1.18-1.13,1.92Z" fill="#2b2b2b"/><path d="M727.3,1949.41c-1.53,0-3.09-.02-4.67-.07-73.08-2.08-75.65-36.04-77.18-56.33-.11-1.41-.21-2.77-.33-4.06-.09-1.07-.22-2.13-.37-3.16-.14-.96.52-1.85,1.48-1.99.96-.14,1.84.52,1.99,1.48.16,1.09.29,2.22.39,3.35.12,1.3.23,2.68.33,4.12,1.54,20.35,3.86,51.11,73.79,53.1,27.81.79,48.19-5.53,60.51-18.79,14.29-15.38,12.46-35.05,12.44-35.25-.1-.96.6-1.82,1.56-1.92.95-.11,1.82.6,1.92,1.56.09.87,2.04,21.38-13.32,37.95-12.32,13.29-32,20.02-58.54,20.02Z" fill="#2b2b2b"/><path d="M797.42,1893.37c-.4,0-.79-.13-1.12-.41-.15-.13-15.5-12.8-41.38-19.4-23.85-6.09-61.81-8.13-107.21,16.75-.33.17-.63.34-.93.51l-.93-1.48-.85-1.53c.41-.23.73-.41,1.06-.58,46.46-25.46,85.41-23.31,109.91-17.02,26.59,6.83,41.95,19.53,42.59,20.07.74.62.84,1.72.22,2.46-.35.41-.84.63-1.34.63Z" fill="#2b2b2b"/><path d="M685.01,1684.03c-1.66,0-3-1.34-3-3l-.06-166.05c0-1.66,1.34-3,3-3h0c1.66,0,3,1.34,3,3l.06,166.05c0,1.66-1.34,3-3,3h0Z" fill="#2b2b2b"/><path d="M685.05,1784.88c-1.66,0-3-1.34-3-3l-.04-100.84c0-1.66,1.34-3,3-3h0c1.66,0,3,1.34,3,3l.04,100.84c0,1.66-1.34,3-3,3Z" fill="#2b2b2b"/><path d="M778.84,1790.7c-1.62,0-2.96-1.29-3-2.92l-7.19-282.17c-.05-1.66,1.25-3.04,2.91-3.09,1.65-.05,3.04,1.25,3.09,2.91v.32s7.19,281.89,7.19,281.89c.04,1.66-1.27,3.03-2.92,3.08-.03,0-.05,0-.08,0Z" fill="#2b2b2b"/><path d="M733.49,1694.5c-.67,0-1.34,0-2.03-.02-32.07-.63-46.89-11.58-47.5-12.04-.44-.33-.69-.85-.69-1.4,0-.97.78-1.75,1.75-1.75.43,0,.83.16,1.14.42,1.21.86,15.76,10.69,45.38,11.28,30.45.6,42.73-12.74,43.24-13.31.02-.02.06-.07.09-.09.68-.68,1.79-.68,2.47,0s.68,1.79,0,2.47l-.02.02c-.48.54-13.28,14.42-43.82,14.42Z" fill="#2b2b2b"/><path d="M791.79,693.23c-23.88,0-43.41-5.81-58.35-17.39-27.14-21.05-28.8-53.19-28.86-54.55-.04-.96.71-1.78,1.67-1.82.96-.02,1.78.71,1.82,1.67.01.32,1.69,31.94,27.55,51.96,21.79,16.87,54.02,20.93,95.81,12.06.94-.21,1.87.4,2.08,1.35.2.95-.4,1.88-1.35,2.08-14.58,3.09-28.06,4.64-40.37,4.64Z" fill="#2b2b2b"/><path d="M847.97,682.26c-.74,0-1.43-.48-1.67-1.22-.29-.92.22-1.9,1.14-2.19.3-.1,30.45-9.99,36.2-43.45.16-.95,1.07-1.59,2.02-1.43.95.16,1.59,1.07,1.43,2.02-6.12,35.61-38.28,46.09-38.6,46.19-.17.05-.35.08-.52.08Z" fill="#2b2b2b"/><path d="M694.55,1488.1c-20.6,0-38.26-2.1-52.15-4.65-32.53-5.99-51.39-15.44-52.17-15.84-.86-.44-1.21-1.49-.77-2.35.44-.86,1.49-1.21,2.35-.77.19.1,19.29,9.66,51.37,15.55,29.58,5.43,76.58,8.74,132.45-6.3.94-.25,1.89.3,2.14,1.23.25.93-.3,1.89-1.23,2.14-30.36,8.17-58.14,10.98-81.99,10.98Z" fill="#2b2b2b"/><path d="M924.13,1491.62c-8.72,0-16.63-.46-23.61-1.16-33.03-3.31-52.51-12.27-53.33-12.65-.88-.41-1.25-1.45-.85-2.33.41-.87,1.45-1.25,2.33-.85.2.09,19.88,9.13,52.36,12.36,29.97,2.98,77.28,1.49,132.49-22.56.89-.38,1.92.02,2.3.91.39.89-.02,1.92-.91,2.3-43.13,18.78-81.53,23.97-110.79,23.97Z" fill="#2b2b2b"/><path d="M1027.22,969.59c-1.65,0-2.99-1.33-3-2.99,0-1.66,1.33-3,2.99-3.01.11,0,10.81-.06,26.51-1.41,13.96-1.2,35.05-3.73,56.19-8.93,35.28-8.66,59.57-21.7,72.22-38.77-3.61-8.99-23.21-56.76-52.6-109.32-42.81-76.56-86.85-128.47-127.36-150.13-.28-.15-28.01-14.96-44.67-21.64-1.54-.62-2.29-2.36-1.67-3.9.62-1.54,2.36-2.29,3.9-1.67,16.96,6.8,44.11,21.3,45.26,21.91,42.13,22.52,85.8,73.85,129.8,152.55,32.67,58.43,53.32,110.98,53.52,111.51.37.93.24,1.99-.33,2.81-13.23,18.94-39.01,33.23-76.64,42.46-21.51,5.29-42.93,7.86-57.11,9.08-15.97,1.37-26.9,1.43-27.01,1.43h-.01Z" fill="#2b2b2b"/><path d="M1026.67,969.67c-1.35,0-2.58-.92-2.91-2.29l-26.05-107.19c-.39-1.61.6-3.23,2.21-3.62,1.62-.39,3.23.6,3.62,2.21l26.05,107.19c.39,1.61-.6,3.23-2.21,3.62-.24.06-.48.09-.71.09Z" fill="#2b2b2b"/><path d="M1052.68,939.27c-.54,0-1.08,0-1.62,0-.97,0-1.74-.8-1.73-1.77,0-.96.79-1.73,1.75-1.73h.02c.53,0,1.07,0,1.6,0,63.75,0,103.75-35.11,104.16-35.47.72-.64,1.83-.58,2.47.14.64.72.58,1.83-.14,2.47-.41.37-41.42,36.36-106.49,36.36Z" fill="#2b2b2b"/><path d="M1197.31,1087.68c-1.24,0-2.4-.78-2.83-2.01l-49.18-141.07c-.54-1.56.28-3.27,1.85-3.82,1.56-.54,3.28.28,3.82,1.85l49.18,141.07c.54,1.56-.28,3.27-1.85,3.82-.33.11-.66.17-.99.17Z" fill="#2b2b2b"/><path d="M1142.78,1106.41c-1.24,0-2.4-.78-2.83-2.02l-49.6-143.07c-.54-1.57.29-3.27,1.85-3.82,1.56-.54,3.27.29,3.82,1.85l49.6,143.07c.54,1.57-.29,3.27-1.85,3.82-.33.11-.66.17-.98.17Z" fill="#2b2b2b"/><path d="M635.35,536.41c2.23,0,3.66,1.2,4.35,2.76.07.03.13.05.2.08-2.11-7.9-2.83-15.51-2.72-22.5.41-25.2,11.49-44.7,11.6-44.89.2-.35.33-.73.38-1.13l1.95-15.67c.03-.22.03-.44,0-.66-.7-7.21-1.43-19.66-1.97-28.75-.15-2.57-.29-4.9-.41-6.82,0,0,0-.01,0-.02,0-.09-.01-.18-.02-.25-.21-1.64-1.72-2.81-3.35-2.6-1.59.2-2.73,1.61-2.62,3.19,0,.02,0,.04,0,.06.12,1.91.25,4.24.41,6.8.53,9,1.25,21.28,1.95,28.65l-1.83,14.76c-1.92,3.5-11.7,22.54-12.1,47.25-.1,6.35.43,13.17,1.95,20.24.63-.3,1.36-.48,2.22-.48Z" fill="#2b2b2b"/><path d="M982.52,502.83c-1.63-.27-3.18.83-3.45,2.47l-4.31,25.86c-.04.24-.05.49-.03.73,1.02,12.66.1,24.27-2.81,35.5-1.62,6.27-4.02,12.34-7.14,18.04-10.82,19.86-31.1,35.26-55.65,42.24-17.22,4.91-39.83,7.61-63.67,7.61h-.15c-38.46-.03-79.12-7.02-117.58-20.21-1.7-.58-3.37-1.17-5.02-1.77-24.47-8.93-42.25-19.58-55.05-30.91,1.18,1.91,1.02,4.66-.48,6.34.06.4.08.81.06,1.21,13.01,10.64,30.36,20.58,53.41,28.99,1.68.62,3.39,1.22,5.13,1.82,39.07,13.4,80.4,20.5,119.52,20.54h.15c24.38,0,47.57-2.78,65.31-7.84,26.09-7.42,47.69-23.87,59.27-45.14,3.35-6.13,5.93-12.66,7.68-19.41,3.05-11.77,4.04-23.91,3.01-37.11l4.25-25.5c.27-1.63-.83-3.18-2.47-3.45Z" fill="#2b2b2b"/><path d="M977.68,591.69c-3.89,0-7.76-.56-11.55-1.81-1.57-.52-2.43-2.21-1.91-3.79.52-1.57,2.21-2.43,3.79-1.91,21.78,7.15,48.08-13.33,61.82-26.17,1.08-1,2.14-2.03,3.16-3.08,11.66-11.79,20.76-26.26,26.35-41.84,12.43-34.68,9.68-56.63-8.17-65.24-16.01-7.72-38.74-2.11-38.96-2.05-1.61.41-3.24-.56-3.64-2.17-.41-1.61.56-3.24,2.17-3.64,1.01-.26,25.04-6.22,43.05,2.46,14.49,6.99,28.2,25.28,11.22,72.67-5.88,16.4-15.46,31.62-27.72,44.02-1.08,1.1-2.21,2.2-3.35,3.26-15.06,14.08-36.02,29.29-56.23,29.29Z" fill="#2b2b2b"/><path d="M634.27,513.7c-3.84-.24-7.52-.72-11.06-1.43,1.85,1.45,2.3,4.23,1.34,6.33,3.03.51,6.14.88,9.34,1.08.06,0,.13,0,.19,0,1.57,0,2.89-1.22,2.99-2.81.1-1.65-1.15-3.08-2.81-3.18Z" fill="#2b2b2b"/><path d="M647.82,371.67s-.48-.37-1.36-.98c-6.54-4.57-29.55-18.97-50.99-12.15-18.08,5.76-29.82,24.81-34.88,56.63-.43,2.7-.74,5.4-.96,8.09.81-.94,2.02-1.57,3.63-1.57.97,0,1.8.23,2.48.62.2-2.06.45-4.13.78-6.19,4.68-29.4,15.04-46.84,30.78-51.86,19.3-6.14,41.48,8.38,45.74,11.36.68.47,1.06.76,1.11.8,1.31,1.01,3.19.77,4.2-.53,1.02-1.31.78-3.19-.53-4.21Z" fill="#2b2b2b"/><path d="M989.66,565.13c-.62,0-1.22-.33-1.54-.91-.46-.85-.15-1.91.69-2.38,40.42-22.15,52.15-51.08,55.32-62.48,3.06-11.01,2.66-21.02-1.09-27.46-9.79-16.81-32.92-6.57-33.9-6.12-.88.4-1.92,0-2.32-.87-.4-.88-.01-1.92.87-2.32.27-.12,27-12,38.38,7.55,4.22,7.25,4.75,18.24,1.44,30.15-3.29,11.84-15.42,41.83-57.01,64.62-.27.15-.55.22-.84.22Z" fill="#2b2b2b"/><path d="M625.9,494.44c-.19,0-.37-.03-.56-.09-20.16-6.8-34.14-24.03-39.36-48.52-5-23.43-.63-50.27,9.74-59.84,4.7-4.34,10.05-6.39,15.92-6.1,13.21.65,24.27,12.92,24.74,13.44.64.72.58,1.83-.14,2.47-.72.64-1.83.58-2.47-.14-.1-.12-10.58-11.71-22.31-12.27-4.9-.24-9.39,1.51-13.36,5.18-8.37,7.73-13.86,32.29-8.69,56.54,2.87,13.45,11.5,37.31,37.06,45.93.92.31,1.41,1.3,1.1,2.22-.25.73-.93,1.19-1.66,1.19Z" fill="#2b2b2b"/><path d="M801.55,511.92c-.44,0-.88-.17-1.22-.5l-17.61-17.2c-.44-.43-.63-1.07-.48-1.67.15-.6.61-1.08,1.2-1.26,12.52-3.69,22.85-14.63,22.96-14.74.66-.71,1.77-.74,2.47-.08.71.66.74,1.77.08,2.47-.42.44-9.64,10.22-21.75,14.78l15.56,15.2c.69.68.7,1.78.03,2.47-.34.35-.8.53-1.25.53Z" fill="#2b2b2b"/><path d="M647.73,373.23c.63-21.66,3.76-41.25,9.26-58.54-.3-.31-.59-.63-.87-1.01-.53-.72-1.05-1.45-1.58-2.17-.18-.18-.31-.37-.3-.37-.02-.02-.03-.05-.05-.07-.28-.33-.57-.65-.88-.96-.36-.37-.62-.77-.84-1.2-6.44,18.73-10.05,40.2-10.74,64.06-.78,14.13-.43,29.23,1.03,44.86.15,1.55,1.45,2.72,2.98,2.72.09,0,.19,0,.28-.01,1.65-.15,2.86-1.62,2.71-3.27-1.44-15.34-1.78-30.13-1.01-44.05Z" fill="#2b2b2b"/><path d="M682.82,264.89c-.59-.94-1.21-1.85-1.79-2.79-.25-.39-.43-.78-.55-1.17-4.06,4.39-7.84,9.1-11.29,14.16.6.58,1.06,1.39,1.27,2.47.3,1.57.88,3.02,1.48,4.45,3.61-5.75,7.63-11.05,12.02-15.94-.44-.33-.83-.73-1.12-1.19Z" fill="#2b2b2b"/><path d="M750.34,225.32c-1.06.05-25.71,1.5-51.56,19.6,1.92.72,3.52,2.87,3.36,4.97,24.41-17.11,48.26-18.56,48.5-18.58,1.65-.09,2.92-1.49,2.84-3.15-.08-1.66-1.51-2.92-3.15-2.85Z" fill="#2b2b2b"/><path d="M981.22,438.43c-.21,0-.43-.02-.65-.07-.36-.08-.7-.16-1.04-.24-26.94-6.3-50.32-23.91-69.43-52.34-23.78-35.33-34.02-77.67-36.75-90.66-39.57,22.34-40.47,97.51-40.48,98.29,0,.99-.5,1.91-1.32,2.47-.82.56-1.86.67-2.78.31-41.8-16.32-50.81-85.6-52.54-105.37-21.17,14.09-114.77,78.72-127.35,127.55l-.25,1c-.4,1.61-2.03,2.58-3.64,2.18-1.61-.4-2.58-2.03-2.18-3.64l.25-1.02c14.72-57.13,129.3-130.81,134.17-133.92.9-.57,2.04-.63,2.99-.14.95.49,1.57,1.45,1.62,2.52.04.85,4.57,82.71,45.15,103.46.82-17.91,6.59-82.14,47.26-100.91.85-.39,1.83-.37,2.65.07.83.43,1.4,1.23,1.56,2.15.09.51,9.01,51.31,36.6,92.3,18.23,27.13,40.4,43.91,65.87,49.86.34.09.62.15.91.21,1.62.36,2.64,1.96,2.28,3.58-.31,1.4-1.55,2.35-2.93,2.35Z" fill="#2b2b2b"/><path d="M980.7,512.53c-.34,0-.69-.06-1.03-.18-1.32-.48-2.13-1.81-1.95-3.21,2.99-22.8,2.84-47.55-.44-73.56-8.15-64.68-33.17-116.53-33.42-117.05-.73-1.49-.11-3.29,1.38-4.01,1.49-.73,3.29-.11,4.01,1.38.26.52,25.7,53.22,33.98,118.93,2.67,21.23,3.3,41.66,1.88,60.92,6.32-11.76,15.7-30.94,23.38-53.86,22.58-67.3,27.11-155.16-79.58-191.51-1.57-.53-2.41-2.24-1.87-3.81.53-1.57,2.24-2.4,3.81-1.87,50.55,17.22,81.65,47.44,92.43,89.81,7.89,31,4.83,67.77-9.11,109.28-11.12,33.17-25.73,58.66-29.95,65.69-.65,1.09-1.01,1.66-1.01,1.66-.56.88-1.53,1.39-2.53,1.39Z" fill="#2b2b2b"/><path d="M597.9,349.23c-1.08,0-1.97-.28-2.68-.75-.64,3.64-1.25,7.32-1.82,11.03-.25,1.64.87,3.17,2.51,3.42,1.64.25,3.17-.87,3.42-2.51.66-4.27,1.37-8.5,2.12-12.68-.8.89-1.98,1.48-3.54,1.48Z" fill="#2b2b2b"/><path d="M1020.37,218.09c-29.88-34.27-68.95-50.84-96.47-58.7-27.74-7.92-49.1-8.84-52.65-8.93-3.37-1.14-23.79-7.7-52.72-9.87-28.69-2.15-71.36-.12-111.69,21.8-32.34,17.57-58.38,44.97-77.88,81.82,2.18,1.18,2.9,3.97,2.15,6.21.24.7.33,1.46.27,2.21,19.24-38.63,45.41-67.08,78.27-84.95,38.99-21.2,80.38-23.2,108.22-21.13,30.31,2.25,51.63,9.65,51.84,9.72.3.11.63.17.95.17.22,0,22.72.44,51.77,8.77,26.69,7.65,64.57,23.73,93.44,56.86,36.85,42.3,50.84,101.98,41.6,177.37-1.73,14.25-4.34,29.27-7.77,44.64-.36,1.62.66,3.22,2.28,3.58.22.05.44.07.65.07,1.38,0,2.61-.95,2.93-2.35,3.46-15.57,6.11-30.78,7.86-45.22,9.47-77.18-5.02-138.44-43.07-182.08Z" fill="#2b2b2b"/><path d="M1110.83,670.66c-.64,0-1.27-.21-1.79-.59-3.03-2.26-74.19-55.96-76.89-112.89-.08-1.66,1.2-3.06,2.85-3.14,1.68-.08,3.06,1.2,3.14,2.85,2.26,47.63,57.75,95,71.45,105.99,7.74-20.85,13.4-75.01,13.46-75.59.12-1.16.9-2.15,2.01-2.53,4.37-1.5,13.51.32,45.66,28,12.04,10.36,23.45,21.08,29.36,26.72,13.39-92.96-10.47-115.03-10.72-115.25-1.23-1.07-1.37-2.93-.33-4.18,6.21-7.45,25.14-1.67,35.4,2.21-21.09-64.51-101.87-100.7-102.71-101.07-1.09-.48-1.79-1.56-1.79-2.75s.7-2.27,1.79-2.75c17.07-7.5,22.76-41.69,24.46-56.66-25.86,19.49-82.02,42.49-84.59,43.53-.18.08-.31.13-.31.13-1.54.59-3.28-.18-3.88-1.72-.59-1.54.16-3.26,1.69-3.86l.15-.07c2.82-1.15,67.3-27.56,88.54-47.11.9-.83,2.21-1.03,3.31-.51,1.1.52,1.78,1.66,1.72,2.88-.12,2.18-2.96,50.06-23.55,65.82,7.94,3.95,24.09,12.66,41.62,26,22.48,17.11,51.32,45.3,61.08,82.48.29,1.11-.08,2.29-.95,3.04-.87.75-2.09.93-3.15.47-11.9-5.19-26.1-8.94-32-7.46,6.54,8.93,22.25,40.13,9.28,123.46-.17,1.11-.95,2.03-2.02,2.39-1.06.36-2.24.08-3.04-.7-.16-.16-16.08-15.71-33.3-30.53-24.89-21.42-34.57-25.92-38.05-26.75-1.34,12.21-7.22,62.02-15.21,78.43-.39.8-1.12,1.39-1.99,1.6-.23.06-.47.08-.71.08Z" fill="#2b2b2b"/><path d="M484.94,474.05c-20.07,23.74-47.32,46.74-56.77,54.49-15.49-53.85,21.77-123.94,22.16-124.66.51-.95.47-2.1-.1-3.01-.55-.87-1.48-1.39-2.53-1.4-2.65.79-5.41.93-8.15.68-16.38,2.11-33.48,8.15-42.33,11.62.2-.57.41-1.13.61-1.7-2.15.7-4.44,1.09-6.71,1.01-.39,1.15-.78,2.3-1.15,3.48-.16.52-.33,1.04-.49,1.57-.34,1.12,0,2.34.88,3.12.88.78,2.13.98,3.2.5.28-.12,26.3-11.53,49.02-13.92-8.64,17.66-35.79,79.54-18.81,128.78.32.92,1.06,1.63,1.99,1.9.93.27,1.94.08,2.7-.52,1.77-1.4,34.73-27.51,59.21-55.9l-2.76-6.05Z" fill="#2b2b2b"/><path d="M500.61,517.78c.4,0,.77.04,1.11.11-.76-4.95-1.2-9.85-1.39-14.6l-6.25-3.83c.09,6.9.66,14.2,1.97,21.6.58-1.81,2.1-3.28,4.56-3.28Z" fill="#2b2b2b"/><path d="M712.55,328.24c-.19,0-.38-.03-.56-.09-.45-.15-.82-.48-1.02-.91l-35.39-74.28c-.42-.87-.05-1.92.83-2.33l20.64-9.86c.86-.41,1.88-.06,2.32.79l36.94,72.69c.44.86.1,1.91-.76,2.35l-22.19,11.45c-.25.13-.53.19-.8.19ZM679.5,253.04l33.86,71.07,19.04-9.82-35.38-69.62-17.52,8.37Z" fill="#2b2b2b"/><path d="M678.02,358.63c-.14,0-.28-.02-.42-.05-.52-.13-.96-.49-1.18-.98l-36.17-80.06c-.37-.83-.05-1.8.74-2.25l21.7-12.17c.42-.24.93-.29,1.39-.14.46.15.84.48,1.05.92l35.76,75.6c.35.74.14,1.62-.5,2.13l-21.29,16.62c-.31.24-.69.37-1.08.37ZM644.1,277.56l34.59,76.57,18.43-14.39-34.36-72.64-18.66,10.46Z" fill="#2b2b2b"/><path d="M880.41,495.25c-2.39-.92-4.93-3.27-4.86-5.59.46-16.63,5.22-83.2,36.25-77.33s14.4,68.74,9.5,85.42c-.71,2.43-3.17,4.03-5.96,3.89-7.58-.38-22.82-1.71-34.93-6.39Z"/><path d="M697.85,460.9c-2.51-.92-4.18-2.98-4.17-5.18.14-15.84,2.75-80.03,35.96-73.75,32.84,6.21,16.69,66.46,11.84,82.27-.7,2.28-3.24,3.73-6.16,3.55-8.06-.51-24.43-2.1-37.48-6.88Z"/><g id="eyebrow_basic"><path d="M938.81,412.97c-.88,0-1.64-.66-1.74-1.55-1.78-15.76-8.03-24.13-18.58-24.87-7.29-.52-13.94,2.86-14,2.9-.86.44-1.92.1-2.36-.76s-.1-1.92.76-2.36c.31-.16,7.61-3.85,15.84-3.28,8.58.6,19.33,5.94,21.82,27.97.11.96-.58,1.83-1.54,1.94-.07,0-.13.01-.2.01Z" fill="#2b2b2b"/><path d="M696.95,367.22c-.37,0-.74-.12-1.06-.36-.77-.58-.92-1.68-.33-2.45,19.1-25.11,43.1-9.8,43.34-9.64.81.53,1.03,1.62.5,2.42-.53.81-1.61,1.03-2.42.5h0c-.87-.57-21.54-13.64-38.63,8.83-.34.45-.87.69-1.39.69Z" fill="#2b2b2b"/></g><path d="M690.28,623.21c-.96,0-1.91-.46-2.49-1.32-54.38-80.2-110.33-182.2-120.65-201.17-7.32,6.85-18.73,25.81-28.1,41.38-5.39,8.96-10.49,17.43-14.21,22.62-10.85,15.11-15.41,22.55-22.3,33.8-3.64,5.95-7.77,12.68-13.75,22.07-.04.06-.08.11-.12.17-6.86,9.3-11.39,16.67-15.77,23.8-7.03,11.44-13.68,22.25-28.88,40.01-1.08,1.26-2.97,1.41-4.23.33-1.26-1.08-1.41-2.97-.33-4.23,14.89-17.41,21.42-28.02,28.33-39.25,4.44-7.21,9.02-14.67,15.99-24.13,5.93-9.3,10.02-15.99,13.64-21.9,6.71-10.96,11.56-18.88,22.55-34.17,3.58-4.98,8.61-13.35,13.94-22.21,14.27-23.72,24.97-40.86,32.68-45.4.7-.41,1.54-.52,2.33-.3.79.22,1.45.75,1.83,1.47.62,1.15,62.29,115.67,122.01,203.75.93,1.37.57,3.24-.8,4.17-.52.35-1.1.52-1.68.52Z" fill="#2b2b2b"/><path d="M613.62,808.09c-.85,0-1.7-.36-2.29-1.06l-171.88-202.47c-1.07-1.26-.92-3.16.35-4.23,1.26-1.07,3.16-.92,4.23.35l171.88,202.47c1.07,1.26.92,3.16-.35,4.23-.56.48-1.25.71-1.94.71Z" fill="#2b2b2b"/><path d="M482.81,614.52c-.24,0-.49-.05-.72-.15-.88-.4-1.27-1.43-.88-2.32,31.36-69.52,75.76-129.46,96.38-150.92.67-.7,1.78-.72,2.47-.05.7.67.72,1.78.05,2.47-20.46,21.28-64.54,80.81-95.72,149.93-.29.65-.93,1.03-1.6,1.03Z" fill="#2b2b2b"/><path d="M559.15,426.14c-.91,0-1.81-.41-2.4-1.19-3.19-4.23-5.83-8.44-8.38-12.5-2.51-4.01-4.89-7.8-7.77-11.64-6.55-8.42-12.91-16.8-18.34-26.24-.83-1.44-.33-3.27,1.1-4.1,1.43-.83,3.27-.33,4.1,1.1,5.24,9.1,11.46,17.3,17.91,25.59,3.07,4.09,5.62,8.16,8.09,12.1,2.48,3.96,5.05,8.05,8.08,12.07,1,1.32.74,3.2-.59,4.2-.54.41-1.18.61-1.81.61Z" fill="#2b2b2b"/><path d="M502.01,511.96c-1.1,0-2.16-.61-2.68-1.66-13.34-26.65-26.93-53.25-40.07-78.97-4.67-9.15-9.35-18.3-14.03-27.49-.75-1.48-.17-3.28,1.31-4.04,1.47-.75,3.28-.17,4.04,1.31,4.68,9.19,9.36,18.34,14.03,27.49,13.14,25.73,26.73,52.34,40.09,79.01.74,1.48.14,3.28-1.34,4.03-.43.22-.89.32-1.34.32Z" fill="#2b2b2b"/><path d="M217.16,476.49c-.06,0-.11,0-.17,0-1.51-.08-2.73-1.28-2.83-2.79,0-.09-.01-.19-.02-.28-.17-.16-.33-.34-.46-.53-.02,0-.04.02-.06.03-1.39.52-3.05-.07-3.77-1.38-.13-.24-.23-.49-.29-.74-.33-.16-.62-.39-.88-.66-.45-.49-.79-1.02-1.03-1.56-.66-.24-1.22-.7-1.58-1.33-.34-.59-.46-1.26-.37-1.92-.03-.06-.06-.12-.08-.18-.42-.31-.8-.64-1.12-.95-.93-.87-1.21-2.24-.69-3.4.05-.1.1-.21.16-.3.22-1.18.14-1.33-.56-2.6-.37-.67-.83-1.5-1.38-2.65-.09-.19-.16-.38-.21-.58-.58-2.37-1.04-2.87-2.04-3.95-.19-.21-.39-.42-.6-.66-.82-.93-.99-2.27-.42-3.37.22-.42.26-1.34.3-2.22.04-.9.09-1.91.3-3-1.99-1.27-2.46-2.33-3-5.35-.1-.58-.22-1.25-.39-2.07-.55-.34-1.06-.82-1.41-1.5-.78-1.5-.26-2.93,0-3.61.06-.17.16-.43.16-.51h0s-.08-.31-.69-.93c-.31-.31-.54-.69-.69-1.1-.46-1.31-.7-1.45-1.08-1.67-1.63-.96-2.72-2.14-3.42-5.2-1.17-2.33-.48-3.84.4-5.3.27-.44.58-.96.92-1.73-2.07-.71-3.95-1.91-5.41-3.53-.42-.46-.68-1.04-.75-1.65-.25-2.1-.05-4.15.12-5.8.08-.75.18-1.78.14-2.15-.06-.19-.1-.38-.12-.58-.16-1.4-.31-1.64-.58-2.03-.78-1.16-1.46-2.44-1.91-6.05-.65-.95-.88-1.61-1.08-2.54-.09-.43-.2-.95-.74-2.18-.28-.63-.33-1.33-.15-2,.12-.42.1-.59-1.11-2.01-1.02-1.21-2.29-2.71-2.91-4.97-.06-.22-.09-.45-.1-.67-.04-1.17.05-2.12.12-2.82.02-.23.05-.52.06-.72-.03-.02-.06-.05-.1-.07-.87-.63-1.33-1.67-1.22-2.74.18-1.7-.17-1.98-.44-2.2-.43-.35-1.59-1.29-1.49-2.98.03-.43.13-.81.28-1.15-.73-2.18-.74-3.78-.75-4.83,0,0,0,0,0,0-.89-.32-1.57-1.04-1.84-1.95l-.29-.96c-.21-.68-.4-1.34-.55-1.8-.55-.18-1.34-.47-2.38-1.01-.72-.38-1.26-1.03-1.49-1.81s-.13-1.62.27-2.33c.96-1.68.65-4.3.35-6.82-.06-.49-.11-.98-.16-1.45-.22-.37-.38-.64-.51-.86-.07-.12-.12-.22-.17-.29-.06-.05-.13-.11-.21-.18-.16-.13-.36-.3-.61-.51-.62-.53-.99-1.29-1.04-2.1-.07-1.22-.12-2.25-.15-3.15-.15-3.55-.18-4.22-1.32-5.95-4.13-.88-5.01-3.36-5-5.33-.09-3.71.29-5.24.52-6.16.02-.08.04-.14.05-.21-.02-.08-.06-.22-.14-.47-.15-.44-.19-.91-.12-1.36.23-1.61-.11-1.79-1.09-2.32-.73-.4-1.82-1-2.28-2.36-.06-.19-.11-.39-.13-.59-.23-1.86-.24-3.19-.25-4.37-.02-1.83-.03-3.17-.91-6.03-.3-.44-.68-.79-1.17-1.25-.99-.93-2.22-2.08-3.11-4.25-.28-.69-.29-1.46-.04-2.15.33-.9.82-1.51,1.15-1.92.2-.25.56-.69-.15-3.24-1.15-.21-2.92-.61-4.02-2.28-.72-1.08-.96-2.43-.7-4-.21-1.9-.14-3.02-.08-3.74-.25-.29-.62-.68-.82-.88-.49-.52-.78-1.19-.81-1.9q-.22-4.02-2.35-5.72c-.43-.34-.91-.72-1.45-1.17-.91-.76-1.28-1.98-.96-3.12.49-1.73,1.08-2.96,1.55-3.95.17-.35.3-.63.4-.85-3.27-1.45-4.62-4-6.14-6.88-.22-.42-.45-.85-.7-1.31-.28-.52-.4-1.1-.35-1.69.07-.77.25-1.43.49-2-.13-.2-.23-.41-.31-.63l-.35-.98c-1.01-2.84-1.11-3.25-.99-5.99l.02-.53c-.1-.34-.2-.64-.29-.93-.91-2.92-1.21-4.07-1.29-8.58-.32-.6-.7-1.29-.87-1.44-.09-.05-.63-.24-2.95-.17-.81.03-1.58-.28-2.17-.83-.58-.56-.91-1.32-.92-2.13-.04-3.61.74-5.98,1.31-7.38-.69-1.18-1.18-2.18-1.58-3.02-.88-1.82-1.28-2.65-3-3.88-.72-.51-1.18-1.31-1.25-2.19s.24-1.75.86-2.37c.76-.77,1.51-1.27,2.05-1.63.09-.06.19-.13.29-.2-.02-.15-.06-.37-.14-.68-.92-2.33-1.54-2.54-1.84-2.63-2.12-.68-3.04-2.17-2.75-4.41,0,0,0,0,0,0-.81-.31-1.28-.91-1.36-1.02-.61-.82-.7-1.61-.54-2.3-.71-.92-.96-2.14-.62-3.37.08-.31.22-.59.38-.85.01-.32.07-.63.18-.94.01-.05.03-.09.05-.14-.06-.48-.03-1.02.14-1.55-.15-.44-.25-.91-.3-1.41-.07-.73.13-1.45.56-2.04,0-.04,0-.08,0-.12.03-.95.5-1.82,1.26-2.37.38-.49.91-.87,1.54-1.08.39-.13.82-.17,1.28-.15.04-.04.07-.08.11-.12.14-.38.32-.75.53-1.12.09-.62.26-1.2.52-1.7.17-.54.48-1,.94-1.38,0,0,0,0,.01-.01.33-.98,1.15-1.75,2.2-1.98.86-.19,1.58-.03,2.18.32.15.07.33.15.52.25.56-.12,1.06-.1,1.48,0,.1-.03.2-.06.31-.1,2.1-1.7,4.56-1.6,6.76-1.52,1.51.06,3.06.12,4.81-.29,1.69-1.02,2.82-1.88,3.75-2.58,1.86-1.41,3.37-2.56,6.43-2.68,2.78-1.62,4.88-1.08,6.17-.75.98.25,1.18.31,2.23-.45.4-.29.86-.47,1.35-.53,3.61-.48,4.91-1.72,6.16-2.91,1.06-1.01,2.64-2.5,5.11-2.28,2.05-.57,3.72-.86,5.2-1.12,2.5-.44,4.47-.78,7.49-2.33.35-.18.74-.29,1.13-.32,2.21-.18,2.39-.26,3.27-.67.83-.39,2.06-.96,4.68-1.8,3.05-3.23,6.19-3.22,9-3.22,1.59,0,3.23,0,5.18-.53.13-.04.27-.06.41-.08,1.92-.25,2.17-.55,2.52-.96.84-1,1.86-2.01,4.23-2.5,3.06-.82,5.22-1.1,6.96-1.32,2.38-.3,3.37-.43,5.03-1.73.14-.11.29-.21.45-.29,4.24-2.24,5.13-2.6,6.73-3.25,1.03-.42,2.31-.94,5.12-2.22,2.91-1.35,4.86-1.31,6.92-1.27,1.42.03,3.02.06,5.55-.32.88-.29,1.41-.79,2.29-1.67,1.32-1.31,3.09-3.08,6.68-3.62,3.5-2.32,5.9-2.07,8.44-1.53.98.21,1.76.37,2.79.21,2.59-.78,3.12-1.65,3.78-2.74,1.06-1.73,2.38-3.43,5.79-3.71,3.02-1.52,5.55-1.13,7.61-.81,1.99.31,3.43.53,5.66-.7.17-.09.34-.17.52-.23,2.34-.76,3.17-1.69,4.21-2.87,1.22-1.38,2.72-3.07,6.05-3.72,2.39-1.07,4.46-.59,6.65-.08,1.38.32,3.03.71,5.3.86.08-.18.16-.37.25-.56,1.02-2.35,2.57-5.91,8.48-6.67.13-.02.27-.02.41-.02,1.44.01,2.57.12,3.48.2,2.17.2,3.16.29,6.35-1.06.19-.08.39-.14.59-.18,2.86-.57,4.18-1.33,6.37-2.61,1.31-.76,2.93-1.71,5.22-2.79.04-.02.08-.04.12-.05,3.8-1.6,6.29-1.25,8.11-1,1.49.21,1.89.26,3.11-.68.35-.27.76-.47,1.2-.56,2.78-.61,3.31-1.1,5.07-2.75,1.13-1.06,2.68-2.51,5.28-4.4.92-.67,2.13-.76,3.13-.25.33.17.64.34.96.52,1.7.96,2.73,1.54,7.23-1.15.22-.13.45-.23.69-.3,1.79-.53,2.49-1,3.3-1.54,1.66-1.11,3.18-1.93,7.21-2.3,2.96-1.21,4.53-1.32,5.69-1.4.98-.07,1.52-.11,4.28-2.21.35-.26.75-.45,1.17-.54,1.46-.32,2.38-.5,3.06-.63q1.73-.33,7.08-2.31l.54-.2c2.66-2.02,4.67-1.91,6.49-1.62,1.1.18,1.82.29,3.95-1.18.52-.36,1.16-.55,1.79-.53,2.79.07,3.31-.47,4.67-1.93.78-.84,1.76-1.88,3.24-2.88.43-.29.94-.47,1.46-.51,1.84-.14,3.26.03,4.51.17,2.07.24,3.88.45,7.9-.75.21-.25.39-.5.6-.77,1.42-1.91,2.8-3.38,7.51-4.82,4.38-2.53,7.13-2.48,10.03-2.41.94.02,1.92.04,3.02-.04.07,0,.13,0,.2,0,1.85,0,2.02-.22,2.86-1.27,1.14-1.42,2.86-3.58,7.63-4.86,3.43-.9,5.38-.47,7.44-.02,1.22.27,2.48.54,4.42.62,2.79-.85,3.54-1.6,4.41-2.46.99-.98,2.22-2.19,5.12-3.07,3.54-2.62,5.73-3.03,9.92-3.83.83-.16,1.75-.33,2.81-.55,2.19-.69,2.92-1.33,4.12-2.37,1.18-1.02,2.64-2.3,5.55-3.72.36-.18.75-.28,1.16-.3,2.78-.14,4.56.92,5.73,1.63,1.11.67,1.27.77,2.52.13,1.47-1.11,2.61-2.02,3.61-2.83,2.9-2.33,4.61-3.71,8.79-5.2.6-.58,1.43-.92,2.29-.88.34.02.66.09.96.21.55-.02,1.1.1,1.58.36.31-.11.65-.19,1-.2.36-.01.71.02,1.04.12.92-.39,2.01-.32,2.88.28.21.14.39.3.55.49.16.17.33.35.5.54.12-.02.25-.04.38-.06.29-.04.57-.04.85,0,1.17-.95,2.89-.89,3.98.18.59.58.9,1.34.9,2.11.12.05.24.1.36.16.69.37,1.2,1,1.43,1.74.14.1.27.2.41.33.4.36.7.82.86,1.33.71.63,1.17,1.46,1.29,2.39l.53.22c1.29.53,2.04,1.88,1.81,3.25-.06.38-.19.73-.38,1.05.56,3.21.72,4.38.14,6.86.31,1.01.51,1.26.89,1.71.88,1.06,1.77,2.27,3,5.33,1.04,1.1,1.71,2.79.46,5.23-.34.67-.41.79-.09,1.53.15.36.24.75.24,1.15,0,1,.21,1.17,1.38,2.03,1,.72,2.41,1.75,3.18,3.63.45.42.73.87.9,1.26.79,1.78.04,3.5-.61,5.01-.16.37-.32.74-.47,1.12,1.9,1.22,3.25,3,3.45,4.75.05.45.03.89-.07,1.31.56,1.51.93,2.2,1.28,2.87.69,1.28,1.19,2.35,1.98,5.31.09.34.12.7.09,1.05-.02.27-.03.46-.02.58.53.23,1.69.5,2.29.65.78.19,1.45.67,1.87,1.36s.54,1.5.35,2.28c-.28,1.12-.58,2.02-.84,2.81-.63,1.89-1.06,3.17-.79,6.71.12.06.24.11.35.16,1.5.68,3.76,1.71,4.69,4.08.08.19.13.39.17.59.78,4.59.56,5.69-.8,8.76-.04.09-.08.18-.12.27,1.68,1.29,2.04,1.75,3.62,3.98l.43.61c.93.5,1.57,1.2,1.89,2.11.67,1.86-.34,3.39-1.14,4.62-.19.28-.38.58-.58.9.58.77,1.13,1.44,1.67,2.09.83,1.01,1.7,2.06,2.57,3.37,2.22,2.25,1.42,4.83,1.06,5.95-.06.18-.14.44-.17.61.03.03.06.07.11.11.32.3.57.66.74,1.07l.32.79q1.11,2.72,1.97,3.82c.24.3.53.67.89,1.14.35.46.57,1.02.61,1.6.31,4.18.11,5.04-.64,7.39-.14.45-.31.97-.5,1.62.88.93,1.37,1.15,1.79,1.34,1,.46,2.05,1.05,2.94,2.77,2.24,4.26,3.18,6.03,1.5,8.61-.09.14-.17.26-.24.39-.03,1.53.17,2.26.28,2.54.56.06,1.09.28,1.53.63,4,3.17,3.53,6.31,3.24,8.19-.17,1.16-.18,1.46.14,1.98.18.29.3.61.38.93.01,0,.03.02.04.03,1.71,1.11,3.49,2.88,2.64,6.86.84,1.62,1.21,2.91,1.37,3.98.1.08.19.17.27.27.64.72.89,1.7.68,2.64-.44,1.95-.19,2.51-.19,2.51.08.06.57.26.9.4,1.04.44,2.46,1.04,3.51,2.5.37.51.57,1.12.57,1.75,0,2.78-.91,4.33-1.55,5.28.16.24.42.59.83,1.09,1,.9,1.54,1.61,1.79,2.93.05.27.15.76,1.02,2.32.25.45.38.96.38,1.48-.02,2.4.14,3.2.34,4.21.19.99.41,2.08.5,4.33,1.68.81,2.3,2.14,2.75,3.39.13.36.24.68.42,1.02,3.36,4.54,1.74,7.5.66,9.47-.24.44-.43.8-.58,1.14.32.25.61.46.9.68,1.56,1.16,2.66,2.02,5.26,4.98.7.79.93,1.89.61,2.89-.06.2-.13.4-.2.59-.11.3-.26.76-.26.9h0s.07.22.51.68c.72.73,1.02,1.78.78,2.78-.31,1.32.08,2.4,1.56,5.26,1.67,1.92,1.77,3.36,1.72,4.78-.02.74-.05,1.58,1.31,3.9.18.31.31.65.37,1,.11.62.18.98.23,1.18.62.57,1.38,1.38,2.48,3.28,2.01,2.69.87,5.51-.06,7.79-.18.44-.36.88-.53,1.34,1.19.87,3.22,2.47,3.42,5.49,2.06,1.57,2.39,3.25,2.18,5.2-.07.67-.11,1.01.3,1.82.2.4.32.83.33,1.28.05,1.67.71,2.61,3.22,4.58,1.12.88,1.45,2.4.86,3.65.21.36.36.8.4,1.34.05.61-.1,1.2-.38,1.71.17.73.2,1.34.14,1.86.33.69.39,1.51.13,2.27-.13.39-.3.88-.54,1.38-.05.26-.14.54-.28.83-.11.53-.37,1.02-.74,1.41.03.69-.17,1.4-.62,1.98-.12.16-.28.33-.48.5-.5.45-.99.79-1.45,1.04-.07.17-.15.34-.25.5-.03.15-.07.29-.11.42-.19.56-.56,1.11-1.1,1.5.14.44.17.92.09,1.4-.24,1.38-1.4,2.41-2.8,2.49-.96.05-1.73-.16-2.35-.55-.02.08-.05.15-.08.23-.43,1.06-1.43,1.79-2.58,1.87-2.77.19-4.73-.52-6.15-1.05-1.5-.55-2.18-.8-3.75-.24-3.51,1.21-4.03,1.98-4.81,3.14-.83,1.23-1.96,2.91-5.09,4.8-.48.29-1.01.43-1.58.43-2.93-.03-4.5-.3-5.9-.54-1.25-.22-2.29-.39-4.27-.38-3.55,1.79-4.64,2.6-5.79,3.46-1.35,1-2.74,2.04-6.99,4.18-.43.22-.89.34-1.38.32-2.55-.04-3.02.05-4.45.3-1.25.22-3.11.55-7.14.97-1.07.42-1.39.65-1.82.95-1.19.83-2.37,1.54-6.76,3.03-2.45,1.3-4.07,1.45-6.09,1.64-1.21.11-2.71.25-4.92.71-3.31,1.14-4.28,1.97-5.06,2.64-1.12.95-2.19,1.72-4.55,2.05-4.3,1.75-7.32,1.62-10.5,1.48-.91-.04-1.86-.08-2.85-.08-.11.16-.22.3-.32.44-2.4,3.38-3.38,3.85-10.51,5.86-1.63,1.8-3.44,2.24-5.21,2.66-1.04.25-2.22.53-3.76,1.13-.42.17-.88.23-1.33.2-2.56-.2-3.17.04-4.29.48-.96.37-2.25.87-4.53,1.19-5.74,4.36-9.22,3.86-14.3,2.7l-.34-.08c-3.39.71-3.88,1.46-5.19,3.49-.5.78-1.12,1.74-1.97,2.81-.47.6-1.16,1-1.92,1.11-3.17.47-5.17.3-6.62.17-1.77-.15-2.19-.19-4.17,1.24-.71.51-1.6.69-2.45.49-2.33-.55-2.68-.29-5.69,2.74-.46.46-.95.95-1.49,1.48-.54.53-1.27.83-2.02.85-2.79.07-4.58-.14-5.88-.28-2.06-.24-2.1-.24-5.02,2.06-.41.32-.9.53-1.42.61-2.58.38-2.82.61-3.48,1.22-.9.84-2.26,2.12-5.9,3.74-.49.22-1.03.3-1.56.24-2.29-.26-2.94-.07-4.86.5-1.34.4-3.17.93-6.15,1.48q-2.92,1.06-4.49,1.91c-.68.37-1.62.88-3.09,1.66-.16.08-.33.15-.51.21-7.19,2.22-8.64,2.18-12.21,1-.37-.12-.77-.26-1.24-.4-2.55.89-3.71,2.05-4.84,3.18-1.22,1.22-2.72,2.71-5.35,2.9-2.15.81-3.48,1.01-4.67,1.18-1.49.22-2.78.41-6.38,2.22-.87.53-1.56,1.01-2.17,1.44-2.95,2.06-4.69,2.85-9.82,2.31-2.76,1.83-3.99,2.07-5.76,2.11-.7.01-1.48.03-3.26.59-3.64,1.44-5.14,2.4-6.73,3.42-1.63,1.05-3.32,2.13-6.91,3.53-2.71,1-4.2,1.13-5.64,1.26-1.35.12-2.75.25-5.8,1.24-.3.1-.61.15-.93.15-.02,0-.03,0-.05,0-1.91,0-2.54.45-3.59,1.19-1.38.97-3.25,2.24-7.1,2.23-2.69.09-3.64.52-5.91,1.53-1.02.46-2.29,1.02-3.98,1.67-.65.38-1.04.73-1.49,1.13-2,1.8-3.61,2.65-9.14,2.37-3.34,2.02-4.86,2.11-7.47,1.82-.71-.08-1.5-.16-2.59-.18-2.58.87-3.48,1.62-4.61,2.55-1.55,1.29-3.31,2.76-8.16,4.36-.11.04-.21.06-.32.09-2.68.57-4.33.14-5.54-.17-.95-.25-1.35-.35-2.52.05-.05.02-.09.03-.14.04-3.07.88-3.74,1.65-4.75,2.8-1.19,1.36-2.67,3.05-6.72,4.68-.19.08-.38.13-.58.17-1.9.35-3.44.35-4.94.35-2.34,0-4.37,0-7.94,1.36-.5.19-1.05.24-1.58.15-2.58-.45-3.02-.17-4.66.87-.99.63-2.35,1.49-4.39,2.32-.09.04-.18.07-.27.1-2.06.62-3.49.61-4.67.62-1.3,0-2.2,0-4.29,1.17-.82.81-1.45,1.54-2.02,2.18-2.47,2.8-4.17,4.46-10.43,5.95-.84.2-1.69.03-2.36-.42-.18.01-.36,0-.55-.02-.02,0-.04,0-.06,0-.35.22-.77.38-1.27.46-.3.05-.82.08-1.42-.1-.33.1-.68.16-1.01.18-.53.47-1.23.75-1.98.75ZM225.16,466.06c.31,0,.63.06.94.17.64.22,1.68.8,2.17,2.37,1.55-.7,2.27-1.52,3.47-2.88.67-.76,1.5-1.7,2.61-2.78.17-.17.37-.32.58-.44,3.45-2.01,5.45-2.16,7.63-2.17.92,0,1.67,0,2.8-.32,1.47-.61,2.41-1.21,3.32-1.78,2.29-1.45,4.14-2.38,8.08-1.84,4.17-1.47,6.89-1.47,9.31-1.47,1.24,0,2.32,0,3.56-.2,2.49-1.04,3.27-1.93,4.16-2.95,1.6-1.83,3.18-3.33,7.54-4.6,2.82-.94,4.58-.49,5.87-.16.87.22,1.45.37,2.65.14,3.63-1.22,4.8-2.19,6.03-3.22,1.42-1.18,3.03-2.52,7.07-3.8.32-.1.67-.14,1.01-.14,1.61,0,2.76.12,3.61.22,1.66.18,1.88.2,4.43-1.43.54-.35,1.17-.51,1.82-.47,4.49.3,4.92-.08,5.7-.79.6-.54,1.41-1.27,2.77-2.02.12-.07.25-.13.38-.18,1.64-.62,2.83-1.16,3.88-1.62,2.59-1.16,4.31-1.92,8.23-2.05.05,0,.1,0,.16,0,1.93.03,2.53-.38,3.61-1.14,1.31-.92,3.09-2.17,6.6-2.27,3.41-1.08,5.22-1.24,6.68-1.37,1.25-.11,2.15-.19,4.06-.9,2.98-1.16,4.28-2,5.79-2.97,1.69-1.09,3.61-2.32,7.87-3.99.06-.02.12-.05.19-.07,2.67-.85,4.11-.88,5.05-.9.72-.01,1.04-.02,3.37-1.67.61-.43,1.37-.62,2.12-.53,4.32.56,4.69.3,6.78-1.15.67-.47,1.51-1.05,2.59-1.7.06-.04.13-.08.2-.11,4.54-2.3,6.46-2.58,8.32-2.86,1.09-.16,2.03-.3,3.82-1.01.36-.15.72-.23,1.14-.21.45,0,.55-.03,1.69-1.17,1.44-1.43,3.61-3.6,8.19-4.95.53-.16,1.1-.16,1.63-.01.97.26,1.73.51,2.38.73,2.1.7,2.5.83,8.29-.95,1.29-.68,2.14-1.14,2.76-1.48,1.97-1.07,2.16-1.14,5.32-2.29l.23-.08c.16-.06.33-.1.49-.13,2.8-.5,4.45-.98,5.77-1.37,1.99-.58,3.46-1.02,6.38-.78,2.16-1.02,2.88-1.7,3.53-2.31,1.49-1.4,2.71-2.12,5.93-2.66,3.82-2.92,5.33-3.21,8.78-2.82.98.11,2.16.25,3.88.26.2-.2.39-.39.58-.58,2.9-2.91,5.24-5.25,9.97-4.6,2.86-1.81,4.65-1.82,7.1-1.61,1.07.09,2.25.19,4.03.02.34-.48.63-.94.92-1.39,2.02-3.13,3.68-5.12,9.72-6.25.4-.07.81-.07,1.21.02l.98.22c4.27.97,5.71,1.3,9.91-2.07.45-.36.99-.58,1.55-.64,2.05-.22,2.93-.56,3.87-.93,1.65-.64,3.1-1.09,6.25-.91,1.63-.59,2.93-.91,3.91-1.14,1.8-.43,1.93-.5,2.4-1.16.4-.57.98-.99,1.65-1.17q6.82-1.91,8.17-3.82c.35-.49.76-1.07,1.28-1.75.54-.7,1.35-1.13,2.23-1.17,1.84-.09,3.42-.03,4.81.04,2.91.12,5.02.22,8.29-1.17.27-.11.55-.19.85-.22,1.06-.12,1.13-.18,1.77-.72,1.06-.9,2.66-2.26,7.19-3.8.12-.04.23-.07.36-.1,2.65-.55,4.46-.72,5.77-.84,1.82-.17,2.51-.23,4.01-1.05.15-.08.32-.16.48-.21,4.12-1.39,4.84-1.89,5.47-2.34.81-.57,1.58-1.06,3.49-1.78.25-.09.5-.15.76-.18,4.1-.42,5.92-.74,7.12-.95,1.55-.27,2.41-.4,4.82-.4,3.28-1.68,4.34-2.47,5.46-3.3,1.38-1.03,2.8-2.08,7.31-4.32.39-.19.82-.3,1.25-.31,3.04-.08,4.6.19,6.1.45,1.12.19,2.19.38,4.06.44,1.44-.97,1.94-1.72,2.51-2.57,1.37-2.03,2.81-3.72,7.8-5.45,3.58-1.28,5.92-.42,7.8.27.17.06.34.13.51.18.03-.1.06-.21.09-.3-.36-.87-.52-1.84-.2-2.79.25-.77.81-1.41,1.54-1.76.3-.15.62-.24.95-.28.33-.67.9-1.22,1.66-1.5.35-.13.71-.19,1.06-.19.1-.13.21-.26.32-.4-.12-.99.26-2,1.06-2.67.11-.09.22-.17.33-.24-.01-.05-.03-.1-.04-.15-.23-.95-.02-1.91.53-2.65-.57-1.05-.47-2.36.31-3.32.48-.59.79-1.09,1.07-1.53-1.11-1.4-1.93-3.09-2.13-5.29-.88-2.02-.76-3.53-.65-4.49-.16-.1-.38-.24-.7-.4-1.18-.62-1.81-1.94-1.55-3.25.17-.83.17-.85-1.06-1.75-.68-.5-1.53-1.12-2.2-2.04-.52-.72-.69-1.63-.47-2.49.38-1.49.9-2.77,1.32-3.8.28-.7.66-1.63.72-2.05-.07-.1-.14-.2-.2-.3-.88-1.54-1.29-1.89-1.53-2.1-1.2-1.06-1.55-2.03-1.91-3.96-1.82-3.23-1.92-5.07-1.87-6.67,0-.11.01-.21,0-.31-.05-.08-.16-.23-.41-.5-.19-.2-.34-.42-.47-.66-1.38-2.63-2.69-5.14-2.49-8.16-1.44-2.07-1.33-3.97-1-5.33-1.49-1.6-2.19-2.12-3.21-2.88-.64-.48-1.45-1.07-2.56-2.02-.7-.59-1.09-1.47-1.06-2.39.08-2.31.96-3.92,1.61-5.11.8-1.47.87-1.59-.3-3.12-.07-.09-.13-.18-.18-.27-.54-.89-.81-1.66-1-2.22,0-.02-.02-.04-.02-.07-.09-.01-.2-.03-.33-.04-1.52-.16-2.68-1.44-2.68-2.97,0-3.32-.23-4.42-.44-5.48-.21-1.07-.43-2.18-.45-4.63-.76-1.45-1.05-2.34-1.21-3.02-.03-.03-.07-.06-.1-.09-.12-.1-.23-.21-.33-.33-2.49-2.96-3.53-5.26-1.47-8.29.18-.26.33-.48.44-.74-.07-.03-.14-.06-.21-.09-2.64-1.12-4.97-2.83-4.58-7.46-.63-.89-.63-1.85-.63-2.31,0-.52,0-1.49-1.27-3.64-.44-.74-.54-1.63-.28-2.44.2-.61.26-1,.29-1.23-.04-.02-.08-.05-.12-.07-.75-.48-2.22-1.43-2.62-3.48-1.1-2.18-.81-4.09-.62-5.39.17-1.16.22-1.49-.48-2.14-2.47-.61-4.92-2.79-4.62-9.12.01-.29.07-.58.17-.86.24-.68.51-1.2.73-1.57-.37-.86-1.17-2.37-1.51-3.02,0-.02-.02-.03-.03-.05-.03-.01-.06-.03-.09-.04-1.29-.59-2.73-1.4-4.96-4.19-.59-.74-.79-1.71-.56-2.62.41-1.59.75-2.66,1-3.44.49-1.52.59-1.85.44-4.21-.1-.13-.2-.26-.29-.37-1.39-1.76-1.52-2.09-2.82-5.27l-.1-.24c-2.26-2.53-1.43-5.19-1.06-6.37.03-.08.06-.18.08-.27-.09-.11-.18-.22-.25-.33-.76-1.17-1.51-2.08-2.37-3.13-.89-1.08-1.89-2.3-3.04-3.97-.59-.86-.69-1.97-.26-2.93.5-1.11,1.05-2.02,1.51-2.73l-.75-1.06q-1.36-1.92-3.17-3.28l-1.04-.78c-1.07-.81-1.47-2.24-.98-3.49.43-1.08.79-1.91,1.09-2.59.86-1.95.92-2.08.47-4.75-.33-.25-1.09-.6-1.52-.8-1.23-.56-4.34-1.98-3.83-5-.37-4.59.24-6.74.93-8.84-2.17-.88-3.98-2.47-3.83-6.14-.59-2.13-.91-2.74-1.35-3.56-.5-.94-1.12-2.1-2.09-4.95-.16-.48-.2-.98-.12-1.46-.33-.28-.84-.61-1.49-.8-1.4-.4-2.31-1.75-2.17-3.19.2-1.96.93-3.64,1.46-4.86.05-.11.1-.23.15-.35-.2-.31-.34-.66-.42-1.04-.08-.38-.25-.56-1.22-1.27-1.36-.99-3.58-2.6-3.83-6.23-.88-2.47-.33-4.29.17-5.41-.05-.1-.1-.2-.14-.31-1.14-2.94-1.75-3.68-2.29-4.33-.88-1.06-1.56-2.02-2.28-4.73-.13-.5-.13-1.02,0-1.52.33-1.26.44-1.76.32-2.79-1.13.13-2.24-.35-2.91-1.29-.01-.02-.03-.04-.04-.06-.3-.18-.58-.41-.81-.7-.49-.61-.71-1.36-.66-2.09-1.1-.25-1.85-1.04-2.17-1.9-.19.03-.37.04-.58.04-.86,0-1.66-.38-2.21-1-1.06.26-2.19-.08-2.93-.9-.29-.32-.5-.69-.63-1.09-.09.07-.18.13-.28.19-.92.58-2.16.61-3.11.09-.14-.04-.28-.08-.42-.14-.78-.31-1.28-.79-1.59-1.37-1.48.77-2.59,1.67-4.37,3.09-1.03.83-2.32,1.86-3.97,3.1-.13.1-.26.18-.41.26-4.09,2.15-6.5,1.08-8.61-.19-.7-.42-1.15-.69-1.78-.76-1.78.93-2.68,1.72-3.63,2.54-1.43,1.25-2.91,2.53-6.42,3.62-.09.03-.19.05-.29.07-1.15.24-2.16.43-3.04.6-4.17.79-5.16.98-7.86,3.05-.32.24-.67.42-1.06.52-1.78.47-2.22.91-3.02,1.7-1.53,1.51-3.14,2.87-7.42,4.1-.29.08-.6.12-.9.12-2.79-.07-4.58-.46-6.02-.78-1.73-.38-2.59-.57-4.62-.04-2.85.76-3.61,1.71-4.48,2.8-1.47,1.84-3.14,3.49-7.43,3.53-1.33.09-2.46.06-3.46.04-2.54-.06-4.07-.08-7.16,1.76-.21.13-.45.23-.69.3-3.47,1.03-3.92,1.64-4.75,2.76-.4.53-.89,1.2-1.63,1.94-.34.34-.75.59-1.21.74-5.78,1.84-8.64,1.52-11.16,1.22-.88-.1-1.67-.18-2.55-.18-.6.49-1.08,1-1.59,1.54-1.97,2.1-3.85,3.73-8.23,3.83-3.34,2.08-5.54,1.96-7.51,1.64-.97-.15-1.12-.18-2.14.66-.26.21-.55.38-.87.5l-.98.36c-5.7,2.11-5.81,2.15-8.02,2.58-.55.11-1.25.24-2.28.46-3.51,2.6-5,2.88-6.96,3.01-.92.06-1.88.13-4.2,1.12-.3.13-.62.21-.95.23-3.2.25-3.82.67-4.85,1.35-.91.61-2.15,1.43-4.56,2.18-6.06,3.54-9.2,2.95-12.04,1.52-1.43,1.13-2.4,2.04-3.21,2.8-2.12,1.98-3.55,3.19-7.26,4.09-2.94,2.05-5.21,1.73-7.06,1.47-1.42-.2-2.65-.37-4.89.56-2.02.96-3.45,1.79-4.71,2.52-2.28,1.33-4.27,2.48-7.92,3.25-4.16,1.73-6.13,1.66-8.95,1.4-.83-.08-1.69-.15-2.79-.17-2.35.34-2.69,1.11-3.54,3.08-.4.92-.85,1.95-1.57,2.98-.56.8-1.48,1.27-2.45,1.27h-.03c-3.88-.04-6.47-.65-8.36-1.09-2.04-.47-2.43-.5-2.96-.22-.29.15-.61.26-.93.31-1.52.24-1.94.71-2.95,1.85-1.22,1.37-2.87,3.24-6.58,4.51-3.91,2.07-6.98,1.59-9.22,1.24-1.84-.29-2.86-.44-4.34.43-.45.27-.96.41-1.48.42-.82.01-1.05.14-1.06.14-.09.08-.32.45-.48.72-1.23,2.01-2.81,4.09-7.38,5.42-.1.03-.19.05-.29.07-2.27.42-4,.06-5.27-.21-1.63-.34-2.31-.49-4.33.98-.44.32-.96.51-1.5.56-1.99.18-2.64.82-3.81,1.99-1.12,1.11-2.51,2.5-5.01,3.23-.12.04-.25.06-.37.08-3.18.5-5.28.46-6.82.43-1.8-.04-2.63-.05-4.29.72-2.94,1.34-4.35,1.91-5.38,2.33-1.44.58-2.18.88-5.96,2.87-2.86,2.16-5.13,2.45-7.75,2.78-1.65.21-3.53.45-6.24,1.18-.07.02-.14.04-.21.05q-.57.11-.9.5c-1.05,1.24-2.39,2.5-6.14,3.02-2.64.69-4.83.68-6.57.68-2.58,0-3.54,0-4.97,1.74-.38.46-.87.79-1.44.96-2.8.86-3.91,1.38-4.73,1.75-1.41.66-2.2.93-4.73,1.16-3.54,1.74-6.03,2.17-8.66,2.63-1.55.27-3.16.55-5.2,1.15-.44.13-.9.16-1.36.08-.18.15-.45.4-.66.6-1.42,1.35-3.74,3.57-8.8,4.41-3,1.87-5.22,1.3-6.59.95-.96-.25-1.11-.29-2.04.38-.53.38-1.18.58-1.83.56-1.62-.05-1.85.12-3.61,1.46-1.05.8-2.49,1.89-4.69,3.19-.23.14-.49.25-.75.32-2.78.75-5.1.66-6.97.58-1.74-.07-2.53-.06-2.85.27-.35.36-.78.63-1.26.78-.15.05-.28.09-.41.13-.32.71-.9,1.27-1.62,1.56-.21.72-.58,1.31-1.04,1.77.1.66-.02,1.35-.38,1.95-.3.51-.73.91-1.23,1.16-.28.2-.61.37-.99.48.32,1.11-.02,2.34-.94,3.12-.12.11-.25.2-.37.29-.01.38-.1.79-.29,1.19.03.04.06.08.09.13.33.51.65,1.3.53,2.37.26.77.2,1.62-.17,2.34-.02.33-.1.65-.23.94,1.21.9,2.43,2.43,3.52,5.25.04.09.07.19.09.29.95,3.47.08,5.31-1.22,6.55.94,1.17,1.5,2.33,2.07,3.52.41.85.83,1.72,1.45,2.76.32.28.58.63.76,1.02.68,1.43.12,2.71-.25,3.56-.26.6-.64,1.46-.88,2.74,3.14.4,4.43,1.77,6.03,4.75l.29.53c.23.43.36.9.36,1.39.06,4.49.25,5.09,1.04,7.62.13.43.28.92.45,1.47.1.32.14.65.12.98l-.05,1.07c-.07,1.55-.08,1.65.51,3.33,1.18.48,2.23,1.2,2.5,2.66.24,1.28-.27,2.42-1.51,3.39-.02.01-.03.03-.05.04l.05.1c1.7,3.22,2.24,4.09,4.54,4.6,1.07.24,1.93,1.05,2.23,2.11.8,2.82-.11,4.73-.92,6.42-.18.38-.37.76-.54,1.18,2.94,2.38,3.88,3.79,4.25,8.76,1.35,1.5,1.88,2.46,1.7,4.55-.05.59-.12,1.4.09,3.12.03.22.03.45,0,.67.96.17,2.26.42,3.29,1.47.32.33.56.73.71,1.16,1.68,5.1,1.37,7.54.06,9.51.25.29.55.57.89.89.73.68,1.64,1.53,2.41,2.85.11.19.2.4.27.61,1.26,3.97,1.28,6,1.3,8.14,0,.74.01,1.51.08,2.41,1.5.89,4.08,2.85,3.7,7.43.37,1.36.29,2.21.02,3.33-.15.63-.38,1.56-.35,4.15.23.05.5.09.68.12.88.13,2.73.41,3.36,2.31.04.12.07.24.1.36,1.95,3.06,2.02,4.88,2.19,8.81.02.54.05,1.13.08,1.78.56.5.8.84,1.3,1.69.17.3.42.71.8,1.34.25.41.4.86.44,1.34.05.62.13,1.28.21,1.95.26,2.2.56,4.77.07,7.28,2.06.82,2.52,2.13,3.42,5.11,2.25,1.29,2.48,3.21,2.49,4.96,0,1.06.02,2.25.94,4.22.25.54.33,1.13.25,1.69.68.99,1.22,2.38,1.24,4.38,1.52,1.8,1.32,3.72,1.19,5.07-.05.5-.1,1.02-.1,1.61.31.84.91,1.55,1.6,2.36,1.17,1.38,2.87,3.39,2.54,6.34.45,1.12.62,1.84.75,2.48.02.09.03.17.06.25,0,0,.03.08.39.53.35.45.57.98.63,1.55.32,3.12.69,3.68,1.02,4.17.65.98,1.22,1.99,1.52,4.43.32,1.24.18,2.65.02,4.26-.11,1.11-.23,2.33-.2,3.49,1.63,1.36,3.51,1.58,4.31,1.6.91.03,1.76.48,2.3,1.21.54.73.73,1.67.5,2.55-.91,3.48-1.94,5.23-2.58,6.29.09.2.15.41.2.62.26,1.25.48,1.58.49,1.59h0s.11.04.2.1c1.18.69,2.41,1.59,3.46,4.23,2.05,2.34,2.1,4.46,1.82,5.89.46.41.78.95.92,1.57.38,1.68.6,2.92.76,3.82.09.49.18,1.03.26,1.33.26.17.76.43,1.23.68l.63.34c1.43.77,1.98,2.53,1.26,3.98-.48.96-.53,2.06-.59,3.34-.04.82-.08,1.71-.25,2.61,1.15,1.33,2.02,2.71,2.76,5.58.42.87.78,1.51,1.09,2.08.37.68.68,1.26.91,1.83,1.39-.16,2.73.67,3.18,2.05.08.26.14.52.17.78.01.11.03.21.03.31.72.59,1.13,1.48,1.1,2.42.16.17.3.34.42.51.23.07.41.15.51.2.58.27,1.06.71,1.37,1.26.49.18.93.47,1.27.82.02.02.05.05.07.07.36-.08.74-.09,1.11-.02.77.13,1.44.55,1.9,1.15.14-.13.3-.25.48-.37.78-.5,1.79-.61,2.66-.32.41.03.81.13,1.19.31.05.02.09.05.14.07ZM184.29,399.41s.01.03.02.05c0-.02-.01-.03-.02-.05ZM175.91,372.89h0ZM162.93,322.2h0s0,0,0,0ZM602.16,149.19h0Z" fill="#2b2b2b"/><path d="M227.18,446.92c-.27,0-.54-.06-.79-.19-.41-.21-.73-.57-.87-1.02l-8.44-25.63c-.3-.92.2-1.91,1.12-2.21.92-.3,1.91.2,2.21,1.12l7.89,23.97,20.2-6.65c.92-.3,1.91.2,2.21,1.12.3.92-.2,1.91-1.12,2.21l-21.86,7.19c-.18.06-.36.09-.55.09ZM296.54,424.1c-.74,0-1.42-.47-1.66-1.2-.3-.92.2-1.91,1.12-2.21l47.5-15.63c.92-.3,1.91.2,2.21,1.12.3.92-.2,1.91-1.12,2.21l-47.5,15.63c-.18.06-.37.09-.55.09ZM391.53,392.84c-.74,0-1.42-.47-1.66-1.2-.3-.92.2-1.91,1.12-2.21l47.49-15.63c.92-.3,1.91.2,2.21,1.12.3.92-.2,1.91-1.12,2.21l-47.49,15.63c-.18.06-.37.09-.55.09ZM203.12,373.79c-.74,0-1.42-.47-1.66-1.2l-15.63-47.5c-.3-.92.2-1.91,1.12-2.21.92-.3,1.91.2,2.21,1.12l15.63,47.5c.3.92-.2,1.91-1.12,2.21-.18.06-.37.09-.55.09ZM486.52,361.58c-.74,0-1.42-.47-1.66-1.2-.3-.92.2-1.91,1.12-2.21l47.5-15.63c.92-.3,1.91.2,2.21,1.12.3.92-.2,1.91-1.12,2.21l-47.5,15.63c-.18.06-.37.09-.55.09ZM581.5,330.32c-.74,0-1.42-.47-1.66-1.2-.3-.92.2-1.91,1.12-2.21l47.49-15.63c.92-.3,1.91.2,2.21,1.12.3.92-.2,1.91-1.12,2.21l-47.49,15.63c-.18.06-.37.09-.55.09ZM621.96,293.29c-.74,0-1.42-.47-1.66-1.2l-15.63-47.5c-.3-.92.2-1.91,1.12-2.21.92-.3,1.91.2,2.21,1.12l15.63,47.5c.3.92-.2,1.91-1.12,2.21-.18.06-.37.09-.55.09ZM171.86,278.8c-.74,0-1.42-.47-1.66-1.2l-15.63-47.49c-.3-.92.2-1.91,1.12-2.21.92-.3,1.91.2,2.21,1.12l15.63,47.49c.3.92-.2,1.91-1.12,2.21-.18.06-.37.09-.55.09ZM590.7,198.3c-.74,0-1.42-.47-1.66-1.2l-15.63-47.49c-.3-.92.2-1.91,1.12-2.21.92-.3,1.91.2,2.21,1.12l15.63,47.49c.3.92-.2,1.91-1.12,2.21-.18.06-.37.09-.55.09ZM157.94,192.57c-.74,0-1.42-.47-1.66-1.2-.3-.92.2-1.91,1.12-2.21l47.49-15.63c.92-.3,1.91.2,2.21,1.12.3.92-.2,1.91-1.12,2.21l-47.49,15.63c-.18.06-.37.09-.55.09ZM252.93,161.31c-.74,0-1.42-.47-1.66-1.2-.3-.92.2-1.91,1.12-2.21l47.49-15.63c.92-.3,1.91.2,2.21,1.12.3.92-.2,1.91-1.12,2.21l-47.49,15.63c-.18.06-.37.09-.55.09ZM347.92,130.05c-.74,0-1.42-.47-1.66-1.2-.3-.92.2-1.91,1.12-2.21l47.5-15.63c.92-.3,1.91.2,2.21,1.12.3.92-.2,1.91-1.12,2.21l-47.5,15.63c-.18.06-.37.09-.55.09ZM559.44,103.31c-.74,0-1.42-.47-1.66-1.2l-12.18-37.02-7.15,2.35c-.92.3-1.91-.2-2.21-1.12-.3-.92.2-1.91,1.12-2.21l8.81-2.9c.92-.3,1.91.2,2.21,1.12l12.73,38.68c.3.92-.2,1.91-1.12,2.21-.18.06-.37.09-.55.09ZM442.91,98.79c-.74,0-1.42-.47-1.66-1.2-.3-.92.2-1.91,1.12-2.21l47.49-15.63c.92-.3,1.91.2,2.21,1.12.3.92-.2,1.91-1.12,2.21l-47.49,15.63c-.18.06-.37.09-.55.09Z" fill="#2b2b2b"/><path d="M629,314.69c-.14,0-.28-.02-.42-.05l-17.72-4.31c-.94-.23-1.51-1.17-1.29-2.11.23-.94,1.17-1.52,2.11-1.29l17.72,4.31c.94.23,1.51,1.17,1.29,2.11-.19.8-.91,1.34-1.7,1.34ZM572.42,300.92c-.14,0-.28-.02-.42-.05l-38.87-9.46c-.94-.23-1.51-1.17-1.29-2.11.23-.94,1.17-1.52,2.11-1.29l38.87,9.46c.94.23,1.51,1.17,1.29,2.11-.19.8-.91,1.34-1.7,1.34ZM494.68,282c-.14,0-.28-.02-.42-.05l-38.87-9.46c-.94-.23-1.51-1.17-1.29-2.11.23-.94,1.17-1.52,2.11-1.29l38.87,9.46c.94.23,1.51,1.17,1.29,2.11-.19.8-.91,1.34-1.7,1.34ZM416.95,263.08c-.14,0-.28-.02-.42-.05l-38.87-9.46c-.94-.23-1.51-1.17-1.29-2.11s1.18-1.51,2.11-1.29l38.87,9.46c.94.23,1.51,1.17,1.29,2.11-.19.8-.91,1.34-1.7,1.34ZM339.22,244.16c-.14,0-.28-.02-.42-.05l-38.87-9.46c-.94-.23-1.51-1.17-1.29-2.11s1.18-1.52,2.11-1.29l38.87,9.46c.94.23,1.51,1.17,1.29,2.11-.19.8-.91,1.34-1.7,1.34ZM261.49,225.24c-.14,0-.28-.02-.42-.05l-38.87-9.46c-.94-.23-1.51-1.17-1.29-2.11.23-.94,1.17-1.52,2.11-1.29l38.87,9.46c.94.23,1.51,1.17,1.29,2.11-.19.8-.91,1.34-1.7,1.34ZM183.76,206.32c-.14,0-.28-.02-.42-.05l-38.87-9.46c-.94-.23-1.51-1.17-1.29-2.11.23-.94,1.17-1.52,2.11-1.29l38.87,9.46c.94.23,1.51,1.17,1.29,2.11-.19.8-.91,1.34-1.7,1.34Z" fill="#2b2b2b"/><path d="M227.18,446.92c-.4,0-.79-.13-1.12-.41-.74-.62-.84-1.72-.22-2.46l11.7-13.99c.62-.74,1.72-.84,2.46-.22.74.62.84,1.72.22,2.46l-11.7,13.99c-.35.41-.84.63-1.34.63ZM264.53,402.23c-.4,0-.79-.13-1.12-.41-.74-.62-.84-1.72-.22-2.46l25.65-30.69c.62-.74,1.72-.84,2.46-.22.74.62.84,1.72.22,2.46l-25.65,30.69c-.35.41-.84.63-1.34.63ZM315.84,340.85c-.4,0-.79-.13-1.12-.41-.74-.62-.84-1.72-.22-2.46l25.65-30.69c.62-.74,1.72-.84,2.46-.22s.84,1.72.22,2.46l-25.65,30.69c-.35.41-.84.63-1.34.63ZM367.14,279.47c-.4,0-.79-.13-1.12-.41-.74-.62-.84-1.72-.22-2.46l25.65-30.69c.62-.74,1.72-.84,2.46-.22s.84,1.72.22,2.46l-25.65,30.69c-.35.41-.84.63-1.34.63ZM418.45,218.09c-.4,0-.79-.13-1.12-.41-.74-.62-.84-1.72-.22-2.46l25.65-30.69c.62-.74,1.72-.84,2.46-.22.74.62.84,1.72.22,2.46l-25.65,30.69c-.35.41-.84.63-1.34.63ZM469.75,156.7c-.4,0-.79-.13-1.12-.41-.74-.62-.84-1.72-.22-2.46l25.65-30.69c.62-.74,1.72-.84,2.46-.22.74.62.84,1.72.22,2.46l-25.65,30.69c-.35.41-.84.63-1.34.63ZM521.06,95.32c-.4,0-.79-.13-1.12-.41-.74-.62-.84-1.72-.22-2.46l25.65-30.69c.62-.74,1.72-.84,2.46-.22s.84,1.72.22,2.46l-25.65,30.69c-.35.41-.84.63-1.34.63Z" fill="#2b2b2b"/><path d="M1350.14,1563.58h-.9c-6.8,0-13.59-.1-20.18-.27-51.57-1.27-99.29-7.23-134.38-16.77-25.48-6.93-55.86-18.92-55.86-36.64,0-30.1,92.82-53.68,211.32-53.68s211.33,23.58,211.33,53.68c0,6.88-4.71,13.48-13.99,19.64-.68.51-1.66.45-2.28-.17-.68-.68-.68-1.79,0-2.47.06-.06.12-.11.19-.16.04-.03.07-.05.11-.08,8.28-5.48,12.47-11.11,12.47-16.75,0-12.8-21.89-25.56-60.06-35.02-39.45-9.78-91.93-15.16-147.77-15.16s-108.32,5.38-147.77,15.16c-38.17,9.46-60.05,22.22-60.05,35.02,0,11.92,19.42,24.05,53.28,33.26,34.82,9.48,82.25,15.39,133.55,16.65,6.57.17,13.33.26,20.1.26h.9c.97,0,1.75.78,1.75,1.75s-.78,1.75-1.75,1.75Z" fill="#2b2b2b"/><path d="M1566.21,1592.04c-.1,0-.19,0-.29-.01-1.65-.16-2.86-1.6-2.69-3.25v-.07s.01-.07.02-.11l5.35-39.7c.22-1.64,1.74-2.79,3.37-2.57,1.64.22,2.79,1.73,2.57,3.37l-5.34,39.68c-.19,1.5-1.48,2.65-2.98,2.65Z" fill="#2b2b2b"/><path d="M1354.84,1960.17c-71.21,0-122.91-12.11-153.66-36-22.91-17.79-25.24-35.73-25.41-37.38l-13.38-95.2c-.23-1.64.91-3.16,2.55-3.39,1.64-.23,3.16.91,3.39,2.55l13.39,95.26c0,.05.01.11.02.16.01.15,1.86,17,23.69,33.69,20.46,15.64,63,34.29,149.4,34.29s127.68-19.03,147.12-34.99c20.7-17,21.46-34.16,21.46-34.33,0-.1.01-.22.03-.32l22.31-165.88c.22-1.64,1.75-2.78,3.37-2.57,1.64.22,2.79,1.73,2.57,3.37l-22.29,165.74c-.1,2.19-1.6,20.24-23.08,38.16-29.27,24.43-80.23,36.82-151.49,36.82Z" fill="#2b2b2b"/><path d="M1157.75,1739.97c-1.47,0-2.76-1.08-2.97-2.58l-26.18-186.37c-.23-1.63.9-3.16,2.53-3.4,1.62-.24,3.15.86,3.4,2.49v.04s26.2,186.41,26.2,186.41c.23,1.64-.91,3.16-2.55,3.39-.14.02-.28.03-.42.03Z" fill="#2b2b2b"/><path d="M1264.91,1784.44c-3.13,0-5.83-.04-8.05-.08h-.16c-.85-.02-1.66-.39-2.22-1.04-.56-.65-.82-1.5-.71-2.35l.31-2.42c.05-1.36-.28-1.57-1.85-2.2l-26.07-6.78c-19.92-5.63-39.22-13.36-57.44-22.96l-25.36-13.37c-.3.16-.93.69-1.35,1.75l-.59,1.5c-.58,1.47-2.19,2.24-3.7,1.76-1.69-.54-41.39-14.12-38.27-98.43.91-24.57,8.02-60.72,19.53-99.17.47-1.59,2.14-2.49,3.73-2.01,1.59.47,2.49,2.15,2.01,3.73-11.37,37.99-18.4,73.59-19.28,97.67-1.54,41.64,7.89,64.61,16.07,76.55,6.02,8.78,12.25,13.01,15.58,14.8.97-1.69,2.35-3,3.93-3.68,1.47-.63,3.03-.68,4.41-.13.1.04.2.08.29.13l25.79,13.59c17.85,9.41,36.76,16.98,56.21,22.48l26.19,6.82c.12.03.24.07.36.12,1.79.72,5.8,2.32,5.8,7.68,61.35.38,115.73-16.04,161.72-48.87.27-.19.5-.35.72-.51l.1-.07c1.34-.97,3.22-.67,4.19.67.97,1.34.67,3.22-.67,4.19l-.1.07c-.27.19-.53.38-.8.57-30.64,21.87-65.28,36.81-102.91,44.38-24.39,4.9-44.54,5.62-57.42,5.62Z" fill="#2b2b2b"/><path d="M1243.08,1820.22c-1.95,0-3.84-.33-5.02-.78l-27.74-8.07c-15.83-4.61-31.35-10.58-46.14-17.75-3.7-1.79-7.39-3.67-10.99-5.6l-22.95-10.87c-.13-.06-.27-.14-.39-.22-3.33-2.24-6.63-6.3-5.16-10.49l1.26-5.62c-22.97-20.95-36.74-48.47-40.94-81.82-8-63.52,17.95-134.94,29.47-162.69.64-1.53,2.39-2.25,3.92-1.62,1.53.64,2.26,2.39,1.62,3.92-8.85,21.31-37.1,95.81-29.06,159.64,4.09,32.51,17.65,59.18,40.29,79.28.82.73,1.18,1.84.94,2.9l-1.69,7.52c-.03.15-.08.3-.14.45-.18.45.7,2.06,2.66,3.43l22.8,10.8s.09.04.13.07c3.54,1.9,7.19,3.76,10.83,5.52,14.49,7.02,29.7,12.87,45.2,17.39l27.87,8.11c.1.03.21.07.31.11.99.41,4.05.58,5.07.11l1.55-5.25c.42-1.4,1.78-2.3,3.23-2.13.31.04,31.45,3.57,73.8-4.31,38.98-7.26,95.72-25.96,144.69-73.87.17-.16.29-.28.41-.39l.2-.19c1.19-1.16,3.09-1.13,4.24.06s1.13,3.09-.06,4.24l-.18.17c-.15.15-.3.3-.46.44-50.06,48.98-108.09,68.08-147.95,75.47-36.7,6.8-64.53,5.28-72.86,4.58l-.99,3.35c-.03.08-.05.17-.09.25-.37.95-1.23,2.25-3.15,3.07-1.32.56-2.95.78-4.54.78Z" fill="#2b2b2b"/><path d="M1348.82,1575.92c-62.06,0-120.44-6.42-164.39-18.07-45.15-11.97-70.01-28.42-70.01-46.3s24.86-34.33,70.01-46.3c43.95-11.66,102.33-18.08,164.39-18.08s120.45,6.42,164.39,18.08c45.14,11.97,70.01,28.42,70.01,46.3,0,11.53-9.83,22.21-29.22,31.76-1.48.73-3.29.12-4.02-1.37-.73-1.49-.12-3.29,1.37-4.02,16.93-8.33,25.88-17.45,25.88-26.38,0-14.69-23.89-29.46-65.54-40.5-43.46-11.53-101.29-17.87-162.85-17.87s-119.39,6.35-162.85,17.87c-41.66,11.05-65.55,25.81-65.55,40.5s23.89,29.45,65.55,40.5c43.46,11.53,101.3,17.87,162.85,17.87,1.31,0,2.58,0,3.86-.01h.56c1.66,0,3,1.34,3,3s-1.34,3-3,3h-.53c-1.28.01-2.59.01-3.89.01Z" fill="#2b2b2b"/><path d="M1558.85,1560.7c-1.02,0-2.01-.52-2.58-1.46-.85-1.42-.39-3.26,1.03-4.12,4.46-2.68,8.29-5.49,11.37-8.35,3.89-3.61,6.58-7.27,8.01-10.89.03-.07.05-.13.08-.19h0s2.06-5.4.47-23.89c-.14-1.65,1.08-3.1,2.73-3.25,1.64-.13,3.1,1.08,3.25,2.73,1.67,19.31-.4,25.56-.97,26.87-1.77,4.44-4.96,8.82-9.48,13.02-3.39,3.14-7.54,6.2-12.36,9.09-.48.29-1.02.43-1.54.43Z" fill="#2b2b2b"/><path d="M1333.4,1596.43c-129.77,0-183.32-27.24-203.7-43.48-2.33-1.85-4.42-3.73-6.22-5.57-1.44-1.46-2.7-2.91-3.74-4.29-1.51-2-2.53-3.82-2.95-5.27-1.48-5.17-2.04-13.87-2.25-20.26-.12-3.47-.12-5.9-.12-6,0-1.66,1.34-3,3-3s3,1.34,3,3c0,.02,0,2.43.12,5.8.29,8.56,1,15.25,2.03,18.82.03.12.37,1.2,1.97,3.31.89,1.18,1.97,2.42,3.23,3.71,1.63,1.67,3.54,3.38,5.67,5.08,19.76,15.75,72.01,42.17,199.96,42.17,7.11,0,14.27-.05,21.29-.16h.05c1.64,0,2.97,1.31,3,2.95.03,1.66-1.3,3.02-2.95,3.05-7.05.11-14.25.16-21.38.16Z" fill="#2b2b2b"/><path d="M1559.76,1566.8c-.06,0-.13,0-.19,0-1.65-.11-2.91-1.53-2.8-3.19l.34-5.33c.11-1.65,1.52-2.91,3.19-2.8,1.65.11,2.91,1.53,2.8,3.19l-.34,5.33c-.1,1.59-1.42,2.81-2.99,2.81Z" fill="#2b2b2b"/><path d="M1430.74,1734.51c-2.41,0-4.82-.02-7.23-.05-17.03-.23-34.19-1.28-51.01-3.13-3.62-.4-7.39-1.03-10.11-4.02-3.3-3.62-3.43-9.17-3.52-12.85-.76-33.06-2.6-66.51-5.46-99.43-.38-4.34-.56-9.08-.75-14.09-.1-2.49-.19-5.03-.32-7.57-.27-5.84-.75-13.38-2.08-19.98-.49-2.49-1.08-4.76-1.77-6.77-.48-1.38-.98-2.78-1.43-3.57q-.41-.74-3.11-.64c-.63.02-1.34.05-2.14.06-.28,0-1.33.15-2.27.27-2.79.38-7.01.95-10.52.83h0c-4.64-.16-7.22-1.63-7.65-4.38-.63-4.02.95-8.26,4.58-12.25.42-.46.85-.91,1.29-1.33,7.89-7.54,18.78-11.93,32.38-13.04,6.99-.57,14.04-.29,20.85,0,4.12.17,8.37.36,12.53.32,9.93-.07,20.06-1.26,29.86-2.42l1.18-.14c9.39-1.11,18.94-2.35,28.17-3.55,16.54-2.15,33.64-4.37,50.52-5.92,8.88-.81,17.03-1.38,24.9-1.73,3.49-.16,6.71-.26,9.86-.33.11,0,.22,0,.32,0,6.66,0,9.19,4.25,9.98,6.09.32.74.64,1.48.95,2.23,1.88,4.43,3.66,8.79,5.26,12.96,2.22,5.72,4.29,11.49,6.16,17.16,3.49,10.61,6.27,20.83,8.49,31.23,3.71,17.37,5.75,34.81,6.24,53.33.13,4.86.47,9.93.84,15.3,1.08,15.94,2.2,32.43-2.09,46.48-.82,2.69-1.77,5.52-3.45,7.94-3.77,5.42-10.06,7.27-15.67,8.59-1.76.41-3.51.82-5.28,1.21-25.81,5.79-52.2,9.71-78.45,11.67-13.25,1-26.7,1.5-40.06,1.5ZM1345.41,1557.38c2.45,0,4.44.43,6.01,3.22.61,1.07,1.14,2.48,1.8,4.4.76,2.23,1.42,4.72,1.95,7.42,1.39,6.93,1.89,14.71,2.17,20.72.13,2.55.22,5.11.32,7.62.19,4.95.37,9.62.74,13.85,2.87,33.02,4.72,66.58,5.48,99.75.09,3.88.33,7.53,2.21,9.6,1.55,1.7,4.17,2.11,6.96,2.42,16.66,1.83,33.67,2.87,50.54,3.1,15.58.21,31.35-.27,46.85-1.44,26.01-1.94,52.16-5.83,77.72-11.56,1.75-.4,3.49-.8,5.24-1.2,4.92-1.15,9.95-2.61,12.71-6.58,1.28-1.84,2.04-4.15,2.78-6.55,4.02-13.17,2.94-29.19,1.88-44.68-.37-5.42-.72-10.55-.85-15.51-.48-18.21-2.48-35.35-6.13-52.42-2.18-10.23-4.92-20.27-8.35-30.71-1.84-5.58-3.88-11.28-6.07-16.92-1.58-4.12-3.33-8.43-5.2-12.81-.31-.74-.63-1.47-.95-2.21-.89-2.1-2.79-3.11-5.61-3.07-3.11.07-6.3.17-9.74.33-7.79.35-15.86.91-24.67,1.72-16.79,1.54-33.84,3.76-50.33,5.9-9.25,1.2-18.81,2.45-28.23,3.56l-1.18.14c-9.93,1.17-20.2,2.39-30.41,2.45-4.29,0-8.59-.15-12.76-.32-6.66-.27-13.55-.55-20.24,0-12.43,1.01-22.3,4.94-29.34,11.67-.36.34-.71.7-1.04,1.07-1.74,1.91-3.7,4.78-3.38,7.8.31.14,1.11.41,2.92.47h0c3.1.1,7.06-.43,9.68-.79,1.51-.2,2.32-.31,2.87-.32.76,0,1.43-.03,2.03-.06.57-.02,1.11-.04,1.64-.04Z" fill="#2b2b2b"/><path d="M1441.18,1714.53h-.03c-8.5-.12-16.94-.53-25.08-1.21-.96-.08-1.68-.93-1.6-1.89.08-.96.92-1.67,1.89-1.6,8.07.68,16.43,1.08,24.84,1.2.97.01,1.74.81,1.72,1.78-.01.96-.79,1.72-1.75,1.72ZM1466.17,1714.1c-.93,0-1.7-.73-1.75-1.67-.05-.97.7-1.79,1.66-1.83,8.15-.39,16.51-1.03,24.83-1.91.96-.1,1.82.6,1.92,1.56.1.96-.6,1.82-1.56,1.92-8.39.88-16.82,1.53-25.03,1.92-.03,0-.06,0-.08,0ZM1391.41,1710.27c-.09,0-.19,0-.29-.02-3.12-.51-6.25-1.08-9.31-1.68-.8-.16-1.39-.86-1.41-1.67,0-.06-.15-6.14-.49-15.67-.04-.97.72-1.78,1.69-1.81.95-.04,1.78.72,1.81,1.69.25,6.88.39,11.98.46,14.31,2.59.5,5.21.96,7.83,1.39.95.16,1.6,1.06,1.44,2.01-.14.86-.88,1.47-1.72,1.47ZM1515.89,1708.9c-.84,0-1.59-.61-1.73-1.47-.15-.95.5-1.85,1.45-2,8.32-1.33,16.56-2.89,24.48-4.62.93-.21,1.88.39,2.08,1.34.21.94-.39,1.88-1.34,2.08-7.99,1.75-16.29,3.31-24.68,4.65-.09.02-.19.02-.28.02ZM1559.87,1694.03s-.09,0-.14,0c-.96-.08-1.68-.92-1.61-1.88.53-6.7.8-13.64.8-20.65,0-1.39-.01-2.78-.03-4.17-.01-.97.76-1.76,1.72-1.78.97-.01,1.76.76,1.78,1.72.02,1.4.03,2.81.03,4.22,0,7.09-.27,14.13-.81,20.92-.07.92-.84,1.61-1.74,1.61ZM1380.58,1667.86c-.93,0-1.7-.73-1.75-1.66-.43-8.69-.91-17.1-1.42-25-.06-.96.67-1.8,1.63-1.86.97-.06,1.8.67,1.86,1.63.52,7.92,1,16.35,1.42,25.05.05.96-.7,1.79-1.66,1.83-.03,0-.06,0-.09,0ZM1559.24,1644.09c-.89,0-1.65-.68-1.74-1.58-.77-8.04-1.87-16.34-3.26-24.67-.16-.95.48-1.86,1.44-2.01.95-.17,1.86.48,2.01,1.44,1.41,8.41,2.51,16.79,3.29,24.92.09.96-.61,1.82-1.58,1.91-.06,0-.11,0-.17,0ZM1377.26,1617.84c-.9,0-1.66-.69-1.74-1.6-.83-9.34-1.73-17.7-2.68-24.84-.13-.96.54-1.84,1.5-1.97.96-.13,1.84.54,1.97,1.5.96,7.19,1.87,15.6,2.7,25,.08.96-.63,1.81-1.59,1.9-.05,0-.1,0-.16,0ZM1551.06,1594.77c-.79,0-1.51-.55-1.7-1.35-1.85-7.98-3.98-16.08-6.33-24.09-.27-.93.26-1.9,1.19-2.17.93-.27,1.9.26,2.17,1.19,2.37,8.08,4.52,16.25,6.39,24.29.22.94-.37,1.88-1.31,2.1-.13.03-.27.04-.4.04ZM1369.89,1568.31c-.75,0-1.45-.49-1.68-1.25-1.81-6.03-3.28-7.37-3.83-7.67-4.18-2.26-8.79-4.31-13.33-5.91-.91-.32-1.39-1.32-1.07-2.23.32-.91,1.32-1.39,2.23-1.07,4.71,1.66,9.5,3.79,13.84,6.13,2.12,1.15,3.87,4.24,5.52,9.74.28.93-.25,1.9-1.17,2.18-.17.05-.34.07-.5.07ZM1536.97,1546.78c-.72,0-1.39-.45-1.65-1.16-5.12-14.37-9.12-23.06-9.16-23.15-.41-.88-.02-1.92.86-2.32.88-.4,1.92-.02,2.32.86.04.09,4.09,8.91,9.28,23.44.32.91-.15,1.91-1.06,2.24-.19.07-.39.1-.59.1Z" fill="#2b2b2b"/><path d="M1382.14,1708.6c-.36,0-.73-.11-1.04-.34-.78-.58-.94-1.67-.36-2.45.07-.1,7.45-10.05,18.37-25.05.57-.78,1.66-.95,2.45-.38.78.57.95,1.66.38,2.45-10.93,15.01-18.32,24.97-18.39,25.07-.34.46-.87.71-1.41.71ZM1418.7,1658.38c-.35,0-.71-.11-1.02-.33-.79-.56-.96-1.66-.4-2.44,6.25-8.72,12.31-17.22,17.98-25.27.56-.79,1.65-.98,2.44-.42.79.56.98,1.65.42,2.44-5.68,8.06-11.74,16.57-18,25.3-.34.48-.88.73-1.42.73ZM1454.45,1607.65c-.34,0-.69-.1-.99-.31-.8-.55-1-1.64-.45-2.43,5.32-7.72,10.27-15.01,14.72-21.68.9-1.34,1.78-2.67,2.66-3.99.54-.8,1.62-1.03,2.43-.49.81.53,1.03,1.62.49,2.43-.88,1.32-1.77,2.66-2.66,4-4.46,6.68-9.42,13.99-14.75,21.72-.34.49-.89.76-1.44.76ZM1488.57,1555.84c-.31,0-.62-.08-.91-.26-.83-.5-1.08-1.58-.58-2.41,8.13-13.32,12.84-22.41,13.98-27,.23-.94,1.18-1.5,2.12-1.28.94.23,1.51,1.18,1.28,2.12-1.25,5.01-5.95,14.17-14.39,27.98-.33.54-.91.84-1.5.84Z" fill="#2b2b2b"/><path d="M1559.36,1699.57c-.64,0-1.26-.35-1.57-.97-.05-.11-5.49-10.9-15.56-26.66-.52-.81-.28-1.9.53-2.42.81-.52,1.9-.28,2.42.53,10.18,15.92,15.68,26.87,15.74,26.98.43.86.08,1.92-.78,2.35-.25.13-.52.19-.78.19ZM1526.1,1647.23c-.53,0-1.06-.24-1.41-.71-6.23-8.38-12.74-16.48-19.34-24.07-.63-.73-.56-1.83.17-2.47.73-.63,1.83-.56,2.47.17,6.66,7.66,13.22,15.83,19.51,24.28.58.78.42,1.87-.36,2.45-.31.23-.68.35-1.04.35ZM1485.36,1600.53c-.44,0-.88-.16-1.22-.49-5.28-5.11-10.7-9.98-16.09-14.5-2.35-1.97-4.74-3.91-7.12-5.77-.76-.6-.89-1.7-.3-2.46.6-.76,1.7-.89,2.46-.3,2.4,1.88,4.83,3.85,7.21,5.84,5.45,4.57,10.93,9.5,16.27,14.67.7.67.71,1.78.04,2.47-.34.36-.8.53-1.26.53ZM1436.51,1562.57c-.3,0-.61-.08-.89-.25-9.04-5.39-18.28-10.01-27.46-13.73-.9-.36-1.33-1.38-.96-2.28.36-.9,1.38-1.33,2.28-.96,9.35,3.79,18.75,8.48,27.94,13.97.83.5,1.1,1.57.61,2.4-.33.55-.91.85-1.5.85ZM1379.21,1539.66c-.12,0-.24-.01-.36-.04-6.34-1.32-12.79-2.26-19.16-2.79-.96-.08-1.68-.93-1.6-1.89s.94-1.67,1.89-1.6c6.52.54,13.11,1.5,19.59,2.85.95.2,1.55,1.12,1.36,2.07-.17.83-.9,1.39-1.71,1.39Z" fill="#2b2b2b"/><path d="M1249.68,1811.28c-.79,0-1.51-.54-1.7-1.34-5.37-22.29,7.35-29.8,7.89-30.11.84-.48,1.91-.18,2.39.66.47.84.18,1.9-.65,2.38-.46.27-10.95,6.66-6.22,26.25.23.94-.35,1.88-1.29,2.11-.14.03-.28.05-.41.05Z" fill="#2b2b2b"/><path d="M1129.89,1762.11s-.08,0-.12,0c-.96-.06-1.69-.9-1.63-1.86,0,0,.01-.22.06-.61.39-3.64,2.24-16.2,9.52-24.99.19-.24.42-.51.65-.77.64-.72,1.75-.79,2.47-.14.72.64.79,1.75.14,2.47-.19.21-.37.42-.55.64-6.85,8.27-8.5,20.75-8.75,23.17-.03.29-.04.45-.04.47-.06.92-.83,1.63-1.74,1.63Z" fill="#2b2b2b"/><path d="M830.83,574.92c-8.78,0-18.07-.76-27.96-2.25-7.78-1.17-15.47-3.14-23.33-5.22-16.96-4.5-36.48-10.18-53.42-20.7-18.35-11.4-30.99-27.18-35.58-44.44-.25-.93.31-1.89,1.24-2.14.93-.25,1.89.31,2.14,1.24,4.37,16.39,16.46,31.43,34.05,42.36,16.52,10.27,35.75,15.86,52.47,20.29,7.76,2.06,15.36,4,22.96,5.15,44.5,6.71,76.56-1.79,103.96-27.55.7-.66,1.81-.63,2.47.08.66.7.63,1.81-.08,2.47-22.14,20.82-47.16,30.71-78.92,30.71Z" fill="#2b2b2b"/></svg>