<?xml version="1.0" encoding="UTF-8"?><svg id="_レイヤー_27" xmlns="http://www.w3.org/2000/svg" width="1300" height="2000" viewBox="0 0 1300 2000"><path d="M671.89,776.02c-.55,0-1.11-.15-1.61-.47l-78.37-49.89c-1.4-.89-1.81-2.74-.92-4.14.89-1.4,2.74-1.81,4.14-.92l78.37,49.89c1.4.89,1.81,2.74.92,4.14-.57.9-1.54,1.39-2.53,1.39Z" fill="#2b2b2b"/><path d="M663.82,869.96c-.6,0-1.21-.18-1.74-.56l-86.92-61.85c-1.35-.96-1.67-2.83-.71-4.18s2.83-1.67,4.18-.71l86.92,61.85c1.35.96,1.67,2.83.71,4.18-.59.82-1.51,1.26-2.45,1.26Z" fill="#2b2b2b"/><path d="M484.22,1746.39c-1.45,0-2.72-1.05-2.96-2.52-.27-1.64.85-3.18,2.48-3.44,7.38-1.2,15.62-6.15,18.76-11.27,13.15-21.39,31.76-58.72,55.33-110.96l.34-.75c.22-.48.43-.96.65-1.43,37.25-82.77,72.5-170.11,72.85-170.99.62-1.54,2.37-2.28,3.9-1.66s2.28,2.37,1.66,3.9c-.35.87-35.65,88.32-72.96,171.23-.23.49-.44.95-.65,1.42l-.34.75c-23.67,52.45-42.4,90.01-55.68,111.62-4.01,6.54-13.86,12.59-22.91,14.06-.16.03-.32.04-.48.04Z" fill="#2b2b2b"/><path d="M669.49,1666.56s-.03,0-.04,0c-62.7-1.52-107.85-44.63-108.3-45.07-.69-.67-.71-1.78-.04-2.47.67-.69,1.78-.71,2.47-.04.44.43,44.66,42.6,105.95,44.08.97.02,1.73.83,1.71,1.79-.02.95-.8,1.71-1.75,1.71Z" fill="#2b2b2b"/><path d="M606.67,1810.66c-1.12,0-2.2-.63-2.71-1.72-3.51-7.4,1.31-24.93,2.79-29.22,15.52-45.08,37.34-78.56,60.44-114.01l1.1-1.7c26.88-41.28,54.68-83.96,72.11-149.13.06-.23.15-.45.26-.66l14.76-27.11c.79-1.46,2.6-2,4.06-1.22,1.46.79,2,2.6,1.22,4.06l-.07.14-14.53,26.68c-17.69,65.9-46.96,110.85-72.79,150.51l-1.11,1.7c-22.89,35.13-44.51,68.32-59.79,112.69-2.47,7.17-4.95,20.67-3.04,24.69.71,1.5.07,3.29-1.43,4-.41.2-.85.29-1.28.29Z" fill="#2b2b2b"/><path d="M570.02,1907.11c-2.77,0-5.57-.47-8.28-1.43-110.07-39.2-203.11-86.86-229-100.53-5.19-2.75-9.51-6.85-12.49-11.86-3.89-6.53-5.35-14.28-4.12-21.84,0,0,0,0,0,0,0-.06.02-.12.03-.18.33-1.83.75-3.49,1.29-5.05.05-.17.14-.42.23-.67.17-.49.36-1.03.54-1.57,4.57-13.93,21.2-41.92,38.92-43.41,11.49-.96,24.58,3.76,37.24,8.33,8.48,3.06,16.49,5.95,22.88,6.63,12.56,1.33,36.82-.46,53.27-2.83,3-.44,5.17-.79,7.02-1.13,2.53-.46,5.1.36,6.89,2.17,1.78,1.8,2.55,4.36,2.07,6.85-.18.91-.27,1.85-.27,2.79-.02,20.59,39.35,48.07,114.63,60.79,1.39.23,2.79.62,4.15,1.17.74.29,1.49.65,2.26,1.07,7.9,4.41,11.9,13.63,9.74,22.44-7.09,28.9-15.21,50.43-24.12,63.98,0,0,0,0,0,.01-1.31,1.97-2.61,3.74-3.86,5.28-4.73,5.79-11.78,8.98-19.03,8.98ZM322.09,1772.25s-.01.08-.02.12c-1.02,6.18.16,12.51,3.34,17.85,2.42,4.07,5.92,7.39,10.14,9.63,25.8,13.62,118.51,61.12,228.21,100.18,7.41,2.64,15.7.35,20.64-5.69,1.13-1.38,2.31-3,3.51-4.8,8.53-12.98,16.37-33.88,23.3-62.1,1.52-6.2-1.29-12.68-6.82-15.77-.53-.29-1.05-.54-1.58-.75-.96-.39-1.93-.66-2.9-.82-36.96-6.25-67.86-16.34-89.39-29.19-19.52-11.66-30.27-24.98-30.26-37.51,0-1.34.13-2.66.38-3.94.15-.75-.22-1.26-.45-1.49-.19-.19-.72-.63-1.54-.48-1.91.36-4.15.72-7.24,1.17-16.82,2.42-41.72,4.24-54.76,2.86-7.11-.76-15.45-3.77-24.28-6.95-12.06-4.35-24.52-8.84-34.71-7.99-14.07,1.18-29.44,26.22-33.73,39.31-.19.57-.39,1.14-.58,1.7-.08.21-.14.37-.19.53-.46,1.32-.8,2.66-1.07,4.15ZM590.41,1891.19h.01-.01Z" fill="#2b2b2b"/><path d="M588.58,1893.16c-.3,0-.6-.04-.9-.14-164.3-51.84-268.66-117.87-269.69-118.53-1.4-.89-1.81-2.75-.91-4.14s2.75-1.8,4.14-.91c1.03.66,104.77,66.28,268.27,117.87,1.58.5,2.46,2.18,1.96,3.76-.4,1.28-1.59,2.1-2.86,2.1Z" fill="#2b2b2b"/><path d="M592.63,338.76c-.26,0-.52-.06-.77-.18-.87-.43-1.22-1.48-.8-2.34.18-.37,4.55-9.12,12.44-14.5,2.64-1.81,5.43-3.05,8.29-3.66v.03c3.32-.98,17.62-2.77,29.51,9.74.67.7.64,1.81-.06,2.47-.7.67-1.81.64-2.47-.06-11.15-11.73-24.18-9.24-25.83-8.87l-.05.04-.35.08c-2.41.52-4.78,1.57-7.04,3.13-7.11,4.85-11.24,13.08-11.28,13.16-.31.62-.93.98-1.57.98Z" fill="#2b2b2b"/><path d="M796.78,1498.49c-8.41,0-15.01-.47-18.9-1.56-1.06-.29-1.87-1.14-2.12-2.21l-1.28-5.53-53.69-232.47c-.01-.06-.03-.12-.04-.18l-10.21-61.25c-.27-1.63.83-3.18,2.47-3.45,1.63-.28,3.18.83,3.45,2.47l10.19,61.16,54.53,236.09c18.16,3.44,84.8-2.79,135.02-11.06,12.09-1.98,22.48-4,30.05-5.82,36.76-8.86,72.4-21.16,95.83-29.91,7.88-2.94,13.73-5.25,16.76-6.46l-40.95-190.87c-.59-3.15-1.15-5.96-1.66-8.56-4.37-22.27-5.84-29.78,4.61-55.09,17.77-43.05,7.59-100.37,6.26-107.28-.17-.53-.96-2.62-1.63-4.3-.23-.6-.37-.96-.37-.97-.6-1.54.16-3.28,1.71-3.88,1.54-.6,3.28.16,3.88,1.71,0,0,.15.4.37.98,1.8,4.5,1.89,5.1,1.93,5.32,1.26,6.52,11.92,65.83-6.61,110.71-9.77,23.64-8.49,30.14-4.27,51.65.51,2.61,1.07,5.44,1.65,8.54l41.46,193.26c.3,1.42-.45,2.85-1.79,3.4-.07.03-7.39,3.04-19.26,7.47-23.59,8.81-59.48,21.19-96.53,30.12-7.71,1.86-18.25,3.9-30.48,5.91-35.66,5.87-89.93,12.09-120.4,12.09ZM1027.14,1076.54h.01-.01ZM1027.1,1076.37s0,.03.01.07c0-.02,0-.04-.01-.06,0,0,0,0,0,0Z" fill="#2b2b2b"/><path d="M547.45,914.59c-4.99,0-6.49-.95-7.41-1.53-1.4-.88-1.82-2.74-.94-4.14.88-1.4,2.74-1.82,4.14-.94,1.21.76,8.19,2.51,47.03-7.12,24.57-6.09,53.29-14.6,73.06-20.67,16.88-5.18,28.78-9.04,28.9-9.08,1.58-.52,3.27.35,3.78,1.92.51,1.58-.35,3.27-1.93,3.78-.12.04-12.07,3.92-29,9.11-78.04,23.95-106.51,28.65-117.64,28.65Z" fill="#2b2b2b"/><path d="M528.56,998.22c-1.29,0-2.52-.02-3.68-.07-7.38-.28-12.35-1.48-15.19-3.69-1.31-1.02-1.54-2.9-.53-4.21s2.9-1.54,4.21-.53c1.01.78,3.87,2.14,11.74,2.43,21.61.83,67.56-6.7,136.58-22.37,21.95-4.97,46.76-10.89,73.75-17.59,20.35-5.05,54.81-21.93,64.69-37.95.87-1.41,2.72-1.85,4.13-.98,1.41.87,1.85,2.72.98,4.13-11.09,17.99-47.45,35.44-68.35,40.62-27.03,6.71-51.88,12.64-73.87,17.62-66.85,15.18-110.93,22.58-134.45,22.58Z" fill="#2b2b2b"/><path d="M799.36,1465.36c-.95,0-1.74-.77-1.75-1.72-.01-.97.76-1.76,1.72-1.78,1.19-.02,120.37-2.25,234.08-42.9.91-.33,1.91.15,2.24,1.06.33.91-.15,1.91-1.06,2.24-114.27,40.86-234.01,43.09-235.2,43.11h-.03Z" fill="#2b2b2b"/><path d="M776.46,1491.73c-.06,0-.13,0-.19,0-5.6-.35-11.78-1.11-18.37-2.27-46.62-8.11-106.69-34.02-123.99-41.77-2.94-1.33-4.56-2.08-4.56-2.08-1.23-.57-1.92-1.9-1.69-3.23.43-2.48,42.83-248.83,49.13-347.7.11-1.65,1.54-2.9,3.18-2.8,1.65.11,2.91,1.53,2.8,3.18-5.99,94.07-44.49,320.81-48.81,346.07.66.3,1.47.67,2.41,1.09,17.13,7.67,76.63,33.34,122.57,41.33,6.37,1.12,12.33,1.86,17.71,2.19,1.65.1,2.91,1.53,2.81,3.18-.1,1.59-1.42,2.81-2.99,2.81Z" fill="#2b2b2b"/><path d="M972.89,1826.93c-.76,0-1.53-.29-2.11-.87-1.18-1.17-1.18-3.07-.02-4.24,5.18-5.22,9.01-14.25,8.55-20.14-1.96-25.11-8.85-66.26-20.5-122.29-.15-.79-.31-1.56-.47-2.31-18.54-88.88-44.08-190.62-44.33-191.64-.4-1.61.57-3.24,2.18-3.64,1.61-.4,3.24.57,3.64,2.18.26,1.02,25.82,102.88,44.39,191.87.16.78.33,1.57.48,2.36,11.69,56.25,18.63,97.64,20.6,123,.6,7.65-3.81,18.33-10.27,24.83-.59.59-1.36.89-2.13.89Z" fill="#2b2b2b"/><path d="M980.53,1681.01c-10.42,0-16.91-.87-17.11-.9-.96-.14-1.62-1.02-1.49-1.98.14-.96,1.02-1.62,1.98-1.49.61.09,61.17,8.19,111.61-26.66.79-.55,1.89-.35,2.43.44.55.8.35,1.89-.45,2.43-35.06,24.22-74.87,28.15-96.98,28.15Z" fill="#2b2b2b"/><path d="M1109.71,1806.92c-.49,0-.98-.12-1.44-.37-7.19-3.94-13.6-20.94-14.93-25.28-13.94-45.58-15.99-85.49-18.15-127.74l-.1-2.04c-2.52-49.17-5.13-100.02-29.37-163.02-.09-.23-.15-.46-.18-.7l-4.85-38.42c-.21-1.64.96-3.14,2.6-3.35,1.64-.2,3.14.96,3.35,2.6l4.8,38.06c24.46,63.75,27.21,117.29,29.63,164.53l.1,2.04c2.15,41.87,4.17,81.42,17.9,126.29,2.21,7.25,8.15,19.63,12.07,21.77,1.45.79,1.99,2.62,1.19,4.07-.55,1-1.57,1.56-2.63,1.56Z" fill="#2b2b2b"/><path d="M882.13,1957.94c-4.3,0-8.56-.87-12.52-2.57-7.02-3.03-12.77-8.46-16.19-15.29,0-.01-.01-.03-.02-.04-.01-.02-.02-.04-.03-.07h0c-.8-1.63-1.43-3.2-1.91-4.79-.09-.24-.16-.49-.23-.73-.16-.55-.33-1.09-.49-1.63-4.5-13.92-7.51-46.33,5.97-57.96,8.58-7.41,21.55-9.59,34.09-11.69,9.07-1.52,17.63-2.95,23.32-6.23,10.99-6.34,29.55-22.05,41.42-33.61,1.95-1.89,3.59-3.54,5.03-5.05,1.75-1.84,4.3-2.71,6.81-2.3,2.51.4,4.65,2.02,5.73,4.32.39.85.87,1.65,1.43,2.41,12.08,16.68,60.08,15.76,128.47-18.22,2.09-1.03,4.28-1.69,6.52-1.96h0c8.97-1.08,17.63,4.03,21.06,12.44,11.27,27.56,17.37,49.75,18.12,65.93,0,.05,0,.09,0,.14v.12c.1,2.25.09,4.37-.03,6.31-.58,10.31-7.66,19.21-17.63,22.16-94,27.69-184.82,39.93-228.47,45.82-6.16.83-11.47,1.55-15.88,2.18-1.52.22-3.04.33-4.56.33ZM858.78,1937.39c2.79,5.58,7.48,10.01,13.2,12.47,4.35,1.86,9.14,2.49,13.86,1.81,4.43-.63,9.76-1.35,15.93-2.18,43.5-5.86,134.01-18.07,227.57-45.63,7.54-2.23,12.9-8.96,13.34-16.75.1-1.76.11-3.69.02-5.77,0-.04,0-.09,0-.13v-.11c-.73-15.49-6.68-36.98-17.67-63.87-2.41-5.91-8.49-9.51-14.78-8.75h0c-1.56.19-3.09.65-4.57,1.38-33.55,16.68-64.49,26.69-89.46,28.95-22.64,2.05-39.17-2.41-46.52-12.57-.78-1.07-1.46-2.21-2.01-3.4-.32-.69-.93-.88-1.25-.94-.33-.05-.96-.06-1.51.51-1.49,1.56-3.19,3.27-5.19,5.21-12.14,11.81-31.2,27.92-42.61,34.51-6.63,3.82-15.71,5.34-25.33,6.95-11.72,1.96-23.85,4-31.16,10.31-10.7,9.24-8.4,38.52-4.17,51.62.19.6.36,1.17.53,1.74,0,.03.02.07.03.1.03.11.07.22.11.34.02.06.04.12.06.18.39,1.3.9,2.59,1.57,3.94,0,0,0,.01,0,.02,0,.02.02.03.02.05h0ZM1109.87,1805.51h.01-.01Z" fill="#2b2b2b"/><path d="M856.52,1941.51c-1.63,0-2.97-1.31-3-2.95-.03-1.66,1.29-3.02,2.95-3.05,1.22-.02,123.67-2.69,286.17-57.08,1.57-.52,3.27.32,3.8,1.89.53,1.57-.32,3.27-1.89,3.8-163.44,54.71-286.75,57.37-287.97,57.39h-.05Z" fill="#2b2b2b"/><path d="M749.81,1462.97s-.06,0-.08,0c-13.55-.65-97.04-35.03-100.59-36.49-.89-.37-1.32-1.39-.95-2.29.37-.89,1.39-1.32,2.28-.95,29.86,12.32,89.06,35.74,99.42,36.23.97.05,1.71.87,1.66,1.83-.04.94-.82,1.67-1.75,1.67Z" fill="#2b2b2b"/><path d="M664.13,884.95s-.06,0-.09,0c-1.66-.05-2.96-1.43-2.91-3.08.13-4.62.31-9.53.56-15,1.3-28.69,4.04-60.35,8.13-94.1,6.93-57.01,15.45-100.96,15.54-101.39,0-.05.02-.09.03-.14.51-2.11,12.96-51.93,43.74-75.7,1.31-1.01,3.2-.77,4.21.54,1.01,1.31.77,3.2-.54,4.21-28.63,22.1-41.05,70.27-41.56,72.31-.4,2.06-8.69,45.22-15.46,100.89-4.08,33.6-6.8,65.11-8.1,93.65-.24,5.44-.43,10.31-.55,14.9-.05,1.63-1.38,2.92-3,2.92Z" fill="#2b2b2b"/><path d="M773.16,1106.87c-32.03,0-63.84-2.15-90.34-8.12-1.27-.28-2.56-.63-3.94-1.07-11.66-3.72-21.94-12.14-29.73-24.34-10.76-16.8-4.12-40.34,2.91-65.26,3.09-10.97,6.29-22.31,7.94-33.09.25-1.64,1.78-2.76,3.42-2.51,1.64.25,2.76,1.78,2.51,3.42-1.7,11.15-4.95,22.67-8.09,33.82-6.65,23.59-12.94,45.87-3.63,60.4,7.03,11.01,16.2,18.57,26.5,21.86,1.2.38,2.32.69,3.42.93,99.51,22.44,285.72-7.13,343.27-24.68,1.68-.52,3.28-1.03,4.77-1.53,2.93-.99,5.47-1.95,7.53-2.85,16.76-7.35,19.8-35.17,20.12-51.11.45-22.3-3.83-48.86-10.39-64.6-.99-2.36-2.16-4.98-3.52-8-10.56-23.49-30.23-67.22-40.5-168.52-1.46-14.4-3.92-28.46-7.3-41.79-22.24-87.45-50.32-138.91-85.82-157.33-2.98-1.54-6.18-2.62-9.51-3.19-2.75-.48-5.5-.61-8.21-.4-70.56,5.23-145.92,46.4-146.67,46.81-.13.07-.27.13-.4.19-4.29,1.59-7.76,2.32-10.59,2.19-3.93-.14-6-1.93-7.04-3.41-2.03-2.88-2.14-7.27-.32-13.05.5-1.58,2.18-2.46,3.76-1.96,1.58.5,2.46,2.18,1.96,3.76-1.72,5.46-.82,7.34-.5,7.79.14.2.57.8,2.37.87,1.97.08,4.68-.5,8.06-1.75,4.46-2.42,78.86-42.24,148.91-47.43,3.19-.25,6.45-.09,9.69.47,3.93.67,7.71,1.94,11.24,3.77,37.12,19.26,66.19,71.98,88.88,161.18,3.46,13.61,5.97,27.96,7.46,42.66,10.17,100.34,29.57,143.49,40,166.67,1.38,3.06,2.57,5.71,3.59,8.15,6.85,16.42,11.32,43.98,10.86,67.03-.6,29.98-9.02,50.04-23.72,56.49-2.22.97-4.91,1.99-8.01,3.03-1.54.52-3.18,1.04-4.93,1.58-28.6,8.72-88.89,20.65-159.14,27.66-28.46,2.84-62.79,5.27-96.87,5.27Z" fill="#2b2b2b"/><path d="M864.55,929.08c-19.17,0-43.43-5.22-62.65-10.36-18.92-5.05-39.28-11.72-58.9-19.29-20.51-7.91-38.63-16.23-51.03-23.42-6.72-3.9-11.67-7.4-14.72-10.43-.84-.83-1.12-2.09-.7-3.2l77.4-204.37c.59-1.55,2.32-2.33,3.87-1.74,1.55.59,2.33,2.32,1.74,3.87l-76.68,202.47c2.76,2.38,6.82,5.13,12.1,8.2,12.14,7.04,29.96,15.21,50.18,23.01,19.42,7.49,39.57,14.09,58.29,19.09,33.94,9.07,60.44,12.18,75.05,8.83,4.52-21.9,47.08-233.16,20.33-283.24-.78-1.46-.23-3.28,1.23-4.06,1.46-.78,3.28-.23,4.06,1.23,29.11,54.48-18.1,279.57-20.13,289.13-.23,1.09-1.04,1.96-2.11,2.26-4.93,1.4-10.84,2-17.33,2Z" fill="#2b2b2b"/><path d="M862.76,900.18c-.09,0-.18,0-.27-.02-.84-.13-84.35-13.16-148.42-47.29-.85-.46-1.18-1.51-.72-2.37.45-.85,1.51-1.18,2.37-.72,63.54,33.84,146.48,46.79,147.31,46.92.96.15,1.61,1.04,1.47,1.99-.13.87-.88,1.49-1.73,1.49Z" fill="#2b2b2b"/><path d="M733.54,638.83c-13.59,0-18.97-9.23-19.04-9.35-.81-1.45-.29-3.27,1.15-4.08,1.44-.81,3.26-.3,4.07,1.13.32.54,7.33,11.87,28.25,2.88,4.87-2.09,11.61-5.71,19.41-9.89,30.04-16.12,80.31-43.1,127.36-38.31,1.65.17,2.85,1.64,2.68,3.29s-1.64,2.85-3.29,2.68c-45.22-4.6-94.48,21.83-123.91,37.63-7.93,4.25-14.78,7.93-19.88,10.12-6.62,2.84-12.18,3.91-16.8,3.91Z" fill="#2b2b2b"/><path d="M652.14,605.16c-32.86,0-55.31-15.84-68.97-30.35-8.26-8.77-15.49-19.41-20.89-30.77-1.63-3.44-3.08-6.91-4.32-10.31-1.36-3.77-2.45-7.43-3.24-10.88-2.34-10.1-8.34-18.77-16.91-24.4-.08-.05-.16-.11-.23-.17l-25.78-20.77c-.66-.53-1.06-1.32-1.11-2.17-.05-.85.27-1.67.86-2.28,18.02-18.22,32.17-45.62,23.18-65.75-.87-1.94-2.7-4.88-4.82-8.29-4.51-7.25-10.12-16.28-11.96-24.29-.37-1.61.64-3.22,2.25-3.6,1.61-.37,3.22.64,3.6,2.25,1.62,7.03,6.94,15.59,11.21,22.46,2.23,3.59,4.16,6.69,5.2,9.01,8.64,19.31-.03,46.53-22.08,70.02l23.11,18.62c9.8,6.49,16.66,16.42,19.34,27.99.74,3.22,1.76,6.64,3.04,10.19,1.17,3.22,2.55,6.51,4.1,9.78,5.14,10.8,11.99,20.91,19.84,29.23,14.98,15.92,41.26,33.54,81.38,27.07,17.92-2.37,34.62-6.9,49.7-13.5.79-.34,1.55-.69,2.32-1.03,58.54-26.69,75.33-77.08,75.49-77.59.51-1.58,2.2-2.45,3.77-1.94,1.58.51,2.44,2.2,1.94,3.77-.7,2.17-17.79,53.43-78.72,81.22-.8.36-1.6.72-2.4,1.07-15.59,6.82-32.82,11.5-51.22,13.93-6.19,1-12.07,1.45-17.65,1.45Z" fill="#2b2b2b"/><path d="M775.87,422.01c-.07,0-.14,0-.21,0-1.38-.09-2.51-1.11-2.75-2.47-1.73-9.8-11.77-30.26-49.8-72.1-50.77-55.9-122.57-118.32-123.29-118.95-1.25-1.09-1.39-2.98-.3-4.23,1.09-1.25,2.98-1.39,4.23-.3.72.63,72.78,63.28,123.79,119.44,25.25,27.78,41.35,49.59,48.06,65.06,3.63-14.89,9.49-45.3,7.03-78.73-3.7-50.13-27.08-114.49-117.45-136.45-1.61-.39-2.6-2.01-2.21-3.62.39-1.61,2.02-2.6,3.62-2.21,93.89,22.81,118.18,89.72,122.02,141.84,3.55,48.17-9.77,90.22-9.91,90.64-.4,1.25-1.56,2.08-2.85,2.08Z" fill="#2b2b2b"/><path d="M800.81,492.88c-1.56,0-2.88-1.21-2.99-2.79-.11-1.65,1.14-3.08,2.79-3.2,8.59-.59,17.06-4.78,25.19-12.47l.67-.64c11.25-10.88,19.8-26.51,24.99-37.7.66-1.43,1.3-2.89,1.9-4.34,6.91-16.63,10.04-34.15,9.31-52.06-1.62-39.42-13.21-60.11-34.45-61.48-19.07-1.22-39.31,13.49-39.52,13.64-1.34.98-3.21.69-4.19-.64-.98-1.33-.7-3.21.64-4.19.9-.66,22.24-16.17,43.46-14.79,17.06,1.1,37.86,13.65,40.06,67.22.77,18.79-2.52,37.16-9.76,54.6-.63,1.52-1.31,3.06-2,4.56-5.4,11.65-14.35,27.97-26.29,39.51l-.69.66c-9.18,8.68-18.9,13.42-28.91,14.11-.07,0-.14,0-.21,0Z" fill="#2b2b2b"/><path d="M813.69,459.16c-.39,0-.78-.13-1.11-.39-.75-.61-.86-1.71-.25-2.46,31.14-38.16,31.15-71.53,29.71-84.11-1.39-12.17-5.82-21.94-12.14-26.83-16.51-12.76-35.37,6.73-36.17,7.56-.67.7-1.77.73-2.47.06-.7-.67-.73-1.77-.07-2.47.22-.23,21.83-22.63,40.85-7.92,7.06,5.46,11.97,16.1,13.48,29.2,1.49,13.02,1.51,47.53-30.48,86.72-.35.42-.85.64-1.36.64Z" fill="#2b2b2b"/><path d="M737.08,616.59c-1.35,0-2.58-.92-2.91-2.3l-.29-1.2c-.75-3.16-1.46-6.15-3.12-9.75-.63-1.35-1.33-2.66-2.15-4-2.12-3.52-4.95-7.23-8.68-11.36h0c-.06-.07-.13-.15-.18-.22-.91-1.18-.82-2.87.26-3.95,1.17-1.17,3.07-1.17,4.24,0,.07.07.14.15.21.24,3.95,4.39,6.99,8.38,9.28,12.19.93,1.52,1.73,3.03,2.46,4.59,1.91,4.15,2.73,7.57,3.51,10.88l.28,1.18c.39,1.61-.6,3.23-2.21,3.62-.24.06-.47.08-.71.08Z" fill="#2b2b2b"/><path d="M540.91,389.88c-.53,0-1.06-.14-1.54-.43-7.07-4.23-13.84-8.64-20.13-13.1-39.7-28.24-61.39-60.02-64.48-94.47-4.09-45.6,25.7-79.95,30.87-85.54.67-4.68,4.35-23.74,22.07-47.46,18.28-24.47,55.74-58.77,130.38-83.26,88.66-29.08,158.29-31.2,212.87-6.48,49.22,22.29,86.89,65.84,118.57,137.08l.22.52c.66,1.52-.03,3.29-1.55,3.95-1.52.66-3.29-.03-3.95-1.55l-.21-.5c-31.04-69.8-67.76-112.39-115.56-134.04-53.14-24.07-121.35-21.87-208.52,6.72-73.16,23.99-109.68,57.37-127.45,81.15-19.02,25.46-21.02,45.29-21.04,45.49-.06.69-.36,1.33-.84,1.82-.34.35-34.05,35.55-29.89,81.62,2.95,32.6,23.8,62.9,61.98,90.06,4.27,3.03,8.77,6.04,13.44,8.99-5.4-21.96-19.64-87.36-5.74-116.06.44-.9,1.3-1.53,2.29-1.66.99-.14,1.99.23,2.65.98.29.32,29.27,32.73,70.63,56.89.27.16.48.29.7.42,42.52,24.65,82.14,31.89,117.8,21.53.05-.02.11-.03.16-.04.12-.03.24-.06.36-.1l.31-.09c1.6-.44,3.25.48,3.7,2.08.45,1.6-.48,3.25-2.08,3.7l-.22.06c-.21.06-.41.12-.63.17-37.28,10.81-78.45,3.37-122.38-22.1-.24-.14-.52-.3-.79-.47-34.14-19.94-60.02-45.43-68.8-54.59-11.97,34.73,9.45,114.1,9.68,114.94.32,1.18-.1,2.44-1.08,3.18-.53.4-1.17.61-1.81.61Z" fill="#2b2b2b"/><path d="M903.28,569.33c-.87,0-1.73-.38-2.33-1.11-.73-.9-18.02-22.43-23.61-54.94-.02-.1-.03-.19-.04-.29-.11-1.58-.26-3.16-.41-4.73-.89-9.56-1.82-19.45,4.85-28.21,6.88-9.05,15.27-18.5,24.98-29.44,9.13-10.28,19.47-21.93,30.11-35.08,1.04-1.29,2.93-1.49,4.22-.45,1.29,1.04,1.49,2.93.45,4.22-10.72,13.26-21.12,24.96-30.29,35.29-9.63,10.85-17.95,20.22-24.69,29.08-5.25,6.91-4.47,15.22-3.65,24.02.15,1.56.29,3.14.41,4.71,5.34,30.82,22.16,51.82,22.33,52.03,1.04,1.29.85,3.17-.44,4.22-.56.45-1.23.67-1.89.67Z" fill="#2b2b2b"/><path d="M879.31,515.84c-.87,0-1.73-.38-2.32-1.1-21.13-25.8-48.56-35.25-48.83-35.34-1.57-.53-2.42-2.23-1.89-3.8.53-1.57,2.23-2.42,3.8-1.89,1.19.4,29.3,10.04,51.57,37.23,1.05,1.28.86,3.17-.42,4.22-.56.46-1.23.68-1.9.68Z" fill="#2b2b2b"/><path d="M1059.79,501.83c-.26,0-.51-.03-.77-.1-.65-.17-65.69-17.99-121.85-82.57-14.2-16.3-26.82-34.45-37.53-53.94-1.97-3.59-3.89-7.24-5.69-10.86-9.32-18.62-13.83-39.09-13.02-59.22.02-.62.06-1.24.09-1.86l.04-.76c.93-15.65,7.33-30.65,18.01-42.25h0c3.88-4.22,8.27-7.95,13.05-11.07,16.22-10.61,35.13-24.11,52.42-43.75,9.56-10.87,17.93-22.85,24.86-35.61.54-1,1.6-1.62,2.74-1.57,1.14.04,2.15.72,2.62,1.75.86,1.88,20.14,44.85,9.77,86.84,10.37-3.15,34.44-9.73,60.28-11.78,46.17-3.66,77.05,8.75,89.32,35.86.4.88.35,1.9-.14,2.74-.48.84-1.34,1.39-2.31,1.48-13.08,1.28-47.08,7.41-51.07,20.44,5.53,10.29,46.6,88.1,51.46,135.52.11,1.07-.36,2.12-1.24,2.75-.88.63-2.03.73-3,.28-.24-.11-23.95-11.11-48.51-20.7-36.64-14.31-47.94-14.85-51.27-14.26,2.07,6.23,7.73,23.81,12.21,42.47,7.77,32.35,8.35,51.69,1.78,59.13-.58.65-1.4,1.01-2.25,1.01ZM991.57,168.2c-6.5,11.11-14.06,21.59-22.53,31.22-17.77,20.17-37.09,33.97-53.64,44.8-4.36,2.85-8.37,6.26-11.92,10.11,0,0,0,0,0,0-9.75,10.59-15.59,24.27-16.44,38.52l-.04.75c-.03.58-.06,1.17-.09,1.76-.77,19.13,3.52,38.59,12.39,56.31,1.77,3.55,3.65,7.13,5.59,10.65,10.5,19.12,22.88,36.91,36.79,52.89,49.42,56.81,105.67,76.6,116.87,80.11,7.16-13.52-6.32-65.57-16.99-96.56-.34-.98-.15-2.06.51-2.87,3.41-4.21,13.1-6.09,59.07,11.83,18.18,7.09,35.94,14.96,44.28,18.73-7.48-49.18-50.19-128.19-50.64-129.01-.33-.61-.44-1.31-.31-1.98,3.33-17.75,39.15-24.05,52.31-25.77-30.33-54.59-144.48-15.87-145.66-15.46-1.07.37-2.26.11-3.07-.68-.81-.79-1.11-1.96-.78-3.05,10.22-32.87-.68-68.7-5.72-82.32ZM901.28,252.31h.01-.01Z" fill="#2b2b2b"/><path d="M903.05,366.2c-.4,0-.79-.13-1.12-.41-.24-.2-.49-.42-.73-.63l-.08-.07c-25.73-22.38-37.89-44.34-36.13-65.27,2.2-26.1,25.47-42.98,35.38-49.02,2.55-1.55,4.15-2.35,4.21-2.38.86-.43,1.91-.08,2.34.79.43.87.08,1.92-.79,2.35-.02,0-1.55.77-3.95,2.23-9.45,5.76-31.65,21.82-33.71,46.32-1.66,19.76,10.09,40.73,34.94,62.33l.09.08c.22.19.45.39.67.58.74.62.84,1.72.22,2.46-.35.41-.84.63-1.34.63Z" fill="#2b2b2b"/><path d="M463.14,786.08c-11.04,0-30.07-13.71-40.42-23.17-4.53-4.13-3.6-26.83-3.2-33.69.41-7.12,4.21-13.69,10.19-17.58l15.8-10.12c1.39-.9,3.25-.5,4.15.89.9,1.39.5,3.25-.89,4.15l-.66.43-15.14,9.69c-4.36,2.84-7.16,7.66-7.45,12.88-.81,14.09.05,26.83,1.36,29.01,13.49,12.3,29.92,21.93,36.7,21.49,4.81-.31,6.27-1.43,6.56-1.71.43-1.34,1.76-2.22,3.21-2.05,1.65.2,2.82,1.69,2.62,3.34-.16,1.33-1.5,5.73-12,6.41-.26.02-.54.03-.81.03ZM469.99,778.93s0,0,0,0c0,0,0,0,0,0ZM469.99,778.93s0,0,0,0c0,0,0,0,0,0ZM469.99,778.92h0s0,0,0,0ZM426.9,758.64h.01-.01ZM426.76,758.48s0,0,0,0c0,0,0,0,0,0Z" fill="#2b2b2b"/><path d="M466.17,758.05c-.97,0-1.92-.47-2.5-1.34-1.32-1.99-6.36-5.04-9.51-6.57-.85-.41-1.45-1.2-1.63-2.13-.18-.93.09-1.88.72-2.58,2.17-2.39,1.11-7.25.52-8.92-.45-1.26,0-2.67,1.08-3.45,5.81-4.16,13.05-6.29,13.35-6.38,1.59-.46,3.26.45,3.72,2.04s-.45,3.25-2.04,3.72h0c-.06.02-5.2,1.54-9.82,4.37.5,2.35.91,6.09-.39,9.46,2.94,1.65,7.15,4.35,9,7.12.92,1.38.55,3.24-.83,4.16-.51.34-1.09.5-1.66.5Z" fill="#2b2b2b"/><path d="M479.01,780.68c-2.22,0-4.28-.21-6.21-.64-6.37-1.42-10.78-5.1-13.11-10.95-6.24-15.52,20.66-27.26,35.11-33.57,2.81-1.23,6-2.62,6.65-3.12,3.71-3.12,16.02-14.31,16.15-14.42,1.23-1.12,3.12-1.02,4.24.2,1.11,1.23,1.02,3.12-.2,4.24-.51.46-12.52,11.37-16.34,14.59-1.13.95-3.3,1.91-8.09,4.01-10.78,4.7-36.01,15.72-31.94,25.84,1.58,3.96,4.47,6.35,8.84,7.32,2.45.54,5.38.64,8.7.28h.14c.09-.03.19-.04.28-.05,1.84-.21,3.47-.51,4.79-.75.52-.1.98-.18,1.36-.24,3.91-.62,23.99-6.88,31.4-9.24,1.58-.5,3.27.37,3.77,1.95.5,1.58-.37,3.27-1.95,3.77-2.77.88-27.21,8.65-32.26,9.45-.34.06-.76.13-1.24.22-1.34.25-3.17.58-5.25.81-.03,0-.07,0-.1,0-.16.02-.26.03-.36.04-1.52.17-2.98.25-4.36.25Z" fill="#2b2b2b"/><path d="M551.59,787.54c-9.86,0-22.94-3.06-35.21-15.57-1.16-1.18-1.14-3.08.04-4.24,1.18-1.16,3.08-1.14,4.24.04,20.89,21.3,43.46,11.89,44.41,11.48,1.52-.66,3.28.04,3.94,1.55.66,1.52-.03,3.28-1.54,3.94-.13.06-6.57,2.79-15.89,2.79Z" fill="#2b2b2b"/><path d="M465.4,802.12c-3.55,0-7.12-.3-10.52-.93-2.6-.47-5.13-1.16-7.49-2.04-2.23-.82-4.41-2.09-6.46-3.75-1.59-1.26-3.13-2.78-4.71-4.63-9.49-11.21-14.19-28.57-14.39-29.3-.43-1.6.52-3.24,2.13-3.67,1.6-.43,3.24.52,3.67,2.12.04.17,4.56,16.8,13.17,26.96,1.31,1.54,2.59,2.8,3.89,3.83,1.57,1.27,3.17,2.21,4.79,2.8,2.04.76,4.22,1.35,6.49,1.76,14.21,2.66,28.92-1.29,31.9-5.24,1.79-2.38,1.23-4.69.73-5.85-.94-2.22-2.95-3.69-4.9-3.57-.03,0-.05,0-.08,0l-.23.02c-1.65.15-3.1-1.09-3.24-2.74s1.09-3.1,2.74-3.24c.2-.02.36-.04.52-.04,4.48-.25,8.77,2.66,10.7,7.21,1.69,3.94,1.15,8.37-1.46,11.82-3.89,5.15-15.44,8.46-27.26,8.46ZM483.54,780.63h0,0ZM483.54,780.63h0,0Z" fill="#2b2b2b"/><path d="M478.66,804.31c-10.06,0-20.52-2.12-23.93-2.87-1.62-.36-2.64-1.96-2.28-3.58.36-1.62,1.96-2.64,3.58-2.28,13.99,3.09,35.8,4.59,38.19-2.01.22-.6.4-1.2.54-1.82.41-1.8.28-3.22-.39-4.19-.99-1.43-3.02-1.73-3.04-1.73-1.63-.22-2.79-1.72-2.59-3.35s1.67-2.8,3.3-2.61c.47.05,4.67.63,7.2,4.18,1.71,2.41,2.17,5.46,1.36,9.04-.21.88-.45,1.69-.75,2.5-2.46,6.79-11.65,8.7-21.2,8.7Z" fill="#2b2b2b"/><path d="M593.52,726.13c-.5,0-1-.12-1.47-.39-.93-.52-93.36-52.46-113.42-55.66-20.02-3.2-89.74,11.79-90.44,11.94-2.23.53-8.69,2.84-11.08,7.01-1.08,1.88-1.25,3.98-.52,6.4,2.56,8.41,10.88,11.2,26.97,9.05,6.44-.86,19.09-1.96,30.26-2.93,4.2-.37,8.25-.72,11.76-1.04l1.26-.11c3.05-.29,5.76-.54,7.61-.77,5.71-.69,19.15,3.82,20.67,4.33,1.57.54,2.41,2.24,1.87,3.81-.53,1.57-2.24,2.41-3.81,1.87-5.22-1.78-14.73-4.46-18.01-4.06-1.93.23-4.68.49-7.81.79l-.59.05c-.23.02-.46.04-.69.06-3.48.32-7.54.67-11.75,1.04-11.1.96-23.68,2.06-29.98,2.9-7.74,1.04-28.32,3.79-33.51-13.25-1.23-4.05-.87-7.8,1.07-11.16,4.21-7.28,14.52-9.75,14.96-9.85,2.95-.64,71.57-15.38,92.7-12.01,21.11,3.37,111.58,54.2,115.42,56.36,1.44.81,1.96,2.64,1.14,4.09-.55.98-1.57,1.53-2.62,1.53Z" fill="#2b2b2b"/><path d="M548.97,815.26c-8.84,0-17.99-1.83-27.26-5.51-15.03-5.96-24.97-14.55-25.38-14.91-1.25-1.09-1.38-2.98-.29-4.23,1.09-1.25,2.98-1.38,4.23-.29.48.42,38.16,32.49,75.18,12.16,1.45-.79,3.28-.27,4.07,1.19.8,1.45.27,3.28-1.19,4.07-9.13,5.01-19.03,7.52-29.36,7.52Z" fill="#2b2b2b"/><path d="M462.28,752.19c-.98,0-1.94-.48-2.51-1.36-.91-1.39-.52-3.25.87-4.15l8.46-5.53c1.39-.91,3.25-.52,4.15.87.91,1.39.52,3.25-.87,4.15l-8.46,5.53c-.51.33-1.08.49-1.64.49Z" fill="#2b2b2b"/><path d="M351.5,850.46c-.77,0-1.54-.3-2.13-.89-88.58-89.3-194.99-196.67-198.91-201.06-.72-.79-1.41-1.71-2.08-2.79-4.7-7.77-3.39-17.8,3.16-24.42l6.8-7.01c1.15-1.19,3.05-1.22,4.24-.07,1.19,1.15,1.22,3.05.07,4.24l-6.82,7.04c-4.64,4.68-5.59,11.7-2.33,17.09.45.74.92,1.36,1.41,1.9,3.01,3.38,73.58,74.7,198.72,200.86,1.17,1.18,1.16,3.08-.02,4.24-.59.58-1.35.87-2.11.87Z" fill="#2b2b2b"/><path d="M397.42,845.8c-.45,0-.9-.17-1.24-.52l-208-209.73c-.39-.4-.57-.96-.48-1.51.09-.55.44-1.03.94-1.28l46.71-23.57c.67-.34,1.48-.21,2.01.31l237.16,232.08c.69.68.7,1.78.03,2.47-.68.69-1.78.7-2.47.03l-236.27-231.2-43.44,21.92,206.3,208.02c.68.69.68,1.79-.01,2.47-.34.34-.79.51-1.23.51Z" fill="#2b2b2b"/><path d="M429.16,877.8c-.45,0-.9-.17-1.24-.52l-8.1-8.18c-.68-.69-.68-1.79.01-2.47.69-.68,1.79-.67,2.47.01l8.1,8.18c.68.69.68,1.79-.01,2.47-.34.34-.79.51-1.23.51Z" fill="#2b2b2b"/><path d="M412.16,880.83c-.77,0-1.54-.29-2.12-.88-87.28-87.43-235.2-235.86-245.25-247.61-5.57-6.53-7.73-11.94-6.6-16.55,1.1-4.6,5.29-6.81,7.79-7.46l48.78-19.42c5.73-2.28,12.1-2.47,17.96-.54,5.23,1.72,8.58,3.38,10.48,4.47,1.08.62,2.07,1.38,2.93,2.24,10.72,10.55,120.2,118.38,194.5,191.61,1.45,1.41,2.89,2.84,4.31,4.24,34.9,34.38,58.78,57.9,61.82,60.91,4.21,4.16,7.14,8.9,8.73,14.09.61,2.01.89,4.07.82,6.12-.05,1.66-1.43,2.98-3.09,2.91-1.66-.05-2.96-1.44-2.91-3.09.04-1.4-.15-2.81-.57-4.19-1.29-4.23-3.71-8.12-7.2-11.57-3.04-3.01-26.91-26.53-61.81-60.91-1.42-1.4-2.86-2.81-4.31-4.23-74.31-73.23-183.79-181.06-194.53-191.63-.51-.51-1.08-.94-1.7-1.3-1.35-.78-4.37-2.32-9.36-3.97-4.52-1.49-9.45-1.34-13.87.42l-48.97,19.5c-.15.06-.3.1-.45.14,0,0-2.97.76-3.53,3.08-.36,1.46-.13,4.83,5.33,11.23,9.91,11.59,157.72,159.9,244.94,247.27,1.17,1.17,1.17,3.07,0,4.24-.59.58-1.35.88-2.12.88Z" fill="#2b2b2b"/><path d="M515.61,998.68c-100.7,0-113.17-36.45-113.66-38.04-.49-1.58.4-3.26,1.98-3.75,1.58-.49,3.26.4,3.75,1.98.02.06,3.13,8.94,18.86,17.51,14.76,8.04,43.81,17.38,98.37,16.21,1.67-.06,3.03,1.28,3.06,2.93s-1.28,3.03-2.93,3.06c-3.22.07-6.37.1-9.43.1Z" fill="#2b2b2b"/><path d="M543.92,923.11c-1.29,0-2.48-.83-2.87-2.13-.88-2.9-1.97-5.85-3.24-8.76-5.49-12.54-14.64-25.15-27.21-37.49-12.82-12.58-25.4-21.19-30.78-24.86l-1.07-.74c-.41-.29-1.89-1.11-6.63-2.62-12.79-4.1-38.32-9.82-57.49-13.9-3.5-.74-6.93.07-9.64,2.29-2.77,2.26-4.41,5.67-4.39,9.13.02,2.26.75,4.49,2.13,6.42,3.23,4.58,8.48,8.65,15.62,12.11,1.4.68,2.74,1.31,4.03,1.92,13.01,6.1,19.9,8.24,23.38,8.97,1.62.34,2.66,1.93,2.32,3.55-.34,1.62-1.93,2.66-3.55,2.32-5.52-1.15-13.84-4.32-24.71-9.41-1.31-.62-2.67-1.26-4.09-1.95-8.06-3.91-14.08-8.63-17.9-14.04-2.08-2.93-3.2-6.34-3.23-9.84-.03-5.26,2.43-10.42,6.59-13.82,4.15-3.39,9.36-4.63,14.68-3.51,19.3,4.11,45.04,9.88,58.07,14.06,5.47,1.74,7.3,2.77,8.21,3.4l1.05.72c5.5,3.76,18.39,12.58,31.59,25.53,13.12,12.88,22.71,26.13,28.51,39.37,1.36,3.12,2.54,6.29,3.49,9.42.48,1.58-.41,3.26-2,3.74-.29.09-.58.13-.87.13Z" fill="#2b2b2b"/><path d="M448.62,879.8c-1.12,0-2.47-.15-4.09-.48-1.48-.31-2.5-1.67-2.38-3.17.12-1.51,1.34-2.69,2.84-2.76l5.84-.29c.97-.05,1.9.37,2.5,1.13.6.76.8,1.76.53,2.69-.41,1.42-1.69,2.88-5.25,2.88Z" fill="#2b2b2b"/><path d="M412.67,925.96c-.34,0-.68-.06-1.02-.18l-40.43-14.54c-.25-.09-.48-.21-.69-.36-1.35-.93-2.7-1.93-4.02-2.97-32.37-25.78-18.3-60.57-18.15-60.92.37-.89,1.16-1.55,2.1-1.77.95-.22,1.94.04,2.66.68,7.77,6.9,24.09,16.97,36.41,24.21,6.19,3.63,13.26,5.36,20.44,5l35.03-1.73c1.66-.11,3.06,1.19,3.15,2.85.08,1.65-1.19,3.06-2.85,3.14l-35.03,1.73c-8.34.41-16.56-1.6-23.76-5.82-10.96-6.43-25.06-15.1-33.88-22.01-2.38,9.05-5.3,31.67,17.63,49.93,1.11.87,2.25,1.72,3.39,2.52l40.06,14.41c1.56.56,2.37,2.28,1.81,3.84-.44,1.22-1.59,1.99-2.82,1.99Z" fill="#2b2b2b"/><path d="M398.79,943.63c-.17,0-.35-.02-.53-.05-7.58-1.34-14.04-4.14-19.22-8.32-13.97-11.23-14.13-28.43-14.13-29.16,0-1.66,1.34-3,3-3s3,1.34,3,3c0,.22.23,15.11,11.9,24.49,4.38,3.54,9.93,5.92,16.5,7.08,1.63.29,2.72,1.84,2.43,3.48-.26,1.46-1.52,2.48-2.95,2.48ZM370.92,906.11h.01-.01Z" fill="#2b2b2b"/><path d="M428.18,969.33s-.08,0-.12,0c-8.48-.33-16.71-2.84-24.45-7.46-16.54-9.86-25.27-25.88-25.64-26.56-.78-1.46-.24-3.28,1.22-4.06,1.46-.78,3.28-.24,4.06,1.22.13.24,8.4,15.29,23.42,24.25,6.88,4.1,14.15,6.33,21.61,6.62,1.66.06,2.95,1.46,2.88,3.11-.06,1.62-1.39,2.88-3,2.88Z" fill="#2b2b2b"/><path d="M586.57,574.64c-1.29,0-2.48-.83-2.87-2.13-.48-1.58.42-3.26,2-3.74,14.35-4.35,22.31-11.3,21.82-19.08-.52-8.37-10.35-16.56-22.38-18.63-5.57-.97-13.99-1.05-22.52,4.11-1.42.86-3.26.4-4.12-1.02-.86-1.42-.4-3.26,1.02-4.12,10.12-6.11,20.08-6.03,26.65-4.88,14.89,2.57,26.65,12.96,27.35,24.17.39,6.34-2.47,18.04-26.07,25.19-.29.09-.58.13-.87.13Z" fill="#2b2b2b"/><path d="M566.05,545.26c-.98,0-1.94-.48-2.52-1.37-.9-1.39-.51-3.25.88-4.15l19.33-12.55c1.39-.9,3.25-.5,4.15.88.9,1.39.51,3.25-.88,4.15l-19.33,12.55c-.5.33-1.07.48-1.63.48Z" fill="#2b2b2b"/><path d="M664.89,440.55c.27,2.69-1.53,5.26-4.35,6.25-7.66,2.66-23.27,7.45-37.13,7.69-2.73.04-6.18-1.27-7.06-3.59-6.21-16.65-28.2-84.44,4.86-91.08,32.72-6.57,41.83,62.26,43.68,80.73Z"/></svg>