<?xml version="1.0" encoding="UTF-8"?><svg id="_レイヤー_10" xmlns="http://www.w3.org/2000/svg" width="2000" height="2000" viewBox="0 0 2000 2000"><path d="M346.96,974.19c-.69,0-1.38-.24-1.95-.72-.32-.28-32.14-27.99-11.24-56.03.29-.42.69-.78,1.15-1.01,1.48-.74,3.28-.14,4.03,1.34.53,1.06.37,2.28-.3,3.17,0,0,0,0,0,.01-17.64,23.55,9.13,46.97,10.28,47.95,1.26,1.08,1.4,2.97.33,4.23-.59.69-1.43,1.05-2.28,1.05Z" fill="#2b2b2b"/><path d="M397.43,951.77c-.06,0-.11,0-.17,0-1.65-.09-2.92-1.51-2.83-3.16.07-1.33.12-2.67.16-4.1.21-9.04-.57-15.27-.58-15.33-2.31-18.82-16.9-33.2-23.91-40.11l-.09-.09c-2.95-2.9-9.34-6.74-13.4-8.07l-26.88-1.5c-2.06-.12-4.07.19-5.98.91-5.1,1.91-17.4,7.39-21.68,17.08h0s-.02.04-.02.06h0c-2.21,5.05-1.93,10.74.82,16.93,2.16,4.85,4.74,8.27,7.68,10.17,9.8,6.32,22.14-6.04,23.52-7.47,1.15-1.19,3.05-1.23,4.24-.08,1.19,1.15,1.23,3.05.08,4.24-1.34,1.4-11.07,11.1-21.84,11.1-3.06,0-6.2-.78-9.26-2.75-3.93-2.54-7.27-6.84-9.91-12.77-3.46-7.79-3.75-15.11-.84-21.77,0,0,0-.01,0-.02,0-.02.02-.04.03-.06h0c5.01-11.36,17.85-17.58,25.05-20.28,2.69-1.02,5.53-1.45,8.43-1.29l27.25,1.52c.24.01.48.06.7.12,4.93,1.49,12.5,6,16.2,9.64l.09.09c7.49,7.39,23.08,22.76,25.65,43.64.03.25.84,6.69.62,16.22-.03,1.5-.09,2.9-.16,4.29-.09,1.6-1.41,2.84-2.99,2.84Z" fill="#2b2b2b"/><path d="M328.55,1025.97c-11.21,0-20.68-2.58-27.84-5.53-11.41-4.7-18.95-11-21.67-13.5-35.7,4.51-47.3-15.87-48.37-17.93-8.92-14.79-2.54-34.35-.55-39.6-11.14-23.44,2.94-39.37,8.02-44.08-2.91-9.41-2.26-17.47,1.94-23.98,6.48-10.04,19.51-13.19,25.01-14.09,0-.05,0-.09,0-.14.32-7.36,1.15-26.93,30.7-28.14,32.3-1.33,60.6,34.71,61.79,36.25,1.01,1.31.78,3.19-.53,4.21-1.31,1.02-3.19.78-4.21-.53-.27-.35-27.66-35.16-56.8-33.93-24.04.99-24.63,14.92-24.95,22.41-.06,1.38-.1,2.38-.3,3.23-.3,1.26-1.38,2.19-2.67,2.29-.16.01-16.46,1.53-23.01,11.72-3.42,5.31-3.64,12.26-.66,20.66.44,1.24.02,2.63-1.04,3.42-.8.6-19.6,15.04-7.33,39.23.4.79.43,1.73.08,2.54-.09.21-8.95,21.31-.3,35.53.05.08.09.15.13.23.39.78,10.24,19.35,43.67,14.59.96-.14,1.91.19,2.58.88.07.08,7.84,7.94,21,13.3,17.5,7.14,35.81,6.71,54.4-1.25,1.52-.65,3.29.05,3.94,1.58.65,1.52-.05,3.29-1.58,3.94-11.47,4.91-22.06,6.72-31.44,6.72Z" fill="#2b2b2b"/><path d="M297.7,898.42c-.5,0-1.02-.13-1.49-.4-15.91-9.1-30.03-25.48-30.62-26.17-1.08-1.26-.93-3.15.33-4.23,1.26-1.08,3.15-.93,4.23.33.14.16,14.05,16.29,29.04,24.87,1.44.82,1.94,2.66,1.11,4.09-.55.97-1.57,1.51-2.61,1.51Z" fill="#2b2b2b"/><path d="M288.79,942.85c-18.27,0-46.1-30.84-49.42-34.59-1.1-1.24-.98-3.14.26-4.23,1.24-1.1,3.14-.98,4.23.26,12.45,14.08,36.25,35.29,47.03,32.31,2.69-.75,4.89-1.48,6.75-2.22l.39-.16c5.51-2.28,6.23-4.02,7.13-6.21.3-.73.64-1.56,1.14-2.42.04-.08.09-.15.14-.22l.08-.14c.89-1.4,2.74-1.81,4.14-.93,1.4.89,1.81,2.74.93,4.14-.04.07-.08.14-.13.22-.28.51-.51,1.06-.75,1.65-1.41,3.4-3.16,6.46-10.35,9.44-.09.04-.22.09-.35.14l-.13.05c-2.06.83-4.47,1.62-7.38,2.43-1.18.33-2.42.48-3.71.48ZM306.43,925.4s0,.01,0,.02v-.02ZM306.53,925.26s0,0,0,0c0,0,0,0,0,0ZM306.53,925.25s0,0,0,0c0,0,0,0,0,0Z" fill="#2b2b2b"/><path d="M277.52,970.37c-24.7,0-45.24-18.08-46.12-18.87-1.24-1.1-1.34-3-.24-4.24,1.1-1.24,3-1.34,4.23-.24h0c.2.18,20.37,17.86,43.19,17.33,2.59-.07,5.1-.36,7.46-.86.35-.07.68-.14,1.01-.23,6.71-1.6,10.9-4.42,12.52-8.4,2.8-6.91-2.66-15.79-2.72-15.87-.89-1.4-.48-3.25.92-4.14,1.4-.89,3.25-.48,4.14.92.3.46,7.21,11.49,3.22,21.35-2.38,5.89-7.98,9.91-16.62,11.97-.37.1-.8.19-1.24.28-2.69.57-5.57.9-8.53.98-.41,0-.81.01-1.22.01Z" fill="#2b2b2b"/><path d="M280.07,1006.77c-.99,0-1.95-.49-2.53-1.38-.89-1.39-.49-3.25.9-4.14h0c.12-.08,11.61-7.61,13.45-17.86.82-4.6-.39-8.98-3.7-13.42-.99-1.33-.72-3.21.61-4.2,1.33-.99,3.21-.72,4.2.61,4.31,5.77,5.92,11.86,4.79,18.1-2.32,12.83-15.54,21.46-16.11,21.82-.5.32-1.06.48-1.62.48Z" fill="#2b2b2b"/><path d="M535.84,431.77c-.97,0-1.75-.78-1.75-1.75,0-5.18,2.55-9.83,7.58-17.1,3.44-4.97,7.27-8.48,11.71-10.73,8.17-4.16,18-3.71,29.21,1.34.88.4,1.27,1.43.88,2.31s-1.43,1.27-2.31.88c-10.2-4.6-19.01-5.07-26.19-1.42-3.9,1.99-7.31,5.13-10.42,9.61-5.27,7.62-6.96,11.3-6.96,15.11,0,.97-.78,1.75-1.75,1.75Z" fill="#2b2b2b"/><path d="M1512.92,1072.78c-12.36,0-24.85-5.5-25.55-5.81-.27-.12-.53-.28-.75-.48l-38.79-33.97c-1.25-1.09-1.37-2.99-.28-4.23,1.09-1.25,2.99-1.37,4.23-.28l38.43,33.66c2.95,1.23,21.57,8.62,32.72,3.15,3.75-1.84,6.2-4.95,7.48-9.48l-9.42-27.92c-.53-1.57.31-3.27,1.88-3.8,1.57-.53,3.27.31,3.8,1.88l9.71,28.77c.18.54.21,1.12.07,1.67-1.63,6.72-5.29,11.53-10.89,14.27-3.84,1.88-8.23,2.58-12.64,2.58Z" fill="#2b2b2b"/><path d="M1533.53,1058.22c-1.48,0-2.76-1.09-2.97-2.59-.22-1.64.92-3.15,2.57-3.38,16.99-2.33,16.88-19.04,16.78-21.4l-9.48-36.25c-.42-1.6.54-3.24,2.14-3.66s3.24.54,3.66,2.14l9.56,36.54c.05.18.08.35.09.54.65,8.57-3.1,25.46-21.93,28.04-.14.02-.28.03-.41.03Z" fill="#2b2b2b"/><path d="M1554.43,1028.38c-.93,0-1.85-.43-2.44-1.24-.97-1.34-.67-3.22.68-4.19,8.62-6.22,11.32-16.07,8.02-29.28-2.36-9.48-7.03-17.12-7.08-17.2-.87-1.41-.43-3.26.97-4.13,1.41-.87,3.26-.44,4.13.97.21.34,5.21,8.48,7.8,18.91,3.9,15.59.33,27.9-10.33,35.6-.53.38-1.15.57-1.75.57Z" fill="#2b2b2b"/><path d="M1564.5,995.71c-.3,0-.61-.05-.91-.14-1.58-.5-2.45-2.19-1.94-3.77,4.77-14.93,3.71-28.3-3.15-39.73-15.92-26.56-59.05-37.03-76.86-40.29-5.78-1.05-9.45-1.46-9.49-1.47-1.65-.18-2.83-1.66-2.65-3.31.18-1.65,1.66-2.84,3.31-2.65.16.02,3.89.43,9.91,1.53,18.61,3.41,63.74,14.45,80.92,43.11,7.78,12.98,9.03,28,3.71,44.64-.41,1.27-1.59,2.09-2.86,2.09Z" fill="#2b2b2b"/><path d="M1450.92,1067.05c-7.91,0-16.6-1.94-25.72-8.14-24.01-16.32-26.36-49.87-25.63-68.41.07-1.68.16-3.28.28-4.79.12-1.65,1.53-2.9,3.22-2.77,1.65.12,2.89,1.56,2.77,3.22-.11,1.44-.2,2.98-.26,4.58-.68,17.29,1.4,48.51,23.01,63.2,15.62,10.63,29.75,6.95,41.1,4,2.37-.62,4.61-1.2,6.74-1.62,1.63-.32,3.2.73,3.53,2.36.32,1.63-.73,3.2-2.36,3.53-1.95.39-4.11.95-6.39,1.54-5.81,1.51-12.68,3.3-20.27,3.3Z" fill="#2b2b2b"/><path d="M842.87,1252.7c-14.75,0-28.9-5.72-39.38-16.05-4.14-4.09-7.68-7.91-10.82-11.68-22.71-27.23-20.31-47.03-17.29-72.1.87-7.17,1.76-14.58,2.21-22.91,1.16-21.65-2.79-44.15-11.44-65.08-6.36-15.37-12.3-31.54-17.65-48.07-21.95-67.57-31.68-132-35.97-174.14-2.68-26.36-3.08-42.82-3.08-42.99-.04-1.66,1.27-3.03,2.93-3.07.02,0,.05,0,.07,0,1.62,0,2.96,1.3,3,2.93,0,.16.4,16.41,3.05,42.52,4.27,41.85,13.92,105.82,35.71,172.9,5.31,16.38,11.19,32.41,17.49,47.63,8.98,21.75,13.09,45.16,11.88,67.7-.46,8.53-1.36,16.04-2.24,23.31-2.97,24.56-5.11,42.3,15.94,67.54,3.02,3.62,6.42,7.3,10.42,11.25,10.31,10.16,24.61,15.33,39.24,14.15,4.31-.36,8.79-.83,13.29-1.42,114.97-15.07,296.99-105.48,346.34-141.21,2.73-1.98,5.1-3.83,7.04-5.5,25.55-22.2-3.55-97.05-27.85-126.04-2.18-2.59-4.79-5.41-7.82-8.67-9.38-10.1-22.22-23.93-38-48.01-.91-1.39-.52-3.25.87-4.15,1.39-.91,3.25-.52,4.15.87,15.5,23.66,28.15,37.28,37.38,47.22,3.08,3.32,5.75,6.19,8.02,8.9,12.64,15.08,26.43,42.71,33.53,67.2,9.22,31.78,6.96,55.66-6.35,67.23-2.08,1.79-4.58,3.75-7.45,5.83-49.73,36.01-233.17,127.12-349.08,142.31-4.6.6-9.17,1.09-13.58,1.46-1.53.12-3.05.18-4.57.18Z" fill="#2b2b2b"/><path d="M732.77,1057.38c-13.8,0-42.89-8.86-77.97-23.75-21.33-9.04-42.66-19.44-61.7-30.06-21.8-12.13-39.92-24.27-52.38-35.08-8.16-7.08-14.07-13.74-17.57-19.79-.56-.96-.54-2.16.06-3.1,6-9.53,147.75-233.67,212.8-254.54.87-.28,1.83-.15,2.59.37l3.14,2.11c1.17.79,1.63,2.29,1.11,3.6,0,0-.05.13-.16.37-3.57,8.27-6.01,18.58-3.5,21.36,1.25,1.38,4.53.6,6.38.01,3.75-1.19,7.34-3.41,10.37-6.43,16.21-16.05,74.07-70.39,138.33-95.79,3.33-1.32,6.81-2.21,10.34-2.67,2.72-.37,5.51-.46,8.26-.28h0s.08,0,.11,0c0,0,.02,0,.03,0,1.58.1,3.15.29,4.65.56,24.79,4.4,49.75,19.7,76.28,46.75,1.16,1.18,1.14,3.08-.04,4.24-1.18,1.16-3.08,1.14-4.24-.04-25.63-26.13-49.53-40.87-73.06-45.05-1.28-.23-2.61-.39-3.96-.48h0s-.09,0-.12,0c-.01,0-.02,0-.03,0-2.36-.16-4.74-.07-7.08.24-3.06.39-6.05,1.16-8.92,2.3-63.2,24.98-120.31,78.63-136.31,94.47-3.7,3.68-8.12,6.41-12.78,7.89-5.72,1.82-9.97,1.24-12.64-1.7-5.23-5.78-1.26-18.54,1.54-25.59-60.98,22.37-194.12,229.69-207,249.92,3.26,5.08,8.43,10.7,15.37,16.74,12.16,10.55,29.92,22.44,51.37,34.37,18.85,10.52,39.99,20.82,61.12,29.78,32.52,13.81,60.46,22.56,74,23.23l16.92-36.52c.7-1.5,2.48-2.16,3.98-1.46s2.16,2.48,1.46,3.98l-17.74,38.3c-.49,1.05-1.54,1.73-2.69,1.74-.1,0-.2,0-.3,0ZM912.62,619.71h0,0Z" fill="#2b2b2b"/><path d="M821.87,1673.16c-.6,0-1.2-.18-1.72-.54-.43-.3-43.48-30.58-93.05-75.02-40.79-36.57-74.31-72.09-99.64-105.57-.03-.04-.06-.08-.09-.13-3.8-5.02-7.54-10.17-11.11-15.31-16.93-24.44-29.28-47.76-36.68-69.32-.4-1.17-.04-2.47.9-3.27l5.31-4.48,203.44-171.96,2-5.3c.58-1.55,2.31-2.33,3.87-1.75,1.55.58,2.33,2.31,1.75,3.86l-2.27,6.03c-.18.48-.48.9-.87,1.23l-204.04,172.47-3.73,3.15c7.3,20.5,19.15,42.66,35.26,65.91,3.55,5.1,7.26,10.22,11.04,15.22.03.04.06.09.09.13,25.09,33.14,58.32,68.34,98.78,104.62,43.15,38.69,81.32,66.57,90.43,73.11l135.89-137.03,20.37-20.53c17.54-17.69,39.56-29.34,60.84-40.61,7.23-3.83,14.71-7.78,21.91-11.93,151.12-86.85,216.4-178.36,194.03-271.97-6.44-26.96-20.36-54.43-41.37-81.67-1.01-1.31-.77-3.2.54-4.21,1.31-1.01,3.2-.77,4.21.54,21.53,27.91,35.81,56.15,42.45,83.94,23.06,96.51-43.18,190.23-196.87,278.57-7.3,4.19-14.82,8.18-22.09,12.03-21.85,11.57-42.49,22.5-59.39,39.53l-20.37,20.53-137.68,138.84c-.58.59-1.35.89-2.13.89Z" fill="#2b2b2b"/><path d="M818.04,1626.25c-.34,0-.69-.1-1-.31-69.24-48.14-119.29-104.02-149.09-142.43-32.3-41.63-48.46-72.31-48.62-72.62-.45-.86-.12-1.91.74-2.36.86-.45,1.91-.12,2.36.74.16.3,16.21,30.77,48.34,72.17,29.64,38.19,79.43,93.76,148.27,141.62.79.55.99,1.64.44,2.44-.34.49-.88.75-1.44.75Z" fill="#2b2b2b"/><path d="M1116.88,946.67c-.51,0-1.03-.13-1.49-.4l-210.01-120.52c-1.44-.82-1.93-2.66-1.11-4.1.82-1.44,2.66-1.93,4.09-1.11l208.26,119.51c5.82-4.86,13.96-14.64,23.17-27.88,7-10.04,14.66-22.14,22.15-35.01,6.19-10.64,12.1-21.46,17.55-32.16,4.95-9.68,9.51-19.2,13.56-28.28,13.13-29.38,20.95-53.94,22.61-71.02.36-3.63.44-6.95.23-9.9-15.86-6.02-136.36-51.18-224.93-68.42-.08-.02-.16-.03-.23-.06-38.94-7.56-66.38-8.74-81.56-3.51-1.56.54-3.27-.29-3.81-1.86-.54-1.57.29-3.27,1.86-3.81,16.21-5.59,44.78-4.46,84.89,3.34.08.02.16.03.23.06,95.01,18.53,226.13,68.82,227.44,69.33,1.04.4,1.77,1.35,1.9,2.46.44,3.8.42,8.16-.05,12.97-2.18,22.38-13.77,51.99-23.11,72.88-4.09,9.18-8.7,18.79-13.7,28.56-5.5,10.8-11.46,21.72-17.71,32.45-7.57,13-15.32,25.25-22.41,35.42-7.36,10.58-17.85,24.46-26.06,30.48-.53.39-1.15.58-1.77.58Z" fill="#2b2b2b"/><path d="M1107.89,900.16c-.37,0-.74-.12-1.06-.35-.77-.58-.92-1.68-.34-2.45,48.19-63.6,76.9-152.09,77.19-152.98.29-.92,1.28-1.43,2.2-1.13.92.3,1.43,1.28,1.13,2.2-.29.89-29.17,89.94-77.73,154.02-.34.45-.87.69-1.4.69Z" fill="#2b2b2b"/><path d="M1206.67,1595.47c-.7,0-1.4-.25-1.97-.74-12.8-11.1-38.38-35.23-65.47-60.76-32.35-30.5-65.8-62.04-79.09-72.9-1.28-1.05-1.47-2.94-.43-4.22,1.05-1.28,2.94-1.48,4.22-.43,13.46,10.99,46.99,42.6,79.42,73.18,26.06,24.58,50.73,47.84,63.86,59.36.8-.3,1.84-.66,3.23-1.15,12.75-4.43,51.56-17.92,100.2-58.67.09-.08.19-.15.27-.23.03-.02.05-.05.08-.07,27.5-23.4,48.27-64.19,70.26-107.37,8.46-16.61,17.21-33.79,26.64-50.57,10.37-18.44,18.72-37.05,24.84-55.35-10.92-8.06-72.52-53.53-176.18-129.87-1.33-.98-1.62-2.86-.64-4.19.98-1.33,2.86-1.62,4.2-.64,114.15,84.07,177.31,130.7,177.93,131.16,1.04.77,1.47,2.11,1.07,3.34-6.29,19.34-15.04,39.01-25.99,58.48-9.36,16.66-18.08,33.79-26.52,50.35-22.26,43.71-43.29,85-71.68,109.18-.14.13-.29.25-.43.37-49.47,41.45-89.06,55.21-102.07,59.73-1.84.64-3.75,1.3-4.18,1.55-.48.3-1.02.45-1.56.45Z" fill="#2b2b2b"/><path d="M344.62,1726.76c-3.67,0-7.33-.45-10.65-1.4-1.59-.45-2.52-2.11-2.06-3.71.45-1.59,2.11-2.52,3.71-2.06,8.03,2.29,18.74,1.17,24.39-2.55,23.24-15.31,59.44-44.03,107.61-85.38.01-.01.03-.02.04-.03.58-.51,1.17-1,1.76-1.51l.24-.21c76.24-65.59,156.28-140.37,157.08-141.12,1.21-1.13,3.11-1.07,4.24.14,1.13,1.21,1.07,3.11-.14,4.24-.8.75-80.92,75.61-157.27,141.29l-.26.22c-.57.48-1.13.96-1.7,1.45-.02.02-.04.03-.05.04-48.38,41.53-84.8,70.42-108.25,85.87-4.63,3.05-11.66,4.71-18.68,4.71Z" fill="#2b2b2b"/><path d="M557.62,1732.31c-.26,0-.53-.06-.78-.18-62.14-30.91-87.21-95.31-87.46-95.96-.34-.9.11-1.91,1.01-2.26.9-.34,1.91.11,2.26,1.01.24.63,24.86,63.78,85.74,94.07.87.43,1.22,1.48.79,2.35-.31.62-.93.97-1.57.97Z" fill="#2b2b2b"/><path d="M427.51,1847.44c-1.65,0-2.99-1.33-3-2.99-.04-8.87,13.16-24.41,16.43-27.78,36.73-37.94,74.32-61.29,114.13-86.01l1.88-1.17c46.37-28.81,94.32-58.61,142.46-115.89.15-.18.33-.34.52-.49l27.47-20.23c1.3-1.02,3.19-.79,4.21.52,1.02,1.31.79,3.19-.52,4.21l-.14.11-27.18,20.01c-48.68,57.84-99.13,89.19-143.65,116.85l-1.89,1.17c-39.48,24.52-76.77,47.68-112.98,85.09-5.88,6.07-14.76,18.56-14.74,23.58,0,1.66-1.33,3.01-2.99,3.01h-.01Z" fill="#2b2b2b"/><path d="M355.67,1929.32c-6.95,0-13.84-2.69-19.02-7.8-92.17-91.1-163.06-182.5-182.6-208.35-3.88-5.15-6.27-11.24-6.91-17.61-.82-8.36,1.35-16.76,6.1-23.68,0,0,0,0,0,0,.02-.03.04-.06.06-.1,1.07-1.54,2.29-3.04,3.64-4.44l.46-.48s.07-.07.08-.08c.44-.45.87-.89,1.3-1.34,11.06-11.77,40.72-31.97,59.08-25.19,11.9,4.39,22.78,15.24,33.3,25.73,7.1,7.08,13.81,13.76,19.95,17.46,12.02,7.26,37.24,16.86,54.86,22.21,3.06.92,5.48,1.61,7.6,2.17,2.63.69,4.75,2.62,5.66,5.17.91,2.55.5,5.38-1.09,7.58-.62.85-1.15,1.76-1.6,2.72-9.76,20.78,16.87,67.02,86.62,115.25,1.54,1.07,2.94,2.33,4.16,3.73.18.2.38.45.57.71.15.18.29.36.42.54l.1.14c5.8,8.06,5.48,19.03-.73,26.74-20.65,25.65-38.87,43.42-54.16,52.82h0c-2.17,1.33-4.3,2.5-6.33,3.48-3.68,1.77-7.63,2.63-11.57,2.63ZM158.14,1675.34c-3.93,5.75-5.71,12.71-5.03,19.62.53,5.27,2.51,10.31,5.73,14.59,19.47,25.76,90.14,116.88,182.02,207.69,6.31,6.22,15.86,7.84,23.77,4.03,1.85-.89,3.8-1.96,5.8-3.19,14.7-9.03,32.4-26.35,52.62-51.46,4.52-5.62,4.76-13.6.58-19.42l-.08-.11c-.08-.11-.16-.22-.25-.32-.03-.04-.07-.08-.1-.12-.11-.15-.22-.29-.34-.43-.93-1.07-1.95-1.99-3.08-2.77-34.12-23.59-60.38-48.2-75.93-71.18-14.05-20.77-18.57-39.07-12.72-51.53.6-1.3,1.34-2.56,2.18-3.71.43-.59.54-1.34.29-2.03-.25-.7-.81-1.2-1.53-1.39-2.19-.57-4.67-1.28-7.82-2.23-17.98-5.46-43.79-15.31-56.22-22.81-6.76-4.07-13.72-11.01-21.08-18.35-10.07-10.03-20.48-20.41-31.15-24.35-14.83-5.47-42.16,12.52-52.65,23.69-.47.49-.91.94-1.37,1.41l-.48.5c-1.13,1.18-2.14,2.4-3.01,3.66-.05.07-.09.15-.15.21ZM371.99,1920.65h0,0ZM158.19,1675.26s-.01.02-.02.03c0-.01.02-.02.02-.03ZM152.86,1672.76s0,0,0,0c0,0,0,0,0,0ZM152.86,1672.76s0,0,0,0c0,0,0,0,0,0ZM152.86,1672.75s0,0,0,0c0,0,0,0,0,0ZM152.86,1672.74s0,0,0,0c0,0,0,0,0,0Z" fill="#2b2b2b"/><path d="M370.63,1921.77c-.73,0-1.45-.26-2.03-.79-140.52-129.13-214.25-244.35-214.97-245.5-.89-1.4-.47-3.25.93-4.14,1.4-.89,3.25-.47,4.14.93.72,1.14,74.08,115.74,213.97,244.3,1.22,1.12,1.3,3.02.18,4.24-.59.64-1.4.97-2.21.97Z" fill="#2b2b2b"/><path d="M1236.15,1553.99c-.7,0-1.35-.42-1.63-1.1-.36-.9.08-1.92.98-2.27.39-.16,39.83-16.22,72.23-53.3,34.59-39.6,63.81-101.4,95.71-172.17.4-.88,1.43-1.27,2.31-.88.88.4,1.27,1.43.88,2.31-32.02,71.03-61.36,133.07-96.27,173.03-32.98,37.74-73.17,54.08-73.57,54.24-.21.08-.43.13-.65.13Z" fill="#2b2b2b"/><path d="M745.49,748.47c-10.57,0-17.7-3.42-18.22-3.67-1.49-.73-2.1-2.53-1.36-4.02.73-1.48,2.53-2.09,4.01-1.36.84.41,20.01,9.41,42.08-5.52,6.09-4.12,14.52-12.48,24.28-22.17,27.78-27.57,69.77-69.24,118.38-73.53,1.65-.14,3.11,1.07,3.25,2.72.15,1.65-1.07,3.11-2.72,3.25-46.45,4.1-87.51,44.84-114.68,71.81-10.38,10.3-18.58,18.44-25.14,22.88-11.06,7.48-21.54,9.61-29.87,9.61Z" fill="#2b2b2b"/><path d="M642.91,700c-17.6,0-30.81-3.33-31.63-3.54-38.13-8.63-59.89-32.72-71.41-51.4-3.3-5.32-6.07-10.65-8.2-15.83-4.4-10.69-12.59-19.15-23.06-23.8-.09-.04-.17-.08-.26-.13l-31.92-18.06c-.74-.42-1.27-1.13-1.45-1.96-.19-.83-.01-1.7.48-2.39,16.47-23.27,27.03-55.92,13.47-76.42-1.32-2-3.86-4.9-6.81-8.26-6.22-7.09-13.95-15.91-17.38-24.26-.63-1.53.1-3.29,1.64-3.91,1.53-.63,3.29.1,3.92,1.64,3.05,7.42,10.42,15.83,16.34,22.58,3.1,3.53,5.77,6.58,7.31,8.92,12.89,19.51,8.26,50.83-11.7,80.47l28.94,16.37c11.82,5.3,21.07,14.86,26.04,26.94,1.98,4.81,4.66,9.98,7.75,14.96,10.93,17.71,31.54,40.53,67.72,48.73.37.09,28.96,7.28,57.37.26,13.05-3.22,30.86-11.61,51.49-24.25,3.47-2.13,6.81-4.24,9.94-6.28,31.89-20.69,46.85-44.83,53.78-61.44,7.52-18.01,7.5-31.32,7.5-31.46-.01-1.65,1.32-3.01,2.97-3.03h.03c1.64,0,2.98,1.32,3,2.96,0,.58.07,14.44-7.83,33.51-7.24,17.48-22.86,42.86-56.18,64.48-3.17,2.06-6.56,4.2-10.07,6.36-21.46,13.15-39.35,21.55-53.19,24.97-9.96,2.46-19.82,3.29-28.59,3.29Z" fill="#2b2b2b"/><path d="M754.38,478.92c-1.26,0-2.4-.8-2.83-2.01-5.33-15.18-28.06-38.72-67.54-69.98-65.59-51.95-155.36-107.25-156.26-107.81-1.41-.87-1.85-2.71-.99-4.13.87-1.41,2.72-1.85,4.13-.99.9.55,90.96,56.04,156.84,108.21,33.17,26.26,54.86,47.45,64.72,63.19,1.32-16.59,2.45-51.55-6.46-88.38-13.11-54.24-50.35-120.51-153.29-128.22-1.65-.12-2.89-1.56-2.77-3.22s1.55-2.89,3.22-2.77c47.29,3.54,85.32,19.37,113.05,47.02,21.76,21.71,37.11,50.57,45.62,85.77,12.56,51.95,5.59,100.26,5.52,100.74-.2,1.36-1.31,2.41-2.68,2.54-.1,0-.19.01-.29.01Z" fill="#2b2b2b"/><path d="M794.43,551.9c-1.36,0-2.59-.93-2.92-2.32-.38-1.61.62-3.23,2.24-3.6,9.35-2.19,17.92-8.34,25.48-18.27l.62-.82c10.35-13.94,16.9-32.63,20.57-45.85.5-1.79.92-3.46,1.31-5.1,4.5-19.17,4.77-39.47.77-58.71-8.91-42.99-25.42-63.6-49.1-61.25-21.13,2.1-40.73,21.93-40.93,22.13-1.16,1.18-3.06,1.21-4.24.05-1.18-1.16-1.21-3.06-.05-4.24.86-.88,21.3-21.59,44.63-23.91,12.24-1.21,22.97,2.82,31.89,12,10.53,10.83,18.49,29,23.67,54.01,4.17,20.09,3.89,41.28-.81,61.29-.4,1.72-.85,3.47-1.37,5.34-3.8,13.71-10.63,33.14-21.54,47.84l-.64.85c-8.44,11.09-18.16,17.99-28.9,20.5-.23.05-.46.08-.69.08Z" fill="#2b2b2b"/><path d="M802.66,512.83c-.29,0-.59-.08-.87-.23-.84-.48-1.13-1.55-.65-2.39,27.2-47.42,21.17-83.96,17.32-97.47-3.73-13.08-10.36-23-18.19-27.22-20.55-11.1-38.24,14.57-38.42,14.83-.54.8-1.63,1.01-2.43.47-.8-.54-1.01-1.63-.47-2.43.19-.29,19.68-28.54,42.98-15.95,8.65,4.66,15.9,15.36,19.89,29.34,3.98,13.94,10.21,51.6-17.65,100.17-.32.56-.91.88-1.52.88Z" fill="#2b2b2b"/><path d="M743.21,713.95c-.29,0-.58-.04-.87-.13-1.58-.48-2.47-2.14-2-3.72.04-.14,1.37-5.25-1.48-13.4-.02-.04-.04-.11-.05-.17-2.83-7.96-8.57-16.06-17.06-24.06-1.21-1.14-1.26-3.03-.13-4.24,1.13-1.21,3.03-1.26,4.24-.13,9.22,8.69,15.49,17.61,18.63,26.5.02.05.04.12.06.18,3.55,10.19,1.63,16.76,1.54,17.03-.39,1.29-1.58,2.13-2.87,2.13Z" fill="#2b2b2b"/><path d="M912.88,618.57c-.76,0-1.51-.28-2.1-.85,0,0-.1-.1-.27-.28-2.58-2.72-25.76-27.8-32.61-56.24-3.39-14.07-2.2-26.68,3.52-37.5.6-1.15,1.24-2.32,1.89-3.51l.09-.16c.09-.16.19-.31.3-.45,38.78-47.85,48.21-82.58,50.46-120.01.1-1.65,1.53-2.9,3.17-2.82,1.65.1,2.91,1.52,2.81,3.17-2.31,38.53-11.97,74.24-51.61,123.22-.62,1.13-1.23,2.25-1.81,3.36-5.02,9.49-6.03,20.69-3,33.29,6.6,27.39,30.18,52.51,31.18,53.57l.11.12c1.15,1.17,1.14,3.06-.02,4.22-.59.59-1.35.88-2.12.88Z" fill="#2b2b2b"/><path d="M491.73,486.18c-.43,0-.87-.09-1.27-.28-8.3-3.26-16.43-6.82-24.18-10.59-48.4-23.67-77.79-54.43-87.36-91.44-12.77-49.39,14.07-92.49,18.38-98.98.14-4.59,1.71-24.23,17.42-52.43,16.11-28.91,50.91-72.78,125.27-117.6,35.35-21.31,72.73-35.09,111.09-40.96,34.86-5.33,69.82-4.09,103.93,3.71,61.79,14.12,116.8,49.66,147.15,95.07.92,1.38.55,3.24-.83,4.16-1.38.92-3.24.55-4.16-.83-29.52-44.17-83.17-78.77-143.5-92.55-49.61-11.33-126.42-14.19-210.59,36.54-72.92,43.95-107.05,86.73-122.85,114.88-17.06,30.39-16.96,50.69-16.96,50.9,0,.63-.18,1.25-.54,1.77-.31.45-30.9,45.12-18.01,94.88,9.12,35.2,37.44,64.64,84.16,87.49,7.65,3.72,15.69,7.24,23.91,10.46.41.16.78.41,1.08.72,1.14,1.2,1.1,3.1-.1,4.25-.58.55-1.33.83-2.07.83Z" fill="#2b2b2b"/><path d="M489,484.41c-4.35-9.59-41.99-94.36-30.5-133.15.29-.96,1.03-1.72,1.99-2.01.96-.3,2-.1,2.78.54.38.31,38.38,30.88,88.44,49.84,1.15.43,2.33.87,3.5,1.3,49.52,18.02,93.05,18.34,129.38.95.08-.04.15-.07.23-.1.16-.06.31-.14.46-.22l.1-.05c1.48-.74,3.28-.14,4.03,1.34.74,1.48.14,3.28-1.34,4.02l-.09.05c-.29.15-.59.29-.89.41-37.82,18.07-82.87,17.81-133.92-.77-1.19-.43-2.38-.88-3.56-1.32-41.88-15.86-75.47-39.71-86.37-47.91-7.14,39.38,29.59,120.97,31.22,124.55l-2.71,1.29-2.73,1.24Z" fill="#2b2b2b"/><path d="M879.75,563.75c-.7,0-1.41-.25-1.98-.75-27.89-24.51-55.18-30.78-55.45-30.84-1.62-.36-2.64-1.96-2.28-3.58s1.95-2.64,3.57-2.28c1.17.26,29,6.61,58.12,32.2,1.24,1.09,1.37,2.99.27,4.23-.59.67-1.42,1.02-2.25,1.02Z" fill="#2b2b2b"/><path d="M1088.15,442.58c-27.12,0-80.42-4.33-137.8-32.77-4.93-2.44-9.83-5.02-14.54-7.67-15.42-8.66-30.34-18.79-44.35-30.09-2.54-2.05-5.07-4.16-7.53-6.27-.8-.69-1.6-1.38-2.4-2.08-16.59-14.49-28.9-32.75-35.59-52.79-.3-.89-.57-1.77-.84-2.63-2.7-8.67-3.62-17.73-2.75-26.92.7-7.39,2.56-14.66,5.54-21.61,2.38-5.62,5.51-11.02,9.28-16.03,12.79-16.91,27.28-37.73,37.81-63.95.84-2.09,1.64-4.2,2.39-6.27,4.55-12.45,7.91-25.44,9.98-38.64.17-1.1.94-2.01,1.99-2.37,1.05-.36,2.22-.11,3.03.65,1.6,1.5,37.7,35.99,42.59,81.41,9.26-7.06,31.9-23.45,58.17-36,20.27-9.68,38.74-15.24,54.91-16.52,20.64-1.64,37.58,3.68,50.35,15.8.71.67,1.05,1.65.9,2.62s-.75,1.8-1.63,2.24c-13.1,6.54-46.07,26.29-45.3,40.78,9.54,7.85,81.05,67.59,103.8,112.08.49.95.43,2.09-.15,2.99s-1.57,1.42-2.66,1.38c-.29-.01-29.18-1.28-58.28-.8-43.8.72-55.33,4.77-58.35,6.78,4.38,5.17,16.89,20.23,28.58,36.83,20.11,28.57,27.95,47.27,23.96,57.16-.41,1.01-1.33,1.72-2.41,1.85-.22.03-7.05.83-18.71.83ZM912.27,141.67c-2.15,11.56-5.25,22.93-9.26,33.88-.77,2.13-1.6,4.3-2.46,6.46-10.79,26.88-25.57,48.11-38.59,65.33-3.48,4.61-6.35,9.58-8.55,14.76-2.73,6.39-4.44,13.05-5.08,19.82h0c-.8,8.39.05,16.66,2.51,24.58.25.82.52,1.66.8,2.51,6.35,19.03,18.06,36.38,33.85,50.17.78.69,1.58,1.37,2.36,2.05,2.41,2.07,4.9,4.14,7.39,6.15,13.75,11.1,28.4,21.03,43.53,29.53,4.62,2.6,9.42,5.13,14.26,7.53,72.99,36.18,139.09,32.58,151.15,31.55,2.7-15.93-30.88-61.84-53.59-88.05-.71-.82-.92-1.95-.56-2.97,1.62-4.57,8.84-7.47,23.41-9.38,10.33-1.35,24.32-2.19,41.58-2.47,21.88-.36,43.62.26,53.34.6-25.95-45.2-99.94-105.75-100.71-106.37-.56-.46-.94-1.1-1.06-1.82-3.21-18.76,31.84-39.39,44.47-46.16-51.87-41.66-155.67,42.44-156.73,43.32-.88.72-2.09.88-3.12.42-1.04-.46-1.72-1.47-1.78-2.6-1.76-36.83-27.13-67.93-37.14-78.83ZM845.33,281.64h0,0Z" fill="#2b2b2b"/><path d="M876.55,368.49c-1.2,0-2.31-.12-3.28-.28-10.07-1.7-20.94-10.8-32.31-27.04-10.6-15.15-18.98-38,1.29-60.85.64-.72,1.75-.79,2.47-.15.72.64.79,1.75.15,2.47-15.06,16.97-15.41,35.98-1.04,56.52,13.47,19.24,23.76,24.54,30.02,25.6,3.98.67,7.51-.08,10.5-2.23,1.62-1.17,2.6.06,2.71.21.57.78.41,1.87-.37,2.45-.08.06-.16.11-.24.15l-.05.03c-3.35,2.42-6.87,3.13-9.84,3.13ZM884.24,364.82c.14.19.31.34.5.45-.19-.11-.36-.27-.5-.45ZM884.23,364.81s0,0,0,0c0,0,0,0,0,0Z" fill="#2b2b2b"/><path d="M713.14,1014.5c-.16,0-.32-.02-.49-.07-77.26-22.24-153.74-76.24-154.5-76.79-.79-.56-.97-1.65-.41-2.44.56-.79,1.65-.97,2.44-.41.76.54,76.76,54.21,153.44,76.27.93.27,1.46,1.24,1.2,2.17-.22.77-.92,1.27-1.68,1.27Z" fill="#2b2b2b"/><path d="M1529.39,1451.84c-.75,0-1.45-.49-1.67-1.24-.21-.71-22.12-71.22-79.81-101.59-.7-.38-1.38-.73-2.09-1.08l1.55-3.14c.76.39,1.48.75,2.18,1.13,58.99,31.05,81.29,102.94,81.51,103.66.28.92-.24,1.9-1.17,2.18-.17.05-.34.08-.51.08Z" fill="#2b2b2b"/><path d="M1412.15,1376.28c-.85,0-1.69-.35-2.28-1.05-1.08-1.26-.93-3.15.32-4.23.56-.48,13.91-11.88,36.95-26.1,2.03-1.26,4.16-2.54,6.34-3.84,13.11-7.75,25.87-12.97,38.21-18.01,25.32-10.34,49.23-20.11,70.53-50.38,1.1-1.56,2.61-3.45,4.36-5.64,4.17-5.21,11.15-13.94,11.21-18.02.03-1.66,1.39-3.01,3.04-2.96,1.66.02,2.98,1.39,2.96,3.04-.08,5.69-5.48,12.87-12.53,21.68-1.69,2.11-3.15,3.93-4.14,5.34-22.31,31.7-47.01,41.79-73.16,52.48-12.14,4.96-24.7,10.09-37.42,17.62-2.15,1.28-4.24,2.54-6.25,3.78-22.6,13.95-36.06,25.43-36.19,25.55-.57.49-1.26.72-1.95.72Z" fill="#2b2b2b"/><path d="M1789.11,1448.67c-2.94,0-5.73-.43-8.27-1.38-11.68-4.34-22.11-14.97-32.19-25.24-6.77-6.9-13.17-13.41-19.1-17.03-11.69-7.13-36.35-16.6-53.62-21.89-3.17-.96-5.47-1.62-7.45-2.15-2.62-.7-4.68-2.62-5.52-5.14-.85-2.54-.34-5.34,1.35-7.48.61-.78,1.17-1.66,1.64-2.6.04-.08.09-.17.14-.25,10.12-20.12-14.67-64.95-81.83-111.98-1.52-1.07-2.88-2.31-4.03-3.67-.42-.52-.77-.96-1.1-1.44-5.46-7.86-4.76-18.58,1.71-26.05,21.41-24.73,40.12-41.84,55.61-50.86.12-.08.25-.15.37-.21,2.24-1.28,4.22-2.3,6.06-3.13,10.28-4.69,22.4-2.58,30.16,5.27,88.27,89.1,155.25,178.22,173.68,203.41,3.7,5.05,5.86,11.01,6.25,17.24.53,8.11-1.92,16.28-6.92,23.01-.04.05-.07.09-.11.14-1.2,1.57-2.4,2.94-3.68,4.17-.18.18-.36.36-.55.54-.49.46-.94.89-1.39,1.33-9.77,9.74-33.36,25.4-51.2,25.4ZM1671.18,1368.71c-.63,1.19-1.35,2.32-2.15,3.35-.62.78-.5,1.52-.38,1.88.12.36.46,1,1.37,1.24,2.05.54,4.42,1.22,7.67,2.21,17.63,5.4,42.89,15.13,54.99,22.51,6.56,4,13.21,10.78,20.26,17.95,9.62,9.8,19.58,19.94,30.01,23.82,14.54,5.43,42.34-11.88,53.17-22.67.49-.48.98-.95,1.47-1.4.14-.13.26-.25.38-.37.04-.04.07-.07.11-.11,1.08-1.04,2.11-2.21,3.15-3.57.02-.03.05-.06.08-.1,4.11-5.57,6.14-12.31,5.7-18.98-.32-5.09-2.09-9.96-5.11-14.09-18.37-25.11-85.12-113.92-173.1-202.73-6-6.06-15.4-7.68-23.41-4.02-1.71.77-3.57,1.73-5.7,2.95-.02.01-.04.02-.06.03-.05.03-.09.06-.14.08-14.92,8.69-33.11,25.37-54.08,49.59-4.67,5.4-5.21,13.09-1.31,18.71.25.37.52.7.8,1.05.77.91,1.74,1.79,2.84,2.57,33.02,23.13,58.2,47.2,72.81,69.62,13.23,20.3,17.07,38.14,10.79,50.23-.04.08-.09.16-.14.24ZM1638.17,1173.98h0,0Z" fill="#2b2b2b"/><path d="M1843.21,1417.98c-1.01,0-2-.51-2.57-1.44-.68-1.11-69.29-112.77-203.44-238.42-1.21-1.13-1.27-3.03-.14-4.24,1.13-1.21,3.03-1.27,4.24-.14,134.79,126.25,203.78,238.56,204.46,239.68.86,1.42.41,3.26-1,4.12-.49.3-1.03.44-1.56.44Z" fill="#2b2b2b"/><path d="M1352.25,1544.24c-9.52,0-18.2-1.42-26-4.28-.91-.33-1.84-.66-2.79-1-3.44-1.23-7-2.5-10.88-4.14-1.53-.64-2.24-2.4-1.6-3.93.64-1.53,2.41-2.24,3.93-1.6,3.72,1.57,7.2,2.82,10.57,4.02.96.34,1.9.68,2.82,1.01,41.83,15.29,114.18-15.08,198.51-83.32.69-.55,1.36-1.09,2.02-1.63,49.44-39.93,86.63-67.73,110.54-82.63,7.13-4.44,19.66-5.73,29.16-3.01,1.59.46,2.51,2.12,2.06,3.71-.46,1.59-2.12,2.51-3.71,2.06-7.9-2.26-18.6-1.24-24.34,2.33-23.71,14.77-60.69,42.42-109.93,82.19-.67.55-1.36,1.1-2.05,1.65-40.49,32.77-79.84,57.88-113.77,72.59-24.52,10.63-46.12,15.96-64.55,15.96Z" fill="#2b2b2b"/><path d="M1400.73,993.55c-.63,0-1.27-.2-1.81-.61l-168.84-127.87-48.2-15.52c-1.58-.51-2.44-2.2-1.94-3.78.51-1.58,2.2-2.44,3.78-1.94l48.68,15.68c.32.1.62.26.89.46l169.25,128.18c1.32,1,1.58,2.88.58,4.2-.59.78-1.49,1.19-2.39,1.19Z" fill="#2b2b2b"/><path d="M1484.53,913.47c-.59,0-1.2-.18-1.72-.55l-2.35-1.65-200.37-140.59s-.06-.04-.09-.06c-7.53-5.71-16.4-10.07-26.35-12.96l-35.17-8.7c-1.61-.4-2.59-2.02-2.19-3.63.4-1.61,2.03-2.59,3.63-2.19l35.23,8.71s.08.02.12.03c10.66,3.09,20.19,7.78,28.31,13.93l202.68,142.21c1.36.95,1.68,2.82.73,4.18-.58.83-1.51,1.28-2.46,1.28Z" fill="#2b2b2b"/><path d="M545.65,1107.12c-16.02,0-38.04-6.61-66.73-19.97-31.66-14.75-65.69-35.01-93.04-51.3-10.99-6.54-20.48-12.19-28.55-16.75-1.44-.81-1.95-2.64-1.14-4.09.81-1.44,2.64-1.95,4.09-1.14,8.14,4.59,17.66,10.26,28.68,16.82,53.66,31.95,134.74,80.24,168.27,68.73,80.1-27.48,95.77-69.14,95.91-69.56.56-1.56,2.27-2.38,3.83-1.83,1.56.55,2.38,2.25,1.83,3.81-.63,1.81-16.47,44.71-99.63,73.25-3.91,1.34-8.41,2.01-13.52,2.01Z" fill="#2b2b2b"/><path d="M522.43,986.39c-.3,0-.6-.04-.89-.14l-125.2-38.93c-1.58-.5-2.46-2.18-1.96-3.76.5-1.58,2.18-2.46,3.76-1.96l.35.11,123.27,38.33,18.47-15.5c1.27-1.07,3.16-.9,4.23.37,1.07,1.27.9,3.16-.37,4.23l-19.72,16.55c-.55.46-1.23.7-1.93.7Z" fill="#2b2b2b"/><path d="M556.1,637.11c-.73,0-1.47-.27-2.04-.81-1.21-1.13-1.28-3.02-.15-4.24.4-.43,10.02-10.65,27.98-20.07,16.52-8.67,43.53-18.23,78.34-14.52,1.65.18,2.84,1.65,2.67,3.3-.18,1.65-1.67,2.84-3.3,2.67-63.57-6.77-100.92,32.33-101.29,32.72-.59.63-1.39.95-2.19.95Z" fill="#2b2b2b"/><path d="M1191.7,442.11c-1.99,0-3.91-.9-5.18-2.52-1.66-2.1-1.89-4.97-.59-7.31,20.95-37.78,94.83-161.54,166-167.9,22.11-1.98,41.96,7.6,59,28.47,14.95,18.31,18.85,37.42,11.28,55.24-13.6,32.03-63.39,56.93-123.89,61.97-33.24,2.77-61.66,14.63-82.41,23.29-8.79,3.67-16.38,6.84-22.44,8.51-.59.16-1.19.24-1.78.24ZM1357.48,270.13c-1.66,0-3.33.08-5.01.23-29.2,2.61-62.68,26.94-99.52,72.33-29.82,36.74-53.13,76.93-61.77,92.51-.05.09-.2.37.05.69.25.32.54.24.64.21h0c5.69-1.58,13.12-4.68,21.72-8.27,21.12-8.82,50.04-20.89,84.22-23.73,27.84-2.32,54.87-9.3,76.12-19.66,21.71-10.58,36.5-23.96,42.75-38.68,6.74-15.87,3.24-32.39-10.4-49.11-14.37-17.61-30.77-26.52-48.8-26.52Z" fill="#2b2b2b"/><path d="M1340.22,559.4c-14.4,0-31.11-6.58-46.41-18.72-19.5-15.48-40.44-27.42-51.04-31.21,0,0,0,0,0,0-2.22-.79-3.63-2.82-3.61-5.17.02-2.34,1.47-4.34,3.69-5.1,23.71-7.97,97.33-25.53,123.82-2.5,8.59,7.47,11.63,18.31,9.04,32.21-2.62,14.08-10.11,23.81-21.65,28.12-4.24,1.59-8.9,2.36-13.84,2.36ZM1246.29,504.39c11.12,4.33,31.25,15.71,51.25,31.59,18.91,15.01,39.76,20.92,54.41,15.44,9.46-3.54,15.63-11.7,17.85-23.6,2.21-11.83-.11-20.53-7.08-26.58-22.17-19.27-86.93-6.47-116.44,3.15Z" fill="#2b2b2b"/><path d="M1463.96,475.15c-28.31,0-71.69-30.07-73.8-31.55-.87-.61-1.35-1.63-1.27-2.68.08-1.06.71-1.99,1.66-2.46,2.5-1.24,61.46-30.22,86.49-14.14,7.72,4.96,11.44,13.47,11.06,25.28-.37,11.49-4.41,19.23-11.99,23.03-3.51,1.76-7.64,2.52-12.14,2.52ZM1397.95,441.62c18.62,12.22,58.35,34.21,75.47,25.64,5.54-2.77,8.38-8.62,8.68-17.86.31-9.69-2.41-16.25-8.31-20.04-18.43-11.84-61.51,5.8-75.85,12.26Z" fill="#2b2b2b"/><path d="M625.22,516.72c.66,2.93-.96,5.99-3.93,7.45-8.04,3.98-24.56,11.39-39.77,13.54-3,.42-6.97-.55-8.25-2.99-9.11-17.45-42.55-88.98-7.1-100.78,35.06-11.7,54.49,62.71,59.05,82.78Z"/></svg>