<?xml version="1.0" encoding="UTF-8"?><svg id="_レイヤー_26" xmlns="http://www.w3.org/2000/svg" width="2000" height="2000" viewBox="0 0 2000 2000"><path d="M1312.85,1960.49c-140.85,0-273.28-7.84-372.9-22.07-71.1-10.16-155.86-27.94-155.86-54.97,0-12.96,19.86-25.07,59.02-35.98,36.64-10.21,90.08-19.24,154.53-26.12l.37,3.48c-64.27,6.86-117.51,15.85-153.96,26.01-46.66,13-56.46,24.91-56.46,32.61,0,9.2,13.91,18.76,40.22,27.65,26.44,8.93,64.34,16.96,112.63,23.86,99.46,14.21,231.71,22.03,372.4,22.03s272.94-7.83,372.4-22.03c48.29-6.9,86.19-14.92,112.63-23.86,26.32-8.89,40.22-18.45,40.22-27.65,0-20.75-68.46-41.5-183.14-55.5l.42-3.47c69.55,8.5,186.21,27.46,186.21,58.98,0,27.03-84.76,44.81-155.86,54.97-99.62,14.23-232.05,22.07-372.9,22.07Z" fill="#2b2b2b"/><path d="M593.76,1124.44c-101.63-1.47-179.72-5.4-245.76-12.37l.37-3.48c65.93,6.95,143.92,10.88,245.44,12.35l-.05,3.5Z" fill="#2b2b2b"/><path d="M792.17,1125.01l-.02-3.5c196.29-.99,396.94-6.71,504.48-63.52l1.63,3.09c-47.96,25.34-116.92,42.39-210.82,52.14-91.8,9.53-200.78,11.3-295.28,11.78Z" fill="#2b2b2b"/><path d="M1320.72,1047.6l-1.81-3c26.87-16.19,47.65-42.08,58.53-72.89l3.3,1.16c-11.14,31.57-32.46,58.11-60.02,74.72Z" fill="#2b2b2b"/><path d="M1160.17,774.64c-12-2.9-24.39-5.59-37.86-8.23l-.31-.09c-21.37-8.55-42.62-12.33-60.6-14.89-9.46-1.26-18.86-2.74-27.68-4.16l.55-3.46c8.8,1.41,18.17,2.89,27.6,4.14,18.15,2.59,39.6,6.41,61.27,15.05,13.46,2.64,25.85,5.33,37.85,8.23l-.82,3.4Z" fill="#2b2b2b"/><path d="M427.38,742.44l-.47-3.47c95.43-12.9,173.15-19.09,244.61-19.47l.02,3.5c-71.31.38-148.89,6.56-244.16,19.44Z" fill="#2b2b2b"/><path d="M199.96,1086.04c-36.07-10.18-74.29-23.15-109.36-48.94-10.47-8.14-18.02-15.09-25.27-23.25l-.09-.11c-6.96-9.28-11.62-15.97-16.08-23.12-3.09-5.15-5.15-10.3-7.14-15.28-10.12-26.56-12.29-46.94-7.06-66.11,5.91-23.65,20.02-43.79,43.12-61.55,19.53-15.01,42.75-26.34,66.83-37.57,1.33-.66,2.39-.66,3.24-.66.68,0,1.09,0,1.72-.32,32.79-14.57,68.12-26.73,111.26-38.29l.91,3.38c-42.96,11.51-78.13,23.61-110.67,38.07-1.3.65-2.36.65-3.21.65-.68,0-1.09,0-1.72.32-42.33,19.75-94.95,44.31-108.08,96.86-5.03,18.45-2.89,38.16,6.94,63.95,1.93,4.83,3.94,9.84,6.87,14.72,4.39,7.02,8.99,13.63,15.86,22.79,7.09,7.97,14.48,14.77,24.72,22.73,34.58,25.43,72.44,38.27,108.2,48.36l-.95,3.37Z" fill="#2b2b2b"/><path d="M257.82,569.13l-.61-41.45c-.08-5.13,3.87-9.52,8.98-10l9.9-.91c5.37-.52,10.08,3.3,10.74,8.65l3.58,29.18-3.47.43-3.58-29.18c-.42-3.46-3.48-5.9-6.94-5.59l-9.9.91c-3.3.31-5.85,3.15-5.8,6.47l.61,41.45-3.5.05Z" fill="#2b2b2b"/><path d="M210.97,634.49l-16.09-18c-3.26-3.65-3.39-9.05-.3-12.84,1.78-2.19,4.42-3.52,7.25-3.65,2.16-.1,4.33.54,6.12,1.79l15.39,10.8-2.01,2.87-15.39-10.8c-1.17-.82-2.54-1.21-3.95-1.16-1.83.08-3.54.94-4.69,2.36-2,2.45-1.91,5.94.19,8.3l16.09,18-2.61,2.33Z" fill="#2b2b2b"/><path d="M238.12,878.63c-3.94,0-7.43-2.27-9.04-5.93-1.71-3.9-.8-8.3,2.32-11.21l20.13-18.78c1.19-1.1,1.91-2.61,2.02-4.24l4.94-71.81,3.49.24-4.94,71.81c-.17,2.53-1.28,4.86-3.13,6.56l-20.12,18.78c-2.45,2.28-2.38,5.24-1.5,7.24.88,2.01,3.01,4.07,6.35,3.82l111.67-8.47c3.2-.24,5.01-2.47,5.63-4.48.62-2.01.4-4.88-2.11-6.89l-22.75-18.26c-1.98-1.59-3.26-3.84-3.61-6.34l-6.03-43.01,3.47-.49,6.03,43.01c.22,1.59,1.07,3.08,2.33,4.09l22.75,18.26c3.24,2.6,4.49,6.68,3.26,10.65-1.23,3.97-4.57,6.62-8.71,6.93l-111.67,8.47c-.26.02-.52.03-.78.03Z" fill="#2b2b2b"/><path d="M199.62,753.45c-5.66,0-11.28-.33-16.84-.98-9.86-1.16-20.1-6.67-31.3-16.82-7.68-6.96-13.93-15.98-18.59-26.81-1.08-2.5-2.09-5.16-3.03-7.91-.11-.32-.2-.61-.28-.86-.05-.16-.11-.35-.16-.49-.15-.02-.38-.03-.75-.04-.81-.02-1.64.02-2.52.06-.65.03-1.3.06-1.94.07-6.75.08-13.32-.35-19.52-1.3-24.54-3.74-44.25-16.12-57-35.8-13.87-21.41-19.43-50.18-14.17-73.31,2.55-11.21,8.02-22.1,16.73-33.29,8.36-10.74,16.67-18.82,25.35-24.64-6.94-10.26-10.05-23.81-9.22-40.33,1.33-26.67,10.57-51.3,26.03-69.35,17.6-20.56,43.03-33.12,66.83-33.13-2.02-21.2,10.54-43.34,23.28-57.26,23.34-25.51,62.38-38.61,99.43-33.39,18.5,2.61,35.87,11.01,50.22,24.29,13.79,12.76,23.53,28.82,28.24,46.53,23.8-3.07,48.77,4.17,74.23,21.54l.09.06c9.17,7.13,15.38,15.31,19.55,25.73,2.42,5.53,4.23,11.38,5.37,17.35l-3.44.65c-1.09-5.71-2.82-11.31-5.16-16.65-3.94-9.86-9.79-17.56-18.43-24.29-25.25-17.21-49.91-24.18-73.26-20.72l-1.57.23-.38-1.54c-8.95-36.01-40.18-64.68-75.95-69.72-35.95-5.07-73.77,7.6-96.36,32.28-12.61,13.77-25.05,35.83-22.16,56.43l.29,2.05-2.07-.06c-23.34-.69-48.66,11.52-66.09,31.88-14.95,17.46-23.9,41.35-25.19,67.25-.82,16.51,2.41,29.83,9.61,39.59l1.11,1.51-1.58,1.01c-8.9,5.66-17.41,13.79-26.01,24.84-8.39,10.77-13.64,21.21-16.08,31.92-5.06,22.25.32,49.97,13.7,70.63,12.19,18.81,31.06,30.65,54.59,34.24,6.01.92,12.38,1.35,18.95,1.26.6,0,1.21-.04,1.82-.06.9-.04,1.82-.08,2.75-.07,2.78.06,3.51.84,4.18,2.99.07.23.15.48.25.77.9,2.66,1.89,5.24,2.93,7.65,4.46,10.37,10.42,18.98,17.73,25.6,10.65,9.65,20.25,14.86,29.36,15.93,13.09,1.55,26.54,1.22,39.99-.95,3.34-.54,6.74-1.21,10.1-1.99l.79,3.41c-3.44.79-6.91,1.48-10.33,2.03-8.06,1.31-16.13,1.96-24.12,1.96Z" fill="#2b2b2b"/><path d="M448.29,653.13c-.47-2.69,1.39-4.23,2.5-5.14.22-.18.44-.36.61-.53l.38-.38.53-.1c35.37-6.85,53.21-39.85,60.7-58.92,6.22-17.1,7.89-35.96,4.7-53.07l3.44-.64c3.31,17.71,1.58,37.22-4.87,54.95-7.73,19.69-26.14,53.66-62.82,61.02-.14.12-.29.24-.44.37-1.07.88-1.39,1.25-1.28,1.84l-3.45.61Z" fill="#2b2b2b"/><path d="M989.54,779.88l-3.42-.75c2.4-10.91,4.32-21.89,6.34-33.51,1.94-11.15,3.95-22.68,6.43-34.11,0-2.65-.02-5.35-.78-6.96-6.39-10.03-13.3-19.15-19.98-27.97-7.83-10.34-15.93-21.03-23-32.99l-.15-.34c-1.27-3.8,1.03-7.69,3.88-9.12l.37-.18h.41c.55,0,1.18-.11,1.78-.22,1.36-.24,3.04-.54,4.31.59,7.09,4.75,12.55,10.26,17.83,15.59,3.77,3.81,7.67,7.74,12.19,11.44,1.5,1.2,2.32.92,2.59.83,1.36-.46,2.82-2.84,3.58-5.8,1.26-10.13,2-20.06,2.72-29.66.96-12.96,1.96-26.36,4.26-40.18.06-1.7,1.02-2.88,1.73-3.75.38-.47.75-.91.86-1.29l3.34,1.04c-.32,1.03-.95,1.8-1.5,2.47-.6.74-.95,1.18-.95,1.69l-.02.29c-2.29,13.71-3.28,27.07-4.24,39.99-.72,9.68-1.47,19.68-2.75,29.94l-.04.21c-.41,1.64-2.04,7.08-5.88,8.37-1.32.45-3.42.56-5.91-1.43-4.67-3.82-8.64-7.82-12.47-11.69-5.43-5.48-10.55-10.65-17.4-15.22l-.19-.15c-.28-.04-.98.09-1.45.17-.58.1-1.22.22-1.9.25-1.21.79-2.39,2.72-1.88,4.55,6.94,11.71,14.58,21.8,22.67,32.48,6.74,8.9,13.71,18.1,20.19,28.29l.09.16c1.18,2.37,1.18,5.63,1.18,8.78l-.04.37c-2.48,11.42-4.49,22.98-6.44,34.15-2.03,11.66-3.95,22.68-6.37,33.67Z" fill="#2b2b2b"/><path d="M984.42,804.46l-3.42-.73c.76-3.56,1.51-7.11,2.26-10.67l3.43.72c-.75,3.56-1.5,7.13-2.26,10.69Z" fill="#2b2b2b"/><path d="M1033.74,804.14c-.25-10.48-.43-21.08-.6-31.33-.41-24.29-.83-49.41-2.24-74.02,0-2.46,1.09-5.71,2.18-7.88,6.25-11.37,14.14-21.21,21.76-30.72,5.96-7.44,12.13-15.13,17.41-23.43l2.95,1.88c-5.38,8.46-11.61,16.23-17.63,23.74-7.53,9.4-15.32,19.12-21.4,30.16-.85,1.7-1.78,4.48-1.78,6.16,1.41,24.58,1.83,49.74,2.24,74.06.17,10.25.35,20.84.6,31.3l-3.5.08Z" fill="#2b2b2b"/><path d="M1036.13,653.36c-.92,0-1.86-.17-2.77-.51-3.01-1.14-4.97-3.97-4.98-7.19l-.08-18.78h3.5s.08,18.76.08,18.76c0,2.14,1.41,3.44,2.73,3.93,1.31.5,3.22.46,4.65-1.13l14.12-15.75,2.61,2.34-14.12,15.75c-1.5,1.68-3.59,2.58-5.73,2.58Z" fill="#2b2b2b"/><path d="M964.34,746.69l-.08-3.5c15.98-.34,27.51-4.12,30.1-9.86.28-.63.45-1.29.5-1.96l3.49.26c-.08,1.08-.35,2.13-.8,3.13-3.2,7.09-15.61,11.54-33.22,11.92Z" fill="#2b2b2b"/><path d="M1122.13,487.03c-6.24-2.85-12.95-3.44-20.06-4.07-1.87-.17-3.75-.33-5.63-.54l-1.47-.16-.09-1.47c-.03-.48-3.26-47.94-42-55.56-18.1-3.56-41.45-6.45-61.45,2.84-10.95,5.09-20.41,12.5-27.34,21.45l-2.77-2.14c7.27-9.39,17.18-17.17,28.63-22.49,20.92-9.71,44.98-6.76,63.6-3.1,37.37,7.34,43.77,48.87,44.68,57.3,1.38.14,2.76.26,4.14.38,7.09.62,14.41,1.27,21.2,4.37l-1.45,3.18Z" fill="#2b2b2b"/><path d="M1077.92,732.39c-16.52,0-32.82-3.68-44.97-7.35l1.01-3.35c27.58,8.33,77.17,16.78,99.39-20.19l3,1.8c-13.46,22.4-36.14,29.08-58.42,29.08Z" fill="#2b2b2b"/><path d="M1580.53,1009.09l-.61-7.98c222.68-17.15,397.12-205.75,397.12-429.37,0-237.46-193.19-430.66-430.66-430.66s-430.66,193.19-430.66,430.66c0,182.3,115.44,345.54,287.25,406.2l-2.66,7.54c-42.18-14.89-81.75-36.14-117.63-63.17-35.49-26.73-66.64-58.57-92.58-94.62-53.89-74.88-82.38-163.39-82.38-255.95,0-59.22,11.6-116.66,34.47-170.75,22.09-52.24,53.72-99.15,94.01-139.43s87.2-71.91,139.43-94.01c54.08-22.88,111.53-34.47,170.75-34.47s116.66,11.6,170.75,34.47c52.24,22.09,99.15,53.72,139.43,94.01s71.91,87.2,94.01,139.43c22.88,54.08,34.47,111.53,34.47,170.75,0,111.22-41.69,217.29-117.39,298.68-75.3,80.96-177.27,130.21-287.12,138.67Z" fill="#2b2b2b"/><path d="M1523.12,1496.12c-1.13,0-2.21-.64-2.72-1.73-.7-1.5-.05-3.29,1.45-3.99l52.22-24.38c1.5-.7,3.29-.05,3.99,1.45.7,1.5.05,3.29-1.45,3.99l-52.22,24.38c-.41.19-.84.28-1.27.28Z" fill="#2b2b2b"/><path d="M1457.4,1513.28c-3.6,0-5.36-.45-5.81-.58-1.59-.48-2.49-2.15-2.01-3.74.47-1.57,2.12-2.47,3.69-2.02.3.07,12.07,2.76,45.95-9.37,1.53-.54,3.11-1.11,4.71-1.61,1.58-.49,3.26.39,3.76,1.97.49,1.58-.39,3.26-1.97,3.76-1.49.46-2.94.98-4.48,1.53-23.58,8.45-37.02,10.06-43.85,10.06Z" fill="#2b2b2b"/><path d="M1527.05,1531.62c-1.1,0-2.17-.61-2.69-1.67-.74-1.48-.13-3.28,1.36-4.02l46.32-22.93c1.49-.73,3.28-.13,4.02,1.36.74,1.48.13,3.28-1.36,4.02l-46.32,22.93c-.43.21-.88.31-1.33.31Z" fill="#2b2b2b"/><path d="M1450.9,1551.47c-.55,0-.87-.01-.96-.02-1.66-.07-2.94-1.48-2.86-3.13.07-1.65,1.48-2.92,3.12-2.86h0c.2.01,19.83.63,54.82-12.99,1.54-.6,3.28.17,3.88,1.71.6,1.54-.16,3.28-1.71,3.88-32.37,12.59-51.84,13.41-56.3,13.41Z" fill="#2b2b2b"/><path d="M1487.66,1284.27c-1.22,0-2.37-.75-2.82-1.96-8.54-23.18-16.92-43.43-33.13-56.61-2.75-2.24-5.72-4.26-8.83-6-1.44-.81-1.96-2.64-1.15-4.08.81-1.44,2.64-1.96,4.08-1.15,3.41,1.92,6.66,4.13,9.68,6.58,17.38,14.14,26.12,35.17,34.97,59.19.57,1.55-.22,3.28-1.78,3.85-.34.13-.69.19-1.04.19Z" fill="#2b2b2b"/><path d="M1329.64,1264.23c-.37,0-.74-.07-1.1-.21-1.54-.61-2.3-2.35-1.69-3.89.69-1.74,17.23-42.79,55.26-53.87,1.59-.46,3.26.45,3.72,2.04s-.45,3.26-2.04,3.72c-35.16,10.24-51.2,49.91-51.36,50.31-.47,1.18-1.6,1.9-2.79,1.9Z" fill="#2b2b2b"/><path d="M1456.99,1279.36c-1.29,0-2.48-.84-2.87-2.13-.06-.21-6.46-21-19.6-36.3-5.31-6.17-11-10.62-16.92-13.24-1.52-.67-2.2-2.44-1.53-3.96.67-1.52,2.44-2.2,3.96-1.53,6.74,2.98,13.15,7.97,19.04,14.82,13.99,16.28,20.53,37.57,20.8,38.47.48,1.59-.42,3.26-2,3.74-.29.09-.58.13-.87.13Z" fill="#2b2b2b"/><path d="M1356.69,1269.7c-.31,0-.63-.05-.94-.15-1.57-.52-2.43-2.21-1.91-3.79l.06-.17c1.21-3.62,12.55-35.76,37.47-44.56,1.56-.55,3.28.27,3.83,1.83.55,1.56-.27,3.28-1.83,3.83-22.61,7.98-33.33,39.47-33.78,40.81l-.05.15c-.42,1.26-1.59,2.06-2.85,2.06Z" fill="#2b2b2b"/><path d="M1598.87,1858.82c-1.12,0-2.2-.63-2.71-1.71-.71-1.5-.08-3.29,1.42-4l34.49-16.42c27.67-13.17,42.58-41.2,53.51-66.88,96.03-225.56,10.35-433.9-18.2-492.38-1.39-2.85-2.74-5.54-4-8-17.71-33.22-50.33-50.46-74.58-59.07-26.49-9.41-49.07-10.86-49.29-10.87-.14,0-.28-.03-.42-.05-37.78-7.67-68.53,13.12-83.5,26.19-.02.02-.05.04-.07.06-.07.06-.15.12-.22.17-1.33.99-3.21.71-4.2-.62-.96-1.3-.72-3.12.53-4.13,0,0,.02-.01.03-.02,15.78-13.78,48.22-35.65,88.42-27.58,2.54.17,24.39,1.87,50.57,11.14,36.29,12.85,63.27,34.28,78.05,62,1.3,2.54,2.67,5.26,4.08,8.15,16.82,34.46,46.78,106.38,58.36,200.82,12.8,104.32-.67,204.09-40.03,296.54-11.38,26.72-26.98,55.92-56.45,69.95l-34.49,16.42c-.42.2-.86.29-1.29.29Z" fill="#2b2b2b"/><path d="M1416.63,1276.33c-.29,0-.59-.04-.89-.14-1.58-.49-2.47-2.17-1.98-3.75.21-.68,5.31-16.83,20.59-35.27,1.06-1.28,2.95-1.45,4.22-.4,1.28,1.06,1.45,2.95.4,4.22-14.47,17.46-19.43,33.06-19.48,33.21-.4,1.28-1.59,2.11-2.86,2.11Z" fill="#2b2b2b"/><path d="M1601.13,1725.68c-.65,0-1.3-.21-1.85-.64-1.31-1.02-1.54-2.91-.52-4.21,33.42-42.75,48.09-131.47,39.24-237.32-8.14-97.33-34.31-182.13-65.1-211.01-1.21-1.13-1.27-3.03-.14-4.24,1.13-1.21,3.03-1.27,4.24-.14,31.8,29.82,58.72,116.18,66.98,214.89,8.98,107.32-6.16,197.6-40.49,241.51-.59.76-1.47,1.15-2.37,1.15Z" fill="#2b2b2b"/><path d="M1527.67,1287.8c-1.17,0-2.28-.69-2.77-1.84-.64-1.53.07-3.29,1.6-3.93.21-.09,21.29-8.92,47.48-15.54,33.14-8.39,77.04-13.88,97.96,7.67,1.15,1.19,1.13,3.09-.06,4.24-1.19,1.16-3.09,1.13-4.24-.06-18.92-19.49-60.57-14.03-92.18-6.03-25.72,6.51-46.41,15.17-46.62,15.26-.38.16-.77.24-1.16.24Z" fill="#2b2b2b"/><path d="M1274.52,1257.71c-1.23,0-2.38-.76-2.82-1.98l-17.06-47.2c-2.72-7.52-2.07-15.78,1.8-22.65,3.94-7,10.83-11.94,18.91-13.57,32.38-6.5,64.92-5.91,86.51-4.27,1.65.12,2.89,1.57,2.76,3.22-.12,1.65-1.57,2.88-3.22,2.76-21.22-1.61-53.16-2.19-84.87,4.17-6.36,1.28-11.78,5.15-14.86,10.62-3.05,5.42-3.54,11.7-1.38,17.66l17.06,47.2c.56,1.56-.24,3.28-1.8,3.84-.34.12-.68.18-1.02.18Z" fill="#2b2b2b"/><path d="M1386.44,1272.53c-.13,0-.26,0-.39-.03-1.64-.21-2.8-1.72-2.59-3.36l5.97-45.91c.25-1.64,1.78-2.76,3.41-2.52,1.64.25,2.77,1.78,2.52,3.41l-.03.17-5.93,45.62c-.2,1.51-1.49,2.61-2.97,2.61Z" fill="#2b2b2b"/><path d="M1228.04,1254.21c-.16,0-.31-.01-.47-.04-1.63-.26-2.75-1.79-2.49-3.42,0-.02,0-.03,0-.05.55-3.32,12.91-75.83,50.64-78.44,1.66-.11,3.09,1.13,3.2,2.79.11,1.65-1.13,3.09-2.79,3.2-33.1,2.29-45.02,72.72-45.14,73.43-.24,1.47-1.52,2.53-2.96,2.53Z" fill="#2b2b2b"/><path d="M1265.14,1925.72c-1.54,0-2.85-1.18-2.99-2.74l-1.8-20.59c-.14-1.65,1.08-3.11,2.73-3.25,1.65-.15,3.11,1.08,3.25,2.73l1.8,20.59c.14,1.65-1.08,3.11-2.73,3.25-.09,0-.18.01-.26.01Z" fill="#2b2b2b"/><path d="M1307.99,1932.6c-1.49,0-2.79-1.11-2.97-2.63l-2.69-21.9c-.2-1.64.97-3.14,2.61-3.34,1.64-.21,3.14.97,3.34,2.61l2.69,21.9c.2,1.64-.97,3.14-2.61,3.34-.12.02-.25.02-.37.02Z" fill="#2b2b2b"/><path d="M1054.86,1892.28c-1.02,0-2.02-.52-2.58-1.46l-.16-.25c-7.07-11.18-5.11-24.26-5.02-24.82.26-1.64,1.8-2.76,3.43-2.5,1.63.26,2.75,1.79,2.5,3.42-.02.16-1.66,11.47,4.2,20.74l-2.46,1.73,2.51-1.64c.05.08.1.16.15.24.85,1.42.38,3.26-1.04,4.11-.48.29-1.01.42-1.53.42Z" fill="#2b2b2b"/><path d="M1087.31,1897.8c-.81,0-1.61-.32-2.21-.96-5.52-5.98-4.1-22.23-3.76-25.43.17-1.65,1.66-2.85,3.3-2.67,1.65.17,2.84,1.65,2.67,3.3-.72,6.83-.52,17.78,2.2,20.72,1.12,1.22,1.05,3.12-.17,4.24-.58.53-1.31.8-2.03.8Z" fill="#2b2b2b"/><path d="M1369.94,1919.46c-10.28,0-17.67-1.04-18.42-1.16l-283.02-46.87c-8.17-1.43-13.96-2.51-18.78-3.52-16.22-3.38-24.24-6.45-31.77-12.19-1.2-.91-2.38-1.88-3.58-2.95-17.95-15.89-19.95-36.51-20.11-38.59-12.73-85.29,7.59-277.87,16.92-356.74,4.87-41.16,17.4-80.12,37.26-115.8,30.59-54.95,65.28-78.68,89-88.92,25.97-11.21,44.51-9.24,45.29-9.14l334.57,38.34c3.57.41,7.13.94,10.58,1.58,1.99.38,3.75.75,5.39,1.13,21.28,4.86,38.07,14.11,49.89,27.5,13.49,15.28,20.11,35.6,19.7,60.42v.05c.04.77.07,1.54.09,2.33l1.52,463.76c.3,1.85,1.06,9.73-5.72,18.9-6.34,8.57-17.29,15.74-32.56,21.32-1.55.57-3.28-.23-3.85-1.79-.57-1.56.23-3.28,1.79-3.85,14.15-5.17,24.17-11.65,29.8-19.25,5.86-7.94,4.67-14.17,4.61-14.43-.04-.2-.07-.43-.07-.63l-1.52-463.94c-.02-.68-.05-1.43-.09-2.18v-.13c0-.06,0-.12,0-.18.96-55.36-34.79-75.18-64.94-82.06-1.58-.37-3.25-.72-5.15-1.08-3.31-.61-6.73-1.12-10.16-1.52l-334.57-38.34c-.17-.02-18.03-1.85-42.62,8.86-22.76,9.91-56.11,32.91-85.75,86.16-19.47,34.99-31.77,73.2-36.54,113.58-9.31,78.66-29.59,270.75-16.93,355.26.01.08.02.17.03.26.01.19,1.51,19.91,18.11,34.61,1.09.97,2.15,1.84,3.24,2.67,6.72,5.12,14.13,7.92,29.36,11.09,4.76.99,10.48,2.07,18.56,3.48l282.94,46.85c.39.06,44.93,6.31,68.8-12.85,8.91-7.15,13.89-17.1,14.8-29.58.58-8,1.99-21.36,2.4-25.26,3.24-29.96,3.55-79.38,3.9-136.61.31-49.76.66-106.16,3.07-159.82,1.27-28.34,2.98-53.2,5.24-75.99.16-1.65,1.63-2.85,3.28-2.69,1.65.16,2.85,1.63,2.69,3.28-2.25,22.68-3.95,47.43-5.22,75.66-2.4,53.55-2.75,109.89-3.06,159.59-.36,57.39-.66,106.95-3.94,137.21-.42,3.88-1.81,17.14-2.38,25.05-1.04,14.21-6.77,25.59-17.04,33.83-15.82,12.69-38.96,15.24-55.05,15.24Z" fill="#2b2b2b"/><path d="M1453.66,1475.45c-.1,0-.2,0-.3-.01-1.65-.16-2.85-1.63-2.69-3.28,5.99-60.38,15.61-102.48,29.38-128.72,7.67-14.61,16.81-24.34,27.17-28.94.19-.09.39-.15.6-.19,1.38-.29,2.79-.6,4.21-.91l.64-.14c5.35-1.18,10.89-2.4,16.34-3.04,1.64-.19,3.14.98,3.33,2.63.19,1.65-.99,3.14-2.63,3.33-5.16.6-10.54,1.79-15.75,2.94l-.64.14c-1.33.3-2.65.58-3.96.86-8.98,4.09-17.05,12.87-24.01,26.12-13.41,25.54-22.81,66.92-28.72,126.52-.15,1.55-1.46,2.7-2.98,2.7Z" fill="#2b2b2b"/><path d="M1397.29,1945.43c-11.4,0-25.13-.97-40.1-4.03l-294.5-47.47c-2.99-.48-5.97-1.17-8.86-2.04-10.94-3.3-20.42-9.25-27.4-17.21-5.68-6.47-9.06-13.32-10.04-20.38-.23-1.64.92-3.16,2.56-3.39,1.64-.23,3.16.92,3.39,2.56.82,5.87,3.71,11.67,8.61,17.25,6.25,7.11,14.76,12.45,24.63,15.42,2.64.79,5.36,1.42,8.08,1.86l294.56,47.48s.08.01.12.02c37.06,7.59,66.95,1.82,70.2,1.14l121.86-56.17s.1-.04.15-.06c3.9-1.55,7.36-3.79,10.26-6.67,13.32-13.15,11.97-35.95,11.96-36.18,0-.06,0-.13,0-.2l-.41-368.63c0-.09,0-.18.01-.26,4.42-50.91,3.44-88.22-3-114.08-2.02-8.12-4.64-15.2-7.79-21.05-2.28-4.22-4.79-7.81-7.67-10.95-5.19-5.66-12.63-7.58-24.13-6.23-1.66.19-3.14-.99-3.33-2.63-.19-1.65.98-3.14,2.63-3.33,8.45-.99,20.67-1.22,29.25,8.14,3.23,3.51,6.02,7.49,8.54,12.16,3.43,6.38,6.15,13.73,8.32,22.45,6.59,26.49,7.63,64.4,3.16,115.91l.41,368.4c.12,2.05,1.22,25.99-13.74,40.74-3.46,3.42-7.56,6.1-12.19,7.94l-122.09,56.27c-.19.09-.39.15-.59.2-.83.19-13.51,2.99-32.85,2.99Z" fill="#2b2b2b"/><path d="M1511.85,1541.37c-2.2,0-4.46-.61-6.75-2.01-.84-.52-1.38-1.42-1.43-2.41l-.08-1.56-1.77-36.42c-.04-.79.23-1.55.76-2.14,9.41-10.56,18.33-7.84,21.72-6.18,1.36.66,2.19,1.31,2.34,1.44.67.55,1.07,1.36,1.09,2.22l1.03,33.63c.02.55-.13,1.11-.4,1.59,0,0-.12.22-.36.58-3.87,6.01-9.72,11.25-16.16,11.25ZM1509.58,1534.9c5.98,2.17,11.58-5.33,13.17-7.7l-.96-31.1s-.07-.04-.11-.05c-2.59-1.27-7.72-2.36-13.8,3.89l1.69,34.96Z" fill="#2b2b2b"/><path d="M1531.96,1623.02c-.17,0-.34-.01-.51-.04l-33.35-5.74c-1.58-.27-2.67-1.74-2.47-3.34l9.47-74.41c.17-1.3,1.16-2.35,2.46-2.58l18.22-3.2c.85-.15,1.72.07,2.39.61.67.54,1.08,1.33,1.13,2.19l2.28,44.23,14.59,14.99c.92.94,1.11,2.37.49,3.52l-12.05,22.19c-.53.98-1.55,1.57-2.64,1.57ZM1501.95,1611.82l28.4,4.88,9.97-18.36-13.83-14.21c-.51-.52-.81-1.21-.85-1.94l-2.16-41.97-12.7,2.23-8.83,69.37Z" fill="#2b2b2b"/><path d="M1367,1793.16c-1.31,0-2.11-.08-2.14-.09-.05,0-3.18-.42-8.8-1.16-.96-.13-1.63-1-1.51-1.96.13-.96,1.01-1.63,1.96-1.51,5.55.73,8.67,1.14,8.76,1.15t0,0s.66.06,1.73.06c3.8,0,13.44-.78,20.95-7.98.7-.67,1.8-.65,2.47.05.67.7.65,1.8-.05,2.47-8.42,8.08-19.15,8.95-23.37,8.95ZM1344.35,1790.37c-.08,0-.15,0-.23-.01-9.24-1.21-21.14-2.75-34.79-4.51-.96-.12-1.64-1-1.51-1.96.12-.96,1-1.64,1.96-1.51,13.65,1.76,25.55,3.31,34.79,4.51.96.12,1.63,1,1.51,1.96-.12.88-.87,1.52-1.73,1.52ZM1297.63,1784.32c-.07,0-.15,0-.23-.01-10.89-1.4-22.61-2.89-34.78-4.43-.96-.12-1.64-1-1.52-1.96.12-.96,1-1.64,1.96-1.52,12.18,1.54,23.9,3.04,34.79,4.43.96.12,1.64,1,1.51,1.96-.11.88-.87,1.53-1.73,1.53ZM1250.92,1778.38c-.07,0-.15,0-.22-.01-11.42-1.44-23.11-2.89-34.79-4.33-.96-.12-1.64-.99-1.52-1.95.12-.96,1-1.64,1.95-1.52,11.68,1.44,23.38,2.9,34.8,4.33.96.12,1.64,1,1.52,1.96-.11.88-.87,1.53-1.73,1.53ZM1395.95,1774.91c-.24,0-.48-.05-.72-.15-.88-.4-1.27-1.43-.88-2.31,2.58-5.74,3.89-12.87,3.89-21.19,0-3.31-.21-6.86-.62-10.56,0-.06-.01-.13-.01-.19,0,0,.03-.63.09-1.86.05-.97.87-1.7,1.84-1.66.97.05,1.71.87,1.66,1.84l-.08,1.62c.41,3.78.62,7.41.62,10.8,0,8.82-1.41,16.44-4.19,22.63-.29.65-.93,1.03-1.6,1.03ZM1204.19,1772.58c-.07,0-.14,0-.21-.01-12.48-1.53-24.19-2.94-34.8-4.19-.96-.11-1.65-.98-1.53-1.94.11-.96.98-1.64,1.94-1.53,10.62,1.26,22.33,2.67,34.82,4.19.96.12,1.64.99,1.52,1.95-.11.89-.86,1.54-1.73,1.54ZM1157.44,1766.99c-.07,0-.14,0-.21-.01-13.02-1.52-24.74-2.84-34.84-3.93-.96-.1-1.66-.97-1.55-1.93.1-.96.96-1.65,1.93-1.55,10.1,1.09,21.83,2.41,34.87,3.93.96.11,1.65.98,1.54,1.94-.1.89-.86,1.55-1.74,1.55ZM1110.62,1761.8c-.06,0-.12,0-.18,0-3.56-.37-6.93-.7-10.1-1.01-8.81-.85-17.13-2.09-24.74-3.71-.95-.2-1.55-1.13-1.35-2.08.2-.95,1.13-1.55,2.08-1.35,7.48,1.59,15.67,2.82,24.35,3.65,3.17.31,6.55.64,10.12,1.01.96.1,1.66.96,1.56,1.92-.09.9-.85,1.57-1.74,1.57ZM1064.34,1754.2c-.16,0-.33-.02-.49-.07-13-3.79-23.76-8.91-31.98-15.22-.77-.59-.91-1.69-.32-2.45.59-.77,1.68-.92,2.45-.32,7.88,6.04,18.25,10.96,30.83,14.63.93.27,1.46,1.24,1.19,2.17-.22.76-.92,1.26-1.68,1.26ZM1024.28,1731.02c-.51,0-1.01-.22-1.35-.64-5.6-6.8-6.6-12.06-6.64-12.28-.02-.12-.03-.25-.03-.37,0-.08.27-8.34.83-21.95.04-.96.86-1.74,1.82-1.67.97.04,1.72.86,1.68,1.82-.52,12.37-.78,20.31-.82,21.7.21.84,1.41,5.11,5.87,10.53.61.75.51,1.85-.24,2.46-.33.27-.72.4-1.11.4ZM1400.1,1728.47s-.06,0-.1,0c-.97-.05-1.7-.88-1.65-1.84.6-10.94,1.28-22.71,2.02-35,.06-.96.89-1.7,1.85-1.64.96.06,1.7.89,1.64,1.85-.74,12.28-1.42,24.05-2.02,34.98-.05.93-.82,1.65-1.75,1.65ZM1019.36,1685.58s-.05,0-.08,0c-.97-.04-1.71-.86-1.67-1.83.52-11.64,1.11-23.43,1.74-35.05.05-.96.88-1.7,1.84-1.65.96.05,1.71.88,1.65,1.84-.63,11.61-1.21,23.39-1.74,35.02-.04.94-.82,1.67-1.75,1.67ZM1402.85,1681.49s-.07,0-.11,0c-.96-.06-1.7-.89-1.64-1.85.71-11.54,1.46-23.31,2.23-34.97.06-.96.89-1.69,1.86-1.63.96.06,1.69.9,1.63,1.86-.77,11.66-1.52,23.42-2.23,34.95-.06.93-.83,1.64-1.74,1.64ZM1021.77,1638.53s-.07,0-.1,0c-.96-.06-1.7-.88-1.65-1.85.68-11.91,1.42-23.69,2.19-35.01.07-.96.91-1.7,1.86-1.63.96.07,1.69.9,1.63,1.86-.77,11.31-1.5,23.08-2.19,34.98-.05.93-.83,1.65-1.75,1.65ZM1405.88,1634.54s-.08,0-.12,0c-.96-.06-1.69-.9-1.63-1.86.78-11.64,1.59-23.39,2.41-34.95.07-.96.92-1.71,1.87-1.62.96.07,1.69.91,1.62,1.87-.82,11.55-1.63,23.3-2.41,34.93-.06.92-.83,1.63-1.74,1.63ZM1024.79,1591.55s-.08,0-.13,0c-.96-.07-1.69-.91-1.62-1.87.86-12.06,1.78-23.82,2.73-34.97.08-.96.92-1.67,1.89-1.6.96.08,1.68.93,1.6,1.89-.95,11.13-1.87,22.88-2.73,34.93-.07.92-.83,1.62-1.74,1.62ZM1409.15,1587.62s-.09,0-.13,0c-.96-.07-1.69-.91-1.62-1.87.85-11.73,1.73-23.48,2.6-34.93.07-.96.92-1.68,1.88-1.61.96.07,1.69.92,1.61,1.88-.88,11.45-1.75,23.19-2.6,34.92-.07.92-.83,1.62-1.74,1.62ZM1028.58,1544.6c-.05,0-.11,0-.16,0-.96-.09-1.67-.94-1.58-1.9,1.11-12.29,2.29-24.04,3.5-34.92.11-.96.97-1.67,1.93-1.55.96.11,1.65.97,1.55,1.93-1.2,10.85-2.38,22.58-3.49,34.85-.08.91-.85,1.59-1.74,1.59ZM1412.68,1540.73s-.09,0-.14,0c-.96-.08-1.68-.92-1.61-1.88.92-11.72,1.86-23.47,2.81-34.92.08-.96.93-1.68,1.89-1.6.96.08,1.68.92,1.6,1.89-.95,11.44-1.89,23.18-2.81,34.9-.07.92-.84,1.61-1.74,1.61ZM1033.45,1497.78c-.07,0-.14,0-.21-.01-.96-.12-1.64-.99-1.53-1.95,1.52-12.67,3.12-24.37,4.77-34.8.15-.95,1.05-1.61,2-1.46.95.15,1.61,1.05,1.46,2-1.64,10.39-3.23,22.05-4.75,34.67-.11.89-.86,1.54-1.73,1.54ZM1416.49,1493.86s-.1,0-.15,0c-.96-.08-1.68-.93-1.6-1.89.99-11.76,2.01-23.5,3.03-34.9.09-.96.94-1.68,1.9-1.59.96.09,1.67.94,1.59,1.9-1.02,11.39-2.04,23.12-3.03,34.88-.08.91-.84,1.6-1.74,1.6ZM1040.19,1451.18c-.1,0-.2,0-.31-.03-.95-.17-1.59-1.08-1.42-2.03,1.56-8.81,3.2-16.74,4.86-23.57.87-3.59,1.82-7.21,2.81-10.78.26-.93,1.22-1.48,2.15-1.22.93.26,1.48,1.22,1.22,2.15-.98,3.53-1.92,7.12-2.78,10.66-1.64,6.76-3.26,14.62-4.81,23.36-.15.85-.89,1.44-1.72,1.44ZM1420.6,1447.01c-.05,0-.11,0-.16,0-.96-.09-1.67-.94-1.58-1.9.63-6.92,1.28-13.87,1.94-20.84.64-4.24,1.38-9.07,2.19-14.04.16-.95,1.06-1.6,2.01-1.45.95.16,1.6,1.05,1.45,2.01-.81,4.95-1.55,9.77-2.18,13.91-.65,6.87-1.29,13.82-1.93,20.73-.08.91-.85,1.59-1.74,1.59ZM1051.24,1405.49c-.18,0-.35-.03-.53-.08-.92-.29-1.43-1.28-1.14-2.2,3.53-11.14,7.68-22.22,12.33-32.94.39-.89,1.42-1.29,2.3-.91.89.39,1.29,1.42.91,2.3-4.61,10.6-8.71,21.57-12.21,32.6-.24.75-.93,1.22-1.67,1.22ZM1426.74,1400.42c-.1,0-.21,0-.31-.03-.95-.17-1.58-1.08-1.41-2.03,2.39-13.14,4.95-24.36,7.85-34.29.27-.93,1.24-1.46,2.17-1.19.93.27,1.46,1.24,1.19,2.17-2.86,9.82-5.4,20.92-7.76,33.94-.15.85-.89,1.44-1.72,1.44ZM1068.49,1361.81c-.25,0-.51-.05-.75-.17-.87-.42-1.24-1.46-.82-2.33,5.09-10.65,10.75-21.05,16.82-30.9.51-.82,1.59-1.08,2.41-.57.82.51,1.08,1.58.57,2.41-6.01,9.74-11.61,20.03-16.64,30.57-.3.63-.93,1-1.58,1ZM1438.21,1354.88c-.19,0-.39-.03-.58-.1-.91-.32-1.39-1.32-1.07-2.23,4.42-12.52,9.51-22.91,15.56-31.75.55-.8,1.63-1,2.43-.46.8.55,1,1.63.46,2.43-5.88,8.59-10.83,18.71-15.15,30.94-.25.72-.93,1.17-1.65,1.17ZM1091.72,1320.98c-.34,0-.67-.1-.97-.3-.8-.54-1.02-1.63-.48-2.43,6.74-10.03,13.93-19.44,21.37-27.98.64-.73,1.74-.8,2.47-.17.73.63.8,1.74.17,2.47-7.35,8.43-14.45,17.72-21.1,27.63-.34.5-.89.77-1.45.77ZM1460.97,1314.1c-.42,0-.84-.15-1.17-.45-.72-.65-.77-1.75-.13-2.47,2.55-2.82,5.27-5.44,8.07-7.76,6.49-5.38,12.52-10.11,20.46-13.35.9-.36,1.92.06,2.28.96.37.89-.06,1.92-.96,2.28-7.5,3.07-13.06,7.43-19.55,12.81-2.68,2.22-5.27,4.71-7.71,7.42-.35.38-.82.58-1.3.58ZM1500.37,1290.13c-.83,0-1.56-.59-1.72-1.43-.17-.95.45-1.86,1.4-2.04,5.32-.98,11.24-1.46,18.1-1.46,4.44,0,9.34.21,14.58.61.87.06,1.76.14,2.67.22.96.08,1.67.93,1.59,1.9-.08.96-.93,1.69-1.9,1.59-.89-.08-1.76-.15-2.62-.21-5.17-.4-9.98-.6-14.33-.6-6.64,0-12.35.46-17.46,1.4-.11.02-.21.03-.32.03ZM1121.07,1284.33c-.44,0-.88-.16-1.22-.49-.7-.67-.71-1.78-.04-2.47,8.95-9.26,17.95-17.01,26.77-23.03.8-.54,1.89-.34,2.43.46.54.8.34,1.89-.46,2.43-8.62,5.88-17.44,13.48-26.22,22.57-.34.36-.8.53-1.26.53ZM1157.82,1255.3c-.63,0-1.23-.34-1.55-.93-.45-.85-.13-1.91.73-2.37,9.53-5.04,18.11-7.45,25.47-7.18.97.04,1.72.85,1.68,1.82s-.84,1.74-1.82,1.68c-6.74-.29-14.72,2.03-23.69,6.78-.26.14-.54.2-.82.2Z" fill="#2b2b2b"/><path d="M1063.87,1845.2c-5.87,0-11.48-2.2-15.95-6.28-5.56-5.08-8.82-12.66-8.96-20.79-.27-15.79,11.11-29.39,25.37-30.33,6.46-.43,12.71,1.81,17.58,6.29,5.52,5.09,8.76,12.65,8.89,20.75h0c.25,15.67-11.06,29.26-25.21,30.29-.57.04-1.15.06-1.72.06ZM1065.88,1793.74c-.38,0-.77.01-1.15.04-11.11.73-19.98,11.61-19.77,24.24.11,6.49,2.67,12.49,7.01,16.46,3.67,3.36,8.35,5.02,13.18,4.67,11.03-.81,19.85-11.67,19.65-24.21h0c-.1-6.46-2.64-12.45-6.96-16.43-3.36-3.09-7.57-4.76-11.96-4.76Z" fill="#2b2b2b"/><path d="M1286.15,1874.97c-6.12,0-11.89-2.23-16.44-6.38-5.42-4.95-8.45-11.94-8.53-19.7-.18-15.31,11.48-28.62,25.99-29.68,6.82-.49,13.34,1.78,18.34,6.39,5.38,4.96,8.39,11.94,8.47,19.66h0c.16,15.19-11.42,28.49-25.81,29.63-.67.05-1.35.08-2.01.08ZM1288.98,1825.14c-.46,0-.92.02-1.38.05-11.41.83-20.57,11.42-20.42,23.62.07,6.08,2.41,11.53,6.58,15.34,3.81,3.48,8.75,5.16,13.93,4.75,11.32-.9,20.42-11.48,20.29-23.58h0c-.06-6.05-2.38-11.49-6.53-15.32-3.44-3.17-7.82-4.87-12.46-4.87Z" fill="#2b2b2b"/><path d="M1410.44,1942.1c-1.66,0-3-1.34-3-3v-28.82c0-1.66,1.34-3,3-3s3,1.34,3,3v28.82c0,1.66-1.34,3-3,3Z" fill="#2b2b2b"/><path d="M1452.46,1512.83c-1.64,0-2.98-1.32-3-2.96,0-.15-.19-15.6,1.19-37.43,0-.08,0-.18.02-.29,2.53-39.77,9.68-94.35,29.44-128.8,8.78-15.3,19.39-25.34,31.54-29.83,1.74-.66,3.58-1.21,5.44-1.64,4.15-.97,8.2-1.54,12.02-1.67.1-.01.21-.02.31-.02,15.88-.51,28.84,6.45,37.35,20.16,6.48,10.43,8.25,21.36,8.46,22.79.04.19.06.38.06.57,0,1.66-1.34,3-3,3-1.36,0-2.51-.91-2.88-2.15-.05-.16-.08-.32-.1-.48-.01-.11-1.5-10.7-7.63-20.57-7.39-11.9-18.12-17.73-31.98-17.33-.07,0-.14.01-.21.01-3.47.11-7.18.62-11.03,1.52-1.61.37-3.19.84-4.69,1.41-10.81,4-20.37,13.15-28.43,27.2-19.2,33.48-26.18,87.17-28.66,126.32,0,.04,0,.08,0,.12-1.37,21.62-1.18,36.88-1.18,37.03.02,1.66-1.3,3.02-2.96,3.04h-.04Z" fill="#2b2b2b"/><path d="M659.54,211.21s2.18-3.85,6.01-6.17c.13-.09.27-.16.4-.24,4.42-2.47,10.89-2.8,18.66,6.56" fill="none" stroke="#2b2b2b" stroke-linecap="round" stroke-miterlimit="10" stroke-width="3.5"/><path d="M900.09,520.74c6.73,17.86,12.98,26.45,16.21,32.66,8.24,15.87,15.87,57.92-.73,66.92-1.14.61-2.54,1.28-4.17,1.98-28.37,12.25-128.08,36.74-186.11,31.58-2.32-.21-4.57-.46-6.74-.76-7.68-1.07-14.56-5.39-18.77-11.91-15.83-24.51-6.62-33.41-.87-53.96,3.08-11.02,3.5-22.58,1.53-33.85-1.49-8.54-2.6-17.05-3.39-25.4-3.4-35.8-1.03-68.67,1.37-89.06,1.57-13.32,3.16-21.32,3.16-21.32" fill="none" stroke="#2b2b2b" stroke-linecap="round" stroke-linejoin="round" stroke-width="6"/><path d="M853.57,381.17c-12.47-20.03-23.59-27.33-31.64-30.69-.67-.28-1.36-.53-2.05-.73-1.26-.37-2.56-.62-3.87-.73-1.65-.15-3.32-.09-4.98.17-34.35,5.45-69,26.15-77.79,31.68-1.95,1.23-4.15,2.04-6.46,2.24-10.97.98-.34-13.32-.34-13.32l-1.31-1.38c-34.05,3.12-131.3,101.22-131.3,101.22,1.04,3.32,3.22,7.11,6.23,11.19,5.2,7.04,12.92,14.94,21.66,22.71,8.45,7.53,17.86,14.95,26.87,21.39,14.82,10.59,28.57,18.54,35.25,19.96l12.88-16.87" fill="none" stroke="#2b2b2b" stroke-linecap="round" stroke-linejoin="round" stroke-width="6"/><path d="M725.35,653.7l-.06.18-4.86,15.29-89.79,99.89-2.33,2.6c5.46,10.82,13.42,21.47,22.79,31.66,2.12,2.32,4.33,4.61,6.59,6.87,17.23,17.26,37.97,32.95,56.64,45.57,27.98,18.89,51.34,30.89,51.34,30.89l59.04-78.59,8.73-11.62c9.92-13.19,22.59-24.14,37.33-31.56,16.45-8.28,50.98-46.69,57.04-89.02,2.66-18.5-.14-37.74-12.24-55.55" fill="none" stroke="#2b2b2b" stroke-linecap="round" stroke-linejoin="round" stroke-width="6"/><path d="M647.74,770.91s39.94,56.15,112.89,93.27" fill="none" stroke="#2b2b2b" stroke-linecap="round" stroke-linejoin="round" stroke-width="3.5"/><path d="M794.41,450.42l89.88,82.08c3.66-1.61,9.24-5.89,15.71-11.85,4.59-4.22,9.63-9.29,14.76-14.84,4.07-4.4,8.19-9.11,12.19-13.94,3.39-4.1,6.7-8.28,9.8-12.46,8.88-11.94,16.11-23.73,19.08-32.8.71-2.18,1.19-4.21,1.37-6.04,0,0-58.9-39.16-103.9-58.79-16.62-7.25-31.35-11.84-40.52-10.8" fill="none" stroke="#2b2b2b" stroke-linecap="round" stroke-linejoin="round" stroke-width="6"/><path d="M939.61,442.44s-23.71,40.52-54.78,66.86" fill="none" stroke="#2b2b2b" stroke-linecap="round" stroke-linejoin="round" stroke-width="3.5"/><path d="M824.85,808.17c6.62,14.43,11.14,25.47,18.44,42.73,2.21-.22,15.82-1.95,34.66-6.67,24.77-6.2,58.6-17.56,87.46-37.42,8.73-6.01,17.01-12.79,24.44-20.45,0,0-28.74-46.55-62.04-110.49-.02-.04-.04-.06-.05-.1" fill="none" stroke="#2b2b2b" stroke-linecap="round" stroke-linejoin="round" stroke-width="6"/><path d="M657.22,810.67s-34.71,42.73-68.6,81.1c-.3.33-.58.65-.87.98h0c-18.08,20.45-35.85,39.52-47.89,50.06-2.9,2.54-8.65,3.94-13.17,3.3" fill="none" stroke="#2b2b2b" stroke-linecap="round" stroke-linejoin="round" stroke-width="6"/><path d="M588.56,893.49s16.52,30.22,49.65,41.38" fill="none" stroke="#2b2b2b" stroke-linecap="round" stroke-linejoin="round" stroke-width="3.5"/><path d="M581.22,1000.5c-.48-3.38,3.82-10.89,6-13.86,15.83-21.6,33.51-36.14,51.54-51.11,21.44-17.8,43.39-36.21,63.31-67.84l12.26-11.93.06-.06" fill="none" stroke="#2b2b2b" stroke-linecap="round" stroke-linejoin="round" stroke-width="6"/><path d="M558.8,1042.26c5.65-4.64,13.26-13.4,23.01-29.63,2.28-3.79,1.63-8.51-1.25-11.53-.18-.19-.37-.37-.57-.55-.59-.53-1.26-.99-2.01-1.36-40.03-20.23-55.38-41.76-51.81-53.23.19-.61.43-1.19.72-1.73.87-1.63-.17-3.61-1.99-3.83-1.22-.15-2.57-.34-3.99-.57-9.54-1.52-22.78-4.64-29.2-7.4-8.37-3.6-19.11-15.55-29.21-17.77-8.6-1.89-21.36,9.25-26.15,16.01-.19.26-.38.53-.58.78-.07.09-.14.19-.21.29-.53.73-.99,1.48-1.39,2.26,0,.01-.01.03-.02.04-1.77,3.51-2.19,7.48-1.3,11.18.67,2.79,2.09,5.42,4.25,7.58,14.61,14.66,55.53,54.02,105.07,91.1,4.07,3.04,9.61,3.23,13.84.43.87-.58,1.8-1.27,2.79-2.08Z" fill="none" stroke="#2b2b2b" stroke-linecap="round" stroke-linejoin="round" stroke-width="6"/><path d="M434.39,934.16s44.02,52.06,123.61,107.25" fill="none" stroke="#2b2b2b" stroke-linecap="round" stroke-linejoin="round" stroke-width="6"/><path d="M845.68,837.07s73.71-7.9,127.56-52.45" fill="none" stroke="#2b2b2b" stroke-linecap="round" stroke-linejoin="round" stroke-width="3.5"/><path d="M715.79,391.17s9.24,7.45,22.74,2.12c13.51-5.33,47.37-35.55,79.71-31.29" fill="none" stroke="#2b2b2b" stroke-linecap="round" stroke-linejoin="round" stroke-width="6"/><path d="M617.08,230.5c1.1,6.35,6.86,14.69,8.24,18.32,4.43,11.59-3.24,26.71-15.36,37.68l13.7,12.35c4.94,3.66,8.26,9.09,9.3,15.16.44,2.53,1.17,5.39,2.23,8.43,4.19,12.06,13.45,26.87,29.17,34.3,7.8,3.69,17.18,5.58,28.32,4.41,10.88-.83,20.31-3.03,28.46-6.07,35.52-13.22,46.68-42.29,46.68-42.29" fill="none" stroke="#2b2b2b" stroke-linecap="round" stroke-linejoin="round" stroke-width="6"/><path d="M666.66,150.78s38.14,36.99,65.02,70.1c13.85,17.05,24.7,33.07,25.83,42.49,0,0,8.68-22.59,8.2-49.47-.55-30.32-12.77-66.1-62.29-81.09" fill="none" stroke="#2b2b2b" stroke-linecap="round" stroke-linejoin="round" stroke-width="6"/><path d="M766.43,213.89s12.22-7.98,23.51-6.62c9.92,1.19,19.13,9.6,18.73,36.93-.15,10.19-2.53,20.21-6.95,29.36-.39.81-.8,1.62-1.23,2.41-3.85,7.23-9.25,15.46-15.85,21.03-4.6,3.88-9.78,6.47-15.45,6.54" fill="none" stroke="#2b2b2b" stroke-linecap="round" stroke-linejoin="round" stroke-width="6"/><path d="M768.82,226.46s12.08-11.41,21.66-3.11c9.55,8.26,10.56,36.6-13.12,62.54" fill="none" stroke="#2b2b2b" stroke-linecap="round" stroke-miterlimit="10" stroke-width="3.5"/><path d="M726.35,377.47s1.52-2.67.91-7.68c-.44-3.62-1.98-8.46-6-14.39" fill="none" stroke="#2b2b2b" stroke-linecap="round" stroke-linejoin="round" stroke-width="6"/><path d="M870.64,146.33c-.04-.09-.07-.18-.11-.28-28.07-73.91-74.95-109.49-178.3-81.85-81.01,21.67-87.71,67.21-87.71,67.21,0,0-51.86,47.52,12.62,99.01,3.26,2.6,6.81,5.22,10.69,7.83,0,0-10.62-49.56-.58-67.64,0,0,15.32,19.36,38.3,34.44,18.43,12.1,41.8,21.46,66.13,15.83.15-.03.3-.06.45-.1" fill="none" stroke="#2b2b2b" stroke-linecap="round" stroke-linejoin="round" stroke-width="6"/><path d="M820.04,349.23s-9.45-15.5-9.72-30.54c-.11-6.1,1.3-12.12,5.46-17.01,8.02-9.41,19.72-19.91,32.6-34.14" fill="none" stroke="#2b2b2b" stroke-linecap="round" stroke-linejoin="round" stroke-width="6"/><path d="M785.34,297.01s13.03,6.07,24.42,21.67" fill="none" stroke="#2b2b2b" stroke-linecap="round" stroke-linejoin="round" stroke-width="6"/><path d="M832.41,174.53c2.17-2.11,4.6-3.97,7.26-5.51,9.41-5.43,20.46-12.42,30.86-22.98,5.32-5.41,10.48-11.76,15.16-19.33,0,0,10.51,26.86,1.73,50.38,0,0,69.51-19.83,83.48,16.23,0,0-28.19,1.17-30.75,11.59,0,0,23.25,49.08,24.54,76.9,0,0-51.93-27.73-57.17-21.95,0,0,13.68,48.3,5.43,56.66,0,0-35.15-11.44-64.42-49.11-6.83-8.8-13.34-19.02-19.01-30.86-.96-2.01-1.89-4.05-2.81-6.15-4.43-10.23-6.34-21.41-5.28-32.51.05-.49.1-.96.15-1.43.97-8.42,4.87-16.13,10.83-21.92Z" fill="none" stroke="#2b2b2b" stroke-linecap="round" stroke-linejoin="round" stroke-width="6"/><path d="M834.74,173.38s-.9.38-2.34,1.16c-9.18,4.92-40.43,25.53-2.89,62.03.13.13.27.27.41.4" fill="none" stroke="#2b2b2b" stroke-linecap="round" stroke-linejoin="round" stroke-width="3.5"/><path d="M611.44,467.91s31.42,34.87,67.19,54.38" fill="none" stroke="#2b2b2b" stroke-linecap="round" stroke-linejoin="round" stroke-width="3.5"/><path d="M1001.87,868.21s6.08-37.08-13.69-64.18c-.23-.32-.47-.65-.72-.97" fill="none" stroke="#2b2b2b" stroke-linecap="round" stroke-linejoin="round" stroke-width="3.5"/><path d="M1069.57,788.86c-1.56,3.04-9.67,6.1-12.89,7.87-24.62,13.5-41.45,5.15-64.82,6.98-1.27.1-2.5.21-3.69.32-13.58,1.32-22.23,3.55-22.23,3.55" fill="none" stroke="#2b2b2b" stroke-linecap="round" stroke-linejoin="round" stroke-width="6"/><path d="M1112.08,767.66s-.07,0-.11,0c-7.29.51-18.56,3.18-35.89,10.53-4.05,1.72-6.23,5.79-5.62,9.76.04.25.09.5.15.75.18.75.47,1.48.86,2.2,21.04,38.15,21.17,63.62,11.63,70.66-.51.37-1.03.7-1.59.96-1.65.8-1.94,2.93-.58,4.12.91.8,1.9,1.69,2.94,2.66,6.92,6.49,15.93,16.3,19.59,22.05,4.76,7.48,6.65,22.85,13.62,30.21,5.94,6.26,22.79,4.58,30.6,1.92.3-.1.61-.2.93-.3.11-.03.22-.07.34-.11.85-.28,1.66-.61,2.43-1.01l.04-.02c3.47-1.78,6.11-4.68,7.52-8.08,1.06-2.57,1.42-5.43.9-8.33-3.49-19.65-14.22-73.35-33.31-130.04-1.57-4.66-5.99-7.88-11.07-8.03-1.01-.03-2.14,0-3.37.08Z" fill="none" stroke="#2b2b2b" stroke-linecap="round" stroke-linejoin="round" stroke-width="6"/><path d="M1151.28,921.83s-5.94-65.42-39.14-153.05" fill="none" stroke="#2b2b2b" stroke-linecap="round" stroke-linejoin="round" stroke-width="6"/><path d="M877.89,844.07l.07.16c4.31,9.59,9.4,14.35,13.41,18.54,17.04,17.76,59.66,18.12,109.47,6.76.43-.09.86-.19,1.29-.29,26.56-6.04,52.08-11.18,67.99-12.79,3.83-.39,9.34,1.71,12.66,4.71" fill="none" stroke="#2b2b2b" stroke-linecap="round" stroke-linejoin="round" stroke-width="6"/><polyline points="1018.46 586.5 949.41 505.12 927.24 492.11" fill="none" stroke="#2b2b2b" stroke-linecap="round" stroke-linejoin="round" stroke-width="6"/><path d="M956.09,446.7l16.34,8.11c4.71,2.58,8.77,5.84,11.97,9.6l83.93,91.94" fill="none" stroke="#2b2b2b" stroke-linecap="round" stroke-linejoin="round" stroke-width="6"/><path d="M497.48,520.38c20.1,16.97,65.67,32.48,89.94,29.77,43.7-4.9,61.18-25.21,61.18-25.21" fill="none" stroke="#2b2b2b" stroke-linecap="round" stroke-linejoin="round" stroke-width="6"/><polyline points="599.74 481.08 584.83 494.18 520.04 481.24" fill="none" stroke="#2b2b2b" stroke-linecap="round" stroke-linejoin="round" stroke-width="6"/><path d="M632.96,314.01l72.85-23.09c-36.34,26.9-69.94,31.29-69.94,31.29" fill="none" stroke="#2b2b2b" stroke-linecap="round" stroke-linejoin="round" stroke-width="6"/><path d="M664.56,356.32s51.13-10.22,41.25-65.4" fill="none" stroke="#2b2b2b" stroke-linecap="round" stroke-linejoin="round" stroke-width="6"/><path d="M1038.21,611.36l11.76,16.04,3.56,4.86s17.04,12.67,23.03.49l-1.62-15.18" fill="none" stroke="#2b2b2b" stroke-linecap="round" stroke-linejoin="round" stroke-width="6"/><path d="M1088.07,603.7l.62,16.74.08,2.24s-1.58,10.95-12.21,10.07" fill="none" stroke="#2b2b2b" stroke-linecap="round" stroke-linejoin="round" stroke-width="6"/><path d="M1096.44,595.8s1.55,4.45,1.68,9.67c.15,5.57-1.33,12.03-8.04,14.92" fill="none" stroke="#2b2b2b" stroke-linecap="round" stroke-linejoin="round" stroke-width="6"/><path d="M1062.76,553.5s55.16,18.81,35.83,51.96" fill="none" stroke="#2b2b2b" stroke-linecap="round" stroke-linejoin="round" stroke-width="6"/><path d="M1048.38,628.56c-6.26-.15-15.91,2.03-24.28-6.87-10.1-10.74-6.78-28.34-4.1-37.22" fill="none" stroke="#2b2b2b" stroke-linecap="round" stroke-linejoin="round" stroke-width="6"/><path d="M489.61,468.57s0,.01-.01.02c-10.67,12.48,3.68,26.45,3.68,26.45" fill="none" stroke="#2b2b2b" stroke-linecap="round" stroke-linejoin="round" stroke-width="6"/><path d="M519.34,485.44c.7-5.83.43-10.04.43-10.04-.58-10.08-7.75-18.09-11.11-21.86-1.58-1.77-4.99-4.12-7.22-4.96l-.99-.12-12.64-1.53c-1.23-.15-2.47-.04-3.65.32-3.27.99-9.71,3.54-12.34,8.64-1.32,2.56-1.69,5.76-.22,9.73,1.11,3.01,2.51,4.91,4.04,6.04,5.85,4.34,13.56-2.72,13.96-3.08" fill="none" stroke="#2b2b2b" stroke-linecap="round" stroke-linejoin="round" stroke-width="6"/><path d="M500.5,448.08s-12.96-19.17-28.6-19.54c-15.64-.37-14.36,11.07-14.98,13.1,0,0-19.18.35-14.36,17.39,0,0-11.49,7.38-5.53,21.3,0,0-5.6,10.98-1.3,19.2,0,0,4.59,11.08,22.94,9.67,0,0,14.9,17.5,39.08,8.95" fill="none" stroke="#2b2b2b" stroke-linecap="round" stroke-linejoin="round" stroke-width="6"/><path d="M456.91,441.65s6.58,8.78,14.13,13.78" fill="none" stroke="#2b2b2b" stroke-linecap="round" stroke-linejoin="round" stroke-width="6"/><path d="M442.56,459.04s15.54,20.06,24.04,18.29c1.46-.3,2.65-.62,3.62-.93,4.57-1.5,4.36-3.11,5.42-4.73.03-.04.05-.08.08-.12" fill="none" stroke="#2b2b2b" stroke-linecap="round" stroke-linejoin="round" stroke-width="6"/><path d="M437.03,480.34s12.15,12.35,26.16,10.36c.2-.03.39-.06.59-.1,13.24-2.25,6.74-14.07,6.74-14.07" fill="none" stroke="#2b2b2b" stroke-linecap="round" stroke-linejoin="round" stroke-width="6"/><path d="M458.66,509.2s13.12-7.26,6.45-17.51" fill="none" stroke="#2b2b2b" stroke-linecap="round" stroke-linejoin="round" stroke-width="6"/><path d="M695.13,271.92c.06,1.5-1.01,2.87-2.61,3.33-4.33,1.25-13.17,3.43-20.88,3.13-1.52-.06-3.4-.89-3.81-2.21-2.94-9.45-13.08-47.83,5.52-50.49,18.39-2.64,21.33,35.91,21.79,46.25Z"/><path d="M327.83,1038.75c-20.24,0-39.96-.67-57.01-1.95l.26-3.49c16.97,1.27,36.59,1.94,56.75,1.94,27.78,0,54.07-1.26,74.02-3.55,29.49-3.38,31.06-7.39,31.07-7.43t0,0s-1.74-3.98-31.07-7.35c-19.96-2.29-46.24-3.55-74.02-3.55s-54.06,1.26-74.02,3.55c-29.46,3.38-31.05,7.39-31.07,7.43,0-.09,1.21,3.69,28.48,7.04l-.43,3.47c-31.55-3.88-31.55-8.56-31.55-10.56s0-6.81,32.83-10.71c20.25-2.41,47.15-3.73,75.75-3.73s55.5,1.33,75.75,3.73c32.83,3.9,32.83,8.67,32.83,10.71s0,6.81-32.83,10.71c-20.24,2.41-47.15,3.73-75.75,3.73Z" fill="#2b2b2b"/><path d="M445.6,638.45c.46,1.86.88,3.75,1.26,5.65,5.18,26.14,1.53,51.99-8.88,74.45-9.19,19.83-23.65,37.03-41.97,49.47-13.06,8.87-28.07,15.31-44.53,18.57-17.03,3.37-33.94,3-49.86-.55-19.67-4.38-37.84-13.6-52.91-26.59-19.8-17.06-34.25-40.61-39.72-68.23-.32-1.64-.62-3.28-.87-4.92-3.9-24.93.14-49.42,10.32-70.76,10.85-22.74,28.67-41.92,51.28-54.28,10.57-5.78,22.19-10.07,34.64-12.54,9.03-1.79,18.02-2.52,26.85-2.29,34.47.9,66.47,16.56,88.43,41.91,12.15,14.02,21.22,31.01,25.95,50.11Z" fill="none" stroke="#2b2b2b" stroke-linecap="round" stroke-linejoin="round" stroke-width="6"/><polygon points="367.13 643.03 367.19 642.52 318.79 620.16 318.74 620.22 282.58 659.28 282.82 659.71 308.29 705.27 308.59 705.81 360.88 695.45 367.13 643.03" fill="none" stroke="#2b2b2b" stroke-linecap="round" stroke-linejoin="round" stroke-width="3.5"/><path d="M361.93,694.66l32.69,29.74,38.43-21.82s4.67-17.74,5.85-26.44c1.18-8.7-.11-25.13-.11-25.13l-32.69-29.74-38.43,21.82" fill="none" stroke="#2b2b2b" stroke-linecap="round" stroke-linejoin="round" stroke-width="3.5"/><path d="M282.14,660.08l-43.71-4.13-.29-.03-17.63,40.52s5.13,15.19,10.72,24.7c6.29,10.69,15.64,19.98,15.64,19.98l44,4.16,17.41-40.02.22-.5" fill="none" stroke="#2b2b2b" stroke-linecap="round" stroke-linejoin="round" stroke-width="3.5"/><path d="M290.87,745.29l26.66,27.23,8.81.08c15.01.14,29.91-2.65,43.85-8.21l6.11-2.43,18.31-37.55" fill="none" stroke="#2b2b2b" stroke-linecap="round" stroke-linejoin="round" stroke-width="3.5"/><path d="M318.55,620.05l-8.74-43.73-44.4-4.2s-15,11.74-19.57,16.86c-8.42,9.42-16.09,22.68-16.09,22.68l8.74,43.73" fill="none" stroke="#2b2b2b" stroke-linecap="round" stroke-linejoin="round" stroke-width="3.5"/><path d="M309.81,576.32l32.78-19.24s24.42,7.45,30.84,10.67c12.54,6.28,25.45,18.58,25.45,18.58l7.21,34.94" fill="none" stroke="#2b2b2b" stroke-linecap="round" stroke-linejoin="round" stroke-width="3.5"/><polyline points="265.41 572.12 269.73 561.27 269.84 560.99" fill="none" stroke="#2b2b2b" stroke-linecap="round" stroke-linejoin="round" stroke-width="3.5"/><polyline points="229.75 611.66 218.45 615.55 218.06 615.68" fill="none" stroke="#2b2b2b" stroke-linecap="round" stroke-linejoin="round" stroke-width="3.5"/><polyline points="342.59 557.08 331.22 546.44 331.19 546.41" fill="none" stroke="#2b2b2b" stroke-linecap="round" stroke-linejoin="round" stroke-width="3.5"/><line x1="398.88" y1="586.32" x2="419.16" y2="588.77" fill="none" stroke="#2b2b2b" stroke-linecap="round" stroke-linejoin="round" stroke-width="3.5"/><line x1="438.79" y1="651.01" x2="445.18" y2="638.56" fill="none" stroke="#2b2b2b" stroke-linecap="round" stroke-linejoin="round" stroke-width="3.5"/><polyline points="433.05 702.57 437.98 718.55 438.04 718.75" fill="none" stroke="#2b2b2b" stroke-linecap="round" stroke-linejoin="round" stroke-width="3.5"/><polyline points="376.31 761.95 396.02 768.02 396.53 768.18" fill="none" stroke="#2b2b2b" stroke-linecap="round" stroke-linejoin="round" stroke-width="3.5"/><polyline points="317.54 772.51 301.63 786.05 300.83 786.73" fill="none" stroke="#2b2b2b" stroke-linecap="round" stroke-linejoin="round" stroke-width="3.5"/><polyline points="246.87 741.13 248.72 759.46 248.88 761.07" fill="none" stroke="#2b2b2b" stroke-linecap="round" stroke-linejoin="round" stroke-width="3.5"/><polyline points="220.51 696.45 208.13 686.31 207.75 686" fill="none" stroke="#2b2b2b" stroke-linecap="round" stroke-linejoin="round" stroke-width="3.5"/><path d="M692.52,1705.53l-215.87-215.85-215.84,215.84-126.4-126.4,215.84-215.84-215.84-215.86,126.4-126.4,215.84,215.86,215.87-215.87,125.19,126.42-2.11,2.11-213.74,213.74,215.85,215.83-125.19,126.42ZM142.89,1579.12l117.91,117.91,215.84-215.84,215.85,215.83,116.75-117.89-215.87-215.85,215.87-215.87-116.75-117.89-215.85,215.85-215.84-215.86-117.91,117.91,215.84,215.86-215.84,215.84Z" fill="#2b2b2b"/><path d="M1394.69,1235.09l-115.56-206.58,85.98,34.81,66.89-161.94,168.06,68.04-66.35,162.16,85.55,34.64-224.58,68.87ZM1297.22,1044.47l101.3,181.09,196.86-60.37-72.11-29.19,66.35-162.16-153.25-62.05-66.89,161.94-72.25-29.25Z" fill="#2b2b2b"/><path d="M1771.35,247.41c-4.71-1.55-9.93-2.54-15.5-2.96l.45-5.98c6.05.46,11.74,1.55,16.91,3.24l-1.87,5.7Z" fill="#2b2b2b"/><path d="M1720.54,904.92c-1.93,0-3.61-.06-4.96-.13-2.88-.16-4.64-.39-4.72-.4l.78-5.95s1.63.21,4.27.36c14.37.78,48.13-.71,51-31.5l38.14-568.83c.78-11.79-2.3-23.36-8.69-32.58-6.1-8.82-14.5-15.03-24.99-18.45l1.86-5.7c11.76,3.84,21.2,10.82,28.06,20.74,7.16,10.33,10.62,23.26,9.74,36.4l-38.14,568.91c-3.08,33.09-36.32,37.14-52.36,37.14Z" fill="#2b2b2b"/><path d="M1716.53,904.8c-.27,0-.54,0-.81,0-.62,0-1.24-.03-1.86-.07l-396.93-27.27c-20.87-1.43-36.68-19.59-35.25-40.47l40.59-590.83c.69-10.11,5.28-19.35,12.92-26.01,7.64-6.66,17.42-9.94,27.53-9.25l396.93,27.28c4.65.32,9.12,1.46,13.31,3.4h.6l.54.55c13.71,6.89,21.86,21.16,20.8,36.51l-40.59,590.83c-1.37,19.97-17.89,35.34-37.78,35.34ZM1360.07,216.79c-7.71,0-15.07,2.75-20.94,7.87-6.43,5.61-10.3,13.38-10.88,21.9l-40.59,590.83c-1.21,17.58,12.11,32.86,29.68,34.07l396.93,27.27c.5.03.99.06,1.48.06h.07c17.04.37,31.34-12.69,32.51-29.75l40.59-590.83c.9-13.07-6.13-25.22-17.91-30.93l-.15-.07c-3.64-1.75-7.55-2.77-11.62-3.05l-396.93-27.28c-.75-.05-1.49-.08-2.23-.08Z" fill="#2b2b2b"/><path d="M1726.47,857.38l-415.57-28.55.12-1.75,38.62-562.08,1.75.12,413.82,28.43-38.74,563.83ZM1314.63,825.58l408.58,28.07,38.26-556.84-408.58-28.07-38.26,556.84Z" fill="#2b2b2b"/></svg>