<?xml version="1.0" encoding="UTF-8"?><svg id="_レイヤー_13" xmlns="http://www.w3.org/2000/svg" width="2000" height="2000" viewBox="0 0 2000 2000"><path d="M1485.89,1107.84c-11.75,0-23.6-5.22-24.27-5.52-.27-.12-.53-.29-.75-.48l-36.75-32.18c-1.25-1.09-1.37-2.99-.28-4.23,1.09-1.25,2.99-1.37,4.23-.28l36.39,31.87c2.85,1.19,20.37,8.12,30.83,2.98,3.49-1.72,5.78-4.61,6.98-8.83l-8.91-26.41c-.53-1.57.31-3.27,1.88-3.8s3.27.31,3.8,1.88l9.2,27.26c.18.54.21,1.12.07,1.67-1.56,6.42-5.05,11-10.39,13.62-3.65,1.79-7.84,2.46-12.04,2.46Z" fill="#2b2b2b"/><path d="M1505.4,1094.05c-1.48,0-2.76-1.09-2.97-2.59-.23-1.64.92-3.16,2.56-3.38,16.03-2.21,15.87-17.83,15.76-20.08l-.99-3.8-7.99-30.53c-.42-1.6.54-3.24,2.14-3.66,1.6-.42,3.24.54,3.66,2.14l9.05,34.62c.04.17.07.35.09.53.62,8.16-2.95,24.26-20.91,26.73-.14.02-.28.03-.41.03Z" fill="#2b2b2b"/><path d="M1525.21,1065.78c-.93,0-1.85-.43-2.43-1.24-.97-1.34-.67-3.22.67-4.19,8.11-5.86,10.65-15.14,7.54-27.58-2.22-8.96-6.65-16.18-6.69-16.25-.87-1.41-.44-3.26.97-4.13,1.41-.87,3.25-.44,4.13.97.2.32,4.96,8.06,7.41,17.96,3.71,14.83.31,26.56-9.84,33.89-.53.38-1.15.57-1.75.57Z" fill="#2b2b2b"/><path d="M1534.75,1034.83c-.3,0-.61-.05-.91-.14-1.58-.5-2.45-2.19-1.95-3.77,4.5-14.1,3.5-26.73-2.97-37.52-15.06-25.11-55.85-34.99-72.68-38.08-5.48-1.01-8.96-1.4-8.99-1.4-1.65-.18-2.83-1.67-2.65-3.31.18-1.65,1.66-2.83,3.31-2.65.15.02,3.7.41,9.41,1.46,17.64,3.23,60.42,13.68,76.75,40.89,7.4,12.34,8.59,26.62,3.54,42.43-.41,1.27-1.59,2.09-2.86,2.09Z" fill="#2b2b2b"/><path d="M1427.16,1102.41c-7.52,0-15.78-1.84-24.46-7.74-22.81-15.51-25.05-47.34-24.35-64.94.07-1.61.16-3.12.27-4.54.12-1.65,1.55-2.89,3.21-2.78,1.65.12,2.9,1.55,2.78,3.21-.1,1.36-.19,2.82-.25,4.36-.65,16.34,1.32,45.84,21.73,59.73,14.75,10.03,28.1,6.55,38.83,3.76,2.24-.58,4.36-1.13,6.37-1.53,1.62-.32,3.2.73,3.53,2.36.32,1.62-.73,3.2-2.36,3.53-1.84.37-3.87.89-6.03,1.46-5.52,1.44-12.04,3.14-19.26,3.14Z" fill="#2b2b2b"/><path d="M851.14,1278.27c-14.01,0-27.44-5.43-37.4-15.24-3.91-3.86-7.26-7.48-10.26-11.08-21.56-25.85-19.29-44.65-16.41-68.44.82-6.78,1.67-13.8,2.09-21.68,1.09-20.47-2.65-41.77-10.83-61.58-6-14.51-11.63-29.83-16.72-45.54-20.8-64.03-30.01-125.07-34.08-165-2.54-24.98-2.92-40.58-2.92-40.74-.04-1.66,1.27-3.03,2.93-3.07,1.65-.02,3.03,1.27,3.07,2.93,0,.15.38,15.54,2.9,40.26,4.04,39.64,13.18,100.23,33.82,163.76,5.04,15.56,10.61,30.73,16.56,45.1,8.52,20.64,12.42,42.84,11.27,64.2-.43,8.08-1.29,15.2-2.12,22.08-2.81,23.23-4.84,40.02,15.06,63.88,2.87,3.45,6.1,6.93,9.86,10.65,9.74,9.6,23.25,14.46,37.05,13.36,4.14-.34,8.38-.79,12.58-1.34,108.9-14.28,281.28-99.9,328.01-133.75,2.62-1.9,4.86-3.65,6.66-5.2,14.56-12.66,8.9-41.55,4.23-57.65-6.53-22.5-19.12-47.81-30.63-61.53-2.06-2.46-4.55-5.14-7.43-8.24-8.88-9.57-21.05-22.67-35.98-45.46-.91-1.39-.52-3.25.87-4.15,1.39-.91,3.25-.52,4.15.87,14.66,22.37,26.62,35.26,35.36,44.67,2.93,3.16,5.47,5.89,7.63,8.46,11.99,14.3,25.06,40.5,31.8,63.72,8.75,30.17,6.6,52.85-6.07,63.86-1.93,1.67-4.31,3.52-7.07,5.52-47.1,34.12-220.91,120.44-330.75,134.83-4.3.56-8.63,1.03-12.87,1.38-1.45.12-2.91.17-4.35.17Z" fill="#2b2b2b"/><path d="M746.86,1093.25c-13.1,0-40.68-8.39-73.93-22.51-20.18-8.56-40.39-18.41-58.46-28.48-21.03-11.72-37.74-22.91-49.65-33.26-.02-.01-.03-.03-.05-.04-7.75-6.74-13.34-13.05-16.63-18.76-.56-.96-.53-2.16.06-3.1,5.69-9.03,139.99-221.4,201.67-241.18.87-.28,1.82-.15,2.59.36l2.97,1.99c1.21.81,1.66,2.38,1.07,3.71l-.08.18c-3.39,7.86-5.71,17.56-3.37,20.14.82.9,2.96.89,5.88-.03,3.53-1.12,6.9-3.21,9.75-6.05,15.37-15.22,70.25-66.73,131.1-90.78,3.13-1.25,6.44-2.1,9.83-2.54,2.61-.35,5.26-.44,7.86-.27h0s.08,0,.12,0c0,0,.01,0,.02,0,1.54.1,3.02.28,4.42.54,13.9,2.46,27.56,8.38,41.72,18.11,9.53,6.54,19.39,14.91,29.31,24.88.42.42.85.86,1.29,1.31,1.16,1.19,1.15,3.1-.03,4.26-1.19,1.16-3.07,1.15-4.23-.03l-.03-.03c-.42-.43-.83-.85-1.25-1.26-9.66-9.71-19.23-17.84-28.46-24.17-13.45-9.23-26.33-14.84-39.4-17.15-1.19-.22-2.44-.37-3.75-.46h0s-.08,0-.12,0c0,0-.01,0-.02,0-2.21-.15-4.46-.07-6.69.23-2.91.37-5.73,1.1-8.4,2.16-59.8,23.64-113.93,74.45-129.09,89.46-3.52,3.5-7.73,6.1-12.16,7.51-5.48,1.74-9.57,1.18-12.14-1.66-4.92-5.44-1.37-17.29,1.29-24.07-57.79,21.77-183.15,216.87-195.62,236.46,3.06,4.75,7.93,10.04,14.48,15.74.02.01.03.03.04.04,11.43,9.92,28.24,21.16,48.6,32.51,17.88,9.97,37.9,19.72,57.88,28.2,30.7,13.03,57.1,21.31,69.94,21.99l15.97-34.5c.7-1.5,2.48-2.16,3.98-1.46,1.5.7,2.16,2.48,1.46,3.98l-16.8,36.28c-.49,1.05-1.54,1.73-2.69,1.74-.09,0-.19,0-.28,0Z" fill="#2b2b2b"/><path d="M831.26,1676.58c-.6,0-1.2-.18-1.72-.54-.41-.29-41.19-28.98-88.16-71.08-38.67-34.68-70.42-68.32-94.37-99.99-.02-.02-.03-.04-.05-.06-3.51-4.63-7.08-9.54-10.6-14.61-16.05-23.15-27.75-45.26-34.77-65.71-.4-1.17-.04-2.47.9-3.27l197.72-167.12,1.88-4.99c.58-1.55,2.31-2.33,3.86-1.75,1.55.58,2.34,2.31,1.75,3.86l-2.15,5.72c-.18.48-.48.91-.87,1.24l-196.74,166.29c6.91,19.39,18.12,40.34,33.35,62.3,3.46,4.98,6.97,9.81,10.42,14.35.02.02.04.04.05.07,23.72,31.38,55.22,64.75,93.63,99.2,40.71,36.49,76.72,62.83,85.54,69.17l147.93-149.17c16.64-16.77,37.51-27.82,57.69-38.5,6.84-3.62,13.92-7.37,20.74-11.29,143.09-82.24,204.9-168.86,183.73-257.46-6.09-25.51-19.27-51.52-39.16-77.3-1.01-1.31-.77-3.2.54-4.21,1.31-1.01,3.2-.77,4.21.54,20.41,26.46,33.95,53.23,40.24,79.58,21.87,91.5-40.91,180.34-186.57,264.06-6.91,3.97-14.03,7.74-20.92,11.39-20.69,10.95-40.23,21.3-56.24,37.42l-149.72,150.98c-.58.59-1.35.89-2.13.89Z" fill="#2b2b2b"/><path d="M827.63,1632.08c-.34,0-.69-.1-1-.31-65.6-45.61-113.03-98.56-141.26-134.95-30.6-39.44-45.91-68.52-46.06-68.81-.45-.86-.12-1.91.74-2.36.86-.45,1.91-.12,2.36.74.15.29,15.35,29.15,45.78,68.36,28.08,36.17,75.23,88.81,140.43,134.15.79.55.99,1.64.44,2.44-.34.49-.88.75-1.44.75Z" fill="#2b2b2b"/><path d="M1110.73,988.37c-.51,0-1.03-.13-1.49-.4l-198.95-114.17c-1.44-.82-1.93-2.66-1.11-4.1.83-1.44,2.66-1.93,4.1-1.11l197.19,113.16c5.5-4.61,13.16-13.84,21.83-26.31,6.61-9.47,13.86-20.93,20.97-33.15,5.79-9.93,11.38-20.18,16.63-30.46,4.69-9.19,9-18.2,12.83-26.79,12.44-27.79,19.84-51.04,21.41-67.22.34-3.4.41-6.5.22-9.25-14.97-5.68-123.31-46.27-206.25-63.43-.81-.17-1.62-.33-2.42-.49l-1.3-.26c-1-.2-2-.4-2.98-.59-.08-.02-.16-.03-.24-.06-36.85-7.15-62.8-8.27-77.16-3.33-1.57.54-3.27-.29-3.81-1.86-.54-1.57.29-3.27,1.86-3.81,15.4-5.3,42.48-4.24,80.5,3.16.08.02.16.04.24.06.92.18,1.84.37,2.77.55l1.3.26c.82.16,1.64.33,2.46.5,89.31,18.48,207.73,63.91,208.92,64.37,1.04.4,1.77,1.34,1.9,2.45.43,3.6.41,7.75-.04,12.33-2.06,21.24-13.05,49.29-21.91,69.08-3.87,8.68-8.23,17.78-12.97,27.07-5.3,10.38-10.95,20.73-16.79,30.76-7.3,12.54-14.44,23.83-21.23,33.56-6.98,10.04-16.93,23.2-24.72,28.91-.53.39-1.15.58-1.77.58Z" fill="#2b2b2b"/><path d="M1102.21,944.25c-.37,0-.74-.12-1.06-.35-.77-.58-.92-1.68-.34-2.45,45.63-60.23,72.83-144.05,73.1-144.89.29-.92,1.28-1.43,2.2-1.13.92.3,1.43,1.28,1.13,2.2-.27.85-27.64,85.22-73.64,145.93-.34.45-.87.69-1.4.69Z" fill="#2b2b2b"/><path d="M1195.78,1602.98c-.7,0-1.4-.25-1.97-.75-12.11-10.5-36.28-33.3-61.88-57.43-30.7-28.95-62.45-58.89-75.06-69.18-1.28-1.05-1.48-2.94-.43-4.22,1.05-1.28,2.94-1.48,4.22-.43,12.78,10.43,44.61,40.44,75.39,69.46,24.58,23.18,47.85,45.12,60.27,56.03.75-.28,1.71-.62,2.99-1.06,12.08-4.2,48.82-16.97,94.86-55.54.09-.08.17-.15.25-.22.03-.02.05-.05.08-.07,26.01-22.14,45.67-60.74,66.49-101.61,8.03-15.76,16.33-32.05,25.27-47.96,9.81-17.44,17.7-35.02,23.48-52.3-10.59-7.82-68.9-50.84-166.8-122.95-1.33-.98-1.62-2.86-.64-4.2.98-1.33,2.86-1.62,4.19-.64,108.13,79.64,167.96,123.8,168.55,124.24,1.04.77,1.47,2.11,1.07,3.34-5.95,18.31-14.24,36.96-24.63,55.43-8.88,15.8-17.15,32.04-25.15,47.74-21.09,41.4-41.01,80.5-67.91,103.42-.14.13-.27.25-.42.37-46.87,39.27-84.4,52.31-96.73,56.6-1.73.6-3.53,1.23-3.95,1.46-.48.3-1.02.45-1.56.45Z" fill="#2b2b2b"/><path d="M379.15,1727.35c-3.48,0-6.97-.43-10.12-1.32-1.59-.45-2.52-2.11-2.07-3.71.45-1.59,2.11-2.52,3.7-2.07,7.58,2.15,17.68,1.1,22.98-2.4,21.99-14.49,56.28-41.69,101.91-80.85.01-.01.03-.02.04-.04.63-.54,1.26-1.09,1.9-1.63,72.24-62.13,148.05-132.97,148.8-133.67,1.21-1.13,3.11-1.07,4.24.14,1.13,1.21,1.07,3.11-.14,4.24-.76.71-76.65,71.62-148.99,133.84-.61.53-1.23,1.05-1.83,1.57-.02.02-.04.04-.06.06-45.85,39.35-80.35,66.72-102.56,81.35-4.4,2.9-11.1,4.48-17.8,4.49Z" fill="#2b2b2b"/><path d="M580.94,1732.55c-.26,0-.53-.06-.78-.18-58.91-29.31-82.66-90.34-82.9-90.95-.34-.9.11-1.91,1.01-2.26.9-.34,1.91.11,2.26,1.01.23.6,23.53,60.38,81.18,89.07.87.43,1.22,1.48.79,2.35-.31.62-.93.97-1.57.97Z" fill="#2b2b2b"/><path d="M457.69,1841.67c-1.65,0-2.99-1.33-3-2.98-.05-8.54,12.29-23.02,15.6-26.43,34.82-35.97,70.45-58.1,108.18-81.53l1.75-1.09c43.93-27.3,89.35-55.52,134.92-109.74.15-.18.33-.34.52-.49l25.93-19.1c1.27-1.07,3.16-.9,4.23.36,1.07,1.27.9,3.16-.36,4.23l-.13.11c-.05.04-.1.08-.15.12l-25.66,18.9c-46.11,54.78-93.92,84.49-136.11,110.7l-1.75,1.09c-37.4,23.23-72.73,45.17-107.04,80.61-5.56,5.73-13.94,17.51-13.91,22.21.01,1.66-1.32,3.01-2.98,3.02h-.02Z" fill="#2b2b2b"/><path d="M389.62,1919.24c-6.63,0-13.19-2.57-18.12-7.44-87.34-86.32-154.49-172.9-172.99-197.38-3.7-4.9-5.97-10.7-6.58-16.76-.78-7.94,1.28-15.95,5.81-22.54.03-.04.07-.1.11-.15,1.04-1.49,2.19-2.88,3.41-4.16.17-.18.35-.36.53-.54.39-.4.81-.83,1.23-1.26,10.5-11.18,38.68-30.35,56.14-23.91,11.31,4.17,21.64,14.47,31.63,24.43,6.71,6.69,13.05,13.01,18.84,16.5,11.4,6.88,35.27,15.96,51.94,21.02,2.82.86,5.18,1.53,7.2,2.06,2.54.67,4.59,2.54,5.47,5,.88,2.46.48,5.2-1.06,7.32-.54.73-1.01,1.54-1.47,2.49-.02.04-.03.07-.05.11-9.15,19.62,16.09,63.33,82.04,108.92,1.48,1.03,2.81,2.23,3.97,3.58.2.23.37.44.54.66.12.14.26.33.41.53l.1.14c5.52,7.68,5.22,18.15-.7,25.51-19.59,24.33-36.86,41.18-51.34,50.06h0c-2.05,1.27-4.08,2.38-6.01,3.31-3.51,1.69-7.28,2.51-11.03,2.51ZM202.64,1678.56c-3.71,5.45-5.39,12-4.75,18.49.5,4.96,2.36,9.71,5.4,13.74,18.44,24.4,85.37,110.7,172.42,196.73,5.92,5.85,14.89,7.37,22.33,3.79,1.75-.84,3.59-1.86,5.47-3.01,0,0,0,0,0,0,13.89-8.53,30.65-24.92,49.81-48.71,4.24-5.27,4.46-12.75.54-18.2l-.1-.13c-.07-.09-.14-.19-.21-.28-.19-.23-.33-.41-.48-.58-.81-.94-1.77-1.8-2.82-2.54-32.31-22.33-57.19-45.65-71.93-67.42-13.31-19.65-17.63-36.99-12.17-48.86.03-.08.07-.16.11-.24.6-1.27,1.28-2.43,2.05-3.47.51-.71.38-1.41.25-1.76-.1-.29-.44-.98-1.34-1.22-2.1-.55-4.52-1.24-7.42-2.12-17.02-5.16-41.48-14.49-53.3-21.62-6.41-3.87-13-10.43-19.97-17.39-9.53-9.5-19.39-19.33-29.47-23.05-13.97-5.15-39.79,11.85-49.71,22.41-.44.47-.88.91-1.32,1.36-.17.17-.31.31-.44.45-1.05,1.09-2.01,2.27-2.87,3.51-.02.03-.05.08-.09.12ZM202.71,1678.47s-.03.05-.05.07c.02-.02.03-.05.05-.07ZM197.82,1674.99s-.02.03-.03.04c.01-.01.02-.03.03-.04Z" fill="#2b2b2b"/><path d="M403.8,1912.08c-.73,0-1.45-.26-2.03-.79-133.13-122.34-202.98-231.5-203.67-232.59-.89-1.4-.47-3.25.93-4.14,1.4-.89,3.25-.47,4.14.93.69,1.08,70.16,109.62,202.67,231.39,1.22,1.12,1.3,3.02.18,4.24-.59.64-1.4.97-2.21.97Z" fill="#2b2b2b"/><path d="M1231.64,1565.86c-.66,0-1.29-.38-1.59-1.01-.41-.88-.03-1.92.85-2.32.35-.16,35.04-16.61,69.99-60.77,28.65-36.18,57.48-94.82,75.24-153.04.28-.92,1.26-1.45,2.18-1.16.92.28,1.45,1.26,1.16,2.18-17.88,58.61-46.94,117.7-75.84,154.2-35.51,44.86-70.91,61.61-71.27,61.77-.24.11-.49.16-.73.16Z" fill="#2b2b2b"/><path d="M758.9,800.62c-10.05,0-16.83-3.25-17.32-3.49-1.49-.73-2.09-2.53-1.36-4.02.73-1.48,2.53-2.09,4.01-1.36.81.39,18.88,8.86,39.69-5.22,5.76-3.9,13.74-11.81,22.97-20.98,26.33-26.14,66.13-65.64,112.25-69.7,1.66-.14,3.11,1.07,3.25,2.73.15,1.65-1.07,3.11-2.73,3.25-43.96,3.87-82.83,42.45-108.55,67.98-9.84,9.76-17.61,17.48-23.83,21.69-10.51,7.11-20.46,9.13-28.39,9.13Z" fill="#2b2b2b"/><path d="M661.74,754.7c-16.7,0-29.24-3.17-30.01-3.37-36.15-8.18-56.81-31.03-67.75-48.76-3.15-5.1-5.77-10.15-7.77-15.02-4.15-10.08-11.88-18.06-21.77-22.46-.09-.04-.17-.08-.26-.13l-30.24-17.11c-.74-.42-1.27-1.13-1.45-1.96s-.01-1.7.48-2.39c15.57-22,25.55-52.86,12.76-72.21-1.24-1.88-3.65-4.63-6.44-7.81-5.89-6.72-13.23-15.09-16.48-23.03-.63-1.53.11-3.29,1.64-3.91,1.53-.63,3.29.11,3.91,1.64,2.88,7.02,9.84,14.97,15.44,21.35,2.94,3.35,5.47,6.24,6.94,8.46,12.23,18.49,7.87,48.16-10.98,76.25l27.26,15.43c11.24,5.04,20.02,14.13,24.74,25.6,1.88,4.57,4.35,9.33,7.33,14.15,10.34,16.75,29.85,38.34,64.06,46.08.36.09,27.4,6.89,54.28.25,12.29-3.03,28.34-10.55,47.71-22.34,3.39-2.07,6.9-4.28,10.44-6.56,30.16-19.57,44.31-42.4,50.87-58.11,7.11-17.04,7.1-29.63,7.09-29.75-.01-1.65,1.32-3.01,2.97-3.03h.03c1.64,0,2.98,1.32,3,2.96,0,.55.07,13.71-7.43,31.81-6.86,16.58-21.68,40.65-53.27,61.15-3.58,2.32-7.14,4.56-10.58,6.66-19.89,12.11-36.51,19.86-49.39,23.04-9.44,2.33-18.8,3.12-27.12,3.12Z" fill="#2b2b2b"/><path d="M767.32,545.27c-1.26,0-2.4-.8-2.83-2.01-4.96-14.15-27.06-37.04-63.92-66.21-23.52-18.63-48.1-35.46-69.79-50.3-1.37-.94-1.72-2.8-.78-4.17.94-1.37,2.8-1.72,4.17-.78,21.77,14.9,46.45,31.79,70.13,50.55,31.14,24.65,51.62,44.59,61.08,59.49,1.23-15.89,2.2-48.67-6.15-83.2l-.22-.9c-2.02-8.35-3.76-15.56-7.09-24.01-.61-1.54.15-3.28,1.69-3.89,1.54-.61,3.28.15,3.89,1.69,3.49,8.84,5.27,16.24,7.34,24.8l.22.89c11.91,49.25,5.3,95.03,5.23,95.49-.2,1.36-1.31,2.41-2.68,2.54-.1,0-.19.01-.28.01Z" fill="#2b2b2b"/><path d="M805.26,614.41c-1.36,0-2.59-.93-2.92-2.31-.38-1.61.62-3.23,2.23-3.61,8.81-2.07,16.9-7.88,24.05-17.26.2-.26.37-.47.52-.7,9.84-13.28,16.04-30.96,19.51-43.47.4-1.44.85-3.14,1.24-4.81,2.41-10.25,3.55-20.78,3.4-31.32-.12-8.11-1.02-16.27-2.67-24.24-8.42-40.63-24-60.11-46.34-57.89-19.95,1.97-38.5,20.72-38.68,20.91-1.16,1.18-3.06,1.21-4.24.05-1.18-1.16-1.21-3.06-.05-4.24.82-.84,20.23-20.5,42.38-22.69,11.64-1.16,21.85,2.68,30.33,11.41,9.99,10.28,17.55,27.52,22.47,51.24,1.73,8.34,2.67,16.88,2.79,25.38.15,11.02-1.04,22.04-3.56,32.76-.41,1.77-.88,3.53-1.3,5.05-3.61,13.01-10.08,31.43-20.43,45.38-.16.23-.38.51-.59.79-8.03,10.54-17.27,17.09-27.47,19.49-.23.05-.46.08-.69.08Z" fill="#2b2b2b"/><path d="M813.06,577.33c-.3,0-.59-.08-.87-.23-.84-.48-1.13-1.55-.65-2.39,25.75-44.88,20.05-79.47,16.4-92.25-3.53-12.37-9.8-21.75-17.19-25.74-19.35-10.45-35.59,13.02-36.27,14.02-.54.8-1.63,1.01-2.43.47-.8-.54-1.01-1.63-.47-2.43.18-.27,18.7-27.1,40.83-15.14,8.22,4.43,15.11,14.58,18.9,27.86,3.77,13.21,9.68,48.92-16.73,94.95-.32.56-.91.88-1.52.88Z" fill="#2b2b2b"/><path d="M756.74,767.92c-.29,0-.58-.04-.87-.13-1.58-.48-2.47-2.14-2-3.72.04-.15,1.28-4.96-1.39-12.61-.02-.06-.03-.07-.05-.14-2.63-7.46-8.06-15.13-16.13-22.74-1.21-1.14-1.26-3.04-.12-4.24,1.14-1.21,3.04-1.26,4.24-.12,8.77,8.27,14.72,16.74,17.69,25.18.03.06.03.09.05.15,3.38,9.67,1.54,15.98,1.46,16.24-.39,1.29-1.58,2.13-2.87,2.13Z" fill="#2b2b2b"/><path d="M940.93,432.91c-.24,0-.49-.03-.74-.09-1.61-.41-2.58-2.04-2.17-3.65.04-.15,3.72-15.08,3.1-39.79-.04-1.66,1.27-3.03,2.92-3.07,1.64-.03,3.03,1.27,3.07,2.92.64,25.62-3.12,40.78-3.28,41.42-.34,1.36-1.57,2.26-2.91,2.26Z" fill="#2b2b2b"/><path d="M518.52,552.15c-.43,0-.87-.09-1.27-.28-7.91-3.1-15.61-6.48-22.9-10.03-16.88-8.25-31.5-17.54-43.46-27.62-1.27-1.07-1.43-2.96-.36-4.23,1.07-1.27,2.96-1.43,4.23-.36,11.59,9.76,25.8,18.78,42.23,26.82,7.19,3.51,14.81,6.84,22.63,9.9.41.16.78.41,1.08.72,1.14,1.2,1.1,3.1-.1,4.25-.58.55-1.33.83-2.07.83Z" fill="#2b2b2b"/><path d="M518.52,552.14c-1.15,0-2.24-.66-2.74-1.77l-.09-.19c-2.81-6.02-12.58-27.69-20.49-53.65-.48-1.58.41-3.26,2-3.74,1.59-.48,3.26.41,3.74,2,7.79,25.59,17.42,46.93,20.19,52.87l.12.27c.68,1.51,0,3.29-1.51,3.97-.4.18-.82.26-1.23.26Z" fill="#2b2b2b"/><path d="M645.74,490.11c-21.47,0-44.54-4.46-69.08-13.39-1.14-.41-2.27-.84-3.4-1.26l-2.75-1.03c-4.41-1.66-7.59-2.85-12.36-5.02-1.51-.69-2.18-2.46-1.49-3.97.69-1.51,2.46-2.18,3.97-1.49,4.58,2.08,7.53,3.19,11.99,4.86l2.76,1.04c1.1.42,2.2.83,3.32,1.24,46.87,17.05,88.06,17.35,122.43.91.05-.03.11-.05.16-.07.1-.04.2-.09.29-.14.14-.07.28-.13.42-.2,1.51-.67,3.29,0,3.96,1.52.67,1.51,0,3.29-1.52,3.96l-.25.12c-.18.09-.36.17-.55.25-17.68,8.44-37.04,12.67-57.92,12.67Z" fill="#2b2b2b"/><path d="M917.48,677.57c-.76,0-1.52-.29-2.1-.86,0,0-.08-.08-.25-.27-2.45-2.59-24.46-26.48-30.94-53.35-3.21-13.36-2.09-25.35,3.35-35.64.53-1,1.06-2,1.62-3l.28-.5c.81-1.44,2.64-1.96,4.08-1.15,1.44.81,1.96,2.64,1.15,4.08l-.27.5c-.53.96-1.04,1.92-1.55,2.88-4.74,8.95-5.69,19.52-2.82,31.42,6.12,25.36,27.14,48.17,29.51,50.68l.11.12c1.14,1.18,1.12,3.05-.05,4.21-.58.58-1.35.87-2.11.87Z" fill="#2b2b2b"/><path d="M886.09,625.63c-.7,0-1.41-.25-1.98-.75-26.38-23.18-52.2-29.13-52.46-29.19-1.62-.36-2.64-1.96-2.28-3.58.36-1.62,1.95-2.64,3.57-2.28,1.11.25,27.51,6.28,55.12,30.54,1.24,1.09,1.37,2.99.27,4.23-.59.68-1.42,1.02-2.25,1.02Z" fill="#2b2b2b"/><path d="M997.72,725.89c-.54,0-1.08-.15-1.56-.43,0,0-.75-.45-2.11-1.35-.98-.65-2.63-1.76-4.86-3.36-6.65-4.78-17.12-12.97-29.23-24.81-25.48-24.95-46.13-53.96-61.37-86.24-3.52-7.44-6.76-15.08-9.62-22.72-4.86-12.92-8.88-26.37-11.97-39.98-.97-4.36-1.78-8.29-2.47-12.04-3.82-20.56-2.23-41.38,4.59-60.22.31-.84.62-1.66.92-2.46,2.02-5.24,4.72-10.2,8.04-14.74,5.83-8.05,13.66-14.88,22.62-19.76,5.12-2.79,10.62-4.97,16.35-6.47,5.01-1.3,9.21-2.45,13.23-3.63,20.3-5.93,36.96-12.81,52.41-21.65,12.8-7.32,24.76-16.09,35.54-26.07.82-.76,1.98-1,3.03-.63,1.05.37,1.81,1.29,1.97,2.39.3,2.05,6.85,48.74-16.06,85.37,11.2.21,37.44,1.37,64.13,7.44,47.3,10.76,74.53,32.01,78.76,61.46.14.97-.2,1.94-.92,2.61-.71.67-1.71.95-2.67.75-18.74-3.92-50.25-6.26-57.42,3.57,2.53,11.73,20.47,97.91,11.24,144.26-.21,1.05-.96,1.91-1.97,2.25-1.01.35-2.13.13-2.94-.57-.21-.18-20.81-17.99-42.65-34.7-32.64-24.96-43.71-28.95-47.26-29.34.6,16.33,2.17,86.82-14.94,99.78-.39.31-.84.61-1.33.89-.46.26-.98.4-1.49.4ZM1027.86,388.35c-9.93,8.65-20.74,16.33-32.2,22.88-15.87,9.09-32.94,16.14-53.71,22.21-4.08,1.19-8.34,2.36-13.4,3.67-5.26,1.38-10.31,3.37-15,5.93-8.19,4.45-15.32,10.68-20.64,18.02,0,0,0,0,0,0-3,4.11-5.46,8.61-7.28,13.36-.29.77-.59,1.57-.89,2.36-6.45,17.81-7.95,37.55-4.32,57.06.68,3.67,1.47,7.53,2.43,11.81,3.02,13.33,6.97,26.52,11.73,39.19,2.8,7.48,5.97,14.97,9.42,22.26,14.94,31.64,35.18,60.07,60.15,84.52,11.84,11.58,22.05,19.57,28.53,24.23,2.15,1.54,3.73,2.61,4.67,3.23.08.05.15.1.23.15,12.7-11.85,12.84-73.51,11.79-96.7-.05-1.08.49-2.1,1.4-2.68,4.61-2.9,14.8-1.67,55.44,29.4,16.3,12.46,31.94,25.56,39.07,31.61,7.17-48.85-12.15-136.95-12.36-137.87-.16-.71-.05-1.45.29-2.09,8.63-15.83,46.5-10.7,60.1-8.29-14.29-61.08-140.4-59.6-141.7-59.58-1.11.03-2.18-.6-2.71-1.61-.53-1-.44-2.22.22-3.14,20.16-28.14,19.74-65.75,18.72-79.96ZM890.5,459.3h0,0Z" fill="#2b2b2b"/><path d="M877.95,548.27c-2.82,0-4.96-1.18-6.35-2.3-6.05-4.83-9.3-16.66-9.68-35.17-.02-1.06-.04-2.14-.04-3.27-.09-39.54,21.55-48.22,28.18-49.93.09-.03.24-.07.39-.1.94-.23,1.89.34,2.12,1.28.23.94-.34,1.89-1.28,2.12-.09.02-.18.04-.28.07-6.09,1.58-25.72,9.54-25.64,46.56,0,1.1.02,2.16.04,3.2.44,21.7,4.79,29.65,8.36,32.5,2.53,2.02,4.81,1.55,5.56,1.39.33-.07,1.02-.21,1.67.3.4.32.65.8.67,1.32.04.96-.7,1.76-1.65,1.81-.73.14-1.42.21-2.07.21Z" fill="#2b2b2b"/><path d="M728.26,1052.56c-.16,0-.32-.02-.48-.07-73.21-21.07-145.66-72.24-146.38-72.76-.79-.56-.97-1.65-.41-2.44.56-.79,1.65-.97,2.44-.41.72.51,72.69,51.34,145.32,72.25.93.27,1.47,1.24,1.2,2.17-.22.77-.92,1.27-1.68,1.27Z" fill="#2b2b2b"/><path d="M1501.5,1466.85c-.75,0-1.45-.49-1.67-1.24-.2-.67-20.96-67.42-75.57-96.18-.65-.35-1.32-.69-2-1.04-.86-.44-1.21-1.49-.77-2.35s1.49-1.21,2.35-.77c.7.36,1.4.71,2.06,1.07,55.92,29.44,77.07,97.57,77.28,98.25.28.92-.24,1.9-1.17,2.18-.17.05-.34.08-.51.08Z" fill="#2b2b2b"/><path d="M1390.43,1395.34c-.85,0-1.68-.35-2.28-1.05-1.08-1.26-.93-3.15.32-4.23.53-.45,13.19-11.26,35.02-24.74,1.93-1.2,3.95-2.41,6.01-3.63,12.43-7.35,24.52-12.29,36.21-17.06,23.97-9.79,46.61-19.04,66.75-47.68,1.04-1.48,2.47-3.27,4.13-5.34,3.94-4.92,10.54-13.17,10.6-16.98.03-1.64,1.36-2.95,3-2.95h.05c1.66.03,2.98,1.39,2.95,3.05-.08,5.44-5.22,12.27-11.92,20.64-1.59,1.99-2.97,3.71-3.91,5.04-21.16,30.07-44.59,39.64-69.39,49.78-11.49,4.7-23.37,9.55-35.42,16.67-2.03,1.21-4.01,2.4-5.92,3.58-21.44,13.24-34.14,24.08-34.27,24.19-.57.49-1.26.72-1.95.72Z" fill="#2b2b2b"/><path d="M1747.51,1463.91c-2.8,0-5.45-.41-7.87-1.31-11.1-4.13-21-14.21-30.56-23.95-6.41-6.53-12.46-12.69-18.06-16.11-10.71-6.52-34.22-15.65-50.75-20.71-2.87-.88-5.11-1.52-7.06-2.04-2.53-.68-4.52-2.53-5.34-4.97-.82-2.46-.33-5.16,1.3-7.24.56-.72,1.07-1.51,1.5-2.33.02-.05.05-.11.08-.16,9.81-18.91-13.62-61.41-77.37-106.05-1.49-1.04-2.78-2.23-3.86-3.53-.41-.49-.75-.93-1.05-1.37-5.2-7.49-4.54-17.71,1.64-24.84,20.32-23.47,38.07-39.69,52.74-48.22,0,0,.01,0,.02-.01.06-.04.13-.08.19-.11,2.03-1.17,4-2.2,5.87-3.04,9.8-4.46,21.35-2.45,28.75,5.02,83.52,84.3,147.06,168.82,164.54,192.71,3.52,4.81,5.58,10.48,5.95,16.41.5,7.71-1.82,15.46-6.54,21.83-.04.05-.07.11-.11.16-1.17,1.53-2.34,2.86-3.58,4.06-.14.14-.32.31-.51.49-.44.41-.86.81-1.26,1.21-9.3,9.26-31.69,24.12-48.65,24.13ZM1636.08,1387.83s-.01.03-.02.04c-.61,1.2-1.34,2.34-2.17,3.4-.54.68-.44,1.32-.33,1.64.1.31.39.86,1.18,1.07,2.02.53,4.33,1.2,7.27,2.1,16.66,5.1,40.59,14.3,52.12,21.33,6.24,3.8,12.54,10.23,19.22,17.03,9.11,9.28,18.52,18.87,28.38,22.53,13.71,5.11,39.96-11.24,50.2-21.44.45-.45.93-.91,1.4-1.34.14-.13.27-.26.41-.39,1.04-1,2-2.09,2.96-3.34.02-.04.05-.07.07-.11,3.9-5.24,5.82-11.61,5.41-17.94-.3-4.79-1.96-9.37-4.81-13.25-17.42-23.81-80.73-108.03-163.96-192.03-5.64-5.69-14.48-7.21-22-3.78-1.7.77-3.51,1.71-5.38,2.8,0,0-.02.01-.03.02-.04.03-.09.05-.14.08h0c-14.1,8.2-31.33,24-51.22,46.96-4.38,5.06-4.88,12.26-1.22,17.52.2.3.42.58.71.92.75.9,1.65,1.73,2.7,2.46,31.29,21.91,55.15,44.73,69.01,65.99,12.52,19.2,16.17,36.09,10.31,47.59-.02.04-.04.08-.06.12v.02ZM1604.53,1203.55h.01-.01Z" fill="#2b2b2b"/><path d="M1798.78,1434.85c-1.01,0-2-.51-2.57-1.44-.64-1.05-65.64-106.81-192.7-225.83-1.21-1.13-1.27-3.03-.14-4.24,1.13-1.21,3.03-1.27,4.24-.14,127.7,119.62,193.08,226.03,193.72,227.09.86,1.42.41,3.26-1,4.12-.49.3-1.03.44-1.56.44Z" fill="#2b2b2b"/><path d="M1333.68,1554.46c-9.04,0-17.27-1.35-24.68-4.06-.85-.31-1.72-.62-2.61-.94-3.27-1.17-6.65-2.39-10.33-3.94-1.53-.64-2.24-2.4-1.6-3.93s2.41-2.24,3.93-1.6c3.53,1.49,6.83,2.68,10.03,3.82.9.32,1.78.64,2.64.95,39.57,14.46,108.05-14.3,187.9-78.91.64-.51,1.26-1,1.88-1.51.04-.04.09-.07.13-.1,46.84-37.83,82.05-64.14,104.63-78.21,6.79-4.22,18.72-5.46,27.76-2.87,1.59.46,2.51,2.12,2.06,3.71-.46,1.59-2.12,2.51-3.71,2.06-7.46-2.13-17.53-1.17-22.94,2.19-22.39,13.94-57.42,40.14-104.11,77.85h0s-.06.05-.09.07c-.62.51-1.25,1.01-1.86,1.5-38.37,31.05-75.66,54.84-107.81,68.79-23.25,10.08-43.73,15.14-61.21,15.14Z" fill="#2b2b2b"/><path d="M1379.6,1032.78c-.63,0-1.27-.2-1.81-.61l-159.91-121.11-45.63-14.69c-1.58-.51-2.44-2.2-1.94-3.77.51-1.58,2.2-2.44,3.77-1.94l46.12,14.85c.32.1.62.26.89.46l160.32,121.42c1.32,1,1.58,2.88.58,4.2-.59.78-1.49,1.19-2.39,1.19Z" fill="#2b2b2b"/><path d="M1458.98,956.92c-.6,0-1.2-.18-1.72-.54l-2.21-1.55-189.82-133.19s-.06-.04-.09-.06c-7.12-5.4-15.5-9.52-24.91-12.25l-33.31-8.24c-1.61-.4-2.59-2.02-2.19-3.63s2.02-2.59,3.63-2.19l33.37,8.25s.08.02.11.03c10.11,2.93,19.15,7.38,26.87,13.22l191.98,134.71c1.36.95,1.69,2.82.73,4.18-.58.83-1.51,1.28-2.46,1.28Z" fill="#2b2b2b"/><path d="M569.5,1140.38c-37.91,0-102.63-38.54-151.36-67.56-10.39-6.19-19.37-11.54-27.01-15.85-1.44-.81-1.95-2.64-1.14-4.09s2.65-1.95,4.09-1.14c7.7,4.35,16.71,9.71,27.14,15.92,50.82,30.26,127.61,75.99,159.31,65.11,75.79-26,90.61-65.4,90.76-65.79.56-1.56,2.27-2.37,3.83-1.83,1.56.55,2.38,2.25,1.83,3.81-.6,1.72-15.62,42.43-94.47,69.48-3.84,1.32-8.19,1.93-12.96,1.93Z" fill="#2b2b2b"/><path d="M547.6,1026c-.3,0-.6-.04-.89-.14l-118.55-36.87c-1.59-.47-2.5-2.13-2.03-3.72s2.14-2.5,3.72-2.03l.34.1,116.73,36.31,17.44-14.63c1.27-1.07,3.16-.9,4.23.37,1.06,1.27.9,3.16-.37,4.23l-18.69,15.68c-.55.46-1.23.7-1.93.7Z" fill="#2b2b2b"/><path d="M381.37,1014.44c-.69,0-1.38-.24-1.95-.72-.31-.26-30.62-26.66-10.62-53.37.09-.11.18-.22.28-.32,1.14-1.18,3.03-1.22,4.22-.08,1.15,1.1,1.24,2.9.23,4.1h0c-16.44,22.17,8.72,44.18,9.8,45.11,1.26,1.08,1.4,2.97.33,4.23-.59.69-1.43,1.05-2.28,1.05Z" fill="#2b2b2b"/><path d="M429.19,993.2c-.06,0-.12,0-.18,0-1.65-.1-2.92-1.51-2.82-3.17.07-1.25.12-2.52.16-3.88.19-8.54-.55-14.43-.56-14.49-2.18-17.76-15.96-31.36-22.58-37.89l-.11-.11c-2.76-2.73-8.78-6.34-12.61-7.6l-1.51-.09-23.94-1.34c-1.93-.1-3.81.18-5.59.86-4.82,1.81-16.43,6.99-20.45,16.09,0,.02-.02.05-.03.07h0c-2.1,4.81-1.85,10.01.77,15.91,2.04,4.57,4.47,7.79,7.22,9.57,9.46,6.1,21.54-6.5,22.05-7.04,1.14-1.21,3.04-1.26,4.24-.12,1.2,1.14,1.26,3.04.12,4.24-5.91,6.25-18.81,14.96-29.67,7.96-3.75-2.42-6.93-6.51-9.45-12.17-3.29-7.42-3.56-14.41-.79-20.75.01-.03.02-.05.03-.08h0c4.76-10.79,16.97-16.72,23.82-19.29,2.56-.97,5.27-1.39,8.04-1.24l25.84,1.45c.24.01.47.06.69.12,4.7,1.42,11.9,5.71,15.41,9.18l.11.1c7.1,7.01,21.89,21.6,24.32,41.41.03.24.8,6.34.6,15.37-.03,1.43-.09,2.77-.16,4.09-.09,1.59-1.42,2.83-2.99,2.83Z" fill="#2b2b2b"/><path d="M363.93,1063.49c-10.64,0-19.64-2.45-26.43-5.25-10.75-4.43-17.89-10.36-20.52-12.77-3.33.42-6.45.61-9.35.61-26.57,0-35.61-15.87-36.55-17.68-8.45-14.01-2.47-32.51-.56-37.59-10.48-22.14,2.69-37.23,7.59-41.8-2.74-8.92-2.11-16.57,1.88-22.76,6.13-9.49,18.37-12.51,23.68-13.4,0,0,0,0,0,0,.3-7.01,1.1-25.65,29.23-26.81,30.65-1.29,57.54,32.94,58.67,34.4,1.01,1.31.78,3.19-.53,4.21-1.31,1.02-3.19.78-4.21-.53-.26-.33-26.15-33.26-53.67-32.08-22.62.94-23.18,14.04-23.48,21.07-.06,1.32-.1,2.28-.29,3.1-.3,1.26-1.38,2.18-2.67,2.29-.15.01-15.51,1.45-21.68,11.03-3.21,4.99-3.42,11.53-.61,19.44.44,1.24.02,2.63-1.05,3.42-.75.56-18.46,14.16-6.9,36.95.4.79.43,1.73.08,2.54-.08.2-8.44,20.12-.29,33.51.05.08.09.15.13.23.37.73,9.64,18.22,41.19,13.73.95-.13,1.91.19,2.58.88,1.17,1.2,29.33,29.35,71.26,11.38,1.52-.65,3.29.05,3.94,1.58.65,1.52-.05,3.29-1.58,3.94-10.89,4.67-20.95,6.38-29.85,6.38Z" fill="#2b2b2b"/><path d="M334.71,942.66c-.5,0-1.02-.13-1.49-.4-15.1-8.64-28.49-24.17-29.05-24.82-1.08-1.26-.93-3.15.33-4.23,1.26-1.08,3.15-.93,4.23.33.13.15,13.29,15.4,27.47,23.52,1.44.82,1.94,2.66,1.11,4.09-.55.97-1.57,1.51-2.61,1.51Z" fill="#2b2b2b"/><path d="M326.28,984.75c-17.39,0-43.79-29.26-46.94-32.81-1.1-1.24-.98-3.14.26-4.23,1.24-1.1,3.14-.98,4.23.26,11.77,13.3,34.23,33.37,44.39,30.55,2.41-.66,4.56-1.37,6.4-2.1l.1-.04c.12-.05.23-.1.35-.14,5.08-2.11,5.71-3.65,6.59-5.77.29-.69.61-1.48,1.08-2.3.02-.03.04-.07.06-.1.01-.04.07-.13.14-.24.88-1.4,2.73-1.83,4.14-.94,1.38.87,1.81,2.68.98,4.07-.04.07-.08.14-.12.21-.28.49-.49,1.01-.74,1.6-1.35,3.26-3.03,6.19-9.9,9.03-.05.02-.1.04-.14.05l-.32.13c-2.05.81-4.4,1.59-7.02,2.31-1.13.31-2.32.46-3.55.46Z" fill="#2b2b2b"/><path d="M315.6,1010.83c-23.46,0-42.97-17.18-43.81-17.93-1.24-1.1-1.34-3-.24-4.24,1.1-1.23,3-1.34,4.23-.24h0c.19.17,19.24,16.91,40.82,16.39,2.37-.06,4.74-.33,7.04-.81.32-.07.64-.14.97-.22,6.27-1.49,10.2-4.13,11.71-7.84,2.66-6.53-2.5-14.84-2.56-14.92-.88-1.4-.47-3.25.93-4.14,1.4-.89,3.25-.48,4.13.92.28.44,6.88,10.96,3.06,20.37-2.28,5.63-7.61,9.48-15.86,11.44-.36.09-.75.18-1.15.26-2.68.56-5.41.87-8.14.94-.39,0-.77.01-1.16.01Z" fill="#2b2b2b"/><path d="M318.01,1045.3c-.99,0-1.95-.49-2.53-1.38-.89-1.39-.49-3.25.9-4.14.15-.1,10.95-7.19,12.68-16.81.77-4.31-.36-8.43-3.48-12.59-.99-1.33-.72-3.21.61-4.2,1.33-.99,3.21-.72,4.2.61,4.11,5.5,5.65,11.31,4.57,17.28-2.21,12.22-14.8,20.42-15.34,20.76-.5.32-1.06.48-1.62.48Z" fill="#2b2b2b"/><path d="M560.31,500.54c-.97,0-1.75-.78-1.75-1.75,0-4.94,2.42-9.35,7.2-16.26,3.27-4.72,6.91-8.05,11.13-10.19,7.76-3.95,17.09-3.53,27.74,1.26.88.4,1.27,1.43.88,2.31-.4.88-1.44,1.27-2.31.88-9.63-4.34-17.95-4.79-24.72-1.34-3.69,1.87-6.91,4.84-9.84,9.07-4.98,7.2-6.58,10.67-6.58,14.26,0,.97-.78,1.75-1.75,1.75Z" fill="#2b2b2b"/><path d="M579.49,695.13c-.73,0-1.47-.27-2.05-.81-1.21-1.13-1.28-3.02-.15-4.24,1.51-1.62,37.62-39.56,100.84-32.83,1.65.18,2.84,1.65,2.67,3.3-.18,1.65-1.65,2.84-3.3,2.67-60.12-6.4-95.47,30.58-95.82,30.95-.59.63-1.39.95-2.19.95Z" fill="#2b2b2b"/><path d="M1163.28,415.85c-1.99,0-3.91-.9-5.18-2.52-1.66-2.1-1.89-4.97-.59-7.31,20.95-37.78,94.83-161.54,166-167.9,22.12-1.98,41.97,7.6,59,28.47,14.95,18.31,18.85,37.42,11.28,55.24-13.6,32.03-63.39,56.93-123.89,61.97-33.24,2.77-61.66,14.63-82.41,23.29-8.79,3.67-16.38,6.84-22.43,8.51-.59.16-1.19.24-1.78.24ZM1329.06,243.87c-1.66,0-3.33.08-5.01.23-29.2,2.61-62.68,26.94-99.52,72.33-29.82,36.74-53.13,76.93-61.77,92.51-.05.09-.2.37.05.69.25.32.54.23.64.21,0,0,0,0,0,0,5.69-1.57,13.12-4.67,21.72-8.27,21.12-8.82,50.04-20.89,84.22-23.73,27.84-2.32,54.87-9.3,76.12-19.66,21.71-10.58,36.5-23.96,42.75-38.68,6.74-15.87,3.24-32.39-10.4-49.11-14.37-17.61-30.77-26.52-48.8-26.52Z" fill="#2b2b2b"/><path d="M1311.8,533.14c-14.4,0-31.11-6.58-46.41-18.72-19.5-15.48-40.44-27.42-51.04-31.2,0,0,0,0,0,0-2.22-.79-3.63-2.82-3.61-5.17.02-2.34,1.47-4.34,3.69-5.1,23.71-7.97,97.33-25.53,123.82-2.5,8.59,7.47,11.63,18.31,9.04,32.21-2.62,14.08-10.11,23.81-21.65,28.12-4.24,1.59-8.9,2.36-13.84,2.36ZM1217.87,478.13c11.12,4.33,31.25,15.71,51.25,31.59,18.91,15,39.75,20.92,54.41,15.44,9.46-3.54,15.63-11.7,17.85-23.6,2.21-11.83-.11-20.53-7.08-26.58-22.17-19.27-86.93-6.47-116.44,3.15ZM1216.37,477.57s0,0,0,0c0,0,0,0,0,0h0Z" fill="#2b2b2b"/><path d="M1435.54,448.89c-28.31,0-71.69-30.07-73.8-31.55-.87-.61-1.35-1.63-1.27-2.68.08-1.06.71-1.99,1.66-2.46,2.5-1.24,61.46-30.22,86.49-14.14,7.72,4.96,11.44,13.47,11.06,25.28-.37,11.49-4.41,19.23-12,23.03-3.51,1.76-7.64,2.52-12.14,2.52ZM1369.52,415.36c18.62,12.22,58.35,34.21,75.47,25.64,5.54-2.77,8.38-8.62,8.68-17.86.31-9.69-2.41-16.25-8.31-20.04-18.43-11.84-61.51,5.8-75.85,12.26Z" fill="#2b2b2b"/><path d="M644.97,580.92c.63,2.78-.9,5.68-3.72,7.06-7.62,3.77-23.26,10.79-37.67,12.82-2.85.41-6.61-.52-7.82-2.83-8.63-16.53-40.31-84.29-6.73-95.47,33.22-11.08,51.63,59.41,55.94,78.42Z"/><path d="M367.22,525.4c-48.56,0-97.89-27.19-113.74-42.51-7.59-7.35-11.32-16.25-10.5-25.08.82-8.8,6.06-16.32,14.01-20.1,12.16-5.76,97.43-56.55,110.76-64.5-.39-3.77.45-7.02,2.51-9.7,3.02-3.93,7.94-5.47,11.01-6.06,1.93-47.26,14.09-89.48,36.15-125.53,18.83-30.78,45.06-57.38,77.94-79.07,58.59-38.65,124.23-52.75,158.14-57.71,1.64-.24,3.16.89,3.4,2.53.24,1.64-.89,3.16-2.53,3.4-60.97,8.93-260.42,53.99-267.2,259.1-.05,1.56-1.29,2.82-2.85,2.9-1.79.1-6.96,1.03-9.32,4.11-1.33,1.74-1.67,4.01-1.04,6.93.27,1.26-.29,2.55-1.4,3.21-4.06,2.43-99.63,59.47-113.01,65.81-6.02,2.86-9.99,8.55-10.61,15.23-.65,6.98,2.44,14.16,8.7,20.21,16.41,15.86,70.22,44.96,120.3,40.33,58.82-5.43,110.78-20.73,168.48-49.61,62.91-31.49,78-47.31,78.14-47.47.58-.63,1.39-1,2.26-.97,1.34.03,135.22,2.46,202.86-8.12,1.71-.27,3.41-.53,5.1-.79,5.29-.82,10.44-1.61,15.44-2.37,53.8-8.22,92.73-14.16,97.84-30.93.36-2.66,3.88-30.82-.4-67.86-4.12-35.63-16.52-87.04-52.2-129.61-43.22-51.56-110.41-79.16-199.7-82.05-1.66-.05-2.96-1.44-2.9-3.1.05-1.66,1.48-2.94,3.1-2.9,91.09,2.94,159.77,31.28,204.14,84.23,36.66,43.76,49.36,96.44,53.55,132.93,4.54,39.48.5,68.21.32,69.42-.02.14-.05.27-.09.4-5.93,20.61-42.38,26.17-102.76,35.39-5,.76-10.14,1.55-15.43,2.37-1.68.26-3.37.52-5.08.79-64.6,10.11-188.7,8.44-202.64,8.22-4.21,3.98-22.74,19.68-78.88,47.78-58.4,29.23-111.01,44.72-170.61,50.22-3.74.35-7.51.51-11.28.51Z" fill="#2b2b2b"/><path d="M605.47,423.54c-2.17,0-4.29,0-6.35-.02-21.34-.14-42.21-1.01-62.03-2.59-113.73-9.09-162.42-39.27-162.9-39.57-.82-.52-1.06-1.6-.54-2.41s1.6-1.06,2.41-.54c.47.3,48.58,30.03,161.31,39.04,19.74,1.58,40.52,2.45,61.78,2.58,4.26.03,8.79.03,13.45,0h.01c.96,0,1.74.78,1.75,1.74,0,.97-.77,1.76-1.74,1.76-2.43.02-4.82.02-7.15.02Z" fill="#2b2b2b"/><path d="M834.34,410.05c-.1,0-.19,0-.29-.02-.95-.16-1.6-1.06-1.44-2.02,16.36-97.14,8.39-173.44-23.69-226.8-24.96-41.52-63.83-68.59-115.54-80.44-.01,0-.03,0-.03,0-.93-.2-1.55-1.1-1.37-2.03.17-.93,1.05-1.55,1.98-1.41.03,0,.09.02.12.02,52.74,12.08,92.37,39.69,117.85,82.07,32.52,54.09,40.64,131.2,24.14,229.18-.14.85-.88,1.46-1.72,1.46Z" fill="#2b2b2b"/><path d="M543.4,414.42s-.09,0-.13,0c-.96-.07-1.69-.91-1.62-1.87,7.45-101.71,24.7-180.73,51.29-234.85,21.51-43.79,44.92-63.14,62.91-75.12.81-.53,1.89-.32,2.43.49.54.8.32,1.89-.49,2.43-40.68,27.08-96.63,88.39-112.65,307.31-.07.92-.83,1.62-1.74,1.62Z" fill="#2b2b2b"/><path d="M664.69,108.27c-1.96,0-3.82-.28-5.54-1.09-1.29-.6-2.45-1.31-3.45-2.09-2.3-1.77-3.79-3.99-4.3-6.42-.1-.42-.16-.84-.19-1.29-.57-7.99,9.44-15.24,22.78-16.46,8.55-.79,16.39,1.06,20.98,4.95,2.4,2.03,3.77,4.55,3.96,7.26.1,1.3-.08,2.61-.54,3.9-.46,1.34-1.26,2.69-2.35,3.97-.58.68-1.23,1.32-1.93,1.91-3.61,3.07-8.45,3.37-13.58,3.68-1.3.08-2.65.16-4.06.29-1.58.15-3.2.4-4.76.64-2.43.38-4.79.74-7.02.74ZM677.74,86.76c-1.05,0-2.12.05-3.2.15-10.27.94-17.63,6.1-17.35,10.09,0,.14.02.25.05.35,0,.03.01.06.02.09.26,1.27,1.29,2.29,2.11,2.92.66.52,1.44.98,2.32,1.39,2.03.95,5.46.42,9.1-.15,1.65-.26,3.36-.52,5.12-.69,1.48-.14,2.89-.22,4.25-.31,4.45-.27,7.97-.49,10.06-2.27.46-.39.88-.81,1.26-1.24.6-.7,1.02-1.39,1.24-2.05.19-.52.26-1.01.22-1.47-.08-1.1-.7-2.15-1.86-3.13-2.75-2.34-7.78-3.7-13.34-3.7Z" fill="#2b2b2b"/><path d="M384.87,511.27c-1.82,0-3.62-.03-5.41-.09-48.42-1.69-80.04-16.08-98.04-27.84-19.61-12.82-27.61-25.12-27.94-25.64-.52-.81-.28-1.89.53-2.42.81-.52,1.9-.29,2.42.53.08.12,8.04,12.3,27.1,24.72,17.61,11.47,48.57,25.49,96.06,27.15,91.33,3.17,217.06-77.8,218.31-78.62.81-.53,1.89-.3,2.42.51.53.81.3,1.89-.51,2.42-.32.21-32.19,20.84-75.02,40.79-38.13,17.77-92.73,38.49-139.92,38.49Z" fill="#2b2b2b"/></svg>