<?xml version="1.0" encoding="UTF-8"?><svg id="_レイヤー_29" xmlns="http://www.w3.org/2000/svg" width="1500" height="2000" viewBox="0 0 1500 2000"><path d="M765.81,1913.58c-.96,0-1.86-.46-2.43-1.24-.57-.78-.72-1.79-.42-2.71l37.94-113.81c.33-.98,1.13-1.72,2.13-1.96,0,0,6.4-1.58,17.45-4.26.12-.03.23-.06.35-.09.03,0,.07-.01.1-.02,47.68-11.58,208.34-50.13,280.9-61.66,50.46-8.02,78.3,4.33,90.4,12.4,4.17,2.78,9.1,4.25,14.25,4.25.09,0,.17,0,.26,0,19.85-.18,70.12-2.59,183.85-16.67,1.09-.12,26.33-2.87,28.64,14.76.1.7.15,1.45.16,2.27,0,.05,0,.11,0,.16l-.49,11.27c-.18,3.92-3.11,7.23-6.96,7.89l-178,30.47-9.91,8.49-1.61,59.7c0,.17-.02.33-.05.49-.07.36-7.48,35.97-48.7,41.98-39.34,5.74-392.8,8.18-407.82,8.28h-.02ZM806.07,1799.29l-36.09,108.26c40.9-.3,366.15-2.84,402.81-8.19,35.44-5.17,42.98-34.19,43.63-36.98l1.64-60.75c.02-.85.4-1.65,1.05-2.2l11.55-9.9c.41-.35.91-.59,1.45-.68l178.81-30.61c1.1-.19,1.93-1.13,1.98-2.25l.49-11.18c0-.54-.04-1.01-.1-1.46-1.54-11.8-21.77-9.63-21.98-9.6-114,14.1-164.53,16.52-184.51,16.71-6.42.07-12.65-1.76-17.9-5.26-11.37-7.58-37.68-19.16-86.12-11.46-72.39,11.51-233.02,50.05-280.52,61.59-.05.01-.11.03-.16.04-.06.02-.06.02-.13.04-7.83,1.9-13.33,3.25-15.88,3.87Z" fill="#2b2b2b"/><path d="M765.81,1913.58c-1.31,0-2.52-.87-2.89-2.2-.44-1.6.49-3.25,2.09-3.69l415.66-115.46c.08-.02.15-.04.23-.05,6.06-1.18,23.71-6.29,25.31-14.08,1.08-5.25-5.7-11.13-11.58-15.14-3.21-2.19-6.16-4.23-8.92-6.14-27.91-19.31-35.42-24.51-83.31-23.03-1.66.07-3.04-1.25-3.09-2.91-.05-1.66,1.25-3.04,2.91-3.09,49.86-1.53,58.45,4.41,86.91,24.09,2.75,1.9,5.7,3.94,8.89,6.12,10.75,7.33,15.49,14.5,14.08,21.31-2.67,12.93-26.62,18.08-29.93,18.73l-415.55,115.43c-.27.07-.54.11-.8.11Z" fill="#2b2b2b"/><path d="M960.55,1859.91c-1.37,0-2.61-.95-2.92-2.34-.37-1.62.65-3.22,2.26-3.59,1.62-.37,162.71-36.8,225.83-51.88,29.7-7.1,38-14.79,39.74-20,1.05-3.15-.03-6.59-3.29-10.53-1.25-1.52-1.56-3.59-.8-5.41.76-1.81,2.43-3.04,4.38-3.23l189.89-22.92c1.64-.19,3.14.97,3.34,2.62.2,1.64-.97,3.14-2.62,3.34l-188.76,22.78c3.99,5.23,5.19,10.35,3.55,15.24-3.27,9.81-17.68,17.64-44.04,23.94-63.15,15.09-224.28,51.53-225.9,51.9-.22.05-.45.08-.66.08Z" fill="#2b2b2b"/><path d="M874.78,1799.12c-.07,0-.14,0-.21,0l-53.21-3.69c-1.57-.09-2.82-1.4-2.82-2.99s1.34-3,2.99-3h.01c.07,0,.14,0,.21,0l53.24,3.69c1.65.12,2.9,1.55,2.79,3.2-.11,1.58-1.43,2.79-2.99,2.79Z" fill="#2b2b2b"/><path d="M789.73,1904.77c-.16,0-.32-.02-.48-.07-.93-.26-1.47-1.23-1.2-2.16l31.52-110.52s.04-.12.04-.13c.24-.78.99-1.29,1.82-1.23l.25.02c.96.08,1.68.92,1.6,1.89-.04.45-.24.84-.54,1.13l-31.31,109.8c-.22.77-.92,1.27-1.68,1.27Z" fill="#2b2b2b"/><path d="M861.49,1885.94c-.08,0-.16,0-.25-.02-.96-.13-1.62-1.02-1.49-1.98l.03-.19,13.27-87.89c.13-.88.9-1.53,1.79-1.49l264.98,9.79c.97.04,1.72.85,1.68,1.81s-.83,1.75-1.81,1.68l-263.42-9.74-13.06,86.51c-.12.87-.87,1.5-1.73,1.5Z" fill="#2b2b2b"/><path d="M1372.11,1743.92c-3.25,0-5.16-2.39-5.38-4.77-.21-2.39,1.26-5.1,4.5-5.66,10.93-1.9,31.96-4.04,33.3,1.46.38,1.56-.11,2.69-.59,3.36-1.75,2.46-6.57,3.73-18.4,4.84-5.16.49-9.66.75-13.38.76h-.04ZM1392.1,1734.95c-4.9,0-11.69.5-20.27,1.99,0,0,0,0,0,0-1.29.22-1.68,1.13-1.61,1.9.07.77.6,1.58,1.9,1.58h.02c3.62-.01,8.01-.26,13.07-.74,9.58-.9,14.92-2.04,15.89-3.39.04-.05.08-.11.08-.26-.87-.53-3.93-1.08-9.06-1.08ZM1371.53,1735.21h0,0Z" fill="#2b2b2b"/><path d="M593.87,338.08c31.25,0,26.92,64.87,25.21,82.17-.24,2.52-2.36,4.55-5.13,4.93-7.52,1.04-22.74,2.57-35.51.22-2.52-.47-5.45-2.3-5.82-4.6-2.64-16.43-10.33-82.72,21.25-82.72Z"/><path d="M510.67,1810.94c.31,1.82.55,3.43.55,3.83-.35-.19-.68-.37-1.02-.56.1-1.14.22-2.22.38-3.25l.09-.02Z" fill="#275faf"/><path d="M454.29,1794.78c-3.71,26.3-9.67,52.53-17.89,78.29-1.6,5-3.28,9.98-5.05,14.95-7.64,21.46-16.88,42.53-27.72,62.96-.71,1.33-2.15,2.04-3.57,1.87-.36-.05-.73-.15-1.08-.31-1.71-.81-2.5-2.81-1.79-4.56,7.9-19.41,14.35-39.9,19.3-61.35,1.82.3,3.1.46,3.1.46l4.06.19c-.41,1.8-.84,3.59-1.27,5.38,30.87-80.57,37.1-169.17,20.95-248.87-.06-.29-.08-.58-.06-.87l2.61.2.7.05s.28-1.27.77-3.6c1.43.21,2.65,1.31,2.94,2.81,4.04,19.96,6.67,40.4,7.86,61.11.56,9.63.8,19.32.74,29.06-.08,12.14-.64,24.34-1.69,36.55-.73,8.56-1.7,17.12-2.91,25.68Z" fill="#2b2b2b"/><path d="M446.11,1639.6c.42-.09.84-.1,1.24-.03-.49,2.33-.77,3.6-.77,3.6l-.7-.05-2.61-.2c.05-1.1.61-2.11,1.49-2.72.39-.3.85-.49,1.35-.6Z" fill="#2b2b2b"/><path d="M409.25,342.11c33.42,0,28.74,62.2,26.92,78.64-.26,2.36-2.48,4.27-5.39,4.63-8.01.99-24.4,2.47-38.1.2-2.64-.44-4.67-2.16-5.06-4.31-2.8-15.6-12.17-79.16,21.63-79.16Z"/><path d="M413.88,1869.5c-1.92,5.07-3.92,10.15-5.98,15.22-6.44,15.78-13.55,31.55-21.32,47.24-.36.73-2.18,2.12-4.1,3.3.14-.47.24-.92.3-1.37.37-2.53-.4-4.87-1.65-6.96-.47-.8-1.02-1.57-1.6-2.28-.13-.16-.26-.32-.39-.47,19.59-40.17,38.95-83.51,49.11-123.22.46-1.77,2.16-2.89,3.98-2.63,1.8.27,3.11,1.87,3.01,3.7-1.24,24.25-4.05,47.68-8.4,70.14l-3.07-.61s-1.74-.16-3.95-.55c2.13-10.9,3.87-22.05,5.25-33.41-3.41,10.62-7.14,21.26-11.19,31.9Z" fill="#2b2b2b"/><path d="M423.77,1871.56l3.07.61c-.98,5.09-2.05,10.13-3.19,15.11l-4.06-.19s-1.28-.16-3.1-.46c1.2-5.15,2.31-10.35,3.33-15.62,2.21.39,3.95.55,3.95.55Z" fill="#2b2b2b"/><path d="M419.4,1669.58c.18,38.73-9.39,118.52-75.31,217.86-.45.67-1.23,1-1.99.91-.3-.04-.61-.14-.89-.33-.95-.63-1.21-1.92-.58-2.88,65.33-98.42,74.79-177.29,74.63-215.54-.01-1.14.92-2.07,2.06-2.07,1.14,0,2.08.91,2.08,2.05Z" fill="#2b2b2b"/><path d="M390.67,1663.18c1.14.09,1.99,1.1,1.88,2.24-2.73,30.96-15.68,94.4-71.81,171.44-.47.62-1.21.91-1.94.82-.33-.04-.67-.16-.97-.38-.92-.67-1.12-1.96-.44-2.89,55.54-76.22,68.34-138.83,71.03-169.36.1-1.13,1.11-1.98,2.25-1.87Z" fill="#2b2b2b"/><path d="M381.13,1926.93c1.25,2.09,2.02,4.43,1.65,6.96-.33-.06-.65-.15-.97-.31-1.75-.87-2.47-3-1.6-4.77.32-.63.62-1.25.92-1.88Z" fill="#2b2b2b"/><path d="M382.78,1933.89c-.06.45-.16.9-.3,1.37-1.91,1.17-3.93,2.13-4.69,1.99.37-2.52-.39-4.87-1.64-6.95,1-2.03,2-4.07,2.99-6.12.13.15.26.31.39.47.58.71,1.13,1.48,1.6,2.28-.3.63-.6,1.25-.92,1.88-.87,1.77-.15,3.9,1.6,4.77.32.16.64.25.97.31Z" fill="#2b2b2b"/><path d="M382.48,1935.26c-.19.61-.44,1.22-.77,1.85-1.25,2.34-4.4,3.14-7.04,1.74-2.65-1.41-3.77-4.46-2.53-6.8.56-1.08-2.77-3.97-4.38-5.37-.32-.28-.68-.57-1.04-.89-.33-.03-.68-.07-1.03-.14-1.62-.27-3.44-.94-5.51-2.03-1.29-.68-2.42-1.33-3.39-1.97-.09.06-.21.12-.31.17-2.24,1.07-4.88.97-7.28-.29-2.42-1.29-4.91-4.49-6.64-7.95-5.04,1.16-11.01.15-14.38-1.64-1.26-.67-2.25-1.48-2.97-2.44-.14-.19-.27-.38-.38-.59-1.27-1.54-2.32-3.88-3.76-7.06-.58-1.34-1.46-3.32-2.14-4.62-.52-.31-1-.7-1.39-1.1-2.9.07-7.87.77-10.29,1.28-1.27.3-2.7.13-3.99-.55-1.62-.86-2.67-2.31-2.95-3.84-.9-1.44-3.44-4.69-4.74-6.32-1.54-1.94-2.66-3.38-3.25-4.65-2.69.05-6.55,1.11-7.19,2.21-1.25,2.35-4.4,3.14-7.04,1.73-2.63-1.38-3.75-4.39-2.54-6.76h0s.01-.02.01-.02v-.02c1.91-3.6.76-6.21-1.28-10.17-.56-1.1-1.16-2.28-1.65-3.52-2.38.34-5.05.75-6.77,1.01-1.47.23-2.69.4-3.7.51-.93.37-2,.49-3.08.27-4.33-.81-5.08-3.86-7.05-12.05-.08-.32-.16-.67-.24-1.05-4.66,1.3-9.97.44-12.89-.02-.4-.06-.85-.14-1.22-.2-1.23.25-2.58.08-3.85-.59-1.66-.88-2.73-2.41-2.97-4.01-.33-1.63-1.17-4.63-2.01-6.93-.98.05-2.01-.18-2.95-.68-1.98-1.06-3.12-3.05-3.03-4.98-.95-.52-2.29-1.11-3.15-1.49-3.27-1.45-6.39-2.85-7.64-5.89-.02-.03-.04-.08-.06-.11-.98-1.21-2.24-3.17-4-6.35-.3-.54-.58-1.05-.83-1.54-4.1.79-8.9.25-12.31-1.56-2.36-1.24-4.01-3.04-4.81-5.21-.38-1.01-.66-2.45-.38-4.15-1.41-1.79-3.64-4.44-4.86-5.65-1.49-.69-2.56-1.95-3.02-3.34.02.02.03.04.05.06.53.59,1.2.96,1.91,1.1.09.03.2.04.3.05.99.12,2.02-.17,2.82-.88,1.53-1.38,3.05-2.75,4.56-4.14,1,.91,2.42,2.42,4.57,4.98,3.46,4.14,5.41,6.44,4.65,9.02,1.56.25,3.8.13,4.72-.37.89-1.31,2.43-2.03,4.07-2.03.91,0,1.85.22,2.74.69,1.93,1.03,3.05,2.93,3.03,4.8.66,1.86,3.33,6.66,4.69,8.58.86.61,1.52,1.4,1.94,2.28.53.27,1.15.55,1.64.75,2.63,1.18,5.75,2.56,7.87,4.75.58.17,1.11.38,1.53.61,3.19,1.69,6.11,7.67,7.49,12.77,3.06.46,7.92,1.11,8.98-.89,1.05-1.99,3.25-2.99,5.63-2.53,4.43.82,5.28,4.34,7.33,12.84.21.84.46,1.84.7,2.81.07-.02.13-.04.22-.03,2.6-.39,5.81-.87,8.38-1.23,5.28-.74,7.69-1.06,9.92,1.67,1.26,1.51,1.56,3.52.78,5.14.13.61.89,2.11,1.41,3.12,1,1.96,2.24,4.37,2.92,7.17,4.47-.8,9.12-.42,11.92,1.06,1.83.98,3.18,2.43,3.83,4.15.2.58.39,1.31.39,2.16.34.43.73.9,1.07,1.33,1.76,2.24,3.22,4.09,4.35,5.69.82-.11,1.75-.23,2.8-.35,7.7-.93,10.42-.18,12.2.76,1.21.64,2.17,1.57,2.81,2.65,1.67,1.81,2.97,4.73,4.74,8.72.52,1.14,1.21,2.69,1.72,3.7.49.38.9.83,1.24,1.31,2.33.59,6.36.49,6.89-.5,1.24-2.37,4.39-3.14,7.04-1.75,1.93,1.03,3.05,2.95,3.01,4.84.25,1.05.98,2.93,1.76,4.46,1.54-1.17,3.82-1.36,5.82-.29.75.4,1.39.91,1.87,1.53,1.16.97,3.87,2.79,5.56,3.53,1.46-.74,3.38-.72,5.08.16,1.3.7,2.22,1.79,2.69,3.01.33.3.74.64,1.08.95,1.29,1.1,3.04,2.62,4.61,4.48-.99,2.05-1.99,4.09-2.99,6.12,1.25,2.08,2.01,4.43,1.64,6.95.76.14,2.78-.82,4.69-1.99ZM340.96,1906.41l-.38-.08v-.05c-.06,0-.09.02-.13.03h-.07s-.01.05-.04.09c0,.01-.01.01-.01.02s-.02.01-.02.02c-.1.13-.07.33.05.42.04.03.1.05.15.06.1.01.2-.02.27-.11,0,0,.02-.02.02-.03.01,0,.01-.02.02-.03.1-.14.12-.26.14-.34Z" fill="#2b2b2b"/><path d="M359.99,1643.95c1.07.4,1.61,1.62,1.19,2.67-15.69,40.65-48.02,103.67-112.87,173.04-.48.5-1.14.72-1.78.64-.42-.05-.83-.23-1.16-.55-.83-.78-.88-2.09-.1-2.92,64.4-68.89,96.48-131.39,112.05-171.69.41-1.07,1.61-1.61,2.67-1.19Z" fill="#2b2b2b"/><path d="M340.62,1610.9c1.65,1.07,2.12,3.28,1.05,4.91-.01.03-.03.06-.04.08-1.85-1.38-2.74-2.22-2.74-2.22.31-1.06.63-2.11.93-3.15.28.08.55.22.8.38Z" fill="#2b2b2b"/><path d="M340.58,1906.33l.38.08c-.02.08-.04.2-.14.34-.01,0-.01.03-.02.03,0,0-.02.02-.02.03-.07.09-.17.12-.27.11-.05,0-.11-.03-.15-.06-.12-.09-.15-.29-.05-.42,0,0,.02,0,.02-.02s.01,0,.01-.02c.03-.04.03-.06.04-.09h.07s.07-.02.12-.03v.05Z" fill="#2b2b2b"/><path d="M338.51,1744.96c1.07.4,1.61,1.59,1.21,2.66-8.54,22.71-26.32,57.94-62.45,96.87-.47.5-1.14.72-1.77.64-.42-.05-.82-.23-1.15-.54-.85-.78-.89-2.09-.12-2.92,35.67-38.43,53.2-73.15,61.61-95.51.4-1.07,1.6-1.62,2.67-1.2Z" fill="#2b2b2b"/><path d="M338.89,1613.67s.89.84,2.74,2.22c-7.27,11.17-16.09,24.59-26.59,39.57-28.25,40.33-68.65,92.07-123.59,142.22-1.07-.98-1.63-1.28-2.06-1.51-.1-.06-.21-.12-.34-.16-.55-.27-1.12-.45-1.7-.53-.2-.02-.41-.05-.63-.05-2.03-.11-3.81.84-4.67,2.48-.59,1.12-.64,2.4-.24,3.58-1.26-1.46-1.11-3.66.32-4.96,77.41-69.53,126.45-142.87,153.58-184.58.91-1.4,2.61-1.95,4.11-1.43-.3,1.04-.62,2.09-.93,3.15Z" fill="#2b2b2b"/><path d="M322.24,1656.85c1.04.51,1.46,1.74.96,2.78-25.1,51.63-61.24,101.16-107.41,147.21-.48.47-1.11.67-1.72.59-.45-.05-.88-.26-1.22-.6-.1-.1-.19-.21-.26-.32-.54-.8-.44-1.9.26-2.6,45.85-45.72,81.73-94.87,106.63-146.1.49-1.02,1.74-1.46,2.76-.96Z" fill="#2b2b2b"/><path d="M189.39,1796.17c.43.23.99.53,2.06,1.51-1.51,1.39-3.03,2.76-4.56,4.14-.8.71-1.83,1-2.82.88-.1-.01-.21-.02-.3-.05-.71-.14-1.38-.51-1.91-1.1-.02-.02-.03-.04-.05-.06-.4-1.18-.35-2.46.24-3.58.86-1.64,2.64-2.59,4.67-2.48.22,0,.43.03.63.05.58.08,1.15.26,1.7.53.13.04.24.1.34.16Z" fill="#2b2b2b"/><path d="M381.4,250.38c-.08,0-.16,0-.24-.02-.47-.07-.89-.32-1.17-.7l-48.58-66.4c-.57-.78-.4-1.87.38-2.44l18.45-13.53c.77-.56,1.84-.41,2.42.34l49.81,64.56c.58.76.45,1.85-.3,2.44l-.24.19s0,0,0,0l-19.44,15.18c-.31.24-.69.37-1.08.37ZM335.27,182.61l46.48,63.53,16.89-13.19-47.71-61.83-15.66,11.49ZM400.84,233.45h0,0Z" fill="#2b2b2b"/><path d="M353.11,286.66s-.06,0-.1,0c-.54-.03-1.03-.3-1.34-.74l-50.42-71.94c-.52-.74-.39-1.76.31-2.34l19.07-15.99c.37-.31.85-.46,1.34-.4.48.06.92.32,1.2.71l49.19,67.64c.48.67.44,1.58-.11,2.19l-.4.45-17.43,19.83c-.33.38-.81.59-1.31.59ZM305.05,213.28l48.22,68.8,15.44-17.57-39.68-54.56h0l-7.58-10.42-16.4,13.75Z" fill="#2b2b2b"/><path d="M634.92,1891.29c-51.42,0-62.29-19.51-70.03-43.03-2.65-8.03-2.74-18.37-.26-31.63v-.08l.07-.28c.81-4.26,1.71-7.99,2.44-10.99.49-2.02.88-3.61,1.03-4.56.37-2.26,2.44-20.88,5.81-52.43,1.54-14.42,3.09-29.02,4.23-39.81,1.08-10.18,4.17-27.19,4.3-27.91.3-1.63,1.86-2.71,3.49-2.41,1.63.3,2.71,1.86,2.41,3.49-.03.17-3.18,17.51-4.24,27.47-1.14,10.79-2.69,25.39-4.23,39.81-2.39,22.4-5.35,49.73-5.85,52.77-.19,1.17-.6,2.86-1.12,5-.7,2.87-1.56,6.42-2.33,10.43v.08l-.07.28c-2.33,12.35-2.33,21.8.01,28.89,7.81,23.7,18.38,41.58,76.21,38.58,32.27-1.68,51.82-8.9,61.51-22.73,8.6-12.28,8.65-28.75,8.69-46.19v-1.28c0-.17-.16-1.29-.5-3.32-.5-2.99-1-5.45-1.13-5.89l-23.43-76.63c-.3-.87-.51-1.79-.61-2.73-.52-3.36-12.14-42.32-14.81-46-1.08-1.25-.93-3.12.32-4.21s3.17-.92,4.25.33c3.59,4.15,15.93,46.88,16.19,49.21.06.52.17,1,.33,1.46l.04.12,23.42,76.6c.42,1.34,1.19,5.81,1.34,6.73.59,3.47.59,4.09.59,4.33v1.29c-.05,18.41-.1,35.8-9.78,49.62-10.84,15.46-31.84,23.5-66.11,25.28-4.29.22-8.35.33-12.18.33Z" fill="#2b2b2b"/><path d="M682.37,1717.11c-.77,0-1.54-.21-2.22-.64-33.78-21.11-78.41-10.7-90.01-1.61-1.09.85-2.46,1-3.68.42-1.34-.64-2.19-2.02-2.21-3.6-.02-.97.75-1.76,1.72-1.78.97,0,1.76.75,1.78,1.72,0,.33.17.49.23.51,12.19-9.57,58.87-20.6,94.03,1.37.37.23.69.05.8-.04.16-.12.33-.34.23-.68-.61-2.01-1.68-4.35-2.55-6.24-.79-1.72-1.2-2.65-1.34-3.3-.2-.94.4-1.88,1.35-2.08.94-.2,1.87.4,2.08,1.35.08.33.65,1.57,1.1,2.57.9,1.98,2.03,4.44,2.71,6.67.51,1.66-.06,3.42-1.44,4.48-.76.58-1.66.88-2.56.88Z" fill="#2b2b2b"/><path d="M653.97,1772.69c-3.32,0-6.83-.1-10.54-.29-53.78-2.85-58.06-5.48-60.33-20.52-.13-.89-.11-1.81.06-2.73.32-1.63,1.1-3.04,2.26-4.09,5.66-5.17,22.32-16.99,54.57-15.29,33.1,1.75,47.98,13.49,52.84,18.45.89.9,1.57,2.05,1.97,3.32h0c.23.77.36,1.55.39,2.33.08,2.54-.59,6.29-4.17,9.78-6.15,6.01-18.6,9.04-37.05,9.04ZM633.77,1733.09c-26.97,0-41.01,10-45.99,14.55-.6.55-1.01,1.3-1.18,2.17-.1.52-.11,1.05-.04,1.55,1.78,11.82,2.2,14.63,57.05,17.54,29.03,1.54,40.47-3.37,44.96-7.76,2.67-2.61,3.17-5.34,3.11-7.17-.01-.46-.09-.93-.23-1.39-.23-.74-.62-1.4-1.12-1.91-3.57-3.65-17.76-15.67-50.53-17.41-2.08-.11-4.1-.16-6.04-.16Z" fill="#2b2b2b"/><path d="M638.51,1874.84c-26.53,0-46.19-6.72-58.51-20.01-15.37-16.58-13.42-37.1-13.32-37.96.1-.96.95-1.67,1.92-1.56.96.1,1.66.96,1.56,1.92h0c-.02.2-1.85,19.88,12.45,35.26,12.32,13.26,32.67,19.57,60.49,18.78,69.92-1.99,72.26-32.74,73.8-53.08.11-1.44.21-2.83.34-4.14.11-1.27.24-2.37.39-3.35.15-.96,1.04-1.6,2-1.46.95.15,1.61,1.04,1.46,2-.14.91-.26,1.93-.37,3.13-.12,1.3-.23,2.67-.33,4.09-1.54,20.28-4.12,54.23-77.19,56.32-1.58.05-3.15.07-4.69.07Z" fill="#2b2b2b"/><path d="M568.41,1818.8c-.5,0-1-.21-1.34-.62-.62-.74-.52-1.84.22-2.47.64-.54,16-13.24,42.59-20.07,24.5-6.29,63.45-8.44,109.93,17.03l1.03.57c.84.47,1.14,1.54.67,2.38-.47.84-1.54,1.15-2.38.67l-1.02-.56c-45.47-24.92-83.48-22.84-107.37-16.71-25.83,6.63-41.06,19.23-41.21,19.36-.33.28-.73.41-1.12.41Z" fill="#2b2b2b"/><path d="M442.13,1891.29c-3.45,0-7.09-.09-10.92-.27-1.66-.08-2.93-1.48-2.86-3.14s1.49-2.93,3.14-2.86c56.77,2.68,67.22-15.11,74.98-38.64,2.3-7,2.31-16.72.02-28.88l-.06-.34c-.78-4.04-1.64-7.61-2.35-10.49-.51-2.12-.92-3.79-1.12-4.95-.4-2.41-2.31-19.67-5.84-52.79-1.54-14.42-3.09-29.02-4.23-39.8-1.06-9.96-4.21-27.29-4.24-27.47-.3-1.63.78-3.19,2.41-3.49,1.63-.3,3.19.78,3.49,2.41.13.72,3.22,17.73,4.3,27.91,1.14,10.78,2.69,25.38,4.23,39.8,4.33,40.54,5.54,50.89,5.8,52.44.16.94.54,2.52,1.03,4.52.73,3,1.64,6.74,2.45,11.02l.06.35c2.48,13.25,2.39,23.6-.26,31.65-7.76,23.51-18.61,43.03-70.04,43.03Z" fill="#2b2b2b"/><path d="M489.09,1715.62c-.76,0-1.52-.25-2.17-.76-4.31-3.38-14.95-7.68-29.01-9.63-.96-.13-1.62-1.02-1.49-1.97.13-.96,1.01-1.63,1.97-1.49,12.93,1.8,24.97,5.86,30.69,10.35.09-.06.22-.2.22-.48.01-.96.85-1.74,1.77-1.73.97.01,1.74.81,1.73,1.77-.02,1.16-.5,2.26-1.32,3.01-.7.62-1.55.93-2.39.93Z" fill="#2b2b2b"/><path d="M457.2,1770.85c-.9,0-1.67-.69-1.74-1.61-.08-.96.64-1.81,1.6-1.89,31.41-2.61,31.96-6.26,33.42-16.01.08-.52.07-1.05-.03-1.55-.17-.86-.59-1.63-1.18-2.17-4.16-3.8-13.69-10.61-30.65-13.35-.95-.15-1.6-1.05-1.45-2.01s1.05-1.61,2.01-1.45c17.86,2.89,28,10.15,32.46,14.23,1.14,1.05,1.93,2.49,2.25,4.06.18.89.2,1.84.06,2.76-1.94,12.87-5.79,16.41-36.6,18.97-.05,0-.1,0-.15,0Z" fill="#2b2b2b"/><path d="M438.53,1874.84c-.71,0-1.43,0-2.15-.01-.97-.01-1.74-.81-1.73-1.77.01-.96.79-1.73,1.75-1.73h.02c26.72.38,46.33-6.06,58.26-19.08,14.05-15.34,12.24-34.81,12.22-35.01-.1-.96.6-1.82,1.56-1.92.96-.1,1.82.6,1.92,1.56.09.86,2.02,21.16-13.08,37.69-12.29,13.46-32.06,20.28-58.77,20.28Z" fill="#2b2b2b"/><path d="M508.64,1818.8c-.4,0-.79-.13-1.12-.41-.2-.17-20.34-16.75-53.49-21.88-.96-.15-1.61-1.04-1.46-2,.15-.95,1.04-1.6,2-1.46,34.17,5.29,54.36,21.95,55.21,22.66.74.62.84,1.72.22,2.46-.35.41-.84.63-1.34.63Z" fill="#2b2b2b"/><path d="M516.13,1235.38c-3.28,0-6.5-.34-9.84-1.04-1.62-.34-2.66-1.93-2.32-3.55.34-1.62,1.93-2.66,3.55-2.32,3.13.65,6.13.95,9.2.91h.04c7.39-.1,15.37-2.23,24.38-6.52,1.5-.71,3.29-.08,4,1.42.71,1.5.08,3.29-1.42,4-9.82,4.67-18.62,6.99-26.9,7.1h-.04c-.21,0-.43,0-.64,0Z" fill="#2b2b2b"/><path d="M644.5,1445.11c-29.61,0-54.91-5.33-71.33-9.97-19.81-5.59-31.59-11.42-32.08-11.66-.89-.44-1.5-1.3-1.63-2.28l-25.67-188.61c-.21-1.64.96-3.14,2.6-3.35,1.65-.2,3.14.96,3.35,2.6l.02.16,25.43,186.77c3.66,1.68,14.23,6.25,29.62,10.59,17.18,4.86,44.28,10.47,75.83,9.67,3.57-.09,7.15-.26,10.64-.51,37.07-2.61,72.04-13.86,103.98-33.45-.37-19.48-5.45-203.74-66.68-392.5-.51-1.58.35-3.27,1.93-3.78,1.58-.51,3.27.35,3.78,1.93,33.82,104.27,50.24,206.36,58.05,273.64,8.47,72.91,8.94,121.85,8.95,122.34,0,1.04-.53,2.02-1.41,2.57-33.16,20.67-69.56,32.52-108.17,35.24-3.58.26-7.26.43-10.91.53-2.11.05-4.21.08-6.28.08Z" fill="#2b2b2b"/><path d="M397.57,1442.65c-.47,0-.95,0-1.42,0-52.42-.21-93.29-11.5-121.49-33.56-.76-.6-1.19-1.53-1.15-2.5.03-.76,3.6-77.33,12.26-163.51,11.64-115.94,26.45-193.13,44.01-229.44l.19-.4c.7-1.5,2.48-2.16,3.98-1.46,1.5.7,2.16,2.48,1.46,3.98l-.21.44c-39.71,82.1-54.45,365.4-55.62,389.1,27.09,20.6,66.3,31.14,116.59,31.34,5.52.02,11.05-.08,16.44-.3l.81-.03c1.65-.04,3.05,1.23,3.11,2.89.06,1.66-1.23,3.05-2.89,3.11l-.8.03c-5,.2-10.13.3-15.27.3Z" fill="#2b2b2b"/><path d="M461.59,1437.57c-1.46,0-2.74-1.07-2.96-2.55-.25-1.64.88-3.17,2.52-3.41l3.84-.57c5.92-.87,12.63-1.85,17.34-2.73,17.83-3.31,30.95-6.68,35.95-8.03l-4.52-188.07c0-1.66,1.34-3,3-3s3,1.34,3,3v.16l4.58,190.11c.03,1.36-.86,2.58-2.17,2.95-.15.04-15.54,4.47-38.75,8.78-4.82.9-11.59,1.89-17.56,2.77l-3.82.56c-.15.02-.3.03-.45.03Z" fill="#2b2b2b"/><path d="M679.13,1714.64c-1.57,0-2.89-1.22-2.99-2.81l-17.61-269.53c-.11-1.65,1.15-3.08,2.8-3.19,1.66-.12,3.08,1.14,3.19,2.8l10.56,161.8,7.05,107.73c.11,1.65-1.15,3.08-2.8,3.19-.07,0-.13,0-.2,0Z" fill="#2b2b2b"/><path d="M587.24,1713.54c-1.57,0-2.9-1.23-2.99-2.82l-6.19-103.1-7.07-175.25c-.07-1.66,1.22-3.05,2.88-3.12,1.68-.07,3.05,1.22,3.12,2.88l7.07,175.19,6.19,103.04c.1,1.65-1.16,3.08-2.81,3.17-.06,0-.12,0-.18,0Z" fill="#2b2b2b"/><path d="M618.47,1620.61c-26.45,0-38.13-11.4-38.66-11.93-.68-.68-.68-1.79,0-2.47.68-.68,1.79-.68,2.47,0h0c.13.13,13.58,13.11,44.04,10.57,30.71-2.55,44.48-14.08,44.61-14.19.73-.63,1.84-.54,2.47.19.63.73.55,1.83-.18,2.46-.58.5-14.65,12.37-46.61,15.03-2.85.24-5.57.34-8.14.34Z" fill="#2b2b2b"/><path d="M396.17,1437.41h0c1.65,0,3,1.34,3,3v41.87c0,1.66-1.34,3-3,3h0c-1.65,0-3-1.34-3-3v-41.87c0-1.66,1.34-3,3-3Z" fill="#2b2b2b"/><path d="M490.05,1716.13c-1.62,0-2.96-1.29-3-2.92l-7.18-281.87c-.04-1.66,1.27-3.03,2.92-3.08,1.69-.05,3.03,1.27,3.08,2.92l7.18,281.87c.04,1.66-1.27,3.03-2.92,3.08-.03,0-.05,0-.08,0Z" fill="#2b2b2b"/><path d="M450.17,1619.61c-.91,0-1.68-.71-1.74-1.63-.07-.96.66-1.8,1.62-1.87.4-.03.79-.06,1.19-.1,20.41-1.75,31.9-10.09,34.94-12.61.49-.4.76-.66.82-.72.68-.68,1.79-.68,2.47,0s.68,1.79,0,2.47c-.09.09-.43.43-1.07.95-3.23,2.67-15.45,11.55-36.81,13.39-.39.05-.84.08-1.3.11-.04,0-.08,0-.12,0Z" fill="#2b2b2b"/><path d="M469.14,1406.95c-.82,0-1.55-.58-1.71-1.41-.19-.95.43-1.87,1.37-2.06.23-.05.45-.09.68-.15,5.73-1.2,11.56-2.6,17.37-4.17.93-.25,1.89.3,2.14,1.24.25.93-.3,1.89-1.24,2.14-5.88,1.58-11.77,3-17.51,4.2-.23.05-.49.11-.76.16-.12.02-.23.03-.34.03Z" fill="#2b2b2b"/><path d="M406.04,1413.58c-63.39,0-104.17-20.32-104.6-20.54-.86-.44-1.21-1.49-.77-2.35.44-.86,1.49-1.21,2.35-.77.45.23,46.08,22.92,115.81,19.88.95-.05,1.78.71,1.82,1.67s-.71,1.78-1.67,1.82c-4.41.19-8.73.28-12.94.28Z" fill="#2b2b2b"/><path d="M635.35,1417.06c-8.72,0-16.63-.46-23.61-1.16-33.03-3.31-52.51-12.27-53.33-12.65-.88-.41-1.25-1.45-.84-2.33s1.45-1.25,2.33-.85c.19.09,19.88,9.13,52.36,12.36,29.97,2.98,77.28,1.49,132.49-22.56.89-.38,1.92.02,2.3.91.39.89-.02,1.92-.91,2.3-43.13,18.78-81.53,23.97-110.79,23.97Z" fill="#2b2b2b"/><path d="M502.21,594.15c-25.15,0-42.91-6.23-52.8-18.5-10.89-13.52-8.19-29.46-7.78-31.5v-14.27c0-.97.78-1.75,1.75-1.75s1.75.78,1.75,1.75v14.45c0,.13-.01.25-.04.37-.03.16-3.29,15.96,7.08,28.8,9.19,11.39,26.03,17.16,50.04,17.16s41.9-5.94,53.1-17.66c12.69-13.28,12.1-29.6,12.1-29.76v-13.36c0-.97.79-1.75,1.76-1.75s1.75.78,1.75,1.75v13.28c.02.64.69,17.81-13.02,32.21-11.88,12.47-30.61,18.79-55.68,18.79Z" fill="#2b2b2b"/><path d="M332.52,574.6c-1.08,0-2.13-.59-2.66-1.62-.76-1.47-.19-3.28,1.28-4.05,23.47-12.21,61.83-28.25,111.24-35.41,1.63-.25,3.16.9,3.4,2.54.24,1.64-.9,3.16-2.54,3.4-48.58,7.03-86.27,22.8-109.34,34.79-.44.23-.92.34-1.38.34Z" fill="#2b2b2b"/><path d="M307.44,589.53c-.92,0-1.83-.42-2.42-1.22-.98-1.34-.69-3.21.64-4.19.37-.27,9.19-6.71,25.47-15.17,1.47-.76,3.28-.19,4.05,1.28.76,1.47.19,3.28-1.28,4.05-15.82,8.22-24.6,14.62-24.69,14.69-.53.39-1.16.58-1.77.58Z" fill="#2b2b2b"/><path d="M707.12,832.96c-1.44,0-2.71-1.02-2.94-2.49v-.06c-.02-.06-.03-.12-.03-.18l-5.59-55.42c-.17-1.65,1.04-3.12,2.68-3.29,1.65-.18,3.12,1.03,3.29,2.68l5.59,55.4c.17,1.58-.92,3.06-2.5,3.31-.17.03-.33.04-.49.04Z" fill="#2b2b2b"/><path d="M582.23,1035.34c-1.52,0-2.82-1.15-2.98-2.7-.17-1.65,1.03-3.12,2.68-3.29,37.38-3.8,75.95-10.18,114.67-18.96.48-.25,1.54-.82,2.98-1.72,11.71-7.34,47.27-35.58,13.26-90.59-.26-.42-.41-.89-.44-1.39l-.88-13.64-.51-5.09c-.13-1.65,1.1-3.1,2.75-3.23,1.66-.14,3.1,1.1,3.23,2.75v.13s.5,4.88.5,4.88c0,.04,0,.07,0,.11l.83,12.95c36.25,59.29-2.72,90.13-15.57,98.19-2.29,1.43-3.76,2.15-3.82,2.18-.21.1-.42.18-.65.23-39.07,8.87-78.02,15.32-115.75,19.16-.1.01-.21.02-.31.02Z" fill="#2b2b2b"/><path d="M464.53,1038.92s-.09,0-.14,0c-71.21-3.25-116.62-15.86-132.84-21.12-2.56-.84-4.16-1.42-4.77-1.64-9.22-1.58-16.26-6.13-20.93-13.53-11.79-18.67-6-51.14.93-75.09l.25-.85c.47-1.59,2.14-2.49,3.73-2.03,1.59.47,2.5,2.14,2.02,3.73l-.23.8c-5.4,18.65-12.78,52.56-1.62,70.23,3.82,6.05,9.42,9.6,17.12,10.86.2.03.39.08.58.16.02,0,1.65.62,4.79,1.65,15.98,5.19,60.77,17.61,131.25,20.83,1.65.08,2.94,1.48,2.86,3.13-.07,1.61-1.4,2.86-2.99,2.86Z" fill="#2b2b2b"/><path d="M497.87,617.42c-23.88,0-43.42-5.81-58.35-17.39-27.14-21.05-28.8-53.19-28.86-54.55-.04-.96.71-1.78,1.67-1.82.95-.04,1.78.71,1.82,1.67.01.32,1.69,31.94,27.55,51.96,21.79,16.87,54.02,20.93,95.81,12.06.94-.2,1.87.4,2.08,1.35s-.4,1.88-1.35,2.08c-14.58,3.09-28.06,4.64-40.37,4.64Z" fill="#2b2b2b"/><path d="M554.05,606.44c-.74,0-1.43-.48-1.67-1.22-.29-.92.22-1.9,1.14-2.19.11-.04,11.02-3.56,20.89-13.47,13.18-13.23,18.4-31,15.51-52.82-.13-.96.55-1.84,1.5-1.96.96-.14,1.84.55,1.96,1.5,3.8,28.67-6.94,46.21-16.61,55.87-10.48,10.46-21.73,14.08-22.21,14.22-.17.05-.35.08-.52.08Z" fill="#2b2b2b"/><path d="M720.38,829.35c-1.4,0-2.65-.99-2.94-2.41-.32-1.62.73-3.21,2.35-3.53.03,0,3.02-.61,8.06-1.8,3.84-.9,10.02-2.43,17.73-4.59,19.66-5.52,37.71-11.92,53.65-18.99,1.74-.77,3.47-1.56,5.2-2.38,30.34-14.18,50.28-30.06,59.29-47.2-3.31-7.6-21.49-48.15-50.63-91.99-29.55-44.47-76.74-101.54-133.73-120.86-20.49-6.94-63.3-9.82-91.62-6.16-6.97.9-12.66,2.14-16.93,3.69-1.56.57-3.28-.24-3.84-1.8-.56-1.56.24-3.28,1.8-3.84,4.68-1.7,10.81-3.04,18.21-4,29.56-3.82,72.75-.88,94.32,6.42,58.62,19.88,106.78,78.03,136.86,123.31,32.47,48.88,51.46,93.72,51.65,94.17.34.8.31,1.71-.08,2.49-9.31,18.86-30.42,36.09-62.75,51.2-1.77.83-3.54,1.64-5.31,2.42-16.2,7.19-34.52,13.68-54.46,19.29-7.81,2.18-14.08,3.74-17.97,4.65-5.15,1.22-8.14,1.82-8.26,1.84-.2.04-.4.06-.59.06Z" fill="#2b2b2b"/><path d="M720.38,829.35c-1.23,0-2.38-.76-2.82-1.98l-39.85-110.6c-.56-1.56.25-3.28,1.81-3.84,1.56-.56,3.28.25,3.84,1.81l39.85,110.6c.56,1.56-.25,3.28-1.81,3.84-.34.12-.68.18-1.02.18Z" fill="#2b2b2b"/><path d="M738.93,796.87c-.83,0-1.56-.59-1.72-1.43-.18-.95.45-1.86,1.4-2.04,63.5-11.87,97.54-52.44,97.88-52.85.62-.75,1.72-.85,2.46-.24.75.61.85,1.72.24,2.46-.34.42-35.13,41.95-99.94,54.07-.11.02-.22.03-.32.03Z" fill="#2b2b2b"/><path d="M755.95,903.92c-11.31,0-25.45-1.02-42.31-3.07-43.06-5.23-89.66-15.46-90.13-15.56-1.62-.36-2.64-1.96-2.28-3.58s1.96-2.64,3.58-2.28c.46.1,46.79,10.27,89.56,15.46,26.71,3.24,46.32,3.89,58.29,1.93,26.21-4.27,38.51-37.3,36.58-98.16-.05-1.66,1.25-3.04,2.9-3.09,1.65-.03,3.04,1.25,3.09,2.9.86,26.92-.93,48.01-5.46,64.48-6.49,23.56-18.65,36.95-36.14,39.8-4.78.78-10.69,1.17-17.67,1.17Z" fill="#2b2b2b"/><path d="M726.97,835.82c-.14,0-.29,0-.44-.03l-84.48-12.31c-1.64-.24-2.77-1.76-2.54-3.4s1.76-2.78,3.4-2.54l81.85,11.93,1.19-4.4c.43-1.6,2.08-2.55,3.68-2.11,1.6.43,2.54,2.08,2.11,3.68l-1.89,6.97c-.36,1.32-1.56,2.21-2.89,2.21Z" fill="#2b2b2b"/><path d="M309.45,931.37c-9.63,0-18.41-1.42-26.12-4.21-.86-.31-1.53-1-1.82-1.86-.18-.53-17.92-53.7-27.87-117.83-5.85-37.73-7.9-71.84-6.1-101.4,2.27-37.19,10.7-67.29,25.05-89.45,10.56-16.31,32.34-38.63,58.95-47.85,1.57-.54,3.27.29,3.82,1.85.54,1.57-.29,3.27-1.85,3.82-23.56,8.16-45.04,28.71-55.87,45.45-31.33,48.39-27.12,128.17-18.07,186.58,8.97,57.89,24.35,106.78,27.18,115.53,6.78,2.26,14.44,3.39,22.92,3.38,16.58-.03,36.3-4.47,58.61-13.17,2.89-1.13,5.74-2.3,8.48-3.47,13.75-5.85,28.08-13.11,42.61-21.57,4.11-2.39,8.25-4.89,12.29-7.44,6.38-4.02,10.16-6.65,10.2-6.67,1.36-.94,3.23-.61,4.18.75.95,1.36.61,3.23-.75,4.18-.16.11-3.92,2.73-10.44,6.83-4.1,2.58-8.3,5.12-12.47,7.54-14.74,8.58-29.3,15.95-43.27,21.9-2.79,1.2-5.7,2.39-8.65,3.54-23,8.98-43.45,13.55-60.78,13.59h-.21Z" fill="#2b2b2b"/><path d="M444.06,878.26c-1.19,0-2.32-.71-2.79-1.89l-78.75-196.66c-.62-1.54.13-3.28,1.67-3.9,1.54-.62,3.28.13,3.9,1.67l78.75,196.66c.62,1.54-.13,3.28-1.67,3.9-.37.15-.74.22-1.11.22Z" fill="#2b2b2b"/><path d="M307.96,899.74c-5.59,0-8.83-.35-8.96-.36-.96-.11-1.65-.98-1.53-1.94.11-.96.99-1.64,1.94-1.54.54.06,54.41,5.8,106.9-31.86.79-.56,1.88-.38,2.44.4.56.79.38,1.88-.4,2.44-40.83,29.3-82.55,32.86-100.38,32.86Z" fill="#2b2b2b"/><path d="M463.73,1030.35c-.92,0-1.83-.42-2.41-1.22l-.14-.19-85.67-115.68c-.98-1.33-.72-3.22.6-4.21,1.32-.99,3.18-.74,4.18.57l.03.04,85.83,115.89c.98,1.33.7,3.21-.63,4.2-.54.4-1.16.59-1.78.59Z" fill="#2b2b2b"/><path d="M484.64,951.78c-.92,0-1.82-.42-2.41-1.21l-49.09-66.03c-.99-1.33-.71-3.21.62-4.2,1.33-.99,3.21-.71,4.2.62l49.09,66.03c.99,1.33.71,3.21-.62,4.2-.54.4-1.17.59-1.79.59Z" fill="#2b2b2b"/><path d="M504.25,539.26c-18.33,0-36.85-1.32-55.15-3.97-1.82-.26-3.61-.54-5.38-.83l-.87-.15c-77.97-13.08-100.71-52.74-106.05-83.71-1.23-7.13-1.68-14.64-1.34-22.33.64-13.76,3.63-23.82,4.45-26.34l-.94-14.85c-2.05-7.1-5.04-19.01-7.23-27.74-.63-2.51-1.2-4.78-1.67-6.65h0s0-.04-.01-.05c-.4-1.51.44-3.1,1.94-3.61,1.57-.53,3.27.31,3.8,1.88.03.09.06.2.09.3,0,0,0,0,0,0,.48,1.87,1.05,4.15,1.68,6.67,2.21,8.82,5.24,20.9,7.26,27.84.06.21.1.43.11.65l1,15.76c.03.4-.03.81-.16,1.19-.04.1-3.63,10.54-4.31,25.22-.32,7.26.1,14.34,1.26,21.04,5.01,29.06,26.64,66.32,101.18,78.82l.87.15c1.68.28,3.43.54,5.2.8,40,5.78,81.03,5.13,118.66-1.87l.63-.12c5.94-1.12,11.8-2.4,17.39-3.8,21.18-5.27,35.56-11.36,43.89-15.53,22.73-11.38,39.76-30.18,46.74-51.6l.07-.2c2.02-6.23,3.25-12.64,3.68-19.1.77-11.57-.48-23.15-3.84-35.4-.06-.24-.1-.48-.11-.73l-.57-26.21c-.04-1.66,1.27-3.03,2.93-3.07,1.61-.02,3.03,1.27,3.07,2.93l.56,25.84c3.46,12.78,4.75,24.89,3.94,37.02-.46,6.95-1.79,13.85-3.94,20.49l-.07.2c-7.5,23-25.63,43.08-49.78,55.17-12.34,6.18-27.94,11.71-45.13,15.99-5.71,1.43-11.67,2.73-17.74,3.88l-.57.11c-21.07,3.92-43.16,5.89-65.53,5.89Z" fill="#2b2b2b"/><path d="M684.15,460.61c-1.46,0-2.92-.09-4.4-.27l-.23-.03c-1.64-.2-2.82-1.7-2.61-3.34s1.7-2.82,3.34-2.61l.22.03c22.68,2.8,44.62-22.12,55.69-37.23.87-1.18,1.72-2.4,2.53-3.61,9.26-13.75,15.52-29.66,18.11-46.01,5.77-36.38-1.01-57.44-20.16-62.58-.4-.11-.81-.21-1.22-.3-17-3.87-37.25,5.43-37.45,5.52-1.5.7-3.29.05-3.99-1.45-.7-1.5-.05-3.29,1.45-3.99.9-.42,22.33-10.26,41.3-5.94.48.11.96.23,1.45.36,15.54,4.18,32.41,19.6,24.53,69.32-2.73,17.21-9.31,33.94-19.05,48.41-.85,1.28-1.76,2.57-2.68,3.83-13.58,18.55-34.15,39.9-56.84,39.91Z" fill="#2b2b2b"/><path d="M329.11,453.79c-23.8,0-43.92-10.4-59.94-31-1.29-1.66-2.53-3.38-3.7-5.12-10.5-15.56-16.35-34.12-16.92-53.66-.93-32.21,7.06-53.11,23.75-62.13,19.8-10.69,45.08-.81,52.36,2.46,1.51.68,2.18,2.46,1.5,3.97-.68,1.51-2.46,2.18-3.97,1.5-4.73-2.13-29.22-12.27-47.04-2.66-14.53,7.85-21.47,26.92-20.61,56.67.54,18.4,6.03,35.86,15.9,50.48,1.1,1.63,2.26,3.24,3.46,4.79,17.25,22.2,38.63,31.37,65.36,28.03,1.64-.2,3.14.96,3.35,2.6.21,1.64-.96,3.14-2.6,3.35-3.72.46-7.35.7-10.9.7Z" fill="#2b2b2b"/><path d="M697.7,431.64c-.51,0-1.01-.22-1.35-.64-.61-.75-.51-1.85.24-2.46,35.6-29.28,41.75-59.88,42.74-71.68.96-11.39-1.29-21.15-6.17-26.77-12.74-14.69-33.57-.33-34.45.29-.79.55-1.88.37-2.44-.42-.56-.79-.37-1.88.42-2.44.24-.17,24.29-16.8,39.11.28,5.5,6.33,8.05,17.04,7.02,29.36-1.03,12.24-7.38,43.96-44.01,74.09-.33.27-.72.4-1.11.4Z" fill="#2b2b2b"/><path d="M327.14,429.79c-.08,0-.16,0-.24-.02-21.07-2.93-38.01-17.27-47.69-40.35-9.26-22.09-9.96-49.28-1.55-60.61,3.81-5.13,8.69-8.15,14.51-8.95,13.1-1.82,26.25,8.18,26.8,8.61.77.59.91,1.69.32,2.45s-1.69.91-2.45.32c-.12-.1-12.56-9.54-24.2-7.92-4.85.68-8.94,3.22-12.17,7.57-6.79,9.15-7.62,34.31,1.97,57.17,5.32,12.69,18.23,34.52,44.95,38.24.96.13,1.63,1.02,1.49,1.97-.12.88-.87,1.51-1.73,1.51Z" fill="#2b2b2b"/><path d="M502.98,454.32c-.33,0-.67-.09-.97-.29l-20.5-13.63c-.52-.34-.81-.94-.78-1.56.04-.62.4-1.18.95-1.46,11.61-5.95,19.74-18.62,19.82-18.75.52-.82,1.6-1.06,2.41-.54.82.52,1.06,1.6.54,2.41-.33.51-7.57,11.84-18.63,18.56l18.12,12.05c.81.54,1.02,1.62.49,2.43-.34.51-.89.78-1.46.78Z" fill="#2b2b2b"/><path d="M332.69,353.54c-1.3,0-2.5-.86-2.88-2.17-1.96-6.81-3.68-13.53-5.1-19.97-1.8-8.14-3.23-16.18-4.25-23.91-3.8-23.86-4.22-46-1.24-65.73.25-1.64,1.78-2.76,3.41-2.52,1.64.25,2.77,1.78,2.52,3.41-2.88,19.12-2.46,40.65,1.25,63.97,1.01,7.64,2.41,15.51,4.18,23.48,1.39,6.32,3.08,12.92,5,19.61.46,1.59-.46,3.25-2.05,3.71-.28.08-.56.12-.83.12Z" fill="#2b2b2b"/><path d="M331.7,211c-.4,0-.8-.08-1.18-.25-1.52-.65-2.23-2.42-1.57-3.94,2.45-5.69,4.57-10.45,7.71-15.48.88-1.4,2.73-1.83,4.13-.96,1.41.88,1.83,2.73.96,4.13-2.92,4.68-4.86,9.04-7.29,14.68-.49,1.14-1.59,1.82-2.76,1.82Z" fill="#2b2b2b"/><path d="M356.3,175.19c-.76,0-1.51-.28-2.1-.85-1.19-1.16-1.21-3.06-.05-4.24,22.08-22.61,44.69-27.7,45.64-27.91,1.62-.35,3.22.68,3.57,2.3.35,1.62-.68,3.21-2.3,3.57-.34.08-21.94,5.06-42.62,26.23-.59.6-1.37.9-2.15.9Z" fill="#2b2b2b"/><path d="M332.86,354.59c-.06,0-.12,0-.17,0-1.65-.09-2.92-1.51-2.82-3.17l.06-1.05c1.4-21.34,15.43-49.62,41.71-84.07,8.2-10.75,17.59-22.07,27.91-33.64,20.13-22.6,37.16-38.66,37.33-38.82.78-.73,1.89-.99,2.91-.69,1.02.31,1.81,1.13,2.06,2.17.2.83,19.86,80.42,63.59,93.27-2.52-17.75-8.79-81.93,27.68-107.93.76-.54,1.73-.7,2.62-.42.89.27,1.61.95,1.93,1.82.18.48,18.39,48.74,53.11,83.89,22.96,23.27,47.85,35.64,73.99,36.75.34.02.63.03.93.04,1.66.05,2.96,1.43,2.91,3.09-.05,1.66-1.43,2.95-3.09,2.91-.36-.01-.71-.02-1.06-.04-27.65-1.18-53.89-14.14-77.95-38.53-29.93-30.3-47.86-70-52.96-82.25-34.76,29.33-21.65,103.34-21.51,104.1.18.97-.13,1.97-.83,2.67-.7.7-1.7,1.01-2.67.82-44.11-8.27-65.84-74.68-71.21-93.78-6.03,5.89-18.86,18.7-33.32,34.92-10.21,11.45-19.5,22.65-27.61,33.28-25.55,33.5-39.18,60.68-40.49,80.8l-.06,1.03c-.09,1.6-1.41,2.83-2.99,2.83Z" fill="#2b2b2b"/><path d="M678.89,381.65c-.16,0-.32-.01-.49-.04-1.39-.23-2.43-1.39-2.51-2.79-1.3-22.96-6.04-47.25-14.1-72.2-20.03-62.04-54.25-108.34-54.59-108.8-.99-1.33-.72-3.21.61-4.2,1.33-.99,3.21-.72,4.2.61.35.47,35.14,47.52,55.49,110.54,6.57,20.36,10.99,40.32,13.17,59.51,4.03-12.73,9.67-33.32,12.97-57.27,9.68-70.33-2.2-157.49-113.78-173.38-1.64-.23-2.78-1.75-2.55-3.39.23-1.64,1.76-2.77,3.39-2.55,52.87,7.53,89.05,31.44,107.52,71.07,13.51,29,17.34,65.69,11.36,109.07-4.77,34.66-14.38,62.42-17.22,70.11-.44,1.19-.69,1.82-.69,1.82-.46,1.15-1.58,1.88-2.78,1.88Z" fill="#2b2b2b"/><path d="M273.45,306.12c-1.61,0-2.94-1.28-3-2.9-.47-13.67-.39-27.03.24-39.71,3.91-78.96,29.01-137.86,74.6-175.08,35.55-29.03,77.1-38.96,105.69-42.17,28.83-3.24,50.11-.59,53.64-.1,3.51-.56,24.66-3.64,53.39-1.01,28.5,2.61,69.97,11.63,105.7,39.75,45.49,35.81,71.12,93.31,76.16,170.91.96,14.51,1.19,29.95.67,45.89-.05,1.66-1.45,2.95-3.09,2.9-1.66-.05-2.96-1.44-2.9-3.09.51-15.74.28-30.99-.67-45.31-4.93-75.83-29.78-131.87-73.88-166.58-66.23-52.13-153.95-37.62-154.83-37.47-.32.05-.65.06-.97,0-.22-.03-22.55-3.34-52.74.08-27.75,3.15-68.04,12.79-102.41,40.87-44.19,36.1-68.53,93.53-72.35,170.69-.62,12.52-.7,25.71-.24,39.21.06,1.66-1.24,3.04-2.89,3.1-.04,0-.07,0-.11,0Z" fill="#2b2b2b"/><path d="M836.14,512.84c-.45,0-.9-.1-1.32-.3-3.4-1.66-83.3-41.2-96.53-96.63-.38-1.61.61-3.23,2.22-3.62,1.61-.39,3.23.61,3.61,2.22,11.08,46.41,74.4,82.62,89.91,90.86,3.73-21.92-.78-76.19-.82-76.77-.1-1.16.49-2.28,1.5-2.86,4.01-2.29,13.33-2.19,50.07,19.03,13.76,7.94,26.95,16.35,33.81,20.8-4.11-93.01-31.69-111.09-31.98-111.27-1.37-.84-1.85-2.63-1.07-4.03,4.71-8.47,24.39-6.31,35.2-4.41-32.71-59.46-118.81-80.02-119.7-80.22-1.16-.27-2.05-1.2-2.27-2.37-.22-1.17.27-2.36,1.25-3.03,15.38-10.54,14.62-45.19,13.5-60.21-21.79,23.96-72.7,56.99-75.02,58.5-.17.12-.28.19-.28.19-1.41.86-3.26.43-4.13-.98-.86-1.4-.45-3.23.94-4.11l.14-.09c2.55-1.65,61-39.58,78.25-62.74.73-.98,1.98-1.42,3.16-1.11,1.18.31,2.06,1.3,2.22,2.51.29,2.17,6.4,49.73-10.91,69.05,8.54,2.41,26.03,7.96,45.72,17.81,25.26,12.63,58.84,34.98,75.35,69.69.49,1.04.35,2.27-.37,3.16-.72.9-1.89,1.31-3.01,1.05-12.66-2.88-27.3-3.94-32.83-1.38,8.08,7.56,29.32,35.29,32.06,119.59.04,1.12-.56,2.17-1.54,2.72-.98.54-2.19.5-3.12-.12-.19-.12-18.72-12.44-38.4-23.8-28.44-16.42-38.79-19.04-42.36-19.21.95,12.24,4.43,62.28-.37,79.89-.23.86-.84,1.57-1.66,1.94-.39.18-.82.27-1.24.27Z" fill="#2b2b2b"/><path d="M227.51,514.46c-.82,0-1.61-.33-2.17-.93-24.83-26.13-29.31-63.45-29.66-84.52-18.02,36.22-52.78,76.35-54.45,78.27-.64.73-1.6,1.11-2.56,1.02-.97-.1-1.83-.65-2.31-1.5-25.84-45.23-10.66-111.07-5.46-130.03-21.86,6.57-45.33,22.62-45.58,22.79-.97.67-2.23.71-3.24.1s-1.57-1.74-1.44-2.9c5.82-52.72,32.1-85.86,53.11-104.37,15.35-13.53,29.96-21.34,38.13-25.09-21.86-13.26-28.23-57.13-28.51-59.17-.18-1.3.51-2.57,1.7-3.13,1.19-.56,2.61-.28,3.49.7,24.34,26.72,124.46,54.78,125.47,55.06,1.6.44,2.53,2.1,2.09,3.69-.44,1.6-2.1,2.53-3.69,2.09-3.87-1.08-88.66-24.85-121.47-50.58,3.26,14.82,11.82,43.9,29.36,48.49,1.28.33,2.19,1.46,2.24,2.78.05,1.32-.76,2.52-2.01,2.95-.21.07-21.09,7.51-43.01,26.87-19.28,17.04-43.19,46.97-50.11,93.98,9.38-5.88,29.11-17.29,47.17-21.46,1.05-.24,2.15.1,2.88.89.73.79.98,1.92.65,2.94-.25.78-23.84,76.57,1.39,126.61,10.19-12.17,45.1-55.21,56.88-87.7.52-1.43,2.02-2.24,3.5-1.9,1.48.34,2.47,1.74,2.3,3.25-.06.58-5.86,57.23,24.93,92.91,13.79-21.28,42.2-70.6,37.37-89.47-.41-1.61.56-3.24,2.16-3.65,1.6-.41,3.24.56,3.65,2.16,6.79,26.55-38.38,94.62-40.31,97.51-.51.76-1.33,1.25-2.24,1.32-.09,0-.17.01-.26.01Z" fill="#2b2b2b"/><path d="M617.07,314.2c-.59,0-1.16-.3-1.49-.84-8.29-13.52-17.49-18.45-27.37-14.65-6.81,2.62-11.41,8.5-11.45,8.56-.59.76-1.69.91-2.46.31-.76-.59-.9-1.69-.31-2.46.21-.27,5.26-6.71,12.96-9.68,8.03-3.09,20.03-2.81,31.61,16.09.5.82.25,1.9-.58,2.41-.29.17-.6.26-.91.26Z" fill="#2b2b2b"/><path d="M380.39,313.01c-.4,0-.8-.14-1.13-.42-.74-.63-.82-1.73-.2-2.47,20.45-24.02,43.57-7.42,43.8-7.25.78.57.94,1.67.37,2.45-.57.78-1.67.94-2.45.37-.86-.63-20.77-14.78-39.06,6.71-.35.41-.84.62-1.33.62Z" fill="#2b2b2b"/><path d="M515.13,501.37c-6.16,0-12.32-.4-18.99-.88-17.5-1.26-37.72-3.22-56.33-10.41-20.16-7.8-35.5-20.96-43.22-37.06-.42-.87-.05-1.92.82-2.33.87-.42,1.92-.05,2.33.82,7.33,15.29,22,27.83,41.32,35.31,18.17,7.02,38.08,8.94,55.32,10.19,8.33.6,15.85,1.08,23.51.79,44.97-1.67,74.89-15.98,97.03-46.39.57-.78,1.67-.95,2.44-.38.78.57.95,1.66.39,2.45-22.83,31.36-53.59,46.11-99.73,47.83-1.64.06-3.27.09-4.9.09Z" fill="#2b2b2b"/><path d="M428.23,1473.91c-.13,0-.26-.01-.4-.04l-9.93-2.3c-.94-.22-1.53-1.16-1.31-2.1l6.44-27.97h0l6.71-29.14c.1-.45.38-.84.78-1.09.39-.25.87-.33,1.32-.22l9.94,2.29c.94.22,1.53,1.16,1.31,2.1l-13.16,57.12c-.1.45-.38.85-.78,1.09-.28.17-.6.27-.93.27ZM420.4,1468.55l6.52,1.51,12.37-53.71-6.53-1.5-12.36,53.7Z" fill="#2b2b2b"/><path d="M422.82,1643.14c-.97,0-1.75-.76-1.75-1.73,0-.16.02-.35.06-.5,3.93-14.45,7.18-29.19,9.64-43.83,10.88-64.47,3.97-109.64,3.9-110.08-.15-.96.5-1.85,1.45-2,.95-.15,1.85.5,2,1.45.07.45,7.08,46.14-3.9,111.22-2.48,14.74-5.75,29.58-9.7,44.12-.19.77-.88,1.36-1.7,1.36Z" fill="#2b2b2b"/><path d="M620.17,756.5c-.6,0-1.2-.18-1.7-.53-.01,0-1.09-.75-2.93-1.84-4.07-2.43-12.26-6.82-21.6-8.97-7.19-1.67-13.52-2.04-17.57-2.05-3.79-.02-6.1.25-6.12.26-.97.12-1.94-.24-2.6-.97-.66-.73-.92-1.73-.7-2.68l14.92-64.81c.32-1.39,1.56-2.38,3.01-2.33,0,0,.67.02,1.92.08,2.25.14,5.84.42,10.33,1.03l.13.02c.62.08,1.25.16,1.9.27,4.12.63,8.21,1.41,12.12,2.32,4.05.93,8.2,2.15,12.31,3.63l.2.07c.46.16.93.33,1.38.5,5.05,1.87,9.03,3.7,10.97,4.62.53.25,1,.47,1.4.68.04.02.09.04.13.06,1.05.52,1.62.82,1.62.82,1.26.65,1.89,2.1,1.51,3.46l-17.74,64.16c-.26.93-.95,1.69-1.87,2.02-.33.12-.68.18-1.02.18ZM575.81,737.11c.19,0,.38,0,.58,0,6.26.03,12.79.79,18.9,2.21,9.94,2.29,18.62,6.88,23.06,9.51l16.01-57.91c-.24-.12-.49-.24-.76-.36-.01,0-.02-.01-.03-.02-1.84-.88-5.64-2.62-10.49-4.42-.43-.16-.85-.31-1.27-.46l-.22-.08c-3.91-1.4-7.82-2.55-11.65-3.44-3.77-.87-7.71-1.62-11.71-2.24-.61-.1-1.17-.17-1.71-.24l-.16-.02c-3.9-.53-7.06-.8-9.2-.95l-13.45,58.44c.64-.02,1.34-.03,2.11-.03Z" fill="#2b2b2b"/><path d="M636.7,690.79c-.07,0-.14,0-.21,0-1.65-.12-2.9-1.55-2.78-3.2l2.66-37.63-32.67-7.52-14.23,32.71c-.66,1.52-2.43,2.22-3.95,1.55-1.52-.66-2.22-2.43-1.55-3.95l15.22-35c.58-1.33,2.02-2.05,3.42-1.73l37.6,8.66c1.44.33,2.42,1.66,2.32,3.14l-2.84,40.19c-.11,1.58-1.43,2.79-2.99,2.79Z" fill="#2b2b2b"/><path d="M624.11,685.05c-.07,0-.14,0-.21-.01-.96-.11-1.64-.99-1.53-1.95l3.04-25.42-16.31-3.76-8.78,23.64c-.34.91-1.35,1.36-2.25,1.03-.91-.34-1.37-1.34-1.03-2.25l9.32-25.08c.31-.83,1.18-1.29,2.03-1.1l19.34,4.46c.87.2,1.45,1.03,1.34,1.91l-3.23,26.98c-.11.89-.86,1.54-1.74,1.54Z" fill="#2b2b2b"/><path d="M524.65,968.85c-.2,0-.41-.02-.61-.06-1.62-.34-2.66-1.93-2.33-3.55l.05-.24,3.53-15.3,22.57-97.99c.37-1.61,1.98-2.62,3.6-2.25,1.61.37,2.62,1.98,2.25,3.6l-26.13,113.41c-.29,1.42-1.54,2.39-2.93,2.39Z" fill="#2b2b2b"/><path d="M425.88,1397.53c-.22,0-.45-.03-.67-.08-1.61-.37-2.62-1.98-2.25-3.59l70.87-309.19c.37-1.61,1.98-2.63,3.59-2.26,1.62.37,2.63,1.97,2.26,3.59l-.2.88-70.67,308.31c-.32,1.39-1.55,2.33-2.92,2.33Z" fill="#2b2b2b"/><path d="M563.57,985.64c-.22,0-.45-.03-.68-.08-1.61-.37-2.62-1.98-2.25-3.6l22.87-99.24c.37-1.61,1.99-2.62,3.6-2.25,1.61.37,2.62,1.98,2.25,3.6l-22.87,99.24c-.32,1.39-1.55,2.33-2.92,2.33Z" fill="#2b2b2b"/><path d="M466.45,1407.1c-.22,0-.45-.03-.68-.08-1.61-.37-2.62-1.98-2.25-3.6l71.67-311.01c.37-1.61,1.98-2.61,3.6-2.25,1.61.37,2.62,1.98,2.25,3.6l-71.67,311.01c-.32,1.39-1.55,2.33-2.92,2.33Z" fill="#2b2b2b"/><path d="M453.42,1601.33c-.06,0-.12,0-.19,0l-23.66-2.5s-.07,0-.11-.01c-5.96-1.01-11.87-2.09-17.56-3.23-.05,0-.09-.01-.13-.02-15.11-3.04-27.8-6.32-37.72-9.75-18.48-6.38-21.82-11.29-22.13-11.83-.49-.83-.22-1.91.62-2.4.82-.48,1.87-.23,2.37.57.12.17,3.44,4.54,20.29,10.35,9.75,3.37,22.25,6.6,37.17,9.61.04,0,.09.01.13.02,5.67,1.13,11.56,2.22,17.51,3.22l23.61,2.49c.96.1,1.66.96,1.56,1.92-.09.9-.85,1.57-1.74,1.57Z" fill="#2b2b2b"/><path d="M375.29,1583.98c-.16,0-.32-.02-.49-.07-.93-.27-1.46-1.24-1.2-2.17.14-.49,14.37-49.85,29.42-97.92l.05-.16c1.26-4.03,2.52-8.06,3.8-12.05.01-.05.02-.09.04-.14l.04-.11c.1-.32.21-.65.31-.96.28-.92,1.26-1.44,2.18-1.16.92.28,1.45,1.26,1.16,2.18-.1.33-.21.67-.32,1.01,0,.04-.02.09-.03.13-1.28,4.02-2.55,8.09-3.83,12.15l-.05.16c-15.04,48.03-29.26,97.35-29.4,97.84-.22.77-.92,1.27-1.68,1.27Z" fill="#2b2b2b"/><path d="M412.74,1592.61c-.13,0-.27-.01-.4-.05-.94-.22-1.52-1.16-1.3-2.11.22-.95,22.39-94.92,23.63-103.97.13-.96,1.02-1.62,1.97-1.5.96.13,1.63,1.01,1.5,1.97-1.26,9.22-22.78,100.43-23.69,104.31-.19.8-.91,1.35-1.7,1.35Z" fill="#2b2b2b"/><path d="M629.27,859.44c-.46,0-.92-.1-1.36-.33-1.48-.75-2.06-2.56-1.31-4.03.08-.16,8.1-16.07,12.01-35.36,5.27-25.86,1.04-44.91-12.56-56.61-17.95-15.46-42.65-16.18-58.35-12.11-9.85,2.55-17.18,7.21-18.68,11.88-.66,2.06-.13,4.09,1.63,6.21,1.06,1.27.89,3.16-.38,4.22-1.27,1.06-3.16.89-4.23-.38-3.91-4.69-3.65-9.05-2.74-11.88,2.18-6.78,10.74-12.7,22.89-15.85,17.1-4.44,44.07-3.6,63.77,13.37,15.15,13.04,20.18,34.6,14.52,62.35-4.08,20.12-12.2,36.21-12.55,36.88-.53,1.04-1.58,1.64-2.68,1.64Z" fill="#2b2b2b"/><path d="M544.59,803.28c-2.85,0-8-1.12-10.23-5.35-2.48-4.71-.66-11.23,5.57-19.96,2.22-3.11,5.73-5.5,10.42-7.1,19.85-6.75,56.63,2.2,58.19,2.59,1.61.4,2.59,2.02,2.19,3.63-.4,1.61-2.02,2.59-3.63,2.19-.36-.09-36.62-8.91-54.82-2.73-3.48,1.19-6,2.83-7.47,4.9-6.4,8.96-5.73,12.54-5.15,13.66.93,1.78,4.03,2.12,5.03,2.16h.02c1.64,0,2.99,1.32,3.01,2.96.02,1.65-1.28,3.01-2.93,3.04-.06,0-.13,0-.2,0Z" fill="#2b2b2b"/><path d="M542.21,829.57c-1.22,0-2.37-.75-2.82-1.97-4.79-13.1-3.58-22.96,3.6-29.29,15.9-14.07,56.3-3.77,58.01-3.32,1.6.42,2.56,2.05,2.15,3.66-.42,1.6-2.06,2.57-3.66,2.15-10.81-2.81-41.31-7.92-52.53,2.01-5.14,4.54-5.8,12.19-1.94,22.73.57,1.56-.23,3.28-1.79,3.85-.34.12-.69.18-1.03.18Z" fill="#2b2b2b"/><path d="M600.7,888.96c-5.47,0-10.96-.82-15.5-3.16-1.72-.87-3.3-1.98-4.67-3.28-10.62-10.06-7.9-25.57-5.83-32.82-3.69.17-8.08,1.14-12.36,2.07-3.86.85-7.86,1.72-11.43,2.03-3.7.33-9.01.32-12.34-3.46-2.87-3.27-3.46-8.52-1.81-16.05.7-3.19,1.95-6.04,3.69-8.47,14.13-19.66,56.41-6.27,58.2-5.69,1.58.51,2.44,2.2,1.93,3.78-.51,1.58-2.2,2.44-3.78,1.93-.4-.13-39.89-12.64-51.48,3.49-1.27,1.76-2.18,3.87-2.71,6.25-1.18,5.38-1.03,9.11.45,10.8,1.15,1.31,3.54,1.78,7.31,1.45,3.19-.28,6.82-1.07,10.67-1.92,6.35-1.39,12.91-2.83,18.21-1.99.91.14,1.7.69,2.15,1.49s.51,1.76.16,2.61c-.08.19-7.88,19.77,3.08,30.14.95.9,2.05,1.67,3.27,2.29,8.71,4.49,23.9,2.27,35.21-1.3.86-.28,1.36-.45,1.37-.46,1.57-.54,3.27.29,3.81,1.86.54,1.57-.29,3.27-1.85,3.82,0,0-.54.19-1.51.5-3.94,1.24-14.08,4.09-24.27,4.09Z" fill="#2b2b2b"/><path d="M551.02,775.84c-.13,0-.26,0-.4-.03-.13-.02-3.22-.44-6.77-1.9-5.51-2.26-9.22-5.81-10.73-10.25-1.7-4.98-.62-10.87,3.21-17.5,7.9-13.7,18.14-15.5,25.09-12.63,6.01,2.48,9.46,8.39,8.03,13.74-.43,1.6-2.07,2.55-3.67,2.12-1.6-.43-2.55-2.07-2.12-3.67.64-2.41-1.35-5.33-4.53-6.65-4.6-1.91-11.64-.25-17.6,10.08-2.92,5.07-3.84,9.3-2.73,12.57,1.19,3.48,4.65,5.53,7.34,6.64,2.8,1.15,5.26,1.5,5.28,1.5,1.64.22,2.79,1.73,2.57,3.37-.2,1.5-1.49,2.6-2.97,2.6Z" fill="#2b2b2b"/><path d="M540.78,1095.58c-.89,0-1.79,0-2.69-.02-7.7-.12-27.25-1.01-42.55-6.53-3.01-1.08-5.77-2.32-8.2-3.69-16.27-9.22-22.91-31.73-25.61-48.99-.46-2.99-.84-5.98-1.12-8.9-.82-8.24-.77-13.93-.76-14.17.02-1.65,1.36-2.97,3-2.97.01,0,.02,0,.03,0,1.66.02,2.99,1.37,2.97,3.03,0,.05-.05,5.63.74,13.52.27,2.82.64,5.7,1.08,8.57,2.5,15.95,8.45,36.65,22.63,44.69,2.12,1.2,4.57,2.3,7.27,3.27,10.19,3.68,24.99,5.93,40.62,6.17,10.74.17,17.89-.68,20.74-1.45l.9-.25c8.29-2.25,12.08-5.81,13.08-12.31l.07-.45c.7-4.47.89-6.54-2.09-9.03-1.27-1.06-1.45-2.95-.39-4.22,1.06-1.28,2.95-1.45,4.22-.39,5.73,4.76,4.87,10.2,4.18,14.57l-.07.44c-1.8,11.66-10.81,15.39-17.43,17.18l-.9.25c-3.92,1.06-11.31,1.68-19.72,1.68Z" fill="#2b2b2b"/><path d="M553.47,1068.54c-23.94,0-52.47-6.38-54.03-6.73-1.62-.37-2.63-1.97-2.26-3.59.37-1.62,1.97-2.63,3.59-2.26.49.11,48.93,10.94,71.1,4.59,8.92-2.55,9.73-6.71,9.56-9.62-.42-7.48-3.21-10-4.62-10.29.08.02.12.02.12.02l.65-5.96c.37.04,9,1.16,9.84,15.89.3,5.28-1.87,12.29-13.9,15.73-5.61,1.6-12.61,2.22-20.05,2.22Z" fill="#2b2b2b"/><path d="M558.27,1044.01c-21.78,0-48.94-10.14-50.44-10.71-1.55-.58-2.33-2.32-1.75-3.87.58-1.55,2.32-2.33,3.87-1.75.46.17,46.26,17.29,63.74,7.26,2.05-1.18,3.55-2.65,4.56-4.51.09-.17.19-.34.27-.52,3.7-7.69,2.87-10.77,2.04-11.93-1.29-1.8-4.69-2.08-7.45-1.75-.33.04-.56.08-.59.09-1.63.29-3.18-.8-3.47-2.43-.29-1.63.79-3.18,2.42-3.48,0,0,.33-.06.89-.13,2.8-.34,9.63-.6,13.08,4.21,2.88,4.03,2.39,9.92-1.51,18.01-.13.27-.27.54-.42.81-1.54,2.81-3.84,5.11-6.84,6.83-4.87,2.79-11.36,3.86-18.41,3.86Z" fill="#2b2b2b"/><path d="M564.59,1017.3c-20.61,0-48.06-14.47-49.4-15.18-1.46-.78-2.02-2.6-1.24-4.06.78-1.46,2.59-2.01,4.06-1.24.36.19,35.79,18.87,53.9,13.56,3.24-.94,5.59-2.58,7.19-5,.64-.96,2.33-3.51-2.1-8.58-3-3.42-8.08-7.2-15.11-11.22-12.05-6.89-27.45-13.14-38.24-17.16-10.34-3.86-18.03-6.29-18.1-6.32-1.58-.5-2.46-2.18-1.96-3.76.5-1.58,2.18-2.46,3.76-1.96.08.02,7.91,2.5,18.4,6.42,11,4.1,26.72,10.48,39.12,17.58,7.61,4.35,13.21,8.55,16.65,12.48,6.15,7.04,4.8,12.5,2.58,15.84-2.39,3.6-5.93,6.11-10.51,7.44-2.75.81-5.8,1.16-9,1.16Z" fill="#2b2b2b"/><path d="M526.47,952.97s-.06,0-.09,0l-41.83-1.19c-1.66-.05-2.96-1.43-2.91-3.08.05-1.66,1.41-2.97,3.08-2.91l41.83,1.19c1.66.05,2.96,1.43,2.91,3.08-.05,1.63-1.38,2.92-3,2.92Z" fill="#2b2b2b"/><path d="M580.54,997.79c-1.08,0-2.13-.59-2.67-1.62-.76-1.47-.19-3.28,1.28-4.04,4.34-2.25,6.55-4.86,6.75-7.98.53-7.94-11.35-18.47-18.45-23.45l-.19-.13c-1.39-.89-1.8-2.74-.91-4.14.89-1.39,2.74-1.8,4.14-.92,0,0,.14.09.38.25,5.16,3.62,21.85,16.32,21.02,28.78-.35,5.31-3.71,9.66-9.98,12.91-.44.23-.91.34-1.38.34Z" fill="#2b2b2b"/><path d="M423.77,1873.31c-.05,0-.11,0-.16,0-.07,0-1.84-.17-4.09-.57-1.72-.29-4.22-.8-6.27-1.6-1.46-.57-2.53-1.2-3.25-1.92-.68-.68-.68-1.79,0-2.47.68-.68,1.79-.68,2.47,0,.21.21.75.63,2.04,1.13,1.41.55,3.34,1.04,5.6,1.42,2.12.37,3.8.53,3.82.53.96.09,1.67.94,1.58,1.9-.08.91-.85,1.59-1.74,1.59Z" fill="#2b2b2b"/><path d="M419.59,1890.09c-.12,0-.25,0-.38-.02,0,0-1.33-.17-3.21-.48-3.85-.63-6.89-1.31-9.05-2.02-1.56-.5-2.72-1.05-3.54-1.68-1.31-1.01-1.56-2.89-.55-4.21,1.01-1.31,2.89-1.56,4.21-.55.02.01.4.3,1.74.73,1.85.61,4.66,1.23,8.15,1.8,1.74.29,2.96.44,2.99.44,1.64.21,2.81,1.71,2.6,3.35-.19,1.52-1.48,2.63-2.97,2.63Z" fill="#2b2b2b"/><path d="M446.58,1646.17c-.07,0-.14,0-.21,0l-3.33-.25-30.24-2.3s-.08,0-.12-.01c-41.92-4.86-64.92-19.32-72.86-25.32-1.32-1-1.59-2.88-.59-4.2.16-.22.35-.4.55-.56-.27,0-.55-.04-.83-.13-1.59-.48-2.49-2.15-2.01-3.73,3.82-12.77,8.08-25.54,12.65-37.98,17.63-47.85,35.65-77.51,44.82-90.93,4.21-6.16,7.13-9.79,8.25-11.13l17.91-77.57c.23-1.01.97-1.82,1.94-2.16.98-.34,2.06-.15,2.86.5.66.54,1.41,1.1,2.23,1.67,14.81,10.5,31.86,9.83,38.5,9.06,2.19-.25,3.48-.53,3.49-.54,1.02-.23,2.08.08,2.81.83.73.74,1.02,1.81.77,2.82l-18.18,73.33c11.92,30.97,7.83,83.63,2.26,122.54-.88,6.15-1.84,12.25-2.85,18.15-1.63,9.57-3.13,17.2-4.11,21.92-.5,2.36-.78,3.64-.78,3.64-.3,1.38-1.53,2.35-2.93,2.35ZM413.32,1637.64l30.88,2.35c.07-.32.14-.66.22-1.03.96-4.66,2.45-12.22,4.07-21.71,1-5.85,1.96-11.9,2.83-17.99,5.53-38.57,9.62-90.76-2.24-120.37-.23-.58-.28-1.23-.13-1.84l17.33-69.91c-7.46.8-25.07,1.23-40.88-9.31l-17.05,73.86c-.11.48-.34.93-.67,1.3-.03.03-3.19,3.67-8.31,11.15-9.02,13.19-26.74,42.37-44.14,89.61-4.53,12.32-8.74,24.97-12.53,37.62-.19.62-.56,1.14-1.03,1.51.62,0,1.24.2,1.78.61,7.55,5.69,29.46,19.44,69.88,24.14Z" fill="#2b2b2b"/></svg>