<?xml version="1.0" encoding="UTF-8"?><svg id="_レイヤー_36" xmlns="http://www.w3.org/2000/svg" width="2000" height="2000" xmlns:xlink="http://www.w3.org/1999/xlink" viewBox="0 0 2000 2000"><defs><clipPath id="clippath"><path d="M1498.82,838.15l388.87-64.61c-4.87-.42-596.91-557.71-596.91-557.71-24.28,4.54-342.5,36.19-483.09,264.31-84.35,136.87-26.52,483.81-21.94,547.94,0,0,1.13,30.33,128.52,48.94,11.8,1.73,24.02,3.22,36.47,4.53,65.35,6.89,136.57,8.67,181.42,11.7,47.63,3.24,95.5,1.18,142.56-6.79,26.24-4.44,52.71-10.81,72.09-19.91,0,0,40.76-207.06,152.45-225.71l-.42-2.69Z" fill="none"/></clipPath></defs><path d="M1535.8,1154.14c-10.78,0-21.11-2.91-29.95-8.45-8.02-5.02-11.59-9.94-10.91-15.04.68-5.1,5.61-8.36,9.23-10.08l-1.77.24c-13.93,1.86-32.03-5.5-40.36-16.4-4.92-6.44-6.19-12.06-3.78-16.71,3.48-6.71,14.09-9.1,22.49-9.91-30.38-4.24-42.49-19.41-41-32.6,1.02-9.08,8.72-17.66,21.76-18.5-3.68-3.13-5.82-6.5-6.47-10.16-1.03-5.76,1.77-11.62,8.31-17.41,7.69-6.81,17.82-10.56,28.46-10.52l46.9.1c3.45.01,6.84-.33,10.2-1,9.57-1.9,20.22-5.14,30.86-9.38l-45.95,3.13c-7.12.48-14.1-2.29-18.65-7.44-8.75-9.91-2.84-20.16,1.51-24.2,6.13-5.69,23.16-9.27,44.71-13.81,4.87-1.03,9.9-2.09,14.97-3.21.07-.02.14-.03.21-.04l3.97-.59c1.58-.3,21.35-3.77,32.82,7.16,6.47,6.16,8.91,15.5,7.26,27.75,1.92,5.09,12.38,33.79,10.21,47.71,2.72,5.58,16.22,34.22,14.23,48.3.58,5.57,3.81,39.82-3.49,49.97-1.33,2.3-14.81,25.2-30.98,34.18-.29.16-.61.27-.94.33-3.02.53-6.04,1.27-8.86,1.99-11.32,2.9-44.65,4.11-63.51,4.57-.49.01-.98.02-1.47.02ZM1509.54,1124.85c-2.74.88-8.27,3.55-8.67,6.59-.31,2.38,2.66,5.72,8.15,9.16,8.25,5.17,17.97,7.78,28.09,7.52,18.61-.45,51.42-1.63,62.17-4.38,2.78-.71,5.76-1.44,8.8-2,15.02-8.64,28.21-31.58,28.34-31.82.06-.11.13-.21.21-.32,4.7-6.27,3.97-31.71,2.41-46.28-.03-.27-.02-.55.02-.81,1.83-10.97-9.53-36.9-14.06-45.97-.31-.61-.39-1.31-.25-1.98,2.29-10.54-6.46-36.84-10.02-46.08-.19-.48-.24-1-.17-1.52,1.56-10.59-.24-18.42-5.34-23.3-9.43-9.01-27.44-5.65-27.62-5.61-.04,0-.09.02-.13.02l-3.93.59c-5.07,1.12-10.08,2.18-14.93,3.2-19,4-36.95,7.78-41.87,12.34-.85.79-8.08,7.91-1.09,15.83,3.32,3.76,8.46,5.79,13.74,5.43l46.83-3.2c2.94-.21,5.45,1.67,6.11,4.54.66,2.87-.79,5.64-3.51,6.74-11.41,4.61-22.44,7.98-32.77,10.03-3.75.75-7.55,1.14-11.38,1.11l-46.9-.1h-.09c-9.16,0-17.82,3.2-24.38,9.01-4.87,4.31-7.02,8.3-6.38,11.87.72,4.05,5.12,8.1,12.82,11.86,51.34,3.84,90.29-1.27,90.7-1.32,1.46-.2,2.84.69,3.27,2.1.43,1.41-.23,2.92-1.55,3.57-29.48,14.41-85.71,4.42-88.09,3.99-.19-.04-.38-.09-.55-.16-1.91-.75-3.7-1.51-5.36-2.28-1.95-.15-3.92-.31-5.9-.49-12.4-1.1-19.75,5.76-20.58,13.12-1.17,10.34,9.57,22.4,36.18,26.03,14.46,1.97,24.83,2.53,33.52,2.26l36.5-5c4.32-.69,9.08-1.38,14.49-1.98,1.62-.18,3.11.98,3.31,2.61.2,1.63-.94,3.12-2.57,3.34l-14.33,1.96c-3.59.58-6.87,1.16-9.96,1.71-9.21,1.64-17.08,3.04-27.08,3.36l-23.76,3.25c-.17.02-.35.03-.52.03-9.19-.36-24.9,1.24-27.9,7.03-1.25,2.41-.17,5.88,3.22,10.3,7.05,9.22,22.98,15.68,34.8,14.1l85.23-11.4c1.6-.21,3.09.88,3.36,2.48.26,1.6-.79,3.12-2.38,3.43l-78.26,15.48ZM1609.12,1144.6h0,0Z" fill="#2b2b2b"/><path d="M794.35,781.42c-.23,0-.46-.03-.69-.08-1.61-.38-2.61-2-2.23-3.61,1.84-7.81,1.65-11.56,1.65-11.6,0-.06,0-.14,0-.2v-11.49c.02-1.66,1.36-3,3.01-3h0c1.66,0,3,1.35,3,3v11.4c.03.88.11,5.11-1.81,13.26-.33,1.38-1.56,2.31-2.92,2.31Z" fill="#2b2b2b"/><path d="M698.1,841.01c-36.95,0-63.06-9.17-77.61-27.24-16.83-20.9-11.65-45.72-11.42-46.76.35-1.62,1.95-2.64,3.57-2.29,1.62.35,2.64,1.95,2.29,3.57h0c-.05.23-4.76,23.17,10.28,41.79,13.37,16.55,37.89,24.94,72.89,24.94,11.9,0,22.91-1.02,32.74-3.04,1.63-.33,3.21.71,3.54,2.34.33,1.62-.71,3.21-2.34,3.54-10.22,2.1-21.64,3.16-33.94,3.16Z" fill="#2b2b2b"/><path d="M543.35,768.34c-1.36,0-2.6-.94-2.92-2.32-.37-1.61.63-3.23,2.25-3.6,7.34-1.7,12.55-2.32,17.59-2.92,1.8-.21,3.6-.43,5.5-.69,1.64-.23,3.16.92,3.38,2.56.23,1.64-.92,3.16-2.56,3.38-1.94.27-3.77.49-5.61.7-5.1.6-9.92,1.18-16.94,2.8-.23.05-.46.08-.68.08Z" fill="#2b2b2b"/><path d="M688.36,1491.24c-72.54,0-128.97-7.07-166.47-13.87-49.92-9.05-76.9-19.24-80.21-20.53-13.85-2.34-24.22-9.38-30.83-20.91-23.2-40.46,7.5-123.16,9.92-129.53l15.82-88.97c.29-1.63,1.85-2.72,3.48-2.43,1.63.29,2.72,1.85,2.43,3.48l-15.87,89.25c-.03.19-.09.37-.15.55-.33.86-32.63,85.94-10.41,124.66,5.8,10.11,14.61,16.01,26.92,18.02.21.04.43.09.63.18.27.11,27.84,11,79.6,20.36,47.77,8.64,126.5,17.72,230.28,11.87,1.66-.09,3.07,1.17,3.16,2.83.09,1.65-1.17,3.07-2.83,3.16-23.06,1.3-44.91,1.87-65.46,1.87Z" fill="#2b2b2b"/><path d="M835.96,759.66c-.12,0-.25,0-.38-.02-14.17-1.77-27.07-2.49-39.45-2.19-.02,0-.05,0-.07,0-1.62,0-2.96-1.3-3-2.93-.04-1.66,1.27-3.03,2.93-3.07,12.67-.3,25.86.43,40.33,2.24,1.64.21,2.81,1.7,2.6,3.35-.19,1.52-1.48,2.63-2.97,2.63Z" fill="#2b2b2b"/><path d="M361.32,2010.54c-.06,0-.11,0-.17,0-1.65-.09-2.92-1.5-2.83-3.16,5.63-102.56,28.14-445.66,81.47-554.76.73-1.49,2.53-2.1,4.01-1.38,1.49.73,2.11,2.52,1.38,4.01-22.72,46.47-42.44,141.92-58.63,283.68-13.02,114.02-19.89,225.94-22.24,268.77-.09,1.6-1.41,2.84-2.99,2.84Z" fill="#2b2b2b"/><path d="M691.8,873.8c-36.38,0-65.81-9.22-87.81-27.57-36.69-30.6-39.05-76.46-39.07-76.92-.04-.96.71-1.78,1.67-1.82.97-.04,1.78.71,1.82,1.67.02.45,2.34,44.83,37.85,74.42,27.91,23.26,68.37,31.39,120.24,24.18.97-.14,1.84.54,1.97,1.49.13.96-.54,1.84-1.49,1.97-12.36,1.72-24.11,2.58-35.2,2.58Z" fill="#2b2b2b"/><path d="M829.51,786.44c-.06,0-.13,0-.2-.01-.96-.11-1.65-.97-1.55-1.93.98-8.78.81-18.22-.49-28.07-.13-.96.55-1.84,1.5-1.96.95-.14,1.84.55,1.96,1.5,1.34,10.12,1.51,19.85.5,28.91-.1.89-.86,1.56-1.74,1.56Z" fill="#2b2b2b"/><path d="M942.18,563.37c-1.07,0-2.1-.57-2.64-1.57-2.78-5.13-3.84-11.48-4.86-17.62-.01-.07-.02-.15-.03-.22-.34-3.7-.56-7.32-.78-10.82-.45-7.14-.87-13.88-2.15-21.29-.28-1.63.81-3.19,2.44-3.47,1.63-.28,3.19.81,3.47,2.44,1.34,7.73,1.79,14.96,2.23,21.94.21,3.42.44,6.96.76,10.54.98,5.88,1.91,11.42,4.2,15.64.79,1.46.25,3.28-1.21,4.07-.45.25-.94.36-1.43.36Z" fill="#2b2b2b"/><path d="M645.05,772.84c-36.73,0-70.84-4.73-103.26-14.27-.03,0-.07-.02-.1-.03-24.71-8.23-42.6-17.98-58.04-31.6-34.89-31.12-49.83-79.46-40.99-132.64.95-9.62-.04-19.18-2.87-27.66-2.18-6.98-4.77-13.84-7.28-20.48-3.24-8.58-6.59-17.45-9-26.45-.43-1.6.52-3.25,2.12-3.68,1.6-.43,3.25.52,3.68,2.12,2.34,8.71,5.49,17.05,8.82,25.88,2.54,6.72,5.16,13.67,7.38,20.75,3.08,9.25,4.17,19.71,3.12,30.19,0,.06-.02.13-.03.19-8.52,51.15,5.7,97.54,39.04,127.27,14.78,13.04,32.02,22.41,55.9,30.38,46.94,13.8,97.57,17.36,154.76,10.88.11-.01.23-.02.34-.02h14.9c8.79-.59,17.82-2.28,26.55-3.91,5.94-1.11,12.08-2.25,18.15-3.06,12.79-1.92,25.02-5.46,37.96-9.21,6.69-1.94,13.62-3.95,20.59-5.69,1.15-.4,2.2-1.03,3.3-1.69,1.3-.78,2.78-1.67,4.6-2.27,1.11-.37,2.17-.61,3.2-.84,1.98-.45,3.69-.83,5.58-2.05,1.4-.89,3.25-.49,4.14.91.89,1.4.49,3.25-.91,4.14-2.78,1.78-5.29,2.35-7.5,2.85-.93.21-1.8.41-2.62.68-1.19.4-2.26,1.04-3.4,1.73-1.3.78-2.78,1.67-4.6,2.27-.07.02-.15.05-.22.06-6.91,1.73-13.81,3.73-20.49,5.67-12.56,3.64-25.55,7.41-38.79,9.39-5.97.8-12.03,1.93-17.89,3.02-8.94,1.67-18.17,3.39-27.35,4-.07,0-.13,0-.2,0h-14.83c-18.56,2.1-36.45,3.15-53.76,3.15ZM445.64,594.69h0,0Z" fill="#2b2b2b"/><path d="M1050.09,503.52c-.13,0-.26,0-.39-.02-1.64-.21-2.8-1.72-2.59-3.36.41-3.17.73-6.41.97-9.63,1.16-16.09,1.73-37.01-4.31-56.12-3.81-12.07-9.85-21.02-17.96-26.61-11.58-7.97-26.03-7.89-36.1-6.42-12.51,1.83-25.09,6.12-36.4,12.41-1.45.81-3.28.29-4.08-1.16-.81-1.45-.29-3.27,1.16-4.08,11.94-6.64,25.23-11.17,38.45-13.11,15.97-2.34,29.94.23,40.38,7.41,9.23,6.36,16.06,16.37,20.28,29.74,6.34,20.08,5.77,41.74,4.57,58.36-.24,3.33-.58,6.68-1,9.96-.2,1.51-1.49,2.62-2.97,2.62Z" fill="#2b2b2b"/><path d="M423.62,667.04c-30.53,0-57.63-12.74-80.82-38.07-2.04-2.24-4.04-4.58-5.94-6.96-16.99-21.26-27.62-47.39-30.73-75.56-5.1-46.31,3.88-77.3,26.68-92.12,27.09-17.58,64.59-6.32,75.45-2.45,1.44.51,2.24.84,2.24.84,1.53.63,2.26,2.39,1.63,3.92-.63,1.53-2.38,2.26-3.91,1.63h0s-.73-.3-1.96-.73c-7.27-2.59-44.76-14.67-70.18,1.82-20.75,13.48-28.82,42.56-23.99,86.43,2.98,27.04,13.17,52.1,29.45,72.47,1.81,2.28,3.72,4.51,5.68,6.65,28.15,30.74,60.85,41.74,99.96,33.6,1.62-.33,3.21.7,3.55,2.33.34,1.62-.7,3.21-2.33,3.55-8.5,1.77-16.77,2.65-24.8,2.65Z" fill="#2b2b2b"/><path d="M1020.87,498.09c-.1,0-.2,0-.3-.03-.95-.16-1.59-1.07-1.43-2.02,1.4-8.15,1.98-16.3,1.75-24.24-.88-8.79-2.61-19-8.71-28.14-5.1-7.14-11.93-11.28-20.28-12.28-11.23-1.34-24.62,3.39-34.95,12.33-.73.63-1.84.55-2.47-.18-.63-.73-.55-1.84.18-2.47,11.05-9.57,25.47-14.62,37.65-13.16,9.23,1.1,17.1,5.86,22.74,13.76,6.57,9.85,8.39,20.61,9.32,29.84v.12c.26,8.18-.35,16.59-1.79,25-.15.85-.89,1.45-1.72,1.45Z" fill="#2b2b2b"/><path d="M426.96,632.48s-.07,0-.1,0c-30.79-1.77-56.95-20.52-73.67-52.8-16.01-30.9-20.25-70.12-9.46-87.43,4.83-7.75,11.42-12.6,19.6-14.41,18.57-4.12,38.65,8.74,39.5,9.28.81.53,1.04,1.61.51,2.42s-1.61,1.04-2.42.52c-.2-.13-19.73-12.61-36.85-8.8-7.22,1.61-13.06,5.93-17.37,12.85-8.94,14.34-7.22,51.51,9.59,83.97,9.34,18.03,30.95,48.62,70.76,50.91.96.06,1.7.88,1.65,1.85-.05.93-.83,1.65-1.75,1.65Z" fill="#2b2b2b"/><path d="M681.64,589.14c-.29,0-.58-.07-.85-.22l-31.52-17.46c-.54-.3-.89-.87-.9-1.49-.02-.62.3-1.2.83-1.53,16.44-10.17,26.88-29.81,26.99-30,.45-.85,1.5-1.19,2.36-.74.86.45,1.19,1.51.74,2.36-.42.8-9.98,18.79-25.78,29.74l28.98,16.06c.85.47,1.15,1.53.68,2.38-.32.58-.92.9-1.53.9Z" fill="#2b2b2b"/><path d="M425.9,520.01c-1.21,0-2.35-.74-2.81-1.94-8.1-21.44-14.41-42.54-18.77-62.72-8.48-34.82-11.66-67.43-9.45-96.85.12-1.65,1.56-2.9,3.22-2.77,1.65.12,2.89,1.56,2.77,3.22-2.16,28.79.97,60.77,9.32,95.06,4.31,19.96,10.54,40.78,18.53,61.94.58,1.55-.2,3.28-1.75,3.87-.35.13-.71.19-1.06.19Z" fill="#2b2b2b"/><path d="M407.44,312.75c-.31,0-.63-.05-.95-.15-1.57-.52-2.42-2.22-1.9-3.79,2.79-8.38,6.18-16.51,10.08-24.17.75-1.48,2.56-2.07,4.03-1.32,1.48.75,2.07,2.56,1.32,4.03-3.76,7.4-7.04,15.26-9.73,23.35-.42,1.26-1.59,2.05-2.85,2.05Z" fill="#2b2b2b"/><path d="M438.14,257.56c-.68,0-1.37-.23-1.93-.71-1.27-1.07-1.43-2.96-.36-4.23,29.05-34.43,62.26-45.66,63.66-46.12,1.57-.52,3.27.34,3.79,1.91.52,1.57-.34,3.27-1.91,3.79h0c-.33.11-33.06,11.22-60.96,44.29-.59.7-1.44,1.07-2.29,1.07Z" fill="#2b2b2b"/><path d="M426.27,521.53c-1.62,0-2.96-1.29-3-2.93l-.04-1.54c-.56-36.16,22.39-87.58,68.24-152.85,33.98-48.37,68.58-86.78,68.93-87.16.72-.79,1.8-1.14,2.85-.92,1.05.22,1.9.98,2.23,2,.4,1.21,39.54,118.18,106.96,129.88-2.18-9.45-7-33.16-7.62-60.1-1.08-46.48,10.78-81.52,34.29-101.32.71-.6,1.67-.84,2.58-.64.91.2,1.68.81,2.07,1.66.32.69,32.7,69.18,87.74,116.56,36.52,31.47,74.63,46.68,113.24,45.21.5,0,.93-.03,1.38-.05,1.64-.09,3.06,1.19,3.15,2.84.08,1.65-1.19,3.06-2.84,3.15-.52.03-1.02.05-1.52.06-40.13,1.54-79.62-14.16-117.32-46.66-48.73-41.95-79.96-100.07-87.49-114.98-49.66,46.74-21.1,155.95-20.8,157.07.26.95.03,1.97-.62,2.73-.64.75-1.6,1.14-2.59,1.04-30.75-3.23-60.64-27.63-86.45-70.57-14.82-24.66-24.43-49.03-28.14-59.14-21.04,24.03-133.45,156.07-132.26,232.06l.04,1.51c.04,1.66-1.27,3.03-2.92,3.07-.03,0-.05,0-.08,0Z" fill="#2b2b2b"/><path d="M934.25,520.13c-.08,0-.16,0-.25-.01-1.4-.11-2.54-1.19-2.73-2.58-4.63-33.46-14.45-68.45-29.19-104-36.66-88.42-92.17-152.02-92.73-152.65-1.09-1.24-.97-3.14.27-4.23,1.25-1.09,3.14-.97,4.23.27.56.64,56.72,64.99,93.77,154.31,12.89,31.08,22.07,61.77,27.36,91.42,4.44-18.14,11.48-52.01,13.7-91.69,5.85-104.36-21.97-230.88-187.77-240.95-1.65-.1-2.91-1.52-2.81-3.18s1.54-2.9,3.18-2.81c77.52,4.71,132.74,35.08,164.11,90.27,23,40.46,32.85,93.29,29.28,157-2.85,50.98-13.57,92.5-16.78,104.01-.49,1.76-.78,2.69-.78,2.69-.39,1.26-1.56,2.11-2.86,2.11Z" fill="#2b2b2b"/><path d="M333.88,457.85c-1.5,0-2.8-1.13-2.98-2.65-2.3-19.85-3.76-39.31-4.33-57.84-3.61-115.23,25.9-203.77,87.71-263.16,48.19-46.31,107.36-65.61,148.5-73.65,41.62-8.13,73.79-6.68,78.09-6.44,4.19-1.02,35.47-8.23,77.62-7.79,41.7.44,102.98,8.65,158.13,45.27,70.25,46.64,114.22,127.17,130.68,239.36,3.11,21,5.26,43.46,6.39,66.73.08,1.65-1.2,3.06-2.85,3.14-1.62.09-3.06-1.19-3.14-2.85-1.13-23.08-3.26-45.33-6.34-66.15-16.2-110.41-59.27-189.54-128.01-235.2-53.88-35.79-113.88-43.84-154.72-44.3-44.37-.49-76.42,7.63-76.73,7.71-.31.08-.63.11-.96.09-.33-.02-33.4-2.23-77.21,6.35-40.31,7.9-98.25,26.81-145.34,72.08-60.5,58.17-89.38,145.17-85.83,258.61.57,18.37,2.01,37.66,4.29,57.34.19,1.65-.99,3.13-2.63,3.33-.12.01-.23.02-.35.02Z" fill="#2b2b2b"/><path d="M1276.24,516.59c-1.24,0-2.4-.78-2.83-2.01-9.33-26.76-21.59-45.35-38.6-58.52-.73-.57-1.16-1.44-1.16-2.37v-2c0-.68.23-1.34.66-1.87,3.69-4.61,9.16-5.7,13.99-6.66,1.46-.29,2.85-.56,4.12-.92.14-.04.28-.07.42-.09,9.67-1.28,20.31-1.2,33.1.25-.23-.36-.46-.72-.69-1.08-10.21-15.83-23.81-30.51-40.4-43.62-14.08-11.13-30.5-21.28-48.8-30.16-14.62-7.09-30.46-13.4-47.08-18.74-11.93-3.83-23.93-7.08-35.66-9.64-4.15-.9-9.05-1.93-14.02-2.69-1.17-.18-2.13-1.03-2.44-2.18-.31-1.15.08-2.37,1-3.11,5.52-4.48,9.7-11.56,12.42-21.03,5.07-17.64,4.2-36.97,2.87-51.84-.6-6.69-1.35-12.86-2.28-18.63-.57.06-1.15-.01-1.67-.21-1.96,2.44-4.06,4.71-6.13,6.94-2.4,2.58-4.88,5.25-7.01,8.09-.06.09-.13.17-.21.25-24.52,26.27-52.28,50.72-90.01,79.29-1.32,1-3.2.74-4.2-.58-1-1.32-.74-3.2.58-4.2,37.4-28.32,64.9-52.53,89.14-78.49,2.29-3.04,4.84-5.79,7.31-8.44,3.43-3.69,6.7-7.21,9.17-11.32.41-.91.94-1.92,1.64-3.03.15-.24.33-.46.54-.65h0s0,0,0,0c0,0,0,0,0,0,.18-.16.38-.3.59-.42,0,0,0,0,0,0,0,0,0,0,0,0h0c.42-.22.88-.34,1.37-.35h0s0,0,0,0h0c.12,0,.26,0,.39.02,0,0,0,0,0,0,.5.06.96.25,1.36.52h0s0,0,0,0c0,0,0,0,0,0,0,0,0,0,0,0,0,0,0,0,0,0,0,0,0,0,0,0,0,0,0,0,0,0,0,0,0,0,0,0h0s0,0,0,0h0s0,0,0,0c0,0,0,0,0,0,0,0,0,0,0,0,0,0,0,0,0,0,0,0,0,0,0,0h0s.03.03.05.04h0s0,0,0,0c0,0,0,0,0,0,0,0,0,0,0,0,0,0,0,0,0,0,0,0,0,0,0,0,0,0,0,0,0,0,0,0,0,0,0,0,0,0,0,0,0,0,0,0,0,0,0,0,0,0,0,0,0,0,0,0,0,0,0,0,0,0,0,0,0,0,0,0,0,0,0,0s0,0,0,0c0,0,0,0,0,0,0,0,0,0,0,0h0c.47.4.82.95.98,1.58h0s0,0,0,0h0s0,0,0,0c0,0,0,0,0,0,0,0,0,0,0,0,0,0,0,0,0,0,0,0,0,0,0,0h0s0,0,0,0c0,0,0,0,0,0,0,0,0,0,0,0,0,0,0,0,0,0,0,0,0,0,0,0h0s0,0,0,0c0,0,0,0,0,0,0,0,0,0,0,0,0,0,0,0,0,0,0,0,0,0,0,0h0s0,0,0,0c0,0,0,0,0,0,0,0,0,0,0,0,0,0,0,0,0,0,1.84,8.67,3.2,18.11,4.16,28.86,1.38,15.39,2.27,35.43-3.08,54.03-2.33,8.1-5.69,14.72-10.01,19.74,3.04.57,5.95,1.19,8.56,1.76,11.92,2.6,24.1,5.89,36.22,9.79,16.89,5.43,32.99,11.84,47.86,19.06,18.69,9.07,35.48,19.45,49.9,30.85,17.11,13.52,31.14,28.69,41.72,45.08,1.4,2.17,2.75,4.38,4.03,6.58.57.99.53,2.23-.11,3.18-.64.95-1.77,1.45-2.9,1.29-14.96-2.09-26.88-2.43-37.48-1.06-1.43.39-2.92.69-4.36.97-3.63.72-7.09,1.41-9.46,3.47,17.18,13.82,29.63,32.98,39.08,60.09.54,1.56-.28,3.27-1.85,3.82-.33.11-.66.17-.99.17Z" fill="#2b2b2b"/><path d="M161.58,768.68h-.05c-.97-.02-1.87-.5-2.42-1.31-25.84-37.78-30.3-89.02-29.49-125.36.66-29.75,4.87-54.68,6.89-65.09-32.05,11.82-66.18,39.46-66.54,39.75-.91.74-2.17.88-3.22.37-1.05-.52-1.71-1.6-1.67-2.78,1-34.05,8.25-65.93,21.56-94.74,10.66-23.06,25.19-44.21,43.2-62.87,22.25-23.04,43.99-36.38,54.74-42.18-34.59-14.4-49.64-80.16-50.31-83.14-.29-1.28.3-2.6,1.44-3.26,1.14-.65,2.58-.48,3.54.41,38.96,36.37,188.71,65.56,190.22,65.85,1.63.31,2.69,1.89,2.38,3.51-.31,1.63-1.88,2.69-3.51,2.38-5.9-1.14-137.72-26.84-185.88-61.43,5.74,19.87,22.25,66.96,50.76,72.01,1.3.23,2.3,1.28,2.46,2.59.16,1.31-.56,2.57-1.76,3.1-.3.13-30.06,13.5-59.92,44.5-26.69,27.71-58.79,75.46-62.64,146.98,11.64-8.86,40.87-29.77,68.27-38.47,1.03-.33,2.15-.08,2.94.65.79.73,1.13,1.83.89,2.88-.07.3-6.97,30.61-7.82,69.22-.75,34.27,3.25,82.06,26.08,118.13,11.66-16.33,60.19-86.2,74.03-136.79.4-1.46,1.85-2.4,3.33-2.17,1.5.22,2.6,1.54,2.56,3.05-.03.87-1.85,86.23,49.07,134.89,9.85-18.32,55.69-106.35,44.93-137.65-.54-1.57.29-3.27,1.86-3.81,1.57-.54,3.27.29,3.81,1.86,12.85,37.35-44.73,141.46-47.19,145.88-.44.8-1.23,1.35-2.12,1.5-.9.15-1.82-.12-2.5-.72-29.26-26.2-42.34-63.47-48.17-90.12-2.97-13.58-4.41-25.72-5.1-34.85-20.87,56.04-69.94,122.91-72.22,126-.57.77-1.46,1.22-2.41,1.22Z" fill="#2b2b2b"/><g id="mouth_laugh-2"><path d="M667.2,759.12c-32.41,0-62.69-5.98-88.48-18.04-36.26-16.95-61.23-44.72-72.21-80.31-2.4-7.74-4.15-15.94-5.2-24.37-.19-1.56.3-3.08,1.47-4.52,12.36-15.27,112.78-25.9,198.89-33.45l6.67-.59c45.99-4.07,92.89-4.33,124.14-3.84.97.02,1.74.81,1.72,1.78-.02.96-.8,1.72-1.75,1.72h-.03c-31.17-.5-77.94-.23-123.77,3.82l-6.67.59c-50.18,4.4-183.46,16.09-196.47,32.17-.83,1.02-.75,1.67-.72,1.89,1.02,8.22,2.73,16.22,5.07,23.76,10.68,34.62,35.01,61.65,70.35,78.17,55.89,26.13,133.45,23.22,207.48-7.79,18.32-7.67,33.92-17.61,46.39-29.55.7-.67,1.8-.65,2.47.05.67.7.64,1.81-.05,2.47-12.78,12.24-28.75,22.42-47.46,30.25-40.89,17.13-82.89,25.77-121.83,25.77Z" fill="#383233"/><path d="M508.63,661.87c-.83,0-1.57-.6-1.72-1.45-.17-.95.47-1.86,1.42-2.03,74.82-13.2,146.92-19.64,223.26-26.45,32.59-2.91,66.28-5.92,99.73-4.39.97.04,1.71.86,1.67,1.83-.04.96-.85,1.69-1.83,1.67-33.22-1.52-66.79,1.48-99.26,4.38-76.26,6.81-148.29,13.24-222.96,26.41-.1.02-.21.03-.31.03Z" fill="#383233"/></g><path d="M484.91,364.36s-.07,0-.1,0c-.47-.03-.92-.24-1.22-.6l-78.71-91.14c-.63-.73-.55-1.83.18-2.47l25.31-21.91c.72-.62,1.8-.56,2.44.15l5.59,6.15h0l74.69,82.15c.65.71.6,1.81-.11,2.46l-26.89,24.75c-.32.3-.75.46-1.19.46ZM408.67,271.65l76.38,88.45,24.28-22.35-77.96-85.75-22.7,19.65Z" fill="#2b2b2b"/><path d="M447.94,420.62c-.52,0-1.01-.23-1.35-.63l-82.05-98.99c-.58-.7-.53-1.72.12-2.36l25.92-25.57c.34-.34.82-.52,1.3-.5.48.02.94.24,1.25.61l79.75,92.86c.53.62.57,1.53.08,2.19l-23.62,31.71c-.32.43-.82.69-1.36.7-.02,0-.03,0-.05,0ZM368.26,320l79.61,96.04,21.45-28.8-77.61-90.37-23.44,23.13Z" fill="#2b2b2b"/><g id="eye_open-3"><path d="M788.62,540.29c-3.73-.38-8.22-2.71-9.03-6.01-5.79-23.65-24.85-119.45,21.23-123.18,45.58-3.69,46.93,91.44,46.48,116.88-.07,3.71-2.91,6.92-6.91,7.8-10.84,2.4-32.87,6.43-51.77,4.51Z"/><path d="M517.66,562.51c-3.9-.33-7.06-2.59-7.88-5.69-5.93-22.41-27.1-114.03,22.19-118.02,48.76-3.95,49.28,87.34,48.57,111.52-.1,3.49-3.12,6.52-7.32,7.39-11.57,2.4-35.3,6.49-55.56,4.8Z"/></g><g id="eyebrow_basic-3"><path d="M832.7,385.85c-.54,0-1.07-.25-1.41-.72-13.95-19.11-28.31-25.3-42.66-18.39-9.79,4.71-15.97,14.03-16.03,14.13-.53.81-1.61,1.03-2.42.51-.81-.53-1.04-1.61-.51-2.42.27-.42,6.75-10.22,17.44-15.37,11.07-5.32,28.21-6.26,47.01,19.48.57.78.4,1.88-.38,2.45-.31.23-.67.34-1.03.34Z" fill="#2b2b2b"/><path d="M487.3,412.07c-.35,0-.71-.11-1.02-.33-.78-.57-.96-1.66-.4-2.44,26.56-36.86,61.6-15.76,61.95-15.54.82.51,1.08,1.59.57,2.41-.51.82-1.59,1.08-2.41.57-1.35-.83-32.66-19.54-57.27,14.61-.34.47-.88.73-1.42.73Z" fill="#2b2b2b"/></g><path d="M1850.29,1819.2H488.31c-8.81,0-16.48-5.66-19.08-14.09-1.2-3.79-1.2-7.87,0-11.77l49.86-161.75c2.61-8.43,10.28-14.09,19.1-14.09h215.36c1.66,0,3,1.34,3,3s-1.34,3-3,3h-215.36c-6.17,0-11.54,3.96-13.36,9.86l-49.86,161.74c-.84,2.73-.84,5.58,0,8.22,1.82,5.92,7.19,9.88,13.35,9.88h1361.98c6.22,0,11.75-4.18,13.45-10.18.71-2.45.71-5.08,0-7.61l-45.83-161.75c-1.7-5.98-7.23-10.15-13.45-10.15h-77.56c-1.66,0-3-1.34-3-3s1.34-3,3-3h77.56c8.89,0,16.8,5.97,19.23,14.52l45.84,161.77c1.01,3.62,1.01,7.38,0,10.89-2.43,8.55-10.34,14.52-19.22,14.52Z" fill="#2b2b2b"/><path d="M1845.79,1866.32h-.08l-97.37-.31-1149.74-3.58-105.76-.33c-13.1-.04-23.75-10.73-23.75-23.83v-36.77c0-1.66,1.34-3,3-3s3,1.34,3,3v36.77c0,9.8,7.97,17.8,17.77,17.83l105.76.33,1149.74,3.58,97.37.31h.06c4.76,0,9.23-1.85,12.6-5.21,3.38-3.37,5.24-7.85,5.24-12.63v-40.61c0-1.66,1.34-3,3-3s3,1.34,3,3v40.61c0,6.38-2.49,12.37-7.01,16.88-4.5,4.49-10.48,6.96-16.83,6.96Z" fill="#2b2b2b"/><path d="M519.05,3099.29s-.04,0-.07,0c-1.66-.04-2.97-1.41-2.93-3.06l25.6-1196.78c.29-13.48,8.17-25.12,20.58-30.38,12.43-5.27,26.32-2.84,36.23,6.36l.92.87c.61.57.95,1.38.95,2.22l-1.33,124.24-8.77,817.39-1.02,94.35-1.93,179.72c-.02,1.65-1.36,2.97-3,2.97h-.03c-1.66-.02-2.99-1.38-2.97-3.03l2.31-215.37.64-58.7,8.77-817.39,1.31-122.93c-8.14-7.51-19.54-9.5-29.74-5.17-10.2,4.33-16.69,13.9-16.92,24.99l-25.6,1196.78c-.04,1.63-1.37,2.94-3,2.94Z" fill="#2b2b2b"/><path d="M1817.21,3101.78c-1.65,0-2.99-1.34-3-2.99l-4.28-1201.02c-.05-14.66-11.33-26.79-25.69-27.62-15.11-.88-25.93,5.68-29.27,8.01v1026.03c0,1.66-1.34,3-3,3s-3-1.34-3-3v-1027.53c0-.89.39-1.73,1.07-2.3.55-.47,13.86-11.4,34.54-10.19,17.51,1.01,31.28,15.77,31.34,33.59l4.28,1201.01c0,1.66-1.33,3-2.99,3.01h-.01Z" fill="#2b2b2b"/><path d="M1704.14,2062.08h-.02l-1058.98-6.53c-.07,0-.15,0-.22,0-18.41-1.47-32.2-8.16-40.99-19.88-8.87-11.82-10.19-25.71-10.19-32.93,0-2.47.16-4.17.22-4.72l1.65-137.25c.02-1.64,1.36-2.96,3-2.96h.04c1.66.02,2.98,1.38,2.96,3.04l-1.66,137.4c0,.11,0,.23-.02.34,0,.01-.19,1.59-.19,4.15,0,6.48,1.17,18.9,8.99,29.33,7.7,10.26,20,16.15,36.56,17.49l1058.73,6.53c1.61-.15,22.73-2.36,34.57-17.99,5.44-7.17,8.2-16.2,8.2-26.85l-1.44-148.81c0-1.66,1.34-3,3-3s3,1.34,3,3v.58l1.44,148.2c0,12.01-3.17,22.26-9.42,30.5-13.92,18.38-38.01,20.29-39.02,20.36-.07,0-.14,0-.21,0Z" fill="#2b2b2b"/><path d="M1312.82,1998.45h-287.03c-.97,0-1.75-.78-1.75-1.75v-82.63c0-.97.78-1.75,1.75-1.75h287.03c.97,0,1.75.78,1.75,1.75v82.63c0,.97-.78,1.75-1.75,1.75ZM1027.54,1994.95h283.53v-79.13h-283.53v79.13Z" fill="#2b2b2b"/><path d="M587.72,1053.06c-.83,0-1.65-.34-2.24-1-1.1-1.24-.99-3.13.25-4.24l142-126.44c1.24-1.1,3.13-.99,4.24.25,1.1,1.24.99,3.13-.25,4.24l-142,126.44c-.57.51-1.28.76-1.99.76Z" fill="#2b2b2b"/><path d="M1463.7,1132.56c-1.17,0-2.29-.69-2.77-1.84-.64-1.53.08-3.29,1.61-3.92l28.13-11.77c1.53-.64,3.29.08,3.92,1.61s-.08,3.29-1.61,3.92l-28.13,11.77c-.38.16-.77.23-1.16.23Z" fill="#2b2b2b"/><path d="M1353.87,1166.66c-1.21,0-2.35-.74-2.81-1.94-.58-1.55.2-3.28,1.75-3.87,15.36-5.8,54.34-17.23,73.07-22.72,5.54-1.62,10.32-3.03,10.91-3.24,1.55-.55,3.27.23,3.85,1.77.57,1.54-.18,3.25-1.71,3.84-.6.23-3.39,1.05-11.36,3.39-18.66,5.47-57.49,16.85-72.64,22.57-.35.13-.71.19-1.06.19Z" fill="#2b2b2b"/><path d="M1468.47,1183.56c-1.21,0-2.34-.73-2.8-1.92-.59-1.55.18-3.28,1.72-3.88l78.62-30.26c1.55-.6,3.28.18,3.88,1.72.59,1.55-.18,3.28-1.72,3.88l-78.62,30.26c-.35.14-.72.2-1.08.2Z" fill="#2b2b2b"/><path d="M1356.17,1220.75c-1.34,0-2.56-.9-2.9-2.25-.41-1.6.55-3.24,2.16-3.65,12.66-3.25,22.37-6.73,33.6-10.75,13.67-4.89,29.16-10.44,54.05-17,1.61-.42,3.24.54,3.67,2.14.42,1.6-.54,3.24-2.14,3.67-24.64,6.49-40,11.99-53.56,16.84-11.38,4.07-21.2,7.59-34.13,10.91-.25.06-.5.1-.75.1Z" fill="#2b2b2b"/><path d="M1635.02,1677.24c-1.13,0-2.21-.64-2.72-1.74-.7-1.5-.05-3.29,1.46-3.99l54.1-25.16c24.91-11.58,44.92-31.38,61.19-60.53,6.77-12.09,13.04-25.92,19.73-43.51,119.58-314.53-2.91-597.9-61.13-705.13-8.11-14.95-16.47-29.28-24.84-42.61-2.55-4.06-5.03-7.92-7.38-11.48-20.09-29.48-42.46-47.26-77.15-61.33-1.54-.62-2.27-2.37-1.65-3.91.62-1.54,2.37-2.27,3.91-1.65,35.89,14.56,59.03,32.97,79.88,63.55,2.39,3.63,4.9,7.53,7.47,11.62,8.44,13.44,16.86,27.88,25.04,42.94,34.83,64.16,80.74,167.72,101.62,296.7,23.19,143.24,9.68,282.33-40.16,413.42-6.8,17.88-13.19,31.95-20.1,44.31-16.9,30.28-37.8,50.91-63.9,63.04l-54.1,25.16c-.41.19-.84.28-1.26.28Z" fill="#2b2b2b"/><path d="M1629.84,1535.33c-.81,0-1.62-.33-2.22-.98-1.12-1.22-1.03-3.12.19-4.24,38.54-35.19,61.89-121.32,64.06-236.31,1.62-85.95-8.65-178-28.93-259.18-21.99-88.03-53.2-153.85-90.26-190.34-1.18-1.16-1.2-3.06-.03-4.24,1.16-1.18,3.06-1.2,4.24-.03,37.84,37.26,69.61,104.06,91.87,193.16,20.4,81.68,30.74,174.28,29.11,260.75-1.04,54.94-7.09,105.27-17.52,145.54-11.43,44.15-27.74,76.14-48.5,95.09-.58.53-1.3.78-2.02.78Z" fill="#2b2b2b"/><path d="M1709.15,839.39c-.89,0-1.77-.39-2.36-1.14-24.71-31.34-46.7-52.01-67.23-63.2-21.82-11.89-41.37-12.68-59.79-2.42-1.45.81-3.27.29-4.08-1.16-.81-1.45-.29-3.27,1.16-4.08,20.07-11.19,42.14-10.39,65.58,2.39,21.26,11.59,43.85,32.77,69.07,64.75,1.03,1.3.8,3.19-.5,4.21-.55.43-1.21.64-1.86.64Z" fill="#2b2b2b"/><path d="M1175.42,1101.34c-14.46,0-29.01-.5-43.61-1.49-14.55-.98-32.19-1.85-50.86-2.77-41.19-2.03-87.88-4.33-132.85-9.08-13.1-1.38-25.56-2.92-37.03-4.6-53.87-7.87-92.4-18.72-114.51-32.24-16.85-10.3-18.04-18.78-18.12-20.07-.15-2.07-.28-4.13-.38-6.16-.09-1.65,1.18-3.07,2.84-3.16,1.68-.07,3.07,1.18,3.16,2.84.11,2,.23,4.03.38,6.07h0c.11.7,5.62,28.96,127.51,46.78,11.39,1.67,23.76,3.2,36.79,4.57,44.81,4.72,91.41,7.02,132.52,9.05,18.7.92,36.37,1.79,50.97,2.78,48.88,3.32,97.18,1.02,143.58-6.83,30.9-5.23,55.19-11.93,72.18-19.91,1.5-.7,3.29-.06,3.99,1.44.7,1.5.06,3.29-1.44,3.99-17.48,8.21-42.29,15.07-73.73,20.39-33,5.59-66.95,8.39-101.38,8.39Z" fill="#2b2b2b"/><path d="M1451.52,1199.91c-2.63,0-5.24-.85-7.79-2.53-.74-.49-1.23-1.29-1.33-2.17l-6.25-55.89c-.08-.7.09-1.4.48-1.98.36-.55.73-1.08,1.08-1.58,0,0,0-.01.01-.02,9.71-13.54,20-10.69,23.97-8.83.19.08.44.2.68.33.71-.22,1.49-.18,2.18.15.96.45,1.6,1.37,1.71,2.42l4.85,49.63c.02.16.02.33,0,.5-.14,2.09-.44,2.73-.57,3.01-1.48,3.22-5.63,11.15-11.95,14.9-1.27.77-2.62,1.34-3.97,1.68-1.04.26-2.08.39-3.11.39ZM1448.2,1193.05c1.7.85,3.33,1.06,4.96.65.79-.2,1.56-.53,2.36-1.01,4.87-2.89,8.4-9.74,9.49-12.08.03-.19.07-.53.1-.85l-4.58-46.79c-.29-.1-.58-.23-.89-.38-.17-.09-.3-.16-.43-.21-4.04-1.89-10.13-2.2-16.62,6.85-.12.17-.24.35-.37.53l5.96,53.3ZM1464.99,1180.72h0ZM1465.11,1180.42s0,.01,0,.02c0,0,0-.01,0-.02ZM1461.6,1127.61h0s0,0,0,0ZM1461.61,1127.6s0,0,0,0c0,0,0,0,0,0ZM1462.53,1127.31h0Z" fill="#2b2b2b"/><path d="M1495.29,1316.67c-.15,0-.31-.01-.46-.04l-46.6-7.23c-1.52-.24-2.61-1.58-2.54-3.11l5.24-110.42c.05-1.35,1-2.49,2.32-2.8l3.15-.73s0,0,0,0l21.59-5.01c.83-.19,1.7-.02,2.4.47.7.49,1.15,1.25,1.25,2.1l7.92,66.37,18.96,27.15c.57.81.7,1.85.35,2.78l-10.77,28.54c-.45,1.18-1.57,1.94-2.8,1.94ZM1451.81,1303.89l41.53,6.44,9.36-24.78-18.49-26.47c-.28-.4-.46-.87-.52-1.36l-7.62-63.79-19.26,4.47-5.01,105.48Z" fill="#2b2b2b"/><path d="M1784,1598.61c-9.96,0-20.77-2.63-32.35-7.89-1.51-.69-2.18-2.46-1.49-3.97.68-1.51,2.46-2.17,3.97-1.49,17.28,7.85,32.53,9.42,45.32,4.67,1.08-.53,2.35-1.04,3.58-1.53,1.15-.46,2.34-.94,3.23-1.38,10.71-5.86,19.11-14.58,23.66-24.58,8.59-20.05,13.39-40.53,18.76-65.19.13-1.21.82-2.24,1.48-3.23.17-.26.42-.63.54-.85,0-.03,0-.05.01-.08.81-4.07,1.63-8.1,2.44-12.1,6.1-30.2,11.86-58.73,14.51-89.45.03-1.88.58-3.81,1.11-5.68.43-1.52.88-3.1.88-4.18,0-.09,0-.18.01-.27.5-5.5,1-11.24,1.5-16.99.5-5.75,1-11.51,1.5-17.01,11.53-147.78-9.93-286.59-63.77-412.55-.03-.08-.06-.15-.09-.23-2.08-6.25-4.06-11.06-6.84-16.61-.02-.05-.05-.1-.07-.15-9.78-22.5-19.9-45.77-34.76-68.56-1.38-2.06-1.69-4.56-1.96-6.77-.2-1.62-.41-3.3-1.02-4.21-.02-.03-.04-.06-.06-.09-29.25-47.41-56.77-89.63-97.46-126.35-.1-.09-.18-.18-.27-.28-5.55-6.47-13.03-12.25-21.06-16.27-22.58-10.75-62.07-22.25-85.66-26.71-1.63-.31-2.7-1.88-2.39-3.5.31-1.63,1.87-2.71,3.5-2.39,24.5,4.63,63.8,16.08,87.18,27.21,8.72,4.36,16.82,10.6,22.86,17.61,41.18,37.2,68.92,79.75,98.38,127.48,1.37,2.08,1.67,4.56,1.95,6.74.2,1.62.41,3.3,1.02,4.21,15.14,23.21,25.35,46.69,35.22,69.4,2.87,5.75,4.93,10.75,7.09,17.2,27.38,64.08,46.66,132.68,57.29,203.87,10.2,68.29,12.52,139.43,6.9,211.43-.5,5.53-1,11.28-1.5,17.03-.5,5.71-.99,11.42-1.49,16.89-.03,1.87-.58,3.81-1.11,5.68-.44,1.52-.88,3.1-.88,4.18,0,.09,0,.17-.01.26-2.67,31.1-8.47,59.83-14.61,90.24-.79,3.93-1.6,7.9-2.4,11.9-.13,1.23-.82,2.26-1.48,3.26-.17.26-.42.63-.54.85,0,.04-.02.08-.02.13-5.45,25.07-10.32,45.89-19.17,66.54-5.11,11.25-14.45,20.98-26.32,27.45-.03.02-.06.03-.09.05-1.11.56-2.44,1.09-3.73,1.6-1.17.47-2.38.95-3.27,1.4-.09.05-.19.09-.29.12-5.54,2.08-11.45,3.12-17.69,3.12ZM1850.64,1493.68h0s0,0,0,0ZM1870.64,1391.69h0,0Z" fill="#2b2b2b"/><path d="M1582.02,938.04c-1.55,0-2.87-1.19-2.99-2.77l-7.22-92.76c-.48-2.88-6.15-38.4.06-73.64,4.08-23.23,12.44-40.96,24.87-52.71,15.95-15.11,38.4-20.13,66.71-14.9,1.63.3,2.71,1.87,2.41,3.5s-1.86,2.7-3.5,2.41c-26.33-4.86-47.02-.37-61.5,13.35-11.47,10.84-19.24,27.46-23.08,49.39-6.16,34.93-.1,71.36-.04,71.73.02.09.03.18.03.27l7.23,92.9c.13,1.65-1.11,3.09-2.76,3.22-.08,0-.16,0-.24,0Z" fill="#2b2b2b"/><path d="M1583.12,1708.01c-1.66,0-3-1.34-3-3,0-1.66,1.34-3,3-3,25.1,0,41.3-9.79,48.17-29.07,4.37-12.25,3.12-23.95,3.11-24.07,0-.04,0-.08-.01-.11l-8.87-116.09-30.02-385.84c-.13-1.65,1.11-3.09,2.76-3.22,1.66-.11,3.09,1.11,3.22,2.76l30.02,385.84,8.87,116.05c.12,1.12,1.31,13.44-3.42,26.7-5.37,15.07-19.06,33.04-53.82,33.06Z" fill="#2b2b2b"/><path d="M1556.31,695.55c-.42,0-.84-.15-1.17-.45-.72-.65-.77-1.76-.12-2.47,11.63-12.82,30.34-19.47,38.85-19.15,1.6.05,3.29.2,5.02.43.96.13,1.63,1.01,1.5,1.96-.13.96-1.01,1.64-1.96,1.5-1.61-.21-3.19-.35-4.68-.4-6.93-.25-24.84,5.55-36.14,18-.34.38-.82.57-1.3.57Z" fill="#2b2b2b"/><path d="M1366.66,1792.15c-1.62,0-2.96-1.3-3-2.93l-15.13-625.44-2.27-93.86c0-.22.01-.44.06-.65.1-.53,10.66-53.35,34.96-107.78,14.32-32.07,30.54-58.45,48.23-78.41,22.32-25.19,47.07-40.21,73.54-44.63,3.53-.59,7.19-1,10.88-1.23,4.37-.24,8.8-.22,13.18.07,9.54.63,17.23,8.38,17.89,18.02l5.82,85.53c.11,1.65-1.14,3.08-2.79,3.2-1.65.11-3.08-1.14-3.2-2.79l-5.82-85.53c-.45-6.66-5.74-12-12.3-12.44-4.13-.27-8.32-.29-12.44-.06-3.46.21-6.92.6-10.24,1.16-57.05,9.53-95.25,70.22-117.24,119.47-23.07,51.63-33.62,101.83-34.53,106.28l3.58,147.64,13.82,571.32c.04,1.66-1.27,3.03-2.93,3.07-.02,0-.05,0-.07,0Z" fill="#2b2b2b"/><path d="M1551.18,993.48c-1.56,0-2.88-1.21-2.99-2.8l-.9-13.17c-.11-1.65,1.14-3.08,2.79-3.2,1.63-.11,3.08,1.14,3.2,2.79l.9,13.17c.11,1.65-1.14,3.08-2.79,3.2-.07,0-.14,0-.21,0Z" fill="#2b2b2b"/><path d="M1331.64,1805.59c-18.09,0-40.31-1.57-64.73-6.69l-75.45-12.69-320.54-52.62c-.06,0-.12-.02-.18-.03l-62.69-14.24c-4.21-.71-8.28-1.68-12.11-2.87-.11-.03-.22-.06-.32-.09-.03,0-.15-.05-.18-.06-23-7.22-38.93-28.5-39.64-52.95l-7.78-283.78c-1.31-24.72,16.16-49.74,16.91-50.8.96-1.35,2.83-1.68,4.18-.72,1.35.96,1.68,2.83.72,4.18-.17.24-17.01,24.4-15.81,47.09l7.78,283.85c.64,21.89,14.88,40.94,35.44,47.39l.28.08s.12.03.16.04c3.61,1.13,7.47,2.04,11.47,2.72.06,0,.11.02.17.03l62.68,14.24,320.46,52.61,75.52,12.7s.08.01.12.02c36.06,7.57,67.24,7.25,87.05,5.65,11.77-.96,19.29-2.36,20.86-2.67l185.07-83.03s.1-.04.15-.06c6.33-2.43,11.81-5.96,16.28-10.48,20.14-20.34,15.4-55.44,15.34-55.79-.01-.07-.02-.15-.02-.22l-33.78-496.34c-.11-1.65,1.14-3.08,2.79-3.2,1.65-.12,3.08,1.14,3.2,2.79l33.77,496.23c.38,2.76,4.83,38.67-17.04,60.75-5.06,5.11-11.22,9.09-18.32,11.83l-185.3,83.13c-.19.09-.4.15-.61.2-.33.07-8.28,1.73-21.92,2.84-6.77.55-14.85.95-23.97.95Z" fill="#2b2b2b"/><path d="M1323.56,1798.06c-.95,0-1.73-.76-1.75-1.71l-8.16-360.61c-.58-25.83-20.39-47.38-46.08-50.14l-429-46.03c-29.52-3.17-79.51,12.34-85.44,39.45-.21.95-1.14,1.54-2.08,1.34-.94-.21-1.54-1.14-1.34-2.08,2.92-13.34,15.64-25.22,35.82-33.46,17.29-7.06,37.76-10.4,53.42-8.72l429,46.03c27.43,2.95,48.58,25.97,49.21,53.54l8.16,360.61c.02.97-.74,1.77-1.71,1.79h-.04Z" fill="#2b2b2b"/><path d="M1355.02,1800.38c-.94,0-1.72-.75-1.75-1.7l-12.27-402c-2.48-19.01-12.69-32.91-30.36-41.29-13.34-6.33-26.16-6.99-26.29-6.99-.03,0-.07,0-.1,0l-411.32-43.19c-54.7-6.1-85.51,1.57-103.03,25.63-.57.78-1.66.95-2.44.39-.78-.57-.95-1.66-.39-2.45,18.35-25.22,50.12-33.3,106.23-27.05l411.26,43.18c1.07.05,13.81.82,27.47,7.27,13,6.14,29.18,18.79,32.45,44.14,0,.06.01.11.01.17l12.28,402.09c.03.97-.73,1.77-1.7,1.8-.02,0-.04,0-.05,0Z" fill="#2b2b2b"/><path d="M1222.07,1211.39c-71,0-149.72-5.52-235.18-16.52-99.7-12.83-181.82-29.8-216.89-37.05l-6.18-1.28c-2.05-.42-3.82-1.58-5-3.25-.56-.79-.37-1.88.42-2.44.79-.56,1.88-.37,2.44.42.47.67,1.34,1.53,2.84,1.84l6.18,1.28c215.75,44.58,398.36,61.44,542.74,50.1,11.8-.93,23.55-16.07,29.47-29.75.38-.89,1.41-1.29,2.3-.91.89.38,1.29,1.42.91,2.3-4.88,11.26-17.19,30.65-32.4,31.84-28.9,2.27-59.49,3.4-91.65,3.4Z" fill="#2b2b2b"/><path d="M759.08,1152.06c-1.55,0-2.86-1.19-2.99-2.76-.26-3.25,1.16-6.36,3.8-8.31.11-.08.22-.15.34-.22l24.59-13.39c1.45-.79,3.28-.25,4.07,1.2.79,1.46.25,3.28-1.2,4.07l-24.39,13.28c-1.25,1.01-1.29,2.34-1.24,2.88.13,1.65-1.1,3.1-2.75,3.23-.08,0-.17,0-.25,0Z" fill="#2b2b2b"/><path d="M1227.67,1178.57c-102.21,0-197.3-8.94-266.69-17.86-103.32-13.27-173.48-29.34-174.17-29.5-.94-.22-1.53-1.16-1.31-2.1.22-.94,1.16-1.52,2.1-1.31.7.16,70.72,16.2,173.88,29.45,95.19,12.22,238.85,24.5,382.71,13.6l1.5-.12c.95-.07,1.8.64,1.88,1.61.08.96-.65,1.81-1.61,1.88l-1.5.12c-39.26,2.98-78.53,4.23-116.78,4.23Z" fill="#2b2b2b"/><path d="M1342.75,1398.29c-.89,0-1.65-.67-1.74-1.57l-19.19-188.77c-.1-.96.6-1.82,1.56-1.92.97-.1,1.82.6,1.92,1.56l19.19,188.77c.1.96-.6,1.82-1.56,1.92-.06,0-.12,0-.18,0Z" fill="#2b2b2b"/><path d="M767.43,1332.01c-1.61,0-2.94-1.27-3-2.89-2.26-61.96-8.25-175.11-8.5-179.89l-.04-.63c-.1-1.65,1.15-3.08,2.81-3.18,1.63-.1,3.08,1.15,3.18,2.81l.04.67c.25,4.8,6.24,118,8.5,180.01.06,1.66-1.23,3.05-2.89,3.11-.04,0-.07,0-.11,0Z" fill="#2b2b2b"/><path d="M787.19,1132.51c-1.44,0-2.71-1.04-2.95-2.5-8.01-47.35-5.82-98.72-5.79-99.24.08-1.66,1.46-2.94,3.13-2.86,1.66.07,2.94,1.48,2.86,3.13-.02.51-2.19,51.27,5.71,97.97.28,1.63-.82,3.18-2.46,3.46-.17.03-.34.04-.5.04Z" fill="#2b2b2b"/><path d="M1209.88,1732.47l-365.66-60.43.78-238.23,368,39.51-.02,1.59-3.09,257.56ZM847.73,1669.08l358.7,59.28,3.03-251.89-360.97-38.76-.76,231.37Z" fill="#2b2b2b"/><g clip-path="url(#clippath)"><path d="M1497.31,638.66l-5.99-.35,6.25-107.37c.02-.52-.45-1.02-1.06-1.06l-542.01-31.56c-.4-.03-.68.17-.81.28-.13.12-.35.37-.37.77l-3.62,62.26-5.99-.35,3.62-62.25c.11-1.9.95-3.64,2.38-4.9,1.42-1.26,3.25-1.89,5.15-1.79l542,31.56c3.9.23,6.84,3.46,6.7,7.36v.1s-6.25,107.3-6.25,107.3Z" fill="#2b2b2b"/><path d="M1477.57,1255.04c-.16,0-.31,0-.47-.01l-20.06-1.17.35-5.99,20.06,1.17c.46.04.9-.11,1.22-.38.19-.16.42-.42.44-.82l5.99.35c-.12,1.98-1.04,3.79-2.6,5.08-1.38,1.15-3.12,1.77-4.94,1.77Z" fill="#2b2b2b"/><rect x="1444.27" y="769.07" width="131.11" height="6" transform="translate(651.1 2234.34) rotate(-86.66)" fill="#2b2b2b"/><path d="M1520.23,644.96l-5.99-.35,6.29-108.01c.04-.7-.65-1.33-1.52-1.38l-18.34-1.07.35-5.99,18.34,1.07c4.18.24,7.39,3.71,7.16,7.72l-6.29,108.01Z" fill="#2b2b2b"/><polygon points="1459.22 1244.76 1457.84 1241.54 1473.18 1234.92 1474.57 1238.13 1459.22 1244.76" fill="#2b2b2b"/><polygon points="1510.13 644.02 1506.63 643.81 1512.63 540.86 1499.47 540.09 1499.67 536.59 1516.32 537.56 1510.13 644.02" fill="#2b2b2b"/><rect x="1466.21" y="1238.38" width="1.09" height="3.5" transform="translate(143.6 2632.45) rotate(-86.67)" fill="#2b2b2b"/><rect x="1452.65" y="589.15" width="103.82" height="3.5" transform="translate(827.34 2058.64) rotate(-86.67)" fill="#2b2b2b"/><path d="M1513.76,842.9l-5.95-.79,30.85-232.74c.06-.53-.37-1.07-.97-1.15l-17-2.25.79-5.95,17,2.25c3.87.51,6.57,3.96,6.14,7.84v.1s-30.85,232.69-30.85,232.69Z" fill="#2b2b2b"/><path d="M1537.24,842.72l-5.95-.79,29.85-225.24c.05-.39-.12-.7-.28-.89-.27-.33-.67-.54-1.13-.6l-18.21-2.41.79-5.95,18.21,2.41c1.97.26,3.74,1.23,4.98,2.74,1.29,1.57,1.85,3.51,1.59,5.48l-29.85,225.24Z" fill="#2b2b2b"/><polygon points="1527.12 841.89 1523.65 841.43 1552.95 620.35 1539.89 618.62 1540.35 615.15 1556.88 617.34 1556.65 619.07 1527.12 841.89" fill="#2b2b2b"/><rect x="1420.81" y="727.95" width="224.92" height="3.5" transform="translate(608.76 2154) rotate(-82.46)" fill="#2b2b2b"/><path d="M1473.43,852.46l-5.95-.79,27.71-209.04c.06-.53-.37-1.07-.98-1.15l-131.66-17.45.79-5.95,131.66,17.45c3.87.51,6.57,3.95,6.14,7.83l-.96,7.24-26.75,201.85Z" fill="#2b2b2b"/><path d="M1422.57,1363.3c-.34,0-.69-.02-1.04-.07l-19.92-2.64.79-5.95,19.92,2.64c.85.11,1.66-.38,1.75-1.07l93.61-706.27c.09-.69-.55-1.37-1.41-1.49l-18.21-2.41.79-5.95,18.21,2.41c4.15.55,7.1,4.24,6.57,8.22l-93.61,706.27c-.48,3.65-3.71,6.3-7.44,6.3Z" fill="#2b2b2b"/><polygon points="1404.45 1351.67 1403.31 1348.37 1418.08 1343.24 1509.48 653.6 1496.41 651.87 1496.87 648.4 1513.41 650.59 1513.18 652.33 1421.26 1345.83 1404.45 1351.67" fill="#2b2b2b"/><polygon points="1413.97 1348.38 1410.5 1347.92 1410.65 1346.84 1502.84 651.23 1506.31 651.69 1413.97 1348.38" fill="#2b2b2b"/><path d="M890.29,1285.75c-20.3,0-37.17-16.13-37.9-36.58l-10.19-281.68,6-.22,10.19,281.68c.31,8.53,3.92,16.42,10.17,22.24,6.25,5.81,14.39,8.85,22.91,8.53l460.18-16.64c17.6-.64,31.41-15.48,30.77-33.08l-23.39-646.97c-.62-17.21-14.83-30.79-31.91-30.79-.39,0-.78,0-1.17.02l-460.18,16.64c-8.53.31-16.42,3.92-22.24,10.17s-8.84,14.38-8.54,22.91l6.63,183.39-6,.22-6.63-183.39c-.37-10.13,3.23-19.79,10.14-27.22,6.9-7.42,16.29-11.71,26.41-12.08l460.18-16.64c20.87-.75,38.54,15.64,39.29,36.55l23.39,646.97c.76,20.91-15.64,38.54-36.55,39.29l-460.18,16.64c-.46.02-.93.03-1.39.03Z" fill="#2b2b2b"/><path d="M884.13,1233.97l-.06-1.75-22.05-609.8,1.75-.06,469.79-16.99.06,1.75,22.05,609.8-1.75.06-469.79,16.99ZM865.64,625.79l21.86,604.55,464.54-16.8-21.86-604.55-464.54,16.8Z" fill="#2b2b2b"/></g><path d="M799.48,984.85c-1,0-1.97-.5-2.54-1.4-.88-1.4-.46-3.25.94-4.14l12.89-8.1c7.13-4.49,15.36-7.03,23.78-7.35l15.09-.58c5.45-.21,10.27-3.36,12.27-8.03,1.48-3.46,1.28-6.82-.62-10.27-4.8-8.69-18.99-15.23-29.91-16.96-19.55-3.1-57.15,17.29-57.53,17.5-1.45.8-3.28.26-4.07-1.19-.79-1.45-.26-3.28,1.19-4.07,1.61-.88,39.77-21.58,61.35-18.16,12.24,1.94,28.18,9.03,34.22,19.99,2.78,5.03,3.08,10.41.89,15.54-2.91,6.79-9.8,11.36-17.55,11.66l-15.09.58c-7.37.28-14.57,2.51-20.82,6.43l-12.89,8.1c-.5.31-1.05.46-1.59.46Z" fill="#2b2b2b"/><path d="M858.25,893.05c-1.18,0-2.3-.71-2.78-1.87-.62-1.53.11-3.29,1.65-3.91,14.45-5.89,11.28-20.28,10.83-22.01-8.27-19.84-25.82-29.95-52.16-30.04-20.26-.07-38.27,6.09-38.45,6.15-1.57.54-3.27-.29-3.82-1.85-.54-1.56.29-3.27,1.85-3.82.77-.27,18.93-6.48,40.07-6.48.07,0,.14,0,.21,0,28.75.06,48.77,11.79,57.91,33.93.04.1.08.21.11.32,2.08,7.29,1.77,22.81-14.3,29.36-.37.15-.75.22-1.13.22Z" fill="#2b2b2b"/><path d="M853.63,934c-1.17,0-2.28-.69-2.76-1.83-.64-1.53.07-3.29,1.6-3.93,12.37-5.22,8.95-22.31,8.8-23.03,0-.03-.01-.08-.02-.11-.92-5.32-3.69-9.45-8.48-12.62-21.97-14.57-75.84-2.26-76.38-2.14-1.62.37-3.23-.63-3.6-2.24s.63-3.23,2.24-3.6c2.31-.54,56.94-13.01,81.06,2.98,6.13,4.07,9.86,9.63,11.07,16.54,1.65,7.83,1.18,24.04-12.35,29.75-.38.16-.78.24-1.17.24Z" fill="#2b2b2b"/><path d="M802.64,1029.09c-6.62,0-14.05-.79-22.34-2.71-9.48-2.19-19.01-10.92-27.55-25.23-22.1-37.04-36.63-111.06-21.56-166.05.02-.08.05-.17.08-.25.77-2.06,19.22-50.55,59.72-58.04,28.23-5.22,55.83,8.05,69.53,22.58,8.41,8.92,11.92,18.39,9.88,26.66-3.58,14.5-16.34,16.23-22.59,15.11-1.63-.29-2.72-1.85-2.43-3.48.29-1.63,1.84-2.71,3.47-2.43h0c1.29.22,12.67,1.77,15.73-10.64,1.53-6.22-1.46-13.71-8.42-21.1-13.02-13.82-39.21-25.4-64.07-20.8-36.3,6.71-54.15,51.53-55.15,54.12-14.59,53.46-.49,125.3,20.97,161.25,7.68,12.88,15.89,20.64,23.75,22.46,41.69,9.65,59.27-11.09,60-11.98,1.05-1.28,2.93-1.47,4.22-.43,1.28,1.04,1.48,2.92.45,4.21-.67.83-13.94,16.75-43.68,16.75Z" fill="#2b2b2b"/><path d="M483.16,1272.05c-.67,0-1.33-.23-1.87-.65-25.43-20.21-58.44-69.23-84.08-124.88-30.97-67.2-48.33-136.51-48.88-195.17-.66-71,22.07-126.04,67.55-163.6,26.14-21.59,80.87-32.37,127.29-25.08,1.64.26,2.76,1.79,2.5,3.43-.26,1.64-1.81,2.75-3.43,2.5-44.17-6.93-97.99,3.51-122.54,23.78-44.02,36.35-66.02,89.81-65.37,158.91,1.2,129.59,82.04,273.55,127.97,313.15,10.76-19.61,20.31-44.65,30.4-71.09,17.7-46.4,37.74-98.92,71.49-143.6l-73.23-142.92c-.76-1.47-.17-3.28,1.3-4.04,1.47-.76,3.28-.17,4.04,1.3l74.09,144.6c.53,1.03.42,2.27-.29,3.19-33.91,44.31-54.04,97.06-71.8,143.6-10.72,28.09-20.84,54.61-32.55,75.05-.44.76-1.18,1.29-2.04,1.46-.19.04-.38.05-.57.05Z" fill="#2b2b2b"/><path d="M548.85,1184.97c-17.9,0-27.85-5.35-28.3-5.6-1.45-.8-1.98-2.62-1.18-4.08.8-1.45,2.61-1.98,4.07-1.18.14.08,11.33,5.98,31.15,4.67,18.42-1.21,48.26-9.06,85.87-39.56l123.17-127.68c1.15-1.19,3.05-1.22,4.24-.08,1.19,1.15,1.23,3.05.08,4.24l-123.3,127.81c-.08.09-.17.17-.27.25-39.15,31.8-70.52,39.87-89.93,41.04-1.94.12-3.81.17-5.6.17Z" fill="#2b2b2b"/><path d="M467.97,1212.53c-3.75-46.2,19.06-89.49,38.85-117.66,21.38-30.44,43.97-50.31,44.2-50.5l2.3,2.64c-.22.19-22.54,19.83-43.68,49.95-19.44,27.69-41.84,70.17-38.18,115.3l-3.49.28Z" fill="#2b2b2b"/></svg>