<?xml version="1.0" encoding="UTF-8"?><svg id="_レイヤー_18" xmlns="http://www.w3.org/2000/svg" width="2000" height="2000" viewBox="0 0 2000 2000"><path d="M1525.41,1074.66c-12.64,0-25.42-5.62-26.14-5.94-.27-.12-.53-.29-.75-.48l-39.72-34.8c-1.25-1.09-1.37-2.99-.28-4.23,1.09-1.25,2.99-1.37,4.23-.28l39.36,34.49c2.99,1.25,22.12,8.85,33.58,3.22,3.87-1.9,6.39-5.1,7.71-9.78l-9.66-28.61c-.53-1.57.31-3.27,1.88-3.8,1.57-.53,3.27.31,3.8,1.88l9.95,29.46c.18.54.21,1.12.07,1.67-1.67,6.87-5.41,11.77-11.12,14.58-3.92,1.92-8.41,2.64-12.92,2.64Z" fill="#2b2b2b"/><path d="M1546.53,1059.74c-1.48,0-2.76-1.09-2.97-2.59-.22-1.64.92-3.15,2.57-3.38,17.5-2.4,17.36-19.58,17.25-21.99l-1.08-4.12s-.02-.08-.03-.12l-8.61-32.91c-.42-1.6.54-3.24,2.14-3.66,1.61-.42,3.24.54,3.66,2.14l8.64,33.02s.02.08.03.12l1.13,4.3c.05.18.08.36.09.54.67,8.75-3.16,25.99-22.4,28.63-.14.02-.28.03-.41.03Z" fill="#2b2b2b"/><path d="M1567.94,1029.17c-.93,0-1.85-.43-2.44-1.25-.97-1.34-.67-3.22.68-4.19,8.86-6.38,11.62-16.5,8.22-30.07-2.41-9.73-7.21-17.56-7.26-17.64-.87-1.41-.44-3.26.97-4.13,1.41-.88,3.25-.44,4.13.97.22.35,5.34,8.67,7.98,19.35,4,15.95.35,28.53-10.54,36.38-.53.38-1.14.57-1.75.57Z" fill="#2b2b2b"/><path d="M1578.25,995.72c-.3,0-.61-.05-.91-.14-1.58-.5-2.45-2.19-1.95-3.77,4.89-15.32,3.8-29.04-3.23-40.77-16.33-27.22-60.51-37.95-78.75-41.29-5.94-1.08-9.72-1.5-9.76-1.51-1.65-.18-2.84-1.66-2.65-3.31.18-1.65,1.66-2.84,3.31-2.66.16.02,4.01.44,10.18,1.57,19.04,3.49,65.23,14.79,82.82,44.11,7.96,13.28,9.24,28.65,3.8,45.68-.41,1.28-1.59,2.09-2.86,2.09Z" fill="#2b2b2b"/><path d="M1461.91,1068.79c-8.09,0-16.98-1.98-26.3-8.32-24.55-16.69-26.97-51.03-26.23-70.02.08-1.74.18-3.38.3-4.9.12-1.65,1.55-2.88,3.21-2.77,1.65.12,2.89,1.56,2.77,3.21-.11,1.48-.21,3.06-.29,4.72-.69,17.72,1.45,49.73,23.61,64.8,16.03,10.9,30.53,7.13,42.18,4.1,2.42-.63,4.71-1.23,6.88-1.66,1.63-.32,3.2.73,3.53,2.36.32,1.62-.73,3.2-2.36,3.53-2,.4-4.2.97-6.54,1.58-5.95,1.55-12.99,3.38-20.76,3.38Z" fill="#2b2b2b"/><path d="M839.04,1258.96c-15.09,0-29.56-5.85-40.28-16.42-4.11-4.05-7.84-8.08-11.08-11.96l-.07-.09c-.08-.1-.16-.19-.24-.29-22.89-27.66-20.46-47.84-17.38-73.39.89-7.35,1.8-14.95,2.25-23.5,1.2-22.18-2.85-45.24-11.73-66.71-6.49-15.74-12.57-32.3-18.07-49.24-22.48-69.24-32.44-135.21-36.84-178.36-2.75-27-3.16-43.87-3.17-44.04-.04-1.66,1.27-3.03,2.93-3.07.02,0,.05,0,.07,0,1.62,0,2.96,1.3,3,2.93,0,.17.41,16.82,3.14,43.56,4.37,42.86,14.26,108.38,36.58,177.12,5.45,16.79,11.48,33.21,17.91,48.8,9.21,22.28,13.42,46.25,12.17,69.32-.46,8.74-1.39,16.45-2.29,23.89-3.02,25.08-5.21,43.2,16.08,68.9.04.05.07.09.11.14l.16.19c3.1,3.71,6.69,7.59,10.67,11.51,10.58,10.43,25.25,15.72,40.25,14.53,4.43-.37,9.02-.86,13.62-1.45,117.77-15.44,304.25-108.06,354.82-144.67,2.69-1.95,5.13-3.85,7.24-5.65,26.19-22.77-3.63-99.5-28.55-129.21-2.23-2.66-4.92-5.55-8.02-8.9-9.6-10.34-22.75-24.51-38.89-49.17-.91-1.39-.52-3.25.87-4.15,1.38-.91,3.25-.52,4.15.87,15.86,24.23,28.81,38.18,38.27,48.37,3.16,3.41,5.89,6.35,8.22,9.12,12.95,15.43,27.07,43.73,34.35,68.81,9.44,32.53,7.14,56.96-6.48,68.8-2.25,1.92-4.81,3.91-7.63,5.96-50.94,36.89-238.85,130.21-357.56,145.77-4.7.61-9.38,1.11-13.91,1.49-1.56.12-3.12.19-4.67.19Z" fill="#2b2b2b"/><path d="M726.27,1058.89c-14.13,0-43.92-9.07-79.85-24.32-21.92-9.31-43.77-19.96-63.2-30.8-22.37-12.44-40.92-24.87-53.65-35.94-8.35-7.24-14.4-14.06-17.99-20.25-.56-.96-.54-2.16.06-3.1,6.15-9.76,151.35-239.34,217.96-260.7.87-.28,1.82-.14,2.58.36l3.21,2.15c1.17.78,1.63,2.29,1.12,3.6,0,0-.04.11-.13.31-.03.08-.06.15-.1.23-4.3,10.14-5.78,19.32-3.5,21.82,1.3,1.43,4.69.63,6.59.02,3.85-1.22,7.54-3.5,10.67-6.6,16.59-16.44,75.84-72.09,141.68-98.11,3.39-1.34,6.95-2.26,10.56-2.73,2.75-.37,5.59-.47,8.41-.29.05,0,.11,0,.17.01.01,0,.02,0,.03,0,1.67.11,3.27.31,4.75.58,15.02,2.67,29.76,9.07,45.04,19.56,10.26,7.03,20.9,16.07,31.63,26.86.35.34.72.72,1.1,1.11l.33.34c1.16,1.18,1.14,3.08-.05,4.24-1.19,1.16-3.08,1.14-4.24-.05l-.34-.35c-.34-.35-.68-.7-1.02-1.04-10.5-10.55-20.85-19.35-30.8-26.17-14.57-10-28.54-16.08-42.72-18.6-1.28-.24-2.65-.4-4.09-.5h0s-.06,0-.08,0c-.02,0-.04,0-.05,0-2.44-.16-4.89-.07-7.28.25-3.14.4-6.2,1.19-9.14,2.36-64.78,25.6-123.28,80.56-139.66,96.79-3.8,3.77-8.33,6.56-13.08,8.06-5.81,1.85-10.13,1.28-12.84-1.7-5.36-5.88-1.18-19.19,1.64-26.31-62.46,22.63-199.22,235.61-212.27,256.12,3.35,5.22,8.66,11,15.79,17.19,12.42,10.8,30.62,22.98,52.63,35.22,19.25,10.74,40.9,21.3,62.62,30.52,33.35,14.16,62.02,23.12,75.88,23.8l17.33-37.46c.7-1.5,2.48-2.16,3.98-1.46,1.5.7,2.16,2.48,1.46,3.98l-18.16,39.24c-.49,1.05-1.54,1.73-2.69,1.74-.1,0-.2,0-.3,0ZM910.9,604.57c.25.03.5.08.71.15-.27-.09-.51-.14-.71-.15Z" fill="#2b2b2b"/><path d="M817.53,1689.67c-.6,0-1.2-.18-1.72-.54-.44-.31-44.53-31.33-95.31-76.84-41.77-37.47-76.06-73.79-101.93-107.98-.05-.06-.11-.12-.16-.19-3.93-5.2-7.78-10.52-11.44-15.79-17.34-25-29.98-48.88-37.57-70.99-.4-1.17-.04-2.47.9-3.27l213.85-180.76,2.06-5.45c.58-1.55,2.31-2.33,3.87-1.75,1.55.58,2.33,2.32,1.75,3.87l-2.33,6.18c-.18.48-.48.9-.87,1.23l-212.87,179.93c7.48,21.04,19.64,43.77,36.15,67.58,3.57,5.15,7.33,10.33,11.17,15.42.05.06.11.12.15.19,25.65,33.93,59.73,70.03,101.28,107.31,44.3,39.71,83.45,68.3,92.69,74.93l139.24-140.42,20.87-21.03c17.97-18.11,40.52-30.05,62.33-41.6,7.4-3.92,15.05-7.96,22.42-12.2,154.83-88.99,221.71-182.75,198.79-278.67-6.59-27.62-20.85-55.77-42.38-83.68-1.01-1.31-.77-3.2.54-4.21,1.31-1.01,3.2-.77,4.21.54,22.05,28.59,36.67,57.51,43.46,85.96,23.62,98.81-44.22,194.79-201.63,285.27-7.46,4.29-15.16,8.36-22.6,12.3-22.4,11.86-43.56,23.06-60.88,40.52l-20.87,21.03-141.03,142.23c-.58.59-1.35.89-2.13.89Z" fill="#2b2b2b"/><path d="M813.61,1641.64c-.34,0-.69-.1-1-.31-70.92-49.3-122.2-106.55-152.72-145.88-33.09-42.64-49.64-74.07-49.8-74.38-.45-.86-.12-1.91.74-2.36.86-.45,1.91-.12,2.36.74.16.31,16.6,31.52,49.52,73.93,30.37,39.12,81.37,96.05,151.9,145.08.79.55.99,1.64.44,2.44-.34.49-.88.75-1.44.75Z" fill="#2b2b2b"/><path d="M995.34,660.24c-.2,0-.4-.02-.6-.06-1.33-.27-2.66-.53-3.98-.79-.07-.01-.14-.03-.21-.05-39.92-7.76-68.05-8.97-83.61-3.61-1.57.54-3.27-.29-3.81-1.86-.54-1.57.29-3.27,1.86-3.81,16.6-5.72,45.84-4.56,86.91,3.43.07.01.14.03.21.05,1.27.25,2.54.5,3.82.75,1.62.33,2.67,1.91,2.35,3.53-.29,1.42-1.54,2.41-2.94,2.41Z" fill="#2b2b2b"/><path d="M1119.73,945.48c-.51,0-1.03-.13-1.49-.4l-215.13-123.46c-1.44-.82-1.93-2.66-1.11-4.09.82-1.44,2.66-1.94,4.09-1.11l213.38,122.45c5.99-4.99,14.35-15.03,23.78-28.61h0s.04-.06.07-.09c7.25-10.4,15.07-22.77,22.64-35.77,6.3-10.84,12.35-21.93,17.98-32.97,5.17-10.14,9.85-19.88,13.89-28.96,13.46-30.11,21.46-55.27,23.16-72.77.38-3.73.46-7.15.24-10.2-15.65-5.94-133.26-50.04-223.21-68.65-1.09-.23-2.17-.45-3.24-.65-1.63-.32-2.69-1.89-2.37-3.52.32-1.63,1.89-2.69,3.52-2.37,1.09.21,2.21.44,3.32.67,96.54,19.97,224.6,69.09,225.88,69.59,1.04.4,1.77,1.35,1.9,2.46.45,3.91.43,8.38-.07,13.27-2.22,22.9-14.09,53.22-23.66,74.62-4.08,9.17-8.8,19.02-14.03,29.25-5.68,11.13-11.79,22.32-18.14,33.25-7.66,13.17-15.6,25.71-22.95,36.26-.02.03-.04.06-.07.09-7.51,10.81-18.2,24.96-26.61,31.13-.53.39-1.15.58-1.78.58Z" fill="#2b2b2b"/><path d="M1110.52,897.87c-.37,0-.74-.12-1.06-.36-.77-.58-.92-1.68-.34-2.45,49.37-65.16,78.79-155.82,79.08-156.73.3-.92,1.28-1.43,2.2-1.13.92.29,1.43,1.28,1.13,2.2-.29.91-29.89,92.12-79.62,157.77-.34.45-.87.69-1.4.69Z" fill="#2b2b2b"/><path d="M1211.7,1610.08c-.71,0-1.41-.25-1.97-.74-13.08-11.35-39.2-35.98-66.85-62.05-33.23-31.33-67.58-63.72-81.23-74.86-1.28-1.05-1.48-2.94-.43-4.22,1.05-1.28,2.94-1.48,4.22-.43,13.82,11.27,48.25,43.74,81.55,75.14,26.63,25.11,51.84,48.88,65.24,60.64.82-.31,1.9-.69,3.36-1.19,13.07-4.54,52.84-18.36,102.66-60.1.13-.11.2-.16.27-.23.03-.03.06-.06.09-.08,28.16-23.97,49.43-65.74,71.95-109.95,8.68-17.04,17.65-34.65,27.32-51.85h0s.05-.08.07-.12c10.59-18.85,19.12-37.89,25.39-56.64-11.06-8.17-74.19-54.76-180.51-133.06-1.33-.98-1.62-2.86-.64-4.2.99-1.33,2.86-1.62,4.2-.64,116.93,86.12,181.62,133.88,182.26,134.35,1.04.77,1.47,2.11,1.07,3.34-6.46,19.82-15.41,39.96-26.61,59.88-.02.04-.05.09-.08.13-9.58,17.05-18.5,34.57-27.13,51.52-22.79,44.74-44.32,87.01-73.37,111.76-.12.11-.24.21-.36.32,0,0-.07.06-.08.06-50.67,42.45-91.22,56.54-104.55,61.17-1.9.66-3.86,1.34-4.3,1.59-.48.3-1.03.45-1.56.45Z" fill="#2b2b2b"/><path d="M328.64,1744.58c-3.74,0-7.48-.46-10.87-1.42-1.59-.45-2.52-2.11-2.07-3.71.45-1.59,2.11-2.52,3.71-2.07,8.24,2.34,19.24,1.18,25.04-2.63,23.81-15.69,60.89-45.11,110.23-87.45.01-.01.03-.03.04-.04.69-.6,1.37-1.19,2.07-1.78,78.09-67.18,160.06-143.77,160.88-144.54,1.21-1.13,3.11-1.07,4.24.14,1.13,1.21,1.07,3.11-.14,4.24-.82.77-82.88,77.44-161.09,144.72-.69.58-1.33,1.14-1.99,1.71-.02.02-.04.04-.06.05-49.55,42.53-86.86,72.12-110.88,87.95-4.74,3.12-11.93,4.81-19.11,4.81Z" fill="#2b2b2b"/><path d="M546.84,1750.3c-.26,0-.53-.06-.78-.18-63.65-31.67-89.3-97.61-89.56-98.27-.34-.9.11-1.91,1.01-2.26.9-.34,1.91.11,2.26,1.01.25.65,25.45,65.34,87.84,96.39.87.43,1.22,1.48.79,2.35-.31.62-.92.97-1.57.97Z" fill="#2b2b2b"/><path d="M413.56,1868.19c-1.65,0-2.99-1.33-3-2.99-.04-9.06,13.46-24.95,16.81-28.39,37.62-38.87,76.11-62.78,116.87-88.1l1.95-1.21s.1-.06.15-.09c47.47-29.5,96.55-60.02,145.79-118.63.15-.18.33-.35.52-.49l27.95-20.57c1.22-1.12,3.12-1.04,4.24.18,1.12,1.22,1.04,3.12-.18,4.24l-.13.12c-.08.07-.16.14-.25.21l-27.78,20.45c-49.84,59.23-101.52,91.34-147.13,119.68-.05.03-.1.06-.15.09l-1.81,1.12c-40.43,25.12-78.62,48.84-115.73,87.18-6.18,6.37-15.14,18.96-15.12,24.19,0,1.66-1.33,3.01-2.99,3.01h-.01Z" fill="#2b2b2b"/><path d="M339.96,1952.06c-7.11,0-14.14-2.75-19.42-7.97-94.26-93.16-167-186.9-187.05-213.42-3.97-5.28-6.4-11.5-7.05-18-.84-8.5,1.35-17.04,6.16-24.09.04-.08.09-.15.14-.23,1.13-1.62,2.37-3.13,3.69-4.49.19-.21.39-.41.58-.6l1.33-1.38c11.32-12.05,41.67-32.72,60.46-25.8,12.18,4.5,23.32,15.61,34.1,26.35,7.27,7.25,14.14,14.1,20.43,17.89,12.34,7.45,38.17,17.29,56.21,22.76,3.2.96,5.68,1.67,7.8,2.23,2.66.69,4.81,2.65,5.74,5.24.93,2.59.51,5.47-1.11,7.71-.61.84-1.14,1.73-1.61,2.73l-.05.12c-9.93,21.31,17.38,68.72,88.8,118.08,1.61,1.12,3.04,2.4,4.26,3.82.02.03.04.05.06.08l.51.62c.21.26.41.53.59.79,5.86,8.14,5.54,19.34-.78,27.23-21.19,26.3-39.85,44.5-55.47,54.09-2.08,1.29-4.2,2.45-6.47,3.55-3.77,1.81-7.81,2.7-11.83,2.7ZM137.74,1691.68c-.04.07-.08.13-.12.19-4.07,5.9-5.92,13.08-5.21,20.21.54,5.4,2.57,10.59,5.87,14.98,19.98,26.42,92.5,119.88,186.47,212.76,6.48,6.39,16.3,8.06,24.43,4.14,2.08-1.01,4.02-2.08,5.94-3.26,0,0,0,0,0,0,15.04-9.23,33.18-26.97,53.93-52.73,4.64-5.79,4.88-14,.58-19.98-.12-.17-.25-.34-.38-.5l-.48-.59c-.89-1.02-1.93-1.95-3.11-2.77-34.91-24.13-61.79-49.32-77.72-72.84-14.34-21.17-19-39.85-13.14-52.6.03-.07.06-.14.1-.21.63-1.33,1.37-2.6,2.21-3.74.46-.64.58-1.42.32-2.15-.26-.73-.85-1.26-1.6-1.46-2.2-.58-4.75-1.3-8.02-2.29-18.4-5.58-44.83-15.66-57.58-23.36-6.91-4.17-14.03-11.26-21.57-18.77-10.32-10.29-21-20.93-31.94-24.97-15.22-5.61-43.26,12.84-54.02,24.3l-1.4,1.45c-.18.18-.31.31-.44.46-.03.03-.05.06-.08.09-1.08,1.11-2.09,2.34-3.03,3.67ZM137.61,1691.88s0,0,0,0c0,0,0,0,0,0ZM138.05,1690.95s0,0,0,0c0,0,0,0,0,0ZM138.05,1690.94s0,0,0,0c0,0,0,0,0,0ZM132.75,1688.35s0,0,0,0c0,0,0,0,0,0Z" fill="#2b2b2b"/><path d="M355.3,1944.33c-.73,0-1.45-.26-2.03-.79-143.94-132.27-219.46-250.3-220.2-251.47-.89-1.4-.47-3.25.93-4.14,1.4-.89,3.25-.47,4.14.93.74,1.17,75.88,118.57,219.2,250.27,1.22,1.12,1.3,3.02.18,4.24-.59.64-1.4.97-2.21.97Z" fill="#2b2b2b"/><path d="M1250.49,1570.05c-.66,0-1.29-.38-1.59-1.01-.41-.88-.03-1.92.85-2.32.38-.17,37.91-17.97,75.73-65.76,30.99-39.13,62.18-102.56,81.4-165.53.28-.92,1.27-1.44,2.18-1.16.92.28,1.45,1.26,1.16,2.18-19.33,63.37-50.76,127.24-82,166.69-38.37,48.48-76.61,66.58-77,66.76-.24.11-.49.16-.74.16Z" fill="#2b2b2b"/><path d="M739.3,742.45c-10.81,0-18.09-3.5-18.62-3.76-1.49-.73-2.09-2.53-1.36-4.02.73-1.48,2.53-2.09,4.01-1.36.87.42,20.53,9.66,43.15-5.66,6.25-4.23,14.88-12.79,24.87-22.71,28.45-28.24,71.46-70.92,121.23-75.3,1.62-.14,3.11,1.07,3.25,2.73.15,1.65-1.07,3.11-2.73,3.25-47.61,4.19-89.69,45.95-117.53,73.59-10.63,10.55-19.02,18.88-25.73,23.42-11.31,7.65-22.02,9.83-30.55,9.83Z" fill="#2b2b2b"/><path d="M634.22,692.79c-18.02,0-31.55-3.42-32.39-3.63-39.04-8.84-61.32-33.5-73.11-52.62-3.43-5.52-6.25-10.98-8.39-16.22-4.52-10.96-12.92-19.63-23.65-24.4-.09-.04-.17-.08-.26-.13l-32.7-18.5c-.74-.42-1.26-1.13-1.45-1.96-.19-.83-.01-1.7.48-2.39,16.88-23.86,27.69-57.35,13.8-78.36-1.35-2.04-3.95-5.01-6.97-8.45-6.37-7.27-14.29-16.31-17.8-24.87-.63-1.53.11-3.29,1.64-3.91s3.29.11,3.91,1.64c3.12,7.63,10.68,16.25,16.76,23.18,3.16,3.6,5.89,6.72,7.46,9.1,13.2,19.96,8.44,52.04-12.02,82.41l29.72,16.81c12.08,5.42,21.53,15.19,26.63,27.55,2.02,4.94,4.69,10.09,7.95,15.34,11.2,18.15,32.33,41.54,69.42,49.95.38.09,29.68,7.46,58.8.27,13.06-3.23,30.8-11.52,51.31-23.97l1.45-.89c3.28-2.01,6.62-4.11,10.18-6.42,32.69-21.21,48.02-45.96,55.12-62.98,7.7-18.46,7.68-32.11,7.68-32.24-.01-1.66,1.32-3.01,2.97-3.03,0,0,.02,0,.03,0,1.64,0,2.98,1.32,3,2.96,0,.59.07,14.77-8.01,34.3-7.41,17.9-23.4,43.88-57.52,66.02-3.61,2.34-6.99,4.47-10.33,6.51l-1.45.89c-21.33,12.95-39.16,21.25-53,24.67-10.19,2.52-20.28,3.36-29.26,3.36Z" fill="#2b2b2b"/><path d="M748.39,466.33c-1.26,0-2.4-.8-2.83-2.01-5.47-15.56-28.75-39.69-69.2-71.71-67.2-53.23-159.15-109.87-160.07-110.44-1.41-.87-1.85-2.71-.99-4.13.87-1.41,2.72-1.85,4.13-.99.92.57,93.17,57.39,160.65,110.84,34.1,27,56.35,48.76,66.39,64.89,1.36-16.91,2.57-52.87-6.6-90.79-13.15-54.45-42.05-92.69-85.89-113.64-1.49-.71-2.13-2.51-1.41-4,.72-1.5,2.5-2.13,4-1.41,45.55,21.77,75.54,61.35,89.13,117.64,12.87,53.21,5.72,102.67,5.65,103.17-.2,1.36-1.31,2.41-2.68,2.54-.1,0-.19.01-.29.01Z" fill="#2b2b2b"/><path d="M789.43,541.09c-1.36,0-2.59-.93-2.92-2.32-.38-1.61.62-3.23,2.24-3.6,9.59-2.25,18.38-8.55,26.12-18.74.2-.26.38-.48.53-.72h0c.05-.07.1-.14.15-.21,10.62-14.33,17.29-33.41,21.02-46.92.57-2,.99-3.65,1.35-5.21,2.61-11.08,3.85-22.49,3.7-33.93-.13-8.8-1.1-17.63-2.89-26.25-9.14-44.08-26.09-65.21-50.38-62.81-21.72,2.17-41.78,22.49-41.98,22.7-1.16,1.19-3.06,1.21-4.24.05-1.19-1.16-1.21-3.06-.05-4.24.88-.9,21.81-22.1,45.68-24.48,12.51-1.24,23.49,2.89,32.61,12.28,10.77,11.08,18.93,29.68,24.24,55.29,1.87,8.99,2.88,18.21,3.01,27.38.16,11.94-1.13,23.84-3.85,35.37-.37,1.64-.82,3.38-1.41,5.47-3.87,14-10.84,33.88-22.04,48.95,0,0,0,0,0,.01-.22.32-.45.63-.69.93-8.59,11.3-18.52,18.35-29.51,20.92-.23.05-.46.08-.69.08Z" fill="#2b2b2b"/><path d="M797.85,501.1c-.29,0-.59-.07-.87-.23-.84-.48-1.13-1.55-.65-2.39,27.87-48.59,21.7-86.04,17.75-99.88-3.83-13.41-10.63-23.58-18.66-27.91-21.05-11.37-38.66,14.12-39.4,15.21-.54.8-1.63,1.01-2.43.47-.8-.54-1.01-1.63-.47-2.43.2-.29,20.12-29.2,43.96-16.33,8.86,4.77,16.28,15.71,20.36,30.03,4.07,14.27,10.46,52.83-18.08,102.58-.32.56-.91.88-1.52.88Z" fill="#2b2b2b"/><path d="M736.95,707.09c-.29,0-.58-.04-.88-.13-1.58-.48-2.47-2.14-2-3.72.04-.15,1.4-5.35-1.47-13.64-.01-.04-.03-.08-.04-.12,0-.03-.02-.05-.03-.08,0,0,0-.02,0-.02-2.88-8.18-8.78-16.51-17.54-24.75-1.21-1.14-1.26-3.04-.13-4.24,1.14-1.21,3.04-1.26,4.24-.13,9.46,8.91,15.88,18.03,19.08,27.13,0,.02.01.04.02.06.03.09.07.19.1.3,3.54,10.3,1.59,16.94,1.51,17.22-.39,1.29-1.58,2.13-2.87,2.13Z" fill="#2b2b2b"/><path d="M936.12,344.83c-.24,0-.49-.03-.74-.09-1.61-.41-2.58-2.04-2.17-3.65.06-.22,5.61-22.84,2.47-59.02-.18-1.96-.38-3.97-.6-6.03-.18-1.65,1-3.13,2.65-3.31,1.64-.19,3.13,1,3.31,2.65.23,2.1.43,4.15.62,6.16,3.24,37.3-2.39,60.08-2.63,61.03-.34,1.36-1.57,2.26-2.91,2.26Z" fill="#2b2b2b"/><path d="M933.14,248.69c-1.38,0-2.62-.96-2.93-2.36-5.31-24.37-13.85-48.87-25.41-72.8-23.57-48.81-75.61-89.25-139.22-108.19-76.98-22.91-159.96-11.07-233.64,33.33-53.27,32.12-92.86,67.23-117.66,104.36-.03.05-.07.1-.1.15-.84,1.25-2.49,1.7-3.86,1-1.47-.75-2.06-2.56-1.3-4.04.06-.11.13-.23.21-.35.01-.02.03-.05.05-.07,25.29-37.88,65.52-73.6,119.57-106.18,75.15-45.29,159.83-57.34,238.45-33.94,32.28,9.61,62.61,25.15,87.7,44.94,24.47,19.29,43.56,42.25,55.21,66.39,11.76,24.36,20.46,49.3,25.87,74.14.35,1.62-.67,3.22-2.29,3.57-.21.05-.43.07-.64.07ZM414.05,203.34s0,0,0,0c0,0,0,0,0,0Z" fill="#2b2b2b"/><path d="M479.34,473.76c-.44,0-.87-.09-1.27-.28-8.36-3.28-16.46-6.83-24.74-10.84-.05-.03-.1-.05-.16-.08-49.47-24.22-79.52-55.69-89.3-93.53-13.08-50.59,14.44-94.75,18.83-101.35.02-.59.06-1.44.16-2.52,0-.03,0-.06,0-.08.08-1.58,1.39-2.84,3-2.84s3,1.34,3,3c0,.08,0,.21-.01.31,0,.04,0,.09,0,.13-.17,1.83-.15,2.82-.15,2.83.02.64-.17,1.29-.54,1.81-.32.46-31.68,46.25-18.46,97.26,9.35,36.08,38.37,66.24,86.25,89.65.05.02.09.05.14.07,8.15,3.95,16.12,7.44,24.35,10.66.43.17.82.43,1.13.78,1.11,1.23,1.03,3.13-.2,4.24-.58.52-1.3.78-2.02.78ZM388.86,265.41h0s0,0,0,0ZM388.86,265.4h0s0,0,0,0Z" fill="#2b2b2b"/><path d="M479.34,473.76c-1.15,0-2.24-.66-2.74-1.78l-.05-.11c-4.42-9.79-42.85-96.78-31.19-136.21.28-.96,1.03-1.72,1.99-2.01.96-.3,2-.1,2.78.54.39.31,39.32,31.64,90.62,51.06,1.19.45,2.39.89,3.61,1.34,50.73,18.45,95.34,18.78,132.57.97.06-.03.12-.06.19-.08.11-.04.21-.1.31-.15.14-.07.29-.14.43-.2,1.52-.67,3.29,0,3.96,1.51.68,1.51,0,3.29-1.51,3.96l-.25.12c-.2.1-.41.2-.62.29-38.72,18.5-84.86,18.23-137.14-.78-1.24-.46-2.45-.91-3.66-1.36-43.01-16.29-77.48-40.79-88.54-49.13-5.76,32,16.94,94.49,31.93,127.67l.06.14c.67,1.51,0,3.29-1.52,3.96-.4.18-.81.26-1.22.26Z" fill="#2b2b2b"/><path d="M910.77,609.4c-.78,0-1.55-.3-2.14-.9-.02-.02-.09-.09-.11-.11-.04-.05-.1-.11-.16-.18-3.07-3.27-26.42-28.82-33.35-57.54-3.47-14.4-2.26-27.3,3.59-38.37.57-1.08,1.15-2.16,1.76-3.25.08-.15.2-.38.32-.58.84-1.43,2.67-1.91,4.11-1.07,1.43.84,1.91,2.68,1.07,4.11-.08.13-.15.28-.22.41-.63,1.12-1.18,2.16-1.73,3.19-5.15,9.73-6.18,21.22-3.07,34.16,6.63,27.5,29.39,52.19,31.96,54.91.03.03.06.06.09.1l.05.05c1.14,1.19,1.11,3.09-.08,4.24-.58.56-1.33.84-2.08.84Z" fill="#2b2b2b"/><path d="M876.81,553.23c-.7,0-1.41-.25-1.98-.75-28.32-24.89-55.61-31.34-56.76-31.6-.09-.02-.27-.07-.36-.1-1.57-.52-2.42-2.22-1.9-3.79.51-1.53,2.12-2.37,3.66-1.94,2.62.62,30.62,7.7,59.32,32.93,1.24,1.09,1.37,2.99.27,4.23-.59.67-1.42,1.02-2.25,1.02Z" fill="#2b2b2b"/><path d="M997.53,661.64c-.53,0-1.07-.14-1.54-.42,0,0-.81-.48-2.29-1.46-.04-.02-.07-.05-.11-.08-1.65-1.09-3.38-2.29-5.15-3.56-7.15-5.14-18.43-13.95-31.55-26.79-27.52-26.94-49.84-58.3-66.33-93.2-3.8-8.05-7.3-16.31-10.39-24.55-5.24-13.88-9.59-28.42-12.94-43.2-.93-4.13-1.83-8.5-2.67-13-4.11-22.21-2.4-44.68,4.96-65,.22-.64.47-1.29.72-1.94l.26-.7c2.18-5.65,5.09-10.99,8.65-15.89h0c6.3-8.69,14.74-16.06,24.4-21.31,5.52-3,11.45-5.35,17.63-6.97,5.27-1.37,9.95-2.65,14.32-3.93,22.03-6.45,40.05-13.89,56.71-23.43,12.06-6.9,23.46-15.01,33.89-24.11,1.51-1.31,3.06-2.69,4.59-4.12.82-.76,1.99-1,3.04-.63,1.05.37,1.81,1.29,1.97,2.4.01.08.29,1.97.58,5.29,1.32,15.98,2.02,55.29-18.14,87.22,11.84.2,40.54,1.41,69.73,8.04,22.43,5.1,40.79,12.37,54.59,21.61,17.6,11.79,27.83,26.81,30.38,44.64.14.97-.2,1.94-.92,2.61-.71.67-1.71.95-2.67.75-14.7-3.07-53.83-8.15-62.41,4.05,2.65,12.24,22.18,105.78,12.17,156-.21,1.05-.96,1.91-1.97,2.25-1.01.35-2.13.13-2.94-.57-.22-.19-22.63-19.57-46.32-37.68-35.79-27.36-47.62-31.36-51.31-31.64.64,17.12,2.46,93.97-16.06,107.97-.4.31-.87.62-1.39.93-.47.27-.99.41-1.51.41ZM997.1,654.81c.11.07.22.14.32.21,13.95-12.51,14.12-79.68,12.98-104.89-.05-1.08.49-2.1,1.4-2.67,4.18-2.63,11.8-.37,24.7,7.34,9.16,5.47,20.92,13.69,34.97,24.43,17.88,13.67,35.02,28.05,42.57,34.46,7.94-52.78-13.08-148.61-13.3-149.61-.16-.71-.05-1.45.29-2.09,9.34-17.12,50.75-11.35,65.1-8.78-15.09-66.63-152.14-65-153.55-64.97-1.13.04-2.18-.6-2.71-1.61-.53-1-.44-2.22.22-3.14,21.89-30.56,21.57-70.54,20.28-87.14-.11.1-.22.19-.33.29-10.72,9.35-22.44,17.69-34.84,24.79-17.08,9.78-35.51,17.4-58.01,23.98-4.43,1.29-9.17,2.59-14.49,3.97-5.71,1.49-11.18,3.66-16.28,6.43-8.88,4.82-16.63,11.58-22.4,19.56,0,0,0,0,0,0-3.26,4.48-5.92,9.36-7.9,14.5l-.27.7c-.23.59-.46,1.19-.67,1.81-7.01,19.35-8.63,40.74-4.71,61.89.83,4.42,1.71,8.72,2.63,12.78,3.29,14.51,7.56,28.78,12.7,42.41,3.03,8.09,6.46,16.2,10.2,24.1,16.19,34.26,38.09,65.04,65.11,91.48,12.85,12.58,23.87,21.19,30.85,26.21,1.74,1.25,3.44,2.43,5.06,3.49.03.02.07.05.1.07ZM881.58,373.61h0,0Z" fill="#2b2b2b"/><path d="M867.96,469.7c-2.41,0-4.66-.83-6.71-2.47-6.5-5.19-10.01-17.95-10.41-37.94-.02-1.15-.04-2.32-.04-3.54-.1-42.66,23.21-52,30.35-53.84.12-.04.29-.08.45-.12.94-.22,1.88.37,2.1,1.31s-.37,1.88-1.31,2.1c-.1.02-.21.06-.32.09-6.57,1.7-27.87,10.32-27.77,50.46,0,1.19.02,2.34.04,3.47.48,23.53,5.21,32.17,9.1,35.27,2.79,2.22,5.3,1.7,6.12,1.53.36-.07,1.02-.21,1.67.28.4.3.66.77.69,1.27.07.96-.65,1.8-1.62,1.87-.01,0-.03,0-.04,0-.78.16-1.54.24-2.29.24Z" fill="#2b2b2b"/><path d="M706.15,1014.99c-.16,0-.32-.02-.49-.07-79.14-22.78-157.47-78.1-158.25-78.66-.79-.56-.97-1.65-.41-2.44.56-.79,1.65-.97,2.44-.41.78.55,78.63,55.53,157.19,78.14.93.27,1.46,1.24,1.2,2.17-.22.77-.92,1.27-1.68,1.27Z" fill="#2b2b2b"/><path d="M1542.29,1462.98c-.75,0-1.45-.49-1.67-1.24-.22-.73-22.67-72.97-81.78-104.09-.49-.27-.97-.51-1.45-.76l-.72-.37c-.86-.44-1.2-1.5-.75-2.36s1.5-1.2,2.36-.75l.7.36c.52.26,1.03.52,1.53.8,60.4,31.8,83.25,105.42,83.47,106.16.28.93-.24,1.9-1.17,2.18-.17.05-.34.08-.51.08Z" fill="#2b2b2b"/><path d="M1422.18,1385.54c-.77,0-1.54-.29-2.12-.88-1.17-1.17-1.18-3.07,0-4.24.05-.05.12-.12.18-.17.58-.49,14.36-12.23,37.83-26.71,2.1-1.29,4.27-2.6,6.5-3.93,13.42-7.94,26.48-13.27,39.12-18.43,25.95-10.6,50.46-20.62,72.29-51.64,1.12-1.6,2.67-3.53,4.45-5.76,4.28-5.35,11.44-14.3,11.51-18.51.03-1.66,1.39-2.95,3.05-2.95,1.66.03,2.98,1.39,2.95,3.05-.09,5.81-5.61,13.16-12.82,22.17-1.73,2.16-3.22,4.02-4.23,5.46-22.85,32.47-48.15,42.8-74.93,53.75-12.43,5.08-25.29,10.33-38.33,18.04-2.2,1.31-4.35,2.6-6.41,3.87-22.86,14.11-36.26,25.47-37.06,26.15-.56.49-1.27.74-1.98.74Z" fill="#2b2b2b"/><path d="M1808.34,1459.7c-3.01,0-5.85-.43-8.45-1.4-11.95-4.45-22.63-15.32-32.96-25.84-6.94-7.07-13.5-13.75-19.58-17.46-11.59-7.05-37.04-16.94-54.94-22.42-2.85-.88-5.42-1.62-7.64-2.21-2.65-.7-4.75-2.65-5.6-5.21-.86-2.58-.35-5.42,1.36-7.6.68-.89,1.25-1.76,1.7-2.65.01-.03.03-.05.04-.08h0c10.66-20.54-14.68-66.63-83.74-115-1.59-1.13-2.97-2.39-4.12-3.77l-.16-.2c-.3-.38-.65-.8-.97-1.28-5.55-8-4.84-18.93,1.76-26.56,20.74-23.96,39.04-40.97,54.41-50.55.87-.54,1.73-1.06,2.55-1.54.07-.04.14-.08.21-.11,0,0,.01,0,.03-.01,2.29-1.32,4.36-2.4,6.34-3.29,10.5-4.79,22.87-2.63,30.79,5.38,90.2,91.04,158.98,182.5,177.91,208.36,3.78,5.18,5.99,11.28,6.38,17.63.55,8.29-1.95,16.65-7.06,23.52-.04.05-.08.11-.13.16-1.17,1.53-2.44,2.97-3.78,4.29l-.49.48s-.07.07-.1.1c-.46.42-.92.86-1.37,1.3-10,9.97-34.14,26-52.4,26ZM1687.62,1377.56s-.02.03-.02.05c-.62,1.22-1.38,2.41-2.32,3.63-.49.63-.63,1.35-.41,2.02.13.38.49,1.06,1.45,1.31,2.3.61,4.94,1.37,7.86,2.27,18,5.51,43.85,15.46,56.3,23.04,6.72,4.1,13.53,11.04,20.74,18.38,9.87,10.05,20.07,20.44,30.77,24.42,14.92,5.55,43.43-12.18,54.54-23.24.5-.49,1-.97,1.5-1.43l.46-.45c1.19-1.17,2.25-2.37,3.27-3.71.02-.03.04-.05.06-.08.02-.03.04-.05.06-.08,4.2-5.7,6.26-12.6,5.81-19.44-.32-5.22-2.14-10.22-5.24-14.47-18.87-25.77-87.42-116.93-177.33-207.68-6.16-6.23-15.82-7.89-24.05-4.13-1.82.82-3.72,1.81-5.84,3.04-.05.03-.11.06-.16.09-.03.01-.06.03-.08.04-.76.45-1.54.92-2.34,1.42-14.86,9.27-32.71,25.88-53.05,49.39-4.8,5.55-5.35,13.47-1.34,19.25.23.34.46.63.69.91l.12.15c.79.93,1.79,1.85,2.95,2.67,33.8,23.67,59.59,48.33,74.56,71.29,13.53,20.75,17.46,38.98,11.06,51.35,0,0,0,0,0,0ZM1866.29,1427.74h0,0ZM1864.14,1425.66h0,0ZM1864.17,1425.62h0s0,0,0,0Z" fill="#2b2b2b"/><path d="M1863.75,1428.28c-1.01,0-2-.51-2.57-1.44-.69-1.14-70.98-115.53-208.4-244.25-1.21-1.13-1.27-3.03-.14-4.24,1.13-1.21,3.03-1.27,4.24-.14,138.06,129.32,208.72,244.36,209.42,245.51.86,1.42.41,3.26-1,4.12-.49.3-1.03.44-1.56.44Z" fill="#2b2b2b"/><path d="M1360.83,1557.61c-9.75,0-18.63-1.46-26.61-4.38-.82-.29-1.65-.59-2.5-.9-3.63-1.3-7.38-2.64-11.48-4.37-1.53-.64-2.24-2.4-1.6-3.93.65-1.53,2.4-2.24,3.93-1.6,3.95,1.67,7.62,2.98,11.17,4.25.86.31,1.7.61,2.53.91,42.88,15.67,117.02-15.44,203.43-85.37.69-.55,1.38-1.1,2.05-1.66,50.71-40.96,88.8-69.43,113.24-84.64,7.27-4.54,20.09-5.87,29.81-3.08,1.59.46,2.51,2.12,2.06,3.71-.46,1.59-2.12,2.51-3.71,2.06-8.12-2.33-19.1-1.28-24.98,2.4-24.23,15.09-62.12,43.41-112.62,84.2-.67.55-1.38,1.12-2.08,1.68-41.49,33.57-81.79,59.29-116.54,74.36-25.11,10.89-47.22,16.35-66.09,16.35Z" fill="#2b2b2b"/><path d="M1410.49,993.5c-.63,0-1.27-.2-1.81-.61l-172.96-130.99-49.38-15.91c-1.58-.51-2.44-2.2-1.94-3.78.51-1.58,2.2-2.44,3.78-1.94l49.86,16.07c.32.1.62.26.89.46l173.37,131.3c1.32,1,1.58,2.88.58,4.2-.59.78-1.49,1.19-2.39,1.19Z" fill="#2b2b2b"/><path d="M1496.33,911.47c-.6,0-1.2-.18-1.73-.55l-2.38-1.68-205.26-144.01s-.06-.04-.09-.07c-7.72-5.86-16.81-10.33-27.01-13.29l-36.03-8.91c-1.61-.4-2.59-2.02-2.19-3.63.4-1.61,2.02-2.59,3.63-2.19l36.09,8.92s.08.02.12.03c10.92,3.16,20.67,7.96,28.98,14.26l205.22,143.99,2.39,1.68c1.35.96,1.68,2.83.72,4.18-.58.83-1.51,1.27-2.45,1.27Z" fill="#2b2b2b"/><path d="M532.71,1110.16c-38.02,0-94.38-33.78-140.86-61.63-10.52-6.3-20.46-12.26-29.11-17.14-1.44-.81-1.95-2.64-1.14-4.09.81-1.44,2.64-1.95,4.09-1.14,8.72,4.92,18.69,10.9,29.25,17.22,49.58,29.71,117.47,70.4,151.52,58.71,82.43-28.28,98.15-70.86,98.3-71.28.55-1.56,2.25-2.39,3.82-1.84,1.56.55,2.39,2.26,1.84,3.82-.65,1.85-16.86,45.76-102.02,74.98-4.76,1.63-10.02,2.38-15.69,2.38Z" fill="#2b2b2b"/><path d="M510.8,986.17c-.3,0-.6-.04-.89-.14l-128.22-39.87c-1.59-.47-2.49-2.14-2.02-3.73.47-1.59,2.14-2.49,3.73-2.02l.37.11,126.35,39.29,18.95-15.91c1.27-1.07,3.16-.9,4.23.37s.9,3.16-.37,4.23l-20.2,16.96c-.55.46-1.23.7-1.93.7Z" fill="#2b2b2b"/><path d="M351.97,1040.35c-1.07,0-2.1-.57-2.65-1.58-.78-1.46-.24-3.28,1.22-4.06,3.79-2.03,6.83-4.59,10.69-7.82l.82-.68c2.32-1.94,4.61-4.08,6.8-6.37,1.15-1.2,3.05-1.23,4.24-.09,1.2,1.15,1.24,3.04.09,4.24-2.34,2.45-4.79,4.74-7.28,6.82l-.81.68c-3.96,3.32-7.38,6.19-11.71,8.51-.45.24-.94.36-1.42.36Z" fill="#2b2b2b"/><path d="M524.53,418.06c-.97,0-1.75-.78-1.75-1.75,0-5.27,2.61-10.03,7.76-17.49,3.52-5.09,7.44-8.68,11.99-10.98,8.34-4.26,18.39-3.8,29.88,1.37.88.4,1.27,1.43.88,2.31-.4.88-1.43,1.28-2.31.88-10.47-4.71-19.5-5.19-26.86-1.44-4.03,2.03-7.52,5.25-10.7,9.85-5.4,7.84-7.14,11.61-7.14,15.5,0,.97-.78,1.75-1.75,1.75Z" fill="#2b2b2b"/><path d="M545.28,628.38c-.73,0-1.47-.27-2.04-.81-1.21-1.13-1.28-3.02-.15-4.24.41-.44,10.26-10.91,28.64-20.55,16.92-8.88,44.58-18.66,80.2-14.87,1.65.18,2.84,1.65,2.67,3.3s-1.65,2.82-3.3,2.67c-65.13-6.95-103.44,33.14-103.82,33.54-.59.63-1.39.95-2.19.95Z" fill="#2b2b2b"/><path d="M1300.63,384.53c-2.09,0-4.1-.95-5.43-2.64-1.75-2.22-1.98-5.14-.61-7.61,22.64-40.83,102.48-174.58,179.32-181.45,23.85-2.13,45.23,8.2,63.59,30.7,16.1,19.73,20.31,40.3,12.16,59.49-14.67,34.55-68.43,61.43-133.77,66.87-35.98,3-66.72,15.83-89.17,25.21-9.5,3.97-17.7,7.39-24.24,9.2,0,0,0,0,0,0-.61.17-1.23.25-1.85.25ZM1301.68,381.39h0,0ZM1479.89,198.55c-1.8,0-3.62.08-5.45.25-31.64,2.83-67.9,29.17-107.79,78.31-32.26,39.74-57.47,83.23-66.82,100.08-.24.43-.09.78.08.99.17.22.48.45.97.32h0c6.17-1.71,14.21-5.06,23.53-8.95,22.82-9.53,54.07-22.57,90.98-25.65,30.13-2.51,59.39-10.07,82.4-21.28,23.54-11.47,39.56-25.98,46.34-41.95,7.33-17.25,3.53-35.2-11.29-53.35-15.59-19.1-33.39-28.76-52.96-28.76Z" fill="#2b2b2b"/><path d="M1461.21,511.37c-15.51,0-33.52-7.09-50.02-20.19-21.13-16.78-43.8-29.7-55.27-33.79t0,0c-2.3-.82-3.77-2.93-3.74-5.37.03-2.43,1.53-4.5,3.84-5.26,25.57-8.61,105.03-27.6,133.63-2.76,9.23,8.02,12.5,19.66,9.71,34.62-2.83,15.14-10.87,25.59-23.26,30.22-4.56,1.71-9.58,2.54-14.88,2.54ZM1358.94,452.1c11.85,4.48,33.97,16.9,55.98,34.38,20.5,16.28,43.14,22.69,59.07,16.73,10.32-3.86,17.05-12.74,19.47-25.7,2.4-12.89-.13-22.38-7.75-28.99-24.25-21.06-95.13-6.86-126.77,3.58Z" fill="#2b2b2b"/><path d="M1595.01,420.26c-30.5,0-77.36-32.49-79.65-34.08-.87-.61-1.35-1.63-1.27-2.68.08-1.06.71-1.99,1.66-2.46,2.7-1.34,66.34-32.61,93.28-15.29,8.27,5.31,12.26,14.44,11.85,27.13-.4,12.32-4.71,20.63-12.83,24.69-3.77,1.89-8.2,2.71-13.04,2.71ZM1523.14,384.2c20.01,13.19,63.51,37.37,82.23,27.99,6.08-3.04,9.19-9.43,9.52-19.52.34-10.58-2.63-17.74-9.09-21.89-20.21-12.98-67.54,6.58-82.65,13.41Z" fill="#2b2b2b"/><path d="M941.21,279.44c-.23,0-.46-.03-.7-.08-1.02-.24-2.04-.48-3.06-.71-85.99-19.8-180.91-30.21-282.19-30.96-140.46-1.03-248.62,17.03-268.88,20.66-2.67.47-4.05.74-4.07.75-.89.18-1.83-.06-2.53-.65-.7-.59-1.09-1.47-1.06-2.38,1.08-36.05,24.9-64.13,25.92-65.31.39-.45.9-.77,1.47-.93.88-.25,1.77-.49,2.66-.73l2.2-.61h.02c82.6-22.26,190.38-23.03,320.34-2.27,100.17,16,180.48,39.72,202.7,46.61,3.06.95,4.66,1.46,4.66,1.46.9.29,1.62.99,1.92,1.89,1.23,3.63,2.18,7.29,2.81,10.86.84,4.54,1.24,9.12,1.19,13.59-.03,3.87-.43,6.22-.44,6.32-.14.82-.61,1.54-1.3,2-.5.33-1.07.5-1.65.5ZM643.66,241.64c3.86,0,7.74.01,11.66.04,101.65.75,196.94,11.2,283.23,31.05.03-.64.06-1.37.06-2.18.05-4.1-.32-8.28-1.09-12.46-.5-2.83-1.21-5.7-2.12-8.57-.76-.24-1.81-.57-3.14-.98-32.56-10.09-323.74-97.06-519.7-44.28l-2.2.61c-.58.16-1.15.32-1.72.48-3.42,4.26-21.43,27.94-23.71,57.16.13-.02.27-.05.41-.07,19.78-3.54,123.05-20.8,258.32-20.8Z" fill="#2b2b2b"/><path d="M1211.21,365.87c-1.07,0-2.06-.57-2.59-1.49-14.53-25-75.34-47.86-175.86-66.12-1.76-.33-3.48-.64-5.2-.94-47.61-8.46-86.31-12.61-86.7-12.65-1.65-.18-2.84-1.65-2.67-3.3.17-1.65,1.65-2.84,3.3-2.67.39.04,39.3,4.22,87.1,12.71,1.73.3,3.47.61,5.25.95,68.27,12.4,152.85,33.53,177.08,64.75,9.47-17.73,27.33-53.95,26.32-65.37-1.57-1.2-9.57-4.52-50.16-8.06-25.19-2.2-59.32-4.2-101.43-5.93-71.75-2.95-142.71-4.13-143.42-4.14-1.58-.03-2.87-1.28-2.95-2.86-.08-1.58,1.09-2.95,2.66-3.13,98.37-11.11,160.18-35.99,194.71-54.91,32.62-17.87,47.68-33.92,51.07-37.82-2.47-15.64-31.25-27.95-45.42-32.47-12.51,37.39-46.87,67.94-102.19,90.83-43.83,18.13-87,25.46-99.19,27.28-1.63.23-3.16-.89-3.41-2.53-.24-1.64.89-3.17,2.53-3.41,12.02-1.79,54.58-9.02,97.78-26.89,54.98-22.75,88.51-52.99,99.65-89.88.47-1.57,2.12-2.46,3.7-2.02,2.08.59,50.86,14.8,52.68,39.81.05.74-.17,1.47-.62,2.05-.59.77-14.97,19.01-53.21,40.05-30.39,16.71-81.56,37.99-159.62,50.69,28.49.68,69.41,1.82,110.11,3.54,43.12,1.82,77.59,3.92,102.44,6.24,45.31,4.23,49.59,8.18,50.18,12.2,2.34,15.93-26.04,68.05-29.28,73.94-.52.95-1.51,1.54-2.59,1.55h-.04Z" fill="#2b2b2b"/><path d="M616.09,505.12c.67,3.01-.99,6.15-4.02,7.64-8.24,4.07-25.17,11.67-40.75,13.86-3.07.44-7.14-.56-8.44-3.06-9.35-17.87-43.59-91.15-7.28-103.24,35.91-11.98,55.82,64.25,60.49,84.8Z"/><path d="M294.72,1121.77c-31.55,0-38.25-9.45-38.99-10.67l-.37-.62-4.19-61.51,5.99-.41,4.07,59.8c2.02,1.95,12.28,9.5,47.48,6.84,34.99-2.65,43.09-10.72,44.54-12.65l-7.08-98.11,5.98-.43,7.19,99.62-.19.57c-.76,2.26-6.73,13.71-49.99,16.98-5.31.4-10.12.58-14.45.58Z" fill="#2b2b2b"/><path d="M338.44,897.21l-18.53-256.89c-.37-5.18-3.67-8.79-9.29-10.16-25.85-6.32-53.8-2.34-70.04,4.4-10,4.16-10.98,9.27-10.7,13.26l15.36,225.63-5.99.41-15.36-225.63c-.58-8.54,4.26-15,14.39-19.21,15.88-6.6,44.73-11.78,73.76-4.69,8.12,1.98,13.3,7.8,13.85,15.56l18.53,256.89-5.98.43Z" fill="#2b2b2b"/><path d="M260.94,650.34c-27.3,0-32.85-7.67-33.46-8.68l2.99-1.81-1.5.91,1.47-.95c.06.1,6.94,9.51,45.07,6.4,37.99-3.1,42.93-12.62,42.98-12.72l3.24,1.33c-.46,1.18-5.67,11.59-45.93,14.87-5.55.45-10.49.65-14.86.65Z" fill="#2b2b2b"/><path d="M364.91,1009.16c-1.25,0-30.7-.23-47.97-20.6-10.56-12.45-14.12-29.57-10.59-50.89.03-.16.07-.32.12-.48.08-.23.18-.46.31-.67.88-1.41,2.73-1.83,4.13-.95,1.12.7,1.62,2.03,1.33,3.25-3.18,19.42-.06,34.84,9.28,45.85,15.49,18.27,43.11,18.48,43.39,18.48,1.66,0,3,1.34,3,3s-1.34,3-3,3Z" fill="#2b2b2b"/><path d="M287.91,958.53c-1.53,0-3.12-.2-4.78-.63-4.83-1.26-9.65-4.47-14.31-9.55-6.12-6.67-8.82-13.91-8.05-21.52,1.31-12.99,12.42-23.45,18.93-28.52,2.4-1.88,5.14-3.22,8.14-3.99l28.51-7.34c.23-.06.46-.09.69-.09,5.56-.1,14.75,1.96,19.71,4.4l.15.08c10.12,4.98,31.19,15.34,40.73,35.43.15.32,4.02,8.38,7.28,20.44.43,1.6-.51,3.25-2.11,3.68-1.6.43-3.25-.51-3.68-2.11-3.11-11.49-6.87-19.34-6.9-19.42-8.65-18.22-28.45-27.96-37.96-32.64l-.15-.08c-4.02-1.98-11.97-3.78-16.62-3.78l-28.16,7.24c-2.19.56-4.19,1.54-5.94,2.91-4.63,3.61-15.53,13.22-16.66,24.4-.59,5.83,1.6,11.51,6.5,16.86,3.86,4.21,7.7,6.83,11.4,7.8,12.63,3.29,21.6-14.51,21.98-15.27.73-1.49,2.53-2.09,4.02-1.36,1.49.73,2.09,2.53,1.36,4.02-1.05,2.12-9.86,19.04-24.09,19.04Z" fill="#2b2b2b"/><path d="M251,1051.82c-16.62,0-25.56-8.07-26.74-9.2-14.07-11.96-13.98-33.75-13.68-39.58-19.3-19.97-10.01-40.6-6.39-46.89-6.09-8.45-8.13-16.7-6.05-24.55,3.27-12.34,15.81-19.78,21.08-22.41-.02-.08-.05-.17-.07-.25-2.11-7.47-7.73-27.32,22.05-38.1,32.57-11.8,73.55,15.17,75.27,16.32,1.38.92,1.75,2.78.83,4.16-.92,1.38-2.78,1.75-4.16.83-.4-.27-40.19-26.43-69.9-15.67-24.52,8.88-20.49,23.15-18.32,30.82.4,1.41.68,2.42.76,3.33.1,1.3-.65,2.52-1.85,3.02-.16.07-16.6,6.97-19.9,19.5-1.7,6.45.4,13.52,6.25,20.99.83,1.06.85,2.54.06,3.62-.63.87-15.21,21.57,5.53,41.99.64.63.97,1.52.88,2.42-.02.24-2.12,24.4,11.56,35.93.07.06.13.12.2.18.67.66,17.06,16.27,50.03.51,1.5-.72,3.29-.08,4,1.41.71,1.5.08,3.29-1.41,4-11.85,5.67-21.87,7.62-30.03,7.62Z" fill="#2b2b2b"/><path d="M261.84,929.83c-.2,0-.4-.02-.61-.06-19.32-3.97-39.23-15.82-40.07-16.32-1.42-.85-1.88-2.69-1.03-4.12s2.69-1.88,4.12-1.03c.2.12,19.89,11.83,38.19,15.59,1.62.33,2.67,1.92,2.33,3.54-.29,1.42-1.54,2.4-2.94,2.4Z" fill="#2b2b2b"/><path d="M261,978.27c-19.95,0-50.58-17.32-54.67-19.69-1.43-.83-1.92-2.67-1.09-4.1.83-1.43,2.67-1.92,4.1-1.09,12.61,7.29,47.86,24.6,59.36,17.17,2.43-1.56,4.52-3.06,6.22-4.44,5.29-4.31,5.46-6.36,5.68-8.96.07-.83.15-1.76.36-2.78.35-1.62,1.94-2.66,3.56-2.31,1.62.34,2.66,1.94,2.31,3.56-.14.64-.19,1.32-.25,2.03-.34,4.08-1.13,7.63-7.87,13.12-1.88,1.52-4.15,3.15-6.75,4.83-2.92,1.89-6.69,2.68-10.95,2.68Z" fill="#2b2b2b"/><path d="M246.56,1011.45c-18.02,0-33.13-6.39-34.08-6.8-1.52-.66-2.22-2.42-1.56-3.94.66-1.52,2.42-2.22,3.94-1.56h0c.33.14,33.02,13.93,57.79.08.33-.19.67-.38,1-.58,6.39-3.8,9.79-8.04,10.12-12.62.59-8-8.05-15.13-8.13-15.2-1.28-1.05-1.48-2.93-.44-4.22,1.04-1.28,2.93-1.49,4.21-.44.46.37,11.14,9.14,10.34,20.27-.48,6.66-4.85,12.5-13.01,17.35-.36.22-.75.45-1.16.68-9.4,5.26-19.61,7-29.03,7Z" fill="#2b2b2b"/><path d="M279.74,1044.5c-.68,0-1.36-.23-1.93-.7-1.27-1.06-1.44-2.95-.37-4.22.1-.12,9.41-11.44,7.93-22.38-.66-4.88-3.47-9.07-8.34-12.45-1.36-.94-1.7-2.81-.76-4.17.94-1.36,2.81-1.7,4.17-.76,6.32,4.38,9.98,9.97,10.88,16.61,1.82,13.58-8.82,26.46-9.28,27.01-.59.71-1.44,1.07-2.3,1.07Z" fill="#2b2b2b"/></svg>