<?xml version="1.0" encoding="UTF-8"?><svg id="_レイヤー_31" xmlns="http://www.w3.org/2000/svg" width="1300" height="2000" viewBox="0 0 1300 2000"><path d="M671.89,776.02c-.55,0-1.11-.15-1.61-.47l-78.36-49.89c-1.4-.89-1.81-2.74-.92-4.14s2.74-1.81,4.14-.92l78.36,49.89c1.4.89,1.81,2.74.92,4.14-.57.9-1.54,1.39-2.53,1.39Z" fill="#2b2b2b"/><path d="M663.81,869.96c-.6,0-1.21-.18-1.74-.56l-86.92-61.85c-1.35-.96-1.67-2.83-.71-4.18.96-1.35,2.83-1.67,4.18-.71l86.92,61.85c1.35.96,1.67,2.83.71,4.18-.58.82-1.51,1.26-2.45,1.26Z" fill="#2b2b2b"/><path d="M484.23,1746.39c-1.45,0-2.72-1.05-2.96-2.52-.27-1.64.84-3.18,2.48-3.44,7.37-1.2,15.61-6.15,18.75-11.27,13.17-21.44,31.79-58.77,55.34-110.96.19-.42.39-.87.59-1.31l.38-.84c37.27-82.81,72.52-170.15,72.87-171.02.62-1.54,2.37-2.28,3.9-1.66,1.54.62,2.28,2.37,1.66,3.9-.35.87-35.64,88.32-72.96,171.23l-.39.86c-.19.42-.38.85-.57,1.27-23.66,52.44-42.4,90-55.71,111.65-4.01,6.54-13.86,12.59-22.9,14.06-.16.03-.32.04-.48.04Z" fill="#2b2b2b"/><path d="M669.5,1666.56s-.03,0-.04,0c-62.71-1.52-107.86-44.63-108.31-45.07-.69-.67-.71-1.78-.04-2.47.67-.69,1.78-.71,2.47-.04.44.43,44.66,42.6,105.96,44.08.97.02,1.73.83,1.71,1.79-.02.95-.8,1.71-1.75,1.71Z" fill="#2b2b2b"/><path d="M606.67,1810.66c-1.12,0-2.2-.63-2.71-1.72-3.51-7.4,1.31-24.93,2.79-29.22,15.54-45.11,37.37-78.61,60.48-114.08l1.06-1.63c26.88-41.28,54.68-83.96,72.11-149.13.06-.23.15-.45.26-.66l14.68-26.94c.69-1.5,2.48-2.16,3.98-1.47,1.5.69,2.16,2.48,1.47,3.98l-.06.14c-.03.06-.06.12-.09.18l-14.53,26.67c-17.69,65.9-46.96,110.85-72.79,150.51l-1.06,1.63c-22.9,35.15-44.53,68.36-59.84,112.76-2.47,7.17-4.95,20.67-3.04,24.69.71,1.5.07,3.29-1.43,4-.41.2-.85.29-1.28.29Z" fill="#2b2b2b"/><path d="M570.03,1907.11c-2.77,0-5.57-.47-8.28-1.43-110.17-39.23-203.12-86.87-228.99-100.53-5.2-2.75-9.52-6.85-12.5-11.86-3.89-6.53-5.35-14.28-4.11-21.82,0-.06.02-.12.03-.18h0c.31-1.81.73-3.47,1.28-5.07l.44-1.26c.11-.33.23-.65.34-.97,4.56-13.93,21.17-41.92,38.92-43.41,11.48-.96,24.57,3.76,37.23,8.33,8.48,3.06,16.5,5.95,22.88,6.63,12.56,1.33,36.82-.46,53.27-2.83,3.08-.45,5.18-.79,7.03-1.13,2.52-.46,5.09.36,6.88,2.17,1.78,1.8,2.56,4.37,2.07,6.85-.18.91-.26,1.84-.25,2.76-.02,20.62,39.35,48.1,114.63,60.82,1.38.23,2.77.62,4.14,1.17.78.31,1.54.68,2.27,1.08,7.89,4.41,11.89,13.64,9.73,22.44-7.09,28.9-15.21,50.43-24.12,63.98,0,0,0,0,0,.01-1.31,1.97-2.61,3.74-3.86,5.28-4.73,5.79-11.77,8.98-19.02,8.98ZM322.1,1772.22c0,.05-.01.11-.02.16-1.03,6.16.15,12.49,3.33,17.83,2.42,4.07,5.92,7.39,10.14,9.62,25.77,13.62,118.41,61.08,228.2,100.18,7.41,2.64,15.71.36,20.64-5.69,1.13-1.38,2.31-3,3.51-4.8,8.54-12.98,16.38-33.88,23.31-62.11,1.52-6.2-1.29-12.68-6.81-15.77-.5-.28-1.04-.53-1.59-.75-.95-.38-1.93-.66-2.89-.82-36.96-6.24-67.86-16.34-89.39-29.19-19.52-11.65-30.26-24.98-30.25-37.51-.01-1.3.11-2.64.36-3.94.15-.75-.22-1.26-.45-1.49-.19-.19-.72-.63-1.53-.48-2.41.45-5.02.84-7.26,1.17-16.82,2.42-41.72,4.24-54.76,2.86-7.11-.76-15.45-3.77-24.29-6.95-12.05-4.35-24.51-8.84-34.69-7.99-14.09,1.19-29.45,26.22-33.73,39.31-.12.37-.25.73-.38,1.09l-.45,1.28c-.42,1.21-.75,2.54-1.01,3.99ZM590.41,1891.19h0,0Z" fill="#2b2b2b"/><path d="M588.59,1893.16c-.3,0-.6-.04-.9-.14-164.3-51.84-268.67-117.87-269.7-118.53-1.4-.89-1.81-2.75-.91-4.14.89-1.4,2.75-1.8,4.14-.91,1.03.66,104.79,66.28,268.28,117.87,1.58.5,2.46,2.18,1.96,3.76-.4,1.28-1.59,2.1-2.86,2.1Z" fill="#2b2b2b"/><path d="M595.05,337.01c-.26,0-.53-.06-.78-.18-.86-.43-1.22-1.48-.79-2.34.15-.31,3.81-7.56,10.75-12.31.1-.08.29-.2.48-.32l.23-.15c7.76-4.92,20.33-7.13,36.37,10.15.66.71.62,1.82-.09,2.47-.71.66-1.82.62-2.47-.09-11.56-12.46-22.29-15.69-31.88-9.61-.06.04-.16.11-.27.18-.11.07-.21.13-.31.21-6.24,4.27-9.63,10.96-9.66,11.03-.31.61-.93.97-1.57.97Z" fill="#2b2b2b"/><path d="M796.78,1498.49c-8.41,0-15.01-.47-18.9-1.56-1.06-.29-1.87-1.14-2.12-2.21l-1.28-5.53-53.69-232.47c-.01-.06-.03-.12-.04-.18l-10.21-61.25c-.27-1.63.83-3.18,2.47-3.45,1.64-.28,3.18.83,3.45,2.47l10.19,61.16,54.53,236.09c18.16,3.44,84.8-2.79,135.03-11.06,12.09-1.98,22.48-4,30.05-5.82,38.76-9.35,76.68-22.75,95.83-29.91,7.88-2.94,13.72-5.25,16.75-6.46l-40.95-190.87c-.59-3.15-1.15-5.96-1.66-8.56-4.37-22.27-5.84-29.78,4.61-55.09,17.77-43.05,7.59-100.37,6.26-107.28-.16-.5-.88-2.42-1.63-4.33-.21-.56-.35-.9-.35-.92-.62-1.54.13-3.28,1.67-3.9,1.53-.62,3.28.13,3.9,1.67,0,0,.16.4.39,1,1.8,4.59,1.87,5.04,1.92,5.33,1.26,6.52,11.92,65.83-6.61,110.71-9.77,23.64-8.49,30.14-4.27,51.65.51,2.61,1.07,5.44,1.65,8.54l41.46,193.26c.3,1.42-.45,2.85-1.79,3.4-.07.03-7.39,3.04-19.25,7.47-19.28,7.21-57.46,20.7-96.53,30.12-7.71,1.86-18.25,3.9-30.48,5.91-35.67,5.87-89.94,12.09-120.41,12.09ZM1027.14,1076.54h0,0ZM1027.1,1076.37s0,.03.01.07c0-.02,0-.04-.01-.06,0,0,0,0,0,0Z" fill="#2b2b2b"/><path d="M547.45,914.59c-4.99,0-6.49-.95-7.41-1.53-1.4-.88-1.82-2.74-.94-4.14.88-1.4,2.73-1.82,4.14-.94,1.21.76,8.19,2.51,47.03-7.12,24.57-6.09,53.29-14.6,73.06-20.67,16.88-5.18,28.78-9.04,28.9-9.08,1.58-.51,3.27.35,3.78,1.92.51,1.58-.35,3.27-1.93,3.78-.12.04-12.07,3.92-29,9.11-78.04,23.95-106.51,28.65-117.64,28.65Z" fill="#2b2b2b"/><path d="M528.56,998.22c-1.28,0-2.51-.02-3.67-.07-7.39-.28-12.36-1.48-15.2-3.69-1.31-1.02-1.54-2.9-.53-4.21,1.02-1.31,2.9-1.54,4.21-.53,1.01.78,3.87,2.14,11.75,2.43,21.55.83,67.51-6.71,136.58-22.37,22-4.98,46.81-10.9,73.74-17.59,20.35-5.05,54.81-21.93,64.7-37.95.87-1.41,2.72-1.85,4.13-.98,1.41.87,1.85,2.72.98,4.13-11.1,17.99-47.47,35.44-68.36,40.62-26.97,6.7-51.82,12.63-73.86,17.62-66.9,15.18-110.99,22.58-134.47,22.58Z" fill="#2b2b2b"/><path d="M799.37,1465.36c-.95,0-1.73-.77-1.75-1.72-.01-.97.76-1.76,1.72-1.78,1.19-.02,120.36-2.25,234.06-42.9.91-.33,1.91.15,2.24,1.06s-.15,1.91-1.06,2.24c-114.27,40.86-234,43.09-235.19,43.11h-.03Z" fill="#2b2b2b"/><path d="M776.45,1491.73c-.06,0-.13,0-.19,0-5.6-.35-11.78-1.11-18.37-2.27-46.65-8.12-106.7-34.02-123.99-41.77-2.94-1.33-4.56-2.08-4.56-2.08-1.23-.57-1.92-1.9-1.69-3.23.43-2.48,42.83-248.83,49.13-347.7.11-1.65,1.53-2.9,3.18-2.8,1.65.11,2.91,1.53,2.8,3.18-5.99,94.07-44.49,320.81-48.81,346.07.66.3,1.47.67,2.41,1.09,17.12,7.67,76.59,33.32,122.57,41.33,6.37,1.12,12.33,1.86,17.71,2.19,1.65.1,2.91,1.53,2.81,3.18-.1,1.59-1.42,2.81-2.99,2.81Z" fill="#2b2b2b"/><path d="M972.89,1826.93c-.76,0-1.53-.29-2.11-.87-1.18-1.17-1.19-3.07-.02-4.24,5.17-5.22,9-14.25,8.54-20.14-1.95-25.07-8.85-66.21-20.49-122.29l-.48-2.31c-18.54-88.88-44.08-190.62-44.33-191.64-.4-1.61.57-3.24,2.18-3.64,1.61-.41,3.24.57,3.64,2.18.26,1.02,25.81,102.88,44.39,191.87l.48,2.32c11.7,56.33,18.63,97.72,20.6,123.04.6,7.65-3.81,18.32-10.26,24.83-.59.59-1.36.89-2.13.89Z" fill="#2b2b2b"/><path d="M980.53,1681.01c-10.42,0-16.91-.87-17.11-.9-.96-.14-1.62-1.02-1.49-1.98.14-.96,1.03-1.61,1.98-1.49.61.08,61.17,8.19,111.61-26.66.8-.55,1.88-.35,2.43.44.55.8.35,1.89-.45,2.43-35.06,24.22-74.87,28.15-96.98,28.15Z" fill="#2b2b2b"/><path d="M1109.71,1806.92c-.49,0-.98-.12-1.44-.37-7.14-3.91-13.68-21.21-14.92-25.28-13.95-45.57-16-85.48-18.16-127.73l-.1-2.04c-2.52-49.17-5.13-100.02-29.37-163.02-.09-.23-.15-.46-.18-.7l-4.84-38.42c-.21-1.64.96-3.14,2.6-3.35,1.64-.21,3.14.96,3.35,2.6l4.79,38.06c24.46,63.75,27.21,117.28,29.63,164.53l.1,2.04c2.15,41.87,4.17,81.41,17.91,126.29,2.2,7.25,8.13,19.62,12.06,21.77,1.45.79,1.99,2.62,1.19,4.07-.55,1-1.57,1.56-2.63,1.56Z" fill="#2b2b2b"/><path d="M882.13,1957.94c-4.3,0-8.56-.87-12.52-2.57-7.02-3.03-12.77-8.46-16.19-15.29l-.02-.04s-.02-.04-.03-.06h0c-.78-1.58-1.43-3.21-1.93-4.86l-.05-.14c-.06-.18-.12-.35-.16-.53l-.14-.49c-.11-.37-.22-.73-.33-1.09-4.51-13.98-7.51-46.39,5.95-58.01,8.59-7.41,21.55-9.59,34.09-11.69,9.07-1.52,17.63-2.95,23.32-6.23,10.99-6.34,29.55-22.05,41.43-33.61,1.95-1.89,3.59-3.54,5.02-5.05,1.76-1.85,4.31-2.71,6.82-2.3,2.51.41,4.65,2.02,5.72,4.32.39.84.87,1.64,1.42,2.4,12.09,16.68,60.09,15.77,128.48-18.22,2.09-1.03,4.28-1.69,6.51-1.96h0c8.97-1.09,17.63,4.03,21.06,12.44,11.27,27.56,17.36,49.74,18.12,65.93,0,.06,0,.12.01.18.09,2.28.08,4.42-.02,6.37-.58,10.32-7.67,19.23-17.64,22.18-94,27.69-184.82,39.93-228.47,45.82-6.16.83-11.47,1.55-15.88,2.18-1.52.22-3.04.33-4.56.33ZM858.77,1937.39c2.79,5.58,7.48,10.01,13.2,12.47,4.35,1.86,9.14,2.49,13.86,1.81,4.43-.63,9.76-1.35,15.93-2.18,43.5-5.86,134.01-18.07,227.57-45.63,7.54-2.23,12.91-8.96,13.35-16.75.09-1.72.1-3.63.02-5.68-.01-.13-.02-.24-.02-.32-.73-15.5-6.68-36.99-17.67-63.88-2.41-5.91-8.49-9.51-14.78-8.75h0c-1.55.19-3.09.65-4.56,1.38-33.55,16.68-64.49,26.69-89.46,28.95-22.65,2.04-39.17-2.41-46.53-12.57-.78-1.07-1.46-2.21-2.01-3.4-.32-.69-.92-.88-1.25-.94-.27-.04-.95-.08-1.51.51-1.49,1.56-3.18,3.26-5.19,5.21-12.14,11.81-31.2,27.92-42.61,34.51-6.63,3.82-15.71,5.34-25.33,6.95-11.72,1.96-23.85,4-31.16,10.31-10.69,9.23-8.39,38.51-4.17,51.62.13.4.26.82.38,1.24l.15.5s.02.06.03.1c.02.07.05.15.07.22l.08.25c.42,1.38.94,2.68,1.58,3.99v.03s.03.03.03.04h0ZM1148.61,1880.47s0,0,0,0c0,0,0,0,0,0ZM1148.61,1880.46s0,0,0,0c0,0,0,0,0,0ZM1109.87,1805.51h0,0Z" fill="#2b2b2b"/><path d="M856.52,1941.51c-1.63,0-2.97-1.31-3-2.95-.03-1.66,1.29-3.02,2.95-3.05,1.22-.02,123.67-2.69,286.17-57.08,1.57-.52,3.27.32,3.8,1.89.53,1.57-.32,3.27-1.89,3.8-163.44,54.71-286.75,57.37-287.97,57.39h-.05Z" fill="#2b2b2b"/><path d="M749.82,1462.97s-.06,0-.08,0c-13.55-.65-97.05-35.03-100.6-36.49-.89-.37-1.32-1.39-.95-2.29.37-.9,1.39-1.32,2.28-.95,29.86,12.32,89.07,35.74,99.43,36.23.97.05,1.71.87,1.66,1.83-.04.94-.82,1.67-1.75,1.67Z" fill="#2b2b2b"/><path d="M664.14,884.95s-.06,0-.09,0c-1.66-.05-2.96-1.43-2.92-3.08.13-4.6.31-9.51.56-15,1.3-28.7,4.04-60.36,8.13-94.09,6.92-57.02,15.44-100.97,15.53-101.4,0-.05.02-.09.03-.14.51-2.11,12.96-51.93,43.74-75.7,1.31-1.01,3.2-.77,4.21.54,1.01,1.31.77,3.2-.54,4.21-28.63,22.1-41.05,70.27-41.56,72.31-.4,2.06-8.69,45.22-15.45,100.9-4.08,33.59-6.8,65.09-8.1,93.64-.24,5.46-.43,10.33-.55,14.9-.05,1.63-1.38,2.92-3,2.92Z" fill="#2b2b2b"/><path d="M773.15,1106.86c-32.03,0-63.83-2.15-90.33-8.12-1.26-.28-2.56-.63-3.95-1.07-.08-.03-.16-.06-.24-.09-11.54-3.75-21.73-12.13-29.49-24.25-10.76-16.81-4.12-40.36,2.92-65.28,3.09-10.96,6.29-22.3,7.94-33.08.25-1.64,1.78-2.76,3.42-2.51,1.64.25,2.76,1.78,2.51,3.42-1.7,11.14-4.95,22.66-8.1,33.8-6.66,23.59-12.95,45.88-3.64,60.42,7.05,11.01,16.21,18.57,26.5,21.85.08.02.15.05.23.08,1.12.35,2.17.63,3.2.86,99.53,22.45,285.73-7.13,343.28-24.69,1.9-.58,3.41-1.06,4.76-1.52,2.94-.99,5.47-1.95,7.53-2.85,16.76-7.35,19.8-35.17,20.12-51.11.45-22.3-3.83-48.86-10.39-64.6-.99-2.36-2.16-4.97-3.52-8-10.56-23.49-30.23-67.22-40.49-168.53-1.48-14.49-3.94-28.55-7.31-41.78-22.25-87.46-50.32-138.93-85.82-157.34-2.97-1.54-6.17-2.62-9.51-3.19-2.74-.48-5.5-.62-8.2-.4-70.57,5.23-145.93,46.4-146.68,46.81-.13.07-.27.13-.41.19-4.3,1.59-7.77,2.31-10.59,2.19-3.93-.14-6-1.93-7.04-3.41-2.03-2.88-2.14-7.27-.32-13.05.5-1.58,2.18-2.46,3.76-1.96,1.58.5,2.46,2.18,1.96,3.76-1.72,5.45-.82,7.34-.5,7.79.14.2.57.81,2.37.87,1.96.08,4.67-.5,8.07-1.75,4.48-2.43,78.88-42.24,148.92-47.43,3.19-.25,6.45-.09,9.68.47,3.94.68,7.73,1.95,11.25,3.77,37.11,19.24,66.18,71.97,88.87,161.18,3.44,13.51,5.96,27.87,7.47,42.66,10.16,100.34,29.56,143.49,39.99,166.67,1.38,3.06,2.57,5.71,3.59,8.15,6.85,16.42,11.32,43.98,10.86,67.03-.6,29.98-9.02,50.04-23.72,56.49-2.22.97-4.91,1.99-8.01,3.03-1.4.48-2.97.98-4.93,1.58-28.57,8.72-88.85,20.65-159.11,27.66-28.47,2.84-62.81,5.27-96.9,5.27Z" fill="#2b2b2b"/><path d="M864.55,929.08c-19.17,0-43.42-5.22-62.64-10.36-18.92-5.05-39.29-11.72-58.91-19.29-20.53-7.92-38.65-16.24-51.02-23.43-6.7-3.87-11.66-7.38-14.73-10.41-.84-.83-1.12-2.09-.7-3.2l77.4-204.37c.59-1.55,2.32-2.33,3.87-1.74,1.55.59,2.33,2.32,1.74,3.87l-76.68,202.47c2.77,2.38,6.9,5.19,12.1,8.19,12.11,7.04,29.93,15.21,50.17,23.02,19.42,7.49,39.58,14.09,58.3,19.09,33.93,9.07,60.42,12.17,75.04,8.83,4.52-21.9,47.08-233.16,20.33-283.24-.78-1.46-.23-3.28,1.23-4.06,1.46-.78,3.28-.23,4.06,1.23,29.11,54.48-18.1,279.57-20.13,289.13-.23,1.09-1.04,1.96-2.11,2.26-4.93,1.4-10.84,2-17.33,2Z" fill="#2b2b2b"/><path d="M862.76,900.18c-.09,0-.18,0-.27-.02-.84-.13-84.35-13.16-148.42-47.29-.85-.46-1.18-1.51-.72-2.37.45-.85,1.51-1.18,2.37-.72,63.54,33.84,146.48,46.79,147.31,46.92.96.15,1.61,1.04,1.47,1.99-.13.87-.88,1.49-1.73,1.49Z" fill="#2b2b2b"/><path d="M733.54,638.83c-13.59,0-18.97-9.22-19.04-9.35-.81-1.45-.3-3.27,1.15-4.08,1.44-.81,3.25-.3,4.07,1.13.31.53,7.33,11.87,28.25,2.89,4.87-2.09,11.61-5.71,19.41-9.89,30.04-16.12,80.33-43.1,127.37-38.31,1.65.17,2.85,1.64,2.68,3.29-.17,1.65-1.64,2.85-3.29,2.68-45.22-4.59-94.49,21.84-123.93,37.63-7.93,4.25-14.77,7.93-19.88,10.12-6.62,2.84-12.18,3.91-16.79,3.91Z" fill="#2b2b2b"/><path d="M652.27,605.15c-30.1,0-51.25-13.31-64.35-25.59-18.95-17.76-29.58-40.94-33.21-56.71-2.33-10.1-8.33-18.76-16.91-24.4-.08-.05-.16-.11-.23-.17l-25.77-20.77c-.66-.53-1.06-1.32-1.11-2.17-.05-.85.27-1.67.86-2.28,18.01-18.23,32.16-45.63,23.17-65.75-.87-1.94-2.7-4.88-4.81-8.29-4.51-7.25-10.12-16.28-11.96-24.29-.37-1.61.64-3.22,2.25-3.6,1.62-.37,3.22.64,3.6,2.25,1.62,7.03,6.94,15.59,11.21,22.46,2.23,3.59,4.16,6.69,5.2,9.01,8.64,19.31-.03,46.53-22.08,70.02l23.11,18.62c9.81,6.49,16.67,16.43,19.34,27.99,3.43,14.91,13.5,36.84,31.46,53.68,14.52,13.61,39.65,28.59,76.89,22.59,17.92-2.37,34.62-6.9,49.7-13.5l.68-.3c.54-.24,1.08-.48,1.61-.72,58.46-26.64,75.35-77.09,75.51-77.6.51-1.58,2.2-2.44,3.78-1.93,1.58.51,2.44,2.2,1.94,3.77-.7,2.17-17.77,53.44-78.71,81.21-.55.25-1.12.51-1.7.76l-.68.3c-15.62,6.83-32.86,11.52-51.25,13.95-6.14.99-11.98,1.44-17.51,1.44Z" fill="#2b2b2b"/><path d="M775.87,422.01c-.07,0-.14,0-.21,0-1.38-.09-2.51-1.11-2.75-2.47-1.73-9.8-11.77-30.26-49.79-72.1-50.77-55.9-122.58-118.32-123.3-118.94-1.25-1.09-1.39-2.98-.3-4.23,1.09-1.25,2.98-1.39,4.23-.3.72.63,72.79,63.28,123.81,119.44,25.24,27.78,41.34,49.6,48.05,65.06,3.63-14.89,9.49-45.3,7.03-78.73-3.7-50.13-27.07-114.5-117.44-136.45-1.61-.39-2.6-2.01-2.21-3.62s2.02-2.6,3.62-2.21c93.88,22.8,118.17,89.72,122.01,141.84,3.55,48.17-9.77,90.22-9.91,90.64-.4,1.25-1.56,2.08-2.85,2.08Z" fill="#2b2b2b"/><path d="M800.81,492.88c-1.56,0-2.88-1.21-2.99-2.79-.11-1.65,1.14-3.08,2.79-3.2,8.58-.59,17.06-4.78,25.21-12.47.2-.19.41-.39.6-.58,8.92-8.62,17.57-21.66,25.05-37.75.66-1.42,1.3-2.88,1.9-4.34,6.91-16.61,10.04-34.12,9.31-52.06-1.62-39.43-13.21-60.11-34.45-61.48-19.01-1.22-39.31,13.49-39.52,13.64-1.33.98-3.21.69-4.19-.64-.98-1.33-.69-3.21.64-4.19.9-.66,22.25-16.16,43.46-14.79,17.06,1.1,37.86,13.65,40.06,67.22.77,18.81-2.52,37.19-9.76,54.6-.63,1.53-1.31,3.06-2,4.56-7.89,16.99-16.74,30.28-26.29,39.51-.2.2-.44.42-.68.65-9.19,8.68-18.92,13.42-28.93,14.11-.07,0-.14,0-.21,0Z" fill="#2b2b2b"/><path d="M813.69,459.16c-.39,0-.78-.13-1.11-.39-.75-.61-.86-1.71-.25-2.46,31.14-38.16,31.15-71.53,29.71-84.11-1.39-12.17-5.82-21.94-12.14-26.83-16.54-12.79-35.97,7.36-36.17,7.56-.67.7-1.77.73-2.47.07s-.73-1.77-.07-2.47c.22-.23,21.83-22.62,40.85-7.92,7.06,5.46,11.97,16.1,13.48,29.2,1.49,13.02,1.51,47.53-30.48,86.72-.35.42-.85.64-1.36.64Z" fill="#2b2b2b"/><path d="M568.83,551.77h-.1c-1.66,0-2.99-1.36-2.99-3.01,0-1.65,1.35-2.99,3-2.99h.02c.59,0,22.97-.08,48.91-8.4,34.79-11.15,59.16-31.02,72.44-59.05.71-1.5,2.5-2.13,4-1.43,1.5.71,2.14,2.5,1.43,4-13.84,29.22-40.19,50.75-76.2,62.25-26.44,8.45-48.65,8.63-50.51,8.63Z" fill="#2b2b2b"/><path d="M737.08,616.59c-1.35,0-2.58-.92-2.91-2.3l-.29-1.2c-.75-3.16-1.46-6.15-3.12-9.75-.62-1.33-1.32-2.64-2.14-4.01-2.12-3.52-4.95-7.23-8.66-11.34-1.08-1.18-1.06-3.02.08-4.16,1.17-1.17,3.05-1.19,4.23-.02.04.04.1.11.14.14,3.97,4.41,7.03,8.42,9.36,12.29.93,1.55,1.73,3.05,2.45,4.59,1.91,4.16,2.73,7.58,3.51,10.88l.28,1.17c.39,1.61-.6,3.23-2.21,3.62-.24.06-.47.08-.71.08Z" fill="#2b2b2b"/><path d="M540.9,389.88c-.53,0-1.06-.14-1.54-.43-7.07-4.23-13.84-8.64-20.12-13.1-39.7-28.24-61.39-60.02-64.48-94.47-4.09-45.61,25.7-79.95,30.88-85.54.67-4.68,4.35-23.74,22.07-47.46,18.28-24.47,55.74-58.77,130.38-83.26,88.66-29.08,158.29-31.2,212.86-6.48,49.21,22.29,86.89,65.85,118.57,137.08l.05.12c.08.18.16.36.23.55.58,1.55-.21,3.28-1.76,3.86-1.55.58-3.28-.21-3.86-1.76-.03-.08-.06-.15-.09-.22l-.06-.13c-31.04-69.8-67.76-112.39-115.56-134.04-53.14-24.07-121.35-21.87-208.51,6.72-72.86,23.9-109.36,57.1-127.15,80.75-19.2,25.52-21.32,45.69-21.33,45.89-.06.68-.36,1.33-.84,1.82-.34.35-34.06,35.55-29.9,81.62,2.95,32.6,23.8,62.89,61.97,90.05,4.27,3.03,8.77,6.04,13.44,8.99-5.4-21.96-19.64-87.36-5.73-116.07.44-.9,1.3-1.53,2.29-1.66,1-.14,1.99.23,2.65.98.29.33,29.61,33.11,71.35,57.33,42.49,24.63,82.11,31.87,117.78,21.51.05-.01.09-.03.14-.04.13-.03.26-.07.39-.11l.3-.09c1.59-.45,3.25.49,3.7,2.08s-.49,3.25-2.08,3.7l-.23.07c-.2.06-.4.12-.6.17-37.29,10.81-78.47,3.38-122.4-22.1-34.54-20.04-60.74-45.83-69.59-55.06-11.98,34.72,9.44,114.11,9.67,114.94.32,1.18-.1,2.44-1.08,3.18-.53.4-1.17.61-1.81.61Z" fill="#2b2b2b"/><path d="M903.28,569.33c-.87,0-1.73-.38-2.33-1.11-.73-.9-18.02-22.43-23.61-54.94-.02-.1-.03-.19-.04-.29-.11-1.58-.26-3.15-.41-4.71-.89-9.57-1.82-19.46,4.84-28.23,6.88-9.04,15.26-18.48,24.96-29.4,9.13-10.29,19.49-21.95,30.13-35.11,1.04-1.29,2.93-1.49,4.22-.45,1.29,1.04,1.49,2.93.45,4.22-10.73,13.27-21.14,24.99-30.31,35.32-9.62,10.84-17.93,20.19-24.67,29.05-5.25,6.91-4.47,15.23-3.65,24.04.15,1.56.29,3.12.41,4.69,5.34,30.82,22.16,51.82,22.33,52.03,1.04,1.29.85,3.17-.44,4.22-.56.45-1.23.67-1.89.67Z" fill="#2b2b2b"/><path d="M879.31,515.84c-.87,0-1.73-.38-2.32-1.1-21.13-25.8-48.56-35.25-48.83-35.34-1.57-.53-2.41-2.23-1.89-3.8s2.22-2.42,3.8-1.89c1.19.4,29.3,10.04,51.57,37.23,1.05,1.28.86,3.17-.42,4.22-.56.46-1.23.68-1.9.68Z" fill="#2b2b2b"/><path d="M1059.8,501.83c-.26,0-.51-.03-.77-.1-.65-.17-65.7-17.99-121.86-82.57-14.19-16.3-26.81-34.45-37.53-53.94-1.87-3.41-3.73-6.96-5.69-10.85-9.33-18.64-13.83-39.12-13.02-59.23l.13-2.62c.95-15.66,7.34-30.66,18.01-42.25h0c3.88-4.22,8.27-7.95,13.05-11.07,16.22-10.61,35.13-24.11,52.42-43.75,9.55-10.86,17.92-22.84,24.87-35.61.54-1,1.61-1.62,2.74-1.56,1.14.04,2.15.72,2.62,1.75.86,1.88,20.13,44.85,9.76,86.84,10.37-3.15,34.44-9.73,60.28-11.78,46.17-3.65,77.05,8.75,89.32,35.86.4.88.35,1.9-.14,2.74-.48.84-1.34,1.39-2.31,1.48-13.08,1.28-47.08,7.41-51.06,20.44,5.53,10.29,46.6,88.11,51.45,135.52.11,1.07-.37,2.12-1.24,2.75-.88.62-2.03.73-3,.28-.24-.11-23.95-11.11-48.51-20.7-36.64-14.31-47.94-14.85-51.27-14.26,2.07,6.23,7.73,23.81,12.21,42.47,7.77,32.35,8.36,51.69,1.79,59.13-.58.65-1.4,1.02-2.25,1.02ZM991.58,168.2c-6.51,11.12-14.07,21.6-22.54,31.22-17.77,20.17-37.09,33.97-53.64,44.8-4.36,2.85-8.37,6.26-11.92,10.11h0c-9.74,10.58-15.58,24.26-16.44,38.53l-.13,2.55c-.76,19.07,3.52,38.54,12.39,56.27,1.92,3.82,3.75,7.31,5.58,10.65,10.51,19.11,22.89,36.91,36.79,52.89,49.48,56.89,105.68,76.62,116.88,80.11,7.15-13.52-6.33-65.57-17-96.56-.34-.98-.15-2.06.51-2.87,3.41-4.21,13.1-6.09,59.07,11.83,18.18,7.09,35.94,14.97,44.28,18.74-7.47-49.19-50.18-128.19-50.63-129.01-.33-.61-.44-1.31-.31-1.98,3.32-17.75,39.14-24.05,52.3-25.77-30.33-54.59-144.48-15.87-145.66-15.46-1.07.37-2.26.11-3.07-.68-.81-.79-1.11-1.96-.78-3.05,10.24-32.91-.67-68.72-5.71-82.33ZM901.27,252.31h.01-.01Z" fill="#2b2b2b"/><path d="M903.05,366.2c-.4,0-.79-.13-1.12-.41-.24-.2-.49-.42-.73-.63l-.08-.07c-25.73-22.37-37.89-44.33-36.13-65.26,2.19-26.1,25.47-42.98,35.37-49.03,2.55-1.55,4.15-2.35,4.21-2.38.87-.43,1.92-.08,2.35.79.43.87.08,1.92-.79,2.35-.02,0-1.55.77-3.95,2.23-9.45,5.77-31.65,21.83-33.71,46.33-1.66,19.75,10.1,40.72,34.94,62.33l.08.07c.22.19.45.39.67.58.74.62.84,1.72.22,2.46-.35.42-.84.63-1.34.63Z" fill="#2b2b2b"/><path d="M463.14,786.08c-11.02,0-30.07-13.71-40.43-23.16-4.54-4.13-3.6-26.83-3.2-33.69.42-7.13,4.23-13.7,10.19-17.58l15.82-10.13c1.4-.89,3.25-.49,4.14.91s.49,3.25-.91,4.14l-15.8,10.11c-4.35,2.83-7.15,7.66-7.45,12.89-.81,14.08.05,26.83,1.36,29,13.5,12.3,29.96,21.92,36.7,21.49,4.35-.28,6.14-1.26,6.57-1.7.43-1.34,1.77-2.24,3.22-2.05,1.64.2,2.81,1.7,2.61,3.34-.16,1.33-1.52,5.72-12.01,6.4-.26.02-.53.03-.81.03ZM470,778.92s0,0,0,0c0,0,0,0,0,0ZM470,778.92s0,0,0,0c0,0,0,0,0,0ZM470,778.91h0ZM426.9,758.64h0,0ZM426.75,758.48h0s0,0,0,0Z" fill="#2b2b2b"/><path d="M466.17,758.05c-.97,0-1.92-.47-2.5-1.34-1.32-1.98-6.35-5.03-9.51-6.57-.85-.41-1.45-1.2-1.63-2.13-.18-.93.09-1.89.73-2.58,2.17-2.39,1.11-7.25.52-8.92-.45-1.26,0-2.67,1.08-3.45,5.81-4.16,13.04-6.29,13.35-6.38,1.59-.46,3.26.45,3.72,2.04.46,1.59-.45,3.25-2.04,3.72h0c-.06.02-5.2,1.54-9.82,4.36.5,2.35.92,6.09-.39,9.46,2.94,1.65,7.15,4.35,9,7.12.92,1.38.55,3.24-.83,4.16-.51.34-1.09.5-1.66.5Z" fill="#2b2b2b"/><path d="M479.01,780.68c-2.22,0-4.28-.21-6.21-.64-6.36-1.41-10.77-5.09-13.11-10.94-6.24-15.53,20.66-27.27,35.11-33.58,2.81-1.23,6-2.62,6.65-3.12,3.71-3.12,16.02-14.31,16.15-14.42,1.23-1.12,3.12-1.02,4.24.2,1.11,1.23,1.02,3.12-.2,4.24-.51.46-12.52,11.37-16.34,14.59-1.13.95-3.3,1.91-8.09,4-10.78,4.7-36.01,15.72-31.94,25.84,1.58,3.96,4.48,6.35,8.84,7.32,2.45.54,5.38.64,8.7.28l.14-.02c.11-.01.21-.03.31-.03,1.77-.2,3.42-.5,4.74-.74.53-.1,1-.18,1.39-.25,3.91-.62,23.98-6.88,31.38-9.24,1.58-.5,3.27.37,3.77,1.95.5,1.58-.37,3.27-1.95,3.77-2.77.88-27.2,8.65-32.25,9.45-.35.06-.78.14-1.27.22-1.34.25-3.18.58-5.24.81h-.13c-.1.03-.21.04-.32.05-1.52.17-2.97.25-4.36.25Z" fill="#2b2b2b"/><path d="M551.58,787.54c-9.86,0-22.94-3.06-35.21-15.57-1.16-1.18-1.14-3.08.04-4.24,1.18-1.16,3.08-1.14,4.24.04,21,21.41,44.17,11.58,44.41,11.48,1.52-.66,3.29.02,3.95,1.54.67,1.52-.02,3.29-1.54,3.95-.13.06-6.57,2.79-15.89,2.79Z" fill="#2b2b2b"/><path d="M465.4,802.12c-3.55,0-7.12-.3-10.52-.93-2.6-.47-5.13-1.16-7.49-2.04-2.21-.82-4.38-2.08-6.45-3.74-1.56-1.23-3.11-2.75-4.72-4.63-9.49-11.22-14.19-28.56-14.39-29.3-.43-1.6.52-3.24,2.12-3.67,1.6-.43,3.24.52,3.67,2.12.04.17,4.56,16.79,13.16,26.95,1.35,1.57,2.63,2.83,3.9,3.84,1.58,1.27,3.19,2.21,4.79,2.8,2.04.76,4.22,1.35,6.49,1.76,14.21,2.66,28.92-1.29,31.9-5.24,1.79-2.38,1.23-4.69.73-5.85-.94-2.22-2.96-3.68-4.91-3.57h-.06s-.23.03-.23.03c-1.65.15-3.1-1.09-3.24-2.74-.14-1.65,1.09-3.1,2.74-3.24.19-.02.36-.04.51-.04,4.48-.25,8.79,2.66,10.72,7.21,1.69,3.94,1.15,8.37-1.46,11.82-3.89,5.15-15.44,8.46-27.26,8.46ZM483.54,780.63h-.02.02Z" fill="#2b2b2b"/><path d="M478.69,804.32c-10.07,0-20.54-2.12-23.96-2.88-1.62-.36-2.64-1.96-2.28-3.58.36-1.62,1.96-2.64,3.58-2.28,13.99,3.09,35.8,4.59,38.19-2.01.27-.72.43-1.35.54-1.82.41-1.81.28-3.23-.39-4.19-.99-1.43-3.01-1.72-3.03-1.73-1.63-.22-2.79-1.72-2.58-3.35.21-1.63,1.66-2.8,3.3-2.61.47.05,4.67.63,7.19,4.18,1.71,2.41,2.17,5.46,1.36,9.05-.16.68-.38,1.54-.76,2.54-2.45,6.77-11.62,8.67-21.16,8.67Z" fill="#2b2b2b"/><path d="M593.53,726.13c-.5,0-1-.12-1.47-.39-.93-.52-93.37-52.46-113.42-55.66-20.03-3.2-89.74,11.79-90.44,11.94-2.24.53-8.69,2.84-11.09,7.01-1.08,1.88-1.25,3.98-.51,6.4,2.55,8.42,10.87,11.21,26.96,9.05,6.51-.87,19.33-1.98,30.64-2.96,4.56-.4,8.92-.77,12.6-1.11,3.09-.29,5.79-.55,7.65-.77,5.7-.69,19.15,3.82,20.67,4.33,1.57.54,2.41,2.24,1.87,3.81-.53,1.57-2.24,2.41-3.81,1.87-5.22-1.78-14.73-4.46-18.01-4.06-1.93.23-4.68.49-7.81.79-3.7.34-8.07.72-12.64,1.11-11.25.97-23.99,2.08-30.36,2.93-7.75,1.04-28.33,3.8-33.5-13.25-1.23-4.04-.87-7.8,1.07-11.16,4.21-7.28,14.53-9.75,14.97-9.85,2.95-.64,71.56-15.38,92.7-12.01,21.1,3.37,111.58,54.2,115.42,56.36,1.44.81,1.96,2.64,1.14,4.09-.55.98-1.57,1.53-2.62,1.53Z" fill="#2b2b2b"/><path d="M548.97,815.26c-8.84,0-17.99-1.83-27.26-5.51-15.03-5.96-24.97-14.55-25.38-14.91-1.25-1.09-1.38-2.98-.29-4.23,1.09-1.25,2.98-1.38,4.23-.29.42.36,38.12,32.51,75.18,12.16,1.45-.79,3.28-.27,4.07,1.19.8,1.45.27,3.28-1.19,4.07-9.13,5.01-19.03,7.52-29.36,7.52Z" fill="#2b2b2b"/><path d="M462.28,752.19c-.98,0-1.94-.48-2.51-1.36-.91-1.39-.52-3.25.87-4.15l8.46-5.53c1.39-.91,3.25-.52,4.15.87.91,1.39.52,3.25-.87,4.15l-8.46,5.53c-.51.33-1.08.49-1.64.49Z" fill="#2b2b2b"/><path d="M351.5,850.46c-.77,0-1.54-.3-2.13-.89-88.58-89.3-194.99-196.67-198.91-201.06-.72-.79-1.41-1.71-2.08-2.79-4.69-7.76-3.39-17.79,3.16-24.41l6.82-7.02c1.15-1.19,3.05-1.22,4.24-.06,1.19,1.15,1.22,3.05.06,4.24l-6.83,7.04c-4.63,4.69-5.58,11.7-2.33,17.08.46.74.92,1.37,1.41,1.9,3.02,3.38,73.58,74.7,198.72,200.86,1.17,1.18,1.16,3.08-.02,4.24-.58.58-1.35.87-2.11.87Z" fill="#2b2b2b"/><path d="M397.43,845.8c-.45,0-.9-.17-1.24-.52l-208.01-209.73c-.39-.4-.57-.96-.48-1.51.09-.55.44-1.03.94-1.28l46.72-23.57c.67-.34,1.48-.21,2.01.31l237.16,232.08c.69.68.7,1.78.03,2.47-.68.69-1.78.7-2.48.03l-236.26-231.2-43.45,21.92,206.31,208.02c.68.69.68,1.79-.01,2.47-.34.34-.79.51-1.23.51Z" fill="#2b2b2b"/><path d="M429.15,877.8c-.45,0-.9-.17-1.24-.52l-8.1-8.18c-.68-.69-.68-1.79.01-2.47.69-.68,1.79-.68,2.48.01l8.1,8.18c.68.69.68,1.79-.01,2.47-.34.34-.79.51-1.23.51Z" fill="#2b2b2b"/><path d="M412.15,880.83c-.77,0-1.54-.29-2.12-.88-87.25-87.41-235.14-235.8-245.24-247.61-5.57-6.52-7.73-11.93-6.62-16.54,1.12-4.61,5.3-6.82,7.79-7.47l48.78-19.42c5.73-2.28,12.11-2.47,17.96-.54,5.23,1.72,8.58,3.38,10.48,4.47,1.06.61,2.05,1.36,2.93,2.23,10.85,10.68,121.66,119.83,194.5,191.62,1.45,1.41,2.9,2.84,4.33,4.26,33.56,33.05,58.69,57.83,61.81,60.9,4.21,4.16,7.15,8.9,8.73,14.1.6,1.95.89,4.01.83,6.11-.04,1.66-1.39,2.97-3.07,2.93-1.66-.04-2.97-1.42-2.93-3.07.04-1.45-.16-2.86-.57-4.2-1.29-4.25-3.72-8.14-7.21-11.59-3.12-3.07-28.25-27.85-61.81-60.91-1.42-1.41-2.85-2.82-4.31-4.24-72.85-71.8-183.66-180.95-194.51-191.63-.52-.51-1.08-.94-1.71-1.3-1.35-.78-4.37-2.32-9.36-3.97-4.52-1.49-9.44-1.34-13.87.42l-48.97,19.5c-.15.06-.29.1-.45.14,0,0-2.97.76-3.53,3.09-.35,1.45-.12,4.83,5.35,11.23,10.34,12.09,174.73,176.95,244.92,247.27,1.17,1.17,1.17,3.07,0,4.24-.59.58-1.35.88-2.12.88Z" fill="#2b2b2b"/><path d="M515.62,998.68c-100.71,0-113.18-36.45-113.67-38.04-.49-1.58.4-3.26,1.98-3.75,1.58-.49,3.26.4,3.75,1.98.02.06,3.13,8.94,18.86,17.51,14.76,8.04,43.82,17.38,98.38,16.21,1.67-.08,3.03,1.28,3.06,2.93.04,1.66-1.28,3.03-2.94,3.06-3.22.07-6.37.1-9.43.1Z" fill="#2b2b2b"/><path d="M543.92,923.11c-1.29,0-2.48-.83-2.87-2.13-.88-2.9-1.97-5.85-3.24-8.76-5.48-12.53-14.63-25.15-27.2-37.49-12.87-12.63-25.93-21.55-30.85-24.9l-1.01-.69c-.41-.28-1.87-1.1-6.62-2.61-12.81-4.12-38.33-9.84-57.5-13.91-3.5-.74-6.92.07-9.63,2.29-2.77,2.26-4.41,5.67-4.39,9.13.02,2.26.75,4.49,2.12,6.42,3.22,4.56,8.48,8.63,15.62,12.1,1.4.68,2.73,1.31,4.02,1.92,13.01,6.1,19.9,8.24,23.38,8.97,1.62.34,2.66,1.93,2.32,3.55-.34,1.62-1.93,2.66-3.55,2.32-5.52-1.15-13.84-4.32-24.71-9.41-1.31-.62-2.66-1.26-4.08-1.95-8.07-3.92-14.09-8.64-17.91-14.04-2.08-2.94-3.19-6.34-3.22-9.84-.03-5.26,2.43-10.43,6.59-13.82,4.15-3.38,9.35-4.63,14.67-3.51,19.3,4.11,45.04,9.88,58.08,14.07,5.47,1.74,7.3,2.77,8.2,3.39l.99.68c5.04,3.44,18.41,12.58,31.66,25.58,13.12,12.89,22.71,26.13,28.5,39.37,1.36,3.12,2.54,6.29,3.49,9.42.48,1.59-.41,3.26-2,3.74-.29.09-.58.13-.87.13Z" fill="#2b2b2b"/><path d="M448.62,879.8c-1.12,0-2.47-.14-4.09-.48-1.48-.31-2.5-1.67-2.38-3.17.12-1.5,1.33-2.69,2.84-2.76l5.84-.29c.97-.05,1.89.37,2.49,1.12.6.75.81,1.75.55,2.68-.4,1.43-1.68,2.9-5.25,2.9Z" fill="#2b2b2b"/><path d="M412.67,925.96c-.34,0-.68-.06-1.02-.18l-40.42-14.54c-.24-.09-.47-.21-.68-.35-1.34-.92-2.69-1.92-4.04-2.98-32.37-25.78-18.3-60.57-18.15-60.92.37-.89,1.16-1.55,2.1-1.77.94-.22,1.93.04,2.66.68,7.8,6.92,24.11,16.98,36.41,24.21,6.19,3.63,13.26,5.36,20.45,5l35.01-1.73c1.67-.08,3.06,1.19,3.15,2.85.08,1.65-1.19,3.06-2.85,3.14l-35.02,1.73c-8.35.41-16.57-1.6-23.77-5.82-10.95-6.43-25.05-15.09-33.88-22.01-2.38,9.05-5.3,31.68,17.63,49.93,1.12.89,2.27,1.73,3.39,2.52l40.05,14.41c1.56.56,2.37,2.28,1.81,3.84-.44,1.22-1.59,1.99-2.82,1.99Z" fill="#2b2b2b"/><path d="M398.79,943.63c-.17,0-.35-.02-.53-.05-7.58-1.34-14.04-4.14-19.22-8.32-13.98-11.24-14.13-28.43-14.13-29.16,0-1.66,1.34-3,3-3h0c1.65,0,3,1.34,3,3,0,.22.23,15.11,11.9,24.49,4.38,3.54,9.93,5.92,16.5,7.08,1.63.29,2.72,1.84,2.43,3.48-.26,1.46-1.52,2.48-2.95,2.48ZM370.91,906.11h0,0Z" fill="#2b2b2b"/><path d="M428.17,969.33s-.08,0-.12,0c-8.48-.33-16.71-2.84-24.45-7.46-.03-.02-.06-.04-.1-.06-16.48-9.86-25.18-25.82-25.55-26.5-.78-1.46-.24-3.28,1.22-4.06,1.46-.79,3.28-.24,4.06,1.22h0c.08.15,8.35,15.25,23.4,24.23.03.02.07.04.1.06,6.85,4.08,14.09,6.29,21.54,6.58,1.66.06,2.95,1.46,2.88,3.11-.06,1.62-1.39,2.88-3,2.88Z" fill="#2b2b2b"/><path d="M664.88,440.55c.27,2.69-1.53,5.26-4.35,6.25-7.65,2.66-23.27,7.45-37.13,7.69-2.73.04-6.18-1.27-7.05-3.59-6.23-16.65-28.21-84.44,4.86-91.08,32.71-6.57,41.82,62.26,43.66,80.73Z"/></svg>