<?xml version="1.0" encoding="UTF-8"?><svg id="_レイヤー_30のコピー_2" xmlns="http://www.w3.org/2000/svg" width="2400" height="1350" viewBox="0 0 2400 1350"><path d="M1802.92,1326.15c-180.38,0-366.96-20.17-366.96-53.92,0-23.85,91.26-37.35,145.66-43.27l.38,3.48c-105.09,11.44-142.54,28.05-142.54,39.79,0,24.35,146.05,50.42,363.46,50.42s363.46-26.07,363.46-50.42c0-4.02-4.61-12.11-35.5-21.16-23.16-6.78-57.2-12.89-98.47-17.67l.4-3.48c51.19,5.92,137.06,19.29,137.06,42.3,0,33.75-186.58,53.92-366.96,53.92Z" fill="#2b2b2b"/><path d="M1087.62,1105.33c-223.65,0-452.35-4.85-575.98-62.84l1.49-3.17c122.98,57.68,351.23,62.5,574.49,62.5,206.82,0,374.55-2.27,494.36-30.88l.81,3.4c-120.18,28.7-288.12,30.98-495.17,30.98Z" fill="#2b2b2b"/><path d="M1714.2,829.73c-57.82-42.98-165.18-78.96-302.29-101.31l.56-3.45c137.65,22.45,245.55,58.65,303.81,101.96l-2.09,2.81Z" fill="#2b2b2b"/><path d="M803.75,722.35l-.48-3.47c77.56-10.7,160.36-16.84,246.11-18.26l.06,3.5c-85.61,1.42-168.27,7.55-245.69,18.23Z" fill="#2b2b2b"/><path d="M603.64,764.56l-1.02-3.35c12.57-3.84,25.82-7.58,39.38-11.11l.88,3.39c-13.51,3.52-26.71,7.25-39.24,11.07Z" fill="#2b2b2b"/><rect x="612.56" y="769.71" width="46.94" height="3.5" transform="translate(-177.27 1353.04) rotate(-86.06)" fill="#2b2b2b"/><path d="M633.44,857.46l-.26-3.49,94.6-7.16c3.2-.24,5.01-2.48,5.63-4.49.62-2.01.4-4.87-2.1-6.88l-22.76-18.26c-1.97-1.58-3.25-3.83-3.61-6.35l-5.85-41.71,3.47-.49,5.85,41.71c.23,1.63,1.06,3.09,2.33,4.11l22.76,18.26c3.24,2.6,4.48,6.68,3.25,10.64-1.23,3.97-4.57,6.63-8.71,6.94l-94.6,7.16Z" fill="#2b2b2b"/><path d="M635.25,546.8l-.57-38.96c-.08-5.14,3.87-9.53,8.98-10.01l9.91-.91c5.36-.5,10.07,3.3,10.73,8.64l3.31,26.95-3.47.43-3.31-26.95c-.42-3.45-3.48-5.9-6.93-5.58l-9.91.91c-3.3.3-5.85,3.15-5.8,6.47l.57,38.96-3.5.05Z" fill="#2b2b2b"/><path d="M588.65,614.88l-16.31-18.24c-3.25-3.64-3.38-9.04-.3-12.83,1.78-2.19,4.42-3.53,7.25-3.65,2.2-.1,4.33.52,6.12,1.79l12.05,8.46-2.01,2.86-12.05-8.46c-1.16-.82-2.53-1.22-3.95-1.16-1.83.08-3.54.94-4.69,2.36-1.99,2.45-1.91,5.94.19,8.29l16.31,18.24-2.61,2.33Z" fill="#2b2b2b"/><path d="M573.7,733.58c-.62,0-1.24,0-1.87,0-1.25-.01-2.51-.03-3.78-.07l.09-3.5c1.25.03,2.5.05,3.73.06,15.79.14,30.38-1.49,42.15-4.7l.92,3.38c-11.6,3.16-25.82,4.83-41.23,4.83Z" fill="#2b2b2b"/><path d="M552.57,730.76c-29.69-10.07-43.49-44.08-46.12-51.28-2.74.18-5.41.26-7.99.26-37.26,0-58.4-17.55-69.78-32.95-12.92-17.48-16.15-35.41-16.43-37.11-9.04-32.09,2.96-57.36,14.64-72.93,10.36-13.81,22.02-22.42,26.17-25.26-13.35-19.69-10.01-47.8-4.75-68.17,5.79-22.39,18.66-42.05,36.25-55.35,22.91-17.33,45.37-19.15,52.16-19.28-1.06-13.2,4.62-34.85,20.1-53.67,13.15-15.98,37.98-35.52,81.62-37.8,41.84-2.19,66.64,17.83,80.05,35.01,12.19,15.61,17.34,31.38,18.78,36.47,6.96-1.29,33.96-4.16,70.62,19.18,16.45,10.48,26.25,26.11,29.16,46.47l-3.46.49c-2.75-19.3-12.03-34.11-27.57-44.01-40.44-25.76-69.26-18.46-69.55-18.38l-1.74.47-.42-1.75c-.04-.19-4.59-18.93-18.65-36.88-18.76-23.96-44.68-35.25-77.03-33.56-42.36,2.21-66.4,21.08-79.1,36.52-15.62,18.99-20.86,40.77-19.12,52.96l.3,2.09-2.11-.1c-.26-.01-26.13-.95-51.92,18.56-16.96,12.82-29.37,31.8-34.97,53.43-5.21,20.16-8.53,48.09,5.24,66.72l1.13,1.53-1.61,1c-.14.09-14.64,9.2-26.84,25.5-16.25,21.71-20.95,45.22-13.98,69.88l.04.2c.03.18,3.07,18.5,15.89,35.79,17.12,23.09,42.68,33.54,75.95,31.08l1.36-.1.43,1.3c.13.4,13.49,39.87,44.37,50.35l-1.12,3.31Z" fill="#2b2b2b"/><path d="M828.4,631.24l-.35-3.48.18,1.74-.18-1.74c.42-.04,41.9-5.01,62.19-62.13,6.13-17.25,7.69-34.16,4.65-50.24l3.44-.65c3.16,16.7,1.54,34.22-4.79,52.06-10.98,30.92-28.02,46.78-40.39,54.64-13.49,8.58-24.29,9.75-24.74,9.8Z" fill="#2b2b2b"/><path d="M1411.19,783.78l-2.28-108.22c-.04-1.67.49-3.35,1.49-4.71l38.78-53.21,2.83,2.06-38.78,53.21c-.54.75-.83,1.66-.81,2.57l2.28,108.22-3.5.07Z" fill="#2b2b2b"/><path d="M1413.6,633.52c-.93,0-1.86-.17-2.77-.51-3.01-1.15-4.96-3.97-4.97-7.19l-.08-19.22h3.5s.08,19.21.08,19.21c0,2.14,1.41,3.44,2.72,3.93,1.31.5,3.22.46,4.65-1.13l14.71-16.41,2.61,2.34-14.71,16.41c-1.5,1.68-3.58,2.58-5.73,2.58Z" fill="#2b2b2b"/><path d="M1366.27,761.48l-3.44-.65,13.53-71.55c.21-1.11-.04-2.28-.7-3.21l-42.23-60.25c-2.18-3.12-1.79-7.31.94-9.97,1.58-1.54,3.74-2.33,5.96-2.16,1.72.13,3.31.8,4.58,1.95l27.11,24.27c1.21,1.08,2.83,1.38,4.34.79,1.51-.58,2.52-1.9,2.68-3.51l7.37-70.97c.27-2.62,1.84-4.9,4.19-6.09l1.59,3.12c-1.29.66-2.14,1.9-2.29,3.34l-7.37,70.97c-.3,2.9-2.18,5.36-4.9,6.41-2.72,1.05-5.76.49-7.93-1.45l-27.12-24.28c-.7-.63-1.56-1-2.5-1.07-1.2-.09-2.39.34-3.26,1.18-1.49,1.45-1.71,3.75-.52,5.45l42.23,60.24c1.19,1.69,1.65,3.83,1.27,5.87l-13.53,71.56Z" fill="#2b2b2b"/><rect x="1355.02" y="776.47" width="12.61" height="3.5" transform="translate(343.71 1971.24) rotate(-79.29)" fill="#2b2b2b"/><path d="M1343.19,726.81l-.12-3.5c15.24-.52,26.26-4.29,28.76-9.82.28-.63.45-1.29.5-1.96l3.49.25c-.08,1.07-.35,2.13-.79,3.14-3.14,6.97-14.74,11.3-31.83,11.89Z" fill="#2b2b2b"/><path d="M1454.73,712.37c-22.08,0-41.75-6.32-44.03-7.08-.25-.08-.37-.13-.37-.13l1.2-3.29.27.09c2.37.79,23.75,7.65,46.8,6.83,29.5-1.06,48.69-13.77,57.05-37.77l.42-1.2,1.27.02h.01c.79,0,30.81-.39,50.21-39.61,9.03-18.26,10.26-37.56,3.45-54.34-6.37-15.7-19.08-27.92-34.88-33.52l-1.74-.62.71-1.71c.15-.36,14.78-36.55-11.91-58.38-27.15-22.19-48.48-19.33-48.69-19.3l-1.79.27-.21-1.8c-.02-.14-1.7-14.11-10.35-28.31-11.51-18.91-29.28-29.29-52.81-30.85-38.98-2.57-59.23,16.48-67.84,28.06l-2.81-2.09c9.03-12.16,30.24-32.15,70.88-29.47,30.88,2.04,47.3,18.87,55.64,32.64,7.31,12.06,9.8,23.68,10.52,27.93,5.84-.29,25.51.46,49.67,20.2,25.27,20.66,16.21,52.97,13.55,60.72,15.97,6.19,28.78,18.82,35.3,34.89,7.19,17.72,5.92,38.03-3.56,57.2-18.52,37.45-45.87,41.17-52.15,41.52-8.98,24.43-29.64,37.9-59.82,38.98-1.34.05-2.67.07-3.99.07Z" fill="#2b2b2b"/><path d="M2004.63,728.2c-3.43,0-6.9-.05-10.31-.15l.23-8c3.33.1,6.73.15,10.08.15,187.24,0,339.57-152.33,339.57-339.57s-152.33-339.57-339.57-339.57-339.57,152.33-339.57,339.57c0,138.63,82.92,262.07,211.26,314.49l-3.03,7.41c-63.17-25.8-117-69.31-155.68-125.82-39.61-57.87-60.55-125.68-60.55-196.08,0-92.84,36.15-180.12,101.8-245.77,65.65-65.65,152.93-101.8,245.77-101.8s180.12,36.15,245.77,101.8c65.65,65.65,101.8,152.93,101.8,245.77s-36.15,180.12-101.8,245.77c-65.65,65.65-152.93,101.8-245.77,101.8Z" fill="#2b2b2b"/><path d="M1945.46,1003.03c-1.13,0-2.21-.64-2.72-1.73-.7-1.5-.05-3.29,1.45-3.99l36.18-16.89c1.5-.7,3.29-.05,3.99,1.45.7,1.5.05,3.29-1.45,3.99l-36.18,16.89c-.41.19-.84.28-1.27.28Z" fill="#2b2b2b"/><path d="M1899.87,1014.91c-2.62,0-3.92-.33-4.24-.43-1.59-.48-2.49-2.15-2.01-3.74.47-1.56,2.1-2.46,3.67-2.03.29.06,8.4,1.73,31.3-6.47,1.07-.38,2.17-.77,3.3-1.13,1.58-.49,3.26.39,3.76,1.97.5,1.58-.39,3.26-1.97,3.76-1.03.32-2.05.69-3.07,1.05-16.4,5.87-25.87,7.01-30.74,7.01Z" fill="#2b2b2b"/><path d="M1948.18,1027.64c-1.1,0-2.17-.61-2.69-1.67-.74-1.48-.13-3.28,1.36-4.02l32.1-15.89c1.49-.73,3.28-.13,4.02,1.36.74,1.48.13,3.28-1.36,4.02l-32.1,15.89c-.43.21-.88.31-1.33.31Z" fill="#2b2b2b"/><path d="M1895.39,1041.39c-.39,0-.62,0-.68-.01-1.66-.07-2.94-1.48-2.86-3.13.07-1.65,1.44-2.94,3.12-2.86.17,0,13.63.4,37.62-8.94,1.55-.6,3.28.16,3.88,1.71.6,1.54-.16,3.28-1.71,3.88-22.57,8.78-36.23,9.35-39.38,9.35Z" fill="#2b2b2b"/><path d="M1920.89,856.22c-1.22,0-2.37-.75-2.81-1.96-1.26-3.42-2.94-7.89-4.72-12.11-.64-1.53.07-3.29,1.6-3.93,1.53-.64,3.29.07,3.93,1.6,1.83,4.34,3.54,8.89,4.82,12.37.57,1.55-.22,3.28-1.78,3.85-.34.13-.69.19-1.04.19Z" fill="#2b2b2b"/><path d="M1811.38,842.34c-.37,0-.74-.07-1.1-.21-1.54-.61-2.3-2.35-1.69-3.89.51-1.29,12.75-31.64,41.05-38.45,1.61-.39,3.23.6,3.62,2.22.39,1.61-.6,3.23-2.22,3.62-25.29,6.08-36.75,34.53-36.87,34.82-.46,1.18-1.6,1.9-2.79,1.9Z" fill="#2b2b2b"/><path d="M1830.13,846.12c-.31,0-.63-.05-.94-.15-1.57-.52-2.43-2.21-1.91-3.78l.05-.14c.85-2.54,8.84-25.2,26.53-31.45,1.56-.55,3.28.27,3.83,1.83.55,1.56-.27,3.28-1.83,3.83-15.26,5.39-22.54,26.79-22.84,27.7l-2.88-.84,2.85.94c-.42,1.26-1.59,2.06-2.85,2.06Z" fill="#2b2b2b"/><path d="M1997.95,1254.39c-1.12,0-2.2-.63-2.71-1.71-.71-1.5-.08-3.29,1.42-4l23.9-11.38c18.9-9,29.12-28.24,36.63-45.88,66.4-155.95,7.15-300.01-12.59-340.45-.94-1.93-1.87-3.78-2.77-5.53-6.61-12.4-16.89-22.82-30.53-30.92-1.42-.85-1.89-2.69-1.05-4.11.85-1.42,2.69-1.89,4.11-1.05,14.59,8.67,25.62,19.87,32.78,33.29.94,1.82,1.88,3.7,2.84,5.67,20.02,41.02,80.11,187.15,12.72,345.44-7.95,18.67-18.87,39.09-39.57,48.95l-23.9,11.38c-.42.2-.86.29-1.29.29Z" fill="#2b2b2b"/><path d="M1999.52,1162.12c-.65,0-1.3-.21-1.85-.64-1.31-1.02-1.54-2.91-.52-4.21,23.02-29.45,33.12-90.69,27-163.82-5.63-67.24-23.64-125.77-44.83-145.63-1.21-1.13-1.27-3.03-.14-4.24s3.03-1.27,4.24-.14c22.19,20.81,40.96,80.89,46.7,149.51,6.24,74.6-4.32,137.41-28.25,168.01-.59.76-1.47,1.15-2.37,1.15Z" fill="#2b2b2b"/><path d="M1948.62,858.67c-1.17,0-2.28-.69-2.77-1.84-.64-1.53.07-3.29,1.6-3.93.6-.25,14.82-6.21,33.03-10.82,23.2-5.88,53.97-9.68,68.77,5.56,1.15,1.19,1.13,3.09-.06,4.24-1.19,1.15-3.09,1.13-4.24-.06-12.8-13.19-41.32-9.42-62.99-3.93-17.75,4.49-32.03,10.47-32.18,10.53-.38.16-.77.24-1.16.24Z" fill="#2b2b2b"/><path d="M1773.18,837.82c-1.23,0-2.38-.76-2.82-1.98l-11.83-32.71c-1.98-5.47-1.5-11.47,1.31-16.46,2.86-5.08,7.86-8.67,13.72-9.85,24.14-4.84,48.39-4.1,64.49-2.62,1.65.15,2.86,1.61,2.71,3.26-.15,1.65-1.62,2.87-3.26,2.71-15.7-1.44-39.33-2.17-62.76,2.53-4.15.83-7.67,3.35-9.68,6.91-1.98,3.52-2.3,7.6-.9,11.48l11.83,32.71c.56,1.56-.24,3.28-1.8,3.84-.34.12-.68.18-1.02.18Z" fill="#2b2b2b"/><path d="M1850.74,848.09c-.13,0-.26,0-.39-.03-1.64-.21-2.8-1.72-2.59-3.36l4.14-31.82c.24-1.64,1.78-2.77,3.4-2.53,1.64.24,2.77,1.77,2.53,3.41l-.02.12-4.11,31.6c-.2,1.51-1.49,2.61-2.97,2.61Z" fill="#2b2b2b"/><path d="M1740.97,835.39c-.16,0-.31-.01-.47-.04l.47-2.96-2.96-.49c.89-5.45,9.48-53.31,35.94-55.14,1.65-.12,3.09,1.13,3.2,2.79.11,1.65-1.13,3.09-2.79,3.2-22.23,1.54-30.35,49.63-30.43,50.11-.24,1.47-1.52,2.52-2.96,2.52Z" fill="#2b2b2b"/><path d="M1766.68,1300.75c-1.54,0-2.85-1.18-2.98-2.74l-1.25-14.27c-.14-1.65,1.08-3.11,2.73-3.25,1.66-.14,3.11,1.08,3.25,2.73l1.25,14.27c.14,1.65-1.08,3.11-2.73,3.25-.09,0-.18.01-.27.01Z" fill="#2b2b2b"/><path d="M1796.38,1305.51c-1.49,0-2.79-1.11-2.97-2.63l-1.86-15.17c-.2-1.64.97-3.14,2.61-3.34,1.64-.2,3.14.97,3.34,2.61l1.86,15.17c.2,1.64-.97,3.14-2.61,3.34-.12.02-.25.02-.37.02Z" fill="#2b2b2b"/><path d="M1620.96,1277.57c-1.03,0-2.03-.53-2.59-1.48-.02-.03-.08-.12-.09-.15-5.07-8.03-3.66-17.42-3.6-17.82.26-1.64,1.8-2.75,3.43-2.5,1.63.26,2.75,1.79,2.5,3.42-.02.11-1.09,7.63,2.78,13.74.08.12.12.19.16.26.84,1.43.36,3.27-1.07,4.11-.48.28-1,.41-1.52.41Z" fill="#2b2b2b"/><path d="M1643.45,1281.4c-.81,0-1.61-.32-2.21-.96-4.09-4.43-3.09-16.06-2.84-18.34.17-1.65,1.65-2.84,3.3-2.67,1.65.17,2.84,1.65,2.67,3.3-.56,5.31-.18,12.06,1.29,13.64,1.12,1.22,1.05,3.12-.17,4.24-.58.53-1.31.8-2.03.8Z" fill="#2b2b2b"/><path d="M1839.27,1296.4c-7.18,0-12.33-.73-12.86-.81l-196.15-32.48c-5.67-.99-9.69-1.75-13.05-2.45-11.4-2.37-17.04-4.55-22.38-8.61-.85-.64-1.68-1.33-2.54-2.09-12.59-11.15-14.1-25.62-14.24-27.32-8.83-59.23,5.26-192.75,11.73-247.43,3.39-28.64,12.11-55.76,25.93-80.59,21.32-38.3,45.55-54.87,62.12-62.02,18.22-7.86,31.31-6.47,31.86-6.41l231.85,26.57c2.49.29,4.98.66,7.4,1.1,1.41.27,2.64.53,3.78.79,32.09,7.32,49.47,29.27,48.94,61.81v.07c.02.52.05,1.04.06,1.56l1.05,321.32c.26,1.59.7,7.18-4.14,13.74-4.5,6.09-12.24,11.16-22.99,15.09-1.55.57-3.28-.23-3.85-1.79-.57-1.56.23-3.28,1.79-3.85,9.63-3.52,16.44-7.9,20.23-13.02,3.79-5.12,3.07-9.1,3.04-9.27-.05-.22-.06-.39-.07-.61l-1.05-321.51c-.01-.42-.04-.92-.06-1.41v-.16c0-.06,0-.12,0-.18.65-37.74-23.72-51.26-44.29-55.95-1.08-.25-2.23-.49-3.53-.74-2.27-.42-4.62-.77-6.98-1.04l-231.85-26.57c-.11-.01-12.34-1.24-29.18,6.12-15.61,6.83-38.49,22.65-58.87,59.26-13.44,24.14-21.92,50.51-25.21,78.37-6.45,54.48-20.49,187.5-11.74,245.95.01.09.02.17.03.26,0,.12,1.04,13.44,12.24,23.35.74.66,1.46,1.25,2.19,1.8,4.54,3.45,9.57,5.35,19.98,7.52,3.3.69,7.25,1.43,12.83,2.41l196.07,32.47c.25.04,30.73,4.31,46.96-8.72,5.96-4.79,9.3-11.47,9.91-19.84.4-5.58,1.38-14.83,1.67-17.54,2.24-20.72,2.45-54.95,2.7-94.58.21-34.49.46-73.58,2.13-110.79.88-19.66,2.07-36.9,3.63-52.71.16-1.65,1.64-2.85,3.28-2.69,1.65.16,2.85,1.63,2.69,3.28-1.55,15.7-2.74,32.84-3.61,52.39-1.67,37.09-1.91,76.12-2.12,110.56-.25,39.8-.46,74.17-2.73,95.18-.29,2.68-1.25,11.84-1.65,17.33-.74,10.12-4.83,18.22-12.15,24.1-11.17,8.96-27.47,10.76-38.76,10.76Z" fill="#2b2b2b"/><path d="M1897.33,988.71c-.1,0-.2,0-.3-.01-1.65-.16-2.85-1.63-2.69-3.28,4.17-41.96,10.86-71.25,20.46-89.54,5.42-10.31,11.9-17.2,19.27-20.47.19-.09.39-.15.6-.19.96-.2,1.93-.41,2.91-.63l.45-.1c3.73-.82,7.59-1.67,11.42-2.12,1.64-.19,3.14.99,3.33,2.63s-.99,3.14-2.63,3.33c-3.53.41-7.24,1.23-10.83,2.02l-.44.1c-.89.2-1.77.39-2.65.58-5.99,2.76-11.41,8.7-16.11,17.65-9.24,17.59-15.72,46.16-19.81,87.34-.15,1.55-1.46,2.7-2.98,2.7Z" fill="#2b2b2b"/><path d="M1858.25,1314.4c-7.96,0-17.52-.68-27.95-2.81l-204.07-32.89c-2.11-.34-4.22-.82-6.26-1.44-7.75-2.34-14.46-6.56-19.42-12.2-4.06-4.62-6.48-9.53-7.18-14.6-.23-1.64.92-3.16,2.56-3.39,1.64-.23,3.16.92,3.39,2.56.54,3.89,2.47,7.75,5.75,11.47,4.21,4.8,9.97,8.4,16.64,10.41,1.79.54,3.63.96,5.48,1.26l204.13,32.9s.08.01.12.02c25.17,5.15,45.54,1.35,48.17.81l84.35-38.88s.1-.04.15-.06c2.59-1.03,4.88-2.52,6.81-4.42,8.92-8.8,8.03-24.2,8.02-24.36,0-.06,0-.13,0-.2l-.29-255.46c0-.09,0-.18.01-.26,3.05-35.18,2.38-60.94-2.05-78.75-1.38-5.55-3.17-10.39-5.31-14.38-1.54-2.86-3.24-5.28-5.18-7.4-3.38-3.68-8.29-4.92-15.94-4.03-1.66.19-3.14-.99-3.33-2.63-.19-1.65.98-3.14,2.63-3.33,6.06-.71,14.83-.87,21.06,5.93,2.29,2.49,4.26,5.31,6.05,8.61,2.41,4.49,4.33,9.65,5.85,15.77,4.59,18.45,5.32,44.81,2.22,80.59l.29,255.24c.1,1.67.78,18.48-9.79,28.92-2.48,2.45-5.42,4.37-8.73,5.7l-84.58,38.99c-.19.09-.39.15-.59.2-.58.13-9.45,2.09-22.98,2.09Z" fill="#2b2b2b"/><path d="M1937.58,1034.38c-1.66,0-3.37-.46-5.09-1.51-.84-.52-1.38-1.42-1.43-2.41l-1.28-26.32c-.04-.79.23-1.55.76-2.14,6.94-7.79,13.6-5.74,16.15-4.5,1.01.49,1.63.97,1.8,1.11.67.55,1.07,1.36,1.09,2.23l.72,23.3c.02.55-.13,1.11-.4,1.59,0,0-.1.17-.28.45-2.73,4.24-7.16,8.2-12.04,8.2ZM1936.97,1028.27c3.16.57,6.19-3.28,7.31-4.89l-.64-20.68c-1.86-.74-4.57-.75-7.79,2.42l1.12,23.15Z" fill="#2b2b2b"/><path d="M1951.59,1090.98c-.17,0-.34-.01-.51-.04l-23.11-3.98c-1.58-.27-2.67-1.74-2.47-3.34l6.57-51.57c.17-1.3,1.16-2.35,2.46-2.58l12.62-2.21c.84-.15,1.72.07,2.39.61.67.54,1.08,1.33,1.13,2.19l1.56,30.31,9.87,10.14c.92.94,1.11,2.37.49,3.52l-8.35,15.38c-.53.98-1.55,1.57-2.64,1.57ZM1931.81,1081.53l18.16,3.12,6.27-11.55-9.11-9.36c-.51-.52-.81-1.21-.85-1.94l-1.44-28.05-7.11,1.25-5.92,46.53Z" fill="#2b2b2b"/><path d="M1837.27,1208.5c-.92,0-1.48-.06-1.54-.06l-2.03-.27c-.96-.13-1.63-1.01-1.51-1.96.13-.96,1.02-1.63,1.96-1.51l1.99.26s.37.04,1.13.04c5.03,0,17.07-1.7,20.31-17.44.19-.95,1.12-1.55,2.07-1.36.95.19,1.56,1.12,1.36,2.07-3.86,18.78-19.14,20.24-23.73,20.24ZM1821.98,1206.61c-.08,0-.15,0-.23-.01-8.66-1.13-20.79-2.71-34.79-4.5-.96-.12-1.64-1-1.51-1.96.12-.96.99-1.63,1.96-1.51,14,1.79,26.13,3.37,34.79,4.5.96.13,1.63,1,1.51,1.96-.12.88-.87,1.52-1.73,1.52ZM1775.26,1200.59c-.07,0-.15,0-.22-.01-11.03-1.4-22.84-2.89-34.77-4.37-.96-.12-1.64-.99-1.52-1.95.12-.96.99-1.64,1.95-1.52,11.93,1.48,23.75,2.97,34.78,4.38.96.12,1.64,1,1.52,1.96-.11.88-.87,1.53-1.73,1.53ZM1728.55,1194.74c-.07,0-.14,0-.21-.01-12.76-1.57-24.46-2.97-34.8-4.18-.96-.11-1.65-.98-1.54-1.94.11-.96.98-1.64,1.94-1.54,10.34,1.21,22.06,2.62,34.82,4.18.96.12,1.64.99,1.52,1.95-.11.89-.86,1.54-1.74,1.54ZM1681.8,1189.18c-.07,0-.13,0-.2-.01-11.75-1.34-21.57-2.38-29.17-3.11-1.94-.19-3.85-.4-5.71-.64-.96-.12-1.63-1-1.51-1.96.12-.96.99-1.63,1.96-1.51,1.81.23,3.69.45,5.59.63,7.62.73,17.46,1.78,29.23,3.12.96.11,1.65.98,1.54,1.94-.1.89-.86,1.55-1.74,1.55ZM1635.13,1183.42c-.12,0-.25-.01-.37-.04-14.05-3.04-24.95-7.92-32.39-14.5-.72-.64-.79-1.75-.15-2.47.64-.72,1.75-.79,2.47-.15,6.98,6.18,17.35,10.79,30.81,13.7.94.2,1.54,1.14,1.34,2.08-.18.82-.9,1.38-1.71,1.38ZM1860.06,1177.72c-.93,0-1.7-.73-1.75-1.67-.07-1.41-.19-2.89-.35-4.39-.01-.09-.01-.19,0-.28,0-.11.58-11.55,1.71-30.51.06-.96.88-1.7,1.85-1.64.96.06,1.7.89,1.64,1.85-1.06,17.82-1.64,28.98-1.71,30.34.17,1.53.29,3.03.35,4.47.05.97-.7,1.79-1.67,1.83-.03,0-.06,0-.08,0ZM1596.25,1159.89c-.67,0-1.31-.39-1.6-1.04-.74-1.65-.94-2.7-.96-2.82-.02-.12-.03-.25-.03-.37,0-.13.42-13.15,1.36-32.58.05-.97.86-1.7,1.83-1.66.96.05,1.71.87,1.66,1.83-.87,18.02-1.29,30.5-1.35,32.3.07.28.26.94.68,1.87.39.88,0,1.92-.89,2.31-.23.1-.47.15-.71.15ZM1862.14,1130.73s-.07,0-.11,0c-.96-.06-1.7-.89-1.64-1.85.72-11.62,1.48-23.39,2.26-34.97.07-.96.91-1.69,1.86-1.63.96.07,1.69.9,1.63,1.86-.78,11.57-1.54,23.33-2.26,34.95-.06.93-.83,1.64-1.75,1.64ZM1597.39,1112.91s-.06,0-.09,0c-.96-.05-1.71-.88-1.66-1.84.63-11.99,1.34-23.77,2.1-35.02.07-.96.89-1.69,1.86-1.63.96.07,1.69.9,1.63,1.86-.76,11.24-1.46,23-2.1,34.97-.05.93-.82,1.66-1.75,1.66ZM1865.22,1083.8s-.08,0-.12,0c-.96-.07-1.69-.9-1.62-1.87.81-11.71,1.67-23.47,2.53-34.94.07-.96.9-1.69,1.88-1.61.96.07,1.69.91,1.61,1.88-.87,11.47-1.72,23.22-2.53,34.92-.06.92-.83,1.63-1.74,1.63ZM1600.33,1065.92s-.09,0-.13,0c-.96-.07-1.69-.91-1.62-1.87.9-12.35,1.88-24.11,2.91-34.97.09-.96.93-1.67,1.91-1.58.96.09,1.67.94,1.58,1.91-1.02,10.83-2,22.57-2.9,34.9-.07.92-.83,1.62-1.74,1.62ZM1868.67,1036.89s-.09,0-.14,0c-.96-.07-1.68-.92-1.61-1.88.91-11.75,1.86-23.5,2.82-34.92.08-.96.93-1.68,1.89-1.6.96.08,1.68.93,1.6,1.89-.96,11.41-1.91,23.15-2.82,34.9-.07.92-.84,1.61-1.74,1.61ZM1604.42,1019.02c-.06,0-.12,0-.18,0-.96-.1-1.66-.96-1.56-1.92,1.35-12.96,2.8-24.69,4.32-34.86.14-.96,1.03-1.61,1.99-1.47.96.14,1.62,1.03,1.47,1.99-1.51,10.12-2.95,21.8-4.3,34.71-.09.9-.85,1.57-1.74,1.57ZM1872.51,990.02c-.05,0-.1,0-.15,0-.96-.08-1.68-.93-1.59-1.89,1.03-11.92,2.1-23.66,3.16-34.89.09-.96.94-1.67,1.91-1.58.96.09,1.67.94,1.58,1.91-1.06,11.22-2.12,22.95-3.16,34.86-.08.91-.84,1.6-1.74,1.6ZM1610.64,972.36c-.1,0-.2,0-.3-.03-.95-.17-1.59-1.07-1.42-2.03,1.13-6.47,2.32-12.27,3.53-17.23,1.38-5.7,3.01-11.42,4.82-17.01.3-.92,1.28-1.42,2.21-1.13.92.3,1.42,1.28,1.12,2.2-1.79,5.51-3.38,11.15-4.75,16.76-1.19,4.89-2.36,10.61-3.48,17-.15.85-.89,1.45-1.72,1.45ZM1877.47,943.27c-.09,0-.19,0-.29-.02-.95-.16-1.6-1.06-1.44-2.01,1.59-9.65,3.91-22.28,7.74-34.37.29-.92,1.27-1.43,2.2-1.14.92.29,1.43,1.28,1.14,2.2-3.76,11.88-6.05,24.35-7.63,33.89-.14.86-.88,1.47-1.72,1.47ZM1622.91,927.04c-.21,0-.42-.04-.62-.12-.9-.34-1.36-1.36-1.01-2.26,4.21-11.04,9.25-21.77,14.99-31.89.48-.84,1.54-1.14,2.38-.66.84.48,1.14,1.54.66,2.39-5.65,9.97-10.62,20.54-14.76,31.41-.27.7-.93,1.13-1.63,1.13ZM1889.29,897.88c-.23,0-.46-.04-.68-.14-.89-.38-1.3-1.41-.93-2.29,5.06-11.92,11.3-20.85,19.06-27.29.58-.48,1.16-.96,1.73-1.42.75-.61,1.85-.5,2.46.26s.5,1.85-.25,2.46c-.56.46-1.13.92-1.7,1.4-7.32,6.07-13.23,14.56-18.08,25.96-.28.67-.93,1.07-1.61,1.07ZM1643.98,885.11c-.32,0-.65-.09-.94-.28-.81-.52-1.05-1.6-.53-2.42,6.65-10.38,13.91-19.78,21.57-27.93.66-.7,1.77-.74,2.47-.08.7.66.74,1.77.08,2.47-7.51,7.99-14.63,17.22-21.17,27.42-.33.52-.9.81-1.48.81ZM1919.51,863.18c-.65,0-1.27-.36-1.57-.98-.43-.87-.07-1.92.8-2.34,6.28-3.08,13.46-4.45,23.28-4.45,3.08,0,6.5.14,10.15.43.57.04,1.16.09,1.76.14.96.08,1.72.94,1.64,1.9s-.88,1.68-1.85,1.6h-.09c-.58-.06-1.15-.11-1.71-.15-3.58-.28-6.9-.42-9.89-.42-9.26,0-15.96,1.26-21.74,4.09-.25.12-.51.18-.77.18ZM1673.92,849.03c-.48,0-.96-.2-1.3-.58-.65-.72-.59-1.82.13-2.47,11.04-9.94,21.63-16.17,30.64-18.01.95-.19,1.87.42,2.07,1.36.19.95-.42,1.87-1.36,2.06-8.28,1.69-18.58,7.79-29,17.18-.33.3-.75.45-1.17.45Z" fill="#2b2b2b"/><path d="M1627.2,1244.94c-4.3,0-8.4-1.61-11.67-4.59-4.04-3.69-6.41-9.18-6.51-15.07-.19-11.42,8.08-21.27,18.44-21.95,4.74-.31,9.3,1.32,12.87,4.6,4.01,3.7,6.37,9.18,6.46,15.04.18,11.34-8.04,21.18-18.32,21.93-.42.03-.84.05-1.26.05ZM1628.59,1209.29c-.25,0-.49,0-.74.02-7.22.48-12.98,7.59-12.84,15.87.07,4.24,1.73,8.16,4.56,10.74,2.36,2.16,5.35,3.22,8.45,2.99,7.17-.52,12.89-7.63,12.76-15.85h0c-.07-4.23-1.72-8.14-4.52-10.73-2.15-1.98-4.85-3.05-7.67-3.05Z" fill="#2b2b2b"/><path d="M1781.24,1265.58c-4.47,0-8.69-1.63-12.01-4.67-3.89-3.55-6.15-8.77-6.21-14.32-.13-11.09,8.33-20.73,18.86-21.49,4.99-.36,9.74,1.3,13.4,4.67,3.86,3.56,6.11,8.77,6.16,14.3.12,11-8.29,20.63-18.74,21.46-.49.04-.98.06-1.47.06ZM1783.2,1231.05c-.29,0-.59.01-.89.03-7.43.54-13.39,7.47-13.3,15.44.04,3.96,1.56,7.49,4.26,9.96,2.45,2.24,5.64,3.32,8.96,3.06,7.37-.59,13.3-7.5,13.21-15.42h0c-.04-3.94-1.54-7.47-4.23-9.95-2.21-2.04-5.03-3.13-8.02-3.13Z" fill="#2b2b2b"/><path d="M1867.37,1312.1c-1.66,0-3-1.34-3-3v-19.97c0-1.66,1.34-3,3-3s3,1.34,3,3v19.97c0,1.66-1.34,3-3,3Z" fill="#2b2b2b"/><path d="M1896.49,1014.61c-1.64,0-2.98-1.32-3-2.96,0-.11-.13-10.87.83-26.06h0s0-.06,0-.1c1.75-27.66,6.74-65.67,20.52-89.72,6.19-10.8,13.71-17.89,22.33-21.08,1.24-.47,2.55-.86,3.88-1.17,2.92-.69,5.77-1.08,8.48-1.18.09,0,.18-.01.27-.01,11.34-.37,20.58,4.61,26.66,14.41,4.55,7.33,5.82,15.02,5.99,16.13.03.18.05.36.05.54,0,1.66-1.34,3-3,3-1.38,0-2.54-.93-2.89-2.19-.04-.14-.07-.28-.09-.43,0-.07-1.01-7.21-5.16-13.89-4.93-7.94-12.11-11.84-21.33-11.58-.06,0-.11,0-.17.01-2.35.07-4.86.42-7.46,1.03-1.08.25-2.13.56-3.14.94-7.29,2.7-13.75,8.9-19.23,18.44-13.22,23.05-18.03,60.11-19.74,87.14,0,.03,0,.06,0,.09-.95,14.93-.82,25.48-.82,25.58.02,1.66-1.3,3.02-2.96,3.04-.01,0-.03,0-.04,0Z" fill="#2b2b2b"/><path d="M1062.09,193.27c-.5,0-1-.22-1.35-.63-5.78-6.96-11.32-9.03-16.46-6.15l-.12.07s-.1.05-.15.09c-3.46,2.09-5.46,5.55-5.48,5.59-.48.84-1.55,1.13-2.39.65s-1.13-1.54-.66-2.38c.1-.17,2.45-4.28,6.63-6.8.04-.03.16-.1.29-.18l.11-.06c4.75-2.66,12.19-3.58,20.92,6.93.62.74.51,1.85-.23,2.46-.33.27-.72.4-1.12.4Z" fill="#2b2b2b"/><path d="M1119.93,637.75c-6.12,0-11.95-.23-17.44-.71-2.35-.21-4.67-.47-6.89-.78-8.61-1.2-16.22-6.03-20.88-13.25-13.48-20.88-9.65-31.74-4.8-45.5,1.2-3.4,2.44-6.91,3.55-10.9,2.88-10.29,3.38-21.54,1.46-32.52-1.44-8.26-2.6-16.89-3.42-25.64-3.4-35.7-1.12-68.48,1.38-89.69,1.57-13.29,3.13-21.22,3.19-21.55.32-1.62,1.9-2.68,3.53-2.36,1.62.32,2.68,1.9,2.36,3.53-.02.08-1.59,8.06-3.12,21.09-2.47,20.93-4.71,53.25-1.37,88.42.81,8.6,1.95,17.06,3.36,25.17,2.08,11.86,1.52,24.02-1.6,35.17-1.17,4.18-2.5,7.95-3.67,11.28-4.64,13.15-7.7,21.85,4.18,40.25,3.72,5.75,9.79,9.6,16.67,10.56,2.12.29,4.34.54,6.6.74,5.39.48,11.13.7,17.14.7,58.49,0,142.11-21.08,167.51-32.05,1.54-.66,2.86-1.29,3.94-1.87,13.72-7.43,8.13-46.23-.51-62.89-.77-1.48-1.73-3.13-2.85-5.05-3.52-6.03-8.35-14.28-13.5-27.94-.58-1.55.2-3.28,1.75-3.87,1.55-.58,3.28.2,3.87,1.75,4.97,13.19,9.65,21.19,13.06,27.03,1.16,1.98,2.16,3.7,3,5.31,8.65,16.66,16.87,60.74-1.96,70.94-1.24.67-2.72,1.37-4.42,2.1-25.78,11.13-110.7,32.53-170.12,32.53Z" fill="#2b2b2b"/><path d="M1061.32,528.05c-.21,0-.42-.02-.62-.07-6.91-1.47-20.51-9.11-36.37-20.45-9.59-6.86-18.96-14.32-27.12-21.59-9.6-8.55-17.03-16.34-22.08-23.17-3.33-4.5-5.58-8.57-6.68-12.07-.33-1.06-.05-2.22.73-3.01,4-4.04,98.42-98.91,133.15-102.1.9-.08,1.82.26,2.45.92l1.31,1.38c1,1.06,1.1,2.68.23,3.85-2.33,3.14-4.21,7.12-4.04,8.48.22.06.73.15,1.71.07,1.73-.15,3.5-.77,5.13-1.79,9.76-6.14,44.3-26.61,78.91-32.11,1.88-.3,3.81-.37,5.72-.2,1.48.13,2.98.41,4.45.84.79.23,1.59.51,2.37.84,11.97,4.98,22.77,15.41,33.02,31.86.88,1.41.45,3.26-.96,4.13-1.41.88-3.26.45-4.13-.96-9.57-15.36-19.46-25.01-30.25-29.5-.57-.24-1.15-.45-1.73-.61-1.1-.32-2.2-.53-3.29-.62-1.43-.13-2.86-.08-4.25.14-33.49,5.32-67.15,25.27-76.66,31.26-2.43,1.53-5.13,2.46-7.79,2.69-4.55.41-6.57-1.4-7.46-3-1.76-3.14-.16-7.51,1.75-10.95-33.39,8.92-112.71,86.98-124.02,98.24,1.05,2.51,2.78,5.41,5.17,8.64,4.73,6.4,12.08,14.1,21.24,22.26,8,7.13,17.21,14.46,26.62,21.19,13.45,9.61,25.75,16.8,32.35,18.97l11.66-15.26c1.01-1.32,2.89-1.57,4.21-.56,1.32,1.01,1.57,2.89.56,4.21l-12.88,16.86c-.57.75-1.46,1.18-2.38,1.18Z" fill="#2b2b2b"/><path d="M1143.14,869.81c-.46,0-.93-.11-1.37-.33-.24-.12-23.84-12.29-51.65-31.07-22.9-15.48-42.11-30.93-57.09-45.93-2.3-2.3-4.55-4.65-6.67-6.97-10.21-11.1-18.03-21.98-23.26-32.33-.56-1.1-.38-2.43.44-3.35l2.33-2.6,89.36-99.41,4.72-14.86c.51-1.58,2.2-2.45,3.77-1.94,1.58.5,2.45,2.19,1.94,3.77l-4.91,15.47c-.13.41-.34.78-.63,1.1l-90.73,100.94c4.96,9.32,12.15,19.13,21.38,29.17,2.07,2.26,4.26,4.54,6.5,6.78,14.71,14.73,33.62,29.94,56.2,45.2,22.57,15.24,42.32,26.07,48.8,29.53l66.24-88.17c10.39-13.81,23.66-25.03,38.38-32.44,15.72-7.92,49.54-45.72,55.42-86.76,2.84-19.81-1.11-37.78-11.76-53.43-.93-1.37-.58-3.24.79-4.17s3.24-.58,4.17.79c11.51,16.93,15.8,36.32,12.73,57.66-6.26,43.68-41.52,82.64-58.67,91.27-13.9,7-26.45,17.61-36.28,30.68l-67.77,90.21c-.58.78-1.48,1.2-2.4,1.2Z" fill="#2b2b2b"/><path d="M1138.1,846.08c-.27,0-.54-.06-.79-.19-72.5-36.88-113.12-93.25-113.52-93.81-.56-.79-.38-1.88.41-2.44.79-.56,1.88-.38,2.44.41.4.56,40.56,56.25,112.26,92.72.86.44,1.21,1.49.77,2.35-.31.61-.92.96-1.56.96Z" fill="#2b2b2b"/><path d="M1261.76,515.66c-.74,0-1.46-.27-2.02-.78l-89.88-82.08c-1.22-1.12-1.31-3.01-.19-4.24,1.12-1.22,3.01-1.31,4.24-.19l88.35,80.68c3.24-1.87,7.83-5.5,13.2-10.44,4.5-4.14,9.55-9.21,14.59-14.67,4.16-4.51,8.22-9.15,12.08-13.81,3.46-4.17,6.72-8.32,9.7-12.33,9.56-12.85,16-23.9,18.63-31.95.43-1.31.75-2.53.97-3.66-9.69-6.35-61.7-39.98-101.86-57.49-18.1-7.9-31.22-11.45-38.98-10.57-1.65.18-3.13-1-3.32-2.64-.19-1.65,1-3.13,2.64-3.32,8.95-1.01,22.71,2.59,42.05,11.04,44.73,19.51,103.78,58.64,104.37,59.04.92.62,1.43,1.69,1.32,2.8-.2,2.02-.69,4.2-1.5,6.68-3.58,10.94-12.59,24.34-19.52,33.66-3.04,4.1-6.37,8.33-9.89,12.58-3.92,4.74-8.05,9.47-12.29,14.06-5.16,5.57-10.32,10.76-14.94,15.01-4.85,4.47-11.66,10.24-16.54,12.39-.39.17-.8.25-1.21.25Z" fill="#2b2b2b"/><path d="M1262.3,491.21c-.5,0-.99-.21-1.34-.62-.62-.74-.53-1.84.2-2.47,30.48-25.84,54.17-66,54.41-66.41.49-.83,1.56-1.12,2.39-.63.83.49,1.11,1.56.63,2.39-.24.41-24.22,41.08-55.16,67.31-.33.28-.73.42-1.13.42Z" fill="#2b2b2b"/><path d="M1220.76,834.06c-1.2,0-2.29-.71-2.76-1.83-1.43-3.39-2.76-6.54-4.02-9.53-5.08-12.05-9.08-21.57-14.38-33.12-.69-1.51-.03-3.29,1.48-3.98,1.5-.69,3.29-.03,3.98,1.48,5.34,11.64,9.37,21.19,14.46,33.29,1,2.36,2.04,4.83,3.14,7.44,5.35-.71,17.35-2.65,32.05-6.33,23.47-5.87,57.53-17.05,86.49-36.98,8.3-5.71,15.81-11.9,22.36-18.42-5.86-9.62-31.79-52.75-60.92-108.67l-.08-.15c-.74-1.48-.13-3.28,1.35-4.02,1.48-.74,3.29-.13,4.02,1.35l.02.04c32.87,63.12,61.65,109.84,61.93,110.31.72,1.17.56,2.68-.4,3.67-7.19,7.41-15.57,14.42-24.89,20.83-29.69,20.43-64.48,31.87-88.43,37.86-21.01,5.26-34.96,6.73-35.09,6.74-.1,0-.2.01-.3.01Z" fill="#2b2b2b"/><path d="M906.47,929.43c-.93,0-1.84-.06-2.73-.18-1.64-.23-2.79-1.75-2.56-3.39.23-1.64,1.76-2.78,3.39-2.56,3.72.52,8.56-.64,10.78-2.59,10.52-9.21,26.54-25.96,47.62-49.79.01-.02.03-.03.04-.05l.84-.95c33.45-37.87,68.16-80.57,68.51-81,1.04-1.29,2.93-1.48,4.22-.44,1.29,1.04,1.48,2.93.44,4.22-.35.43-35.14,43.22-68.68,81.2l-.88.99s-.02.02-.03.03c-21.23,24-37.42,40.92-48.13,50.29-2.96,2.59-8.04,4.2-12.83,4.2Z" fill="#2b2b2b"/><path d="M1015.68,916.77c-.18,0-.37-.03-.56-.09-33.39-11.24-49.93-40.94-50.62-42.2-.46-.85-.15-1.91.7-2.37.85-.46,1.91-.15,2.38.7.16.3,16.61,29.77,48.67,40.56.92.31,1.41,1.3,1.1,2.22-.25.73-.93,1.19-1.66,1.19Z" fill="#2b2b2b"/><path d="M958.69,983.66c-1.47,0-2.75-1.08-2.97-2.58-.81-5.74,6.48-15.96,6.56-16.06,15.8-21.56,32.99-35.83,51.2-50.94l.84-.7c21.02-17.45,42.76-35.49,62.69-67.13.13-.2.28-.39.45-.55l12.26-11.93c1.18-1.15,3.1-1.16,4.26,0,1.16,1.17,1.19,3.02.03,4.19-.01.01-.09.09-.1.1l-12.01,11.68c-20.39,32.27-43.42,51.38-63.74,68.24l-.84.7c-17.91,14.86-34.83,28.91-50.19,49.87-2.84,3.86-5.69,9.97-5.45,11.67.23,1.64-.91,3.16-2.55,3.39-.14.02-.28.03-.42.03Z" fill="#2b2b2b"/><path d="M926.87,1029.47c-3.19,0-6.37-1.01-9.04-3.01-52.29-39.14-93.89-79.84-105.39-91.38-2.48-2.48-4.22-5.59-5.04-9-1.06-4.42-.53-9.09,1.5-13.16.02-.04.03-.08.05-.11.52-1,1.05-1.87,1.65-2.69.03-.05.13-.18.22-.31.22-.28.39-.52.56-.76,5.04-7.1,18.82-19.47,29.23-17.18,6.54,1.44,12.84,6.2,18.94,10.8,3.95,2.98,7.67,5.79,10.81,7.14,6.16,2.65,19.33,5.74,28.49,7.19,1.5.24,2.77.42,3.88.55,1.84.22,3.46,1.33,4.31,2.98.86,1.65.84,3.61-.04,5.24-.2.37-.37.79-.5,1.2-2.62,8.42,8.61,28.59,50.3,49.67.96.48,1.86,1.09,2.65,1.8.25.23.5.46.74.7,3.9,4.1,4.57,10.32,1.66,15.16-8.63,14.35-16.59,24.58-23.68,30.4,0,0,0,0,0,0-1.04.85-2.05,1.6-3.02,2.25-2.5,1.66-5.39,2.48-8.27,2.48ZM814.34,915.46s-.03.06-.04.08c-1.43,2.83-1.8,6.07-1.07,9.14.56,2.33,1.76,4.46,3.46,6.17,11.43,11.47,52.77,51.92,104.74,90.82,3.06,2.29,7.23,2.42,10.39.33.8-.53,1.66-1.17,2.55-1.9,6.55-5.39,14.07-15.09,22.34-28.85,1.53-2.53,1.18-5.79-.85-7.92-.11-.11-.25-.24-.39-.37-.41-.37-.87-.68-1.37-.93-42.38-21.43-57.32-43.97-53.33-56.8.19-.6.42-1.19.69-1.76-1.05-.13-2.22-.3-3.56-.51-9.4-1.49-23.08-4.67-29.92-7.61-3.81-1.64-7.82-4.66-12.06-7.87-5.58-4.21-11.34-8.57-16.61-9.73-6.54-1.44-18.21,7.97-23.06,14.81-.23.31-.44.6-.66.89l-.1.14c-.45.62-.81,1.21-1.16,1.87ZM936.27,1022.42h0,0ZM901.7,922.98s0,0,0,0c0,0,0,0,0,0Z" fill="#2b2b2b"/><path d="M935.46,1024.57c-.59,0-1.19-.17-1.71-.53-79-54.78-123.75-107.26-124.19-107.78-1.07-1.27-.91-3.16.35-4.23,1.26-1.07,3.16-.91,4.23.35.44.52,44.72,52.43,123.03,106.72,1.36.94,1.7,2.81.76,4.17-.58.84-1.52,1.29-2.47,1.29Z" fill="#2b2b2b"/><path d="M1223.15,818.97c-.88,0-1.64-.67-1.74-1.56-.1-.96.59-1.82,1.55-1.93.73-.08,73.83-8.37,126.63-52.06.74-.62,1.85-.51,2.46.23.62.74.51,1.85-.23,2.46-53.63,44.38-127.74,52.77-128.49,52.85-.06,0-.13.01-.19.01Z" fill="#2b2b2b"/><path d="M1106.29,378.38c-8.92,0-14.59-4.46-14.91-4.72-1.29-1.04-1.49-2.93-.45-4.22,1.04-1.29,2.92-1.49,4.21-.46.37.29,8.2,6.24,19.77,1.67,3.31-1.31,8.31-4.46,14.09-8.1,16.83-10.61,42.26-26.65,67.12-23.37,1.64.22,2.8,1.72,2.58,3.37-.22,1.64-1.72,2.8-3.37,2.58-22.72-2.99-47.04,12.34-63.13,22.5-6.29,3.96-11.25,7.1-15.09,8.61-3.96,1.56-7.6,2.14-10.81,2.14Z" fill="#2b2b2b"/><path d="M1063.69,344.65c-8.28,0-16.05-1.69-23.14-5.04-19.66-9.3-28.04-28.29-30.72-36.03-1.07-3.06-1.86-6.06-2.35-8.9-.92-5.35-3.81-10.06-8.13-13.26-.08-.06-.15-.12-.22-.18l-13.7-12.35c-.63-.57-.99-1.38-.99-2.23,0-.85.36-1.66.99-2.23,12.31-11.14,18.17-24.96,14.57-34.39-.39-1.02-1.34-2.76-2.35-4.6-2.33-4.26-5.23-9.56-6.05-14.28-.28-1.63.81-3.18,2.45-3.47,1.63-.28,3.18.81,3.47,2.45.65,3.73,3.28,8.55,5.4,12.42,1.16,2.11,2.15,3.93,2.69,5.34,4.28,11.21-1.1,26.14-13.74,38.7l11.18,10.08c5.5,4.12,9.18,10.14,10.35,16.97.43,2.48,1.16,5.23,2.11,7.95,2.44,7.02,10.01,24.25,27.62,32.58,7.96,3.77,16.95,5.16,26.72,4.14,9.96-.76,19.26-2.74,27.72-5.89,33.86-12.61,44.82-40.28,44.92-40.56.59-1.55,2.33-2.32,3.88-1.73,1.55.59,2.32,2.33,1.73,3.88-.48,1.24-12.06,30.49-48.43,44.03-8.99,3.35-18.84,5.45-29.28,6.25-2.26.24-4.5.36-6.69.36Z" fill="#2b2b2b"/><path d="M1134.98,246.52c-.12,0-.25,0-.37-.02-1.37-.17-2.44-1.25-2.61-2.62-.64-5.33-5.52-16.76-25.18-40.95-26.46-32.59-64.4-69.47-64.78-69.84-1.19-1.15-1.22-3.05-.06-4.24,1.15-1.19,3.05-1.22,4.24-.06.38.37,38.58,37.5,65.26,70.37,11.74,14.45,19.5,25.84,23.47,34.47,2.42-8.86,5.52-23.47,5.23-39.51-.72-40.07-20.97-66.41-60.16-78.27-1.59-.48-2.48-2.15-2-3.74.48-1.59,2.15-2.48,3.74-2,52.28,15.82,63.89,54.36,64.42,83.9.49,27.15-8.03,49.65-8.39,50.6-.45,1.17-1.57,1.92-2.8,1.92Z" fill="#2b2b2b"/><path d="M1146.66,286.72c-1.64,0-2.98-1.32-3-2.96-.02-1.66,1.31-3.02,2.96-3.04,4.46-.06,9.02-2.02,13.55-5.84,6.61-5.58,11.88-14.04,15.14-20.15.41-.75.8-1.52,1.17-2.3,4.22-8.73,6.52-18.45,6.66-28.11.31-21.18-5.1-32.59-16.09-33.91-10.11-1.22-21.4,6.08-21.51,6.15-1.39.91-3.25.52-4.15-.87-.91-1.39-.52-3.25.87-4.15.54-.35,13.26-8.56,25.51-7.09,10,1.2,21.82,9.11,21.37,39.96-.15,10.53-2.66,21.12-7.25,30.62-.41.86-.85,1.72-1.29,2.54-3.5,6.56-9.21,15.7-16.55,21.9-5.62,4.74-11.46,7.18-17.35,7.25-.01,0-.03,0-.04,0Z" fill="#2b2b2b"/><path d="M1154.83,267.8c-.42,0-.84-.15-1.18-.46-.71-.65-.76-1.76-.11-2.47,12.7-13.91,19.77-30.84,18.92-45.29-.39-6.6-2.45-11.97-5.66-14.74-8.26-7.16-18.86,2.64-19.31,3.06-.71.66-1.81.63-2.47-.07-.66-.7-.63-1.81.07-2.47,4.58-4.32,15.48-10.54,24-3.16,3.92,3.39,6.42,9.65,6.86,17.19.43,7.38-.63,26.83-19.83,47.86-.34.38-.82.57-1.29.57Z" fill="#2b2b2b"/><path d="M1103.82,360.63c-.5,0-1.01-.13-1.48-.39-1.42-.81-1.94-2.61-1.16-4.04.08-.16,1.02-2.15.57-5.89-.48-4-2.33-8.4-5.5-13.07-.93-1.37-.57-3.24.8-4.17,1.37-.93,3.24-.57,4.17.8,3.71,5.47,5.89,10.76,6.49,15.72.71,5.82-1.07,9.16-1.28,9.52-.55.97-1.57,1.52-2.61,1.52Z" fill="#2b2b2b"/><path d="M1005.31,221.4c-.58,0-1.17-.17-1.68-.51-3.83-2.58-7.49-5.26-10.88-7.97-21.52-17.18-32.77-35.86-33.44-55.52-.86-25.3,16.09-43.54,19.93-47.34.72-3.28,3.68-13.64,13.94-25.9,11.04-13.19,33.15-31.3,75.76-42.7,50.54-13.52,89.64-12.51,119.54,3.08,26.99,14.07,46.8,39.69,62.34,80.6l.08.21-2.78,1.14-2.8,1.07,2.8-1.07-2.82,1.02c-.04-.1-.08-.2-.12-.31-14.96-39.39-33.87-63.98-59.48-77.34-28.5-14.86-66.19-15.72-115.22-2.6-40.79,10.91-61.88,27.98-72.39,40.38-11.31,13.34-13.11,24.27-13.13,24.38-.1.67-.44,1.3-.94,1.76-.19.18-19.6,18.35-18.72,43.47.63,17.8,11.12,34.95,31.19,50.98,1.45,1.15,2.94,2.3,4.48,3.44-2.57-14.77-7.03-47.67,1.13-62.36.49-.88,1.38-1.45,2.38-1.53,1-.08,1.97.34,2.6,1.13.15.19,15.32,19.17,37.6,33.8,22.55,14.8,44.02,19.99,63.8,15.42.04,0,.07-.02.11-.02.09-.02.18-.04.27-.06l.75,2.91.67,2.92c-.21.05-.36.08-.5.11-21.43,4.94-44.44-.53-68.4-16.26-17.24-11.32-30.11-24.82-35.8-31.29-6.17,19.52,2.56,60.9,2.66,61.35.26,1.2-.24,2.43-1.25,3.11-.51.34-1.09.51-1.68.51Z" fill="#2b2b2b"/><path d="M1197.51,332.38c-1.01,0-2-.51-2.56-1.44-.4-.66-9.88-16.38-10.16-32.05-.13-7.64,1.94-14.04,6.17-19.01,4.15-4.86,9.12-9.88,14.89-15.68,5.38-5.42,11.48-11.57,17.78-18.52,1.11-1.23,3.01-1.32,4.24-.21,1.23,1.11,1.32,3.01.21,4.24-6.39,7.06-12.54,13.25-17.97,18.72-5.68,5.72-10.58,10.66-14.58,15.35-3.25,3.82-4.85,8.88-4.74,15.01.25,14.02,9.19,28.89,9.28,29.04.86,1.42.41,3.26-1,4.12-.49.3-1.03.44-1.56.44Z" fill="#2b2b2b"/><path d="M1187.24,301.85c-.93,0-1.84-.43-2.43-1.23-10.75-14.72-23.15-20.67-23.27-20.73-1.5-.7-2.14-2.49-1.44-3.99.7-1.5,2.48-2.15,3.98-1.45.56.26,13.86,6.58,25.58,22.62.98,1.34.68,3.21-.65,4.19-.53.39-1.15.58-1.77.58Z" fill="#2b2b2b"/><path d="M1290.41,299.69c-.31,0-.62-.05-.93-.15-1.47-.48-36.36-12.16-65.86-50.13-7.46-9.6-13.97-20.17-19.35-31.4-.95-1.98-1.91-4.08-2.85-6.25-4.7-10.86-6.61-22.62-5.52-34l.16-1.48c1.04-8.97,5.2-17.4,11.72-23.74h0c2.38-2.31,5.02-4.32,7.86-5.95,9.27-5.36,20.11-12.22,30.22-22.49,5.58-5.67,10.54-11.99,14.75-18.8.6-.97,1.7-1.51,2.82-1.41,1.13.1,2.11.84,2.52,1.89.41,1.06,9.38,24.44,3.41,47.24,17.02-3.96,69.21-13.13,81.79,19.37.35.9.24,1.92-.29,2.73-.53.81-1.42,1.31-2.38,1.35-10.22.43-24.95,3.32-27.63,8.45,3.58,7.73,23.08,50.85,24.3,76.91.05,1.08-.48,2.1-1.39,2.68s-2.06.62-3.02.11c-.12-.06-12.06-6.43-24.86-12.33-17.01-7.84-24.24-9.67-27.18-10,1.18,4.47,3.37,13.22,5.04,22.4,4.53,24.9,1.49,31.39-1.2,34.11-.57.58-1.35.89-2.13.89ZM1262.21,113.78c-3.62,5.18-7.66,10.04-12.07,14.52-10.62,10.78-21.88,17.92-31.5,23.48-2.41,1.39-4.65,3.09-6.67,5.06h0c-5.53,5.38-9.06,12.52-9.94,20.12l-.15,1.42c-.99,10.33.76,21.07,5.05,31,.91,2.1,1.84,4.13,2.76,6.05,5.2,10.85,11.48,21.05,18.68,30.31,24.22,31.17,52.84,44.13,60.82,47.3,2.72-7.3-1.27-31.63-7.09-52.19-.28-1-.03-2.07.67-2.83,2.29-2.53,7.01-4.21,34.02,8.09,8.51,3.88,16.84,8.07,21.9,10.67-3.55-27.49-23.56-69.96-23.77-70.42-.3-.62-.37-1.33-.2-2,2.41-9.84,19.99-12.73,29.05-13.56-16.27-27.85-77.4-10.84-78.04-10.65-1.09.31-2.26-.02-3.03-.85-.77-.83-1-2.02-.61-3.08,5.91-15.84,2.56-33.51.13-42.42ZM1209.88,154.69h0,0Z" fill="#2b2b2b"/><path d="M1207.4,218.87c-.44,0-.87-.16-1.21-.49-.15-.14-.3-.29-.44-.43-13.79-13.4-19.95-26.22-18.29-38.06,2.08-14.8,15.79-23.63,21.59-26.74,1.49-.8,2.44-1.21,2.47-1.22.89-.38,1.92.03,2.3.92.38.89-.03,1.92-.92,2.3,0,0-.86.37-2.2,1.09-5.33,2.86-17.92,10.93-19.78,24.15-1.5,10.68,4.31,22.48,17.28,35.08.14.14.27.27.4.39.7.67.72,1.78.05,2.47-.34.36-.8.54-1.26.54Z" fill="#2b2b2b"/><path d="M1056.1,504.2c-.28,0-.57-.07-.84-.21-35.62-19.42-67.33-54.39-67.65-54.74-.65-.72-.59-1.82.13-2.47.72-.65,1.82-.59,2.47.13.31.35,31.64,34.88,66.73,54.01.85.46,1.16,1.53.7,2.37-.32.58-.92.91-1.54.91Z" fill="#2b2b2b"/><path d="M1379.34,850.11c-.09,0-.19,0-.28-.02-.95-.16-1.6-1.06-1.45-2.01.06-.36,5.71-36.7-13.38-62.87-.23-.33-.46-.64-.7-.94-.59-.77-.44-1.87.33-2.45.76-.59,1.87-.44,2.45.33.26.34.52.68.76,1.03,19.96,27.35,14.24,63.93,13.99,65.47-.14.86-.88,1.47-1.72,1.47Z" fill="#2b2b2b"/><path d="M1343.42,790.74c-1.33,0-2.55-.9-2.9-2.25-.41-1.6.55-3.24,2.15-3.65.36-.09,9.03-2.31,22.69-3.63,1.21-.12,2.45-.23,3.74-.33,7.74-.61,14.71-.13,21.45.33,14.08.96,26.24,1.79,42.16-6.95.88-.48,2-1.01,3.29-1.62,2.29-1.08,7.67-3.61,8.37-4.99.76-1.48,2.57-2.06,4.04-1.3,1.47.76,2.06,2.56,1.3,4.04-1.52,2.96-5.76,5.14-11.16,7.68-1.15.54-2.24,1.06-2.96,1.45-17.47,9.58-31.06,8.65-45.46,7.67-6.52-.44-13.27-.9-20.57-.33-1.25.1-2.45.2-3.63.32-13.16,1.27-21.69,3.45-21.77,3.47-.25.06-.5.1-.75.1Z" fill="#2b2b2b"/><path d="M1509.45,909.03c-6.71,0-13.38-1.34-17.08-5.24-4.54-4.79-6.95-12.05-9.28-19.07-1.5-4.52-2.92-8.8-4.7-11.59-3.5-5.5-12.47-15.23-19.11-21.47-1.09-1.02-2.03-1.87-2.86-2.59-1.4-1.23-2.09-3.04-1.84-4.86.25-1.83,1.4-3.41,3.08-4.23.38-.18.75-.4,1.13-.68,6.95-5.13,9.37-27.17-12.49-66.79-.51-.93-.9-1.92-1.15-2.93-.08-.33-.14-.65-.19-.97-.84-5.47,2.21-10.81,7.41-13.01,15.32-6.5,27.72-10.12,36.85-10.76.02,0,.04,0,.07,0,.03,0,.06,0,.09,0,1.29-.08,2.5-.11,3.61-.08,6.3.18,11.85,4.22,13.82,10.07,20.14,59.82,30.67,114.99,33.42,130.47.6,3.37.23,6.83-1.08,10-1.69,4.11-4.86,7.52-8.92,9.61-.96.49-1.92.89-2.91,1.21-.17.06-.29.09-.4.13l-.85.27c-3.98,1.35-10.33,2.54-16.65,2.54ZM1460.94,845.05c.73.65,1.54,1.38,2.44,2.23,6.83,6.41,16.18,16.51,20.08,22.63,2.18,3.42,3.71,8.03,5.33,12.92,2.12,6.4,4.32,13.02,7.94,16.83,4.52,4.76,19.52,3.84,27.46,1.15l.9-.29c.05-.02.17-.05.23-.07l.19-.06c.67-.22,1.34-.5,1.98-.82,2.82-1.45,4.99-3.78,6.14-6.57.87-2.11,1.12-4.41.72-6.65-2.73-15.39-13.19-70.18-33.2-129.61-1.17-3.47-4.51-5.88-8.31-5.98-.93-.03-1.97,0-3.09.07-.04,0-.07,0-.11,0-8.47.6-20.21,4.07-34.91,10.3-2.67,1.13-4.25,3.82-3.83,6.54.02.14.06.32.1.5.12.5.31.97.57,1.44,22.33,40.5,21.51,66.61,10.79,74.53-.48.35-.94.65-1.42.91Z" fill="#2b2b2b"/><path d="M1528.75,904.99c-1.53,0-2.84-1.17-2.98-2.73-.06-.65-6.31-66.07-38.96-152.26-.59-1.55.19-3.28,1.74-3.87,1.55-.59,3.28.19,3.87,1.74,32.96,87.01,39.26,153.18,39.32,153.84.15,1.65-1.07,3.11-2.72,3.26-.09,0-.18.01-.28.01Z" fill="#2b2b2b"/><path d="M1318.39,860.38c-2.49,0-4.91-.05-7.25-.16-20.75-.97-35.71-6.09-44.47-15.22l-1.07-1.11c-3.9-4.03-8.76-9.05-12.91-18.28,0,0-.04-.09-.04-.1l2.71-1.29,2.75-1.21-2.75,1.21,2.78-1.13c3.74,8.33,8.01,12.73,11.77,16.62l1.09,1.13c15.12,15.76,53.99,17.92,106.64,5.91l1.31-.29c31.21-7.09,54.21-11.42,68.33-12.85,4.63-.47,10.95,1.83,14.98,5.47,1.23,1.11,1.33,3.01.21,4.24-1.11,1.23-3.01,1.32-4.24.21-2.75-2.48-7.39-4.25-10.35-3.96-13.88,1.4-36.63,5.69-67.63,12.73l-1.31.29c-22.43,5.12-43.19,7.77-60.55,7.77Z" fill="#2b2b2b"/><path d="M1395.93,569.66c-.85,0-1.7-.36-2.29-1.06l-68.72-81-21.73-12.75c-1.43-.84-1.91-2.68-1.07-4.11.84-1.43,2.68-1.91,4.11-1.07l22.17,13.01c.29.17.55.39.77.65l69.05,81.39c1.07,1.26.92,3.16-.35,4.23-.56.48-1.25.71-1.94.71Z" fill="#2b2b2b"/><path d="M1445.8,539.52c-.81,0-1.62-.33-2.22-.98l-83.93-91.94s-.05-.05-.07-.08c-2.96-3.48-6.68-6.47-11.07-8.88l-16.28-8.09c-1.48-.74-2.09-2.54-1.35-4.02.74-1.48,2.54-2.09,4.02-1.35l16.34,8.11s.07.04.11.06c5.04,2.76,9.34,6.21,12.78,10.25l83.89,91.9c1.12,1.22,1.03,3.12-.19,4.24-.58.53-1.3.78-2.02.78Z" fill="#2b2b2b"/><path d="M959.07,533.61c-25.53,0-66.58-14.34-86.05-30.78-1.27-1.07-1.43-2.96-.36-4.23,1.07-1.27,2.96-1.43,4.23-.36,19.77,16.69,64.84,31.64,87.67,29.08,41.82-4.69,59.07-24,59.24-24.19,1.09-1.25,2.98-1.38,4.23-.3,1.25,1.08,1.39,2.97.31,4.22-.75.87-18.76,21.26-63.12,26.23-1.92.22-3.99.32-6.16.32Z" fill="#2b2b2b"/><path d="M962.3,477.33c-.2,0-.39-.02-.59-.06l-64.79-12.94c-1.62-.32-2.68-1.9-2.36-3.53.32-1.62,1.9-2.68,3.53-2.35l63.34,12.65,13.79-12.12c1.24-1.09,3.14-.97,4.23.27s.97,3.14-.27,4.23l-14.91,13.09c-.55.49-1.26.75-1.98.75Z" fill="#2b2b2b"/><path d="M1013.33,305.36c-1.48,0-2.77-1.1-2.97-2.61-.21-1.64.94-3.15,2.59-3.36.27-.04,22.64-3.16,50.18-18.78l-51.79,16.42c-1.58.5-3.27-.37-3.77-1.95-.5-1.58.37-3.27,1.95-3.77l72.85-23.09c1.4-.44,2.91.19,3.58,1.5.67,1.31.29,2.9-.89,3.78-36.55,27.05-69.94,31.67-71.34,31.85-.13.02-.26.03-.39.03Z" fill="#2b2b2b"/><path d="M1042.03,339.48c-1.4,0-2.65-.99-2.94-2.41-.33-1.62.73-3.2,2.35-3.53,1.99-.4,48.11-10.39,38.89-61.93-.29-1.63.79-3.19,2.42-3.48,1.63-.29,3.19.79,3.48,2.42,5.36,29.94-6.82,47.11-17.98,56.24-11.99,9.81-25.09,12.52-25.64,12.63-.2.04-.4.06-.59.06Z" fill="#2b2b2b"/><path d="M1445.65,621.2c-7.63,0-15.46-5.64-16.44-6.37-.24-.18-.45-.39-.63-.63l-15.32-20.91c-.98-1.34-.69-3.21.65-4.19,1.33-.98,3.21-.69,4.19.65l15.04,20.53c2.71,1.91,9.64,5.87,14.29,4.74,1.5-.36,2.63-1.23,3.52-2.7l-1.52-14.25c-.18-1.65,1.02-3.13,2.67-3.3,1.64-.18,3.12,1.02,3.3,2.66l1.62,15.18c.06.56-.04,1.13-.29,1.64-1.72,3.49-4.44,5.77-7.89,6.6-1.04.25-2.11.36-3.18.36Z" fill="#2b2b2b"/><path d="M1455.25,615.96c-.47,0-.96-.02-1.46-.06-1.65-.14-2.88-1.59-2.74-3.24s1.56-2.88,3.24-2.74c7,.58,8.66-5.77,8.95-7.29l-.69-18.67c-.06-1.66,1.23-3.05,2.89-3.11,1.62-.06,3.05,1.23,3.11,2.89l.7,18.98c0,.18,0,.36-.03.54-.65,4.53-4.41,12.7-13.96,12.7Z" fill="#2b2b2b"/><path d="M1467.55,603.55c-1.16,0-2.27-.68-2.76-1.82-.65-1.52.05-3.29,1.57-3.94,4.3-1.85,6.39-5.91,6.23-12.08-.11-4.66-1.5-8.72-1.51-8.77-.54-1.56.29-3.27,1.85-3.82,1.57-.54,3.27.28,3.82,1.84.07.2,1.71,4.96,1.85,10.59.23,8.73-3.18,14.87-9.86,17.75-.39.17-.79.24-1.18.24Z" fill="#2b2b2b"/><path d="M1476.06,588.62c-.51,0-1.03-.13-1.51-.41-1.43-.83-1.91-2.67-1.08-4.1,3.95-6.77,4.74-13.1,2.41-19.35-6.64-17.82-36.32-28.15-36.62-28.26-1.57-.54-2.4-2.24-1.87-3.81.54-1.57,2.24-2.4,3.81-1.87,1.33.45,32.66,11.34,40.3,31.83,2.96,7.93,2,16.17-2.85,24.48-.56.96-1.56,1.49-2.59,1.49Z" fill="#2b2b2b"/><path d="M1419.24,611.85c-5.82,0-13.28-.96-19.85-7.94-11.54-12.28-7.19-32.16-4.79-40.14.48-1.59,2.15-2.49,3.74-2.01,1.59.48,2.49,2.15,2.01,3.74-2.1,6.98-5.98,24.3,3.42,34.3,6.04,6.42,12.71,6.19,18.6,5.98,1.25-.04,2.44-.09,3.57-.06,1.66.04,2.97,1.41,2.93,3.07-.04,1.66-1.37,2.96-3.07,2.93-.95-.02-2.05.02-3.21.06-1.03.04-2.14.08-3.33.08Z" fill="#2b2b2b"/><path d="M870.75,478.2c-.75,0-1.51-.28-2.09-.85-5.66-5.51-13.76-18.99-3.87-30.55.15-.17.31-.33.5-.47,1.32-.99,3.21-.73,4.2.6.87,1.16.77,2.75-.16,3.79-8.66,10.16,3.02,21.84,3.52,22.33,1.18,1.16,1.2,3.06.05,4.24-.59.6-1.37.9-2.15.9Z" fill="#2b2b2b"/><path d="M896.81,468.6c-.12,0-.24,0-.36-.02-1.65-.2-2.82-1.69-2.62-3.33.65-5.45.42-9.45.41-9.49-.52-9-7.12-16.43-10.3-20-1.25-1.4-3.98-3.31-5.78-4.08l-13.24-1.61c-.82-.1-1.63-.03-2.42.21-2.45.74-8.38,2.93-10.55,7.15-1.09,2.11-1.11,4.5-.07,7.32.82,2.23,1.83,3.8,3.01,4.67,3.83,2.84,10.08-2.82,10.14-2.88,1.22-1.12,3.12-1.04,4.24.18,1.12,1.22,1.04,3.12-.18,4.24-4.57,4.2-11.97,7.58-17.77,3.28-2.13-1.57-3.83-4.07-5.07-7.41-1.63-4.43-1.51-8.51.37-12.15,3.11-6.03,10.19-8.94,14.14-10.14,1.59-.48,3.23-.63,4.89-.43l13.63,1.65c.24.03.47.09.69.17,2.66,1,6.51,3.64,8.4,5.77,3.68,4.14,11.23,12.62,11.86,23.69.01.17.27,4.53-.45,10.56-.18,1.52-1.48,2.64-2.97,2.64Z" fill="#2b2b2b"/><path d="M862.21,503.64c-14.4,0-24.13-8.15-27.27-11.21-18.22.84-23.76-9.94-24.45-11.44-4-7.77-.71-17.19.74-20.58-3.96-10.71,1.05-18.66,5.42-22.42-.96-4.85-.22-8.96,2.22-12.25,3.46-4.67,9.44-6.2,12.86-6.7.59-4.4,2.85-13.69,17.71-13.34,17,.4,30.45,20.02,31.02,20.86.93,1.37.57,3.24-.81,4.17-1.37.93-3.24.57-4.16-.8h0c-.12-.18-12.3-17.9-26.19-18.22-10.68-.25-11.32,5.37-11.73,9.09-.08.75-.15,1.34-.32,1.89-.38,1.24-1.52,2.09-2.81,2.11-.07,0-7.59.23-10.76,4.53-1.59,2.16-1.85,5.2-.76,9.05.36,1.27-.15,2.63-1.27,3.34-.94.62-9.16,6.45-4.39,17.59.35.82.32,1.75-.08,2.54-.05.09-4.83,9.73-1.32,16.44.04.08.08.16.11.24.15.34,4.19,9.03,19.94,7.82.95-.07,1.89.32,2.51,1.05.55.64,13.94,15.79,35.8,8.07,1.56-.55,3.28.27,3.83,1.83.55,1.56-.27,3.28-1.83,3.83-5.05,1.78-9.73,2.5-14.01,2.5Z" fill="#2b2b2b"/><path d="M848.51,438.58c-.57,0-1.14-.16-1.65-.5-7.9-5.23-14.6-14.1-14.88-14.48-.99-1.33-.72-3.2.6-4.2,1.32-.99,3.2-.73,4.2.6.06.08,6.37,8.43,13.39,13.08,1.38.91,1.76,2.78.85,4.16-.58.87-1.53,1.34-2.5,1.34Z" fill="#2b2b2b"/><path d="M843.04,460.59c-9.73,0-22.75-16.15-25.39-19.55-1.01-1.31-.77-3.19.54-4.21,1.31-1.01,3.19-.78,4.21.53,5.81,7.49,16.51,18.14,21.06,17.19,1.27-.26,2.38-.55,3.31-.85,2.42-.79,2.66-1.29,3.11-2.19.19-.37.42-.84.74-1.33.03-.05.06-.09.1-.14h0s.05-.07.1-.15c1.01-1.32,2.89-1.57,4.21-.56,1.29.99,1.56,2.82.62,4.13-.01.02-.02.03-.03.05-.11.18-.22.4-.35.66-.95,1.93-2.18,3.79-6.63,5.24-1.14.37-2.46.71-3.94,1.02-.53.11-1.08.16-1.63.16Z" fill="#2b2b2b"/><path d="M837.55,474.07c-13.74,0-24.69-10.97-25.19-11.47-1.16-1.18-1.15-3.08.04-4.24,1.18-1.16,3.08-1.15,4.24.03.12.12,11.31,11.24,23.61,9.49.15-.02.31-.05.47-.08,2.92-.5,4.75-1.5,5.47-2.98,1.28-2.66-.79-6.65-.81-6.69-.8-1.45-.27-3.28,1.18-4.07,1.45-.8,3.28-.27,4.07,1.18.37.68,3.57,6.78.95,12.19-1.61,3.33-4.92,5.45-9.82,6.28-.19.04-.42.07-.65.11-1.2.17-2.39.25-3.55.25Z" fill="#2b2b2b"/><path d="M836.14,492.36c-1.06,0-2.08-.56-2.63-1.55-.8-1.45-.28-3.27,1.16-4.07,1.53-.86,5.71-3.9,6.62-7.59.46-1.85.06-3.71-1.22-5.67-.9-1.39-.51-3.25.88-4.15,1.39-.9,3.25-.51,4.15.88,2.21,3.4,2.89,6.9,2.01,10.41-1.74,6.98-9.2,11.19-9.52,11.36-.46.26-.96.38-1.45.38Z" fill="#2b2b2b"/><path d="M1072.6,252.08c.06,1.5-1.01,2.87-2.61,3.33-4.33,1.25-13.17,3.43-20.88,3.13-1.52-.06-3.4-.89-3.81-2.21-2.94-9.45-13.08-47.83,5.52-50.49,18.39-2.64,21.33,35.91,21.79,46.25Z"/><path d="M705.25,772.09c-8.99,0-17.95-.99-26.81-2.96-19.93-4.44-38.68-13.86-54.21-27.25-21.18-18.25-35.26-42.43-40.7-69.92-.33-1.69-.64-3.38-.89-5.04-3.88-24.79-.22-49.87,10.58-72.51,11.19-23.46,29.85-43.21,52.54-55.62,11.06-6.05,23-10.37,35.5-12.85,9.08-1.8,18.34-2.59,27.51-2.35,34.74.91,67.77,16.56,90.62,42.94,12.72,14.68,21.91,32.43,26.59,51.35.46,1.86.9,3.81,1.29,5.79,5.14,25.97,2,52.35-9.1,76.29-9.5,20.5-24.37,38.03-43,50.69-13.79,9.36-29.14,15.77-45.63,19.03-8.08,1.6-16.2,2.4-24.29,2.4ZM705.52,529.56c-7.72,0-15.47.76-23.1,2.27-11.9,2.36-23.26,6.47-33.78,12.23-21.59,11.8-39.35,30.6-50.01,52.94-10.28,21.55-13.76,45.41-10.07,69.01.25,1.58.53,3.19.85,4.8,5.18,26.17,18.58,49.17,38.74,66.54,14.79,12.74,32.63,21.71,51.6,25.93,16.02,3.57,32.38,3.75,48.63.53,15.69-3.11,30.3-9.2,43.42-18.11,17.73-12.05,31.88-28.73,40.93-48.25,10.56-22.78,13.55-47.89,8.66-72.6-.37-1.88-.79-3.74-1.23-5.51,0,0,0,0,0,0-4.45-18-13.2-34.9-25.3-48.86-21.75-25.11-53.18-40.01-86.24-40.87-1.03-.03-2.06-.04-3.09-.04Z" fill="#2b2b2b"/><path d="M686.06,687.72c-.63,0-1.22-.34-1.53-.9l-.3-.54-25.71-45.99c-.37-.66-.27-1.48.25-2.04l36.16-39.06c.51-.56,1.38-.78,2.07-.46l48.39,22.36c.69.32,1.09,1.04,1,1.8l-.06.51h0s-6.25,52.42-6.25,52.42c-.09.75-.65,1.36-1.4,1.51l-52.29,10.36c-.11.02-.23.03-.34.03ZM662.2,639.7l24.77,44.31,49.8-9.86,6.01-50.41-46.09-21.29-34.49,37.25ZM744.6,623.19h0,0Z" fill="#2b2b2b"/><path d="M772.09,706.3c-.42,0-.85-.16-1.18-.46l-32.7-29.74c-.71-.65-.77-1.76-.12-2.47.65-.71,1.76-.77,2.47-.12l31.76,28.88,36.68-20.83c.88-3.39,4.6-18,5.62-25.51,1.01-7.42.15-20.88-.07-24.07l-31.24-28.42-37.33,21.2c-.84.48-1.91.18-2.39-.66-.48-.84-.18-1.91.66-2.39l38.43-21.82c.66-.37,1.48-.28,2.04.23l32.69,29.74c.33.3.53.71.57,1.16.05.68,1.29,16.72.1,25.5-1.18,8.7-5.7,25.92-5.89,26.65-.12.46-.42.84-.83,1.08l-38.43,21.82c-.27.15-.57.23-.86.23Z" fill="#2b2b2b"/><path d="M668.34,727.2c-.05,0-.11,0-.17,0l-44-4.16c-.4-.04-.78-.21-1.07-.5-.39-.39-9.59-9.57-15.92-20.33-5.62-9.56-10.66-24.41-10.87-25.03-.14-.41-.12-.86.05-1.26l17.63-40.52c.3-.69,1.02-1.12,1.77-1.04l44,4.16c.96.09,1.67.94,1.58,1.91-.09.96-.92,1.67-1.91,1.58l-42.74-4.04-16.86,38.73c1.03,2.96,5.56,15.59,10.35,23.75,5.34,9.07,13.04,17.23,14.93,19.18l42.1,3.98,17.13-39.36c.39-.89,1.42-1.29,2.3-.9.89.39,1.29,1.42.9,2.3l-.22.5-17.41,40.02c-.28.64-.91,1.05-1.6,1.05Z" fill="#2b2b2b"/><path d="M704.92,754.51c-.37,0-.74,0-1.12,0l-8.81-.08c-.46,0-.91-.19-1.23-.53l-26.66-27.23c-.68-.69-.67-1.8.03-2.47.69-.68,1.8-.66,2.47.03l26.16,26.71,8.09.07c14.81.14,29.39-2.58,43.19-8.09l5.48-2.18,18.02-36.95c.42-.87,1.48-1.23,2.34-.81.87.42,1.23,1.47.81,2.34l-18.31,37.55c-.19.39-.52.7-.93.86l-6.11,2.43c-13.88,5.54-28.47,8.34-43.4,8.34Z" fill="#2b2b2b"/><path d="M615.95,637.3c-.82,0-1.55-.58-1.71-1.41l-8.74-43.73c-.08-.42-.01-.85.2-1.22.32-.55,7.86-13.52,16.3-22.97,4.62-5.18,19.18-16.59,19.8-17.07.35-.28.79-.41,1.24-.36l44.4,4.2c.77.07,1.4.64,1.55,1.4l8.74,43.73c.19.95-.42,1.87-1.37,2.06-.94.19-1.87-.43-2.06-1.37l-8.48-42.46-42.41-4.01c-2.73,2.15-14.87,11.81-18.8,16.22-7.22,8.09-14,19.21-15.55,21.83l8.61,43.08c.19.95-.42,1.87-1.37,2.06-.12.02-.23.03-.34.03Z" fill="#2b2b2b"/><path d="M783.56,603.17c-.81,0-1.54-.57-1.71-1.4l-7.1-34.4c-2.25-2.08-13.68-12.42-24.63-17.91-5.6-2.81-25.73-9.07-29.84-10.34l-32.11,18.85c-.83.49-1.91.21-2.39-.62-.49-.83-.21-1.91.62-2.4l32.78-19.24c.42-.25.93-.31,1.4-.16,1,.31,24.64,7.54,31.12,10.78,12.62,6.32,25.33,18.36,25.87,18.87.26.25.43.56.51.91l7.21,34.94c.2.95-.41,1.87-1.36,2.07-.12.02-.24.04-.36.04Z" fill="#2b2b2b"/><path d="M642.88,554.03c-.21,0-.43-.04-.65-.12-.9-.36-1.34-1.37-.98-2.27l4.43-11.13c.35-.9,1.37-1.34,2.27-.99.9.35,1.34,1.37.99,2.27l-4.43,11.14c-.27.69-.93,1.1-1.63,1.1Z" fill="#2b2b2b"/><path d="M595.53,597.59c-.73,0-1.41-.46-1.66-1.18-.31-.91.18-1.91,1.09-2.22l11.69-4.02c.92-.31,1.91.17,2.22,1.09.31.91-.17,1.91-1.09,2.22l-11.69,4.02c-.19.06-.38.09-.57.09Z" fill="#2b2b2b"/><path d="M720.06,538.98c-.43,0-.86-.16-1.2-.47l-11.37-10.63c-.71-.66-.76-1.78-.1-2.49.66-.71,1.75-.76,2.45-.1l11.41,10.67c.71.66.74,1.77.08,2.47-.34.37-.81.55-1.28.55Z" fill="#2b2b2b"/><path d="M796.63,570.68c-.07,0-.14,0-.21-.01l-20.28-2.45c-.96-.12-1.64-.99-1.53-1.95.12-.96.98-1.65,1.95-1.53l20.28,2.45c.96.12,1.64.99,1.53,1.95-.11.89-.86,1.54-1.74,1.54Z" fill="#2b2b2b"/><path d="M816.26,632.91c-.27,0-.54-.06-.8-.19-.86-.44-1.2-1.5-.76-2.36l6.4-12.45c.44-.86,1.5-1.2,2.36-.76.86.44,1.2,1.5.76,2.36l-6.4,12.45c-.31.6-.92.95-1.56.95Z" fill="#2b2b2b"/><path d="M815.51,700.65c-.74,0-1.43-.48-1.67-1.22l-.06-.19-4.94-15.99c-.29-.92.23-1.9,1.16-2.19.92-.28,1.9.23,2.19,1.16l4.99,16.16c.29.92-.22,1.91-1.14,2.2-.18.06-.35.08-.53.08Z" fill="#2b2b2b"/><path d="M774,750.08c-.17,0-.34-.03-.52-.08l-20.22-6.23c-.92-.28-1.44-1.26-1.16-2.19.29-.92,1.27-1.44,2.19-1.16l20.22,6.23c.92.28,1.44,1.26,1.16,2.19-.23.75-.92,1.24-1.67,1.24Z" fill="#2b2b2b"/><path d="M678.3,768.64c-.49,0-.99-.21-1.33-.61-.63-.74-.54-1.84.2-2.47l16.71-14.22c.74-.63,1.84-.54,2.47.2.63.74.54,1.84-.2,2.47l-16.71,14.21c-.33.28-.73.42-1.13.42Z" fill="#2b2b2b"/><path d="M626.35,742.98c-.89,0-1.65-.67-1.74-1.58l-2.01-19.94c-.1-.96.6-1.82,1.57-1.92.96-.1,1.82.6,1.92,1.57l2.01,19.94c.1.96-.61,1.82-1.57,1.92-.06,0-.12,0-.18,0Z" fill="#2b2b2b"/><path d="M597.98,678.35c-.39,0-.78-.13-1.11-.4l-12.76-10.45c-.75-.61-.86-1.71-.25-2.46.61-.75,1.71-.86,2.46-.25l12.76,10.45c.75.61.86,1.72.25,2.46-.35.42-.85.64-1.35.64Z" fill="#2b2b2b"/><path d="M705.3,1018.9c-28.6,0-55.5-1.32-75.75-3.73-32.83-3.9-32.83-8.67-32.83-10.71s0-6.81,32.83-10.71c20.25-2.41,47.15-3.73,75.75-3.73s55.5,1.32,75.75,3.73c32.83,3.9,32.83,8.68,32.83,10.71s0,6.81-32.83,10.71c-20.25,2.41-47.15,3.73-75.75,3.73ZM600.21,1004.5s1.74,3.98,31.07,7.35c19.96,2.29,46.24,3.55,74.02,3.55s54.06-1.26,74.02-3.55c27.85-3.2,30.8-6.95,31.05-7.39-.25-.44-3.2-4.19-31.05-7.39-19.96-2.29-46.24-3.55-74.02-3.55s-54.06,1.26-74.02,3.55c-29.49,3.38-31.06,7.39-31.07,7.43h0Z" fill="#2b2b2b"/><path d="M2141.75,626.64c-4.4,0-7.43-.39-7.76-.44l.81-5.95-.4,2.97.4-2.97c.21.03,21.07,2.69,33.1-6.88,4.87-3.87,7.67-9.35,8.31-16.27l29.12-434.54c.6-8.83-1.71-17.51-6.5-24.44-6.67-9.64-16.91-15.04-30.42-16.05l.45-5.98c15.2,1.13,27.27,7.57,34.91,18.63,5.56,8.05,8.24,18.09,7.55,28.26l-29.13,434.62c-.81,8.7-4.37,15.57-10.58,20.5-9.09,7.22-21.78,8.55-29.86,8.55Z" fill="#2b2b2b"/><path d="M2130.69,625.99c-.87,0-1.74-.03-2.6-.09l-286.76-19.7c-20.87-1.44-36.69-19.59-35.26-40.46l29.88-434.91c.69-10.11,5.28-19.35,12.92-26,7.64-6.66,17.41-9.94,27.54-9.24l286.76,19.7c2.04.14,4.11.45,6.13.92,18.17,4.27,30.42,20.9,29.13,39.54l-29.88,434.9c-1.27,18.46-15.52,33.23-33.89,35.14-1.31.14-2.63.21-3.96.21ZM1873.75,101.49c-7.71,0-15.07,2.75-20.93,7.86-6.43,5.6-10.3,13.38-10.88,21.89l-29.88,434.91c-1.21,17.57,12.11,32.85,29.68,34.06l286.76,19.7c1.85.13,3.71.09,5.53-.1h0c15.46-1.6,27.46-14.04,28.53-29.58l29.88-434.9c1.09-15.69-9.22-29.69-24.51-33.28-1.7-.4-3.44-.66-5.16-.78l-286.77-19.7c-.75-.05-1.5-.08-2.25-.08Z" fill="#2b2b2b"/><path d="M2146.39,590.03l-318.29-21.87,29.65-431.55,318.29,21.87-29.65,431.55ZM1831.83,564.91l311.31,21.39,29.17-424.57-311.31-21.39-29.17,424.57Z" fill="#2b2b2b"/><path d="M1876.96,856.81l-82.27-147.08,61.69,24.98,46.36-112.23,118.74,48.07-45.98,112.38,61.35,24.84-159.89,49.03ZM1812.78,725.69l68.01,121.58,132.17-40.53-47.91-19.4,45.98-112.38-103.93-42.08-46.36,112.23-47.96-19.42Z" fill="#2b2b2b"/><path d="M561.19,1298.49l-182.92-182.92-182.92,182.91-107.74-107.76,182.91-182.91-182.91-182.91,107.74-107.76,182.92,182.91,182.92-182.92,106.74,107.78-182.91,182.9,182.91,182.9-106.74,107.78ZM96.09,1190.73l99.26,99.27,182.92-182.91,182.9,182.9,98.29-99.25-182.93-182.92,182.93-182.92-98.29-99.25-182.9,182.9-182.92-182.91-99.26,99.27,182.91,182.91-182.91,182.91Z" fill="#2b2b2b"/></svg>