<?xml version="1.0" encoding="UTF-8"?><svg id="_レイヤー_1" xmlns="http://www.w3.org/2000/svg" width="1000" height="190.06" viewBox="0 0 1000 190.06"><path d="M86.93,80.94c-1.13-.01-2.23-.04-3.34-.06.43-1.66.88-3.34,1.36-5.1,1.25-4.58,2.68-9.78,4.02-16.6.86-4.33-1.96-8.54-6.3-9.4-4.33-.85-8.54,1.97-9.4,6.3-1.23,6.25-2.52,10.94-3.76,15.47-.82,2.99-1.61,5.89-2.3,8.96-5.44-.05-11.3.05-18.06.52-4.41.31-7.73,4.13-7.42,8.54.31,4.41,4.13,7.73,8.54,7.42,5.21-.37,9.81-.49,14.15-.49-2.66,14.86-6.7,29.48-12.06,43.58-1.57,4.13.5,8.75,4.63,10.32.94.36,1.9.52,2.84.52,3.23,0,6.26-1.96,7.48-5.16,6.01-15.82,10.47-32.25,13.3-48.95,1.99.05,4.02.09,6.12.12,9.37.1,20.74,3.05,24.55,11.01,1.65,3.43,2.04,8.11,1.19,14.31-.72,5.24-2.32,11.89-5.85,17.66-2.27-1.95-5.56-2.54-8.47-1.25-4.04,1.8-5.85,6.52-4.06,10.56,1.63,3.67,4.15,6.96,7.27,9.5,1.47,1.2,3.26,1.79,5.05,1.79,1.88,0,3.76-.66,5.27-1.98,11.26-9.85,15.27-23.99,16.65-34.12,1.28-9.39.43-17.04-2.62-23.39-5.94-12.38-20.44-19.89-38.8-20.09Z" fill="#ffa64d"/><path d="M106.43,162.28c-2.23,0-4.42-.78-6.15-2.19-3.33-2.71-6.02-6.22-7.76-10.14-2.19-4.91.03-10.69,4.95-12.87,2.78-1.24,5.98-1.08,8.61.34,2.85-5.33,4.13-11.22,4.7-15.39.8-5.84.46-10.2-1.03-13.31-3.47-7.24-14.15-9.92-22.99-10.02-1.58-.02-3.12-.05-4.63-.08-2.86,16.31-7.27,32.38-13.13,47.78-1.43,3.76-5.09,6.29-9.11,6.29-1.18,0-2.35-.21-3.46-.64-5.03-1.91-7.56-7.55-5.65-12.58,5.04-13.26,8.94-27.11,11.59-41.2-4.08.04-7.92.2-11.93.48-5.37.38-10.03-3.68-10.41-9.04-.38-5.36,3.68-10.03,9.04-10.41,5.5-.39,10.88-.56,16.79-.53.59-2.48,1.24-4.88,2-7.66,1.23-4.5,2.51-9.15,3.73-15.35,1.04-5.27,6.18-8.72,11.45-7.68,2.56.5,4.76,1.97,6.21,4.14,1.45,2.16,1.97,4.76,1.47,7.32-1.36,6.88-2.79,12.1-4.05,16.71-.27,1-.54,1.98-.8,2.94.37,0,.73.01,1.1.02,19.04.21,34.13,8.09,40.36,21.09,3.2,6.67,4.1,14.64,2.77,24.39-1.42,10.43-5.57,25-17.23,35.2-1.78,1.55-4.06,2.41-6.42,2.41ZM101.41,139.74c-.86,0-1.72.18-2.53.54-3.15,1.4-4.57,5.1-3.17,8.25,1.52,3.42,3.87,6.48,6.77,8.85,1.11.9,2.51,1.4,3.94,1.4,1.51,0,2.98-.55,4.12-1.55,10.85-9.49,14.73-23.2,16.07-33.04,1.24-9.04.43-16.37-2.46-22.4-5.64-11.76-19.56-18.9-37.24-19.1h0c-.98-.01-1.93-.03-2.89-.05l-2.68-.05.55-2.14c.43-1.67.89-3.36,1.37-5.13,1.25-4.56,2.66-9.72,3.99-16.47.32-1.64-.01-3.3-.94-4.69s-2.34-2.33-3.98-2.65c-3.38-.67-6.67,1.54-7.34,4.92-1.25,6.32-2.54,11.03-3.79,15.59-.89,3.25-1.62,5.96-2.28,8.88l-.31,1.38h-1.41c-6.38-.07-12.08.09-17.92.5-3.44.24-6.04,3.23-5.8,6.67.24,3.44,3.22,6.04,6.67,5.8,4.77-.33,9.31-.49,14.27-.5h2.09s-.37,2.06-.37,2.06c-2.69,15.01-6.78,29.78-12.14,43.89-1.23,3.22.4,6.84,3.62,8.06.72.27,1.46.41,2.22.41,2.58,0,4.93-1.62,5.84-4.03,5.96-15.66,10.4-32.02,13.21-48.62l.25-1.5,1.52.04c1.98.05,4,.09,6.1.12,9.89.11,21.95,3.32,26.11,12.01,1.8,3.75,2.24,8.76,1.35,15.3-.98,7.16-3.03,13.33-6.09,18.33l-1.07,1.75-1.56-1.34c-1.15-.99-2.62-1.51-4.09-1.51Z" fill="#2b2b2b"/><path d="M151.46,99.93c-1.85-5.8-3.76-11.8-5.66-18.49-1.2-4.25-5.62-6.72-9.88-5.52-4.25,1.2-6.72,5.62-5.52,9.88,1.97,6.95,3.92,13.07,5.81,18.99,1.99,6.24,3.87,12.13,5.49,18.17.96,3.57,4.19,5.93,7.72,5.93.69,0,1.39-.09,2.08-.28,4.27-1.15,6.8-5.53,5.65-9.8-1.72-6.4-3.65-12.46-5.7-18.88Z" fill="#ffa64d"/><path d="M149.43,130.63c-4.4,0-8.27-2.97-9.41-7.22-1.61-6-3.48-11.87-5.47-18.09-1.9-5.96-3.85-12.09-5.83-19.05-1.46-5.17,1.55-10.57,6.73-12.04,2.51-.71,5.14-.4,7.41.87,2.27,1.27,3.92,3.35,4.62,5.86,1.89,6.67,3.8,12.65,5.64,18.44,2.05,6.44,3.99,12.52,5.72,18.96,1.4,5.19-1.69,10.55-6.89,11.95-.83.22-1.68.34-2.53.34ZM138.12,77.36c-.57,0-1.15.08-1.71.24-3.32.94-5.25,4.4-4.31,7.72,1.96,6.91,3.9,13.01,5.79,18.92,2,6.28,3.89,12.19,5.52,18.27.73,2.73,3.21,4.63,6.03,4.63.55,0,1.09-.07,1.62-.22,3.33-.89,5.31-4.33,4.42-7.66-1.71-6.36-3.64-12.4-5.68-18.8h0c-1.85-5.81-3.77-11.82-5.67-18.55-.45-1.61-1.51-2.94-2.96-3.75-.94-.53-1.99-.8-3.04-.8Z" fill="#2b2b2b"/><path d="M133.31,66.82c1.36,2.9,4.24,4.6,7.25,4.6,1.14,0,2.3-.24,3.4-.76,4-1.88,5.72-6.64,3.84-10.64-1.38-2.94-2.94-6.27-4.29-9.59-1.65-4.1-6.32-6.08-10.41-4.42-4.1,1.65-6.08,6.32-4.42,10.41,1.51,3.73,3.17,7.28,4.64,10.4Z" fill="#ffa64d"/><path d="M140.55,73.17c-3.76,0-7.23-2.2-8.83-5.61-1.48-3.14-3.15-6.71-4.68-10.49-2.01-4.98.4-10.68,5.39-12.69,4.98-2.01,10.68.41,12.69,5.39,1.32,3.27,2.87,6.57,4.24,9.48,1.12,2.38,1.24,5.03.36,7.48-.88,2.45-2.67,4.41-5.03,5.52-1.31.62-2.7.93-4.14.93ZM136.08,47.17c-.78,0-1.57.15-2.33.45-3.2,1.29-4.75,4.94-3.46,8.14,1.49,3.7,3.15,7.21,4.6,10.31h0c1.03,2.18,3.25,3.59,5.66,3.59.92,0,1.81-.2,2.65-.6,1.51-.71,2.66-1.97,3.22-3.54s.49-3.27-.22-4.78c-1.4-2.97-2.97-6.32-4.32-9.68-.98-2.43-3.33-3.91-5.8-3.91Z" fill="#2b2b2b"/><path d="M206.74,106.1c-13.4-2.64-22.06-2.51-35.09-2.09-4.42.14-7.88,3.84-7.74,8.25.14,4.42,3.85,7.9,8.25,7.74,12.61-.41,19.74-.51,31.48,1.8,2.33.46,8.24,3.53,10.05,5.36.15,1.61-.92,5.26-2.25,6.76-3.72,4.2-8.94,4.6-18.6,5-1,.04-2.01.08-3.04.13-4.41.21-7.82,3.96-7.61,8.37.2,4.28,3.74,7.62,7.98,7.62.13,0,.26,0,.39,0,1-.05,1.98-.09,2.94-.13,10.58-.43,21.51-.88,29.92-10.37,5.01-5.66,8.17-16.68,4.89-24.06-3.46-7.79-16.84-13.43-21.57-14.36Z" fill="#ffa64d"/><path d="M190.18,156.79c-5.21,0-9.49-4.08-9.73-9.29-.25-5.37,3.91-9.95,9.28-10.2,1.04-.05,2.05-.09,3.06-.13,9.43-.39,14.11-.74,17.37-4.41.82-.92,1.65-3.39,1.8-4.82-2.04-1.64-6.85-4.07-8.63-4.42-11.55-2.27-18.6-2.17-31.09-1.77-2.59.11-5.06-.83-6.96-2.6-1.92-1.79-3.02-4.21-3.1-6.83-.08-2.6.85-5.08,2.63-6.98,1.78-1.9,4.2-2.99,6.8-3.08,13.15-.43,21.89-.55,35.48,2.12h0c5.16,1.02,19.06,6.88,22.83,15.37,3.68,8.26.17,19.9-5.18,25.94-8.9,10.04-20.22,10.51-31.16,10.96-.96.04-1.94.08-2.93.13-.16,0-.31.01-.47.01ZM182.92,118.02c7,0,12.94.46,21.07,2.06,2.6.51,8.82,3.68,10.96,5.85l.44.44.06.62c.19,2.06-1.01,6.19-2.68,8.08-4.18,4.72-9.97,5.18-19.84,5.58-.99.04-2,.08-3.03.13-3.44.16-6.11,3.1-5.95,6.54.16,3.44,3.09,6.11,6.54,5.95,1-.05,1.98-.09,2.95-.13,10.21-.42,20.77-.85,28.68-9.78,4.56-5.14,7.56-15.52,4.6-22.19-3.16-7.1-15.97-12.5-20.31-13.36h0c-13.21-2.6-21.79-2.48-34.69-2.06-1.67.05-3.22.75-4.36,1.97-1.14,1.22-1.74,2.81-1.69,4.48.05,1.68.76,3.23,1.99,4.38,1.22,1.14,2.79,1.73,4.45,1.66,4.06-.13,7.55-.23,10.81-.23Z" fill="#2b2b2b"/><path d="M254.73,79.29c16.38,2.41,32.32,7.11,47.39,13.97,1.08.49,2.2.72,3.31.72,3.04,0,5.94-1.74,7.28-4.68,1.83-4.02.06-8.77-3.96-10.6-16.43-7.49-33.83-12.62-51.7-15.24-4.38-.64-8.44,2.38-9.08,6.75-.64,4.37,2.38,8.44,6.75,9.08Z" fill="#ffa64d"/><path d="M305.43,95.74c-1.4,0-2.76-.3-4.04-.88-14.91-6.8-30.7-11.45-46.91-13.83-2.58-.38-4.85-1.74-6.41-3.83-1.55-2.09-2.2-4.66-1.82-7.24.38-2.58,1.74-4.85,3.82-6.41,2.09-1.56,4.66-2.2,7.24-1.82,18.03,2.65,35.58,7.82,52.17,15.38,4.89,2.23,7.06,8.02,4.83,12.92-1.58,3.47-5.06,5.71-8.88,5.71ZM255.88,65.12c-1.33,0-2.63.43-3.71,1.24-1.34,1-2.21,2.46-2.45,4.11-.5,3.41,1.87,6.59,5.28,7.09h0c16.54,2.43,32.64,7.18,47.86,14.11.82.38,1.69.56,2.59.56,2.44,0,4.68-1.44,5.69-3.66,1.43-3.14.04-6.85-3.1-8.28-16.29-7.42-33.52-12.5-51.23-15.1-.31-.05-.62-.07-.93-.07Z" fill="#2b2b2b"/><path d="M314.7,141.83c-11.64,4.28-24.33,6.37-36.73,6.04-7.38-.2-12.7-1.3-16.77-3.48-4.3-2.31-7.26-6.2-7.53-9.91-.33-4.41-4.16-7.73-8.57-7.38-4.41.33-7.71,4.17-7.38,8.57.68,9.17,6.79,17.91,15.92,22.82,8.33,4.47,17.64,5.21,23.91,5.38.99.03,1.97.04,2.96.04,13.45,0,27.12-2.42,39.72-7.06,4.15-1.53,6.27-6.12,4.75-10.27-1.53-4.15-6.12-6.27-10.27-4.75Z" fill="#ffa64d"/><path d="M280.51,165.65c-1,0-2.01-.01-3.01-.04-6.45-.17-16.03-.94-24.69-5.59-9.66-5.18-16.11-14.47-16.84-24.23-.19-2.6.64-5.11,2.34-7.09,1.7-1.97,4.07-3.17,6.66-3.36,2.58-.21,5.09.62,7.07,2.31,1.99,1.7,3.19,4.08,3.38,6.69.23,3.08,2.89,6.49,6.62,8.49,3.81,2.05,8.89,3.09,15.99,3.28,12.18.32,24.65-1.73,36.08-5.93h0c5.05-1.85,10.66.74,12.52,5.78.9,2.44.79,5.09-.3,7.46-1.09,2.36-3.04,4.16-5.48,5.06-12.74,4.69-26.68,7.17-40.32,7.17ZM245.73,128.82c-.16,0-.33,0-.49.02-1.67.12-3.19.89-4.28,2.15-1.09,1.27-1.62,2.88-1.5,4.54.64,8.58,6.39,16.78,15.01,21.41,8.01,4.3,17.03,5.01,23.13,5.17,14.16.37,28.76-2.03,42.03-6.91,1.57-.58,2.82-1.73,3.52-3.24s.77-3.21.19-4.78c-1.19-3.23-4.79-4.9-8.02-3.71h0c-11.84,4.36-24.77,6.49-37.38,6.15-7.66-.2-13.24-1.38-17.55-3.69-4.81-2.58-8.13-7.03-8.45-11.32-.12-1.67-.9-3.2-2.17-4.29-1.14-.97-2.55-1.5-4.03-1.5Z" fill="#2b2b2b"/><path d="M343.76,50.58l37.56,10.33c.71.2,1.42.29,2.13.29,3.51,0,6.73-2.33,7.71-5.88,1.17-4.26-1.33-8.66-5.59-9.84l-37.56-10.33c-4.26-1.17-8.66,1.33-9.84,5.59-1.17,4.26,1.33,8.66,5.59,9.84Z" fill="#ffa64d"/><path d="M383.44,62.95c-.87,0-1.74-.12-2.59-.35l-37.56-10.33c-2.51-.69-4.6-2.32-5.89-4.58s-1.62-4.89-.92-7.4c.69-2.51,2.32-4.6,4.58-5.89,2.26-1.29,4.89-1.62,7.41-.92l37.56,10.33c2.51.69,4.6,2.32,5.89,4.58s1.62,4.89.92,7.4c-1.16,4.22-5.02,7.17-9.4,7.17ZM345.87,36.61c-1.07,0-2.12.28-3.08.82-1.45.82-2.49,2.17-2.94,3.78-.44,1.61-.23,3.3.59,4.75.83,1.45,2.17,2.49,3.78,2.94l37.56,10.33c.54.15,1.1.23,1.66.23,2.8,0,5.28-1.89,6.02-4.59.44-1.61.23-3.3-.59-4.75-.83-1.45-2.17-2.49-3.78-2.94l-37.56-10.33c-.55-.15-1.11-.23-1.67-.23Z" fill="#2b2b2b"/><path d="M399.72,89c-5.83-3.53-14.16-5.33-20.12-6.21-15.28-2.28-25.88-3.38-44.26.5-4.32.91-7.09,5.16-6.17,9.48.91,4.32,5.15,7.08,9.48,6.17,15.29-3.23,23.51-2.58,38.6-.33,6.19.92,11.51,2.45,14.21,4.08,4.48,2.71,5.68,9.59,5.34,14.66-.5,7.41-3.52,14.22-8.28,18.69-6.4,6.01-15.79,8.33-27.39,10.73-4.33.9-7.11,5.13-6.21,9.46.78,3.78,4.11,6.38,7.83,6.38.54,0,1.08-.05,1.63-.17,11.09-2.3,24.89-5.16,35.09-14.73,7.69-7.21,12.53-17.89,13.3-29.29.67-10.01-2.4-23-13.03-29.43Z" fill="#ffa64d"/><path d="M362.72,164.36c-4.59,0-8.6-3.27-9.54-7.77-.53-2.55-.03-5.15,1.4-7.33,1.43-2.18,3.62-3.67,6.17-4.2,11.33-2.35,20.48-4.6,26.55-10.3,4.45-4.17,7.27-10.56,7.74-17.53.33-4.94-.93-10.89-4.5-13.04-2.48-1.5-7.67-2.97-13.56-3.85-14.87-2.22-22.96-2.86-37.98.31-5.26,1.11-10.45-2.27-11.55-7.52-.54-2.55-.05-5.15,1.37-7.34,1.42-2.18,3.61-3.68,6.16-4.22,18.67-3.94,29.41-2.83,44.88-.52,6.12.91,14.69,2.77,20.77,6.45h0c11.3,6.83,14.57,20.51,13.87,31.04-.8,11.84-5.84,22.93-13.85,30.44-10.56,9.91-24.63,12.83-35.93,15.17-.66.14-1.33.21-1.99.21ZM357.5,94.96c6.11,0,12.13.74,20,1.92,6.51.97,11.92,2.54,14.86,4.32,5.15,3.11,6.57,10.45,6.18,16.27-.53,7.84-3.75,15.08-8.83,19.85-6.74,6.32-16.36,8.71-28.23,11.17-1.63.34-3.04,1.29-3.96,2.69s-1.23,3.06-.9,4.7c.6,2.89,3.17,4.98,6.11,4.98.43,0,.85-.04,1.27-.13,10.88-2.26,24.41-5.06,34.25-14.29,7.37-6.91,12.01-17.16,12.75-28.13.64-9.5-2.23-21.79-12.18-27.81h0c-5.59-3.38-13.68-5.12-19.48-5.98-15.08-2.25-25.55-3.34-43.64.48-1.63.34-3.03,1.31-3.95,2.7-.91,1.4-1.22,3.07-.88,4.7.71,3.37,4.03,5.53,7.41,4.82,7.57-1.6,13.44-2.27,19.22-2.27Z" fill="#2b2b2b"/><path d="M514.55,97.12c-11.33-2.34-24.89-3.04-38.49-2.66,9.09-7.55,16.59-16.51,21.37-26.02,3.3-6.57,1.19-11.71-1.88-14.33-2.88-2.46-6.16-2.52-7.56-2.55-6.75-.14-14.7.16-22.39.45-7.46.28-15.18.57-21.47.45-.06,0-.11,0-.17,0-4.34,0-7.91,3.48-8,7.84-.09,4.42,3.42,8.07,7.84,8.16,6.75.14,14.7-.16,22.4-.45,4.41-.17,8.91-.34,13.15-.42-10.29,14.8-29.45,27.73-47.83,31.83-.6.12-1.18.24-1.76.37-4.29.92-7.04,5.12-6.17,9.42.88,4.3,5.06,7.09,9.37,6.25.65-.13,1.3-.26,1.95-.41,12.58-2.55,28.55-4.35,43.92-4.63-10.98,6.09-19.12,13.47-20.58,22.81-2.76,17.72,10.77,30.84,25.56,34.64.67.17,1.34.25,2,.25,3.56,0,6.81-2.4,7.74-6.01,1.1-4.28-1.48-8.64-5.76-9.74-6.31-1.62-15.18-7.4-13.73-16.68.45-2.9,5.27-10.92,40.22-22.75l1.22-.41c3.42-1.16,5.63-4.47,5.41-8.07-.22-3.6-2.83-6.61-6.36-7.34Z" fill="#a2d36a"/><path d="M485.81,169.87c-.82,0-1.64-.1-2.43-.31-15.56-4-29.77-17.85-26.85-36.6,1.18-7.55,6.33-14.32,15.7-20.58-12.66.58-25.81,2.13-36.97,4.39-.64.14-1.3.28-1.96.41-5.23,1.02-10.35-2.4-11.42-7.62-1.07-5.22,2.31-10.37,7.52-11.49.59-.12,1.18-.25,1.78-.37,16.6-3.7,34.1-14.87,44.64-28.28-3.14.09-6.38.21-9.53.33-7.76.29-15.73.59-22.51.46-5.38-.11-9.66-4.57-9.55-9.95.11-5.27,4.48-9.55,9.74-9.55h.2c6.25.13,13.94-.16,21.37-.44,7.71-.29,15.69-.59,22.5-.46,1.45.03,5.3.11,8.66,2.97,3.58,3.05,6.06,8.97,2.31,16.45-4.13,8.24-10.37,16.25-18.16,23.4,12.96-.11,24.66.84,34.08,2.79h0c4.29.89,7.48,4.57,7.76,8.94.27,4.38-2.44,8.42-6.59,9.83l-1.22.41c-35.9,12.16-38.83,19.93-39.06,21.36-1.27,8.12,6.75,13.25,12.44,14.71,2.52.65,4.64,2.24,5.97,4.48s1.7,4.87,1.05,7.39c-1.11,4.31-4.99,7.33-9.44,7.33ZM485.83,108.53l-6.15,3.41c-12.03,6.67-18.47,13.72-19.69,21.55-2.6,16.69,10.24,29.07,24.27,32.67.51.13,1.04.2,1.56.2,2.85,0,5.34-1.93,6.05-4.7.42-1.62.18-3.3-.67-4.74-.85-1.44-2.21-2.46-3.82-2.87-6.93-1.78-16.65-8.22-15.03-18.64.76-4.87,8.56-13.02,41.39-24.14l1.22-.41c2.66-.91,4.4-3.5,4.22-6.3-.17-2.81-2.22-5.16-4.97-5.73-10.3-2.13-23.47-3.04-38.09-2.62l-5.06.14,3.9-3.24c9.14-7.6,16.38-16.4,20.92-25.46,2.84-5.67,1.12-10.03-1.45-12.22-2.41-2.05-5.14-2.11-6.46-2.13-6.7-.13-14.63.16-22.29.45-7.48.28-15.22.58-21.57.45h-.13c-3.38,0-6.18,2.75-6.25,6.12-.07,3.45,2.68,6.31,6.12,6.38,6.69.14,14.59-.16,22.24-.45,4.45-.17,8.98-.34,13.23-.42l3.43-.07-1.96,2.82c-10.65,15.32-30.3,28.4-48.88,32.54-.62.13-1.2.25-1.78.37-3.34.71-5.5,4.02-4.82,7.36.68,3.35,3.97,5.53,7.32,4.88.64-.12,1.27-.26,1.91-.4,13.35-2.7,29.47-4.4,44.27-4.68l7.03-.13Z" fill="#2b2b2b"/><path d="M601.28,69.53c-5.99.3-12,.47-18.01.52-1.34-7.63-2.21-15.33-2.58-23.01-.21-4.41-3.97-7.83-8.37-7.61-4.41.21-7.82,3.96-7.61,8.37.35,7.36,1.14,14.73,2.31,22.07-10.12-.3-20.23-.95-30.26-1.97-4.4-.45-8.32,2.75-8.77,7.15-.45,4.4,2.75,8.32,7.15,8.77,11.64,1.18,23.37,1.89,35.11,2.14,3.03,12.46,7.23,24.64,12.51,36.19,1.34,2.94,4.25,4.68,7.28,4.68,1.11,0,2.24-.23,3.32-.73,4.02-1.84,5.79-6.58,3.95-10.6-4.32-9.45-7.85-19.35-10.54-29.49,5.11-.08,10.22-.24,15.31-.5,4.41-.22,7.81-3.98,7.58-8.4-.22-4.41-3.97-7.82-8.4-7.58Z" fill="#a2d36a"/><path d="M590.05,128.58c-3.81,0-7.29-2.24-8.87-5.7-5.12-11.19-9.25-23.03-12.3-35.2-11.38-.28-22.78-.99-33.91-2.12-5.35-.54-9.26-5.34-8.71-10.69.54-5.35,5.36-9.25,10.69-8.71,9.14.93,18.56,1.56,28.03,1.89-1.02-6.78-1.69-13.55-2.01-20.17-.12-2.6.77-5.1,2.52-7.02s4.15-3.06,6.75-3.18c2.6-.13,5.08.76,7.01,2.51,1.93,1.75,3.07,4.15,3.19,6.76.33,7.02,1.11,14.19,2.3,21.32,5.66-.06,11.19-.23,16.45-.5,2.6-.14,5.09.75,7.02,2.49,1.94,1.75,3.08,4.15,3.21,6.75.13,2.6-.76,5.1-2.5,7.03-1.75,1.93-4.14,3.07-6.74,3.2-4.25.22-8.65.37-13.12.46,2.6,9.33,5.91,18.42,9.85,27.05,2.23,4.89.07,10.69-4.82,12.92-1.28.59-2.65.88-4.05.88ZM535.95,69.61c-3.16,0-5.89,2.4-6.21,5.62-.35,3.43,2.16,6.5,5.59,6.85,11.48,1.17,23.25,1.88,34.97,2.14l1.34.03.32,1.31c3.02,12.41,7.2,24.48,12.4,35.87,1.01,2.22,3.25,3.65,5.69,3.65.9,0,1.77-.19,2.59-.57,3.13-1.43,4.52-5.15,3.09-8.28-4.33-9.47-7.91-19.49-10.64-29.77l-.58-2.16,2.24-.04c5.2-.08,10.34-.25,15.25-.5,1.67-.08,3.2-.81,4.32-2.05s1.69-2.84,1.6-4.51c-.08-1.67-.82-3.21-2.06-4.33-1.24-1.11-2.83-1.68-4.5-1.59h0c-5.77.29-11.85.47-18.08.52h-1.48s-.26-1.45-.26-1.45c-1.36-7.77-2.23-15.58-2.6-23.22-.08-1.67-.81-3.21-2.05-4.33-1.24-1.12-2.83-1.7-4.49-1.61-1.67.08-3.21.8-4.33,2.04-1.12,1.24-1.7,2.83-1.62,4.5.34,7.17,1.11,14.53,2.29,21.87l.33,2.09-2.11-.06c-10.26-.31-20.49-.97-30.39-1.98-.21-.02-.43-.03-.64-.03Z" fill="#2b2b2b"/><path d="M586.01,147.22c-13.61.74-20.01-.16-27.4-3.86-6.28-3.15-11.71-11.62-12.9-20.15-.61-4.38-4.66-7.43-9.03-6.82-4.38.61-7.43,4.65-6.82,9.03,1.6,11.47,8.89,25.89,21.57,32.24,8.87,4.45,16.87,5.8,26.8,5.8,2.71,0,5.57-.1,8.63-.27,4.41-.24,7.79-4.01,7.55-8.42s-3.99-7.78-8.42-7.55Z" fill="#a2d36a"/><path d="M578.25,165.22c-11.11,0-19.1-1.73-27.59-5.99-13.25-6.64-20.86-21.64-22.52-33.57-.36-2.58.31-5.14,1.88-7.22,1.57-2.08,3.85-3.42,6.43-3.78,2.57-.36,5.14.3,7.21,1.87,2.08,1.57,3.43,3.86,3.79,6.44,1.12,8,6.14,15.92,11.95,18.83,7.07,3.54,13.27,4.4,26.52,3.68h0c5.34-.28,9.97,3.85,10.26,9.21.29,5.37-3.84,9.97-9.21,10.27-3.33.18-6.19.27-8.73.27ZM537.81,118.07c-.29,0-.59.02-.88.06-1.66.23-3.12,1.09-4.13,2.42-1.01,1.33-1.43,2.98-1.2,4.63,1.54,11.02,8.51,24.85,20.62,30.92,7.96,3.99,15.5,5.62,26.02,5.62,2.48,0,5.27-.09,8.54-.26,3.44-.19,6.09-3.14,5.9-6.58-.19-3.43-3.12-6.1-6.58-5.9-13.96.76-20.57-.18-28.27-4.04-6.76-3.39-12.58-12.42-13.85-21.47-.23-1.66-1.09-3.12-2.43-4.13-1.09-.82-2.4-1.26-3.74-1.26Z" fill="#2b2b2b"/><path d="M627.01,58.18l-.9-1.43c-2.07-3.29-4.21-6.69-7.31-13.16-1.91-3.98-6.69-5.66-10.67-3.75-3.98,1.91-5.66,6.69-3.75,10.67,3.5,7.29,5.99,11.25,8.19,14.75l.86,1.37c1.52,2.44,4.13,3.77,6.8,3.77,1.44,0,2.9-.39,4.22-1.21,3.75-2.33,4.9-7.27,2.56-11.02Z" fill="#a2d36a"/><path d="M620.22,72.16c-3.4,0-6.49-1.72-8.29-4.6l-.86-1.37c-2.22-3.54-4.74-7.55-8.28-14.92-1.13-2.35-1.27-4.99-.41-7.45.86-2.46,2.63-4.43,4.98-5.56,4.85-2.32,10.68-.27,13.01,4.57,3.06,6.38,5.17,9.74,7.21,12.98l.9,1.44c1.38,2.21,1.81,4.83,1.22,7.36-.59,2.54-2.13,4.69-4.34,6.07-1.55.96-3.33,1.47-5.14,1.47ZM611.58,40.81c-.91,0-1.83.2-2.69.61-1.5.72-2.64,1.99-3.19,3.56-.55,1.57-.46,3.27.26,4.78,3.45,7.2,5.92,11.11,8.09,14.57l.86,1.38c1.15,1.85,3.14,2.95,5.32,2.95,1.16,0,2.3-.33,3.29-.95,1.42-.88,2.41-2.26,2.79-3.89.38-1.63.1-3.3-.78-4.72l-.9-1.43c-2.09-3.33-4.26-6.77-7.4-13.33-1.07-2.24-3.31-3.54-5.64-3.54Z" fill="#2b2b2b"/><path d="M623.55,36c1.09.94,2.08,1.78,3,2.56,3.02,2.56,5.01,4.25,7.11,6.57,1.58,1.75,3.76,2.65,5.95,2.65,1.91,0,3.82-.68,5.35-2.05,3.28-2.96,3.55-8.02.59-11.3-2.82-3.13-5.4-5.31-8.66-8.08-.89-.75-1.85-1.57-2.9-2.47-3.35-2.88-8.4-2.51-11.28.84-2.88,3.35-2.51,8.4.84,11.28Z" fill="#a2d36a"/><path d="M639.61,49.53c-2.76,0-5.4-1.18-7.25-3.23-2.01-2.24-3.97-3.89-6.93-6.4l-.21-.18c-.87-.74-1.8-1.53-2.82-2.4h0c-4.07-3.51-4.53-9.68-1.02-13.75,3.51-4.07,9.68-4.53,13.75-1.02,1.05.9,2,1.71,2.89,2.46,3.31,2.81,5.93,5.02,8.83,8.24,3.6,4,3.27,10.17-.72,13.77-1.79,1.62-4.11,2.5-6.52,2.5ZM628.78,23.69c-1.76,0-3.5.73-4.74,2.17-2.25,2.61-1.96,6.56.66,8.81h0c1.01.87,1.93,1.65,2.79,2.38l.2.17c3.08,2.61,5.11,4.32,7.28,6.74,1.18,1.31,2.88,2.07,4.65,2.07,1.54,0,3.03-.57,4.18-1.61,2.56-2.31,2.77-6.27.46-8.83-2.74-3.04-5.28-5.19-8.49-7.91-.9-.76-1.86-1.57-2.91-2.48-1.18-1.02-2.63-1.51-4.08-1.51Z" fill="#2b2b2b"/><path d="M660.7,129.47l-6.37,3.61c-8.16-12.46-12.09-27.93-10.82-42.75.38-4.4-2.89-8.28-7.29-8.65-4.41-.38-8.28,2.89-8.65,7.29-1.66,19.39,3.56,38.86,14.69,54.83,1.09,1.57,4,5.73,9.37,6.41.49.06.96.09,1.42.09,3.35,0,5.98-1.49,7.32-2.25l8.21-4.66c3.84-2.18,5.19-7.06,3.01-10.91-2.18-3.84-7.06-5.19-10.91-3.01Z" fill="#a2d36a"/><path d="M653.07,152.05c-.54,0-1.1-.04-1.64-.1-6.14-.78-9.37-5.4-10.59-7.14-11.37-16.31-16.7-36.19-15-55.99.46-5.36,5.2-9.34,10.54-8.88,2.6.22,4.95,1.44,6.63,3.43,1.68,1.99,2.48,4.52,2.26,7.11-1.18,13.81,2.33,28.39,9.66,40.26l4.92-2.79c2.27-1.29,4.9-1.61,7.41-.92,2.51.69,4.6,2.32,5.89,4.59,1.29,2.26,1.61,4.89.92,7.41-.69,2.51-2.32,4.6-4.58,5.89l-8.21,4.66c-1.42.81-4.38,2.48-8.19,2.48ZM635.55,83.41c-3.21,0-5.95,2.46-6.22,5.72-1.63,18.98,3.48,38.05,14.39,53.68,1.07,1.52,3.56,5.09,8.16,5.67.4.05.8.08,1.2.08,2.89,0,5.21-1.32,6.46-2.02l8.22-4.66c1.45-.82,2.5-2.16,2.94-3.77.44-1.61.23-3.3-.59-4.75-.82-1.45-2.16-2.5-3.77-2.94-1.61-.44-3.29-.23-4.75.59l-7.8,4.43-.9-1.38c-8.35-12.75-12.39-28.74-11.1-43.86.14-1.66-.37-3.28-1.45-4.56s-2.58-2.06-4.25-2.2c-.18-.02-.36-.02-.54-.02Z" fill="#2b2b2b"/><path d="M697.01,80.94c-1.67-4.09-6.33-6.06-10.43-4.39-4.09,1.67-6.06,6.33-4.39,10.43,5.32,13.06,10.07,26.53,14.14,40.03,1.04,3.46,4.22,5.69,7.66,5.69.76,0,1.54-.11,2.31-.34,4.23-1.28,6.63-5.74,5.35-9.97-4.21-13.98-9.14-27.93-14.64-41.45Z" fill="#a2d36a"/><path d="M703.99,134.44c-4.26,0-8.1-2.85-9.33-6.94-4.05-13.45-8.79-26.87-14.09-39.88-2.03-4.98.38-10.68,5.36-12.71,2.41-.98,5.06-.97,7.46.05,2.4,1.01,4.26,2.9,5.24,5.31h0c5.52,13.57,10.47,27.57,14.7,41.6,1.55,5.15-1.38,10.6-6.52,12.15-.92.28-1.87.42-2.82.42ZM689.6,77.7c-.8,0-1.6.15-2.36.46-3.19,1.3-4.73,4.95-3.43,8.15,5.34,13.11,10.11,26.63,14.2,40.19.79,2.62,3.25,4.45,5.98,4.45.61,0,1.22-.09,1.81-.27,3.3-.99,5.17-4.49,4.18-7.79-4.2-13.93-9.11-27.82-14.59-41.29h0c-.63-1.55-1.82-2.76-3.36-3.4-.78-.33-1.6-.49-2.43-.49Z" fill="#2b2b2b"/><path d="M750.47,68.19l22.36.91c10.77.44,19.06,1.63,29.57,4.25.65.16,1.3.24,1.94.24,3.59,0,6.85-2.43,7.76-6.06,1.07-4.29-1.54-8.63-5.82-9.7-11.5-2.87-21-4.24-32.8-4.72l-22.36-.91c-4.41-.18-8.14,3.26-8.32,7.67-.18,4.41,3.25,8.14,7.67,8.32Z" fill="#63c7ea"/><path d="M804.34,75.34c-.79,0-1.59-.1-2.37-.29-10.38-2.59-18.57-3.77-29.22-4.2l-22.36-.91c-2.6-.11-5.01-1.22-6.77-3.13-1.77-1.92-2.68-4.4-2.57-7,.22-5.37,4.76-9.56,10.14-9.35l22.36.91c11.92.48,21.53,1.86,33.15,4.77,5.22,1.3,8.4,6.61,7.1,11.82-1.09,4.35-4.97,7.39-9.45,7.39ZM750.54,66.44l22.36.91c10.9.44,19.29,1.65,29.92,4.3.5.12,1.01.19,1.52.19,2.87,0,5.36-1.95,6.06-4.74.83-3.34-1.21-6.74-4.55-7.58-11.38-2.84-20.78-4.19-32.45-4.67l-22.36-.91c-3.45-.13-6.36,2.55-6.5,5.99-.07,1.67.52,3.26,1.65,4.49,1.13,1.23,2.67,1.94,4.34,2.01h0Z" fill="#2b2b2b"/><path d="M797.54,89.2l-1.05-.15c-23.36-3.31-39.17-3.83-62.67-2.03-4.41.34-7.7,4.18-7.37,8.59.34,4.41,4.18,7.7,8.58,7.37,22.48-1.72,36.86-1.25,59.21,1.92l1.15.16c1.6.22,4.2.57,5.15,1.07,0,.53-.24,2.37-2.63,6.09-9.88,15.41-19.97,23.94-30.88,26.08-4.34.85-7.16,5.05-6.31,9.39.75,3.82,4.09,6.46,7.84,6.46.51,0,1.03-.05,1.55-.15,15.42-3.02,28.92-13.86,41.27-33.15,5.9-9.2,6.77-17.11,2.61-23.5-4.22-6.48-11.58-7.48-16.45-8.14Z" fill="#63c7ea"/><path d="M768.57,155.89c-4.65,0-8.67-3.31-9.56-7.88-.5-2.56.02-5.15,1.48-7.31,1.45-2.16,3.66-3.63,6.22-4.13,10.41-2.04,20.13-10.31,29.74-25.3,1.17-1.82,1.76-3.11,2.05-3.95-1.12-.23-2.62-.43-3.33-.53l-1.15-.16c-22.21-3.15-36.5-3.62-58.84-1.91-5.36.4-10.05-3.63-10.46-8.98-.41-5.36,3.62-10.05,8.98-10.46,23.64-1.8,39.55-1.29,63.05,2.05l1.04.14c4.87.66,13.02,1.77,17.68,8.92,4.58,7.02,3.7,15.57-2.6,25.4-12.63,19.71-26.5,30.8-42.41,33.92-.62.12-1.26.18-1.88.18ZM757.83,100.25c11.72,0,22.63.93,36.66,2.92l1.14.16c2.37.32,4.59.66,5.72,1.25l.95.5-.02,1.08c-.01.95-.41,3.12-2.9,7.01-10.15,15.83-20.62,24.62-32.01,26.85-1.64.32-3.05,1.26-3.99,2.64-.93,1.39-1.27,3.05-.95,4.69.65,3.32,3.92,5.6,7.33,4.93,14.92-2.92,28.05-13.51,40.14-32.37,5.49-8.57,6.37-15.84,2.61-21.6-3.79-5.81-10.39-6.71-15.22-7.36h0s-1.05-.15-1.05-.15c-23.22-3.29-38.94-3.8-62.3-2.02-3.44.26-6.02,3.27-5.76,6.71.26,3.43,3.25,6.02,6.71,5.76,8.51-.65,15.86-.99,22.93-.99Z" fill="#2b2b2b"/><path d="M890.85,86.65c11.03.82,21.6,2.43,30.75,3.96.45.07.89.11,1.33.11,3.84,0,7.22-2.77,7.88-6.68.73-4.36-2.21-8.48-6.57-9.21-9.34-1.57-21.24-3.38-33.59-4.24-.08-6.57-.25-13.43-.77-20.95-.31-4.41-4.13-7.73-8.54-7.42-4.41.31-7.73,4.13-7.42,8.54.48,6.85.64,13.21.73,19.34-11.9.08-23.81,1.18-35.52,3.3-4.35.79-7.23,4.95-6.45,9.3.79,4.35,4.94,7.23,9.3,6.45,10.83-1.96,21.84-2.97,32.85-3.04.06,3.21.15,6.48.31,9.82.72,15.55,1.12,30.09,1.29,47.83l-2.26-1.2c-3.91-2.07-8.75-.58-10.82,3.32-2.07,3.9-.58,8.75,3.32,10.82l14.1,7.48c1.17.62,2.46.93,3.75.93,1.43,0,2.87-.39,4.14-1.15,2.41-1.45,3.87-4.06,3.86-6.88-.09-24.43-.49-42.36-1.4-61.88-.13-2.9-.21-5.71-.27-8.52Z" fill="#63c7ea"/><path d="M884.52,166.83c-1.58,0-3.17-.39-4.57-1.13l-14.1-7.48c-4.75-2.52-6.56-8.43-4.04-13.18,2.46-4.63,8.15-6.47,12.84-4.22-.18-16.17-.58-30.11-1.26-44.83-.12-2.53-.21-5.2-.27-8.13-10.38.16-20.74,1.17-30.82,3-2.57.46-5.16-.1-7.3-1.58-2.14-1.48-3.57-3.71-4.04-6.27-.96-5.29,2.57-10.37,7.85-11.33,11.15-2.02,22.6-3.13,34.06-3.31-.08-5.1-.25-11.03-.7-17.49-.18-2.6.66-5.11,2.37-7.08,1.71-1.97,4.08-3.15,6.68-3.33,2.6-.19,5.11.66,7.08,2.37,1.96,1.71,3.15,4.08,3.33,6.68.5,7.2.67,13.8.75,19.44,12.02.92,23.44,2.69,32.15,4.15,5.3.89,8.89,5.93,8,11.23-.79,4.72-4.83,8.14-9.61,8.14-.54,0-1.08-.05-1.62-.14-7.82-1.31-18.02-2.9-28.67-3.79.06,2.38.13,4.5.23,6.54.91,19.55,1.31,37.5,1.4,61.96.01,3.41-1.79,6.62-4.71,8.38-1.52.92-3.27,1.4-5.04,1.4ZM870.44,143.35c-2.24,0-4.41,1.21-5.53,3.32-1.62,3.04-.45,6.83,2.59,8.45l14.1,7.48c1.9,1.01,4.31.94,6.16-.17,1.87-1.13,3.03-3.19,3.02-5.37-.09-24.41-.49-42.31-1.39-61.81-.12-2.61-.21-5.33-.27-8.56l-.04-1.92,1.92.14c11.49.86,22.55,2.58,30.91,3.98.35.06.7.09,1.04.09,3.06,0,5.65-2.19,6.15-5.22.57-3.4-1.73-6.63-5.13-7.2-9.01-1.51-20.96-3.36-33.42-4.22l-1.61-.11-.02-1.61c-.07-5.93-.22-13.04-.77-20.85-.12-1.67-.87-3.19-2.13-4.28s-2.86-1.63-4.54-1.52c-1.67.12-3.19.87-4.28,2.13-1.09,1.26-1.63,2.87-1.52,4.54.51,7.3.65,13.92.73,19.44l.02,1.76h-1.76c-11.85.09-23.7,1.2-35.22,3.28-3.39.61-5.65,3.87-5.04,7.26.3,1.64,1.22,3.07,2.59,4.02,1.37.95,3.04,1.31,4.68,1.01,10.84-1.96,21.99-3,33.15-3.07h1.73s.03,1.72.03,1.72c.07,3.59.17,6.78.3,9.77.73,15.65,1.12,30.42,1.29,47.89l.03,2.94-4.86-2.58c-.93-.49-1.93-.73-2.92-.73Z" fill="#2b2b2b"/><path d="M859.14,108.47c-3.76-2.32-8.69-1.15-11.01,2.61l-15.45,25.05c-2.32,3.76-1.15,8.69,2.61,11.01,1.31.81,2.76,1.19,4.19,1.19,2.68,0,5.3-1.35,6.82-3.8l15.45-25.06c2.32-3.76,1.15-8.69-2.61-11.01Z" fill="#63c7ea"/><path d="M839.48,150.08c-1.8,0-3.57-.5-5.11-1.45-4.58-2.82-6-8.84-3.18-13.42l15.45-25.05c2.82-4.58,8.84-6,13.42-3.18h0c4.58,2.82,6,8.84,3.18,13.42l-15.45,25.06c-1.79,2.9-4.89,4.63-8.31,4.63ZM854.95,109.03c-2.1,0-4.15,1.05-5.33,2.97l-15.45,25.05c-1.81,2.93-.89,6.79,2.04,8.6.99.61,2.12.93,3.27.93,2.19,0,4.18-1.11,5.33-2.97l15.45-25.06c1.81-2.93.89-6.79-2.04-8.6h0c-1.02-.63-2.15-.93-3.27-.93Z" fill="#2b2b2b"/><path d="M922.74,104.96c-2.65-3.54-7.66-4.26-11.2-1.62-3.54,2.65-4.26,7.66-1.62,11.2l18.67,24.97c1.57,2.1,3.98,3.21,6.41,3.21,1.67,0,3.35-.52,4.78-1.59,3.54-2.65,4.26-7.66,1.62-11.2l-18.67-24.97Z" fill="#63c7ea"/><path d="M935,144.47c-3.06,0-5.98-1.46-7.81-3.91l-18.67-24.97c-3.22-4.31-2.33-10.43,1.97-13.65,2.09-1.56,4.65-2.21,7.23-1.84,2.58.37,4.86,1.73,6.42,3.81l18.67,24.97c1.56,2.09,2.21,4.65,1.84,7.23-.37,2.58-1.73,4.86-3.81,6.42-1.7,1.27-3.71,1.94-5.83,1.94ZM916.31,103.5c-1.34,0-2.64.43-3.73,1.25-2.76,2.06-3.33,5.99-1.26,8.75l18.67,24.97c1.19,1.59,3.02,2.51,5.01,2.51,1.36,0,2.65-.43,3.74-1.24,1.34-1,2.21-2.46,2.44-4.11.24-1.65-.18-3.3-1.18-4.64l-18.67-24.97c-1-1.34-2.46-2.21-4.11-2.44-.3-.04-.61-.07-.91-.07Z" fill="#2b2b2b"/><path d="M928.28,70.75c1.58,1.98,3.91,3.01,6.26,3.01,1.75,0,3.51-.57,4.99-1.75,3.45-2.76,4.02-7.79,1.26-11.24l-12.93-16.2c-2.76-3.45-7.79-4.01-11.24-1.26-3.45,2.76-4.02,7.79-1.26,11.24l12.93,16.19Z" fill="#63c7ea"/><path d="M934.53,75.51c-2.98,0-5.76-1.34-7.62-3.67h0s-12.93-16.19-12.93-16.19c-1.63-2.03-2.36-4.58-2.07-7.17.29-2.59,1.57-4.91,3.61-6.53,4.2-3.35,10.35-2.67,13.7,1.53l12.93,16.19c3.35,4.2,2.67,10.35-1.54,13.7-1.72,1.37-3.88,2.13-6.08,2.13ZM929.64,69.66c1.19,1.49,2.98,2.35,4.89,2.35,1.43,0,2.78-.47,3.9-1.37,2.69-2.15,3.13-6.09.98-8.78l-12.93-16.19c-2.15-2.69-6.09-3.13-8.78-.98-1.3,1.04-2.12,2.53-2.31,4.19-.19,1.66.29,3.29,1.33,4.6l12.93,16.19Z" fill="#2b2b2b"/><path d="M957.03,48.92l-11.23-17.67c-2.37-3.73-7.32-4.83-11.04-2.46-3.73,2.37-4.83,7.31-2.46,11.04l11.23,17.67c1.52,2.4,4.11,3.71,6.76,3.71,1.47,0,2.95-.4,4.28-1.25,3.73-2.37,4.83-7.31,2.46-11.04Z" fill="#63c7ea"/><path d="M950.29,62.97c-3.36,0-6.44-1.69-8.24-4.52l-11.23-17.67c-1.4-2.2-1.85-4.81-1.29-7.35s2.09-4.71,4.29-6.11c2.2-1.4,4.8-1.86,7.35-1.29,2.54.57,4.71,2.09,6.11,4.29l11.23,17.67c1.4,2.2,1.85,4.81,1.29,7.35s-2.09,4.71-4.29,6.11c-1.57,1-3.37,1.52-5.22,1.52ZM939.03,29.3c-1.17,0-2.33.33-3.34.98-1.41.9-2.39,2.29-2.75,3.92s-.07,3.3.83,4.71l11.23,17.67c1.15,1.81,3.13,2.9,5.28,2.9,1.18,0,2.34-.34,3.34-.98,1.41-.9,2.39-2.29,2.75-3.92s.07-3.3-.83-4.71l-11.23-17.67c-.9-1.41-2.29-2.38-3.92-2.75-.46-.1-.92-.15-1.37-.15Z" fill="#2b2b2b"/><path d="M168.78,50.83c-1.38-2.94-2.94-6.26-4.29-9.59-1.66-4.1-6.32-6.08-10.41-4.42-4.1,1.65-6.08,6.32-4.42,10.41,1.51,3.74,3.17,7.28,4.64,10.4,1.36,2.9,4.24,4.6,7.25,4.6,1.14,0,2.3-.25,3.4-.76,4-1.88,5.72-6.64,3.84-10.64Z" fill="#ffa64d"/><path d="M161.55,63.99c-3.76,0-7.23-2.2-8.83-5.6-1.48-3.14-3.15-6.71-4.68-10.49-2.01-4.98.4-10.68,5.39-12.69,2.42-.98,5.06-.95,7.46.07,2.4,1.02,4.25,2.91,5.23,5.32,1.32,3.28,2.87,6.58,4.24,9.49l-1.58.76,1.58-.74c1.11,2.36,1.23,5,.35,7.45-.88,2.45-2.67,4.41-5.02,5.52-1.31.62-2.7.93-4.14.93ZM157.08,37.99c-.79,0-1.58.15-2.34.46-3.2,1.29-4.75,4.94-3.46,8.14,1.49,3.7,3.15,7.21,4.6,10.31,1.03,2.18,3.25,3.59,5.66,3.59.92,0,1.81-.2,2.65-.6,1.51-.71,2.65-1.97,3.22-3.54.57-1.57.49-3.27-.22-4.78h0s1.58-.74,1.58-.74l-1.59.73c-1.39-2.95-2.96-6.3-4.32-9.67-.63-1.55-1.82-2.76-3.35-3.41-.79-.33-1.61-.5-2.44-.5Z" fill="#2b2b2b"/></svg>