<?xml version="1.0" encoding="UTF-8"?><svg id="_レイヤー_13のコピー_2" xmlns="http://www.w3.org/2000/svg" width="800" height="1000" viewBox="0 0 800 1000"><path d="M675.41,768.77c1.36.95,1.7,2.81.76,4.18-.58.84-1.52,1.29-2.47,1.29-.59,0-1.18-.17-1.7-.53l-11.85-8.18c1.7-1.09,3.39-2.37,4.97-3.86l10.29,7.1Z" fill="#2b2b2b"/><path d="M655.78,735.73l14.56,19.38-1.17,1.77c-1.19,1.79-2.57,3.38-4.05,4.79l-2.23-1.54c-1.15-.79-2.66-.67-3.67.2l-.73-.94c1.59-1.18,3.12-2.56,4.44-4.16l-9.85-13.1-3.99.51-.03-.24c.13-.02.25-.04.37-.08,1.48-.37,2.45-1.8,2.24-3.31-.01-.09-.14-1.01-.39-2.7l4.5-.58Z" fill="#2b2b2b"/><path d="M662.89,760.13l2.23,1.54c-1.58,1.49-3.27,2.77-4.97,3.86l-.67-.46c-1.36-.95-1.7-2.81-.76-4.18.14-.21.31-.4.5-.56,1.01-.87,2.52-.99,3.67-.2Z" fill="#2b2b2b"/><path d="M653.08,742.13l9.85,13.1c-1.32,1.6-2.85,2.98-4.44,4.16-3.59,2.66-7.52,4.3-10.21,5.21l-1.63-21.65,2.44-.31,3.99-.51Z" fill="#49a36f"/><path d="M659.48,765.07l.67.46c-.8.53-1.61,1.01-2.4,1.45-.23-1.53-1.58-2.66-3.17-2.56-1.65.11-2.9,1.54-2.8,3.19l.13,2.06c-3.19,1.22-5.51,1.71-5.75,1.76l-3.34.68-2.58-34.39,4.41-.57c.42,1.14.83,2.25,1.24,3.33.45,1.19,1.58,1.94,2.81,1.94.12,0,.24-.01.36-.02l.03.24-2.44.31,1.63,21.65c2.69-.91,6.62-2.55,10.21-5.21l.73.94c-.19.16-.36.35-.5.56-.94,1.37-.6,3.23.76,4.18Z" fill="#2b2b2b"/><path d="M658.77,782.65c.11,1.66-1.14,3.09-2.8,3.19-.06.01-.13.01-.19.01-1.57,0-2.89-1.22-3-2.81l-.87-13.37c1.75-.66,3.76-1.54,5.84-2.69.01.08.01.16.02.24l1,15.43Z" fill="#2b2b2b"/><path d="M657.75,766.98c-2.08,1.15-4.09,2.03-5.84,2.69l-.13-2.06c-.1-1.65,1.15-3.08,2.8-3.19,1.59-.1,2.94,1.03,3.17,2.56Z" fill="#2b2b2b"/><path d="M651.67,739.01c.21,1.51-.76,2.94-2.24,3.31-.12.04-.24.06-.37.08-.12,0-.24.02-.36.02-1.23,0-2.36-.75-2.81-1.94-.41-1.08-.82-2.19-1.24-3.33l6.63-.84c.25,1.69.38,2.61.39,2.7Z" fill="#2b2b2b"/><path d="M651.28,736.31l-6.63.84c-8.89-24.4-19.77-62.4-32.29-106.1-16.62-58.07-35.41-123.65-55.36-177.81-.64-1.75-1.28-3.49-1.93-5.21-.33-.89-.67-1.77-1-2.65-17.4-45.95-33.31-76.01-47.51-89.75-3.63-4.94-7.09-9.3-10.31-13.14l-.57-.66c.51.14,1.02.31,1.54.5,23.89,7.93,46.73,33.25,67.93,75.3,17.23,34.19,33.51,79.57,48.4,134.89,22.87,85,35.43,167.95,37.73,183.79ZM618.13,629.4c8.06,28.16,15.45,53.95,22.04,75.19-5.98-35.24-16.78-92.43-32.43-150.56-25.32-94.08-54.37-157.98-85.23-188.26,34.43,49.93,67.72,166.2,95.62,263.63Z" fill="#2b2b2b"/><path d="M595.62,656.89l9.01,248.69-1.5.91c-42.32,25.75-150.14,29.19-204.46,29.19-3.76,0-7.26-.02-10.47-.05-90.58-.75-177.86-10.11-212.25-22.75l-2.06-.76.1-2.19c.12-2.74,12.32-274.6,23.66-350.24,4.04-26.92,9.39-58.84,16.95-91.57,8.5-28.55,14.55-48.29,15.23-50.51l23.94-52.23.38.17c-28.06,61.06-42.15,138.93-50.57,195.03-6.67,44.5-13.65,157.49-18.27,243.07-.24-.02-.48-.04-.73-.06-.96-.08-1.81.63-1.89,1.59-.08.97.63,1.81,1.59,1.9.28.02.56.05.84.07-2.73,50.67-4.6,91.1-5.04,100.83,34.76,11.88,121.41,20.93,208.17,21.65,102,.84,178.38-9.12,210.25-27.37l-3.39-93.63c.13,0,.26-.01.39-.02.96-.07,1.69-.9,1.63-1.86-.06-.97-.9-1.69-1.86-1.64-.1,0-.19,0-.29.02l-5.35-147.96c-10.67-181.52-65.87-272.57-97.88-310.72l.13-.11c.38.52.92.91,1.58,1.1s1.32.4,1.97.62c3.58,1.33,7.29,3.85,11.13,7.57,14.62,19.9,31.94,49.01,47.51,89.75.33.88.67,1.76,1,2.65.65,1.72,1.29,3.46,1.93,5.21,18.17,50.01,33.5,116.55,38.62,203.65Z" fill="#2b2b2b"/><path d="M595.11,808.63l3.39,93.63c-31.87,18.25-108.25,28.21-210.25,27.37-86.76-.72-173.41-9.77-208.17-21.65.44-9.73,2.31-50.16,5.04-100.83,100.44,8.6,151.73,12.28,201.59,12.28,43.14,0,85.21-2.75,157.08-7.46,15.59-1.02,32.59-2.14,51.32-3.34Z" fill="#49a36f"/><path d="M597.13,806.75c.06.96-.67,1.79-1.63,1.86-.13,0-.26.02-.39.02l-.13-3.5c.1-.01.19-.01.29-.02.96-.05,1.8.67,1.86,1.64Z" fill="#2b2b2b"/><path d="M594.98,805.13l.13,3.5c-18.73,1.2-35.73,2.32-51.32,3.34-71.87,4.71-113.94,7.46-157.08,7.46-49.86,0-101.15-3.68-201.59-12.28.06-1.16.12-2.33.19-3.5,187.17,16.04,203.52,14.97,358.25,4.82,15.63-1.02,32.66-2.14,51.42-3.34Z" fill="#2b2b2b"/><path d="M589.63,657.17l5.35,147.96c-18.76,1.2-35.79,2.32-51.42,3.34-154.73,10.15-171.08,11.22-358.25-4.82,4.62-85.58,11.6-198.57,18.27-243.07,8.42-56.1,22.51-133.97,50.57-195.03,4-8.73,8.3-17.11,12.9-25.03,1.56-2.69,3.77-5,6.39-6.69l1.02-.66c1.45-.94,2.12-1.37,3.04-1.49.39.25.84.42,1.34.46.78.07,1.54-.02,2.29-.24,1.02.07,1.98-.39,2.58-1.16,1.35-.83,2.7-1.92,4.08-3.04,2.51-2.06,5.33-4.4,7.46-4.22,1.06.08,3.28,2.55,4.75,4.19,2.79,3.11,5.95,6.63,10.09,6.91,3.62.24,6.78-2.44,9.84-5.03,2.14-1.81,4.81-4.05,6.37-3.96,1.26.08,3.55,2.54,5.22,4.34,2.89,3.11,5.87,6.32,9.8,6.52.73.04,1.44-.04,2.13-.22,2.85-.68,5.4-2.91,7.88-5.07,2.05-1.79,4.63-4.03,6.06-3.96,1.34.06,3.72,2.53,5.46,4.34,2.9,3.01,5.9,6.13,9.75,6.26,3.85.15,6.99-2.76,10.06-5.55,1.96-1.78,4.41-4,5.8-4h.04c1.41.03,3.77,2.39,5.67,4.28,2.94,2.92,5.97,5.94,9.77,5.98h.08c3.85,0,6.96-2.98,9.98-5.86,1.8-1.72,4.26-4.08,5.59-4.09h.01c1.49,0,3.96,2.31,5.95,4.16,3,2.8,6.08,5.69,9.84,5.6,4-.1,7.06-3.3,10.03-6.39,1.68-1.75,3.98-4.15,5.22-4.22,1.65-.12,4.32,2.13,6.48,3.92,3.12,2.57,6.35,5.23,9.96,4.86.89-.09,1.66-.56,2.14-1.24,3.07.15,6.12.74,9,1.77,5.22,1.86,9.87,5.08,13.44,9.33.03.03.06.07.09.1,32.01,38.15,87.21,129.2,97.88,310.72ZM476.08,369.41c.93-.27,1.46-1.24,1.19-2.17s-1.24-1.46-2.17-1.19l-5.76,1.68c-.92.27-1.46,1.24-1.19,2.17.23.76.92,1.26,1.68,1.26.16,0,.33-.03.49-.07l5.76-1.68ZM458.62,374.49c.93-.27,1.43-1.23,1.16-2.16-.2-.69-.82-1.16-1.51-1.24l-11.81-2.13c-.94-.17-1.86.46-2.03,1.41s.46,1.86,1.41,2.04l11.91,2.15.48.05.39-.12ZM434.67,372.74c.94-.23,1.51-1.18,1.27-2.12-.23-.93-1.17-1.51-2.12-1.27l-11.82,2.95c-.94.23-1.51,1.18-1.27,2.12.2.8.91,1.33,1.69,1.33.14,0,.29-.02.43-.06l11.82-2.95ZM412.23,371.81c.21-.95-.39-1.88-1.34-2.08l-6.37-1.39-6.27,1.35c-.95.21-1.55,1.14-1.35,2.08.21.95,1.14,1.55,2.08,1.34l5.54-1.19,5.63,1.23c.13.02.25.04.37.04.81,0,1.53-.56,1.71-1.38ZM387.08,375.68c.94-.21,1.53-1.14,1.32-2.08-.15-.7-.71-1.21-1.37-1.34l-11.72-2.93c-.94-.23-1.89.34-2.12,1.28-.24.94.33,1.89,1.27,2.12l11.79,2.94.43.09.4-.08ZM363.3,372.38c.95-.18,1.58-1.09,1.41-2.04-.18-.95-1.09-1.58-2.04-1.4l-11.98,2.22c-.95.17-1.58,1.08-1.4,2.03.15.85.89,1.44,1.72,1.44.1,0,.21-.01.32-.03l11.97-2.22ZM340.96,370.07c.26-.93-.29-1.89-1.22-2.15l-6.22-1.74-6.4,1.01c-.96.15-1.61,1.05-1.46,2s1.04,1.61,2,1.46l5.65-.89,5.49,1.53c.16.04.32.06.47.06.77,0,1.47-.5,1.69-1.28ZM317.03,371.32c.28-.92-.24-1.9-1.16-2.19l-11.64-3.58c-.92-.29-1.9.23-2.19,1.15-.28.93.24,1.91,1.16,2.19l11.64,3.59c.17.05.35.08.52.08.74,0,1.44-.49,1.67-1.24ZM292.08,367.96c.95-.12,1.63-1,1.51-1.96-.13-.96-.99-1.64-1.96-1.51l-11.78,1.53c-.75-.04-1.45.44-1.71,1.19-.31.91.21,1.92,1.12,2.23l.39.13,12.43-1.61ZM269.91,364.38c.31-.92-.18-1.91-1.09-2.23l-5.68-1.95c-.91-.31-1.91.18-2.22,1.09s.17,1.91,1.09,2.22l5.67,1.95c.19.07.38.1.57.1.73,0,1.41-.46,1.66-1.18Z" fill="#7fb293"/><path d="M496.25,342.49c3.22,3.84,6.68,8.2,10.31,13.14-3.84-3.72-7.55-6.24-11.13-7.57-.65-.22-1.31-.43-1.97-.62s-1.2-.58-1.58-1.1c-.52-.71-.73-1.65-.48-2.57.43-1.58,2.05-2.52,3.64-2.12.21.06.42.11.64.18l.57.66Z" fill="#2b2b2b"/><path d="M495.68,341.83c-.22-.07-.43-.12-.64-.18-1.59-.4-3.21.54-3.64,2.12-.25.92-.04,1.86.48,2.57l-.13.11s-.06-.07-.09-.1c-3.57-4.25-8.22-7.47-13.44-9.33-2.88-1.03-5.93-1.62-9-1.77.41-.57.62-1.29.54-2.04-.16-1.65-1.64-2.85-3.28-2.69-.54.06-1.45-.43-2.45-1.12,5.45-.55,11.04.12,16.21,1.97,5.95,2.11,11.27,5.72,15.44,10.46Z" fill="#2b2b2b"/><path d="M477.27,367.24c.27.93-.26,1.9-1.19,2.17l-5.76,1.68c-.16.04-.33.07-.49.07-.76,0-1.45-.5-1.68-1.26-.27-.93.27-1.9,1.19-2.17l5.76-1.68c.93-.27,1.9.26,2.17,1.19Z" fill="#2b2b2b"/><path d="M469.76,333.21c.08.75-.13,1.47-.54,2.04-1.74-.09-3.49-.03-5.22.18-1.64.2-3.14-.97-3.33-2.62-.2-1.64.97-3.14,2.62-3.33.25-.03.49-.06.74-.08,1,.69,1.91,1.18,2.45,1.12,1.64-.16,3.12,1.04,3.28,2.69Z" fill="#2b2b2b"/><path d="M464,335.43c1.73-.21,3.48-.27,5.22-.18-.48.68-1.25,1.15-2.14,1.24-3.61.37-6.84-2.29-9.96-4.86-2.16-1.79-4.83-4.04-6.48-3.92-1.24.07-3.54,2.47-5.22,4.22-2.97,3.09-6.03,6.29-10.03,6.39-3.76.09-6.84-2.8-9.84-5.6-1.99-1.85-4.46-4.16-5.95-4.16h-.01c-1.33.01-3.79,2.37-5.59,4.09-3.02,2.88-6.13,5.86-9.98,5.86h-.08c-3.8-.04-6.83-3.06-9.77-5.98-1.9-1.89-4.26-4.25-5.67-4.28h-.04c-1.39,0-3.84,2.22-5.8,4-3.07,2.79-6.21,5.7-10.06,5.55-3.85-.13-6.85-3.25-9.75-6.26-1.74-1.81-4.12-4.28-5.46-4.34-1.43-.07-4.01,2.17-6.06,3.96-2.48,2.16-5.03,4.39-7.88,5.07l-.13-.57c1.5-.27,2.57-1.66,2.44-3.21-.01-.09-.13-1.54-.33-4.14.68-.55,1.35-1.14,1.95-1.67,3.15-2.75,6.43-5.61,10.27-5.43,3.74.16,6.68,3.22,9.53,6.17,1.87,1.95,4.2,4.37,5.62,4.42,1.42.08,3.84-2.19,5.82-3.99,3.06-2.77,6.26-5.67,10.01-5.56,3.81.09,6.84,3.11,9.78,6.03,1.79,1.78,4.24,4.22,5.6,4.23h.01c.62,0,1.41-.42,2.28-1.06.49.52,1.17.86,1.94.91,1.65.12,3.09-1.12,3.21-2.77.01-.09.08-1.12.22-2.99,2.39-2.18,4.93-4.02,7.89-4.04h.04c3.85,0,7,2.94,10.05,5.78,1.8,1.68,4.27,3.98,5.56,3.98h.02c1.54-.04,3.93-2.54,5.86-4.54,2.76-2.88,5.62-5.86,9.22-6.06,3.96-.23,7.51,2.7,10.63,5.28.9.74,2.04,1.68,3.09,2.4-.25.02-.49.05-.74.08-1.65.19-2.82,1.69-2.62,3.33.19,1.65,1.69,2.82,3.33,2.62Z" fill="#2b2b2b"/><path d="M459.78,372.33c.27.93-.23,1.89-1.16,2.16l-.39.12-.48-.05-11.91-2.15c-.95-.18-1.58-1.09-1.41-2.04s1.09-1.58,2.03-1.41l11.81,2.13c.69.08,1.31.55,1.51,1.24Z" fill="#2b2b2b"/><path d="M435.94,370.62c.24.94-.33,1.89-1.27,2.12l-11.82,2.95c-.14.04-.29.06-.43.06-.78,0-1.49-.53-1.69-1.33-.24-.94.33-1.89,1.27-2.12l11.82-2.95c.95-.24,1.89.34,2.12,1.27Z" fill="#2b2b2b"/><path d="M413.84,76.75c3.68,15.78,9.47,49.9,6.97,101.14-3.05,62.47-8.05,133.44-9.14,148.71-.61.55-1.22,1.13-1.82,1.71-1.12,1.08-2.4,2.3-3.55,3.14-.57-.59-.89-1.42-.83-2.3.05-.81,5.93-81.54,9.35-151.55,2.46-50.51-3.22-84.01-6.82-99.48-1.03-4.42-4.92-7.51-9.45-7.54l-50.48-.26c-2.43,1.67-7.28,9.37-9.5,43.61-1.45,22.4-1.56,52.81-.33,90.38,1.8,54.66,5.97,108.87,7.19,124-1.43,1.17-2.9,2.19-3.8,2.15-.61-.03-1.35-.46-2.14-1.1-1.16-14.34-5.42-69.37-7.24-124.85-1.25-37.77-1.13-68.37.33-90.97,2.54-39.16,8.55-46.74,13.5-48.96l.59-.26,51.91.26c7.33.04,13.6,5.05,15.26,12.17Z" fill="#2b2b2b"/><path d="M408,78.12c3.6,15.47,9.28,48.97,6.82,99.48-3.42,70.01-9.3,150.74-9.35,151.55-.06.88.26,1.71.83,2.3-.87.64-1.66,1.06-2.28,1.06h-.01c-1.36-.01-3.81-2.45-5.6-4.23-2.94-2.92-5.97-5.94-9.78-6.03-3.75-.11-6.95,2.79-10.01,5.56-1.98,1.8-4.4,4.07-5.82,3.99-1.42-.05-3.75-2.47-5.62-4.42-2.85-2.95-5.79-6.01-9.53-6.17-3.84-.18-7.12,2.68-10.27,5.43-.6.53-1.27,1.12-1.95,1.67-1.22-15.13-5.39-69.34-7.19-124-1.23-37.57-1.12-67.98.33-90.38,2.22-34.24,7.07-41.94,9.5-43.61l50.48.26c4.53.03,8.42,3.12,9.45,7.54Z" fill="#49a36f"/><path d="M410.89,369.73c.95.2,1.55,1.13,1.34,2.08-.18.82-.9,1.38-1.71,1.38-.12,0-.24-.02-.37-.04l-5.63-1.23-5.54,1.19c-.94.21-1.87-.39-2.08-1.34-.2-.94.4-1.87,1.35-2.08l6.27-1.35,6.37,1.39Z" fill="#2b2b2b"/><path d="M411.67,326.6c-.14,1.87-.21,2.9-.22,2.99-.12,1.65-1.56,2.89-3.21,2.77-.77-.05-1.45-.39-1.94-.91,1.15-.84,2.43-2.06,3.55-3.14.6-.58,1.21-1.16,1.82-1.71Z" fill="#2b2b2b"/><path d="M388.4,373.6c.21.94-.38,1.87-1.32,2.08l-.4.08-.43-.09-11.79-2.94c-.94-.23-1.51-1.18-1.27-2.12.23-.94,1.18-1.51,2.12-1.28l11.72,2.93c.66.13,1.22.64,1.37,1.34Z" fill="#2b2b2b"/><path d="M364.71,370.34c.17.95-.46,1.86-1.41,2.04l-11.97,2.22c-.11.02-.22.03-.32.03-.83,0-1.57-.59-1.72-1.44-.18-.95.45-1.86,1.4-2.03l11.98-2.22c.95-.18,1.86.45,2.04,1.4Z" fill="#2b2b2b"/><path d="M345.76,332.45c.13,1.55-.94,2.94-2.44,3.21-.1.02-.19.03-.29.04-.09,0-.17.01-.26.01-1.54,0-2.85-1.18-2.99-2.75,0-.09-.11-1.34-.29-3.6.79.64,1.53,1.07,2.14,1.1.9.04,2.37-.98,3.8-2.15.2,2.6.32,4.05.33,4.14Z" fill="#2b2b2b"/><path d="M343.32,335.66l.13.57c-.69.18-1.4.26-2.13.22-3.93-.2-6.91-3.41-9.8-6.52-1.67-1.8-3.96-4.26-5.22-4.34-1.56-.09-4.23,2.15-6.37,3.96-3.06,2.59-6.22,5.27-9.84,5.03-4.14-.28-7.3-3.8-10.09-6.91-1.47-1.64-3.69-4.11-4.75-4.19-2.13-.18-4.95,2.16-7.46,4.22-1.38,1.12-2.73,2.21-4.08,3.04.32-.41.54-.92.61-1.49.19-1.64-.99-3.13-2.63-3.32-.48-.06-.93-.11-1.35-.15,1.07-.62,2.62-1.89,3.65-2.73,3.39-2.77,7.23-5.9,11.72-5.56,3.46.27,6.15,3.27,8.75,6.17,1.93,2.15,4.32,4.82,6.04,4.93,1.23.07,3.71-2.06,5.56-3.62,3.1-2.63,6.64-5.6,10.6-5.36,3.66.21,6.5,3.28,9.26,6.24,1.12,1.2,2.4,2.58,3.57,3.51.18,2.26.28,3.51.29,3.6.14,1.57,1.45,2.75,2.99,2.75.09,0,.17-.01.26-.01.1,0,.19-.02.29-.04Z" fill="#2b2b2b"/><path d="M339.74,367.92c.93.26,1.48,1.22,1.22,2.15-.22.78-.92,1.28-1.69,1.28-.15,0-.31-.02-.47-.06l-5.49-1.53-5.65.89c-.96.15-1.85-.51-2-1.46s.5-1.85,1.46-2l6.4-1.01,6.22,1.74Z" fill="#2b2b2b"/><path d="M315.87,369.13c.92.29,1.44,1.27,1.16,2.19-.23.75-.93,1.24-1.67,1.24-.17,0-.35-.03-.52-.08l-11.64-3.59c-.92-.28-1.44-1.26-1.16-2.19.29-.92,1.27-1.44,2.19-1.15l11.64,3.58Z" fill="#2b2b2b"/><path d="M293.59,366c.12.96-.56,1.84-1.51,1.96l-12.43,1.61-.39-.13c-.91-.31-1.43-1.32-1.12-2.23.26-.75.96-1.23,1.71-1.19l11.78-1.53c.97-.13,1.83.55,1.96,1.51Z" fill="#2b2b2b"/><path d="M281.69,325.93c1.64.19,2.82,1.68,2.63,3.32-.07.57-.29,1.08-.61,1.49-.85.51-1.71.92-2.58,1.16-.05,0-.09,0-.14,0-1.76-.21-2.72-.32-3.49-.21-.91-.58-1.47-1.65-1.37-2.8.15-1.66,1.62-2.87,3.26-2.72.22-.01.55-.15.95-.38.42.04.87.09,1.35.15Z" fill="#2b2b2b"/><path d="M283.71,330.74c-.6.77-1.56,1.23-2.58,1.16.87-.24,1.73-.65,2.58-1.16Z" fill="#2b2b2b"/><path d="M280.99,331.89c.05,0,.09,0,.14,0-.75.22-1.51.31-2.29.24-.5-.04-.95-.21-1.34-.46.77-.11,1.73,0,3.49.21Z" fill="#2b2b2b"/><path d="M280.34,325.78c-.4.23-.73.37-.95.38-1.64-.15-3.11,1.06-3.26,2.72-.1,1.15.46,2.22,1.37,2.8-.92.12-1.59.55-3.04,1.49l-1.02.66c-2.62,1.69-4.83,4-6.39,6.69-4.6,7.92-8.9,16.3-12.9,25.03l-.38-.17,13.41-29.26c.51-1.11.29-2.42-.55-3.31-.21-.22-.45-.41-.71-.56,1.3-1.31,2.73-2.47,4.28-3.46l.99-.65c3.7-2.41,4.84-2.79,9.15-2.36Z" fill="#2b2b2b"/><path d="M268.82,362.15c.91.32,1.4,1.31,1.09,2.23-.25.72-.93,1.18-1.66,1.18-.19,0-.38-.03-.57-.1l-5.67-1.95c-.92-.31-1.4-1.31-1.09-2.22s1.31-1.4,2.22-1.09l5.68,1.95Z" fill="#2b2b2b"/><path d="M266.63,332.81c.84.89,1.06,2.2.55,3.31l-13.41,29.26-23.94,52.23c-.68,2.22-6.73,21.96-15.23,50.51,10.57-45.78,25.49-93.14,47.26-130.62,1.12-1.92,2.49-3.69,4.06-5.25.26.15.5.34.71.56Z" fill="#2b2b2b"/><path d="M263.35,332.09c.85-.35,1.79-.27,2.57.16-1.57,1.56-2.94,3.33-4.06,5.25-21.77,37.48-36.69,84.84-47.26,130.62-18.5,62.1-48.56,165.88-59.97,221.48-2.03,15.13-3.37,26.23-4,31.62l-6.55.02c.06-6.68,1.69-17.53,4.45-31.26,4.65-34.75,13.08-91.5,25.16-149.27,26.19-125.21,56.36-195.4,89.66-208.62ZM224.3,415.29l33.64-73.4c-28.13,20.04-55.08,88.68-78.37,200-5.82,27.82-10.78,55.39-14.89,80.38,22.99-87.9,57.26-199.41,59.48-206.61.04-.13.08-.25.14-.37Z" fill="#2b2b2b"/><path d="M184.58,803.59c.25.02.49.04.73.06-.07,1.17-.13,2.34-.19,3.5-.28-.02-.56-.05-.84-.07-.96-.09-1.67-.93-1.59-1.9.08-.96.93-1.67,1.89-1.59Z" fill="#2b2b2b"/><path d="M156.85,752.26c.05.86-.28,1.7-.89,2.31-.57.55-1.32.85-2.11.85h-.21c-.24-.01-2.5-.2-5.7-.95l-.41-2.43c-.27-1.63-1.82-2.73-3.45-2.46-1.46.25-2.48,1.49-2.5,2.91-.85-.33-1.71-.7-2.57-1.13l.6-.54c1.23-1.11,1.33-3.01.22-4.24-.22-.25-.47-.45-.75-.6l.6-1.04c3.95,2.25,8.14,3.4,10.98,3.97l-1.17-21.68h-.89c.87-.45,1.49-1.32,1.61-2.35,0-.1.15-1.36.42-3.66h1.7c.79,0,1.52.31,2.06.82.54.52.89,1.22.94,2.02l1.52,28.2Z" fill="#2b2b2b"/><path d="M149.49,727.23l1.17,21.68c-2.84-.57-7.03-1.72-10.98-3.97-1.66-.93-3.29-2.07-4.75-3.44l8.08-14.26h2.87c.41.2.87.32,1.35.32h.03c.48-.01.93-.12,1.34-.33h.89Z" fill="#49a36f"/><path d="M144.08,721.24l6.55-.02c-.27,2.3-.41,3.56-.42,3.66-.12,1.03-.74,1.9-1.61,2.35h-2.72c-.86-.43-1.49-1.27-1.63-2.28-.13-1.04-.19-2.27-.17-3.71Z" fill="#2b2b2b"/><path d="M148.9,760.19c.28,1.63-.82,3.18-2.46,3.46-.17.02-.33.04-.5.04-1.44,0-2.71-1.04-2.95-2.5l-1.37-8.15c-.03-.19-.05-.37-.04-.55,2.3.91,4.49,1.54,6.36,1.98l.96,5.72Z" fill="#2b2b2b"/><path d="M145.88,727.24h2.72c-.41.2-.86.31-1.34.32h-.03c-.48,0-.94-.12-1.35-.32Z" fill="#2b2b2b"/><path d="M147.53,752.04l.41,2.43c-1.87-.44-4.06-1.07-6.36-1.98.02-1.42,1.04-2.66,2.5-2.91,1.63-.27,3.18.83,3.45,2.46Z" fill="#2b2b2b"/><path d="M145.88,727.24h-2.87l-8.08,14.26c1.46,1.37,3.09,2.51,4.75,3.44l-.6,1.04c-1.09-.62-2.51-.51-3.49.38l-2,1.8c-1.65-1.2-3.22-2.59-4.64-4.22-.84-.96-.97-2.34-.35-3.45l10.05-17.72c.53-.94,1.53-1.52,2.6-1.52h2.83c-.02,1.43.04,2.66.17,3.7.14,1.01.77,1.85,1.63,2.29Z" fill="#2b2b2b"/><path d="M139.83,746.58c1.11,1.23,1.01,3.13-.22,4.24l-.6.54c-1.82-.86-3.67-1.91-5.42-3.2l2-1.8c.98-.89,2.4-1,3.49-.38.28.15.53.35.75.6Z" fill="#2b2b2b"/><path d="M139.01,751.36l-10.7,9.64c-.58.51-1.29.77-2.01.77-.82,0-1.64-.34-2.23-.99-1.11-1.24-1.01-3.13.22-4.24l9.3-8.38c1.75,1.29,3.6,2.34,5.42,3.2Z" fill="#2b2b2b"/></svg>