<?xml version="1.0" encoding="UTF-8"?><svg id="_レイヤー_9" xmlns="http://www.w3.org/2000/svg" width="1000" height="600" viewBox="0 0 1000 600"><path d="M674.97,68.43c366.69,74.28,267.16,418.68,267.16,418.68-11.07,25.05-67.02,22.26-151.23,21.56l.06-8.72c84.84-270.36-13.63-384.03-119.19-428.2,1.21-1.07,2.16-2.25,2.8-3.52l.4.2Z" fill="#c81d25"/><path d="M671.77,71.75c-.68.59-1.44,1.16-2.28,1.68-5.08,3.21-11.98,1.48-20.56.87-7.6-.55-15.2.62-19.82-2.6-1.26-.88-2.36-1.83-3.28-2.84-1.9-2.06-3.03-4.35-3.16-6.73-.03-.36-.03-.72,0-1.09.59-8.19,12.91-13.96,27.5-12.91,14.6,1.05,25.96,8.54,25.37,16.72-.08,1.18-.41,2.31-.97,3.38-.64,1.27-1.59,2.45-2.8,3.52Z" fill="#c81d25"/><path d="M64.99,420.19c17.92-5.38,152.96-60.95,152.96-60.95-1.2-18.52,19.12-16.13,19.12-16.13C283.3,78.67,538.44,60.73,622.19,62.15l.48-.02c.13,2.38,1.26,4.67,3.16,6.73l-1.12,1.52c-44,20.77-133.92,75.47-198.23,374l-8.9,7.1c23.22,5.9,48.81,11.44,76.91,16.36l-1.96,11.22s-172.98,79.32-288.6,55.57-146.09-94.1-146.09-94.1l-11.47-.16c2.31-9.82,9.34-17.4,18.62-20.18Z" fill="#c81d25"/><path d="M426.48,444.38c64.31-298.53,154.23-353.23,198.23-374l1.12-1.52c.92,1.01,2.02,1.96,3.28,2.84,4.62,3.22,12.22,2.05,19.82,2.6,8.58.61,15.48,2.34,20.56-.87.84-.52,1.6-1.09,2.28-1.68,105.56,44.17,204.03,157.84,119.19,428.2l-.06,8.72c-2.15-.02-4.32-.04-6.51-.05-87.83-.6-255.74-32.27-255.74-32.27,0,0-20.91,17.33-107.55,45.41-86.64,28.09-154.75,33.46-221.08,28.68-66.32-4.78-129.06-56.16-145.79-78.87-8.07-10.95-10.02-22.05-7.86-31.2l11.47.16s30.47,70.35,146.09,94.1,288.6-55.57,288.6-55.57l1.96-11.22c-28.1-4.92-53.69-10.46-76.91-16.36l8.9-7.1Z" fill="#c81d25"/><path d="M241.54,554.97c-13.74,0-27.62-.52-41.73-1.53-65.6-4.73-129.75-55.32-147.99-80.08-7.97-10.81-10.94-22.77-8.37-33.67,2.56-10.89,10.29-19.25,20.68-22.36,16.42-4.93,134.28-53.29,150.77-60.07.09-5.06,1.72-9.13,4.87-12.12,4.56-4.32,11.09-5.08,14.8-5.12,10.98-60.64,33.88-112.59,68.07-154.46,29.1-35.63,66.66-64.34,111.64-85.34,80.19-37.44,164.71-41.81,207.95-41.06,1.66.03,2.98,1.39,2.95,3.05-.03,1.66-1.39,2.97-3.05,2.95-78.01-1.32-336.03,14.85-382.11,278.48-.27,1.57-1.71,2.65-3.31,2.46-.07-.01-8.33-.88-12.83,3.41-2.26,2.16-3.22,5.28-2.95,9.55.08,1.28-.66,2.48-1.85,2.97-5.52,2.27-135.38,55.69-153.24,61.05-8.31,2.49-14.5,9.21-16.56,17.99-2.16,9.16.45,19.36,7.36,28.73,17.69,24.01,79.91,73.07,143.59,77.66,74.64,5.38,142.47-3.43,219.94-28.54,84.63-27.43,106.36-44.7,106.57-44.87.68-.56,1.59-.8,2.46-.63,1.68.32,168.65,31.63,255.2,32.22,2.04,0,4.07.03,6.08.05h.44c6.76.06,13.34.13,19.74.2,71.65.76,119.06,1.26,128.64-19.78.83-2.97,10.68-39.29,12-88.98,1.26-47.51-5.23-117.35-43.36-180.25-45.02-74.26-123.6-123.21-233.57-145.48-1.62-.33-2.67-1.91-2.34-3.54.33-1.62,1.91-2.67,3.54-2.34,111.7,22.63,191.62,72.52,237.54,148.3,38.9,64.19,45.5,135.31,44.19,183.67-1.42,52.34-12.18,90.11-12.28,90.49-.04.13-.08.26-.14.38-10.98,24.85-60.03,24.33-134.27,23.54-6.39-.07-12.96-.14-19.72-.19h-.44c-2-.02-4.02-.04-6.06-.05-83.01-.57-239.05-29.12-254.97-32.08-5.44,3.92-30.99,20.32-107.38,45.07-63.6,20.62-120.79,30.35-180.49,30.35Z" fill="#2b2b2b"/><path d="M511.33,472.42c-.09,0-.19,0-.28-.02-5.86-.94-11.53-1.9-16.86-2.83-26.77-4.69-52.69-10.2-77.04-16.39-140.39-35.62-195.65-84.68-196.2-85.17-.72-.65-.77-1.75-.12-2.47.65-.71,1.75-.77,2.47-.12.54.49,55.28,49,194.71,84.37,24.27,6.17,50.1,11.66,76.78,16.33,5.32.93,10.98,1.88,16.82,2.83.95.15,1.6,1.05,1.45,2.01-.14.86-.88,1.47-1.73,1.47Z" fill="#2b2b2b"/><path d="M790.96,501.7c-.17,0-.35-.03-.53-.08-.92-.29-1.43-1.27-1.15-2.19,38.26-121.91,42.24-222.08,11.85-297.74-23.68-58.94-67.43-102.12-130.05-128.32h0s-.07-.03-.1-.04c-.84-.35-1.27-1.3-.97-2.17.31-.91,1.3-1.41,2.22-1.1.06.02.14.06.21.09,29.01,12.14,54.44,28.24,75.59,47.85,24.58,22.79,43.54,50.51,56.34,82.39,30.7,76.43,26.74,177.4-11.76,300.1-.23.75-.92,1.23-1.67,1.23Z" fill="#2b2b2b"/><path d="M426.48,446.13c-.12,0-.25-.01-.37-.04-.95-.2-1.55-1.13-1.34-2.08,27.89-129.48,63.89-227.64,106.99-291.77,34.84-51.83,67.58-71.82,92.2-83.45.87-.41,1.92-.04,2.33.84.41.87.04,1.92-.84,2.33-55.89,26.38-137.15,93.73-197.27,372.79-.18.82-.9,1.38-1.71,1.38Z" fill="#2b2b2b"/><path d="M661.63,78.32c-2.43,0-5-.27-7.73-.55-1.67-.17-3.39-.35-5.18-.48-2.04-.15-4.12-.17-6.14-.18-5.71-.05-11.1-.1-15.18-2.95-1.45-1.01-2.72-2.12-3.78-3.28-2.4-2.6-3.76-5.56-3.94-8.54-.04-.51-.04-1.02,0-1.54.72-9.95,14.21-16.84,30.71-15.66,7.56.54,14.6,2.74,19.82,6.17,5.74,3.78,8.7,8.67,8.33,13.75-.11,1.57-.54,3.1-1.3,4.55-.78,1.55-1.96,3.04-3.47,4.38-.86.75-1.76,1.41-2.69,1.98-2.85,1.8-5.99,2.34-9.44,2.34ZM646.75,51.01c-12.14,0-20.71,5.1-21.08,10.25-.02.23-.02.43,0,.62,0,.03,0,.06,0,.09.09,1.62.89,3.25,2.37,4.86.78.85,1.71,1.66,2.79,2.42,2.56,1.79,7.05,1.83,11.8,1.87,2.11.02,4.29.04,6.51.2,1.88.13,3.65.32,5.37.49,5.73.59,10.26,1.06,13.38-.91.68-.42,1.32-.89,1.92-1.41.92-.81,1.63-1.7,2.09-2.61.39-.75.6-1.49.66-2.23.2-2.8-1.86-5.83-5.65-8.33-4.37-2.88-10.39-4.73-16.95-5.2-1.09-.08-2.17-.12-3.21-.12Z" fill="#2b2b2b"/><path d="M251.16,540.77c-16.44,0-32.5-1.32-47.59-4.42-60.12-12.35-96.94-37.48-117.24-56.39-22.08-20.57-29.78-38-30.1-38.73-.38-.89.02-1.92.91-2.3.88-.38,1.92.02,2.3.91.08.17,7.81,17.62,29.43,37.71,19.96,18.55,56.19,43.21,115.4,55.38,59.37,12.19,134.36-3.52,186.81-18.84,56.92-16.63,100.27-36.4,100.7-36.6.88-.4,1.92-.02,2.32.86.4.88.02,1.92-.86,2.32-.43.2-44.02,20.08-101.18,36.78-39.56,11.56-91.9,23.34-140.92,23.34Z" fill="#2b2b2b"/></svg>