<?xml version="1.0" encoding="UTF-8"?><svg id="_レイヤー_7" xmlns="http://www.w3.org/2000/svg" width="1000" height="1000" viewBox="0 0 1000 1000"><path d="M815.09,897.31l8-4.03V82.42h-16.67v-8.4h.33s21.33,0,21.33,0c2.95,0,5.33,2.23,5.33,4.98v827.06c0,2.75-2.39,4.98-5.33,4.98h-21.66v-9.36l8.67-4.36Z" fill="#7db8ea"/><polygon points="823.08 82.42 823.08 893.29 815.09 897.31 815.09 82.74 815.09 82.42 823.08 82.42" fill="#fff"/><polygon points="815.09 82.74 815.09 897.31 806.42 901.67 806.42 82.42 815.09 82.42 815.09 82.74" fill="#fff"/><path d="M806.42,911.03v14.84c0,2.64-2.14,4.78-4.78,4.78H171.37c-2.64,0-4.78-2.14-4.78-4.78V74.12c0-2.64,2.14-4.78,4.78-4.78h630.27c2.61,0,4.72,2.08,4.78,4.68v837.01Z" fill="#7db8ea"/><path d="M801.64,933.66H171.37c-4.29,0-7.78-3.49-7.78-7.78V74.12c0-4.29,3.49-7.78,7.78-7.78h630.27c4.27,0,7.69,3.34,7.78,7.61v8.47s0,843.45,0,843.45c0,4.29-3.49,7.78-7.78,7.78ZM171.37,72.34c-.98,0-1.78.8-1.78,1.78v851.75c0,.98.8,1.78,1.78,1.78h630.27c.98,0,1.78-.8,1.78-1.78V74.02c-.02-.91-.8-1.68-1.78-1.68H171.37Z" fill="#2b2b2b"/><path d="M828.08,914.03h-23.32v-6h23.32c1.29,0,2.33-.89,2.33-1.98V79c0-1.09-1.05-1.98-2.33-1.98h-21.33v-6h21.33c4.59,0,8.33,3.58,8.33,7.98v827.06c0,4.4-3.74,7.98-8.33,7.98Z" fill="#2b2b2b"/><polygon points="806.53 903.57 804.97 900.44 821.33 892.21 821.33 84.17 805.75 84.17 805.75 80.67 824.83 80.67 824.83 894.36 806.53 903.57" fill="#2b2b2b"/><rect x="813.34" y="82.74" width="3.5" height="815.84" fill="#2b2b2b"/><rect x="200.36" y="86.22" width="3.5" height="817.39" fill="#2b2b2b"/><path d="M627.36,641.99c-15.12,0-26.52-10.82-26.52-25.16v-.24c.2-15.61.4-39.83.49-56.49-16.47.09-40.15.29-55.41.49h-.24c-14.11,0-25.16-11.41-25.16-25.97s11.29-26.52,25.7-26.52h.14s54.97.43,54.97.43c-.09-16.14-.28-39.36-.49-54.81v-.25c0-14.11,11.53-25.16,26.24-25.16s26.79,11.29,26.79,25.7c0,11.42-.17,27.61-.32,41.89-.05,4.39-.09,8.69-.13,12.62l55.07-.43c14.41,0,25.7,11.65,25.7,26.52s-11.05,25.97-25.16,25.97h-.24c-4.84-.06-10.49-.14-16.49-.22-12.79-.17-27.59-.37-38.89-.49.04,3.86.08,8.14.12,12.66.15,14.96.32,31.91.32,43.75,0,14.41-11.65,25.7-26.52,25.7Z" fill="#fff"/><path d="M627.36,643.74c-16.11,0-28.27-11.57-28.27-26.91v-.25c.2-15.52.39-38.83.48-54.72-15.69.09-38.58.28-53.63.48h-.25c-15.1,0-26.92-12.18-26.92-27.72s12.06-28.27,27.45-28.27h.15s53.2.41,53.2.41c-.09-14.87-.27-37.16-.48-53.02v-.25c0-15.1,12.29-26.93,27.99-26.93s28.54,12.06,28.54,27.45c0,11.37-.17,27.49-.32,41.71l-.11,11.04,53.29-.41c15.41,0,27.47,12.42,27.47,28.27s-11.82,27.72-26.91,27.72h-.25s-16.7-.22-16.7-.22c-12.08-.16-25.91-.34-36.9-.46.03,2.97.06,6.15.09,9.49l.02,1.51c.15,14.92.32,31.83.32,43.65,0,15.4-12.42,27.45-28.27,27.45ZM603.09,558.33v1.77c-.1,15.89-.29,40.4-.5,56.51v.23c0,13.33,10.64,23.4,24.76,23.4s24.77-10.52,24.77-23.95c0-11.8-.17-28.7-.32-43.61v-1.51c-.06-4.01-.09-7.81-.13-11.27l-.02-1.78,1.79.02c11.25.12,25.95.31,38.69.48l16.91.22c13.12,0,23.4-10.64,23.4-24.22s-10.52-24.77-23.95-24.77l-56.84.44.15-14.6c.15-14.21.32-30.31.32-41.67,0-13.43-11-23.95-25.04-23.95s-24.5,10.28-24.5,23.41v.23c.22,16.51.41,39.98.49,54.81v1.77s-56.87-.44-56.87-.44c-13.43,0-23.95,10.88-23.95,24.77s10.28,24.22,23.41,24.22h.23c15.63-.2,39.71-.4,55.41-.49h1.77Z" fill="#2b2b2b"/><polygon points="509.86 734.85 248.93 605.83 491.13 444.37 509.86 734.85" fill="#f9df5a"/><path d="M511.8,737.76l-266.36-131.7,247.24-164.83,19.12,296.53ZM252.42,605.6l255.5,126.33-18.34-284.43-237.15,158.1Z" fill="#2b2b2b"/><path d="M474.65,818.46c-13.06-13.06-13.56-32.26-1.17-44.66l.21-.21c13.66-13.31,34.76-34.08,49.24-48.4-14.31-14.15-34.94-34.44-48.3-47.46l-.21-.21c-12.19-12.19-11.88-31.6.7-44.19,12.85-12.85,32.67-13.16,45.12-.7l.12.13,47.13,47.87c13.87-14.03,33.76-34.26,46.94-47.78l.21-.21c12.19-12.19,31.71-11.78,44.42.93s13.39,32.9.93,45.36c-9.87,9.87-24,23.71-36.47,35.92-3.84,3.76-7.59,7.43-11.01,10.79l47.96,47.22c12.45,12.45,12.15,32.28-.7,45.12s-32,12.89-44.19.7l-.2-.21c-4.13-4.23-8.95-9.19-14.06-14.43-10.9-11.2-23.52-24.15-33.19-34.03-3.3,3.36-6.96,7.1-10.83,11.05-12.79,13.05-27.29,27.85-37.53,38.08-12.45,12.45-32.28,12.15-45.12-.7Z" fill="#2b2b2b"/><path d="M497.85,830.06c-.17,0-.35,0-.52,0-8.89-.14-17.38-3.81-23.92-10.35s-10.42-15.08-10.64-23.77c-.23-8.73,3.14-17.02,9.48-23.36l.21-.21c13.67-13.32,34.16-33.49,47.98-47.15-13.69-13.53-33.83-33.34-47.03-46.21l-.22-.22c-12.89-12.89-12.59-33.39.69-46.67,6.54-6.54,15.03-10.21,23.92-10.35,8.91-.16,17.32,3.29,23.68,9.65l.13.13,45.89,46.61c12.75-12.9,32.02-32.48,45.68-46.51l.22-.22c6.25-6.25,14.51-9.59,23.3-9.39,8.75.18,17.14,3.85,23.61,10.32,6.6,6.6,10.33,15.15,10.52,24.08.18,8.96-3.22,17.39-9.58,23.75-9.83,9.84-23.92,23.62-36.34,35.79l-.15.15c-3.37,3.3-6.67,6.53-9.74,9.54l46.69,45.97c13.16,13.16,12.85,34.07-.69,47.61-13.28,13.28-33.78,13.59-46.66.7l-.21-.21-14.07-14.44c-10.44-10.72-22.45-23.05-31.93-32.75l-9.58,9.77c-12.78,13.04-27.26,27.82-37.54,38.1-6.24,6.24-14.44,9.65-23.16,9.65ZM498.31,625.25c-.15,0-.31,0-.46,0-7.97.12-15.61,3.44-21.5,9.33-11.89,11.89-12.2,30.21-.7,41.71l.2.2c13.61,13.26,34.6,33.92,48.3,47.46l1.26,1.24-1.26,1.24c-13.81,13.66-35.16,34.68-49.25,48.41l-.2.2c-5.65,5.65-8.65,13.03-8.44,20.79.2,7.79,3.62,15.39,9.62,21.39s13.53,9.2,21.5,9.33c7.93.13,15.46-2.94,21.15-8.63,10.27-10.27,24.74-25.04,37.51-38.07l12.08-12.32,1.25,1.28c9.67,9.87,22.29,22.83,33.19,34.03l14.25,14.63c5.55,5.55,12.85,8.53,20.67,8.42,7.8-.12,15.27-3.37,21.03-9.13,12.15-12.15,12.46-30.89.7-42.65l-49.21-48.46,1.27-1.25c3.42-3.36,7.18-7.04,11.02-10.79l.15-.15c12.42-12.16,26.49-25.94,36.31-35.76,5.68-5.68,8.72-13.22,8.56-21.21-.17-8.02-3.54-15.72-9.49-21.67-5.83-5.83-13.36-9.13-21.21-9.3-7.84-.18-15.18,2.8-20.74,8.36l-.2.21c-14.11,14.49-34.23,34.92-46.94,47.78l-1.25,1.26-48.49-49.25c-5.57-5.57-12.9-8.63-20.68-8.63Z" fill="#2b2b2b"/><path d="M391.28,184.61c3.74,0,6.8,3.06,6.8,6.8s-3.06,6.8-6.8,6.8h-5.95c-.68,0-1.19.51-1.19,1.36v1.36c0,3.91-3.06,6.97-6.96,6.97s-6.97-3.06-6.97-6.97v-1.36c0-.85-.51-1.36-1.19-1.36h-6.46c-.85,0-1.53.34-2.04,1.02-1.19,1.7-2.21,3.06-3.57,4.76-2.89,3.57-7.81,5.1-12.06,3.23-3.23-1.7-4.25-6.46-1.87-9.34,4.76-5.78,8.66-12.23,11.38-18.69,1.53-3.91,5.61-6.46,9.68-5.44,3.74,1.02,5.95,5.44,4.59,9.17-.17.17-.17.34-.34.51-.17.68.34,1.19.85,1.19h22.09ZM438,290.28c0,.68.51,1.19,1.19,1.19h21.41c3.91,0,6.97,3.23,6.97,6.97s-3.06,7.14-6.97,7.14h-21.41c-.68,0-1.19.51-1.19,1.19v8.49c0,3.74-3.06,6.8-6.79,6.8s-6.8-3.06-6.8-6.8v-8.49c0-.68-.51-1.19-1.19-1.19h-32.28c-.85,0-1.53.34-1.87,1.19-1.7,4.42-3.74,8.49-7.13,12.23-3.06,3.23-8.33,4.76-11.89,2.21-3.06-2.04-3.06-7.31-.34-9.85,1.53-1.53,2.89-3.4,3.74-4.76.34-.51,0-1.02-.51-1.02h-18.86c-3.91,0-6.97-3.23-6.97-7.14s3.06-6.97,6.97-6.97h23.11c.68,0,1.36-.51,1.53-1.19v-2.38c.34-3.74,3.57-6.46,7.14-6.29,3.74,0,6.8,3.23,6.63,6.97v1.7c0,.68.51,1.19,1.19,1.19h29.56c.68,0,1.19-.51,1.19-1.19v-1.53c0-3.74,3.06-6.8,6.8-6.8s6.79,3.06,6.79,6.8v1.53ZM377.69,222.49c0-4.59,3.74-8.49,8.5-8.49h45.53c4.76,0,8.49,3.91,8.49,8.49v46.38c0,4.59-3.74,8.49-8.49,8.49h-45.53c-4.76,0-8.5-3.91-8.5-8.49v-46.38ZM402.83,243.39c-3.23,0-5.78-2.55-5.78-5.78s2.55-5.95,5.78-5.95h22.26c.85,0,1.36-.51,1.36-1.19v-1.53c0-.85-.51-1.36-1.36-1.36h-32.62c-.68,0-1.19.51-1.19,1.36v34.15c0,.68.51,1.19,1.19,1.19h32.62c.85,0,1.36-.51,1.36-1.19v-2.21c0-.85-.51-1.36-1.36-1.36h-22.26c-3.23,0-5.78-2.55-5.78-5.78,0-3.06,2.55-5.78,5.78-5.78h22.26c.85,0,1.36-.51,1.36-1.19v-2.04c0-.68-.51-1.36-1.36-1.36h-22.26ZM442.93,201.43v-1.87c0-.85-.51-1.36-1.36-1.36h-5.95c-.85,0-1.53.34-2.04,1.02-.68,1.19-1.36,2.21-2.04,3.06-2.72,3.57-7.31,5.27-11.38,3.23-3.23-1.53-4.25-6.29-2.04-9.34,4.76-5.95,7.99-11.38,10.02-16.65,1.36-3.74,5.44-5.95,9.34-5.1,3.74.85,5.95,4.76,4.76,8.49-.17.17-.17.34-.17.51-.34.68.17,1.19.85,1.19h23.62c3.74,0,6.8,3.06,6.8,6.8s-3.06,6.8-6.8,6.8h-8.49c-.68,0-1.19.51-1.19,1.36v1.87c0,3.74-3.23,6.8-6.97,6.8s-6.97-3.06-6.97-6.8Z" fill="#fff"/><path d="M530.42,255.62c-.17.85-.17,2.72-.34,3.57,0,.68.51,1.36,1.19,1.36h30.41c3.91,0,6.97,3.06,6.97,6.97s-3.06,6.97-6.97,6.97h-6.62c-.68,0-1.19.68-1.19,1.36,0,3.91-.68,8.66-1.02,11.72-.17.68.51,1.36,1.19,1.36h2.04c3.74,0,6.8,3.06,6.8,6.8s-3.06,6.97-6.8,6.97h-5.95c-.85,0-1.53.51-1.87,1.19-3.06,6.46-7.31,11.89-14.27,16.31-3.74,2.21-8.32,1.87-11.55-1.02-2.55-2.21-2.21-6.29.68-7.98,5.1-3.06,6.29-5.1,8.5-7.48.34-.34,0-1.02-.51-1.02h-19.2c-4.42,0-7.99-3.57-7.99-7.98,0-3.23,2.72-5.78,5.95-5.78.51,0,1.02-.34,1.19-.85,1.19-3.74,2.21-7.81,3.06-12.4,0-.51-.34-1.19-1.02-1.19h-10.19c-3.91,0-6.97-3.06-6.97-6.97s3.06-6.97,6.97-6.97h12.06c.68,0,1.36-.68,1.36-1.36.17-1.02.34-3.23.34-4.42.34-3.91,3.57-6.8,7.47-6.63,3.91.17,6.8,3.57,6.29,7.48ZM500.17,225.55c1.53-.68,2.89-2.04,4.08-2.72,3.4-2.21,7.65-2.04,10.19.85,2.55,2.89,1.87,7.82-1.36,9.85-1.87,1.02-3.74,2.38-5.61,3.4-3.57,1.7-7.98.34-10.02-3.06-1.87-3.06-.51-6.97,2.72-8.32ZM525.15,232.86v-15.8c0-.68-.51-1.19-1.19-1.19h-18.18c-3.91,0-6.97-3.23-6.97-6.97s3.06-6.97,6.97-6.97h18.18c.68,0,1.19-.51,1.19-1.19v-14.95c0-3.91,3.06-6.97,6.97-6.97s6.97,3.06,6.97,6.97v14.95c0,.68.68,1.19,1.36,1.19h18.01c3.91,0,6.97,3.06,7.14,6.97,0,3.74-3.06,6.97-6.8,6.97h-18.35c-.68,0-1.36.51-1.36,1.19v15.8c0,3.74-3.06,6.97-6.97,6.97s-6.97-3.23-6.97-6.97ZM513.77,182.4c.51.68,1.19,1.19,1.87,1.87,2.89,2.89,3.06,7.31,0,9.68-3.06,2.55-7.99,2.21-10.7-.68-.85-.68-1.53-1.53-2.21-2.04-2.55-2.55-2.21-6.8.51-9,3.23-2.55,7.65-2.38,10.53.17ZM540.1,275.84c0-.85-.51-1.36-1.19-1.36h-9.34c-.68,0-1.36.51-1.53,1.19-.85,4.25-1.7,8.15-2.72,11.89-.17.68.34,1.36,1.02,1.36h10.7c.85,0,1.36-.68,1.53-1.36.34-3.23,1.53-9.17,1.53-11.72ZM561.33,191.91c-.68.85-1.53,1.7-2.55,2.55-2.89,2.72-7.48,3.06-10.53.34-2.55-2.38-2.55-6.97,0-9.51.51-.34,1.02-.85,1.53-1.36,2.72-2.89,7.13-3.91,10.36-1.7,3.23,2.04,3.91,6.97,1.19,9.68ZM563.2,224.87c3.06,1.7,4.25,6.12,2.38,9.17-2.04,3.57-6.46,4.25-10.02,2.38-2.04-1.02-3.91-2.21-5.44-3.4-2.89-2.21-3.23-6.97-.51-9.51,2.72-2.72,6.96-2.55,10.19-.51,1.02.68,2.21,1.36,3.4,1.87ZM586.82,211.79c8.66-13.08,10.02-19.71,11.55-29.05.68-3.74,4.08-6.29,7.81-5.95s6.29,3.57,5.78,7.31c-.34,2.72-.68,4.93-1.36,7.48-.17.68.17,1.19.85,1.19h39.75c3.91,0,6.97,3.23,6.97,6.97s-3.06,7.14-6.97,7.14h-43.49c-.68,0-1.53.34-1.7,1.02-1.87,3.91-3.4,6.8-5.27,9.51-2.55,3.57-7.3,4.93-11.21,3.23-3.57-1.53-4.76-5.78-2.72-8.83ZM627.42,290.11c-.51.68-.34,1.53.17,1.87,6.46,5.95,15.8,10.7,25.65,14.27,3.4,1.36,4.93,5.61,2.72,8.66-2.38,3.74-7.14,5.1-11.21,3.4-9.85-4.08-19.54-9-26.33-15.29-.51-.34-1.36-.34-1.87.17-4.25,4.42-9,8.49-14.78,12.23-3.57,2.55-8.49,2.21-12.06-.51-2.72-2.38-2.55-6.63.51-8.66,5.95-3.91,12.06-8.66,16.82-13.42.51-.68.51-1.36,0-2.04-3.4-4.76-6.46-9.85-8.83-15.46-1.53-3.57.17-7.81,3.74-9.17,3.57-1.36,7.65.17,9.17,3.74,1.36,2.89,3.06,5.78,4.93,9,.34.51,1.02.51,1.36,0,4.59-7.65,7.82-16.82,9.34-25.48.68-3.74,4.25-6.29,8.16-5.95,3.74.34,6.46,3.91,5.78,7.81-2.04,12.57-6.8,25.14-13.25,34.83Z" fill="#fff"/><path d="M374.18,324.22c-1.81,0-3.6-.49-5.15-1.6-1.72-1.14-2.84-3.19-3.04-5.58-.22-2.68.72-5.29,2.52-6.98.75-.75,1.57-1.72,2.32-2.75h-16.76c-4.81,0-8.72-3.99-8.72-8.89s3.91-8.72,8.72-8.72h22.88v-1.98c.43-4.64,4.35-8.11,8.97-7.88h0c2.16,0,4.36.95,5.94,2.61,1.59,1.67,2.45,3.92,2.34,6.19v1.06h28.44v-.97c0-4.71,3.83-8.55,8.55-8.55s8.54,3.83,8.54,8.55v.97h20.85c4.81,0,8.72,3.91,8.72,8.72s-3.91,8.89-8.72,8.89h-20.85v7.93c0,4.71-3.83,8.55-8.54,8.55s-8.55-3.83-8.55-8.55v-7.93h-31.72c-.14,0-.21.02-.23.03-1.51,3.95-3.57,8.52-7.48,12.82-2.28,2.4-5.71,4.05-9.05,4.05ZM354.08,293.22c-2.88,0-5.22,2.34-5.22,5.22s2.34,5.39,5.22,5.39h18.86c.9,0,1.71.48,2.12,1.25.42.78.36,1.71-.15,2.49-.52.83-1.99,3.06-3.96,5.02-1.05.99-1.6,2.57-1.47,4.18.11,1.32.67,2.4,1.54,2.98,2.89,2.06,7.25.58,9.65-1.96,2.77-3.05,4.81-6.55,6.77-11.66.59-1.48,1.86-2.31,3.5-2.31h32.28c1.65,0,2.94,1.29,2.94,2.94v8.49c0,2.78,2.26,5.05,5.05,5.05s5.04-2.26,5.04-5.05v-8.49c0-1.65,1.29-2.94,2.94-2.94h21.41c2.88,0,5.22-2.42,5.22-5.39s-2.34-5.22-5.22-5.22h-21.41c-1.65,0-2.94-1.29-2.94-2.94v-1.53c0-2.78-2.26-5.05-5.04-5.05s-5.05,2.26-5.05,5.05v1.53c0,1.65-1.29,2.94-2.94,2.94h-29.56c-1.65,0-2.94-1.29-2.94-2.94v-1.7c.06-1.39-.44-2.71-1.38-3.69-.94-.98-2.18-1.53-3.5-1.53-2.74-.13-5.1,1.94-5.39,4.62v2.51l-.05.21c-.36,1.46-1.72,2.51-3.23,2.51h-23.11ZM371.96,305.66s-.01.02-.02.03c0,0,.01-.02.02-.03ZM431.72,279.12h-45.53c-5.65,0-10.25-4.6-10.25-10.24v-46.38c0-5.65,4.6-10.24,10.25-10.24h45.53c5.65,0,10.24,4.6,10.24,10.24v46.38c0,5.65-4.6,10.24-10.24,10.24ZM386.18,215.75c-3.72,0-6.75,3.03-6.75,6.74v46.38c0,3.72,3.03,6.74,6.75,6.74h45.53c3.72,0,6.74-3.03,6.74-6.74v-46.38c0-3.72-3.03-6.74-6.74-6.74h-45.53ZM425.09,266.04h-32.62c-1.65,0-2.94-1.29-2.94-2.94v-34.15c0-1.77,1.26-3.11,2.94-3.11h32.62c1.83,0,3.11,1.28,3.11,3.11v1.53c0,1.68-1.34,2.94-3.11,2.94h-22.26c-2.22,0-4.03,1.88-4.03,4.2s1.77,4.03,4.03,4.03h22.26c1.74,0,3.11,1.37,3.11,3.11v2.04c0,1.68-1.34,2.94-3.11,2.94h-22.26c-2.18,0-4.03,1.84-4.03,4.03s1.77,4.03,4.03,4.03h22.26c1.83,0,3.11,1.28,3.11,3.11v2.21c0,1.68-1.34,2.94-3.11,2.94ZM393.03,262.54h31.67v-1.26h-21.86c-4.22,0-7.53-3.31-7.53-7.53s3.45-7.53,7.53-7.53h21.86v-1.09h-21.86c-4.22,0-7.53-3.31-7.53-7.53s3.38-7.7,7.53-7.7h21.86v-.58h-31.67s0,33.2,0,33.2ZM449.89,209.97c-4.81,0-8.72-3.83-8.72-8.55v-1.48h-5.55c-.27,0-.43.06-.59.25-.7,1.21-1.41,2.28-2.12,3.17-3.39,4.45-8.96,5.98-13.53,3.7-1.89-.9-3.33-2.71-3.91-4.97-.62-2.42-.16-5.03,1.24-6.96,4.61-5.76,7.8-11.06,9.81-16.26,1.65-4.55,6.54-7.22,11.35-6.18,2.26.51,4.2,1.95,5.35,3.96,1.07,1.87,1.38,4.1.87,6.19h22.46c4.71,0,8.55,3.83,8.55,8.55s-3.83,8.55-8.55,8.55h-7.93v1.48c0,4.63-3.99,8.55-8.72,8.55ZM435.62,196.45h5.95c1.83,0,3.11,1.28,3.11,3.11v1.87c0,2.83,2.29,5.05,5.22,5.05s5.22-2.31,5.22-5.05v-1.87c0-1.77,1.26-3.11,2.94-3.11h8.49c2.78,0,5.05-2.26,5.05-5.05s-2.26-5.05-5.05-5.05h-23.62c-.99,0-1.86-.46-2.34-1.24-.39-.63-.47-1.36-.24-2.08.03-.25.11-.58.31-.92.34-1.27.17-2.59-.48-3.72-.67-1.17-1.76-1.98-3.07-2.28-3.03-.66-6.26,1.09-7.31,3.99-2.16,5.57-5.52,11.17-10.3,17.14-.74,1.03-1,2.54-.63,3.97.32,1.25,1.07,2.23,2.05,2.7,3.6,1.8,7.23-.07,9.24-2.71.65-.81,1.28-1.76,1.91-2.87l.12-.18c.84-1.12,2.03-1.72,3.44-1.72ZM443.68,184.12l-.03.08s.02-.05.03-.08ZM348.73,209.75c-1.54,0-3.08-.31-4.53-.95l-.11-.05c-2.02-1.06-3.46-3.05-3.94-5.45-.48-2.39.08-4.78,1.54-6.55,4.6-5.58,8.44-11.89,11.12-18.25,1.9-4.86,6.94-7.65,11.72-6.46,2.25.61,4.17,2.2,5.29,4.37,1.05,2.03,1.31,4.34.73,6.46h20.74c4.71,0,8.55,3.83,8.55,8.55s-3.83,8.55-8.55,8.55h-5.38v.97c0,4.89-3.83,8.72-8.72,8.72s-8.72-3.91-8.72-8.72v-.97h-5.9c-.3,0-.46.08-.64.32-1.17,1.67-2.22,3.08-3.6,4.8-2.45,3.02-6.02,4.68-9.6,4.68ZM345.66,205.63c3.37,1.45,7.45.32,9.94-2.75,1.34-1.67,2.32-2.98,3.5-4.66.88-1.17,2.07-1.77,3.47-1.77h6.46c1.68,0,2.94,1.34,2.94,3.11v1.36c0,2.88,2.34,5.22,5.22,5.22s5.21-2.29,5.21-5.22v-1.36c0-1.77,1.26-3.11,2.94-3.11h5.95c2.78,0,5.05-2.26,5.05-5.05s-2.26-5.05-5.05-5.05h-22.09c-.79,0-1.57-.38-2.07-1.02-.51-.66-.69-1.51-.48-2.34l.12-.47.23-.23c.03-.06.07-.13.12-.21.4-1.31.26-2.77-.42-4.07-.67-1.3-1.79-2.24-3.06-2.59-3.04-.76-6.32,1.12-7.59,4.39-2.83,6.71-6.85,13.32-11.66,19.16-.79.96-1.08,2.28-.81,3.64.27,1.32,1.05,2.45,2.09,3.02Z" fill="#2b2b2b"/><path d="M528.83,323.35c-2.75,0-5.44-.98-7.57-2.88-1.61-1.4-2.47-3.53-2.27-5.68.2-2.16,1.38-4.02,3.23-5.12,3.48-2.09,5-3.65,6.4-5.24h-16.72c-5.37,0-9.74-4.37-9.74-9.73,0-4.03,3.26-7.33,7.33-7.52,1.07-3.41,1.96-7.01,2.72-10.95h-9.33c-4.89,0-8.72-3.83-8.72-8.72s3.83-8.72,8.72-8.72h11.71c.15-.97.3-2.98.3-4.03v-.15c.43-4.82,4.48-8.42,9.3-8.22,2.36.1,4.57,1.19,6.07,2.97,1.52,1.81,2.18,4.11,1.87,6.48l-.02.12c-.06.31-.1.97-.14,1.55-.03.45-.06.89-.1,1.28h29.78c4.89,0,8.72,3.83,8.72,8.72s-3.83,8.72-8.72,8.72h-6.07c-.03,3.17-.46,6.73-.8,9.62-.06.46-.11.91-.16,1.32h1.42c4.71,0,8.55,3.83,8.55,8.55s-3.83,8.72-8.55,8.72h-5.95c-.17,0-.27.16-.3.22-3.49,7.36-8.23,12.77-14.9,17-1.92,1.13-4.02,1.69-6.09,1.69ZM502.89,262.3c-2.92,0-5.22,2.29-5.22,5.22s2.29,5.22,5.22,5.22h10.19c1.71,0,2.77,1.53,2.77,2.94l-.03.32c-.84,4.56-1.86,8.69-3.11,12.61-.41,1.23-1.58,2.07-2.86,2.07-2.31,0-4.2,1.81-4.2,4.03,0,3.44,2.8,6.23,6.24,6.23h19.2c.96,0,1.83.59,2.21,1.51.36.87.18,1.85-.46,2.5-.37.4-.75.83-1.12,1.26-1.65,1.9-3.36,3.87-7.71,6.48-.89.52-1.44,1.4-1.53,2.43-.1,1.05.3,2.05,1.1,2.74,2.65,2.37,6.38,2.69,9.52.84,6.04-3.83,10.37-8.78,13.58-15.55.68-1.36,2-2.19,3.45-2.19h5.95c2.83,0,5.05-2.29,5.05-5.22s-2.26-5.05-5.05-5.05h-2.04c-.9,0-1.78-.44-2.36-1.18-.51-.65-.71-1.45-.56-2.21.06-.57.14-1.19.22-1.85.35-2.91.78-6.54.78-9.59,0-1.71,1.32-3.11,2.94-3.11h6.62c2.92,0,5.22-2.29,5.22-5.22s-2.29-5.22-5.22-5.22h-30.41c-1.62,0-2.94-1.4-2.94-3.11l.03-.34c.06-.31.1-.97.14-1.55.05-.73.09-1.42.19-1.95.17-1.37-.22-2.69-1.09-3.73-.88-1.05-2.14-1.66-3.54-1.72-2.95-.14-5.36,2-5.65,4.96,0,1.27-.17,3.38-.34,4.51-.1,1.58-1.51,2.94-3.1,2.94h-12.06ZM530.32,302.51s-.04.04-.06.06l.06-.06ZM648.37,320.79c-1.43,0-2.89-.28-4.29-.86-12.05-4.99-20.49-9.86-26.49-15.29-4.58,4.74-9.46,8.76-14.87,12.26-4.01,2.87-9.83,2.65-14.07-.59l-.09-.08c-1.74-1.52-2.65-3.69-2.5-5.96.15-2.23,1.31-4.22,3.19-5.48,6.21-4.08,12-8.69,16.35-13-3.84-5.38-6.79-10.54-9.01-15.78-.93-2.17-.93-4.69,0-6.89.92-2.16,2.59-3.79,4.72-4.61,4.53-1.73,9.54.33,11.41,4.68,1.1,2.34,2.45,4.7,4,7.38,3.89-6.88,6.83-15.18,8.3-23.48.84-4.64,5.16-7.81,10.03-7.39,2.25.21,4.34,1.36,5.73,3.18,1.44,1.88,2.03,4.31,1.62,6.68-2.06,12.69-6.94,25.56-13.4,35.31,5.67,5.14,14.25,9.87,24.84,13.71,2.25.9,3.95,2.78,4.61,5.05.63,2.16.25,4.43-1.04,6.24-2.02,3.13-5.45,4.89-9.05,4.9ZM617.6,301.03c.62,0,1.25.18,1.79.53l.22.17c5.71,5.28,13.91,10.03,25.81,14.96,3.36,1.4,7.17.26,9.07-2.72l.06-.08c.68-.95.88-2.1.54-3.26-.36-1.25-1.29-2.28-2.49-2.76-11.07-4.01-20.11-9.04-26.11-14.54-.56-.43-.95-1.08-1.07-1.81-.14-.83.07-1.71.58-2.42,6.24-9.37,10.96-21.8,12.96-34.1.25-1.44-.08-2.85-.94-3.97-.81-1.06-1.97-1.71-3.26-1.82-3-.25-5.77,1.72-6.28,4.52-1.63,9.25-5.03,18.51-9.56,26.07-.53.8-1.33,1.23-2.18,1.23s-1.65-.43-2.14-1.16l-.06-.09-.42-.73c-1.69-2.92-3.29-5.67-4.57-8.41-1.15-2.68-4.19-3.9-6.97-2.85-1.23.47-2.21,1.43-2.75,2.7-.56,1.33-.56,2.84,0,4.15,2.12,5.01,4.95,9.96,8.65,15.13.95,1.26.95,2.81-.02,4.11l-.16.19c-4.54,4.54-10.61,9.38-17.1,13.65-.97.65-1.56,1.64-1.63,2.79-.08,1.15.39,2.26,1.27,3.06,3.03,2.28,7.11,2.46,9.93.44,5.33-3.45,10.06-7.37,14.54-12.02.62-.62,1.47-.95,2.32-.95ZM537.04,290.67h-10.7c-.86,0-1.66-.39-2.19-1.08-.55-.7-.74-1.59-.52-2.45.89-3.27,1.7-6.79,2.7-11.81.38-1.54,1.74-2.6,3.24-2.6h9.34c1.67,0,2.94,1.34,2.94,3.11s-.45,4.55-.88,7.31c-.27,1.73-.53,3.37-.66,4.59l-.04.24c-.4,1.61-1.7,2.68-3.23,2.68ZM527.24,287.17h9.62c.14-1.28.39-2.87.66-4.56.36-2.3.76-4.88.83-6.38h-8.63c-.91,4.52-1.66,7.89-2.47,10.94ZM532.11,241.57c-4.81,0-8.72-3.91-8.72-8.72v-15.24h-17.62c-4.81,0-8.72-3.91-8.72-8.72s3.83-8.72,8.72-8.72h17.62v-14.39c0-4.89,3.83-8.72,8.72-8.72s8.72,3.83,8.72,8.72v14.39h17.62c4.77,0,8.67,3.79,8.88,8.64,0,4.8-3.91,8.79-8.54,8.79h-17.96v15.24c0,4.81-3.91,8.72-8.72,8.72ZM505.78,203.69c-2.92,0-5.22,2.29-5.22,5.22s2.34,5.22,5.22,5.22h18.18c1.65,0,2.94,1.29,2.94,2.94v15.8c0,2.88,2.34,5.22,5.22,5.22s5.22-2.34,5.22-5.22v-15.8c0-1.62,1.39-2.94,3.11-2.94h18.35c2.74,0,5.05-2.39,5.05-5.22-.13-2.94-2.45-5.22-5.39-5.22h-18.01c-1.71,0-3.11-1.32-3.11-2.94v-14.95c0-2.92-2.29-5.22-5.22-5.22s-5.22,2.29-5.22,5.22v14.95c0,1.65-1.29,2.94-2.94,2.94h-18.18ZM504.2,239.4c-3.29,0-6.48-1.68-8.25-4.62-1.13-1.85-1.4-4.11-.73-6.18.67-2.09,2.23-3.79,4.26-4.65.72-.32,1.47-.89,2.19-1.44.57-.43,1.11-.84,1.67-1.17,4.27-2.75,9.37-2.27,12.42,1.19,1.56,1.77,2.26,4.21,1.9,6.69-.35,2.45-1.68,4.56-3.64,5.8l-.1.06c-.88.48-1.77,1.04-2.7,1.64-.94.6-1.92,1.22-2.91,1.76-1.32.63-2.73.93-4.12.93ZM509.1,223.08c-1.28,0-2.64.4-3.9,1.22l-.09.05c-.38.22-.85.57-1.34.95-.84.64-1.8,1.37-2.89,1.85h-.03c-1.1.48-1.94,1.39-2.3,2.52-.36,1.12-.22,2.29.4,3.3,1.6,2.66,5.01,3.71,7.78,2.39.8-.44,1.68-1,2.62-1.6.93-.59,1.88-1.2,2.85-1.73,1.07-.69,1.8-1.9,2-3.31.21-1.46-.18-2.87-1.06-3.88-1.03-1.17-2.48-1.76-4.03-1.76ZM559.57,239.19c-1.59,0-3.24-.39-4.82-1.22-2.03-1.02-4.01-2.25-5.7-3.57-1.8-1.38-2.91-3.56-3.03-5.99-.12-2.39.76-4.64,2.4-6.19,3.05-3.05,8.13-3.36,12.32-.71.77.51,1.9,1.2,3.15,1.74l.16.08c1.88,1.04,3.29,2.92,3.88,5.15.59,2.25.28,4.6-.86,6.46-1.56,2.74-4.41,4.24-7.51,4.24ZM554.7,223.23c-1.39,0-2.76.44-3.85,1.52-.93.88-1.41,2.14-1.34,3.5.07,1.37.7,2.64,1.68,3.39,1.52,1.18,3.3,2.29,5.16,3.22,2.6,1.36,6.07,1.21,7.72-1.68.67-1.09.83-2.46.48-3.79-.34-1.29-1.11-2.36-2.12-2.95-1.46-.63-2.75-1.42-3.59-1.98-1.16-.73-2.66-1.23-4.14-1.23ZM593.08,223.11c-1.44,0-2.88-.28-4.24-.88-2.16-.93-3.78-2.73-4.44-4.96-.65-2.2-.3-4.55.97-6.45,8.39-12.67,9.75-19.03,11.28-28.36.85-4.66,5.02-7.84,9.7-7.41,2.28.21,4.3,1.28,5.68,3.01,1.39,1.75,1.99,3.98,1.67,6.27-.31,2.45-.62,4.49-1.15,6.68h38.66c4.81,0,8.72,3.91,8.72,8.72s-3.91,8.89-8.72,8.89h-43.49s-.08,0-.12.01h0c-1.78,3.74-3.38,6.82-5.4,9.76-2.17,3.03-5.61,4.72-9.11,4.72ZM605.51,178.51c-2.65,0-4.93,1.88-5.42,4.54-1.6,9.79-3.2,16.7-11.82,29.71h0c-.69,1.04-.88,2.32-.52,3.52.37,1.24,1.25,2.22,2.48,2.74,3.14,1.37,7.05.23,9.1-2.64,1.85-2.69,3.37-5.61,5.05-9.13.49-1.47,2.04-2.14,3.34-2.14h43.49c2.88,0,5.22-2.42,5.22-5.39s-2.34-5.22-5.22-5.22h-39.75c-.85,0-1.61-.36-2.1-.98-.5-.64-.67-1.51-.45-2.38.65-2.44.98-4.51,1.32-7.27.18-1.36-.15-2.64-.94-3.64-.78-.98-1.94-1.59-3.26-1.71-.17-.02-.34-.02-.52-.02ZM553.25,198.41c-2.23,0-4.43-.76-6.16-2.3-1.56-1.45-2.46-3.57-2.5-5.85-.04-2.37.84-4.63,2.42-6.21l.27-.22c.37-.24.82-.7,1.26-1.14,3.42-3.63,8.84-4.47,12.59-1.91,1.95,1.23,3.31,3.47,3.59,5.95.27,2.41-.49,4.71-2.08,6.35-.73.9-1.64,1.81-2.7,2.69-1.88,1.75-4.3,2.63-6.7,2.64ZM549.39,186.63c-.85.91-1.32,2.2-1.3,3.58.02,1.33.52,2.54,1.36,3.32,2.23,1.98,5.82,1.85,8.14-.33l.08-.07c.93-.77,1.7-1.54,2.3-2.3l.13-.15c.88-.88,1.3-2.18,1.15-3.56-.16-1.43-.92-2.71-2.03-3.41-2.39-1.63-5.87-1.01-8.15,1.42-.55.55-1.08,1.08-1.67,1.5ZM510.72,197.42c-2.57,0-5.15-.97-6.98-2.86-.46-.38-.86-.78-1.22-1.13-.32-.32-.61-.61-.85-.79l-.19-.16c-1.53-1.53-2.35-3.68-2.23-5.88.12-2.24,1.16-4.33,2.88-5.72,3.85-3.04,9.22-2.94,12.79.22l.24.26c.24.31.57.62.96.97.25.22.5.46.75.71,1.89,1.89,2.88,4.38,2.73,6.84-.14,2.18-1.16,4.12-2.89,5.46-1.68,1.4-3.83,2.08-5.99,2.08ZM503.89,189.92c.39.31.76.68,1.11,1.03.33.33.67.67,1.02.95l.18.17c2.09,2.23,5.98,2.48,8.31.53,1.23-.96,1.54-2.13,1.59-2.96.09-1.46-.53-2.97-1.71-4.15-.21-.21-.43-.41-.64-.6-.43-.39-.87-.79-1.27-1.29-2.3-1.94-5.72-1.95-8.17,0-.93.75-1.51,1.91-1.57,3.17-.06,1.2.34,2.31,1.14,3.15Z" fill="#2b2b2b"/></svg>