<?xml version="1.0" encoding="UTF-8"?><svg id="_レイヤー_2" xmlns="http://www.w3.org/2000/svg" width="1000" height="850" viewBox="0 0 1000 850"><path d="M929.84,718.3c-8.47,1.35-12.18-.69-20.19-.14-12.2-.47-10.95,1.82-23.3,1.75-10.36.34-13.13-1.36-21.85-2.77-13-1.21-14.09,1.85-26.06,1.21-7.72-.37-9.5-2.15-20.88-.24-12.25.77-10.34,2.34-21.6.69-13.25,2.16-10.82-3.02-22.18-2.77-13.03-.26-14.06,1.51-23.03,1.83-12.96.44-12.95-1.94-25.73-.46-8.31,1.83-9.46,1.84-20.51,1.9-10.63-1.16-12.3-.56-22.64-.34-13.72-2.64-10.64,1.51-24.66,1.2-10.39-.6-10.46-4.6-19.19-2.24-13.46-.22-13.68,1.18-26.47,2.2-11.41-2.62-8.95-2.98-21.81-4.51-9.32,1.19-9.09,1.93-22.55,5.27-8.78.32-10.26-1.73-19.91-2.43-14.8-1.45-14.5,2.54-22.88,2.18-14.43.82-13.19-4.6-23.76-2.63-12.45.47-11.55-.07-22.01.29-12.23.89-14.33-.47-22.27-.12-12.18.65-11.08.93-22.66,2.32-13.21-2.03-11.93-1.52-25.65-1.28-8.87-.06-10.56,1.26-20.76-1.02-12.9,2.51-11.9-.03-22.08.44-12.96-1.02-11.73-.29-24.96-.9-8.74,1.22-12.11-.14-21.32.9-12.24-.44-10.54-.27-23.51,2.63-11.76-.05-8.98-4.14-22.18-5.02-10.76.5-11.36,2.05-23.69,5.15-10.2-3.8-10.2-5.66-20.99-3.69-10.83-1.74-13.32.74-24.57,3.23-11.38-.82-9.85-1.58-22.03-3.66-12.2,2.05-9.06,2.43-20.24,1.34-11.69-.4-13.66-2.59-22.83-.5-14.31-2.3-11.6.78-22.52,1.58-12.63-.96-14.56-2.68-23.42-.42-11.68-1.94-13.55,2.2-24.04.96-1.9.92.52-3.21,1.55-1.68-1.31-1.98-3.65,2.86-.82,1.42-.3,1.08-1.24-3.85-1.68-.91,1.09.28-2,.93.65,1.67-1.36.12-3.32-4.15-.76-3-2.8-2.43-2.44.07-2.67-.5-.45,3.21.06.02-.28-2.17,1.64,1.62-.57,4.12-1.56,1.93-.39,1.57-.03,1.31.22-.53,2.05.7.82,3.13-.81-.07,1.73,1.59-.2-.99.39.36-1.03-.18-.9,2.58-1.87.95-.39-.4-.15-1.54,2.21-3.78-1.45,1.5-1.13,3.86-1.05,4.06-3.4.21-.12-4.41-2.78-2.09.17-2.78-1.24-.02-.16-1.21.54.34,3.25-1.18.83-.49.88-.5-1.95,2.62-2.55.7.41.79,2.92.18.67-2.43,2.81.52-1.01,4.28.45.55-1.13,3.49,1.1-.37,1.99-1.46-2.67-.52-3.17,3.86-4.47.25,2.64.41,2.77-1.32,1.18-.58.21.5-2.28,3.29-2.91.45.84,0,2.82-.72,2.26-1.45-.44-.82.25-.39-.6.8,1.15,1.35,3.04-.09-.46-2.36,2.68-.2.77.14-1.6,1.97,1.79-2.12,2.81-3.08,1.25-.06-.17-2.92-1.51-3.02-1.99-1.74,1.52.77,3.55-.84,1.27-2.37,2.78.67.3.78,0,1.98,1.34-.08,2.94-.14,1.96-2.61.31.14-2.67,1.67-3.53.49.23.54,2.86,1.68,2.98,1.15.55-3.29-2.68-2.48-.18-1.12-1.35-2.55-.9-.88-.79-.98,2.24-.48.66-2.57-2.64-2.57-.04-6.26,4.78-4.87,2.74-14.72.77-6.55.2-6.38-2.59-13.32-.31-7.07,3.6-6.23,3.91-12.85-.77-8.77-3.11-9.06-1.94-14.62.78-8.89.8-7.15,2.46-16.15-1.79-7.25-4.9-9.46-2.6-16.52.51-5.66-.17-5.25-.38-13.59,2.54-7.54,1.64-5.73.32-15.22-.5-8.17.79-7.75,2.39-15.4-1.1-6.38-3.36-6.64-3.06-13.38-1.55-6.03.66-5.65,2.8-14.06-1.71-9.6-3.88-8.57-4.48-13.62.83-10.1,3.25-10.6,3.3-18.02,1.37-3.47-1.7-5.31-3.01-14.25,3.41-5.2,2.9-6.56,3.15-13.23.71-5.36-2.32-6.53-1.99-14.37.68-7.28,1.92-8.19.91-15.59,1.88-7.88-1.12-5.07-2.34-15.3,1.1-6.89,5.84-5.96,4.02-13.03,1.4-6.26-1.78-8.96-1.46-13.27,1.35-9.11.28-10.06.32-16.59-.34-7.19,1.05-6.16-2.36-14.47.27-7.78,1.76-9.07,2.81-15.19,2.58-9.01-1.19-6.12-2.41-15.34,2.85-8.11,2.04-7.3,2.32-13.26,2.22-7.32-2.14-10-2.42-15.29-.03-7.76,2.42-8.95,3.32-14.17-1.69-7.85-3.92-9.71-1.2-16.62-1.9-6.13,1.64-5.02,1.8-12.5-1.46-8.87-.82-7.68-4.57-14.81.82-8.2,5.58-6.93,4.15-14.03-.19-10.8-3.2-9.36-1.73-18.09.23-4.59,2.75-6.91,2.15-14.7.34-7.33-1.71-4.48-2.18-11.4.25-10.15,1.47-9.15,3.04-17.24-3.37-7.87-3.66-5.1-1.98-15.53-2.22-6.77.8-3.69,1.58-12.68-.66-9.34-1.72-8.34-4.53-16.72-.28,2.51,3.3-.04,1.28.53,1.98-.22,1.19-1.05-.65.61,1.96-.83,1.45-2.45,3.59-.16.53-1.77-1.3.34-1.36-1.62.05.22,1.81,1.49.12,1.24,1.9-1-.48-1.6.2-.99-2.05-2.81-.96.47-.85.3,3.33-.63-2.13-2.92.24-3.88.54.46-.41,2.59.93-.37.56-.65-.51,2.14.41-1.43.04.2-.86,1.04,1.22,3.47-1.05-.35-.52-2.05-.57-3.9-1.69.81,1.82.92,1.83,2.59-2.53.21-4.11-4.57-.74-2.41-1-.92,1.12-.65-.82,2.2-.45-2.64-.94-4.67.91-4.99-.42-.11-1.35,2.85,2.02,2.22-3.2,1.67-3.36-1.35-3.26-1.86,1.27-.37.56,1.93,1.11,2.58,3.58-1.66-1.5-3.57,2.35-3.11-1.18-.87-.26,2.96-1.92,2.88.55-3.7,1.25-5.28-.98-3.7.2.33,3.78,1.26,4.2,1.07.95-.17.59-1.2-2.27-2.69,2.1.49.69,3.51,4.38.4-2.13.92-.64.66-.26.16-.64-1.94-1.66-.7,1.1,1.58-1.68-1.85-.57-2.22-3.29-4.52,2.27.2,1.64,2,1.46,5.09,2.25.29,1.2-4.94,1.42-3.94-.29,1.86-.47,2.92,2.31.66.36.46-1-1.92.02-1.64-1.77,2.55-2.32,2.61.39.97.83,2.93.12,1.58.85-1.37-1.08,2.69.89,3.5-1.42,4.56-1.05-3.45-.35-2.79,2.83-3.2-1.78-2.39-2.61-.27-.84.85-.43.81-.94.47-1.57-3.03,13.72,3.18,11.68,4.31,25.36,2.4,9.63,2.52,11.38.98,20.11-2.38,14.13,2.99,12.5,5.42,25.34,5.39,11.74-2.88,11.76-4.03,21.38-3.38,10.58-.68,11.73.11,25.03,3.25,8.24-3.4,8.79-4.99,21.77-4.25,12.27,1.57,12.09,1.04,23.6,2.43,10.52,2.06,10.26-.02,21.59-2.01,11.85-1.63,10.95.68,21.05,1.42,11.07-1.11,11.47.32,24.89-1.49,11.41-.67,11.01.62,20.86,1.95,13.15.55,12.33-.5,24.74-1.71,10.41.43,8.79,2.19,20.76,1.36,11.47-.94,10.19-3.25,24.15-2.47,9.47,2.99,8.78,2.36,22.49,3.18,9.58-.02,8.38-3.93,23.51-2.37,8.06.29,7.45,2.77,19.65,2.87,12.3.15,12.59-1.55,25.58-3.03,9.96,1.81,10.89,4.18,22.64,1.76,10.89,1.96,10.92-2.66,21.09-2.75,10.78,1.13,10.35,1.99,23.64,2.22,11.17,2.3,9.69-2.6,21.87-2.37,9.17,1.37,11.34,3.18,20.63,4.89,14.51-1.92,13.06-3.5,24.55-2.47,12.01.32,12.66.37,23.52,1.3,9.67-1.52,10.34-1.08,19.8-2.94,11.44,1.24,15.08,3.19,25.29,2.43,9.5,1.67,11.04-.14,22.2.22,11.82-.86,11.77-1.1,21.28.72,10.62-1.7,11.75-2.85,23.58-2.29,12.43.83,12.56,2.23,23.4,2.03,9.8-.49,10.69-1.73,21-1.5,12.24.52,13.83,2.5,24.54.96,11.37-.32,10.03-1.45,22.25-.97,10.35,1.05,10.23,0,23.98.26,11.43-.36,9.97-1.32,19.91-.87,12.48-1.2,12.18,3.57,24.87,3.47,8.98-3.33,10.6-2.57,21.02-2.39,2.06-1.87,2.01,1.46.61,1.74,2.67-.96,2.6-4.36,1.26-3.4,1.02,1.53-1.22,1.47,1.88,3.85-1.65-.82.08-4.53-1.15-4.59-1.08,1.34-.54,4.24-.04,2.3,1.83-.53.21-1.19.43-.74,3.47-.87,2.93,1.93,2.5.83-1.9.7-.2,1.12-.58-.37-.84-1.3,1.3,2.09,2.36,3.9-.35-.89.93-3.66-1.69-4.72,2.92,2.68-.1,4.69,2.49,1.5-3.14,2.06-.73,1.15-1.37-1-.31,2.79-1.07,4.55,1.78,2.04-2.85.36.13-1.53-.4-1.03-.2,1.69.98,2.93,1.09,2.5-.83-.8,2.34.17.2-.1.26.47.2.37.3.74-.29,1.65,1.78,1.04-.1.8-.04-2.19,1.24-1.19,1.38-.96-.43,2.92-1.25.09.92-1.53-1.35,2.66-.03,4.98.57,3.73-1.69,1.1,1,.96-.95-2.38,1.93,2.65-2.06,2.95.63,2.11-.17,2.63,2.6-.31,2.04.75-2.05-1.94-1.43.03-1.87,1.49-1.17.32,2.49-.3,2.54-1.32.17-.55-2.89,1.89-3.24,3.5,2.21-1.94,2.83-1.96,4.62-1.23-2.18-1.1-3.68.88-2.19,2.46-.75.13-.93-1.17-1.16-.17.34-3.13-.02-2.33-1.39,1.03,2.73-.91,1.76-1.94,4.9-1.28-2.31-1.29-3.97.09-1.9.08-1.09.36,2.16-.5.82,1.61-1.51-1.26-2.46-.75-3.59-.39.37,1.4,5.55,1.99,5.71,1.01.07-1.95-2.54-1.09-4.47,0-.23-.47,4.32,1.9,3.1-.62.39,8.97-2.99,9.07-3.92,14.53,2.4,9.47,2.78,9.73,3.84,18.49-2.2,5.45-4.07,5.99-2.92,13.47-.3,5.82,1.76,7.53,3.51,15.3.74,4.63-3.65,6.83-2.29,12.31-2.43,7.64,2.89,6.69,1.44,16.17,1.24,6.47-3.38,8.48-3.6,15.52,1.62,8.16,4.73,7.59,4.29,12.78-1.62,8.72-1.33,10.03-2.31,15.74,1.31,6.83,2.6,5.28,1.22,16.37,1.54,4.47-2.75,5.59-1.68,13.03-1.15,6.92.11,7.53,1.55,14.57-.41,7.22-1.13,6.45-.65,13.41,1.11,7.65.53,8.04,2.02,17.83-2.08,5.66-1.48,4.38-4.74,11.54.32,9.04,1.86,6.91,2.66,16.6,1.35,6.02-1.9,8.32-.74,14.61,1.67,7.32,3.64,6.38,2.12,14.17.92,8.06-1.36,6.13-.47,16.39-.18,6.95,1.57,5.84-.35,12.23,2.55,8.69-1.76,7.82-2.4,14.5,2.2,7.39,1.77,8.02,2.6,14.05-.39,7.22-.21,9.8-.25,15.84-2.72,6.29-1.06,8.51,2.52,14.42-.72,6.21-3.59,8.58-3.5,15.23,1.64,9.53,2.11,8.48,2.75,13.24.88,9.97-1.35,7.57-2.84,16.2-.03,5.69.28,6.69.68,13.8.04,6.71-.54,9.21-1.56,15.03-.08,7.26,3.71,6.67,3.43,14.78.69,8.21-3.13,8.32-1.92,16.92-.19,4.48,1.01,7.24.26,12.85,1.02,9.25-1.52,6.74.63,13.38-.77,9.71-.03,8.27-1.59,17.09,3.26,8.58-.4,5.14-1.78,13.78,2.56,6.51,4.14,7.59,5.56,15.98-2.66,5.55-4.73,8.17-2.61,12.12-2.76,9.34,1.16,9.32,1.82,18.13.42-.85-2.06-.22-4.95-.22,1.09.65,2.8.4,4.31,1.67-1.72-1.43-3.13-1.24-1.57-1.8.33-1.45.85.98-.66,1.59,2.72-.29-.52-2.06.2.65.64-2.73,2.66.75,1.1.94-1.42.94-1.87-2.07-.54-2.11-3.07,2.09-1.49,4.13-.12.84-1.13.66-1.1-.39-.04,1.93.12.94.62-.36-1.09,2.47,1.65-2.3.08-3.29.35-3.17-1.3,1.83,2.02,3.76-1.23,2.91,2.83,1.3.28-2.29-.56-.17,1.25-1.09,3.13-.2.29-.3-1.17.73.48.92-.44,1.54-2.23,1.14,2.09.2,1.13,1.03,1.12.51-.33-1.15-.99-1.55-2.1,1.62.79.02.79,2.66.64-.69-3.67-.18-3.5-1.49.03,1.5,2.78,1.63,1.28.55.08,2.44-.38-1.17-1.27.96,1.28-1.47-1.22,2.72,2.34.1.03,1.91-1.66,1.64-2.06-.67-1.65,2.25.03,3.53-1.88,3.13,1.07-1.73-.36-1.84-1.34-3.34,1.24,1.79,3.39,1.35,2.62,1.56-.37,1.89-2.53,1.05-3.63,1.83,1.86.31.13.23,2.48-1.24-.21-.01-1.24,1.56-.7.17-.52-1.96.54-.02-3.53,3.56,2.98-.73-.6-5.33.35-4.81,1.15,1.96,2.24,4.38.5,1.98,1.48,2.12-2.05,1.43-2.08-1.48-1.17.14,2.25,4.72,1.19,3.67-2.16-1.49-.94-3.41-3.05-2.93,1.58,2.6.85,2.47,1.02,3.96.18-.53-1.3-2.59.94-1.71-3.52-1.06-1.57-.23-2.84-.64Z" fill="#fff"/><path d="M249.54,724.41c-.36,0-.71-.06-1.05-.19-2.31-.86-4.14-1.64-5.61-2.27-4.94-2.1-6.27-2.66-13.79-1.29-.34.06-.68.06-1.02.01-7.23-1.16-10.24-.32-15.7,1.21-2.16.6-4.6,1.29-7.75,1.98-.28.06-.57.08-.86.06-7.24-.52-9.54-1.05-13.02-1.84-2.02-.46-4.52-1.03-8.81-1.77-2.55.43-4.37.78-5.85,1.07-5.5,1.06-5.93,1.07-14.59.23-4.42-.15-7.54-.56-10.04-.89-4.16-.55-6.67-.88-11.92.32-.37.08-.76.1-1.14.04-8.27-1.33-10.17-.78-13.05.04-1.94.56-4.36,1.25-8.77,1.57-.15.01-.3.01-.45,0-3.92-.3-6.85-.67-9.2-.97-5.24-.67-7.64-.97-13.25.46-.4.1-.82.12-1.23.05-5.65-.94-8.73-.33-11.98.32-2.76.55-5.86,1.17-10.42.81-.35.19-.74.31-1.16.35-.94.08-1.79-.18-2.51-.65-.54-.3-1.09-.74-1.45-1.4-.02-.02-.03-.05-.05-.07-.05,0-.1,0-.15-.01-.41-.04-.97-.2-1.48-.56-.1,0-.19,0-.29,0-.29.11-.61.18-.98.2-.79.05-1.86-.17-2.79-1.28-.09-.08-.17-.15-.24-.22-.38-.38-.64-.8-.82-1.22-1.49-.15-2.69-1.14-3.19-2.65-.04,0-.07-.02-.11-.03-.73-.18-2.48-.88-3.06-3.49,0-.04-.02-.08-.02-.12-.26-.43-.41-.91-.44-1.4-.69-.78-.94-1.89-.59-2.93-.08-.13-.15-.26-.2-.39-.35-.83-.3-1.75.08-2.51-.57-.54-.94-1.31-.94-2.16-.02-3.44,1.12-5.28,2.05-6.75.96-1.53,1.71-2.75.76-7.38-.06-.31-.08-.64-.04-.96.56-4.75.46-5-1.23-9.04-.33-.8-.72-1.72-1.16-2.81-.13-.31-.2-.65-.21-.99-.2-4.68,1.22-6.85,2.36-8.6.81-1.24,1.41-2.15,1.54-4.33-.32-3.48-.89-5.4-1.39-7.1-.68-2.31-1.27-4.31-.52-8.01.57-6.49.76-7.44,1.45-10.93.23-1.16.52-2.62.91-4.69-.48-1.77-1.03-3.21-1.57-4.6-1.38-3.56-2.68-6.93-.92-12.62.24-2.79.15-3.82-.02-5.8-.13-1.5-.31-3.55-.4-7.12,0-.35.04-.7.16-1.03q1.68-5.01,1.04-8.57c-.22-1.24-.53-2.94-.85-5.28-.01-.08-.02-.15-.02-.23-.35-5.77.13-7.73,1.1-10.96.37-1.23.78-2.62,1.23-4.67-.39-1.99-.91-3.25-1.41-4.48-.85-2.08-1.73-4.23-1.6-8.55-1.02-4.26-.37-6.15.85-9.06.55-1.31,1.22-2.91,1.9-5.43-.84-4.43-1.73-6.08-2.52-7.54-.75-1.39-1.53-2.83-1.87-5.62-.02-.2-.03-.4-.01-.6.45-5.4,1.35-8.33,2.08-10.68.69-2.24,1.19-3.85,1.21-7.1,0-.37.07-.74.21-1.09.26-.67.18-1.07-.66-3.29-.79-2.07-1.87-4.91-2.53-9.42-.11-.73.06-1.47.46-2.08,2.46-3.74,2.48-4.67,2.58-9.1.02-.77.04-1.63.07-2.6,0-.1.01-.19.02-.28.25-1.9-.11-3.01-.66-4.7-.69-2.13-1.55-4.78-1.35-9.4,0-.05,0-.1,0-.15.23-2.5.54-4.32.78-5.78.48-2.87.77-4.61.15-9.12-.05-.37-.03-.74.05-1.1.81-3.42.59-3.92-.08-5.42-.69-1.54-1.73-3.87-2.32-8.83-.03-.28-.03-.56.02-.83.59-3.71,2.1-5.7,3.21-7.15,1.15-1.52,1.54-2.03.87-4.65-.12-.46-.13-.94-.02-1.4.65-2.9.08-4.73-.57-6.85-.53-1.71-1.12-3.64-.95-5.99,0-.07.01-.15.02-.22.85-5.75.69-7.96.5-10.76-.1-1.44-.22-3.08-.21-5.32-.1-2.08-.05-3.5-.02-4.64.08-2.58.1-3.36-2.11-8.75-.16-.39-.24-.82-.22-1.24.18-5.25.9-7.8,1.65-10.5.41-1.46.83-2.98,1.2-5.09.02-.11.04-.21.07-.32,1.16-4.08.86-4.63.05-6.12-.83-1.52-1.97-3.6-2.54-8-.06-.47-.01-.94.14-1.38,2.05-5.84,2.05-6.54,2.07-9.14,0-.86.02-1.89.08-3.27.01-.25.05-.49.13-.73,1.07-3.51.23-5.48-.82-7.97-.75-1.76-1.59-3.76-1.72-6.29,0-.05,0-.09,0-.14-.02-5.38,1.08-8.1,2.05-10.49.49-1.2.91-2.25,1.21-3.65-.39-1.69-.8-3.1-1.16-4.36-1.18-4.04-2.05-7.02-.13-12.44-.87-3.45-.2-5.29.75-7.28.57-1.18,1.1-2.3,1.19-4.88-.2-1.2-.35-2.21-.49-3.09q-.76-4.9-3.73-10.52c-.27-.52-.39-1.11-.33-1.7.46-4.62,2.06-6.88,3.23-8.54,1.07-1.51,1.47-2.08.96-4.6-.04-.18-.06-.36-.06-.54-.08-4.58-.69-6.69-1.23-8.55-.69-2.4-1.35-4.67-.49-9.93.13-2.04.61-3.67,1.09-5.25.71-2.39,1.39-4.64,1.06-8.89,0-.12-.01-.25,0-.37.14-3.14-.16-3.75-.59-4.6-.73-1.45-1.35-2.93-1.59-6.46,0-.09,0-.18,0-.27.17-6.95.83-9.16,1.65-11.95.38-1.27.8-2.69,1.26-4.89-.47-1.06-.87-1.91-1.21-2.61-2.11-4.42-1.98-5.21-.76-12.79l.04-.24c-1.12-3.65-.89-5.19.25-7.46.49-.98,1.1-2.19,1.4-5.48-.42-5.71-.95-7.01-2.12-9.8-.46-1.1-1-2.4-1.64-4.2-.54-.72-.88-1.72-.74-3.02.13-1.16.9-2.11,1.96-2.49-.05-.41-.04-.85.07-1.32.14-.57.54-1.55,1.69-2.25.08-.74.36-1.37.74-1.85,0-.29.04-.56.08-.79.09-.44.28-.85.54-1.2.12-.78.55-1.51,1.24-2,.24-.17.6-.42,1.05-.65.35-.62.91-1.09,1.56-1.33.04-.25.1-.49.2-.73.5-1.21,1.73-1.95,3.03-1.84.94.08,1.75.34,2.42.78.16-.38.4-.73.7-1.03.73-.7,1.76-.98,2.75-.75,3.23.75,5.59,1.38,7.49,1.89,5.96,1.6,6.87,1.84,16.78.46.39-.06.79-.03,1.18.07,7.54,1.98,9.21,1.31,15.42-1.16.87-.35,1.81-.72,2.85-1.12.54-.21,1.13-.26,1.7-.14,5.81,1.23,9.06,2.37,11.66,3.29,3.58,1.26,5.76,2.03,12.69,2.04,2.79-.69,4.92-1.28,6.64-1.76,5.36-1.5,7.61-2.12,15.12-1.62,9.45-.59,11.92,0,20.97,2.2,1.14.28,2.4.58,3.79.91,1-.43,1.89-.82,2.69-1.18,5.71-2.55,8.46-3.55,19.5-2.92.07,0,.14.01.21.02,6.42.82,9.35,1.06,12.45,1.31,2.78.22,5.65.46,11.13,1.12.07,0,.15.02.22.03,6.59,1.29,8.3.85,12.4-.22,1.99-.52,4.46-1.16,8.09-1.8.04,0,.07-.01.11-.02,7.98-1.1,10.72-.49,14.18.27,1.81.4,3.85.85,7.24,1.11,4.85-.48,7.7-.48,10.46-.47,3.47,0,6.74,0,14.06-.98.08,0,.15-.02.23-.02,8.19-.48,10.76.04,14.66.81,1.74.35,3.7.74,6.65,1.14,8.48.35,10.88,0,15.21-.61,2.17-.31,4.87-.7,8.98-1.1.14-.01.28-.02.42-.01,4.46.18,6.81.6,8.89.97,2.7.48,4.83.86,11.54.39,4.27-.35,6.62-.89,8.88-1.41,3.63-.84,6.77-1.56,15.65-1.07.25.01.5.06.74.13,7.29,2.3,8.05,2.34,15.27,2.7,1.73.09,3.8.19,6.4.34,3.39-.02,5.16-.56,7.2-1.19,3.25-1,6.93-2.14,16.43-1.17,3.82.15,5.94.76,8,1.36,2.45.71,4.99,1.45,11.47,1.5,7.19.09,9.93-.45,14.08-1.26,2.64-.52,5.93-1.16,11.13-1.75.29-.03.59-.02.88.03,2.88.52,5,1.08,6.86,1.57,4.55,1.2,6.84,1.8,14.64.2.37-.08.76-.08,1.13-.01,5.32.96,7.38.21,10.24-.83,2.5-.9,5.32-1.93,10.29-1.98.11,0,.23,0,.34.02,3.78.4,6.17.75,8.29,1.07,3.95.59,6.56.98,15.08,1.13.19,0,.37.02.55.06,5.19,1.07,6.92.44,9.53-.51,2.5-.91,5.61-2.04,11.79-1.92.13,0,.26.01.39.03,5.1.76,8.08,1.64,11.24,2.57,2.51.74,5.1,1.51,9.02,2.25,4.8-.65,7.72-1.24,10.09-1.73,4.53-.92,6.81-1.39,14.55-.7,12.03.33,12.81.38,23.24,1.27,3.86-.6,6.27-.89,8.41-1.14,3.07-.36,5.49-.65,10.92-1.72.3-.06.6-.07.9-.04,4.06.44,7.15.97,9.88,1.43,4.97.85,8.56,1.46,14.87.99.24-.02.5,0,.74.04,5.19.91,7.74.72,11.27.45,2.65-.2,5.64-.43,10.35-.28l2.73-.2c8.99-.67,10.09-.76,18.66.88,2.36-.39,4.22-.74,5.88-1.05,5.52-1.05,8.57-1.62,17.8-1.18,5.53.37,8.75.85,11.35,1.24,3.44.52,5.93.89,11.85.79,3.85-.19,6.26-.51,8.58-.81,3.38-.44,6.29-.83,12.55-.68,4.8.2,8.06.63,10.68.97,4.28.56,7.1.92,13.37.02.11-.02.23-.03.34-.03,4.6-.13,7.05-.39,9.22-.63,3.14-.34,5.86-.63,13.23-.34.06,0,.12,0,.19.01,5.77.59,8.14.5,11.73.36,2.71-.1,6.08-.23,11.93-.12,4.73-.15,7.21-.41,9.2-.62,2.84-.3,4.9-.51,10.65-.26,7.06-.65,10.52.52,13.87,1.65,2.76.93,5.37,1.81,10.54,1.83,7.67-2.8,10.51-2.71,17.17-2.5,1.03.03,2.17.07,3.45.1.06-.03.12-.07.18-.1.21-.37.5-.7.86-.97,0,0,.01,0,.02-.01.04-.06.09-.12.13-.17.6-.74,1.51-1.17,2.47-1.12.94.04,1.8.44,2.41,1.14.03.03.05.06.07.08.48-.06,1,0,1.48.2.3.12.57.25.82.4.57.16,1.08.49,1.46.94.65.19,1.24.6,1.64,1.19.08.12.16.25.22.39.98-.35,2.11-.17,2.94.53.93.78,1.29,2.04.94,3.18.11.06.22.12.32.19.39.11.72.3.97.49.36.15.68.37.96.65.51.52.8,1.2.85,1.91,1.11.71,1.62,2.06,1.28,3.31.09.19.16.4.2.6.76.78,1.15,1.85,1.11,3.07,0,.12-.02.24-.04.36-.07.42-.33,1.45-1.37,2.19-.28,4.01-1.42,6.09-2.45,7.97-.59,1.07-1.06,1.94-1.36,3.2.41,1.59.75,2.9,1.05,4.04,1.36,5.21,1.82,6.96,2.7,14.17.06.5,0,1.01-.2,1.48-.59,1.46-1.14,2.56-1.63,3.54-1.3,2.59-1.83,3.67-1.11,8.36.03.2.04.41.03.61-.15,2.98.4,4.59,1.33,7.27.62,1.8,1.4,4.04,2.12,7.22.01.06.03.12.04.19.49,3.05-.58,5.34-1.43,7.17-.83,1.79-1.38,2.97-.91,4.89.13.54.12,1.1-.05,1.63-.88,2.76-.5,3.61.25,5.31.88,1.98,2.07,4.66,1.37,9.91.66,4.17-.66,6.95-1.83,9.41-.85,1.79-1.65,3.49-1.79,5.92.69,3.24,1.61,4.75,2.42,6.1,1.06,1.75,2.16,3.56,1.85,7.18,0,.1-.02.2-.04.29-.92,4.95-1.21,7.41-1.48,9.79-.19,1.63-.37,3.18-.73,5.36.3,1.46.59,2.47.85,3.38.92,3.21,1.31,5,.37,12.77.74,2.83-.13,4.89-.84,6.56-.7,1.65-1.37,3.22-.92,6.3.04.31.04.62,0,.92-.73,4.42-.4,5.7.41,8.78.32,1.21.71,2.72,1.12,4.7.05.25.07.51.06.77-.16,2.83-.37,4.48-.53,5.81-.26,2.03-.4,3.16-.13,7.11.51,3.52.67,5.6.83,7.61.19,2.4.38,4.88,1.18,10.09.08.5.02,1.01-.15,1.49-.35.95-.62,1.7-.85,2.33-1.14,3.14-1.29,3.51-3.68,8.77.17,3.77.57,5.12,1.06,6.82.53,1.83,1.14,3.91,1.55,8.74.76,3.61.16,6.16-.37,8.41-.45,1.92-.85,3.58-.4,6.04.51,2.22,1.04,3.56,1.5,4.76,1.12,2.85,1.71,4.76.71,10.15.42,4.01.07,5.84-.27,7.61-.33,1.72-.67,3.49-.24,8.4,0,.11.01.22.01.34-.06,2.49.14,3.77.31,4.9.32,2.08.48,3.61-.55,7.27,1.42,5.41.4,7.89-1.09,10.54-.61,1.09-1.14,2.04-1.38,3.69,1.54,5.26,1.76,7.23,2.07,10.15.11,1.03.24,2.21.45,3.76.03.19.03.38.02.57-.27,5.02-.26,7.68-.25,11.05,0,1.39.01,2.88,0,4.66,0,.4-.09.8-.25,1.17-1.98,4.58-1.32,5.67,1.85,10.88l.48.8c.34.57.49,1.24.41,1.9-.36,3.09-1.19,5.35-1.93,7.35-.83,2.26-1.56,4.23-1.56,7.26.85,4.89,1.35,6.78,1.76,8.31.36,1.37.65,2.45.97,4.8,0,.05.01.09.02.14.57,6.47-.08,8.45-1.19,11.14-.52,1.27-1.12,2.7-1.63,5.58,0,3.42.11,5.04.3,7.67.11,1.46.23,3.21.37,5.7,0,.05,0,.1,0,.15.04,6.35-.48,9.24-1.33,14.01l-.23,1.3c0,2.58.58,3.7,1.36,5.23.99,1.93,2.21,4.33,2.07,9.2.34,4.44-.49,6.9-1.22,9.07-.7,2.08-1.26,3.73-.73,7.51.03.18.03.36.03.54-.07,1.63.07,3.05.23,4.55.22,2.23.48,4.74.06,8.2.47,4.54.12,6.5-.14,7.94-.21,1.17-.3,1.7.6,4.49.12.38.17.77.14,1.16-.27,3.43-.35,5.43-.41,7.03-.11,2.76-.17,4.34-1.07,9.54,1.78,4.92,1.49,6.83-.14,9.48-.56.91-1.18,1.93-1.64,4.26.62,1.51,1.17,2.69,1.7,3.84,1.49,3.2,2.66,5.72,3.71,11.96.1.61.01,1.24-.25,1.8-.42.88-.83,1.68-1.2,2.43-2.11,4.19-2.44,5.17-1.47,6.98.37.7.46,1.51.23,2.27-1.4,4.75-.84,6.31.09,8.89.64,1.78,1.43,3.96,1.77,7.32.23.77.16,1.61-.22,2.38-.1.21-.23.41-.38.59-.06.39-.2.77-.41,1.12-.18.8-.62,1.49-1.23,1.99-.1.28-.25.58-.46.9-.03.63-.24,1.21-.64,1.72.04.52-.06,1.06-.36,1.62-.1.19-.22.37-.37.54-.15.42-.38.82-.71,1.17-.31.33-.68.57-1.08.73-.66.97-1.67,1.49-2.64,1.58-.09,0-.18.01-.28.01-.15.19-.34.38-.56.55-1.09.85-2.32.76-3.01.64-.01.03-.03.06-.05.1-.58,1.18-1.66,2.01-3.04,2.35-.41.1-.82.11-1.22.04-.54.33-1.2.48-1.86.42-1.24-.13-2.25-1-2.58-2.16-4.37.54-7.57.24-10.67-.06-2.6-.25-5.06-.48-8.33-.26-.11,0-.21,0-.32,0-6-.23-8.43.22-11.25.73-2.68.49-5.72,1.06-11.89,1.02-7.59.24-11.46-.59-15.93-1.55-1.9-.41-3.85-.83-6.34-1.24-6.47-.6-9.74-.07-13.21.48-3.3.52-6.71,1.07-12.63.75-2.49-.12-4.43-.38-6.14-.62-3.72-.51-6.66-.91-14.09.34-.1.02-.21.03-.31.04-4.27.27-6.74.63-8.73.93-3.96.58-6.06.81-13.04-.19-7.83,1.21-10.85-.05-13.77-1.26-2.02-.84-3.95-1.63-8.37-1.54-.04,0-.08,0-.13,0-7.45-.15-10.69.37-14.13.91-2.4.38-4.89.78-8.73.91-6.02.2-9.38-.18-12.35-.52-3.41-.39-6.37-.73-12.99.03-8.5,1.87-9.97,1.88-20.99,1.93-.09,0-.23,0-.34-.02-7.69-.84-10.53-.73-15.67-.53-1.82.07-3.91.15-6.58.21-.21,0-.42-.01-.63-.05-6.96-1.34-9-.81-11.82-.08-2.54.66-5.71,1.47-12.35,1.34-.04,0-.07,0-.11,0-4.84-.28-7.67-1.25-9.94-2.02-2.7-.92-4.18-1.43-8.31-.32-.27.07-.55.11-.83.1-8.06-.13-11.12.32-15.36.94-2.73.4-5.82.85-10.83,1.25-.31.02-.61,0-.91-.07-3.93-.9-6.23-1.54-8.08-2.05-3.37-.93-5.08-1.4-13.05-2.36-5.47.71-7.38,1.25-11.47,2.4-2.45.69-5.49,1.55-10.37,2.76-.2.05-.41.08-.62.09-5.29.19-8.22-.44-11.33-1.1-2.39-.51-4.86-1.04-8.9-1.33-8.21-.81-11.27.1-14.23.98-2.24.67-4.55,1.35-8.41,1.21-7.79.42-11.48-.9-14.44-1.95-2.62-.94-4.36-1.56-8.8-.73-.14.03-.29.04-.44.05-6.68.25-9.58.22-12.38.18-2.46-.03-4.78-.06-9.58.1-7.29.53-11.15.27-14.56.04-2.46-.16-4.58-.31-7.73-.17-8.38.45-10.36.72-14.69,1.31-1.9.26-4.25.58-7.75,1-.27.03-.54.03-.81-.01-10.48-1.61-11.43-1.58-18.81-1.39-1.71.05-3.76.1-6.33.14-2.67-.01-4.66.09-6.42.18-4.1.22-7.36.39-14.44-1.14-7.83,1.48-10.85,1.1-14.05.71-2.01-.25-4.09-.51-7.85-.33-.12,0-.25,0-.37,0-7.27-.57-9.97-.58-13.4-.6-2.63-.01-5.6-.02-11.19-.28-4.6.62-7.84.56-10.98.5-2.89-.05-5.88-.11-10.14.37-.15.02-.3.02-.45.02q-10.05-.36-17.87,1.45c-1.37.32-2.96.69-4.88,1.11-.22.05-.43.07-.67.07-6.59-.03-9.27-1.29-11.87-2.51-2.2-1.03-4.47-2.1-10.33-2.51-6.72.32-9.05,1.04-13.65,2.44-2.3.7-5.15,1.57-9.28,2.61-.24.06-.49.09-.73.09ZM273.23,713.26c.07,0,.13,0,.2,0,7.11.48,10.05,1.86,12.65,3.08,2.23,1.05,4,1.88,9.01,1.94,1.75-.39,3.23-.73,4.5-1.03,8.29-1.92,8.89-1.98,19.21-1.6,4.53-.5,7.66-.44,10.7-.38,3.1.06,6.04.11,10.32-.48.18-.03.36-.04.55-.03,5.64.26,8.6.27,11.21.28,3.52.02,6.31.03,13.66.6,4.15-.18,6.55.12,8.68.38,3.04.38,5.43.67,12.78-.76.41-.08.82-.07,1.23.02,6.71,1.5,9.38,1.35,13.43,1.14,1.84-.1,3.93-.21,6.71-.19,2.48-.04,4.5-.1,6.2-.14,7.42-.2,8.83-.23,19.47,1.39,3.23-.39,5.44-.69,7.25-.94,4.5-.61,6.56-.89,15.21-1.36,3.51-.16,5.9,0,8.43.17,3.38.23,6.88.46,13.79-.05.04,0,.08,0,.12,0,4.98-.17,7.49-.14,9.92-.11,2.7.03,5.49.07,11.87-.17,5.89-1.06,8.84,0,11.69,1.02,2.73.98,5.55,1.98,12.23,1.61.1,0,.2,0,.29,0,2.94.13,4.55-.36,6.6-.96,3.18-.95,7.14-2.12,16.45-1.21,4.38.32,7.18.92,9.65,1.45,2.9.62,5.21,1.12,9.56.98,4.61-1.15,7.53-1.97,9.88-2.63,4.33-1.22,6.51-1.83,12.7-2.62.24-.03.49-.03.73,0,8.73,1.04,10.71,1.58,14.3,2.58,1.72.48,3.85,1.06,7.37,1.88,4.55-.38,7.43-.8,9.98-1.17,4.28-.63,7.66-1.13,15.91-1.01,5.61-1.43,8.42-.47,11.39.55,2.01.69,4.3,1.47,8.29,1.71,5.77.12,8.37-.55,10.66-1.15,3.26-.85,6.08-1.58,14.14-.06,2.47-.05,4.44-.13,6.16-.2,5.21-.2,8.37-.33,16.38.54,10.81-.06,11.73-.07,19.71-1.83.1-.02.2-.04.3-.05,7.41-.86,10.86-.46,14.51-.05,2.89.33,5.89.67,11.46.49,3.47-.12,5.67-.47,8-.84,3.54-.56,7.19-1.15,15.13-.99,5.66-.12,8.48,1.06,10.75,2,2.5,1.04,4.46,1.86,10.96.8.3-.05.61-.05.92,0,6.78.99,8.34.76,11.75.26,1.96-.29,4.65-.68,9.07-.97,8.22-1.37,11.88-.87,15.74-.34,1.66.23,3.38.46,5.63.57,5.3.28,8.26-.19,11.38-.68,3.7-.59,7.52-1.2,14.81-.52.07,0,.13.01.2.03,2.69.44,4.84.9,6.75,1.31,4.43.96,7.63,1.65,14.53,1.42.04,0,.06,0,.11,0,5.67.03,8.29-.46,10.83-.92,2.88-.53,5.86-1.07,12.41-.83,3.68-.24,6.46.03,9.15.29,2.97.28,5.58.53,9.19.1,0,0,0-.01,0-.02.38-.89,1.16-1.54,2.09-1.76.15-.03.32-.07.49-.09.47-.38,1.05-.63,1.67-.7.02,0,.04,0,.06,0,.59-.42,1.31-.61,2.02-.55.17-.19.37-.37.59-.52.77-.52,1.69-.63,2.51-.39.51-.49,1.19-.8,1.93-.84.13-.31.32-.6.55-.87.08-.12.17-.24.26-.34-.03-.35,0-.71.07-1.07-.95-.74-1.37-1.99-1.04-3.17.36-1.3,1.54-2.2,2.89-2.2,0,0,.01,0,.02,0,.4,0,.8-.01,1.18-.04.06-.04.13-.08.19-.12-.28-1.12-.61-2.06-.95-2.97-1.05-2.91-2.04-5.66-.51-11.52-1.68-4.17.01-7.52,1.94-11.36.23-.46.48-.95.73-1.47-.87-4.74-1.76-6.66-3.07-9.49-.63-1.36-1.34-2.89-2.16-4.95-.2-.5-.25-1.04-.17-1.57.65-4.08,1.82-5.99,2.59-7.24.59-.97.77-1.26-.65-5-.19-.51-.24-1.05-.15-1.59.96-5.45,1.01-6.73,1.12-9.54.06-1.56.14-3.48.38-6.68-1.08-3.51-.96-4.95-.62-6.83.21-1.18.47-2.64.04-6.58-.03-.24-.02-.48,0-.72.39-2.95.18-5-.04-7.17-.16-1.57-.32-3.2-.26-5.14-.66-5.01.23-7.66,1.02-9.99.64-1.89,1.19-3.52.91-6.83,0-.12-.01-.24,0-.35.12-3.44-.56-4.76-1.42-6.44-.92-1.8-2.06-4.03-2.01-8.26,0-.16.02-.33.05-.49l.28-1.57c.84-4.72,1.27-7.1,1.24-12.85-.13-2.41-.26-4.1-.36-5.52-.2-2.74-.33-4.56-.31-8.39,0-.17.02-.33.04-.5.64-3.7,1.42-5.59,2.04-7.1.79-1.92,1.23-2.98.77-8.25-.26-1.92-.48-2.75-.81-3.98-.42-1.58-1-3.75-1.92-9.08-.03-.16-.04-.31-.04-.47-.05-4.27,1-7.12,1.92-9.64.58-1.58,1.14-3.09,1.46-4.98-3.26-5.36-5.23-8.7-2.39-15.67,0-1.5,0-2.78,0-4-.01-3.27-.02-6.1.24-11.11-.2-1.48-.32-2.63-.43-3.64-.31-2.89-.48-4.48-2.03-9.67-.11-.37-.15-.76-.11-1.14.31-3.25,1.4-5.19,2.19-6.6.98-1.75,1.52-2.71.32-6.77-.16-.56-.16-1.15,0-1.71.96-3.21.85-3.92.61-5.47-.19-1.22-.45-2.88-.39-5.81-.48-5.61-.05-7.88.34-9.88.3-1.59.54-2.84.15-6.27-.04-.31-.02-.61.04-.91.84-4.3.53-5.11-.32-7.26-.49-1.26-1.17-2.98-1.78-5.67,0-.04-.02-.08-.03-.12-.69-3.73-.08-6.3.45-8.57.47-1.99.84-3.56.31-5.93-.03-.13-.05-.27-.06-.41-.36-4.38-.87-6.1-1.35-7.76-.59-2.02-1.14-3.93-1.32-8.98-.02-.46.08-.93.27-1.35,2.66-5.84,2.68-5.9,3.8-8.98.17-.47.36-1,.59-1.63-.73-4.91-.92-7.38-1.11-9.76-.16-2.02-.31-3.93-.8-7.32-.01-.08-.02-.15-.02-.23-.32-4.62-.13-6.12.16-8.38.15-1.17.33-2.62.47-5.01-.34-1.63-.67-2.89-.96-4-.89-3.39-1.44-5.48-.6-10.83-.54-4.46.58-7.09,1.4-9.03.66-1.55.81-1.99.47-2.98-.15-.43-.2-.89-.14-1.35.92-7.43.6-8.55-.1-11-.31-1.08-.7-2.42-1.09-4.44-.07-.35-.07-.72,0-1.08.4-2.32.58-3.91.78-5.59.27-2.34.58-4.99,1.51-10.04.12-1.56-.18-2.05-1.01-3.41-.99-1.63-2.34-3.86-3.25-8.38-.04-.22-.06-.45-.06-.68.12-3.86,1.38-6.5,2.39-8.63,1.06-2.23,1.75-3.7,1.27-6.23-.06-.34-.07-.68-.02-1.02.59-3.84-.08-5.33-.85-7.06-.91-2.05-1.94-4.37-.72-8.79-.62-3.53.58-6.1,1.47-8.01.73-1.58,1.12-2.47.96-3.61-.64-2.8-1.31-4.75-1.91-6.48-.97-2.82-1.82-5.26-1.66-9.23-.89-6.03.08-8.37,1.72-11.65.37-.74.75-1.49,1.14-2.4-.76-6.14-1.15-7.62-2.45-12.59-.34-1.31-.74-2.84-1.23-4.74-.1-.41-.12-.83-.05-1.24.44-2.6,1.34-4.23,2.13-5.67.72-1.31,1.37-2.5,1.64-4.64-.17-.04-.35-.09-.52-.15-.12-.02-.25-.05-.37-.09-.26-.08-.5-.2-.72-.34-.58-.28-1.11-.63-1.54-1.07-.18-.12-.35-.26-.5-.43-.8-.85-1.03-2.1-.59-3.19,0-.02.02-.05.03-.07-.15-.48-.18-1.01-.07-1.53.08-.38.23-.77.42-1.16,0-.02,0-.04,0-.05-.21-.2-.38-.43-.53-.68-.05-.03-.1-.06-.15-.09-.02-.01-.03-.02-.05-.03-.27-.12-.53-.28-.75-.48-1.15.12-2.29-.42-2.9-1.47-.72.24-1.54.2-2.26-.16-.23-.11-.43-.24-.62-.37-.19.07-.39.13-.59.17-1.4.28-2.78-.46-3.34-1.73-.87-.02-1.68-.05-2.43-.07-6.49-.2-8.45-.26-15.41,2.32-.33.12-.67.18-1.02.19-6.49.04-9.97-1.11-13.01-2.14-3.04-1.03-5.67-1.91-11.6-1.34-.14.01-.28.02-.42.01-5.47-.25-7.26-.06-9.97.22-2.1.22-4.71.49-9.71.65-.05,0-.1,0-.15,0-5.73-.11-9.02.02-11.67.12-3.69.14-6.35.24-12.47-.38-6.86-.27-9.24-.01-12.26.31-2.25.24-4.8.52-9.52.65-6.97.99-10.44.54-14.82-.04-2.63-.34-5.62-.73-10.1-.92-5.74-.13-8.44.23-11.57.64-2.33.31-4.96.65-9.16.86-6.52.12-9.36-.31-12.95-.85-2.61-.39-5.57-.84-10.8-1.19-8.47-.4-11.1.1-16.34,1.09-1.82.34-3.88.74-6.57,1.17-.35.06-.7.05-1.04-.02-8.27-1.58-8.79-1.55-17.61-.89l-2.89.21c-.11,0-.21,0-.32,0-4.47-.15-7.33.07-9.86.26-3.59.27-6.7.51-12.39-.46-6.81.47-10.85-.22-15.95-1.09-2.54-.43-5.4-.92-9.07-1.33-5.34,1.04-7.93,1.35-10.92,1.7-2.15.26-4.59.54-8.55,1.17-.24.04-.48.05-.72.03-10.63-.9-11.27-.96-23.34-1.29-.06,0-.12,0-.19-.01-6.94-.62-8.69-.26-12.91.6-2.4.49-5.68,1.16-10.97,1.86-.31.04-.63.03-.94-.02-4.49-.83-7.34-1.67-10.1-2.48-2.91-.86-5.67-1.67-10.23-2.36-4.92-.07-7.22.76-9.45,1.57-3.01,1.09-5.85,2.12-12.5.8-8.7-.16-11.6-.59-15.6-1.19-2.02-.3-4.31-.65-7.86-1.02-3.84.06-5.93.81-8.13,1.61-3.08,1.12-6.25,2.27-12.77,1.19-8.75,1.73-11.98.88-16.81-.39-1.66-.44-3.54-.93-5.97-1.39-4.7.55-7.63,1.12-10.22,1.63-4.19.82-7.51,1.46-15.29,1.37-7.29-.06-10.37-.95-13.08-1.74-1.88-.55-3.5-1.02-6.64-1.13-.07,0-.13,0-.2-.01-8.37-.86-11.17,0-14.15.92-2.2.68-4.7,1.45-9.05,1.46-.06,0-.12,0-.19,0-2.61-.16-4.7-.26-6.43-.35-7.3-.36-8.71-.43-16.42-2.85-7.74-.41-10.33.19-13.6.94-2.36.54-5.03,1.16-9.77,1.55-7.48.52-10.06.06-13.04-.47-1.95-.35-3.96-.7-7.88-.88-3.85.38-6.43.75-8.5,1.04-4.55.65-7.29,1.04-16.45.66-.09,0-.19-.01-.28-.02-3.21-.44-5.4-.87-7.15-1.22-3.67-.73-5.69-1.14-13.02-.71-7.65,1.03-11.27,1.02-14.76,1.02-2.78,0-5.41,0-10.12.47-.17.02-.35.02-.52,0-3.97-.29-6.39-.83-8.34-1.26-3.1-.68-5.15-1.13-12.02-.19-3.36.59-5.69,1.2-7.56,1.68-4.92,1.28-7.43,1.79-14.96.32-5.3-.64-8.09-.87-10.78-1.08-3.16-.25-6.14-.5-12.62-1.33-9.94-.56-11.76.25-16.61,2.41-1.08.48-2.3,1.02-3.74,1.62-.58.24-1.22.29-1.83.15-1.79-.42-3.37-.81-4.77-1.15-8.84-2.14-10.67-2.59-19.38-2.03-.13,0-.26,0-.4,0-6.64-.45-8.18-.02-13.3,1.4-1.83.51-4.11,1.15-7.17,1.9-.31.08-.64.09-.96.09-8.06,0-10.9-1-14.81-2.38-2.31-.81-5.15-1.81-10.04-2.89-.69.27-1.34.53-1.95.77-6.53,2.6-9.59,3.82-18.58,1.54-10.25,1.41-11.93,1.09-18.58-.69-.61-.17-1.28-.34-2.01-.53-.15.17-.33.31-.51.44-.17.27-.35.51-.55.71-.32.95-1.07,1.97-2.72,2.73-.57.26-1.2.33-1.8.22-.22.1-.45.16-.69.2-.62.4-1.33.61-2.08.62-.21.67-.64,1.25-1.26,1.64.01.14.02.28.02.43,0,1.14-.62,2.15-1.57,2.66-.06.12-.12.23-.2.34-.11.16-.23.31-.36.45.11.61.06,1.28-.16,2.01-.31,1.03-1.14,1.82-2.19,2.07-.08.02-.15.03-.23.04.09.22.18.43.26.64,1.41,3.4,2.11,5.32,2.58,11.92.01.16,0,.31,0,.47-.4,4.6-1.39,6.57-2.04,7.88-.43.85-.53,1.05.31,3.61.15.46.19.94.11,1.42l-.15.95q-1.05,6.51.25,9.24c.45.93,1,2.09,1.68,3.68.24.55.3,1.16.19,1.75-.58,3.01-1.14,4.87-1.58,6.36-.75,2.53-1.25,4.2-1.4,10.25.18,2.5.55,3.24.95,4.03.83,1.65,1.41,3.15,1.23,7.39.38,5.25-.56,8.37-1.31,10.88-.44,1.46-.78,2.61-.85,4.02,0,.12-.02.23-.04.35-.68,4.03-.31,5.31.31,7.43.6,2.07,1.35,4.65,1.46,9.85.84,4.49-.35,6.64-1.99,8.97-.86,1.22-1.68,2.38-2.06,4.82,2.91,5.53,3.06,6.1,3.91,11.56.14.93.31,2.01.53,3.32.03.18.04.37.04.55-.09,4.06-1.07,6.11-1.79,7.61-.62,1.29-.83,1.73-.15,3.93.2.65.17,1.35-.07,1.98-1.63,4.14-1.17,5.72-.05,9.53.44,1.5.93,3.19,1.4,5.36.08.38.09.76.02,1.14-.4,2.32-1.07,3.98-1.67,5.44-.87,2.14-1.62,3.99-1.61,8.13.09,1.45.63,2.72,1.25,4.2,1.19,2.81,2.67,6.3,1.15,11.68-.05,1.11-.05,1.96-.06,2.68-.03,3.22-.13,4.5-2.17,10.38.44,2.8,1.14,4.08,1.76,5.22,1.42,2.59,2.16,4.6.5,10.49-.41,2.34-.89,4.04-1.31,5.54-.65,2.33-1.22,4.35-1.41,8.46,2.35,5.82,2.41,7.41,2.31,10.6-.03,1.11-.07,2.36.02,4.26,0,.05,0,.1,0,.16-.01,2.06.09,3.53.19,4.95.21,3.02.4,5.63-.53,11.94-.07,1.18.28,2.29.71,3.68.71,2.31,1.59,5.15.84,9.22.99,4.55-.35,6.81-2.06,9.07-.86,1.13-1.61,2.12-1.99,4.08.49,3.74,1.2,5.35,1.79,6.66,1.13,2.52,1.57,4.26.57,8.71.64,5.04.24,7.4-.25,10.37-.24,1.42-.5,3.03-.72,5.28-.14,3.49.47,5.38,1.07,7.22.64,1.98,1.31,4.03.92,7.19-.03.88-.05,1.67-.07,2.38-.11,4.69-.27,6.95-2.93,11.26.57,3.23,1.37,5.34,2.03,7.07.86,2.26,1.68,4.41.84,7.06-.08,3.81-.75,6.01-1.47,8.32-.69,2.24-1.41,4.55-1.8,9.1.2,1.44.55,2.08,1.15,3.19.94,1.73,2.22,4.11,3.27,9.98.07.42.06.85-.05,1.27-.84,3.31-1.71,5.38-2.34,6.89-.96,2.3-1.19,2.85-.46,5.68.07.29.1.58.09.88-.15,3.3.37,4.56,1.14,6.45.61,1.48,1.36,3.33,1.87,6.29.06.37.06.75-.02,1.12-.55,2.61-1.06,4.34-1.47,5.72-.79,2.66-1.16,3.88-.86,8.77.3,2.15.58,3.69.8,4.93.82,4.56.75,5.51-1.09,11.04.09,3.05.24,4.81.36,6.23.19,2.17.31,3.61,0,7.18-.02.22-.07.45-.14.66-1.26,3.86-.6,5.55.71,8.93.64,1.64,1.36,3.51,1.96,5.94.1.41.12.84.04,1.26-.45,2.46-.78,4.12-1.04,5.42-.68,3.42-.82,4.14-1.38,10.45-.01.12-.03.24-.05.36-.49,2.34-.22,3.26.37,5.27.53,1.8,1.26,4.27,1.63,8.47.01.13.01.27,0,.4-.19,3.96-1.48,5.94-2.52,7.53-.85,1.3-1.43,2.18-1.4,4.56.35.85.65,1.59.93,2.24,1.93,4.61,2.36,5.88,1.71,11.58,1.18,6.12-.05,8.74-1.64,11.29-.27.44-.51.81-.69,1.2,1.81.75,3.04,2.08,3.21,3.71,0,.01,0,.02,0,.03.17.25.29.52.38.81.36,1.01.49,1.93.37,2.77,0,0,0,.01,0,.02.08.25.13.49.14.72.4-.02.81.01,1.26.1,1.04.2,1.89.94,2.25,1.93.05.13.09.27.11.41.65.08,1.28.37,1.78.87.14.15.27.3.38.47.37.15.72.37,1.02.66.37.37.68.77.91,1.21.58.28,1.08.64,1.45.94,1.37-.13,2.73.51,3.59,1.81.12.18.22.37.3.57,2.31-.05,4.14-.42,6.04-.79,3.36-.67,7.15-1.43,13.52-.45,6.32-1.54,9.58-1.12,14.88-.45,2.24.28,5.02.64,8.67.92,3.65-.28,5.52-.82,7.34-1.34,3.68-1.05,6.41-1.64,15.09-.29,5.93-1.28,9.27-.84,13.46-.29,2.52.33,5.37.71,9.56.85.06,0,.13,0,.19.01q8.14.79,12.97-.14c1.52-.29,3.6-.69,6.49-1.18.33-.06.67-.06,1,0,4.75.81,7.45,1.43,9.63,1.92,3.25.74,5.24,1.19,11.68,1.67,2.78-.63,5.02-1.25,7-1.81,5.74-1.61,9.58-2.68,17.76-1.44,8.43-1.49,10.93-.69,16.71,1.76,1.29.55,2.72,1.15,4.49,1.84,3.5-.9,6.02-1.67,8.08-2.3,4.8-1.47,7.69-2.35,15.29-2.71.05,0,.09,0,.14,0Z" fill="#2b2b2b"/><path d="M900.71,676.12h-50c-.97,0-1.75-.78-1.75-1.75s.78-1.75,1.75-1.75h49.04c.28-.18.61-.29.96-.29.97,0,1.75.78,1.75,1.75v.29c0,.97-.78,1.75-1.75,1.75ZM800.71,676.12h-50c-.97,0-1.75-.78-1.75-1.75s.78-1.75,1.75-1.75h50c.97,0,1.75.78,1.75,1.75s-.78,1.75-1.75,1.75ZM700.71,676.12h-50c-.97,0-1.75-.78-1.75-1.75s.78-1.75,1.75-1.75h50c.97,0,1.75.78,1.75,1.75s-.78,1.75-1.75,1.75ZM600.71,676.12h-50c-.97,0-1.75-.78-1.75-1.75s.78-1.75,1.75-1.75h50c.97,0,1.75.78,1.75,1.75s-.78,1.75-1.75,1.75ZM500.71,676.12h-50c-.97,0-1.75-.78-1.75-1.75s.78-1.75,1.75-1.75h50c.97,0,1.75.78,1.75,1.75s-.78,1.75-1.75,1.75ZM400.71,676.12h-50c-.97,0-1.75-.78-1.75-1.75s.78-1.75,1.75-1.75h50c.97,0,1.75.78,1.75,1.75s-.78,1.75-1.75,1.75ZM300.71,676.12h-50c-.97,0-1.75-.78-1.75-1.75s.78-1.75,1.75-1.75h50c.97,0,1.75.78,1.75,1.75s-.78,1.75-1.75,1.75ZM200.71,676.12h-50c-.97,0-1.75-.78-1.75-1.75s.78-1.75,1.75-1.75h50c.97,0,1.75.78,1.75,1.75s-.78,1.75-1.75,1.75ZM100.71,676.12h-1.41c-.97,0-1.75-.78-1.75-1.75v-48.59c0-.97.78-1.75,1.75-1.75s1.75.78,1.75,1.75v46.87c.8.16,1.41.87,1.41,1.72,0,.97-.78,1.75-1.75,1.75ZM900.71,625.83c-.97,0-1.75-.78-1.75-1.75v-50c0-.97.78-1.75,1.75-1.75s1.75.78,1.75,1.75v50c0,.97-.78,1.75-1.75,1.75ZM99.29,577.53c-.97,0-1.75-.78-1.75-1.75v-50c0-.97.78-1.75,1.75-1.75s1.75.78,1.75,1.75v50c0,.97-.78,1.75-1.75,1.75ZM900.71,525.83c-.97,0-1.75-.78-1.75-1.75v-50c0-.97.78-1.75,1.75-1.75s1.75.78,1.75,1.75v50c0,.97-.78,1.75-1.75,1.75ZM99.29,477.53c-.97,0-1.75-.78-1.75-1.75v-50c0-.97.78-1.75,1.75-1.75s1.75.78,1.75,1.75v50c0,.97-.78,1.75-1.75,1.75ZM900.71,425.83c-.97,0-1.75-.78-1.75-1.75v-50c0-.97.78-1.75,1.75-1.75s1.75.78,1.75,1.75v50c0,.97-.78,1.75-1.75,1.75ZM99.29,377.53c-.97,0-1.75-.78-1.75-1.75v-50c0-.97.78-1.75,1.75-1.75s1.75.78,1.75,1.75v50c0,.97-.78,1.75-1.75,1.75ZM900.71,325.83c-.97,0-1.75-.78-1.75-1.75v-50c0-.97.78-1.75,1.75-1.75s1.75.78,1.75,1.75v50c0,.97-.78,1.75-1.75,1.75ZM99.29,277.53c-.97,0-1.75-.78-1.75-1.75v-50c0-.97.78-1.75,1.75-1.75s1.75.78,1.75,1.75v50c0,.97-.78,1.75-1.75,1.75ZM900.71,225.83c-.97,0-1.75-.78-1.75-1.75v-46.71c-.88-.1-1.56-.84-1.56-1.74,0-.97.78-1.75,1.75-1.75h1.56c.97,0,1.75.78,1.75,1.75v48.44c0,.97-.78,1.75-1.75,1.75ZM99.29,177.53c-.97,0-1.75-.78-1.75-1.75v-.14c0-.97.78-1.75,1.75-1.75h49.86c.97,0,1.75.78,1.75,1.75s-.78,1.75-1.75,1.75h-49.16c-.21.09-.45.14-.7.14ZM849.15,177.38h-50c-.97,0-1.75-.78-1.75-1.75s.78-1.75,1.75-1.75h50c.97,0,1.75.78,1.75,1.75s-.78,1.75-1.75,1.75ZM749.15,177.38h-50c-.97,0-1.75-.78-1.75-1.75s.78-1.75,1.75-1.75h50c.97,0,1.75.78,1.75,1.75s-.78,1.75-1.75,1.75ZM649.15,177.38h-50c-.97,0-1.75-.78-1.75-1.75s.78-1.75,1.75-1.75h50c.97,0,1.75.78,1.75,1.75s-.78,1.75-1.75,1.75ZM549.15,177.38h-50c-.97,0-1.75-.78-1.75-1.75s.78-1.75,1.75-1.75h50c.97,0,1.75.78,1.75,1.75s-.78,1.75-1.75,1.75ZM449.15,177.38h-50c-.97,0-1.75-.78-1.75-1.75s.78-1.75,1.75-1.75h50c.97,0,1.75.78,1.75,1.75s-.78,1.75-1.75,1.75ZM349.15,177.38h-50c-.97,0-1.75-.78-1.75-1.75s.78-1.75,1.75-1.75h50c.97,0,1.75.78,1.75,1.75s-.78,1.75-1.75,1.75ZM249.15,177.38h-50c-.97,0-1.75-.78-1.75-1.75s.78-1.75,1.75-1.75h50c.97,0,1.75.78,1.75,1.75s-.78,1.75-1.75,1.75Z" fill="#2b2b2b"/><path d="M880.39,663.48c-.32,0-.63-.09-.92-.26l-33.96-21.13c-.82-.51-1.07-1.59-.56-2.41.51-.82,1.59-1.07,2.41-.56l33.96,21.13c.82.51,1.07,1.59.56,2.41-.33.53-.9.83-1.49.83ZM812.47,621.21c-.32,0-.63-.08-.92-.26l-33.96-21.13c-.82-.51-1.07-1.59-.56-2.41.51-.82,1.59-1.07,2.41-.56l33.96,21.13c.82.51,1.07,1.59.56,2.41-.33.53-.9.83-1.49.83ZM744.55,578.94c-.32,0-.63-.09-.92-.26l-33.96-21.13c-.82-.51-1.07-1.59-.56-2.41.51-.82,1.59-1.07,2.41-.56l33.96,21.13c.82.51,1.07,1.59.56,2.41-.33.53-.9.83-1.49.83ZM676.63,536.67c-.32,0-.63-.08-.92-.26l-33.96-21.13c-.82-.51-1.07-1.59-.56-2.41.51-.82,1.59-1.07,2.41-.56l33.96,21.13c.82.51,1.07,1.59.56,2.41-.33.53-.9.83-1.49.83ZM608.71,494.4c-.32,0-.63-.09-.92-.26l-33.96-21.13c-.82-.51-1.07-1.59-.56-2.41.51-.82,1.59-1.07,2.41-.56l33.96,21.13c.82.51,1.07,1.59.56,2.41-.33.53-.9.83-1.49.83ZM540.78,452.13c-.32,0-.63-.09-.92-.26l-33.96-21.13c-.82-.51-1.07-1.59-.56-2.41.51-.82,1.59-1.07,2.41-.56l33.96,21.13c.82.51,1.07,1.59.56,2.41-.33.53-.9.83-1.49.83ZM472.86,409.86c-.32,0-.63-.09-.92-.26l-33.96-21.13c-.82-.51-1.07-1.59-.56-2.41.51-.82,1.59-1.07,2.41-.56l33.96,21.13c.82.51,1.07,1.59.56,2.41-.33.53-.9.83-1.49.83ZM404.94,367.59c-.32,0-.63-.09-.92-.26l-33.96-21.13c-.82-.51-1.07-1.59-.56-2.41s1.59-1.07,2.41-.56l33.96,21.13c.82.51,1.07,1.59.56,2.41-.33.53-.9.83-1.49.83ZM337.02,325.33c-.32,0-.64-.09-.92-.26l-33.96-21.13c-.82-.51-1.07-1.59-.56-2.41s1.59-1.07,2.41-.56l33.96,21.13c.82.51,1.07,1.59.56,2.41-.33.53-.9.83-1.49.83ZM269.1,283.06c-.32,0-.64-.08-.92-.26l-33.96-21.13c-.82-.51-1.07-1.59-.56-2.41s1.59-1.07,2.41-.56l33.96,21.13c.82.51,1.07,1.59.56,2.41-.33.53-.9.83-1.49.83ZM201.18,240.79c-.32,0-.64-.08-.92-.26l-33.96-21.13c-.82-.51-1.07-1.59-.56-2.41s1.59-1.07,2.41-.56l33.96,21.13c.82.51,1.07,1.59.56,2.41-.33.53-.9.83-1.49.83ZM133.25,198.52c-.32,0-.64-.08-.92-.26l-33.96-21.13c-.82-.51-1.07-1.59-.56-2.41.51-.82,1.59-1.07,2.41-.56l33.96,21.13c.82.51,1.07,1.59.56,2.41-.33.53-.9.83-1.49.83Z" fill="#2b2b2b"/><path d="M119.61,663.48c-.58,0-1.16-.29-1.49-.83-.51-.82-.26-1.9.56-2.41l33.96-21.13c.82-.51,1.9-.26,2.41.56.51.82.26,1.9-.56,2.41l-33.96,21.13c-.29.18-.61.26-.92.26ZM187.53,621.21c-.58,0-1.16-.29-1.49-.83-.51-.82-.26-1.9.56-2.41l33.96-21.13c.82-.51,1.9-.26,2.41.56.51.82.26,1.9-.56,2.41l-33.96,21.13c-.29.18-.61.26-.92.26ZM255.45,578.94c-.58,0-1.16-.29-1.49-.83-.51-.82-.26-1.9.56-2.41l33.96-21.13c.82-.51,1.9-.26,2.41.56s.26,1.9-.56,2.41l-33.96,21.13c-.29.18-.61.26-.92.26ZM323.37,536.67c-.58,0-1.16-.29-1.49-.83-.51-.82-.26-1.9.56-2.41l33.96-21.13c.82-.51,1.9-.26,2.41.56.51.82.26,1.9-.56,2.41l-33.96,21.13c-.29.18-.61.26-.92.26ZM391.3,494.4c-.58,0-1.16-.29-1.49-.83-.51-.82-.26-1.9.56-2.41l33.96-21.13c.82-.51,1.9-.26,2.41.56.51.82.26,1.9-.56,2.41l-33.96,21.13c-.29.18-.61.26-.92.26ZM459.22,452.13c-.58,0-1.16-.29-1.49-.83-.51-.82-.26-1.9.56-2.41l33.96-21.13c.82-.51,1.9-.26,2.41.56.51.82.26,1.9-.56,2.41l-33.96,21.13c-.29.18-.61.26-.92.26ZM527.14,409.86c-.58,0-1.16-.29-1.49-.83-.51-.82-.26-1.9.56-2.41l33.96-21.13c.82-.51,1.9-.26,2.41.56.51.82.26,1.9-.56,2.41l-33.96,21.13c-.29.18-.61.26-.92.26ZM595.06,367.59c-.58,0-1.16-.29-1.49-.83-.51-.82-.26-1.9.56-2.41l33.96-21.13c.82-.51,1.9-.26,2.41.56.51.82.26,1.9-.56,2.41l-33.96,21.13c-.29.18-.61.26-.92.26ZM662.98,325.32c-.58,0-1.16-.29-1.49-.83-.51-.82-.26-1.9.56-2.41l33.96-21.13c.82-.51,1.9-.26,2.41.56.51.82.26,1.9-.56,2.41l-33.96,21.13c-.29.18-.61.26-.92.26ZM730.9,283.06c-.58,0-1.16-.29-1.49-.83-.51-.82-.26-1.9.56-2.41l33.96-21.13c.82-.51,1.9-.26,2.41.56.51.82.26,1.9-.56,2.41l-33.96,21.13c-.29.18-.61.26-.92.26ZM798.83,240.79c-.58,0-1.16-.29-1.49-.83-.51-.82-.26-1.9.56-2.41l33.96-21.13c.82-.51,1.9-.26,2.41.56.51.82.26,1.9-.56,2.41l-33.96,21.13c-.29.18-.61.26-.92.26ZM866.75,198.52c-.58,0-1.16-.29-1.49-.83-.51-.82-.26-1.9.56-2.41l33.96-21.13c.82-.51,1.9-.26,2.41.56.51.82.26,1.9-.56,2.41l-33.96,21.13c-.29.18-.61.26-.92.26Z" fill="#2b2b2b"/></svg>