<?xml version="1.0" encoding="UTF-8"?><svg id="_レイヤー_20" xmlns="http://www.w3.org/2000/svg" width="1000" height="600" viewBox="0 0 1000 600"><path d="M883.14,126.37l67.52,397.94H49.34L116.86,126.37h19.72l2.16,1.34c-1.39,1.94-3.13,3.92-5.19,5.4-1.6,1.13-3.38,1.96-5.34,2.22l-59.75,376.43,242.59-15.53s81.26-7.77,162.52,17.92h52.86c81.26-25.69,162.52-17.92,162.52-17.92l242.59,15.53-59.75-376.43c-1.96-.26-3.75-1.09-5.35-2.23-2.28-1.64-4.18-3.9-5.63-6.03l2.61-.7h19.72Z" fill="#7db8ea"/><path d="M871.79,135.33l59.75,376.43-242.59-15.53s-81.26-7.77-162.52,17.92h-9.76v-2.99c85.14-56.01,406.6-4.18,406.6-4.18l-58.55-371.65,1.72-2.23c1.6,1.14,3.39,1.97,5.35,2.23Z" fill="#fff"/><path d="M501.47,108.23c8.58-5.55,76.24-46.08,191.42-24.65,123.48,22.97,162.67,35.61,162.67,35.61l1.89,1.8s1.19,2.89,3.36,6.08c1.45,2.13,3.35,4.39,5.63,6.03l-1.72,2.23,58.55,371.65s-321.46-51.83-406.6,4.18v2.99h-16.82v-2.09l.69-403.21s.31-.22.93-.62ZM863.82,300.54l-22.11-159.53-103-21.27c-54.31-11.21-110.26-13.85-164.81-3.89l-41.7,9.62v172.09l40.69-9.64c55.19-13.06,112.41-15.12,168.4-6.05l122.53,18.67Z" fill="#fff"/><path d="M841.71,141.01l22.11,159.53-122.53-18.67c-55.99-9.07-113.21-7.01-168.4,6.05l-40.69,9.64V125.47l41.7-9.62c54.55-9.96,110.5-7.32,164.81,3.89l103,21.27ZM807.9,206.96c3.66-27.14-19.88-52.73-52.58-57.14-14.69-1.99-28.73.64-40.07,6.6-14.02-12.73-34.8-20.79-57.98-20.79-42.24,0-76.48,26.75-76.48,59.75s34.24,59.75,76.48,59.75c21.61,0,41.14-7,55.04-18.28,8.34,5.73,18.5,9.74,29.74,11.26,32.7,4.42,62.19-14.01,65.85-41.15Z" fill="#f9f0e4"/><path d="M755.32,149.82c32.7,4.41,56.24,30,52.58,57.14s-33.15,45.57-65.85,41.15c-11.24-1.52-21.4-5.53-29.74-11.26,13.28-10.73,21.44-25.36,21.44-41.47,0-14.89-6.97-28.51-18.5-38.96,11.34-5.96,25.38-8.59,40.07-6.6Z" fill="#7db8ea"/><path d="M715.25,156.42c11.53,10.45,18.5,24.07,18.5,38.96,0,16.11-8.16,30.74-21.44,41.47-15.93-10.92-25.24-28.06-22.84-45.88,2.02-14.95,11.87-27.25,25.78-34.55Z" fill="#7db85b"/><path d="M657.27,135.63c23.18,0,43.96,8.06,57.98,20.79-13.91,7.3-23.76,19.6-25.78,34.55-2.4,17.82,6.91,34.96,22.84,45.88-13.9,11.28-33.43,18.28-55.04,18.28-42.24,0-76.48-26.75-76.48-59.75s34.24-59.75,76.48-59.75Z" fill="#fcef56"/><path d="M142.55,120.99l1.89-1.8s39.43-13.15,163.71-37.05c119.72-23.02,188.43,22.7,193.32,26.09-.62.4-.93.62-.93.62l-.69,403.21v2.09h-14.55v-.79c-43.92-56.77-406.9-8.97-406.9-8.97l55.17-371.25-.02-.03c2.06-1.48,3.8-3.46,5.19-5.4,2.46-3.43,3.81-6.72,3.81-6.72ZM474.85,424.44l-39.36-135.48-97.65,101.83,137.01,33.65ZM295.89,252.14l8.96-146.09s-90.88,18.34-122.96,24.88l-20.14,4.1-15.54,136.83,36.47-4.02c29.26-3.23,113.21-15.7,113.21-15.7Z" fill="#fff"/><path d="M485.3,513.36v.79h-11.73c-81.26-25.69-162.52-17.92-162.52-17.92l-242.59,15.53,59.75-376.43c1.96-.26,3.74-1.09,5.34-2.22l.02.03-55.17,371.25s362.98-47.8,406.9,8.97Z" fill="#fff"/><polygon points="435.49 288.96 474.85 424.44 337.84 390.79 435.49 288.96" fill="#fcef56"/><path d="M304.85,106.05l-8.96,146.09s-83.95,12.47-113.21,15.7l-36.47,4.02,15.54-136.83,20.14-4.1c32.08-6.54,122.96-24.88,122.96-24.88Z" fill="#7db85b"/><path d="M526.43,515.9h-26.29c-.97,0-1.75-.78-1.75-1.75s.78-1.75,1.75-1.75h26.02c80.59-25.41,162.14-17.99,162.96-17.91l240.35,15.39-59.21-373.06c-1.65-.41-3.27-1.18-4.83-2.29-2.16-1.55-4.19-3.73-6.06-6.47-2.25-3.3-3.48-6.27-3.53-6.4-.37-.89.06-1.92.95-2.28.89-.37,1.92.06,2.29.95.01.03,1.16,2.78,3.19,5.76,1.64,2.4,3.39,4.29,5.21,5.59,1.5,1.07,3.03,1.71,4.56,1.92.77.1,1.38.7,1.5,1.46l59.75,376.43c.08.53-.08,1.06-.43,1.45-.36.39-.88.6-1.41.57l-242.59-15.53c-.86-.08-81.91-7.44-161.88,17.84-.17.05-.35.08-.53.08Z" fill="#2b2b2b"/><path d="M503.72,509.33c-.52,0-1.03-.23-1.37-.66-.6-.76-.48-1.86.28-2.46.45-.36,11.21-8.8,36.41-17.47,23.12-7.95,63.34-17.55,123.6-18.17,77.13-.76,228.18,22.66,248.9,25.94l-55.82-375.27c-.14-.96.52-1.85,1.47-1.99.97-.14,1.85.52,1.99,1.47l56.17,377.63c.08.55-.1,1.11-.5,1.5-.4.39-.96.57-1.51.48-1.68-.27-168.51-27.15-250.66-26.27-114.09,1.17-157.45,34.53-157.87,34.87-.32.25-.71.38-1.09.38Z" fill="#2b2b2b"/><path d="M950.66,527.31h-449.6c-1.66,0-3-1.34-3-3s1.34-3,3-3h446.05l-66.5-391.94h-17.19c-1.66,0-3-1.34-3-3s1.34-3,3-3h19.72c1.46,0,2.71,1.06,2.96,2.5l67.52,397.94c.15.87-.1,1.76-.67,2.44s-1.41,1.06-2.29,1.06Z" fill="#2b2b2b"/><path d="M499.86,515.9h-26.29c-.18,0-.36-.03-.53-.08-79.97-25.28-161.02-17.92-161.83-17.85l-242.64,15.53c-.53.05-1.05-.17-1.41-.57-.36-.39-.52-.93-.43-1.45l59.75-376.43c.12-.76.73-1.36,1.5-1.46,1.51-.2,3.05-.84,4.56-1.92,1.64-1.18,3.25-2.86,4.78-4.99,2.3-3.21,3.6-6.33,3.61-6.37.37-.89,1.39-1.32,2.28-.95.89.37,1.32,1.39.95,2.28-.06.14-1.46,3.52-4.01,7.08-1.75,2.44-3.63,4.39-5.59,5.8-1.58,1.11-3.19,1.88-4.83,2.28l-59.21,373.06,240.41-15.39c.76-.07,82.32-7.49,162.9,17.92h26.01c.97,0,1.75.78,1.75,1.75s-.78,1.75-1.74,1.75Z" fill="#2b2b2b"/><path d="M496.28,509.33c-.38,0-.77-.12-1.09-.38-.52-.41-43.91-33.7-157.87-34.87-82.22-.88-248.99,26-250.66,26.27-.55.09-1.11-.09-1.51-.48-.4-.39-.58-.95-.5-1.5l56.17-377.63c.14-.96,1.03-1.61,1.99-1.47.96.14,1.62,1.03,1.47,1.99l-55.82,375.27c20.72-3.28,171.78-26.74,248.9-25.94,60.26.62,100.48,10.22,123.6,18.17,25.2,8.66,35.97,17.11,36.41,17.47.76.6.88,1.7.28,2.46-.35.43-.86.66-1.37.66Z" fill="#2b2b2b"/><path d="M501.06,527.31H49.34c-.88,0-1.72-.39-2.29-1.06-.57-.67-.81-1.57-.67-2.44L113.9,125.87c.24-1.44,1.49-2.5,2.96-2.5h19.72c1.66,0,3,1.34,3,3s-1.34,3-3,3h-17.19l-66.5,391.94h448.17c1.66,0,3,1.34,3,3s-1.34,3-3,3Z" fill="#2b2b2b"/><path d="M499.85,513.81h0c-.97,0-1.75-.79-1.75-1.75l.69-403.21c0-.97.78-1.75,1.75-1.75h0c.97,0,1.75.79,1.75,1.75l-.69,403.21c0,.97-.78,1.75-1.75,1.75Z" fill="#2b2b2b"/><path d="M144.44,122.19c-1.26,0-2.43-.8-2.85-2.05-.52-1.57.33-3.27,1.9-3.79.4-.13,41.04-13.49,164.09-37.15,50.47-9.7,97.94-8.63,141.08,3.19,32.74,8.97,51.16,21.05,54.52,23.38.27.18.4.29.4.29,1.3,1.02,1.54,2.91.52,4.21-1.01,1.3-2.86,1.55-4.17.55l-.16-.11c-1.99-1.38-20.23-13.64-52.7-22.53-42.25-11.58-88.8-12.62-138.36-3.09-122.52,23.56-162.93,36.82-163.33,36.95-.31.11-.63.16-.95.16Z" fill="#2b2b2b"/><path d="M855.56,122.19c-.3,0-.61-.05-.92-.15-.39-.13-40.56-12.87-162.3-35.52-114.59-21.32-181.94,19.5-189.24,24.22-.52.34-.8.53-.83.55-1.35.95-3.22.63-4.18-.72-.96-1.35-.64-3.22.71-4.18,0,0,.35-.25,1.04-.69,7.5-4.85,76.72-46.82,193.59-25.08,122.25,22.74,162.65,35.58,163.04,35.7,1.58.51,2.44,2.2,1.93,3.78-.41,1.27-1.59,2.08-2.86,2.08Z" fill="#2b2b2b"/><path d="M485.3,515.11c-.52,0-1.04-.23-1.39-.68-42.81-55.33-401.67-8.78-405.29-8.31-.55.07-1.09-.12-1.48-.51-.39-.39-.56-.94-.48-1.48l55.17-371.25c.14-.96,1.03-1.61,1.99-1.47.96.14,1.62,1.03,1.47,1.99l-54.83,368.96c14.75-1.87,98.04-12.14,184.82-16.52,128.32-6.47,202.81,2.43,221.39,26.45.59.76.45,1.86-.31,2.45-.32.25-.7.37-1.07.37Z" fill="#2b2b2b"/><path d="M516.67,512.91c-.57,0-1.13-.28-1.46-.79-.53-.81-.31-1.89.5-2.42,35.63-23.44,115.14-31.31,236.3-23.38,81.4,5.33,155.14,16.39,169.16,18.56l-58.18-369.28c-.15-.96.5-1.85,1.46-2,.96-.15,1.85.5,2,1.46l58.55,371.65c.09.55-.1,1.12-.49,1.51-.4.4-.96.58-1.51.49-.8-.13-81.35-13.02-171.23-18.9-118.68-7.77-199.64.12-234.12,22.81-.3.2-.63.29-.96.29Z" fill="#2b2b2b"/><path d="M863.82,302.29c-.09,0-.18,0-.26-.02l-122.53-18.67c-56.05-9.08-112.48-7.05-167.73,6.02l-40.69,9.64c-.52.12-1.07,0-1.49-.33-.42-.33-.66-.84-.66-1.37V125.47c0-.81.56-1.52,1.36-1.71l41.7-9.62c51.69-9.44,107.37-8.13,165.56,3.88l103,21.27c.73.15,1.28.74,1.38,1.47l22.11,159.53c.08.55-.11,1.1-.5,1.49-.33.33-.77.5-1.23.5ZM672.14,274.53c23.14,0,46.31,1.87,69.43,5.61l120.19,18.31-21.62-155.98-101.79-21.02c-57.75-11.92-112.97-13.22-164.14-3.88l-40.26,9.29v168.48l38.54-9.13c32.91-7.79,66.24-11.69,99.66-11.69Z" fill="#2b2b2b"/><path d="M146.21,273.61c-.46,0-.91-.18-1.24-.51-.38-.38-.56-.9-.5-1.43l15.54-136.83c.09-.75.65-1.37,1.39-1.52l20.14-4.1c31.71-6.47,122.05-24.7,122.96-24.88.53-.1,1.09.04,1.5.4.41.36.63.88.6,1.43l-8.96,146.09c-.05.83-.67,1.5-1.49,1.62-.84.12-84.32,12.51-113.28,15.71l-36.47,4.02c-.06,0-.13.01-.19.01ZM163.35,136.49l-15.15,133.39,34.29-3.78c26.82-2.96,100.63-13.84,111.74-15.48l8.73-142.4c-14.18,2.86-91.81,18.53-120.72,24.43l-18.89,3.85ZM295.89,252.14h.01-.01Z" fill="#2b2b2b"/><path d="M471.86,130.21c-.21,0-.43-.04-.63-.12-55.64-21.67-141.59-6.05-142.45-5.89-.95.17-1.86-.45-2.04-1.4-.18-.95.45-1.86,1.4-2.04.87-.16,87.78-15.97,144.37,6.07.9.35,1.35,1.37,1,2.27-.27.69-.93,1.12-1.63,1.12Z" fill="#2b2b2b"/><path d="M470.64,161.28c-.21,0-.43-.04-.63-.12-55.65-21.68-141.58-6.04-142.44-5.88-.95.17-1.86-.45-2.04-1.4-.18-.95.45-1.86,1.4-2.04.87-.16,87.79-15.98,144.36,6.06.9.35,1.35,1.37,1,2.27-.27.69-.93,1.12-1.63,1.12Z" fill="#2b2b2b"/><path d="M471.83,193.55c-.21,0-.43-.04-.63-.12-55.64-21.67-141.58-6.05-142.44-5.89-.95.17-1.86-.45-2.04-1.4-.18-.95.45-1.86,1.4-2.04.87-.16,87.79-15.97,144.36,6.07.9.35,1.35,1.37,1,2.27-.27.69-.93,1.12-1.63,1.12Z" fill="#2b2b2b"/><path d="M161.15,320.22c-.86,0-1.61-.64-1.73-1.52-.13-.96.54-1.84,1.5-1.97l97.99-13.15c.96-.13,1.84.54,1.97,1.5s-.54,1.84-1.5,1.97l-97.99,13.15c-.08.01-.16.02-.24.02Z" fill="#2b2b2b"/><path d="M142.03,359.06c-.87,0-1.62-.65-1.73-1.53-.12-.96.56-1.83,1.52-1.95l172.08-21.51c.96-.13,1.83.56,1.95,1.52.12.96-.56,1.83-1.52,1.95l-172.08,21.51c-.07,0-.15.01-.22.01Z" fill="#2b2b2b"/><path d="M138.45,393.71c-.87,0-1.63-.65-1.73-1.54-.12-.96.57-1.83,1.53-1.95l176.86-21.51c.96-.12,1.83.57,1.95,1.53.12.96-.57,1.83-1.53,1.95l-176.86,21.51c-.07,0-.14.01-.21.01Z" fill="#2b2b2b"/><path d="M136.05,428.96c-.87,0-1.62-.65-1.73-1.53-.12-.96.56-1.83,1.52-1.96l180.45-22.7c.95-.13,1.83.56,1.95,1.52s-.56,1.83-1.52,1.96l-180.45,22.7c-.07,0-.15.01-.22.01Z" fill="#2b2b2b"/><path d="M866.66,339.6c-.21,0-.43-.04-.64-.12-96.96-38.19-261.81-27.57-326.85-10.89-.94.24-1.89-.33-2.13-1.26-.24-.94.32-1.89,1.26-2.13,26.67-6.84,81.74-14.94,149.17-15.26,50.98-.22,123.57,4.12,179.84,26.28.9.35,1.34,1.37.99,2.27-.27.69-.93,1.11-1.63,1.11Z" fill="#2b2b2b"/><path d="M868.87,374.82c-.21,0-.43-.04-.64-.12-96.96-38.19-261.81-27.57-326.85-10.89-.94.24-1.89-.33-2.13-1.26-.24-.94.32-1.89,1.26-2.13,26.67-6.84,81.74-14.94,149.17-15.26,50.98-.25,123.57,4.12,179.84,26.28.9.35,1.34,1.37.99,2.27-.27.69-.93,1.11-1.63,1.11Z" fill="#2b2b2b"/><path d="M868.87,410.04c-.21,0-.43-.04-.64-.12-96.96-38.19-261.81-27.57-326.85-10.89-.94.24-1.89-.33-2.13-1.26-.24-.94.32-1.89,1.26-2.13,26.67-6.84,81.74-14.94,149.17-15.26,50.98-.27,123.57,4.12,179.84,26.28.9.35,1.34,1.37.99,2.27-.27.69-.93,1.11-1.63,1.11Z" fill="#2b2b2b"/><path d="M874.24,445.26c-.21,0-.43-.04-.64-.12-96.95-38.19-261.8-27.57-326.84-10.89-.94.24-1.89-.33-2.13-1.26-.24-.94.32-1.89,1.26-2.13,26.67-6.84,81.74-14.94,149.17-15.26,50.98-.22,123.56,4.12,179.83,26.28.9.35,1.34,1.37.99,2.27-.27.69-.93,1.11-1.63,1.11Z" fill="#2b2b2b"/><path d="M657.27,256.88c-43.14,0-78.23-27.59-78.23-61.5s35.09-61.5,78.23-61.5c22.73,0,44.29,7.74,59.16,21.24,12.3,11.15,19.07,25.45,19.07,40.26,0,16.11-7.85,31.32-22.09,42.83-14.83,12.04-34.77,18.67-56.14,18.67ZM657.27,137.38c-41.21,0-74.73,26.02-74.73,58s33.52,58,74.73,58c20.57,0,39.72-6.35,53.94-17.89,13.41-10.83,20.79-25.08,20.79-40.11,0-13.81-6.37-27.19-17.92-37.66t0,0c-14.23-12.92-34.94-20.34-56.8-20.34Z" fill="#2b2b2b"/><path d="M751.77,250.52c-3.29,0-6.62-.22-9.96-.67-11.14-1.51-21.69-5.5-30.5-11.55h0c-17.19-11.78-26.01-29.56-23.58-47.56,2.02-14.95,11.75-28.02,26.7-35.87,12.05-6.33,26.65-8.74,41.12-6.78,33.6,4.53,57.86,31.05,54.08,59.11-1.84,13.65-9.95,25.61-22.84,33.66-10.15,6.34-22.32,9.66-35.02,9.66ZM745.71,150.92c-10.56,0-20.83,2.41-29.65,7.05-13.93,7.31-22.99,19.43-24.86,33.24-2.24,16.66,6.02,33.18,22.09,44.2,0,0,0,0,0,0,8.36,5.74,18.38,9.53,28.98,10.97,15.42,2.08,30.56-.93,42.65-8.49,11.99-7.49,19.53-18.56,21.23-31.16,3.53-26.15-19.39-50.9-51.08-55.17-3.13-.42-6.26-.63-9.37-.63Z" fill="#2b2b2b"/><path d="M474.85,426.19c-.14,0-.28-.02-.42-.05l-137.01-33.65c-.61-.15-1.09-.61-1.26-1.21-.17-.6-.02-1.25.42-1.7l97.65-101.83c.43-.45,1.07-.64,1.68-.49.61.15,1.09.61,1.26,1.21l39.36,135.48c.17.6.02,1.25-.42,1.7-.33.35-.79.54-1.26.54ZM341.2,389.81l131.12,32.2-37.67-129.66-93.45,97.45Z" fill="#2b2b2b"/></svg>