<?xml version="1.0" encoding="UTF-8"?><svg id="_レイヤー_17" xmlns="http://www.w3.org/2000/svg" width="1000" height="1600" viewBox="0 0 1000 1600"><path d="M113.27,1016.26s215.93,53.25,433.27,40.05l.12,2.22c-4.34,9.64-13.89,22.94-24.44,23.62-175.13,11.11-379.23-35.83-427.18-46.44-1.33-.29-2.36-1.05-3.02-2.02l-.89.02c-.05-1.19-.08-2.05-.1-2.55,0-.15,0-.27,0-.35h.12c0-1.49.67-3.01,2.1-4.03l19.3-10.14.73-.38Z" fill="#b24040"/><path d="M727.8,757.61c.74,21.72,1.64,38.05,2.22,47.3.31,5.09.52,8.04.56,8.58l33.02,526.3,5.56,90.49s.96,9.6-2.84,19.75c-4.33,11.62-14.85,23.96-40.06,23.6l-2.72-.42c16.97-16.62,13.28-45.22,13.28-45.22l-22.93-432.59-9.73-183.67c-.34-6.33-5.26-11.52-11.58-12.03-3.38-.28-6.7-.34-9.96-.2-2.8.12-5.55.39-8.25.8-.05-.74-.11-1.51-.16-2.31-4.26-68.29,9.19-376.56,38.2-499.32,2.73-11.58-5.26-22.94-17.09-24.23l-360.58-39.32c-60.95-13.15-97.99,274.85-65.75,536.94-3.83-.39-7.07-.35-9.84,0-10.48,1.35-14.08,7.3-16.86,12.46l.18-11.98-1.28-1.05c-2.25-.6-7,.2-7.78-.11-.09-.04-.13-.1-.1-.17,6.99-17.01-58.47-616.41,151.44-627.61,0,0,14.57,1.24,38.54,3.33,18.02,1.58,41.34,3.64,67.79,6.02,56.06,5.05,126.13,11.55,189.3,17.96,23.66,2.41,46.35,4.8,66.98,7.1,17.63,1.96,33.76,3.86,47.69,5.63,11.53,1.47,12.13,12.99,7.26,23.53-66.16,143.2-76.53,357.04-75.74,488.8.14,23.43.63,44.26,1.23,61.64Z" fill="#c74444"/><path d="M674.37,800.3c-88.23,13.38-122.79,176.06-122.79,176.06-15.37,6.94-36.31,11.65-57.04,14.84-37.18,5.72-74.92,6.78-112.41,3.67-35.3-2.92-91.41-5.16-142.82-11.36l2.98-198.99c2.78-5.16,6.38-11.11,16.86-12.46,2.77-.35,6.01-.39,9.84,0l405.22,25.93c.05.8.11,1.57.16,2.31Z" fill="#fff5f5"/><polygon points="152.72 1438.21 156.06 1255.4 439.39 1290.12 434.02 1489.04 152.72 1438.21" fill="#fff"/><path d="M631.58,1076.28c-2.03.48-4.25.17-6.61-1.45l-.18-1.8-.2-2.08h0s-3.84-39.7-3.84-39.7c.27-.41.55-.8.82-1.16,6.41-8.67,12.66-7.44,15.87-5.89.16.08.31.16.46.24,1.1.59,1.75.17,1.75.17l3.2,38.7s-.1,1.19-.25,1.51c-.86,1.78-4,7.85-8.54,10.45l-2.46.53-.02.48Z" fill="#c74444"/><path d="M682.18,75.92l-73.88-10.16c-.31-.05-.62.05-.84.27l-19.3,18.65c-.61.58-.27,1.6.56,1.72l73.88,10.16c.3.04.61-.06.83-.27l19.31-18.65c.6-.58.27-1.61-.56-1.72ZM585.85,53.33l133.52,18.37c2.37.33,3.31,3.23,1.6,4.89l-32.15,31.07-1.55,1.5c-.64.61-1.51.89-2.38.77l-133.52-18.37c-1.52-.21-2.46-1.48-2.48-2.81,0-.73.27-1.49.88-2.08l33.7-32.56c.63-.61,1.51-.9,2.38-.78Z" fill="#d9d9d9"/><path d="M731.64,804.81l-1.62.1c-.58-9.25-1.48-25.58-2.22-47.3,31.41-16.32,89.39,30.22,125.31,77.2l.06-.03c52.93,116.91,103.35,309.8,21.71,515.21-4.66,11.73-9.82,23.25-16.02,33.95-11.64,20.15-26.94,37.33-49.41,47.38l-42.42,18.95-.71-.24c3.8-10.15,2.84-19.75,2.84-19.75l-5.56-90.49,1.05-.06c86.21-76.38,66.52-433.93-33.01-534.92Z" fill="#fff5f5"/><path d="M624.59,1070.94h0s-.77.08-.77.08c-35.24,8.72-46.39,15.23-68.58,20.58l-2.59.02-.39-42.15h1.82c15.92-5.75,64.06-18.64,65.68-19.24l1.81-.14c-.27.36-.55.75-.82,1.16l3.84,39.69Z" fill="#c74444"/><path d="M233.33,771.69l.08-.31c.78.31,5.53-.49,7.78.11l1.28,1.05-.18,11.98-2.98,198.99c-9.79-1.18-19.4-2.5-28.68-4-100.16-16.17-100.69-40.08-100.69-40.08-7.61-134.9,92.7-162.47,123.39-167.74Z" fill="#c74444"/><path d="M626.24,1161.73l5.34-85.45c.87-.2,1.69-.55,2.48-1.01l16.87-3.65,5.45,52.35,14.78,21.84-8.72,22.1-36.2-6.18Z" fill="#d9d9d9"/><path d="M692.95,123.31c19.29,7.36,47.93,23.39,54.67,52.36l-.26,2.34c-20.63-2.3-43.32-4.69-66.98-7.1l.02-.17c-88.73-78.43-189.11-20.17-189.11-20.17l-.21,2.38c-26.45-2.38-49.77-4.44-67.79-6.02l.18-2.03c37.75-46.64,85.62-49.18,106.13-49.28,4.67-.02,9.23-1.25,13.27-3.58l5.67-3.28h.35c.02,1.32.96,2.59,2.48,2.8l133.52,18.37c.87.12,1.74-.16,2.38-.77l1.55-1.5.45.46-1.03,1.73c-2.95,4.98-.7,11.4,4.71,13.46Z" fill="#c74444"/><path d="M439.39,1290.12l-283.33-34.72-3.34,182.81,281.3,50.83,5.37-198.92ZM497.88,1191.12s40.6,2.42,44.82,39.53l4.87,313.21.24,2.36c-15.37,1.01-39.97.94-68.38-5.46l-58.64-10.77-248.97-44.72-48.71-11.83c-3.13-.57-6.21-1.34-9.21-2.33-.12-.03-.22-.07-.33-.1-16.99-5.62-28.39-21.61-28.65-39.5l-2.74-221.04c-.71-18.73,13.31-37.95,13.31-37.95l.87-.53c13.65-18.17,37.1-24.95,81.77-19.29l319.75,38.42Z" fill="#c74444"/><path d="M695.32,274.44c11.83,1.29,19.82,12.65,17.09,24.23-29.01,122.76-42.46,431.03-38.2,499.32l-405.22-25.93c-32.24-262.09,4.8-550.09,65.75-536.94l360.58,39.32Z" fill="#fff5f5"/><path d="M853.11,834.81c-35.92-46.98-93.9-93.52-125.31-77.2-.6-17.38-1.09-38.21-1.23-61.64l2.67-.02c28.68.6,64.7,34.07,81.62,59.7,1.82,2.87,3.7,5.89,5.63,9.07,5.94,9.77,12.33,21,18.92,33.59,5.83,11.13,11.81,23.32,17.76,36.47l-.06.03Z" fill="#c74444"/><path d="M713.89,995.4l22.93,432.59s3.69,28.6-13.28,45.22c-3.55,3.49-8.03,6.45-13.63,8.5l-145.3,62.59s-6.2,1.22-16.8,1.92l-.24-2.36-4.87-313.21c-4.22-37.11-44.82-39.53-44.82-39.53l-319.75-38.42c-44.67-5.66-68.12,1.12-81.77,19.29l-.81-.62c-.94-43.71-3.81-121.37-4.42-137.66l.89-.02c.66.97,1.69,1.73,3.02,2.02,47.95,10.61,252.05,57.55,427.18,46.44,10.55-.68,20.1-13.98,24.44-23.62l-.12-2.22c-217.34,13.2-433.27-40.05-433.27-40.05-5.72-37.14-3.33-76.83-3.33-76.83,0,0,.53,23.91,100.69,40.08,9.28,1.5,18.89,2.82,28.68,4,51.41,6.2,107.52,8.44,142.82,11.36,37.49,3.11,75.23,2.05,112.41-3.67,20.73-3.19,41.67-7.9,57.04-14.84l.68,73.11.39,42.15,2.59-.02c22.19-5.35,33.34-11.86,68.58-20.58l.77-.07.2,2.08.18,1.8c2.36,1.62,4.58,1.93,6.61,1.45l-5.34,85.45,36.2,6.18,8.72-22.1-14.78-21.84-5.45-52.35-16.87,3.65c4.54-2.6,7.68-8.67,8.54-10.45.15-.32.25-1.51.25-1.51l-3.2-38.7s-.65.42-1.75-.17c-.15-.08-.3-.16-.46-.24h2.55s71.54-28.68,71.54-28.68l2.36-.12Z" fill="#c74444"/><path d="M704.16,811.73l9.73,183.67-2.36.12-71.54,28.67h-2.55c-3.21-1.54-9.46-2.77-15.87,5.9l-1.81.14c-1.62.6-49.76,13.49-65.68,19.23h-1.82s-.68-73.1-.68-73.1c0,0,34.56-162.68,122.79-176.06,2.7-.41,5.45-.68,8.25-.8,3.26-.14,6.58-.08,9.96.2,6.32.51,11.24,5.7,11.58,12.03Z" fill="#c74444"/><path d="M639.99,1027.19c-1.19,0-2.32-.71-2.79-1.88-.62-1.54.13-3.28,1.67-3.9l71.54-28.67c1.54-.62,3.28.13,3.9,1.67s-.13,3.28-1.67,3.9l-71.54,28.67c-.37.15-.74.22-1.12.22Z" fill="#2b2b2b"/><path d="M554.08,1052.46c-1.23,0-2.38-.76-2.82-1.98-.56-1.56.25-3.28,1.8-3.84,12.01-4.33,42.44-12.76,57.07-16.81,4.36-1.21,8.12-2.25,8.63-2.42,1.55-.52,3.26.29,3.81,1.83.55,1.55-.23,3.24-1.76,3.8-.48.18-2.15.64-9.07,2.56-14.55,4.03-44.83,12.42-56.63,16.68-.34.12-.68.18-1.02.18Z" fill="#2b2b2b"/><path d="M643.11,1066.95c-1.22,0-2.37-.75-2.82-1.96-.57-1.56.22-3.28,1.78-3.85l68.97-25.37c1.55-.57,3.28.22,3.85,1.78.57,1.56-.22,3.28-1.78,3.85l-68.97,25.37c-.34.13-.69.19-1.04.19Z" fill="#2b2b2b"/><path d="M555.24,1094.6c-1.35,0-2.58-.92-2.91-2.3-.39-1.61.6-3.23,2.21-3.62,9.86-2.38,17.44-4.96,26.21-7.96,10.71-3.66,22.86-7.8,42.35-12.62,1.61-.4,3.23.58,3.63,2.19s-.58,3.24-2.19,3.63c-19.24,4.76-31.25,8.86-41.85,12.47-8.92,3.04-16.61,5.67-26.75,8.11-.24.06-.47.08-.71.08Z" fill="#2b2b2b"/><path d="M767.03,1453.27c-1.15,0-2.24-.66-2.74-1.78-.68-1.51,0-3.29,1.52-3.96l42.42-18.95c19.4-8.68,35.11-23.77,48.04-46.14,5.42-9.36,10.45-20.02,15.83-33.56,85.64-215.47,23.19-413.81-21.65-512.87-5.63-12.44-11.58-24.66-17.68-36.32-6.15-11.74-12.48-22.99-18.83-33.42-1.81-2.99-3.65-5.94-5.6-9.02-15.28-23.14-51.03-57.72-79.15-58.31-1.66-.03-2.97-1.41-2.94-3.06.04-1.66,1.41-2.96,3.06-2.94,30.61.64,67.58,36.08,84.06,61.05,2.01,3.16,3.86,6.15,5.69,9.17,6.41,10.54,12.81,21.9,19.01,33.75,6.16,11.76,12.16,24.08,17.84,36.62,22.73,50.21,51.86,130.06,61.57,225.35,10.33,101.44-3.06,199.75-39.81,292.21-5.49,13.81-10.64,24.73-16.21,34.35-13.58,23.5-30.19,39.4-50.78,48.61l-42.42,18.95c-.4.18-.81.26-1.22.26Z" fill="#2b2b2b"/><path d="M764.65,1342.73c-.83,0-1.65-.34-2.25-1.01-1.1-1.24-.98-3.14.26-4.23,30.71-27.2,50.07-94.53,53.12-184.71,2.24-66.13-4.56-136.82-19.13-199.06-15.81-67.51-39.03-118.27-67.14-146.8-1.16-1.18-1.15-3.08.03-4.24s3.08-1.15,4.24.03c63.38,64.31,92.24,224.89,88,350.28-3.11,91.82-23.2,160.7-55.14,189-.57.51-1.28.75-1.99.75Z" fill="#2b2b2b"/><path d="M853.11,837.81c-.9,0-1.79-.41-2.39-1.18-37.53-49.08-93.25-91.06-121.54-76.36l-.4.2c-1.49.74-3.28.13-4.02-1.35-.74-1.48-.13-3.28,1.35-4.02l.35-.18c15.39-8,37.53-2.8,63.98,15.06,22.17,14.97,45.88,37.93,65.05,63,1.01,1.32.75,3.2-.56,4.21-.54.42-1.18.62-1.82.62Z" fill="#2b2b2b"/><path d="M423.2,999.58c-13.7,0-27.48-.57-41.32-1.72-11.32-.94-25.05-1.82-39.58-2.75-32.05-2.06-68.38-4.4-103.35-8.62-10.29-1.24-19.98-2.59-28.8-4.02-98.94-15.97-103.09-39.88-103.21-42.91-7.72-137.14,94.4-165.43,125.88-170.83,1.63-.28,3.18.82,3.46,2.45.28,1.63-.82,3.18-2.45,3.46-30.25,5.19-128.35,32.41-120.9,164.59.12.7,4.87,22.25,98.17,37.31,8.74,1.41,18.35,2.75,28.56,3.98,34.81,4.2,71.04,6.53,103.02,8.59,14.56.94,28.32,1.82,39.69,2.76,37.94,3.15,75.52,1.92,111.71-3.64,24.06-3.7,42.99-8.62,56.26-14.61,1.51-.68,3.29,0,3.97,1.5s.01,3.29-1.5,3.97c-13.76,6.21-33.22,11.28-57.82,15.07-23.45,3.61-47.47,5.42-71.8,5.42ZM112.94,939.36h0ZM112.94,939.31s0,0,0,0h0ZM112.93,939.24s0,0,0,.01c0,.02,0,.04,0,.04,0-.02,0-.04,0-.06Z" fill="#2b2b2b"/><path d="M629.82,1079.49c-2.23,0-4.42-.73-6.55-2.19-.73-.5-1.2-1.3-1.29-2.17l-.38-3.89s0-.05,0-.07l-3.83-39.62c-.07-.68.1-1.37.48-1.94.3-.46.62-.9.92-1.3,8-10.81,16.36-8.36,19.58-6.8.12.06.23.12.33.17.64-.12,1.3-.04,1.9.25.95.46,1.58,1.39,1.67,2.44l3.2,38.7c.01.17.01.33,0,.5-.15,1.72-.41,2.29-.52,2.53-1.25,2.6-4.68,8.87-9.77,11.78-1.09.63-2.17,1.07-3.3,1.33-.81.19-1.63.29-2.43.29ZM627.8,1073.01c1.05.49,2.05.6,3.09.35.55-.13,1.09-.35,1.66-.68,3.58-2.05,6.31-7.06,7.23-8.92.02-.13.04-.31.06-.47l-2.98-36.02c-.12-.06-.25-.12-.38-.19-.12-.07-.25-.13-.38-.2-4.11-1.99-8.2-.31-12.12,4.99,0,0,0,.01-.01.02-.04.06-.09.11-.13.17l3.73,38.59s0,.05,0,.08l.22,2.28ZM639.75,1063.9h0ZM621.57,1030.09h0,0ZM638.02,1022.09s0,0,0,0c0,0,0,0,0,0ZM638.03,1022.08s0,0,0,0h0Z" fill="#2b2b2b"/><path d="M662.44,1170.91c-.17,0-.34-.01-.51-.04l-36.2-6.18c-1.51-.26-2.58-1.61-2.49-3.14l5.36-85.87c.06-1.37,1.03-2.52,2.37-2.81l19.33-4.18c.83-.18,1.7,0,2.39.5.69.5,1.14,1.27,1.22,2.12l5.37,51.6,14.36,21.22c.56.82.67,1.86.31,2.78l-8.72,22.1c-.46,1.16-1.58,1.9-2.79,1.9ZM629.4,1159.22l31.14,5.32,7.25-18.36-13.89-20.53c-.28-.41-.45-.88-.5-1.37l-5.1-49.02-13.6,2.94h0l-.23.05-5.06,80.97ZM634.06,1075.27h0,0Z" fill="#2b2b2b"/><path d="M239.31,985.28h-.01c-.96,0-1.74-.77-1.74-1.73v-.04l3.16-211c.01-.97.82-1.74,1.78-1.72.97.01,1.74.81,1.72,1.78l-3.16,210.97c-.01.96-.79,1.74-1.75,1.74Z" fill="#2b2b2b"/><path d="M727.33,1476.63c-.37,0-.74,0-1.12,0-1.66-.02-2.98-1.39-2.96-3.04.02-1.66,1.39-2.95,3.04-2.96.35,0,.7,0,1.04,0,18.64,0,30.81-7.28,36.16-21.66,3.49-9.33,2.67-18.32,2.67-18.41,0-.04,0-.08,0-.11l-5.56-90.49-33.02-526.3c-.04-.51-.25-3.47-.56-8.58-.5-7.94-1.45-24.67-2.22-47.38-.69-20.07-1.11-40.83-1.23-61.72-.52-86.14,3.79-167.05,12.79-240.49,12.48-101.8,33.75-185.77,63.23-249.58,2.83-6.12,3.39-12.07,1.47-15.53-1.18-2.13-3.27-3.37-6.39-3.76-13.63-1.73-29.66-3.62-47.64-5.62-19.36-2.16-41.26-4.48-66.95-7.1-52.86-5.36-116.54-11.41-189.27-17.96-22.36-2.01-45.17-4.04-67.78-6.02-22.3-1.95-36.47-3.15-38.32-3.31-73.46,4.06-121.05,83.38-141.47,235.77-16.77,125.11-10.88,265.08-7.72,340.28,1.1,26.15,1.61,39.41,1.23,45.67,1.76-.1,3.72-.13,5.23.27,1.6.43,2.55,2.07,2.13,3.67s-2.07,2.55-3.67,2.13c-.86-.23-3.01-.1-4.3-.02-1.85.11-2.87.17-3.81-.2-.04-.01-.07-.03-.11-.04-1.57-.7-2.3-2.45-1.68-4.01.86-2.86,0-23.41-1-47.2-3.17-75.38-9.07-215.69,7.77-341.33,20.88-155.8,70.44-236.87,147.31-240.97.14,0,.28,0,.41,0,0,0,14.57,1.24,38.55,3.33,22.62,1.98,45.43,4.01,67.8,6.02,72.75,6.55,136.45,12.6,189.33,17.96,25.72,2.62,47.64,4.94,67.01,7.1,18.01,2,34.07,3.9,47.74,5.64,6.32.81,9.41,4.15,10.88,6.81,2.91,5.26,2.45,12.9-1.28,20.95-67.33,145.73-76.18,368-75.46,487.52.12,20.83.54,41.54,1.23,61.55.77,22.64,1.72,39.3,2.22,47.22.31,5.07.52,8.01.56,8.55l33.02,526.33,5.56,90.45c.09.97.85,10.68-3.02,21.03-4.36,11.71-15.16,25.56-41.8,25.56ZM236.19,772.06c-.03.1-.07.2-.1.29.04-.09.08-.19.1-.29Z" fill="#2b2b2b"/><path d="M532.91,1549.7c-14.73,0-33.41-1.35-54.08-6l-58.58-10.76-248.96-44.72c-.06-.01-.12-.02-.18-.04l-48.63-11.81c-3.26-.6-6.44-1.4-9.45-2.39-.09-.03-.17-.05-.26-.08-.05-.01-.1-.03-.15-.05-18.09-5.98-30.43-22.98-30.71-42.3l-2.74-221.05c-.74-19.47,13.29-38.94,13.89-39.75.98-1.34,2.85-1.63,4.19-.66,1.34.97,1.63,2.85.66,4.19-.13.18-13.4,18.63-12.74,36.07l2.74,221.12c.24,16.74,10.91,31.48,26.54,36.67.06.02.13.04.19.06.07.02.12.04.19.06,2.79.92,5.76,1.67,8.81,2.23.06,0,.11.02.17.04l48.62,11.81,248.88,44.7,58.65,10.77s.08.01.12.02c27.92,6.29,52.13,6.41,67.52,5.39,8.97-.59,14.77-1.57,16.12-1.82l144.99-62.46c.05-.02.1-.04.16-.06,4.87-1.78,9.09-4.41,12.56-7.82,15.68-15.36,12.44-42.43,12.41-42.7,0-.07-.02-.15-.02-.22l-22.93-432.59-9.73-183.67c-.26-4.86-4.06-8.81-8.83-9.2-3.19-.26-6.41-.33-9.59-.19-2.64.11-5.31.37-7.93.77-44.23,6.71-74.54,53.33-92.17,91.25-18.42,39.62-27.22,78.29-28.07,82.15l1.07,114.92,4.09,444.99c.02,1.66-1.32,3.01-2.97,3.03h-.03c-1.64,0-2.98-1.33-3-2.97l-4.09-444.99-1.07-115.26c0-.22.02-.44.07-.65.09-.41,8.94-41.49,28.52-83.65,11.55-24.86,24.53-45.27,38.58-60.65,17.78-19.47,37.35-30.94,58.17-34.1,2.83-.43,5.71-.71,8.57-.83,3.42-.15,6.9-.08,10.34.21,7.74.62,13.91,7.01,14.33,14.86l9.73,183.67,22.92,432.49c.29,2.37,3.27,30.54-14.17,47.63-4.06,3.99-8.98,7.07-14.62,9.14l-145.23,62.56c-.2.08-.4.15-.61.19-.26.05-6.51,1.27-17.18,1.97-4.38.29-9.44.49-15.1.49Z" fill="#2b2b2b"/><path d="M523.1,1543.44c-.96,0-1.74-.77-1.75-1.74l-2.14-280.86c-.15-19.92-15.18-36.77-34.95-39.2l-333.49-40.84c-22.81-2.79-61.67,8.58-66.56,29.41-.22.94-1.16,1.52-2.1,1.3-.94-.22-1.52-1.16-1.3-2.1,5.39-22.96,45.79-35.09,70.4-32.09l333.49,40.84c21.51,2.64,37.86,20.97,38.03,42.64l2.14,280.86c0,.97-.77,1.76-1.74,1.76h-.01Z" fill="#2b2b2b"/><path d="M547.57,1545.61c-.95,0-1.73-.77-1.75-1.72l-4.87-313.12c-4.05-35.11-41.58-37.8-43.18-37.9-.03,0-.07,0-.1,0l-319.75-38.42c-42.36-5.37-66.33.2-80.16,18.6-.58.77-1.68.93-2.45.35-.77-.58-.93-1.68-.35-2.45,14.68-19.55,39.62-25.52,83.39-19.98l319.7,38.41c1.86.14,42.13,3.63,46.39,41.08,0,.06.01.11.01.17l4.87,313.21c.01.97-.76,1.76-1.72,1.78h-.03Z" fill="#2b2b2b"/><path d="M466.42,1085.59c-59.29,0-125.79-5.26-198.5-15.73-77.49-11.16-141.24-25.33-168.47-31.38l-4.79-1.06c-1.68-.37-3.13-1.34-4.09-2.74-.54-.8-.34-1.89.46-2.43.8-.54,1.89-.34,2.43.46.32.47.91,1.07,1.95,1.29l4.8,1.07c167.43,37.22,309.38,52.47,421.89,45.34,9.04-.58,18.24-12.12,22.96-22.59.4-.88,1.43-1.28,2.31-.88.88.4,1.27,1.43.88,2.31-3.96,8.79-13.87,23.87-25.92,24.65-17.84,1.13-36.49,1.7-55.91,1.7Z" fill="#2b2b2b"/><path d="M91.15,1034.17c-1.54,0-2.85-1.19-2.99-2.75-.02-.2-.02-.41-.02-.6,0-2.59,1.22-4.95,3.36-6.47.11-.08.23-.15.35-.21l19.3-10.14c1.47-.77,3.28-.21,4.05,1.26.77,1.47.21,3.28-1.26,4.05l-19.08,10.03c-.62.51-.71,1.14-.71,1.49v.11c.15,1.65-1.07,3.09-2.72,3.23-.09,0-.18.01-.26.01Z" fill="#2b2b2b"/><path d="M475.6,1060.13c-87.13,0-169.04-8.78-227.45-17.17-80.31-11.54-134.76-24.88-135.3-25.01-.94-.23-1.51-1.18-1.28-2.12s1.18-1.5,2.12-1.28c.54.13,54.86,13.43,135.01,24.95,73.95,10.62,185.63,21.86,297.74,15.05l1.15-.08c.96-.07,1.8.65,1.88,1.61s-.65,1.8-1.61,1.88l-1.17.08c-23.83,1.45-47.64,2.08-71.07,2.08Z" fill="#2b2b2b"/><path d="M542.7,1232.4c-.9,0-1.66-.69-1.74-1.6l-12.73-147.2c-.08-.96.63-1.81,1.59-1.89.97-.09,1.81.63,1.89,1.59l12.73,147.2c.08.96-.63,1.81-1.59,1.89-.05,0-.1,0-.15,0Z" fill="#2b2b2b"/><path d="M95.55,1174.37c-1.63,0-2.96-1.3-3-2.94-.95-43.97-3.85-122.35-4.42-137.61l-.1-2.54s0-.08,0-.12v-.1s0-.06,0-.08c-.02-.22-.01-.32-.01-.32h6v-.13c0,.08.01.21.01.29,0,.08,0,.17,0,.28l.1,2.49c.57,15.29,3.48,93.7,4.42,137.72.04,1.66-1.28,3.03-2.94,3.06-.02,0-.04,0-.07,0Z" fill="#2b2b2b"/><path d="M113.27,1019.26c-1.46,0-2.73-1.06-2.96-2.54-5.7-37.03-3.38-77.07-3.36-77.47.1-1.65,1.51-2.91,3.17-2.81,1.65.1,2.91,1.52,2.81,3.17-.02.39-2.3,39.81,3.3,76.19.25,1.64-.87,3.17-2.51,3.42-.15.02-.31.04-.46.04Z" fill="#2b2b2b"/><path d="M678.07,799.99s-.08,0-.11,0l-3.86-.25-405.22-25.93c-3.55-.36-6.73-.36-9.51,0-10.01,1.29-13.21,7.22-15.54,11.55-.08.17-.19.37-.31.58-.49.83-1.56,1.11-2.4.62-.83-.49-1.11-1.56-.62-2.4.08-.13.15-.27.22-.41,3.25-6.04,7.32-12.01,18.2-13.41,3.05-.39,6.49-.39,10.24,0l405.15,25.92,3.86.25c.96.06,1.7.89,1.63,1.86-.06.93-.83,1.64-1.74,1.64Z" fill="#2b2b2b"/><path d="M435.71,1491.12l-2.01-.36-282.77-51.09,3.4-186.24,286.84,35.15-5.47,202.55ZM154.5,1436.75l277.83,50.2,5.27-195.29-279.82-34.29-3.28,179.38Z" fill="#2b2b2b"/><path d="M685.29,112.96c-.27,0-.54-.02-.81-.05l-133.52-18.37c-2.9-.4-5.03-2.81-5.07-5.74-.02-1.6.63-3.16,1.79-4.28l33.7-32.56c1.28-1.24,3.11-1.84,4.87-1.59l133.52,18.37c2.24.31,4.07,1.84,4.77,3.98.7,2.15.13,4.46-1.49,6.03l-33.7,32.57c-1.12,1.07-2.56,1.64-4.07,1.64ZM552.06,88.62l133.18,18.32,1.49-1.45s0,0,0,0l31.94-30.87-133.17-18.32-33.45,32.32Z" fill="#2b2b2b"/><path d="M423.47,147.9c-.66,0-1.33-.22-1.89-.67-1.29-1.04-1.49-2.93-.44-4.22,16.65-20.57,37.14-35.05,60.91-43.05,19.22-6.47,36.34-7.29,47.54-7.34,4.14-.02,8.21-1.12,11.79-3.18l5.67-3.28c1.43-.83,3.27-.34,4.1,1.09.83,1.43.34,3.27-1.09,4.1l-5.67,3.28c-4.48,2.58-9.58,3.96-14.76,3.98-16.1.08-65.08.32-103.81,48.17-.59.73-1.46,1.11-2.33,1.11Z" fill="#2b2b2b"/><path d="M747.62,178.67c-1.36,0-2.6-.94-2.92-2.32-6.68-28.73-35.96-43.8-52.82-50.24-3.41-1.3-6.05-4.02-7.26-7.46-1.2-3.43-.82-7.2,1.03-10.34l1.03-1.74c.85-1.42,2.69-1.89,4.11-1.04,1.42.85,1.89,2.69,1.04,4.11l-1.03,1.73c-.95,1.6-1.14,3.53-.53,5.29.62,1.76,1.98,3.16,3.73,3.83,17.97,6.86,49.21,23.05,56.52,54.48.38,1.61-.63,3.23-2.24,3.6-.23.05-.46.08-.68.08Z" fill="#2b2b2b"/><path d="M680.4,173.74c-.71,0-1.42-.25-1.99-.75-44.99-39.77-93.05-43.04-125.45-38.77-35.18,4.63-59.92,18.8-60.17,18.95-1.43.83-3.27.34-4.1-1.09-.83-1.43-.34-3.27,1.09-4.1,1.05-.61,26.03-14.92,62.4-19.71,33.63-4.43,83.53-1.04,130.21,40.22,1.24,1.1,1.36,2.99.26,4.24-.59.67-1.42,1.01-2.25,1.01Z" fill="#2b2b2b"/><path d="M662.72,98.32c-.12,0-.24,0-.36-.02,0,0,0,0,0,0l-73.88-10.16c-1.07-.15-1.93-.88-2.25-1.9-.32-1.01-.04-2.09.73-2.82l19.29-18.64c.6-.59,1.47-.88,2.33-.74l73.84,10.15c1.04.14,1.9.85,2.24,1.86.33,1.02.07,2.11-.7,2.85l-19.31,18.65c-.52.5-1.22.77-1.92.77ZM590.48,84.87l72,9.9,17.95-17.33-72.01-9.9-17.94,17.33ZM589.38,85.93h0s0,0,0,0ZM681.94,77.65h0,0ZM608.06,67.49s.02,0,.03,0h-.03ZM608.7,67.27l-.02.02s.01-.01.02-.02Z" fill="#2b2b2b"/><path d="M674.37,802.05c-.91,0-1.68-.71-1.74-1.63l-.06-.85c-.03-.48-.07-.97-.1-1.47-2.27-36.33.58-134.97,6.62-229.45,4.47-69.93,14.53-198.05,31.62-270.38,1.19-5.04.16-10.36-2.83-14.58-2.98-4.21-7.62-6.94-12.75-7.5l-360.58-39.32c-.06,0-.12-.02-.18-.03-6.1-1.31-12.15.72-17.99,6.05-23.08,21.09-42.37,93.46-51.6,193.58-9.61,104.31-7.45,226.56,5.94,335.38.12.96-.56,1.83-1.52,1.95-.97.12-1.83-.57-1.95-1.52-13.42-109.06-15.59-231.58-5.95-336.13,9.44-102.47,28.66-173.85,52.72-195.84,6.69-6.12,13.76-8.44,20.99-6.91l360.49,39.31c6.12.67,11.67,3.93,15.23,8.96,3.56,5.04,4.8,11.39,3.38,17.41-29.53,124.94-42.11,435.36-38.16,498.81.03.49.07.97.1,1.44l.06.86c.07.96-.66,1.8-1.63,1.87-.04,0-.08,0-.12,0Z" fill="#2b2b2b"/></svg>