<?xml version="1.0" encoding="UTF-8"?><svg id="_レイヤー_33" xmlns="http://www.w3.org/2000/svg" width="1000" height="1000" viewBox="0 0 1000 1000"><path d="M914.54,440.46l.73,21.2c-18.75,79.64-141.86,83.36-141.86,83.36l-79.77,57.04c-3.99,2.12-7.61,4.86-10.71,7.63l-4.29-4.93,105.14-91.51,8.97-4.4.07.14s48.93,15.96,99.98-27.65c1.79-1.53,3.44-3.07,4.97-4.61,12-12.13,16.04-24.6,15.68-36.23l1.09-.04Z" fill="#e2e2e2"/><path d="M913.45,440.5c.36,11.63-3.68,24.1-15.68,36.23l-.18-.18c7.97-22.33-.8-35.89-.8-35.89-42.28-74.19-146.78-63.82-146.78-63.82l-1.84-.96,3.85-7.35c8.27-5.33,15.78-10.88,22.59-16.6l.54.65c76.98,1.2,109.14,35.16,109.14,35.16,0,0,28.28,23.74,29.16,52.76Z" fill="#e2e2e2"/><path d="M896.79,440.66s8.77,13.56.8,35.89l.18.18c-1.53,1.54-3.18,3.08-4.97,4.61-51.05,43.61-99.98,27.65-99.98,27.65l-.07-.14-13.27-27.06c4.24-2.07,24.76-13.12,17.59-29.97-7.97-18.74-38.29-17.55-38.29-17.55l-2.11,1.04-19.16-39.06,10.66-20.37,1.84.96s104.5-10.37,146.78,63.82Z" fill="#e2e2e2"/><path d="M853.45,760.14s17.55,35.09-6.39,62.22c-23.93,27.12-124.44,86.15-124.44,86.15-39.08,33.5-63.81,7.97-63.81,7.97,0,0-5.7-3.32-15.96-9.3,0,0,18.35,5.18,21.54,4.78,3.19-.39,36.69-2.39,37.49-32.7.16-6.16,3.73-15.58,9.45-26.73,22.45-43.73,78.03-114.17,91.06-119.25,16.36-6.38,11.97-23.13,11.97-23.13l6.23-2.84c5.24,10.99,8.92,28.89,8.92,28.89,10.37,3.99,23.94,23.94,23.94,23.94Z" fill="#e2e2e2"/><path d="M727.89,396.26c.22,5.92-1.18,13.34-5.8,22.33-14.36,27.92-86.42,119.78-86.42,119.78,0,0-17.55,17.95-7.18,39.49,7.4,15.35,43.35,44.14,43.35,44.14l99.18,42.41,19.14,9.57c19.15,9.58,26.59,27.13,26.59,27.13,1.35,1.5,2.64,3.66,3.84,6.2l-6.23,2.84s4.39,16.75-11.97,23.13c-13.03,5.08-68.61,75.52-91.06,119.25l-10.8-5.14c-118.59-26.59-584.98-321.21-584.98-321.21l-11.47-3.38c15.15-28.05,40.54-74.95,57.49-105.68,25.53-46.26,79.77-27.12,79.77-27.12,0,0,115.14,69,143.85,71.4,28.72,2.39,49.46-12.77,49.46-12.77l88.95-160.89s-30.79-87.33,32.26-161.42c39.48-46.39,106.36-67.14,187.02-40.03,18.23,6.12,33.24,15.35,45.51,25.74,43.07,36.48,59.83,95.07,45,149.53-7.88,28.91-24.65,61.71-58.78,90.37-6.81,5.72-14.32,11.27-22.59,16.6l-3.85,7.35-10.66,20.37h-9.62ZM760.75,283.32c38.31-60.65,34.23-138.36-19.65-171.69-55.37-34.25-140.93-15.03-179.48,45.46-42.19,66.2-24.79,138.06,30.2,172.92s130.62,13.95,168.93-46.69Z" fill="#e2e2e2"/><path d="M678.64,604.76l4.29,4.93c-6.82,6.09-11.09,12.31-11.09,12.31,0,0-35.95-28.79-43.35-44.14-10.37-21.54,7.18-39.49,7.18-39.49,0,0,72.06-91.86,86.42-119.78,4.62-8.99,6.02-16.41,5.8-22.33h9.62s19.16,39.05,19.16,39.05l22.81,46.48,13.27,27.06-8.97,4.4-105.14,91.51ZM753.78,506.91c7.85-7.86,8.67-19.78,1.81-26.64s-18.77-6.04-26.63,1.82c-7.86,7.86-8.67,19.78-1.82,26.64,6.86,6.85,18.78,6.04,26.64-1.82Z" fill="#e2e2e2"/><path d="M741.1,111.63c53.88,33.33,57.96,111.04,19.65,171.69-38.31,60.64-113.94,81.55-168.93,46.69s-72.39-106.72-30.2-172.92c38.55-60.49,124.11-79.71,179.48-45.46ZM690.12,241.66c16.51-21.34,15.9-49.47-1.37-62.84-17.28-13.37-44.67-6.91-61.19,14.42-16.51,21.34-15.9,49.48,1.38,62.85,17.27,13.37,44.66,6.91,61.18-14.43Z" fill="#e2e2e2"/><path d="M755.59,480.27c6.86,6.86,6.04,18.78-1.81,26.64-7.86,7.86-19.78,8.67-26.64,1.82-6.85-6.86-6.04-18.78,1.82-26.64,7.86-7.86,19.78-8.67,26.63-1.82Z" fill="#e2e2e2"/><path d="M700.53,847.39l10.8,5.14c-5.72,11.15-9.29,20.57-9.45,26.73-.8,30.31-34.3,32.31-37.49,32.7-3.19.4-21.54-4.78-21.54-4.78-90.01-52.43-530.77-309.16-545.09-317.75-15.96-9.58-12.77-22.34-12.77-22.34l6.38-20.74s5.04-9.36,12.71-23.55l11.47,3.38s466.39,294.62,584.98,321.21Z" fill="#e2e2e2"/><path d="M683.46,928.77c-2.95,0-5.62-.3-7.98-.77-10.54-2.09-17-7.7-18.5-9.11l-25.84-15.05C285.39,702.43,105.41,597.52,96.22,592c-17.66-10.6-14.29-25.03-14.14-25.64.01-.05.03-.1.04-.15l6.38-20.74c.06-.19.13-.37.23-.54,0,0,5.04-9.36,12.71-23.55,17.23-31.89,41.19-76.12,57.5-105.7,10.96-19.86,28.91-31.08,51.91-32.45,17.15-1.02,30.91,3.75,31.49,3.95.19.07.37.15.54.26,1.15.69,114.87,68.67,142.56,70.98,24.86,2.07,43.63-9.64,46.92-11.85l87.97-159.13c-1.66-5.21-7.42-25.3-7.25-52.64.17-28.87,7.33-71.46,40.49-110.42,20.62-24.22,48.16-41.01,79.65-48.55,34.08-8.16,71.29-5.59,110.61,7.62,16.98,5.7,32.62,14.55,46.49,26.29,43.2,36.59,61.24,96.49,45.96,152.61-9.21,33.79-27.56,63.16-54.6,87.41,71.15,2.84,102.15,33.21,104.66,35.79,2.24,1.91,26.49,23.15,29.76,50.34.79.52,1.33,1.4,1.36,2.41l.8,23.26c0,.27-.02.53-.08.79-7.92,33.63-35.56,59.12-79.94,73.71-30.36,9.98-58.34,11.68-63.82,11.93l-79.04,56.52c-.11.08-.22.15-.34.21-3.34,1.78-6.75,4.2-10.12,7.22-3.63,3.24-6.53,6.55-8.37,8.83l95.64,40.9c.05.02.11.05.16.08l19.14,9.57c18.39,9.2,26.43,25.2,27.8,28.18,1.36,1.61,2.7,3.81,4,6.55,4.49,9.42,7.8,23.43,8.82,28.05,10.8,5.38,23.26,23.56,23.81,24.37.08.11.14.23.2.35.18.37,18.17,37.23-6.82,65.55-23.63,26.78-118.33,82.73-124.94,86.62-16.39,13.98-30.44,17.81-40.91,17.81ZM87.89,567.87c-.18.88-1.95,10.97,11.41,18.99,9.17,5.5,189.12,110.4,534.86,311.79l26.16,15.24c.24.14.45.31.64.5.93.94,23.38,22.98,59.7-8.16.13-.12.28-.22.43-.31,1-.59,100.37-59.1,123.71-85.55,21.47-24.33,7.25-56.15,6.03-58.73-3.76-5.48-14.72-19.69-22.41-22.64-.95-.37-1.66-1.19-1.86-2.2-.04-.18-3.67-17.68-8.69-28.2-1.16-2.45-2.29-4.29-3.36-5.48-.22-.25-.4-.53-.53-.84-.07-.16-7.3-16.68-25.17-25.62l-19.06-9.53-99.1-42.38c-.83-.35-1.45-1.06-1.7-1.92-.25-.86-.1-1.79.41-2.53.18-.27,4.56-6.59,11.57-12.85,3.67-3.28,7.41-5.95,11.12-7.95l79.61-56.93c.48-.35,1.06-.54,1.65-.56.3,0,30.84-1.06,63.18-11.71,42.65-14.05,68.13-37.24,75.76-68.95h0c-2.77,6.11-6.89,11.96-12.35,17.48-1.64,1.65-3.37,3.26-5.15,4.78-26.98,23.05-53.42,29.52-70.85,30.89-18.99,1.49-31.49-2.5-32.01-2.67-.76-.25-1.39-.79-1.75-1.51l-.07-.14-55.25-112.62c-.42-.86-.41-1.87.04-2.71l14.51-27.72c.24-.46.6-.85,1.03-1.13,7.95-5.12,15.45-10.63,22.29-16.38,28.91-24.27,48.36-54.17,57.81-88.86,14.67-53.88-2.62-111.36-44.04-146.45-13.29-11.25-28.27-19.73-44.53-25.19-73.27-24.62-141.97-10-183.78,39.13-31.92,37.51-38.86,78.53-39.06,106.34-.22,30.27,7.27,51.92,7.34,52.14.28.81.21,1.7-.21,2.45l-88.95,160.89c-.21.38-.5.71-.85.97-.82.6-18.94,13.6-45,13.61-2.11,0-4.27-.08-6.48-.27-28.64-2.39-137.13-67.02-144.86-71.65-1.94-.63-14.33-4.44-29.06-3.52-21.04,1.31-36.79,11.18-46.82,29.35-16.31,29.56-40.26,73.77-57.48,105.66-6.93,12.82-11.71,21.69-12.57,23.29l-6.26,20.35ZM794.92,506.47c3.43.9,14.14,3.23,28.81,2.04,16.47-1.34,41.48-7.54,67.12-29.45,1.66-1.42,3.27-2.91,4.79-4.44,10.21-10.32,15.19-21.76,14.81-34.02-.83-27.31-27.82-50.33-28.09-50.56-.09-.07-.17-.15-.25-.23-.31-.33-32.39-33.06-107.01-34.22-.06,0-.12,0-.18,0-6.39,5.26-13.32,10.31-20.61,15.05l-13.44,25.67,54.05,110.17Z" fill="#2b2b2b"/><path d="M664.11,914.97c-4.22,0-16.69-3.38-22.08-4.9-1.59-.45-2.52-2.11-2.07-3.7.45-1.6,2.11-2.52,3.7-2.07,8.35,2.36,18.49,4.81,20.38,4.69.14-.02.36-.04.64-.07,12.51-1.27,33.59-6.83,34.19-29.73.16-6.26,3.45-15.69,9.78-28.02,21.3-41.5,77.58-114.8,92.64-120.68,13.71-5.35,10.31-19,10.16-19.57-.42-1.6.54-3.24,2.14-3.66,1.6-.42,3.24.54,3.66,2.14,1.75,6.69,1.13,20.87-13.78,26.69-11.38,4.44-66.62,73.3-89.48,117.83-7.36,14.36-9.02,21.76-9.12,25.44-.53,20.08-14.96,33.04-39.58,35.54-.23.02-.41.04-.54.06-.18.02-.4.03-.64.03Z" fill="#2b2b2b"/><path d="M700.53,849.14c-.13,0-.26-.01-.38-.04-49.36-11.07-162.9-68.52-337.46-170.77-129.94-76.11-246.9-149.93-248.07-150.66-.82-.52-1.06-1.6-.54-2.41.52-.82,1.6-1.06,2.41-.54,4.66,2.94,467.49,294.76,584.43,320.98.94.21,1.54,1.15,1.33,2.09-.18.81-.91,1.37-1.71,1.37Z" fill="#2b2b2b"/><path d="M652.92,372.12c-34.96,0-61.45-12.84-78.87-25.23-24.32-17.3-36.32-36.9-36.82-37.73-.5-.83-.23-1.9.59-2.4.83-.5,1.9-.23,2.4.59.12.2,12.2,19.9,35.97,36.77,21.87,15.52,58.44,31.77,108.47,21.03,53.42-11.47,98.67-48.72,121.02-99.66,18.3-41.66,27.18-103.59-34.41-162.04-.7-.67-.73-1.77-.06-2.47.66-.7,1.77-.73,2.47-.06,27.98,26.55,44.2,56.12,48.21,87.89,3.15,25-1.22,51.27-13,78.09-22.81,51.97-68.98,89.98-123.5,101.68-11.52,2.47-22.35,3.55-32.47,3.55Z" fill="#2b2b2b"/><path d="M650.59,348.62c-21.29,0-41.86-5.82-59.71-17.14-26.63-16.88-44.99-42.72-51.68-72.76-7.42-33.32.01-69.75,20.94-102.58,18.42-28.9,49.21-50.41,84.49-59.02,34.79-8.49,70.29-3.75,97.38,13.01,21.8,13.48,36.56,34.67,42.7,61.26,8.17,35.43-.23,77.62-22.49,112.85h0c-19.77,31.29-50.81,53.67-85.15,61.39-8.86,1.99-17.73,2.98-26.49,2.98ZM678.99,96.55c-44.65,0-91.02,22.46-115.89,61.48-20.42,32.04-27.69,67.54-20.47,99.94,6.49,29.12,24.29,54.18,50.14,70.56,24.4,15.47,54.07,20.33,83.56,13.7,33.44-7.52,63.68-29.34,82.96-59.85h0c21.77-34.46,30-75.65,22.04-110.19-5.92-25.67-20.14-46.09-41.13-59.07-18.22-11.27-39.5-16.57-61.19-16.57ZM760.75,283.32h0,0Z" fill="#2b2b2b"/><path d="M650.01,264.82c-8.25,0-15.88-2.5-22.14-7.34-18.01-13.94-18.77-43.23-1.69-65.3,17.08-22.06,45.63-28.67,63.65-14.73,18,13.94,18.76,43.23,1.68,65.3h0c-8.23,10.64-19.35,18.05-31.29,20.86-3.46.82-6.88,1.22-10.2,1.22ZM667.63,173.62c-13.59,0-28.34,7.35-38.68,20.7-15.9,20.55-15.42,47.64,1.07,60.39,7.93,6.14,18.37,8.08,29.4,5.48,11.17-2.63,21.58-9.59,29.33-19.6,15.89-20.54,15.42-47.63-1.06-60.39-5.77-4.46-12.74-6.59-20.05-6.59ZM690.12,241.66h0,0Z" fill="#2b2b2b"/><path d="M671.84,625c-.66,0-1.32-.22-1.87-.66-1.49-1.19-36.57-29.4-44.18-45.18-10.65-22.11,5.9-40.9,7.6-42.74,2.74-3.5,72.18-92.26,86.03-119.2,3.87-7.52,5.71-14.53,5.47-20.85-.42-10.8-6.76-15.89-7.03-16.1-.83-.65-1.26-1.69-1.13-2.73.13-1.04.78-1.95,1.74-2.38l15.95-7.18c1.51-.68,3.29,0,3.97,1.5.68,1.51,0,3.29-1.5,3.97l-12.09,5.44c2.57,3.28,5.77,8.97,6.1,17.24.27,7.36-1.79,15.37-6.13,23.82-14.33,27.85-83.78,116.5-86.73,120.26-.07.09-.14.17-.21.25-.65.67-15.93,16.76-6.62,36.09,7.02,14.57,42.17,42.82,42.52,43.1,1.29,1.04,1.5,2.92.47,4.22-.59.74-1.46,1.12-2.34,1.12Z" fill="#2b2b2b"/><path d="M778.73,483.89c-.67,0-1.31-.39-1.6-1.04-.39-.88,0-1.92.88-2.31.01,0,.26-.12.71-.33,3.93-1.92,23.29-12.31,16.74-27.71-7.41-17.43-36.33-16.5-36.61-16.49-1,.05-1.78-.71-1.82-1.68-.04-.97.71-1.78,1.68-1.82,1.28-.05,31.62-1.01,39.97,18.61,7.79,18.31-13.99,30.06-18.43,32.23-.52.25-.81.38-.81.38-.23.1-.47.15-.71.15Z" fill="#2b2b2b"/><path d="M897.59,478.3c-.2,0-.39-.03-.59-.1-.91-.32-1.38-1.33-1.06-2.24,7.55-21.16-.54-34.23-.62-34.36-21.55-37.81-59.77-52.92-88.04-58.94-30.8-6.57-56.84-4.11-57.09-4.08-.97.09-1.82-.61-1.91-1.57-.1-.96.61-1.82,1.57-1.91.26-.03,26.76-2.54,58.07,4.12,29.01,6.17,68.24,21.69,90.4,60.58.33.5,9.09,14.46.93,37.34-.26.72-.93,1.16-1.65,1.16Z" fill="#2b2b2b"/><path d="M738.79,515.11c-4.81,0-9.43-1.69-12.89-5.15-7.52-7.53-6.7-20.59,1.82-29.12,4.1-4.1,9.36-6.56,14.81-6.93,5.53-.38,10.62,1.44,14.29,5.11,7.52,7.52,6.71,20.58-1.81,29.11h0c-4.61,4.61-10.55,6.97-16.22,6.97ZM743.96,477.37c-.39,0-.78.01-1.18.04-4.61.31-9.07,2.42-12.58,5.92-7.16,7.16-7.98,18-1.82,24.17,6.16,6.15,17,5.34,24.16-1.82,7.16-7.17,7.97-18.01,1.81-24.17-2.69-2.69-6.35-4.14-10.4-4.14ZM753.78,506.91h0,0Z" fill="#2b2b2b"/><path d="M582.49,576.82s-.06,0-.1,0c-60.95-3.32-98.57-26.52-119.4-45.39-22.64-20.51-30.69-39.97-31.03-40.79-.36-.9.07-1.92.96-2.28.9-.37,1.92.07,2.28.96.08.19,8.17,19.67,30.28,39.65,20.4,18.43,57.28,41.09,117.1,44.36.96.05,1.7.88,1.65,1.84-.05.93-.82,1.65-1.75,1.65Z" fill="#2b2b2b"/></svg>