<?xml version="1.0" encoding="UTF-8"?><svg id="_レイヤー_9" xmlns="http://www.w3.org/2000/svg" width="1000" height="1000" viewBox="0 0 1000 1000"><path d="M814.3,333.36c78.37,38.87,130.09,119.74,62.38,146.39-47.56,18.71-97.25,26.28-109.4,28.84-10.95,2.3-20.53,8.86-26.6,18.27l-29.82,48.81-.28.5-30.83-17.51,1.02-1.8,40.89-61.59c6.76-9.7,16.45-16.98,27.65-20.78l95.4-24.21c17.36-5.88,24.78-24.99,12.55-45.68-7.83-13.26-26.29-27.79-52.36-41.77-36.74-19.71-49.49-19.15-68.65-15.99-16.4,2.7-38.87,29.02-41.38,45.45l-11.28,39.81c-1.54,10.1-32.88,27.56-41.38,33.23l-71.94,31.03-.05.08-10.12-5.75-.27-.12c5.17-11.35,10.27-22.38,15.25-32.97h.01l.05.03,60.02-25.08c3.43-2.37,20.14-15.09,20.96-19.19l15.1-47.29c2.19-10.96,18.61-33.75,28.17-39.55,19.02-11.52,54.7-23.02,114.91,6.84Z" fill="#e2e2e2"/><path d="M574.2,949.48c-27.37-21.68,19.17-55.44,19.17-55.44l-167.39-84.63s62.45-158.77,121.28-290.92c4.22-9.46,8.42-18.8,12.57-27.92l.27.12,10.12,5.75,109.53,62.22,30.83,17.51,48.91,27.78c4.37,2.46,7.72,6.38,9.49,11.07,5.95,15.79,17.18,45.82,40.67,68.06l39.76,25.93c3.09,2.01,5.48,4.98,6.64,8.47,2.1,6.28,2.91,16.85-6.9,29.55l-3.94,3.09-.64-.81c8.23-6.73,8.34-27.09.82-31.44-5.95-3.43-33.05-19.11-41.55-24.34-1.77-1.09-3.33-2.46-4.64-4.07-16.61-20.47-31.54-51.65-36.35-62.17-1.47-3.2-5.34-4.59-8.44-2.93-5.23,2.8-13.22,11.32-23.12,35.21-20.86,50.35-118.97,272.23-119.73,273.96h0s-8.22,28.1-38.31,24.21l.96-8.26Z" fill="#3a3a3a"/><path d="M844.57,749.31l.64.81-233.65,183.41c.76-1.73,98.87-223.61,119.73-273.96,9.9-23.89,17.89-32.41,23.12-35.21,3.1-1.66,6.97-.27,8.44,2.93,4.81,10.52,19.74,41.7,36.35,62.17,1.31,1.61,2.87,2.98,4.64,4.07,8.5,5.23,35.6,20.91,41.55,24.34,7.52,4.35,7.41,24.71-.82,31.44Z" fill="#3a3a3a"/><path d="M547.26,518.49c-58.83,132.15-121.28,290.92-121.28,290.92-29.16,8.93-26.78,50.74-26.78,50.74l-.85,1.52-1.2-.68.18-.32c-24.53-20.42-9.04-55.35-9.04-55.35,0,0,52.71-159.72,121.88-307.36,4.3-9.16,8.66-18.28,13.07-27.32,30.56-62.55,63.74-120.89,96.67-161.37,6.17-7.59,14.32-13.3,23.55-16.53,68.65-24.06,121.42-58.88,79.96-115.64-24-32.87-45.79-41.84-68.52-51.64-11.75-5.07-50.03-19.6-62.72-21.31-31.09-4.2-69.55-4.68-84.15,28.93-15.83,36.45-2.5,68.12,8.26,103.47,3.62,11.9,6.57,24.04,4.88,36.36-2.91,21.21-9.37,31.26-9.37,31.26,0,0-30.41,52.97-69.47,120.37-4.94,8.52-10.02,17.27-15.19,26.18-58.23,100.26-128.44,219.9-147.86,247.72-34.8,49.84-73.45,41.16-73.45,41.16l-1.03.07c-1.17-16.67,6.96-33.15,12.94-42.84l1.77.57s11.81,6.68,35.32-27.17c15.49-22.31,100.37-167.08,156.49-263.25,29.05-49.8,50.39-86.57,50.39-86.57,0,0,18.81-31.04,5.64-92.16-13.16-61.13-15.98-98.74,9.41-133.54,25.39-34.79,99.68-37.61,109.08-35.73,9.41,1.88,128.84,11.28,182.44,103.44s-10.01,127.78-43.26,141.06c-33.27,13.28-61.15,22.64-86.25,42.36-12.95,10.17-36.66,54.39-63.68,111.76h-.01c-4.98,10.59-10.08,21.62-15.25,32.97-4.15,9.12-8.35,18.46-12.57,27.92Z" fill="#e2e2e2"/><path d="M425.98,809.41l167.39,84.63s-46.54,33.76-19.17,55.44l-.96,8.26c-1.29-.17-2.63-.4-4.01-.69l-170.88-95.38.85-1.52s-2.38-41.81,26.78-50.74Z" fill="#3a3a3a"/><path d="M520.96,469.52l2.28,1.12c-4.41,9.04-8.77,18.16-13.07,27.32l-.96-.45-82.07-46.79c5.17-8.91,10.25-17.66,15.19-26.18l78.63,44.98Z" fill="#3a3a3a"/><path d="M509.21,497.51l.96.45c-69.17,147.64-121.88,307.36-121.88,307.36,0,0-15.49,34.93,9.04,55.35l-.18.32-22.21-12.39c-22.16-25.63-3.51-54.87-3.51-54.87l-92.78-48.9c-18.04-4.37-37.98,19.85-42.79,26.13l-30.96-17.28,1.97-3.52c-1.18-3.47-1.83-6.98-2.07-10.49l1.03-.07s38.65,8.68,73.45-41.16c19.42-27.82,89.63-147.46,147.86-247.72l82.07,46.79Z" fill="#3a3a3a"/><path d="M411.11,406.86l.21.12c-56.12,96.17-141,240.94-156.49,263.25-23.51,33.85-35.32,27.17-35.32,27.17l-1.77-.57c3.36-5.43,6.05-8.73,6.05-8.73l-102.5-58.31-5.64-6.89,110.97-270.84s6.58-38.55,24.45-35.73l160.04,90.53Z" fill="#3a3a3a"/><path d="M374.94,848.6l-139.08-77.64c4.81-6.28,24.75-30.5,42.79-26.13l92.78,48.9s-18.65,29.24,3.51,54.87Z" fill="#353535"/><path d="M121.29,629.79l102.5,58.31s-2.69,3.3-6.05,8.73c-5.98,9.69-14.11,26.17-12.94,42.84.24,3.51.89,7.02,2.07,10.49l-1.97,3.52-139.4-77.81s-11.6-13.79,5.01-42.63,33.86-17.55,33.86-17.55l11.28,7.21,5.64,6.89Z" fill="#3a3a3a"/><path d="M425.98,812.41c-.37,0-.74-.07-1.1-.21-1.54-.61-2.3-2.35-1.69-3.89.62-1.59,63.15-160.34,121.33-291.04,4.51-10.12,8.63-19.26,12.58-27.94,5.22-11.46,10.36-22.56,15.27-33,.03-.07.07-.14.11-.21,31.21-66.24,52.29-103.09,64.44-112.64,22.02-17.3,45.97-26.68,73.69-37.54,4.34-1.7,8.77-3.44,13.3-5.24,31.23-12.47,50.91-29.96,58.5-51.98,8.05-23.34,2.42-51.87-16.72-84.79-31.9-54.84-92.84-89.9-176.23-101.38-2.04-.28-3.39-.47-4.2-.63-8.51-1.7-81.47.85-106.07,34.56-24.38,33.42-22.3,68.91-8.9,131.14,13.27,61.58-5.21,93.04-6.01,94.35-.18.32-21.64,37.29-50.36,86.53-63.21,108.31-141.68,241.94-156.62,263.45-24.37,35.08-37.81,28.89-39.26,28.07l2.95-5.22s-.04-.03-.13-.07c.1.04,10.46,4.1,31.51-26.2,14.82-21.35,93.21-154.83,156.36-263.05,28.72-49.23,50.17-86.2,50.39-86.56.21-.35,18.02-31,5.3-90.02-13.49-62.66-15.66-100.88,9.92-135.94,26.41-36.19,101.91-38.94,112.09-36.9.63.13,2.05.32,3.85.57,12.11,1.67,44.27,6.09,80.13,20.91,45.4,18.76,79.2,46.82,100.47,83.39,20.06,34.49,25.85,64.69,17.21,89.76-8.19,23.74-29.03,42.45-61.95,55.6-4.54,1.81-8.99,3.55-13.34,5.26-27.28,10.69-50.84,19.92-72.17,36.67-7.74,6.08-24.92,30.22-62.82,110.68-.03.07-.07.14-.1.2-4.87,10.36-9.96,21.37-15.14,32.73-3.95,8.67-8.06,17.8-12.56,27.9-58.13,130.57-120.6,289.21-121.23,290.8-.46,1.18-1.6,1.9-2.79,1.9Z" fill="#2b2b2b"/><path d="M397.33,863.67c-.68,0-1.36-.23-1.92-.69-25.1-20.9-11.05-56.05-9.93-58.71,1.71-5.17,54.31-163.15,121.97-307.57,4.37-9.31,8.77-18.51,13.09-27.36,34.62-70.87,67.27-125.36,97.04-161.95,6.51-8.01,15.12-14.05,24.89-17.47,53.77-18.84,83.47-39.49,90.82-63.11,4.5-14.48.37-30.61-12.29-47.93-23.08-31.61-43.95-40.6-66.05-50.12l-1.24-.53c-13.12-5.66-50.13-19.5-61.93-21.09-30.43-4.11-67.14-4.74-81,27.15-13.67,31.47-4.69,59.89,4.82,89.99,1.19,3.77,2.39,7.57,3.56,11.41,4.2,13.8,6.65,25.48,4.98,37.64-2.87,20.91-9.11,31.34-9.77,32.4-1.14,1.98-31.37,54.63-69.44,120.33l-15.19,26.18c-56.66,97.55-128.32,219.75-148,247.93-35.54,50.91-74.91,42.74-76.57,42.37-1.62-.36-2.63-1.97-2.27-3.58.36-1.61,1.96-2.63,3.58-2.27h0c.09.02,9.36,1.96,22.56-1.95,12.22-3.62,30.43-13.15,47.78-38,19.55-28.01,91.13-150.06,147.73-247.51l15.19-26.18c38.61-66.62,69.16-119.83,69.46-120.36.02-.04.05-.09.08-.13.06-.09,6.16-9.89,8.92-30.05,1.52-11.08-.81-22.04-4.78-35.08-1.16-3.82-2.36-7.6-3.54-11.35-9.85-31.19-19.16-60.66-4.6-94.18,15.63-35.98,57.31-34.76,87.3-30.71,13.62,1.84,53.33,17.14,63.51,21.53l1.24.53c22.87,9.85,44.47,19.16,68.52,52.09,13.84,18.94,18.27,36.86,13.17,53.25-7.95,25.56-38.88,47.47-94.56,66.99-8.72,3.05-16.4,8.44-22.21,15.59-29.48,36.24-61.88,90.34-96.3,160.79-4.3,8.82-8.69,18-13.05,27.28-68.3,145.79-121.22,305.43-121.75,307.03-.03.09-.07.19-.11.28-.59,1.34-14.25,33.12,8.22,51.83,1.27,1.06,1.45,2.95.39,4.23-.59.71-1.45,1.08-2.31,1.08Z" fill="#2b2b2b"/><path d="M206.87,751.91c-.73,0-1.41-.46-1.66-1.19-1.17-3.45-1.9-7.13-2.16-10.93-1.17-16.69,6.53-33.08,13.2-43.88,2.03-3.27,3.8-5.77,4.93-7.28l-100.75-57.32c-.84-.48-1.13-1.55-.66-2.39.48-.84,1.55-1.13,2.39-.66l102.5,58.31c.45.25.76.69.85,1.2s-.04,1.03-.36,1.43c-.03.03-2.67,3.29-5.92,8.55-6.4,10.36-13.79,26.03-12.68,41.8.24,3.51.91,6.89,1.98,10.05.31.92-.18,1.91-1.09,2.22-.19.06-.38.09-.56.09Z" fill="#2b2b2b"/><path d="M575.5,952.21c-.35,0-.7-.1-1.01-.32-.47-.34-.93-.68-1.37-1.03-6.31-5-9.43-11.04-9.29-17.95.35-16.59,19.55-33.24,26.26-38.56l-164.27-83.05c-26.83,8.87-24.9,48.35-24.88,48.76.06.96-.68,1.79-1.65,1.85-.98.06-1.79-.68-1.85-1.65-.02-.43-2.11-43.29,28.01-52.51.43-.13.9-.09,1.3.11l167.39,84.63c.54.27.91.81.95,1.42s-.22,1.2-.72,1.56c-.27.19-26.69,19.58-27.07,37.53-.12,5.76,2.56,10.85,7.96,15.12.39.31.8.62,1.23.92.79.56.97,1.65.41,2.44-.34.48-.88.74-1.43.74Z" fill="#2b2b2b"/><path d="M611.56,935.28c-.23,0-.47-.05-.7-.15-.88-.39-1.29-1.42-.9-2.31l.96-2.17c23.23-52.58,100.46-227.59,118.76-271.75,8.23-19.85,16.27-31.99,23.91-36.08,1.9-1.01,4.08-1.19,6.14-.5,2.08.7,3.8,2.25,4.72,4.24,4.25,9.29,19.41,41.2,36.12,61.8,1.19,1.46,2.6,2.7,4.2,3.68,8.27,5.09,34.84,20.47,41.51,24.31,3.48,2.01,5.76,6.8,6.27,13.16.59,7.26-1.31,16.61-6.86,21.15-.35.28-.68.52-1.02.74-.8.54-1.89.32-2.43-.49s-.32-1.89.49-2.43c.26-.17.51-.36.76-.56,3.88-3.17,6.17-10.64,5.57-18.15-.41-5.11-2.11-9-4.54-10.41-.31-.18-32.02-18.47-41.59-24.36-1.94-1.19-3.64-2.69-5.08-4.46-16.98-20.92-32.29-53.16-36.58-62.55-.51-1.12-1.48-1.99-2.65-2.38-1.14-.38-2.33-.29-3.37.27-4.75,2.54-12.48,10.56-22.33,34.34-18.31,44.2-95.55,219.24-118.79,271.83l-.96,2.16c-.29.66-.93,1.05-1.6,1.05Z" fill="#2b2b2b"/><path d="M578.82,961.11c-1.9,0-3.88-.13-5.96-.4-1.38-.18-2.8-.43-4.24-.73-.3-.06-.58-.17-.85-.32l-170.88-95.38-1.22-.69-22.19-12.38-170.04-94.92-139.4-77.81c-.32-.18-.6-.41-.83-.69-.53-.63-12.75-15.75,4.71-46.06,6.71-11.66,14.43-18.6,22.95-20.63,8.69-2.07,14.89,1.9,15.15,2.07l8.22,5.26,109.49-267.22c.76-4.21,8-40.98,27.82-37.85.35.06.7.18,1.01.35l160.04,90.53c1.44.82,1.95,2.65,1.13,4.09-.82,1.44-2.65,1.95-4.09,1.13l-159.53-90.24c-11.96-1.18-18.86,23.56-20.52,33.34-.04.22-.1.43-.18.63l-110.97,270.84c-.34.82-1.02,1.45-1.87,1.72-.85.27-1.77.15-2.52-.33l-11.28-7.21c-.19-.12-4.48-2.76-10.64-1.23-6.7,1.66-13.27,7.8-19,17.75-13.89,24.11-7.16,36.49-5.58,38.83l169.79,94.77,139.08,77.64,23.43,13.08,170.46,95.15c1.14.23,2.26.42,3.35.56,27.1,3.5,34.73-21.03,35.04-22.08.14-.48.4-.92.76-1.27.08-.08.19-.17.28-.25l237.29-186.27c8.64-11.35,8.15-20.65,6.2-26.47-.92-2.78-2.85-5.23-5.43-6.91l-39.76-25.93c-.15-.1-.29-.21-.42-.33-23.86-22.59-35.21-52.72-41.31-68.91l-.1-.27c-1.52-4.03-4.42-7.41-8.15-9.51l-199.4-113.27c-1.44-.82-1.94-2.65-1.13-4.09.82-1.44,2.65-1.94,4.09-1.13l199.39,113.26c4.95,2.79,8.8,7.27,10.81,12.62l.1.27c5.91,15.69,16.91,44.86,39.63,66.49l39.53,25.78c3.71,2.41,6.5,5.98,7.85,10.04,2.43,7.25,3.12,18.75-7.37,32.33-.15.2-.33.37-.52.53l-3.94,3.09-232.96,182.87c-1.76,4.8-10.84,25.76-35.28,25.76ZM849.15,747.03h0,0Z" fill="#2b2b2b"/><path d="M520.96,472.52c-.5,0-1.02-.13-1.49-.4l-79.85-45.68c-1.44-.82-1.93-2.66-1.11-4.1s2.66-1.93,4.1-1.11l1.22.7,78.63,44.98c1.44.82,1.94,2.66,1.11,4.09-.55.97-1.57,1.51-2.61,1.51Z" fill="#2b2b2b"/><path d="M375.2,850.65c-.48,0-.95-.19-1.3-.58l-.26-.3c-19.73-22.82-8.18-48.64-4.62-55.33l-90.99-47.96c-17.18-3.93-36.98,20.57-40.78,25.54-.67.87-1.04,1.39-1.05,1.4-.56.79-1.65.98-2.44.42-.79-.56-.98-1.65-.42-2.44,0,0,.4-.56,1.14-1.52,5.69-7.43,25.73-31.33,44.59-26.76.14.03.28.08.4.15l92.78,48.9c.43.23.75.63.88,1.1.13.47.05.98-.21,1.39-.73,1.15-17.67,28.47,3.36,52.79l.24.27c.65.72.59,1.82-.13,2.47-.33.3-.75.45-1.17.45Z" fill="#2b2b2b"/><path d="M710.86,578.67c-.53,0-1.07-.14-1.56-.44-1.41-.86-1.86-2.71-1-4.12l29.82-48.81c6.48-10.05,16.87-17.19,28.54-19.64,1.82-.38,4.44-.87,7.75-1.49,18.22-3.4,60.88-11.36,101.17-27.21,18.84-7.42,28.74-19.26,29.42-35.22.69-16.11-8.31-35.75-25.34-55.32-17.08-19.62-40.76-37.51-66.7-50.38-45.06-22.35-82.75-24.69-112.02-6.96-9.02,5.47-24.79,27.59-26.78,37.57-.02.11-.05.22-.08.32l-15.07,47.2c-1.69,6.29-21.94,20.69-22.14,20.84-.17.12-.36.22-.55.3l-60.02,25.08c-1.53.64-3.29-.08-3.92-1.61-.64-1.53.08-3.29,1.61-3.92l59.73-24.96c6.17-4.31,18.53-14.53,19.49-17.22.02-.11.03-.13.06-.24l15.05-47.14c2.44-11.6,19.17-35.08,29.52-41.35,31.14-18.86,70.78-16.6,117.8,6.72,55.89,27.72,96.89,75.58,95.36,111.32-.54,12.75-6.75,30.13-33.22,40.55-40.82,16.06-83.88,24.09-102.26,27.52-3.27.61-5.86,1.09-7.62,1.46-10.26,2.16-19.03,8.18-24.7,16.96l-29.78,48.75c-.57.93-1.55,1.44-2.56,1.44Z" fill="#2b2b2b"/><path d="M680.77,559.86c-.57,0-1.15-.16-1.66-.5-1.38-.92-1.76-2.78-.84-4.16l40.89-61.59c7.21-10.35,17.29-17.93,29.19-21.96.07-.03.15-.05.23-.07l95.28-24.18c7.19-2.47,12.49-7.45,14.94-14.06,2.98-8.02,1.51-17.69-4.12-27.22-7.46-12.64-25.16-26.69-51.2-40.65-36.27-19.46-48.41-18.7-66.74-15.67-15.38,2.53-36.64,28.14-38.9,42.94-.02.12-.05.25-.08.36l-11.23,39.65c-1.6,8.93-18.88,20.29-36.47,31.17-2.54,1.57-4.73,2.93-6.18,3.89-.15.1-.31.19-.48.26l-71.94,31.03c-1.52.66-3.29-.04-3.94-1.57-.66-1.52.05-3.29,1.57-3.94l71.69-30.92c1.52-1,3.66-2.33,6.12-3.85,9.78-6.05,32.67-20.22,33.73-27.18.02-.12.05-.25.08-.37l11.23-39.64c2.78-17.27,25.8-44.8,43.83-47.77,19.04-3.14,32.64-4.03,70.56,16.31,27,14.48,45.51,29.31,53.53,42.89,6.57,11.11,8.2,22.6,4.58,32.36-3.1,8.36-9.76,14.65-18.75,17.69-.07.03-.15.05-.22.07l-95.28,24.18c-10.62,3.63-19.63,10.41-26.04,19.62l-40.85,61.53c-.58.87-1.53,1.34-2.5,1.34Z" fill="#2b2b2b"/><path d="M696.44,604.38c-.29,0-.59-.07-.86-.23l-149.4-84.27c-.84-.48-1.13-1.55-.65-2.39.48-.84,1.55-1.13,2.39-.65l.21.12,149.17,84.13c.84.48,1.14,1.54.66,2.38-.32.57-.92.89-1.53.89Z" fill="#2b2b2b"/><path d="M509.21,499.26c-.29,0-.59-.07-.87-.23l-84.11-47.95c-.84-.48-1.13-1.55-.66-2.39s1.55-1.13,2.39-.66l2.04,1.16,82.07,46.79c.84.48,1.13,1.55.65,2.39-.32.57-.91.88-1.52.88Z" fill="#2b2b2b"/><path d="M395.07,434.37c-.29,0-.59-.07-.86-.23l-138.73-78.26c-.84-.48-1.14-1.54-.66-2.38s1.54-1.14,2.38-.66l138.73,78.26c.84.48,1.14,1.54.66,2.38-.32.57-.92.89-1.53.89Z" fill="#2b2b2b"/></svg>