<?xml version="1.0" encoding="UTF-8"?><svg id="_レイヤー_8" xmlns="http://www.w3.org/2000/svg" width="1000" height="800" viewBox="0 0 1000 800"><path d="M674.97,86.76c366.69,74.28,267.16,418.68,267.16,418.68-9.34,21.14-50.62,22.46-113.86,21.93-10.57-.09-21.75-.23-33.5-.34-1.28-.01-2.57-.02-3.87-.03l.06-8.71c84.84-270.36-13.63-384.03-119.19-428.2,1.21-1.08,2.17-2.26,2.81-3.53l.39.2Z" fill="#f5f5f5"/><path d="M828.26,529.08s16.72,50.29-28.03,90.8c-41.91,37.93-212.86,22.86-365.84,64.51-107.16,29.18-75.85,63.87-201.33,42.8-17.98-3.01-45.73-31.36-51.09-47.05-14.72-43.16,41.4-109.21,41.68-109.79v-.33c11.16.38,22.42.42,33.86.08v.15c-.26.49-64.42,67.76-51.26,104.22,4.78,13.25,12.92,26.28,28.95,29.02,130,22.21,111.76-20.44,207.54-45.08,136.73-35.18,289.52-22.45,326.98-54.49,40-34.21,25.05-76.69,25.05-76.69v-.2c11.75.11,22.93.25,33.5.34v1.71Z" fill="#fff"/><path d="M494.49,486.18c-28.1-4.92-53.69-10.47-76.91-16.36l8.9-7.1c64.31-298.53,154.23-353.23,198.23-374l1.12-1.52c.92,1.01,2.02,1.96,3.28,2.84,4.62,3.22,12.22,2.04,19.82,2.59,8.58.62,15.48,2.34,20.56-.86.84-.52,1.6-1.09,2.28-1.68,105.56,44.17,204.03,157.84,119.19,428.2l-.06,8.71c-2.15-.02-4.32-.04-6.51-.05-87.83-.59-255.74-32.26-255.74-32.26,0,0-20.91,17.33-107.55,45.41-61.97,20.09-114.45,28.55-163.59,30-11.44.34-22.7.3-33.85-.08-7.93-.25-15.8-.67-23.64-1.24-66.32-4.78-129.06-56.17-145.79-78.87-8.07-10.96-10.02-22.05-7.86-31.21l11.47.16s30.47,70.36,146.09,94.11c115.62,23.75,288.6-55.57,288.6-55.57l1.96-11.22Z" fill="#f5f5f5"/><path d="M671.77,90.09c-.68.59-1.44,1.16-2.28,1.68-5.08,3.2-11.98,1.48-20.56.86-7.6-.55-15.2.63-19.82-2.59-1.26-.88-2.36-1.83-3.28-2.84-1.9-2.06-3.03-4.35-3.16-6.73-.03-.36-.03-.73,0-1.1.59-8.18,12.91-13.96,27.5-12.9,14.6,1.05,25.96,8.54,25.37,16.72-.08,1.18-.41,2.31-.96,3.37-.64,1.27-1.6,2.45-2.81,3.53Z" fill="#fff8f0"/><path d="M417.58,469.82c23.22,5.89,48.81,11.44,76.91,16.36l-1.96,11.22s-172.98,79.32-288.6,55.57c-115.62-23.75-146.09-94.11-146.09-94.11l-11.47-.16c2.31-9.81,9.34-17.39,18.62-20.18,17.92-5.38,152.96-60.94,152.96-60.94-1.2-18.53,19.12-16.14,19.12-16.14C283.3,97.01,538.44,79.06,622.19,80.49l.48-.02c.13,2.38,1.26,4.67,3.16,6.73l-1.12,1.52c-44,20.77-133.92,75.47-198.23,374l-8.9,7.1Z" fill="#f5f5f5"/><path d="M241.9,573.33c-6.11,0-12.24-.1-18.34-.31-7.74-.24-15.74-.66-23.75-1.25-65.59-4.73-129.74-55.32-147.99-80.08-7.96-10.82-10.94-22.78-8.36-33.68,2.56-10.88,10.29-19.24,20.68-22.37,16.42-4.93,134.28-53.28,150.78-60.06.09-5.07,1.72-9.14,4.88-12.13,4.56-4.32,11.09-5.08,14.79-5.12,10.98-60.63,33.88-112.59,68.07-154.46,29.1-35.63,66.66-64.34,111.64-85.34,80.21-37.44,164.72-41.8,207.95-41.06,1.66.03,2.98,1.39,2.95,3.05s-1.42,2.98-3.05,2.95c-77.98-1.33-336.02,14.81-382.11,278.47-.27,1.57-1.73,2.65-3.31,2.46-.08,0-8.33-.88-12.83,3.41-2.26,2.16-3.23,5.28-2.95,9.56.08,1.28-.66,2.48-1.85,2.97-5.52,2.27-135.38,55.68-153.24,61.04-8.31,2.5-14.5,9.22-16.56,18-2.16,9.16.45,19.37,7.36,28.74,17.7,24.01,79.93,73.07,143.59,77.66,7.94.58,15.85.99,23.52,1.23,11.24.38,22.56.41,33.67.08,53.04-1.56,104.75-11.05,162.75-29.85,84.63-27.43,106.36-44.7,106.57-44.87.69-.56,1.59-.79,2.46-.63,1.68.32,168.65,31.63,255.2,32.21,2.04,0,4.07.03,6.08.05l4.31.03c5.39.05,10.65.11,15.79.16,6.08.07,11.98.13,17.71.18,59.43.51,102.21-.64,111.01-19.96.83-2.98,10.68-39.29,12-88.98,1.26-47.51-5.23-117.35-43.36-180.25-45.02-74.26-123.6-123.21-233.57-145.48-1.62-.33-2.67-1.91-2.34-3.54.33-1.62,1.91-2.67,3.54-2.34,111.7,22.63,191.62,72.52,237.54,148.3,38.9,64.19,45.5,135.31,44.19,183.67-1.42,52.34-12.18,90.11-12.28,90.49-.04.13-.08.26-.14.38-10.14,22.95-50.83,24.27-116.63,23.72-5.73-.05-11.64-.11-17.72-.18-5.14-.06-10.4-.11-15.78-.16l-4.31-.03c-2-.02-4.02-.04-6.06-.05-83.01-.56-239.05-29.11-254.98-32.07-5.44,3.92-30.99,20.32-107.38,45.07-58.56,18.99-110.81,28.56-164.43,30.15-5.2.15-10.44.23-15.7.23Z" fill="#2b2b2b"/><path d="M511.33,490.76c-.09,0-.19,0-.28-.02-6-.97-11.52-1.89-16.86-2.83-26.64-4.66-52.56-10.18-77.04-16.39-140.39-35.63-195.65-84.69-196.2-85.18-.72-.65-.77-1.76-.12-2.47.65-.72,1.75-.77,2.47-.12.54.49,55.28,49,194.71,84.38,24.4,6.19,50.23,11.68,76.78,16.33,5.33.94,10.83,1.86,16.82,2.83.95.15,1.6,1.05,1.45,2.01-.14.86-.88,1.47-1.73,1.47Z" fill="#2b2b2b"/><path d="M790.96,520.04c-.17,0-.35-.03-.52-.08-.92-.29-1.44-1.27-1.15-2.19,38.26-121.91,42.24-222.08,11.85-297.74-23.68-58.94-67.43-102.12-130.05-128.32h0s-.07-.03-.1-.05c-.84-.36-1.27-1.31-.97-2.18.32-.91,1.31-1.4,2.22-1.08.06.02.14.05.2.08,29.01,12.14,54.44,28.24,75.59,47.85,24.58,22.79,43.54,50.51,56.34,82.39,30.7,76.43,26.74,177.4-11.76,300.1-.23.75-.93,1.23-1.67,1.23Z" fill="#2b2b2b"/><path d="M426.48,464.47c-.12,0-.25-.01-.37-.04-.94-.2-1.55-1.13-1.34-2.08,27.89-129.48,63.89-227.64,106.99-291.77,34.84-51.83,67.57-71.82,92.2-83.45.87-.41,1.92-.04,2.33.84.41.87.04,1.92-.84,2.33-55.89,26.38-137.15,93.73-197.27,372.79-.18.82-.9,1.38-1.71,1.38Z" fill="#2b2b2b"/><path d="M661.63,96.65c-2.44,0-5.03-.27-7.77-.55-1.66-.17-3.37-.35-5.14-.48-2.04-.15-4.13-.17-6.15-.18-5.7-.05-11.09-.09-15.17-2.94-1.45-1.01-2.72-2.11-3.78-3.28-2.4-2.6-3.76-5.56-3.94-8.55-.04-.51-.04-1.03,0-1.55.36-5.06,3.99-9.47,10.22-12.39,5.65-2.65,12.93-3.81,20.49-3.26,7.56.54,14.6,2.74,19.81,6.17,5.74,3.78,8.7,8.67,8.33,13.75-.11,1.56-.54,3.09-1.29,4.54-.78,1.54-1.95,3.02-3.48,4.39-.87.75-1.77,1.42-2.7,1.99-2.85,1.79-5.99,2.33-9.44,2.33ZM646.7,69.34c-5.34,0-10.31.98-14.26,2.83-4.11,1.93-6.58,4.63-6.78,7.42-.02.23-.02.44,0,.64,0,.03,0,.06,0,.08.09,1.62.89,3.25,2.37,4.86.78.85,1.71,1.66,2.79,2.41,2.56,1.78,7.04,1.82,11.79,1.86,2.11.02,4.3.04,6.53.2,1.87.13,3.63.32,5.33.49,5.75.6,10.29,1.07,13.42-.9.68-.42,1.32-.89,1.91-1.41.93-.83,1.65-1.72,2.1-2.61.38-.74.59-1.48.65-2.22.2-2.8-1.86-5.83-5.65-8.33-4.37-2.88-10.39-4.73-16.95-5.2-1.1-.08-2.18-.12-3.26-.12Z" fill="#2b2b2b"/><path d="M251.16,559.11c-16.44,0-32.5-1.32-47.59-4.42-60.12-12.35-96.94-37.48-117.24-56.39-22.08-20.57-29.78-38-30.1-38.73-.38-.89.02-1.92.91-2.3.89-.39,1.92.02,2.3.91.08.17,7.81,17.62,29.43,37.71,19.96,18.55,56.19,43.22,115.4,55.38,59.36,12.19,134.33-3.51,186.77-18.83,56.92-16.63,100.32-36.42,100.75-36.62.88-.4,1.92-.02,2.32.86.4.88.02,1.92-.86,2.32-.43.2-44.02,20.08-101.18,36.78-39.56,11.56-91.9,23.33-140.91,23.33Z" fill="#2b2b2b"/><path d="M296.63,712.72c-16.25,0-36.23-1.88-61.93-6.27-14.41-2.46-24.64-12.59-31.27-30.96-11.72-32.48,31.88-85.28,51.16-106.48.27-.3.47-.51.56-.62.88-1.12,2.46-1.48,3.76-.79,1.46.78,2.02,2.59,1.25,4.05-.19.36-.26.44-1.13,1.39-29.84,32.79-58.63,76.38-49.96,100.4,5.83,16.16,14.54,25.01,26.63,27.08,82.59,14.11,104.44,1.79,134.69-15.26,17.37-9.79,37.05-20.88,71.59-29.77,65.03-16.73,132.32-22.55,191.69-27.68,64.31-5.56,115.1-9.95,134.08-26.18,38-32.5,24.31-73.01,24.17-73.41-.55-1.56.27-3.28,1.83-3.83,1.56-.55,3.28.27,3.83,1.83.16.46,3.94,11.4,2.63,26.77-1.2,14.15-7.13,34.87-28.56,53.2-20.44,17.48-72.08,21.95-137.47,27.6-59.14,5.11-126.17,10.91-190.72,27.51-33.78,8.69-53.1,19.58-70.14,29.18-21.82,12.3-39.43,22.22-76.72,22.22Z" fill="#2b2b2b"/><path d="M294.88,736.61c-15.59,0-35.44-1.95-62.31-6.46-19.68-3.3-48.1-33.42-53.43-49.04-13.36-39.18,28.46-95.55,41.6-111.9.22-.27.38-.47.46-.57.83-1.19,2.42-1.64,3.77-.99,1.49.72,2.12,2.51,1.4,4.01-.17.34-.24.43-.95,1.32-12.65,15.74-52.97,69.92-40.59,106.2,5.28,15.45,32.34,42.31,48.75,45.06,78.61,13.2,94.37,4.51,122.99-11.27,16.74-9.23,37.56-20.71,77.06-31.47,72.74-19.8,148.03-26.69,214.45-32.77,71.99-6.59,128.86-11.79,150.17-31.07,17.9-16.21,27.93-35.84,29.8-58.35,1.4-16.88-2.56-29.16-2.6-29.28-.52-1.57.33-3.27,1.91-3.79,1.58-.52,3.27.33,3.79,1.9.18.54,4.36,13.36,2.91,31.39-1.33,16.63-7.93,40.99-31.77,62.58-22.79,20.63-80.54,25.91-153.65,32.6-66.18,6.05-141.18,12.91-213.42,32.58-38.8,10.57-59.28,21.86-75.74,30.93-19.22,10.59-33.35,18.39-64.56,18.39Z" fill="#2b2b2b"/></svg>