<?xml version="1.0" encoding="UTF-8"?><svg id="_レイヤー_3" xmlns="http://www.w3.org/2000/svg" width="1000" height="1000" viewBox="0 0 1000 1000"><path d="M245.83,870.6c3.86,0,7.16,3.01,6.85,6.69l-2.85,33.54c-.2,2.4-1.94,4.45-4.46,5.19-19.85,5.88-34.68-.93-41.06-4.88-2.14-1.33-3.26-3.64-2.91-5.94l4.92-32.79c.41-2.7,2.67-4.6,5.34-5.04,1.36-.22,2.83-.06,4.22.56,11,4.9,21.36,4.32,28.41,2.83.52-.11,1.03-.16,1.54-.16Z" fill="#555"/><path d="M770.47,908c.18,2.4-1.22,4.7-3.58,5.83-18.68,8.95-34.39,4.57-41.32,1.68-2.32-.96-3.79-3.07-3.81-5.4l-.33-33.15c-.02-2.42,1.48-4.45,3.61-5.47,1.5-.72,3.31-.95,5.12-.47,11.63,3.09,21.77.88,28.5-1.7.88-.34,1.79-.5,2.67-.5,3.36,0,6.39,2.31,6.64,5.62l2.5,33.56Z" fill="#555"/><path d="M713.54,740.07l-.4.03c-11.57,2.31-21.02-.02-26.03-1.82-2.36-.85-3.94-2.88-4.08-5.2l-1.97-33.1c-.17-2.75,1.67-5.08,4.22-6.05,1.27-.48,2.73-.63,4.2-.31,7.7,1.64,14.64,1.05,20.36-.37,1.27,16.27,2.52,31.96,3.7,46.82Z" fill="#555"/><path d="M228.32,694.65l-4.64,46.69-2.73-.27c-5.82-.67-15.84-1.61-18.98-2.68-2.76-.95-4.49-3.05-4.5-5.37l5.28-33.51c-.01-3.21,3.32-6.22,7.14-6.5,1.08-.09,2.21.05,3.31.47,3.73,1.42,12.96.89,14.09,1.07l1.03.1Z" fill="#555"/><path d="M683.07,326.38l-.57.03-1.66-14.76c-9.46-.08-20.37-.18-32.39-.3-116.6-1.14-337.51-3.81-345.84-3.59l2.5-26.05s4.48-55.57,46.61-55.57h277.84s51.98.9,51.98,62.74c0,7.05.55,20.03,1.53,37.5Z" fill="#c7ccd1"/><path d="M205.75,173.86c-.41-1.72-.45-3.62,0-5.51l21.07-81.89c.93-3.92,3.7-5.63,6.85-5.63h521.72c3.21,0,6.02,2.77,6.9,6.79l32.59,80.93c.38,1.74.35,3.48,0,5.07-.84,3.85-3.54,6.81-6.9,6.81H212.6c-3.3,0-5.96-2.85-6.85-6.57Z" fill="#e7c79e"/><path d="M794.88,173.62v21.26c0,6.34-3.96,11.47-8.83,11.45l-30.42-.12-92.97-.38-346.79-1.41-82.14-.33-19.21-.08c-4.85-.02-8.77-5.14-8.77-11.45v-18.7c.89,3.72,3.55,6.57,6.85,6.57h575.38c3.36,0,6.06-2.96,6.9-6.81Z" fill="#c9a57a"/><path d="M302.61,307.76l-30.06,313.5-2.28,23.79-13.9,145.02-2.67,27.78-5.05,52.71-2.82.04c-.51,0-1.02.05-1.54.16-7.05,1.49-17.41,2.07-28.41-2.83-1.39-.62-2.86-.78-4.22-.56l-.36-1.69,12.38-124.34,4.64-46.69,38.67-388.45,4.06-40.82s3.89-55.27,44.82-60.95h0s346.79,1.4,346.79,1.4v.23c40.93,5.67,44.81,60.94,44.81,60.94l4.14,44.91,51.19,555.16-1.47,1.75c-.88,0-1.79.16-2.67.5-6.73,2.58-16.87,4.79-28.5,1.7-1.81-.48-3.62-.25-5.12.47l-1.08-1.83s-1.61-19.73-4.21-51.95c-.68-8.44-1.43-17.73-2.23-27.75-1.21-15.12-2.55-31.9-3.98-49.89-1.18-14.86-2.43-30.55-3.7-46.82-10.05-127.52-22.5-290.31-26.77-366.87-.98-17.47-1.53-30.45-1.53-37.5,0-61.84-51.98-62.74-51.98-62.74h-277.84c-42.13,0-46.61,55.57-46.61,55.57l-2.5,26.05Z" fill="#c7ccd1"/><path d="M755.63,206.82v62.14c0,38.24-32.85,42.02-32.85,42.02,0,0-5.88.98-11.17.93l-4.14-44.91s-3.88-55.27-44.81-60.94v-.23l92.97.38v.61Z" fill="#c7ccd1"/><path d="M719.75,817.71l-1.79.14H253.7l2.67-27.78h459.8l1.35-.11c.8,10.02,1.55,19.31,2.23,27.75Z" fill="#c7ccd1"/><path d="M677.54,621.27c-9.27-94.73-25.06-257.56-29.11-307.99l.02-1.93c12.02.12,22.93.22,32.39.3l1.66,14.76.57-.03c4.27,76.56,16.72,239.35,26.77,366.87-5.72,1.42-12.66,2.01-20.36.37-1.47-.32-2.93-.17-4.2.31l-.85-2.53s-1.79-18.04-4.57-46.39c-.71-7.28-1.48-15.23-2.32-23.74Z" fill="#c7ccd1"/><path d="M679.86,645.01l-1.63.16h-406.75l-1.21-.12,2.28-23.79h.13s404.86.01,404.86.01c.84,8.51,1.61,16.46,2.32,23.74Z" fill="#c7ccd1"/><path d="M315.87,204.42h0c-40.93,5.69-44.82,60.96-44.82,60.96l-4.06,40.82-.26-.03c-3.26,0-6.2-.27-8.85-.74-23.8-4.29-24.16-25.71-24.16-25.71v-75.63s82.15.33,82.15.33Z" fill="#c7ccd1"/><path d="M266.99,306.2l-38.67,388.45-1.03-.1c-1.13-.18-10.36.35-14.09-1.07-1.1-.42-2.23-.56-3.31-.47l-.08-1.05,47.86-385.4.21-1.13c2.65.47,5.59.74,8.85.74l.26.03Z" fill="#c7ccd1"/><path d="M787.98,183.43H212.6c-4.57,0-8.5-3.57-9.77-8.87-.54-2.26-.54-4.64,0-6.9l21.08-81.94c1.15-4.84,4.89-7.88,9.75-7.88h521.72c4.54,0,8.52,3.64,9.77,8.89l32.5,80.71c.06.16.11.32.15.48.46,2.09.46,4.29,0,6.36-1.18,5.4-5.22,9.16-9.83,9.16ZM233.67,83.83c-2.11,0-3.4,1.09-3.93,3.32l-21.08,81.95c-.31,1.3-.31,2.72.01,4.07.6,2.51,2.22,4.27,3.93,4.27h575.38c1.76,0,3.4-1.83,3.97-4.45,0,0,0,0,0,0,.25-1.15.27-2.38.05-3.56l-32.49-80.68c-.06-.16-.11-.32-.15-.48-.56-2.57-2.23-4.43-3.97-4.43H233.67Z" fill="#2b2b2b"/><path d="M786.08,209.33h-.04l-123.39-.5-346.79-1.41-101.35-.41c-6.48-.03-11.76-6.51-11.76-14.45v-20.21c0-1.66,1.34-3,3-3s3,1.34,3,3v20.21c0,4.57,2.65,8.44,5.78,8.45l571.53,2.32c1.47.02,2.57-.8,3.25-1.48,1.61-1.6,2.57-4.21,2.57-6.97v-22.33c0-1.66,1.34-3,3-3s3,1.34,3,3v22.33c0,4.39-1.58,8.48-4.34,11.22-2.09,2.08-4.74,3.23-7.46,3.23Z" fill="#2b2b2b"/><path d="M229.89,921.34c-12.48,0-21.88-4.38-27.16-7.65-3.14-1.95-4.83-5.46-4.3-8.94l4.92-32.78c.58-3.85,3.73-6.88,7.82-7.55,2.01-.33,4.06-.06,5.93.78,10.38,4.62,20.18,3.98,26.57,2.63.7-.15,1.43-.22,2.16-.22,2.87,0,5.6,1.18,7.5,3.24,1.72,1.87,2.55,4.25,2.34,6.7l-2.85,33.54c-.3,3.66-2.9,6.73-6.6,7.81-5.88,1.74-11.35,2.44-16.33,2.44ZM212.83,870.28c-.23,0-.46.02-.69.06-1.26.21-2.63,1.07-2.85,2.53l-4.92,32.78c-.17,1.13.41,2.25,1.53,2.95,6.52,4.04,20.22,10,38.62,4.55,1.32-.39,2.22-1.39,2.32-2.56l2.85-33.54c.08-.97-.38-1.7-.78-2.14-.95-1.03-2.58-1.51-4-1.21-7.26,1.53-18.4,2.26-30.25-3.02-.59-.26-1.21-.39-1.83-.39Z" fill="#2b2b2b"/><path d="M744.16,922.19c-8.5,0-15.36-2.09-19.74-3.91-3.4-1.41-5.62-4.6-5.66-8.14l-.33-33.15c-.03-3.48,2.01-6.62,5.32-8.21,2.22-1.07,4.78-1.3,7.18-.66,10.97,2.92,20.55.74,26.66-1.6,1.2-.46,2.46-.7,3.74-.7,5.04,0,9.28,3.69,9.63,8.39l2.5,33.56c.27,3.65-1.8,7.09-5.28,8.76-8.8,4.22-16.98,5.66-24.03,5.66ZM728.23,873.77c-.66,0-1.3.14-1.89.43-1.21.58-1.92,1.6-1.91,2.74l.33,33.14c0,1.15.76,2.16,1.96,2.66,7.1,2.96,21.57,6.68,38.88-1.61,1.23-.59,1.97-1.73,1.88-2.9l-2.5-33.56c-.13-1.78-1.96-2.84-3.65-2.84-.54,0-1.08.1-1.59.3-6.94,2.66-17.83,5.13-30.35,1.8-.38-.1-.77-.15-1.16-.15Z" fill="#2b2b2b"/><path d="M248.65,873.56c-.1,0-.19,0-.29-.01-1.65-.16-2.86-1.62-2.7-3.27l23.9-249.3,32.56-339.55c.04-.54,1.23-14.54,7.77-28.75,8.88-19.32,23.35-29.53,41.83-29.53h277.84c.62.01,14.02.33,27.56,8.62,12.51,7.66,27.42,23.78,27.42,57.12,0,6.73.51,19.3,1.53,37.33,4.29,76.85,16.92,241.89,26.77,366.8,1.08,13.89,2.15,27.36,3.18,40.25l.52,6.57c1.43,17.99,2.77,34.77,3.98,49.89.65,8.17,1.27,15.85,1.85,22.99l.38,4.76c2.6,32.22,4.21,51.95,4.21,51.95.13,1.65-1.09,3.1-2.75,3.23-1.66.13-3.1-1.1-3.23-2.75,0,0-1.61-19.73-4.21-51.95l-.38-4.76c-.57-7.14-1.19-14.82-1.85-22.99-1.21-15.12-2.55-31.9-3.98-49.89l-.52-6.57c-1.02-12.89-2.09-26.36-3.18-40.25-9.85-124.94-22.48-290.03-26.77-366.94-1.02-18.15-1.54-30.82-1.54-37.67,0-58.05-47.04-59.7-49.04-59.74h-277.78c-16.15,0-28.37,8.71-36.31,25.9-6.13,13.26-7.29,26.78-7.3,26.91l-56.46,588.89c-.15,1.55-1.46,2.71-2.98,2.71Z" fill="#2b2b2b"/><path d="M211.3,868.68c-.1,0-.2,0-.3-.02-1.65-.16-2.85-1.63-2.69-3.28l59.75-600.3c.03-.5,1.07-14.39,7.28-29.21,8.4-20.04,22.27-31.94,40.11-34.42,1.64-.22,3.16.92,3.38,2.56.23,1.64-.92,3.16-2.56,3.38-38.08,5.28-42.2,57.66-42.24,58.19l-4.07,40.91-38.67,388.45-17.02,171.03c-.15,1.55-1.46,2.7-2.98,2.7Z" fill="#2b2b2b"/><path d="M762.8,870.07c-1.53,0-2.84-1.17-2.98-2.72l-55.33-600.07c-.04-.59-4.22-52.98-42.23-58.24-1.64-.23-2.79-1.74-2.56-3.38.23-1.64,1.75-2.79,3.38-2.56,17.84,2.47,31.71,14.37,40.11,34.41,6.21,14.81,7.24,28.71,7.28,29.29l55.33,600c.15,1.65-1.06,3.11-2.71,3.26-.09,0-.19.01-.28.01Z" fill="#2b2b2b"/><path d="M712.01,314.91c-.14,0-.28,0-.42,0-1.66-.02-2.99-1.37-2.97-3.03s1.35-2.98,3.03-2.97c.12,0,.24,0,.37,0,4.86,0,10.23-.88,10.28-.89.05,0,.1-.02.15-.02,1.23-.15,30.19-4.03,30.19-39.04v-62.14c0-1.66,1.34-3,3-3s3,1.34,3,3v62.14c0,39.28-33.16,44.67-35.39,44.98-.54.09-6.02.97-11.23.97Z" fill="#2b2b2b"/><path d="M680.84,314.65h-.03c-9.46-.08-20.37-.18-32.39-.3-48.07-.47-112.69-1.19-175.18-1.88-85.22-.95-165.7-1.84-170.55-1.71h-.21c-1.66,0-3-1.34-3-3s1.34-3,3-3h.13c4.87-.12,81.72.72,170.69,1.71,62.49.69,127.11,1.41,175.18,1.88,12.02.12,22.93.22,32.39.3,1.66.01,2.99,1.37,2.97,3.03-.01,1.65-1.35,2.97-3,2.97Z" fill="#2b2b2b"/><path d="M266.73,309.17c-3.28,0-6.43-.26-9.37-.79-25.93-4.67-26.63-28.37-26.64-28.61v-74.14c0-1.66,1.34-3,3-3s3,1.34,3,3v74.09c.02.71.7,18.97,21.69,22.76,2.59.46,5.39.69,8.32.69,1.66,0,3,1.34,3,3s-1.34,3-3,3Z" fill="#2b2b2b"/><path d="M703.46,744.06c-7.7,0-13.84-1.69-17.36-2.95-3.47-1.25-5.85-4.33-6.06-7.84l-1.97-33.1c-.24-3.91,2.23-7.54,6.15-9.03,1.89-.72,3.93-.87,5.91-.44,6.25,1.33,12.62,1.22,18.93-.33.27-.08.54-.12.82-.12,1.66,0,3,1.34,3,3,0,1.37-.91,2.52-2.16,2.88-.05.01-.1.03-.15.04-7.22,1.79-14.52,1.92-21.71.39-1.07-.23-1.96-.03-2.51.18-1.11.42-2.38,1.48-2.29,3.06l1.97,33.11c.07,1.13.87,2.11,2.1,2.56,4.4,1.58,13.42,3.9,24.43,1.7,1.63-.33,3.21.73,3.53,2.35.32,1.62-.73,3.21-2.35,3.53-3.64.73-7.09,1.02-10.27,1.02Z" fill="#2b2b2b"/><path d="M684.43,694.4c-1.52,0-2.83-1.16-2.98-2.7,0,0-1.79-18.04-4.57-46.39l-.53-5.39c-.56-5.76-1.16-11.89-1.79-18.35-9.11-93.1-25.01-256.91-29.12-308.04-.13-1.65,1.1-3.1,2.75-3.23,1.67-.14,3.1,1.1,3.23,2.75,4.1,51.09,20,214.86,29.11,307.94.64,6.45,1.23,12.59,1.8,18.35l.52,5.39c2.78,28.35,4.57,46.38,4.57,46.38.16,1.65-1.04,3.12-2.69,3.28-.1,0-.2.01-.3.01Z" fill="#2b2b2b"/><path d="M682.5,329.41c-1.51,0-2.8-1.13-2.98-2.67l-1.66-14.76c-.18-1.65,1-3.13,2.65-3.32,1.64-.19,3.13,1,3.32,2.65l1.66,14.76c.18,1.65-1,3.13-2.65,3.32-.11.01-.23.02-.34.02Z" fill="#2b2b2b"/><path d="M220.95,744.07c-.11,0-.23,0-.35-.02-1.02-.12-2.18-.24-3.4-.38-7.54-.82-13.52-1.53-16.21-2.44-3.96-1.36-6.52-4.58-6.53-8.2,0-.16.01-.32.04-.48l5.25-33.3c.15-4.65,4.63-8.84,9.92-9.23,1.55-.13,3.11.09,4.6.66,2.23.85,7.93.83,10.69.83,1.61,0,2.29,0,2.8.08,1.64.26,2.75,1.8,2.49,3.43-.26,1.64-1.81,2.75-3.43,2.49-.15-.01-1.06,0-1.85,0-4.84,0-9.82-.08-12.84-1.22-.64-.25-1.31-.34-1.99-.28-2.45.18-4.39,2.06-4.39,3.5,0,.16-.01.32-.04.48l-5.23,33.21c.11.97,1.05,1.88,2.47,2.37,2.26.77,9.88,1.6,14.91,2.15,1.24.14,2.4.26,3.43.38,1.65.19,2.83,1.68,2.64,3.32-.18,1.53-1.47,2.66-2.98,2.66Z" fill="#2b2b2b"/><path d="M209.81,694.96c-.12,0-.25,0-.37-.02-1.64-.2-2.81-1.7-2.61-3.35l47.86-385.4c.21-1.64,1.7-2.81,3.35-2.61,1.64.2,2.81,1.7,2.61,3.35l-47.86,385.4c-.19,1.52-1.48,2.63-2.97,2.63Z" fill="#2b2b2b"/><path d="M716.17,793.07h-459.78c-1.66,0-3-1.34-3-3s1.34-3,3-3h459.78c1.66,0,3,1.34,3,3s-1.34,3-3,3Z" fill="#2b2b2b"/><path d="M717.96,820.85H253.7c-1.66,0-3-1.34-3-3s1.34-3,3-3h464.26c1.66,0,3,1.34,3,3s-1.34,3-3,3Z" fill="#2b2b2b"/><path d="M678.23,624.27h-405.55c-1.66,0-3-1.34-3-3s1.34-3,3-3h405.55c1.66,0,3,1.34,3,3s-1.34,3-3,3Z" fill="#2b2b2b"/><path d="M678.23,648.17h-406.75c-1.66,0-3-1.34-3-3s1.34-3,3-3h406.75c1.66,0,3,1.34,3,3s-1.34,3-3,3Z" fill="#2b2b2b"/></svg>