<?xml version="1.0" encoding="UTF-8"?><svg id="_レイヤー_5" xmlns="http://www.w3.org/2000/svg" width="1000" height="1000" viewBox="0 0 1000 1000"><path d="M640.17,427.76l1.02,38.83s-.12.18-.33.49c-1.9,2.73-11.76,15.76-22.76,8.92l-.08-1.81-1.84-41.96c9.55-9.96,18.1-7.63,21.91-5.74,1.34.66,2.08,1.27,2.08,1.27Z" fill="#c74444"/><ellipse cx="142.24" cy="766.69" rx="24.63" ry="28.26" fill="#d9d9d9"/><path d="M362.49,103.16l18.55,51.78-.3,2.65-51.13-5.37.09-.81c-.08.49,13.35-80.55,53.92-84.06-16.83,3.62-26.7,20.27-21.13,35.81Z" fill="#fff5f5"/><path d="M410.64,915.87l-245.68-60.88.02-.06c-5.18-6.28-2.83-25.79-2.83-25.79l.23-.9,246.4,58.71-.71,2.73,2.82,25.3-.24.89Z" fill="#c74444"/><path d="M852.49,176.28c51.92,98.64,139.02,339.81,22.42,587.75-15.48,32.94-35.01,63.93-70.3,77.17l-43.5,16.32-.69-.28c4.4-9.91,4.04-19.54,4.04-19.54v-90.67h1.05c140.07-82.96,59.7-526.96-31.38-577.15l-.22-.81c41.12-10.02,93.4-16.24,118.23,7.38l.35-.17Z" fill="#fff5f5"/><path d="M125.83,818.88l-.42,1.3s-2.31,13.46,4.55,25.49c-10.86-4.28-20.44-11.14-27.5-20.17-4.74-6.06-8.62-13.3-9.56-21.36v-.97c7.61,6.78,15.83,10.7,32.92,15.71Z" fill="#c74444"/><path d="M633.82,236.1c-80.56,17.48-80.08,205.04-80.08,205.04v.46c-18.91-.18-32.1-2.65-32.1-2.65l-1.94-.26c16.59-111.66,52.96-206.64,131.16-222.26,20.15-4.02,45.93-2.88,59.86,11.55,7.87,8.15,14.8,20.04,19.58,38.38-1.29-3.48-19.11-47.04-96.47-30.26Z" fill="#c74444"/><path d="M730.33,266.48s-.02-.08-.04-.12c-4.78-18.34-11.71-30.23-19.58-38.38-13.93-14.43-39.71-15.57-59.86-11.55-78.2,15.62-114.57,110.6-131.16,222.26-2.02,13.58-3.74,27.4-5.21,41.35-13.7,129.68-5.56,270.92-7.4,333.35-.38,12.95-.7,27.04-1.39,35.01-4.57,53.89-64.51,46.26-64.51,46.26l-32.39-7.71-246.4-58.71-16.71-3.98c-7.75-2-14.27-3.74-19.84-5.38-17.09-5.01-25.31-8.93-32.91-15.71-1.05-.93-2.08-1.91-3.12-2.96-18.52-18.61-19.51-41.48-19.51-41.48-11.67-92.53,12.8-296.8,24.45-384.32,5.72-42.94,19.42-84.64,41-122.75,64.08-113.13,143.09-104.78,143.09-104.78l26.79,2.81-.04.37s-207.28,21.51-199.38,505.8c0,0-6.28,37.04,75.37,50.19,81.66,13.14,248.84,48.79,248.84,48.79,0,0,45.41,21.51,45.41-49,0,0-3.69-190.8,26.46-371.84,7.62-45.73,36.23-94.44,73.64-124.05,15.12-11.95,42.16-22.82,79.4-23.51l8.06.85c55.2,5.8,98.35,48.69,100.97,101.46.05.93.08,1.87.12,2.82v546.13s.37,9.63-4.04,19.54c-5.04,11.32-16.29,23-41.44,21.09l-2.68-.58c17.96-15.55,16.02-44.33,16.02-44.33l1.14-390.17.13-43.03c6.23-64.85,3.85-106.44-3.26-133.74ZM415.34,818.98c0-15.61-11.99-28.26-26.8-28.26s-26.79,12.65-26.79,28.26,11.99,28.26,26.79,28.26,26.8-12.66,26.8-28.26ZM166.87,766.69c0-15.6-11.03-28.26-24.63-28.26s-24.63,12.66-24.63,28.26,11.03,28.26,24.63,28.26,24.63-12.65,24.63-28.26Z" fill="#c74444"/><path d="M852.49,176.28l-.35.17c-24.83-23.62-77.11-17.4-118.23-7.38-32.22,7.86-57.6,18.04-57.6,18.04-7.33-.59-14.33-.79-21-.67l-27.2-2.85h0s.04-.33.04-.33c-10.35-27.18-20.55-50.4-40.06-65.42,24.26-20.43,60.89-39.46,103.29-32.01,0,0,112,4.52,156.03,81.06,1.64,2.97,3.33,6.1,5.07,9.39Z" fill="#c74444"/><path d="M588.1,117.84c19.51,15.02,29.71,38.24,40.06,65.42l-.04.32-27.29-2.86c-.37-.83-12.28-27.29-31.83-45.89-10.13-9.64-22.31-17.17-35.99-17.93-6.1-.34-11.69.58-16.79,2.38-27.66,9.75-40.72,45.48-41.68,48.17l-32.47-3.42c2.04-4.62,26.71-58.36,77.47-63.82,4.02-.43,8.19-.56,12.53-.34,25.04,1.27,42.71,7.71,56.04,17.97Z" fill="#c74444"/><path d="M600.83,180.72l-56.76-5.97v-.09s6.98-19.11,24.87-39.79l.05-.04c19.55,18.6,31.46,45.06,31.83,45.89Z" fill="#c74444"/><path d="M516.21,119.28l-7.34,51.3-.05.47-34.29-3.6c.96-2.69,14.02-38.42,41.68-48.17Z" fill="#c74444"/><path d="M553.73,441.14s-.47-187.56,80.08-205.04c77.36-16.78,95.18,26.78,96.47,30.26.02.04.03.08.04.12,7.11,27.3,9.49,68.89,3.26,133.74l-95.36,26-.14.27c-3.81-1.89-12.36-4.22-21.91,5.74-1.86.5-3.69,1.07-5.52,1.65-20.02,6.33-40.61,7.88-56.95,7.72v-.46Z" fill="#c74444"/><polygon points="644.29 529.18 659.36 551.89 648.05 573.4 607.85 565.03 619.79 479.59 641.77 476.6 644.29 529.18" fill="#d9d9d9"/><path d="M388.54,790.72c14.8,0,26.8,12.65,26.8,28.26s-11.99,28.26-26.8,28.26-26.79-12.66-26.79-28.26,11.99-28.26,26.79-28.26Z" fill="#d9d9d9"/><path d="M638.23,426.22l95.36-26-.13,43.03h-2.49s-88.25,24.07-88.25,24.07l-1.85-.24c.21-.31.33-.49.33-.49l-1.02-38.83s-.75-.61-2.08-1.27l.14-.27Z" fill="#c74444"/><path d="M616.19,432.23l1.84,41.96-.57.02c-43.34,14.79-101.21,5.97-101.21,5.97l-1.78-.14c1.47-13.95,3.2-27.77,5.21-41.35l1.94.26s13.19,2.47,32.09,2.65c16.34.16,36.93-1.39,56.95-7.72,1.83-.58,3.66-1.15,5.52-1.65Z" fill="#c74444"/><path d="M164.98,854.93l-.02.06-25.94-6.43c-3.09-.77-6.12-1.73-9.05-2.89-6.86-12.03-4.55-25.49-4.55-25.49l.42-1.3c5.57,1.64,12.09,3.38,19.84,5.38l16.71,3.98-.23.9s-2.35,19.51,2.83,25.79Z" fill="#c74444"/><path d="M442.06,164.03l32.47,3.42,34.29,3.6,35.25,3.7,56.76,5.97,27.29,2.86h0s27.2,2.86,27.2,2.86c-37.23.69-64.28,11.56-79.4,23.51-37.41,29.61-66.02,78.32-73.64,124.05-30.15,181.04-26.46,371.84-26.46,371.84,0,70.51-45.41,49-45.41,49,0,0-167.18-35.65-248.84-48.79-81.65-13.15-75.37-50.19-75.37-50.19-7.91-484.29,199.38-505.8,199.38-505.8l.04-.37,24,2.53,51.13,5.37,61.32,6.44Z" fill="#c74444"/><path d="M641.77,476.6l-21.98,2.99-11.94,85.44,40.2,8.37,11.31-21.51-15.07-22.71-2.51-52.58ZM618.11,476c11,6.84,20.86-6.19,22.76-8.92l1.85.24,88.25-24.08h2.49s-1.14,390.18-1.14,390.18c0,0,1.93,28.78-16.02,44.33-3.76,3.26-8.41,5.94-14.13,7.65l-148.87,53.57s-37.53,4.99-84.79-8.76l-57.88-14.34.24-.89-2.82-25.3.71-2.73,32.39,7.71s59.94,7.63,64.51-46.26c.68-7.97,1.01-22.06,1.39-35.01,1.84-62.43-6.3-203.67,7.4-333.35l1.78.14s57.87,8.82,101.21-5.97l.57-.02.08,1.81Z" fill="#c74444"/><path d="M519.25,98.09l.27,2.12c-50.75,5.46-75.43,59.2-77.47,63.82l-61.32-6.44.3-2.65-18.55-51.78c-5.57-15.54,4.3-32.19,21.13-35.81,38.43-8.26,77.42-7.99,104.58-6.11,19.63,1.36,33.88,18.32,31.05,36.85Z" fill="#c74444"/><path d="M638.23,429.22c-1.32,0-2.53-.88-2.89-2.21-.44-1.6.51-3.25,2.11-3.68l95.36-26c1.59-.44,3.25.51,3.68,2.11.44,1.6-.51,3.25-2.11,3.68l-95.36,26c-.26.07-.53.11-.79.11Z" fill="#2b2b2b"/><path d="M556.01,444.61c-.77,0-1.54,0-2.32-.01-18.95-.18-32.07-2.6-32.62-2.7-1.63-.3-2.7-1.87-2.4-3.5.3-1.63,1.88-2.7,3.5-2.4.13.02,13.19,2.42,31.57,2.6,20.65.2,39.47-2.35,56.01-7.58,1.77-.56,3.67-1.16,5.64-1.69,1.6-.43,3.25.52,3.68,2.12.43,1.6-.52,3.25-2.12,3.68-1.85.5-3.68,1.07-5.39,1.61-16.52,5.23-35.21,7.87-55.57,7.87Z" fill="#2b2b2b"/><path d="M642.72,470.32c-1.32,0-2.53-.88-2.89-2.21-.44-1.6.51-3.25,2.1-3.68l88.25-24.08c1.6-.44,3.25.5,3.68,2.1.44,1.6-.51,3.25-2.1,3.68l-88.25,24.08c-.26.07-.53.11-.79.11Z" fill="#2b2b2b"/><path d="M555.96,485.84c-22.05,0-38.89-2.5-40.17-2.69-1.64-.25-2.76-1.78-2.51-3.42.25-1.64,1.78-2.77,3.42-2.51.57.09,57.67,8.53,99.79-5.84,1.57-.53,3.27.3,3.81,1.87.54,1.57-.3,3.27-1.87,3.81-20.24,6.9-43.32,8.79-62.47,8.79Z" fill="#2b2b2b"/><path d="M628.16,186.26c-1.21,0-2.35-.74-2.8-1.93-10.03-26.34-19.9-49.34-39.09-64.11-13.66-10.51-31.44-16.19-54.36-17.35-4.06-.21-8.11-.1-12.06.33-48.62,5.23-72.48,56.25-75.04,62.05l-.09.2c-.61,1.53-2.33,2.28-3.86,1.69-1.53-.59-2.31-2.31-1.73-3.85,0,0,.06-.17.2-.48,2.7-6.1,27.91-59.98,79.88-65.57,4.26-.46,8.63-.57,13-.35,24.18,1.23,43.06,7.31,57.72,18.59,20.4,15.71,31.05,40.53,41.04,66.73.59,1.55-.19,3.28-1.74,3.87-.35.13-.71.2-1.07.2Z" fill="#2b2b2b"/><path d="M600.84,183.74c-1.18,0-2.2-.68-2.69-1.67-.02-.04-.04-.09-.06-.13-.12-.26-11.96-26.67-31.16-44.93-11.27-10.72-22.74-16.48-34.09-17.11-5.36-.3-10.62.45-15.62,2.21-25.82,9.1-38.36,42.17-39.83,46.27-.08.27-.14.39-.14.39l-5.53-2.33s-.03.05-.06.17c.02-.06.04-.12.06-.17,1.44-4.06,14.91-39.91,43.51-49.99,5.76-2.03,11.79-2.89,17.95-2.55,12.81.71,25.56,7.02,37.89,18.75,19.8,18.83,31.7,45.04,32.48,46.79.19.4.29.84.29,1.29,0,1.66-1.34,3-3,3Z" fill="#2b2b2b"/><path d="M761.12,860.52c-1.21,0-2.36-.74-2.81-1.95-.58-1.55.2-3.28,1.75-3.86l43.5-16.32c35.39-13.28,54.56-45.69,68.63-75.64,125.04-265.91,14.5-515.05-22.36-585.08-1.65-3.12-3.34-6.27-5.04-9.34-22.24-38.66-62.75-58.23-92.82-67.82-32.74-10.45-60.44-11.68-60.71-11.69-.13,0-.27-.02-.4-.04-45.78-8.04-82.84,16.19-100.84,31.35-.04.03-.08.06-.12.09-1.2,1.03-3.02.95-4.12-.21-1.14-1.2-1.1-3.1.1-4.24.1-.1.22-.2.34-.29,18.8-15.82,57.44-41.01,105.49-32.65,2.81.13,29.71,1.62,62.09,11.96,31.07,9.92,72.99,30.22,96.22,70.59,1.74,3.15,3.45,6.33,5.12,9.49,17.33,32.92,59.29,122.09,74.72,238.89,16.46,124.55-1.12,242.82-52.24,351.53-14.59,31.04-34.55,64.67-71.96,78.7l-43.5,16.32c-.35.13-.7.19-1.05.19ZM590.03,120.12s0,0-.01.01c0,0,0,0,.01-.01Z" fill="#2b2b2b"/><path d="M544.08,177.66c-.34,0-.69-.06-1.03-.18-1.56-.57-2.36-2.29-1.79-3.84.29-.8,7.37-19.87,25.41-40.73,1.08-1.25,2.98-1.39,4.23-.31,1.25,1.08,1.39,2.98.31,4.23-17.28,19.97-24.24,38.67-24.31,38.86-.45,1.22-1.59,1.97-2.82,1.97Z" fill="#2b2b2b"/><path d="M765.52,750.03c-1.03,0-2.02-.53-2.58-1.47-.84-1.43-.37-3.27,1.05-4.11,66.97-39.67,75.22-158.11,74.18-225.19-1.11-71.7-13.48-151.46-33.91-218.81-20.5-67.54-46.58-114.17-71.56-127.94-1.45-.8-1.98-2.62-1.18-4.08.8-1.45,2.62-1.98,4.08-1.18,26.73,14.73,53.16,61.41,74.41,131.45,20.59,67.87,33.05,148.22,34.17,220.46,1.06,68.38-7.54,189.24-77.12,230.45-.48.28-1.01.42-1.53.42Z" fill="#2b2b2b"/><path d="M676.32,190.11c-1.19,0-2.32-.71-2.79-1.88-.62-1.54.13-3.28,1.67-3.9.26-.1,25.95-10.35,58-18.17,40.85-9.95,95-16.62,121.01,8.12,1.2,1.14,1.25,3.04.11,4.24-1.14,1.2-3.04,1.25-4.24.11-24.05-22.88-76.06-16.24-115.46-6.64-31.62,7.71-56.94,17.81-57.19,17.91-.37.15-.74.22-1.12.22Z" fill="#2b2b2b"/><path d="M381.05,157.94c-1.23,0-2.39-.76-2.82-1.99l-18.55-51.78c-2.9-8.08-2.18-16.68,2.01-24.22,4.39-7.91,12.16-13.57,21.32-15.54,39.18-8.42,78.95-8,105.41-6.17,10.5.73,20.19,5.73,26.6,13.73,6.1,7.62,8.67,17.06,7.22,26.56-.25,1.64-1.78,2.77-3.42,2.51-1.64-.25-2.76-1.78-2.51-3.42,1.19-7.83-.92-15.61-5.97-21.91-5.36-6.69-13.5-10.88-22.33-11.5-26.08-1.81-65.25-2.22-103.74,6.05-7.46,1.6-13.78,6.19-17.33,12.59-3.34,6-3.91,12.85-1.6,19.28l18.55,51.78c.56,1.56-.25,3.28-1.81,3.84-.33.12-.68.18-1.01.18Z" fill="#2b2b2b"/><path d="M508.88,173.58c-.14,0-.28-.01-.43-.03-1.64-.23-2.78-1.75-2.54-3.39l7.38-51.54c.26-1.64,1.79-2.75,3.43-2.5,1.64.26,2.76,1.79,2.5,3.43l-.03.2-7.33,51.26c-.21,1.5-1.5,2.58-2.97,2.58Z" fill="#2b2b2b"/><path d="M329.71,154.41c-.08,0-.17,0-.26-.01-1.55-.13-2.75-1.43-2.75-2.99,0-.06.02-.23.06-.51h-.02c.02-.11.04-.21.07-.31.67-4.12,4.4-22.73,11.91-41.05,11.64-28.43,26.66-43.63,44.64-45.19,1.65-.15,3.1,1.08,3.25,2.73.14,1.65-1.08,3.1-2.73,3.25-37.69,3.26-50.99,80.21-51.21,81.55,0,.01,0,.02,0,.03-.25,1.45-1.51,2.5-2.96,2.5Z" fill="#2b2b2b"/><path d="M361.89,905.88c-1.55,0-2.87-1.2-2.99-2.77l-1.78-23.56c-.12-1.65,1.11-3.09,2.77-3.22,1.66-.12,3.09,1.11,3.22,2.77l1.78,23.56c.12,1.65-1.11,3.09-2.77,3.22-.08,0-.15,0-.23,0Z" fill="#2b2b2b"/><path d="M410.88,917.98c-1.51,0-2.81-1.13-2.98-2.67l-2.82-25.3c-.18-1.65,1-3.13,2.65-3.31,1.65-.19,3.13,1,3.31,2.65l2.82,25.3c.18,1.65-1,3.13-2.65,3.31-.11.01-.23.02-.34.02Z" fill="#2b2b2b"/><path d="M130.12,848.96c-1.08,0-2.12-.58-2.66-1.6-.06-.1-.11-.19-.16-.3-7.25-12.79-4.95-26.8-4.85-27.39.28-1.63,1.83-2.73,3.46-2.45,1.63.28,2.73,1.83,2.45,3.46-.03.15-2.01,12.61,4.2,23.5.03.06.06.11.09.17.04.08.08.14.12.21.77,1.47.21,3.28-1.26,4.05-.45.23-.92.35-1.4.35ZM132.72,844.5s0,0,0,0c0,0,0,0,0,0ZM132.72,844.5s0,0,0,0c0,0,0,0,0,0ZM132.72,844.49h0s0,0,0,0Z" fill="#2b2b2b"/><path d="M164.98,857.93c-.86,0-1.72-.37-2.32-1.09-5.83-7.07-3.75-25.93-3.49-28.06.2-1.65,1.7-2.82,3.34-2.62,1.65.2,2.82,1.69,2.62,3.34-.85,7.05-1.01,19.68,2.16,23.52,1.05,1.28.87,3.17-.4,4.22-.56.46-1.24.69-1.91.69Z" fill="#2b2b2b"/><path d="M448.83,898.05c-4.62,0-7.67-.37-8.05-.42-.11-.01-.21-.03-.32-.06l-32.39-7.71-263.11-62.69c-8.98-2.32-14.94-3.93-19.99-5.42-17.52-5.14-26.12-9.26-34.06-16.35-1.07-.94-2.13-1.96-3.26-3.09-18.58-18.67-20.25-41.18-20.37-43.33-11.74-93.36,13.2-300.31,24.47-384.98,5.87-44.07,19.78-85.73,41.36-123.83,33.51-59.16,71.24-84.91,96.99-96.09,28.16-12.23,48.19-10.29,49.03-10.2l349.29,36.7c.08,0,.16.02.24.04l35.02,3.68c27.44,2.88,53.01,14.95,72.01,33.98,19.1,19.13,30.34,44.1,31.64,70.31.05.93.08,1.9.12,2.87v546.18c.03.97.2,10.7-4.29,20.81-5.15,11.58-17.03,24.95-44.41,22.86-1.65-.13-2.89-1.57-2.76-3.22.12-1.65,1.57-2.9,3.22-2.76,19.17,1.45,32.12-5.04,38.47-19.32,4.05-9.11,3.78-18.12,3.78-18.21,0-.04,0-.07,0-.11V291.57c-.03-.83-.06-1.74-.11-2.65-2.55-51.45-43.89-92.93-98.29-98.65l-35.26-3.7c-.08,0-.16-.02-.24-.03l-349.05-36.68c-.19-.02-19.59-1.83-46.4,9.9-24.8,10.86-61.2,35.87-93.77,93.37-21.2,37.43-34.87,78.36-40.63,121.67-11.24,84.47-36.13,290.93-24.45,383.55.01.08.02.16.02.25.01.21,1.22,21.99,18.64,39.49,1.03,1.04,2.01,1.97,2.98,2.83,7.2,6.42,15.22,10.23,31.77,15.08,4.98,1.47,10.89,3.07,19.74,5.35l295.27,70.35c2.16.24,28.15,2.72,45.42-11.27,9.15-7.41,14.39-18.27,15.58-32.28.58-6.8.91-18.33,1.22-29.48l.15-5.37c.54-18.22.22-43.47-.15-72.72-.9-71.31-2.14-168.98,7.57-260.86,1.52-14.38,3.28-28.34,5.23-41.48,9.2-61.93,23.6-111.76,42.79-148.1,22.93-43.42,53.46-69.21,90.75-76.66,20.52-4.09,47.75-2.98,62.6,12.41,9.19,9.51,15.84,22.5,20.33,39.71.42,1.6-.54,3.24-2.15,3.66-1.61.42-3.24-.54-3.66-2.15-4.22-16.18-10.38-28.3-18.84-37.05-13.18-13.65-38.15-14.48-57.11-10.69-35.43,7.08-64.58,31.83-86.62,73.57-18.88,35.74-33.06,84.93-42.16,146.19-1.94,13.06-3.69,26.93-5.2,41.22-9.67,91.53-8.44,188.99-7.54,260.16.37,29.31.69,54.62.15,72.97l-.15,5.36c-.32,11.23-.65,22.85-1.24,29.82-1.33,15.72-7.33,27.99-17.81,36.46-13.76,11.12-31.77,12.93-42.02,12.93Z" fill="#2b2b2b"/><path d="M535.31,942.88c-15.61,0-39.84-1.72-67.57-9.78l-329.45-81.64c-3.26-.81-6.43-1.83-9.43-3.01-11.58-4.56-21.53-11.86-28.76-21.11-5.86-7.49-9.28-15.18-10.17-22.86-.19-1.65.99-3.14,2.63-3.33,1.64-.19,3.13.99,3.33,2.63.76,6.57,3.77,13.25,8.94,19.86,6.58,8.41,15.65,15.05,26.24,19.23,2.76,1.09,5.68,2.02,8.68,2.77l329.51,81.65s.08.02.12.03c43.84,12.75,79.62,9.12,83.26,8.7l148.55-53.46c.05-.02.1-.04.16-.05,4.96-1.48,9.34-3.85,13.02-7.04,16.63-14.41,15.01-41.59,14.99-41.86,0-.07,0-.14,0-.21l1.26-433.2c0-.09,0-.19.01-.28,5.69-59.22,4.65-102.62-3.18-132.7-.42-1.6.54-3.24,2.15-3.66,1.61-.42,3.24.54,3.66,2.15,8,30.74,9.1,74.79,3.36,134.64l-1.26,432.96c.14,2.32,1.42,30.68-17.06,46.69-4.31,3.73-9.41,6.5-15.15,8.23l-148.79,53.54c-.2.07-.41.12-.62.15-.64.09-7.38.94-18.39.94Z" fill="#2b2b2b"/><path d="M624.64,480.98c-2.66,0-5.39-.74-8.12-2.44-.84-.52-1.37-1.42-1.41-2.41l-.08-1.81-1.84-41.97c-.04-.82.26-1.62.83-2.21,11.12-11.6,21.47-8.31,25.41-6.35,1.56.77,2.48,1.5,2.65,1.63.68.55,1.08,1.37,1.1,2.24l1.02,38.83c.02.6-.15,1.19-.47,1.69,0,0-.13.2-.37.56-4.58,6.57-11.36,12.22-18.71,12.22ZM621.03,474.16c7.68,3.39,14.75-5.12,17.14-8.46l-.95-36.29c-.14-.08-.29-.16-.45-.24-3.29-1.63-9.84-3.17-17.52,4.23l1.79,40.75Z" fill="#2b2b2b"/><path d="M648.05,576.4c-.2,0-.41-.02-.61-.06l-40.2-8.37c-1.55-.32-2.58-1.79-2.36-3.35l11.94-85.44c.19-1.33,1.23-2.38,2.57-2.56l21.98-2.99c.83-.11,1.68.13,2.32.67.65.54,1.04,1.32,1.08,2.16l2.47,51.75,14.62,22.02c.61.91.67,2.08.16,3.06l-11.31,21.51c-.53,1-1.56,1.6-2.65,1.6ZM611.21,562.66l35.24,7.34,9.43-17.93-14.09-21.23c-.3-.45-.47-.98-.5-1.52l-2.36-49.31-16.48,2.24-11.24,80.41Z" fill="#2b2b2b"/><path d="M445.43,759.68c-.96,0-1.74-.77-1.75-1.73-.01-.97.76-1.76,1.73-1.77,11.33-.14,19.45-6.52,24.12-18.96.34-.91,1.35-1.36,2.25-1.02.9.34,1.36,1.35,1.02,2.25-6.51,17.35-18.47,21.12-27.35,21.23h-.02ZM433.62,757.81c-.18,0-.36-.03-.54-.08-1.62-.52-2.75-1-3.23-1.21-1.58-.34-13.13-2.8-30.82-6.49-.95-.2-1.55-1.12-1.35-2.07s1.13-1.55,2.07-1.35c19.07,3.98,31.02,6.53,31.02,6.53h0c.13.03.25.07.38.13.2.09,1.28.58,3.01,1.14.92.3,1.42,1.28,1.13,2.2-.24.74-.93,1.21-1.67,1.21ZM387.61,747.6c-.12,0-.24-.01-.36-.04-10.23-2.13-21.85-4.53-34.33-7.08-.95-.19-1.56-1.12-1.36-2.07.19-.95,1.12-1.56,2.07-1.36,12.49,2.56,24.11,4.96,34.35,7.08.95.2,1.55,1.12,1.36,2.07-.17.83-.9,1.39-1.71,1.39ZM341.49,738.12c-.12,0-.23-.01-.35-.04-11.04-2.25-22.6-4.58-34.36-6.93-.95-.19-1.56-1.11-1.37-2.06.19-.95,1.12-1.56,2.06-1.37,11.77,2.35,23.33,4.68,34.37,6.93.95.19,1.56,1.12,1.37,2.06-.17.83-.9,1.4-1.71,1.4ZM295.34,728.84c-.11,0-.23-.01-.34-.03-12.02-2.38-23.59-4.64-34.4-6.72-.95-.18-1.57-1.1-1.39-2.05s1.1-1.57,2.05-1.39c10.81,2.08,22.39,4.34,34.41,6.72.95.19,1.56,1.11,1.38,2.06-.17.83-.9,1.41-1.71,1.41ZM474.23,728c-.1,0-.2,0-.31-.03-.95-.17-1.59-1.08-1.42-2.03,1.04-5.87,1.56-12.63,1.56-20.11h.03c-.04-.32-.04-.64-.05-.92,0-.63-.02-1.56-.04-2.79-.03-2.45-.06-6.08-.08-10.77,0-.97.78-1.75,1.74-1.76h0c.96,0,1.75.78,1.75,1.74.03,9.33.13,14.4.13,14.46,0,7.71-.54,14.69-1.61,20.75-.15.85-.89,1.45-1.72,1.45ZM249.13,719.87c-.11,0-.22-.01-.33-.03-12.43-2.36-24.03-4.51-34.46-6.38-.95-.17-1.58-1.08-1.41-2.03.17-.95,1.08-1.58,2.03-1.41,10.44,1.88,22.04,4.03,34.49,6.39.95.18,1.57,1.1,1.39,2.05-.16.84-.89,1.42-1.72,1.42ZM202.82,711.38c-.1,0-.2,0-.3-.03-7.72-1.35-14.86-2.55-21.23-3.58-4.62-.74-9.11-1.59-13.33-2.51-.94-.21-1.54-1.14-1.34-2.08.21-.94,1.14-1.55,2.08-1.34,4.16.91,8.58,1.74,13.14,2.48,6.39,1.03,13.54,2.23,21.28,3.58.95.17,1.59,1.07,1.42,2.03-.15.85-.89,1.45-1.72,1.45ZM156.7,702.4c-.16,0-.32-.02-.48-.07-13.13-3.74-24.02-8.55-32.36-14.3-.8-.55-1-1.64-.45-2.43s1.64-1,2.43-.45c8.03,5.53,18.58,10.18,31.34,13.81.93.27,1.47,1.23,1.2,2.16-.22.77-.92,1.27-1.68,1.27ZM475.68,681.1h0c-.97,0-1.75-.79-1.74-1.76.03-11.22.16-23.01.39-35.06.02-.97.83-1.74,1.78-1.72.97.02,1.74.82,1.72,1.78-.22,12.03-.35,23.8-.39,35,0,.96-.79,1.74-1.75,1.74ZM115.72,680.61c-.47,0-.93-.18-1.27-.55-9.13-9.7-10.11-18.88-10.11-22.37,0-.96.07-1.63.11-1.94-.05-3.09-.09-6.17-.12-9.22-.01-.97.76-1.76,1.73-1.77.94,0,1.76.76,1.77,1.73.03,3.1.08,6.21.13,9.34,0,.11,0,.22-.02.32h0s-.09.56-.09,1.53c0,3.08.89,11.19,9.16,19.98.66.7.63,1.81-.08,2.47-.34.32-.77.48-1.2.48ZM105.98,636.26c-.96,0-1.75-.78-1.75-1.74,0-1.79,0-3.58,0-5.36,0-9.97.1-19.95.29-29.66.02-.97.84-1.76,1.78-1.72.97.02,1.73.82,1.72,1.78-.19,9.68-.29,19.64-.29,29.59,0,1.78,0,3.56,0,5.35,0,.97-.78,1.75-1.74,1.76h0ZM476.32,634.07s-.03,0-.04,0c-.97-.02-1.73-.82-1.71-1.79.27-11.57.62-23.35,1.05-35.03.04-.97.84-1.7,1.81-1.68.97.04,1.72.85,1.68,1.81-.43,11.66-.78,23.43-1.05,34.98-.02.95-.8,1.71-1.75,1.71ZM106.54,589.29s-.03,0-.05,0c-.97-.03-1.73-.83-1.7-1.8.33-11.83.81-23.6,1.43-34.99.05-.96.87-1.69,1.84-1.65.97.05,1.71.88,1.65,1.84-.62,11.36-1.1,23.1-1.43,34.89-.03.95-.8,1.7-1.75,1.7ZM477.84,587.06s-.05,0-.07,0c-.97-.04-1.72-.85-1.68-1.82.48-11.65,1.05-23.43,1.69-35,.05-.96.87-1.7,1.84-1.65.97.05,1.7.88,1.65,1.84-.64,11.56-1.2,23.32-1.69,34.96-.04.94-.81,1.68-1.75,1.68ZM108.68,542.37s-.08,0-.11,0c-.96-.06-1.7-.89-1.63-1.86.75-11.8,1.68-23.55,2.75-34.91.09-.96.95-1.67,1.91-1.58.96.09,1.67.94,1.58,1.91-1.07,11.32-1.99,23.03-2.75,34.8-.06.93-.83,1.64-1.75,1.64ZM480.22,540.09s-.07,0-.11,0c-.96-.06-1.7-.89-1.64-1.85.7-11.71,1.49-23.48,2.34-34.96.07-.96.9-1.69,1.88-1.62.96.07,1.69.91,1.62,1.88-.85,11.47-1.64,23.22-2.34,34.91-.06.93-.83,1.65-1.75,1.65ZM112.62,495.58c-.06,0-.12,0-.19,0-.96-.1-1.66-.96-1.56-1.92,1.25-11.8,2.69-23.5,4.29-34.76.14-.96,1.02-1.63,1.98-1.49.96.14,1.62,1.02,1.49,1.98-1.59,11.22-3.03,22.87-4.28,34.64-.1.9-.85,1.57-1.74,1.57ZM483.48,493.19s-.09,0-.14,0c-.96-.08-1.68-.92-1.61-1.88.94-11.76,1.96-23.5,3.05-34.91.09-.96.95-1.67,1.91-1.58.96.09,1.67.95,1.58,1.91-1.09,11.39-2.11,23.12-3.04,34.85-.07.92-.84,1.61-1.74,1.61ZM118.67,449.02c-.09,0-.18,0-.27-.02-.96-.15-1.61-1.04-1.46-2,1.83-11.74,3.88-23.35,6.1-34.49.19-.95,1.11-1.56,2.06-1.37.95.19,1.56,1.11,1.37,2.06-2.21,11.1-4.26,22.65-6.08,34.35-.13.86-.88,1.48-1.73,1.48ZM487.7,446.36c-.06,0-.12,0-.18,0-.96-.1-1.66-.96-1.56-1.92,1.19-11.76,2.48-23.48,3.83-34.83.11-.96.99-1.64,1.94-1.53.96.11,1.65.99,1.53,1.94-1.35,11.33-2.64,23.03-3.83,34.77-.09.9-.85,1.57-1.74,1.57ZM127.2,402.86c-.12,0-.25-.01-.37-.04-.94-.2-1.54-1.14-1.34-2.08,2.52-11.65,5.3-23.1,8.26-34.05.25-.93,1.21-1.48,2.15-1.23.93.25,1.48,1.21,1.23,2.15-2.95,10.89-5.71,22.29-8.22,33.88-.18.82-.9,1.38-1.71,1.38ZM492.99,399.64c-.07,0-.15,0-.22-.01-.96-.12-1.64-1-1.52-1.95,1.48-11.76,3.07-23.45,4.72-34.73.14-.96,1.03-1.62,1.99-1.48.96.14,1.62,1.03,1.48,1.99-1.65,11.26-3.24,22.92-4.71,34.66-.11.88-.87,1.53-1.73,1.53ZM138.68,357.35c-.16,0-.33-.02-.49-.07-.93-.27-1.46-1.24-1.19-2.17,3.35-11.47,7-22.69,10.85-33.33.33-.91,1.33-1.38,2.24-1.05.91.33,1.38,1.33,1.05,2.24-3.83,10.58-7.46,21.72-10.78,33.12-.22.76-.92,1.26-1.68,1.26ZM499.5,353.06c-.09,0-.18,0-.27-.02-.96-.15-1.61-1.04-1.46-2,.9-5.81,1.83-11.64,2.78-17.33.94-5.65,2.22-11.45,3.81-17.23.25-.93,1.22-1.48,2.15-1.23.93.26,1.48,1.22,1.23,2.15-1.55,5.67-2.81,11.36-3.73,16.89-.95,5.68-1.88,11.49-2.77,17.29-.13.86-.88,1.48-1.73,1.48ZM153.71,312.9c-.21,0-.43-.04-.64-.12-.9-.35-1.35-1.37-.99-2.27,4.35-11.17,9.06-21.99,14-32.16.42-.87,1.47-1.23,2.34-.81.87.42,1.23,1.47.81,2.34-4.89,10.09-9.57,20.82-13.89,31.9-.27.69-.93,1.11-1.63,1.11ZM509.58,307.22c-.19,0-.38-.03-.57-.1-.91-.31-1.4-1.31-1.09-2.22,3.73-10.89,8.51-21.74,14.2-32.27.46-.85,1.52-1.17,2.37-.71.85.46,1.17,1.52.71,2.37-5.6,10.36-10.3,21.04-13.96,31.74-.25.73-.93,1.18-1.66,1.18ZM173.05,270.17c-.27,0-.55-.06-.81-.2-.86-.45-1.19-1.51-.74-2.36,5.59-10.66,11.58-20.84,17.82-30.25.53-.81,1.62-1.03,2.43-.49.81.53,1.03,1.62.49,2.43-6.17,9.31-12.11,19.39-17.64,29.94-.31.6-.92.94-1.55.94ZM529.64,264.81c-.31,0-.63-.08-.91-.26-.82-.5-1.08-1.58-.58-2.41,6.2-10.13,13.18-19.72,20.73-28.51.63-.73,1.73-.82,2.47-.19.73.63.82,1.74.19,2.47-7.43,8.64-14.3,18.08-20.4,28.05-.33.54-.91.84-1.49.84ZM197.61,230.21c-.35,0-.71-.11-1.02-.33-.78-.57-.96-1.66-.39-2.44,7.07-9.79,14.6-18.91,22.39-27.12.67-.7,1.77-.73,2.47-.06.7.67.73,1.77.06,2.47-7.68,8.09-15.11,17.1-22.09,26.76-.34.47-.88.73-1.42.73ZM558.3,227.68c-.44,0-.88-.16-1.22-.49-.69-.67-.71-1.78-.04-2.47,5.7-5.88,11.68-11.31,17.78-16.13,2.83-2.24,6.02-4.4,9.47-6.41.83-.49,1.91-.2,2.39.63.49.83.2,1.91-.63,2.39-3.31,1.93-6.36,3.99-9.06,6.13-5.98,4.73-11.85,10.06-17.44,15.82-.34.35-.8.53-1.26.53ZM595.89,200.03c-.67,0-1.32-.39-1.61-1.05-.39-.89.02-1.92.91-2.3,10.17-4.43,21.61-7.7,33.99-9.7.96-.15,1.85.49,2.01,1.45.15.95-.49,1.85-1.45,2.01-12.09,1.96-23.25,5.14-33.15,9.45-.23.1-.46.15-.7.15ZM228.32,194.79c-.46,0-.93-.18-1.27-.54-.67-.7-.64-1.81.06-2.47,8.81-8.36,18.06-15.77,27.51-22.01.81-.53,1.89-.31,2.42.5.53.81.31,1.89-.5,2.42-9.28,6.13-18.37,13.41-27.03,21.63-.34.32-.77.48-1.2.48ZM641.36,188.95c-.89,0-1.66-.68-1.74-1.59-.09-.96.62-1.81,1.58-1.9,4.59-.42,9.33-.68,14.08-.77,6.86-.13,14.05.1,21.18.67.96.08,1.68.92,1.6,1.89-.08.96-.92,1.69-1.88,1.6-7.01-.56-14.08-.78-20.83-.66-4.67.09-9.32.34-13.82.75-.05,0-.11,0-.16,0ZM265.82,166.71c-.61,0-1.2-.32-1.53-.89-.48-.84-.18-1.91.66-2.38,13.97-7.89,25.5-11.74,32.71-13.57.94-.24,1.89.33,2.13,1.26.24.94-.33,1.89-1.26,2.13-7,1.79-18.21,5.53-31.85,13.23-.27.15-.57.23-.86.23Z" fill="#2b2b2b"/><path d="M142.24,797.95c-15.24,0-27.63-14.02-27.63-31.26s12.4-31.26,27.63-31.26,27.63,14.02,27.63,31.26-12.4,31.26-27.63,31.26ZM142.24,741.43c-11.93,0-21.63,11.33-21.63,25.26s9.7,25.26,21.63,25.26,21.63-11.33,21.63-25.26-9.7-25.26-21.63-25.26Z" fill="#2b2b2b"/><path d="M388.54,850.24c-16.42,0-29.79-14.02-29.79-31.26s13.36-31.26,29.79-31.26,29.8,14.02,29.8,31.26-13.37,31.26-29.8,31.26ZM388.54,793.72c-13.12,0-23.79,11.33-23.79,25.26s10.67,25.26,23.79,25.26,23.8-11.33,23.8-25.26-10.67-25.26-23.8-25.26Z" fill="#2b2b2b"/><path d="M545.93,933.81s-.03,0-.04,0c-1.66-.02-2.98-1.38-2.96-3.04l5.92-444.65c.02-1.64,1.36-2.96,3-2.96.01,0,.03,0,.04,0,1.66.02,2.98,1.38,2.96,3.04l-5.92,444.65c-.02,1.64-1.36,2.96-3,2.96Z" fill="#2b2b2b"/><path d="M553.73,444.14c-1.65,0-3-1.34-3-2.99,0-.47,0-47.76,9.89-96.57,5.84-28.8,13.94-52.53,24.08-70.54,12.92-22.94,29.23-36.69,48.48-40.87,33.14-7.19,59.73-4.52,79.02,7.94,14.72,9.51,19.89,21.55,20.86,24.11.08.19.13.35.16.48l-2.87.88-2.81,1s.04.09.07.14c-.02-.05-.05-.09-.07-.14h-.01s-.02-.05-.06-.18c-.48-1.29-4.96-12.48-18.52-21.25-17.9-11.56-42.97-13.96-74.5-7.12-77.27,16.77-77.72,200.25-77.72,202.1,0,1.66-1.34,3-2.99,3.01h0ZM727.45,267.32s0,0,0,.02c0,0,0-.01,0-.02ZM727.62,267.73h0,0Z" fill="#2b2b2b"/></svg>