<?xml version="1.0" encoding="UTF-8"?><svg id="_レイヤー_15" xmlns="http://www.w3.org/2000/svg" width="1000" height="1000" viewBox="0 0 1000 1000"><path d="M634.58,534.93l15.1,21.62-8.39,22.22-36.29-5.63,4.06-85.52c.87-.22,1.69-.58,2.47-1.05l16.81-3.9,6.24,52.26Z" fill="#d9d9d9"/><path d="M616.36,435.83l3.78,38.65s-.08,1.19-.23,1.51c-.83,1.8-3.88,7.91-8.38,10.58l-2.45.57-.02.48c-2.02.51-4.24.23-6.63-1.35l-.2-1.8-.23-2.09-4.44-39.63c.27-.41.54-.8.8-1.17,6.28-8.76,12.55-7.63,15.78-6.12.16.07.32.15.47.23,1.11.57,1.75.14,1.75.14Z" fill="#3f3f3f"/><path d="M597.56,442.75l4.44,39.63-.77.09c-35.11,9.25-46.16,15.93-68.27,21.61l-2.59.06-1.02-42.14,1.82-.04c15.83-5.98,63.78-19.59,65.39-20.21l1.8-.17c-.26.37-.53.76-.8,1.17Z" fill="#3f3f3f"/><path d="M771.82,104.2c92.66,81.41,231.03,342.43,134.42,662.47-7.13,23.63-32.51,36.58-55.87,28.61l-8.49-2.9-.95-.54c6.04-10.79,11.02-22.39,15.51-34.19,87.38-229.84,11.59-441.75-47.73-551.02-6.78-12.49-13.34-23.63-19.42-33.31-1.98-3.15-3.9-6.14-5.77-8.98-17.3-25.38-36.1-38.48-61.15-48.64l-.47-.5c10.66-10.1,26.53-15.32,49.92-11Z" fill="#3f3f3f"/><path d="M808.71,206.63c59.32,109.27,135.11,321.18,47.73,551.02-4.49,11.8-9.47,23.4-15.51,34.19-11.34,20.32-26.38,37.73-48.7,48.11l-42.13,19.59-.71-.23c3.64-10.21,2.54-19.79,2.54-19.79l-6.91-90.4,1.04-.08c85.06-77.66,58.17-437.95-42.86-537.44,0,0-4.9-28.71.03-56.65l2.71.48c31.07-17.32,65.13,5.08,101.88,51.69l.89-.49Z" fill="#fff5f5"/><path d="M808.71,206.63l-.89.49c-36.75-46.61-70.81-69.01-101.88-51.69l-2.71-.48c2.63-14.99,8.1-29.76,18.67-39.75l.47.5c25.05,10.16,43.85,23.26,61.15,48.64,1.87,2.84,3.79,5.83,5.77,8.98,6.08,9.68,12.64,20.82,19.42,33.31Z" fill="#3f3f3f"/><path d="M703.2,211.6c101.03,99.49,127.92,459.78,42.86,537.44l-1.04.08-41.82-537.52Z" fill="#3f3f3f"/><path d="M771.82,104.2c-23.39-4.32-39.26.9-49.92,11-10.57,9.99-16.04,24.76-18.67,39.75-4.93,27.94-.03,56.65-.03,56.65l41.82,537.52,6.91,90.4s1.1,9.58-2.54,19.79c-4.16,11.68-14.49,24.18-39.71,24.19l-2.72-.37c16.72-16.88,12.6-45.42,12.6-45.42l-29.41-432.2-12.48-183.5c-.43-6.32-5.43-11.44-11.75-11.86-3.39-.22-6.71-.23-9.97-.05l-.05-.74s4.72-129.84,62.1-127.74c23.92,5.48,42.72,12.82,53.82,22.58Z" fill="#3f3f3f"/><path d="M523.73,468.92c-217.11,16.46-433.82-33.55-433.82-33.55-6.27-37.05-4.48-76.78-4.48-76.78,0,0,.89,23.9,101.28,38.57,9.3,1.36,18.93,2.54,28.74,3.57,51.5,5.43,107.63,6.83,142.97,9.22,37.54,2.55,75.26.93,112.35-5.35,20.68-3.5,41.54-8.52,56.81-15.69l1.77,73.09,1.02,42.14,2.59-.06c22.11-5.68,33.16-12.36,68.27-21.61l.77-.09.23,2.09.2,1.8c2.39,1.58,4.61,1.86,6.63,1.35l-4.06,85.52,36.29,5.63,8.39-22.22-15.1-21.62-6.24-52.26-16.81,3.9c4.5-2.67,7.55-8.78,8.38-10.58.15-.32.23-1.51.23-1.51l-3.78-38.65s-.64.43-1.75-.14c-.15-.08-.31-.16-.47-.23l2.55-.05,71.11-29.74,2.35-.16,29.41,432.2s4.12,28.54-12.6,45.42c-3.5,3.54-7.93,6.56-13.5,8.7l-144.35,64.76s-6.18,1.31-16.77,2.17l-.27-2.36-9.56-313.1c-4.78-37.04-45.41-38.85-45.41-38.85l-320.29-33.63c-44.75-4.99-68.1,2.14-81.47,20.51l-.82-.61c-1.71-46.87-6.23-132.76-6.62-140.12h.12c.17,2.06,1.59,4,3.96,4.49,48.1,9.89,252.88,53.77,427.82,40.03,10.54-.83,19.89-14.28,24.09-23.98l-.16-2.22Z" fill="#3f3f3f"/><path d="M718,81.62c-57.38-2.1-62.1,127.74-62.1,127.74l.05.74c-2.79.17-5.54.48-8.23.93l-.33-2.12-405.43-20.05c-3.84-.33-7.08-.24-9.84.15l-.3-1.91c6.57-109.64,96.27-124.32,96.27-124.32l-.03-1.39c88.4-1.68,286.47-3.48,389.94,20.23Z" fill="#fff5f5"/><path d="M677.67,222.01l12.48,183.5-2.35.16-71.11,29.74-2.55.05c-3.23-1.51-9.5-2.64-15.78,6.12l-1.8.17c-1.61.62-49.56,14.23-65.39,20.21l-1.82.04-1.77-73.09s32.12-163.18,120.14-177.88c2.69-.45,5.44-.76,8.23-.93,3.26-.18,6.58-.17,9.97.05,6.32.42,11.32,5.54,11.75,11.86Z" fill="#3f3f3f"/><path d="M647.39,208.91l.33,2.12c-88.02,14.7-120.14,177.88-120.14,177.88-15.27,7.17-36.13,12.19-56.81,15.69-37.09,6.28-74.81,7.9-112.35,5.35-35.34-2.39-91.47-3.79-142.97-9.22v-199.01c2.7-5.2,6.21-11.2,16.67-12.71,2.76-.39,6-.48,9.84-.15l405.43,20.05Z" fill="#fff5f5"/><path d="M62.05,629.37l-1.12-.26c3.18-15.57,7.44-28.2,14.41-37.78,13.37-18.37,36.72-25.5,81.47-20.51l320.29,33.63s40.63,1.81,45.41,38.85l9.56,313.1.27,2.36c-15.35,1.24-39.95,1.54-68.45-4.44l-58.8-9.89-249.61-40.98-48.88-11.1c-3.14-.53-6.23-1.25-9.24-2.19-.12-.03-.23-.07-.34-.1-17.07-5.36-28.71-21.18-29.23-39.07l-6.21-216.57c-.05-1.74.11-3.42.47-5.05Z" fill="#3f3f3f"/><path d="M523.73,468.92l.16,2.22c-4.2,9.7-13.55,23.15-24.09,23.98-174.94,13.74-379.72-30.14-427.82-40.03-2.37-.49-3.79-2.43-3.96-4.5-.13-1.6.5-3.28,2.02-4.4l19.15-10.43.72-.39s216.71,50.01,433.82,33.55Z" fill="#303030"/><path d="M328.06,61.39l.03,1.39s-89.7,14.68-96.27,124.32l.3,1.91c-10.46,1.51-13.97,7.51-16.67,12.71v-11.98l-1.3-1.03c-2.26-.57-6.99.3-7.78,0-.09-.03-.13-.09-.1-.16,6.73-17.12,6.03-126.96,103.73-126.96,5.33,0,11.37-.07,18.06-.2Z" fill="#3f3f3f"/><path d="M215.45,201.72v199.01c-9.81-1.03-19.44-2.21-28.74-3.57-100.39-14.67-101.28-38.57-101.28-38.57-9.63-134.77,90.26-163.84,120.87-169.56l.07-.32c.79.3,5.52-.57,7.78,0l1.3,1.03v11.98Z" fill="#3f3f3f"/><polygon points="417.7 903.29 135.68 856.68 136.27 673.85 420.09 704.32 417.7 903.29" fill="#fcfcfc"/><path d="M616.69,438.41c-1.17,0-2.29-.69-2.77-1.84-.64-1.53.08-3.29,1.61-3.92l71.11-29.74c1.53-.64,3.29.08,3.93,1.61s-.08,3.29-1.61,3.92l-71.11,29.74c-.38.16-.77.23-1.16.23Z" fill="#2b2b2b"/><path d="M531.17,464.96c-1.21,0-2.35-.74-2.81-1.94-.59-1.55.2-3.28,1.75-3.87,11.98-4.53,42.36-13.43,56.96-17.71,4.27-1.25,7.96-2.33,8.45-2.51,1.55-.54,3.27.25,3.84,1.78.57,1.54-.18,3.24-1.71,3.83-.47.18-2.1.66-8.88,2.65-14.53,4.26-44.75,13.12-56.53,17.57-.35.13-.71.19-1.06.19Z" fill="#2b2b2b"/><path d="M620.41,478.12c-1.21,0-2.34-.73-2.8-1.92-.6-1.55.18-3.28,1.72-3.88l68.58-26.4c1.55-.6,3.28.18,3.88,1.72.6,1.55-.18,3.28-1.72,3.88l-68.58,26.4c-.35.14-.72.2-1.08.2Z" fill="#2b2b2b"/><path d="M532.96,507.08c-1.34,0-2.56-.9-2.9-2.25-.41-1.6.55-3.24,2.16-3.65,9.83-2.53,17.38-5.23,26.11-8.35,10.66-3.81,22.73-8.14,42.14-13.25,1.6-.42,3.24.54,3.67,2.14.42,1.6-.53,3.24-2.14,3.67-19.16,5.05-31.11,9.32-41.65,13.1-8.87,3.18-16.54,5.92-26.64,8.51-.25.06-.5.1-.75.1Z" fill="#2b2b2b"/><path d="M750.1,862.54c-1.13,0-2.21-.64-2.72-1.74-.7-1.5-.05-3.29,1.46-3.99l42.13-19.59c19.26-8.96,34.75-24.28,47.35-46.85,5.25-9.39,10.12-20.12,15.33-33.79,93.01-244.66-2.28-465.1-47.56-548.52-6.32-11.64-12.82-22.79-19.32-33.15-1.99-3.17-3.92-6.17-5.73-8.92-15.56-22.83-32.89-36.61-59.77-47.51-1.54-.62-2.28-2.37-1.65-3.91.62-1.54,2.37-2.27,3.91-1.65,28.08,11.39,46.19,25.8,62.5,49.73,1.86,2.83,3.82,5.87,5.83,9.07,6.57,10.47,13.14,21.73,19.52,33.48,27.15,50.01,62.93,130.72,79.2,231.25,18.08,111.65,7.54,220.08-31.3,322.27-5.31,13.95-10.3,24.94-15.7,34.59-13.23,23.71-29.6,39.85-50.05,49.36l-42.13,19.59c-.41.19-.84.28-1.26.28Z" fill="#2b2b2b"/><path d="M746.06,752.04c-.81,0-1.62-.33-2.22-.98-1.12-1.22-1.03-3.12.19-4.24,29.88-27.28,47.98-94.17,49.67-183.53,1.26-66.87-6.73-138.49-22.51-201.65-17.09-68.43-41.34-119.58-70.1-147.91-1.18-1.16-1.2-3.06-.03-4.24,1.16-1.18,3.06-1.2,4.24-.03,37.34,36.77,59.61,102.26,71.71,150.73,15.9,63.66,23.96,135.83,22.69,203.22-.81,42.83-5.53,82.07-13.66,113.48-8.93,34.5-21.7,59.53-37.96,74.37-.58.53-1.3.78-2.02.78Z" fill="#2b2b2b"/><path d="M807.82,210.12c-.89,0-1.77-.39-2.36-1.14-19.18-24.33-36.24-40.37-52.15-49.04-16.77-9.14-31.79-9.76-45.91-1.88-1.45.81-3.27.29-4.08-1.16-.81-1.45-.29-3.27,1.16-4.08,30.08-16.77,64.65.39,105.7,52.45,1.03,1.3.8,3.19-.5,4.21-.55.43-1.21.64-1.86.64Z" fill="#2b2b2b"/><path d="M392.22,414.11c-11.28,0-22.62-.39-34-1.16-11.32-.77-25.05-1.44-39.59-2.16-32.08-1.58-68.45-3.38-103.49-7.07-10.23-1.07-19.94-2.28-28.86-3.58-99.19-14.49-103.68-38.35-103.84-41.36-9.78-137.04,91.91-166.82,123.31-172.69,1.63-.3,3.2.77,3.5,2.4.3,1.63-.77,3.2-2.4,3.5-30.17,5.64-127.86,34.29-118.43,166.37.13.69,5.19,22.17,98.72,35.84,8.84,1.29,18.47,2.49,28.62,3.56,34.88,3.68,71.15,5.47,103.16,7.04,14.56.72,28.32,1.4,39.7,2.17,38.01,2.58,75.57.79,111.65-5.31,24-4.06,42.86-9.26,56.04-15.45,1.5-.7,3.29-.06,3.99,1.44.7,1.5.06,3.29-1.44,3.99-13.67,6.42-33.04,11.78-57.58,15.93-25.73,4.36-52.2,6.54-79.05,6.54ZM88.43,358.48h0ZM88.43,358.43s0,0,0,0c0,0,0,0,0,0ZM88.42,358.36s0,0,0,.02c0,.02,0,.04,0,.05,0-.02,0-.04,0-.06Z" fill="#2b2b2b"/><path d="M607.2,490.86c-2.17,0-4.33-.7-6.43-2.08-.74-.49-1.23-1.29-1.33-2.17l-4.87-43.52c-.08-.7.09-1.4.48-1.99.29-.43.57-.85.85-1.24,0,0,.01-.02.02-.02,7.85-10.95,16.24-8.61,19.49-7.09.09.04.21.09.33.15.63-.13,1.3-.06,1.9.22.96.45,1.6,1.37,1.71,2.42l3.78,38.65c.02.16.02.33,0,.49-.12,1.75-.39,2.33-.51,2.58-1.18,2.56-4.49,8.88-9.57,11.89-1.04.63-2.15,1.1-3.27,1.38-.87.22-1.73.33-2.59.33ZM605.24,484.41c1.06.47,2.06.56,3.08.3.55-.14,1.09-.37,1.66-.71,2.91-1.73,5.54-5.75,7.09-9.03.02-.12.04-.29.05-.46l-3.52-35.97c-.12-.05-.25-.11-.37-.17-.13-.07-.22-.11-.31-.15-4.17-1.95-8.34-.17-12.12,5.11-.05.07-.09.13-.14.2l4.58,40.89ZM617.05,475.1h0ZM614.68,433.34s0,0,0,0c0,0,0,0,0,0ZM614.69,433.34h0,0Z" fill="#2b2b2b"/><path d="M641.29,581.77c-.15,0-.31-.01-.46-.04l-36.29-5.63c-1.52-.24-2.61-1.58-2.54-3.11l4.08-85.98c.06-1.35,1-2.49,2.32-2.8l2.45-.57s0,0,0,0l16.81-3.9c.83-.19,1.7-.02,2.4.47.7.49,1.15,1.25,1.26,2.1l6.15,51.51,14.67,21c.57.81.7,1.85.35,2.78l-8.39,22.22c-.45,1.18-1.57,1.94-2.8,1.94ZM608.12,570.59l31.22,4.84,6.97-18.46-14.19-20.32c-.28-.4-.46-.87-.52-1.36l-5.84-48.94-13.79,3.2-3.85,81.04Z" fill="#2b2b2b"/><path d="M864.54,800.66c-5.08,0-10.18-.84-15.14-2.53l-8.49-2.9c-1.57-.54-2.4-2.24-1.87-3.81.54-1.57,2.24-2.4,3.81-1.87l8.49,2.9c10.55,3.6,21.83,2.78,31.75-2.32,9.88-5.07,17.08-13.71,20.28-24.32,53.27-176.48,31.45-325.27,3.76-419.01-35.21-119.21-94.01-202.32-137.29-240.34-10.08-8.87-27.75-16.24-52.51-21.91-72.64-16.64-207.22-23.61-389.21-20.16-6.96.14-12.88.2-18.12.2-79.03,0-91.55,73.82-97.57,109.3-.81,4.76-1.47,8.67-2.17,11.68,1.59-.09,3.28-.11,4.62.23,1.61.41,2.58,2.04,2.18,3.64-.41,1.61-2.04,2.58-3.64,2.18-.86-.22-3.01-.06-4.3.04-1.81.14-2.83.21-3.76-.12-.82-.29-1.48-.89-1.83-1.67-.33-.74-.35-1.65-.05-2.41h0c1-2.54,1.9-7.85,3.04-14.57,2.93-17.26,7.83-46.14,22.31-70.17,17.65-29.28,44.96-44.13,81.17-44.13,5.19,0,11.08-.07,18-.2,182.47-3.47,317.56,3.55,390.67,20.31,25.74,5.9,44.29,13.72,55.13,23.25,43.91,38.58,103.51,122.71,139.08,243.15,27.92,94.52,49.93,244.54-3.77,422.44-3.68,12.18-11.94,22.1-23.28,27.92-6.72,3.45-13.98,5.19-21.29,5.19Z" fill="#2b2b2b"/><path d="M215.45,402.5c-.97,0-1.75-.76-1.75-1.73v-211.03c0-.97.78-1.75,1.75-1.75s1.75.78,1.75,1.75v210.99c0,.97-.78,1.77-1.75,1.77Z" fill="#2b2b2b"/><path d="M709.68,886.5c-1.66,0-3-1.34-3-3,0-1.66,1.34-3,3-3,19.23,0,31.64-7.48,36.88-22.2,3.34-9.38,2.4-18.36,2.39-18.45,0-.03,0-.07-.01-.11l-6.91-90.4-41.81-537.38c-.41-2.46-4.78-30.11.06-57.54,3.2-18.23,9.78-32.16,19.56-41.41,12.58-11.92,30.25-15.88,52.53-11.77,1.63.3,2.71,1.87,2.41,3.5-.3,1.63-1.87,2.71-3.5,2.41-20.28-3.75-36.2-.3-47.31,10.23-8.83,8.34-14.81,21.16-17.78,38.09-4.78,27.08-.08,55.35-.03,55.63.02.09.03.18.03.27l41.82,537.52,6.91,90.36c.1.97,1.01,10.66-2.7,21.07-4.25,11.94-15.08,26.17-42.53,26.18Z" fill="#2b2b2b"/><path d="M655.9,211.11s-.04,0-.06,0c-.97-.04-1.72-.85-1.69-1.81.01-.33,1.28-33.02,9.59-65.03,10.94-42.19,29.22-64.42,52.92-64.42.47,0,.93,0,1.4.03,1.25.04,2.58.15,3.95.33.96.13,1.63,1.01,1.5,1.96s-1.01,1.63-1.97,1.5c-1.25-.17-2.46-.27-3.61-.31-28.47-1.03-43.36,33.02-50.82,61.77-8.21,31.65-9.47,63.96-9.48,64.28-.03.94-.81,1.69-1.75,1.69Z" fill="#2b2b2b"/><path d="M231.82,188.85s-.07,0-.11,0c-.96-.06-1.7-.89-1.64-1.85,3.43-57.31,29.79-88.5,51.3-104.57,23.32-17.43,45.5-21.22,46.44-21.37.95-.17,1.85.49,2.01,1.44.16.95-.49,1.85-1.44,2.01-.22.04-22.39,3.84-45.04,20.82-20.86,15.63-46.42,46-49.77,101.88-.06.93-.83,1.65-1.75,1.65Z" fill="#2b2b2b"/><path d="M513.86,962.49c-14.12,0-31.47-1.23-50.53-5.22l-58.74-9.88-249.6-40.98c-.06,0-.12-.02-.18-.03l-48.8-11.08c-3.3-.56-6.49-1.32-9.48-2.25-.09-.02-.18-.05-.27-.08-.03,0-.11-.03-.14-.04-18.18-5.71-30.77-22.52-31.33-41.85l-6.06-220.97c-1.03-19.46,12.7-39.13,13.29-39.96.96-1.35,2.83-1.67,4.18-.72,1.35.96,1.68,2.83.72,4.18-.13.19-13.11,18.82-12.19,36.25l6.06,221.05c.49,16.76,11.39,31.35,27.13,36.29l.13.04c.06.02.14.04.2.06,2.78.87,5.76,1.57,8.85,2.1.06,0,.11.02.16.03l48.79,11.08,249.52,40.97,58.81,9.89s.08.01.12.02c28,5.88,52.21,5.63,67.59,4.39,8.96-.73,14.75-1.79,16.09-2.05l144.04-64.62c.05-.02.1-.04.15-.06,4.84-1.86,9.03-4.55,12.44-8.01,15.49-15.64,11.8-42.61,11.76-42.88-.01-.08-.02-.15-.02-.22l-29.41-432.2-12.48-183.5c-.33-4.85-4.18-8.75-8.96-9.07-3.19-.21-6.43-.22-9.61-.05-2.67.16-5.33.46-7.9.89-44.13,7.37-73.73,54.44-90.79,92.62-17.82,39.89-26.04,78.68-26.84,82.57l13.54,559.77c.04,1.66-1.27,3.03-2.93,3.07-1.66.05-3.03-1.27-3.07-2.93l-11.78-487.02-1.77-73.09c0-.22.01-.44.06-.65.08-.41,8.31-41.62,27.27-84.07,11.18-25.03,23.85-45.63,37.67-61.22,17.49-19.73,36.88-31.5,57.66-34.96,2.77-.46,5.65-.79,8.54-.96,3.44-.19,6.91-.17,10.35.05,7.76.52,14.02,6.81,14.55,14.65l12.48,183.5,29.4,432.09c.32,2.36,3.73,30.49-13.45,47.84-4,4.04-8.87,7.19-14.48,9.36l-144.28,64.73c-.19.09-.4.15-.61.2-.26.06-6.49,1.36-17.15,2.23-5.29.43-11.59.74-18.72.74Z" fill="#2b2b2b"/><path d="M507.57,956.35c-.95,0-1.73-.76-1.75-1.71l-6.35-280.8c-.45-19.92-15.73-36.54-35.54-38.67l-334.06-35.84c-22.85-2.44-61.53,9.5-66.11,30.41-.21.94-1.13,1.55-2.08,1.33-.94-.21-1.54-1.14-1.33-2.08,5.05-23.04,45.26-35.79,69.91-33.15l334.06,35.84c21.55,2.32,38.17,20.4,38.66,42.07l6.35,280.8c.02.97-.74,1.77-1.71,1.79h-.04Z" fill="#2b2b2b"/><path d="M532.07,958.15c-.94,0-1.72-.75-1.75-1.7l-9.56-313.01c-4.58-35.04-42.14-37.17-43.74-37.24-.03,0-.07,0-.1,0l-320.29-33.63c-42.44-4.73-66.33,1.19-79.87,19.8-.57.78-1.66.96-2.44.39-.78-.57-.95-1.66-.39-2.44,14.38-19.76,39.23-26.11,83.08-21.22l320.24,33.62c1.87.11,42.18,3.01,47,40.37,0,.06.01.11.01.17l9.56,313.1c.03.97-.73,1.77-1.7,1.8-.02,0-.04,0-.05,0Z" fill="#2b2b2b"/><path d="M428.53,499.52c-55.3,0-116.61-4.3-183.17-12.86-77.65-9.99-141.61-23.21-168.92-28.85l-4.82-1c-1.69-.35-3.16-1.3-4.13-2.69-.56-.79-.37-1.88.42-2.44.79-.55,1.88-.37,2.44.42.32.46.93,1.06,1.98,1.27l4.82,1c167.97,34.71,310.12,47.83,422.5,39,9.03-.71,18.06-12.38,22.62-22.93.38-.89,1.41-1.29,2.3-.91.89.38,1.29,1.41.91,2.3-3.83,8.85-13.53,24.08-25.56,25.03-22.51,1.77-46.34,2.65-71.4,2.65Z" fill="#2b2b2b"/><path d="M68.01,453.59c-1.55,0-2.86-1.19-2.99-2.76-.22-2.76.98-5.4,3.23-7.06.11-.08.23-.15.34-.22l19.15-10.43c1.46-.79,3.28-.26,4.07,1.2.79,1.46.26,3.28-1.2,4.07l-18.93,10.31c-.66.56-.71,1.26-.68,1.64.13,1.65-1.1,3.1-2.75,3.23-.08,0-.16,0-.25,0Z" fill="#2b2b2b"/><path d="M432.9,473.96c-79.61,0-153.67-6.96-207.72-13.91-80.47-10.34-135.12-22.85-135.66-22.98-.94-.22-1.53-1.16-1.31-2.1.22-.94,1.16-1.53,2.1-1.31.54.12,55.06,12.61,135.37,22.92,74.1,9.52,185.93,19.08,297.92,10.59l1.17-.09c.96-.06,1.8.65,1.88,1.61.07.96-.65,1.81-1.61,1.88l-1.17.09c-30.58,2.32-61.17,3.29-90.97,3.29Z" fill="#2b2b2b"/><path d="M522.51,645.05c-.89,0-1.65-.67-1.74-1.57l-14.94-146.99c-.1-.96.6-1.82,1.56-1.92.96-.1,1.82.6,1.92,1.56l14.94,146.99c.1.96-.6,1.82-1.56,1.92-.06,0-.12,0-.18,0Z" fill="#2b2b2b"/><path d="M74.52,593.72c-1.61,0-2.94-1.27-3-2.89-1.76-48.3-6.57-139.16-6.62-140.07l-.03-.5c-.1-1.65,1.17-3.07,2.82-3.17,1.64-.07,3.07,1.17,3.17,2.82l.03.5c.05.93,4.86,91.84,6.62,140.19.06,1.66-1.23,3.05-2.89,3.11-.04,0-.07,0-.11,0Z" fill="#2b2b2b"/><path d="M89.9,438.37c-1.44,0-2.71-1.04-2.95-2.5-6.25-36.94-4.54-77.01-4.52-77.42.07-1.66,1.48-2.93,3.13-2.86,1.66.07,2.94,1.48,2.86,3.13-.02.39-1.7,39.85,4.44,76.14.28,1.63-.82,3.18-2.46,3.46-.17.03-.34.04-.5.04Z" fill="#2b2b2b"/><path d="M647.39,210.66s-.06,0-.09,0l-405.43-20.05c-3.56-.31-6.73-.26-9.51.13-9.23,1.33-12.53,6.33-15.36,11.78-.09.17-.18.35-.28.53-.45.85-1.51,1.18-2.36.73-.85-.45-1.18-1.51-.73-2.37.08-.16.17-.32.25-.49,3.15-6.06,7.12-12.09,17.98-13.66,3.04-.43,6.48-.48,10.24-.16l405.37,20.04c.97.05,1.71.87,1.66,1.83-.05.94-.82,1.66-1.75,1.66Z" fill="#2b2b2b"/><path d="M419.43,905.35l-285.5-47.18.61-186.27,287.33,30.85-2.43,202.6ZM137.43,855.2l278.54,46.03,2.35-195.34-280.3-30.1-.59,179.41Z" fill="#2b2b2b"/></svg>