<?xml version="1.0" encoding="UTF-8"?><svg id="_レイヤー_6" xmlns="http://www.w3.org/2000/svg" width="1000" height="1000" viewBox="0 0 1000 1000"><path d="M815.09,897.31l8-4.03V82.42h-16.67v-8.4h.33s21.33,0,21.33,0c2.95,0,5.33,2.23,5.33,4.98v827.06c0,2.75-2.39,4.98-5.33,4.98h-21.66v-9.36l8.67-4.36Z" fill="#fc9d56"/><polygon points="823.08 82.42 823.08 893.29 815.09 897.31 815.09 82.74 815.09 82.42 823.08 82.42" fill="#fff"/><polygon points="815.09 82.74 815.09 897.31 806.42 901.67 806.42 82.42 815.09 82.42 815.09 82.74" fill="#fff"/><path d="M806.42,911.03v14.84c0,2.64-2.14,4.78-4.78,4.78H171.37c-2.64,0-4.78-2.14-4.78-4.78V74.12c0-2.64,2.14-4.78,4.78-4.78h630.27c2.61,0,4.72,2.08,4.78,4.68v837.01Z" fill="#fc9d56"/><path d="M675.13,575.13l32.09,189.11h-428.32l32.09-189.11h9.37l1.03.64c-.66.92-1.49,1.86-2.47,2.57-.76.54-1.61.93-2.54,1.05l-28.39,178.89,115.28-7.38s38.62-3.69,77.23,8.52h25.12c38.62-12.21,77.23-8.52,77.23-8.52l115.28,7.38-28.39-178.89c-.93-.12-1.78-.52-2.54-1.06-1.08-.78-1.99-1.85-2.68-2.87l1.24-.33h9.37Z" fill="#f4475c"/><path d="M669.74,579.39l28.39,178.89-115.28-7.38s-38.62-3.69-77.23,8.52h-4.64v-1.42c40.46-26.62,193.23-1.99,193.23-1.99l-27.83-176.61.82-1.06c.76.54,1.61.94,2.54,1.06Z" fill="#fff"/><path d="M493.76,566.51c4.08-2.64,36.23-21.9,90.97-11.71,58.68,10.92,77.3,16.92,77.3,16.92l.9.86s.56,1.37,1.6,2.89c.69,1.01,1.59,2.09,2.68,2.87l-.82,1.06,27.83,176.61s-152.77-24.63-193.23,1.99v1.42h-7.99v-1l.33-191.61s.15-.1.44-.29Z" fill="#fff"/><path d="M323.19,572.58l.9-.86s18.74-6.25,77.8-17.61c56.89-10.94,89.54,10.79,91.87,12.4-.29.19-.44.29-.44.29l-.33,191.61v1h-6.91v-.38c-20.87-26.98-193.36-4.26-193.36-4.26l26.22-176.42h0c.97-.72,1.81-1.66,2.47-2.58,1.17-1.63,1.81-3.19,1.81-3.19Z" fill="#fff"/><path d="M486.07,759.04v.38h-5.57c-38.62-12.21-77.23-8.52-77.23-8.52l-115.28,7.38,28.39-178.89c.93-.12,1.78-.52,2.54-1.05h0s-26.22,176.44-26.22,176.44c0,0,172.49-22.72,193.36,4.26Z" fill="#fff"/><path d="M801.64,933.66H171.37c-4.29,0-7.78-3.49-7.78-7.78V74.12c0-4.29,3.49-7.78,7.78-7.78h630.27c4.27,0,7.69,3.34,7.78,7.61v8.47s0,843.45,0,843.45c0,4.29-3.49,7.78-7.78,7.78ZM171.37,72.34c-.98,0-1.78.8-1.78,1.78v851.75c0,.98.8,1.78,1.78,1.78h630.27c.98,0,1.78-.8,1.78-1.78V74.02c-.02-.91-.8-1.68-1.78-1.68H171.37Z" fill="#2b2b2b"/><path d="M828.08,914.03h-23.32v-6h23.32c1.29,0,2.33-.89,2.33-1.98V79c0-1.09-1.05-1.98-2.33-1.98h-21.33v-6h21.33c4.59,0,8.33,3.58,8.33,7.98v827.06c0,4.4-3.74,7.98-8.33,7.98Z" fill="#2b2b2b"/><polygon points="806.54 903.57 804.97 900.44 821.33 892.21 821.33 84.17 805.75 84.17 805.75 80.67 824.83 80.67 824.83 894.36 806.54 903.57" fill="#2b2b2b"/><rect x="813.34" y="82.74" width="3.5" height="815.84" fill="#2b2b2b"/><rect x="200.36" y="86.22" width="3.5" height="817.39" fill="#2b2b2b"/><path d="M505.62,761.16h-12.49c-.97,0-1.75-.78-1.75-1.75s.78-1.75,1.75-1.75h12.22c38.43-12.08,77.28-8.54,77.67-8.51l113.04,7.24-27.87-175.58c-.69-.24-1.36-.59-2.01-1.06-1.12-.8-2.16-1.91-3.11-3.31-1.13-1.65-1.74-3.15-1.77-3.21-.37-.89.06-1.92.96-2.28.89-.36,1.91.06,2.28.96.01.03.52,1.25,1.42,2.57.71,1.04,1.49,1.88,2.25,2.43.59.42,1.18.67,1.75.75.77.1,1.38.7,1.5,1.46l28.39,178.88c.08.52-.08,1.06-.43,1.45s-.87.6-1.41.57l-115.28-7.38c-.44-.04-38.78-3.52-76.59,8.44-.17.05-.35.08-.53.08Z" fill="#2b2b2b"/><path d="M494.83,758.04c-.51,0-1.02-.23-1.37-.66-.6-.76-.48-1.86.28-2.46.85-.68,21.41-16.57,76.6-17.13,35.44-.35,103.66,10.02,117.2,12.14l-26.34-177.1c-.14-.96.52-1.85,1.47-1.99.96-.14,1.85.52,1.99,1.47l26.69,179.46c.08.55-.1,1.11-.5,1.5-.4.39-.96.57-1.51.48-.79-.13-79.96-12.86-118.96-12.47-54,.55-74.26,16.21-74.46,16.37-.32.26-.71.38-1.09.38Z" fill="#2b2b2b"/><path d="M707.22,767.24h-213.66c-1.66,0-3-1.34-3-3s1.34-3,3-3h210.1l-31.07-183.11h-6.84c-1.66,0-3-1.34-3-3s1.34-3,3-3h9.37c1.46,0,2.71,1.06,2.96,2.5l32.09,189.11c.15.87-.1,1.76-.67,2.44-.57.68-1.41,1.06-2.29,1.06Z" fill="#2b2b2b"/><path d="M492.99,761.16h-12.49c-.18,0-.36-.03-.53-.08-37.81-11.95-76.15-8.48-76.54-8.44l-115.34,7.38c-.53.04-1.05-.18-1.41-.57s-.52-.93-.43-1.45l28.39-178.88c.12-.76.73-1.36,1.5-1.46.58-.08,1.15-.32,1.76-.75.69-.5,1.4-1.24,2.05-2.16,1.03-1.43,1.61-2.82,1.61-2.84.37-.89,1.39-1.32,2.28-.96.89.37,1.32,1.38.96,2.28-.03.07-.73,1.78-2.01,3.56-.88,1.23-1.84,2.23-2.86,2.96-.66.47-1.33.82-2.02,1.06l-27.87,175.58,113.1-7.24c.33-.03,39.19-3.56,77.61,8.51h12.22c.97,0,1.75.78,1.75,1.75s-.78,1.75-1.75,1.75Z" fill="#2b2b2b"/><path d="M491.29,758.04c-.38,0-.77-.12-1.09-.38h0c-.2-.16-20.66-15.82-74.46-16.37-38.96-.39-118.16,12.34-118.96,12.47-.55.09-1.11-.09-1.51-.48-.4-.39-.58-.95-.5-1.5l26.69-179.46c.14-.96,1.03-1.62,1.99-1.47.96.14,1.62,1.03,1.47,1.99l-26.34,177.1c13.53-2.12,81.72-12.52,117.19-12.14,55.2.57,75.76,16.46,76.6,17.13.76.6.88,1.7.28,2.46-.35.43-.85.66-1.37.66Z" fill="#2b2b2b"/><path d="M493.56,767.24h-214.66c-.88,0-1.72-.39-2.29-1.06-.57-.67-.81-1.57-.67-2.44l32.09-189.11c.24-1.44,1.49-2.5,2.96-2.5h9.37c1.66,0,3,1.34,3,3s-1.34,3-3,3h-6.84l-31.07,183.11h211.11c1.66,0,3,1.34,3,3s-1.34,3-3,3Z" fill="#2b2b2b"/><path d="M492.99,760.16h0c-.97,0-1.75-.79-1.75-1.75l.33-191.61c0-.97.79-1.75,1.75-1.75h0c.97,0,1.75.79,1.75,1.75l-.33,191.61c0,.97-.78,1.75-1.75,1.75Z" fill="#2b2b2b"/><path d="M324.09,574.72c-1.26,0-2.43-.8-2.85-2.05-.52-1.57.33-3.27,1.9-3.79.77-.26,19.6-6.44,78.18-17.71,57.49-11.06,90.56,10.4,94.14,12.88.19.13.29.21.29.21,1.27,1.05,1.48,2.94.44,4.22-1.02,1.26-2.83,1.5-4.12.52-1.46-1.01-33.67-22.7-89.62-11.94-58.05,11.16-77.23,17.45-77.42,17.51-.31.1-.63.15-.95.15Z" fill="#2b2b2b"/><path d="M662.02,574.72c-.3,0-.61-.05-.92-.15-.19-.06-19.25-6.1-76.93-16.83-53.85-10.02-85.37,9.07-88.79,11.28-.2.13-.31.21-.34.23-1.35.95-3.21.63-4.17-.72-.96-1.35-.64-3.21.7-4.18,0,0,.18-.13.56-.37,3.62-2.34,37-22.59,93.14-12.14,58.2,10.83,76.91,16.77,77.68,17.02,1.58.51,2.44,2.2,1.93,3.77-.41,1.27-1.59,2.08-2.86,2.08Z" fill="#2b2b2b"/><path d="M486.07,760.79c-.52,0-1.04-.23-1.39-.68-5.69-7.36-28.19-15.34-103.02-11.57-45.14,2.28-88.3,7.92-88.73,7.97-.54.07-1.09-.12-1.48-.51-.39-.39-.56-.94-.48-1.48l26.22-176.42c.14-.96,1.03-1.62,1.99-1.47.96.14,1.62,1.03,1.47,1.99l-25.88,174.14c21.45-2.72,172.52-20.83,192.68,5.22.59.76.45,1.86-.31,2.46-.32.25-.7.37-1.07.37Z" fill="#2b2b2b"/><path d="M500.98,759.74c-.57,0-1.13-.28-1.46-.79-.53-.81-.31-1.89.5-2.42,38.27-25.17,171.82-5.75,192.09-2.63l-27.45-174.24c-.15-.95.5-1.85,1.46-2,.96-.15,1.85.5,2,1.46l27.83,176.61c.09.55-.1,1.12-.49,1.51-.4.4-.96.58-1.51.49-1.52-.25-152.56-24.22-191.99,1.72-.3.19-.63.29-.96.29Z" fill="#2b2b2b"/><path d="M655.67,694.77c-.91,0-1.68-.71-1.74-1.63l-6.61-99.76c-.06-.96.67-1.8,1.63-1.86.96-.06,1.8.67,1.86,1.63l6.61,99.76c.06.96-.67,1.8-1.63,1.86-.04,0-.08,0-.12,0Z" fill="#2b2b2b"/><path d="M634.28,731.12c-.92,0-1.7-.72-1.75-1.66l-7.67-141.88c-.05-.96.69-1.79,1.65-1.84.96-.04,1.79.69,1.84,1.65l7.67,141.88c.05.96-.69,1.79-1.65,1.84-.03,0-.06,0-.1,0Z" fill="#2b2b2b"/><path d="M612.15,729.35c-.93,0-1.7-.73-1.75-1.67l-7.24-150.75c-.05-.97.7-1.79,1.66-1.83.97-.04,1.79.7,1.83,1.66l7.24,150.75c.05.97-.7,1.79-1.66,1.83-.03,0-.06,0-.09,0Z" fill="#2b2b2b"/><path d="M588.53,721.37c-.94,0-1.72-.75-1.75-1.7l-3.83-145.43c-.03-.97.74-1.77,1.7-1.8.97-.03,1.77.74,1.8,1.7l3.83,145.43c.03.97-.74,1.77-1.7,1.8-.02,0-.03,0-.05,0Z" fill="#2b2b2b"/><path d="M566.4,712.5c-.95,0-1.73-.76-1.75-1.71l-3.41-139.22c-.02-.97.74-1.77,1.71-1.79.96-.03,1.77.74,1.79,1.71l3.41,139.22c.02.97-.74,1.77-1.71,1.79-.01,0-.03,0-.04,0Z" fill="#2b2b2b"/><path d="M543.21,716.05c-.96,0-1.74-.78-1.75-1.74l-.86-139.81c0-.97.77-1.75,1.74-1.76h.01c.96,0,1.74.78,1.75,1.74l.86,139.81c0,.97-.77,1.75-1.74,1.76h-.01Z" fill="#2b2b2b"/><path d="M521.29,670.82c-.96,0-1.74-.77-1.75-1.73l-.86-83.35c0-.97.77-1.76,1.73-1.77.92,0,1.76.77,1.77,1.73l.86,83.35c0,.97-.77,1.76-1.73,1.77h-.02Z" fill="#2b2b2b"/><path d="M467.6,707.83s-.07,0-.1,0c-.96-.06-1.7-.88-1.64-1.85l7.78-132.85c.06-.96.87-1.7,1.85-1.64.96.06,1.7.88,1.64,1.85l-7.78,132.85c-.05.93-.83,1.65-1.75,1.65Z" fill="#2b2b2b"/><path d="M444.2,709.25s-.09,0-.14,0c-.96-.08-1.68-.92-1.61-1.88l10.38-133.2c.08-.96.93-1.68,1.88-1.61.96.08,1.68.92,1.61,1.88l-10.38,133.2c-.07.92-.84,1.61-1.74,1.61Z" fill="#2b2b2b"/><path d="M421.8,714.09s-.09,0-.14,0c-.96-.08-1.68-.92-1.61-1.88l11.16-142.46c.08-.96.92-1.69,1.88-1.61.96.08,1.68.92,1.61,1.88l-11.16,142.46c-.07.92-.84,1.61-1.74,1.61Z" fill="#2b2b2b"/><path d="M395.64,718.24c-.06,0-.12,0-.17,0-.96-.1-1.66-.95-1.57-1.91l14.43-145.37c.1-.96.95-1.67,1.91-1.57.96.1,1.66.95,1.57,1.91l-14.43,145.37c-.09.9-.85,1.58-1.74,1.58Z" fill="#2b2b2b"/><path d="M372.38,717.98c-.06,0-.12,0-.19,0-.96-.1-1.66-.97-1.55-1.93l15.3-143.14c.1-.96.95-1.66,1.93-1.55.96.1,1.66.97,1.55,1.93l-15.3,143.14c-.1.9-.85,1.56-1.74,1.56Z" fill="#2b2b2b"/><path d="M350.83,726.89c-.07,0-.13,0-.2-.01-.96-.11-1.65-.98-1.54-1.94l17.39-150.1c.11-.96.97-1.65,1.94-1.54.96.11,1.65.98,1.54,1.94l-17.39,150.1c-.1.89-.86,1.55-1.74,1.55Z" fill="#2b2b2b"/><path d="M332.6,706.31c-.07,0-.14,0-.21-.01-.96-.11-1.65-.98-1.54-1.94l14.88-127.21c.11-.96,1-1.64,1.94-1.54.96.11,1.65.98,1.54,1.94l-14.88,127.21c-.1.89-.86,1.55-1.74,1.55Z" fill="#2b2b2b"/><path d="M705.01,281.21c-16.4.37-33.55.56-50.71.56s-34.3-.19-51.08-.56c-16.22-.37-24.23-8.76-24.79-22.56-.56-13.98-.75-30.76-.75-48.1,0-21.07.37-42.69.75-60.96.19-11.93,9.32-19.95,23.3-20.32,16.22-.37,33.37-.56,50.89-.56s35.23.19,52.76.56c11.37.19,22.56,8.39,22.74,21.81.37,19.01.75,39.89.75,60.21,0,16.59-.19,32.62-.75,46.79-.37,13.05-9.69,22.74-23.12,23.12ZM710.79,206.64c0-16.78-.19-33.55-.75-48.65-.37-10.63-4.1-12.49-13.24-12.68-13.98-.19-29.45-.37-44.37-.37s-29.83.19-42.88.37c-10.63.19-13.61,3.17-13.79,12.68-.37,15.1-.56,31.69-.56,47.91s.19,32.06.56,46.04c.37,10.63,4.1,12.49,15.66,12.68,12.86.19,26.47.37,40.64.37s28.89-.19,43.99-.37c10.44-.19,13.79-5.22,13.98-13.24.56-13.98.75-29.45.75-44.74ZM611.24,249.14c-5.41,0-8.02-3.36-8.02-6.9,0-3.73,2.8-7.46,8.02-7.46h32.25v-27.22l-22,.19h-.19c-5.41,0-7.83-3.36-7.83-6.71,0-3.54,2.8-7.27,8.02-7.27l22,.19v-19.01h-27.4c-5.41,0-8.02-3.36-8.02-6.9,0-3.73,2.8-7.46,8.02-7.46h71.96c5.03,0,7.64,3.54,7.64,7.08,0,3.73-2.61,7.27-7.64,7.27h-27.96v19.01l22.56-.19c5.03,0,7.64,3.54,7.64,6.9,0,3.54-2.61,7.08-7.64,7.08l-22.56-.19v27.22h33.37c5.03,0,7.64,3.54,7.64,7.08,0,3.73-2.61,7.27-7.64,7.27h-82.21ZM683.2,230.69c-4.66-3.73-10.63-7.27-12.68-8.39-2.42-1.3-3.36-3.17-3.36-4.85,0-3.36,3.36-6.71,7.64-6.71,1.12,0,20.13,5.96,20.13,14.17,0,3.92-3.17,7.64-7.08,7.64-1.49,0-3.17-.56-4.66-1.86Z" fill="#fff"/><path d="M654.3,283.52c-17.21,0-34.41-.19-51.12-.56-16.47-.38-25.88-8.99-26.5-24.23-.5-12.56-.75-28.32-.75-48.17,0-21.68.4-43.99.75-60.99.2-12.98,10.02-21.63,25-22.03,16.18-.37,33.31-.56,50.94-.56s35.32.19,52.79.56c11.7.19,24.25,8.51,24.46,23.54.36,18.38.75,39.73.75,60.24,0,18.79-.24,34.12-.75,46.86-.41,14.2-10.61,24.4-24.82,24.8h0c-16.34.37-33.41.56-50.74.56ZM652.62,130.47c-17.6,0-34.71.19-50.85.56-12.94.35-21.42,7.65-21.59,18.6-.35,17-.75,39.28-.75,60.93,0,19.8.24,35.51.74,48.03.55,13.51,8.31,20.54,23.08,20.88,16.69.37,33.86.56,51.04.56s34.34-.19,50.66-.56c12.26-.34,21.06-9.15,21.41-21.42.5-12.71.75-27.99.75-46.74,0-20.48-.38-41.8-.75-60.18-.18-12.84-10.96-19.93-21.02-20.1-17.45-.37-35.19-.56-52.73-.56ZM652.06,266.74c-13.78,0-27.1-.18-40.66-.37-11.91-.19-16.96-2.23-17.38-14.37-.37-13.76-.56-29.69-.56-46.11s.19-33.11.56-47.95c.21-10.55,4.12-14.18,15.51-14.38,13.57-.19,28.15-.37,42.91-.37s30.86.19,44.39.37c9.6.2,14.54,2.47,14.96,14.37.5,13.56.75,29.49.75,48.72,0,17.59-.24,32.25-.75,44.81-.23,9.84-5.36,14.73-15.7,14.92h-1.14c-14.94.2-29.06.37-42.88.37ZM652.44,146.69c-14.73,0-29.3.18-42.85.37-9.53.17-11.9,2.32-12.07,10.96-.37,14.82-.56,31.37-.56,47.87s.19,32.29.56,46c.32,9.04,2.53,10.79,13.94,10.97,13.55.2,26.85.37,40.61.37s27.91-.17,42.84-.36h1.13c8.51-.17,12.07-3.51,12.25-11.54.5-12.54.75-27.15.75-44.7,0-19.18-.24-35.07-.74-48.59-.33-9.35-2.89-10.82-11.52-10.99-13.51-.18-29.21-.37-44.33-.37ZM693.45,250.89h-82.21c-6.71,0-9.77-4.48-9.77-8.65,0-4.46,3.42-9.21,9.77-9.21h30.5v-23.7l-20.43.17c-6.58,0-9.58-4.39-9.58-8.46,0-4.37,3.42-9.02,9.77-9.02l20.25.17v-15.5h-25.65c-6.71,0-9.77-4.48-9.77-8.65,0-4.46,3.42-9.21,9.77-9.21h71.96c6.17,0,9.39,4.44,9.39,8.83s-3.23,9.02-9.39,9.02h-26.21v15.5l20.79-.17c6.12,0,9.41,4.46,9.41,8.65s-3.23,8.83-9.39,8.83l-5.93-.05c5.36,1.59,19.98,7.16,19.98,15.45,0,3.38-1.88,6.47-4.55,8.13h1.31c6.17,0,9.39,4.44,9.39,8.83s-3.23,9.02-9.39,9.02ZM611.24,236.54c-4.3,0-6.27,2.96-6.27,5.71,0,2.37,1.64,5.15,6.27,5.15h82.21c4.07,0,5.89-2.77,5.89-5.52,0-2.57-1.84-5.33-5.89-5.33h-35.12v-30.73l24.32.2c4.03,0,5.88-2.76,5.88-5.33s-2.02-5.15-5.89-5.15l-24.31.2v-22.53h29.71c4.07,0,5.89-2.77,5.89-5.52,0-2.57-1.84-5.33-5.89-5.33h-71.96c-4.3,0-6.27,2.96-6.27,5.71,0,2.37,1.64,5.15,6.27,5.15h29.15v22.53l-23.76-.2c-4.1,0-6.25,2.78-6.25,5.52,0,2.29,1.59,4.96,6.08,4.96h.19l23.75-.2v30.73h-34ZM661.83,233.04h21.63c-.48-.29-.95-.63-1.39-1.01-4.65-3.72-10.52-7.17-12.39-8.2-2.71-1.46-4.27-3.79-4.27-6.38,0-3.63,2.84-6.89,6.56-8.03l-10.14-.08v23.7ZM674.72,212.49c-3.33.04-5.81,2.64-5.81,4.96,0,1.29.86,2.46,2.44,3.31,1.96,1.07,8.09,4.68,12.94,8.56l.06.05c1.06.92,2.3,1.43,3.51,1.43,2.79,0,5.33-2.81,5.33-5.89,0-6.3-16.26-12.04-18.47-12.42ZM674.81,212.49h-.01.01Z" fill="#2b2b2b"/><path d="M579.55,353.54c-5.97,0-8.58-3.73-8.58-7.46,0-4.1,2.98-8.2,8.58-8.2h52.94c5.59,0,8.2,3.92,8.2,7.83s-2.61,7.83-8.2,7.83h-52.94ZM619.63,467.63c-3.91.19-9.51.37-14.91.37s-10.63-.19-14.35-.37c-8.76-.56-14.17-6.52-14.35-14.73-.19-4.1-.19-8.02-.19-12.12,0-5.41,0-10.81.19-15.47.19-7.08,4.66-13.61,13.98-14.17,4.29-.19,9.13-.37,13.98-.37,5.97,0,11.74.19,16.22.37,7.27.37,15.29,5.22,15.47,13.24.19,4.29.19,9.32.19,14.35s0,9.88-.19,13.98c-.19,8.39-6.34,14.35-16.03,14.91ZM585.7,328c-5.59,0-8.2-3.54-8.2-7.27,0-3.92,2.98-8.02,8.2-8.02h38.77c5.22,0,7.83,3.73,7.83,7.64s-2.61,7.64-7.83,7.64h-38.77ZM586.07,377.78c-5.59,0-8.2-3.54-8.2-7.27,0-3.92,2.98-8.02,8.2-8.02h38.77c5.22,0,7.83,3.73,7.83,7.64s-2.61,7.64-7.83,7.64h-38.77ZM586.07,401.83c-5.59,0-8.2-3.54-8.2-7.27,0-3.92,2.98-8.02,8.2-8.02h38.77c5.22,0,7.83,3.73,7.83,7.64s-2.61,7.64-7.83,7.64h-38.77ZM619.44,439.29c0-3.36,0-6.71-.19-9.32-.37-4.85-4.47-5.03-13.98-5.03-2.61,0-5.22,0-8.02.19-5.41.37-5.41,3.54-5.41,13.98,0,3.36.19,6.71.19,9.51.19,3.92,3.73,4.47,13.24,4.47,10.63,0,13.79-1.12,13.98-4.66.19-2.61.19-5.96.19-9.13ZM645.35,397.35c-5.41,0-8.02-3.73-8.02-7.46s2.8-7.64,8.02-7.64h19.39c1.68-6.52,3.36-14.73,5.03-22.74-4.66,0-9.13,0-13.05.19h-.37c-5.22,0-7.64-3.54-7.64-7.27s2.8-7.64,8.02-7.83h16.22c1.12-5.41,2.05-10.25,2.61-13.79h-23.3c-5.78,0-8.39-3.54-8.39-7.08,0-3.91,2.98-7.83,8.39-7.83h69.72c5.41,0,8.02,3.73,8.02,7.46s-2.61,7.46-8.02,7.46h-29.45c-.75,3.73-1.68,8.39-2.8,13.79,4.29,0,8.76.19,12.86.19,11.93.19,17.52,5.59,17.52,17.52,0,5.96-.19,13.24-.37,19.95h10.25c5.22,0,7.83,3.73,7.83,7.46,0,3.92-2.61,7.64-7.83,7.64h-84.63ZM707.8,468.38c-5.03.37-11.56.56-18.08.56-24.23,0-38.59,0-39.33-17.71-.19-3.73-.19-7.64-.19-11.74,0-4.85,0-9.88.37-14.17.56-9.51,7.27-16.03,17.9-16.59,5.41-.19,11.93-.37,18.27-.37,7.64,0,15.29.19,21.06.37,9.51.37,18.27,7.08,18.64,16.41.19,4.85.37,10.44.37,15.84,0,3.36,0,6.71-.19,9.88-.37,9.69-6.9,16.59-18.83,17.52ZM708.92,436.5c0-11-.75-13.61-7.08-13.79-3.73-.19-8.76-.19-13.79-.19s-9.88,0-13.42.19c-7.08.19-7.27,3.36-7.27,17.34,0,2.8.19,5.59.19,7.64.37,6.15,7.83,6.15,20.69,6.15,16.22,0,20.13-1.12,20.51-6.15.19-3.17.19-7.27.19-11.18ZM703.14,382.25c.19-5.03.37-10.25.37-14.54,0-5.96-1.12-8.02-5.78-8.02l-11.19-.19c-1.86,8.02-3.54,16.22-5.22,22.74h21.81Z" fill="#fff"/><path d="M689.72,470.69c-24.25,0-40.27,0-41.08-19.39-.19-3.76-.19-7.67-.19-11.82,0-4.89,0-9.96.38-14.32.61-10.44,8.29-17.59,19.55-18.19,4.67-.16,11.63-.37,18.36-.37,6.35,0,13.45.13,21.12.37,11.02.43,19.94,8.38,20.33,18.08.19,4.81.37,10.46.37,15.91,0,3.32,0,6.76-.19,9.98-.42,11.02-8.07,18.2-20.44,19.16h0c-4.91.36-11.38.56-18.21.56ZM686.74,410.1c-6.68,0-13.59.21-18.21.37-9.47.5-15.7,6.23-16.21,14.95-.37,4.26-.37,9.24-.37,14.06,0,4.1,0,7.97.18,11.66.65,15.4,11.99,16.05,37.59,16.05,6.75,0,13.12-.2,17.95-.55,10.58-.83,16.86-6.6,17.21-15.84.19-3.15.19-6.54.19-9.81,0-5.39-.19-11-.37-15.78-.35-8.81-8.9-14.41-16.96-14.72-7.62-.25-14.69-.37-21-.37ZM604.72,469.75c-6.27,0-12.19-.26-14.44-.38-9.53-.61-15.8-7.06-16.02-16.44-.19-4.1-.19-8.01-.19-12.16,0-5.33,0-10.85.19-15.54.18-6.87,4.38-15.17,15.62-15.85,4.5-.2,9.3-.38,14.09-.38s10.25.12,16.29.37c8.28.42,16.94,6.13,17.15,14.94.19,4.29.19,9.43.19,14.4s0,9.92-.19,14.06c-.21,9.45-7.15,15.97-17.68,16.58h-.02c-2.37.11-8.57.38-15,.38ZM603.97,412.52c-4.72,0-9.47.18-13.91.37-8.84.53-12.16,6.79-12.31,12.47-.19,4.65-.19,10.13-.19,15.43,0,4.1,0,7.98.18,12.04.17,7.58,5.04,12.57,12.72,13.06,2.2.11,8.06.37,14.24.37s12.47-.26,14.82-.37c8.7-.5,14.21-5.56,14.38-13.2.19-4.1.19-9.1.19-13.94s0-10.03-.18-14.28c-.16-6.82-7.15-11.22-13.81-11.56-5.98-.25-11.26-.37-16.13-.37ZM688.23,455.59c-13.23,0-21.97,0-22.44-7.8v-.11c0-.93-.04-2.01-.08-3.18-.05-1.37-.1-2.93-.1-4.47,0-13.33,0-18.85,8.97-19.09,3.54-.19,8.36-.19,13.47-.19s10.11,0,13.88.19c8.37.25,8.75,5.22,8.75,15.54,0,3.97,0,8.07-.19,11.29-.52,7.06-7.18,7.8-22.25,7.8ZM669.29,447.63c.3,4.28,6.04,4.46,18.94,4.46,16.68,0,18.53-1.38,18.76-4.53.18-3.09.18-7.14.18-11.06,0-11.49-.94-11.92-5.39-12.05-3.72-.19-8.82-.19-13.74-.19s-9.83,0-13.33.18c-5.06.13-5.61.65-5.61,15.59,0,1.47.05,2.93.1,4.34.04,1.19.08,2.29.08,3.25ZM605.27,454.84c-7.88,0-14.69,0-14.98-6.14,0-1.4-.04-2.85-.09-4.36-.05-1.7-.1-3.45-.1-5.23,0-10.47,0-15.24,7.04-15.73,2.86-.19,5.54-.19,8.14-.19,9.16,0,15.21,0,15.73,6.65.19,2.68.19,6.12.19,9.45s0,6.59-.19,9.26c-.31,5.82-7,6.29-15.73,6.29ZM605.27,426.69c-2.54,0-5.16,0-7.9.18-3.49.24-3.77,1.16-3.77,12.24,0,1.73.05,3.46.1,5.13.04,1.55.09,3.02.09,4.38.09,1.87,1.21,2.72,11.49,2.72,11.17,0,12.15-1.36,12.23-3,.18-2.58.18-5.87.18-9.04s0-6.65-.18-9.2c-.22-2.9-2.05-3.41-12.24-3.41ZM624.85,403.58h-38.77c-6.84,0-9.95-4.68-9.95-9.02,0-4.8,3.72-9.77,9.95-9.77h38.77c6.58,0,9.58,4.87,9.58,9.39s-3.29,9.39-9.58,9.39ZM586.07,388.29c-4.19,0-6.45,3.23-6.45,6.27,0,2.67,1.7,5.52,6.45,5.52h38.77c4.18,0,6.08-3.05,6.08-5.89s-1.59-5.89-6.08-5.89h-38.77ZM729.99,399.1h-84.63c-6.41,0-9.77-4.63-9.77-9.21s3.42-9.39,9.77-9.39h18.02c1.39-5.59,2.81-12.36,4.18-18.93l.07-.32c-3.88,0-7.54.03-10.81.18h-.46c-6.45,0-9.39-4.67-9.39-9.02s3.4-9.35,9.7-9.58h14.85c.84-4.09,1.5-7.54,1.97-10.3h-21.24c-6.97,0-10.14-4.58-10.14-8.83,0-4.64,3.55-9.58,10.14-9.58h69.72c6.41,0,9.77,4.63,9.77,9.21s-3.35,9.21-9.77,9.21h-28.02c-.59,2.95-1.29,6.42-2.09,10.31,1.49.02,3,.05,4.47.08,2.18.05,4.24.09,6.25.09,12.98.2,19.27,6.51,19.27,19.27,0,5.51-.16,12.15-.32,18.2h8.45c6.29,0,9.58,4.63,9.58,9.21s-3,9.39-9.58,9.39ZM645.35,384c-4.11,0-6.27,2.96-6.27,5.89s1.94,5.71,6.27,5.71h84.63c4.49,0,6.08-3.17,6.08-5.89s-1.88-5.71-6.08-5.71h-12.05l.05-1.8c.18-6.47.37-13.88.37-19.9,0-10.88-4.73-15.6-15.8-15.77h-.01c-2.02,0-4.19-.05-6.29-.09-2.16-.05-4.39-.09-6.54-.09h-2.15l.44-2.1c1.12-5.4,2.05-10.06,2.79-13.78l.28-1.41h30.89c4.33,0,6.27-2.87,6.27-5.71s-1.94-5.71-6.27-5.71h-69.72c-4.36,0-6.64,3.06-6.64,6.08,0,2.46,1.74,5.33,6.64,5.33h25.35l-.32,2.02c-.53,3.33-1.41,8-2.62,13.88l-.29,1.4h-17.64c-4.09.15-6.27,3.17-6.27,6.08,0,2.67,1.55,5.52,5.89,5.52h.37c3.87-.19,8.33-.19,13.05-.19h2.15l-.95,4.53c-1.49,7.12-3.03,14.49-4.54,20.4l-.34,1.31h-20.74ZM704.83,384h-25.75l.56-2.19c1.03-4.02,2.06-8.66,3.15-13.58.67-3,1.35-6.08,2.06-9.13l.32-1.38,12.6.21c6.92,0,7.5,4.82,7.5,9.77,0,4.17-.17,9.08-.37,14.61l-.06,1.69ZM683.58,380.5h17.88c.17-4.81.31-9.11.31-12.79,0-6.03-1.16-6.27-4.03-6.27l-9.8-.16c-.59,2.58-1.17,5.18-1.73,7.71-.91,4.08-1.77,7.98-2.63,11.51ZM624.85,379.53h-38.77c-6.84,0-9.95-4.68-9.95-9.02,0-4.8,3.72-9.77,9.95-9.77h38.77c6.58,0,9.58,4.87,9.58,9.39s-3.29,9.39-9.58,9.39ZM586.07,364.24c-4.19,0-6.45,3.23-6.45,6.27,0,2.67,1.7,5.52,6.45,5.52h38.77c4.18,0,6.08-3.05,6.08-5.89s-1.59-5.89-6.08-5.89h-38.77ZM632.49,355.29h-52.94c-7.09,0-10.33-4.77-10.33-9.21,0-4.82,3.62-9.95,10.33-9.95h52.94c6.84,0,9.95,4.97,9.95,9.58s-3.11,9.58-9.95,9.58ZM579.55,339.63c-4.69,0-6.83,3.34-6.83,6.45,0,2.76,1.79,5.71,6.83,5.71h52.94c4.76,0,6.45-3.28,6.45-6.08s-1.69-6.08-6.45-6.08h-52.94ZM624.48,329.75h-38.77c-6.84,0-9.95-4.68-9.95-9.02,0-4.8,3.72-9.77,9.95-9.77h38.77c6.58,0,9.58,4.87,9.58,9.39s-3.29,9.39-9.58,9.39ZM585.7,314.47c-4.19,0-6.45,3.23-6.45,6.27,0,2.67,1.69,5.52,6.45,5.52h38.77c4.18,0,6.08-3.06,6.08-5.89s-1.59-5.89-6.08-5.89h-38.77Z" fill="#2b2b2b"/></svg>