<?xml version="1.0" encoding="UTF-8"?><svg id="_レイヤー_8" xmlns="http://www.w3.org/2000/svg" width="800" height="1000" viewBox="0 0 800 1000"><path d="M594.97,509.2c6.38,0,11.55,2.82,11.55,6.29s-5.17,6.3-11.55,6.3-11.55-2.82-11.55-6.3,5.17-6.29,11.55-6.29Z" fill="#c7ccd1"/><path d="M577.25,442.87c6.38,0,11.55,2.82,11.55,6.3s-5.17,6.3-11.55,6.3-11.54-2.82-11.54-6.3,5.17-6.3,11.54-6.3Z" fill="#c7ccd1"/><path d="M197.03,509.2c6.38,0,11.55,2.82,11.55,6.29s-5.17,6.3-11.55,6.3-11.55-2.82-11.55-6.3,5.17-6.29,11.55-6.29Z" fill="#c7ccd1"/><ellipse cx="210.37" cy="449.17" rx="11.55" ry="6.3" fill="#c7ccd1"/><path d="M580.71,194.93c7.42,0,13.44,6.02,13.44,13.44s-6.02,13.45-13.44,13.45-13.44-6.02-13.44-13.45,6.01-13.44,13.44-13.44Z" fill="#c7ccd1"/><path d="M568.61,93.65c7.42,0,13.44,6.02,13.44,13.45s-6.02,13.44-13.44,13.44-13.44-6.02-13.44-13.44,6.02-13.45,13.44-13.45Z" fill="#c7ccd1"/><path d="M219.29,194.93c7.43,0,13.44,6.02,13.44,13.44s-6.01,13.45-13.44,13.45-13.44-6.02-13.44-13.45,6.02-13.44,13.44-13.44Z" fill="#c7ccd1"/><path d="M231.39,93.65c7.42,0,13.44,6.02,13.44,13.45s-6.02,13.44-13.44,13.44-13.44-6.02-13.44-13.44,6.02-13.45,13.44-13.45Z" fill="#c7ccd1"/><path d="M648.74,884.98c3.35.18,6.25,2.65,6.32,5.97l.68,33.65c.05,2.4-1.47,4.62-3.89,5.62-19.13,7.93-34.58,2.71-41.35-.56-2.26-1.08-3.62-3.27-3.51-5.59l1.47-33.12c.11-2.42,1.72-4.37,3.9-5.27.48-.2,1-.35,1.54-.45,1.15-.2,2.38-.14,3.6.26,11.44,3.71,21.69,2.06,28.55-.16.64-.21,1.3-.33,1.95-.35.25-.02.5-.01.74,0Z" fill="#555"/><path d="M610.64,765.79h-.5c-6.14-.23-13.13-1.64-20.61-5.17-2.36-1.12-3.78-3.41-3.61-5.81l2.33-33.58c.2-2.84,2.46-4.96,5.22-5.51.45-.09.92-.14,1.39-.14.88-.01,1.79.15,2.67.48,3.13,1.19,7,2.28,11.41,2.81h.61c.34,15.36.71,31.29,1.09,46.92Z" fill="#555"/><path d="M220.8,758.26c.18,2.4-1.22,4.7-3.58,5.83-10.87,5.21-20.74,5.9-28.45,5h-.36c.37-15.28.75-31.01,1.09-46.36l.72.02c7.51.3,14-1.34,18.77-3.17.88-.34,1.79-.5,2.67-.5,3.36,0,6.39,2.31,6.64,5.62l2.5,33.56Z" fill="#555"/><path d="M185.51,878.5c3.36.14,6.29,2.57,6.4,5.89l1.1,33.63c.08,2.41-1.41,4.65-3.81,5.68-19.04,8.16-34.55,3.14-41.36-.04-2.28-1.05-3.66-3.22-3.58-5.55l1.04-33.14c.09-2.42,1.67-4.38,3.84-5.31.66-.29,1.38-.48,2.13-.56.97-.1,1.99-.01,3,.3,11.5,3.57,21.72,1.78,28.55-.52.89-.3,1.81-.42,2.69-.38Z" fill="#555"/><path d="M211.38,242.47h16.95v186.42h-22.17c-1.08,0-2.15.07-3.2.21l-.34-2.6v-185.53c2.74.97,5.69,1.5,8.76,1.5Z" fill="#c7ccd1"/><path d="M205.63,80.81l2.72-.61c-14.2,11.73-23.26,29.48-23.26,49.34v86.64c0,11.45,7.32,21.19,17.53,24.79v185.53l.34,2.6c-10.17,1.31-18.53,8.78-20.54,18.78l-5.82,28.82-2.82-315.83c1.79-75.28,31.85-80.06,31.85-80.06Z" fill="#c7ccd1"/><path d="M202.62,240.97c-10.21-3.6-17.53-13.34-17.53-24.79v-86.64c0-19.86,9.06-37.61,23.26-49.34,11.05-9.12,25.22-14.59,40.67-14.59h297.56c15.2,0,29.16,5.3,40.13,14.16,14.52,11.72,23.81,29.66,23.81,49.77v86.64c0,9.93-5.51,18.58-13.64,23.05-3.76,2.07-8.07,3.24-12.66,3.24H211.38c-3.07,0-6.02-.53-8.76-1.5ZM594.15,208.37c0-7.42-6.02-13.44-13.44-13.44s-13.44,6.02-13.44,13.44,6.01,13.45,13.44,13.45,13.44-6.02,13.44-13.45ZM582.05,107.1c0-7.43-6.02-13.45-13.44-13.45s-13.44,6.02-13.44,13.45,6.02,13.44,13.44,13.44,13.44-6.02,13.44-13.44ZM244.83,107.1c0-7.43-6.02-13.45-13.44-13.45s-13.44,6.02-13.44,13.45,6.02,13.44,13.44,13.44,13.44-6.02,13.44-13.44ZM232.73,208.37c0-7.42-6.01-13.44-13.44-13.44s-13.44,6.02-13.44,13.44,6.02,13.45,13.44,13.45,13.44-6.02,13.44-13.45Z" fill="#e7c79e"/><path d="M176.6,476.7l5.82-28.82c2.01-10,10.37-17.47,20.54-18.78,1.05-.14,2.12-.21,3.2-.21h378.5c4.43,0,8.62,1.17,12.23,3.23,5.83,3.31,10.14,8.95,11.52,15.76l14.19,70.27c.51,2.52.58,5.02.27,7.41-1.44,11.3-11.36,20.44-23.84,20.44H191.79c-11.86,0-21.42-8.26-23.57-18.8v-9.05l8.38-41.45ZM606.52,515.49c0-3.47-5.17-6.29-11.55-6.29s-11.55,2.82-11.55,6.29,5.17,6.3,11.55,6.3,11.55-2.82,11.55-6.3ZM588.8,449.17c0-3.48-5.17-6.3-11.55-6.3s-11.54,2.82-11.54,6.3,5.17,6.3,11.54,6.3,11.55-2.82,11.55-6.3ZM221.92,449.17c0-3.48-5.17-6.3-11.55-6.3s-11.55,2.82-11.55,6.3,5.17,6.3,11.55,6.3,11.55-2.82,11.55-6.3ZM208.58,515.49c0-3.47-5.17-6.29-11.55-6.29s-11.55,2.82-11.55,6.29,5.17,6.3,11.55,6.3,11.55-2.82,11.55-6.3Z" fill="#e7c79e"/><path d="M592.44,566.22c-.35-.22-.55-.29-.55-.29v-.41h9.61c12.85,0,18.79-6.46,21.11-16.73l1.92.33s17.63,17.96,18.56,67.16c.84,44.68,4.78,261.75,4.91,268.7-.65.02-1.31.14-1.95.35-6.86,2.22-17.11,3.87-28.55.16-1.22-.4-2.45-.46-3.6-.26l-.14-.99s-1.63-56.9-3.12-118.45c-.38-15.63-.75-31.56-1.09-46.93-.77-35.84-1.34-68.67-1.34-87.64,0-52.62-12.92-63.29-15.77-65Z" fill="#c7ccd1"/><path d="M586.84,79.61s44.81,14.94,38.24,81.26l-2.48,357.28-14.19-70.27c-1.38-6.81-5.69-12.45-11.52-15.76l.48-.84v-191.2l-.49-.85c8.13-4.47,13.64-13.12,13.64-23.05v-86.64c0-20.11-9.29-38.05-23.81-49.77l.13-.16Z" fill="#c7ccd1"/><path d="M211.3,565.52h-20.71c-10.43,0-16.31-4.26-19.38-11.35-2.21-5.07-2.99-11.58-2.99-19.02v-7.95c2.15,10.54,11.71,18.8,23.57,18.8h407.24c12.48,0,22.4-9.14,23.84-20.44l1,.13v9.46c0,5.02-.35,9.63-1.26,13.64-2.32,10.27-8.26,16.73-21.11,16.73H211.3Z" fill="#c9a57a"/><path d="M609.55,718.86h-.61c-4.41-.52-8.28-1.61-11.41-2.8-.88-.33-1.79-.49-2.67-.48-.47,0-.94.05-1.39.14l-.03-.14-1-149.36c2.85,1.71,15.77,12.38,15.77,65,0,18.97.57,51.8,1.34,87.64Z" fill="#c7ccd1"/><path d="M597.37,240.08v191.2l-.48.84c-3.61-2.06-7.8-3.23-12.23-3.23h-13.58v-186.42h13.14c4.59,0,8.9-1.17,12.66-3.24l.49.85Z" fill="#c7ccd1"/><path d="M211.3,565.52l.36,153.56c-.88,0-1.79.16-2.67.5-4.77,1.83-11.26,3.47-18.77,3.17l-.72-.02c.88-39.52,1.56-76.6,1.56-97.26,0-59.15,14.32-59.28,14.32-59.28v-.67h5.92Z" fill="#c7ccd1"/><path d="M205.38,565.52v.67s-14.32.13-14.32,59.28c0,20.66-.68,57.74-1.56,97.26-.34,15.35-.72,31.08-1.09,46.35-1.43,57.98-2.9,109.42-2.9,109.42-.88-.04-1.8.08-2.69.38-6.83,2.3-17.05,4.09-28.55.52-1.01-.31-2.03-.4-3-.3.21-9.15,4.92-224.12,4.92-268.56s14.56-56.17,14.56-56.17l.46-.2c3.07,7.09,8.95,11.35,19.38,11.35h14.79Z" fill="#c7ccd1"/><path d="M631.51,937.42c-9.81,0-17.58-2.77-22.31-5.06-3.32-1.59-5.37-4.9-5.2-8.43l1.47-33.11c.16-3.48,2.36-6.51,5.75-7.91.67-.28,1.39-.49,2.14-.63,0,0,.02,0,.03,0,1.68-.29,3.43-.17,5.05.36,10.81,3.51,20.48,1.84,26.69-.16.89-.29,1.8-.46,2.71-.49.38-.03.72-.01,1.04,0,5.06.27,9.09,4.18,9.19,8.9l.68,33.65c.08,3.66-2.18,6.98-5.74,8.45-7.85,3.25-15.1,4.43-21.49,4.43ZM614.43,888.18c-.33.06-.64.15-.92.27-.95.39-1.99,1.29-2.05,2.64l-1.47,33.12c-.05,1.12.66,2.2,1.81,2.75,6.93,3.35,21.17,7.85,38.91.5,1.26-.52,2.06-1.62,2.04-2.79l-.68-33.65c-.04-1.78-1.8-2.94-3.48-3.03-.09,0-.21-.02-.33,0-.05,0-.1,0-.15,0-.36.01-.73.08-1.11.2-7.07,2.29-18.07,4.17-30.41.16-.7-.23-1.42-.28-2.15-.16Z" fill="#2b2b2b"/><path d="M168.29,931.15c-9.5,0-17.06-2.6-21.72-4.78-3.34-1.54-5.43-4.83-5.31-8.37l1.04-33.13c.13-3.49,2.3-6.53,5.66-7.97.92-.4,1.94-.67,2.99-.79,1.42-.15,2.83,0,4.2.42,10.86,3.37,20.52,1.59,26.71-.5,1.22-.41,2.5-.59,3.78-.53,5.12.22,9.11,3.99,9.27,8.79l1.1,33.63c.12,3.67-2.09,7.02-5.62,8.54-8.08,3.46-15.55,4.7-22.1,4.7ZM152.03,882.06c-.15,0-.3,0-.46.02-.43.05-.85.16-1.23.32-1.25.54-2.01,1.53-2.05,2.68l-1.04,33.12c-.04,1.15.66,2.19,1.84,2.73,6.97,3.25,21.27,7.57,38.92,0,1.25-.54,2.03-1.64,1.99-2.82l-1.1-33.63c-.06-1.78-1.84-2.92-3.53-2.99h-.01c-.54-.03-1.09.05-1.6.23-7.03,2.37-18.02,4.38-30.4.54-.44-.14-.9-.21-1.35-.21Z" fill="#2b2b2b"/><path d="M194.55,772.43c-2.04,0-4.08-.12-6.13-.36-1.65-.19-2.82-1.68-2.63-3.33.19-1.65,1.69-2.82,3.33-2.63,9.04,1.06,18.06-.53,26.81-4.73,1.23-.59,1.97-1.73,1.88-2.9l-2.5-33.56c-.13-1.78-1.96-2.84-3.65-2.84-.54,0-1.08.1-1.59.3-6.53,2.5-13.24,3.64-19.97,3.37-1.66-.07-2.94-1.46-2.88-3.12.07-1.66,1.46-2.93,3.12-2.88,5.91.23,11.82-.76,17.58-2.97,1.2-.46,2.46-.7,3.74-.7,5.05,0,9.28,3.69,9.63,8.39l2.5,33.56c.27,3.65-1.8,7.09-5.28,8.76-7.82,3.75-15.85,5.63-23.96,5.63Z" fill="#2b2b2b"/><path d="M610.14,768.8s-.08,0-.12,0c-7.38-.29-14.7-2.13-21.77-5.46-3.49-1.66-5.58-5.09-5.32-8.74l2.33-33.58c.29-4.08,3.35-7.39,7.63-8.25.69-.14,1.39-.2,2.08-.2,1.2,0,2.42.23,3.61.67,3.46,1.31,7.06,2.2,10.72,2.64,1.65.2,2.82,1.69,2.62,3.34-.2,1.64-1.69,2.82-3.34,2.62-4.14-.5-8.22-1.5-12.12-2.99-.51-.19-1.05-.3-1.57-.28-.29,0-.56.03-.83.08-1.32.26-2.71,1.23-2.82,2.78l-2.33,33.58c-.08,1.17.66,2.3,1.9,2.89,6.33,2.99,12.87,4.63,19.44,4.89,1.66.07,2.95,1.46,2.88,3.12-.06,1.62-1.39,2.88-3,2.88Z" fill="#2b2b2b"/><path d="M599.03,549H191.79c-12.85,0-24-8.92-26.51-21.2-.69-3.38-.69-6.83,0-10.25l14.2-70.27c2.24-11.17,11.53-19.67,23.1-21.16,1.17-.16,2.38-.23,3.58-.23h378.5c4.82,0,9.56,1.25,13.72,3.62,6.73,3.82,11.46,10.3,12.97,17.77l14.19,70.27c.56,2.78.67,5.6.3,8.39-1.68,13.14-13.2,23.06-26.82,23.06ZM206.16,431.89c-.94,0-1.89.06-2.8.18-9.03,1.16-16.26,7.75-17.99,16.4l-14.2,70.27c-.53,2.62-.53,5.26,0,7.85,1.94,9.51,10.62,16.4,20.63,16.4h407.24c10.6,0,19.57-7.66,20.86-17.82,0,0,0,0,0,0,.28-2.13.2-4.29-.24-6.43l-14.19-70.27c-1.17-5.77-4.84-10.78-10.06-13.74-3.26-1.86-6.97-2.84-10.75-2.84H206.16Z" fill="#2b2b2b"/><path d="M601.5,568.52H190.59c-10.91,0-18.35-4.43-22.13-13.16-2.21-5.06-3.24-11.49-3.24-20.21v-17c0-1.66,1.34-3,3-3s3,1.34,3,3v17c0,7.76.9,13.59,2.74,17.82,2.82,6.52,8.1,9.55,16.63,9.55h410.91c10.33,0,15.94-4.44,18.18-14.39.8-3.52,1.19-7.76,1.19-12.98v-9.46c0-1.66,1.34-3,3-3s3,1.34,3,3v9.46c0,5.67-.44,10.35-1.33,14.3-2.86,12.65-10.94,19.07-24.04,19.07Z" fill="#2b2b2b"/><path d="M584.22,245.47H211.38c-3.35,0-6.63-.56-9.76-1.67-11.68-4.12-19.53-15.22-19.53-27.62v-86.64c0-20.04,8.88-38.87,24.35-51.65,11.94-9.85,27.06-15.28,42.58-15.28h297.56c15.26,0,30.18,5.26,42.01,14.83,15.84,12.79,24.93,31.78,24.93,52.1v86.64c0,10.69-5.82,20.52-15.19,25.68h0c-4.29,2.36-9.17,3.61-14.11,3.61ZM249.02,68.61c-14.13,0-27.9,4.94-38.76,13.9-14.09,11.64-22.17,28.78-22.17,47.03v86.64c0,9.86,6.24,18.69,15.53,21.96,2.49.88,5.1,1.33,7.76,1.33h372.84c3.93,0,7.8-.99,11.21-2.87,0,0,0,0,0,0,7.45-4.1,12.09-11.92,12.09-20.42v-86.64c0-18.5-8.27-35.79-22.69-47.44-10.77-8.7-24.36-13.49-38.25-13.49H249.02Z" fill="#2b2b2b"/><path d="M202.62,429.5c-1.66,0-3-1.34-3-3v-185.53c0-1.66,1.34-3.04,3-3.04s3,1.3,3,2.96v185.62c0,1.66-1.34,3-3,3Z" fill="#2b2b2b"/><path d="M228.33,429.5c-1.66,0-3-1.34-3-3v-182.84c0-1.66,1.34-3,3-3s3,1.34,3,3v182.84c0,1.66-1.34,3-3,3Z" fill="#2b2b2b"/><path d="M571.08,431.89c-1.66,0-3-1.34-3-3v-185.23c0-1.66,1.34-3,3-3s3,1.34,3,3v185.23c0,1.66-1.34,3-3,3Z" fill="#2b2b2b"/><path d="M597.37,434.28c-1.66,0-3-1.34-3-3v-191.2c0-1.66,1.34-3,3-3s3,1.34,3,3v191.2c0,1.66-1.34,3-3,3Z" fill="#2b2b2b"/><path d="M151.27,882.4c-1.66,0-3-1.34-3-3v-.3c.05-2.21,4.92-223.58,4.92-268.56s15.13-58.11,15.78-58.58c1.33-.98,3.21-.7,4.2.63.98,1.32.71,3.18-.6,4.17-.29.24-13.37,11.25-13.37,53.78,0,45.03-4.87,266.48-4.92,268.63v.23c0,1.66-1.34,3-3,3Z" fill="#2b2b2b"/><path d="M185.51,881.5s-.06,0-.09,0c-1.66-.05-2.96-1.43-2.91-3.08.01-.51,1.49-52.1,2.9-109.41.37-15.27.75-30.99,1.09-46.34,1.03-46.47,1.56-79.17,1.56-97.19,0-59.13,14.4-62.25,17.29-62.28l.05,6s.1.02.27-.02c-.12.02-11.62,3.08-11.62,56.3,0,18.06-.52,50.81-1.56,97.33-.34,15.35-.72,31.08-1.09,46.36-1.41,57.32-2.89,108.92-2.9,109.43-.05,1.63-1.38,2.91-3,2.91Z" fill="#2b2b2b"/><path d="M648,888.15c-1.66,0-3-1.34-3-3v-.17c-.03-1.76-.33-17.91-.76-41.59-1.23-67.82-3.53-194.05-4.15-227.06-.89-47.14-17.54-64.95-17.71-65.12-1.15-1.19-1.12-3.09.06-4.24,1.18-1.15,3.07-1.13,4.23.04.75.77,18.48,19.38,19.42,69.21.62,33.01,2.92,159.24,4.15,227.06.43,23.67.72,39.83.76,41.64v.23c0,1.66-1.34,3-3,3Z" fill="#2b2b2b"/><path d="M613.76,887.24c-1.62,0-2.95-1.29-3-2.91-.02-.57-1.65-57.61-3.12-118.46-.38-15.63-.75-31.56-1.09-46.94-.89-41.4-1.34-70.91-1.34-87.71,0-52.33-12.85-61.55-14.31-62.43-.1-.06-.14-.08-.16-.1.1.05.16.06.16.06l1.99-5.66c.19.07.6.23,1.15.58,3.99,2.39,17.18,14.43,17.18,67.54,0,16.75.45,46.22,1.34,87.58.34,15.37.71,31.29,1.09,46.92,1.47,60.84,3.1,117.87,3.12,118.44.05,1.66-1.26,3.04-2.91,3.08-.03,0-.06,0-.09,0Z" fill="#2b2b2b"/><path d="M176.6,480.13c-1.66,0-3-1.34-3-3v-.43l-2.82-315.8c1.83-76.99,33.05-82.84,34.38-83.05,1.64-.26,3.17.86,3.43,2.49.26,1.62-.84,3.15-2.46,3.43-.42.08-27.67,6.15-29.36,77.17l2.82,315.73v.46c0,1.66-1.34,3-3,3Z" fill="#2b2b2b"/><path d="M622.6,521.15h-.02c-1.66-.01-2.99-1.36-2.98-3.02l2.48-357.28c0-.09,0-.18.01-.28,2.59-26.12-2.85-47.9-15.72-62.99-9.72-11.39-20.38-15.1-20.49-15.13-1.57-.53-2.41-2.23-1.88-3.8.53-1.57,2.22-2.42,3.79-1.89.49.16,12.11,4.14,22.91,16.65,9.84,11.4,20.84,32.38,17.38,67.62l-2.48,357.14c-.01,1.65-1.35,2.98-3,2.98Z" fill="#2b2b2b"/><path d="M211.66,722.08c-1.65,0-3-1.34-3-2.99l-.36-154c0-1.66,1.34-3,3-3s3,1.34,3,3v.43l.36,153.55c0,1.66-1.34,3-2.99,3.01h0Z" fill="#2b2b2b"/><path d="M593.44,718.58c-1.65,0-2.99-1.33-3-2.98l-1-149.62c0-1.66,1.34-3,3-3s3,1.34,3,3v.24l1,149.34c.01,1.66-1.32,3.01-2.98,3.02h-.02Z" fill="#2b2b2b"/><path d="M231.39,122.29c-8.38,0-15.19-6.81-15.19-15.19s6.81-15.2,15.19-15.2,15.19,6.82,15.19,15.2-6.81,15.19-15.19,15.19ZM231.39,95.4c-6.45,0-11.69,5.25-11.69,11.7s5.24,11.69,11.69,11.69,11.69-5.24,11.69-11.69-5.24-11.7-11.69-11.7Z" fill="#2b2b2b"/><path d="M219.29,223.57c-8.38,0-15.19-6.82-15.19-15.2s6.81-15.19,15.19-15.19,15.19,6.81,15.19,15.19-6.81,15.2-15.19,15.2ZM219.29,196.68c-6.45,0-11.69,5.24-11.69,11.69s5.24,11.7,11.69,11.7,11.69-5.25,11.69-11.7-5.24-11.69-11.69-11.69Z" fill="#2b2b2b"/><path d="M568.61,122.29c-8.38,0-15.19-6.81-15.19-15.19s6.81-15.2,15.19-15.2,15.19,6.82,15.19,15.2-6.81,15.19-15.19,15.19ZM568.61,95.4c-6.45,0-11.69,5.25-11.69,11.7s5.24,11.69,11.69,11.69,11.69-5.24,11.69-11.69-5.24-11.7-11.69-11.7Z" fill="#2b2b2b"/><path d="M580.71,223.57c-8.38,0-15.19-6.82-15.19-15.2s6.81-15.19,15.19-15.19,15.19,6.81,15.19,15.19-6.81,15.2-15.19,15.2ZM580.71,196.68c-6.45,0-11.69,5.24-11.69,11.69s5.24,11.7,11.69,11.7,11.69-5.25,11.69-11.7-5.24-11.69-11.69-11.69Z" fill="#2b2b2b"/><path d="M210.37,457.22c-7.46,0-13.3-3.54-13.3-8.05s5.84-8.05,13.3-8.05,13.3,3.54,13.3,8.05-5.84,8.05-13.3,8.05ZM210.37,444.62c-5.61,0-9.8,2.4-9.8,4.55s4.19,4.55,9.8,4.55,9.8-2.4,9.8-4.55-4.19-4.55-9.8-4.55Z" fill="#2b2b2b"/><path d="M197.03,523.54c-7.46,0-13.3-3.54-13.3-8.05s5.84-8.04,13.3-8.04,13.3,3.53,13.3,8.04-5.84,8.05-13.3,8.05ZM197.03,510.95c-5.61,0-9.8,2.4-9.8,4.54s4.19,4.55,9.8,4.55,9.8-2.4,9.8-4.55-4.19-4.54-9.8-4.54Z" fill="#2b2b2b"/><path d="M577.25,457.22c-7.45,0-13.29-3.54-13.29-8.05s5.84-8.05,13.29-8.05,13.3,3.54,13.3,8.05-5.84,8.05-13.3,8.05ZM577.25,444.62c-5.6,0-9.79,2.4-9.79,4.55s4.19,4.55,9.79,4.55,9.8-2.4,9.8-4.55-4.19-4.55-9.8-4.55Z" fill="#2b2b2b"/><path d="M594.97,523.54c-7.46,0-13.3-3.54-13.3-8.05s5.84-8.04,13.3-8.04,13.3,3.53,13.3,8.04-5.84,8.05-13.3,8.05ZM594.97,510.95c-5.61,0-9.8,2.4-9.8,4.54s4.19,4.55,9.8,4.55,9.8-2.4,9.8-4.55-4.19-4.54-9.8-4.54Z" fill="#2b2b2b"/></svg>