<?xml version="1.0" encoding="UTF-8"?><svg id="_レイヤー_5" xmlns="http://www.w3.org/2000/svg" width="1000" height="1000" viewBox="0 0 1000 1000"><path d="M410.77,322.92c2.44.25,4.92-.54,6.8-2.24,18.55-16.84,97.85-84.36,151.37-84.76,37.47-.29,30.48-2.99,30.48-2.99l3.58-41.23,55.57,8.96v48.4s12.55,2.69,10.75,35.85c-1.44,26.65,15.64,76.83,16.83,117.22.3,10.46,1.87,20.79,4.51,30.88l-.6.16s-53.18,64.38-78.28,90.37c-25.09,25.99-114.72,84.25-114.72,84.25,0,0-17.74,9.41-45.34,21.37l-.2-.46c-177.46-168.5-277.12-119.2-277.12-119.2l-1.89-.24c21.67-19.99,81.54-73.99,103.57-81.47.82-.28,1.54-.74,2.12-1.33l2.07.25c3.05-2.32,19.37-13.87,44.23-15.75-10.13,2.84-46.91,26.96-61.51,38.03-4.15,3.14-3.75,9.48.75,12.11,21.25,12.39,76.94,37.25,165,2.08,23.86-9.52,50.09-23.45,78.66-43.23,5.22-3.61,10.26-7.14,15.14-10.58,147.68-104.17,143.07-131.55,130.05-147.16-13.44-16.14-77.07-19.72-95-12.55-17.92,7.17-71.98,20.83-128.85,79.69l-2.46.46c-5.39-2.47-10.66-4.35-15.69-5.46l.18-1.43Z" fill="#fff"/><path d="M686.06,472.53c-22.28,22.28-215.97,281.09-497.54,233.16-9.68-1.65-19.4-3.12-29.17-4.1-13.61-1.36-35.56-7.66-53.44-15.05-17.97-7.42-28.91-25.61-27.29-44.76l.78.07s122.79,47.5,218.69,34.05c56.12-7.86,114.69-29.85,153.63-46.74,27.6-11.96,45.34-21.37,45.34-21.37,0,0,89.63-58.26,114.72-84.25,25.1-25.99,78.28-90.37,78.28-90.37l.6-.16c1.01,3.87,2.18,7.7,3.5,11.49,2.67,7.69,2.32,17.61-8.1,28.03Z" fill="#275faf"/><path d="M451.52,628.7l.2.46c-38.94,16.89-97.51,38.88-153.63,46.74-95.9,13.45-218.69-34.05-218.69-34.05l-.78-.07c.08-1.02.2-2.04.36-3.07l.19-.81c3-12.93,6.1-26.2,8.81-39.2,5.76-27.66,42.92-70.91,76.56-82.03,0,0,2.97-2.8,7.97-7.41l1.89.24s99.66-49.3,277.12,119.2Z" fill="#3b6fd8"/><path d="M652.59,262.21c13.02,15.61,17.63,42.99-130.05,147.16l-.39-.55s-52-58.94-95.87-79.01l2.46-.46c56.87-58.86,110.93-72.52,128.85-79.69,17.93-7.17,81.56-3.59,95,12.55Z" fill="#e0e0e0"/><path d="M428.11,461.59l.63,1.59c-88.06,35.17-143.75,10.31-165-2.08-4.5-2.63-4.9-8.97-.75-12.11,14.6-11.07,51.38-35.19,61.51-38.03,26.66-2.02,63.14,7.08,103.61,50.63Z" fill="#e0e0e0"/><path d="M278.2,426.46c.97-.98,1.55-2.31,1.55-3.75,0-6.48,1.12-12.87,3.28-18.89,2.15-6.01,5.33-11.67,9.44-16.68,14.25-17.37,38.21-44.76,60.12-61.11,13.85-10.34,32.04-12.82,48.17-6.62l7.71,2.97c.75.29,1.52.47,2.3.54l-.18,1.43c5.03,1.11,10.3,2.99,15.69,5.46,43.87,20.07,95.87,79.01,95.87,79.01l.39.55c-4.88,3.44-9.92,6.97-15.14,10.58-28.57,19.78-54.8,33.71-78.66,43.23l-.63-1.59c-40.47-43.55-76.95-52.65-103.61-50.63-24.86,1.88-41.18,13.43-44.23,15.75l-2.07-.25Z" fill="#fff"/><path d="M258.18,714.63c-23.35,0-46.74-1.99-70.16-5.98-11.35-1.94-20.56-3.23-28.97-4.07-13.48-1.35-35.8-7.62-54.29-15.26-19.17-7.92-30.88-27.12-29.13-47.79.08-1.07.21-2.17.39-3.28l.04-.22.75-3.22c2.8-12.08,5.7-24.56,8.24-36.72,5.83-28.01,42.82-72.07,77.92-84.05,1.03-.97,3.68-3.44,7.51-6.98,24.02-22.16,82.32-74.53,104.64-82.1.36-.12.68-.32.95-.59.45-.45.69-1.03.69-1.65,0-6.81,1.16-13.51,3.46-19.9,2.29-6.41,5.64-12.32,9.95-17.57,15.78-19.24,39.12-45.55,60.64-61.61,14.75-11.01,33.83-13.63,51.04-7.02l7.71,2.97c.49.19.99.31,1.49.35h.04c1.63.17,3.26-.37,4.48-1.48,9.59-8.71,95.4-85.1,153.36-85.53,17.85-.14,24.87-.84,27.6-1.31l3.77-43.39,61.28,9.88v49c4.24,2.45,12.23,10.71,10.75,37.97-.7,12.87,3.19,32.05,7.3,52.35,4.18,20.65,8.92,44.05,9.53,64.62.28,9.94,1.77,20.1,4.41,30.21.98,3.74,2.13,7.53,3.43,11.26,2.63,7.56,3.23,19.1-8.81,31.14-1.87,1.87-5.08,5.58-9.54,10.71-24.39,28.11-81.51,93.94-165.83,148.44-83.18,53.77-168.57,80.82-254.64,80.82ZM81.93,639.28c-.14.92-.25,1.84-.32,2.73-1.53,18.07,8.7,34.84,25.44,41.75,18,7.44,39.63,13.54,52.59,14.84,8.55.86,17.88,2.17,29.38,4.13,116.49,19.83,295.21-2.47,485.09-221.31,4.53-5.23,7.81-9,9.83-11.02,7.9-7.9,10.39-16.29,7.39-24.92-1.35-3.88-2.55-7.82-3.57-11.72-2.76-10.54-4.31-21.16-4.61-31.55-.59-20.05-5.08-42.19-9.41-63.6-4.19-20.69-8.15-40.24-7.41-53.87,1.54-28.38-7.67-32.47-8.44-32.76l-2.53-.35.22-2.57v-45.85l-49.86-8.04-3.18,36.65c.36.65.5,1.41.36,2.18-.52,2.83-3.84,3.42-8.13,3.89-5.27.58-13.95.93-25.78,1.02-55.73.42-139.96,75.43-149.38,83.98-2.48,2.24-5.8,3.34-9.1,3.01-1.05-.1-2.1-.34-3.1-.73l-7.71-2.97c-15.28-5.87-32.21-3.54-45.3,6.22-21.04,15.7-44.02,41.63-59.59,60.61-3.87,4.71-6.87,10.02-8.94,15.79-2.06,5.74-3.1,11.76-3.1,17.88,0,2.2-.86,4.28-2.42,5.86-.91.92-2.04,1.64-3.28,2.06-21.84,7.41-83.98,63.75-102.51,80.84-4.98,4.59-7.94,7.38-7.95,7.39l-.48.46-.63.21c-32.93,10.89-69.13,53.69-74.56,79.79-2.55,12.23-5.45,24.75-8.26,36.86l-.72,3.11Z" fill="#2b2b2b"/><path d="M342.62,482.92c-37.23,0-64-11.12-79.76-20.31-2.63-1.54-4.31-4.26-4.49-7.29-.18-3.01,1.15-5.9,3.56-7.72,14.59-11.07,51.69-35.4,62.09-38.32.27-.09.58-.16.87-.22.94-.17,1.86.46,2.04,1.41.17.95-.46,1.86-1.41,2.04-.15.03-.32.07-.49.12-9.75,2.73-46.38,26.68-60.99,37.76-1.5,1.13-2.29,2.86-2.18,4.73.11,1.89,1.12,3.52,2.76,4.48,25.57,14.91,80.8,34.98,163.47,1.97,25.28-10.09,51.63-24.57,78.31-43.04,4.67-3.23,9.62-6.69,15.13-10.57,87.68-61.85,131.86-103.75,135.06-128.09,1.01-7.7-2.13-12.67-5.34-16.52-5.62-6.74-22.31-12.12-44.65-14.4-19.94-2.03-39.83-1.06-48.36,2.35-2.29.91-5.15,1.93-8.47,3.11-22.83,8.12-70.33,25-119.77,76.17-.67.7-1.78.71-2.47.04-.7-.67-.71-1.78-.04-2.47,50-51.75,98.03-68.83,121.11-77.03,3.29-1.17,6.12-2.18,8.35-3.07,17.77-7.11,82.61-4.23,97,13.06,3.48,4.17,7.32,10.12,6.12,19.22-3.38,25.72-46.75,67.18-136.51,130.49-5.52,3.89-10.47,7.35-15.15,10.59-26.9,18.62-53.48,33.23-79.01,43.42-33.33,13.31-62.31,18.12-86.77,18.12Z" fill="#2b2b2b"/><path d="M428.11,463.34c-.47,0-.94-.19-1.28-.56-33.31-35.84-67.69-52.69-102.2-50.08-24.37,1.84-40.35,13.15-43.3,15.4l-.51.4c-.76.59-1.86.45-2.46-.31-.59-.76-.45-1.86.31-2.46l.5-.4c3.12-2.38,19.83-14.21,45.19-16.12,24.49-1.85,62.59,5.52,105.02,51.18.66.71.62,1.82-.09,2.47-.34.31-.76.47-1.19.47Z" fill="#2b2b2b"/><path d="M522.15,410.57c-.49,0-.97-.2-1.31-.59-.52-.59-52.26-58.89-95.29-78.58-5.47-2.51-10.63-4.3-15.34-5.34-.94-.21-1.54-1.14-1.33-2.09.21-.94,1.14-1.54,2.09-1.33,4.95,1.09,10.35,2.97,16.04,5.58,43.7,19.99,95.93,78.85,96.45,79.44.64.72.57,1.83-.15,2.47-.33.29-.75.44-1.16.44Z" fill="#2b2b2b"/><path d="M261.82,680.02c-87.45,0-181.97-36.12-183.05-36.54-.9-.35-1.35-1.36-1-2.26.35-.9,1.36-1.35,2.26-1,1.22.47,123.47,47.18,217.82,33.95,55.8-7.81,114.1-29.66,153.18-46.61,26.37-11.43,43.91-20.62,45.15-21.27,2.86-1.86,89.97-58.7,114.35-83.96,24.77-25.64,77.66-89.63,78.19-90.27.62-.74,1.72-.85,2.46-.23.75.62.85,1.72.24,2.46-.53.64-53.51,64.73-78.37,90.47-24.94,25.84-111.36,82.12-115.02,84.5l-.13.08c-.18.09-18.12,9.58-45.46,21.43-39.28,17.04-97.9,39-154.08,46.87-11.84,1.66-24.11,2.39-36.51,2.39Z" fill="#2b2b2b"/><path d="M451.52,630.45c-.43,0-.87-.16-1.21-.48-91.16-86.56-161.17-114.26-203.84-122.26-46.11-8.64-71.05,3.24-71.3,3.37-.87.42-1.92.07-2.34-.8-.43-.87-.07-1.91.79-2.34,1.04-.51,25.98-12.48,73.11-3.74,27.53,5.11,56.96,16.3,87.47,33.27,38.06,21.17,77.94,51.44,118.52,89.97.7.67.73,1.77.06,2.47-.34.36-.81.54-1.27.54Z" fill="#2b2b2b"/><path d="M918.8,511.16c3.17,11.89,4.52,28.14-1.19,47.74-12.55,43.02-48.4,66.32-48.4,66.32l-44.82,30.47-34.05,39.44s-51.99,119.2-206.15,112.93c-105.03-4.28-179.28-13.55-219.9-25.82-20.58-6.22-34.57-25.28-34.34-46.78,84.25,38.09,219.59,47.5,310.11,36.85,26.49-3.12,49.74-14.9,69.13-29.51,41.48-31.26,65.31-75.46,65.31-75.46l34.96-43.91c79.76-19.27,107.55-112.04,107.55-112.04l1.79-.23Z" fill="#275faf"/><path d="M918.8,511.16l-1.79.23s-27.79,92.77-107.55,112.04l-34.96,43.91s-23.83,44.2-65.31,75.46l-1.01-1.36c-115.22-199.43-303.77-137.6-317.12-132.92,14.68-13.13,32.78-27.34,55.11-42.45l57.36-57.37,34.42-27.73,1.07-.18c.03.22.06.33.06.33l2.19.1c2.07.11,5.53.34,10.09.78l-.03.31-55.78,52.1c-5.55,5.18-3.67,14.41,3.47,17.01,186.35,67.82,206.17,20.52,206.17,20.52,41.13-19.92,71.7-69.31,71.7-69.31,0,0,53.23-55.86,80.07-100.28,11.14-18.43,20.11-49,8.96-60.55-47.16-48.85-106.21-20.56-145.19,8.86l-80.67,59.31-.41.96c-5.94-2.57-10.43-4.42-12.92-5.42l1.24-2.34,17.17-14.56s86.54-88.64,163.62-85.05l3.09-40.43,60.94,5.38-1.79,51.98s25.99,29.58,32.27,116.51l5.37,51.99s6.38,7.97,10.16,22.17Z" fill="#fff"/><path d="M865.92,341.8c11.15,11.55,2.18,42.12-8.96,60.55-26.84,44.42-80.07,100.28-80.07,100.28-23.06-39.25-103.47-77.13-137.24-91.7l.41-.96,80.67-59.31c38.98-29.42,98.03-57.71,145.19-8.86Z" fill="#e0e0e0"/><path d="M776.89,502.63s-30.57,49.39-71.7,69.31c-26.77-71.05-120.12-86.61-153.83-89.94-4.56-.44-8.02-.67-10.09-.78l-2.19-.1s-.03-.11-.06-.33c-.45-2.65-2.42-21.44,25.18-51.06,24.5-26.29,60.33-25.09,60.33-25.09l2.2.87c2.49,1,6.98,2.85,12.92,5.42,33.77,14.57,114.18,52.45,137.24,91.7Z" fill="#fff"/><path d="M708.18,741.44l1.01,1.36c-19.39,14.61-42.64,26.39-69.13,29.51-90.52,10.65-225.86,1.24-310.11-36.85l-1.79-33.46s-.79-36.51,62.9-93.48c13.35-4.68,201.9-66.51,317.12,132.92Z" fill="#3b6fd8"/><path d="M705.19,571.94s-19.82,47.3-206.17-20.52c-7.14-2.6-9.02-11.83-3.47-17.01l55.78-52.1.03-.31c33.71,3.33,127.06,18.89,153.83,89.94Z" fill="#e0e0e0"/><path d="M595.76,811.3c-3.87,0-7.76-.08-11.69-.24-101.9-4.15-178.2-13.12-220.65-25.95-21.69-6.55-36.67-26.94-36.47-49.59l-1.79-33.37c-.04-1.64-.09-38.64,63.9-95.88,15.76-14.1,34.33-28.41,55.19-42.54l57.27-57.28.13-.1,34.42-27.73c1.29-1.04,3.18-.84,4.22.45s.84,3.18-.45,4.22l-34.29,27.63-57.45,57.46-.24.16c-20.73,14.03-39.17,28.23-54.79,42.2-60.7,54.3-61.88,89.83-61.9,91.16l1.79,33.48v.1c-.22,20.04,13.03,38.08,32.21,43.88,41.97,12.68,117.75,21.56,219.15,25.69,78.46,3.2,129.54-27.15,158.55-53.16,31.5-28.25,44.6-57.68,44.73-57.97l.18-.42,34.6-40.08,45.15-30.69c.4-.26,35.13-23.29,47.21-64.68,4.67-16.02,5.06-31.54,1.17-46.13-3.55-13.34-9.55-21-9.61-21.07l-.54-.69-.09-.88-5.37-51.99c-6.12-84.67-31.29-114.55-31.54-114.84l-.77-.89.04-1.19,1.69-49.14-55.08-4.86-3.08,40.31-2.91-.14c-74.92-3.48-160.48,83.27-161.33,84.15l-.21.19-17.17,14.56c-1.26,1.07-3.16.92-4.23-.35-1.07-1.26-.92-3.16.35-4.23l17.07-14.47c1.67-1.69,23.19-23.27,53.24-44.13,28.22-19.59,69.82-42.47,109.65-41.8l3.1-40.6,66.8,5.9-1.85,53.7c4.53,5.81,26.48,37.77,32.22,117.31l5.28,51.07c1.71,2.36,6.87,10.18,10.16,22.53,4.17,15.66,3.77,32.27-1.21,49.35-12.72,43.59-48.14,67.02-49.65,68l-44.44,30.21-33.5,38.81c-1.78,3.92-15.15,31.84-45.82,59.42-19.01,17.09-40.73,30.44-64.56,39.68-26.47,10.26-55.6,15.44-86.76,15.44Z" fill="#2b2b2b"/><path d="M564.73,778.14c-80.15,0-172.1-12.43-235.5-41.09-.88-.4-1.27-1.44-.87-2.32.4-.88,1.44-1.27,2.32-.87,84.21,38.07,219.28,47.29,309.18,36.71,23.25-2.74,46.23-12.55,68.28-29.17,40.68-30.66,64.58-74.45,64.82-74.89l.17-.26,35.33-44.38.58-.14c40.65-9.82,67.37-39.41,82.64-62.51,16.58-25.1,23.58-48.1,23.65-48.33.28-.93,1.26-1.45,2.18-1.17.93.28,1.45,1.25,1.17,2.18-.07.23-7.22,23.73-24.08,49.26-15.54,23.51-42.72,53.61-84.15,63.84l-34.49,43.32c-1.55,2.81-25.58,45.63-65.72,75.89-22.56,16.99-46.1,27.04-69.98,29.85-22.8,2.68-48.5,4.1-75.54,4.1Z" fill="#2b2b2b"/><path d="M708.18,743.19c-.61,0-1.19-.31-1.52-.88-47.84-82.81-113.61-130.63-195.49-142.14-63.13-8.88-113.95,8.04-119.54,10-.44.15-.66.23-.68.24-.9.35-1.91-.08-2.27-.98s.08-1.91.97-2.27c0,0,.28-.11.84-.3,5.65-1.98,57.21-19.15,121.17-10.16,36.59,5.14,70.64,17.83,101.19,37.71,37.75,24.56,70.34,60.27,96.84,106.15.48.84.2,1.91-.64,2.39-.28.16-.58.24-.87.24Z" fill="#2b2b2b"/><path d="M656.2,589.78c-30.77,0-79.84-8.36-157.77-36.72-3.93-1.43-6.78-4.73-7.61-8.84-.83-4.1.49-8.25,3.54-11.1l53.23-49.71c-3-.25-5.2-.38-6.41-.45-.96-.05-1.71-.88-1.65-1.84.05-.97.92-1.7,1.84-1.65,1.68.09,5.24.31,10.17.79,16.46,1.63,48.73,6.35,80.04,19.71,38.25,16.33,63.58,40.33,75.26,71.36l.25.65-.27.64c-.49,1.16-8.03,17.17-50.61,17.17ZM552.25,483.85l-55.5,51.84c-2.16,2.01-3.09,4.95-2.5,7.84.59,2.9,2.6,5.23,5.38,6.24,95.07,34.6,145.58,38.51,171.21,35.71,23.9-2.62,30.97-11.38,32.44-13.68-26.17-67.86-113.42-84.1-151.02-87.95Z" fill="#2b2b2b"/><path d="M536.19,481.92s-.07-.24-.14-.72c-.6-3.55-2.25-23.24,25.96-53.51,25.14-26.98,61.1-26.09,62.62-26.04,1.66.06,2.95,1.44,2.9,3.1-.05,1.66-1.45,2.94-3.1,2.9-.48-.02-34.84-.75-58.04,24.14-26.84,28.81-24.75,46.58-24.42,48.51l.02.15-.03-.11-5.79,1.59Z" fill="#2b2b2b"/><path d="M776.56,505.52l-1.17-2c-22.81-38.83-103.01-76.56-136.42-90.98-6.68-2.89-11.23-4.74-12.88-5.4-.9-.36-1.33-1.38-.97-2.28.36-.9,1.38-1.33,2.28-.97,1.54.62,5.58,2.26,11.49,4.8.05-.04.1-.09.15-.13l80.67-59.31c41.12-31.04,100.1-57.75,147.48-8.67,12.23,12.67,2.03,44.89-8.72,62.67-26.63,44.07-79.77,100.02-80.3,100.58l-1.6,1.68ZM642.58,410.29c34.35,14.96,110.34,51.32,134.61,89.47,8.99-9.6,54.41-58.82,78.28-98.32,10.59-17.52,19.68-47.57,9.2-58.43-45.6-47.24-102.87-21.16-142.88,9.04l-79.21,58.23Z" fill="#2b2b2b"/><path d="M705.19,573.69c-.65,0-1.27-.36-1.58-.99-.42-.87-.06-1.92.81-2.34,40.19-19.46,70.67-68.17,70.97-68.66.51-.82,1.59-1.08,2.41-.57.82.51,1.08,1.59.57,2.41-.31.5-31.31,50.05-72.42,69.96-.25.12-.51.18-.76.18Z" fill="#2b2b2b"/></svg>