<?xml version="1.0" encoding="UTF-8"?><svg id="_レイヤー_8" xmlns="http://www.w3.org/2000/svg" width="850" height="1000" viewBox="0 0 850 1000"><path d="M754.15,427.99c34.89-60.89,39.7-118.05,40.19-139.24.13-5.58-.04-8.67-.04-8.67h-6.28v-25.09l20.62.89c7.66,113.77-24.06,194.03-66.2,249.77-68.2,90.24-163.71,116.25-163.71,116.25v6.08c0,4.55-3.71,8.22-8.26,8.17l-68.57,4.33c-48.36,3.04-96.87,2.69-145.17-1.06l-70.73-5.49c-4.48-.04-8.09-3.69-8.09-8.17v-7.45c-74.59-18.15-125.99-54.49-161.33-97.53C24.51,408.68,41.43,251.13,41.43,251.13l16.4-.97,3.92-.23,1.79,21.51h-5.97c.46,4.75.96,9.43,1.51,14.04,7.59,63.64,23.97,113.39,44.54,152.25,65.77,124.34,174.29,137.25,174.29,137.25v-2.56c0-4.53,3.67-8.19,8.19-8.18l68.8,4.98c48.32,3.51,96.83,3.61,145.18.31l70.5-4.8c4.5.01,8.15,3.66,8.15,8.17v.88c92.28-37.38,145.16-92.99,175.42-145.79Z" fill="#3c8fd1"/><path d="M772.99,288.7l-18.84,139.29c-30.26,52.8-83.14,108.41-175.42,145.79v-.88c0-4.51-3.65-8.16-8.15-8.17l-70.5,4.8c-48.35,3.3-96.86,3.2-145.18-.31l-68.8-4.98c-4.52-.01-8.19,3.65-8.19,8.18v2.56s-108.52-12.91-174.29-137.25l.58-.31-21.38-152.15-3.98-28.35c33.95,27.06,121.04,68.01,320.5,68.01,230.9,0,339.3-35.73,376.86-70.59l1.37.53-4.58,33.83Z" fill="#4da3e2"/><path d="M791.76,288.7h-18.77l4.58-33.83,10.45.03v25.18h6.28s.17,3.09.04,8.67l-2.58-.05Z" fill="#3c8fd1"/><path d="M743.7,506.6l-37.83,281.25s-2.39,114.72-272.47,114.72-279.63-112.33-279.63-112.33l-37.79-268.97.6-.49c35.34,43.04,86.74,79.38,161.33,97.53v7.45c0,4.48,3.61,8.13,8.09,8.17l70.73,5.49c48.3,3.75,96.81,4.1,145.17,1.06l68.57-4.33c4.55.05,8.26-3.62,8.26-8.17v-6.08s95.51-26.01,163.71-116.25l1.26.95Z" fill="#4da3e2"/><path d="M63.54,271.44l-1.79-21.51-3.92.23,11.44-1.56.13-.13c2.54,2.6,5.66,5.44,9.44,8.45l3.98,28.35-1.5.21h-22.24c-.55-4.61-1.05-9.29-1.51-14.04h5.97Z" fill="#3c8fd1"/><path d="M78.84,256.92c-3.78-3.01-6.9-5.85-9.44-8.45-5.97-6.07-8.76-10.78-9.44-13.17-3.59-12.55-3.59-40.41-3.59-40.41,0,53.84,164.52,97.47,367.47,97.47s367.47-43.63,367.47-97.47c2.76,32.12-1.2,40.41-1.2,40.41-2.43,6.16-6.96,12.59-13.91,19.04-37.56,34.86-145.96,70.59-376.86,70.59-199.46,0-286.55-40.95-320.5-68.01Z" fill="#4da3e2"/><path d="M423.84,97.43c202.95,0,367.47,43.63,367.47,97.46s-164.52,97.47-367.47,97.47S56.37,248.73,56.37,194.89s164.52-97.46,367.47-97.46ZM758.75,192.28c0-45.54-149.01-82.46-332.82-82.46S93.12,146.74,93.12,192.28s149,82.46,332.81,82.46,332.82-36.92,332.82-82.46Z" fill="#4da3e2"/><path d="M425.93,109.82c183.81,0,332.82,36.92,332.82,82.46s-149.01,82.46-332.82,82.46S93.12,237.82,93.12,192.28s149-82.46,332.81-82.46Z" fill="#428bb7"/><path d="M81.32,287.23h-22.71c-.97,0-1.75-.78-1.75-1.75s.78-1.75,1.75-1.75h22.71c.97,0,1.75.78,1.75,1.75s-.78,1.75-1.75,1.75Z" fill="#2b2b2b"/><path d="M57.62,251.94c-.86,0-1.61-.63-1.73-1.5-.14-.96.53-1.84,1.49-1.98l.21-.03,11.45-1.56c.96-.14,1.84.54,1.97,1.5.13.96-.54,1.84-1.5,1.97l-11.64,1.59c-.08.01-.17.02-.25.02Z" fill="#2b2b2b"/><path d="M791.76,290.45h-19.52c-.97,0-1.75-.78-1.75-1.75s.78-1.75,1.75-1.75h19.52c.97,0,1.75.78,1.75,1.75s-.78,1.75-1.75,1.75Z" fill="#2b2b2b"/><path d="M788.87,256.65l-11.3-.03c-.97,0-1.75-.79-1.75-1.75,0-.96.79-1.75,1.75-1.75h0l11.29.03c.97,0,1.75.78,1.75,1.75s-.78,1.75-1.75,1.75Z" fill="#2b2b2b"/><path d="M425.93,276.49c-89.04,0-172.76-8.6-235.75-24.2-63.72-15.79-98.81-37.1-98.81-60.01s35.09-44.22,98.81-60.01c62.99-15.61,146.72-24.2,235.75-24.2s172.76,8.6,235.76,24.2c63.72,15.79,98.81,37.1,98.81,60.01s-35.09,44.22-98.81,60.01c-63,15.61-146.72,24.2-235.76,24.2ZM425.93,111.57c-88.76,0-172.19,8.56-234.91,24.1-61.1,15.14-96.15,35.77-96.15,56.61s35.04,41.47,96.15,56.61c62.73,15.54,146.15,24.1,234.91,24.1s172.19-8.56,234.92-24.1c61.11-15.14,96.15-35.77,96.15-56.61s-35.05-41.47-96.15-56.61c-62.73-15.54-146.16-24.1-234.92-24.1Z" fill="#2b2b2b"/><path d="M104.2,440.42c-1.47,0-2.76-1.08-2.97-2.58l-25.36-180.49c-.23-1.6.84-3.13,2.44-3.41,1.63-.29,3.18.76,3.48,2.4,0,.04.02.13.03.17l25.36,180.5c.23,1.64-.91,3.16-2.55,3.39-.14.02-.28.03-.42.03Z" fill="#2b2b2b"/><path d="M433.4,905.57c-61.87,0-115.16-5.94-158.41-17.66-34.78-9.42-63.22-22.59-84.52-39.14-36.09-28.04-39.47-56.03-39.68-58.19l-37.78-268.9c-.23-1.64.91-3.16,2.55-3.39,1.63-.23,3.16.91,3.39,2.55l37.79,268.97c0,.05.01.11.02.16.02.26,2.9,27.52,37.96,54.49,32.68,25.13,100.61,55.09,238.68,55.09s204.02-30.58,235.06-56.22c33.27-27.49,34.4-55.29,34.41-55.57,0-.11.01-.22.03-.33l37.83-281.25c.22-1.64,1.74-2.79,3.37-2.57,1.64.22,2.79,1.73,2.57,3.37l-37.81,281.1c-.11,2.8-2.08,31.08-36.03,59.41-20.28,16.92-47.9,30.39-82.11,40.02-42.51,11.97-95.45,18.04-157.33,18.04Z" fill="#2b2b2b"/><path d="M754.14,431.01c-.19,0-.38-.02-.57-.06-1.61-.32-2.67-1.84-2.38-3.45l23.41-173.04c.22-1.64,1.73-2.79,3.38-2.57,1.64.22,2.79,1.73,2.57,3.38l-23.42,173.12c0,.06-.02.12-.03.17-.28,1.43-1.54,2.45-2.96,2.45Z" fill="#2b2b2b"/><path d="M436.89,645.52c-26.87,0-53.74-1.04-80.39-3.1l-70.64-5.48c-6.05-.11-10.95-5.1-10.95-11.17v-5.1c-66.96-16.73-121-49.69-160.65-97.98-48.01-58.45-66.06-129.25-72.75-178.36-7.24-53.15-3.1-93.12-3.06-93.51.16-1.46,1.34-2.59,2.81-2.67l16.4-.97h0l3.92-.23c1.61-.1,3.03,1.12,3.17,2.75l1.79,21.51c.07.84-.21,1.66-.78,2.28-.57.62-1.37.97-2.21.97h-2.66c.38,3.69.77,7.27,1.18,10.68,6.91,57.97,21.79,108.84,44.21,151.2,33.55,63.43,78.51,96.94,110.31,113.87,27.47,14.63,50.14,19.77,58.37,21.27.22-2.63,1.35-5.08,3.24-6.96,2.11-2.1,4.91-3.26,7.89-3.26.08,0,.16,0,.24,0l68.8,4.98c47.99,3.49,96.69,3.59,144.76.31l70.5-4.8c.07,0,.15,0,.21,0,4.97.01,9.19,3.29,10.62,7.79,76.93-31.92,134.23-80.02,170.34-143.02,34.43-60.09,39.3-116.4,39.79-137.82.05-2.32.05-4.21.04-5.6h-3.36c-1.66,0-3-1.34-3-3v-25.09c0-.82.33-1.6.92-2.17s1.39-.86,2.2-.83l20.62.89c1.53.07,2.76,1.27,2.86,2.8,6.7,99.57-15.77,184.28-66.8,251.78-35.55,47.04-78.56,76.42-108.38,92.79-27.09,14.87-48.05,21.86-54.72,23.9v3.83c0,3.01-1.18,5.83-3.31,7.94-2.11,2.08-4.89,3.23-7.85,3.23h0l-68.47,4.32c-21.65,1.36-43.43,2.04-65.2,2.04ZM44.19,253.97c-.76,9.49-2.85,44.81,3.28,89.7,6.6,48.29,24.35,117.88,71.42,175.2,39.26,47.81,92.99,80.28,159.72,96.52,1.34.33,2.29,1.53,2.29,2.92v7.45c0,2.83,2.29,5.15,5.12,5.17.07,0,.14,0,.21,0l70.73,5.49c47.96,3.73,96.67,4.08,144.75,1.06l68.57-4.33c.07,0,.15,0,.22,0,1.38.03,2.7-.51,3.69-1.49.99-.98,1.53-2.28,1.53-3.68v-6.08c0-1.35.91-2.54,2.21-2.89.24-.06,24.04-6.67,55.8-24.11,29.26-16.08,71.45-44.92,106.31-91.05,49.68-65.71,71.8-148.15,65.77-245.08l-14.8-.64v18.96h3.28c1.59,0,2.91,1.24,3,2.84,0,.13.17,3.27.04,8.9-.51,21.88-5.47,79.38-40.59,140.66-37.35,65.18-96.87,114.66-176.9,147.08-.92.37-1.97.27-2.8-.29-.83-.56-1.32-1.49-1.32-2.49v-.88c0-2.81-2.26-5.11-5.06-5.17l-70.38,4.79c-48.34,3.3-97.33,3.2-145.6-.31l-68.68-4.97c-1.35.02-2.61.55-3.57,1.51-.98.98-1.52,2.28-1.52,3.67v2.56c0,.86-.37,1.67-1.01,2.24s-1.5.84-2.35.74c-1.13-.13-28.09-3.51-63.53-22.33-32.63-17.32-78.72-51.6-113.05-116.5-22.77-43.02-37.87-94.6-44.87-153.3-.53-4.47-1.04-9.21-1.52-14.11-.08-.84.2-1.68.77-2.31.57-.63,1.38-.98,2.22-.98h2.71l-1.28-15.34-14.81.88Z" fill="#2b2b2b"/><path d="M423.84,295.36c-98.41,0-190.96-10.17-260.61-28.65-70.84-18.79-109.86-44.3-109.86-71.82s39.02-53.03,109.86-71.82c69.65-18.47,162.2-28.64,260.61-28.64s190.96,10.17,260.61,28.64c70.84,18.79,109.86,44.29,109.86,71.82s-39.02,53.03-109.86,71.82c-69.65,18.47-162.2,28.65-260.61,28.65ZM423.84,100.43c-97.91,0-189.91,10.1-259.07,28.44-66.98,17.76-105.4,41.83-105.4,66.02s38.42,48.26,105.4,66.02c69.16,18.34,161.17,28.44,259.07,28.44s189.91-10.1,259.07-28.44c66.98-17.77,105.4-41.83,105.4-66.02s-38.42-48.25-105.4-66.02c-69.16-18.34-161.17-28.44-259.07-28.44Z" fill="#2b2b2b"/><path d="M399.34,327.93c-205.54,0-290.2-43.02-322.37-68.66-3.63-2.89-6.9-5.82-9.72-8.7-5.34-5.43-9.15-10.84-10.18-14.45-3.66-12.8-3.71-40.08-3.71-41.23,0-1.66,1.34-3,3-3s3,1.34,3,3c0,.27.04,27.59,3.47,39.58.45,1.6,2.8,5.89,8.69,11.89,2.65,2.71,5.73,5.47,9.17,8.21,15.2,12.11,44.38,29.51,97.09,43.6,58.97,15.76,133.5,23.76,221.54,23.76,270.43,0,352.21-48.81,374.82-69.79,6.37-5.91,10.79-11.95,13.16-17.94.03-.07.05-.13.08-.19.01-.03,3.52-8.6.92-38.86-.14-1.65,1.08-3.1,2.73-3.25,1.64-.15,3.1,1.08,3.25,2.73,2.66,30.9-.79,40.38-1.42,41.83-2.7,6.82-7.63,13.57-14.63,20.07-21.58,20.03-62.16,37.01-117.33,49.1-67.51,14.79-155.52,22.29-261.57,22.29Z" fill="#2b2b2b"/><path d="M278.74,619.95c-.91,0-1.68-.7-1.74-1.63-.01-.17-1.19-17.15.4-43.25.06-.96.9-1.7,1.85-1.64.96.06,1.7.89,1.64,1.85-1.57,25.85-.41,42.62-.4,42.79.07.96-.66,1.8-1.62,1.87-.04,0-.08,0-.13,0Z" fill="#2b2b2b"/><path d="M577.94,623.06s-.1,0-.14,0c-.96-.08-1.68-.92-1.6-1.89.02-.2,1.64-20.66.07-46.51-.06-.96.68-1.79,1.64-1.85.95-.06,1.79.68,1.85,1.64,1.58,26.11-.06,46.8-.08,47-.07.92-.84,1.61-1.74,1.61Z" fill="#2b2b2b"/></svg>