<?xml version="1.0" encoding="UTF-8"?><svg id="_レイヤー_4" xmlns="http://www.w3.org/2000/svg" width="1000" height="1000" viewBox="0 0 1000 1000"><path d="M913.78,586.75c0,38.33-12.51,131.48-56.08,190.13-25.88,34.82-52.64,69.39-101.86,94.72-48.26,24.84-80.77,27.14-155.16,33.32-7.5,0-79.98,3.25-87.83,3.08-77.59-1.64-142.67-14.02-216.24-37.39-68.52-21.77-123.68-50.37-151.32-78.45-26.6-27.03-43.78-59.72-51.06-97.18-5.73-29.49-16.01-69.08-9.5-103.6,10.81-57.34,56.07-104.34,58.48-107.54.6,6.28,1.31,12.66,2.11,19.15,0,0-4.69,13.75-8.2,33.45l-1-.11c-49.6,50.93-9.99,196.41,32.05,239.12,24.41,24.8,75,50.65,138.83,70.92,70.55,22.42,157.75,31.21,232.14,29.99,188.81-3.09,241.39-43.56,293.29-113.41,39.73-53.46,70.88-180.83,46.68-225.59h-.07c-3.52-19.94-8.45-33.92-8.45-33.92.76-6.17,1.44-12.24,2.01-18.22l1.74.17c20.21,22.15,39.44,47.96,39.44,101.36Z" fill="#fff"/><path d="M535.17,110.59c.82-1.38,1.31-2.87,1.41-4.42.08-1.29-.11-2.56-.54-3.79l1.18-.43c92.53,5.99,370.59,24.74,335.38,383.27-.57,5.98-1.25,12.05-2.01,18.22,0,0,4.93,13.98,8.45,33.93,4.3,24.32,6.51,57.51-4.79,85.1-4.94,12.05-10.72,21.62-17.33,29.48l-.21-.18c-74.39,42.12-230.45,21.59-314.59,15.83-31.42-2.15-62.94-2.45-94.4-.89-239.51,11.91-271.11.88-274.5-.83-.01-.01-.02-.01-.03-.02-7.66-6.36-15.01-14.27-22.27-24.22-21.88-30.01-19.24-74.72-13.8-105.2,3.51-19.7,8.2-33.45,8.2-33.45-.8-6.49-1.51-12.87-2.11-19.15h0C108.59,126.13,386.4,107.78,478.77,101.91h.11c-.03.23-.06.45-.07.67-.19,2.99,1.09,5.88,3.47,8.44,1.02,1.11,2.26,2.16,3.68,3.13,5.07,3.47,13.37,2.1,21.66,2.62,9.38.58,16.94,2.39,22.46-1.16,2.23-1.44,3.98-3.14,5.09-5.02Z" fill="#f5f5f5"/><path d="M856.71,651.77l.21.18c-14.55,17.31-33.07,26.37-55.3,35.5-78.41,32.18-257.66,7.85-293.66,9.35-33.06-1.37-184.49,12.14-271.91-4.6-24.56-4.7-44.56-11.13-62.83-26.32,3.39,1.71,34.99,12.74,274.5.83,31.46-1.56,62.98-1.26,94.4.89,84.14,5.76,240.2,26.29,314.59-15.83Z" fill="#c81d25"/><path d="M535.17,110.59c-1.11,1.88-2.86,3.58-5.09,5.02-5.52,3.55-13.08,1.74-22.46,1.16-8.29-.52-16.59.85-21.66-2.62-1.42-.97-2.66-2.02-3.68-3.13-2.38-2.56-3.66-5.45-3.47-8.44,0-.22.04-.44.07-.66,1.16-8.6,14.27-14.71,29.82-13.73,13.66.85,24.78,6.87,27.34,14.19.43,1.23.62,2.5.54,3.79-.1,1.55-.59,3.04-1.41,4.42Z" fill="#f5f5f5"/><path d="M143.21,486.83c-1.53,0-2.83-1.16-2.98-2.71-11.52-118.99,10.57-212.12,65.65-276.79,82-96.29,215.64-104.78,272.71-108.41,1.62-.1,3.08,1.15,3.18,2.8.1,1.65-1.15,3.08-2.8,3.18-56.31,3.58-188.17,11.96-268.52,106.31-53.98,63.39-75.6,155.01-64.24,272.33.16,1.65-1.05,3.12-2.7,3.27-.1,0-.2.01-.29.01Z" fill="#2b2b2b"/><path d="M173.19,668.86c-.67,0-1.35-.23-1.91-.69-8.04-6.68-15.49-14.78-22.78-24.76-22.25-30.52-20.08-75.3-14.33-107.5,3.12-17.51,7.11-30.22,8.09-33.23-.8-6.57-1.47-12.65-2.04-18.56-.16-1.65,1.05-3.11,2.7-3.27,1.64-.16,3.11,1.05,3.27,2.7.58,6.06,1.27,12.3,2.1,19.07.06.45,0,.91-.14,1.33-.05.14-4.66,13.79-8.09,33.01-5.54,31.04-7.74,74.09,13.27,102.91,6.99,9.58,14.11,17.32,21.76,23.68,1.28,1.06,1.45,2.95.39,4.22-.59.71-1.45,1.08-2.31,1.08Z" fill="#2b2b2b"/><path d="M673.62,707.22c-42.27,0-84.82-2.89-117.23-5.09-22.15-1.5-39.65-2.69-48.3-2.33-.08,0-.17,0-.25,0-8.72-.36-26.15.34-48.21,1.23-59.75,2.41-159.77,6.45-224.14-5.88-24.76-4.74-45.15-11.14-64.18-26.96-1.27-1.06-1.45-2.95-.39-4.22,1.06-1.27,2.95-1.45,4.22-.39,18.04,15,37.63,21.12,61.48,25.68,63.69,12.2,163.27,8.18,222.77,5.78,22.1-.89,39.58-1.59,48.58-1.24,9.02-.35,26.6.84,48.83,2.35,69.24,4.7,185.12,12.57,243.69-11.47,20.13-8.27,39.42-17.14,54.14-34.66,6.68-7.95,12.19-17.33,16.85-28.69,11.18-27.29,8.68-60.44,4.61-83.44-3.43-19.45-8.28-33.32-8.33-33.46-.15-.44-.21-.9-.15-1.36.81-6.6,1.47-12.53,2-18.14,11.56-117.69-9.98-209.62-64.02-273.24-80.32-94.57-212.24-103.11-268.57-106.75-1.65-.11-2.91-1.53-2.8-3.19.11-1.65,1.55-2.91,3.19-2.8,57.09,3.7,190.79,12.35,272.75,108.86,55.13,64.91,77.14,158.34,65.42,277.7-.52,5.46-1.15,11.22-1.93,17.61,1.04,3.06,5.21,15.99,8.34,33.73,4.2,23.78,6.75,58.13-4.97,86.76-4.9,11.94-10.72,21.85-17.81,30.27-15.6,18.56-35.61,27.78-56.46,36.34-32.05,13.15-80.42,16.99-129.14,16.99Z" fill="#2b2b2b"/><path d="M162.95,496.07c-.92,0-1.7-.72-1.75-1.66-7.4-139.44,24-243.6,93.33-309.58,38.64-36.77,87.8-60.7,146.11-71.11,44.38-7.92,78.11-4.82,81.81-4.43l.28.03c.96.09,1.67.95,1.57,1.91-.09.96-.95,1.67-1.91,1.57l-.3-.03c-5.4-.55-133.51-12.62-225.15,74.6-68.56,65.25-99.59,168.49-92.25,306.86.05.97-.69,1.79-1.65,1.84-.03,0-.06,0-.09,0Z" fill="#2b2b2b"/><path d="M855.21,496.07s-.06,0-.09,0c-.96-.05-1.71-.88-1.66-1.84,7.32-137.9-23.6-240.97-91.89-306.34-37.89-36.27-86.16-60.05-143.46-70.67-44.45-8.24-78.98-5.25-82.77-4.88l-.61.06c-.96.09-1.82-.61-1.91-1.58-.09-.96.61-1.82,1.58-1.91l.6-.06c3.84-.37,38.83-3.4,83.75,4.93,57.98,10.75,106.85,34.84,145.24,71.58,69.07,66.11,100.34,170.09,92.97,309.05-.05.93-.82,1.66-1.75,1.66Z" fill="#2b2b2b"/><path d="M499.95,512.21c-.91,0-1.68-.7-1.74-1.63-.21-2.98-20.87-298.94,5.79-394.04.26-.93,1.23-1.47,2.16-1.21.93.26,1.47,1.23,1.21,2.16-26.5,94.51-5.88,389.87-5.67,392.84.07.96-.66,1.8-1.62,1.87-.04,0-.08,0-.13,0Z" fill="#2b2b2b"/><path d="M496.36,535.51c-204.81,0-327.1-19.54-328.31-19.74-.95-.16-1.6-1.05-1.45-2.01.16-.95,1.06-1.6,2.01-1.45,1.21.2,123.25,19.7,327.75,19.7s351.5-14.19,352.96-14.33c.96-.09,1.82.61,1.91,1.57.09.96-.61,1.82-1.57,1.91-1.46.14-148.54,14.35-353.3,14.35Z" fill="#2b2b2b"/><path d="M711.5,679.43c-45.64,0-92.82-3.9-131.51-7.11-13.65-1.13-26.54-2.2-37.99-2.98-31.25-2.14-62.95-2.44-94.19-.89-236.83,11.78-270.94,1.22-275.38-1.02-.04-.02-.09-.05-.13-.07-.25-.14-.45-.27-.6-.4l2.28-2.66s-.05-.04-.09-.06c.02.01.05.03.1.06.03.01.05.03.08.04,3.06,1.47,34.54,12.5,273.56.61,31.38-1.55,63.21-1.25,94.61.89,11.48.79,24.38,1.85,38.04,2.98,84.34,6.98,211.79,17.52,275.57-18.59.84-.48,1.91-.18,2.38.66.48.84.18,1.91-.66,2.38-28.68,16.24-71.37,24.74-130.53,25.98-5.15.11-10.33.16-15.54.16Z" fill="#2b2b2b"/><path d="M513.56,911.01c-.3,0-.56,0-.77,0-74.29-1.57-139.21-12.79-217.08-37.53-68.97-21.91-124.57-50.78-152.55-79.21-27.02-27.46-44.47-60.67-51.87-98.71-.77-3.99-1.62-8.12-2.52-12.49-5.67-27.54-12.71-61.82-6.98-92.24,6.52-34.61,26.41-71.62,57.5-107.01.63-.71,1.22-1.39,1.46-1.68.02-.04.05-.07.08-.11.74-1.07,2.12-1.58,3.41-1.15,1.57.52,2.43,2.21,1.92,3.79-.09.26-.24.55-.41.8-.04.06-.08.12-.13.19-.28.37-.76.92-1.82,2.13-38.38,43.7-51.7,80.77-56.11,104.17-5.52,29.26,1.4,62.89,6.96,89.92.9,4.39,1.76,8.54,2.54,12.56,7.16,36.86,24.07,69.04,50.25,95.65,27.31,27.75,82.02,56.07,150.09,77.7,77.29,24.55,141.71,35.69,215.39,37.25,4.29.1,29.13-.89,51.04-1.76,17.69-.7,33-1.31,36.6-1.32l4.01-.33c70.77-5.87,103.08-8.55,149.9-32.65,46.62-23.99,72.21-55.35,100.83-93.84,45.52-61.27,55.49-156.73,55.49-188.34,0-52.57-19.1-77.9-38.66-99.34-1.12-1.22-1.03-3.12.19-4.24,1.22-1.12,3.12-1.03,4.24.19,20.35,22.31,40.22,48.66,40.22,103.38,0,32.16-10.18,129.34-56.67,191.92-29.08,39.13-55.12,71.01-102.9,95.6-47.89,24.65-80.56,27.36-152.15,33.3l-4.13.34c-.08,0-.17.01-.25.01-3.24,0-19.39.64-36.49,1.32-21.96.87-44.64,1.77-50.63,1.77Z" fill="#2b2b2b"/><path d="M525.19,879.47c-78.99,0-158.13-10.87-219.09-30.25-64.26-20.41-115.31-46.53-140.06-71.67-42.51-43.19-83.44-190.56-32.06-243.32,1.16-1.19,3.06-1.21,4.24-.06,1.19,1.16,1.21,3.06.06,4.24-21.28,21.86-27.68,65.59-17.54,120,8.87,47.63,28.8,93.81,49.58,114.92,24.08,24.47,74.24,50.04,137.6,70.17,63.97,20.33,148.23,31.2,231.18,29.85,195.05-3.19,243.61-48.52,290.93-112.2,38.97-52.44,70.13-178.58,46.45-222.37-.79-1.46-.25-3.28,1.21-4.07,1.46-.79,3.28-.25,4.07,1.21,11.53,21.32,11.86,62,.92,111.61-10.22,46.34-28.55,91.25-47.83,117.2-26.49,35.65-53.04,63.36-96.49,82.69-45.64,20.31-108.93,30.45-199.16,31.93-4.66.08-9.34.11-14,.11Z" fill="#2b2b2b"/><path d="M521.15,120.75c-2.54,0-5.22-.25-8.06-.52-1.82-.17-3.7-.35-5.65-.47-2.24-.14-4.52-.14-6.73-.13-6.2.01-12.03.02-16.44-3-1.62-1.11-3.03-2.31-4.19-3.58-3.02-3.24-4.49-6.93-4.26-10.66.01-.26.05-.57.09-.88,1.4-10.4,15.59-17.42,32.98-16.32,14.64.91,26.97,7.57,29.98,16.19h0c.57,1.63.81,3.3.7,4.97-.13,2.01-.74,3.95-1.83,5.77-1.33,2.26-3.37,4.28-6.04,6.01-3.16,2.03-6.68,2.62-10.55,2.62ZM501.68,113.63c2,0,4.04.02,6.13.15,2.04.13,3.97.31,5.84.48,6.33.59,11.34,1.06,14.81-1.17,1.85-1.2,3.28-2.59,4.13-4.02.6-1.01.93-2.04,1-3.09.05-.86-.07-1.74-.38-2.61-1.89-5.41-10.98-11.33-24.69-12.19-14.93-.94-25.83,5-26.66,11.14-.02.14-.04.27-.05.41-.13,2.11.77,4.2,2.67,6.25.87.94,1.93,1.85,3.17,2.69,2.88,1.97,7.81,1.97,13.04,1.96.33,0,.66,0,.98,0Z" fill="#2b2b2b"/></svg>