<?xml version="1.0" encoding="UTF-8"?><svg id="_レイヤー_4" xmlns="http://www.w3.org/2000/svg" width="300" height="1000" viewBox="0 0 300 1000"><path d="M128.07,941.03s20.12-25.05,43.12.5c0,0-8.51,44.66-20.91,45.11-12.4.45-22.21-45.61-22.21-45.61Z" fill="#b23d3d"/><path d="M95.2,841.59l27.09-10.1c4.21-1.13,16.06-4.54,27.91-4.37s23.68,3.93,27.86,5.17l28.28,11.75-33.46,95.2-12.75-4.58c-6.77-5.38-13.15-5.38-23.5,1l-8.56,5.38-32.87-99.44Z" fill="#f9d486"/><path d="M205.6,841.59s-29.36-14.08-55.83-14.08c-28.38,0-52.58,14.08-52.58,14.08l-2-759.72s2.8,18.82,53.39,18.82c42.62,0,54.02-20.17,54.02-20.17l3,761.07Z" fill="#b23d3d"/><ellipse cx="148.14" cy="81.27" rx="54.48" ry="19.27" fill="#f9d486"/><ellipse cx="148.63" cy="80.02" rx="14.25" ry="5.88" fill="#b23d3d"/><path d="M149.86,989.39c-5.87,0-10.91-3.51-12.95-9.08-.01-.04-.03-.08-.04-.11l-44.16-137.69c-.09-.29-.14-.6-.14-.91l-1.21-761.65c0-1.66,1.34-3,3-3h0c1.65,0,3,1.34,3,3l1.21,761.18,44,137.18c1.47,3.94,4.92,5.21,7.7,5.08,2.78-.13,6.13-1.73,7.21-5.83.02-.06.04-.12.06-.18l45.43-136.26-3.42-762.18c0-1.66,1.33-3.01,2.99-3.01h.01c1.65,0,2.99,1.33,3,2.99l3.42,762.67c0,.33-.05.65-.15.96l-45.56,136.64c-1.6,5.91-6.58,9.91-12.71,10.2-.23.01-.46.02-.69.02Z" fill="#2b2b2b"/><path d="M128.39,945.35c-.26,0-.53-.06-.78-.18-.86-.43-1.21-1.48-.78-2.34.21-.42,5.25-10.31,16.25-13.06,8.28-2.07,17.53.48,27.51,7.59.79.56.97,1.65.41,2.44-.56.79-1.65.97-2.44.41-9.09-6.47-17.37-8.84-24.6-7.05-9.43,2.34-13.96,11.15-14,11.24-.31.61-.92.96-1.57.96Z" fill="#2b2b2b"/><path d="M203.97,843.94c-.29,0-.58-.07-.85-.22-52.95-29.69-106.17-.9-106.7-.6-.85.47-1.91.16-2.38-.68-.47-.85-.16-1.91.68-2.38.56-.31,13.98-7.66,34.33-11.33,18.8-3.39,47.21-4.08,75.77,11.94.84.47,1.14,1.54.67,2.38-.32.57-.92.89-1.53.89Z" fill="#2b2b2b"/><path d="M148.51,103.54c-27.86,0-57.48-7.8-57.48-22.27s29.61-22.27,57.48-22.27,57.48,7.8,57.48,22.27-29.61,22.27-57.48,22.27ZM148.51,65c-29.46,0-51.48,8.59-51.48,16.27s22.01,16.27,51.48,16.27,51.48-8.59,51.48-16.27-22.01-16.27-51.48-16.27Z" fill="#2b2b2b"/><path d="M149,87.65c-7.95,0-16-2.62-16-7.63s8.05-7.63,16-7.63,16,2.62,16,7.63-8.05,7.63-16,7.63ZM149,75.89c-8.09,0-12.5,2.73-12.5,4.13s4.41,4.13,12.5,4.13,12.5-2.73,12.5-4.13-4.41-4.13-12.5-4.13Z" fill="#2b2b2b"/></svg>