<?xml version="1.0" encoding="UTF-8"?><svg id="_レイヤー_8" xmlns="http://www.w3.org/2000/svg" width="1000" height="1000" viewBox="0 0 1000 1000"><path d="M815.09,897.31l8-4.03V82.42h-16.67v-8.4h.33s21.33,0,21.33,0c2.95,0,5.33,2.23,5.33,4.98v827.06c0,2.75-2.39,4.98-5.33,4.98h-21.66v-9.36l8.67-4.36Z" fill="#85bb4e"/><polygon points="823.08 82.42 823.08 893.29 815.09 897.31 815.09 82.74 815.09 82.42 823.08 82.42" fill="#fff"/><polygon points="815.09 82.74 815.09 897.31 806.42 901.67 806.42 82.42 815.09 82.42 815.09 82.74" fill="#fff"/><path d="M806.42,911.03v14.84c0,2.64-2.14,4.78-4.78,4.78H171.37c-2.64,0-4.78-2.14-4.78-4.78V74.12c0-2.64,2.14-4.78,4.78-4.78h630.27c2.61,0,4.72,2.08,4.78,4.68v837.01Z" fill="#85bb4e"/><path d="M801.64,933.66H171.37c-4.29,0-7.78-3.49-7.78-7.78V74.12c0-4.29,3.49-7.78,7.78-7.78h630.27c4.27,0,7.69,3.34,7.78,7.61v8.47s0,843.45,0,843.45c0,4.29-3.49,7.78-7.78,7.78ZM171.37,72.34c-.98,0-1.78.8-1.78,1.78v851.75c0,.98.8,1.78,1.78,1.78h630.27c.98,0,1.78-.8,1.78-1.78V74.02c-.02-.91-.8-1.68-1.78-1.68H171.37Z" fill="#2b2b2b"/><path d="M828.08,914.03h-23.32v-6h23.32c1.29,0,2.33-.89,2.33-1.98V79c0-1.09-1.05-1.98-2.33-1.98h-21.33v-6h21.33c4.59,0,8.33,3.58,8.33,7.98v827.06c0,4.4-3.74,7.98-8.33,7.98Z" fill="#2b2b2b"/><polygon points="806.53 903.57 804.97 900.44 821.33 892.21 821.33 84.17 805.75 84.17 805.75 80.67 824.83 80.67 824.83 894.36 806.53 903.57" fill="#2b2b2b"/><rect x="813.34" y="82.74" width="3.5" height="815.84" fill="#2b2b2b"/><rect x="200.36" y="86.22" width="3.5" height="817.39" fill="#2b2b2b"/><path d="M334.54,191.4h31.77c3.74,0,6.79,2.72,6.79,6.46s-3.06,7.14-6.79,7.14h-7.31c-.85,0-1.7.68-1.7,1.7v19.2c0,1.02.85,1.7,1.7,1.7h5.1c3.91,0,7.14,3.23,7.14,7.14s-3.23,7.14-7.14,7.14h-5.1c-.85,0-1.7.85-1.7,1.7v22.94c0,.85.85,1.36,1.53.85,1.87-1.02,4.59-2.55,8.15-4.93,3.06-1.87,6.97-.68,8.33,2.72,1.53,3.74,0,8.15-3.4,10.36-12.4,7.98-22.26,12.57-34.32,16.99-3.74,1.36-7.82-.51-9.34-4.25-1.53-3.57.34-7.48,4.08-8.83,3.57-1.19,6.8-2.38,9.68-3.57.85-.34,1.53-1.19,1.53-2.21v-30.41c0-.85-.85-1.7-1.7-1.7h-5.1c-3.74,0-6.97-3.06-6.97-6.97s3.23-6.97,6.97-6.97h5.1c.85,0,1.7-.68,1.7-1.7v-19.2c0-1.02-.85-1.7-1.7-1.7h-7.31c-3.74,0-6.79-3.06-6.79-6.8s3.06-6.8,6.79-6.8ZM435.62,301.66v-15.97c0-.68-.51-1.19-1.19-1.19h-15.63c-3.74,0-6.97-3.23-6.97-6.97s3.23-6.97,6.97-6.97h15.63c.68,0,1.19-.51,1.19-1.19v-12.91c0-.68-.51-1.36-1.19-1.36h-22.09c-4.76,0-8.49-3.74-8.49-8.49v-59.12c0-4.76,3.74-8.49,8.49-8.49h59.63c4.76,0,8.5,3.74,8.5,8.49v59.12c0,4.76-3.74,8.49-8.5,8.49h-21.24c-.68,0-1.19.68-1.19,1.36v12.91c0,.68.51,1.19,1.19,1.19h14.78c3.91,0,6.97,3.06,6.97,6.97s-3.06,6.97-6.97,6.97h-14.78c-.68,0-1.19.51-1.19,1.19v15.97c0,.68.51,1.36,1.19,1.36h27.69c3.74,0,6.8,3.06,6.8,6.8s-3.06,6.63-6.8,6.63h-74.24c-3.74,0-6.8-2.89-6.8-6.63s3.06-6.8,6.8-6.8h30.24c.68,0,1.19-.68,1.19-1.36ZM417.78,207.2c0,.68.51,1.36,1.36,1.36,2.89,0,12.23.17,15.29.34.68,0,1.19-.68,1.19-1.36v-13.76c0-.68-.51-1.36-1.19-1.36h-15.29c-.85,0-1.36.68-1.36,1.36v13.42ZM435.62,240.33v-16.65c0-.68-.51-1.19-1.19-1.19h-15.29c-.85,0-1.36.51-1.36,1.19v16.65c0,.68.51,1.36,1.36,1.36h15.29c.68,0,1.19-.68,1.19-1.36ZM449.55,207.71c0,.68.51,1.19,1.19,1.19h14.44c.68,0,1.36-.51,1.36-1.19v-13.93c0-.68-.68-1.36-1.36-1.36h-14.44c-.68,0-1.19.68-1.19,1.36v13.93ZM449.55,240.33c0,.68.51,1.36,1.19,1.36h14.44c.68,0,1.36-.68,1.36-1.36v-16.31c0-.68-.68-1.36-1.36-1.36-3.06,0-11.21,0-14.44-.17-.68,0-1.19.51-1.19,1.36v16.48Z" fill="#fff"/><path d="M516.65,279.92c-2.89,2.04-5.78,3.74-8.5,5.27-3.74,2.04-8.32,1.7-11.04-1.7-2.04-2.55-1.53-6.97,2.55-9.17,4.25-2.38,6.29-3.4,9.17-5.44,3.06-2.04,7.48-1.7,9.68,1.36,2.38,2.89,1.36,7.48-1.87,9.68ZM509.01,199.39c14.95-1.36,26.33-2.89,37.72-5.61,3.91-.85,8.33,1.7,9.17,5.61.85,3.91-2.21,7.82-6.12,8.49-11.21,2.21-23.96,4.08-37.04,5.61-4.76.51-8.83-2.21-10.02-5.78-1.7-4.93,3.06-8.15,6.29-8.32ZM527.36,303.02v-48.93c0-1.02-.85-1.7-1.7-1.7h-16.31c-3.91,0-6.97-3.06-6.97-6.97s3.06-6.97,6.97-6.97h16.31c.85,0,1.7-.68,1.7-1.7v-11.89c0-3.74,3.06-6.63,6.79-6.63s6.8,2.89,6.8,6.63v11.89c0,1.02.68,1.7,1.7,1.7h11.72c3.74,0,6.96,3.06,6.96,6.97s-3.23,6.97-6.96,6.97h-11.72c-1.02,0-1.7.68-1.7,1.7v48.93c0,3.74-3.06,6.8-6.8,6.8s-6.79-3.06-6.79-6.8ZM564.05,271.25c3.4,1.7,4.42,5.95,2.55,9.17-2.21,3.57-6.29,4.76-9.85,2.72-2.04-1.02-4.25-2.21-5.95-3.57-2.89-2.38-3.4-6.63-.68-9.51,2.55-2.89,6.8-3.4,9.85-1.36,1.36.85,2.72,1.7,4.08,2.55ZM642.54,188.17v80.7c0,1.02.85,1.7,1.7,1.7h6.12c3.74,0,6.97,3.06,6.97,6.97s-3.23,6.97-6.97,6.97h-6.12c-.85,0-1.7.68-1.7,1.7v26.16c0,3.74-3.06,6.8-6.79,6.8s-6.97-3.06-6.97-6.8v-26.16c0-1.02-.85-1.7-1.7-1.7h-36.87c-3.91,0-6.97-3.23-6.97-6.97s3.06-6.97,6.97-6.97h36.87c.85,0,1.7-.68,1.7-1.7v-80.7c0-3.74,3.06-6.97,6.97-6.97s6.79,3.23,6.79,6.97ZM612.3,212.3c3.4,1.7,4.76,5.95,2.72,9.17-2.04,3.23-6.29,4.59-9.85,2.89-1.87-.85-3.74-1.53-5.95-2.38-3.57-1.36-5.1-5.61-3.4-8.83,1.87-3.57,6.29-5.27,10.02-3.57,2.38,1.02,4.42,1.87,6.46,2.72ZM612.13,242.88c3.57,1.7,4.93,6.12,2.89,9.51-2.04,3.4-6.46,4.59-10.02,2.89-1.87-.85-3.74-1.7-5.78-2.55-3.57-1.53-5.1-5.61-3.23-9,1.87-3.57,6.12-5.1,9.68-3.57,2.38,1.02,4.59,1.87,6.46,2.72Z" fill="#fff"/><path d="M478.44,318.19h-74.24c-4.79,0-8.55-3.68-8.55-8.38s3.83-8.55,8.55-8.55h29.68v-15.02h-15.07c-4.72,0-8.71-3.99-8.71-8.71s3.91-8.72,8.71-8.72h15.07v-11.96h-21.52c-5.75,0-10.25-4.5-10.25-10.25v-59.12c0-5.74,4.5-10.24,10.25-10.24h59.63c5.74,0,10.24,4.5,10.24,10.24v59.12c0,5.75-4.5,10.25-10.24,10.25h-20.68v11.96h14.22c4.89,0,8.71,3.83,8.71,8.72s-3.91,8.71-8.71,8.71h-14.22v15.02h27.13c4.71,0,8.55,3.83,8.55,8.55s-3.75,8.38-8.55,8.38ZM404.19,304.77c-2.78,0-5.05,2.26-5.05,5.05s2.22,4.88,5.05,4.88h74.24c2.83,0,5.05-2.14,5.05-4.88s-2.26-5.05-5.05-5.05h-27.69c-1.62,0-2.94-1.4-2.94-3.11v-15.97c0-1.65,1.29-2.94,2.94-2.94h14.78c2.88,0,5.21-2.34,5.21-5.21s-2.29-5.22-5.21-5.22h-14.78c-1.65,0-2.94-1.29-2.94-2.94v-12.91c0-1.69,1.35-3.11,2.94-3.11h21.24c3.78,0,6.74-2.96,6.74-6.75v-59.12c0-3.78-2.96-6.74-6.74-6.74h-59.63c-3.78,0-6.75,2.96-6.75,6.74v59.12c0,3.78,2.96,6.75,6.75,6.75h22.08c1.62,0,2.94,1.39,2.94,3.11v12.91c0,1.65-1.29,2.94-2.94,2.94h-15.63c-2.88,0-5.21,2.34-5.21,5.22s2.44,5.21,5.21,5.21h15.63c1.65,0,2.94,1.29,2.94,2.94v15.97c0,1.71-1.32,3.11-2.94,3.11h-30.24ZM335.12,294.68c-3.61,0-7.01-2.19-8.48-5.77-.89-2.07-.89-4.37,0-6.44.93-2.15,2.79-3.87,5.1-4.7,3.57-1.19,6.79-2.38,9.62-3.54.23-.09.45-.32.45-.59v-30.32s-.03-.03-.04-.04h-5.01c-4.81,0-8.71-3.91-8.71-8.72s3.91-8.71,8.71-8.71h5.1l-.05-19.15-7.25.05c-4.71,0-8.55-3.83-8.55-8.55s3.83-8.55,8.55-8.55h31.77c4.79,0,8.55,3.6,8.55,8.21s-3.91,8.89-8.55,8.89h-7.31l.05,19.15,5.04-.05c4.9,0,8.89,3.99,8.89,8.88s-3.99,8.89-8.89,8.89h-5.01s-.03.02-.04.04v21.57c1.8-1,4.11-2.36,6.96-4.26,1.99-1.22,4.3-1.49,6.38-.8,2.06.68,3.71,2.26,4.54,4.33,1.81,4.42.06,9.79-4.07,12.48-13.36,8.6-23.53,13.08-34.67,17.17-1.02.37-2.06.55-3.08.55ZM336.75,229.34c-2.88,0-5.21,2.34-5.21,5.21s2.34,5.22,5.21,5.22h5.1c1.8,0,3.45,1.64,3.45,3.45v30.41c0,1.66-1.06,3.2-2.63,3.83-2.89,1.19-6.18,2.4-9.78,3.6-1.38.5-2.48,1.5-3.04,2.79-.51,1.18-.5,2.49.01,3.7,1.18,2.89,4.31,4.32,7.14,3.29,10.92-4,20.88-8.39,33.97-16.82,2.74-1.78,3.92-5.32,2.72-8.23-.45-1.13-1.3-1.95-2.39-2.32-1.11-.37-2.35-.21-3.4.43-3.46,2.31-6.17,3.84-8.14,4.92-.81.54-1.82.61-2.68.19-.94-.47-1.52-1.44-1.52-2.52v-22.94c0-1.81,1.64-3.45,3.45-3.45h5.1c2.92,0,5.39-2.47,5.39-5.39s-2.47-5.38-5.39-5.38h-5.1c-1.9,0-3.45-1.55-3.45-3.45v-19.2c0-1.9,1.55-3.45,3.45-3.45h7.31c2.69,0,5.05-2.52,5.05-5.39,0-2.68-2.17-4.71-5.05-4.71h-31.77c-2.78,0-5.05,2.26-5.05,5.05s2.26,5.05,5.05,5.05h7.31c1.9,0,3.45,1.55,3.45,3.45v19.2c0,1.9-1.55,3.45-3.45,3.45h-5.1ZM465.18,243.44h-14.44c-1.62,0-2.94-1.4-2.94-3.11v-16.48c0-1.77,1.26-3.11,2.94-3.11,3.27.17,11.39.17,14.44.17,1.66,0,3.11,1.45,3.11,3.11v16.31c0,1.66-1.45,3.11-3.11,3.11ZM451.3,239.94h13.49v-15.53c-3.12,0-10.04,0-13.49-.14v15.67ZM434.43,243.44h-15.29c-1.74,0-3.11-1.37-3.11-3.11v-16.65c0-1.68,1.34-2.94,3.11-2.94h15.29c1.65,0,2.94,1.29,2.94,2.94v16.65c0,1.71-1.32,3.11-2.94,3.11ZM419.54,239.94h14.34v-15.7h-14.34v15.7ZM465.18,210.65h-14.44c-1.65,0-2.94-1.29-2.94-2.94v-13.93c0-1.71,1.32-3.11,2.94-3.11h14.44c1.66,0,3.11,1.45,3.11,3.11v13.93c0,1.62-1.39,2.94-3.11,2.94ZM451.3,207.15h13.49v-12.98h-13.49v12.98ZM434.43,210.65c-3.12-.17-12.42-.34-15.29-.34-1.74,0-3.11-1.37-3.11-3.11v-13.42c0-1.74,1.37-3.11,3.11-3.11h15.29c1.62,0,2.94,1.4,2.94,3.11v13.76c0,1.71-1.32,3.11-2.94,3.11ZM419.54,206.81c3.06.01,10.92.16,14.34.31v-12.95h-14.34v12.64Z" fill="#2b2b2b"/><path d="M635.75,320.91c-4.81,0-8.72-3.83-8.72-8.55v-26.16l-36.81.05c-4.81,0-8.72-3.91-8.72-8.71s3.83-8.72,8.72-8.72h36.87l-.05-80.65c0-4.81,3.91-8.72,8.72-8.72s8.55,3.99,8.55,8.72v80.7l6.07-.05c4.81,0,8.71,3.91,8.71,8.72s-3.99,8.71-8.71,8.71h-6.12l.05,26.11c0,4.71-3.83,8.55-8.55,8.55ZM590.22,272.32c-2.92,0-5.22,2.29-5.22,5.22s2.34,5.21,5.22,5.21h36.87c1.9,0,3.45,1.55,3.45,3.45v26.16c0,2.83,2.29,5.05,5.22,5.05s5.05-2.26,5.05-5.05v-26.16c0-1.9,1.55-3.45,3.45-3.45h6.12c2.78,0,5.21-2.44,5.21-5.21s-2.34-5.22-5.21-5.22h-6.12c-1.9,0-3.45-1.55-3.45-3.45v-80.7c0-2.83-2.31-5.22-5.05-5.22-2.88,0-5.22,2.34-5.22,5.22v80.7c0,1.9-1.55,3.45-3.45,3.45h-36.87ZM534.15,311.57c-4.71,0-8.55-3.83-8.55-8.55v-48.93l-16.26.05c-4.89,0-8.71-3.83-8.71-8.72s3.83-8.71,8.71-8.71h16.31l-.05-11.84c0-4.62,3.83-8.38,8.55-8.38s8.55,3.76,8.55,8.38v11.84h11.67c4.81,0,8.72,3.92,8.72,8.72s-3.91,8.72-8.72,8.72h-11.66v48.88c0,4.71-3.84,8.55-8.55,8.55ZM509.35,240.21c-2.92,0-5.21,2.29-5.21,5.21s2.29,5.22,5.21,5.22h16.31c1.9,0,3.45,1.55,3.45,3.45v48.93c0,2.78,2.26,5.05,5.05,5.05s5.05-2.26,5.05-5.05v-48.93c0-2,1.45-3.45,3.45-3.45h11.72c2.88,0,5.22-2.34,5.22-5.22s-2.34-5.21-5.22-5.21h-11.72c-2,0-3.45-1.45-3.45-3.45v-11.89c0-2.73-2.22-4.88-5.05-4.88s-5.05,2.14-5.05,4.88v11.89c0,1.9-1.55,3.45-3.45,3.45h-16.31ZM503.41,288.19c-2.98,0-5.77-1.24-7.66-3.61-1.33-1.66-1.83-3.85-1.39-6.03.49-2.43,2.08-4.48,4.48-5.78.83-.46,1.58-.88,2.28-1.27,2.8-1.55,4.48-2.48,6.72-4.06,4.03-2.69,9.42-1.9,12.08,1.72,1.34,1.65,1.9,3.78,1.58,6.01-.35,2.5-1.75,4.75-3.84,6.18-3.05,2.15-6.08,3.92-8.63,5.35-1.82.99-3.75,1.48-5.61,1.48ZM513.15,269.33c-1.19,0-2.38.36-3.33,1-2.35,1.66-4.2,2.69-7,4.24-.69.38-1.45.8-2.29,1.27-1.49.81-2.45,2.01-2.73,3.41-.23,1.15.02,2.3.7,3.15,2.34,2.92,6.12,2.74,8.84,1.26,2.46-1.39,5.4-3.09,8.32-5.16h.02c1.26-.88,2.15-2.3,2.36-3.81.18-1.26-.12-2.45-.86-3.33l-.07-.09c-.97-1.35-2.46-1.93-3.96-1.93ZM560.35,285.89c-1.5,0-3.03-.4-4.47-1.22-1.96-.98-4.3-2.22-6.17-3.72-1.84-1.51-2.96-3.68-3.11-5.97-.14-2.25.66-4.42,2.25-6.11,3.05-3.46,8.27-4.17,12.1-1.62l3.97,2.48c1.95,1,3.37,2.72,4.01,4.84.67,2.24.38,4.69-.81,6.74-1.84,2.97-4.74,4.58-7.76,4.58ZM555.85,269.22c-1.64,0-3.26.69-4.42,2-.96,1.02-1.42,2.26-1.34,3.54.08,1.32.75,2.59,1.82,3.47,1.61,1.29,3.85,2.47,5.62,3.35,2.78,1.58,5.86.71,7.58-2.07.68-1.17.85-2.62.46-3.94-.36-1.22-1.18-2.19-2.3-2.75l-.15-.08-4.08-2.55c-.98-.65-2.09-.97-3.2-.97ZM608.39,257.8c-1.4,0-2.81-.3-4.14-.93-1.82-.83-3.7-1.68-5.7-2.51-2.22-.95-3.92-2.75-4.67-4.95-.74-2.16-.54-4.48.58-6.51,2.25-4.31,7.49-6.22,11.91-4.33.99.42,1.94.82,2.86,1.19,1.29.53,2.51,1.03,3.63,1.54h.03c2.15,1.04,3.79,2.94,4.47,5.23.69,2.28.38,4.75-.84,6.78-1.72,2.87-4.88,4.5-8.13,4.5ZM602.8,241.32c-2.12,0-4.2,1.19-5.26,3.22-.66,1.19-.78,2.5-.36,3.72.44,1.27,1.43,2.31,2.72,2.87,2.04.85,3.94,1.71,5.78,2.55,2.87,1.36,6.28.4,7.83-2.18.72-1.21.9-2.62.49-3.97-.4-1.34-1.36-2.45-2.62-3.06-1.05-.48-2.24-.97-3.5-1.48-.93-.38-1.9-.78-2.91-1.21-.71-.3-1.45-.45-2.19-.45ZM608.45,226.85c-1.36,0-2.74-.29-4.04-.91-1.43-.65-2.89-1.21-4.58-1.85l-1.24-.47c-2.15-.82-3.86-2.54-4.68-4.73-.82-2.17-.69-4.56.36-6.56,2.36-4.5,7.76-6.41,12.3-4.35,2.34,1,4.37,1.85,6.4,2.7l.11.05c2.12,1.06,3.71,2.98,4.34,5.25.62,2.22.29,4.5-.93,6.42-1.8,2.85-4.88,4.45-8.05,4.45ZM602.79,210.68c-2.19,0-4.34,1.22-5.42,3.28-.59,1.11-.65,2.46-.19,3.69.47,1.25,1.44,2.23,2.66,2.69l1.24.47c1.67.64,3.25,1.24,4.81,1.95,2.7,1.29,6.05.3,7.65-2.23.68-1.08.86-2.36.52-3.61-.36-1.31-1.27-2.41-2.49-3.04-2.02-.84-4.05-1.69-6.41-2.7-.76-.34-1.56-.51-2.36-.51ZM511.61,215.3c-4.83,0-9.14-2.81-10.55-7.03-.81-2.34-.53-4.63.81-6.61,1.75-2.59,4.77-3.88,7.01-4.01,16.22-1.48,27.07-3.09,37.44-5.56,2.34-.51,4.9-.06,7.04,1.22,2.2,1.32,3.75,3.4,4.25,5.72.48,2.21,0,4.53-1.33,6.53-1.45,2.15-3.71,3.63-6.19,4.06-10.59,2.09-23.1,3.98-37.13,5.62-.45.05-.9.07-1.34.07ZM548.27,195.37c-.4,0-.79.04-1.17.12-10.51,2.51-21.51,4.15-37.93,5.64h-.07c-1.34.08-3.31.97-4.33,2.48-.71,1.05-.84,2.24-.39,3.53.86,2.58,4.01,5.06,8.18,4.61,13.92-1.63,26.34-3.51,36.88-5.58,1.57-.27,3.02-1.23,3.93-2.58.8-1.2,1.09-2.55.82-3.83-.3-1.37-1.26-2.63-2.63-3.46-1.02-.61-2.17-.93-3.29-.93Z" fill="#2b2b2b"/><path d="M662.89,460.74l-7.44,106.78c-3.54,50.96-23.19,99.75-57.1,137.95-88.35,99.46-192.77,45.73-192.77,45.73-.36-.03-.75.13-1.16.43l31.7-55.96c12.14-8.45,129.59.8,129.59.8-26.51-23.34-119.07-18.26-119.07-18.26l72.79-74.66c25.92-6.67,80.81,6.73,80.81,6.73-37.67-20.65-75.47-22.58-75.47-22.58,3-13.21,89.96-89.65,89.96-89.65-72,19.89-170.04,153.87-170.04,153.87l.29-97.87-14.38,117.87-49,64.82c-143.69-292.13,281.3-276.01,281.3-276.01Z" fill="#349614"/><path d="M614.73,498.06s-86.95,76.43-89.96,89.65c0,0,37.79,1.93,75.47,22.58,0,0-54.89-13.4-80.81-6.73l-72.79,74.66s92.56-5.08,119.07,18.26c0,0-117.45-9.25-129.59-.8l-31.7,55.96c-6.95,5.17-22,54.29-22,54.29,0,0-29.47,12.18-29.16-16.31.31-28.49,28.34-52.87,28.34-52.87l49-64.82,14.38-117.87-.29,97.87s98.04-133.98,170.04-153.87Z" fill="#c4e29c"/><path d="M369.45,810.26c-3.66,0-7.49-.72-10.7-2.89-4.91-3.32-7.35-9.3-7.26-17.78.29-26.18,22.79-48.5,27.94-53.26-35.68-73.12-38.71-133.38-9-179.15,15.85-24.42,41.15-44.78,75.18-60.5,27.12-12.53,59.84-22.17,97.24-28.65,63.6-11.02,119.54-9.06,120.09-9.04l1.8.07-7.57,108.58c-3.61,51.9-24.04,101.27-57.54,138.99-20.33,22.89-43.23,39.57-68.05,49.57-19.88,8.01-41.03,11.77-62.83,11.18-33.94-.91-59.11-12.27-63.37-14.31-4.75,3.68-15.59,34.65-21.33,53.36l-.24.79-.76.31c-.4.17-6.71,2.72-13.62,2.72ZM651.64,462.34c-19.42,0-61.77,1.08-108.24,9.15-58.17,10.09-134.89,33.48-170.02,87.6-29.15,44.91-25.86,104.42,9.79,176.88l.59,1.21-1.02.88c-.27.24-27.44,24.21-27.74,51.56-.08,7.23,1.84,12.22,5.71,14.84,6.64,4.5,17.36,1.16,20.28.12,2.43-7.87,15.47-49.23,22.38-54.36h0c.78-.58,1.57-.83,2.35-.77l.34.03.31.16c.26.13,26.29,13.3,62.65,14.24,33.45.88,82.87-8.76,128.01-59.58,32.98-37.15,53.11-85.77,56.67-136.91l7.32-104.96c-1.84-.04-5.04-.1-9.38-.1Z" fill="#2b2b2b"/><path d="M405.53,753.2l-3.04-1.74.4-.7,31.9-56.3.33-.23c11.08-7.72,98.54-1.9,124.56.02-30.68-18.56-112.08-14.35-112.95-14.3l-4.48.25,76.27-78.22.48-.12c18.21-4.68,49.76.2,67.87,3.75-32.39-14.46-61.85-16.14-62.18-16.15l-2.08-.11.46-2.03c2.66-11.7,63.03-66.18,84.13-84.93-69.73,26.54-160.16,149.29-161.1,150.58l-3.18,4.34.22-73.74-10.87,89.05-49.29,65.19-2.79-2.11,48.72-64.44,14.33-117.4,3.49.22-.27,92.59c7.7-10.16,28.67-37.15,54.97-65.39,44.69-47.99,82.66-76.55,112.84-84.89l7.34-2.03-5.72,5.03c-32.82,28.85-81.42,73.97-88.58,86.78,9.03.84,41.64,4.99,73.77,22.6l11.65,6.38-12.9-3.15c-.54-.13-54.09-13.06-79.49-6.86l-69.36,71.14c19.03-.7,92.2-1.96,115.89,18.89l3.94,3.47-5.24-.41c-46.44-3.66-118.31-6.97-128.15-1.3l-31.89,56.29Z" fill="#2b2b2b"/><path d="M376.91,397.68s-71.7,103.97-10.76,103.97,10.76-103.97,10.76-103.97Z" fill="#7db8ea"/><path d="M366.16,503.39c-11.73,0-19.65-3.77-23.55-11.19-14.1-26.86,30.95-92.73,32.87-95.52l1.71-2.48,1.31,2.71c1.3,2.69,31.64,66.27,14.26,93.95-5.22,8.31-14.17,12.53-26.59,12.53ZM376.63,401.25c-8.23,12.52-42.58,67.15-30.93,89.32,3.25,6.19,10.13,9.32,20.46,9.32,11.14,0,19.09-3.66,23.63-10.89,14.38-22.91-7.47-75.07-13.16-87.75Z" fill="#2b2b2b"/></svg>