<?xml version="1.0" encoding="UTF-8"?><svg id="_レイヤー_6" xmlns="http://www.w3.org/2000/svg" width="2000" height="2000" viewBox="0 0 2000 2000"><path d="M2564.91,1944.66c-70.7,30.04-127.24,35.77-162.17,35.33-25.13-.28-39.07-3.8-39.07-3.8L241.67,1597.08l-166.81-29.81c-19.06-3.42-33.41-27.89-33.41-57.04,0,0-5.98-55.67,3.54-55.67l2338.22,378.34c19.68,0,79.2,9.92,137.77-19.73l687.41-445.98c32.75-15.16,45.46-32.35,48.22-47.12l2.4,1.16-5.5,123.64c0,24.25-10.02,45.85-25.05,54.06l-162.04,175.36-452.69,246.78c-16.92,9.2-33.19,16.97-48.8,23.59Z" fill="#c9a57a"/><path d="M3237.33,1325.56c7.73,0,23.06,16.04,19.28,36.59-2.76,14.77-15.47,31.96-48.22,47.12l-687.41,445.98c-58.57,29.65-118.08,19.73-137.77,19.73L62.76,1489.76c-9.51,0-18.48-12.18-18.48-27.11,0-16.42,10.86-36.1,43.79-46.46l757.33-418.64c22.44-10.97,72.15-10.97,102-5.51l2289.93,333.52Z" fill="#e7c79e"/><path d="M967.72,2294.33c-329.09-62.94-596.16-113.97-596.16-113.97-22.15-1.87-40.56-7.38-55.88-15.49-77.13-40.73-76.11-146.87-75.31-183.85.18-7.44.65-222.42.87-325.76.11-32.9.15-54.45.15-54.45l.29-3.75,2122,379.1-13.4,355.68c-2.47,150.12-61.33,191.18-111.48,198.67-22.15,3.31-42.59.11-55.74-3.09-10.2-2.54-591.48-113.8-1092.79-209.69v-.06c-41.54-7.88-82.5-15.71-122.55-23.37Z" fill="#c7ccd1"/><polygon points="1539.74 1968.26 1536.48 2172.71 1068.48 2092.6 1071.73 1888.14 1539.74 1968.26" fill="#b6b6b7"/><path d="M315.67,2164.88l-.51,2.31-53.81,2538.54-1.16,53.95-.11,5.46c-49.13-2.09-79.52,87.74-45.32,147.09,2.03,3.58,4.28,7.11,6.75,10.64,3.67,5.29,13.58,11.74,29.05,19.18l-.73,3.42-4.32,304.04-.15,1.87c-3.56-.61-7.3-.06-11,1.71-41.69,20.17-78.83,10.75-103.67-1.65-2-.99-4.03-1.65-6.03-1.93l.07-1.1s73.24-3135.55,73.24-3328.16c0-234.77,38.67-264.97,38.67-264.97h4.58c-.22,103.33-.69,318.32-.87,325.76-.8,36.98-1.82,143.12,75.31,183.85Z" fill="#c7ccd1"/><path d="M2219.56,2534.93c-14.7,0-27.75-2.26-37.21-4.56-10.37-2.58-628.56-120.89-1092.65-209.66-.19-.04-.37-.09-.54-.16-43.15-8.19-85.59-16.3-122.01-23.26-324.55-62.07-588.78-112.56-596.01-113.94-21.35-1.82-40.48-7.14-56.88-15.81-33.75-17.82-56.76-49.86-68.38-95.24-9.68-37.8-8.87-75.31-8.53-91.33.17-7.18.62-207.14.87-325.7.11-32.9.15-54.45.15-54.45,0-1.66,1.35-3,3-3h0c1.66,0,3,1.35,3,3,0,0-.04,21.55-.15,54.45-.25,118.58-.7,318.59-.87,325.82-3.04,140.59,54.73,171.1,73.71,181.12,15.72,8.31,34.13,13.41,54.74,15.15.1,0,.21.02.31.04,0,0,267.07,51.03,596.16,113.97,36.57,6.99,79.21,15.15,122.55,23.37.19.04.38.09.55.16,503.28,96.27,1082.03,207.05,1092.4,209.62,12.99,3.16,33.01,6.25,54.57,3.03,48.34-7.22,106.47-47.05,108.92-195.75l13.4-355.74c.06-1.66,1.42-2.94,3.11-2.89,1.66.06,2.95,1.46,2.88,3.11l-13.4,355.68c-2.51,152.84-63.4,193.96-114.03,201.53-6.76,1.01-13.37,1.43-19.68,1.43Z" fill="#2b2b2b"/><path d="M124.75,5251.4s-.05,0-.07,0c-1.66-.04-2.97-1.41-2.93-3.07.73-31.35,73.24-3137.71,73.24-3328.09,0-233.55,38.2-266.06,39.83-267.33,1.31-1.02,3.19-.79,4.21.52,1.01,1.29.79,3.16-.48,4.18-.27.24-9.63,8.69-18.85,44.95-8.53,33.55-18.7,98.54-18.7,217.69,0,190.44-72.51,3296.87-73.24,3328.23-.04,1.63-1.37,2.93-3,2.93Z" fill="#2b2b2b"/><path d="M2423.66,1879.58c-10.99,0-20.61-.59-28.33-1.05-4.86-.3-9.06-.55-12.11-.55-.17,0-.33-.01-.49-.04L62.27,1492.72c-.2-.03-.4-.09-.58-.16-16.56-6.36-24.61-16.15-24.61-29.92,0-19.43,14.31-35.51,43.75-49.14l763.13-418.59s.08-.04.12-.06c24.03-11.75,75.7-10.9,103.8-5.78l2289.68,333.49c4.23.12,9.34,3.29,13.71,8.54,3.47,4.17,11.22,15.58,8.28,31.59,0,0,0,0,0,0-2.44,13.06-13.05,32.19-49.72,49.2l-687.23,445.86c-.09.06-.18.11-.28.16-35.63,18.04-71.35,21.66-98.67,21.66ZM2383.46,1871.98c3.2.01,7.39.27,12.22.56,26.34,1.6,75.34,4.58,123.79-19.9l687.28-445.89c.12-.08.24-.15.37-.21,34.49-15.96,44.34-33.25,46.53-44.94h0c2.48-13.51-4.06-23.15-6.99-26.67-3.65-4.39-7.4-6.38-9.34-6.38-.14,0-.29-.01-.43-.03L946.97,995s-.07-.01-.11-.02c-31.39-5.74-79.07-5-100.09,5.23L83.62,1418.81c-.06.03-.12.06-.18.09-27.16,12.56-40.37,26.86-40.37,43.73,0,11.07,6.51,18.77,20.49,24.21l2319.9,385.13ZM3256.61,1362.15h0,0Z" fill="#2b2b2b"/><path d="M2406.38,1983.01c-1.25,0-2.47,0-3.67-.02-24.33-.27-38.22-3.51-39.66-3.87L241.14,1600.03l-166.81-29.81c-20.46-3.67-35.88-29.46-35.88-59.99v-55.72c0-1.66,1.34-3,3-3s3,1.34,3,3v55.72c0,27.67,13.3,50.93,30.94,54.09l166.81,29.81,2122,379.1c.07.01.14.03.21.04.13.03,13.97,3.44,38.37,3.71,34.71.43,90.83-5.29,160.96-35.09,16.21-6.87,32.55-14.76,48.54-23.46l452.26-246.55,161.71-175c.22-.24.48-.44.77-.6,14.05-7.68,23.49-28.34,23.49-51.43,0-.04,0-.09,0-.13l5.5-123.64c.07-1.66,1.51-2.94,3.13-2.86,1.66.07,2.94,1.48,2.86,3.13l-5.5,123.58c-.02,24.95-10.51,47.52-26.18,56.38l-161.71,175.01c-.22.24-.48.44-.77.6l-452.69,246.78c-16.17,8.79-32.68,16.77-49.07,23.72-68.67,29.17-124.19,35.59-159.7,35.59Z" fill="#2b2b2b"/><path d="M1536.48,2175.71c-.17,0-.34-.01-.51-.04l-468.01-80.12c-1.46-.25-2.52-1.53-2.49-3l3.25-204.46c.01-.88.41-1.7,1.08-2.26.67-.56,1.56-.8,2.42-.65l468.01,80.12c1.46.25,2.52,1.53,2.49,3l-3.25,204.46c-.01.88-.41,1.7-1.08,2.26-.54.45-1.22.69-1.92.69ZM1071.52,2090.07l462.02,79.09,3.16-198.39-462.02-79.09-3.16,198.39Z" fill="#2b2b2b"/><path d="M1822.93,1153.02l3.49,25.95c.09,3.79-1.09,7.51-3.38,10.63-35.53,48.38-330.82,455.89-353.15,485.14-21.14,27.68-45.85,19.68-51.09,17.56-.8-.32-1.62-.6-2.45-.82l-490.92-130.36c-8.03-2.13-12.01-7.92-12.27-15.76l-.55-14.24c.61,3.52,3.57,6.43,8.57,7.72l502.62,129.6c9.76,2.51,22.17-1.53,27.7-9.02l368.97-500.02c1.57-2.12,2.15-4.29,1.86-6.3l.6-.07Z" fill="#eaeaea"/><path d="M1822.33,1153.1c.29,2.01-.29,4.18-1.86,6.3l-368.97,500.02c-5.52,7.49-17.94,11.53-27.7,9.02l-502.62-129.6c-5-1.29-7.96-4.19-8.57-7.72v-.02s-.08-2.12-.08-2.12c.19-2.26,1.27-4.67,3.29-7.02l403.73-468.68c4.97-5.77,15.8-8.99,24.22-7.22l468.47,98.79c5.92,1.25,9.55,4.46,10.09,8.24ZM1439.16,1623.87l330.5-443.48-444.07-95.14-357.82,418.85,471.39,119.77Z" fill="#fff"/><polygon points="1769.66 1180.39 1439.16 1623.87 967.77 1504.1 1325.59 1085.25 1769.66 1180.39" fill="#383838"/><path d="M912.52,1528.98l.08,2.12c-.12-.69-.15-1.39-.08-2.12Z" fill="#fff"/><path d="M1430.02,1672.2c-2.37,0-4.72-.28-6.96-.85l-502.62-129.6c-6-1.55-9.93-5.23-10.78-10.11l5.91-1.03c.43,2.45,2.75,4.4,6.36,5.33l502.62,129.6c8.52,2.19,19.76-1.42,24.53-7.9l368.97-500.02c.72-.98,1.54-2.48,1.3-4.09-.37-2.61-3.34-4.8-7.74-5.73l-468.47-98.79c-7.31-1.54-17.08,1.31-21.33,6.24l-403.73,468.68c-1.54,1.78-2.43,3.62-2.57,5.32-.04.47-.02.92.05,1.35l-5.91,1.03c-.16-.94-.2-1.91-.12-2.9.25-2.96,1.64-5.97,4.01-8.72l403.73-468.68c5.69-6.6,17.6-10.2,27.11-8.19l468.47,98.79c7.04,1.49,11.69,5.5,12.44,10.75.41,2.87-.42,5.81-2.41,8.51l-368.97,500.02c-5.01,6.79-14.62,11-23.9,11Z" fill="#2b2b2b"/><path d="M1439.86,1625.85l-1.13-.29-474.11-120.47,360.33-421.78,1.02.22,446.74,95.71-332.83,446.61ZM970.93,1503.09l467.52,118.79,328.18-440.36-440.38-94.35-355.32,415.92Z" fill="#2b2b2b"/><path d="M1433.36,1697.98c-7.72,0-13.56-2.03-15.7-2.9-.69-.28-1.39-.52-2.1-.71l-490.91-130.36c-9.03-2.39-14.18-8.98-14.5-18.56l-.66-17.1,6-.24.66,17.12c.23,6.91,3.61,11.27,10.04,12.98l490.92,130.36c.96.26,1.9.57,2.81.94,4.45,1.8,27.66,9.47,47.57-16.6,13.94-18.25,134.65-184.47,231.65-318.03,58.03-79.9,108.14-148.91,121.47-167.06,1.88-2.56,2.85-5.54,2.8-8.63l-3.49-25.96,5.95-.79,3.53,26.44c.11,4.48-1.26,8.8-3.96,12.48-13.32,18.14-63.43,87.14-121.45,167.03-97.01,133.59-217.75,299.84-231.73,318.15-13.23,17.33-27.95,21.42-38.9,21.42Z" fill="#2b2b2b"/><path d="M783.17,473.26v834.13c0,.83-.3,1.64-.88,2.3-6.32,7.26-48.05,49.31-166.43,49.31-94.01,0-140.54-27.29-159-42.27-6.33-5.14-9.95-12.45-9.95-20.13V476.12c0-1.07.51-2.09,1.41-2.79l.21-.17c.66-.52,1.09-1.19,1.28-1.9l.42.13s52.35,22.59,158.15,18.15c105.8-4.45,167.28-23.22,167.28-23.22l1.07-.55c.2.8.69,1.55,1.45,2.1l3.45,2.49c.98.7,1.54,1.77,1.54,2.9Z" fill="#2a87d3"/><path d="M477.43,339.67l-2.02,71.69c-.08,3.12.89,6.19,2.8,8.8,5.43,7.43,19.26,21.03,48.08,21.78,29.96.78,43.82-14.64,48.82-22.29,1.54-2.36,2.31-5.06,2.28-7.81l-.86-68.39-.31-24.68c-.04-3.45-1.38-6.8-3.81-9.48-7.41-8.16-24.23-18.32-48.52-18.79-18.11-.36-30.86,6.3-39.52,13.11-3.82,3.01-6.19,9.48-6.32,14.08l-.62,21.98ZM781.25,456.52c.18,1.03-.13,2.08-.85,2.9l-2.87,3.23c-.81.91-1.06,2.06-.81,3.12l-1.07.55s-61.47,18.77-167.28,23.22c-105.8,4.44-158.15-18.15-158.15-18.15l-.42-.13c.08-.29.13-.59.13-.89,0-.94-.4-1.89-1.21-2.62-.77-.69-1.2-1.64-1.2-2.62v-14.01c0-3.75,9.68-55.86,10.41-59.78.03-.16.04-.3.05-.47l1.78-43.65c.03-.72.29-1.43.77-2.02l.71-.9c.99-1.26,1.02-2.93.07-4.22l-.16-.21c-.47-.64-.71-1.41-.69-2.17l7.22-69.93c0-19.46,20.9-29.49,24.18-30.94.27-.12.56-.21.85-.27,87.26-19.13,193.6-5.83,229.63-2.13,33.28,3.41,33.27,31.32,33.33,31.67l4.17,59.79c.22,1.18-.2,2.38-1.14,3.23l-2.16,1.95c-1.61,1.45-1.61,3.8,0,5.25l2.74,2.47c.6.55,1,1.24,1.14,1.99l7.98,41.81,12.84,73.94Z" fill="#2f3877"/><path d="M577.4,411.84c.03,2.75-.73,5.45-2.28,7.81-5.01,7.64-18.86,23.06-48.82,22.29-28.82-.76-42.65-14.35-48.08-21.78-1.91-2.6-2.89-5.68-2.8-8.8l2.02-71.69h5.23l1.72.04c-.7,24.98-1.56,67.51.54,74.55,1.62,5.41,10.42,9.88,18.24,12.87,7.69,2.94,15.99,4.29,24.31,4.01,5.04-.17,11.6-.56,19.44-1.36,19.37-1.99,19.67-25.06,19.67-25.06l-.62-61.58h.99s9.58.3,9.58.3l.86,68.39Z" fill="#293368"/><path d="M576.22,318.77l.31,24.68-9.58-.31h-.99s-.16-15.27-.16-15.27c-.03-3.63-2.11-7.36-6.98-10.73-6.96-4.82-10.18-8.2-35.65-8.99-16.69-.51-26.86,5.65-32.52,8.92-3.56,2.06-5.74,5.69-5.88,9.61-.1,3.21-.25,7.73-.4,13.04l-1.72-.04h-5.23l.62-21.98c.13-4.6,2.5-11.06,6.32-14.08,8.66-6.81,21.41-13.47,39.52-13.11,24.29.47,41.11,10.63,48.52,18.79,2.44,2.68,3.77,6.03,3.81,9.48Z" fill="#293368"/><path d="M565.97,343.14l.62,61.58s-.3,23.06-19.67,25.06c-7.84.81-14.4,1.2-19.44,1.36-8.32.28-16.62-1.07-24.31-4.01-7.82-2.99-16.63-7.46-18.24-12.87-2.1-7.04-1.24-49.57-.54-74.55.15-5.31.29-9.83.4-13.04.14-3.92,2.32-7.55,5.88-9.61,5.66-3.28,15.83-9.44,32.52-8.92,25.47.79,28.69,4.17,35.65,8.99,4.87,3.37,6.95,7.1,6.98,10.73l.16,15.28Z" fill="#62a6dd"/><path d="M615.86,1361.99c-93.93,0-141.12-26.91-160.89-42.94-7.03-5.71-11.06-13.9-11.06-22.46V476.12c0-1.99.93-3.87,2.55-5.15l.19-.16c.1-.08.22-.2.26-.33l.03-.12c0-.17-.12-.31-.23-.41-1.38-1.25-2.18-3.02-2.18-4.84v-14.01c0-4.34,10.36-59.78,10.46-60.33v-.09s1.79-43.6,1.79-43.6c.06-1.38.55-2.68,1.42-3.77l.7-.89c.15-.19.16-.38,0-.59l-.13-.18c-.88-1.2-1.33-2.63-1.29-4.06v-.22s7.22-69.78,7.22-69.78c.11-21.02,21.64-31.61,25.96-33.52.51-.21.97-.36,1.43-.46,82.03-17.98,180.57-7.49,222.64-3.02,2.92.31,5.57.59,7.92.83,32.97,3.38,35.78,29.23,36.01,34.38,0-.02,0-.04,0-.06v.13s4.17,59.65,4.17,59.65c.33,2.15-.45,4.31-2.12,5.82l-2.16,1.95c-.1.09-.22.23-.22.4s.12.31.21.4l2.74,2.47c1.1,1,1.81,2.26,2.08,3.65l7.98,41.82,12.85,73.99c.33,1.93-.23,3.9-1.56,5.4l-2.87,3.23c-.16.18-.16.32-.14.42.02.07.09.23.29.38l3.45,2.49c1.75,1.26,2.79,3.25,2.79,5.33v834.13c0,1.56-.58,3.08-1.62,4.27-7.31,8.4-49.81,50.33-168.68,50.33ZM463.48,337.82c0,.08.05.17.11.25l.14.18c1.76,2.41,1.71,5.56-.11,7.88l-.72.91c-.08.1-.12.19-.12.28l-1.79,43.64c-.02.37-.05.64-.11.93-2.63,14.03-10.29,55.91-10.36,59.21v14.01c0,.18.13.33.21.4,1.42,1.29,2.2,3.01,2.2,4.85,0,.58-.08,1.16-.24,1.72-.35,1.31-1.15,2.51-2.3,3.43l-.2.16c-.18.14-.28.31-.28.45v820.47c0,6.75,3.22,13.24,8.84,17.81,19.15,15.54,65.03,41.6,157.11,41.6,49.53,0,91.25-7.29,124.03-21.68,25.5-11.19,37.17-23.19,40.13-26.6.1-.11.15-.22.15-.33V473.26c0-.16-.11-.33-.3-.46l-3.45-2.49c-1.3-.94-2.23-2.29-2.61-3.81v-.03c-.5-2.07.04-4.18,1.47-5.8l2.87-3.23c.12-.13.16-.26.14-.39l-12.84-73.94-7.97-41.76c-.03-.14-.13-.26-.22-.34l-2.72-2.45c-1.4-1.26-2.2-3.03-2.2-4.85s.8-3.59,2.2-4.85l2.16-1.95c.1-.09.24-.25.21-.45l-.04-.34-4.17-59.79h0c0-.06,0-.14-.01-.22-.19-4.28-2.56-25.8-30.63-28.67-2.36-.24-5.01-.52-7.94-.84-41.79-4.45-139.65-14.86-220.74,2.91-.11.02-.21.06-.32.11-2.25.99-22.34,10.39-22.34,28.17l-.02.31-7.2,69.76ZM758.64,265.55l.02.1s-.01-.08-.02-.1Z" fill="#2b2b2b"/><path d="M525.26,432.93c-7.85,0-15.49-1.4-22.73-4.16-11.32-4.33-17.81-9.04-19.3-14-2.05-6.9-1.46-44.65-.61-75.1h0c.15-5.32.29-9.83.4-13.05.16-4.58,2.68-8.71,6.75-11.06l.43-.25c5.68-3.29,16.24-9.43,33.02-8.91,24.43.75,29.02,3.98,35.36,8.44.4.28.81.57,1.23.86,6.34,4.39,7.71,9.03,7.74,12.15l.78,76.86c0,.29-.56,24.69-21.24,26.82-6.86.71-13.44,1.17-19.56,1.37-.76.03-1.51.04-2.27.04ZM521.21,309.86c-14.64,0-23.72,5.27-29.24,8.47l-.43.25c-3.02,1.75-4.89,4.79-5.01,8.15-.11,3.21-.25,7.72-.4,13.03h0c-1.18,42.07-1.01,69.05.46,74,1.12,3.76,7.23,7.92,17.19,11.74,7.5,2.86,15.44,4.18,23.63,3.9,6.04-.2,12.54-.66,19.32-1.36,17.62-1.81,18.09-22.46,18.1-23.34l-.78-76.82c-.03-3.34-2.12-6.47-6.23-9.31-.43-.3-.84-.59-1.25-.88-6.06-4.26-10.07-7.08-33.46-7.8-.65-.02-1.29-.03-1.92-.03Z" fill="#2b2b2b"/><path d="M471.77,345.07c-.06,0-.13,0-.19,0l-6.85-.32c-.97-.04-1.71-.86-1.67-1.83.04-.96.83-1.72,1.83-1.67l6.84.31c.2,0,.43-.07.56-.2l2.04-2.16c.76-.82,1.87-1.29,3.04-1.29.97,0,1.75.78,1.75,1.75s-.78,1.75-1.75,1.75c-.19,0-.37.07-.48.19l-2.05,2.18c-.79.83-1.89,1.29-3.06,1.29Z" fill="#2b2b2b"/><path d="M478.05,341.42h-.62c-.97,0-1.78-.78-1.78-1.75s.75-1.75,1.72-1.75h.68c.97,0,1.75.78,1.75,1.75s-.78,1.75-1.75,1.75Z" fill="#2b2b2b"/><path d="M478.74,341.42h-.69c-.97,0-1.75-.78-1.75-1.75s.78-1.75,1.75-1.75h.69c.97,0,1.75.78,1.75,1.75s-.78,1.75-1.75,1.75Z" fill="#2b2b2b"/><path d="M482.66,341.42h-3.92c-.97,0-1.75-.78-1.75-1.75s.78-1.75,1.75-1.75h3.92c.97,0,1.75.78,1.75,1.75s-.78,1.75-1.75,1.75Z" fill="#2b2b2b"/><path d="M617.77,356.61c-.08,0-.16,0-.25-.02-6.03-.86-13.6-6.23-17.58-9.36-1.13-.89-2.57-1.38-4.07-1.4l-28.98-.95c-.97-.03-1.72-.84-1.69-1.81.03-.97.86-1.71,1.81-1.69l28.94.94c2.23.02,4.43.79,6.16,2.15,2.96,2.33,10.38,7.8,15.79,8.63,4.07-.02,98.3-.66,133.23-16.87.88-.41,1.92-.03,2.32.85.41.88.03,1.92-.85,2.32-36.22,16.82-130.82,17.19-134.83,17.2h0Z" fill="#2b2b2b"/><path d="M581.57,491.86c-87.23,0-131.56-18.66-132.04-18.86-.89-.38-1.3-1.41-.91-2.3.38-.89,1.42-1.29,2.3-.91.52.22,53.31,22.38,157.39,18.01,104.32-4.39,166.23-22.96,166.84-23.15.92-.28,1.9.24,2.18,1.16s-.24,1.9-1.16,2.18c-.62.19-62.9,18.89-167.71,23.29-9.37.39-18.33.57-26.88.57Z" fill="#2b2b2b"/><path d="M595.48,1317.15c-41.81,0-75.99-7.96-98.67-15.34-29.36-9.54-46.4-20.22-46.57-20.33-.82-.52-1.06-1.6-.54-2.41.52-.82,1.59-1.06,2.41-.54.66.42,67.5,41.83,168.09,34.19,100.85-7.66,153.87-32.37,154.4-32.62.88-.42,1.92-.04,2.33.83.42.87.04,1.92-.83,2.33-.53.25-54.06,25.23-155.63,32.95-8.59.65-16.93.95-24.99.95Z" fill="#2b2b2b"/><path d="M528.43,443.71c-.72,0-1.45,0-2.18-.03-29.29-.77-43.55-14.43-49.45-22.5-2.15-2.93-3.23-6.34-3.14-9.88l2.63-93.67c.13-4.9,2.63-11.97,6.98-15.4,11.76-9.25,25.44-13.78,40.64-13.49,24.16.47,41.55,10.31,49.78,19.36,2.7,2.97,4.22,6.75,4.27,10.63l.31,24.68h0s.86,68.39.86,68.39c.04,3.13-.85,6.17-2.56,8.79-4.61,7.04-18.41,23.11-48.15,23.11ZM522.52,292.23c-13.85,0-26.31,4.29-37.07,12.75-3.35,2.64-5.54,8.67-5.65,12.75l-2.63,93.67c-.07,2.75.78,5.41,2.46,7.71,5.52,7.56,18.92,20.34,46.71,21.07,29.53.78,42.91-14.78,47.31-21.5,1.33-2.04,2.02-4.4,1.99-6.83l-1.18-93.07c-.04-3.03-1.23-5.99-3.36-8.32-7.74-8.51-24.21-17.77-47.26-18.22-.45,0-.89-.01-1.33-.01Z" fill="#2b2b2b"/><path d="M1201.59,1342.55c1.19,13.44-7.87,25.23-19.9,26.94-18.5,2.61-49.81,3.61-53.72-18.78-4.39-25.19,32.25-29.75,48.06-30.54,7.21-.37,14.4,2.45,19.48,8.2,3.01,3.41,5.53,8.04,6.08,14.18Z" fill="#b5e0fa"/><path d="M1014.97,1346.71c41.33,13.59,8.28,53.68-22.58,59.51-30.85,5.84-69.77,27.57-88.16,58.43-18.4,30.86-58.58,35.84-71.66,20.41-5.54-6.54-31.59-19.22-52.03-17.4-20.44,1.82-124.73-41.61-36.99-105.54,65.8-47.94,146.98-34.23,183.46-24.37,9.78,2.63,19.91,3.57,30.03,3.13,19.42-.85,57.91,5.85,57.91,5.85Z" fill="#b5e0fa"/><path d="M737.6,1486.49c4.68,31.8-46.59,35.63-68.63,35.82-10.06.08-19.91-3.82-26.65-11.28-4-4.43-7.24-10.36-7.65-18.08-.9-16.89,12.4-31.21,29.24-32.73,25.89-2.34,69.56-1.97,73.7,26.27Z" fill="#b5e0fa"/><path d="M854.91,1495.29c-10.21,0-18.69-3.22-23.67-9.1-4.84-5.71-30.22-18.6-50.54-16.79-.43.04-.9.06-1.4.06-14.74,0-59-16.46-69.77-45.14-7.74-20.62,3.36-42.02,33-63.61,28.94-21.08,63.82-32.59,103.69-34.2,33.05-1.34,62.43,4.46,81.26,9.55,9.23,2.49,19.16,3.52,29.5,3.07h0c19.38-.85,56.71,5.6,58.29,5.87l.25.06c17.85,5.87,21.02,15.96,20.53,23.39-1.07,16.3-22.13,35.5-43.33,39.5-28.58,5.41-67.99,25.74-86.98,57.6-11.89,19.94-31.86,28.34-46.59,29.56-1.44.12-2.85.18-4.23.18ZM784.56,1465.73c19.85,0,43.62,11.43,49.35,18.2,4.84,5.71,14.17,8.59,24.94,7.7,13.86-1.15,32.67-9.07,43.87-27.87,19.54-32.8,60.01-53.7,89.33-59.25,19.83-3.74,39.51-21.38,40.49-36.29.58-8.86-5.65-15.7-18.01-19.8-2.44-.42-38.95-6.62-57.41-5.8h0c-10.69.46-20.98-.61-30.56-3.19-32.66-8.83-115.77-24.14-181.98,24.1-28.21,20.55-38.9,40.59-31.78,59.55,10.38,27.65,55.52,43.89,67.59,42.83,1.36-.12,2.75-.18,4.16-.18Z" fill="#2b2b2b"/><path d="M668.64,1524.06c-10.76,0-20.81-4.31-27.63-11.86-4.99-5.53-7.72-11.98-8.1-19.16h0c-.93-17.44,12.9-32.95,30.83-34.57,26.36-2.39,71.23-1.95,75.59,27.76,1.11,7.55-.69,14.15-5.36,19.6-13.25,15.48-46.4,18.06-64.99,18.22-.11,0-.22,0-.34,0ZM682.68,1461.08c-6.66,0-13.07.38-18.62.88-16.08,1.45-28.48,15.31-27.65,30.9h0c.34,6.36,2.76,12.08,7.2,17,6.15,6.82,15.26,10.71,25.03,10.71.1,0,.21,0,.31,0,14.48-.12,49.55-2.03,62.36-16.99,4.04-4.72,5.53-10.22,4.56-16.82-3.07-20.93-29.7-25.67-53.19-25.67Z" fill="#2b2b2b"/><path d="M1164.12,1372.56c-16.89,0-34.85-4.25-37.87-21.55-1.13-6.51.22-12.22,4.02-16.98,9.66-12.08,32.76-14.97,45.67-15.61,7.97-.41,15.59,2.8,20.88,8.79,3.81,4.31,6,9.42,6.51,15.19h0c1.24,14.04-8.36,26.97-21.4,28.82-5.21.74-11.44,1.34-17.82,1.34ZM1177.29,1321.89c-.39,0-.78.01-1.17.03-9.92.49-33.98,2.88-43.11,14.3-3.19,3.99-4.27,8.64-3.31,14.19,3.65,20.94,33.99,19.85,51.75,17.35,11.23-1.6,19.48-12.83,18.41-25.05h0c-.45-5.01-2.34-9.44-5.65-13.18-4.32-4.89-10.43-7.64-16.91-7.64Z" fill="#2b2b2b"/><path d="M1704.35,712.27l-107.81,108.88-192.38-192.38-192.38,192.38-108.88-108.88,192.38-192.38-192.38-192.38,108.88-108.88,192.38,192.38,192.38-192.38,107.81,108.88-192.38,192.38,192.38,192.38Z" fill="#dd3131"/><path d="M1596.55,825.4l-192.39-192.39-192.38,192.38-113.12-113.12,192.38-192.38-192.38-192.38,113.12-113.12,192.38,192.38,192.39-192.39,112.03,113.14-192.37,192.36,192.37,192.36-112.03,113.14ZM1107.16,712.27l104.63,104.63,192.38-192.38,192.36,192.36,103.59-104.61-192.38-192.39,192.38-192.39-103.59-104.61-192.36,192.36-192.38-192.38-104.63,104.63,192.38,192.38-192.38,192.38Z" fill="#2b2b2b"/></svg>