<?xml version="1.0" encoding="UTF-8"?><svg id="_レイヤー_4" xmlns="http://www.w3.org/2000/svg" width="600" height="800" viewBox="0 0 600 800"><path d="M462.22,187.62H139.38c-7.67,0-13.89-6.22-13.89-13.89l6.22-18.14c0-7.67,18.22-41.53,37.28-39.31l261.87-.92c22.31,3.59,38.24,31.56,38.24,39.24l7,19.13c0,7.67-6.22,13.89-13.89,13.89Z" fill="#fff"/><path d="M459.68,650.41H140.3c-10.71,0-19.41-8.71-19.41-19.41l7.91-379.19-7.55-45.18v-.25c0-28.57,5.72-52.32,16.53-68.67,10.25-15.5,24.47-23.95,41.14-24.43h242.08c15.19,0,27.73,5.3,37.27,15.74,25.2,27.58,21.06,81.43,20.73,85.25l.11,416.72c0,10.71-8.71,19.42-19.41,19.42ZM127.24,206.13l7.56,45.25-7.92,379.69c0,7.33,6.02,13.35,13.41,13.35h319.39c7.4,0,13.41-6.02,13.41-13.41l-.11-416.99v-.14c.06-.54,4.63-54.78-19.16-80.82-8.36-9.15-19.41-13.78-32.84-13.78h-242c-14.54.42-27.1,7.94-36.22,21.74-10.13,15.33-15.5,37.84-15.53,65.12Z"/><path d="M454.43,679.76H145.57c-11.97,0-21.68-9.71-21.68-1.68V195.19c-.8-38.01,23.14-41.68,35.11-41.68l278.68-.81c23.3,3.59,38.42,10.52,38.42,42.49v482.88c0-8.03-9.71,1.68-21.68,1.68Z" fill="#fff"/><path d="M459.69,687.65H140.31c-10.71,0-19.41-8.71-19.41-19.41V191.62c0-26.51,15.31-41.11,43.11-41.11h277c23.53,0,38.11,6.38,38.11,38.11v479.62c0,10.71-8.71,19.41-19.41,19.41ZM164,156.51c-16.93,0-37.11,6.09-37.11,35.11v476.62c0,7.4,6.02,13.41,13.41,13.41h319.39c7.4,0,13.41-6.02,13.41-13.41V188.62c0-27.14-10.81-32.11-32.11-32.11H164Z"/><rect x="118.12" y="273.84" width="363.77" height="373.17" fill="#23509b"/><rect x="215.13" y="274.89" width="169.73" height="374.04" fill="#f3f8ff"/><path d="M471.61,650H128.39c-7.16,0-12.98-5.82-12.98-12.98v-353.21c0-7.16,5.82-12.98,12.98-12.98h343.21c7.16,0,12.98,5.82,12.98,12.98v353.21c0,7.16-5.82,12.98-12.98,12.98ZM128.39,276.83c-3.85,0-6.98,3.13-6.98,6.98v353.21c0,3.85,3.13,6.98,6.98,6.98h343.21c3.85,0,6.98-3.13,6.98-6.98v-353.21c0-3.85-3.13-6.98-6.98-6.98H128.39Z"/><path d="M386.62,650.68h-173.23v-377.54h173.23v377.54ZM216.88,647.18h166.23v-370.54h-166.23v370.54Z" fill="#2b2b2b"/></svg>