<?xml version="1.0" encoding="UTF-8"?><svg id="_レイヤー_10" xmlns="http://www.w3.org/2000/svg" width="800" height="1000" viewBox="0 0 800 1000"><ellipse cx="204.21" cy="534.29" rx="9.96" ry="4.98" fill="#c7ccd1"/><ellipse cx="222.14" cy="434.91" rx="9.96" ry="4.98" fill="#c7ccd1"/><path d="M517.31,435.51c5.5,0,9.96,2.22,9.96,4.97s-4.46,4.98-9.96,4.98-9.96-2.23-9.96-4.98,4.46-4.97,9.96-4.97Z" fill="#c7ccd1"/><ellipse cx="519.7" cy="534.49" rx="9.96" ry="4.98" fill="#c7ccd1"/><path d="M585.22,202.14c2.68.2,4.56,4.14,4.2,8.79s-2.82,8.25-5.5,8.04-4.56-4.15-4.2-8.79c.36-4.65,2.82-8.25,5.5-8.04Z" fill="#c7ccd1"/><path d="M600.87,88.16c2.64.54,4.01,4.68,3.08,9.25-.94,4.57-3.83,7.83-6.47,7.29-2.63-.54-4.01-4.68-3.07-9.24.94-4.57,3.83-7.84,6.46-7.3Z" fill="#c7ccd1"/><path d="M676.83,919.59c.31,2.62-.9,5.07-3.12,6.22-17.53,9.1-33.75,5.54-40.53,2.18-2.27-1.12-3.78-3.45-3.92-5.96l-1.13-37.34c-.15-2.58,1.17-4.7,3.14-5.73.53-.28,1.11-.48,1.71-.59.98-.18,2.04-.13,3.12.22,11.24,3.61,20.8,1.51,27.09-1.07.54-.22,1.1-.36,1.65-.42.3-.04.59-.06.88-.05,3.22.09,6.27,2.64,6.7,6.2l4.41,36.34Z" fill="#555"/><path d="M165.88,873.74c1.02-.01,2,.24,2.85.68,1.97,1.04,3.29,3.16,3.14,5.74l-1.13,37.33c-.14,2.52-1.65,4.85-3.92,5.97-6.78,3.36-23,6.92-40.53-2.18-2.22-1.15-3.43-3.61-3.12-6.22l4.41-36.34c.43-3.56,3.48-6.11,6.7-6.2h.21c.77.01,1.56.15,2.32.47,6.29,2.58,15.85,4.67,27.09,1.07.67-.22,1.33-.32,1.98-.32Z" fill="#555"/><path d="M213.88,741.14l-.75,31.61c.24,2.21-1.05,4.32-3.29,5.36-17.7,8.25-29.71,4.74-36.35,2.1l-1.04-.07,2.95-42.01,2.53.18c11.05,2.71,20.62.64,26.96-1.74.41-.16.83-.28,1.26-.36.42-.07.85-.11,1.26-.12,3.2-.02,6.15,2.05,6.47,5.05Z" fill="#555"/><path d="M616.56,770.75l-1.56.22c-6.84,1.23-16.14.97-27.98-4.54-2.24-1.05-3.53-3.16-3.29-5.37l-.75-31.61c.26-2.42,2.22-4.24,4.65-4.83.58-.14,1.19-.22,1.81-.21.84,0,1.7.15,2.53.47,4.5,1.69,10.63,3.23,17.77,3l.81-.11c2.02,14.85,4.05,29.29,6.01,42.98Z" fill="#555"/><path d="M569.69,549.73c18.57-8.07,18.62-43.02,18.62-43.02l1.74-16.5.65.07c-1.57,15.77-.93,40.05,1.11,68.93l-1.11.08c-1.51,8.7-7.14,14.42-14.45,18.15-18.67,9.52-48.29,6.05-48.29,6.05,0,0-262.6-3.59-302.04-3.59-5.96,0-11.07.88-15.47,2.38-24.71,8.38-26.65,36.16-26.65,36.16l-8.4,119.69-2.95,42.01-6.57,93.6c-.65,0-1.31.1-1.98.32-11.24,3.6-20.8,1.51-27.09-1.07-.76-.32-1.55-.46-2.32-.47v-.12s17.04-260.54,17.04-260.54c0,0,5.33-39.82,37.91-46.8v-.06c81.8-.83,330.14-3.32,351.57-3.32,25.69,0,28.68-11.95,28.68-11.95Z" fill="#c7ccd1"/><path d="M144.35,531.47c-.3,8.85,6.83,16.57,16.1,16.53l387.7-1.61c11.52-.05,20.83-8.9,21.82-20l-.28,23.34s-2.99,11.95-28.68,11.95c-21.43,0-269.77,2.49-351.57,3.32-16.28.16-25.96.26-25.96.26,0,0-20.41-1.25-20.41-17.52s.94-16.28.94-16.28h.34Z" fill="#c9a57a"/><path d="M210.45,582.28l.04.11-4.49,151.47.15,2.35c-.43.08-.85.2-1.26.36-6.34,2.38-15.91,4.45-26.96,1.74l-2.53-.18,8.4-119.69s1.94-27.78,26.65-36.16Z" fill="#c7ccd1"/><path d="M591.38,477.51l-1.33,12.7-1.74,16.5s-.05,34.95-18.62,43.02l.28-23.34c.11-1.15.12-2.33.04-3.52l-4.87-70.28c-.14-2.02-.51-3.96-1.1-5.81l.77-.22c15.19-5.42,20.6-20.55,22.5-31.65l.5.08,3.29,62.49.28.03Z" fill="#c7ccd1"/><path d="M591.81,559.21c3.48,49.25,11.05,111.9,18.74,168.56l-.81.11c-7.14.23-13.27-1.31-17.77-3-.83-.32-1.69-.47-2.53-.47-.62-.01-1.23.07-1.81.21l-.41-2.51-10.46-143.7-.51-.97c7.31-3.73,12.94-9.45,14.45-18.15l1.11-.08Z" fill="#c7ccd1"/><path d="M598.03,252.14l-.76.33-8.96,149.67s.25,5.53-1,12.77c-1.9,11.1-7.31,26.23-22.5,31.65l-.77.22c-2.54-8.03-9-14.25-17.09-16.48l.69-2.39c11.61-5.2,13.78-34.73,13.78-34.73l11.65-158.64,1.99-1.33c1.53,2.04,3.33,3.86,5.27,5.33l5.31,4.01c4.17,3.15,8.76,6.11,12.39,9.59Z" fill="#c7ccd1"/><path d="M636.1,878.59c-1.08-.35-2.14-.4-3.12-.22l-.15-.91s-7.51-45.83-16.27-106.71c-1.96-13.69-3.99-28.13-6.01-42.98-7.69-56.66-15.26-119.31-18.74-168.56-2.04-28.88-2.68-53.16-1.11-68.93l-.65-.07,1.33-12.7,18.39-174.65c3.77,1.62,7.82,1.99,7.82,1.99l19.12-133.25c2.39-21.11,15.24-44.21,9.56-68.11-3.85-16.22-16.79-26.94-24.7-32.15-.5-.33-1.02-.63-1.55-.91l.16-.3s21.91-1.25,35.35,17.13c13.45,18.37,20.62,43.91,20.62,43.91,0,0-.3,32.87-15.24,56.17l-32.17,282.21c-3.24,28.47-3.26,57.21-.07,85.68l35.82,319.25.35,2.62c-.55.06-1.11.2-1.65.42-6.29,2.58-15.85,4.68-27.09,1.07Z" fill="#c7ccd1"/><path d="M603.7,297.13c.33.42,1.16.35,1.26-.35l16.77-124.78c.39-2.95.94-5.88,1.63-8.77l10.76-44.8c.72-8.53-1.5-17.63-5.65-25.59-3.38-6.48-8.36-11.99-14.29-16.27l-7.99-5.8c-1.02-.56-2.01-.92-2.97-1.08l.03-.16,5.64-.89c3.83-.61,7.73.02,11.13,1.79.53.28,1.05.58,1.55.91,7.91,5.21,20.85,15.93,24.7,32.15,5.68,23.9-7.17,47-9.56,68.11l-19.12,133.25s-4.05-.37-7.82-1.99c-2.7-1.15-5.26-2.95-6.07-5.73Z" fill="#c9a57a"/><path d="M604.96,296.78c-.1.7-.93.77-1.26.35-.01-.01-.02-.01-.01-.02-.05-.14-.09-.29-.12-.44l1.17-31.85c-.38-5.22-3.07-9.21-6.71-12.68-3.63-3.48-8.22-6.44-12.39-9.59l-5.31-4.01c-1.94-1.47-3.74-3.29-5.27-5.33-3.19-4.27-5.18-9.52-4.77-14.6l10.06-106.1c.6-5.49,1.66-10.93,3.25-16.22,3.9-12.97,10.51-28.19,19.62-26.6.96.16,1.95.52,2.97,1.08l7.99,5.8c5.93,4.28,10.91,9.79,14.29,16.27,4.15,7.96,6.37,17.06,5.65,25.59l-10.76,44.8c-.69,2.89-1.24,5.82-1.63,8.77l-16.77,124.78ZM603.95,97.41c.93-4.57-.44-8.71-3.08-9.25-2.63-.54-5.52,2.73-6.46,7.3-.94,4.56.44,8.7,3.07,9.24,2.64.54,5.53-2.72,6.47-7.29ZM589.42,210.93c.36-4.65-1.52-8.59-4.2-8.79-2.68-.21-5.14,3.39-5.5,8.04-.36,4.64,1.52,8.58,4.2,8.79s5.14-3.39,5.5-8.04Z" fill="#e7c79e"/><path d="M565.14,452.59l4.87,70.28-.04,3.52c-.99,11.1-10.3,19.95-21.82,20l-387.7,1.61c-9.27.04-16.4-7.68-16.1-16.53.02-1.06.16-2.13.42-3.21l14.23-60.16c6.22-26.3,29.91-44.71,56.93-44.25l324.78,5.54c2.16.04,4.25.35,6.24.91,8.09,2.23,14.55,8.45,17.09,16.48.59,1.85.96,3.79,1.1,5.81ZM529.66,534.49c0-2.75-4.46-4.98-9.96-4.98s-9.96,2.23-9.96,4.98,4.46,4.98,9.96,4.98,9.96-2.23,9.96-4.98ZM527.27,440.48c0-2.75-4.46-4.97-9.96-4.97s-9.96,2.22-9.96,4.97,4.46,4.98,9.96,4.98,9.96-2.23,9.96-4.98ZM232.1,434.91c0-2.75-4.46-4.98-9.96-4.98s-9.96,2.23-9.96,4.98,4.46,4.98,9.96,4.98,9.96-2.23,9.96-4.98ZM214.17,534.29c0-2.75-4.46-4.98-9.96-4.98s-9.96,2.23-9.96,4.98,4.46,4.98,9.96,4.98,9.96-2.23,9.96-4.98Z" fill="#e7c79e"/><path d="M222.14,441.64c-6.68,0-11.71-2.89-11.71-6.73s5.03-6.73,11.71-6.73,11.71,2.89,11.71,6.73-5.03,6.73-11.71,6.73ZM222.14,431.68c-4.94,0-8.21,1.94-8.21,3.23s3.27,3.23,8.21,3.23,8.21-1.94,8.21-3.23-3.27-3.23-8.21-3.23Z" fill="#2b2b2b"/><path d="M517.31,447.21c-6.68,0-11.71-2.89-11.71-6.73s5.03-6.72,11.71-6.72,11.71,2.89,11.71,6.72-5.03,6.73-11.71,6.73ZM517.31,437.26c-4.94,0-8.21,1.94-8.21,3.22s3.27,3.23,8.21,3.23,8.21-1.94,8.21-3.23-3.27-3.22-8.21-3.22Z" fill="#2b2b2b"/><path d="M204.21,541.02c-6.68,0-11.71-2.89-11.71-6.73s5.03-6.73,11.71-6.73,11.71,2.89,11.71,6.73-5.03,6.73-11.71,6.73ZM204.21,531.06c-4.94,0-8.21,1.94-8.21,3.23s3.27,3.23,8.21,3.23,8.21-1.94,8.21-3.23-3.27-3.23-8.21-3.23Z" fill="#2b2b2b"/><path d="M519.7,541.22c-6.68,0-11.71-2.89-11.71-6.73s5.03-6.73,11.71-6.73,11.71,2.89,11.71,6.73-5.03,6.73-11.71,6.73ZM519.7,531.26c-4.94,0-8.21,1.94-8.21,3.23s3.27,3.23,8.21,3.23,8.21-1.94,8.21-3.23-3.27-3.23-8.21-3.23Z" fill="#2b2b2b"/><path d="M160.38,551c-5.19,0-10.03-2.04-13.64-5.76-3.59-3.7-5.56-8.76-5.38-13.87.02-1.23.19-2.53.5-3.81l14.23-60.15c3.17-13.38,10.89-25.4,21.74-33.84,10.86-8.44,24.42-12.97,38.16-12.72l324.78,5.54c2.39.04,4.75.39,7,1.02,9.12,2.51,16.28,9.42,19.14,18.46.66,2.08,1.08,4.27,1.23,6.51l4.87,70.28c.09,1.38.08,2.72-.05,4-1.16,12.9-11.81,22.67-24.79,22.72l-387.7,1.61h-.09ZM214.96,426.84c-25.05,0-47.26,17.51-53.04,41.95l-14.23,60.16c-.21.87-.32,1.74-.34,2.58-.12,3.53,1.23,6.99,3.69,9.53,2.47,2.54,5.78,3.94,9.34,3.94h.06l387.7-1.61c9.87-.04,17.97-7.47,18.84-17.27,0,0,0-.01,0-.02.09-.96.1-1.98.03-3.03l-4.87-70.27c-.12-1.76-.45-3.48-.96-5.11-2.25-7.11-7.87-12.52-15.03-14.5-1.78-.5-3.62-.77-5.5-.8l-324.78-5.54c-.3,0-.61,0-.92,0Z" fill="#2b2b2b"/><path d="M604.26,300.39c-1.12,0-2.2-.5-2.91-1.41-.1-.12-.18-.25-.26-.38-.38-.64-.55-1.36-.51-2.11l1.16-31.61c-.32-3.8-2.11-7.07-5.78-10.57-2.43-2.33-5.46-4.51-8.38-6.62-1.26-.91-2.52-1.82-3.75-2.75l-5.31-4.01c-2.18-1.65-4.15-3.64-5.86-5.92-3.9-5.22-5.8-11.13-5.36-16.64l10.06-106.14c.64-5.86,1.77-11.5,3.36-16.8,6.2-20.62,13.93-30.28,23.01-28.69,1.26.21,2.58.68,3.9,1.4.11.06.22.13.32.2l7.99,5.8c6.46,4.66,11.71,10.65,15.19,17.31,4.59,8.81,6.72,18.48,5.98,27.23-.01.15-.04.3-.07.45l-10.76,44.8c-.67,2.83-1.2,5.67-1.57,8.46l-16.77,124.79c-.21,1.5-1.27,2.7-2.69,3.08-.33.09-.66.13-.99.13ZM601.99,72.59c-5.12,0-10.85,9.05-15.52,24.57-1.49,4.95-2.54,10.22-3.14,15.68l-10.06,106.06c-.32,3.95,1.21,8.53,4.19,12.52,1.35,1.8,2.97,3.44,4.68,4.73l5.31,4.01c1.19.9,2.42,1.78,3.64,2.67,3.09,2.23,6.29,4.54,9.02,7.15,3.41,3.25,5.62,6.54,6.76,10.1l11.89-88.47c.39-2.99.96-6.04,1.69-9.07l10.71-44.58c.59-7.57-1.3-15.99-5.34-23.73-3.04-5.84-7.67-11.1-13.39-15.22l-7.83-5.69c-.66-.35-1.29-.57-1.86-.67-.24-.04-.49-.06-.74-.06Z" fill="#2b2b2b"/><path d="M163.48,568.26c-.06,0-.12,0-.18,0-8.03-.49-23.23-5.41-23.23-20.51,0-6.87.17-11.77.49-14.59.18-1.52.54-4.69,3.45-4.69,1.66,0,3,1.34,3,3,0,.51-.13.99-.35,1.41-.15.76-.59,3.89-.59,14.87,0,12.85,15.94,14.4,17.5,14.52,1.16-.01,10.62-.11,25.84-.26,33.49-.34,327.9-3.32,351.6-3.32,20.51,0,25.01-7.95,25.69-9.49l.31-26.36c.02-1.66,1.38-2.98,3.03-2.97,1.66.02,2.98,1.38,2.97,3.03l-.32,26.86c0,.23-.03.47-.09.69-.15.58-3.88,14.22-31.59,14.22-23.67,0-318.05,2.98-351.54,3.32-16.28.16-25.96.26-25.96.26h-.03ZM144.02,534.46h0,0ZM144.03,534.46h0,0ZM144.04,534.46h0,0ZM144.05,534.46h0,0ZM144.06,534.46h0,0ZM144.07,534.46s0,0,0,0c0,0,0,0,0,0ZM144.08,534.46h0,0ZM144.11,534.46s-.02,0-.03,0c0,0,.02,0,.03,0ZM144.12,534.46h0,0ZM144.12,534.46h0,0ZM144.13,534.46s0,0,0,0c0,0,0,0,0,0ZM144.14,534.46h0,0ZM144.15,534.46h0,0ZM144.17,534.46h-.02.02ZM144.18,534.46h0,0ZM144.19,534.46h0,0ZM144.2,534.45h0,0Z" fill="#2b2b2b"/><path d="M617.59,307.85c-.09,0-.18,0-.28-.01-.18-.02-4.57-.43-8.73-2.22-4.09-1.74-6.67-4.23-7.69-7.4-.04-.11-.08-.23-.11-.34-.06-.2-.12-.42-.16-.63-.32-1.63.74-3.2,2.37-3.52,1.62-.32,3.2.74,3.52,2.36.03.07.05.14.07.2.54,1.84,2.67,3.09,4.36,3.81,1.41.61,2.89,1.02,4.11,1.29l18.68-130.21c.84-7.44,2.92-14.97,5.11-22.94,3.95-14.34,8.04-29.17,4.5-44.05-3.65-15.37-16.25-25.61-23.43-30.34-.38-.25-.81-.5-1.3-.76-2.79-1.46-6.09-1.98-9.26-1.48l-5.64.89c-1.63.27-3.17-.86-3.43-2.5-.26-1.64.86-3.17,2.5-3.43l5.64-.89c4.42-.71,9.04.04,12.98,2.09.68.36,1.27.71,1.82,1.07,7.92,5.22,21.84,16.57,25.97,33.96,3.89,16.38-.4,31.96-4.55,47.03-2.13,7.73-4.14,15.04-4.94,22.11l-19.13,133.34c-.21,1.49-1.49,2.57-2.97,2.57Z" fill="#2b2b2b"/><path d="M569.69,552.73c-1.16,0-2.26-.67-2.75-1.81-.66-1.52.04-3.29,1.56-3.95,16.54-7.19,16.81-39.95,16.81-40.28,0-.1,0-.21.02-.31l21.51-204.34c.17-1.65,1.65-2.85,3.29-2.68,1.65.17,2.85,1.64,2.68,3.29l-.05.5-18.39,174.66-3.05,29.05c-.03,3-.76,37.06-20.42,45.61-.39.17-.79.25-1.19.25Z" fill="#2b2b2b"/><path d="M664.49,877.48c-1.51,0-2.81-1.13-2.98-2.67l-35.82-319.25c-3.21-28.67-3.19-57.72.07-86.35l32.17-282.21c.05-.46.21-.89.46-1.28,13.39-20.88,14.65-50.29,14.76-54.16-.99-3.35-7.99-26.09-20.03-42.53-12.27-16.78-32.56-15.92-32.77-15.91-1.64.1-3.07-1.18-3.16-2.83-.09-1.65,1.17-3.06,2.82-3.16.96-.05,23.71-1.12,37.94,18.35,13.61,18.59,20.79,43.81,21.09,44.87.08.27.11.55.11.84-.01,1.37-.48,33.47-15.34,57.17l-32.09,281.53c-3.21,28.18-3.23,56.79-.07,85.01l35.82,319.25c.18,1.65-1,3.13-2.65,3.32-.11.01-.23.02-.34.02Z" fill="#2b2b2b"/><path d="M632.83,880.46c-1.44,0-2.72-1.04-2.96-2.51-.08-.46-7.61-46.56-16.28-106.77-2.2-15.35-4.16-29.42-6.01-43-9.46-69.72-15.77-126.5-18.76-168.75-2.21-31.25-2.58-54.61-1.1-69.44.17-1.65,1.65-2.85,3.28-2.69,1.65.16,2.85,1.63,2.69,3.28-1.44,14.49-1.07,37.51,1.12,68.42,2.98,42.13,9.28,98.77,18.72,168.37,1.85,13.57,3.81,27.62,6.01,42.96,8.66,60.15,16.19,106.19,16.26,106.65.27,1.64-.84,3.18-2.48,3.45-.16.03-.33.04-.49.04Z" fill="#2b2b2b"/><path d="M165.87,876.88c-.07,0-.14,0-.21,0-1.65-.12-2.9-1.55-2.78-3.2l17.93-255.44c.08-1.21,2.38-29.87,28.68-38.79,4.94-1.68,10.47-2.54,16.43-2.54,39.01,0,299.46,3.55,302.08,3.59.1,0,.21,0,.31.02.29.03,28.95,3.25,46.58-5.74,7.44-3.8,11.65-9.03,12.86-15.99.28-1.63,1.84-2.73,3.47-2.44,1.63.28,2.73,1.84,2.44,3.47-1.53,8.83-6.93,15.66-16.04,20.31-18.74,9.56-47.19,6.67-49.84,6.38-7.51-.1-263.26-3.59-301.85-3.59-5.3,0-10.18.75-14.5,2.22-22.56,7.65-24.61,33.27-24.62,33.53l-17.93,255.44c-.11,1.58-1.43,2.79-2.99,2.79Z" fill="#2b2b2b"/><path d="M134.5,875.4c-.07,0-.13,0-.2,0-1.65-.11-2.91-1.54-2.8-3.19l17.03-260.54c0-.07.01-.14.02-.2.23-1.71,6-42,40.25-49.34,1.62-.34,3.22.68,3.56,2.3s-.68,3.21-2.3,3.56c-29.38,6.29-35.25,42.14-35.55,44.18l-17.02,260.42c-.1,1.59-1.42,2.8-2.99,2.8Z" fill="#2b2b2b"/><path d="M547.08,431.14c-1.22,0-2.37-.75-2.82-1.97-.57-1.56.23-3.28,1.79-3.85.12-.05.25-.1.37-.15,8.14-3.64,11.48-25.01,12.01-32.21l11.65-158.64c.12-1.65,1.54-2.89,3.21-2.77,1.65.12,2.89,1.56,2.77,3.21l-11.65,158.64c-.24,3.21-2.67,31.48-15.55,37.25-.25.11-.5.22-.75.31-.34.12-.69.18-1.03.18Z" fill="#2b2b2b"/><path d="M564.81,449.56c-1.23,0-2.39-.77-2.83-1.99-.56-1.56.26-3.28,1.82-3.83,13.67-4.88,18.72-18.64,20.55-29.33,1.17-6.8.96-12.08.96-12.13,0-.1,0-.21,0-.31l8.96-149.67c.1-1.65,1.53-2.89,3.17-2.82,1.65.1,2.91,1.52,2.81,3.17l-8.95,149.52c.03,1.03.14,6.39-1.05,13.25-2.1,12.26-8.04,28.11-24.45,33.96-.33.12-.67.18-1.01.18Z" fill="#2b2b2b"/><path d="M591.1,480.48c-1.58,0-2.91-1.24-2.99-2.84l-3.29-62.49c-.09-1.66,1.18-3.07,2.84-3.15,1.64-.1,3.07,1.18,3.15,2.84l3.29,62.49c.09,1.66-1.18,3.07-2.84,3.15-.05,0-.11,0-.16,0Z" fill="#2b2b2b"/><path d="M587.22,725.11c-1.56,0-2.87-1.2-2.99-2.78l-10.46-143.7c-.12-1.65,1.12-3.09,2.77-3.21,1.66-.1,3.09,1.12,3.21,2.77l10.46,143.7c.12,1.65-1.12,3.09-2.77,3.21-.07,0-.15,0-.22,0Z" fill="#2b2b2b"/><path d="M149.41,930.02c-7.31,0-15.8-1.56-24.5-6.07-3.33-1.72-5.18-5.35-4.72-9.24l4.41-36.35c.59-4.9,4.72-8.7,9.59-8.84h.29c1.25.02,2.41.25,3.48.71,5.6,2.3,14.51,4.34,25.01.98.95-.31,1.97-.45,2.95-.46,1.44,0,2.88.35,4.17,1.01,3.15,1.67,4.97,4.95,4.76,8.58l-1.13,37.25c-.21,3.71-2.35,6.97-5.59,8.57-3.9,1.93-10.59,3.87-18.74,3.87ZM134.45,875.52h-.17c-1.58.05-3.46,1.39-3.72,3.56l-4.41,36.34c-.16,1.37.43,2.63,1.52,3.2,16.26,8.44,31.42,5.32,37.82,2.16,1.29-.64,2.17-1.99,2.26-3.45l1.13-37.25c.08-1.36-.5-2.45-1.54-3-.42-.22-.9-.31-1.42-.33-.33,0-.72.05-1.07.17-12.24,3.92-22.62,1.54-29.16-1.14-.38-.16-.79-.24-1.22-.25Z" fill="#2b2b2b"/><path d="M650.76,934.62c-10.48,0-17.68-3.33-18.91-3.94-3.24-1.6-5.38-4.85-5.58-8.48l-1.13-37.42c-.21-3.56,1.61-6.84,4.75-8.48.79-.42,1.65-.72,2.56-.88,0,0,0,0,0,0,1.52-.28,3.07-.17,4.58.32,10.48,3.37,19.4,1.32,25.03-.99.8-.32,1.62-.53,2.46-.63.42-.06.87-.08,1.31-.07,4.86.14,8.99,3.94,9.58,8.84l4.41,36.34c.46,3.9-1.39,7.52-4.72,9.25-9.02,4.68-17.39,6.14-24.33,6.14ZM633.52,881.32c-.3.06-.59.15-.85.29-1.05.55-1.62,1.63-1.55,2.9l1.13,37.42c.08,1.38.96,2.73,2.25,3.36,6.4,3.17,21.57,6.29,37.82-2.15,1.09-.56,1.69-1.82,1.52-3.21l-4.41-36.33c-.26-2.17-2.14-3.52-3.81-3.56-.12,0-.25,0-.4.02-.35.04-.64.11-.92.22-6.55,2.69-16.93,5.07-29.14,1.15-.57-.18-1.12-.23-1.66-.12h0Z" fill="#2b2b2b"/><path d="M206,736.86s-.06,0-.09,0c-1.66-.05-2.96-1.43-2.91-3.09l4.49-151.47c.05-1.66,1.44-2.95,3.09-2.91,1.66.05,2.96,1.43,2.91,3.09l-4.49,151.47c-.05,1.63-1.38,2.91-3,2.91Z" fill="#2b2b2b"/><path d="M188.7,786.29c-6.81,0-12.21-1.65-16.32-3.29-1.54-.61-2.29-2.36-1.68-3.9.61-1.54,2.35-2.29,3.9-1.68,6.86,2.73,17.85,5.48,33.97-2.03,1.06-.49,1.67-1.4,1.58-2.32-.01-.13-.02-.26-.02-.4l.74-31.37c-.24-1.24-1.73-2.22-3.42-2.22h-.03c-.22,0-.51.03-.78.08-.19.04-.43.1-.67.2-6.57,2.47-16.86,4.78-28.77,1.86-1.61-.39-2.59-2.02-2.2-3.63s2.02-2.59,3.63-2.2c10.42,2.56,19.45.52,25.19-1.63.55-.21,1.15-.39,1.77-.5.61-.1,1.18-.16,1.74-.17,4.96-.03,9.05,3.29,9.52,7.73.01.13.02.26.02.39l-.75,31.43c.28,3.43-1.68,6.63-5.03,8.19-8.72,4.06-16.15,5.45-22.4,5.45Z" fill="#2b2b2b"/><path d="M608.22,774.57c-7.19,0-14.72-1.81-22.47-5.42-3.35-1.57-5.3-4.77-5.03-8.19l-.75-31.43c0-.13,0-.26.02-.39.38-3.58,3.1-6.5,6.92-7.42.87-.21,1.73-.3,2.57-.29h0c1.19,0,2.41.23,3.56.67,5.42,2.04,11,2.98,16.59,2.8,1.63-.04,3.04,1.24,3.09,2.9.05,1.66-1.25,3.04-2.9,3.09-6.37.21-12.74-.87-18.92-3.19-.51-.2-1.04-.28-1.54-.28-.36,0-.69.04-1.04.13-1.04.25-2.14.99-2.35,2.08l.74,31.37c0,.13,0,.26-.02.4-.1.92.52,1.83,1.58,2.33,9.26,4.31,18.07,5.76,26.18,4.3,1.62-.3,3.19.79,3.48,2.42.29,1.63-.79,3.19-2.42,3.48-2.39.43-4.83.65-7.31.65Z" fill="#2b2b2b"/><path d="M598.05,106.51c-.31,0-.61-.03-.92-.09-1.88-.39-3.41-1.95-4.18-4.28-.68-2.03-.76-4.53-.25-7.03,1.15-5.6,4.9-9.42,8.53-8.66,3.63.74,5.58,5.71,4.44,11.31,0,0,0,0,0,0-1.05,5.12-4.29,8.75-7.62,8.75ZM600.29,89.85c-1.41,0-3.45,2.46-4.17,5.96-.39,1.88-.34,3.78.14,5.22.36,1.09.95,1.82,1.57,1.95,1.28.25,3.57-1.87,4.4-5.93.75-3.69-.31-6.9-1.72-7.18-.07-.02-.15-.02-.23-.02ZM603.95,97.41h0,0Z" fill="#2b2b2b"/><path d="M584.15,220.73c-.12,0-.25,0-.37-.01-3.7-.29-6.25-4.98-5.81-10.67.2-2.55.97-4.93,2.18-6.7,1.41-2.06,3.25-3.09,5.2-2.96,1.32.1,2.54.76,3.52,1.9,1.7,1.98,2.56,5.26,2.29,8.77-.2,2.55-.97,4.93-2.18,6.7-1.32,1.93-3.02,2.97-4.83,2.97ZM585.01,203.88c-.62,0-1.34.53-1.96,1.44-.86,1.25-1.43,3.07-1.58,4.99-.29,3.75,1.15,6.8,2.59,6.91.64.07,1.39-.49,2.04-1.44.86-1.25,1.43-3.07,1.58-4.99h0c.2-2.52-.38-4.96-1.45-6.22-.37-.43-.75-.67-1.13-.69-.03,0-.05,0-.08,0Z" fill="#2b2b2b"/></svg>