<?xml version="1.0" encoding="UTF-8"?><svg id="_レイヤー_36" xmlns="http://www.w3.org/2000/svg" width="1000" height="1000" viewBox="0 0 1000 1000"><path d="M882.14,635.67s65.72-2.39,52.58,97.99c-13.15,100.39-43.9,95.61-43.9,95.61l-390.82,7.17-390.82-7.17s-30.75,4.78-43.9-95.61c-13.14-100.38,52.58-97.99,52.58-97.99l174.48-4.61s52.58-7.17,52.58-64.53v-73.54l-.57.46c-29.09-35.27-46.41-80.58-46-129.87.91-111.37,91.93-200.92,203.3-200.01,111.37.91,200.91,91.93,200,203.3-.39,48.11-17.6,92.15-46,126.58l-.57-.46v73.54c0,57.36,52.58,64.53,52.58,64.53l174.48,4.61ZM650.41,362.4c.68-83.07-66.11-150.96-149.18-151.64s-150.96,66.12-151.64,149.18c-.68,83.07,66.11,150.96,149.18,151.64,83.07.68,150.96-66.11,151.64-149.18Z" fill="#e2e2e2"/><path d="M501.23,210.76c83.07.68,149.86,68.57,149.18,151.64s-68.57,149.86-151.64,149.18c-83.07-.68-149.86-68.57-149.18-151.64.68-83.06,68.57-149.86,151.64-149.18ZM546.12,361.55c.21-25.47-20.27-46.29-45.74-46.5-25.47-.2-46.29,20.28-46.5,45.75-.21,25.47,20.27,46.28,45.74,46.49s46.29-20.27,46.5-45.74Z" fill="#e2e2e2"/><path d="M500,839.44s-.04,0-.05,0l-390.63-7.17c-1.37.12-6.31.15-12.63-4.59-11.18-8.38-26.23-31.43-34.37-93.63-4.98-38.07.56-66.24,16.47-83.71,16.21-17.81,37.22-17.72,39.09-17.67l174.21-4.6c1.42-.23,13.35-2.32,25.06-10.37,16.45-11.31,24.79-28.52,24.79-51.17v-71.31c-30.43-36.96-46.97-83.72-46.57-131.66.92-112.28,92.56-202.99,204.63-202.99.57,0,1.13,0,1.7,0,112.84.92,203.9,93.48,202.98,206.32-.38,46.74-16.92,92.31-46.57,128.32v71.31c0,22.64,8.34,39.86,24.79,51.17,11.7,8.04,23.62,10.14,25.06,10.37l174.21,4.6c1.87-.05,22.87-.15,39.09,17.67,15.91,17.48,21.45,45.64,16.47,83.71-8.15,62.2-23.19,85.25-34.37,93.63-6.33,4.74-11.27,4.71-12.63,4.59l-390.63,7.17s-.04,0-.05,0ZM109.13,826.27s.07,0,.1,0l390.77,7.17,390.77-7.17c.17,0,.34,0,.52.04.22.02,28.03,1.86,40.46-93.04,4.74-36.18-.27-62.69-14.88-78.81-14.71-16.23-34.43-15.78-34.62-15.79-.06,0-.12,0-.18,0l-174.48-4.61c-.11,0-.22-.01-.33-.03-.57-.08-14-1.99-27.58-11.25-12.59-8.58-27.6-25.31-27.6-56.25v-73.54c0-1.16.66-2.21,1.71-2.71.25-.12.51-.2.78-.25,28.08-34.74,43.72-78.41,44.08-123.19.89-109.54-87.49-199.38-197.02-200.28-.55,0-1.1,0-1.65,0-108.79,0-197.74,88.05-198.63,197.04-.38,45.95,15.26,90.77,44.08,126.43.27.05.53.13.78.25,1.04.5,1.71,1.55,1.71,2.71v73.54c0,30.94-15.01,47.67-27.6,56.25-13.57,9.25-27.01,11.17-27.58,11.25-.11.01-.22.02-.33.03l-174.48,4.61c-.06,0-.13,0-.19,0-.2,0-19.91-.44-34.61,15.79-14.61,16.12-19.62,42.64-14.88,78.81,12.43,94.9,40.24,93.04,40.53,93.03.13-.02.23-.03.34-.03Z" fill="#2b2b2b"/><path d="M499.99,564.64c-.55,0-1.1,0-1.65,0-49.99-.41-97.91-19.11-134.91-52.66-.72-.65-.77-1.76-.12-2.47.65-.71,1.76-.77,2.47-.12,36.37,32.98,83.46,51.36,132.59,51.76.54,0,1.08,0,1.63,0,49.18,0,96.38-17.98,133.08-50.72.72-.64,1.83-.58,2.47.14.64.72.58,1.83-.14,2.47-37.33,33.32-85.37,51.61-135.41,51.61Z" fill="#2b2b2b"/><path d="M500.02,513.33c-.42,0-.84,0-1.26,0-83.9-.69-151.6-69.5-150.92-153.4.68-83.48,68.82-150.92,152.14-150.92.42,0,.84,0,1.26,0,83.9.69,151.6,69.5,150.92,153.4h-1.75s1.75,0,1.75,0c-.68,83.48-68.82,150.92-152.14,150.92ZM499.98,212.5c-81.41,0-147.97,65.89-148.64,147.45-.67,81.97,65.47,149.21,147.44,149.88.41,0,.83,0,1.24,0,81.41,0,147.97-65.89,148.64-147.45.67-81.97-65.47-149.21-147.44-149.88-.41,0-.83,0-1.24,0Z" fill="#2b2b2b"/><path d="M500.01,409.04c-.14,0-.27,0-.41,0-26.4-.22-47.69-21.86-47.48-48.25s21.9-47.67,48.26-47.49c26.4.22,47.69,21.87,47.48,48.26h-1.75s1.75,0,1.75,0c-.11,12.79-5.18,24.77-14.3,33.73-9.02,8.87-20.92,13.74-33.56,13.74ZM500.01,316.8c-24.31,0-44.18,19.67-44.38,44.02-.2,24.46,19.54,44.52,44,44.73,11.83.08,23.03-4.43,31.48-12.74s13.16-19.42,13.25-31.27c.1-11.85-4.43-23.03-12.74-31.48-8.31-8.45-19.42-13.16-31.27-13.25-.12,0-.24,0-.35,0Z" fill="#2b2b2b"/><path d="M568.45,793.88c-239.41,0-471.97-14.04-475.46-14.25-.96-.06-1.7-.89-1.64-1.85.06-.96.88-1.71,1.85-1.64,3.49.21,236.03,14.25,475.26,14.25,120.53,0,242.71-3.56,338.24-14.24.95-.11,1.83.58,1.93,1.54.11.96-.58,1.83-1.54,1.93-95.63,10.69-218.02,14.26-338.64,14.26Z" fill="#2b2b2b"/><path d="M500,666.7c-81.88,0-148.81-28.54-149.47-28.82-.89-.38-1.29-1.41-.91-2.3.38-.89,1.41-1.3,2.3-.91.66.29,66.96,28.54,148.09,28.54s147.43-28.25,148.09-28.54c.89-.38,1.92.02,2.3.91.38.89-.02,1.92-.91,2.3-.67.29-67.6,28.82-149.47,28.82Z" fill="#2b2b2b"/></svg>