<?xml version="1.0" encoding="UTF-8"?><svg id="_レイヤー_14" xmlns="http://www.w3.org/2000/svg" width="800" height="1000" viewBox="0 0 800 1000"><path d="M675.32,767.04c1.35.96,1.67,2.83.71,4.18-.59.82-1.51,1.26-2.45,1.26-.6,0-1.21-.18-1.74-.56l-11.72-8.35c1.71-1.06,3.42-2.32,5.01-3.79l10.19,7.26Z" fill="#2b2b2b"/><path d="M656.17,733.72l14.29,19.58-1.2,1.75c-1.22,1.78-2.63,3.35-4.13,4.73l-2.2-1.57c-1.14-.81-2.66-.71-3.68.17l-.72-.97c1.61-1.15,3.16-2.51,4.51-4.1l-9.66-13.24-4,.45-.03-.24c.31-.03.62-.12.92-.25,1.27-.57,1.98-1.93,1.72-3.3-.02-.08-.18-.93-.49-2.48l4.67-.53Z" fill="#2b2b2b"/><path d="M662.93,758.21l2.2,1.57c-1.59,1.47-3.3,2.73-5.01,3.79l-.67-.47c-1.35-.96-1.66-2.83-.7-4.18.15-.2.32-.39.5-.54,1.02-.88,2.54-.98,3.68-.17Z" fill="#2b2b2b"/><path d="M653.38,740.07l9.66,13.24c-1.35,1.59-2.9,2.95-4.51,4.1-3.63,2.61-7.57,4.19-10.27,5.06l-1.32-21.67,2.44-.28,4-.45Z" fill="#225593"/><path d="M659.45,763.1l.67.47c-.81.52-1.62.99-2.43,1.42-.2-1.54-1.55-2.69-3.12-2.61-1.66.09-2.93,1.5-2.85,3.15l.1,2.07c-3.21,1.17-5.54,1.62-5.78,1.67l-3.34.64-2.09-34.44,3.45-.39c.91,1.62,1.78,2.97,2.6,4.04.58.76,1.47,1.18,2.38,1.18.1,0,.21-.01.31-.02l.03.24-2.44.28,1.32,21.67c2.7-.87,6.64-2.45,10.27-5.06l.72.97c-.18.15-.35.34-.5.54-.96,1.35-.65,3.22.7,4.18Z" fill="#2b2b2b"/><path d="M658.49,780.68c.08,1.65-1.19,3.06-2.84,3.14-.06.01-.11.01-.16.01-1.59,0-2.91-1.25-2.99-2.85l-.68-13.38c1.75-.64,3.78-1.5,5.87-2.61,0,.08.02.16.02.24l.78,15.45Z" fill="#2b2b2b"/><path d="M657.69,764.99c-2.09,1.11-4.12,1.97-5.87,2.61l-.1-2.07c-.08-1.65,1.19-3.06,2.85-3.15,1.57-.08,2.92,1.07,3.12,2.61Z" fill="#2b2b2b"/><path d="M651.99,736.73c.26,1.37-.45,2.73-1.72,3.3-.3.13-.61.22-.92.25-.1.01-.21.02-.31.02-.91,0-1.8-.42-2.38-1.18-.82-1.07-1.69-2.42-2.6-4.04l7.44-.83c.31,1.55.47,2.4.49,2.48Z" fill="#2b2b2b"/><path d="M651.5,734.25l-7.44.83c-9.56-16.93-24.02-62.88-41.91-119.73-5.41-17.18-11.03-35.05-16.83-53.08-10-42.08-22.89-81.68-38.57-118.41-8.63-20.21-17.24-37.48-25.23-51.93-8.13-16.27-15.68-28.51-22.62-36.68-.01-.02-.03-.03-.04-.05-5.2-7.5-9.45-12.96-12.32-16.48-.2-.24-.4-.48-.61-.72.9.28,1.8.65,2.71,1.08,39.17,16.39,78.33,87.31,116.45,210.96,26.38,85.59,43.38,168.93,46.41,184.21ZM607.87,613.55c12.81,40.7,24.42,77.59,33.28,100.42-15.16-70.51-63.84-277.06-127.39-348.21,31.93,50.23,65.68,157.46,94.11,247.79Z" fill="#2b2b2b"/><path d="M624.36,895.24c0,3.46-7.86,12.76-14.44,19.94-4.46,4.86-15.86,16.82-25.51,23.04-4.03,2.6-7.26,3.87-9.91,3.87-.85,0-1.64-.13-2.38-.4-13.21-1.46-331.12-36.71-397.24-37.58l-3.14-.04.18-3.13c.16-2.74,16.29-274.39,28.72-349.86,1.07-6.51,2.22-13.31,3.47-20.34,4.62-13.62,9.34-27.42,14.1-41.17-4.76,22.3-8.55,43.63-11.65,62.49-6.95,42.2-15.08,146.25-20.9,229.87-.09-.04-.14-.06-.15-.06-.91-.35-1.92.1-2.27,1s.1,1.92,1,2.27c.03.01.42.16,1.17.43-3.81,55.02-6.58,100.55-7.31,112.61,73.9,1.89,391.84,37.23,395.09,37.6l.47.05.44.2s.81.34,3.29-.76c7.13-3.16,18.3-13.58,27.19-23.14,7.15-7.68,12.83-14.82,13.76-17.16-.24-4.27-4-45.39-8.61-95.14l.44-.21c.87-.43,1.23-1.48.81-2.34-.31-.62-.93-.99-1.58-.99-4.35-46.91-9.39-100.81-12.94-138.58-8.82-69.28-23.77-126.57-40.1-172.53l2.79-.99c8.97,25.27,17.75,51.84,26.17,78.08,7.22,30.35,12.93,62,17.1,94.78,2.26,24,21.94,233.7,21.94,238.19Z" fill="#2b2b2b"/><path d="M610.98,797.28c.42.86.06,1.91-.81,2.34l-.44.21-.33-3.54c.65,0,1.27.37,1.58.99Z" fill="#2b2b2b"/><path d="M609.73,799.83c4.61,49.75,8.37,90.87,8.61,95.14-.93,2.34-6.61,9.48-13.76,17.16l-.07-.07c.19-.25.32-.55.36-.89,1.17-10.18-2.91-52.14-8.79-104.71.92-.42,1.85-.86,2.77-1.31l10.88-5.32Z" fill="#225593"/><path d="M609.73,799.83l-10.88,5.32c-.92.45-1.85.89-2.77,1.31-.14-1.22-.28-2.44-.41-3.67.55-.26,1.09-.52,1.64-.79l11.33-5.53c.25-.12.51-.18.76-.18l.33,3.54Z" fill="#2b2b2b"/><path d="M609.4,796.29c-.25,0-.51.06-.76.18l-11.33,5.53c-.55.27-1.09.53-1.64.79-3.19-28.44-6.88-59.79-10.52-90.77-5.1-43.32-9.91-84.24-12.99-114.02-8.54-82.5-72.37-216.14-73.01-217.48-.42-.87-1.46-1.24-2.34-.82-.87.42-1.23,1.47-.82,2.34.64,1.33,64.22,134.43,72.69,216.32,3.08,29.8,7.89,70.74,12.99,114.07,3.6,30.59,7.37,62.63,10.65,91.89-16.76,7.42-34.54,11.48-52.94,12.1-125.77,4.21-215.29-5.41-268.24-14.22-55.19-9.18-83.19-19.41-85.48-20.27,5.82-83.62,13.95-187.67,20.9-229.87,3.1-18.86,6.89-40.19,11.65-62.49,17.94-51.89,36.25-103.08,50.4-141.86.03-.09.06-.19.09-.29l3.02-11.99c.48-.84.97-1.67,1.47-2.5,1.6-2.67,3.84-4.94,6.49-6.59l1.03-.65c1.46-.92,2.13-1.34,3.06-1.45.38.26.84.43,1.33.48.79.08,1.55,0,2.29-.21,1.11.11,2.16-.43,2.76-1.32h0c1.27-.84,2.52-1.92,3.8-3.03,2-1.73,4.75-4.1,6.28-3.95.86.15,2.92,2.77,4.02,4.18,2.47,3.17,5.28,6.75,9.19,7.1,3.48.31,6.5-2.38,9.42-4.99,1.73-1.54,4.33-3.87,5.57-3.77.83.07,2.56,2.06,3.82,3.62.51,2.79.81,4.35.83,4.44.27,1.43,1.53,2.42,2.94,2.42.19,0,.38-.01.58-.05.57-.11,1.08-.38,1.47-.76,1.14.77,2.37,1.28,3.76,1.38,3.58.26,6.6-2.54,9.52-5.24,1.66-1.54,4.17-3.89,5.31-3.79,1.03.06,3.26,2.7,4.59,4.28,2.62,3.1,5.33,6.31,9.03,6.5,3.65.19,6.64-2.71,9.53-5.51,1.51-1.46,4.03-3.94,5.11-3.86,1.08.04,3.4,2.66,4.79,4.22,2.68,3.01,5.45,6.13,9.12,6.21,3.71.1,6.63-2.92,9.46-5.84.72-.74,1.68-1.73,2.6-2.53.49-.43.97-.81,1.38-1.06.25.09.51.15.79.17.4.03.79-.02,1.15-.14,1.21.76,2.84,2.47,4.02,3.7,2.74,2.86,5.57,5.83,9.14,5.83.04,0,.08,0,.11-.01,3.78-.06,6.61-3.24,9.34-6.32,1.35-1.52,3.61-4.06,4.59-4.11,1.25-.03,3.75,2.3,5.43,3.86,1.59,1.47,3.21,2.97,4.93,3.99.62.74,1.58,1.17,2.62,1.06.01,0,.01,0,.01,0,.63.15,1.27.2,1.93.14.39-.03.76-.14,1.1-.31,3.8-.02,7.61.64,11.17,1.96,5.19,1.94,9.78,5.23,13.29,9.53.05.07.11.13.17.2,9.76,12.02,44.34,58.17,74.3,142.47,16.33,45.96,31.28,103.25,40.1,172.53,3.55,37.77,8.59,91.67,12.94,138.58ZM481.79,364.84c.93-.26,1.47-1.22,1.22-2.15-.26-.94-1.22-1.48-2.15-1.23l-5.79,1.6c-.93.25-1.48,1.22-1.22,2.15.21.78.92,1.28,1.69,1.28.15,0,.31-.02.46-.06l5.79-1.59ZM464.25,369.67c.94-.26,1.45-1.21,1.19-2.14-.19-.7-.8-1.18-1.49-1.27l-11.78-2.3c-.95-.19-1.86.44-2.05,1.38-.19.95.43,1.87,1.38,2.06l11.88,2.32.48.05.39-.1ZM440.33,367.57c.94-.22,1.52-1.16,1.3-2.1s-1.16-1.53-2.1-1.3l-11.86,2.77c-.94.23-1.53,1.17-1.31,2.11.19.8.91,1.35,1.71,1.35.13,0,.26-.02.4-.05l11.86-2.78ZM417.91,366.31c.21-.94-.37-1.88-1.31-2.1l-6.35-1.47-6.3,1.26c-.94.19-1.56,1.11-1.37,2.06.19.94,1.11,1.56,2.06,1.37l5.55-1.11,5.62,1.3c.13.03.26.05.39.05.8,0,1.52-.55,1.71-1.36ZM392.7,369.82c.95-.2,1.55-1.12,1.35-2.07-.14-.7-.69-1.21-1.35-1.35l-11.68-3.09c-.93-.25-1.89.31-2.14,1.24-.24.93.31,1.89,1.25,2.14l11.74,3.11.43.1.4-.08ZM368.98,366.18c.95-.16,1.59-1.07,1.43-2.02s-1.06-1.6-2.02-1.43l-12.01,2.04c-.95.16-1.59,1.07-1.43,2.02.14.85.88,1.46,1.72,1.46.1,0,.2-.01.3-.03l12.01-2.04ZM346.67,363.55c.27-.93-.26-1.9-1.19-2.17l-6.2-1.83-6.41.92c-.96.13-1.62,1.02-1.49,1.98.14.95,1.02,1.62,1.98,1.48l5.66-.81,5.47,1.61c.17.05.33.08.5.08.75,0,1.45-.5,1.68-1.26ZM322.72,364.45c.3-.92-.21-1.91-1.13-2.2l-11.58-3.76c-.92-.3-1.91.21-2.21,1.13s.21,1.91,1.13,2.2l11.59,3.76c.18.05.36.08.54.08.73,0,1.42-.47,1.66-1.21ZM297.82,360.73c.96-.11,1.65-.98,1.54-1.94s-.97-1.64-1.94-1.53l-11.8,1.35c-.74-.05-1.45.42-1.72,1.17-.33.91.17,1.92,1.08,2.25l.39.13,12.45-1.43ZM275.7,356.83c.33-.91-.14-1.91-1.05-2.24l-5.65-2.03c-.91-.33-1.91.14-2.24,1.05-.32.91.15,1.91,1.06,2.24l5.64,2.03c.2.07.4.11.6.11.71,0,1.39-.45,1.64-1.16Z" fill="#7297c4"/><path d="M596.08,806.46c5.88,52.57,9.96,94.53,8.79,104.71-.04.34-.17.64-.36.89-.33.41-.83.66-1.38.66-.06,0-.13,0-.2-.01-.96-.11-1.65-.98-1.54-1.94,1.12-9.72-2.97-51.68-8.67-102.8,1.12-.49,2.24-.99,3.36-1.51Z" fill="#2b2b2b"/><path d="M604.51,912.06l.07.07c-8.89,9.56-20.06,19.98-27.19,23.14-2.48,1.1-3.28.76-3.29.76l-.44-.2-.47-.05c-3.25-.37-321.19-35.71-395.09-37.6.73-12.06,3.5-57.59,7.31-112.61,5.87,2.09,33.85,11.54,84.98,20.06,44.27,7.37,114,15.31,209.01,15.31,19.02,0,39.06-.32,60.1-1.02,18.48-.62,36.35-4.63,53.22-11.95,5.7,51.12,9.79,93.08,8.67,102.8-.11.96.58,1.83,1.54,1.94.07.01.14.01.2.01.55,0,1.05-.25,1.38-.66Z" fill="#225593"/><path d="M595.67,802.79c.13,1.23.27,2.45.41,3.67-1.12.52-2.24,1.02-3.36,1.51-.13-1.21-.27-2.42-.4-3.65,1.12-.5,2.24-1.01,3.35-1.53Z" fill="#2b2b2b"/><path d="M595.67,802.79c-1.11.52-2.23,1.03-3.35,1.53-3.28-29.26-7.05-61.3-10.65-91.89-5.1-43.33-9.91-84.27-12.99-114.07-8.47-81.89-72.05-214.99-72.69-216.32-.41-.87-.05-1.92.82-2.34.88-.42,1.92-.05,2.34.82.64,1.34,64.47,134.98,73.01,217.48,3.08,29.78,7.89,70.7,12.99,114.02,3.64,30.98,7.33,62.33,10.52,90.77Z" fill="#2b2b2b"/><path d="M592.32,804.32c.13,1.23.27,2.44.4,3.65-16.87,7.32-34.74,11.33-53.22,11.95-21.04.7-41.08,1.02-60.1,1.02-95.01,0-164.74-7.94-209.01-15.31-51.13-8.52-79.11-17.97-84.98-20.06.08-1.21.17-2.42.25-3.64,2.29.86,30.29,11.09,85.48,20.27,52.95,8.81,142.47,18.43,268.24,14.22,18.4-.62,36.18-4.68,52.94-12.1Z" fill="#2b2b2b"/><path d="M546.75,443.86c15.68,36.73,28.57,76.33,38.57,118.41-8.42-26.24-17.2-52.81-26.17-78.08-5.44-15.32-10.95-30.17-16.5-44.16-7.42-18.72-14.47-34.77-21.13-48.1,7.99,14.45,16.6,31.72,25.23,51.93Z" fill="#2b2b2b"/><path d="M559.15,484.19l-2.79.99c-29.96-84.3-64.54-130.45-74.3-142.47.33.33.73.59,1.2.75,1.11.37,2.22.79,3.33,1.26,3.85,1.9,7.94,5.4,12.27,10.48,0,.02.03.03.04.05,6.34,9.15,14.13,21.32,22.62,36.68,6.66,13.33,13.71,29.38,21.13,48.1,5.55,13.99,11.06,28.84,16.5,44.16Z" fill="#2b2b2b"/><path d="M498.86,355.2c-4.33-5.08-8.42-8.58-12.27-10.48-1.11-.47-2.22-.89-3.33-1.26-.47-.16-.87-.42-1.2-.75-.06-.07-.12-.13-.17-.2-.61-.75-.85-1.78-.55-2.77.47-1.55,2.09-2.45,3.66-2.02.31.08.62.17.93.28.21.24.41.48.61.72,2.87,3.52,7.12,8.98,12.32,16.48Z" fill="#2b2b2b"/><path d="M485.93,338c-.31-.11-.62-.2-.93-.28-1.57-.43-3.19.47-3.66,2.02-.3.99-.06,2.02.55,2.77-3.51-4.3-8.1-7.59-13.29-9.53-3.56-1.32-7.37-1.98-11.17-1.96,1.06-.54,1.74-1.67,1.63-2.93-.14-1.65-1.59-2.88-3.25-2.73-.19.01-.45-.08-.75-.24,5.29-.38,10.66.39,15.63,2.24,5.9,2.2,11.15,5.86,15.24,10.64Z" fill="#2b2b2b"/><path d="M483.01,362.69c.25.93-.29,1.89-1.22,2.15l-5.79,1.59c-.15.04-.31.06-.46.06-.77,0-1.48-.5-1.69-1.28-.26-.93.29-1.9,1.22-2.15l5.79-1.6c.93-.25,1.89.29,2.15,1.23Z" fill="#2b2b2b"/><path d="M465.44,367.53c.26.93-.25,1.88-1.19,2.14l-.39.1-.48-.05-11.88-2.32c-.95-.19-1.57-1.11-1.38-2.06.19-.94,1.1-1.57,2.05-1.38l11.78,2.3c.69.09,1.3.57,1.49,1.27Z" fill="#2b2b2b"/><path d="M459.06,328.09c.11,1.26-.57,2.39-1.63,2.93-1.01,0-2.03.07-3.03.17,0,0,0,0-.01,0-.9-.19-1.77-.57-2.62-1.06-.36-.44-.61-.99-.67-1.61-.18-1.64,1.02-3.12,2.67-3.29.43-.05.86-.08,1.29-.11.3.16.56.25.75.24,1.66-.15,3.11,1.08,3.25,2.73Z" fill="#2b2b2b"/><path d="M457.43,331.02c-.34.17-.71.28-1.1.31-.66.06-1.3.01-1.93-.14,1-.1,2.02-.16,3.03-.17Z" fill="#2b2b2b"/><path d="M455.06,325.12c-.43.03-.86.06-1.29.11-1.65.17-2.85,1.65-2.67,3.29.06.62.31,1.17.67,1.61-1.72-1.02-3.34-2.52-4.93-3.99-1.68-1.56-4.18-3.89-5.43-3.86-.98.05-3.24,2.59-4.59,4.11-2.73,3.08-5.56,6.26-9.34,6.32-.03.01-.07.01-.11.01-3.57,0-6.4-2.97-9.14-5.83-1.18-1.23-2.81-2.94-4.02-3.7,1.13-.37,1.98-1.37,2.07-2.63.01-.09.09-1.1.23-2.94,2.21,1.1,4.15,3.13,6.05,5.12,1.42,1.49,3.8,3.98,4.81,3.98h.01c1.15-.02,3.44-2.6,4.95-4.31,2.6-2.93,5.29-5.96,8.81-6.12,3.7-.18,6.8,2.69,9.78,5.45,1.11,1.03,2.97,2.74,4.14,3.38Z" fill="#2b2b2b"/><path d="M454.39,331.19c-1.04.11-2-.32-2.62-1.06.85.49,1.72.87,2.62,1.06Z" fill="#2b2b2b"/><path d="M441.63,365.47c.22.94-.36,1.88-1.3,2.1l-11.86,2.78c-.14.03-.27.05-.4.05-.8,0-1.52-.55-1.71-1.35-.22-.94.37-1.88,1.31-2.11l11.86-2.77c.94-.23,1.88.36,2.1,1.3Z" fill="#2b2b2b"/><path d="M406.3,59.27c1.46.5,35.84,13.18,26.1,95.31-8.45,71.34-14.64,147.32-15.89,163.04-1.03-.51-2.12-.82-3.29-.82h-.03c-.94,0-1.82.2-2.67.55,1.22-15.32,7.42-91.73,15.93-163.48,4.78-40.34-1.59-62.44-7.77-73.88-5.74-10.61-12.36-14.15-13.97-14.89h-.71c.7-.57,1.43-1.04,2.17-1.45.85-.46,1.16-1.52.7-2.37-.32-.58-.92-.91-1.54-.91l.02-1.26h.51s.44.16.44.16Z" fill="#2b2b2b"/><path d="M418.68,79.99c6.18,11.44,12.55,33.54,7.77,73.88-8.51,71.75-14.71,148.16-15.93,163.48-2.4.98-4.49,3.12-6.53,5.22-1.21,1.25-3.09,3.18-4.32,3.81-.86-5.79-9.31-63.38-12.76-122.89-4.56-78.51,1.35-126.18,17.09-138.4h.71c1.61.75,8.23,4.29,13.97,14.9Z" fill="#0f2133"/><path d="M416.6,364.21c.94.22,1.52,1.16,1.31,2.1-.19.81-.91,1.36-1.71,1.36-.13,0-.26-.02-.39-.05l-5.62-1.3-5.55,1.11c-.95.19-1.87-.43-2.06-1.37-.19-.95.43-1.87,1.37-2.06l6.3-1.26,6.35,1.47Z" fill="#2b2b2b"/><path d="M416.51,317.62c-.14,1.84-.22,2.85-.23,2.94-.09,1.26-.94,2.26-2.07,2.63-.39-.24-.74-.39-1.02-.39-.24,0-.56.13-.92.36-1.24-.45-2.07-1.68-1.97-3.06.01-.08.08-1.03.22-2.75.85-.35,1.73-.55,2.67-.55h.03c1.17,0,2.26.31,3.29.82Z" fill="#2b2b2b"/><path d="M414.21,323.19c-.36.12-.75.17-1.15.14-.28-.02-.54-.08-.79-.17.36-.23.68-.36.92-.36.28,0,.63.15,1.02.39Z" fill="#2b2b2b"/><path d="M412.27,323.16c-.41.25-.89.63-1.38,1.06-.92.8-1.88,1.79-2.6,2.53-2.83,2.92-5.75,5.94-9.46,5.84-3.67-.08-6.44-3.2-9.12-6.21-1.39-1.56-3.71-4.18-4.79-4.22-1.08-.08-3.6,2.4-5.11,3.86-2.89,2.8-5.88,5.7-9.53,5.51-3.7-.19-6.41-3.4-9.03-6.5-1.33-1.58-3.56-4.22-4.59-4.28-1.14-.1-3.65,2.25-5.31,3.79-2.92,2.7-5.94,5.5-9.52,5.24-1.39-.1-2.62-.61-3.76-1.38.73-.68,1.1-1.71.89-2.76-.02-.11-.43-2.19-1.1-5.91,1.43,1.75,3.33,3.99,4.39,4.06,1.04.09,3.52-2.26,5.03-3.66,2.97-2.75,6.04-5.61,9.75-5.37,3.59.22,6.24,3.36,8.8,6.4,1.46,1.72,3.65,4.32,4.76,4.37,1.03.06,3.55-2.37,5.05-3.82,2.88-2.79,5.85-5.66,9.51-5.54,3.63.13,6.38,3.23,9.05,6.22.46.53,1.02,1.16,1.61,1.78.29,2.01.46,3.12.47,3.2.13.87.88,1.49,1.73,1.49.09,0,.18,0,.26-.02.96-.15,1.62-1.04,1.47-1.99,0-.03-.03-.19-.07-.47,1.23-.63,3.11-2.56,4.32-3.81,2.04-2.1,4.13-4.24,6.53-5.22-.14,1.72-.21,2.67-.22,2.75-.1,1.38.73,2.61,1.97,3.06Z" fill="#2b2b2b"/><path d="M406.87,61.28c.46.85.15,1.91-.7,2.37-.74.41-1.47.88-2.17,1.44l-4.99-.1c1.7-1.88,3.53-3.34,5.48-4.41.27-.14.55-.21.84-.21.62,0,1.22.33,1.54.91Z" fill="#2b2b2b"/><path d="M405.35,59.11l-.02,1.26c-.29,0-.57.07-.84.21-1.95,1.07-3.78,2.53-5.48,4.41l-53.91-1.06c-20.74,11.46-28.51,59.76-22.45,139.82,3.82,50.59,12.21,99.45,15.21,115.98-.14-.17-.27-.33-.4-.49-2.06-2.54-4.17-5.15-6.86-6.12-3.7-21.24-10.57-64.38-13.93-108.87-6.41-84.72,2.45-133.84,26.35-146l.67-.34,61.66,1.2Z" fill="#2b2b2b"/><path d="M399.01,64.99l4.99.1c-15.74,12.22-21.65,59.89-17.09,138.4,3.45,59.51,11.9,117.1,12.76,122.89-.27.13-.5.21-.69.21h-.02c-.7-.01-1.97-1.18-3.15-2.42-1.92-13.31-9.24-66.07-12.39-120.46-4.41-75.92.83-122.48,15.59-138.72Z" fill="#2b2b2b"/><path d="M399.74,326.85c.15.95-.51,1.84-1.47,1.99-.08.01-.17.02-.26.02-.85,0-1.6-.62-1.73-1.49,0-.08-.18-1.19-.47-3.2,1.18,1.24,2.45,2.41,3.15,2.42h.02c.19,0,.42-.08.69-.21.04.28.07.44.07.47Z" fill="#2b2b2b"/><path d="M345.1,63.93l53.91,1.06c-14.76,16.24-20,62.8-15.59,138.72,3.15,54.39,10.47,107.15,12.39,120.46-.59-.62-1.15-1.25-1.61-1.78-2.67-2.99-5.42-6.09-9.05-6.22-3.66-.12-6.63,2.75-9.51,5.54-1.5,1.45-4.02,3.88-5.05,3.82-1.11-.05-3.3-2.65-4.76-4.37-2.56-3.04-5.21-6.18-8.8-6.4-3.71-.24-6.78,2.62-9.75,5.37-1.51,1.4-3.99,3.75-5.03,3.66-1.06-.07-2.96-2.31-4.39-4.06-3-16.53-11.39-65.39-15.21-115.98-6.06-80.06,1.71-128.36,22.45-139.82Z" fill="#225593"/><path d="M394.05,367.75c.2.95-.4,1.87-1.35,2.07l-.4.08-.43-.1-11.74-3.11c-.94-.25-1.49-1.21-1.25-2.14.25-.93,1.21-1.49,2.14-1.24l11.68,3.09c.66.14,1.21.65,1.35,1.35Z" fill="#2b2b2b"/><path d="M370.41,364.16c.16.95-.48,1.86-1.43,2.02l-12.01,2.04c-.1.02-.2.03-.3.03-.84,0-1.58-.61-1.72-1.46-.16-.95.48-1.86,1.43-2.02l12.01-2.04c.96-.17,1.86.48,2.02,1.43Z" fill="#2b2b2b"/><path d="M345.48,361.38c.93.27,1.46,1.24,1.19,2.17-.23.76-.93,1.26-1.68,1.26-.17,0-.33-.03-.5-.08l-5.47-1.61-5.66.81c-.96.14-1.84-.53-1.98-1.48-.13-.96.53-1.85,1.49-1.98l6.41-.92,6.2,1.83Z" fill="#2b2b2b"/><path d="M338.96,325.64c.21,1.05-.16,2.08-.89,2.76-1.96-1.3-3.63-3.36-5.27-5.38-.17-.21-.35-.44-.55-.67-.42-2.29-.99-5.4-1.65-9.23,2.69.97,4.8,3.58,6.86,6.12.13.16.26.32.4.49.67,3.72,1.08,5.8,1.1,5.91Z" fill="#2b2b2b"/><path d="M332.8,323.02c1.64,2.02,3.31,4.08,5.27,5.38-.39.38-.9.65-1.47.76-.2.04-.39.05-.58.05-1.41,0-2.67-.99-2.94-2.42-.02-.09-.32-1.65-.83-4.44.2.23.38.46.55.67Z" fill="#2b2b2b"/><path d="M332.25,322.35c-1.26-1.56-2.99-3.55-3.82-3.62-1.24-.1-3.84,2.23-5.57,3.77-2.92,2.61-5.94,5.3-9.42,4.99-3.91-.35-6.72-3.93-9.19-7.1-1.1-1.41-3.16-4.03-4.02-4.18-1.53-.15-4.28,2.22-6.28,3.95-1.28,1.11-2.53,2.19-3.8,3.02.25-.36.41-.79.47-1.26.22-1.64-.94-3.15-2.58-3.37-.53-.07-1.01-.13-1.46-.18,1-.63,2.46-1.9,3.44-2.75,3.13-2.71,6.69-5.78,10.8-5.38,3.37.33,5.8,3.44,8.16,6.45,1.55,1.99,3.67,4.71,4.99,4.82.88.09,3.5-2.24,4.89-3.48,3.08-2.75,6.25-5.59,10.05-5.28.59.05,1.15.17,1.69.37.66,3.83,1.23,6.94,1.65,9.23Z" fill="#2b2b2b"/><path d="M321.59,362.25c.92.29,1.43,1.28,1.13,2.2-.24.74-.93,1.21-1.66,1.21-.18,0-.36-.03-.54-.08l-11.59-3.76c-.92-.29-1.43-1.28-1.13-2.2s1.29-1.43,2.21-1.13l11.58,3.76Z" fill="#2b2b2b"/><path d="M299.36,358.79c.11.96-.58,1.83-1.54,1.94l-12.45,1.43-.39-.13c-.91-.33-1.41-1.34-1.08-2.25.27-.75.98-1.22,1.72-1.17l11.8-1.35c.97-.11,1.83.57,1.94,1.53Z" fill="#2b2b2b"/><path d="M288.04,318.55c1.64.22,2.8,1.73,2.58,3.37-.06.47-.22.9-.47,1.26h0c-.9.6-1.82,1.07-2.76,1.33-.04,0-.09,0-.13-.01-1.76-.23-2.72-.35-3.49-.26-.91-.59-1.46-1.66-1.33-2.82.17-1.65,1.65-2.84,3.3-2.66.2-.02.49-.17.84-.39.45.05.93.11,1.46.18Z" fill="#2b2b2b"/><path d="M290.15,323.19c-.6.89-1.65,1.43-2.76,1.32.94-.26,1.86-.73,2.76-1.32Z" fill="#2b2b2b"/><path d="M287.26,324.5s.09.01.13.01c-.74.21-1.5.29-2.29.21-.49-.05-.95-.22-1.33-.48.77-.09,1.73.03,3.49.26Z" fill="#2b2b2b"/><path d="M286.58,318.37c-.35.22-.64.37-.84.39-1.65-.18-3.13,1.01-3.3,2.66-.13,1.16.42,2.23,1.33,2.82-.93.11-1.6.53-3.06,1.45l-1.03.65c-2.65,1.65-4.89,3.92-6.49,6.59-.5.83-.99,1.66-1.47,2.5l1.87-7.45c.27-1.08-.08-2.23-.92-2.97-.15-.14-.32-.26-.5-.36,1.32-1.29,2.78-2.43,4.34-3.4l1-.63c3.7-2.33,4.86-2.72,9.07-2.25Z" fill="#2b2b2b"/><path d="M274.65,354.59c.91.33,1.38,1.33,1.05,2.24-.25.71-.93,1.16-1.64,1.16-.2,0-.4-.04-.6-.11l-5.64-2.03c-.91-.33-1.38-1.33-1.06-2.24.33-.91,1.33-1.38,2.24-1.05l5.65,2.03Z" fill="#2b2b2b"/><path d="M272.67,325.01c.84.74,1.19,1.89.92,2.97l-1.87,7.45c-6.89,11.75-13.11,24.48-18.74,37.82,5.44-15.1,9.05-25,9.94-27.45l3.18-12.66c.65-1.11,1.3-2.21,1.95-3.3,1.14-1.9,2.53-3.65,4.12-5.19.18.1.35.22.5.36Z" fill="#2b2b2b"/><path d="M271.72,335.43l-3.02,11.99c-.03.1-.06.2-.09.29-14.15,38.78-32.46,89.97-50.4,141.86,4.58-21.44,10.06-43.77,16.7-65.7.01-.05.03-.09.04-.13,7.02-19.81,13.23-37.15,18.02-50.45,0-.02,0-.03,0-.04,5.63-13.34,11.85-26.07,18.74-37.82Z" fill="#2b2b2b"/><path d="M269.61,324.45c.85-.33,1.79-.25,2.56.2-1.59,1.54-2.98,3.29-4.12,5.19-.65,1.09-1.3,2.19-1.95,3.3l.09-.35c-29.14,17.64-57.86,86.48-83.37,200.23-8.75,39.02-15.82,77.59-21.06,109.16,13.29-44.32,32.49-101.58,50.61-153.97-3.15,14.75-5.88,29.07-8.26,42.53-22.79,67.21-42.92,130.3-50.34,163.14-1.18,8.24-2.01,14.42-2.48,18.04l-6.48-.08c.22-4.14,1.21-10.07,2.83-17.47,4.53-31.88,14.51-96.62,29.31-162.62,28-124.81,59.17-194.56,92.66-207.3Z" fill="#2b2b2b"/><path d="M266.1,333.14l-3.18,12.66c-.89,2.45-4.5,12.35-9.94,27.45,0,.01,0,.02,0,.04-6.82,16.13-12.78,33.16-18.02,50.45-.01.04-.03.08-.04.13-6.92,19.53-14.63,41.47-22.54,64.34,11.22-52.51,27.85-110.51,53.73-155.07Z" fill="#2b2b2b"/><path d="M234.91,423.87c-6.64,21.93-12.12,44.26-16.7,65.7-4.76,13.75-9.48,27.55-14.1,41.17,2.38-13.46,5.11-27.78,8.26-42.53,7.91-22.87,15.62-44.81,22.54-64.34Z" fill="#2b2b2b"/><path d="M185.51,781.87s.06.02.15.06c-.08,1.22-.17,2.43-.25,3.64-.75-.27-1.14-.42-1.17-.43-.9-.35-1.35-1.37-1-2.27s1.36-1.35,2.27-1Z" fill="#2b2b2b"/><path d="M157.06,743.04c.03.86-.31,1.7-.93,2.29-.56.54-1.3.83-2.07.83-.09,0-.17,0-.26-.01-.24-.02-2.49-.23-5.68-1.03l-.37-2.43c-.26-1.64-1.78-2.76-3.43-2.51-1.45.22-2.49,1.45-2.54,2.86-.84-.34-1.69-.72-2.55-1.15l.61-.54c1.25-1.1,1.37-2.99.28-4.24-.22-.25-.48-.46-.76-.62l.61-1.01c3.93,2.32,8.12,3.52,10.95,4.13l-.86-21.7h-.92c.89-.44,1.55-1.3,1.67-2.34.02-.1.18-1.36.48-3.65l1.69.02c1.6.02,2.9,1.29,2.96,2.88l1.12,28.22Z" fill="#2b2b2b"/><path d="M144.81,711.84l6.48.08c-.3,2.29-.46,3.55-.48,3.65-.12,1.04-.78,1.9-1.67,2.33l-2.68-.04c-.86-.44-1.48-1.3-1.6-2.31-.12-1-.13-2.24-.05-3.71Z" fill="#2b2b2b"/><path d="M150.06,717.91l.86,21.7c-2.83-.61-7.02-1.81-10.95-4.13-1.64-.96-3.24-2.12-4.68-3.51l8.29-14.15,2.88.04c.41.22.88.34,1.37.34h.01c.47,0,.91-.11,1.3-.3h.92Z" fill="#225593"/><path d="M146.46,717.86l2.68.04c-.39.19-.83.3-1.3.3h-.01c-.49,0-.96-.12-1.37-.34Z" fill="#2b2b2b"/><path d="M149,750.85c.25,1.64-.87,3.17-2.51,3.42-.16.03-.31.04-.46.04-1.46,0-2.74-1.06-2.96-2.55l-1.26-8.16c-.03-.19-.04-.37-.03-.56,2.29.95,4.47,1.61,6.34,2.08l.88,5.73Z" fill="#2b2b2b"/><path d="M147.75,742.69l.37,2.43c-1.87-.47-4.05-1.13-6.34-2.08.05-1.41,1.09-2.64,2.54-2.86,1.65-.25,3.17.87,3.43,2.51Z" fill="#2b2b2b"/><path d="M146.46,717.86l-2.88-.04-8.29,14.15c1.44,1.39,3.04,2.55,4.68,3.51l-.61,1.01c-1.08-.62-2.48-.53-3.47.34l-2.03,1.78c-1.63-1.22-3.19-2.64-4.58-4.29-.82-.97-.94-2.36-.3-3.46l10.31-17.57c.54-.93,1.51-1.51,2.62-1.49l2.9.04c-.08,1.47-.07,2.71.05,3.71.12,1.01.74,1.87,1.6,2.31Z" fill="#2b2b2b"/><path d="M140.12,737.11c1.09,1.25.97,3.14-.28,4.24l-.61.54c-1.81-.89-3.63-1.98-5.37-3.28l2.03-1.78c.99-.87,2.39-.96,3.47-.34.28.16.54.37.76.62Z" fill="#2b2b2b"/><path d="M139.23,741.89l-10.84,9.47c-.57.5-1.27.74-1.97.74-.84,0-1.67-.34-2.26-1.02-1.09-1.25-.96-3.14.28-4.23l9.42-8.24c1.74,1.3,3.56,2.39,5.37,3.28Z" fill="#2b2b2b"/></svg>