<?xml version="1.0" encoding="UTF-8"?><svg id="_レイヤー_1" xmlns="http://www.w3.org/2000/svg" width="300" height="1000" viewBox="0 0 300 1000"><path d="M128.41,931.97s20.12-25.05,43.12.5c0,0-8.51,44.66-20.91,45.11s-22.21-45.61-22.21-45.61Z" fill="#0c0c0c"/><path d="M95.54,832.53l27.09-10.1c4.21-1.13,16.06-4.54,27.91-4.37s23.68,3.93,27.86,5.17l28.28,11.75-33.46,95.2-12.75-4.58c-6.77-5.38-13.15-5.38-23.5,1l-8.56,5.38-32.87-99.44Z" fill="#f9d486"/><polygon points="203.2 166.26 149.52 155.66 93.85 169.25 93.36 100.25 148.43 93.17 202.8 102.13 203.2 166.26" fill="#e0e0e0"/><path d="M205.95,832.53s-29.36-14.08-55.83-14.08c-28.38,0-52.58,14.08-52.58,14.08l-2-665.03s28.59-11.71,53.39-12,54.02,9,54.02,9l3,668.03Z" fill="#209143"/><path d="M200.56,101.83c-50.2-16.33-107.19-.85-107.19-.85v-.73s-.05-28.31-.05-28.31c0-3.46.51-20.66,3.57-26.6,9.92-19.28,54.77-20.93,77.32-16.06,15.76,3.4,26.92,17.52,27.32,33.64l.17,37.12" fill="#e1865b"/><path d="M149.7,980.33c-5.87,0-10.91-3.51-12.95-9.08-.01-.04-.03-.08-.04-.11l-44.16-137.69c-.09-.29-.14-.6-.14-.91l-1.22-759.65c0-.21.12-20.63,3.9-27.98,10.8-20.99,57.5-22.61,80.62-17.62,17.03,3.68,29.24,18.69,29.68,36.5l3.42,768.73c0,.33-.05.65-.15.96l-45.56,136.64c-1.6,5.91-6.58,9.91-12.71,10.2-.23.01-.46.02-.69.02ZM142.4,969.23c1.47,3.94,4.95,5.22,7.7,5.08,2.78-.13,6.13-1.73,7.21-5.83.02-.06.03-.12.06-.18l45.43-136.26-3.42-768.18c-.37-14.97-10.63-27.63-24.95-30.72h0c-23.85-5.15-65.53-2-74.01,14.5-2.41,4.69-3.23,19.29-3.23,25.23l1.21,759.18,44,137.18Z" fill="#2b2b2b"/><path d="M94.24,103.67c-.74,0-1.43-.47-1.67-1.21-.3-.92.21-1.91,1.13-2.2.54-.18,55.11-17.46,105.27-1.15.92.3,1.42,1.29,1.12,2.21-.3.92-1.29,1.42-2.21,1.12-49.06-15.96-102.58.98-103.11,1.15-.18.06-.36.09-.54.09Z" fill="#2b2b2b"/><path d="M98.49,169.64c-.54,0-1.07-.25-1.41-.71-.57-.78-.41-1.87.37-2.45,1.33-.98,33.4-23.83,103.33-3.88.93.27,1.47,1.23,1.2,2.16-.27.93-1.23,1.47-2.16,1.2-68.3-19.48-99.98,3.1-100.3,3.33-.31.23-.68.34-1.04.34Z" fill="#2b2b2b"/><path d="M117.72,823.76c-.97,0-1.75-.78-1.75-1.75V161.48c0-.97.78-1.75,1.75-1.75s1.75.78,1.75,1.75v660.53c0,.97-.78,1.75-1.75,1.75Z" fill="#2b2b2b"/><path d="M128.23,936.29c-.26,0-.53-.06-.78-.18-.86-.43-1.21-1.48-.78-2.34.21-.42,5.25-10.31,16.25-13.06,8.28-2.07,17.53.48,27.51,7.59.79.56.97,1.65.41,2.44-.56.79-1.65.97-2.44.41-9.09-6.47-17.37-8.85-24.6-7.05-9.43,2.34-13.96,11.15-14,11.24-.31.61-.93.96-1.57.96Z" fill="#2b2b2b"/><path d="M203.81,834.88c-.29,0-.58-.07-.85-.22-52.89-29.66-106.17-.9-106.7-.6-.84.47-1.91.16-2.38-.68-.47-.85-.16-1.91.68-2.38.56-.31,13.98-7.66,34.33-11.33,18.8-3.39,47.21-4.08,75.77,11.94.84.47,1.14,1.54.67,2.38-.32.57-.92.89-1.53.89Z" fill="#2b2b2b"/><path d="M181.05,822.72c-.97,0-1.75-.78-1.75-1.75V160.44c0-.97.78-1.75,1.75-1.75s1.75.78,1.75,1.75v660.53c0,.97-.78,1.75-1.75,1.75Z" fill="#2b2b2b"/><path d="M149.39,817.94c-.97,0-1.75-.78-1.75-1.75V155.66c0-.97.78-1.75,1.75-1.75s1.75.78,1.75,1.75v660.53c0,.97-.78,1.75-1.75,1.75Z" fill="#2b2b2b"/></svg>