<?xml version="1.0" encoding="UTF-8"?><svg id="_レイヤー_20" xmlns="http://www.w3.org/2000/svg" width="1000" height="370" viewBox="0 0 1000 370"><path d="M167.33,278.58l143.35-39.82.16.56s234.74-53.06,327.28-75.18c74.58-17.83,64.3-40.21,55.16-51.25-1.7-2.05-.36-5.18,2.31-5.42l275.2-33.21.35-.05c.13.89.19,1.82.2,2.79l-.72,16.32c-.16,3.67-2.86,6.73-6.48,7.35l-259.09,44.35-16.73,14.34-2.39,88.43s-9.56,49-66.93,57.36c-57.36,8.37-590.34,11.95-590.34,11.95l35-9.72,103.67-28.8Z" fill="#54a6dd"/><path d="M971.14,74.21l-.35.05-275.2,33.21c-2.67.24-4.01,3.37-2.31,5.42,9.14,11.04,19.42,33.42-55.16,51.25-92.54,22.12-327.28,75.18-327.28,75.18l-.16-.56,260.13-72.25,60.14-16.71s74.1-14.34,21.52-50.19c-52.59-35.85-58.56-45.41-136.24-43.02,72.7-11.56,112.09,6.75,127.89,17.29,6.94,4.63,15.14,6.97,23.48,6.89,27.99-.27,100.86-3.64,266.89-24.18,0,0,33.82-3.96,36.65,17.62ZM926.4,71.99c21.09-1.99,26.35-4.43,25.3-8.77-.87-3.59-19.65-4.7-45.35-.22-6.45,1.12-5.65,10.11.9,10.08,4.97-.02,11.24-.35,19.15-1.09Z" fill="#54a6dd"/><path d="M652.47,99.61c52.58,35.85-21.52,50.19-21.52,50.19l-60.14,16.71-.3-1.08-383.95-14.19-77.11-5.35c76.44-18.57,302.79-72.78,406.78-89.3,77.68-2.39,83.65,7.17,136.24,43.02Z" fill="#54a6dd"/><polygon points="570.51 165.43 570.81 166.51 310.68 238.76 167.33 278.58 186.56 151.24 570.51 165.43" fill="#4d97ce"/><path d="M186.56,151.24l-19.23,127.34-103.67,28.8-.34-1.23,45.67-160.15c.15-.04.31-.08.46-.11l77.11,5.35Z" fill="#54a6dd"/><path d="M108.99,146l-45.67,160.15.34,1.23-35,9.72,54.98-164.91s9.31-2.29,25.35-6.19Z" fill="#454545"/><path d="M28.66,320.1c-.96,0-1.86-.46-2.43-1.24-.57-.78-.72-1.79-.42-2.71l54.98-164.91c.33-.98,1.13-1.72,2.13-1.96,0,0,9.31-2.29,25.36-6.19.13-.04.32-.08.51-.12,68.95-16.75,301.79-72.63,406.96-89.33,72.66-11.55,112.65,6.17,130.03,17.76,6.38,4.25,13.9,6.47,21.79,6.39,28.87-.28,101.89-3.79,266.55-24.16,1.52-.18,36.81-4.03,39.99,20.21.14.94.21,1.98.23,3.15,0,.05,0,.11,0,.16l-.72,16.32c-.22,5.04-3.99,9.32-8.97,10.17l-258.27,44.21-15.09,12.93-2.35,87.1c0,.17-.02.33-.05.49-.1.53-2.63,13.05-12.46,26.72-9.06,12.6-26.31,28.56-56.98,33.03-56.91,8.3-568.98,11.83-590.75,11.98h-.02ZM85.96,154.71l-53.13,159.36c50.23-.36,531.92-4.04,585.73-11.89,22.85-3.33,40.63-13.55,52.82-30.38,8.46-11.68,11.17-22.68,11.55-24.36l2.38-88.15c.02-.85.4-1.65,1.05-2.2l16.73-14.34c.41-.35.91-.59,1.45-.68l259.09-44.35c2.21-.38,3.89-2.28,3.99-4.52l.72-16.24c-.01-.86-.07-1.62-.17-2.31-2.42-18.43-33.03-15.11-33.33-15.07-164.93,20.4-238.21,23.92-267.21,24.2-9.1.09-17.79-2.47-25.17-7.39-16.65-11.1-55.12-28.06-125.75-16.82-104.98,16.68-337.71,72.53-406.54,89.25-.04.01-.08.02-.12.03-.09.02-.18.04-.27.07-12.2,2.97-20.49,5-23.8,5.81Z" fill="#2b2b2b"/><path d="M28.66,320.1c-1.31,0-2.52-.87-2.89-2.2-.44-1.6.49-3.25,2.09-3.69l602.29-167.3c.08-.02.15-.04.23-.05,9.66-1.87,35.26-9.38,37.75-21.45,1.72-8.33-8.48-17.28-17.34-23.32-4.65-3.17-8.93-6.13-12.93-8.9-40.74-28.18-51.7-35.75-121.53-33.6-1.67.05-3.04-1.25-3.09-2.91-.05-1.66,1.25-3.04,2.91-3.09,71.81-2.21,83.11,5.6,125.13,34.67,3.99,2.76,8.26,5.71,12.9,8.87,15.08,10.28,21.76,20.21,19.84,29.49-3.71,17.95-37.88,25.22-42.36,26.1l-60.03,16.68-260.13,72.25L29.46,319.99c-.27.07-.54.11-.8.11Z" fill="#2b2b2b"/><path d="M310.84,242.32c-1.37,0-2.61-.95-2.92-2.34-.37-1.62.65-3.22,2.26-3.59,2.35-.53,235.78-53.31,327.24-75.17,43.63-10.43,55.92-22,58.55-29.87,1.68-5.04.04-10.45-5-16.55-1.49-1.8-1.86-4.26-.96-6.43.91-2.19,2.95-3.68,5.31-3.89l275.11-33.2c1.65-.2,3.14.97,3.34,2.62.2,1.65-.97,3.14-2.62,3.34l-275.2,33.21c-.15.01-.31.03-.4.23-.07.17,0,.25.04.29,6.39,7.72,8.43,15.21,6.08,22.27-4.59,13.74-25.14,24.79-62.85,33.81-91.5,21.87-324.97,74.66-327.32,75.19-.22.05-.45.07-.66.07Z" fill="#2b2b2b"/><path d="M186.56,154.24c-.07,0-.14,0-.21,0l-77.11-5.35c-1.65-.11-2.9-1.55-2.79-3.2.11-1.65,1.54-2.91,3.2-2.79l77.11,5.35c1.65.11,2.9,1.55,2.79,3.2-.11,1.58-1.43,2.79-2.99,2.79Z" fill="#2b2b2b"/><path d="M63.32,307.9c-.16,0-.32-.02-.48-.07-.93-.27-1.47-1.23-1.2-2.16l45.71-160.29c.23-.8.98-1.32,1.81-1.26l.42.03c.96.07,1.69.91,1.62,1.87-.04.56-.34,1.04-.77,1.33l-45.42,159.29c-.22.77-.92,1.27-1.68,1.27Z" fill="#2b2b2b"/><path d="M167.29,280.61c-.08,0-.17,0-.25-.02-.96-.14-1.62-1.02-1.48-1.98l.04-.28,19.23-127.35c.13-.88.92-1.51,1.79-1.49l383.95,14.19c.97.04,1.72.85,1.68,1.81s-.84,1.72-1.81,1.68l-382.39-14.13-19.03,126.06c-.12.87-.87,1.5-1.73,1.5Z" fill="#2b2b2b"/><path d="M907.21,74.83c-4.45,0-6.77-3.21-7.03-6.21-.27-3,1.46-6.58,5.87-7.35h0c21.85-3.81,45.87-4.57,47.35,1.53.38,1.59.14,3.01-.73,4.23-2.36,3.3-9.43,5.12-26.1,6.69-7.56.71-14.06,1.08-19.31,1.1h-.04ZM936.41,61.82c-7.39,0-17.52.77-29.76,2.91h0c-2.4.42-3.1,2.19-2.98,3.59.12,1.4,1.1,3.03,3.57,3.02,5.15-.02,11.54-.38,19-1.08,9.13-.86,21.51-2.34,23.58-5.24.19-.27.34-.6.21-1.27-.93-1.04-5.71-1.92-13.61-1.92ZM906.35,63h0,0Z" fill="#2b2b2b"/></svg>