<?xml version="1.0" encoding="UTF-8"?><svg id="_レイヤー_9" xmlns="http://www.w3.org/2000/svg" width="800" height="1000" viewBox="0 0 800 1000"><path d="M457.36,529.78c6.33,1.05,11.24,4.74,10.96,8.25s-5.66,5.5-12.01,4.43c-6.33-1.05-11.21-4.75-10.92-8.25.3-3.49,5.65-5.47,11.97-4.43Z" fill="#c7ccd1"/><path d="M594.41,453.9c6.23.97,11.06,4.52,10.78,7.94-.29,3.41-5.59,5.39-11.84,4.41-6.23-.98-11.03-4.54-10.73-7.94.3-3.41,5.57-5.38,11.79-4.41Z" fill="#c7ccd1"/><path d="M648.06,189.01c6.99.84,12.21,6.96,11.65,13.68-.55,6.73-6.7,11.49-13.71,10.62-7-.87-12.19-7.02-11.6-13.72.58-6.69,6.69-11.42,13.66-10.58Z" fill="#c7ccd1"/><path d="M644.5,98.2c6.85.73,11.97,6.57,11.42,13.06-.55,6.5-6.58,11.16-13.46,10.39-6.87-.76-11.96-6.63-11.38-13.1.58-6.46,6.58-11.09,13.42-10.35Z" fill="#c7ccd1"/><path d="M347.25,66.29c6.26.67,10.64,6.2,9.77,12.36-.87,6.18-6.69,10.63-12.98,9.93-6.27-.7-10.62-6.25-9.72-12.4.89-6.14,6.68-10.56,12.93-9.89Z" fill="#c7ccd1"/><path d="M324.7,149.99c6.34.76,10.74,6.52,9.83,12.87-.91,6.36-6.82,10.89-13.17,10.1-6.35-.79-10.72-6.58-9.78-12.92.93-6.32,6.81-10.82,13.12-10.05Z" fill="#c7ccd1"/><path d="M278.84,404.64c5.62.87,9.81,4.18,9.34,7.39-.47,3.22-5.42,5.11-11.05,4.23-5.62-.89-9.78-4.2-9.3-7.41.48-3.2,5.4-5.08,11.01-4.21Z" fill="#c7ccd1"/><path d="M141.35,468.97c5.65.93,9.85,4.34,9.37,7.62-.49,3.28-5.48,5.18-11.14,4.23-5.65-.95-9.83-4.36-9.33-7.63.49-3.27,5.46-5.15,11.1-4.22Z" fill="#c7ccd1"/><path d="M479.52,943.84c.05,2.63-1.29,5.16-3.47,6.49-6.52,4.01-22.43,8.93-40.58.81-2.3-1.03-3.69-3.49-3.57-6.23l1.73-38.07c.15-3.26,2.35-5.88,5.04-6.71.39-.12.78-.2,1.18-.24.84-.09,1.71,0,2.56.29,6.47,2.21,16.16,3.67,27.09-.93.5-.2.99-.35,1.48-.42,1.19-.2,2.36-.03,3.37.43,2.04.93,3.51,3.03,3.56,5.72l1.61,38.86Z" fill="#555"/><path d="M720.78,760.77c1.64-.77,3.35-.8,4.83-.28,2.1.74,3.72,2.61,3.96,5.12l4.44,36.14c.23,2.44-.92,4.88-2.99,6.26-6.21,4.13-21.73,9.69-40.41,3.21-2.37-.81-3.94-3.02-4.01-5.59l-1.05-35.6c-.1-3.49,2.53-6.35,5.71-6.86.83-.13,1.7-.1,2.57.12,6.6,1.67,16.35,2.43,26.92-2.51.01,0,.02-.01.03-.01Z" fill="#555"/><path d="M330.63,675.63c2.99.08,5.77,2.33,6.11,5.47l3.43,32.08c.24,2.31-.93,4.48-3.01,5.49-16.46,8.05-31.47,4.92-37.71,1.95-2.09-.98-3.45-3.04-3.53-5.26l-.37-32.96c-.09-2.28,1.18-4.15,3.02-5.06,1.09-.54,2.37-.75,3.7-.51.26.04.53.1.8.18,10.38,3.18,19.3,1.32,25.2-.97.77-.3,1.57-.43,2.36-.41Z" fill="#555"/><path d="M75.55,815.77c10.98,4.31,20.66,2.83,27.1.65.84-.29,1.72-.38,2.56-.3,3.21.29,6.08,3.03,6.29,6.61l2.09,36.54c.15,2.63-1.22,5.01-3.5,6.01-18.07,7.97-34.03,3.4-40.59-.39-2.19-1.26-3.56-3.68-3.54-6.2l1.24-37.33c.02-2.59,1.47-4.62,3.5-5.53.63-.28,1.31-.45,2.02-.5.91-.07,1.87.06,2.83.44Z" fill="#555"/><path d="M321.49,563.11l9.14,112.52c-.79-.02-1.59.11-2.36.41-5.9,2.29-14.82,4.15-25.2.97-.27-.08-.54-.14-.8-.18l.31-1.64-6.83-116.13.21-1.04,25.53,5.09Z" fill="#c7ccd1"/><path d="M438.46,899.25s8.6-210.47,7.59-256.97c-.99-45.8,18.16-59.74,18.16-59.74l-.43-2.11c15.27-3.06,31.4-8.88,45.01-19.1,3.24-2.44,124.96-83.18,124.96-83.18l.32-17.98c.52-2.68.07-5.54-1.56-7.98,12.21-9.68,11.09-30.96,11.09-30.96l8.93-172.44-.07-.74c11.15-1.1,20.99-8,21.87-18.91l-8.62,200.46s-.53,11.07-.46,24.7h-.43c0,38.24-29.02,48.09-29.02,48.09l-141.4,94.52s-19.44,12.14-16.73,51.54c-.3,45.1-6.71,250.28-6.71,250.28l.02.1c-.49.07-.98.22-1.48.42-10.93,4.6-20.62,3.14-27.09.93-.85-.29-1.72-.38-2.56-.29-.4.04-.79.12-1.18.24l-.21-.88Z" fill="#c7ccd1"/><path d="M693.83,763.29c-.87-.22-1.74-.25-2.57-.12l-.45-2.55-21.51-262.9c-3.15-9.78-3.98-28.2-4.05-43.42-.07-13.63.46-24.7.46-24.7l8.62-200.46,6.51-95.21c1.8-22.68-10.77-43.55-30.3-54.46,2.17.28,60.5,8.53,56.1,80.95l-12.25,292.78,26.29,307.42.07.16c-10.57,4.94-20.32,4.18-26.92,2.51Z" fill="#c7ccd1"/><path d="M336.76,203.89l-.08.55-5.82,159.98s-2.24,36-12.7,36.3l-.19,1.27-26.33-3.86.23-1.59c13.74-8.07,14.79-36.15,14.79-36.15l8.51-157.74.58-1.95c1.04.29,2.11.51,3.21.65l17.8,2.54Z" fill="#c7ccd1"/><path d="M292.47,118.1c2.09-68.12,34.7-64.67,34.7-64.67l.62.9c-12.43,8.46-21.44,21.73-23.81,37.39l-4.04,84.29c-1.71,11.3,5.18,21.74,15.81,24.69l-.58,1.95-8.51,157.74s-1.05,28.08-14.79,36.15l-.23,1.59-3.45-.5c-1.6-.16-3.22-.25-4.84-.26v-.68s9.12-278.59,9.12-278.59Z" fill="#c7ccd1"/><path d="M116.8,522.31l11.97,2.39-.12.6s-17.33-1.69-16.73,49.49c-.3,43.32-6.71,241.33-6.71,241.33-.84-.08-1.72.01-2.56.3-6.44,2.18-16.12,3.66-27.1-.65-.96-.38-1.92-.51-2.83-.44.38-8.93,8.57-202.83,7.58-246.46-.99-43.98,18.16-57.37,18.16-57.37l2.04-.58c3.27,5.87,8.67,10.06,16.3,11.39Z" fill="#c7ccd1"/><path d="M97.78,489.57c.33,6.01,4.72,9.06,13.94,10.64l301.15,62.93c28.48,3.69,57.95-2.59,81.26-15.73l134.44-79.42c2.97-1.75,4.91-4.67,5.5-7.82l-.32,17.98s-121.72,80.74-124.96,83.18c-13.61,10.22-29.74,16.04-45.01,19.1-19.49,3.91-37.57,3.31-47.23,1.63l-95.06-18.95-25.53-5.09-167.19-33.32-11.97-2.39c-7.63-1.33-13.03-5.52-16.3-11.39-3.53-6.36-4.57-14.69-3.21-23.47l.55.06c-.08.67-.1,1.36-.06,2.06Z" fill="#c9a57a"/><path d="M634.07,460.17c-.59,3.15-2.53,6.07-5.5,7.82l-134.44,79.42c-23.31,13.14-52.78,19.42-81.26,15.73l-301.15-62.93c-9.22-1.58-13.61-4.63-13.94-10.64-.04-.7-.02-1.39.06-2.06.48-4.72,3.53-8.91,7.87-11.05l141.37-69.74c8.89-5.01,22.64-9.52,36.27-9.35,1.62.01,3.24.1,4.84.26l3.45.5,26.33,3.86,302.8,44.29c6.13.94,9.62,2.71,11.74,5.91,1.63,2.44,2.08,5.3,1.56,7.98ZM605.19,461.84c.28-3.42-4.55-6.97-10.78-7.94-6.22-.97-11.49,1-11.79,4.41-.3,3.4,4.5,6.96,10.73,7.94,6.25.98,11.55-1,11.84-4.41ZM468.32,538.03c.28-3.51-4.63-7.2-10.96-8.25-6.32-1.04-11.67.94-11.97,4.43-.29,3.5,4.59,7.2,10.92,8.25,6.35,1.07,11.73-.92,12.01-4.43ZM288.18,412.03c.47-3.21-3.72-6.52-9.34-7.39-5.61-.87-10.53,1.01-11.01,4.21-.48,3.21,3.68,6.52,9.3,7.41,5.63.88,10.58-1.01,11.05-4.23ZM150.72,476.59c.48-3.28-3.72-6.69-9.37-7.62-5.64-.93-10.61.95-11.1,4.22-.5,3.27,3.68,6.68,9.33,7.63,5.66.95,10.65-.95,11.14-4.23Z" fill="#e7c79e"/><path d="M650.54,79.47c19.53,10.91,32.1,31.78,30.3,54.46l-6.51,95.21c-.88,10.91-10.72,17.81-21.87,18.91-2.38.25-4.83.22-7.26-.09l-308.44-44.07-17.8-2.54c-1.1-.14-2.17-.36-3.21-.65-10.63-2.95-17.52-13.39-15.81-24.69l4.04-84.29c2.37-15.66,11.38-28.93,23.81-37.39,10.69-7.27,23.91-10.97,37.61-9.55l261.05,27.08c8.73.91,16.88,3.58,24.09,7.61ZM659.71,202.69c.56-6.72-4.66-12.84-11.65-13.68-6.97-.84-13.08,3.89-13.66,10.58-.59,6.7,4.6,12.85,11.6,13.72,7.01.87,13.16-3.89,13.71-10.62ZM655.92,111.26c.55-6.49-4.57-12.33-11.42-13.06-6.84-.74-12.84,3.89-13.42,10.35-.58,6.47,4.51,12.34,11.38,13.1,6.88.77,12.91-3.89,13.46-10.39ZM357.02,78.65c.87-6.16-3.51-11.69-9.77-12.36-6.25-.67-12.04,3.75-12.93,9.89-.9,6.15,3.45,11.7,9.72,12.4,6.29.7,12.11-3.75,12.98-9.93ZM334.53,162.86c.91-6.35-3.49-12.11-9.83-12.87-6.31-.77-12.19,3.73-13.12,10.05-.94,6.34,3.43,12.13,9.78,12.92,6.35.79,12.26-3.74,13.17-10.1Z" fill="#e7c79e"/><path d="M89.73,872.64c-9.64,0-17.47-2.69-21.73-5.15-3.14-1.8-5.07-5.18-5.04-8.82l1.24-37.41c.03-3.56,2.05-6.72,5.27-8.17.96-.43,1.98-.68,3.04-.75,1.39-.11,2.79.11,4.14.64,10.26,4.02,19.27,2.55,25.03.6,1.19-.41,2.51-.57,3.8-.45,4.85.44,8.72,4.49,9.01,9.42l2.09,36.54c.22,3.92-1.85,7.42-5.29,8.93-7.66,3.38-15.03,4.61-21.56,4.61ZM73.19,818.31c-.08,0-.16,0-.24,0-.38.03-.72.11-1.03.25-1.06.48-1.71,1.53-1.72,2.81l-1.24,37.41c-.01,1.38.79,2.78,2.04,3.5,6.18,3.57,21.12,7.64,37.88.25,1.12-.49,1.79-1.71,1.72-3.09l-2.09-36.54c-.13-2.18-1.91-3.64-3.56-3.79,0,0,0,0-.01,0-.44-.04-.89,0-1.3.15-6.72,2.28-17.23,4-29.18-.69-.42-.17-.84-.25-1.26-.25Z" fill="#2b2b2b"/><path d="M429.15,567.18c-5.6,0-11.17-.35-16.67-1.06-.08-.01-.15-.02-.23-.04l-301.1-62.92c-7.36-1.27-15.85-3.95-16.37-13.42-.05-.87-.02-1.74.08-2.58.57-5.62,4.22-10.77,9.52-13.38l141.3-69.7c8.58-4.82,22.95-9.85,37.71-9.7,1.66,0,3.38.1,5.1.27.04,0,.09,0,.13.02l29.79,4.36,302.8,44.29c7.04,1.08,11.17,3.24,13.81,7.22,1.99,2.98,2.7,6.61,2,10.21-.78,4.11-3.3,7.7-6.92,9.83l-134.44,79.42c-19.87,11.2-43.38,17.18-66.5,17.18ZM413.37,560.18c26.91,3.46,55.8-2.14,79.29-15.38l134.39-79.39c2.14-1.26,3.62-3.37,4.08-5.79,0,0,0-.01,0-.02.4-2.04,0-4.08-1.11-5.74-1.14-1.73-3.18-3.61-9.7-4.61l-302.78-44.29-29.71-4.35c-1.51-.15-3.02-.23-4.49-.24-13.62-.18-26.89,4.52-34.78,8.96-.05.03-.1.05-.15.08l-141.37,69.74c-3.46,1.71-5.84,5.03-6.21,8.66-.06.54-.08,1.06-.05,1.59.16,2.88,1.19,6.09,11.45,7.85.04,0,.07.01.11.02l301.04,62.91Z" fill="#2b2b2b"/><path d="M434.17,586.35c-7.37,0-13.64-.55-18.14-1.33l-299.82-59.76c-8.06-1.4-14.43-5.86-18.33-12.87-3.78-6.8-5.04-15.82-3.55-25.39.25-1.64,1.79-2.75,3.42-2.51,1.64.25,2.76,1.79,2.51,3.42-1.28,8.26-.26,15.92,2.87,21.55,3.04,5.45,7.81,8.78,14.19,9.89l299.82,59.76c9.33,1.62,27.06,2.18,46.05-1.63,17.27-3.46,32.01-9.7,43.8-18.56,3.12-2.35,109.93-73.21,123.79-82.41l.36-20.09c.03-1.66,1.38-3.01,3.06-2.94,1.66.03,2.97,1.4,2.94,3.06l-.39,21.66c-.02.99-.52,1.9-1.34,2.45-42.05,27.89-122.25,81.15-124.81,83.08-12.52,9.4-28.07,16.01-46.22,19.64-10.83,2.17-21.31,2.98-30.2,2.98Z" fill="#2b2b2b"/><path d="M649.24,251.22c-1.47,0-2.94-.09-4.42-.28l-326.29-46.62c-1.17-.15-2.4-.4-3.59-.73-12.1-3.36-19.81-15.32-17.99-27.87l4.03-84.14c0-.1.02-.2.03-.31,2.4-15.83,11.54-30.2,25.09-39.42,11.65-7.92,25.72-11.49,39.61-10.05l261.05,27.08c8.95.93,17.44,3.62,25.24,7.97,21.16,11.82,33.65,34.32,31.83,57.32l-6.51,95.18c-.94,11.63-10.8,20.33-24.55,21.69-1.17.12-2.35.18-3.53.18ZM306.97,92.02l-4.03,84.13c0,.1-.02.2-.03.31-1.45,9.61,4.41,18.79,13.65,21.35.92.26,1.86.45,2.79.56l17.85,2.55,308.44,44.07c2.16.27,4.37.3,6.52.08,0,0,.01,0,.02,0,8.97-.88,18.37-6.23,19.17-16.17l6.51-95.17c1.64-20.7-9.65-40.96-28.77-51.64-7.09-3.96-14.8-6.4-22.94-7.25l-261.05-27.08c-12.49-1.29-25.13,1.92-35.61,9.05-12.13,8.25-20.33,21.08-22.51,35.21Z" fill="#2b2b2b"/><path d="M291.87,399.54c-1.03,0-2.03-.53-2.59-1.48-.84-1.43-.36-3.27,1.07-4.11,12.15-7.14,13.3-33.41,13.31-33.68l8.51-157.79c.09-1.65,1.49-2.93,3.16-2.83,1.65.09,2.92,1.5,2.83,3.16l-8.51,157.74c-.04,1.17-1.28,29.77-16.27,38.58-.48.28-1,.41-1.52.41Z" fill="#2b2b2b"/><path d="M318.16,403.72c-1.62,0-2.95-1.29-3-2.91-.05-1.66,1.26-3.04,2.91-3.08,4.54-.13,8.81-17.75,9.79-33.49l5.82-159.9c.06-1.66,1.47-2.95,3.11-2.89,1.66.06,2.95,1.45,2.89,3.11l-5.82,159.98c-.57,9.16-3.37,38.84-15.61,39.19-.03,0-.06,0-.09,0Z" fill="#2b2b2b"/><path d="M632.51,455.19c-.88,0-1.76-.39-2.35-1.14-1.03-1.3-.81-3.19.49-4.21,10.83-8.59,9.97-28.26,9.96-28.46,0-.1,0-.21,0-.31l8.93-172.44c.09-1.66,1.51-2.95,3.15-2.84,1.65.09,2.93,1.5,2.84,3.15l-8.92,172.29c.09,2.25.59,23.14-12.23,33.3-.55.44-1.21.65-1.86.65Z" fill="#2b2b2b"/><path d="M302.58,678.19c-1.58,0-2.9-1.23-2.99-2.82l-6.83-116.13c-.1-1.65,1.16-3.07,2.82-3.17,1.65-.07,3.07,1.16,3.17,2.82l6.83,116.13c.1,1.65-1.16,3.07-2.82,3.17-.06,0-.12,0-.18,0Z" fill="#2b2b2b"/><path d="M72.71,818.63h0c-1.65,0-2.98-1.33-3-2.98,0,0,0-.16.01-.47.08-2,8.57-202.32,7.58-246.25-1.01-45.07,18.6-59.31,19.44-59.9,1.36-.95,3.23-.62,4.18.74.95,1.35.62,3.21-.73,4.17-.28.2-17.83,13.43-16.89,54.85,1,44.12-7.23,238.41-7.58,246.66v.21c-.02,1.65-1.36,2.97-3.01,2.97Z" fill="#2b2b2b"/><path d="M105.21,819.12s-.07,0-.1,0c-1.66-.05-2.96-1.44-2.9-3.09.06-1.98,6.41-198.47,6.71-241.25-.29-25.13,3.58-41.6,11.52-48.89,4.21-3.86,8.08-3.6,8.5-3.57l-.58,5.97h.11c-.07.01-1.95,0-4.3,2.33-3.6,3.57-9.6,14.06-9.24,44.14-.3,42.92-6.65,239.48-6.71,241.46-.05,1.62-1.38,2.9-3,2.9Z" fill="#2b2b2b"/><path d="M283.36,399.69s-.07,0-.1,0c-1.66-.05-2.95-1.44-2.9-3.1l9.11-278.59c.91-29.54,7.52-49.89,19.64-60.47,9.12-7.96,17.99-7.12,18.37-7.08,1.65.17,2.84,1.65,2.67,3.3-.17,1.64-1.64,2.83-3.28,2.67-.34-.03-6.92-.49-14,5.8-7.36,6.53-16.35,21.55-17.41,55.98l-9.11,278.6c-.05,1.62-1.39,2.9-3,2.9Z" fill="#2b2b2b"/><path d="M720.68,763.62c-1.54,0-2.85-1.18-2.99-2.74l-26.29-307.42c-.01-.13-.01-.25,0-.38l12.25-292.78c4.23-69.59-51.13-77.54-53.49-77.85-.04,0-.08-.01-.11-.02-1.45-.21-2.56-1.46-2.56-2.97,0-1.66,1.34-3,3-3,.15,0,.32.01.49.04,3.18.42,63.2,9.43,58.66,84.1l-12.24,292.53,26.27,307.23c.14,1.65-1.08,3.1-2.73,3.25-.09,0-.17.01-.26.01Z" fill="#2b2b2b"/><path d="M345.34,90.4c-.49,0-.99-.03-1.49-.08-3.54-.4-6.66-2.13-8.79-4.89-2.09-2.71-2.97-6.08-2.47-9.5,1.02-7.04,7.67-12.14,14.85-11.38,3.53.38,6.66,2.1,8.8,4.85,2.11,2.7,3,6.08,2.52,9.5-.93,6.61-6.79,11.51-13.41,11.51ZM346,67.97c-4.9,0-9.24,3.61-9.95,8.46-.36,2.47.27,4.91,1.77,6.86,1.54,2,3.82,3.26,6.41,3.55,5.35.6,10.31-3.19,11.05-8.43h0c.35-2.48-.29-4.91-1.81-6.86-1.55-1.99-3.83-3.24-6.41-3.52-.36-.04-.71-.06-1.07-.06Z" fill="#2b2b2b"/><path d="M322.8,174.8c-.55,0-1.1-.03-1.66-.1-3.53-.44-6.65-2.23-8.78-5.03-2.15-2.82-3.04-6.33-2.51-9.88,1.06-7.24,7.83-12.42,15.06-11.53,3.52.42,6.65,2.19,8.79,4.99,2.16,2.81,3.06,6.32,2.56,9.87-.96,6.74-6.83,11.69-13.46,11.69ZM323.29,151.66c-4.9,0-9.25,3.66-9.98,8.64-.39,2.61.26,5.18,1.83,7.25,1.56,2.05,3.84,3.36,6.43,3.68,5.42.67,10.45-3.19,11.22-8.61h0c.37-2.61-.29-5.18-1.87-7.24-1.57-2.04-3.85-3.34-6.44-3.65-.4-.05-.8-.07-1.2-.07Z" fill="#2b2b2b"/><path d="M643.97,123.49c-.56,0-1.13-.03-1.7-.1-7.79-.86-13.59-7.59-12.93-15h0c.31-3.47,1.99-6.61,4.72-8.85,2.94-2.41,6.72-3.5,10.63-3.08,7.78.83,13.6,7.53,12.98,14.95-.3,3.49-1.97,6.65-4.71,8.91-2.52,2.07-5.66,3.17-8.98,3.17ZM632.82,108.71c-.5,5.52,3.91,10.55,9.83,11.21,3,.33,5.86-.48,8.08-2.3,2.01-1.65,3.23-3.96,3.45-6.5.47-5.53-3.96-10.54-9.86-11.17-2.97-.32-5.83.5-8.04,2.31-2,1.64-3.23,3.93-3.45,6.46h0Z" fill="#2b2b2b"/><path d="M647.67,215.16c-.62,0-1.26-.04-1.89-.12-7.91-.98-13.8-7.98-13.13-15.61.31-3.61,2.04-6.86,4.86-9.15,2.98-2.42,6.8-3.49,10.75-3.02,7.91.95,13.82,7.93,13.19,15.56-.3,3.62-2.02,6.89-4.85,9.19-2.52,2.05-5.64,3.13-8.93,3.13ZM646.45,190.66c-2.49,0-4.84.81-6.72,2.34-2.08,1.69-3.35,4.08-3.58,6.74h0c-.51,5.77,4.01,11.08,10.07,11.83,3.02.38,5.93-.43,8.18-2.26,2.08-1.7,3.35-4.1,3.57-6.77.48-5.78-4.06-11.07-10.12-11.8-.47-.06-.94-.08-1.4-.08ZM634.4,199.59h0,0Z" fill="#2b2b2b"/><path d="M279.87,418.23c-.98,0-1.99-.08-3.01-.24-6.67-1.06-11.39-5.18-10.76-9.4.22-1.48,1.07-2.79,2.45-3.81,2.47-1.81,6.42-2.51,10.56-1.87,6.68,1.03,11.42,5.15,10.8,9.37h0c-.22,1.48-1.06,2.81-2.45,3.83-1.87,1.38-4.58,2.12-7.59,2.12ZM276.16,406.18c-2.25,0-4.29.5-5.54,1.42-.62.46-.98.96-1.06,1.51-.29,1.93,3,4.66,7.84,5.42,3.16.49,6.3,0,7.99-1.24.62-.46.98-.97,1.06-1.52h0c.28-1.93-3.03-4.66-7.88-5.41-.81-.13-1.63-.19-2.41-.19Z" fill="#2b2b2b"/><path d="M142.47,482.82c-1.03,0-2.1-.09-3.18-.27-6.69-1.12-11.42-5.35-10.77-9.62.23-1.51,1.09-2.85,2.5-3.88,2.49-1.82,6.46-2.49,10.61-1.81,6.69,1.1,11.44,5.32,10.82,9.6,0,0,0,0,0,0-.23,1.52-1.1,2.87-2.52,3.9-1.86,1.35-4.52,2.07-7.46,2.07ZM138.53,470.49c-2.21,0-4.21.49-5.45,1.39-.65.47-1.02,1-1.1,1.57-.3,1.99,3.01,4.82,7.89,5.64,3.15.53,6.29.07,8-1.18.65-.47,1.03-1.01,1.11-1.58.29-2-3.04-4.83-7.92-5.64-.86-.14-1.71-.21-2.54-.21ZM150.72,476.59h0,0Z" fill="#2b2b2b"/><path d="M596.52,468.25c-1.11,0-2.26-.09-3.44-.28-7.23-1.14-12.59-5.45-12.2-9.82h0c.13-1.52.92-2.89,2.28-3.96,2.55-2,6.86-2.75,11.52-2.03,7.35,1.14,12.62,5.36,12.25,9.81-.13,1.53-.92,2.9-2.27,3.96-1.92,1.5-4.83,2.31-8.14,2.31ZM591.3,455.41c-2.5,0-4.7.55-5.99,1.55-.58.46-.91.96-.95,1.51h0c-.19,2.14,3.73,5.19,9.26,6.06,3.63.57,7.12.05,8.88-1.33.58-.46.9-.96.95-1.5.18-2.15-3.77-5.2-9.31-6.06-.97-.15-1.92-.22-2.84-.22ZM582.62,458.31h0,0Z" fill="#2b2b2b"/><path d="M459.7,544.5c-1.18,0-2.42-.1-3.68-.32-7.31-1.21-12.74-5.66-12.37-10.12,0,0,0,0,0,0,.13-1.56.94-2.95,2.33-4.03,2.59-2.01,6.95-2.75,11.67-1.98,7.32,1.21,12.78,5.66,12.42,10.12-.12,1.57-.93,2.97-2.32,4.05-1.91,1.49-4.78,2.28-8.04,2.28ZM447.13,534.36c-.18,2.24,3.82,5.44,9.46,6.38,3.68.62,7.21.12,9-1.27.61-.47.94-1,.98-1.57.18-2.24-3.85-5.45-9.5-6.38-3.66-.6-7.17-.1-8.95,1.29-.61.47-.94,1-.99,1.57Z" fill="#2b2b2b"/><path d="M455.41,958.48c-6.42,0-13.64-1.24-21.16-4.6-3.42-1.53-5.52-5.1-5.34-9.1l1.73-38.07c.2-4.39,3.08-8.18,7.15-9.44h0c.58-.18,1.17-.3,1.76-.36,1.28-.14,2.58,0,3.83.44,5.78,1.97,14.79,3.42,24.96-.85.82-.33,1.53-.53,2.22-.62,1.68-.29,3.45-.06,5.04.67,3.21,1.46,5.25,4.68,5.32,8.4l1.61,38.79c.07,3.79-1.81,7.29-4.9,9.18-4.32,2.65-12.32,5.59-22.21,5.59ZM439.55,903c-1.34.41-2.83,1.84-2.93,3.98l-1.73,38.07c-.07,1.52.64,2.84,1.8,3.36,16.8,7.52,31.66,3.14,37.78-.63,1.27-.78,2.07-2.3,2.04-3.88l-1.61-38.79c-.03-1.47-.7-2.61-1.81-3.12-.5-.23-1.06-.29-1.63-.2-.28.04-.55.12-.86.25-11.86,4.99-22.42,3.29-29.17.98-.42-.14-.84-.19-1.27-.15-.22.02-.41.06-.61.12h0Z" fill="#2b2b2b"/><path d="M438.46,902.25s-.08,0-.12,0c-1.66-.07-2.94-1.46-2.88-3.12.09-2.1,8.58-210.91,7.59-256.78-1.01-46.83,18.56-61.62,19.39-62.23,1.34-.98,3.22-.68,4.19.66.97,1.33.68,3.2-.65,4.18-.31.24-17.87,14.07-16.94,57.26,1,46.06-7.5,255.05-7.59,257.16-.07,1.61-1.39,2.88-3,2.88Z" fill="#2b2b2b"/><path d="M470.96,901.73s-.06,0-.1,0c-1.66-.05-2.96-1.44-2.9-3.09.06-2.05,6.4-205.31,6.71-250.09-2.76-40.64,17.29-53.64,18.14-54.18l141.32-94.47c.22-.15.45-.26.7-.35,1.09-.38,26.98-9.74,26.98-45.25,0-1.66,1.34-3,3-3s3,1.34,3,3c0,37.35-26.91,49.3-30.63,50.77l-141.12,94.33c-.79.51-17.94,11.98-15.4,48.84,0,.08,0,.15,0,.23-.3,44.62-6.65,248.3-6.71,250.35-.05,1.62-1.38,2.91-3,2.91Z" fill="#2b2b2b"/><path d="M690.81,763.62c-1.55,0-2.86-1.19-2.99-2.76l-21.48-262.56c-2.62-8.4-3.99-23.2-4.09-43.99-.07-13.55.46-24.75.46-24.86l8.62-200.45c.07-1.66,1.43-2.93,3.13-2.87,1.66.07,2.94,1.47,2.87,3.13l-8.62,200.46c0,.12-.53,11.17-.46,24.56.09,20.17,1.44,34.87,3.91,42.52.07.22.12.45.13.67l21.51,262.9c.13,1.65-1.09,3.1-2.75,3.24-.08,0-.17,0-.25,0Z" fill="#2b2b2b"/><path d="M707.87,817.23c-5.43,0-11.57-.86-18.24-3.17-3.55-1.21-5.92-4.49-6.03-8.34l-1.05-35.59c-.14-4.88,3.4-9.14,8.23-9.91,0,0,0,0,.01,0,1.26-.2,2.53-.14,3.77.17,5.91,1.5,15.02,2.3,24.92-2.32.04-.02.09-.04.14-.06,2.24-1.02,4.72-1.14,6.99-.34,3.33,1.17,5.61,4.11,5.95,7.66l4.43,36.06c.35,3.66-1.31,7.12-4.3,9.12-1.35.9-10.66,6.72-24.81,6.72ZM691.73,766.13c-1.61.26-3.24,1.76-3.18,3.81l1.05,35.6c.04,1.33.81,2.44,1.98,2.84,17.36,6.02,31.92,1.03,37.78-2.87,1.14-.76,1.79-2.12,1.67-3.48l-4.43-36.06c-.13-1.3-.86-2.26-1.98-2.66-.57-.2-1.49-.34-2.56.17-.04.02-.09.04-.13.06-11.46,5.32-22,4.38-28.83,2.66-.45-.11-.91-.13-1.37-.07Z" fill="#2b2b2b"/><path d="M315.69,726.82c-9.75,0-16.4-2.95-17.53-3.49-3.06-1.43-5.12-4.52-5.24-7.86l-.37-33.04c-.13-3.27,1.67-6.29,4.69-7.78,1.72-.85,3.65-1.12,5.56-.77.33.05.73.14,1.12.26,9.69,2.97,18,1.15,23.26-.89,1.12-.44,2.3-.65,3.52-.61h0c4.65.12,8.52,3.63,9.01,8.15l3.43,32.08c.38,3.61-1.46,6.95-4.68,8.51-8.49,4.15-16.32,5.45-22.78,5.45ZM301.18,679.74c-.46,0-.89.1-1.28.29-.89.44-1.39,1.28-1.35,2.25l.37,33.04c.04,1.04.75,2.08,1.8,2.58,5.88,2.8,19.87,5.53,35.12-1.93.94-.46,1.46-1.41,1.34-2.48l-3.43-32.07c-.18-1.7-1.77-2.75-3.21-2.79-.42,0-.82.06-1.19.21-6.15,2.39-15.86,4.51-27.17,1.04-.11-.03-.25-.06-.38-.08-.22-.04-.43-.06-.64-.06Z" fill="#2b2b2b"/><path d="M330.63,678.63c-1.55,0-2.86-1.19-2.99-2.76l-9.18-112.96c-.14-1.65,1.08-3.1,2.73-3.25,1.65-.14,3.1,1.08,3.25,2.73l.04.46,9.14,112.54c.13,1.65-1.1,3.1-2.75,3.23-.08,0-.16,0-.25,0Z" fill="#2b2b2b"/></svg>