<?xml version="1.0" encoding="UTF-8"?><svg id="_レイヤー_3" xmlns="http://www.w3.org/2000/svg" width="300" height="500" viewBox="0 0 300 500"><path d="M128.09,422.15s20.12-25.05,43.12.5c0,0-8.51,44.66-20.91,45.11s-22.21-45.61-22.21-45.61Z" fill="#0c0c0c"/><path d="M95.22,322.71l27.09-10.1c4.21-1.13,16.06-4.54,27.91-4.37s23.68,3.93,27.86,5.17l28.28,11.75-33.46,95.2-12.75-4.58c-6.77-5.38-13.15-5.38-23.5,1l-8.56,5.38-32.87-99.44Z" fill="#f9d486"/><polygon points="205.63 328.71 194.89 331.59 175.87 311.16 149.5 337.5 120.32 310.61 108.66 331.59 97.22 328.71 93.63 67.93 119.53 80.84 179.68 81.43 202.63 66.72 205.63 328.71" fill="#209143"/><path d="M175.17,43.8h-53.92c-2.02,0-4,.65-5.63,1.85l-17.18,12.64c-5.15,3.79-5.15,5.5,0,9.29l17.18,12.64c1.63,1.2,3.6,1.85,5.63,1.85h53.92c2.02,0,4-.65,5.63-1.85l17.18-12.64c5.15-3.79,5.15-5.5,0-9.29l-17.18-12.64c-1.63-1.2-3.6-1.85-5.63-1.85Z" fill="#f9d486"/><path d="M162.46,59.93c0,3.83-6.38,6.93-14.25,6.93s-14.25-3.1-14.25-6.93,6.38-4.86,14.25-4.86,14.25,1.03,14.25,4.86Z" fill="#0c0c0c"/><path d="M149.7,470.51c-5.87,0-10.91-3.51-12.95-9.08-.01-.04-.03-.08-.04-.11l-44.16-137.69c-.09-.29-.14-.6-.14-.9l-1.21-255.99c0-1.66,1.33-3.01,2.99-3.01h.01c1.65,0,2.99,1.33,3,2.99l1.21,255.53,44,137.18c1.47,3.94,4.92,5.22,7.7,5.08,2.78-.13,6.13-1.73,7.21-5.83.02-.06.04-.12.06-.18l45.43-136.24-3.41-255.48c-.02-1.66,1.3-3.02,2.96-3.04.01,0,.03,0,.04,0,1.64,0,2.98,1.32,3,2.96l3.42,255.99c0,.34-.05.67-.15.99l-45.56,136.64c-1.6,5.91-6.58,9.91-12.71,10.2-.23.01-.46.02-.69.02Z" fill="#2b2b2b"/><path d="M128.23,426.47c-.26,0-.53-.06-.78-.19-.86-.43-1.21-1.48-.78-2.34.21-.42,5.25-10.31,16.25-13.06,8.27-2.07,17.53.48,27.51,7.59.79.56.97,1.65.41,2.44-.56.79-1.65.97-2.44.41-9.09-6.47-17.37-8.85-24.6-7.05-9.43,2.34-13.96,11.15-14,11.24-.31.61-.92.97-1.57.97Z" fill="#2b2b2b"/><path d="M108.84,333.34c-.41,0-.82-.15-1.13-.42l-10.43-8.88c-.74-.63-.82-1.73-.2-2.47.63-.74,1.73-.82,2.47-.2l8.87,7.56,10.55-17.23V83.04c0-.97.78-1.75,1.75-1.75s1.75.78,1.75,1.75v229.15c0,.32-.09.64-.26.91l-11.88,19.4c-.27.44-.71.73-1.22.81-.09.01-.18.02-.28.02Z" fill="#2b2b2b"/><path d="M149.68,339.25c-.42,0-.85-.15-1.18-.46l-27.19-24.9c-.71-.65-.76-1.76-.11-2.47.65-.71,1.76-.76,2.47-.11l25.95,23.77,24.67-24.65V83.41c0-.97.78-1.75,1.75-1.75s1.75.78,1.75,1.75v227.74c0,.46-.18.91-.51,1.24l-26.37,26.35c-.34.34-.79.51-1.24.51Z" fill="#2b2b2b"/><path d="M195.08,333.34c-.47,0-.94-.19-1.28-.56l-19.02-20.44c-.66-.71-.62-1.81.09-2.47.71-.66,1.81-.62,2.47.09l17.9,19.23,9.46-7.83c.75-.62,1.85-.51,2.46.23.62.74.51,1.85-.23,2.46l-10.74,8.88c-.33.27-.72.4-1.12.4Z" fill="#2b2b2b"/><path d="M175.35,85.06h-53.92c-2.68,0-5.24-.84-7.4-2.43l-17.18-12.64c-2.46-1.81-5.09-4-5.09-7.06s2.63-5.25,5.09-7.06l17.18-12.64c2.16-1.59,4.72-2.43,7.4-2.43h53.92c2.68,0,5.24.84,7.4,2.43l17.18,12.64c2.46,1.81,5.09,4,5.09,7.06s-2.63,5.25-5.09,7.06l-17.18,12.64c-2.16,1.59-4.72,2.43-7.4,2.43ZM97.86,62.93c.24.32.87,1,2.54,2.23l17.18,12.64c1.12.83,2.45,1.26,3.85,1.26h53.92c1.38,0,2.74-.45,3.85-1.26l17.18-12.64c1.67-1.23,2.31-1.91,2.54-2.23-.24-.32-.87-1-2.54-2.23l-17.18-12.64c-1.11-.81-2.47-1.26-3.85-1.26h-53.92c-1.39,0-2.72.44-3.85,1.26l-17.18,12.64c-1.67,1.23-2.31,1.91-2.54,2.23Z" fill="#2b2b2b"/><path d="M148.39,68.61c-9.12,0-16-3.73-16-8.68,0-6.61,11.62-6.61,16-6.61s16,0,16,6.61c0,4.95-6.88,8.68-16,8.68ZM148.39,56.82c-11.6,0-12.5,2.38-12.5,3.11,0,2.45,5.35,5.18,12.5,5.18s12.5-2.74,12.5-5.18c0-.73-.9-3.11-12.5-3.11Z" fill="#2b2b2b"/></svg>