<?xml version="1.0" encoding="UTF-8"?><svg id="_レイヤー_5" xmlns="http://www.w3.org/2000/svg" width="900" height="500" viewBox="0 0 900 500"><path d="M616.82,87.86L126.06,164.4c-14.39,2.24-25,14.64-25,29.2v116.24c0,5.57,3.04,10.69,7.92,13.36l152.85,83.56c11.98,6.55,25.79,8.95,39.27,6.84l484.55-75.92c7.59-1.19,13.11-7.85,12.87-15.53l-4.08-128.6c-.17-5.3-3.08-10.13-7.69-12.75l-160.04-91.14c-2.99-1.71-6.48-2.34-9.88-1.81Z" fill="#f9f9f9"/><path d="M293.74,416.87c-12.79,0-25.54-3.2-36.81-9.37l-139.81-76.43c-11.76-6.43-19.06-18.74-19.06-32.14v-105.76c0-15.9,11.4-29.22,27.11-31.67l497.49-77.59,174.46,99.34.05,1.68,4.87,153.22-496.55,77.8c-3.89.61-7.82.91-11.74.91ZM621.51,90.17L126.09,167.44c-12.77,1.99-22.04,12.82-22.04,25.74v105.76c0,11.2,6.11,21.5,15.94,26.88l139.81,76.43c13.57,7.42,29.47,10.19,44.74,7.79l491.32-76.98-4.64-146.24-169.71-96.64Z" fill="#2b2b2b"/><path d="M287.6,261.53c-8.1,0-17.49-1.06-28.19-5.52-.04-.02-.08-.04-.13-.06l-140.3-72c-.86-.44-1.2-1.5-.76-2.36.44-.86,1.5-1.2,2.36-.76l140.24,71.97c12.67,5.26,23.48,5.52,32.38,5.07l500.71-74.58c.95-.14,1.85.52,1.99,1.47.14.96-.52,1.85-1.47,1.99l-500.8,74.59c-.06,0-.11.01-.17.02-1.87.1-3.83.16-5.86.16Z" fill="#2b2b2b"/><path d="M279.81,396.26c-.96,0-1.74-.77-1.75-1.73l-1.09-102.47c0-.97.76-1.76,1.73-1.77,1,.01,1.76.77,1.77,1.73l1.09,102.47c0,.97-.76,1.76-1.73,1.77h-.02Z" fill="#2b2b2b"/><path d="M768.51,192.63l-330.18,46.97c-.47.07-.95-.02-1.36-.24l-177.49-97.98c-1.8-.99-1.32-3.7.71-4.01l330.82-51.69c.49-.08.99.02,1.41.26l176.53,101.32c1.76,1.02,1.57,5.08-.45,5.38Z" fill="#23509b"/><polygon points="769.33 192.3 776.35 345.27 442.94 392.77 436.61 238.71 769.33 192.3" fill="#23509b"/><polygon points="630.45 108.8 294.65 159.29 381.29 207.39 718.53 159.54 630.45 108.8" fill="#f3f8ff"/><path d="M380.95,209.21l-91.65-50.88,341.49-51.35,93.01,53.58-342.86,48.65ZM299.99,160.26l81.63,45.32,331.63-47.05-83.15-47.9-330.11,49.63Z" fill="#2b2b2b"/><path d="M438.32,241.57c-1.12,0-2.26-.29-3.26-.84l-172.96-94.49c-2.57-1.42-3.9-4.19-3.39-7.07s2.7-5.03,5.59-5.48l325.7-50.89c1.52-.24,3.09.06,4.42.83l176.84,100.5c2.52,1.46,3.77,3.95,3.28,6.5-.5,2.6-2.71,4.56-5.64,5h-.03s-329.59,45.87-329.59,45.87c-.32.05-.64.07-.96.07ZM591.04,88.71s-.07,0-.11,0l-325.7,50.89c-.34.05-.55.26-.61.6-.06.34.06.6.37.77l172.96,94.48c.15.08.31.12.48.09l329.61-45.87c.25-.04.42-.11.52-.17-.06-.06-.15-.12-.28-.2l-176.84-100.5c-.13-.08-.26-.11-.39-.11Z" fill="#2b2b2b"/><path d="M447.83,396.99c-1.88,0-3.72-.65-5.18-1.87-1.77-1.47-2.84-3.63-2.94-5.93l-6.09-150.36c-.07-1.66,1.22-3.05,2.88-3.12,1.65-.05,3.05,1.22,3.12,2.88l6.09,150.36c.03.82.5,1.33.77,1.55.27.23.85.59,1.67.47l320.28-47.55c2.75-.41,4.75-2.81,4.65-5.6l-3.92-146.87c-.04-1.66,1.26-3.03,2.92-3.08,1.64-.03,3.04,1.26,3.08,2.92l3.91,146.84c.21,5.81-3.98,10.86-9.77,11.72l-320.28,47.55c-.4.06-.79.09-1.19.09Z" fill="#2b2b2b"/></svg>