<?xml version="1.0" encoding="UTF-8"?><svg id="_レイヤー_41" xmlns="http://www.w3.org/2000/svg" width="1000" height="1414" viewBox="0 0 1000 1414"><polygon points="965.87 117.58 965.87 1351.17 53.25 1351.17 53.25 1342.81 54.85 1342.81 957.5 1342.81 957.5 117.58 965.87 117.58" fill="#fff"/><polygon points="957.5 117.58 957.5 1342.81 54.85 1342.81 53.25 1342.81 53.25 1341.12 53.25 1340.87 946.75 1340.87 946.75 109.21 957.5 109.21 957.5 117.58" fill="#fff"/><path d="M946.75,109.21v1231.66H34.13V107.27h796.21l7.87,1.07,1.07.27-21.07,79.39c-.95,4.04.42,8.46,3.76,12.11,3.25,3.54,7.83,6.01,12.72,7.17,4.78,1.12,9.87.99,14.31-.64l1.16-.42c4.75-1.75,8.04-5.12,9.01-9.25l22.78-90.05h.01l1.36.35h63.43v1.94Z" fill="#fff"/><path d="M891.95,96.74c2.18.52,3.63,2.31,3.23,4.01l-1.56,6.17-8.28-.38,1.93-7.66c.4-1.69,2.5-2.65,4.68-2.14Z" fill="#b3dbff"/><path d="M830.34,107.27l-.22-.03,6.22-26.37c2.42-10.27,5.72-14.62,12.6-16.62l.7-.21c11.07-3.22,24.49.12,32.65,8.13,2.46,2.42,3.8,4.8,4.35,7.72.59,3.11.28,7.04-.97,12.35l-3.71,14.68h-.01l-22.78,90.05c-.97,4.13-4.26,7.5-9.01,9.25l-1.16.42c-4.44,1.63-9.53,1.76-14.31.64-4.89-1.16-9.47-3.63-12.72-7.17-3.34-3.65-4.71-8.07-3.76-12.11l21.07-79.39,4.17-15.7c.4-1.7,2.5-2.66,4.68-2.14,2.19.51,3.63,2.31,3.23,4l-3.2,12.07-22.04,83.02c-.54,2.28.25,4.78,2.15,6.85,3.98,4.34,11.16,6.08,16.71,4.04l1.16-.42c2.71-1,4.58-2.9,5.12-5.22l22.17-87.61,4.33-17.13c2.31-9.79.69-12.36-1.48-14.5-5.79-5.68-15.3-8.05-23.15-5.77l-.7.21c-3.2.93-5.83,2.44-8.18,12.42l-6.04,25.61-7.87-1.07Z" fill="#b3dbff"/><path d="M873.43,107.5l-22.17,87.61c-.54,2.32-2.41,4.22-5.12,5.22l-1.16.42c-5.55,2.04-12.73.3-16.71-4.04-1.9-2.07-2.69-4.57-2.15-6.85l22.04-83.02,1.6.43h22.77l.9.23Z" fill="#fff"/><path d="M872.53,110.27h-22.77c-1.66,0-3-1.34-3-3s1.34-3,3-3h22.77c1.66,0,3,1.34,3,3s-1.34,3-3,3Z" fill="#2b2b2b"/><path d="M946.75,1343.87H34.13c-1.66,0-3-1.34-3-3V107.27c0-1.66,1.34-3,3-3h803.87c1.66,0,3,1.34,3,3s-1.34,3-3,3H37.13v1227.6h906.62V110.27h-60.43c-1.66,0-3-1.34-3-3s1.34-3,3-3h63.43c1.66,0,3,1.34,3,3v1233.6c0,1.66-1.34,3-3,3Z" fill="#2b2b2b"/><path d="M957.5,1344.56H54.85c-.97,0-1.75-.78-1.75-1.75s.78-1.75,1.75-1.75h900.9V110.96h-9.9c-.97,0-1.75-.78-1.75-1.75s.78-1.75,1.75-1.75h11.65c.97,0,1.75.78,1.75,1.75v1233.6c0,.97-.78,1.75-1.75,1.75Z" fill="#2b2b2b"/><path d="M965.87,1352.92H53.25c-.97,0-1.75-.78-1.75-1.75v-10.05c0-.97.78-1.75,1.75-1.75s1.75.78,1.75,1.75v8.3h909.12V119.33h-6.82c-.97,0-1.75-.78-1.75-1.75s.78-1.75,1.75-1.75h8.57c.97,0,1.75.78,1.75,1.75v1233.59c0,.97-.78,1.75-1.75,1.75Z" fill="#2b2b2b"/><path d="M895.53,290.42H92.47c-.69,0-1.25-.56-1.25-1.25s.56-1.25,1.25-1.25h803.06c.69,0,1.25.56,1.25,1.25s-.56,1.25-1.25,1.25Z" fill="#2b2b2b"/><path d="M895.53,398.77H92.47c-.69,0-1.25-.56-1.25-1.25s.56-1.25,1.25-1.25h803.06c.69,0,1.25.56,1.25,1.25s-.56,1.25-1.25,1.25Z" fill="#2b2b2b"/><path d="M895.53,507.12H92.47c-.69,0-1.25-.56-1.25-1.25s.56-1.25,1.25-1.25h803.06c.69,0,1.25.56,1.25,1.25s-.56,1.25-1.25,1.25Z" fill="#2b2b2b"/><path d="M895.53,615.47H92.47c-.69,0-1.25-.56-1.25-1.25s.56-1.25,1.25-1.25h803.06c.69,0,1.25.56,1.25,1.25s-.56,1.25-1.25,1.25Z" fill="#2b2b2b"/><path d="M895.53,723.82H92.47c-.69,0-1.25-.56-1.25-1.25s.56-1.25,1.25-1.25h803.06c.69,0,1.25.56,1.25,1.25s-.56,1.25-1.25,1.25Z" fill="#2b2b2b"/><path d="M895.53,832.17H92.47c-.69,0-1.25-.56-1.25-1.25s.56-1.25,1.25-1.25h803.06c.69,0,1.25.56,1.25,1.25s-.56,1.25-1.25,1.25Z" fill="#2b2b2b"/><path d="M895.53,940.52H92.47c-.69,0-1.25-.56-1.25-1.25s.56-1.25,1.25-1.25h803.06c.69,0,1.25.56,1.25,1.25s-.56,1.25-1.25,1.25Z" fill="#2b2b2b"/><path d="M895.53,1048.86H92.47c-.69,0-1.25-.56-1.25-1.25s.56-1.25,1.25-1.25h803.06c.69,0,1.25.56,1.25,1.25s-.56,1.25-1.25,1.25Z" fill="#2b2b2b"/><path d="M895.53,1157.21H92.47c-.69,0-1.25-.56-1.25-1.25s.56-1.25,1.25-1.25h803.06c.69,0,1.25.56,1.25,1.25s-.56,1.25-1.25,1.25Z" fill="#2b2b2b"/><path d="M895.53,1265.56H92.47c-.69,0-1.25-.56-1.25-1.25s.56-1.25,1.25-1.25h803.06c.69,0,1.25.56,1.25,1.25s-.56,1.25-1.25,1.25Z" fill="#2b2b2b"/><path d="M840.93,209.76c-2.19,0-4.43-.26-6.64-.77-5.4-1.28-10.23-4.01-13.61-7.69-3.74-4.09-5.26-9.08-4.17-13.69l20.61-77.64-9.14-1.24,6.66-28.25c2.56-10.87,6.3-15.72,13.82-17.9l.68-.21c11.66-3.39,25.79.13,34.38,8.56,2.73,2.69,4.22,5.35,4.84,8.64.64,3.35.32,7.51-.99,13.08l-26.51,104.76c-1.1,4.68-4.78,8.5-10.1,10.46l-1.17.42c-2.67.98-5.62,1.47-8.66,1.47ZM846.94,92.38c-.49,0-.94.11-1.29.33-.19.12-.43.31-.49.6l-25.25,95.14c-.8,3.42.42,7.26,3.36,10.48,2.91,3.17,7.11,5.53,11.83,6.65,4.61,1.08,9.34.88,13.3-.58l1.17-.42c4.19-1.54,7.07-4.46,7.9-8l26.51-104.76c1.19-5.04,1.49-8.74.95-11.6-.49-2.58-1.64-4.62-3.86-6.8-7.72-7.58-20.44-10.75-30.93-7.7l-.68.21c-6.25,1.82-9.12,5.69-11.4,15.35l-5.78,24.49,4.61.63,5.68-24.06c2.33-9.9,5.1-12.45,9.39-13.7l.69-.21c8.44-2.46,18.66.1,24.88,6.2,2.96,2.92,4.23,6.5,1.96,16.15l-26.51,104.77c-.67,2.87-2.93,5.22-6.21,6.43l-1.17.42c-6.16,2.26-14.16.33-18.6-4.5-2.3-2.51-3.24-5.59-2.56-8.44l25.25-95.14c.06-.24-.07-.52-.18-.71-.33-.53-.99-.96-1.75-1.14-.27-.06-.54-.09-.79-.09ZM846.94,88.88c.53,0,1.06.06,1.59.19,1.67.39,3.1,1.37,3.92,2.7.66,1.06.87,2.27.6,3.41l-25.25,95.14c-.39,1.66.24,3.58,1.75,5.22,3.53,3.85,9.9,5.39,14.82,3.58l1.17-.42c2.14-.79,3.61-2.24,4.01-3.97l26.51-104.77c2.26-9.59.45-11.39-1.01-12.83-5.35-5.25-14.17-7.45-21.43-5.34l-.69.21c-2.31.67-4.68,1.36-6.98,11.15l-1.47,6.25c.75-.33,1.6-.5,2.46-.5Z" fill="#2b2b2b"/><path d="M894.97,108.73l-11.85-.54,2.45-9.74c.62-2.6,3.66-4.14,6.78-3.42,3.18.76,5.16,3.44,4.53,6.12l-1.92,7.58ZM887.56,104.89l4.71.22,1.21-4.79c.15-.62-.65-1.57-1.94-1.88-1.29-.3-2.42.2-2.57.84l-1.41,5.61Z" fill="#2b2b2b"/></svg>