<?xml version="1.0" encoding="UTF-8"?><svg id="_レイヤー_9" xmlns="http://www.w3.org/2000/svg" width="1000" height="600" viewBox="0 0 1000 600"><path d="M887.36,119.81l67.52,397.94H53.56L121.07,119.81h19.72l2.17,1.34c-1.39,1.94-3.14,3.93-5.2,5.4-1.6,1.13-3.38,1.96-5.33,2.22l-59.75,376.43,242.59-15.53s81.26-7.77,162.52,17.92h52.86c81.26-25.69,162.52-17.92,162.52-17.92l242.59,15.53-59.75-376.43c-1.96-.26-3.75-1.1-5.35-2.24-2.29-1.63-4.18-3.89-5.63-6.02l2.61-.7h19.72Z" fill="#85bb4e"/><path d="M505.68,101.68c8.54-5.53,76.2-46.09,191.43-24.66,123.48,22.98,162.66,35.61,162.66,35.61l1.9,1.8v.03c.15.33,1.32,3.06,3.36,6.05,1.45,2.13,3.34,4.39,5.63,6.02l-1.72,2.24,58.55,371.65s-321.46-51.83-406.6,4.19v2.98h-16.83v-2.09l.7-403.21s.31-.22.92-.61ZM868.04,293.98l-22.11-159.53-103.01-21.27c-54.3-11.21-110.26-13.85-164.8-3.88l-41.7,9.61v172.09l40.69-9.63c55.19-13.07,112.41-15.12,168.39-6.06l122.54,18.67Z" fill="#fff"/><path d="M762.02,225.63l-.06,3.83-.09,5.49c-.16,15.47,2.26,28.76,17.73,28.93,15.46.16,18.15-11.62,18.32-27.08l.07-3.58.07-3.93,1.65-90.2-36.17-6.84-1.52,93.38ZM600.15,193.64l1.71,36.14c.62,15.46,3.66,27.15,19.11,26.53,15.46-.62,17.49-13.98,16.87-29.44l-1.61-35.14-.2-4.36-2.89-63.11-36.04,4.91,2.83,59.79.22,4.68ZM683.96,143.21l.08,4.71,1.39,79.31c.16,15.47,2.84,27.24,18.31,27.09,15.46-.16,17.89-13.46,17.74-28.92l-1.29-76.67-.08-4.51-.26-15.58-36.18-2.12.29,16.69ZM845.93,134.45l22.11,159.53-122.54-18.67c-55.98-9.06-113.2-7.01-168.39,6.06l-40.69,9.63V118.91l41.7-9.61c54.54-9.97,110.5-7.33,164.8,3.88l103.01,21.27Z" fill="#f9f0e4"/><path d="M799.71,139.09l-1.65,90.2-1.21-.02c-15.09-8.67-32.64-4.25-34.83-3.64l1.52-93.38,36.17,6.84Z" fill="#f9f0e4"/><path d="M798.06,229.29l-.07,3.93h-.07c-19.99,9.84-35.63-3.75-35.63-3.75h-.33s.06-3.84.06-3.84c2.19-.61,19.74-5.03,34.83,3.64l1.21.02Z" fill="#e57a7a"/><path d="M797.99,233.22l-.07,3.58c-.17,15.46-2.86,27.24-18.32,27.08-15.47-.17-17.89-13.46-17.73-28.93l.09-5.49h.33s15.64,13.6,35.63,3.76h.07Z" fill="#e57a7a"/><path d="M721.48,225.4c.15,15.46-2.28,28.76-17.74,28.92-15.47.15-18.15-11.62-18.31-27.09l-1.39-79.31h.48s17.36,11.03,33.86.84l1.81-.03,1.29,76.67Z" fill="#7db8ea"/><path d="M720.11,144.22l.08,4.51-1.81.03c-16.5,10.19-33.86-.85-33.86-.85h-.48s-.08-4.7-.08-4.7c.88-.52,16.23-9.12,35.51,1.02h.64Z" fill="#7db8ea"/><path d="M719.85,128.64l.26,15.58h-.64c-19.28-10.13-34.63-1.53-35.51-1.01l-.29-16.69,36.18,2.12Z" fill="#f9f0e4"/><path d="M637.84,226.87c.62,15.46-1.41,28.82-16.87,29.44-15.45.62-18.49-11.07-19.11-26.53l-1.71-36.14c1.42.34,21.29,5,35.98-1.91h.1l1.61,35.14Z" fill="#c4e29c"/><path d="M636.03,187.37l.2,4.36h-.1c-14.69,6.91-34.56,2.25-35.98,1.91l-.22-4.68.44-.02s16.03-9.11,33.96-1.49l1.7-.08Z" fill="#c4e29c"/><path d="M633.14,124.26l2.89,63.11-1.7.08c-17.93-7.62-33.96,1.49-33.96,1.49l-.44.02-2.83-59.79,36.04-4.91Z" fill="#f9f0e4"/><path d="M146.77,114.43l1.88-1.8s39.44-13.15,163.72-37.05c119.71-23.02,188.42,22.7,193.31,26.1-.61.39-.92.61-.92.61l-.7,403.21v2.09h-14.54v-.79c-43.92-56.77-406.91-8.96-406.91-8.96l55.17-371.26-.02-.03c2.06-1.47,3.81-3.46,5.2-5.4,2.47-3.43,3.81-6.72,3.81-6.72ZM252.42,429.29c4.68-4.31,6.29-11.02,4.1-17l-20.69-56.51-15.23-41.58c-.63-1.73-.96-3.57-.96-5.42l1.02-33.5c0-2.1-2.06-4.03-5.49-5.52l-.24-.06,27.97-110.54c.79-3.12-1.1-6.29-4.22-7.08-.48-.12-.96-.18-1.43-.18-2.61,0-4.98,1.76-5.65,4.4l-28.02,110.73c-2-.21-4.12-.32-6.31-.32-12.91,0-23.39,3.84-23.39,8.57l-1.36,37.84c0,1.82-.31,3.61-.92,5.32l-13.43,37.48-20.18,56.32c-2.16,6.02-.47,12.74,4.28,17.02,10.31,9.29,31.35,19.73,55.41,19.73s44.65-10.42,54.74-19.7Z" fill="#fff"/><path d="M256.52,412.29c2.19,5.98.58,12.69-4.1,17-10.09,9.28-30.71,19.7-54.74,19.7s-45.1-10.44-55.41-19.73c-4.75-4.28-6.44-11-4.28-17.02l20.18-56.32.64.23s30.47,25.09,74.39.59l2.63-.96,20.69,56.51Z" fill="#7db8ea"/><path d="M203.58,267.03l28.02-110.73c.67-2.64,3.04-4.4,5.65-4.4.47,0,.95.06,1.43.18,3.12.79,5.01,3.96,4.22,7.08l-27.97,110.54-3.11,12.29c-3.49,1.02-7.79,1.68-12.49,1.83l4.25-16.79Z" fill="#f8fdff"/><path d="M235.83,355.78l-2.63.96c-43.92,24.5-74.39-.59-74.39-.59l-.64-.23,13.43-37.48c.61-1.71.92-3.5.92-5.32l1.36-37.84c0,4.73,10.48,8.57,23.39,8.57.7,0,1.38-.01,2.06-.03l-12.58,49.73c-.79,3.12,1.1,6.29,4.22,7.08s6.29-1.1,7.08-4.22l13.77-54.42c5.39-1.57,8.84-3.99,8.84-6.71l-1.02,33.5c0,1.85.33,3.69.96,5.42l15.23,41.58Z" fill="#ebf7ff"/><path d="M215.17,269.76c3.43,1.49,5.49,3.42,5.49,5.52,0,2.72-3.45,5.14-8.84,6.71l3.11-12.29.24.06Z" fill="#ebf7ff"/><path d="M211.82,281.99l-13.77,54.42c-.79,3.12-3.96,5.01-7.08,4.22s-5.01-3.96-4.22-7.08l12.58-49.73c4.7-.15,9-.81,12.49-1.83Z" fill="#f8fdff"/><path d="M203.58,267.03l-4.25,16.79c-.68.02-1.36.03-2.06.03-12.91,0-23.39-3.84-23.39-8.57s10.48-8.57,23.39-8.57c2.19,0,4.31.11,6.31.32Z" fill="#ebf7ff"/><path d="M530.65,509.34h-26.3c-.97,0-1.75-.78-1.75-1.75s.78-1.75,1.75-1.75h26.03c80.58-25.41,162.14-17.99,162.96-17.91l240.35,15.39-59.21-373.06c-1.64-.41-3.26-1.18-4.83-2.3-2.14-1.52-4.18-3.7-6.06-6.46-2-2.93-3.2-5.6-3.51-6.35-.38-.89.04-1.92.92-2.3.89-.38,1.92.04,2.3.92.2.48,1.32,3.01,3.19,5.75,1.65,2.42,3.4,4.3,5.2,5.58,1.52,1.08,3.05,1.73,4.56,1.93.77.1,1.38.7,1.5,1.46l59.75,376.43c.08.53-.08,1.06-.43,1.45-.36.39-.88.6-1.41.57l-242.59-15.53c-.86-.08-81.92-7.44-161.88,17.84-.17.05-.35.08-.53.08Z" fill="#2b2b2b"/><path d="M507.94,502.77c-.52,0-1.03-.23-1.37-.66-.6-.76-.48-1.86.28-2.46.45-.36,11.21-8.8,36.41-17.47,23.12-7.95,63.33-17.55,123.6-18.17,1.28-.01,2.59-.02,3.92-.02,78.21,0,224.6,22.73,244.97,25.96l-55.79-375.21c-.14-.84.35-1.7,1.18-1.97.92-.3,1.9.19,2.2,1.11.03.09.06.21.08.31l56.15,377.6c.08.55-.1,1.11-.5,1.5-.4.39-.96.57-1.51.48-1.65-.27-163.3-26.29-246.76-26.29-1.32,0-2.62,0-3.9.02-114.1,1.17-157.44,34.53-157.87,34.87-.32.26-.71.38-1.09.38Z" fill="#2b2b2b"/><path d="M954.88,520.75h-449.61c-1.66,0-3-1.34-3-3s1.34-3,3-3h446.06l-66.5-391.94h-17.19c-1.66,0-3-1.34-3-3s1.34-3,3-3h19.72c1.46,0,2.71,1.06,2.96,2.5l67.52,397.94c.15.87-.1,1.76-.67,2.44s-1.41,1.06-2.29,1.06Z" fill="#2b2b2b"/><path d="M504.08,509.34h-26.29c-.18,0-.36-.03-.53-.08-79.97-25.28-161.02-17.92-161.83-17.85l-242.64,15.53c-.52.04-1.05-.17-1.41-.57-.36-.39-.52-.93-.43-1.45l59.75-376.43c.12-.76.73-1.36,1.5-1.46,1.51-.2,3.04-.84,4.55-1.92,1.64-1.17,3.26-2.85,4.79-4.99,2.31-3.21,3.6-6.33,3.61-6.36.37-.89,1.38-1.33,2.28-.96.89.36,1.32,1.38.96,2.28-.06.14-1.45,3.52-4.01,7.08-1.75,2.45-3.64,4.4-5.6,5.8-1.57,1.11-3.18,1.87-4.81,2.28l-59.21,373.06,240.41-15.39c.76-.07,82.32-7.49,162.9,17.92h26c.97,0,1.76.78,1.76,1.75s-.77,1.75-1.74,1.75Z" fill="#2b2b2b"/><path d="M500.49,502.77c-.38,0-.77-.12-1.09-.38-.52-.41-43.9-33.7-157.86-34.87-82.21-.88-248.99,26-250.66,26.27-.55.09-1.11-.09-1.51-.48-.4-.39-.58-.95-.5-1.5l56.17-377.63c.14-.96,1.03-1.61,1.99-1.47.96.14,1.62,1.03,1.47,1.99l-55.82,375.27c20.37-3.22,166.76-25.96,244.98-25.96,1.33,0,2.63,0,3.92.02,60.26.62,100.47,10.22,123.59,18.17,25.2,8.66,35.96,17.11,36.41,17.47.76.6.88,1.7.28,2.46-.35.43-.85.66-1.37.66Z" fill="#2b2b2b"/><path d="M505.27,520.75H53.56c-.88,0-1.72-.39-2.29-1.06s-.81-1.57-.67-2.44L118.11,119.31c.25-1.44,1.5-2.5,2.96-2.5h19.72c1.66,0,3,1.34,3,3s-1.34,3-3,3h-17.19l-66.49,391.94h448.16c1.66,0,3,1.34,3,3s-1.34,3-3,3Z" fill="#2b2b2b"/><path d="M504.06,507.25h0c-.97,0-1.75-.79-1.75-1.75l.7-403.21c0-.97.79-1.75,1.75-1.75h0c.97,0,1.75.79,1.75,1.75l-.7,403.21c0,.97-.79,1.75-1.75,1.75Z" fill="#2b2b2b"/><path d="M148.65,115.63c-1.26,0-2.43-.8-2.85-2.05-.52-1.57.33-3.27,1.9-3.79.4-.13,41.05-13.49,164.1-37.15,50.47-9.71,97.93-8.63,141.07,3.2,33.23,9.11,52.16,21.76,54.46,23.35.32.21.47.33.47.33,1.27,1.04,1.49,2.93.46,4.22-1.01,1.26-2.82,1.52-4.11.55l-.08-.05s-.08-.05-.11-.07c-1.97-1.37-20.14-13.61-52.68-22.53-42.25-11.58-88.8-12.62-138.35-3.09-122.52,23.56-162.94,36.82-163.34,36.95-.31.1-.63.15-.95.15Z" fill="#2b2b2b"/><path d="M859.77,115.63c-.3,0-.61-.05-.92-.15-.39-.13-40.55-12.86-162.29-35.52-114.64-21.32-181.95,19.5-189.25,24.23-.52.33-.79.52-.82.54-1.35.95-3.22.63-4.17-.72-.96-1.35-.64-3.22.71-4.18,0,0,.35-.25,1.03-.69,7.49-4.85,76.67-46.83,193.6-25.08,122.25,22.75,162.64,35.58,163.03,35.7,1.58.51,2.44,2.2,1.93,3.78-.41,1.27-1.59,2.08-2.86,2.08Z" fill="#2b2b2b"/><path d="M489.52,508.55c-.52,0-1.04-.23-1.38-.68-42.81-55.33-401.68-8.77-405.3-8.3-.54.07-1.09-.12-1.48-.51-.38-.39-.56-.94-.48-1.48l55.17-371.26c.14-.96,1.03-1.62,1.99-1.47.96.14,1.62,1.03,1.47,1.99l-54.83,368.97c14.75-1.88,98.04-12.15,184.83-16.53,128.32-6.47,202.81,2.42,221.4,26.45.59.76.45,1.86-.31,2.46-.32.25-.7.37-1.07.37Z" fill="#2b2b2b"/><path d="M520.89,506.36c-.57,0-1.13-.28-1.46-.79-.53-.81-.31-1.89.5-2.42,35.63-23.45,115.14-31.32,236.3-23.39,81.4,5.33,155.14,16.39,169.16,18.56l-58.18-369.28c-.15-.96.5-1.85,1.46-2,.97-.15,1.85.5,2,1.46l58.55,371.65c.09.55-.1,1.12-.49,1.51-.4.4-.96.58-1.51.49-.8-.13-81.35-13.02-171.23-18.9-118.68-7.77-199.64.13-234.13,22.82-.3.2-.63.29-.96.29Z" fill="#2b2b2b"/><path d="M868.04,295.73c-.09,0-.18,0-.26-.02l-122.54-18.67c-56.08-9.08-112.5-7.05-167.72,6.03l-40.69,9.63c-.52.12-1.07,0-1.49-.33-.42-.33-.66-.84-.66-1.37V118.91c0-.82.56-1.52,1.36-1.71l41.7-9.61c51.68-9.45,107.36-8.14,165.55,3.87l103.01,21.27c.73.15,1.28.74,1.38,1.47l22.11,159.53c.08.55-.11,1.1-.5,1.49-.33.33-.77.5-1.23.5ZM676.36,267.97c23.13,0,46.3,1.87,69.42,5.61l120.21,18.32-21.62-155.98-101.8-21.02c-57.75-11.92-112.97-13.22-164.13-3.87l-40.26,9.28v168.48l38.54-9.12c32.9-7.79,66.23-11.69,99.65-11.69Z" fill="#2b2b2b"/><path d="M460.83,150.53c-.21,0-.43-.04-.63-.12-55.64-21.67-141.58-6.04-142.45-5.88-.95.17-1.86-.45-2.04-1.4-.18-.95.45-1.86,1.4-2.04.87-.16,87.79-15.98,144.36,6.06.9.35,1.35,1.37,1,2.27-.27.69-.93,1.12-1.63,1.12Z" fill="#2b2b2b"/><path d="M459.62,181.6c-.21,0-.43-.04-.63-.12-55.64-21.67-141.59-6.04-142.46-5.88-.95.17-1.86-.45-2.04-1.4-.18-.95.45-1.86,1.4-2.04.87-.16,87.79-15.98,144.37,6.06.9.35,1.35,1.37,1,2.27-.27.69-.93,1.12-1.63,1.12Z" fill="#2b2b2b"/><path d="M460.81,213.87c-.21,0-.43-.04-.63-.12-55.65-21.68-141.58-6.05-142.44-5.89-.95.17-1.86-.45-2.04-1.4s.45-1.86,1.4-2.04c.87-.16,87.79-15.97,144.35,6.07.9.35,1.35,1.37,1,2.27-.27.69-.93,1.12-1.63,1.12Z" fill="#2b2b2b"/><path d="M431.52,300.24s-.06,0-.08,0l-98.76-4.68c-.96-.05-1.71-.87-1.67-1.83.04-.97.83-1.7,1.83-1.67l98.76,4.68c.96.05,1.71.87,1.67,1.83-.04.94-.82,1.67-1.75,1.67Z" fill="#2b2b2b"/><path d="M480.12,340.1s-.07,0-.1,0l-173.15-9.77c-.96-.05-1.7-.88-1.65-1.85.05-.96.88-1.72,1.85-1.65l173.15,9.77c.96.05,1.7.88,1.65,1.85-.05.93-.82,1.65-1.75,1.65Z" fill="#2b2b2b"/><path d="M475.07,374.4s-.07,0-.11,0l-177.86-10.63c-.96-.06-1.7-.89-1.64-1.85.06-.96.87-1.68,1.85-1.64l177.86,10.63c.96.06,1.7.89,1.64,1.85-.06.93-.83,1.65-1.75,1.65Z" fill="#2b2b2b"/><path d="M470.12,408.12s-.07,0-.1,0l-181.59-10.09c-.97-.05-1.7-.88-1.65-1.84.05-.97.91-1.69,1.84-1.65l181.59,10.09c.97.05,1.7.88,1.65,1.84-.05.93-.82,1.65-1.75,1.65Z" fill="#2b2b2b"/><path d="M870.88,333.04c-.21,0-.43-.04-.64-.12-96.96-38.19-261.81-27.57-326.85-10.89-.94.24-1.89-.33-2.13-1.26-.24-.94.32-1.89,1.26-2.13,26.67-6.84,81.74-14.94,149.17-15.26,50.96-.27,123.57,4.12,179.84,26.28.9.35,1.34,1.37.99,2.27-.27.69-.93,1.11-1.63,1.11Z" fill="#2b2b2b"/><path d="M873.08,368.26c-.21,0-.43-.04-.64-.12-96.95-38.19-261.8-27.57-326.84-10.89-.94.24-1.89-.33-2.13-1.26-.24-.94.32-1.89,1.26-2.13,26.67-6.84,81.74-14.94,149.17-15.26,50.97-.22,123.56,4.12,179.83,26.28.9.35,1.34,1.37.99,2.27-.27.69-.93,1.11-1.63,1.11Z" fill="#2b2b2b"/><path d="M873.08,403.48c-.21,0-.43-.04-.64-.12-96.95-38.19-261.8-27.57-326.84-10.89-.94.24-1.89-.33-2.13-1.26-.24-.94.32-1.89,1.26-2.13,26.67-6.84,81.74-14.94,149.17-15.26,50.97-.24,123.56,4.12,179.83,26.28.9.35,1.34,1.37.99,2.27-.27.69-.93,1.11-1.63,1.11Z" fill="#2b2b2b"/><path d="M878.46,438.7c-.21,0-.43-.04-.64-.12-96.95-38.18-261.8-27.57-326.85-10.89-.94.24-1.89-.33-2.13-1.26-.24-.94.32-1.89,1.26-2.13,26.68-6.84,81.75-14.94,149.17-15.26,51.01-.28,123.57,4.12,179.83,26.28.9.35,1.34,1.37.99,2.27-.27.69-.93,1.11-1.63,1.11Z" fill="#2b2b2b"/><path d="M197.27,285.6c-12.19,0-25.14-3.62-25.14-10.32s12.95-10.32,25.14-10.32c2.2,0,4.36.11,6.42.32.11,0,.21.01.32.03l-.36,3.48-.25-.02c-1.96-.21-4.03-.31-6.13-.31-13.21,0-21.64,4.04-21.64,6.82s8.43,6.82,21.64,6.82c.68,0,1.35,0,2.01-.03,4.42-.14,8.59-.75,12.05-1.76,5.24-1.53,7.58-3.63,7.58-5.03,0-1.24-1.66-2.71-4.44-3.92l1.39-3.21c5.41,2.35,6.54,5.17,6.54,7.13,0,3.51-3.59,6.49-10.1,8.39-3.74,1.09-8.21,1.75-12.92,1.9-.7.02-1.4.03-2.12.03Z" fill="#2b2b2b"/><path d="M197.68,450.74c-23.61,0-45.43-10.14-56.58-20.18-5.3-4.77-7.16-12.2-4.75-18.91l33.61-93.8c.54-1.52.82-3.11.82-4.73l1.36-37.9,3.5.12-1.36,37.84c0,1.96-.34,3.95-1.02,5.85l-33.61,93.8c-1.93,5.37-.44,11.31,3.8,15.13,10.65,9.6,31.55,19.28,54.24,19.28s43.14-9.66,53.56-19.24c4.17-3.84,5.6-9.77,3.64-15.11l-35.92-98.09c-.71-1.95-1.07-3.97-1.07-6.02l1.02-33.55,3.5.11-1.02,33.5c0,1.59.29,3.21.86,4.77l35.92,98.09c2.44,6.67.66,14.09-4.56,18.89-10.11,9.3-30.83,20.16-55.93,20.16Z" fill="#2b2b2b"/><path d="M192.41,342.56c-.62,0-1.25-.08-1.87-.24-1.96-.5-3.61-1.73-4.65-3.47-1.04-1.74-1.33-3.78-.84-5.74l12.58-49.73h0s32.27-127.52,32.27-127.52c.85-3.37,3.88-5.72,7.35-5.72.62,0,1.24.08,1.85.23,1.97.5,3.62,1.73,4.66,3.47,1.04,1.74,1.33,3.78.84,5.74l-44.85,177.25c-.5,1.96-1.73,3.61-3.47,4.65-1.19.71-2.52,1.07-3.87,1.07ZM201.03,284.25l-12.58,49.73c-.27,1.06-.11,2.15.45,3.09s1.45,1.6,2.5,1.87c1.06.27,2.15.11,3.09-.45.94-.56,1.6-1.45,1.87-2.5l44.85-177.25c.55-2.18-.77-4.4-2.95-4.95-2.22-.55-4.41.82-4.95,2.95l-32.27,127.52h0Z" fill="#2b2b2b"/><path d="M195.08,369.15c-22.86,0-37.18-11.47-37.39-11.65-.75-.61-.85-1.72-.24-2.46.61-.75,1.72-.85,2.46-.24.11.09,7.61,6.13,20.2,9.18,11.62,2.81,30.11,3.57,52.23-8.76.84-.47,1.91-.17,2.38.68s.17,1.91-.68,2.38c-14.59,8.14-27.8,10.88-38.97,10.88Z" fill="#2b2b2b"/><path d="M619.8,258.08c-7.23,0-12.29-2.67-15.46-8.13-3.26-5.62-3.97-13.7-4.23-20.1l-4.76-100.6c-.04-.91.61-1.69,1.51-1.82l36.04-4.91c.49-.07.98.08,1.36.39.38.32.61.77.63,1.26l3.09,67.47h0l1.61,35.14c.39,9.7-.4,16.19-2.55,21.07-2.85,6.45-8.23,9.88-16,10.2-.42.02-.83.03-1.24.03ZM598.92,130.69l4.68,99.01c.24,6.02.89,13.54,3.76,18.5,2.67,4.61,6.98,6.63,13.53,6.36,6.5-.26,10.61-2.84,12.93-8.11,1.93-4.36,2.62-10.38,2.26-19.51l-4.61-100.69-32.56,4.44Z" fill="#2b2b2b"/><path d="M779.91,265.63c-.11,0-.22,0-.33,0-17.43-.19-19.62-15.62-19.46-30.7l1.67-102.71c0-.52.24-1,.64-1.33.4-.33.92-.46,1.43-.36l36.17,6.84c.84.16,1.44.9,1.42,1.75l-1.79,97.71c-.17,14.96-2.68,28.8-19.76,28.8ZM765.26,134.36l-1.55,95.13h0s-.09,5.49-.09,5.49c-.17,16.19,2.49,27,16,27.15,13.54.1,16.38-9.6,16.55-25.35l.14-7.52,1.62-88.72-32.68-6.18ZM761.96,229.46h0,0Z" fill="#2b2b2b"/><path d="M703.45,256.07c-17.1,0-19.61-13.84-19.77-28.82l-1.76-100.7c0-.49.19-.96.54-1.29.35-.34.83-.52,1.31-.48l36.18,2.12c.91.05,1.63.8,1.65,1.72l.34,20.09h0s1.29,76.67,1.29,76.67c.15,15.09-2.05,30.52-19.47,30.7-.1,0-.21,0-.31,0ZM685.45,128.38l1.73,98.82c.16,15.66,2.95,25.37,16.28,25.37.09,0,.18,0,.27,0,13.5-.14,16.16-10.96,16.01-27.15l-1.6-95.12-32.67-1.92Z" fill="#2b2b2b"/><path d="M616.64,197.24c-8.59,0-15.63-1.59-16.9-1.89-.05-.01-.18-.05-.23-.06-.92-.31-1.41-1.3-1.11-2.21.3-.9,1.25-1.39,2.15-1.13,2.52.6,21.09,4.67,34.83-1.79.88-.41,1.92-.04,2.33.84.41.88.04,1.92-.84,2.33-6.43,3.02-13.77,3.92-20.23,3.92Z" fill="#2b2b2b"/><path d="M703.02,154.87c-10.65,0-18.94-5.16-19.44-5.48-.82-.52-1.06-1.6-.54-2.42.52-.81,1.6-1.06,2.41-.54.19.12,16.68,10.31,32,.84.82-.51,1.9-.25,2.41.57.51.82.25,1.9-.57,2.41-5.57,3.44-11.19,4.62-16.28,4.62Z" fill="#2b2b2b"/><path d="M783.22,238.51c-12.99,0-21.96-7.62-22.08-7.72-.73-.63-.81-1.74-.17-2.47.63-.73,1.74-.81,2.47-.18h0c.61.52,15.04,12.69,33.71,3.5.87-.42,1.92-.07,2.34.8.43.87.07,1.92-.8,2.34-5.53,2.72-10.77,3.72-15.47,3.72Z" fill="#2b2b2b"/><path d="M600.37,190.69c-.61,0-1.2-.32-1.52-.89-.48-.84-.18-1.91.66-2.38.68-.39,16.99-9.45,35.51-1.58.89.38,1.3,1.41.93,2.29s-1.41,1.3-2.29.93c-16.88-7.17-32.26,1.32-32.41,1.4-.27.15-.57.23-.86.23Z" fill="#2b2b2b"/><path d="M719.47,145.98c-.27,0-.55-.06-.81-.2-18.62-9.79-33.19-1.42-33.81-1.06-.03.02-.06.04-.1.05-.64.34-1.45.27-2.01-.24-.72-.65-.77-1.76-.12-2.47.13-.15.3-.27.48-.37,1.11-.65,17.15-9.53,37.17,1,.86.45,1.18,1.51.73,2.36-.31.6-.92.94-1.55.94Z" fill="#2b2b2b"/><path d="M796.85,231.02c-.3,0-.59-.08-.87-.23-14.58-8.38-31.6-4-33.49-3.47l-.26.07c-.94.24-1.89-.33-2.13-1.26-.24-.94.32-1.89,1.26-2.13l.21-.06c2.02-.56,20.33-5.28,36.16,3.81.84.48,1.13,1.55.65,2.39-.32.56-.91.88-1.52.88Z" fill="#2b2b2b"/></svg>