<?xml version="1.0" encoding="UTF-8"?><svg id="_レイヤー_2" xmlns="http://www.w3.org/2000/svg" width="1000" height="1000" viewBox="0 0 1000 1000"><ellipse cx="310.38" cy="795.82" rx="207.93" ry="92.02" fill="#d9d9d9"/><path d="M856.54,174.85c47.45,97.2,125.28,330.06,21.2,574.52-13.97,32.81-31.63,64.1-63.83,79.43l-40.04,19.07h-2.92c7.97-10.8,5.96-19.57,5.96-19.57l-.44-135h.03c87.83-112.33,45.71-453.81-30.39-525.17l-.27-1.07c38.62-9.78,87.45-15.66,110.37,7.95l.33-.16Z" fill="#fff5f5"/><path d="M856.54,174.85l-.33.16c-22.92-23.61-71.75-17.73-110.37-7.95-30.49,7.72-54.62,17.88-54.62,17.88l-.38,1.93c-3.96-.73-7.98-1.33-12.05-1.8l-34.06-3.9.04-.33c-10.23-27.77-20.3-51.58-39.53-67.22,23.6-20.61,59.06-39.49,99.92-31.2,0,0,105.77,6.31,146.7,83.08,1.52,2.96,3.08,6.08,4.68,9.35Z" fill="#3f3f3f"/><path d="M742.98,264.91c-.1-.74-1.93-13.3-9.35-25.25-2.9-5.38-6.06-9.77-9.41-13.42-7.92-8.64-19.13-9.73-30.99-8.34-.01,0-.03,0-.04.01-4.15.13-8.64.72-13.49,1.86-2.01.46-3.97,1.05-5.88,1.77-1.66.37-3.31.73-4.93,1.07-11.77,5.22-21.62,16.32-29.87,32.03-23.06,40.22-31.01,105.21-33.73,148.16-.01.04-.01.08-.01.12-2.77,27.97-4.7,57.68-6.07,88.03-5.98,133.16-1.01,278.73-8.11,344.36-.86,8.03-2.2,21.17-2.78,29.21-4.86,66.59-101.1,52.44-101.1,52.44l-54.13-8.96-48.46-8.03-207.98-34.44-17.94-2.97c-8.46-1.48-15.57-2.79-21.66-4.06-18.2-3.79-27.21-7.21-35.48-13.51-1.33-1.01-2.64-2.09-3.96-3.26-20.67-18.3-22.19-42.57-22.19-42.57-14.68-98,8.43-318.63,19.64-413.37,5.5-46.52,19.82-91.79,42.84-133.15,67.82-121.83,152.47-112.08,152.47-112.08-43.08-1.69-129.08,83.24-159.48,208.27-23.75,97.7-31.37,338.79-31.37,338.79,0,0,7.17,39.38,95.79,47.89,86.75,8.34,307.11,37.49,307.11,37.49,0,0,46.93,4.93,39.84-59.01,0,0,8.98-177.84,26.9-366.95,7.19-47.11,17.12-108.52,53.78-138.92,16.98-14.08,30.03-23.38,74-19.97,44.44,10.14,79.13,39.19,78.1,98.72.04.93.08,1.87.11,2.82l1.32,403.61.44,135s2.01,8.77-5.96,19.56c-5.65,7.64-16.3,16.28-36.2,23.55l-2.63-.25c16.83-16.61,14.91-44.71,14.91-44.71l-.43-385.06-.05-42.9c5.62-64.72,3.23-106.27-3.57-133.58ZM412.89,866.54c14.97-1.19,26.93-15.01,26.76-30.89-.16-15.88-12.41-27.89-27.39-26.81-15.04,1.09-27.13,14.95-26.94,30.94.18,15.98,12.55,27.95,27.57,26.76ZM154.51,831.99c14.66-1.07,26.3-15.23,26.04-31.64-.26-16.42-12.34-28.95-27.02-27.98-14.73.97-26.48,15.16-26.2,31.68.28,16.51,12.47,29.01,27.18,27.94Z" fill="#3f3f3f"/><path d="M747.03,826.45s1.92,28.1-14.91,44.71c-3.49,3.45-7.79,6.4-13.08,8.5l-141.82,65.37s-36.58,8.32-83.3-1.24l-57.88-9.33.15-.94-3.12-25.42.02-.1,54.13,8.96s96.24,14.15,101.1-52.44c.58-8.04,1.92-21.18,2.78-29.21,7.1-65.63,2.13-211.2,8.11-344.36l1.92.09s23.07,1.03,65.06-15.31l.56-.03.09,1.81c10.63,6.53,20.03-6.83,21.86-9.67l1.79.17,53.77-26.62h2.34l.43,385.06ZM710.19,548.36l-17.85-18.34-2.71-52.66-21.15,3.71-11,86.39,38.72,6.66,13.99-25.76Z" fill="#3f3f3f"/><path d="M742.98,264.91c6.8,27.31,9.19,68.86,3.57,133.58l-60.62,28.3-.14.27c-3.68-1.8-11.94-3.91-21.09,6.36-1.79.56-3.56,1.19-5.33,1.82-41.94,15.02-55.47,10.95-55.47,10.95,0,0-.24-17.72,1.38-43.27,0-.04,0-.08.01-.12,6.14-61.84,16.4-115.16,33.73-148.16,9.07-15.81,20.47-27.8,34.8-33.1,6.36-1.4,12.96-2.88,19.37-3.63.01-.01.03-.01.04-.01,20.94-.68,33.26,10.26,40.4,21.76,3.61,6.72,6.79,14.97,9.35,25.25Z" fill="#3f3f3f"/><path d="M746.55,398.49l.05,42.9h-2.34l-53.77,26.62-1.79-.17c.21-.32.32-.51.32-.51l-1.2-39.04s-.73-.6-2.03-1.23l.14-.27,60.62-28.3Z" fill="#3f3f3f"/><polygon points="692.34 530.02 710.19 548.36 696.2 574.12 657.48 567.46 668.48 481.07 689.63 477.36 692.34 530.02" fill="#d9d9d9"/><path d="M492.78,163.75l34.42,3.95,35.09,4.02,46.65,5.35,35.79,4.1,34.06,3.9c4.07.47,8.09,1.07,12.05,1.8,2.05.39,4.09.81,6.1,1.28-43.97-3.41-57.02,5.89-74,19.97-36.66,30.4-46.59,91.81-53.78,138.92-17.92,189.11-26.9,366.95-26.9,366.95,7.09,63.94-39.84,59.01-39.84,59.01,0,0-220.36-29.15-307.11-37.49-88.62-8.51-95.79-47.89-95.79-47.89,0,0,7.62-241.09,31.37-338.79,30.4-125.03,116.4-209.96,159.48-208.27l52.91,6.06,53.72,6.16,64.03,7.34,31.75,3.63Z" fill="#3f3f3f"/><path d="M687.82,428.29l1.2,39.04s-.11.19-.32.51c-1.83,2.84-11.23,16.2-21.86,9.67l-.09-1.81-2.05-42.28c9.15-10.27,17.41-8.16,21.09-6.36,1.3.63,2.03,1.23,2.03,1.23Z" fill="#3f3f3f"/><path d="M664.7,433.42l2.05,42.28-.56.03c-41.99,16.34-65.06,15.31-65.06,15.31l-1.92-.09c1.37-30.35,3.3-60.06,6.07-88.03-1.62,25.55-1.38,43.27-1.38,43.27,0,0,13.53,4.07,55.47-10.95,1.77-.63,3.54-1.26,5.33-1.82Z" fill="#3f3f3f"/><path d="M605.24,113.62c19.23,15.64,29.3,39.45,39.53,67.22l-.04.33-35.79-4.1.22-1.92s-7.5-24.84-23.45-43.4c-8.93-10.38-20.49-18.79-34.86-19.8-6.08-.43-11.65.44-16.71,2.24-27.58,9.74-40.41,46.71-41.36,49.56l-31.75-3.63.29-2.54s22.94-58.28,75.89-63.12c4.01-.37,8.2-.43,12.56-.13,24.8,1.68,42.29,8.56,55.47,19.29Z" fill="#3f3f3f"/><path d="M609.16,175.15l-.22,1.92-46.65-5.35v-.09s5.77-18.63,23.27-39.75l.15-.13c15.95,18.56,23.45,43.4,23.45,43.4Z" fill="#3f3f3f"/><path d="M536.99,92.29l.22,2.17c-52.95,4.84-75.89,63.12-75.89,63.12l-.29,2.54-64.03-7.34.32-2.77-19.81-54.8c-5.98-16.52,4.07-33.95,21.45-37.44,39.42-7.91,79.14-6.83,106.58-4.31,19.72,1.8,34.12,19.68,31.45,38.83Z" fill="#3f3f3f"/><path d="M534.14,114.19l-6.89,53.03-.05.48-34.42-3.95c.95-2.85,13.78-39.82,41.36-49.56Z" fill="#3f3f3f"/><polygon points="433.07 908.1 436.19 933.52 436.04 934.46 386.29 926.44 386.44 925.54 384.35 901.64 384.63 899.97 433.09 908 433.07 908.1" fill="#3f3f3f"/><path d="M377.51,95.21l19.81,54.8-.32,2.77-53.72-6.16.08-.68c-.08.52,13.51-85.26,55.6-88.17-17.38,3.49-27.43,20.92-21.45,37.44Z" fill="#fff5f5"/><path d="M384.35,901.64l2.09,23.9-.15.9-206.32-33.25v-.07c-5.65-6.13-3.45-26.79-3.45-26.79l.13-.8,207.98,34.44-.28,1.67Z" fill="#3f3f3f"/><path d="M179.98,893.12v.07s-28.03-4.52-28.03-4.52c-3.36-.54-6.65-1.3-9.84-2.26-7.64-12.09-5.37-26.47-5.37-26.47l.31-1.44c6.09,1.27,13.2,2.58,21.66,4.06l17.94,2.97-.13.8s-2.2,20.66,3.46,26.79Z" fill="#3f3f3f"/><path d="M137.05,858.5l-.31,1.44s-2.27,14.38,5.37,26.47c-11.83-3.57-22.35-10-30.2-18.94-5.29-6.02-9.65-13.37-10.83-21.84l.49-.64c8.27,6.3,17.28,9.72,35.48,13.51Z" fill="#3f3f3f"/><path d="M685.93,429.79c-1.13,0-2.21-.64-2.72-1.73-.7-1.5-.05-3.29,1.45-3.99l60.62-28.3c1.5-.7,3.29-.05,3.99,1.45.7,1.5.05,3.29-1.45,3.99l-60.62,28.3c-.41.19-.84.28-1.27.28Z" fill="#2b2b2b"/><path d="M609.48,449.67c-4.3,0-6.24-.54-6.44-.6-1.59-.48-2.49-2.15-2.01-3.74.47-1.57,2.12-2.47,3.7-2.02.31.08,14,3.3,53.63-10.89,1.81-.64,3.62-1.29,5.45-1.86,1.58-.5,3.26.39,3.76,1.97.49,1.58-.39,3.26-1.97,3.76-1.72.54-3.47,1.16-5.16,1.76-27.41,9.82-43.11,11.62-50.95,11.62Z" fill="#2b2b2b"/><path d="M690.49,471.01c-1.1,0-2.17-.61-2.69-1.67-.74-1.48-.13-3.28,1.36-4.02l53.77-26.62c1.49-.73,3.29-.13,4.02,1.36.74,1.48.13,3.28-1.36,4.02l-53.77,26.62c-.43.21-.88.31-1.33.31Z" fill="#2b2b2b"/><path d="M602.1,494.06c-.63,0-1-.01-1.11-.02-1.66-.07-2.94-1.48-2.86-3.13.07-1.65,1.47-2.93,3.13-2.86.32.01,23.17.72,63.84-15.11,1.54-.6,3.28.16,3.88,1.71.6,1.54-.16,3.28-1.71,3.88-37.5,14.59-60.02,15.53-65.17,15.53Z" fill="#2b2b2b"/><path d="M644.77,183.85c-1.22,0-2.37-.75-2.82-1.96-9.94-26.97-19.7-50.55-38.61-65.93-13.51-11-31.1-17.09-53.78-18.62-4.08-.28-8.14-.24-12.08.12-50.45,4.61-73.15,60.67-73.37,61.23-.61,1.54-2.35,2.3-3.89,1.69-1.54-.61-2.3-2.35-1.69-3.89.24-.61,6.05-15.18,18.55-30.54,16.68-20.5,37.38-32.41,59.85-34.47,4.25-.39,8.64-.44,13.04-.14,23.96,1.62,42.66,8.15,57.16,19.96,20.08,16.34,30.2,40.69,40.45,68.51.57,1.55-.22,3.28-1.78,3.85-.34.13-.69.19-1.04.19Z" fill="#2b2b2b"/><path d="M609.16,178.15c-1.29,0-2.48-.84-2.87-2.13-.07-.24-7.52-24.47-22.85-42.31-10-11.62-21.03-17.94-32.79-18.76-5.35-.38-10.56.32-15.49,2.07-26.47,9.35-39,46.12-39.52,47.68l-.05.16c-.51,1.58-2.2,2.44-3.78,1.92-1.58-.51-2.44-2.2-1.92-3.78l.07-.2c1.4-4.2,14.5-41.3,43.21-51.44,5.71-2.03,11.74-2.84,17.92-2.4,13.42.94,25.84,7.95,36.92,20.84,16.18,18.83,23.73,43.45,24.05,44.49.48,1.59-.42,3.26-2,3.74-.29.09-.58.13-.87.13Z" fill="#2b2b2b"/><path d="M773.87,850.87c-1.12,0-2.2-.63-2.71-1.71-.71-1.5-.08-3.29,1.42-4l40.04-19.07c32.27-15.36,49.63-48,62.36-77.9,111.57-262.05,12.03-504.09-21.14-572.03-1.6-3.28-3.17-6.41-4.65-9.3-20.64-38.71-58.64-58.79-86.88-68.82-30.82-10.94-57.07-12.62-57.33-12.64-.14,0-.28-.03-.42-.05-44.06-8.94-79.9,15.29-97.35,30.52-.03.02-.05.05-.08.07-.07.06-.14.11-.2.16-1.32,1-3.2.74-4.2-.58-.98-1.3-.75-3.13.51-4.15.01-.01.03-.03.05-.04,18.26-15.94,55.8-41.24,102.27-31.91,2.77.18,28.15,2.12,58.61,12.9,29.29,10.37,68.75,31.24,90.34,71.75,1.52,2.96,3.1,6.13,4.73,9.44,19.52,39.98,54.27,123.41,67.71,232.99,14.85,121.03-.78,236.78-46.44,344.02-13.17,30.93-31.23,64.74-65.3,80.96l-40.04,19.07c-.42.2-.86.29-1.29.29Z" fill="#2b2b2b"/><path d="M562.3,174.63c-.29,0-.59-.04-.89-.14-1.58-.49-2.47-2.17-1.98-3.75.24-.78,6.14-19.44,23.82-40.78,1.06-1.28,2.95-1.45,4.22-.4,1.28,1.06,1.45,2.95.4,4.22-16.87,20.35-22.65,38.54-22.7,38.72-.4,1.29-1.59,2.11-2.86,2.11Z" fill="#2b2b2b"/><path d="M776.49,696.3c-.65,0-1.3-.21-1.85-.64-1.31-1.02-1.54-2.91-.52-4.21,38.88-49.72,55.94-152.84,45.65-275.85-9.46-113.11-39.9-211.68-75.73-245.28-1.21-1.13-1.27-3.03-.14-4.24,1.13-1.21,3.03-1.27,4.24-.14,36.84,34.55,68.03,134.67,77.61,249.16,10.41,124.47-7.12,229.16-46.91,280.05-.59.76-1.47,1.15-2.37,1.15Z" fill="#2b2b2b"/><path d="M691.22,187.94c-1.17,0-2.28-.69-2.77-1.84-.64-1.53.07-3.29,1.6-3.93.24-.1,24.69-10.34,55.05-18.02,38.36-9.71,89.14-16.08,113.26,8.77,1.15,1.19,1.13,3.09-.06,4.24s-3.09,1.13-4.24-.06c-22.12-22.79-70.66-16.46-107.48-7.13-29.92,7.58-53.95,17.64-54.19,17.74-.38.16-.77.24-1.16.24Z" fill="#2b2b2b"/><path d="M397.32,153.02c-1.23,0-2.38-.76-2.82-1.98l-19.81-54.8c-3.11-8.6-2.37-18.04,2.05-25.89,4.5-8,12.39-13.66,21.63-15.51,40.19-8.07,80.61-6.82,107.45-4.36,10.32.94,19.95,6.15,26.4,14.29,6.39,8.05,9.14,17.97,7.75,27.94-.23,1.64-1.74,2.79-3.39,2.56-1.64-.23-2.79-1.74-2.56-3.39,1.16-8.33-1.15-16.64-6.5-23.39-5.44-6.86-13.55-11.25-22.25-12.04-26.44-2.43-66.23-3.66-105.72,4.26-7.52,1.51-13.93,6.09-17.58,12.57-3.61,6.42-4.2,13.85-1.64,20.91l19.81,54.8c.56,1.56-.24,3.28-1.8,3.84-.34.12-.68.18-1.02.18Z" fill="#2b2b2b"/><path d="M527.25,170.22c-.13,0-.26,0-.39-.03-1.64-.21-2.8-1.72-2.59-3.36l6.93-53.28c.24-1.64,1.77-2.77,3.4-2.53,1.64.24,2.77,1.76,2.53,3.4l-.03.2-6.88,52.98c-.2,1.51-1.49,2.61-2.97,2.61Z" fill="#2b2b2b"/><path d="M343.35,148.95c-.16,0-.31-.01-.47-.04-1.63-.26-2.75-1.79-2.49-3.42,0-.02,0-.03,0-.05.62-3.78,14.9-87.66,58.35-90.66,1.65-.12,3.09,1.13,3.2,2.79s-1.13,3.09-2.79,3.2c-19.99,1.38-33.19,24.03-40.75,42.79-8.45,20.96-11.95,41.98-12.09,42.86-.24,1.47-1.52,2.53-2.96,2.53Z" fill="#2b2b2b"/><path d="M386.43,928.54c-1.54,0-2.85-1.18-2.98-2.74l-2.09-23.9c-.14-1.65,1.08-3.11,2.73-3.25,1.66-.14,3.11,1.08,3.25,2.73l2.09,23.9c.14,1.65-1.08,3.11-2.73,3.25-.09,0-.18.01-.27.01Z" fill="#2b2b2b"/><path d="M436.18,936.52c-1.49,0-2.79-1.11-2.97-2.63l-3.12-25.42c-.2-1.64.97-3.14,2.61-3.34,1.64-.2,3.14.97,3.34,2.61l3.12,25.42c.2,1.64-.97,3.14-2.61,3.34-.12.02-.25.02-.37.02Z" fill="#2b2b2b"/><path d="M142.3,889.71c-1.01,0-2-.51-2.57-1.44-.1-.15-.15-.24-.21-.32-8.11-12.83-5.86-27.84-5.75-28.47.26-1.64,1.8-2.75,3.43-2.5,1.63.26,2.75,1.79,2.5,3.43h0c-.02.13-1.97,13.46,4.94,24.41l.22.34c.86,1.42.41,3.26-1,4.12-.49.3-1.02.44-1.56.44Z" fill="#2b2b2b"/><path d="M179.98,896.12c-.81,0-1.61-.32-2.21-.96-6.4-6.93-4.48-26.89-4.24-29.14.18-1.65,1.66-2.84,3.3-2.67,1.65.18,2.84,1.65,2.67,3.3-.79,7.47-.76,20.71,2.68,24.44,1.12,1.22,1.05,3.12-.17,4.24-.58.53-1.31.8-2.03.8Z" fill="#2b2b2b"/><path d="M508.12,921.27c-11.9,0-20.47-1.21-21.34-1.34l-328.56-54.41c-9.46-1.65-16.17-2.91-21.78-4.08-18.76-3.91-28.01-7.45-36.69-14.06-1.38-1.05-2.74-2.16-4.13-3.4-20.77-18.38-23.02-42.24-23.18-44.49-14.77-98.96,8.81-322.5,19.65-414.05,5.64-47.72,20.18-92.89,43.2-134.26,35.44-63.67,75.63-91.17,103.1-103.02,30.03-12.96,51.44-10.68,52.33-10.58l388.42,44.51c4.12.48,8.25,1.09,12.25,1.83,2.32.44,4.36.87,6.24,1.31,24.6,5.61,44.01,16.31,57.67,31.77,15.58,17.65,23.23,41.14,22.75,69.83.04.91.08,1.83.11,2.76l1.32,403.7.44,134.73c.33,1.98,1.29,11.02-6.55,21.62-7.3,9.87-19.94,18.14-37.58,24.59-1.56.57-3.28-.23-3.85-1.79-.57-1.56.23-3.28,1.79-3.85,16.52-6.03,28.23-13.61,34.82-22.52,6.95-9.42,5.51-16.82,5.44-17.13-.04-.2-.07-.43-.07-.63l-1.76-538.61c-.03-.85-.07-1.78-.11-2.7,0-.06,0-.12,0-.18,1.12-64.59-40.58-87.72-75.77-95.74-1.82-.42-3.77-.83-5.99-1.26-3.86-.71-7.84-1.31-11.83-1.77l-388.42-44.51c-.2-.02-21.01-2.17-49.66,10.3-26.51,11.53-65.34,38.29-99.84,100.26-22.64,40.67-36.93,85.1-42.48,132.04-10.81,91.34-34.36,314.4-19.65,412.57.01.08.02.17.03.26.01.23,1.75,23.31,21.18,40.51,1.28,1.14,2.52,2.16,3.79,3.12,7.87,5.99,16.52,9.26,34.28,12.96,5.54,1.16,12.2,2.4,21.56,4.04l328.48,54.4c.47.07,52.37,7.36,80.25-15.02,10.46-8.39,16.3-20.06,17.37-34.68.67-9.31,2.3-24.79,2.79-29.31,3.77-34.81,4.12-92.2,4.53-158.65.36-57.76.76-123.23,3.56-185.53,1.5-33.11,3.48-61.95,6.08-88.19.16-1.65,1.65-2.85,3.28-2.69,1.65.16,2.85,1.63,2.69,3.28-2.59,26.13-4.57,54.87-6.06,87.87-2.79,62.18-3.2,127.59-3.56,185.3-.41,66.61-.77,124.14-4.57,159.25-.48,4.5-2.11,19.89-2.77,29.1-1.19,16.36-7.79,29.46-19.61,38.94-18.25,14.64-44.99,17.59-63.58,17.59Z" fill="#2b2b2b"/><path d="M605.29,405.8c-.1,0-.2,0-.3-.01-1.65-.16-2.85-1.63-2.69-3.28,6.95-70.04,18.1-118.86,34.06-149.26,8.85-16.86,19.39-28.09,31.31-33.38.19-.08.39-.15.6-.19,1.61-.34,3.25-.69,4.89-1.06l.74-.16c6.21-1.37,12.62-2.78,18.94-3.52,1.65-.2,3.13.99,3.33,2.63.19,1.65-.99,3.14-2.63,3.33-6.02.7-12.28,2.08-18.34,3.42l-.73.16c-1.56.35-3.11.69-4.64,1.01-10.54,4.78-20.01,15.06-28.15,30.56-15.6,29.7-26.52,77.81-33.4,147.06-.15,1.55-1.46,2.7-2.98,2.7Z" fill="#2b2b2b"/><path d="M539.85,951.42c-13.21,0-29.12-1.13-46.48-4.68l-341.91-55.11c-3.44-.55-6.89-1.34-10.23-2.35-12.62-3.81-23.54-10.67-31.59-19.83-6.53-7.44-10.42-15.31-11.55-23.41-.23-1.64.92-3.16,2.56-3.39,1.65-.23,3.16.92,3.39,2.56.96,6.91,4.37,13.73,10.11,20.27,7.31,8.33,17.27,14.57,28.81,18.05,3.08.93,6.26,1.66,9.45,2.17l341.97,55.12s.08.01.12.02c43.32,8.86,78.22,2.05,81.75,1.32l141.52-65.23s.1-.04.15-.06c4.59-1.82,8.66-4.46,12.08-7.85,15.63-15.42,14.04-42.11,14.03-42.38,0-.06,0-.13,0-.2l-.48-427.96c0-.09,0-.18.01-.26,5.14-59.16,3.99-102.53-3.49-132.6-2.36-9.46-5.41-17.73-9.08-24.55-2.66-4.94-5.6-9.13-8.98-12.81-6.14-6.7-14.91-8.97-28.43-7.39-1.66.2-3.14-.98-3.33-2.63-.19-1.65.98-3.14,2.63-3.33,9.71-1.14,23.74-1.41,33.55,9.29,3.72,4.05,6.94,8.64,9.84,14.02,3.96,7.37,7.11,15.86,9.62,25.95,7.64,30.7,8.84,74.67,3.66,134.43l.48,427.74c.14,2.25,1.45,29.92-15.8,46.94-3.98,3.93-8.69,7-14,9.12l-141.75,65.34c-.19.09-.39.15-.59.2-.96.22-15.63,3.46-38.03,3.46Z" fill="#2b2b2b"/><path d="M672.83,482.32c-2.47,0-5.01-.68-7.57-2.25-.84-.52-1.38-1.42-1.43-2.41l-.09-1.81-2.05-42.29c-.04-.79.23-1.55.76-2.14,10.71-12.02,20.8-8.94,24.65-7.06,1.53.74,2.45,1.47,2.62,1.61.67.55,1.07,1.36,1.09,2.22l1.2,39.04c.02.56-.13,1.12-.41,1.6,0,0-.14.24-.41.65-4.42,6.85-11.08,12.84-18.37,12.84ZM669.75,475.64c7.48,3.07,14.45-6.44,16.24-9.14l-1.12-36.54c-.12-.06-.25-.13-.39-.2-3.14-1.54-9.39-2.87-16.72,4.77l1.99,41.11Z" fill="#2b2b2b"/><path d="M696.2,577.12c-.17,0-.34-.01-.51-.04l-38.72-6.66c-1.58-.27-2.67-1.74-2.47-3.34l11-86.39c.17-1.3,1.16-2.35,2.46-2.58l21.15-3.71c.85-.15,1.72.07,2.39.61.67.54,1.08,1.33,1.13,2.19l2.65,51.53,17.06,17.53c.92.94,1.11,2.37.49,3.52l-13.99,25.76c-.53.98-1.55,1.57-2.64,1.57ZM660.82,564.99l33.77,5.81,11.91-21.93-16.31-16.76c-.51-.52-.81-1.21-.85-1.94l-2.54-49.27-15.63,2.74-10.36,81.35Z" fill="#2b2b2b"/><path d="M504.69,774.84c-1.51,0-2.42-.09-2.46-.1l-7.82-1.03c-.96-.13-1.63-1.01-1.51-1.96.13-.96,1-1.63,1.96-1.51l7.77,1.02s0,0,0,0c0,0,.78.07,2.04.07,3.88,0,13.8-.71,22.21-7.34.76-.6,1.86-.47,2.46.29.6.76.47,1.86-.29,2.46-9.27,7.3-20.14,8.09-24.38,8.09ZM482.7,772.16c-.08,0-.15,0-.23-.01-9.11-1.19-20.99-2.74-34.79-4.52-.96-.12-1.63-1-1.51-1.96s1-1.64,1.96-1.51c13.81,1.79,25.69,3.33,34.8,4.52.96.13,1.63,1,1.51,1.96-.12.88-.87,1.52-1.73,1.52ZM435.98,766.1c-.07,0-.15,0-.23-.01-10.8-1.39-22.5-2.89-34.78-4.45-.96-.12-1.64-1-1.52-1.96.12-.96.98-1.65,1.96-1.51,12.28,1.56,23.99,3.06,34.79,4.45.96.12,1.64,1,1.51,1.96-.11.88-.87,1.53-1.73,1.53ZM389.27,760.13c-.07,0-.15,0-.22-.01-11.29-1.43-22.96-2.9-34.78-4.38-.96-.12-1.64-.99-1.52-1.95.12-.96,1-1.64,1.95-1.52,11.82,1.48,23.5,2.95,34.79,4.38.96.12,1.64,1,1.52,1.96-.11.88-.87,1.53-1.73,1.53ZM535.89,758.2c-.31,0-.63-.08-.92-.26-.82-.51-1.08-1.59-.57-2.41,4.54-7.35,6.83-17.13,6.83-29.06,0-1.2-.02-2.44-.07-3.69-.04-.97.72-1.78,1.68-1.81.98-.04,1.78.72,1.81,1.68.05,1.29.07,2.57.07,3.82,0,12.59-2.47,22.99-7.36,30.9-.33.54-.9.83-1.49.83ZM342.58,754.27c-.07,0-.14,0-.22-.01-11.6-1.44-23.27-2.88-34.79-4.28-.96-.12-1.64-.99-1.53-1.95.12-.96.99-1.64,1.95-1.53,11.52,1.4,23.2,2.84,34.8,4.28.96.12,1.64.99,1.52,1.95-.11.89-.86,1.53-1.73,1.53ZM295.85,748.55c-.07,0-.14,0-.21-.01-12.33-1.49-24.04-2.88-34.81-4.13-.96-.11-1.65-.98-1.54-1.94.11-.96.99-1.64,1.94-1.54,10.78,1.26,22.49,2.65,34.82,4.13.96.12,1.64.99,1.53,1.95-.11.89-.86,1.54-1.74,1.54ZM249.09,743.04c-.07,0-.13,0-.2-.01-12.99-1.49-24.72-2.79-34.85-3.86-.96-.1-1.66-.96-1.56-1.92.1-.96.97-1.66,1.92-1.56,10.14,1.07,21.87,2.37,34.88,3.86.96.11,1.65.98,1.54,1.94-.1.89-.86,1.55-1.74,1.55ZM202.26,737.95c-.06,0-.12,0-.18,0-2.4-.24-4.72-.47-6.95-.68-9.9-.95-19.28-2.34-27.86-4.13-.95-.2-1.55-1.12-1.36-2.07.2-.95,1.12-1.55,2.07-1.36,8.46,1.76,17.71,3.13,27.48,4.07,2.24.21,4.56.44,6.96.69.96.1,1.66.95,1.57,1.92-.09.9-.85,1.58-1.74,1.58ZM155.98,730.37c-.15,0-.31-.02-.46-.06-12.68-3.48-23.66-8.03-32.65-13.54-.82-.5-1.08-1.58-.58-2.41.5-.83,1.58-1.08,2.41-.58,8.7,5.33,19.38,9.75,31.74,13.15.93.26,1.48,1.22,1.22,2.15-.21.78-.92,1.29-1.69,1.29ZM542.43,712.48s-.06,0-.09,0c-.96-.05-1.71-.87-1.66-1.84.3-5.66.94-17.73,1.95-35.02.06-.96.9-1.7,1.85-1.65.96.06,1.7.88,1.65,1.85-1,17.28-1.65,29.35-1.95,35-.05.93-.82,1.66-1.75,1.66ZM114.06,710.03c-.4,0-.8-.14-1.13-.42-12.97-11.04-15.05-21.23-15.13-21.66-.02-.13-.04-.26-.03-.39,0,0,.11-3.37.33-9.46.04-.97.87-1.74,1.81-1.68.97.04,1.72.85,1.68,1.81-.19,5.2-.3,8.41-.33,9.23.31,1.34,2.64,9.87,13.93,19.48.74.63.82,1.73.2,2.47-.35.41-.84.62-1.33.62ZM100.32,667.88s-.05,0-.07,0c-.97-.04-1.72-.85-1.68-1.82.46-11.33.99-23.13,1.58-35.07.05-.96.86-1.7,1.83-1.66.96.05,1.71.87,1.66,1.83-.58,11.93-1.11,23.72-1.57,35.04-.04.94-.81,1.68-1.75,1.68ZM545.08,665.48s-.07,0-.11,0c-.96-.06-1.7-.89-1.64-1.85.62-10.34,1.33-22.06,2.15-34.98.06-.96.91-1.7,1.86-1.64.96.06,1.7.89,1.64,1.86-.81,12.91-1.53,24.63-2.14,34.96-.06.93-.83,1.65-1.75,1.65ZM102.5,620.81s-.06,0-.09,0c-.97-.05-1.71-.87-1.66-1.84.61-11.72,1.26-23.51,1.95-35.03.06-.96.88-1.7,1.85-1.64.96.06,1.7.89,1.64,1.85-.69,11.51-1.34,23.29-1.95,35-.05.93-.82,1.66-1.75,1.66ZM547.99,618.52s-.08,0-.11,0c-.96-.06-1.7-.89-1.63-1.86.71-10.95,1.47-22.64,2.31-34.96.07-.96.91-1.69,1.86-1.63.96.07,1.69.9,1.63,1.86-.83,12.31-1.6,23.99-2.31,34.94-.06.93-.83,1.64-1.74,1.64ZM105.18,573.8s-.07,0-.11,0c-.96-.06-1.7-.89-1.64-1.86.75-11.93,1.54-23.7,2.36-34.99.07-.96.92-1.69,1.87-1.62.96.07,1.69.91,1.62,1.87-.82,11.28-1.61,23.04-2.36,34.96-.06.93-.83,1.64-1.74,1.64ZM551.12,571.59s-.08,0-.12,0c-.96-.07-1.69-.9-1.63-1.87.77-11.21,1.6-22.88,2.47-34.94.07-.96.91-1.68,1.87-1.62.96.07,1.69.91,1.62,1.87-.87,12.06-1.7,23.73-2.47,34.93-.06.92-.83,1.63-1.74,1.63ZM108.43,526.84s-.09,0-.13,0c-.96-.07-1.69-.91-1.61-1.88.91-12.03,1.88-23.8,2.87-34.98.08-.96.93-1.68,1.9-1.59.96.08,1.67.93,1.59,1.9-.99,11.17-1.95,22.93-2.86,34.94-.07.92-.84,1.62-1.74,1.62ZM554.46,524.68s-.09,0-.13,0c-.96-.07-1.69-.91-1.62-1.87.84-11.35,1.71-23.01,2.63-34.93.08-.96.91-1.69,1.88-1.61.96.07,1.68.92,1.61,1.88-.92,11.92-1.8,23.57-2.63,34.92-.07.92-.83,1.62-1.74,1.62ZM112.38,479.91c-.05,0-.11,0-.17,0-.96-.09-1.67-.94-1.58-1.9,1.14-12.18,2.33-23.93,3.56-34.9.11-.96.97-1.65,1.93-1.55.96.11,1.65.97,1.55,1.93-1.22,10.96-2.41,22.68-3.55,34.84-.08.91-.85,1.59-1.74,1.59ZM558.03,477.79s-.09,0-.14,0c-.96-.08-1.68-.92-1.61-1.88.93-11.79,1.87-23.54,2.81-34.91.08-.96.91-1.68,1.89-1.6.96.08,1.68.92,1.6,1.89-.94,11.37-1.88,23.12-2.81,34.9-.07.92-.84,1.61-1.74,1.61ZM117.31,433.1c-.07,0-.14,0-.21-.01-.96-.11-1.64-.98-1.53-1.94,1.49-12.48,3.04-24.19,4.63-34.8.14-.96,1.03-1.61,1.99-1.47.96.14,1.62,1.03,1.47,1.99-1.58,10.58-3.14,22.25-4.62,34.7-.11.89-.86,1.54-1.74,1.54ZM561.84,430.92s-.1,0-.15,0c-.96-.08-1.68-.93-1.6-1.89.99-11.74,2-23.48,3-34.9.08-.96.94-1.68,1.9-1.59.96.08,1.67.93,1.59,1.9-1.01,11.41-2.02,23.15-3,34.88-.08.91-.84,1.6-1.74,1.6ZM123.8,386.47c-.09,0-.19,0-.29-.02-.95-.16-1.6-1.06-1.44-2.01,2.16-13.13,4.43-24.75,6.76-34.52.22-.94,1.17-1.52,2.11-1.3.94.22,1.52,1.17,1.3,2.11-2.31,9.69-4.56,21.22-6.71,34.28-.14.86-.88,1.47-1.72,1.47ZM565.9,384.07c-.05,0-.11,0-.16,0-.96-.09-1.67-.94-1.59-1.9,1.05-11.69,2.13-23.42,3.22-34.88.09-.96.96-1.68,1.91-1.58.96.09,1.67.94,1.58,1.91-1.08,11.45-2.17,23.18-3.21,34.86-.08.91-.85,1.59-1.74,1.59ZM133.5,340.45c-.15,0-.31-.02-.46-.06-.93-.25-1.48-1.21-1.23-2.15,3.06-11.25,6.66-22.52,10.71-33.48.34-.91,1.34-1.37,2.25-1.03.91.34,1.37,1.34,1.04,2.25-4.02,10.86-7.59,22.03-10.62,33.18-.21.78-.92,1.29-1.69,1.29ZM570.93,337.33c-.09,0-.18,0-.28-.02-.95-.15-1.61-1.05-1.45-2,1.49-9.39,3.55-21.81,6.29-34.54.2-.95,1.13-1.55,2.08-1.34.95.2,1.55,1.13,1.34,2.08-2.72,12.65-4.77,25-6.25,34.35-.14.86-.88,1.48-1.73,1.48ZM148.49,295.93c-.22,0-.44-.04-.66-.13-.9-.36-1.33-1.38-.97-2.28,4.4-10.87,9.32-21.62,14.63-31.96.44-.86,1.5-1.2,2.36-.76.86.44,1.2,1.5.76,2.36-5.26,10.25-10.14,20.91-14.5,31.68-.28.68-.93,1.09-1.62,1.09ZM579.91,291.18c-.14,0-.28-.02-.42-.05-.94-.23-1.51-1.18-1.28-2.12,3.14-12.63,6.61-23.62,10.61-33.59.36-.9,1.38-1.33,2.28-.97.9.36,1.33,1.38.97,2.28-3.95,9.82-7.37,20.65-10.47,33.13-.2.8-.91,1.33-1.7,1.33ZM168.7,253.52c-.29,0-.58-.07-.85-.22-.85-.47-1.15-1.53-.68-2.38,5.74-10.36,11.95-20.43,18.47-29.92.55-.8,1.64-1,2.43-.45.8.55,1,1.64.45,2.43-6.46,9.4-12.61,19.38-18.29,29.64-.32.58-.92.9-1.53.9ZM595.29,246.84c-.26,0-.52-.06-.76-.18-.87-.42-1.23-1.47-.81-2.34,5.62-11.59,12.21-21.5,19.58-29.47.66-.71,1.77-.75,2.47-.1.71.66.75,1.76.09,2.47-7.14,7.71-13.53,17.34-19,28.62-.3.62-.93.99-1.58.99ZM194.05,213.96c-.36,0-.73-.11-1.04-.34-.78-.58-.94-1.67-.37-2.45,7.2-9.74,14.76-18.85,22.48-27.08.66-.71,1.77-.74,2.47-.08.71.66.74,1.77.08,2.47-7.62,8.14-15.1,17.14-22.22,26.77-.34.46-.87.71-1.41.71ZM623.29,209.58c-.5,0-1-.22-1.35-.63-.62-.74-.51-1.85.23-2.46,9.45-7.83,17.72-14.1,30.68-17.66.93-.25,1.9.29,2.15,1.22.26.93-.29,1.9-1.22,2.15-12.29,3.38-20.25,9.42-29.38,16.98-.33.27-.72.4-1.12.4ZM700.02,190.15s-.1,0-.15,0h-.06c-1.01-.09-2.01-.18-2.99-.25-6.01-.47-11.61-.7-16.66-.7-5.46,0-10.33.26-14.87.8-.96.12-1.83-.57-1.94-1.53-.12-.96.57-1.83,1.53-1.94,4.68-.56,9.68-.83,15.28-.83,5.13,0,10.82.24,16.91.71.99.07,2.01.16,3.04.25.96.08,1.71.93,1.62,1.9-.08.91-.82,1.6-1.71,1.6ZM224.81,178.46c-.46,0-.91-.18-1.26-.53-.67-.69-.66-1.8.04-2.47,9.19-8.92,18.38-16.44,27.33-22.33.81-.53,1.89-.31,2.42.5.53.81.31,1.89-.5,2.42-8.76,5.77-17.79,13.15-26.82,21.92-.34.33-.78.49-1.22.49ZM262.2,150.22c-.63,0-1.24-.34-1.55-.94-.45-.86-.12-1.91.74-2.36,10.87-5.7,20.68-8.44,29.05-8.11.97.04,1.72.85,1.68,1.82s-.84,1.72-1.82,1.68c-7.75-.31-16.97,2.3-27.28,7.71-.26.14-.54.2-.81.2Z" fill="#2b2b2b"/><path d="M152.76,835.06c-6.7,0-13.09-2.51-18.19-7.17-6.35-5.81-10.09-14.48-10.25-23.79-.3-18.07,12.71-33.65,29-34.72,7.38-.48,14.49,2.06,20.05,7.18,6.31,5.82,10.02,14.47,10.17,23.74h0c.28,17.94-12.65,33.5-28.82,34.68-.66.05-1.31.07-1.96.07ZM155.1,775.32c-.46,0-.91.02-1.37.05-13.15.87-23.65,13.71-23.4,28.64.13,7.66,3.15,14.76,8.3,19.46,4.36,3.99,9.93,5.96,15.67,5.54,13.06-.95,23.49-13.78,23.26-28.6h0c-.12-7.64-3.12-14.72-8.23-19.43-3.99-3.67-8.99-5.65-14.22-5.65Z" fill="#2b2b2b"/><path d="M410.83,869.63c-6.98,0-13.57-2.54-18.76-7.29-6.19-5.65-9.65-13.65-9.75-22.52-.21-17.52,13.12-32.76,29.72-33.97,7.78-.56,15.22,2.03,20.93,7.29,6.15,5.66,9.58,13.65,9.67,22.48h0c.19,17.39-13.06,32.6-29.52,33.91-.77.06-1.53.09-2.29.09ZM414.11,811.78c-.54,0-1.09.02-1.64.06-13.49.98-24.33,13.5-24.16,27.91.08,7.19,2.85,13.64,7.8,18.16,4.52,4.13,10.39,6.13,16.54,5.64,13.38-1.06,24.15-13.56,24-27.87h0c-.07-7.16-2.82-13.6-7.74-18.13-4.08-3.76-9.28-5.78-14.8-5.78Z" fill="#2b2b2b"/><path d="M555.12,947.55c-1.66,0-3-1.34-3-3v-33.46c0-1.66,1.34-3,3-3s3,1.34,3,3v33.46c0,1.66-1.34,3-3,3Z" fill="#2b2b2b"/><path d="M603.9,449.19c-1.64,0-2.98-1.32-3-2.96,0-.18-.22-18.09,1.38-43.43,0-.09,0-.19.02-.31,2.93-46.12,11.23-109.42,34.11-149.34,10.13-17.67,22.37-29.25,36.36-34.42,2.01-.76,4.12-1.39,6.25-1.88,4.79-1.13,9.47-1.78,13.88-1.93.11-.01.21-.02.32-.02,18.29-.58,33.17,7.42,42.95,23.18,7.49,12.06,9.53,24.73,9.75,26.29.04.19.06.39.06.58,0,1.66-1.34,3-3,3-1.36,0-2.51-.91-2.88-2.15-.05-.15-.08-.31-.1-.47-.07-.51-1.77-12.54-8.93-24.07-8.68-13.98-21.32-20.81-37.57-20.35-.07,0-.15.01-.22.02-4.07.13-8.41.73-12.9,1.78-1.88.43-3.73.99-5.51,1.66-12.66,4.68-23.84,15.37-33.25,31.79-22.33,38.95-30.46,101.36-33.34,146.86,0,.04,0,.08,0,.11h0c-1.59,25.13-1.38,42.87-1.37,43.04.02,1.66-1.3,3.02-2.96,3.04-.01,0-.03,0-.04,0ZM608.2,403.51s0,0,0,0c0,0,0,0,0,0ZM608.28,402.92h0s0,0,0,0Z" fill="#2b2b2b"/></svg>