<?xml version="1.0" encoding="UTF-8"?><svg id="_レイヤー_3" xmlns="http://www.w3.org/2000/svg" width="400" height="1000" viewBox="0 0 400 1000"><path d="M225.41,771.81l-.51.08-16.87,2.55c.46-11.79.29-22.91-.33-33.24l15.41-1.88.63-.06c1.58,18.71,1.68,32.54,1.68,32.54Z" fill="#454545"/><path d="M207.69,741.2c.62,10.34.8,21.46.33,33.24l-7.16,1.08c-38.2,4.27-57.77-7.09-57.77-7.09.69-11.47,1.71-22.02,2.93-31.69l.8.1s2.78,2.93,17.07,4.46c6.7.71,15.92,1.1,28.56.75,4.04-.12,8.44-.31,13.21-.59l2.02-.25Z" fill="#454545"/><path d="M207.69,741.2l-2.02.25c-4.78.29-9.17.48-13.21.59l-.06-2.25s.39-71.94-.24-78.8c0,0,12.63,31.25,15.53,80.2Z" fill="#454545"/><path d="M204.95,54.31l-2.13,49.07s-.94-.38-2.55-.89c-3.54-1.14-10.35-2.97-17.68-2.97-5.57,0-10.28.76-13.47,1.49-2.92.65-4.62,1.28-4.62,1.28v-49.07s.45-.1,1.33-.25c1.65-.27,4.76-.75,8.86-1.07,2.63-.2,5.66-.34,8.96-.34,3.68,0,7.25.3,10.38.7,4.36.56,7.88,1.32,9.65,1.75.82.19,1.27.31,1.27.31Z" fill="#454545"/><path d="M199.21,24.04l4.61,29.36-.14.61c-1.77-.43-5.29-1.19-9.65-1.75l.23-1.91-2.38-18.02h-14.64l-2.64,18.5.08,1.08c-4.1.32-7.21.8-8.86,1.07l-.23-1.25,5.14-27.68h28.47Z" fill="#454545"/><path d="M200.27,102.49l-.18.77v493.36c-5.3,1.88-17.85,5.14-30.76-.17V101.97l-.21-.96c3.2-.72,7.9-1.49,13.47-1.49,7.33,0,14.14,1.83,17.68,2.97Z" fill="#f9f9f9"/><rect x="176.36" y="608.64" width="7.52" height="43.25" fill="#454545"/><path d="M167.3,654.85l2.44.2c-3.28,40.3-5.68,84.75-5.68,84.75l-.15,1.5c-14.29-1.52-17.07-4.46-17.07-4.46l-.8-.1c7.08-55.63,21.27-81.9,21.27-81.9Z" fill="#454545"/><path d="M167.3,654.85l.02-59.28c.67.32,1.34.62,2.01.89,12.92,5.31,25.46,2.04,30.76.17,1.69-.59,2.64-1.06,2.64-1.06l-.94,56.44c13.84,19.9,19.57,59.11,21.95,87.26l-.63.06-15.41,1.88c-2.9-48.95-15.53-80.2-15.53-80.2.63,6.86.24,78.8.24,78.8l.06,2.25c-12.64.36-21.86-.04-28.56-.75l.15-1.5s2.4-44.45,5.68-84.75l-2.44-.2ZM183.88,651.89v-43.25h-7.52v43.25h7.52Z" fill="#454545"/><path d="M118.3,958.39c-4.25-1.95-5.25-1.95-5.86-1.95-.08,0-.17,0-.25.01l30.9-188.01s19.57,11.36,57.77,7.09l7.16-1.08,16.87-2.55.19,1.26,47.42,203.77-29.76-86.38,20.01,84.04c-1.6-.77-3.26-1.2-4.43-1.5-.3-.08-.64-.17-.93-.25-.64-.63-1.52-1.02-2.5-1.02-1.26,0-2.38.65-3.01,1.64-1.21.1-3.35-.14-4.32-.38-.48-.24-1-.36-1.56-.36-1.5,0-2.77.9-3.3,2.2-.93-.72-1.92-1.7-2.4-2.31-.56-1.24-1.81-2.1-3.24-2.1-1.97,0-3.56,1.59-3.56,3.56,0,.83-2.32,2.28-3.85,2.71-.34-.2-.72-.36-1.13-.43-.61-.49-1.49-1.26-2.14-1.83-2.26-1.98-3.92-3.43-5.45-4.04-.7-.49-1.54-.76-2.45-.76-1.33,0-3.15.45-7.34,3.72-.57.44-1.08.83-1.52,1.19-1.15-.65-2.58-1.35-4.29-2.2-.33-.17-.7-.34-1.03-.51-.26-.55-.59-.96-.89-1.27-.9-.89-2.14-1.38-3.51-1.38-2.09,0-4.92,1.35-7.27,3.42-1.26-1.59-2.72-2.73-3.91-3.67-.62-.48-1.52-1.19-1.78-1.54-.05-1.33-.84-2.53-2.04-3.09-2.14-1.01-3.43.04-6.29,2.34-1.39,1.12-3.11,2.54-4.5,3.7-.05.02-.08.06-.12.1-.44-.55-.89-1.12-1.27-1.59-3.81-4.84-5.39-6.83-8.23-5.85-1.52.52-2.5,1.94-2.5,3.6s-3.03,2.92-4.95,3.67c-2.38-2.84-5.92-5.74-8.29-5.74-.32,0-.69.05-1.08.14-1.91-.7-4.15-.53-6.05-.39-.34.04-.8.07-1.19.08-.51-.43-1.14-.72-1.83-.82-1.38-.78-4.42-2.99-5.37-3.98-.57-1.22-1.81-2.08-3.24-2.08-1.85,0-3.37,1.41-3.55,3.22-.38.64-1.65,1.5-2.64,1.88-.36-1.95-2.2-2.78-5.49-4.28Z" fill="#c48d69"/><path d="M184.05,779.49c-27.52,0-41.77-8.06-42.47-8.46-.98-.57-1.56-1.64-1.49-2.77.65-10.8,1.64-21.53,2.95-31.88,6.53-51.3,18.92-77.67,21.24-82.26l.02-58.55c0-1.03.53-1.99,1.4-2.54.87-.55,1.97-.61,2.9-.16.61.29,1.23.57,1.85.82t0,0c12.09,4.97,24.04,1.73,28.62.11,1.48-.52,2.32-.93,2.33-.93.94-.45,2.05-.39,2.92.17.88.56,1.4,1.53,1.39,2.58l-.92,55.48c13.69,20.48,19.48,59.01,21.92,87.91,1.57,18.61,1.69,32.64,1.69,32.78.01,1.48-1.06,2.74-2.52,2.98l-.51.08-24.07,3.64s-.08.01-.11.02c-6.19.69-11.91.98-17.14.98ZM146.21,766.63c5.32,2.42,23.71,9.32,54.26,5.92l21.89-3.31c-.11-4.84-.46-16.01-1.62-29.72-2.41-28.56-8.08-66.63-21.42-85.8-.36-.52-.55-1.13-.54-1.76l.86-52.02c-5.68,1.8-17.23,4.3-29.34.1l-.02,54.81c0,.5-.12.99-.36,1.42-.14.26-14.02,26.56-20.93,80.85-1.21,9.59-2.15,19.51-2.79,29.51Z" fill="#2b2b2b"/><path d="M208.03,776.21s-.02,0-.03,0c-.95-.02-1.72-.78-1.72-1.74.43-11.11.32-22.24-.33-33.16-2.85-48.06-15.28-79.34-15.4-79.65-.36-.9.07-1.92.97-2.28.9-.36,1.92.07,2.28.97.13.31,12.77,32.08,15.65,80.75.66,11.04.77,22.28.33,33.42-.04.94-.81,1.69-1.75,1.69Z" fill="#2b2b2b"/><path d="M202.82,106.39c-.38,0-.76-.07-1.12-.22,0,0-.87-.35-2.33-.81-3.29-1.06-9.82-2.83-16.77-2.83-5.45,0-9.97.77-12.81,1.41,0,0,0,0,0,0-2.65.59-4.22,1.16-4.24,1.17-.92.34-1.95.2-2.75-.36-.8-.56-1.29-1.48-1.29-2.46v-49.07c-.01-1.42.99-2.65,2.38-2.94,0,0,.49-.1,1.43-.27,2.97-.49,6.04-.86,9.15-1.1,3.05-.23,6.14-.35,9.19-.35,3.4,0,7.03.24,10.77.73,4.62.59,8.23,1.39,9.97,1.81.85.2,1.33.32,1.33.32,1.36.36,2.29,1.62,2.23,3.03l-2.13,49.07c-.04.97-.55,1.87-1.37,2.39-.49.32-1.06.48-1.62.48ZM169.11,101.01h0,0ZM182.59,96.52c6.99,0,13.54,1.58,17.41,2.74l1.85-42.61c-1.74-.39-4.67-.97-8.2-1.43-3.49-.45-6.85-.68-10-.68-2.9,0-5.83.11-8.73.34-2.53.2-5.02.48-7.44.85v42.56c.32-.07.64-.15.98-.23,3.14-.71,8.13-1.56,14.13-1.56Z" fill="#2b2b2b"/><path d="M203.82,56.4c-1.45,0-2.73-1.06-2.96-2.54l-4.21-26.82h-23.41l-4.69,25.23c-.3,1.63-1.87,2.7-3.5,2.4-1.63-.3-2.7-1.87-2.4-3.5l5.14-27.68c.26-1.42,1.5-2.45,2.95-2.45h28.47c1.48,0,2.73,1.08,2.96,2.53l4.61,29.36c.26,1.64-.86,3.17-2.5,3.43-.16.02-.31.04-.47.04Z" fill="#2b2b2b"/><path d="M174.61,52.57c-.08,0-.17,0-.25-.02-.96-.14-1.62-1.02-1.49-1.98l2.64-18.5c.12-.86.86-1.5,1.73-1.5h14.64c.88,0,1.62.65,1.73,1.52l2.38,18.02c.13.96-.55,1.84-1.51,1.96-.96.12-1.84-.55-1.96-1.51l-2.18-16.5h-11.59l-2.42,17c-.12.87-.87,1.5-1.73,1.5Z" fill="#2b2b2b"/><path d="M169.33,601.35c-1.66,0-3-1.34-3-3V101.97c0-1.66,1.34-3,3-3s3,1.34,3,3v496.38c0,1.66-1.34,3-3,3Z" fill="#2b2b2b"/><path d="M200.09,601.35c-1.66,0-3-1.34-3-3V103.27c0-1.66,1.34-3,3-3s3,1.34,3,3v495.08c0,1.66-1.34,3-3,3Z" fill="#2b2b2b"/><path d="M263.87,982.29c-1.36,0-2.59-.93-2.92-2.31l-1.12-4.71-20.01-84.04c-.37-1.56.55-3.13,2.08-3.58,1.53-.45,3.15.39,3.67,1.9l10.84,31.45-34.25-147.18c-.38-1.61.63-3.23,2.24-3.6,1.62-.38,3.23.63,3.6,2.24l47.42,203.77c.36,1.56-.56,3.12-2.09,3.56-1.53.44-3.15-.4-3.67-1.91l-9.85-28.59,6.97,29.29c.38,1.61-.61,3.23-2.23,3.61-.23.06-.47.08-.7.08Z" fill="#2b2b2b"/><path d="M112.19,959.45c-.16,0-.33-.01-.49-.04-1.64-.27-2.74-1.81-2.47-3.45l30.9-188.01c.27-1.63,1.82-2.74,3.45-2.47,1.64.27,2.74,1.81,2.47,3.45l-30.9,188.01c-.24,1.47-1.51,2.51-2.96,2.51Z" fill="#2b2b2b"/><path d="M183.39,743.93c-7.51,0-14.1-.3-19.68-.89-14.21-1.51-17.62-4.42-18.16-4.99-.66-.7-.63-1.81.07-2.47.69-.65,1.76-.64,2.43.02.16.13,3.32,2.62,16.04,3.97,7.58.81,17.11,1.06,28.33.74,4.22-.12,8.63-.32,13.1-.59l17.38-2.12c.96-.12,1.83.57,1.95,1.53.12.96-.57,1.83-1.53,1.95l-17.43,2.13s-.07,0-.11.01c-4.53.27-8.99.47-13.27.6-3.17.09-6.22.13-9.12.13Z" fill="#2b2b2b"/><path d="M164.05,741.55s-.06,0-.1,0c-.97-.05-1.71-.88-1.65-1.84.02-.44,2.44-44.93,5.68-84.8l.07-.86c.08-.96.93-1.68,1.89-1.6.96.08,1.68.93,1.6,1.89l-.07.86c-3.24,39.81-5.65,84.25-5.68,84.7-.05.93-.82,1.66-1.75,1.66Z" fill="#2b2b2b"/><path d="M192.4,741.55h0c-.97,0-1.75-.79-1.74-1.76,0-.72.38-71.94-.23-78.63-.09-.96.62-1.81,1.58-1.9.96-.08,1.81.62,1.9,1.58.63,6.86.26,76.03.24,78.97,0,.96-.79,1.74-1.75,1.74Z" fill="#2b2b2b"/><path d="M183.88,653.64h-7.52c-.97,0-1.75-.78-1.75-1.75v-43.25c0-.97.78-1.75,1.75-1.75h7.52c.97,0,1.75.78,1.75,1.75v43.25c0,.97-.78,1.75-1.75,1.75ZM178.11,650.14h4.02v-39.75h-4.02v39.75Z" fill="#2b2b2b"/><path d="M155.01,945.13c-.05,0-.11,0-.16,0-.96-.09-1.67-.94-1.58-1.9l13.84-151.22c.09-.96.94-1.67,1.9-1.58.96.09,1.67.94,1.58,1.9l-13.84,151.22c-.08.91-.85,1.59-1.74,1.59Z" fill="#2b2b2b"/><path d="M183.76,954.71c-.95,0-1.72-.75-1.75-1.7l-2.13-81.46c-.02-.97.74-1.77,1.7-1.8.95-.02,1.77.74,1.8,1.7l2.13,81.46c.02.97-.74,1.77-1.7,1.8-.02,0-.03,0-.05,0Z" fill="#2b2b2b"/><path d="M240.2,954.89c-.85,0-1.59-.62-1.73-1.48l-25.91-167.19c-.15-.96.51-1.85,1.46-2,.95-.15,1.85.51,2,1.46l25.91,167.19c.15.96-.51,1.85-1.46,2-.09.01-.18.02-.27.02Z" fill="#2b2b2b"/><path d="M208.25,931.81c-.9,0-1.66-.68-1.74-1.59l-12.24-135.77c-.09-.96.62-1.81,1.59-1.9.97-.08,1.81.62,1.9,1.59l12.24,135.77c.09.96-.62,1.81-1.59,1.9-.05,0-.11,0-.16,0Z" fill="#2b2b2b"/><path d="M129.81,949.03c-.08,0-.17,0-.25-.02-.96-.14-1.62-1.03-1.48-1.98l19.17-132.58c.14-.96,1.02-1.62,1.98-1.48.96.14,1.62,1.03,1.48,1.98l-19.17,132.58c-.13.87-.87,1.5-1.73,1.5Z" fill="#2b2b2b"/><path d="M249.58,976.51c-.14,0-.25-.09-.25-.23h0c0-.06,0-.09,0-.12,0-.04,0-.07,0-.11,0-.14.11-.25.25-.25s.25.11.25.25v.06s.01.08.01.13c0,.14-.11.27-.25.27Z" fill="#2b2b2b"/><path d="M112.44,956.44c.61,0,1.6,0,5.86,1.95,3.29,1.5,5.13,2.33,5.49,4.28.99-.38,2.26-1.24,2.64-1.88.18-1.81,1.7-3.22,3.55-3.22,1.44,0,2.67.86,3.24,2.08.95.99,3.99,3.2,5.37,3.98.69.1,1.32.39,1.83.82.39-.01.84-.05,1.19-.08,1.9-.14,4.13-.31,6.05.39.39-.1.76-.14,1.08-.14,2.38,0,5.92,2.9,8.29,5.74,1.92-.75,4.95-2.01,4.95-3.67s.97-3.08,2.5-3.6c2.84-.99,4.42,1.01,8.23,5.85.38.48.83,1.05,1.27,1.59.04-.04.07-.07.12-.1,1.39-1.15,3.11-2.58,4.5-3.7,2.85-2.31,4.15-3.35,6.29-2.34,1.2.56,2,1.76,2.04,3.09.26.36,1.16,1.07,1.78,1.54,1.19.94,2.65,2.08,3.91,3.67,2.35-2.07,5.18-3.42,7.27-3.42,1.37,0,2.6.49,3.51,1.38.3.31.63.72.89,1.27.33.17.7.34,1.03.51,1.71.84,3.14,1.54,4.29,2.2.44-.36.95-.75,1.52-1.19,4.19-3.27,6.01-3.72,7.34-3.72.9,0,1.75.27,2.45.76,1.53.61,3.2,2.06,5.45,4.04.65.57,1.53,1.34,2.14,1.83.4.07.78.23,1.13.43,1.53-.43,3.85-1.88,3.85-2.71,0-1.97,1.59-3.56,3.56-3.56,1.44,0,2.69.87,3.24,2.1.48.61,1.47,1.58,2.4,2.31.53-1.3,1.81-2.2,3.3-2.2.56,0,1.08.12,1.56.36.97.24,3.11.48,4.32.38.63-.99,1.75-1.64,3.01-1.64.97,0,1.85.39,2.5,1.02.29.08.63.17.93.25,1.18.3,2.83.72,4.43,1.5,2.63,1.25,5.11,3.4,5.11,7.38,0,1.96-1.59,3.56-3.56,3.56s-3.56-1.6-3.56-3.56c0-.89-2.84-1.63-4.21-1.98-.27-.07-.57-.14-.88-.23-.2.1-.42.19-.64.27-1.03.38-2.29.57-3.84.57-.96,0-1.82-.04-2.58-.11-.04.07-.08.14-.13.21-.97,1.47-2.54,2.32-4.32,2.32s-4.24-1.24-6.32-2.89c-2.58,2.5-6.37,3.9-8.88,3.9-.94,0-1.77-.19-2.48-.57-.14-.07-.27-.15-.4-.25-1.21-.57-2.54-1.73-4.36-3.31-.76-.67-1.88-1.65-2.67-2.27-.4-.02-.8-.11-1.15-.24-1.66,1.06-4.34,3.22-5.6,4.4-.64.63-1.53,1.01-2.5,1.01-1.2,0-2.26-.58-2.9-1.49-.96-.63-3.45-1.87-4.71-2.48-1.5-.74-2.59-1.28-3.33-1.91-1.56.96-3.47,2.98-3.51,3.92,0,1.97-1.59,3.56-3.56,3.56s-3.54-1.57-3.56-3.53h0v-.02h0c0-3.02-1.47-4.32-3.89-6.2-.67-.52-1.38-1.08-2.04-1.72-1.28,1.05-2.71,2.23-3.64,2.99-.78.65-1.44,1.19-2,1.62-.43.56-1.01,1-1.71,1.24-2.77.96-4.15-.77-7.82-5.43-.14-.18-.3-.38-.46-.59-2.32,2.45-5.67,3.73-7.51,4.43-.25.1-.55.2-.77.3-.64.58-1.49.94-2.42.94-1.24,0-2.33-.63-2.97-1.59-.69-.95-2.1-2.61-3.3-3.83-.56.37-1.22.57-1.92.57-1.49,0-2.76-.9-3.3-2.2-.71-.01-1.68.07-2.29.12-2.35.18-4.6.34-6.26-1.2-.02-.01-.05-.04-.07-.06-.94-.45-2.28-1.28-4.29-2.76-.34-.25-.65-.49-.95-.71-2.15,1.92-5.11,3.23-7.65,3.23-1.76,0-3.28-.61-4.41-1.73-.53-.53-1.14-1.38-1.5-2.58-1.38-.69-3.49-1.64-4.57-2.01-2.01.12-3.75-1.52-3.75-3.55,0-1.37.75-2.6,1.96-3.23.48-.26.99-.4,1.53-.43.08-.01.17-.01.25-.01Z" fill="#2b2b2b"/></svg>