<?xml version="1.0" encoding="UTF-8"?><svg id="_レイヤー_4" xmlns="http://www.w3.org/2000/svg" width="1000" height="1000" viewBox="0 0 1000 1000"><path d="M863.83,922.13c.09,2.56-1.27,4.97-3.55,6.17-6.77,3.56-22.25,9.25-41.35.37-2.41-1.12-3.92-3.58-3.86-6.24l.86-37.21c.07-2.99,2.03-5.36,4.57-6.22,1.39-.47,2.95-.5,4.48.06,6.85,2.49,17.08,4.39,28.55.34.85-.3,1.71-.42,2.54-.38,3.39.13,6.34,2.81,6.47,6.47l1.29,36.64Z" fill="#555"/><path d="M221.81,770.7c.09,2.57-1.28,4.97-3.55,6.17-6.77,3.56-19.33,9.72-38.43.85h-.28l.21-19.59,1.72.02,39.9.19.43,12.36Z" fill="#555"/><path d="M184.92,922.13c.09,2.56-1.27,4.97-3.55,6.17-6.77,3.56-22.25,9.25-41.35.37-2.41-1.12-3.92-3.58-3.86-6.24l.86-37.21c.08-3.45,2.67-6.07,5.79-6.51,1.05-.15,2.16-.05,3.26.35,6.85,2.49,17.08,4.39,28.55.34.76-.27,1.53-.39,2.28-.39,3.49,0,6.6,2.73,6.73,6.48l1.29,36.64Z" fill="#555"/><path d="M883.23,167.36c-1.09,3.83-4.61,6.79-8.98,6.79H125.75c-4.3,0-7.76-2.85-8.91-6.58-.54-1.71-.58-3.61,0-5.5l27.4-88.89c1.21-3.91,4.83-6.58,8.92-6.58h695.9c4.18,0,7.84,2.77,8.98,6.78l25.19,88.9c.49,1.75.46,3.49,0,5.08Z" fill="#e7c79e"/><path d="M818.23,199.88l-631.86-1.97-58.12-.18c-6.31-.02-11.41-5.14-11.41-11.45v-18.71c1.15,3.73,4.61,6.58,8.91,6.58h748.5c4.37,0,7.89-2.96,8.98-6.79v21.24c0,6.34-5.15,11.47-11.49,11.45l-53.51-.17Z" fill="#c9a57a"/><path d="M853.72,218.98l2.35,660.04c-.83-.04-1.69.08-2.54.38-11.47,4.05-21.7,2.15-28.55-.34-1.53-.56-3.09-.53-4.48-.06l-.28-.76V207.38s6.98-5.85,17.83-5.22c8.82.51,15.64,7.98,15.67,16.82Z" fill="#c7ccd1"/><path d="M820.22,772.08v49.93h-.58c-19.71,7.39-34.72.54-41.2-3.53-2.18-1.36-3.36-3.87-3.07-6.42l4.08-36.43c.33-2.88,2.37-5.03,4.89-5.73,1.44-.4,3.04-.33,4.56.34,11.13,4.91,21.48,3.8,28.49,1.84h2.83Z" fill="#555"/><path d="M221.38,758.34l-39.9-.19-1.72-.02.35-32.26h.47s34.8.01,34.8.01h604.84v46.2h-2.83c-7.01,1.96-17.36,3.07-28.49-1.84-1.52-.67-3.12-.74-4.56-.34l-.6-1.01.28-7.74v-.16l-562.64-2.65Z" fill="#c7ccd1"/><path d="M818.23,199.88l.79,81.46c0,6.89-1.98,11.98-4.84,15.75-7.29,9.62-20.25,10.54-20.25,10.54l-581.98-3.59c-11.03-.88-17.53-5.19-21.34-10.27-4.59-6.12-5.27-13.38-5.27-17.11,0-1.55.12-2.49.12-2.49l.91-75.51v-.75l631.86,1.97ZM578.87,273.35v-45.41h-157.74v45.41h157.74Z" fill="#c7ccd1"/><path d="M818.72,724.54v1.34h-29.13l4.34-418.25s12.96-.92,20.25-10.54l1.67.32,2.87,427.13Z" fill="#c7ccd1"/><rect x="421.13" y="227.94" width="157.74" height="45.41" fill="#b6b6b7"/><path d="M215.38,725.03v.85h-34.8l8.96-431.1,1.07-1.01c3.81,5.08,10.31,9.39,21.34,10.27l3.43,420.99Z" fill="#c7ccd1"/><path d="M185.66,208.38l-.73,68.28-4.82,449.21-.35,32.26-.21,19.59-1.06,98.77-1.59,2.52c-.75,0-1.52.12-2.28.39-11.47,4.05-21.7,2.15-28.55-.34-1.1-.4-2.21-.5-3.26-.35l-.17-1.06,14.07-657.71c.31-14.61,17.73-21.97,28.45-12.03.16.15.33.31.5.47Z" fill="#c7ccd1"/><path d="M874.25,177.15H125.75c-5.44,0-10.17-3.49-11.78-8.7-.74-2.34-.74-4.86,0-7.26l27.4-88.89c1.61-5.2,6.35-8.7,11.79-8.7h695.9c5.49,0,10.37,3.68,11.87,8.96l25.19,88.9c.63,2.24.62,4.56,0,6.73-1.51,5.27-6.38,8.96-11.86,8.96ZM153.16,69.6c-2.79,0-5.23,1.79-6.05,4.47l-27.4,88.89c-.38,1.24-.38,2.52,0,3.71.83,2.69,3.26,4.48,6.05,4.48h748.5c2.82,0,5.32-1.9,6.09-4.61,0,0,0,0,0-.01.32-1.11.32-2.27,0-3.44l-25.19-88.89c-.77-2.71-3.28-4.6-6.09-4.6H153.16Z" fill="#2b2b2b"/><path d="M871.78,203.05h-.05l-53.51-.17-689.98-2.15c-7.94-.03-14.4-6.51-14.4-14.45v-20.21c0-1.66,1.34-3,3-3s3,1.34,3,3v20.21c0,4.64,3.78,8.44,8.42,8.45l743.49,2.32c2.24.04,4.39-.87,6-2.47,1.6-1.6,2.48-3.72,2.48-5.98v-22.32c0-1.66,1.34-3,3-3s3,1.34,3,3v22.32c0,3.87-1.51,7.5-4.25,10.23-2.73,2.72-6.35,4.22-10.2,4.22Z" fill="#2b2b2b"/><path d="M142.64,880.65s-.04,0-.07,0c-1.66-.04-2.97-1.41-2.94-3.06l14.07-657.71c.17-7.95,4.82-14.81,12.13-17.91,7.33-3.11,15.51-1.67,21.36,3.75l.51.48c.61.57.95,1.38.95,2.22l-.73,68.28-4.82,449.21-1.62,150.62c-.02,1.66-1.35,2.97-3.03,2.97-1.66-.02-2.99-1.38-2.97-3.03l7.16-666.77c-4.04-3.44-9.53-4.29-14.46-2.2-5.11,2.17-8.36,6.96-8.48,12.52l-14.07,657.71c-.04,1.63-1.37,2.94-3,2.94Z" fill="#2b2b2b"/><path d="M856.07,882.02c-1.65,0-2.99-1.34-3-2.99l-2.35-660.04c-.02-7.34-5.67-13.42-12.84-13.84-7.23-.42-12.5,2.36-14.66,3.76v563.16c0,1.66-1.34,3-3,3s-3-1.34-3-3V207.38c0-.89.39-1.73,1.07-2.3.32-.27,8.04-6.61,19.93-5.92,10.34.6,18.46,9.3,18.5,19.8l2.35,660.04c0,1.66-1.33,3-2.99,3.01h-.01Z" fill="#2b2b2b"/><path d="M820.22,825.01c-1.66,0-3-1.34-3-3v-49.93c0-1.66,1.34-3,3-3s3,1.34,3,3v49.93c0,1.66-1.34,3-3,3Z" fill="#2b2b2b"/><path d="M820.22,881.24c-1.66,0-3-1.34-3-3v-56.23c0-1.66,1.34-3,3-3s3,1.34,3,3v56.23c0,1.66-1.34,3-3,3Z" fill="#2b2b2b"/><path d="M793.93,310.63h-.02l-581.98-3.59c-.07,0-.15,0-.22,0-10.52-.84-18.43-4.7-23.5-11.46-5.11-6.81-5.87-14.77-5.87-18.91,0-1.34.08-2.28.12-2.68l.91-75.36c.02-1.64,1.36-2.96,3-2.96h.04c1.66.02,2.98,1.38,2.96,3.04l-.91,75.51c0,.12,0,.23-.02.34h0s-.1.8-.1,2.11c0,3.39.61,9.89,4.67,15.31,3.98,5.31,10.4,8.36,19.07,9.07l581.73,3.59c1.1-.11,11.93-1.37,17.98-9.35,2.81-3.7,4.23-8.39,4.23-13.94l-.79-81.78c0-1.66,1.34-3,3-3s3,1.34,3,3v.32l.79,81.43c0,6.92-1.83,12.83-5.45,17.59-8.02,10.58-21.84,11.68-22.43,11.72-.07,0-.14,0-.21,0Z" fill="#2b2b2b"/><path d="M160.6,936.44c-6.49,0-13.87-1.33-21.85-5.04-3.49-1.62-5.68-5.16-5.59-9.03l.86-37.21c.11-4.79,3.63-8.74,8.37-9.41,1.56-.22,3.19-.05,4.71.5,6.17,2.24,15.79,4.12,26.53.33,1.05-.37,2.15-.56,3.28-.56,5.27,0,9.55,4.12,9.73,9.38l1.29,36.64c.13,3.71-1.89,7.22-5.15,8.93-4.72,2.48-12.44,5.48-22.16,5.48ZM143.74,881.64c-.17,0-.34.01-.51.04,0,0,0,0,0,0-1.56.22-3.16,1.53-3.21,3.61l-.86,37.21c-.03,1.48.8,2.83,2.12,3.45,17.6,8.18,31.79,3.32,38.69-.3,1.23-.65,2-1.99,1.95-3.41l-1.29-36.64c-.08-2.25-1.96-3.59-3.73-3.59-.44,0-.87.07-1.28.22-12.42,4.39-23.48,2.23-30.58-.35-.43-.16-.87-.24-1.3-.24ZM142.81,878.71h0,0Z" fill="#2b2b2b"/><path d="M839.52,936.44c-6.49,0-13.87-1.33-21.85-5.04-3.49-1.62-5.68-5.16-5.59-9.03l.86-37.21c.09-4.07,2.75-7.69,6.61-8.99h0c2.12-.72,4.36-.69,6.47.08,6.17,2.24,15.78,4.12,26.52.33,1.2-.42,2.44-.6,3.68-.55,5.04.19,9.14,4.31,9.32,9.36l1.29,36.64c.13,3.71-1.89,7.22-5.15,8.93-4.72,2.48-12.44,5.48-22.16,5.48ZM821.46,881.84h0c-1.5.51-2.5,1.86-2.53,3.45l-.86,37.21c-.03,1.48.8,2.83,2.13,3.45,17.6,8.18,31.79,3.32,38.69-.3,1.23-.65,2-1.99,1.95-3.41l-1.29-36.64c-.08-2.24-1.91-3.51-3.59-3.58-.5-.03-.96.05-1.43.21-12.41,4.38-23.48,2.23-30.57-.35-1.04-.38-1.93-.23-2.49-.04Z" fill="#2b2b2b"/><path d="M819.51,728.88H180.58c-1.66,0-3-1.34-3-3s1.34-3,3-3h638.93c1.66,0,3,1.34,3,3s-1.34,3-3,3Z" fill="#2b2b2b"/><path d="M816.93,764.15h-.01l-32.91-.16-562.64-2.65-39.9-.19c-1.66,0-2.99-1.36-2.99-3.01,0-1.65,1.35-2.99,3-2.99h.01l39.9.19,562.64,2.65,32.91.16c1.66,0,2.99,1.36,2.99,3.01,0,1.65-1.35,2.99-3,2.99Z" fill="#2b2b2b"/><path d="M180.58,728.88s-.04,0-.06,0c-1.66-.03-2.97-1.41-2.94-3.06l8.96-431.1c.03-1.66,1.42-2.98,3.06-2.94,1.66.03,2.97,1.41,2.94,3.06l-8.96,431.1c-.03,1.64-1.37,2.94-3,2.94Z" fill="#2b2b2b"/><path d="M215.38,728.03c-1.65,0-2.99-1.33-3-2.98l-3.43-420.99c-.01-1.66,1.32-3.01,2.98-3.02h.02c1.65,0,2.99,1.33,3,2.98l3.43,420.99c.01,1.66-1.32,3.01-2.98,3.02h-.02Z" fill="#2b2b2b"/><path d="M198.79,785.26c-5.79,0-12.55-1.25-20.22-4.81-1.5-.7-2.16-2.48-1.46-3.98.7-1.5,2.48-2.16,3.98-1.46,18.2,8.45,29.63,2.44,35.77-.78,1.23-.65,2-1.99,1.95-3.41l-.44-12.5c-.08-1.65,1.19-3.06,2.84-3.15,1.65-.07,3.06,1.19,3.15,2.84v.19s.44,12.41.44,12.41c.13,3.7-1.89,7.21-5.15,8.93-3.83,2.01-10.9,5.73-20.88,5.73Z" fill="#2b2b2b"/><path d="M818.72,727.54c-1.65,0-2.99-1.33-3-2.98l-2.87-427.13c-.01-1.66,1.32-3.01,2.98-3.02h.02c1.65,0,2.99,1.33,3,2.98l2.87,427.13c.01,1.66-1.32,3.01-2.98,3.02h-.02Z" fill="#2b2b2b"/><path d="M789.59,728.88h-.03c-1.66-.02-2.99-1.37-2.97-3.03l4.34-418.25c.02-1.66,1.36-2.99,3.03-2.97,1.66.02,2.99,1.37,2.97,3.03l-4.34,418.25c-.02,1.65-1.36,2.97-3,2.97Z" fill="#2b2b2b"/><path d="M783.74,771.89s-.07,0-.11,0c-1.66-.06-2.95-1.45-2.89-3.11l.28-7.74c.06-1.66,1.44-2.95,3.11-2.89,1.66.06,2.95,1.45,2.89,3.11l-.28,7.74c-.06,1.62-1.39,2.89-3,2.89Z" fill="#2b2b2b"/><path d="M578.87,275.1h-157.74c-.97,0-1.75-.78-1.75-1.75v-45.41c0-.97.78-1.75,1.75-1.75h157.74c.97,0,1.75.78,1.75,1.75v45.41c0,.97-.78,1.75-1.75,1.75ZM422.88,271.6h154.24v-41.91h-154.24v41.91Z" fill="#2b2b2b"/><path d="M802.16,828.82c-11.59,0-20.45-4.16-25.58-7.38-3.29-2.05-5.13-5.89-4.69-9.78l4.08-36.42c.48-4.17,3.39-7.59,7.43-8.71,2.28-.63,4.73-.45,6.91.51,10.3,4.54,19.9,3.42,26.14,1.67,1.86-.52,3.79.57,4.31,2.43.52,1.86-.57,3.79-2.43,4.31-7.34,2.05-18.65,3.37-30.85-2.01-.9-.4-1.7-.31-2.21-.17-1.28.35-2.2,1.44-2.35,2.76l-4.08,36.42c-.14,1.23.43,2.43,1.44,3.06,6.53,4.1,20.15,9.96,38.12,3.22,1.81-.68,3.83.24,4.51,2.05.68,1.81-.24,3.83-2.05,4.51-6.8,2.55-13.08,3.53-18.71,3.53Z" fill="#2b2b2b"/></svg>