<?xml version="1.0" encoding="UTF-8"?><svg id="_レイヤー_7" xmlns="http://www.w3.org/2000/svg" width="1000" height="1000" viewBox="0 0 1000 1000"><path d="M842.21,447.99s33.14,81.26,18.01,86.05c-15.12,4.78-20.58-5.98-20.58-5.98l-14.15-56.76,1.28-22.11,15.44-1.2Z" fill="#d9d9d9"/><path d="M840.29,395.11l1.93,48.4-21.22,3.59h-.27c.12-17.54.17-34.94.13-51.99h19.43Z" fill="#3f3f3f"/><path d="M336.64,876.26c-24.01.08-45.14.15-61.81.19-13.36.03-23.85.05-30.64.05-36.64,0-52.82-17.37-59.97-33-5.85-12.77-5.65-24.37-5.65-24.37,0,0-2.98-194.84-1.49-372.63.14-17.56.33-34.96.58-51.99,1.38-97.63,4.42-183.07,10.51-217.83,1.61-9.26,10.14-16.1,20.24-16.29,2.43-.05,5.15-.1,8.12-.15,7.53-.14,16.71-.31,27.29-.5l.04,1.99c-17.37,30.13-9.76,484.88-9.76,484.88,0,0-5.67,99.66,101.44,100.13h353.15s69.47-.93,69.47-72.32,14.47-482.1-3.86-517.33l.02-.73c8.03.24,15.15.52,21.22.84,17.3.92,31.72,12.74,34.7,28.6,7.76,41.26,10.42,120.6,10.62,209.31.04,17.05-.01,34.45-.13,51.99-1.06,148.14-7.23,306.47-7.23,352.32,0,9.39-.9,17.64-2.54,24.88-13.72,61.15-78.51,50.4-78.51,50.4,0,0-3.15.01-8.97.04-11.5.05-33.38.14-61.75.26-85.03.35-228.33.93-325.07,1.26ZM732.05,808.1c0-15.61-13.62-28.26-30.42-28.26s-30.42,12.65-30.42,28.26,13.62,28.26,30.42,28.26,30.42-12.65,30.42-28.26ZM326.34,808.1c0-15.61-13.62-28.26-30.42-28.26s-30.42,12.65-30.42,28.26,13.62,28.26,30.42,28.26,30.42-12.65,30.42-28.26Z" fill="#3f3f3f"/><path d="M810.95,824.3l-1.47,35.33c0,22.03-8.09,53.21-42.93,59.89h-42.87c1.6-8.87-.19-43.35-.19-43.35v-1.43c5.8-.03,8.96-.04,8.96-.04,0,0,64.8,10.75,78.51-50.4Z" fill="#3f3f3f"/><path d="M756.17,112.85c8.91,7.43,24.6,23.63,19.37,44.35-6.07-.32-13.19-.6-21.22-.84-14.05-.41-30.91-.7-49.88-.88v-1.37s.01-11.36-7.71-16.73l-.42-.45c16.43-13.55,40.58-29.2,59.86-24.08Z" fill="#fff5f5"/><path d="M287.61,158.97c8.58-.14,17.61-.29,27-.44,15.03-.24,30.99-.49,47.64-.74,27.43-.4,56.71-.81,86.63-1.17,30.46-.37,61.58-.69,92.08-.94,20.15-.16,40.04-.28,59.29-.36,9.16-.04,18.18-.07,27.01-.08,17.56-.03,34.39-.02,50.17.05,9.4.04,18.42.1,27.01.19,18.97.18,35.83.47,49.88.88l-.02.73c18.33,35.23,3.86,445.94,3.86,517.33s-69.47,72.32-69.47,72.32h-353.15c-107.11-.47-101.44-100.13-101.44-100.13,0,0-7.6-454.75,9.76-484.88l-.04-1.99c12.73-.23,27.46-.49,43.78-.77Z" fill="#3f3f3f"/><path d="M750.77,108.69c.76.57,2.8,1.99,5.4,4.16-19.28-5.12-43.43,10.53-59.86,24.08-11.25,9.28-18.88,17.57-18.88,17.57v.79c-15.78-.07-32.61-.08-50.17-.05v-1.13s-18.39-26.16-52.22-47.13l1.02-1.42c17.61-18.8,39.23-29.34,61.02-26.74,45.02,5.38,108.33,25.89,113.69,29.87Z" fill="#3f3f3f"/><ellipse cx="701.62" cy="808.1" rx="30.42" ry="28.26" fill="#d9d9d9"/><path d="M723.48,876.17s1.8,34.48.19,43.35h-60.96c-1.56-12.53-.99-43.35-.99-43.35v-1.17c28.36-.12,50.24-.21,61.74-.26v1.43Z" fill="#3f3f3f"/><path d="M662.72,919.52h-326.06c1.69-6.98.26-37.99-.01-43.26,96.74-.33,240.04-.91,325.07-1.26v1.17s-.56,30.82,1,43.35Z" fill="#3f3f3f"/><path d="M427.03,123.5l2.64.93c11.62,13.97,19.22,31.95,19.22,31.95v.24c-29.92.36-59.2.77-86.63,1.17l-.02-1.29s19.2-27.93,50.84-49.77c20.48-14.14,46.17-25.72,75.24-25.52,35.12.24,64.31,11.86,86.73,25.77,33.84,20.97,52.22,47.13,52.22,47.13v1.13c-8.83.01-17.85.04-27.01.08v-2.41s-13.72-16.19-36.59-30.8c-18.58-11.88-43.22-22.71-71.48-22.98-23.03-.22-46.63,11.7-65.14,24.37Z" fill="#3f3f3f"/><path d="M600.24,152.91v2.41c-19.24.08-39.12.2-59.28.36v-.69s10.79-17.76,21.87-31.76l.83-1.12c22.88,14.61,36.58,30.8,36.58,30.8Z" fill="#3f3f3f"/><path d="M412.23,105.7l.84,1.03c-31.64,21.84-50.84,49.77-50.84,49.77l.02,1.29c-16.64.25-32.61.5-47.64.74v-.15s-7.48-7.9-18.54-16.79c-16.58-13.34-41.2-28.9-60.69-23.34l-.08-.09c2.89-2.17,5.16-3.58,5.98-4.19,5.36-3.98,68.65-24.5,113.69-29.87,20.69-2.47,40.05,4.6,57.25,21.6Z" fill="#3f3f3f"/><path d="M336.64,876.26c.27,5.27,1.7,36.28.01,43.26h-60.72c-1.51-10.82-1.17-37.7-1.1-43.07,16.67-.04,37.8-.11,61.81-.19Z" fill="#3f3f3f"/><ellipse cx="295.91" cy="808.1" rx="30.42" ry="28.26" fill="#d9d9d9"/><path d="M296.08,141.59l-.75,1.06c-6.85,4.77-7.62,14.23-7.71,16.32-16.32.28-31.06.54-43.78.77-10.58.19-19.77.36-27.29.5l-.02-.86c-5.12-20.29,9.8-34.45,18.8-41.22l.08.09c19.49-5.56,44.11,10,60.69,23.34Z" fill="#fff5f5"/><path d="M275.93,919.52h-43.39c-43.8-8.47-48.32-37.86-48.32-59.89l-.08-16.1.08-.03c7.15,15.63,23.33,33,59.97,33,6.79,0,17.28-.02,30.64-.05-.08,5.37-.41,32.25,1.1,43.07Z" fill="#3f3f3f"/><path d="M177.08,394.5h.59c-.25,17.04-.44,34.44-.58,52h-1.31s-18-3.6-18-3.6l1.94-48.4h17.37Z" fill="#3f3f3f"/><path d="M173.22,448.58l1.29,22.11-14.16,56.76s-5.47,10.76-20.58,5.98c-15.12-4.78,18.01-86.05,18.01-86.05l15.44,1.2Z" fill="#d9d9d9"/><path d="M766.54,922.52H232.55c-.19,0-.38-.02-.57-.05-45.49-8.8-50.75-40.07-50.75-62.84l-.08-16.09c0-1.66,1.33-3.01,2.99-3.01h.01c1.65,0,2.99,1.33,3,2.99l.08,16.1c0,23.73,5.43,49.02,45.61,56.9h533.42c36.3-7.13,40.22-42.14,40.22-56.89,0-.04,0-.08,0-.12l1.55-37.02c.07-1.65,1.48-2.93,3.13-2.86,1.66.07,2.94,1.48,2.86,3.13l-.08,1.68-1.47,35.26c0,9.8-1.54,24.18-8.78,37.1-7.77,13.87-20.08,22.5-36.59,25.67-.19.04-.38.05-.56.05Z" fill="#2b2b2b"/><path d="M244.2,879.5c-38.68,0-55.44-18.9-62.69-34.75-6.06-13.24-5.93-25.17-5.92-25.67-.03-1.85-2.97-196.81-1.49-372.6.14-17.61.34-35.11.58-52.01,1.61-114.04,5.16-187.49,10.55-218.3,1.86-10.66,11.59-18.56,23.14-18.77,2.43-.05,5.15-.1,8.12-.15,7.52-.14,16.71-.31,27.29-.5,12.73-.23,27.46-.49,43.79-.77l27-.44c15.03-.24,31-.49,47.64-.74,23.35-.34,54.3-.78,86.64-1.17,31.07-.38,62.05-.69,92.09-.94,19.93-.16,39.88-.28,59.3-.36,9.17-.04,18.19-.07,27.02-.08,18.84-.03,35.26-.02,50.19.05,10.05.04,18.89.1,27.03.19,19.41.18,36.21.48,49.93.88,8.13.24,15.29.53,21.29.84,18.82,1,34.24,13.77,37.49,31.04,6.85,36.43,10.44,107.04,10.67,209.86.04,16.1,0,33.11-.13,52.02-.64,89.9-3.19,184.47-5.06,253.52-1.22,45.13-2.18,80.78-2.18,98.78,0,9.27-.88,17.87-2.61,25.54-7.41,33.03-29.39,45.62-46.53,50.36-17.31,4.79-32.87,2.72-35.14,2.38-.83,0-3.84.01-8.72.04l-61.76.26c-97.72.4-233.44.95-325.07,1.26h-1.16c-23.53.08-44.26.15-60.65.19-13.36.03-23.85.05-30.65.05ZM645.26,158.22c-5.75,0-11.74,0-17.99.02-8.83,0-17.85.04-27,.08-19.41.08-39.35.2-59.28.36-30.03.25-61.01.56-92.07.94-32.33.39-63.28.83-86.62,1.17-16.64.25-32.61.5-47.63.74l-27,.44c-16.32.28-31.06.54-43.78.77-10.58.19-19.77.36-27.29.5h0c-2.97.05-5.68.1-8.11.15-8.69.16-15.98,5.97-17.35,13.81-5.34,30.5-8.86,103.63-10.46,217.36-.25,16.89-.44,34.37-.58,51.97-1.48,175.72,1.46,370.61,1.48,372.56,0,.2-.09,11.22,5.38,23.17,6.52,14.26,21.74,31.25,57.24,31.25,6.79,0,17.27-.02,30.63-.05,16.4-.04,37.12-.11,60.65-.19h1.16c91.63-.32,227.35-.86,325.07-1.26l61.75-.26c5.81-.03,8.97-.04,8.97-.04.16-.01.33.01.5.04.15.02,15.92,2.52,33.01-2.25,22.51-6.29,36.67-21.72,42.08-45.84,1.64-7.25,2.47-15.4,2.47-24.22,0-18.08.96-53.76,2.18-98.94,1.86-69.03,4.41-163.57,5.05-253.4.13-18.88.17-35.88.13-51.96-.22-102.46-3.78-172.69-10.56-208.76-2.74-14.55-15.86-25.31-31.91-26.16-5.95-.31-13.07-.6-21.15-.84-13.68-.4-30.45-.69-49.82-.88-8.13-.08-16.96-.15-27-.19-9.96-.04-20.59-.07-32.16-.07ZM216.54,160.24h.01-.01Z" fill="#2b2b2b"/><path d="M672.59,748.49c-.97,0-1.75-.78-1.75-1.75s.78-1.75,1.75-1.75h16.1c.05,0,7.96-.15,18.21-3,.93-.26,1.9.29,2.16,1.22.26.93-.28,1.9-1.22,2.16-10.7,2.98-18.78,3.13-19.12,3.13h-16.13ZM660.59,748.49h-35c-.97,0-1.75-.78-1.75-1.75s.78-1.75,1.75-1.75h35c.97,0,1.75.78,1.75,1.75s-.78,1.75-1.75,1.75ZM613.59,748.49h-35c-.97,0-1.75-.78-1.75-1.75s.78-1.75,1.75-1.75h35c.97,0,1.75.78,1.75,1.75s-.78,1.75-1.75,1.75ZM566.59,748.49h-35c-.97,0-1.75-.78-1.75-1.75s.78-1.75,1.75-1.75h35c.97,0,1.75.78,1.75,1.75s-.78,1.75-1.75,1.75ZM519.59,748.49h-35c-.97,0-1.75-.78-1.75-1.75s.78-1.75,1.75-1.75h35c.97,0,1.75.78,1.75,1.75s-.78,1.75-1.75,1.75ZM472.59,748.49h-35c-.97,0-1.75-.78-1.75-1.75s.78-1.75,1.75-1.75h35c.97,0,1.75.78,1.75,1.75s-.78,1.75-1.75,1.75ZM425.59,748.49h-35c-.97,0-1.75-.78-1.75-1.75s.78-1.75,1.75-1.75h35c.97,0,1.75.78,1.75,1.75s-.78,1.75-1.75,1.75ZM378.59,748.49h-35c-.97,0-1.75-.78-1.75-1.75s.78-1.75,1.75-1.75h35c.97,0,1.75.78,1.75,1.75s-.78,1.75-1.75,1.75ZM331.59,748.42s-.03,0-.05,0c-12.71-.35-24.45-2.17-34.89-5.4-.92-.29-1.44-1.27-1.15-2.19.29-.92,1.27-1.44,2.19-1.15,10.14,3.14,21.57,4.9,33.96,5.25.97.03,1.73.83,1.7,1.8-.03.95-.8,1.7-1.75,1.7ZM718.69,741.39c-.67,0-1.31-.39-1.6-1.04-.39-.88.01-1.92.89-2.31,11.1-4.9,19.96-11.93,26.35-20.91.56-.79,1.65-.97,2.44-.41.79.56.97,1.65.41,2.44-6.76,9.5-16.1,16.93-27.78,22.09-.23.1-.47.15-.71.15ZM285.97,738.87c-.24,0-.48-.05-.72-.16-11.16-5.03-20.78-12.06-28.61-20.89-.64-.72-.57-1.83.15-2.47.72-.64,1.83-.58,2.47.15,7.5,8.45,16.72,15.19,27.43,20.02.88.4,1.27,1.43.88,2.31-.29.65-.93,1.03-1.6,1.03ZM751.68,709.51c-.24,0-.48-.05-.72-.15-.88-.4-1.27-1.43-.88-2.31,4.2-9.34,6.33-20.31,6.33-32.62v-.71c0-.97.79-1.75,1.75-1.75h0c.97,0,1.75.79,1.75,1.75v.71c0,12.81-2.23,24.27-6.64,34.06-.29.65-.93,1.03-1.6,1.03ZM250.67,708.9c-.57,0-1.13-.28-1.46-.79-6.24-9.49-10.86-20.49-13.73-32.69-.22-.94.36-1.88,1.3-2.1.94-.22,1.88.36,2.1,1.3,2.78,11.8,7.23,22.42,13.25,31.57.53.81.31,1.89-.5,2.42-.3.19-.63.29-.96.29ZM235.02,664.95c-.87,0-1.62-.64-1.73-1.52-.81-6.21-.98-11.18-.98-14.25,0-1.45.04-2.35.05-2.6-.01-.69-.12-7.26-.28-18.39-.01-.97.76-1.76,1.73-1.77.96.03,1.76.76,1.77,1.73.17,11.77.28,18.44.28,18.44,0,.04,0,.09,0,.13,0,0-.05.9-.05,2.47,0,2.97.17,7.78.95,13.8.12.96-.55,1.84-1.51,1.96-.08,0-.15.01-.23.01ZM758.26,663.43h-.02c-.97-.01-1.74-.81-1.73-1.77.11-8.52.3-19.66.62-35.05.02-.97.81-1.73,1.79-1.71.97.02,1.73.82,1.71,1.79-.32,15.39-.51,26.52-.62,35.03-.01.96-.79,1.73-1.75,1.73ZM233.67,617.9c-.96,0-1.74-.77-1.75-1.73-.13-9.78-.27-21.61-.41-35.03-.01-.97.77-1.76,1.73-1.77.95-.04,1.76.76,1.77,1.73.14,13.42.29,25.24.41,35.02.01.97-.76,1.76-1.73,1.77h-.02ZM759.13,616.38s-.03,0-.04,0c-.97-.02-1.73-.82-1.71-1.79.21-9.69.44-20.15.68-31.24l.08-3.79c.02-.97.81-1.72,1.79-1.71.97.02,1.73.82,1.71,1.79l-.08,3.79c-.24,11.09-.47,21.55-.68,31.24-.02.95-.8,1.71-1.75,1.71ZM233.13,570.86c-.96,0-1.74-.77-1.75-1.73-.11-10.9-.21-22.64-.3-35.02,0-.97.77-1.76,1.74-1.76h.01c.96,0,1.74.77,1.75,1.74.09,12.38.2,24.12.3,35.02,0,.97-.77,1.76-1.73,1.77h-.02ZM760.16,569.34s-.03,0-.04,0c-.97-.02-1.73-.82-1.71-1.79.24-11.2.5-22.92.75-35.02.02-.97.83-1.75,1.79-1.71.97.02,1.73.82,1.71,1.79-.25,12.1-.5,23.82-.75,35.02-.02.95-.8,1.71-1.75,1.71ZM232.74,523.83c-.96,0-1.74-.78-1.75-1.74-.08-11.27-.14-22.99-.19-35.03,0-.97.78-1.75,1.74-1.76.96,0,1.75.78,1.76,1.74.05,12.03.11,23.75.19,35.02,0,.97-.77,1.76-1.74,1.76h-.01ZM761.15,522.32s-.02,0-.04,0c-.97-.02-1.73-.82-1.71-1.79.23-11.41.46-23.12.68-35.02.02-.97.84-1.75,1.78-1.72.97.02,1.74.82,1.72,1.78-.22,11.9-.45,23.61-.68,35.02-.02.95-.8,1.71-1.75,1.71ZM232.51,476.8c-.96,0-1.75-.78-1.75-1.74-.04-11.48-.06-23.19-.06-35.02,0-.97.78-1.75,1.75-1.75s1.75.78,1.75,1.75c0,11.83.02,23.54.06,35.01,0,.97-.78,1.75-1.74,1.76h0ZM762.05,475.29s-.02,0-.03,0c-.97-.02-1.74-.81-1.72-1.78.21-11.56.4-23.26.57-35.02.01-.96.8-1.72,1.75-1.72h.03c.97.01,1.74.81,1.72,1.78-.18,11.76-.37,23.46-.57,35.02-.02.96-.8,1.72-1.75,1.72ZM232.46,429.8h0c-.97,0-1.75-.79-1.75-1.75.01-11.64.04-23.36.1-35.04,0-.96.79-1.74,1.75-1.74h0c.97,0,1.75.79,1.74,1.76-.06,11.68-.09,23.39-.1,35.03,0,.97-.78,1.75-1.75,1.75ZM762.8,428.24h-.02c-.97-.01-1.74-.81-1.73-1.77.16-11.69.31-23.4.42-35.03,0-.96.79-1.73,1.75-1.73h.02c.97,0,1.74.8,1.73,1.77-.12,11.64-.26,23.35-.42,35.04-.01.96-.79,1.73-1.75,1.73ZM232.62,382.74h-.01c-.97,0-1.75-.79-1.74-1.76.08-12.13.18-23.92.3-35.03.01-.96.79-1.73,1.75-1.73h.02c.97.01,1.74.8,1.73,1.77-.13,11.11-.23,22.89-.3,35.01,0,.96-.79,1.74-1.75,1.74ZM763.34,381.23h-.02c-.97,0-1.74-.8-1.73-1.77.11-12.11.18-23.89.22-35.02,0-.96.79-1.74,1.75-1.74h0c.97,0,1.75.79,1.74,1.76-.04,11.13-.11,22.92-.22,35.03,0,.96-.79,1.73-1.75,1.73ZM233.08,335.71h-.02c-.97-.01-1.74-.81-1.73-1.77.16-12.27.36-24.06.59-35.03.02-.97.87-1.75,1.79-1.71.97.02,1.73.82,1.71,1.79-.23,10.97-.42,22.74-.59,35.01-.01.96-.79,1.73-1.75,1.73ZM763.58,334.2h0c-.97,0-1.75-.79-1.75-1.75v-6.63c0-9.81-.02-19.36-.08-28.37,0-.97.77-1.76,1.74-1.76.98,0,1.76.77,1.76,1.74.06,9.02.09,18.57.09,28.39v6.64c0,.97-.79,1.75-1.75,1.75ZM233.93,288.68s-.03,0-.04,0c-.97-.02-1.73-.82-1.71-1.79.3-12.55.64-24.34,1.03-35.04.04-.97.84-1.71,1.81-1.69.97.04,1.72.85,1.69,1.81-.39,10.69-.73,22.46-1.03,34.99-.02.95-.8,1.71-1.75,1.71ZM763.4,287.18c-.96,0-1.74-.77-1.75-1.73-.12-12.53-.31-24.3-.57-34.98-.02-.97.74-1.77,1.71-1.79.98-.02,1.77.74,1.79,1.71.25,10.7.44,22.49.57,35.03,0,.97-.77,1.76-1.73,1.77h-.02ZM235.43,241.66s-.05,0-.07,0c-.97-.04-1.72-.86-1.67-1.82.56-13.27,1.2-25.06,1.92-35.03.07-.96.91-1.69,1.87-1.62.96.07,1.69.91,1.62,1.87-.71,9.94-1.35,21.69-1.91,34.93-.04.94-.81,1.68-1.75,1.68ZM762.51,240.17c-.94,0-1.72-.75-1.75-1.7-.39-13.15-.9-24.9-1.51-34.93-.06-.96.68-1.79,1.64-1.85.96-.07,1.79.68,1.85,1.64.61,10.06,1.12,21.85,1.52,35.03.03.97-.73,1.77-1.7,1.8-.02,0-.04,0-.05,0ZM238.31,194.71c-.05,0-.11,0-.16,0-.96-.09-1.67-.94-1.58-1.9,1.6-17.5,3.49-27.95,5.79-31.94.48-.84,1.55-1.12,2.39-.64.84.48,1.12,1.55.64,2.39-1.39,2.41-3.44,9.65-5.34,30.51-.08.91-.85,1.59-1.74,1.59ZM760.16,193.21c-.9,0-1.67-.69-1.74-1.61-1.45-17.93-3.36-29.27-5.67-33.71-.45-.86-.11-1.91.74-2.36.86-.45,1.91-.11,2.36.74,2.56,4.92,4.54,16.39,6.05,35.05.08.96-.64,1.81-1.6,1.89-.05,0-.1,0-.14,0Z" fill="#2b2b2b"/><path d="M295.91,839.36c-18.43,0-33.42-14.02-33.42-31.26s14.99-31.26,33.42-31.26,33.42,14.02,33.42,31.26-14.99,31.26-33.42,31.26ZM295.91,782.84c-15.12,0-27.42,11.33-27.42,25.26s12.3,25.26,27.42,25.26,27.42-11.33,27.42-25.26-12.3-25.26-27.42-25.26Z" fill="#2b2b2b"/><path d="M701.62,839.36c-18.43,0-33.42-14.02-33.42-31.26s14.99-31.26,33.42-31.26,33.42,14.02,33.42,31.26-14.99,31.26-33.42,31.26ZM701.62,782.84c-15.12,0-27.42,11.33-27.42,25.26s12.3,25.26,27.42,25.26,27.42-11.33,27.42-25.26-12.3-25.26-27.42-25.26Z" fill="#2b2b2b"/><path d="M362.23,159.5c-.59,0-1.18-.17-1.7-.53-1.36-.94-1.71-2.81-.77-4.17.8-1.16,19.87-28.64,51.6-50.54,25.29-17.46,51.18-26.2,76.97-26.05,30.89.21,60.6,9.03,88.29,26.22,33.97,21.05,52.33,46.86,53.1,47.95.95,1.35.63,3.23-.73,4.18-1.35.95-3.23.63-4.18-.73-.18-.26-18.48-25.93-51.35-46.31-26.74-16.6-55.4-25.12-85.17-25.32-.24,0-.48,0-.72,0-24.29,0-48.77,8.4-72.79,24.99-30.78,21.25-49.88,48.73-50.07,49-.58.85-1.52,1.3-2.47,1.3Z" fill="#2b2b2b"/><path d="M391.83,155.91c-.74,0-1.48-.27-2.06-.82-1.2-1.14-1.25-3.04-.11-4.24.6-.63,14.86-15.58,35.69-29.82,24.15-16.52,46.42-24.9,66.2-24.9.22,0,.44,0,.67,0,24.51.23,49.1,8.12,73.07,23.45,22.99,14.68,36.68,30.71,37.26,31.39,1.07,1.26.91,3.16-.35,4.23-1.26,1.07-3.16.91-4.23-.35-.13-.16-13.72-16.04-35.91-30.21-23.01-14.71-46.53-22.29-69.9-22.51-18.72-.21-40.03,7.84-63.42,23.85-20.27,13.87-34.58,28.85-34.72,29-.59.62-1.38.93-2.18.93Z" fill="#2b2b2b"/><path d="M775.54,160.2c-.24,0-.49-.03-.74-.09-1.61-.41-2.58-2.04-2.17-3.64,4.72-18.68-9.49-33.9-18.38-41.31-2.05-1.71-3.71-2.92-4.7-3.64l-.58-.42c-4.55-3.38-67.69-23.97-112.25-29.3-19.89-2.38-40.66,6.79-58.48,25.81-1.13,1.21-3.03,1.27-4.24.14-1.21-1.13-1.27-3.03-.14-4.24,19.16-20.45,41.73-30.27,63.57-27.67,45.54,5.44,109.12,25.99,115.12,30.44l.52.38c.98.72,2.81,2.05,5.01,3.88,9.97,8.31,25.88,25.52,20.36,47.39-.34,1.36-1.56,2.27-2.91,2.27Z" fill="#2b2b2b"/><path d="M540.95,157.99c-.53,0-1.07-.14-1.56-.44-1.42-.86-1.87-2.71-1-4.12.11-.18,11.02-18.08,22.09-32.06,1.03-1.3,2.91-1.52,4.21-.49,1.3,1.03,1.52,2.91.49,4.21-10.83,13.69-21.56,31.28-21.67,31.46-.56.93-1.55,1.44-2.57,1.44Z" fill="#2b2b2b"/><path d="M677.43,157.5c-.73,0-1.46-.26-2.03-.79-1.22-1.12-1.3-3.02-.17-4.24.32-.34,7.9-8.55,19.18-17.85,17.27-14.24,42.14-30.08,62.54-24.67.22.05.42.1.61.16,1.58.49,2.47,2.17,1.98,3.75-.49,1.58-2.17,2.47-3.75,1.98-.08-.02-.16-.04-.24-.06-.02,0-.12-.03-.14-.04-17.94-4.76-41,10.15-57.18,23.5-10.94,9.03-18.51,17.21-18.58,17.29-.59.64-1.4.97-2.21.97Z" fill="#2b2b2b"/><path d="M704.45,157.11c-1.65,0-3-1.34-3-2.99h0c0-.1-.13-9.89-6.43-14.27-1.36-.95-1.7-2.82-.75-4.18.95-1.36,2.82-1.7,4.18-.75,8.9,6.19,9.01,18.67,9.01,19.19,0,1.66-1.34,3-3,3Z" fill="#2b2b2b"/><path d="M216.51,162.38c-1.34,0-2.56-.91-2.91-2.27-4.08-16.15,2.8-31.49,19.9-44.35,1.98-1.49,3.68-2.63,4.81-3.39.52-.35.92-.62,1.17-.8,6.01-4.46,69.6-25.02,115.12-30.44,21.91-2.62,42,4.94,59.72,22.45,1.18,1.16,1.19,3.06.02,4.24-1.17,1.18-3.06,1.19-4.24.02-16.35-16.16-34.79-23.14-54.79-20.75-44.53,5.31-107.69,25.91-112.25,29.3-.3.22-.78.55-1.41.97-1.14.77-2.71,1.82-4.55,3.21-10.47,7.88-22.04,20.88-17.69,38.09.41,1.61-.57,3.24-2.17,3.64-.25.06-.49.09-.74.09Z" fill="#2b2b2b"/><path d="M448.89,159.38c-1.17,0-2.28-.69-2.76-1.83-.07-.18-7.58-17.75-18.76-31.2-1.06-1.27-.89-3.17.39-4.22,1.27-1.06,3.17-.89,4.22.39,11.76,14.15,19.36,31.95,19.67,32.7.65,1.53-.07,3.29-1.59,3.93-.38.16-.78.24-1.17.24Z" fill="#2b2b2b"/><path d="M314.62,161.38c-.79,0-1.59-.31-2.18-.94-.07-.08-7.49-7.87-18.24-16.52-16.47-13.25-39.89-27.95-57.98-22.79-1.59.46-3.25-.47-3.71-2.06-.45-1.59.47-3.25,2.06-3.71,20.56-5.87,45.82,9.75,63.39,23.89,11.09,8.91,18.52,16.74,18.84,17.06,1.14,1.2,1.09,3.1-.12,4.24-.58.55-1.32.82-2.06.82Z" fill="#2b2b2b"/><path d="M287.6,162.37h0c-1.65,0-2.99-1.34-3-2.99,0,0,0-.2.01-.54.12-2.99,1.13-13.18,8.99-18.65,1.36-.95,3.23-.61,4.18.75.95,1.36.61,3.23-.75,4.18-5.73,3.99-6.36,12.35-6.43,13.98,0,.17,0,.27,0,.29,0,1.65-1.35,2.98-3,2.98Z" fill="#2b2b2b"/><path d="M276.15,923.91c-1.43,0-2.7-1.03-2.95-2.48-.08-.47-.17-.98-.24-1.52-1.42-10.19-1.26-33.81-1.12-43.5.01-.66.02-1.01.02-1.01.05-1.65,1.46-2.96,3.1-2.9,1.66.05,2.95,1.44,2.9,3.09,0,.01-.01.33-.02.9-.1,7.44-.33,32.52,1.07,42.6.06.48.13.9.2,1.29.29,1.63-.81,3.19-2.44,3.47-.17.03-.35.05-.52.05Z" fill="#2b2b2b"/><path d="M336.61,922.72c-.34,0-.68-.06-1.01-.18-1.47-.53-2.28-2.09-1.89-3.57.01-.06.02-.11.03-.16,1.35-5.59.53-30.18-.09-42.4l-.03-.79c-.07-1.66,1.22-3.05,2.88-3.12,1.67-.06,3.05,1.22,3.12,2.88l.03.75c.19,3.67,1.78,36.07-.04,43.98-.03.15-.07.38-.16.62-.44,1.23-1.59,1.99-2.82,1.99ZM333.78,918.71s-.01.03-.02.05c0-.02.01-.03.02-.05Z" fill="#2b2b2b"/><path d="M663.01,924.58c-1.43,0-2.69-1.02-2.95-2.48-.14-.79-.25-1.52-.33-2.24-1.57-12.56-1.03-42.48-1.01-43.74.03-1.64,1.37-2.94,3-2.94.02,0,.04,0,.06,0,1.66.03,2.97,1.4,2.94,3.06,0,.31-.55,30.75.97,42.92.08.73.18,1.35.28,1.91.29,1.63-.8,3.19-2.43,3.48-.18.03-.35.05-.52.05Z" fill="#2b2b2b"/><path d="M723.48,923.39c-.25,0-.5-.03-.76-.1-1.6-.42-2.57-2.05-2.15-3.66.05-.2.1-.43.15-.69,1.52-8.39-.23-42.28-.25-42.62-.09-1.65,1.19-3.07,2.84-3.15,1.66-.08,3.07,1.19,3.15,2.84.07,1.42,1.8,34.93.15,44.04-.09.44-.16.79-.24,1.09-.35,1.35-1.57,2.25-2.9,2.25Z" fill="#2b2b2b"/><path d="M175.78,449.49c-.19,0-.39-.02-.59-.06l-18-3.59c-1.45-.29-2.47-1.59-2.41-3.06l1.94-48.4c.06-1.61,1.39-2.88,3-2.88h17.37c1.66,0,3,1.34,3,3s-1.34,3-3,3h-14.48l-1.72,42.96,15.49,3.09c1.62.32,2.68,1.9,2.35,3.53-.28,1.43-1.54,2.41-2.94,2.41Z" fill="#2b2b2b"/><path d="M147.02,537.63c-2.45,0-5.16-.4-8.16-1.35-1.41-.44-3.35-1.54-4.62-4.26-7.39-15.75,17.86-78.66,20.76-85.78.49-1.21,1.7-1.96,3.01-1.86l15.44,1.2c1.5.12,2.67,1.32,2.76,2.82l1.29,22.11c.02.3-.01.61-.08.9l-14.16,56.76c-.05.22-.13.43-.24.63-1.8,3.53-7.11,8.83-16.01,8.83ZM159.74,450.54c-10.52,26.21-24.67,69.13-20.06,78.94.43.91.84,1.04,1,1.09,11.33,3.58,15.92-2.67,16.87-4.24l13.95-55.92-1.11-19.04-10.64-.83Z" fill="#2b2b2b"/><path d="M820.99,450.1c-1.44,0-2.71-1.04-2.95-2.5-.28-1.63.82-3.18,2.46-3.46l18.62-3.15-1.71-42.88h-14.48c-1.66,0-3-1.34-3-3s1.34-3,3-3h17.36c1.61,0,2.93,1.27,3,2.88l1.93,48.4c.06,1.51-1.01,2.83-2.5,3.08l-21.22,3.59c-.17.03-.34.04-.5.04Z" fill="#2b2b2b"/><path d="M852.97,538.24c-8.9,0-14.21-5.29-16.01-8.83-.1-.2-.18-.41-.24-.63l-14.15-56.76c-.07-.29-.1-.6-.08-.9l1.28-22.11c.09-1.5,1.27-2.7,2.76-2.82l15.44-1.2c1.31-.1,2.52.65,3.01,1.86,2.9,7.12,28.15,70.02,20.76,85.78-1.27,2.72-3.22,3.82-4.62,4.26-2.99.95-5.71,1.35-8.16,1.35ZM842.45,526.94c.92,1.53,5.5,7.83,16.87,4.23.16-.05.57-.18,1-1.09,4.61-9.82-9.55-52.74-20.07-78.94l-10.64.83-1.1,19.04,13.94,55.93Z" fill="#2b2b2b"/></svg>