<?xml version="1.0" encoding="UTF-8"?><svg id="_レイヤー_5" xmlns="http://www.w3.org/2000/svg" width="2000" height="1600" viewBox="0 0 2000 1600"><rect x="91.83" y="217.1" width="1778.61" height="1192.63" rx="111.14" ry="111.14" fill="#e7c79e"/><path d="M1759.3,1412.73H202.97c-62.94,0-114.14-51.2-114.14-114.14V328.24c0-62.94,51.2-114.14,114.14-114.14h1556.33c62.94,0,114.14,51.2,114.14,114.14v970.36c0,62.94-51.2,114.14-114.14,114.14ZM202.97,220.1c-59.63,0-108.14,48.51-108.14,108.14v970.36c0,59.63,48.51,108.14,108.14,108.14h1556.33c59.63,0,108.14-48.51,108.14-108.14V328.24c0-59.63-48.51-108.14-108.14-108.14H202.97Z" fill="#2b2b2b"/><path d="M716,1163.34v-1.75s-1.78-688.43-1.78-688.43l532.06-1.37v1.75s1.78,688.43,1.78,688.43h-1.75s-530.31,1.37-530.31,1.37ZM717.73,476.65l1.76,683.18,525.06-1.35-1.76-683.18-525.06,1.35Z" fill="#2b2b2b"/><rect x="681.85" y="408.66" width="598.57" height="809.51" rx="34.95" ry="34.95" transform="translate(-2.1 2.53) rotate(-.15)" fill="#fff"/><rect x="681.85" y="408.66" width="598.57" height="809.51" rx="34.95" ry="34.95" transform="translate(-2.1 2.53) rotate(-.15)" fill="#fff"/><path d="M717.75,1221.85c-20.88,0-37.89-16.96-37.95-37.85l-1.91-739.61c-.03-10.14,3.9-19.68,11.04-26.86s16.67-11.16,26.8-11.18l528.67-1.36h.1c10.1,0,19.6,3.92,26.76,11.05,7.19,7.15,11.16,16.67,11.18,26.8l1.91,739.61c.03,10.14-3.9,19.67-11.04,26.86s-16.67,11.16-26.8,11.18v-3s0,3,0,3l-528.67,1.36h-.1ZM1244.52,410.98h-.08l-528.67,1.36c-8.53.02-16.55,3.37-22.57,9.42-6.02,6.05-9.32,14.08-9.3,22.61l1.91,739.61c.04,17.59,14.37,31.86,31.95,31.86h.08l528.67-1.36c8.53-.02,16.55-3.37,22.57-9.42,6.02-6.05,9.32-14.08,9.3-22.61l-1.91-739.61c-.02-8.53-3.37-16.55-9.42-22.57-6.03-6-14.03-9.3-22.53-9.3Z" fill="#2b2b2b"/><rect x="716.86" y="474.23" width="528.56" height="686.68" transform="translate(-2.11 2.53) rotate(-.15)" fill="#383838"/><polygon points="609.13 813.42 429.69 650.56 429.69 743.2 154.69 743.2 154.69 883.63 429.69 883.63 429.69 976.28 609.13 813.42" fill="#dd3131"/><path d="M426.69,983.05v-96.42H151.69v-146.43h275.01v-96.42l186.9,169.63-186.9,169.63ZM157.69,880.63h275.01v88.87l171.98-156.09-171.98-156.09v88.87H157.69v134.43Z" fill="#2b2b2b"/><polygon points="1353.13 813.42 1532.57 976.28 1532.57 883.63 1807.58 883.63 1807.58 743.2 1532.57 743.2 1532.57 650.56 1353.13 813.42" fill="#dd3131"/><path d="M1535.57,983.05l-186.9-169.63,186.9-169.63v96.42h275.01v146.43h-275.01v96.42ZM1357.6,813.42l171.97,156.09v-88.87h275.01v-134.43h-275.01v-88.87l-171.97,156.09Z" fill="#2b2b2b"/></svg>