<?xml version="1.0" encoding="UTF-8"?><svg id="_レイヤー_11" xmlns="http://www.w3.org/2000/svg" width="1000" height="1000" viewBox="0 0 1000 1000"><path d="M128.47,623.1c.24,75.53-1.59,144.89,169.89,152.89,140.21,6.54,165.9-34.9,184.25-84.89,7.17-19.53,4.39-43.95.23-63.66l-1.81.42s14.18,121.73-173.83,116.92c-177.86-4.55-171.97-81.02-176.36-122.85-.78.38-1.58.76-2.36,1.16Z" fill="#e5e5e5"/><path d="M128.47,623.1c.78-.4,1.58-.78,2.36-1.16-.24-2.39-.53-4.66-.88-6.8l-.21-.05c-.72,3.81-1.28,7.16-1.27,8.01Z" fill="#275faf"/><path d="M129.74,615.09l.21.05c.35,2.14.64,4.41.88,6.8,207.03-101.92,350.2,5.93,350.2,5.93l1.81-.42c-3.17-15.05-7.15-27.36-8.12-32.68-2.25-12.3-27.56-228.49-27.56-228.49-6.37-98.77-87.54-109.42-87.93-109.48l-.47-33.48-60.22,2.87-.87,28.75c-85.58,17.44-106.91,162.61-109.42,182.44-.19,1.53-.58,3.01-1.14,4.43l-54.47,160.01c-.45,1.15-1.84,7.69-2.89,13.27ZM306.33,530.9c-105.4,5.01-116.53-22.23-116.12-34.94.12-3.57,1.69-6.93,4.33-9.35,9.63-8.85,43.34-33.8,120.2-37.46,73.55-3.49,111.2,20.52,123.98,31.01,3.24,2.66,4.79,6.86,4.1,11-4.64,27.74-8.98,33.67-136.49,39.75ZM211.87,418.84c-3.52,2.19-7.19-1.04-6.22-5.07,7.43-30.91,23.99-118.46,88.01-143.44,2.86-1.11,62.14-2.03,62.14-2.03,0,0,87.15,1.32,84.32,139.38-.07,3.7-4.08,5.94-7.11,3.82-27.16-19.09-139.13-43.88-221.15,7.35Z" fill="#fff"/><path d="M130.83,621.94c4.39,41.83-1.5,118.3,176.36,122.85,188.01,4.81,173.83-116.92,173.83-116.92,0,0-143.16-107.85-350.2-5.93Z" fill="#f4f4f4"/><path d="M190.21,495.96c-.41,12.72,10.72,39.95,116.12,34.94,127.51-6.07,131.85-12.01,136.49-39.75.69-4.14-.86-8.34-4.1-11-12.79-10.49-50.44-34.5-123.98-31.01-76.86,3.66-110.57,28.62-120.2,37.46-2.64,2.42-4.21,5.79-4.33,9.35Z" fill="#cecece"/><path d="M205.65,413.77c-.97,4.03,2.7,7.26,6.22,5.07,82.01-51.23,193.99-26.44,221.15-7.35,3.02,2.12,7.04-.12,7.11-3.82,2.83-138.06-84.32-139.38-84.32-139.38,0,0-59.29.92-62.14,2.03-64.02,24.98-80.59,112.53-88.01,143.44Z" fill="#cecece"/><path d="M326.12,779.67c-8.77,0-18.05-.22-27.9-.68-172.32-8.04-172.52-78.56-172.74-153.22v-2.66c0-.38-.01-1.51,1.32-8.58h0c.6-3.18,2.28-11.74,3.02-13.73l54.51-160.1c.48-1.21.8-2.46.95-3.7,1.46-11.47,7.47-52.05,23.75-92.85,20.94-52.47,49.77-83.29,85.72-91.64l.89-29.19,66.09-3.15.48,34.09c6.31,1.25,23.24,5.52,40.59,17.88,19.74,14.06,43.98,41.75,47.36,93.86.6,5.1,25.33,216.24,27.52,228.22.38,2.11,1.31,5.51,2.47,9.82,1.68,6.22,3.78,13.96,5.63,22.78,5.81,27.49,5.69,48.85-.35,65.31-17.55,47.83-42.24,87.53-159.31,87.54ZM189.93,442.84l-54.5,160.09c-.33.89-1.57,6.53-2.73,12.72h0c-.94,5-1.21,7.07-1.22,7.47v2.65c.12,36.92.22,71.8,20.85,98.25,23.29,29.86,69.74,45.43,146.18,48.99,63.41,2.96,107.94-3.85,136.14-20.82,26.48-15.94,36.83-39.42,45.15-62.11,5.64-15.37,5.68-35.65.11-62.01-1.82-8.66-3.89-16.31-5.55-22.46-1.2-4.44-2.15-7.95-2.58-10.31-2.24-12.25-26.55-219.84-27.59-228.68v-.16c-2.59-39.98-17.69-70.08-44.87-89.44-20.27-14.43-39.65-17.15-40.47-17.26l-2.57-.34-.46-32.96-54.35,2.59-.86,28.35-2.33.47c-84.02,17.12-104.94,163.27-107.05,179.87-.21,1.71-.65,3.42-1.29,5.08ZM129.74,615.09h0,0Z" fill="#2b2b2b"/><path d="M209.54,421.29c-1.15,0-2.28-.35-3.25-1.05-2.07-1.49-2.99-4.19-2.34-6.88.45-1.88.94-3.97,1.46-6.24,7.97-34.3,26.63-114.63,87.62-138.43,2.92-1.14,48.77-1.93,62.75-2.15,1.19.02,28.19.71,51.92,25.29,23.75,24.61,35.25,63.6,34.18,115.87-.05,2.42-1.4,4.6-3.52,5.68-2.06,1.05-4.43.87-6.34-.46h0c-13.53-9.51-48.48-20.25-89.09-22.38-34.7-1.82-85.45,1.87-130.13,29.78-1.03.64-2.16.96-3.26.96ZM355.78,270.05c-22.31.35-58.8,1.18-61.54,1.94-59.2,23.1-77.57,102.17-85.42,135.94-.53,2.28-1.02,4.38-1.47,6.26-.31,1.3.07,2.56.98,3.22.76.55,1.69.53,2.61-.04,45.45-28.39,96.95-32.15,132.16-30.31,43.19,2.26,77.41,13.51,90.92,23.01.84.59,1.84.66,2.75.21.98-.5,1.58-1.48,1.61-2.62,1.05-51.26-10.1-89.38-33.14-113.3-22.69-23.56-49.2-24.29-49.46-24.29Z" fill="#2b2b2b"/><path d="M281.85,533.26c-43.72,0-72.51-6.57-85.75-19.61-6.57-6.47-7.78-13.23-7.64-17.75.13-4,1.92-7.86,4.89-10.59,11.09-10.19,45.11-34.29,121.3-37.92,74.13-3.52,112.24,20.79,125.18,31.4,3.7,3.04,5.51,7.88,4.72,12.64h0c-2.39,14.29-4.8,23.36-23.35,29.38-16.98,5.51-47.02,8.6-114.78,11.83-8.65.41-16.84.62-24.57.62ZM329.02,450.55c-4.58,0-9.3.11-14.2.34-77.15,3.68-110.67,29.25-119.1,37-2.29,2.1-3.66,5.06-3.76,8.12-.12,3.82.92,9.55,6.59,15.14,10.21,10.06,37.19,21.35,107.69,18,129.46-6.17,130.5-12.34,134.85-38.29.59-3.53-.75-7.12-3.48-9.36-11.78-9.66-44.99-30.96-108.59-30.96ZM442.82,491.15h0,0Z" fill="#2b2b2b"/><path d="M317.98,746.68c-3.56,0-7.17-.05-10.83-.14-73.79-1.89-122.86-16.01-149.99-43.16-23.11-23.13-25.43-50.62-27.3-72.72-.25-3-.49-5.83-.78-8.54-.25-2.49-.53-4.68-.87-6.7-.16-.95.49-1.85,1.44-2.01.96-.16,1.85.49,2.01,1.44.35,2.1.64,4.36.9,6.91.29,2.73.53,5.58.78,8.6,1.82,21.53,4.08,48.32,26.28,70.54,26.47,26.49,74.75,40.27,147.6,42.13,68.92,1.76,118.34-13.16,146.87-44.36,29.24-31.97,25.22-70.23,25.18-70.61-.11-.96.58-1.83,1.54-1.94.96-.12,1.83.58,1.94,1.54.05.4,4.28,40.15-26.02,73.33-27.71,30.34-74.36,45.69-138.76,45.69Z" fill="#2b2b2b"/><path d="M481.02,629.62c-.37,0-.74-.11-1.05-.35-.36-.27-36.32-26.96-96.97-40.92-55.95-12.87-144.99-17.22-251.4,35.16-.79.38-1.57.76-2.34,1.15-.86.43-1.92.09-2.35-.77-.44-.86-.09-1.92.77-2.35.79-.4,1.6-.79,2.39-1.18,47.4-23.33,95.4-37.55,142.65-42.24,37.82-3.75,75.25-1.45,111.24,6.85,61.32,14.14,97.76,41.22,98.12,41.49.77.58.93,1.68.35,2.45-.34.46-.87.7-1.4.7Z" fill="#2b2b2b"/><path d="M871.53,623.1c-.24,75.53,1.59,144.89-169.89,152.89-140.21,6.54-165.9-34.9-184.25-84.89-7.17-19.53-4.39-43.95-.23-63.67l1.82.42h0s-14.18,121.74,173.83,116.92c177.86-4.54,171.97-81.01,176.36-122.84.78.38,1.58.76,2.36,1.16Z" fill="#e5e5e5"/><path d="M871.53,623.1c-.78-.4-1.58-.78-2.36-1.16.24-2.39.53-4.66.88-6.8l.21-.05c.72,3.81,1.28,7.16,1.27,8.01Z" fill="#275faf"/><path d="M870.26,615.09l-.21.05c-.35,2.14-.64,4.41-.88,6.8-205.94-101.39-348.68,4.79-350.19,5.92l-1.82-.42c3.17-15.04,7.15-27.35,8.12-32.67,2.25-12.3,27.56-228.49,27.56-228.49,6.37-98.77,87.54-109.42,87.93-109.48l.48-33.48,60.21,2.87.87,28.75c85.58,17.44,106.91,162.61,109.42,182.44.2,1.53.58,3.01,1.14,4.43l54.46,160.01c.45,1.15,1.84,7.69,2.89,13.27ZM693.67,530.9c105.4,5.01,116.54-22.24,116.12-34.94-.12-3.58-1.69-6.93-4.33-9.35-9.63-8.85-43.34-33.8-120.19-37.46-73.56-3.49-111.2,20.52-123.99,31.01-3.24,2.66-4.79,6.86-4.09,11,4.63,27.74,8.97,33.67,136.48,39.75ZM788.13,418.84c3.51,2.19,7.18-1.05,6.21-5.07-7.43-30.91-23.99-118.46-88.01-143.44-2.86-1.11-62.14-2.03-62.14-2.03,0,0-87.15,1.32-84.32,139.38.08,3.7,4.08,5.94,7.11,3.82,27.16-19.09,139.13-43.88,221.16,7.35Z" fill="#fff"/><path d="M869.17,621.94c-4.39,41.83,1.5,118.3-176.36,122.84-188.01,4.82-173.83-116.91-173.83-116.91h0c1.51-1.13,144.25-107.31,350.19-5.93Z" fill="#f4f4f4"/><path d="M809.79,495.96c.42,12.71-10.72,39.95-116.12,34.94-127.51-6.07-131.85-12.01-136.48-39.75-.7-4.14.85-8.34,4.09-11,12.79-10.49,50.44-34.5,123.99-31.01,76.85,3.66,110.57,28.62,120.19,37.46,2.64,2.42,4.21,5.78,4.33,9.35Z" fill="#cecece"/><path d="M794.35,413.77c.97,4.02-2.7,7.26-6.21,5.07-82.02-51.23-194-26.44-221.16-7.35-3.02,2.12-7.03-.12-7.11-3.82-2.83-138.06,84.32-139.38,84.32-139.38,0,0,59.29.92,62.14,2.03,64.02,24.98,80.59,112.53,88.01,143.44Z" fill="#cecece"/><path d="M673.88,779.67c-117.08,0-141.75-39.7-159.3-87.54-6.04-16.46-6.16-37.82-.35-65.32,1.86-8.81,3.95-16.55,5.63-22.76,1.17-4.31,2.09-7.72,2.47-9.83,2.2-11.98,26.93-223.14,27.52-228.22,3.38-52.11,27.62-79.8,47.36-93.86,17.35-12.36,34.28-16.63,40.59-17.88l.49-34.09,66.08,3.15.89,29.19c35.94,8.35,64.77,39.17,85.72,91.64,16.28,40.8,22.3,81.38,23.75,92.85.17,1.28.49,2.53.96,3.69l.05.14,54.45,159.97c.73,1.98,2.42,10.54,3.02,13.72h0c1.33,7.07,1.33,8.21,1.33,8.58v2.66c-.23,74.66-.43,145.18-172.75,153.22-9.83.46-19.14.68-27.9.68ZM644.2,226.47l-.47,32.96-2.56.34c-.82.11-20.2,2.83-40.47,17.26-27.19,19.36-42.28,49.45-44.86,89.44v.16c-1.05,8.83-25.36,216.43-27.6,228.68-.43,2.35-1.38,5.87-2.58,10.31-1.66,6.14-3.73,13.79-5.55,22.43-5.57,26.37-5.53,46.65.11,62.02,8.33,22.69,18.67,46.17,45.15,62.11,28.2,16.97,72.73,23.78,136.14,20.82,76.44-3.57,122.89-19.13,146.18-48.99,20.63-26.45,20.73-61.32,20.84-98.25v-2.67c0-.38-.27-2.45-1.21-7.45h0c-1.16-6.19-2.41-11.83-2.74-12.73l-.05-.13-54.44-159.94c-.63-1.61-1.07-3.31-1.3-5.07-2.11-16.62-23.03-162.76-107.05-179.89l-2.33-.47-.86-28.35-54.34-2.59Z" fill="#2b2b2b"/><path d="M790.46,421.29c-1.1,0-2.22-.32-3.25-.96-44.68-27.91-95.43-31.6-130.13-29.78-40.61,2.13-75.56,12.87-89.09,22.38h0c-1.91,1.34-4.27,1.51-6.33.47-2.12-1.08-3.48-3.25-3.53-5.68-1.07-52.27,10.43-91.26,34.18-115.87,23.73-24.59,50.72-25.28,51.86-25.29,14.04.22,59.88,1.02,62.8,2.15,60.99,23.8,79.65,104.13,87.62,138.43.53,2.27,1.01,4.36,1.46,6.24.65,2.68-.27,5.38-2.34,6.88-.97.7-2.1,1.05-3.25,1.05ZM671.86,386.66c33.93,0,77.83,6.11,117.2,30.7.92.57,1.84.59,2.59.04.91-.66,1.3-1.92.99-3.22-.45-1.89-.94-3.98-1.47-6.26-7.84-33.76-26.21-112.83-85.48-135.96-2.67-.73-39.17-1.56-61.53-1.91-.21,0-26.72.73-49.41,24.29-23.04,23.92-34.19,62.04-33.13,113.3.03,1.15.63,2.13,1.61,2.63.9.46,1.9.38,2.74-.21,13.51-9.5,47.73-20.75,90.92-23.01,4.71-.25,9.73-.39,14.97-.39ZM566.98,411.49h0,0Z" fill="#2b2b2b"/><path d="M718.14,533.27c-7.72,0-15.91-.21-24.56-.62-67.76-3.23-97.8-6.32-114.78-11.83-18.55-6.02-20.96-15.08-23.35-29.37h0c-.8-4.76,1-9.61,4.71-12.65,12.94-10.62,51.04-34.93,125.19-31.4,76.19,3.63,110.2,27.73,121.29,37.92,3.02,2.77,4.75,6.53,4.89,10.58.15,4.52-1.05,11.26-7.62,17.74-13.24,13.05-42.04,19.63-85.77,19.63ZM670.99,450.55c-63.63,0-96.82,21.29-108.6,30.96-2.74,2.25-4.07,5.83-3.47,9.36h0c4.33,25.96,5.36,32.12,134.84,38.29,70.52,3.35,97.49-7.94,107.7-18.01,5.67-5.59,6.71-11.31,6.58-15.13-.1-3.11-1.44-5.99-3.76-8.12-8.43-7.75-41.94-33.33-119.09-37-4.89-.23-9.63-.34-14.2-.34Z" fill="#2b2b2b"/><path d="M682,746.67c-64.39,0-111.03-15.35-138.74-45.68-30.3-33.17-26.07-72.93-26.02-73.32.11-.96.99-1.64,1.94-1.54.96.11,1.65.98,1.54,1.94-.04.38-4.07,38.64,25.18,70.61,28.54,31.19,77.95,46.1,146.87,44.35,72.85-1.86,121.13-15.64,147.6-42.13,22.2-22.22,24.47-49.01,26.28-70.54.26-3.02.5-5.87.78-8.61.26-2.55.55-4.81.89-6.9.16-.95,1.05-1.6,2.01-1.44.95.16,1.6,1.06,1.44,2.01-.33,2.02-.62,4.21-.87,6.69-.28,2.71-.52,5.54-.78,8.54-1.87,22.09-4.19,49.59-27.3,72.72-27.13,27.15-76.19,41.27-149.99,43.15-3.67.09-7.29.14-10.85.14Z" fill="#2b2b2b"/><path d="M518.98,629.61c-.43,0-.87-.16-1.2-.48-.7-.67-.73-1.77-.07-2.47l.23-.21c1.51-1.13,37.68-27.74,99.09-41.71,35.91-8.17,73.23-10.37,110.93-6.56,47.03,4.76,94.8,18.95,141.98,42.18.78.38,1.58.77,2.38,1.17.86.44,1.21,1.49.77,2.35-.44.86-1.49,1.21-2.35.77-.77-.39-1.56-.77-2.33-1.15-106.05-52.21-194.81-48.04-250.61-35.35-60.42,13.74-95.97,39.75-97.75,41.08-.31.24-.7.37-1.08.37Z" fill="#2b2b2b"/></svg>