<?xml version="1.0" encoding="UTF-8"?><svg xmlns="http://www.w3.org/2000/svg" width="2000" height="1200" viewBox="0 0 2000 1200"><g id="_レイヤー_1"><path d="M941.93,1042.83c-142.17,25.23-375.75,43.15-620.78-24.84-13.99-3.88-27.72-8.06-40.43-12.85-23.94-9.01-37.96-15.37-49.44-30.58v-1.6s103.41-.61,103.41-.61l57.25-.41v.65c148.07,41.07,482.4,44.88,589.4-3.69v-1.22c11.25-.08,30.96-.07,57.1.49,18.27,21.44-39.17,55.1-96.53,74.6v.05Z" fill="#fff5f5"/><path d="M1038.45,968.18c-26.14-.56-45.85-.57-57.1-.49-6.27.03-9.91.09-10.58.1l-578.82,4.15-57.25.41-103.42.61-5.93.03s-11.63.51-23.6-4.74c-13.71-5.99-27.86-19.49-25.74-49.84l.69-3.24c18.88,21.55,53.57,19.02,53.57,19.02l522.54,1.32,221.86.56c7.65.03,14.23-5.55,15.26-13.13.56-4.05.86-8.05.91-11.98.04-3.38-.1-6.71-.41-9.99.89-.01,1.83-.03,2.79-.04,82.53-.56,452.91,36.26,598.82,79.41,13.76,4.06,27.98-4.8,30.33-18.96l71.48-431.64c19.91-72.53-324.47-136.4-642.28-115.11.73-4.59.9-8.5.66-11.85-.92-12.71-7.85-17.45-13.88-21.14l14.42,1.02,1.35-1.47c.87-2.68.23-8.44.65-9.36.05-.11.13-.15.21-.11,20.02,9.54,746.3-29.19,745.75,224.37,0,0-2.47,17.46-6.59,46.19-3.11,21.6-7.15,49.55-11.79,81.24-9.83,67.18-22.35,151.14-34.29,226.79-4.47,28.34-8.87,55.51-13.02,80.2-3.54,21.11-6.91,40.4-9.98,57.06-2.54,13.78-16.46,13.74-28.82,7.17-168.04-89.26-424.87-116.05-583.61-123.92-28.16-1.39-53.22-2.19-74.15-2.64Z" fill="#c74444"/><path d="M941.93,1042.83v-.05c57.35-19.5,114.79-53.16,96.52-74.6,20.94.45,46,1.25,74.15,2.64l-.14,2.73c-1.51,18.4-42.77,39.05-74.1,48-3.5.97-7.19,1.94-11.06,2.95-11.93,3.07-25.63,6.34-40.97,9.64-13.57,2.91-28.4,5.84-44.4,8.68Z" fill="#c74444"/><path d="M1737.8,1030.98l-2.79-.47c4.15-24.68,8.55-51.86,13.02-80.2l.2.04c100.39-101.62,36.94-226.41,36.94-226.41l-2.85-.41c4.64-31.7,8.68-59.64,11.79-81.24l2.43.35c53.65,48.59,53.5,106.41,52.25,131.12-.29,5.61.89,11.2,3.42,16.22l3.57,7.05v.42c-1.6-.08-3.21.97-3.56,2.79l-31.06,159.59c-.2,1.04.08,2.11.77,2.91l1.71,1.98-.6.51-2.01-1.36c-5.8-3.89-13.68-1.61-16.53,4.77-10.15,22.74-31.38,56.16-66.72,62.34Z" fill="#c74444"/><path d="M647.7,734.89l-.15,3.12c4.96,27.08,12.05,40.95,20.2,83.97l.03.93-2.52.1-2.18.1c-2.11,2.73-2.63,5.39-2.19,7.85l-102.56-12.15-9.87,43.2,26.03,11.98,27.29-16.34,63.41-3.06-3.27-20.56c2.83,5.64,9.93,9.83,12.01,10.98.38.2,1.8.4,1.8.4l46.82-1.27s-.46-.81.32-2.1c.11-.18.21-.36.32-.54l-.16,3.07,29.74,88.08v2.85s-522.55-1.32-522.55-1.32c0,0-34.69,2.53-53.57-19.02-3.97-4.51-7.23-10.1-9.33-16.98l-65.66-179.18s-1.05-7.55-1.19-20.36l2.86-.13,377.55,15.09c44.98-2.6,50.61-51.34,50.61-51.34l67.66-382.53c9.8-53.42,3.21-82.12-17.76-99.77l.8-.93c52.71,1.79,146.42,3.53,166.09,3.89l-.04,1.07c-1.21.73-2.2,1.92-2.63,3.5-15.99,57.04-86.17,299.71-84.51,511.37.11,12.76,15.49,25.16,26.81,31.03h2.68c-1.36-262.64,77.22-519.14,77.22-519.14,45.11-4.4,92.76,1.13,92.76,1.13,0,0-28.83-.96-55.01,118.59-2.43,11.08-4.66,22.56-6.74,34.27-10.91,61.5-17.36,128.93-23.24,171.25-6.25,44.94-7.5,90.47-3.1,135.63,2.46,25.18,6.73,50.71,14.06,69.69l-88.1-4.07-50.79-2.35Z" fill="#c74444"/><path d="M1864.91,1003.91c-.56,2.83-4.11,3.77-6,1.6l-35.26-40.8-1.71-1.98c-.69-.8-.97-1.87-.77-2.91l31.06-159.59c.35-1.82,1.96-2.86,3.55-2.79.89.04,1.78.42,2.45,1.2l36.96,42.77c.69.8.98,1.88.78,2.92l-31.06,159.58ZM1860.21,959.4c.66.76,1.92.43,2.11-.56l17.18-88.31c.08-.36-.02-.74-.27-1.02l-21.17-24.49c-.66-.77-1.91-.43-2.11.56l-17.18,88.3c-.07.36.03.74.27,1.02l21.17,24.5Z" fill="#d9d9d9"/><path d="M974.66,936.08l-221.86-.56v-2.85s-29.73-88.08-29.73-88.08l.16-3.07c2.08-3.76,3.98-11.21-6.03-19.51l-.05-2.19c-.61-1.99-12.92-60.83-18.77-80.39l.11-2.19,88.1,4.07s193.62,52.51,203.83,159.66c.31,3.28.45,6.61.41,9.99-.05,3.94-.34,7.93-.91,11.98-1.04,7.58-7.62,13.16-15.26,13.13Z" fill="#c74444"/><path d="M1622.35,961.39c-2.35,14.16-16.56,23.02-30.33,18.96-145.91-43.15-516.28-79.97-598.82-79.41l58.34-486.3c317.81-21.3,662.2,42.58,642.28,115.11l-71.48,431.64Z" fill="#fff5f5"/><path d="M993.21,900.94c-.97,0-1.9.03-2.79.04-10.21-107.16-203.83-159.66-203.83-159.66-7.33-18.98-11.6-44.51-14.06-69.69-4.4-45.16-3.15-90.69,3.1-135.63,5.88-42.32,12.33-109.75,23.24-171.25l239.46,16.9c6.03,3.69,12.95,8.43,13.88,21.14.24,3.35.07,7.26-.66,11.85l-58.34,486.3Z" fill="#fff5f5"/><path d="M601.8,857.66l-27.29,16.34-26.03-11.98,9.87-43.2,102.56,12.15c.18,1.07.55,2.08,1.05,3.07l3.27,20.56-63.41,3.06Z" fill="#d9d9d9"/><path d="M722.58,844.16l-46.82,1.27s-1.43-.2-1.8-.4c-2.09-1.15-9.19-5.34-12.01-10.98l-.47-3-.58-.07c-.44-2.46.08-5.12,2.19-7.85l2.18-.1,2.52-.1h.01s48.06-1.97,48.06-1.97c.48.35.93.72,1.34,1.07,10.01,8.3,8.11,15.75,6.03,19.51-.11.18-.21.36-.32.54-.78,1.29-.32,2.1-.32,2.1Z" fill="#c74444"/><path d="M667.79,822.92h-.01s-.03-.93-.03-.93c-8.14-43.03-15.24-56.89-20.2-83.97l.15-3.12,50.79,2.35-.11,2.19c5.85,19.56,18.15,78.4,18.77,80.39l.05,2.19c-.42-.35-.87-.71-1.34-1.07l-48.06,1.97Z" fill="#c74444"/><path d="M103.37,698.52l-2.86.13c-.19-18.58,1.54-48.2,11.15-81.99l16.89-69.9,70.51-296.86,17.51-57.87c.9-3.73,2.03-7.39,3.42-10.94.04-.14.1-.27.14-.39,7.91-20.09,27.93-32.75,49.49-31.86l266.4,11.49c22.61.4,44.82,18.56,44.82,18.56l.58,1.1c20.97,17.66,27.57,46.35,17.76,99.77l-67.66,382.53s-5.63,48.74-50.61,51.34l-377.55-15.09ZM176.99,565.43l239.22,19.76,60.77-338.9-219.95-16.25-80.04,335.39Z" fill="#c74444"/><path d="M751.81,183.13c1.79.1,3.58,1.01,4.71,2.8l10.92,23.92.41.9s-78.58,256.5-77.22,519.13h-2.68c-11.32-5.86-26.7-18.26-26.81-31.02-1.67-211.65,68.52-454.33,84.51-511.37.44-1.58,1.42-2.77,2.63-3.5l.04-1.07c1.44.02,2.47.04,3.08.05.18.01.33,0,.42.01v.14Z" fill="#b24040"/><polygon points="416.2 585.2 176.99 565.43 257.02 230.04 476.97 246.29 416.2 585.2" fill="#fff"/><path d="M1038.32,381.65l-239.46-16.9c2.08-11.71,4.31-23.2,6.74-34.27,26.17-119.55,55.01-118.59,55.01-118.59,162.98-.14,189.47,122.51,193.77,159.83l.37.12c-.43.92.22,6.68-.65,9.36l-1.35,1.47-14.42-1.02Z" fill="#c74444"/><path d="M752.81,935.67c-1.25,0-2.42-.79-2.84-2.04l-29.74-88.08c-.53-1.57.31-3.27,1.88-3.8s3.27.31,3.8,1.88l29.74,88.08c.53,1.57-.31,3.27-1.88,3.8-.32.11-.64.16-.96.16Z" fill="#2b2b2b"/><path d="M717.12,822.81c-1.28,0-2.45-.81-2.85-2.09-.17-.56-.65-2.74-2.47-11.06-3.88-17.8-11.97-54.84-16.31-69.36-.48-1.59.43-3.26,2.01-3.73,1.59-.48,3.26.43,3.73,2.01,4.41,14.73,12.52,51.92,16.42,69.8,1.17,5.37,2.18,10.01,2.35,10.59.44,1.58-.46,3.25-2.03,3.71-.29.08-.58.12-.86.12Z" fill="#2b2b2b"/><path d="M700.91,933.46c-1.28,0-2.47-.83-2.87-2.12l-25.94-84.76c-.48-1.58.41-3.26,1.99-3.75,1.59-.48,3.26.41,3.75,1.99l25.94,84.76c.48,1.58-.41,3.26-1.99,3.75-.29.09-.59.13-.88.13Z" fill="#2b2b2b"/><path d="M667.74,824.99c-1.41,0-2.67-1-2.94-2.44-4.45-23.51-8.59-38.27-12.24-51.29-3.06-10.93-5.71-20.36-7.97-32.7-.3-1.63.78-3.19,2.41-3.49,1.63-.3,3.19.78,3.49,2.41,2.21,12.07,4.82,21.38,7.84,32.16,3.68,13.14,7.85,28.02,12.35,51.79.31,1.63-.76,3.2-2.39,3.5-.19.04-.38.05-.56.05Z" fill="#2b2b2b"/><path d="M682.14,1068.33c-107.84,0-232.72-11.63-361.79-47.45-16.45-4.56-29.38-8.68-40.69-12.94-23.42-8.82-38.52-15.34-50.78-31.58-1-1.32-.74-3.2.59-4.2,1.32-1,3.2-.74,4.2.59,11.28,14.94,25.7,21.14,48.1,29.58,11.13,4.2,23.9,8.25,40.18,12.77,257.63,71.48,498.69,46.21,619.45,24.78,15-2.67,29.9-5.58,44.29-8.66,14.08-3.02,27.82-6.25,40.85-9.61,4.22-1.09,7.82-2.06,11.01-2.94,33.71-9.63,70.67-30.16,71.91-45.35.13-1.65,1.57-2.89,3.23-2.75,1.65.14,2.88,1.58,2.75,3.24-1.76,21.52-47.71,42.48-76.27,50.64-3.24.9-6.88,1.86-11.13,2.97-13.11,3.38-26.94,6.63-41.09,9.67-14.46,3.1-29.43,6.02-44.5,8.71-60.78,10.79-151.94,22.54-260.31,22.54Z" fill="#2b2b2b"/><path d="M702.29,1007.37h-.25c-120.94-.02-240.07-12.23-310.9-31.88-1.6-.44-2.53-2.1-2.09-3.69s2.1-2.53,3.69-2.09c145.31,40.31,479.64,45.37,587.36-3.53,1.51-.68,3.29-.02,3.97,1.49.68,1.51.02,3.29-1.49,3.97-50.03,22.71-152.19,35.73-280.3,35.73Z" fill="#2b2b2b"/><path d="M941.92,1045.79c-1.25,0-2.42-.79-2.84-2.04-.53-1.57.31-3.27,1.87-3.81,51.81-17.62,92.81-42.74,97.49-59.73,1.04-3.77.29-7.07-2.28-10.09l-.34-.38c-1.1-1.23-1-3.13.23-4.24,1.24-1.11,3.13-1,4.24.23l.39.43c3.9,4.57,5.11,9.96,3.55,15.63-6.16,22.37-55.34,48.17-101.34,63.81-.32.11-.65.16-.97.16Z" fill="#2b2b2b"/><path d="M786.58,744.32c-1.2,0-2.34-.73-2.8-1.92-6.54-16.94-11.34-40.65-14.24-70.48-4.33-44.46-3.29-90.33,3.11-136.33,1.89-13.57,3.87-30.05,5.97-47.5,4.63-38.46,9.87-82.04,17.29-123.86,2.18-12.32,4.46-23.9,6.76-34.39,25.8-117.82,54.49-121.02,57.97-120.95h.25c164.95,0,192.08,124.35,196.47,162.49.19,1.65-.99,3.13-2.64,3.32-1.64.18-3.13-.99-3.32-2.64-4.24-36.88-30.54-157.17-190.51-157.17h-.27c-.7.06-27.42,3.57-52.08,116.23-2.28,10.42-4.54,21.91-6.71,34.16-7.39,41.65-12.62,85.15-17.24,123.53-2.1,17.47-4.09,33.98-5.98,47.61-6.34,45.53-7.37,90.93-3.09,134.93,2.86,29.29,7.52,52.47,13.87,68.9.6,1.55-.17,3.28-1.72,3.88-.36.14-.72.2-1.08.2Z" fill="#2b2b2b"/><path d="M675.76,848.42c-.14,0-.28,0-.42-.03-1.96-.27-2.55-.59-2.81-.73-2.98-1.65-10.18-6.11-13.27-12.28-.67-1.3-1.1-2.59-1.33-3.91-.64-3.54.29-6.98,2.77-10.19.54-.7,1.36-1.12,2.24-1.16l4.71-.2s.04,0,.05,0l48.02-1.97c.68-.04,1.36.18,1.91.59.52.39,1.02.79,1.47,1.17,12.13,10.06,8.75,19.62,6.74,23.26-.02.04-.04.07-.06.11l-.27.45c.15.7.04,1.45-.32,2.09-.52.92-1.48,1.5-2.53,1.53l-46.82,1.27s-.05,0-.08,0ZM725.19,842.68h0s0,0,0,0ZM725.19,842.67s0,0,0,0c0,0,0,0,0,0ZM675.19,842.28c.18.04.47.1.75.14l44.01-1.19c.11-.24.24-.48.39-.73l.28-.46c2.78-5.07.94-10.5-5.34-15.71,0,0,0,0-.01-.01-.13-.11-.26-.21-.39-.32l-46.96,1.92s-.04,0-.06,0l-3.15.13c-.85,1.46-1.13,2.91-.87,4.39.13.74.38,1.46.77,2.23,2.33,4.65,8.43,8.39,10.58,9.6ZM723.22,841.52h0,0Z" fill="#2b2b2b"/><path d="M574.5,877c-.43,0-.85-.09-1.25-.27l-26.03-11.98c-1.29-.59-1.99-2.01-1.67-3.39l9.87-43.2c.34-1.5,1.75-2.49,3.28-2.31l103.13,12.22c1.33.16,2.4,1.18,2.61,2.51l3.74,23.56c.13.84-.1,1.7-.63,2.36-.54.66-1.33,1.06-2.18,1.1l-62.66,3.03-26.65,15.95c-.47.28-1.01.43-1.54.43ZM551.94,860.31l22.38,10.3,25.93-15.53c.42-.25.9-.4,1.4-.42l60.07-2.9-2.74-17.26s0,0,0,0l-.12-.75-98.2-11.63-8.72,38.19Z" fill="#2b2b2b"/><path d="M1052.74,384.41s-.08,0-.13,0l-253.88-17.92c-.96-.07-1.71-.9-1.65-1.86.06-.96.86-1.7,1.83-1.63h.05s253.89,17.92,253.89,17.92c.96.07,1.69.9,1.62,1.87-.06.92-.83,1.63-1.74,1.63Z" fill="#2b2b2b"/><path d="M1711.24,1102.04c-4.99,0-10.65-1.57-16.44-4.65-171.11-90.89-438.31-116.43-582.35-123.57-24.83-1.23-49.75-2.12-74.07-2.64-25.72-.55-45.2-.57-57.02-.49-5.97.03-9.54.08-10.44.1h-.11s-578.85,4.16-578.85,4.16l-57.25.41-109.3.64c-1.04.04-12.72.34-24.88-5-13.82-6.04-29.81-20.11-27.53-52.79.12-1.65,1.54-2.9,3.2-2.78,1.65.12,2.9,1.55,2.78,3.2-1.64,23.44,6.42,39.21,23.95,46.88,11.21,4.92,22.15,4.5,22.26,4.49.04,0,.08,0,.12,0l109.35-.64,57.25-.41,578.91-4.16c.9-.02,4.5-.07,10.5-.1,11.85-.08,31.39-.06,57.18.49,24.37.52,49.35,1.42,74.24,2.65,103.75,5.14,200.88,15.73,288.7,31.48,121.7,21.82,221.35,53.04,296.17,92.79,7.46,3.96,14.62,5.01,19.17,2.82,2.8-1.35,4.59-4.01,5.3-7.88,2.99-16.2,6.35-35.38,9.97-57.01,3.91-23.24,8.29-50.21,13.01-80.17,10-63.3,21.53-139.59,34.29-226.75,3.85-26.3,7.81-53.63,11.78-81.24,3.86-26.91,6.27-43.94,6.56-45.98.05-89.1-92.49-151.96-275.04-186.82-149.63-28.57-318.63-30.85-409.43-32.07-31.55-.42-48.29-.69-55.66-1.66,0,2.24-.02,4.89-.64,6.79-.51,1.57-2.21,2.44-3.78,1.92-1.58-.51-2.44-2.21-1.92-3.78.37-1.12.35-3.69.34-5.39-.01-2.14-.02-3.32.44-4.31.02-.04.03-.07.05-.11.8-1.57,2.65-2.2,4.21-1.43,3.06,1.24,26.88,1.56,57.04,1.96,90.98,1.22,260.32,3.5,410.47,32.17,185.94,35.51,280.11,100.42,279.91,192.93,0,.14-.01.28-.03.41,0,0-2.47,17.47-6.59,46.2-3.97,27.61-7.94,54.94-11.79,81.25-12.76,87.18-24.3,163.5-34.3,226.82-4.73,29.98-9.11,56.97-13.02,80.22-3.63,21.66-6.99,40.88-9.99,57.11-1.35,7.3-5.42,10.66-8.59,12.2-2.39,1.15-5.15,1.72-8.15,1.72ZM1053.66,374.43c.07.04.15.07.23.1-.08-.03-.16-.07-.23-.1Z" fill="#2b2b2b"/><path d="M974.71,939.08h-.06l-221.86-.56-522.43-1.32c-2.67.17-36.66,1.96-55.93-20.04-4.48-5.09-7.82-11.15-9.91-18.01l-65.63-179.11c-.07-.2-.12-.41-.15-.62-.04-.32-1.08-7.89-1.22-20.75-.19-19.03,1.6-48.84,11.25-82.79l16.88-69.84,70.51-296.85c.01-.06.03-.12.05-.18l17.48-57.79c.93-3.87,2.11-7.62,3.49-11.16.04-.12.08-.23.12-.33,0-.03.04-.12.05-.14,8.32-21.14,29.37-34.69,52.4-33.76l266.41,11.49c23.3.41,45.65,18.46,46.59,19.23,1.28,1.05,1.47,2.94.42,4.22-1.05,1.28-2.94,1.47-4.22.43-.21-.18-21.7-17.51-42.97-17.88l-266.48-11.49c-20.48-.83-39.19,11.2-46.57,29.96l-.04.1c-.02.07-.08.22-.1.29-1.31,3.33-2.42,6.88-3.3,10.54-.01.06-.03.11-.05.17l-17.48,57.79-70.49,296.77-16.9,69.92s-.02.08-.03.12c-9.46,33.28-11.23,62.49-11.04,81.14.12,11.03.93,18.15,1.12,19.67l65.55,178.87c.02.05.04.11.05.16,1.85,6.06,4.77,11.4,8.71,15.88,17.65,20.15,50.77,18.03,51.1,18.01.07,0,.14,0,.22,0l522.54,1.32,221.86.56h.04c6.16,0,11.42-4.52,12.24-10.54.54-3.85.83-7.76.88-11.61.04-3.22-.09-6.47-.4-9.67-5.15-54.03-59.49-93.8-104.17-117.65-46.76-24.96-92.92-38.13-97.15-39.31l-138.55-6.41-536.21-24.84c-1.66-.08-2.93-1.48-2.86-3.14.08-1.66,1.49-2.92,3.14-2.86l536.21,24.84,138.89,6.42c.22.01.44.04.65.1.49.13,49.3,13.52,98.71,39.9,29.12,15.54,52.77,32.5,70.32,50.41,22.16,22.61,34.6,46.83,37,71.97.33,3.41.47,6.88.43,10.31-.05,4.11-.37,8.26-.94,12.36-1.23,8.97-9.04,15.72-18.18,15.72Z" fill="#2b2b2b"/><path d="M448.42,687.22c-.82,0-1.65-.02-2.48-.06l-338.41-16.21c-.97-.05-1.71-.87-1.66-1.83.05-.96.89-1.7,1.83-1.66l338.41,16.21c24.18,1.17,45.64-15.94,49.92-39.77l71.5-398.92c4.92-27.41-6.28-75.21-31.23-82.55-.93-.27-1.46-1.25-1.18-2.17.27-.93,1.24-1.46,2.17-1.18,12.33,3.63,22.65,16.36,29.04,35.84,5.48,16.69,7.25,36.11,4.64,50.68l-71.5,398.92c-4.44,24.74-26.14,42.71-51.05,42.71Z" fill="#2b2b2b"/><path d="M480.92,715.36s-.05,0-.07,0l-377.55-15.09c-.97-.04-1.72-.85-1.68-1.82.04-.96.84-1.71,1.82-1.68l377.46,15.08c42.93-2.54,48.83-49.31,48.88-49.79,0-.03,0-.07.02-.1l67.66-382.53c9.32-50.81,4.19-80.15-17.17-98.13-.74-.62-.83-1.73-.21-2.47.62-.74,1.73-.84,2.47-.21,22.45,18.9,27.94,49.23,18.36,101.43l-67.65,382.48c-.26,2.04-7.07,50.21-52.24,52.82-.03,0-.07,0-.1,0Z" fill="#2b2b2b"/><path d="M687.95,731.64c-.27,0-.55-.06-.8-.2-10.25-5.32-27.63-18.16-27.76-32.57-.69-87.33,10.72-190.07,33.91-305.37,18.62-92.57,39.95-168.39,49.06-200.77l1.6-5.71c.53-1.91,1.74-3.52,3.42-4.53.83-.5,1.9-.23,2.4.6.5.83.23,1.9-.6,2.4-.64.38-1.48,1.13-1.85,2.47l-1.61,5.72c-56.04,199.2-83.91,369.16-82.84,505.17.1,11.09,13.48,23.06,25.87,29.49.86.45,1.19,1.5.75,2.36-.31.6-.92.94-1.55.94Z" fill="#2b2b2b"/><path d="M767.44,212.85c-1.14,0-2.23-.65-2.73-1.75l-10.82-23.71c-.72-1.03-1.71-1.23-2.25-1.26h-.16c-1.64.06-3.03-1.25-3.09-2.91-.05-1.66,1.25-3.04,2.91-3.1.22,0,.46,0,.67.01,2.92.16,5.5,1.69,7.08,4.19.07.11.14.23.19.36l10.92,23.92c.69,1.51.02,3.29-1.48,3.98-.4.18-.83.27-1.24.27Z" fill="#2b2b2b"/><path d="M690.65,733.06c-.95,0-1.73-.76-1.75-1.71,0-.24,0-.49,0-.74v-.69c-.71-135.84,20.34-269.9,38.12-358.43,19.27-95.93,38.96-160.6,39.16-161.25.28-.92,1.26-1.44,2.19-1.16.92.28,1.44,1.26,1.16,2.19-.2.64-19.85,65.19-39.09,160.96-17.75,88.37-38.76,222.15-38.06,357.65,0,.21,0,.46,0,.71v.69c.03.97-.74,1.77-1.7,1.79h-.04Z" fill="#2b2b2b"/><path d="M480.92,715.36c-.94,0-1.72-.75-1.75-1.7-.03-.97.73-1.77,1.7-1.8l178.14-5.49c.95-.04,1.77.73,1.8,1.7.03.97-.73,1.77-1.7,1.8l-178.14,5.49s-.04,0-.05,0Z" fill="#2b2b2b"/><path d="M751.82,185.98c-.06,0-.12,0-.17,0-.11,0-.23,0-.36,0l-3.02-.05c-18.48-.33-113.31-2.09-166.15-3.89-1.66-.06-2.95-1.44-2.9-3.1.06-1.66,1.46-2.95,3.1-2.9,52.8,1.79,147.58,3.55,166.04,3.88l3.07.05s.08,0,.12,0h.14c.1,0,.18,0,.25,0,.16,0,.23,0,.23,0,1.63.15,2.89,1.58,2.77,3.21-.12,1.6-1.44,2.81-3.02,2.78-.03,0-.07,0-.11,0Z" fill="#2b2b2b"/><path d="M860.61,214.88c-.12,0-.23,0-.35-.02-.47-.05-47.86-5.44-92.12-1.12-1.65.17-3.12-1.05-3.28-2.69-.16-1.65,1.05-3.12,2.69-3.28,44.91-4.38,92.91,1.08,93.39,1.13,1.65.19,2.82,1.68,2.63,3.33-.18,1.53-1.47,2.65-2.98,2.65Z" fill="#2b2b2b"/><path d="M992.65,907.32c-.07,0-.14,0-.21-.01-.96-.12-1.64-.99-1.53-1.95l.56-4.63,58.34-486.3c.67-4.27.89-8.13.65-11.52-.83-11.38-6.64-15.85-13.05-19.77-.2-.11-.43-.25-.66-.41-.8-.54-1.02-1.62-.49-2.43.54-.81,1.62-1.02,2.43-.49.16.11.33.21.5.31,6.97,4.27,13.81,9.5,14.76,22.53.26,3.66.03,7.78-.68,12.25l-58.33,486.24-.56,4.63c-.11.89-.86,1.54-1.74,1.54Z" fill="#2b2b2b"/><path d="M417.65,587.07l-242.83-20.06,80.85-338.82,223.37,16.5-.34,1.91-61.05,340.47ZM179.16,563.86l235.6,19.46,60.15-335.43-216.53-16-79.22,331.96Z" fill="#2b2b2b"/><path d="M1861.51,1009.71c-1.84,0-3.6-.79-4.85-2.23l-36.97-42.78c-1.3-1.5-1.83-3.49-1.45-5.44l31.06-159.59c.62-3.17,3.4-5.4,6.64-5.21,1.76.07,3.39.87,4.57,2.23l36.96,42.77c1.29,1.49,1.83,3.53,1.45,5.46l-31.06,159.58c-.48,2.45-2.27,4.36-4.67,5-.56.15-1.12.22-1.68.22ZM1855.64,800.45c-.08,0-.39.02-.46.36l-31.06,159.59c-.03.14,0,.27.09.37l1.71,1.98s0,0,0,0l35.26,40.8c.05.05.18.21.46.14.27-.07.31-.28.33-.35l31.06-159.58c.03-.13-.01-.28-.1-.38l-36.96-42.77c-.09-.11-.19-.16-.3-.16h-.02Z" fill="#2b2b2b"/><path d="M1855.8,800.03c-1.09,0-2.15-.6-2.68-1.65l-3.57-7.05c-2.76-5.47-4.06-11.6-3.74-17.73,2.65-52.22-14.6-95.53-51.27-128.74-1.23-1.11-1.32-3.01-.21-4.24,1.11-1.23,3.01-1.32,4.24-.21,23.57,21.35,39.58,46.89,47.59,75.94,6.48,23.5,6.32,44.1,5.64,57.55-.26,5.09.81,10.18,3.11,14.72l3.57,7.04c.75,1.48.16,3.28-1.32,4.03-.43.22-.9.33-1.35.33Z" fill="#2b2b2b"/><path d="M1737.8,1033.98c-1.43,0-2.7-1.03-2.95-2.48-.29-1.63.81-3.19,2.44-3.47,35.33-6.18,55.57-40.62,64.5-60.61,1.72-3.85,5.02-6.73,9.07-7.9,4.04-1.17,8.37-.49,11.87,1.86l2.02,1.36c1.37.92,1.74,2.79.81,4.16-.93,1.37-2.79,1.74-4.16.81l-2.01-1.36c-2.02-1.35-4.52-1.75-6.86-1.07-2.34.67-4.26,2.34-5.25,4.58-9.41,21.07-30.88,57.42-68.94,64.07-.17.03-.35.04-.52.05Z" fill="#2b2b2b"/><path d="M1748.24,953.35c-.76,0-1.52-.29-2.11-.87-1.18-1.16-1.19-3.06-.03-4.24,51-51.62,58.21-109.38,55.28-148.75-3.19-42.85-18.72-73.88-18.88-74.19-.75-1.48-.16-3.28,1.32-4.03,1.48-.75,3.28-.16,4.03,1.31.66,1.29,16.17,32.24,19.49,76.23,1.95,25.87-.78,50.83-8.12,74.19-9.18,29.2-25.62,55.93-48.85,79.46-.59.59-1.36.89-2.13.89Z" fill="#2b2b2b"/><path d="M1861.12,961.57c-.85,0-1.66-.36-2.23-1.02l-21.17-24.51c-.59-.68-.83-1.61-.66-2.49h0s17.18-88.31,17.18-88.31c.23-1.14,1.06-2.02,2.17-2.3,1.1-.29,2.25.08,2.99.95l21.16,24.48c.61.68.86,1.64.65,2.54l-17.17,88.26c-.21,1.11-1.03,1.99-2.13,2.29-.26.07-.53.1-.79.1ZM1860.6,958.51s0,0,0,0h0ZM1840.54,933.95l20.27,23.47,16.92-86.97-20.27-23.46-16.92,86.96ZM1877.91,870.66s0,0,.01.01h-.01ZM1877.78,870.2s0,.02,0,.02v-.02ZM1856.73,846.16s0,0,0,0h0Z" fill="#2b2b2b"/><path d="M1598.8,983.08c-2.44,0-4.89-.35-7.27-1.05-147.46-43.61-516.25-79.34-596.61-79.34-.58,0-1.15,0-1.7,0-.58,0-1.15.01-1.71.02l-1.08.02c-.99,0-1.76-.76-1.77-1.73-.01-.97.76-1.76,1.73-1.77l1.06-.02c.57,0,1.15-.02,1.74-.02.64,0,1.29,0,1.96,0,45.38,0,162.17,9.93,273.9,23.33,83.91,10.06,237.52,30.74,323.46,56.16,6.09,1.8,12.67.9,18.05-2.47,5.36-3.36,9.02-8.86,10.05-15.1l71.48-431.65c.01-.06.02-.12.04-.18,2.03-7.38-.05-14.91-6.16-22.39-11.97-14.66-39.69-29.33-80.14-42.42-39.47-12.77-91.26-24.11-149.77-32.8-125.02-18.56-272.41-24.13-404.4-15.28-.98.05-1.8-.67-1.86-1.63-.06-.96.66-1.8,1.63-1.86,132.23-8.86,279.9-3.28,405.15,15.31,122.69,18.21,207.3,46.09,232.11,76.47,6.85,8.38,9.15,16.94,6.85,25.44l-71.46,431.56c-1.2,7.23-5.44,13.6-11.65,17.49-4.12,2.58-8.85,3.91-13.63,3.91Z" fill="#2b2b2b"/></g><g id="_レイヤー_2"><path d="M1068.98,827.23l3.02,6.99,688.42,40.08.4-6.79.43-7.36,7.04.41h.09s-.01.29-.01.29l-1.05,18.11c-.15,2.5-2.16,4.42-4.49,4.28l-702.17-40.88c-2.34-.14-4.11-2.27-3.96-4.77l1.07-18.39,7.95.46,3.28,7.57Z" fill="#fc9d56"/><polygon points="1760.42 874.31 1072 834.22 1068.98 827.23 1760.55 867.5 1760.82 867.52 1760.42 874.31" fill="#fff"/><polygon points="1760.55 867.5 1068.98 827.23 1065.71 819.66 1761.25 860.16 1760.82 867.52 1760.55 867.5" fill="#fff"/><path d="M1057.76,819.2l-12.6-.73c-2.24-.13-3.95-2.05-3.82-4.3l31.16-535.09c.13-2.24,2.06-3.95,4.3-3.82l723.13,42.1c2.24.13,3.95,2.06,3.82,4.3l-31.16,535.09c-.13,2.21-2,3.91-4.21,3.83h-.09s-7.04-.42-7.04-.42l-695.54-40.5-7.95-.46Z" fill="#fc9d56"/><path d="M1349.43,724.34l-162.14,17.89,10.56-181.39.05-.86,10.56-181.39,158.96,36.59-.46,7.96-.59.84c-.75-.61-1.51-1.36-2.06-2.22-.42-.67-.71-1.41-.77-2.21l-150.47-32.95.57,98.24s1.23,32.97-11.05,65.15l-.28,4.73-.34,5.87h0s0,.12,0,.12l-.39,6.67-.23,3.94c8.46,33.39,3.41,65.99,3.41,65.99l-11.96,97.51,153.28-15.26c.15-.78.53-1.49,1.03-2.11.72-.88,1.67-1.59,2.57-2.13l.22,1.07-.46,7.96Z" fill="#f4475c"/><path d="M1346.08,719.55l-153.28,15.26,11.96-97.51s5.04-32.6-3.41-65.99l.23-3.94,1.21.07c20.6,35.67-7.87,164.15-7.87,164.15l151.32-14.9.86.75c-.5.62-.87,1.32-1.03,2.11Z" fill="#fff"/><path d="M1365.71,570.78c2.04,3.59,16.8,31.84,5.45,77.81-12.17,49.28-18.19,64.79-18.19,64.79l-.77.72s-1.19.41-2.53,1.21c-.89.53-1.85,1.25-2.57,2.13l-.86-.75-151.32,14.9s28.46-128.48,7.87-164.15l-1.21-.07.39-6.67v-.11s0,0,0,0l.85.05,162.66,9.75s.08.13.23.39Z" fill="#fff"/><path d="M1369,425.67l.68.8s4.38,16.22,11.1,66.92c6.48,48.84-13.58,75.49-15.07,77.38-.15-.26-.23-.39-.23-.39l-162.66-9.75-.85-.05.34-5.87.32.02c23.94-16.39,13.18-163.95,13.18-163.95l148.49,30.98h.01c.55.85,1.31,1.61,2.06,2.21,1.33,1.08,2.62,1.7,2.62,1.7Z" fill="#fff"/><path d="M1202.64,554.74l-.32-.02.28-4.73c12.27-32.18,11.05-65.15,11.05-65.15l-.57-98.24,150.47,32.95c.06.8.35,1.53.77,2.21h-.01s-148.49-30.97-148.49-30.97c0,0,10.76,147.57-13.18,163.95Z" fill="#fff"/><path d="M1768.54,863.58c-.09,0-.18,0-.27,0h-.1s-7.09-.42-7.09-.42l-716.09-41.7c-1.88-.11-3.61-.95-4.87-2.36-1.26-1.41-1.89-3.22-1.78-5.11l31.16-535.09c.11-1.88.95-3.61,2.36-4.87,1.41-1.26,3.22-1.88,5.11-1.78l723.13,42.1c3.89.23,6.87,3.58,6.64,7.46l-31.16,535.09c-.22,3.78-3.29,6.66-7.04,6.66ZM1057.93,816.2l710.65,41.38c.48.03.97-.42,1-1.01l31.16-535.09c.03-.59-.42-1.09-1-1.13l-723.13-42.1c-.38-.02-.65.16-.77.27-.12.11-.33.35-.36.73l-31.16,535.09c-.02.38.16.65.27.77.11.12.35.33.73.35l12.6.73Z" fill="#2b2b2b"/><path d="M1763.05,886.25c-.14,0-.27,0-.41-.01l-702.17-40.88c-1.97-.11-3.76-1.03-5.05-2.58-1.24-1.49-1.85-3.39-1.74-5.37l1.15-19.8,5.99.35-1.15,19.8c-.03.45.1.87.36,1.18.15.18.41.4.78.42l702.17,40.88c.66.03,1.27-.63,1.32-1.46l1.05-18.11,5.99.35-1.05,18.11c-.23,4-3.45,7.11-7.25,7.11Z" fill="#2b2b2b"/><polygon points="1762.07 876.16 1760.32 876.05 1070.83 835.91 1063.85 819.77 1067.07 818.39 1073.18 832.54 1758.78 872.46 1759.53 859.49 1763.03 859.69 1762.07 876.16" fill="#2b2b2b"/><polygon points="1760.45 869.25 1067.8 828.92 1068.01 825.42 1069.08 825.49 1760.65 865.75 1760.45 869.25" fill="#2b2b2b"/><rect x="1439.16" y="-20.85" width="3.5" height="695.14" transform="translate(1030.99 1746.2) rotate(-86.67)" fill="#2b2b2b"/><path d="M1192.8,736.56c-.47,0-.92-.19-1.25-.53-.37-.38-.55-.91-.49-1.44l11.96-97.51c.06-.38,4.89-32.71-3.37-65.35-.04-.17-.06-.35-.05-.53l.62-10.61c.06-.96.86-1.7,1.85-1.65.96.06,1.7.88,1.65,1.85l-.6,10.34c8.35,33.26,3.43,66.1,3.38,66.42l-11.69,95.28,149.96-14.93c.24-.54.56-1.07.97-1.57.76-.93,1.78-1.78,3.03-2.54,1.48-.89,2.81-1.35,2.86-1.37.92-.31,1.91.18,2.22,1.09.31.91-.17,1.91-1.09,2.22-.01,0-1.05.37-2.2,1.06-.89.54-1.62,1.13-2.11,1.73-.35.44-.58.89-.67,1.33-.15.76-.77,1.33-1.54,1.41l-153.28,15.26c-.06,0-.12,0-.17,0Z" fill="#2b2b2b"/><path d="M1198.53,729.64c-.5,0-.98-.21-1.31-.59-.37-.42-.51-.99-.39-1.54.15-.67,14.88-67.24,16.46-100.34,2.19-45.58-10.05-63.69-10.17-63.86-.55-.79-.36-1.88.43-2.44.79-.55,1.88-.37,2.43.42.53.76,13.06,19.07,10.81,66.05-1.43,29.85-13.4,86.43-16.03,98.59l151.3-13.58c.97-.09,1.81.62,1.9,1.59.09.96-.62,1.81-1.59,1.9l-153.68,13.79c-.05,0-.1,0-.16,0Z" fill="#2b2b2b"/><path d="M1187.29,745.23c-.76,0-1.51-.29-2.07-.82-.64-.61-.98-1.47-.93-2.35l10.56-181.39c.1-1.65,1.54-2.91,3.17-2.82,1.65.1,2.92,1.52,2.82,3.17l-10.36,177.85,156.09-17.23.32-5.43c.1-1.65,1.52-2.89,3.17-2.82,1.65.1,2.92,1.52,2.82,3.17l-.46,7.96c-.09,1.46-1.21,2.65-2.67,2.81l-162.14,17.89c-.11.01-.22.02-.33.02Z" fill="#2b2b2b"/><path d="M1203.73,560.69l-1.75-.1-1.74-.19.61-10.52c.01-.18.05-.35.11-.52,12-31.46,10.95-64.13,10.93-64.46l-.57-98.29c0-.53.24-1.04.65-1.37.41-.33.96-.46,1.48-.35l150.47,32.95c.76.17,1.31.81,1.37,1.58.03.45.2.91.51,1.41.37.58.95,1.2,1.67,1.79,1.14.92,2.27,1.47,2.28,1.48.87.42,1.24,1.46.82,2.33-.42.87-1.46,1.24-2.33.82-.06-.03-1.5-.72-2.97-1.92-1.02-.83-1.84-1.72-2.43-2.64-.35-.56-.61-1.12-.78-1.68l-147.22-32.24.55,96.05c.01.28,1.09,33.47-11.07,65.53l-.6,10.33Z" fill="#2b2b2b"/><path d="M1204.71,561.05c-.42,0-.83-.15-1.17-.45-.72-.65-.78-1.75-.14-2.47.24-.27,14.4-16.87,17.51-62.25,2.27-33.06-4.64-100.88-4.71-101.57-.06-.56.15-1.1.57-1.48.42-.37.98-.53,1.53-.41l151.04,31.53c.95.2,1.55,1.12,1.36,2.07-.2.95-1.13,1.56-2.07,1.36l-148.7-31.04c1.2,12.39,6.53,69.97,4.48,99.78-3.21,46.92-17.78,63.66-18.4,64.35-.35.39-.82.58-1.3.58Z" fill="#2b2b2b"/><path d="M1197.85,563.84c-.06,0-.12,0-.18,0-1.65-.1-2.92-1.52-2.82-3.17l10.61-182.25c.05-.88.49-1.7,1.2-2.23.71-.53,1.61-.72,2.47-.52l158.96,36.59c1.43.33,2.41,1.64,2.32,3.1l-.46,7.96c-.1,1.65-1.51,2.92-3.17,2.82-1.65-.1-2.92-1.52-2.82-3.17l.32-5.43-153.03-35.22-10.41,178.7c-.09,1.59-1.42,2.83-2.99,2.83Z" fill="#2b2b2b"/><path d="M1365.48,572.14s-.07,0-.11,0l-162.66-9.75c-.96-.06-1.7-.89-1.64-1.85.06-.96.88-1.69,1.85-1.64l162.66,9.75c.96.06,1.7.89,1.64,1.85-.06.93-.83,1.65-1.75,1.65Z" fill="#2b2b2b"/><path d="M1365.63,573.86c-.71,0-1.41-.25-1.98-.75-1.22-1.08-1.37-2.92-.31-4.17.91-1.16,20.82-27.29,14.47-75.16-6.6-49.78-10.98-66.37-11.02-66.53-.43-1.6.52-3.25,2.12-3.68,1.6-.43,3.25.52,3.68,2.11.18.67,4.51,16.99,11.18,67.31,6.57,49.54-13.38,76.69-15.68,79.63-.12.16-.19.23-.19.23-.6.66-1.43,1-2.26,1Z" fill="#2b2b2b"/><path d="M1352.97,716.38c-.36,0-.73-.07-1.08-.2-1.54-.6-2.31-2.34-1.71-3.88.06-.15,6.12-16.04,18.07-64.43,11.13-45.06-3.45-72.61-5.15-75.61-.1-.17-.15-.26-.17-.29-.87-1.4-.43-3.24.97-4.12,1.4-.87,3.25-.45,4.13.94,0,0,.11.17.3.5,1.82,3.2,17.43,32.69,5.75,80-12.08,48.9-18.06,64.52-18.3,65.16-.46,1.19-1.6,1.92-2.8,1.92Z" fill="#2b2b2b"/><path d="M1202.64,556.49c-.56,0-1.11-.27-1.45-.76-.55-.8-.34-1.89.46-2.43,6.48-4.44,14.31-23.07,14.8-86.67.3-38.43-2.36-75.34-2.38-75.71-.04-.55.18-1.08.59-1.44.41-.36.97-.51,1.51-.4l148.49,30.98c.95.2,1.55,1.12,1.36,2.07-.2.95-1.12,1.56-2.07,1.36l-146.23-30.51c.57,8.7,2.49,40.62,2.23,73.66-.41,52.28-5.9,82.41-16.33,89.55-.3.21-.65.31-.99.31Z" fill="#2b2b2b"/><path d="M1194.93,733.34c-.5,0-.98-.21-1.31-.59-.37-.42-.52-.99-.4-1.54.28-1.28,28.08-128.22,8.06-162.89-.48-.84-.2-1.91.64-2.39.84-.48,1.91-.2,2.39.64,19.4,33.59-3.27,144.85-7.16,163.04l148.93-14.66c.96-.1,1.82.61,1.91,1.57.09.96-.61,1.82-1.57,1.91l-151.32,14.9c-.06,0-.11,0-.17,0Z" fill="#2b2b2b"/><path d="M1250.31,703.74c-.96,0-1.74-.77-1.75-1.74,0-.97.77-1.76,1.74-1.76l85.02-.68h.01c.96,0,1.74.77,1.75,1.74,0,.97-.77,1.76-1.74,1.76l-85.02.68h-.01Z" fill="#2b2b2b"/><path d="M1341.34,684.29h0l-120.83-.5c-.97,0-1.75-.79-1.74-1.76,0-.96.79-1.74,1.75-1.74h0l120.83.5c.97,0,1.75.79,1.74,1.76,0,.96-.79,1.74-1.75,1.74Z" fill="#2b2b2b"/><path d="M1351.45,666.39h-.02l-128.35-1.3c-.97,0-1.74-.8-1.73-1.77,0-.96.79-1.73,1.75-1.73h.02l128.35,1.3c.97,0,1.74.8,1.73,1.77,0,.96-.79,1.73-1.75,1.73Z" fill="#2b2b2b"/><path d="M1354.7,649.36s-.04,0-.06,0l-123.66-3.94c-.97-.03-1.72-.84-1.69-1.8.03-.97.86-1.72,1.8-1.69l123.66,3.94c.97.03,1.72.84,1.69,1.8-.03.95-.81,1.69-1.75,1.69Z" fill="#2b2b2b"/><path d="M1358.03,631.06s-.04,0-.06,0l-118.37-3.99c-.97-.03-1.72-.84-1.69-1.81.03-.97.85-1.73,1.81-1.69l118.37,3.99c.97.03,1.72.84,1.69,1.81-.03.95-.81,1.69-1.75,1.69Z" fill="#2b2b2b"/><path d="M1356.54,613.4s-.06,0-.09,0l-118.74-6.19c-.97-.05-1.71-.87-1.66-1.84.05-.97.88-1.69,1.84-1.66l118.74,6.19c.97.05,1.71.87,1.66,1.84-.05.93-.82,1.66-1.75,1.66Z" fill="#2b2b2b"/><path d="M1348.09,594.23s-.06,0-.09,0l-70.81-3.39c-.97-.05-1.71-.87-1.66-1.83.05-.96.86-1.72,1.83-1.66l70.81,3.39c.97.05,1.71.87,1.66,1.83-.04.94-.82,1.67-1.75,1.67Z" fill="#2b2b2b"/><path d="M1360.92,556.6c-.07,0-.14,0-.21-.01l-112.4-13.18c-.96-.11-1.65-.98-1.53-1.94.11-.96.98-1.64,1.94-1.53l112.4,13.18c.96.11,1.65.98,1.53,1.94-.1.89-.86,1.55-1.74,1.55Z" fill="#2b2b2b"/><path d="M1361.03,538.88c-.08,0-.16,0-.24-.02l-112.57-15.4c-.96-.13-1.63-1.01-1.5-1.97.13-.96,1.02-1.63,1.97-1.5l112.57,15.4c.96.13,1.63,1.01,1.5,1.97-.12.88-.87,1.51-1.73,1.51Z" fill="#2b2b2b"/><path d="M1365.86,520.74c-.08,0-.16,0-.24-.02l-120.4-16.52c-.96-.13-1.63-1.01-1.5-1.97.13-.96,1.01-1.62,1.97-1.5l120.4,16.52c.96.13,1.63,1.01,1.5,1.97-.12.88-.87,1.51-1.73,1.51Z" fill="#2b2b2b"/><path d="M1365.94,501.25c-.09,0-.18,0-.28-.02l-122.7-19.44c-.95-.15-1.61-1.05-1.45-2,.15-.95,1.05-1.6,2-1.45l122.7,19.44c.95.15,1.61,1.05,1.45,2-.14.86-.88,1.48-1.73,1.48Z" fill="#2b2b2b"/><path d="M1365.37,482.15c-.1,0-.19,0-.29-.02l-120.77-20.07c-.95-.16-1.6-1.06-1.44-2.01.16-.95,1.06-1.6,2.01-1.44l120.77,20.07c.95.16,1.6,1.06,1.44,2.01-.14.86-.88,1.46-1.72,1.46Z" fill="#2b2b2b"/><path d="M1364.68,465.53c-.1,0-.2,0-.3-.03l-126.57-22.19c-.95-.17-1.59-1.07-1.42-2.03.17-.95,1.07-1.59,2.03-1.42l126.57,22.19c.95.17,1.59,1.07,1.42,2.03-.15.85-.89,1.45-1.72,1.45Z" fill="#2b2b2b"/><path d="M1363.74,447.81c-.1,0-.2,0-.31-.03l-107.26-18.92c-.95-.17-1.59-1.08-1.42-2.03.17-.95,1.08-1.58,2.03-1.42l107.26,18.92c.95.17,1.59,1.08,1.42,2.03-.15.85-.89,1.45-1.72,1.45Z" fill="#2b2b2b"/><path d="M1597.48,764.27c.49-13.95,1.18-28.52,2.03-43.08.85-14.56,1.85-29.11,3-43.34,1.12-13.75,8.64-20.14,20.38-19.94,11.9.22,26.15.89,40.87,1.74,17.88,1.04,36.23,2.43,51.72,3.65,10.12.75,16.47,8.9,16.1,20.79-.48,13.79-1.17,28.36-2.04,43.24-.87,14.88-1.9,29.9-3.08,44.76-.72,9.65-8.24,18.74-19.64,18.23-16.16-.62-33.91-1.34-51.16-2.34-14.09-.82-27.69-1.77-39.69-2.95-11.06-.96-18.83-9.35-18.48-20.77ZM1660.5,772.87c14.24.83,28.5,1.5,41.35,1.77,9.04.21,10.81-2.87,11.42-10.61.85-11.86,1.77-24.99,2.51-37.65.75-12.82,1.32-25.33,1.8-36.42.37-9.03-2.02-11.71-10.08-12.34-12.8-1.06-26.88-2.04-40.65-2.84-13.77-.8-27.23-1.43-39.12-1.8-9.04-.21-10.81,2.87-11.54,12.67-.79,10.91-1.62,22.46-2.33,34.48s-1.27,24.54-1.86,37.37c-.36,8.87,3.75,11.97,10.55,12.53,11.84,1.17,24.97,2.09,37.95,2.84ZM1629.34,686.25c.27-4.59,3.25-6.64,6.25-6.46,3.17.18,6.19,2.74,5.93,7.17l-1.59,27.38,23.11,1.35.93-18.69v-.16c.28-4.59,3.25-6.48,6.09-6.31,3.01.17,6.03,2.73,5.78,7.16l-1.24,18.67,16.14.94,1.35-23.27c.27-4.59,3.25-6.64,6.25-6.46,3.17.18,6.19,2.74,5.93,7.17l-3.56,61.09c-.25,4.27-3.38,6.31-6.39,6.14-3.17-.18-6.04-2.58-5.79-6.85l1.38-23.74-16.14-.94-.96,19.16c-.25,4.27-3.38,6.31-6.23,6.15-3.01-.17-5.88-2.57-5.64-6.84l1.27-19.14-23.11-1.35-1.65,28.33c-.25,4.27-3.38,6.31-6.39,6.14-3.16-.18-6.04-2.58-5.79-6.85l4.06-69.8ZM1641.45,748.25c3.4-3.77,6.7-8.66,7.75-10.35,1.23-1.99,2.86-2.69,4.28-2.61,2.85.17,5.53,3.18,5.32,6.82-.05.95-6.06,16.8-13.02,16.39-3.32-.19-6.33-3.07-6.14-6.39.07-1.27.63-2.66,1.81-3.86Z" fill="#fff"/><path d="M1707.75,792.1c-.34,0-.67,0-1.02-.02-15.6-.6-33.71-1.33-51.18-2.34-15.96-.93-28.97-1.9-39.76-2.95-12.18-1.06-20.43-10.34-20.06-22.56h0c.49-13.87,1.17-28.38,2.03-43.13.85-14.65,1.86-29.25,3-43.38,1.15-14.12,9.01-21.75,22.15-21.54,10.7.2,24.09.77,40.94,1.75,18.39,1.07,37.32,2.51,51.75,3.65,11.16.83,18.12,9.69,17.71,22.59-.48,13.72-1.17,28.28-2.04,43.28-.87,14.99-1.91,30.06-3.08,44.8-.73,9.77-8.12,19.86-20.45,19.86ZM1599.23,764.33c-.31,10.28,6.63,18.08,16.88,18.97,10.77,1.05,23.73,2.02,39.64,2.94,17.44,1.01,35.53,1.74,51.12,2.34,10.73.47,17.2-8.21,17.83-16.61,1.17-14.72,2.21-29.77,3.08-44.73.87-14.98,1.56-29.51,2.04-43.2.34-10.85-5.34-18.3-14.48-18.98-14.43-1.14-33.33-2.58-51.69-3.65-16.81-.98-30.15-1.55-40.8-1.74-.18,0-.35,0-.53,0-11,0-17.08,6.17-18.07,18.33-1.14,14.1-2.14,28.67-3,43.3-.86,14.72-1.54,29.2-2.03,43.03ZM1702.63,776.4c-.27,0-.54,0-.82,0-11.54-.24-25.09-.83-41.41-1.78h0c-14.93-.87-27.36-1.8-38.02-2.85-8.51-.69-12.48-5.38-12.12-14.34l.04-.77c.59-12.77,1.14-24.83,1.82-36.63.68-11.69,1.49-23,2.33-34.51.75-10.08,2.85-14.52,13.32-14.29,11.71.37,25.26.99,39.18,1.81,14.02.82,28.09,1.8,40.69,2.84,9.13.71,12.08,4.28,11.68,14.16-.5,11.46-1.07,23.8-1.81,36.45-.75,12.96-1.69,26.24-2.51,37.67-.64,8.08-2.76,12.25-12.38,12.25ZM1626.7,674.71c-6.72,0-8.08,1.92-8.76,11.06-.84,11.5-1.64,22.79-2.32,34.46-.69,11.78-1.24,23.83-1.82,36.58l-.04.76c-.33,8.25,3.33,10.24,8.94,10.7,10.63,1.05,23.02,1.98,37.91,2.84h0c16.28.95,29.78,1.53,41.28,1.77,7.8.19,9.06-1.76,9.64-9,.82-11.41,1.75-24.67,2.51-37.61.74-12.63,1.3-24.96,1.8-36.4.34-8.47-1.71-9.99-8.47-10.52-12.58-1.04-26.62-2.03-40.61-2.84-13.89-.81-27.4-1.43-39.07-1.8-.34,0-.66-.01-.98-.01ZM1631.43,764.66c-.15,0-.31,0-.46-.01-3.94-.23-7.75-3.29-7.44-8.7l4.06-69.8c.34-5.88,4.43-8.33,8.1-8.11,2.1.12,4.03,1.03,5.44,2.56,1.08,1.17,2.33,3.25,2.14,6.47l-1.49,25.63,19.6,1.14.85-17.1c.34-5.76,4.35-8.14,7.93-7.95,2.01.12,3.94,1.05,5.31,2.56,1.07,1.18,2.3,3.25,2.11,6.45l-1.13,16.92,12.63.74,1.25-21.52c.15-2.59,1.07-4.74,2.66-6.2,1.46-1.35,3.39-2.02,5.44-1.91,2.1.12,4.03,1.03,5.44,2.56,1.08,1.17,2.33,3.25,2.14,6.47l-3.56,61.09c-.18,3.12-1.6,4.97-2.77,5.96-1.5,1.29-3.45,1.94-5.47,1.82-3.94-.23-7.75-3.29-7.44-8.7l1.28-21.99-12.64-.74-.87,17.4c-.18,3.12-1.59,4.97-2.74,5.97-1.47,1.28-3.42,1.94-5.35,1.84-2.02-.12-3.88-.99-5.22-2.44-1.04-1.13-2.24-3.12-2.06-6.25l.21-3.17c-.77,1.83-1.85,4.09-3.02,6.07-3.47,5.88-7.1,8.75-10.71,8.55-2.66-.15-5.04-1.63-6.45-3.68l-.02.28c-.3,5.19-4.07,7.8-7.78,7.8ZM1631.08,686.35l-4.06,69.8c-.19,3.28,1.95,4.87,4.15,5,2.04.12,4.35-1.24,4.54-4.49l1.75-30.08,26.62,1.55-1.39,20.9c-.09,1.49.31,2.75,1.14,3.65.72.78,1.76,1.26,2.85,1.32,1.97.14,4.2-1.24,4.39-4.5l1.05-20.91,19.65,1.14-1.48,25.49c-.19,3.28,1.95,4.87,4.15,5,1.1.06,2.19-.29,2.99-.98.93-.8,1.47-2.01,1.55-3.51l3.56-61.09c.09-1.58-.33-2.92-1.22-3.89-.78-.84-1.89-1.36-3.06-1.43-1.09-.06-2.11.29-2.86.98-.91.84-1.44,2.17-1.54,3.83l-1.46,25.01-19.65-1.14,1.36-20.43c.09-1.56-.33-2.91-1.21-3.89-.76-.83-1.82-1.35-2.92-1.41-1.91-.12-4.03,1.06-4.24,4.67v.16s-1.02,20.43-1.02,20.43l-26.62-1.55,1.7-29.13c.09-1.58-.33-2.92-1.22-3.89-.78-.84-1.89-1.36-3.07-1.43-1.88-.12-4.19,1.09-4.4,4.82h0ZM1653.25,737.04c-.95,0-1.85.63-2.56,1.78-1.01,1.62-4.4,6.67-7.94,10.6l-.05.06c-.79.8-1.26,1.78-1.31,2.74-.13,2.23,2.01,4.4,4.49,4.54,4.87.26,10.59-12.36,11.18-14.84.05-1.25-.35-2.46-1.13-3.41-.7-.87-1.66-1.41-2.55-1.46-.04,0-.08,0-.12,0ZM1640.76,730.27l-1,17.25c.13-.16.27-.31.42-.47,3.36-3.74,6.58-8.54,7.54-10.08,1.42-2.31,3.56-3.58,5.87-3.43,1.88.11,3.73,1.11,5.06,2.75.52.64.94,1.33,1.25,2.08l.46-6.96-19.6-1.14ZM1657.05,742s0,.01,0,.02c0,0,0-.01,0-.02Z" fill="#2b2b2b"/><path d="M1438.44,757.39c-.07-4.29.1-9.84.42-15.38,1.2-20.58,1.91-32.76,16.98-32.52,3.17.03,6.5.22,9.98.42,4.12.24,8.39.49,12.01,1.02,8.04.95,13.25,6.96,13.2,16.01-.11,4.6-.27,10.15-.59,15.53-.38,6.49-.91,12.97-1.36,17.87-.79,8.05-6.92,15.16-14.85,15.02-4.12-.08-8.88-.2-13.47-.47-2.85-.17-5.7-.33-8.38-.65-8.21-.8-13.75-6.68-13.95-16.85ZM1443.43,682.57c.04-3.33.15-8.09.42-12.68.26-4.43.68-9.01,1.03-12.17.91-7.41,6.24-11.71,13.21-11.46,3.49.04,6.82.24,10.3.44,4.59.27,9.18.53,13.13.92,6.01.51,11.32,4.63,11.34,12.57-.05,3.65-.13,7.77-.37,11.89-.29,5.06-.74,9.96-1.12,13.75-.68,6.15-5.19,12.72-12,12.48-3.65-.05-7.92-.3-12.2-.55-4.12-.24-8.39-.49-11.86-.85-7.11-.57-11.87-6.09-11.87-14.35ZM1465.44,759.92c9.34.54,11.59.04,12.06-5.33.34-3.16.59-7.43.84-11.7.25-4.27.49-8.39.51-11.4.19-6.02-2.49-6.34-14.36-7.03-2.37-.14-4.76-.12-6.5-.22-5.24.01-5.61,6.34-6.25,17.26-.8,13.77-.05,17.15,4.21,17.71,2.68.31,6.16.52,9.49.71ZM1467.49,683.81c2.85.17,5.7.33,7.92.3,4.13-.08,4.49-3.55,4.96-11.62.13-2.21.26-4.43.24-6.81-.05-4.61-2.74-4.76-11.6-5.28-2.85-.17-5.71-.17-8.08-.31-3.33-.04-3.98,2.94-4.45,11.02-.52,9.02.27,11.77,3.27,12.1,2.21.29,5.05.45,7.75.61ZM1501.83,707.88c.27-4.59,3.56-6.62,6.73-6.44,3.17.19,6.35,2.75,6.09,7.18l-.96,16.46c5.46,1.75,12.34,3.58,19.06,5.4.23-3.96.45-7.75.49-11.09q0-.16.02-.32c.26-4.43,3.38-6.31,6.55-6.13,3.17.18,6.35,2.75,6.25,7.19l-.8,13.77c4.53,1.22,8.6,2.25,11.58,2.9l1.15-19.78c.29-4.91,3.42-6.95,6.43-6.77,3.32.19,6.5,2.92,6.23,7.51l-3.45,59.19c-.27,4.59-3.56,6.62-6.73,6.44-3.17-.18-6.2-2.58-5.93-7.17l1.46-25.01c-3.13-.82-7.04-1.84-11.57-3.05-.21,3.64-.59,7.43-.79,10.91-.75,10.12-5.61,14.6-15.74,14.01-5.06-.29-11.23-.81-16.92-1.3l-.51,8.71c-.26,4.43-3.55,6.46-6.72,6.28-3.33-.19-6.36-2.59-6.1-7.03l4.18-71.86ZM1500.96,657.33c.28-4.75,3.41-6.79,6.58-6.61,3.32.19,6.66,2.93,6.4,7.36l-1.92,32.92c-.26,4.43-3.55,6.46-6.88,6.27-3.17-.18-6.36-2.59-6.1-7.03l1.92-32.92ZM1511.79,757.7c4.26.41,8.69.82,12.33,1.04,5.06.29,6.86-.55,7.09-4.51l.71-9.49c-6.71-1.98-13.59-3.81-19.05-5.56l-1.08,18.52ZM1521.37,658.52c.28-4.75,3.41-6.79,6.58-6.6,3.32.19,6.66,2.93,6.4,7.36l-1.92,32.92c-.26,4.43-3.55,6.46-6.88,6.27-3.17-.19-6.36-2.59-6.1-7.03l1.92-32.92ZM1542.27,654.18c.29-5.07,3.59-7.1,6.75-6.91,3.48.2,6.82,2.94,6.54,7.69l-2.62,44.95c-.28,4.75-3.73,6.77-7.05,6.58-3.32-.19-6.52-2.6-6.24-7.35l2.62-44.95ZM1563.65,660.67c.28-4.75,3.41-6.79,6.58-6.6,3.32.19,6.66,2.93,6.4,7.36l-1.92,32.92c-.26,4.43-3.55,6.46-6.88,6.27-3.17-.18-6.36-2.59-6.1-7.03l1.92-32.92Z" fill="#fff"/><path d="M1504.13,788.53c-.16,0-.33,0-.49-.01-2.17-.13-4.14-1-5.55-2.45-1.59-1.64-2.35-3.86-2.2-6.42l4.18-71.86c.33-5.61,4.56-8.31,8.57-8.08,3.99.23,8.06,3.48,7.74,9.03l-.88,15.1c4.62,1.43,10.2,2.94,15.61,4.4.18-3.18.33-6.17.36-8.85l.02-.41c.19-3.22,1.63-5.06,2.82-6.04,1.5-1.24,3.48-1.86,5.58-1.73,3.92.23,8.02,3.45,7.9,8.98l-.72,12.41c3.19.85,5.91,1.54,8.13,2.06l1.03-17.72c.35-6.09,4.53-8.65,8.28-8.42,4.07.24,8.21,3.6,7.88,9.36l-3.45,59.19c-.19,3.3-1.68,5.22-2.89,6.24-1.55,1.31-3.57,1.96-5.68,1.84-2.11-.12-4.04-1-5.43-2.49-1.09-1.16-2.34-3.24-2.15-6.54l1.37-23.58c-2.36-.62-5.09-1.33-8.14-2.14-.08,1.16-.18,2.32-.27,3.48-.14,1.8-.29,3.58-.39,5.29-.82,11.19-6.58,16.31-17.59,15.66-4.59-.27-10.11-.72-15.17-1.15l-.4,6.91c-.31,5.29-4.22,7.94-8.08,7.94ZM1508.15,703.19c-2.05,0-4.38,1.24-4.58,4.8l-4.18,71.86c-.09,1.56.33,2.87,1.22,3.78.8.82,1.95,1.32,3.24,1.39,2.29.14,4.67-1.25,4.87-4.63l.61-10.5,1.79.16c5.49.47,11.77,1,16.87,1.3,9.06.53,13.22-3.18,13.9-12.39.1-1.7.24-3.51.39-5.34.15-1.85.3-3.72.4-5.55l.12-2.15,2.08.56c4.53,1.22,8.44,2.24,11.56,3.05l1.39.36-1.54,26.44c-.1,1.63.32,3,1.21,3.94.77.82,1.86,1.31,3.08,1.38,1.22.07,2.36-.29,3.22-1.02.99-.84,1.56-2.14,1.66-3.77l3.45-59.19c.21-3.53-2.15-5.52-4.59-5.66-1.98-.12-4.35,1.16-4.58,5.13l-1.27,21.83-2-.44c-2.82-.61-6.74-1.6-11.66-2.92l-1.38-.37.88-15.19c.07-3.31-2.26-5.21-4.61-5.34-1.21-.07-2.33.26-3.15.93-.94.78-1.46,1.97-1.55,3.55l-.02.31c-.03,3.29-.25,7.07-.49,11.07l-.13,2.15-4.07-1.08c-5.99-1.62-12.19-3.29-17.14-4.88l-1.29-.41,1.04-17.82c.19-3.32-2.09-5.2-4.45-5.33-.1,0-.2,0-.29,0ZM1474.46,777.11c-.09,0-.17,0-.26,0-4.1-.08-8.9-.2-13.54-.47-2.83-.17-5.75-.33-8.48-.66-9.48-.92-15.28-7.86-15.49-18.56h0c-.07-4.2.08-9.71.42-15.51,1.2-20.54,1.99-34.17,18.27-34.17.16,0,.32,0,.48,0,3.21.03,6.54.22,10.05.43,4.15.24,8.43.49,12.16,1.03,8.96,1.05,14.75,8.02,14.7,17.76-.09,3.99-.26,9.91-.59,15.62-.31,5.36-.77,11.39-1.36,17.92-.92,9.37-8.08,16.61-16.37,16.61ZM1440.19,757.36c.18,8.88,4.68,14.4,12.37,15.14,2.67.31,5.54.48,8.31.64,4.58.27,9.34.38,13.4.46.07,0,.14,0,.21,0,7.23,0,12.21-6.79,12.86-13.44.59-6.49,1.04-12.48,1.35-17.8.33-5.66.49-11.54.59-15.47.04-8.04-4.31-13.37-11.66-14.23-3.62-.53-7.83-.77-11.91-1.01-3.47-.2-6.75-.39-9.89-.42-12.91-.2-13.93,8.76-15.22,30.87-.33,5.72-.48,11.14-.42,15.25ZM1470.1,761.85c-1.42,0-3-.08-4.75-.18h0c-3.37-.2-6.85-.4-9.59-.72-6.19-.82-6.51-6.59-5.75-19.55.66-11.38,1.1-18.9,7.99-18.91h.11c.79.05,1.71.07,2.7.09,1.17.03,2.49.06,3.8.13,11.5.67,16.26.95,16.01,8.83-.02,3.01-.25,7.09-.51,11.42-.25,4.25-.5,8.61-.85,11.82-.51,5.84-3.53,7.07-9.15,7.07ZM1465.55,758.17c9.84.57,9.91-.26,10.22-3.74.34-3.17.59-7.48.84-11.65.25-4.31.49-8.35.5-11.31.13-4.08-.27-4.55-12.71-5.27-1.25-.07-2.51-.1-3.67-.13-1.01-.02-1.96-.04-2.77-.09-3.41.05-3.83,4.84-4.46,15.62-.81,13.94.2,15.55,2.69,15.88,2.61.31,6.04.5,9.36.7h0ZM1525.83,760.54c-.6,0-1.2-.03-1.81-.06-3.59-.21-7.91-.61-12.39-1.04l-1.68-.16,1.31-22.45,2.15.69c3.35,1.07,7.22,2.17,11.32,3.33,2.53.72,5.12,1.45,7.69,2.21l1.36.4-.82,10.9c-.31,5.25-3.49,6.19-7.12,6.19ZM1513.63,756.11c3.84.36,7.5.69,10.58.87,5.06.29,5.11-.63,5.24-2.86l.61-8.1c-2.11-.62-4.23-1.22-6.3-1.8-3.28-.93-6.42-1.82-9.28-2.7l-.85,14.6ZM1546.34,708.24c-.18,0-.36,0-.54-.02-4.04-.24-8.24-3.21-7.89-9.2l2.62-44.95c.21-3.54,1.68-5.56,2.88-6.63,1.54-1.37,3.56-2.05,5.72-1.93,4.22.25,8.53,3.67,8.19,9.53l-2.62,44.95c-.2,3.4-1.75,5.36-3.02,6.39-1.46,1.2-3.34,1.84-5.33,1.84ZM1548.63,649.01c-1.11,0-2.12.37-2.9,1.06-1.02.9-1.61,2.36-1.72,4.22l-2.62,44.95c-.22,3.85,2.34,5.37,4.6,5.5,1.33.08,2.54-.29,3.46-1.04,1.06-.87,1.65-2.17,1.75-3.89l2.62-44.95c.22-3.8-2.38-5.69-4.9-5.84-.1,0-.2,0-.29,0ZM1568.27,702.38c-.18,0-.36,0-.54-.02-3.99-.23-8.06-3.42-7.75-8.87l1.92-32.92c.2-3.38,1.63-5.32,2.79-6.36,1.51-1.34,3.51-2.01,5.64-1.89,2.14.12,4.21,1.08,5.7,2.62,1.66,1.72,2.49,4.06,2.34,6.58l-1.92,32.92c-.15,2.56-1.16,4.68-2.93,6.12-1.44,1.17-3.29,1.81-5.26,1.81ZM1569.84,655.8c-1.08,0-2.07.36-2.82,1.02-.96.85-1.52,2.22-1.62,3.95l-1.92,32.92c-.2,3.37,2.17,5.04,4.46,5.18,1.29.08,2.49-.28,3.38-1.01.99-.81,1.56-2.06,1.65-3.62l1.92-32.92c.12-1.97-.68-3.24-1.37-3.95-.88-.92-2.12-1.48-3.38-1.56-.1,0-.19,0-.29,0ZM1525.97,700.23c-.17,0-.34,0-.51-.01-4.09-.24-8.07-3.37-7.75-8.87l1.92-32.92c.35-5.98,4.6-8.47,8.43-8.25,2.14.12,4.21,1.08,5.7,2.62,1.66,1.72,2.49,4.06,2.34,6.59l-1.92,32.92c-.31,5.28-4.28,7.93-8.22,7.93ZM1527.56,653.66c-2.06,0-4.23,1.29-4.44,4.97l-1.92,32.92c-.2,3.37,2.17,5.04,4.46,5.18,2.19.12,4.82-1.01,5.03-4.62l1.92-32.92c.11-1.97-.68-3.24-1.37-3.95-.88-.92-2.12-1.49-3.39-1.56-.1,0-.19,0-.29,0ZM1479.71,700.07c-.14,0-.27,0-.41,0-3.63-.05-7.97-.3-12.17-.55h-.18c-4.1-.25-8.35-.5-11.83-.86-8.15-.66-13.44-6.97-13.44-16.09v-.02c.02-2.03.11-7.34.42-12.76.31-5.27.82-10.32,1.03-12.25,1.01-8.21,6.89-13.32,15.02-13.02,3.51.04,6.82.24,10.34.44,4.58.27,9.24.54,13.2.93,7.82.66,12.9,6.28,12.92,14.31-.06,3.85-.14,7.95-.38,11.99-.24,4.15-.61,8.67-1.12,13.82-.77,7-5.97,14.06-13.39,14.06ZM1445.18,682.58c0,7.26,3.93,12.08,10.26,12.59,3.44.36,7.65.6,11.71.84h.11c4.23.25,8.53.5,12.12.55,5.65.22,9.63-5.4,10.24-10.92.51-5.09.87-9.56,1.11-13.66.23-3.98.31-8.03.37-11.81-.01-7.35-5.04-10.4-9.73-10.8-3.91-.38-8.53-.65-13-.91-3.56-.21-6.83-.4-10.3-.44-6.3-.21-10.68,3.58-11.45,9.92-.2,1.88-.71,6.87-1.02,12.06-.31,5.35-.4,10.58-.42,12.59ZM1505.55,699.04c-.17,0-.34,0-.51-.01-2.07-.12-4.07-1.01-5.48-2.44-1.14-1.16-2.46-3.21-2.27-6.44l1.92-32.92c.35-5.98,4.62-8.46,8.43-8.25,4.2.25,8.36,3.76,8.05,9.21l-1.92,32.92c-.31,5.28-4.28,7.93-8.22,7.93ZM1507.15,652.47c-2.06,0-4.23,1.29-4.44,4.97l-1.92,32.92c-.09,1.54.35,2.84,1.27,3.78.81.82,1.97,1.33,3.19,1.4,2.19.13,4.82-1.01,5.03-4.62l1.92-32.92c.2-3.39-2.3-5.37-4.75-5.51-.1,0-.19,0-.29,0ZM1474.91,685.87c-2.21,0-4.91-.16-7.52-.31-2.75-.16-5.59-.33-7.87-.62-5.15-.57-5.23-6.39-4.79-13.94.4-6.79.74-12.67,6.14-12.67h.08c1.2.07,2.42.1,3.7.14,1.44.04,2.96.09,4.47.17,9.05.53,13.19.77,13.25,7.01.02,2.46-.11,4.74-.24,6.94-.44,7.64-.77,13.16-6.68,13.27-.18,0-.35,0-.54,0ZM1460.81,661.83c-1.35,0-2.09.96-2.58,9.37-.54,9.24.5,10.12,1.71,10.26,2.19.28,4.97.44,7.65.6h0c2.77.16,5.64.33,7.8.3,2.29-.04,2.74-1.44,3.24-9.97.13-2.14.26-4.36.24-6.7-.03-2.68-.35-2.99-9.96-3.55-1.48-.09-2.95-.13-4.36-.17-1.31-.04-2.57-.08-3.72-.14h-.03Z" fill="#2b2b2b"/><path d="M1002.13,834.55l2.5,7.19,683.61,90.6.89-6.74.97-7.31,7,.93h.09s-.03.29-.03.29l-2.38,17.98c-.33,2.48-2.47,4.25-4.79,3.94l-697.26-92.41c-2.32-.31-3.93-2.57-3.6-5.05l2.42-18.26,7.89,1.05,2.71,7.8Z" fill="#85bb4e"/><polygon points="1688.24 932.35 1004.63 841.74 1002.13 834.55 1688.87 925.57 1689.13 925.6 1688.24 932.35" fill="#fff"/><polygon points="1688.87 925.57 1002.13 834.55 999.43 826.75 1690.1 918.3 1689.13 925.6 1688.87 925.57" fill="#fff"/><path d="M991.53,825.71l-12.51-1.66c-2.22-.29-3.79-2.34-3.5-4.56l70.42-531.35c.29-2.22,2.34-3.79,4.56-3.5l718.08,95.17c2.23.3,3.79,2.34,3.5,4.56l-70.42,531.35c-.29,2.2-2.28,3.75-4.48,3.51h-.09s-7-.94-7-.94l-690.68-91.54-7.89-1.05Z" fill="#85bb4e"/><path d="M1697.66,922.26c-.26,0-.53-.01-.8-.04l-.12-.02-718.11-95.18c-1.87-.25-3.53-1.21-4.68-2.71-1.15-1.5-1.64-3.35-1.4-5.23l70.42-531.35c.51-3.86,4.08-6.59,7.93-6.08l718.08,95.17c1.87.25,3.53,1.21,4.68,2.71,1.15,1.5,1.64,3.35,1.39,5.22l-70.42,531.35c-.47,3.57-3.46,6.14-6.98,6.14ZM1049.98,287.6c-.53,0-.98.39-1.06.93l-70.42,531.35c-.05.38.11.66.21.79.1.13.33.36.7.41l718.18,95.19c.5.05,1.02-.35,1.09-.93l70.42-531.35c.05-.38-.11-.66-.21-.79s-.33-.36-.71-.41l-718.08-95.17s-.09,0-.14,0Z" fill="#2b2b2b"/><path d="M1690.51,944.47c-.31,0-.62-.02-.93-.06l-697.26-92.41c-1.95-.26-3.67-1.3-4.84-2.94-1.12-1.58-1.6-3.52-1.34-5.48l2.61-19.66,5.95.79-2.61,19.66c-.06.44.04.87.28,1.21.14.19.38.43.75.48l697.26,92.41c.38.05.67-.12.85-.27.32-.26.52-.65.58-1.09l2.38-17.98,5.95.79-2.38,17.98c-.26,1.96-1.23,3.71-2.72,4.94-1.31,1.07-2.88,1.64-4.51,1.64Z" fill="#2b2b2b"/><polygon points="1689.74 934.31 1688.01 934.08 1003.34 843.33 997.56 826.72 1000.87 825.59 1005.93 840.15 1686.73 930.38 1688.44 917.5 1691.91 917.97 1689.74 934.31" fill="#2b2b2b"/><polygon points="1688.64 927.3 1001.9 836.28 1000.83 836.14 1001.3 832.67 1002.37 832.81 1689.1 923.83 1688.64 927.3" fill="#2b2b2b"/><rect x="1408.12" y="15.17" width="3.5" height="695.14" transform="translate(865.03 1712.72) rotate(-82.45)" fill="#2b2b2b"/><path d="M1546.69,581.18c3.01.4,10.31,1.37,13.46,1.78.57.08,1.06-.3,1.14-.87.19-1.43,1.46-11.03,1.75-13.18.42-3.15,3.5-5.51,6.65-5.09,3.29.44,5.51,3.5,5.09,6.65-.28,2.15-1.56,11.74-1.75,13.18-.08.57.3,1.06.87,1.14,3.01.4,8.02,1.06,10.89,1.44.57.08,1.2-.28,1.28-.85.4-3.01,1.77-13.32,2.47-18.62.53-4.01,4.1-6.74,8.11-6.21l49.84,6.61c4.01.53,6.74,4.1,6.21,8.11l-6.66,50.27c-.53,4.01-4.1,6.74-8.11,6.21l-49.84-6.61c-4.01-.53-6.74-4.1-6.21-8.11.72-5.44,1.97-14.89,2.37-17.9.08-.57-.44-1.08-1.01-1.15-2.86-.38-7.88-1.04-10.89-1.44-.57-.08-1.06.3-1.13.87-.19,1.43-1.4,10.6-1.65,12.46-.44,3.29-3.36,5.53-6.65,5.09-3.15-.42-5.53-3.36-5.09-6.65.25-1.86,1.46-11.03,1.65-12.46.08-.57-.3-1.06-.87-1.14-3.15-.42-10.46-1.39-13.46-1.78-.57-.08-1.2.28-1.28.85-.55,4.15-2.14,16.18-3.09,23.34-.42,3.15-3.34,5.39-6.49,4.97-3.15-.42-5.24-3.32-4.83-6.47l8.29-62.59c.42-3.15,3.19-5.41,6.34-4.99,3.15.42,5.39,3.34,4.97,6.49-1.03,7.73-2.81,21.2-3.38,25.49-.08.57.44,1.08,1.01,1.15ZM1650.94,508.29l-3.55,26.78c-.42,3.15-3.05,5.42-6.2,5.01-3.15-.42-5.67-3.38-5.26-6.53.29-2.15.59-4.44.82-6.16.09-.72-.38-1.51-1.24-1.62-4.3-.57-11.89-1.58-16.18-2.15-.86-.11-1.53.53-1.62,1.24-.15,1.15-.36,2.72-.57,4.3-.44,3.29-3.52,5.65-6.81,5.22-3.29-.44-5.66-3.52-5.22-6.81.21-1.58.42-3.15.57-4.3.09-.72-.53-1.53-1.24-1.62-4.3-.57-14.32-1.9-19.33-2.56-.72-.09-1.24.56-.89,1.19.65,1.69,1.64,4.15,3.24,7.42,1.23,2.79-.21,5.95-3.22,6.71-3.32.87-6.87-.91-8.36-4.02-5.35-11.35-8.11-20.17-10.49-30.83-.73-3.3,1.3-6.53,4.62-7.4,3.18-.89,6.26,1.12,6.99,4.42.6,3.14,1.25,5.99,1.93,8.56.19.75.83,1.42,1.69,1.54,5.16.68,20.19,2.68,25.64,3.4.72.09,1.53-.53,1.62-1.24.15-1.15.36-2.72.57-4.3.42-3.15,3.36-5.53,6.65-5.09,3.29.44,5.51,3.5,5.09,6.65-.21,1.58-.42,3.15-.57,4.3-.09.72.38,1.51,1.24,1.62,4.3.57,11.89,1.58,16.18,2.15.86.11,1.53-.53,1.62-1.24.23-1.72.53-4.01.82-6.16.42-3.15,3.34-5.39,6.49-4.97,3.15.42,5.39,3.34,4.97,6.49ZM1596.84,599.78c-.57-.08-1.2.28-1.28.85-.36,2.72-1.27,9.6-1.61,12.17-.08.57.42,1.22.99,1.3,2.58.34,11.17,1.48,13.75,1.82.57.08,1.22-.42,1.3-.99.34-2.58,1.25-9.45,1.76-12.15.08-.57-.3-1.06-1.01-1.15-2.58-.34-11.31-1.5-13.89-1.84ZM1598.4,588.04c2.58.34,11.31,1.5,14.04,1.86.57.08,1.06-.3,1.13-.87.34-2.58,1.37-10.31,1.71-12.89.1-.72-.28-1.2-.85-1.28-2.72-.36-11.46-1.52-14.04-1.86-.57-.08-1.2.28-1.3.99-.34,2.58-1.37,10.31-1.71,12.89-.08.57.44,1.08,1.01,1.15ZM1624.34,603.42c-.57-.08-1.06.3-1.14.87-.36,2.72-1.27,9.6-1.61,12.17-.08.57.28,1.2.85,1.28,2.72.36,9.17,1.21,11.74,1.56.57.08,1.22-.42,1.3-.99.34-2.58,1.25-9.45,1.61-12.17.08-.57-.44-1.08-1.01-1.15-2.58-.34-9.02-1.2-11.74-1.56ZM1628.32,576.7c-.57-.08-1.2.28-1.3.99-.32,2.43-1.51,10.29-1.99,12.85-.08.57.44,1.08,1.01,1.15,2.58.34,9.02,1.2,11.6,1.54.57.08,1.2-.28,1.28-.85.34-2.58,1.37-10.31,1.71-12.89.1-.72-.42-1.22-.99-1.3-2.58-.34-8.74-1.16-11.32-1.5Z" fill="#fff"/><path d="M1619.24,768.31c-15.75-2.09-59.29-7.86-68.03-9.02-.86-.11-1.53.53-1.62,1.24-.17,1.29-.47,3.58-.68,5.16-.42,3.15-3.36,5.53-6.65,5.09-3.15-.42-5.51-3.5-5.09-6.65.21-1.58.51-3.87.68-5.16.09-.72-.38-1.51-1.24-1.62-4.01-.53-15.47-2.05-22.06-2.92-3.15-.42-5.39-3.34-4.97-6.49.44-3.29,3.36-5.53,6.51-5.11,6.59.87,18.04,2.39,22.06,2.92.86.11,1.53-.53,1.62-1.24.66-5.01,3.02-22.77,4.12-31.08.44-3.29,3.5-5.51,6.65-5.09,3.29.44,5.53,3.36,5.09,6.65-1.1,8.31-3.45,26.07-4.12,31.08-.09.72.38,1.51,1.24,1.62,8.74,1.16,52.27,6.93,68.03,9.02,3.15.42,5.53,3.36,5.09,6.65-.42,3.15-3.48,5.37-6.63,4.95ZM1535.3,658.37c10.6,1.41,35.09,4.65,41.25,5.47.86.11,1.53-.53,1.62-1.24.4-3.01,1.21-9.17,1.82-13.75.44-3.29,3.36-5.53,6.65-5.09,3.29.44,5.53,3.36,5.09,6.65-.61,4.58-1.42,10.74-1.82,13.75-.09.72.38,1.51,1.24,1.62,2.43.32,6.45.85,10.03,1.33,3.15.42,5.24,3.32,4.83,6.47-.42,3.15-3.19,5.41-6.35,4.99-3.58-.47-7.59-1.01-10.03-1.33-.86-.11-1.51.38-1.62,1.24-.3,2.29-.87,6.59-1.31,9.88-.42,3.15-3.36,5.53-6.65,5.09-3.29-.44-5.51-3.5-5.1-6.65.44-3.29,1.01-7.59,1.31-9.88.11-.86-.38-1.51-1.24-1.62-6.16-.82-30.65-4.06-41.25-5.47-3.15-.42-5.39-3.34-4.97-6.49.42-3.15,3.34-5.39,6.49-4.97ZM1557.98,692.86c-1.81,2.67-5.51,3.06-8.02,1.12-2.76-2.26-3.31-5.83-1.19-8.61,1.09-1.6,2.34-3.33,3.67-4.61,2.33-2.17,5.96-2.12,8.1.49,2.15,2.47,2.1,6.11.04,8.46-.87,1.05-1.74,2.1-2.6,3.15ZM1555.97,651.93c-1.4-2.66-2.51-5.29-3.49-7.75-1.3-3.38-.5-7.21,2.67-9.12,2.38-1.43,6.04-.51,7.45,3.17,1.53,3.85,2.16,5.68,3.56,8.34,1.38,2.8.6,6.49-2.23,8.01-2.7,1.68-6.46.31-7.96-2.66ZM1576.52,736.56c-1.83,2.82-5.71,3.47-8.34,1.37-2.64-2.1-3.14-5.95-1.31-8.77.93-1.48,1.85-2.96,2.79-4.58,1.69-2.84,5.29-3.67,7.95-1.72,2.8,1.97,3.61,5.73,1.93,8.56-1.12,1.89-2.09,3.66-3.01,5.14ZM1602.28,740.12c-1.81,2.67-5.54,3.35-8.04,1.27s-3.17-5.81-1.33-8.63c.92-1.48,1.71-2.98,2.67-4.75,1.54-2.86,5.29-3.67,7.83-1.88,2.8,1.97,3.74,5.89,1.89,8.85-1.12,1.89-2.07,3.52-3.01,5.14ZM1624.71,654.48c-.52,12.75-.51,22.52.51,32.42.28,3.39-2.36,6.83-5.75,7.11-3.39.28-6.34-2.74-6.48-6.11-.61-9.7-.76-20.65-.59-31.85.1-4.07,2.85-7.2,5.99-7.8,4.34-.88,6.53,3.49,6.32,6.23Z" fill="#fff"/><path d="M1638.93,633.57c-.41,0-.82-.03-1.24-.08l-49.84-6.61c-2.4-.32-4.52-1.53-5.97-3.42-1.45-1.89-2.07-4.25-1.75-6.65l2.28-17.17-9.56-1.27-1.55,11.73c-.57,4.26-4.35,7.17-8.62,6.6-2-.26-3.79-1.3-5.04-2.91-1.27-1.64-1.83-3.66-1.56-5.71l1.55-11.73-12.14-1.61-3,22.61c-.55,4.12-4.35,7.02-8.45,6.47-1.99-.26-3.74-1.29-4.93-2.9-1.17-1.58-1.66-3.54-1.4-5.53l8.29-62.59c.26-1.98,1.25-3.75,2.79-4.97,1.57-1.24,3.53-1.78,5.52-1.52,4.11.54,7.02,4.34,6.47,8.45l-3.28,24.76,12.14,1.61,1.65-12.44c.55-4.12,4.49-7.15,8.61-6.6,2.05.27,3.86,1.33,5.11,2.99,1.23,1.63,1.76,3.63,1.49,5.62l-1.65,12.44,9.56,1.27,2.37-17.89c.32-2.4,1.53-4.52,3.42-5.97,1.89-1.45,4.25-2.07,6.65-1.75l49.84,6.61c4.99.66,8.38,5.09,7.72,10.07l-6.66,50.27c-.61,4.57-4.37,7.8-8.84,7.8ZM1572.2,594.77c.13,0,.25,0,.38.03l10.89,1.44c.69.09,1.33.43,1.81.94.56.6.81,1.4.71,2.18l-2.37,17.9c-.2,1.48.18,2.92,1.06,4.06s2.17,1.88,3.65,2.08l49.84,6.61c3.04.4,5.74-1.67,6.15-4.71l6.66-50.27c.4-3.04-1.66-5.74-4.71-6.15l-49.84-6.61c-1.48-.19-2.92.18-4.07,1.06-1.15.88-1.88,2.17-2.08,3.65l-2.47,18.62c-.2,1.51-1.66,2.57-3.24,2.36l-10.89-1.44c-.74-.1-1.39-.47-1.84-1.05-.45-.58-.64-1.31-.54-2.05l1.75-13.18c.14-1.08-.15-2.17-.82-3.06-.68-.9-1.66-1.48-2.77-1.62-2.2-.29-4.39,1.39-4.68,3.59l-1.75,13.18c-.1.74-.47,1.39-1.05,1.84-.58.44-1.31.63-2.05.54l-13.46-1.78c-.69-.09-1.33-.43-1.81-.94-.56-.6-.81-1.4-.71-2.18l3.38-25.49c.29-2.2-1.26-4.23-3.46-4.52-1.04-.14-2.06.14-2.88.79-.82.66-1.36,1.61-1.5,2.69l-8.29,62.59c-.14,1.08.12,2.14.75,2.99.62.84,1.53,1.38,2.57,1.51,2.21.3,4.23-1.26,4.52-3.46l3.09-23.34c.2-1.51,1.65-2.57,3.24-2.36l13.46,1.78c.74.1,1.39.47,1.84,1.05.45.58.64,1.31.54,2.05l-1.65,12.46c-.15,1.11.15,2.21.85,3.1.69.88,1.66,1.44,2.74,1.59,2.32.31,4.38-1.27,4.69-3.59l1.65-12.46c.19-1.41,1.35-2.4,2.72-2.4ZM1634.3,621.06c-.12,0-.23,0-.35-.02l-11.75-1.56c-1.51-.2-2.57-1.66-2.36-3.24l1.61-12.17c.2-1.54,1.57-2.58,3.1-2.37l11.74,1.56c.78.1,1.5.52,1.97,1.14.44.58.64,1.28.54,1.98l-1.61,12.17c-.19,1.42-1.5,2.52-2.91,2.52ZM1623.4,616.11l10.42,1.38,1.44-10.85-10.42-1.38-1.44,10.85ZM1608.81,617.68c-.12,0-.23,0-.35-.02l-13.75-1.82c-1.54-.2-2.7-1.73-2.5-3.26l1.61-12.17c.2-1.51,1.66-2.56,3.24-2.36h0l13.89,1.84c.77.1,1.45.46,1.91,1,.49.59.71,1.34.61,2.12-.51,2.73-1.41,9.55-1.75,12.12-.19,1.45-1.51,2.56-2.92,2.56ZM1595.76,612.44l12.57,1.67c.35-2.67,1.06-7.97,1.55-10.84l-12.68-1.68-1.44,10.85ZM1637.81,595c-.13,0-.27,0-.4-.03l-11.6-1.54c-.69-.09-1.33-.43-1.81-.94-.56-.6-.82-1.4-.71-2.18.49-2.62,1.67-10.43,1.99-12.85.21-1.62,1.64-2.72,3.26-2.5h0l11.32,1.5c.73.1,1.39.46,1.86,1.02.52.62.75,1.42.64,2.24l-1.71,12.89c-.18,1.38-1.42,2.38-2.84,2.38ZM1626.89,590.05l10.39,1.38,1.53-11.57-10.14-1.34c-.37,2.65-1.27,8.64-1.78,11.54ZM1612.58,591.66c-.13,0-.25,0-.38-.03l-14.03-1.86c-.69-.09-1.33-.42-1.81-.94-.56-.6-.82-1.4-.71-2.18l1.71-12.89c.11-.82.54-1.53,1.2-2,.6-.42,1.33-.6,2.06-.5l14.03,1.86c.78.1,1.45.51,1.88,1.14.41.59.57,1.33.47,2.1l-1.71,12.89c-.19,1.41-1.35,2.4-2.72,2.4ZM1599.21,586.38l12.71,1.69,1.53-11.57-12.71-1.69-1.53,11.57ZM1598.62,586.3h0,0ZM1641.93,541.88c-.32,0-.65-.02-.97-.06-4.2-.56-7.3-4.45-6.76-8.49l.78-5.86-15.58-2.06-.53,3.99c-.27,2.06-1.34,3.89-3.01,5.17-1.67,1.28-3.71,1.83-5.77,1.56s-3.89-1.34-5.17-3.01-1.83-3.72-1.56-5.77l.53-3.99-17.52-2.32c.62,1.56,1.46,3.51,2.64,5.91.84,1.89.81,3.95-.04,5.7-.84,1.73-2.42,3-4.32,3.48-4.04,1.06-8.51-1.07-10.37-4.97-5.77-12.25-8.42-21.33-10.62-31.2-.93-4.21,1.66-8.37,5.89-9.48,1.92-.53,3.92-.27,5.63.75,1.77,1.06,3.05,2.88,3.52,4.99.61,3.15,1.25,5.99,1.91,8.49.03.12.12.23.23.25l25.33,3.36.53-3.99c.56-4.2,4.43-7.16,8.62-6.6,2.05.27,3.86,1.33,5.11,2.99,1.23,1.63,1.76,3.63,1.49,5.62l-.53,3.99,15.58,2.06.78-5.86c.55-4.12,4.33-7.02,8.45-6.47,1.99.26,3.76,1.29,4.98,2.89,1.23,1.6,1.76,3.58,1.49,5.56l-3.55,26.78c-.26,1.98-1.22,3.74-2.7,4.96-1.28,1.06-2.85,1.61-4.5,1.61ZM1619.12,521.86c.14,0,.29,0,.43.03l16.18,2.15c1.75.23,2.98,1.84,2.75,3.59l-.82,6.16c-.28,2.13,1.47,4.26,3.75,4.56,1.31.17,2.24-.33,2.78-.78.79-.65,1.31-1.62,1.45-2.72l3.55-26.78c.14-1.06-.14-2.12-.8-2.97-.66-.86-1.6-1.41-2.66-1.55-2.21-.3-4.23,1.26-4.52,3.46l-.82,6.16c-.1.79-.52,1.54-1.15,2.05-.69.56-1.55.81-2.44.69l-16.18-2.15c-1.75-.23-2.98-1.84-2.75-3.59l.57-4.3c.14-1.08-.15-2.17-.82-3.06-.68-.9-1.66-1.48-2.77-1.62-2.28-.3-4.38,1.31-4.69,3.59l-.57,4.3c-.11.8-.56,1.56-1.25,2.08-.69.53-1.54.77-2.34.66l-25.64-3.4c-1.51-.2-2.77-1.34-3.16-2.84-.68-2.56-1.34-5.48-1.95-8.66-.25-1.14-.93-2.12-1.89-2.7-.87-.52-1.91-.66-2.91-.37-2.43.64-3.91,2.98-3.39,5.34,2.15,9.64,4.73,18.51,10.36,30.46,1.14,2.4,3.86,3.72,6.33,3.07.93-.24,1.66-.81,2.05-1.62.4-.83.41-1.81.02-2.69-1.56-3.18-2.55-5.63-3.24-7.42-.4-.82-.34-1.78.17-2.53.56-.82,1.53-1.25,2.55-1.11l19.34,2.56c1.69.22,2.97,1.9,2.75,3.59l-.57,4.3c-.15,1.13.16,2.26.86,3.18.71.92,1.72,1.51,2.85,1.66,1.13.15,2.26-.16,3.18-.86.92-.71,1.51-1.72,1.66-2.85l.57-4.3c.1-.79.52-1.54,1.15-2.06.57-.47,1.27-.72,2.01-.72Z" fill="#2b2b2b"/><path d="M1543.05,772.58c-.34,0-.68-.02-1.02-.07-1.96-.26-3.8-1.34-5.04-2.97-1.25-1.63-1.81-3.69-1.55-5.64l.64-4.85-21.75-2.88c-1.99-.26-3.76-1.29-4.98-2.89-1.23-1.6-1.76-3.58-1.49-5.56.27-2.04,1.3-3.85,2.89-5.1,1.6-1.24,3.58-1.79,5.58-1.52l21.75,2.88,4.08-30.77c.56-4.19,4.43-7.15,8.61-6.6,2.06.27,3.87,1.31,5.11,2.92s1.77,3.63,1.49,5.69l-4.08,30.78,67.73,8.98c2,.26,3.79,1.3,5.04,2.9,1.27,1.64,1.83,3.66,1.56,5.71-.26,1.99-1.32,3.76-2.99,4.99-1.63,1.21-3.63,1.73-5.61,1.46l-67.73-8.98-.64,4.85c-.26,2-1.3,3.79-2.91,5.04-1.36,1.06-3,1.62-4.69,1.62ZM1515.33,744.53c-.88,0-1.73.29-2.44.84-.87.68-1.43,1.67-1.58,2.8-.14,1.06.14,2.12.8,2.98.66.86,1.6,1.41,2.66,1.55l22.06,2.92c.89.12,1.66.58,2.17,1.3.47.66.68,1.49.57,2.28l-.68,5.16c-.14,1.04.18,2.16.86,3.06.69.9,1.68,1.49,2.72,1.63,1.11.15,2.21-.15,3.1-.85.88-.69,1.44-1.66,1.59-2.74l.68-5.16c.23-1.74,1.84-2.97,3.59-2.75l68.03,9.02c1.06.14,2.18-.15,3.07-.81.89-.66,1.46-1.6,1.6-2.64.15-1.11-.15-2.21-.85-3.1-.69-.88-1.66-1.44-2.74-1.59l-68.03-9.02c-1.75-.23-2.98-1.84-2.75-3.59l4.12-31.08c.15-1.13-.14-2.23-.8-3.1s-1.66-1.43-2.79-1.58c-2.28-.3-4.38,1.31-4.68,3.59l-4.12,31.08c-.1.79-.52,1.54-1.15,2.05-.69.56-1.55.81-2.44.69l-22.06-2.92c-.18-.02-.35-.03-.53-.03ZM1597.61,744.36c-1.64,0-3.21-.56-4.49-1.63-3.25-2.71-3.97-7.41-1.68-10.93.7-1.12,1.32-2.27,2.05-3.62l.55-1.01c.96-1.78,2.67-3.08,4.67-3.55,2-.47,4.07-.08,5.7,1.08,3.64,2.57,4.68,7.49,2.36,11.2-1.1,1.85-2.04,3.47-2.98,5.09l-.06.1c-1.18,1.73-3.03,2.9-5.09,3.19-.34.05-.69.07-1.03.07ZM1600.38,726.93c-.29,0-.58.03-.86.1-1.03.24-1.9.9-2.39,1.81l-.55,1.01c-.72,1.33-1.4,2.59-2.17,3.83-1.32,2.03-.89,4.81.97,6.36.78.65,1.76.93,2.78.78,1.07-.15,2.03-.75,2.65-1.64.94-1.61,1.87-3.22,2.99-5.1,1.33-2.14.7-5.05-1.39-6.53-.58-.41-1.29-.63-2.02-.63ZM1571.73,740.92c-1.67,0-3.31-.56-4.63-1.62-3.29-2.62-4.03-7.49-1.69-11.09.88-1.42,1.81-2.9,2.75-4.51,1.09-1.83,2.86-3.1,4.87-3.51,1.98-.4,3.98.05,5.63,1.26,3.48,2.46,4.55,7.24,2.39,10.87-.47.79-.91,1.55-1.33,2.28-.6,1.04-1.16,2.01-1.71,2.89l-.02.03c-1.15,1.76-3,2.97-5.07,3.3-.4.06-.8.1-1.19.1ZM1574.42,723.54c-.23,0-.47.02-.71.07-1.06.21-1.96.87-2.55,1.85-.95,1.64-1.9,3.15-2.81,4.62-1.39,2.13-.97,4.97.92,6.47.88.7,1.97.98,3.09.8,1.1-.18,2.08-.82,2.69-1.75.52-.84,1.06-1.77,1.63-2.77.43-.75.88-1.52,1.35-2.33,1.23-2.07.6-4.81-1.43-6.24-.67-.49-1.42-.74-2.19-.74ZM1553.51,696.95c-1.65,0-3.29-.55-4.62-1.58-3.56-2.92-4.18-7.55-1.52-11.06,1.04-1.54,2.37-3.39,3.85-4.82,1.53-1.43,3.56-2.17,5.57-2.02,1.99.14,3.8,1.08,5.09,2.67,2.65,3.05,2.67,7.67,0,10.72l-2.52,3.05c-1.1,1.59-2.77,2.63-4.69,2.94-.39.06-.78.09-1.17.09ZM1556.32,680.95c-.97,0-1.94.39-2.68,1.08-1.24,1.19-2.48,2.93-3.42,4.32-1.59,2.09-1.22,4.58.85,6.27.85.65,1.98.94,3.06.77.99-.16,1.85-.7,2.4-1.52l.1-.13,2.6-3.15c1.55-1.77,1.53-4.42-.01-6.2-.9-1.1-1.94-1.39-2.65-1.43-.08,0-.16,0-.25,0ZM1619.03,695.78c-1.79,0-3.53-.68-4.96-1.94-1.7-1.51-2.73-3.64-2.82-5.86-.58-9.17-.77-19.93-.59-31.95.12-4.71,3.23-8.69,7.41-9.5,2.11-.43,4.15.1,5.71,1.48,2.06,1.82,2.83,4.6,2.68,6.57-.57,13.83-.42,23.14.51,32.14.37,4.48-3.07,8.68-7.35,9.03-.19.02-.39.02-.58.02ZM1619.51,649.89c-.24,0-.5.03-.77.08-2.17.42-4.5,2.71-4.59,6.13-.18,11.91.01,22.58.58,31.69.05,1.29.67,2.55,1.65,3.42.86.76,1.9,1.13,2.94,1.05,2.34-.19,4.36-2.73,4.15-5.22-.94-9.14-1.09-18.61-.52-32.64v-.07c.09-1.07-.41-2.74-1.51-3.71-.57-.5-1.21-.75-1.94-.75ZM1580.84,695.25c-.34,0-.68-.02-1.02-.07-4.19-.56-7.15-4.42-6.6-8.61l1.27-9.58-.16-.02-40.78-5.41c-4.11-.55-7.02-4.34-6.47-8.45.55-4.12,4.34-7.03,8.45-6.47h0l40.94,5.43,1.78-13.45c.56-4.27,4.34-7.17,8.62-6.6,4.26.56,7.16,4.35,6.6,8.61l-1.78,13.45,9.72,1.29c1.99.26,3.74,1.3,4.93,2.91,1.17,1.58,1.67,3.54,1.4,5.53-.26,1.98-1.25,3.75-2.79,4.97-1.57,1.24-3.53,1.78-5.52,1.52l-9.72-1.29-1.27,9.58c-.26,2-1.3,3.79-2.91,5.04-1.36,1.06-3,1.62-4.69,1.62ZM1534.54,660.07c-1.99,0-3.72,1.48-3.99,3.5-.29,2.2,1.26,4.23,3.46,4.52l41.25,5.47c1.8.24,2.99,1.78,2.75,3.58l-1.31,9.88c-.3,2.28,1.31,4.38,3.59,4.69,1.11.14,2.21-.15,3.1-.85.88-.69,1.44-1.66,1.59-2.74l1.31-9.88c.12-.88.54-1.64,1.2-2.14s1.51-.72,2.38-.6l10.03,1.33c1.04.14,2.06-.14,2.88-.79.82-.66,1.36-1.61,1.5-2.69.14-1.08-.12-2.14-.75-2.99-.62-.84-1.53-1.38-2.57-1.51l-10.02-1.33c-1.75-.23-2.98-1.84-2.75-3.59l1.82-13.75c.31-2.32-1.27-4.38-3.59-4.69-2.32-.3-4.38,1.27-4.69,3.59l-1.82,13.75c-.1.79-.52,1.54-1.15,2.05-.69.56-1.55.81-2.44.69l-41.25-5.47c-.18-.02-.36-.03-.53-.03ZM1561.34,657.07c-.65,0-1.32-.09-1.98-.28-2.14-.6-3.94-2.08-4.94-4.06-1.49-2.83-2.63-5.58-3.56-7.9-1.7-4.42-.3-9.04,3.39-11.27,1.61-.97,3.6-1.17,5.46-.53,2.07.71,3.68,2.33,4.53,4.57.3.74.56,1.43.81,2.05.99,2.52,1.59,4.05,2.66,6.1,1.88,3.83.57,8.44-2.9,10.34-1.05.64-2.23.97-3.47.97ZM1557.51,636.17c-.52,0-1.03.13-1.46.39-2.6,1.57-2.84,4.64-1.94,6.99.89,2.22,1.99,4.87,3.41,7.57v.02c.57,1.1,1.6,1.95,2.78,2.28.97.27,1.93.16,2.7-.32l.1-.06c2.03-1.09,2.4-3.83,1.49-5.7-1.14-2.18-1.8-3.86-2.8-6.4-.24-.62-.51-1.3-.81-2.06-.49-1.27-1.34-2.17-2.41-2.54-.34-.12-.7-.18-1.05-.18Z" fill="#2b2b2b"/><path d="M1387.2,755.01l-89.19-18.2c-42.57-8.69-81.5-30.69-109.92-63.57-73.98-85.59-17.01-167.62-17.01-167.62.07-.3-.02-.66-.24-1.05l43.64,33c5.78,11.18-15.15,109.16-15.15,109.16,22.64-19.74,28.7-98.34,28.7-98.34l54.82,69.71c2.72,22.6-14.72,67.38-14.72,67.38,21.63-29.45,27.47-61.1,27.47-61.1,10.8,4.01,65.52,85.84,65.52,85.84-8.72-62.93-110.72-160.54-110.72-160.54l82.48,11.17-97.76-25.29-49.17-48.57c262.34-88.49,201.26,267.99,201.26,267.99Z" fill="#349614"/><path d="M1361.11,710.24s-54.72-81.84-65.52-85.84c0,0-5.84,31.65-27.47,61.1,0,0,17.44-44.78,14.72-67.38l-54.82-69.71s-6.06,78.6-28.7,98.34c0,0,20.93-97.99,15.15-109.16l-43.64-33c-3.66-6.45-43.3-24.59-43.3-24.59,0,0-6.96-26.21,17.02-22.76,23.98,3.45,41.39,29.79,41.39,29.79l49.17,48.57,97.76,25.29-82.48-11.17s102,97.61,110.72,160.54Z" fill="#c4e29c"/><path d="M1388.62,757.09l-90.96-18.56c-43.43-8.87-82.81-31.64-110.9-64.14-38.66-44.72-41.27-88.49-36.65-117.33,4.57-28.56,16.61-48.01,19.09-51.79-2.99-4.49-27.47-16.86-42.4-23.7l-.75-.34-.21-.8c-.15-.55-3.49-13.51,2.92-20.73,3.41-3.84,8.81-5.25,16.04-4.22,21.91,3.15,38.15,24.26,41.83,29.44,65.63-21.87,116.8-17.65,152.11,12.55,18.85,16.13,33.21,39.77,42.68,70.27,7.54,24.29,12.02,52.97,13.3,85.25,2.19,54.88-5.72,101.84-5.81,102.31l-.3,1.78ZM1129.04,478.76c6.65,3.07,39.66,18.53,43.31,24.96h0c.55.99.53,1.79.43,2.29l-.07.34-.2.28c-.14.2-14.12,20.65-18.97,51.14-4.46,28.07-1.86,70.69,35.87,114.33,27.58,31.91,66.28,54.28,108.95,63l87.4,17.83c1.4-9.06,7.41-51.34,5.47-99.86-2-50.11-13.13-117.32-54.77-152.93-34.53-29.53-84.98-33.39-149.96-11.47l-1.28.43-.74-1.12c-.17-.26-17.27-25.73-40.18-29.02-5.99-.86-10.34.17-12.92,3.07-4.39,4.92-2.91,14.01-2.34,16.73ZM1169.36,505.55h0Z" fill="#2b2b2b"/><path d="M1363.89,717.54l-4.23-6.33c-20.45-30.59-52.63-76.02-62.88-84.06-1.87,8.05-9.08,34.64-27.25,59.38l-7.86,10.7,4.82-12.37c.17-.44,17-43.99,14.67-66.05l-51.78-65.85c-1.66,17.09-8.86,77.64-28.9,95.11l-3.96,3.45,1.1-5.14c8.25-38.64,19.06-98.63,15.46-107.67l-43.83-33.14,2.11-2.79,44.5,33.65.18.35c5.23,10.11-8.91,81.08-13.68,104.09,18.47-24.49,23.88-91.87,23.93-92.6l.35-4.48,57.9,73.62.06.49c1.83,15.15-5.02,39.53-10.02,54.69,14.81-24.89,19.27-48.25,19.32-48.52l.38-2.05,1.95.72c9.45,3.51,47.35,58.41,61.51,79.3-15.63-61.62-107.55-150.16-108.52-151.09l-3.89-3.72,58.57,7.93-69.66-18.02-49.5-48.9,2.46-2.49,48.83,48.23,97.31,25.17-.67,3.43-77.25-10.46c8.1,8.04,28.06,28.37,48.45,53.12,35.5,43.08,55.35,78.32,59.01,104.74l1.05,7.54Z" fill="#2b2b2b"/><path d="M1472.32,520.97s-79.64-72.07-86.45-20.68c-6.81,51.38,86.45,20.68,86.45,20.68Z" fill="#7db8ea"/><path d="M1420.74,531.84c-11.33,0-21.98-1.97-28.92-7.73-6.5-5.39-9.08-13.48-7.68-24.06,1.32-9.99,5.44-16.32,12.24-18.82,24.37-8.94,74.98,36.5,77.12,38.44l2.23,2.02-2.86.94c-1.64.54-28.36,9.21-52.13,9.21ZM1403.68,483.53c-2.2,0-4.25.31-6.1.99-5.48,2.01-8.83,7.39-9.97,15.99-1.23,9.3.94,16.33,6.45,20.9,17.38,14.41,62.71,2.36,74.75-1.2-9.29-8.01-44.06-36.69-65.12-36.69Z" fill="#2b2b2b"/><path d="M962.87,773.52l2.5,7.19,683.61,90.6.89-6.74.97-7.31,7,.93h.09s-.03.29-.03.29l-2.38,17.98c-.33,2.48-2.47,4.25-4.79,3.94l-697.26-92.41c-2.32-.31-3.93-2.57-3.6-5.05l2.42-18.26,7.89,1.05,2.71,7.8Z" fill="#7db8ea"/><polygon points="1648.97 871.31 965.37 780.71 962.87 773.52 1649.6 864.54 1649.87 864.57 1648.97 871.31" fill="#fff"/><polygon points="1649.6 864.54 962.87 773.52 960.16 765.72 1650.84 857.26 1649.87 864.57 1649.6 864.54" fill="#fff"/><path d="M952.27,764.68l-12.51-1.66c-2.22-.29-3.79-2.34-3.5-4.56l70.42-531.35c.29-2.22,2.34-3.79,4.56-3.5l718.08,95.17c2.23.3,3.79,2.34,3.5,4.56l-70.42,531.35c-.29,2.2-2.28,3.75-4.48,3.51h-.09s-7-.94-7-.94l-690.68-91.54-7.89-1.05Z" fill="#7db8ea"/><path d="M1658.39,861.23c-.26,0-.53-.01-.8-.04l-7.15-.95-711.08-94.25c-1.87-.25-3.53-1.21-4.68-2.71-1.15-1.5-1.64-3.35-1.4-5.23l70.43-531.35c.51-3.86,4.07-6.59,7.93-6.08l718.08,95.17c3.86.51,6.59,4.07,6.08,7.93l-70.43,531.35c-.47,3.57-3.46,6.14-6.98,6.14ZM952.66,761.7l705.67,93.53c.51.05,1.02-.35,1.09-.93l70.43-531.35c.08-.58-.33-1.12-.92-1.2l-718.08-95.17c-.39-.06-.66.11-.79.21-.13.1-.36.33-.41.7l-70.43,531.35c-.05.38.11.66.21.79.1.13.33.36.7.41l12.51,1.66Z" fill="#2b2b2b"/><path d="M1651.23,883.44c-.3,0-.61-.02-.92-.06l-697.26-92.42c-3.96-.52-6.73-4.3-6.18-8.42l2.61-19.66,5.95.79-2.61,19.66c-.11.82.36,1.6,1.02,1.68l697.26,92.41c.67.08,1.32-.54,1.43-1.36l2.38-17.98,5.95.79-2.38,17.98c-.5,3.8-3.66,6.58-7.25,6.58Z" fill="#2b2b2b"/><polygon points="1650.48 873.28 1648.74 873.05 964.07 782.3 958.3 765.7 961.61 764.55 966.67 779.12 1647.47 869.35 1649.18 856.47 1652.65 856.93 1650.48 873.28" fill="#2b2b2b"/><polygon points="1649.37 866.27 961.57 775.11 962.03 771.64 963.1 771.78 1649.83 862.8 1649.37 866.27" fill="#2b2b2b"/><rect x="1368.85" y="-45.86" width="3.5" height="695.14" transform="translate(891.43 1620.78) rotate(-82.45)" fill="#2b2b2b"/><path d="M1199.1,643.78c1.69-12.74,12.08-21.15,24.18-19.54l.2.03c13.14,1.91,33.54,4.79,47.57,6.72,1.76-13.9,4.24-33.88,5.78-46.77l.03-.2c1.58-11.9,12.43-19.94,24.71-18.31,12.53,1.66,21.09,12.48,19.48,24.63l-.02.12-6.5,46.29c13.62,1.73,33.21,4.16,46.26,5.71l.21.03c11.9,1.58,19.93,12.53,18.28,24.94-1.68,12.66-12.51,21.32-24.66,19.71-9.63-1.28-23.26-3.23-35.28-4.95-3.7-.53-7.32-1.05-10.62-1.52l-5.79,46.48c-1.61,12.15-12.69,20.37-25.23,18.71-12.28-1.63-20.66-12.22-19.09-24.12l.03-.2c.59-4.07,1.29-8.83,2.02-13.87,1.57-10.76,3.39-23.22,4.76-32.73-3.25-.4-6.87-.84-10.69-1.31-12.63-1.54-26.94-3.29-36.92-4.62-12.15-1.61-20.37-12.69-18.71-25.23Z" fill="#fff"/><path d="M1280.91,747.82c-1.14,0-2.29-.08-3.45-.23-6.39-.85-12.03-3.99-15.88-8.86-3.86-4.88-5.54-11-4.71-17.22l.03-.21,2.05-14.03c1.47-10.07,3.16-21.6,4.48-30.82-2.44-.3-5.05-.62-7.78-.95l-1.13-.14c-11.95-1.46-26.83-3.28-36.94-4.62-6.35-.84-11.93-4.11-15.71-9.21-3.77-5.08-5.37-11.47-4.5-17.98h0c1.82-13.73,13.06-22.79,26.14-21.05l.21.03c12.84,1.87,32.34,4.62,45.82,6.48,1.67-13.2,4.05-32.33,5.56-45l.03-.22c1.71-12.88,13.42-21.58,26.68-19.83,13.51,1.79,22.73,13.47,20.99,26.6l-.02.13-6.26,44.55c12.84,1.62,31.67,3.96,44.49,5.49l.21.03c12.89,1.71,21.58,13.53,19.8,26.9-1.81,13.64-13.5,22.96-26.63,21.21-9.57-1.27-23.1-3.21-35.04-4.91l-9.12-1.3-5.57,44.71c-1.59,12-11.7,20.45-23.74,20.45ZM1220.35,625.79c-9.92,0-18.09,7.42-19.52,18.22h0c-.74,5.61.62,11.09,3.84,15.44,3.21,4.33,7.95,7.11,13.36,7.82,10.09,1.34,24.96,3.15,36.9,4.61l1.13.14c3.4.42,6.63.81,9.56,1.17l1.77.22-.25,1.77c-1.36,9.48-3.17,21.86-4.73,32.59l-2.07,14.21c-.7,5.27.72,10.45,3.99,14.58,3.28,4.15,8.11,6.83,13.6,7.56,11.56,1.53,21.78-6.02,23.26-17.2l6.01-48.23,12.64,1.81c11.93,1.71,25.46,3.64,35.01,4.91,11.18,1.47,21.15-6.52,22.7-18.21,1.52-11.43-5.85-21.53-16.78-22.97l-.19-.02c-14.05-1.68-33.83-4.14-46.27-5.71l-1.76-.22,6.76-48.17c1.48-11.17-6.42-21.13-17.98-22.66-11.31-1.5-21.3,5.88-22.74,16.81l-.02.19c-1.58,13.24-4.11,33.55-5.78,46.77l-.22,1.75-1.75-.24c-13.5-1.86-34.18-4.77-47.59-6.73l-.19-.03c-.9-.12-1.8-.18-2.68-.18Z" fill="#2b2b2b"/><polygon points="1133.94 534.35 1271.87 328.78 1380.93 551.01 1133.94 534.35" fill="#f9df5a"/><path d="M1383.83,552.96l-253.03-17.07,141.3-210.6,111.73,227.67ZM1137.08,532.81l240.94,16.26-106.39-216.78-134.55,200.53Z" fill="#2b2b2b"/><path d="M1067.38,495.32c12.47-9.55,28.71-7.83,37.78,4l.15.2c9.7,13,24.84,33.11,35.3,46.92,13.53-10.49,32.94-25.61,45.41-35.42l.2-.15c11.64-8.92,27.97-6.49,37.17,5.53,9.4,12.27,7.44,29.01-4.45,38.12l-.12.09-45.62,34.39c10.27,13.26,25.11,32.29,35.04,44.91l.16.2c8.92,11.64,6.39,28.05-5.75,37.35-12.39,9.49-29.23,7.61-38.34-4.28-7.22-9.42-17.31-22.89-26.21-34.76-2.74-3.65-5.42-7.23-7.87-10.49l-45.17,35.15c-11.89,9.11-28.57,6.63-37.96-5.63-9.2-12.02-7.3-28.41,4.35-37.33l.2-.15c4.03-3.01,8.74-6.52,13.74-10.24,10.66-7.94,22.99-17.13,32.39-24.18-2.47-3.16-5.21-6.66-8.1-10.37-9.58-12.24-20.43-26.12-27.91-35.89-9.11-11.89-6.63-28.57,5.63-37.96Z" fill="#2b2b2b"/><path d="M1185.22,679.25c-8.51,0-16.76-3.76-22.31-11.02-7.26-9.48-17.33-22.92-26.22-34.78-2.35-3.13-4.65-6.2-6.8-9.07l-43.76,34.06c-12.68,9.71-30.44,7.1-40.43-5.95-4.73-6.17-6.86-13.67-5.99-21.09.87-7.45,4.65-14.09,10.66-18.69l.2-.15,13.75-10.25c10.13-7.54,21.76-16.21,30.96-23.1-2.17-2.78-4.53-5.8-7-8.96-9.58-12.24-20.43-26.12-27.92-35.91-9.71-12.67-7.09-30.42,5.96-40.42l1.06,1.39-1.06-1.39c6.39-4.89,14-7.15,21.41-6.37,7.46.79,14.14,4.59,18.82,10.7l.16.2c9.58,12.85,24.21,32.26,34.23,45.51,12.86-9.97,31.64-24.6,44-34.33l.21-.16c12.43-9.52,29.84-6.95,39.64,5.85,9.99,13.05,7.89,30.87-4.78,40.57l-.13.1-44.21,33.32c9.48,12.23,23.75,30.55,33.94,43.5l.17.21c9.52,12.43,6.85,29.91-6.07,39.81-5.63,4.31-12.13,6.41-18.48,6.41ZM1130.55,619.44l1.07,1.42c2.45,3.26,5.13,6.84,7.87,10.49,8.88,11.85,18.95,25.28,26.2,34.75,8.51,11.11,24.28,12.85,35.89,3.96,11.36-8.7,13.75-24.03,5.43-34.89l-.15-.2c-10.58-13.45-25.58-32.71-35.03-44.91l-1.09-1.4,47.15-35.54c11.11-8.51,12.92-24.17,4.12-35.66-8.61-11.24-23.86-13.52-34.72-5.2l-.19.15c-12.82,10.08-32.55,25.45-45.41,35.42l-1.4,1.08-1.07-1.41c-10.03-13.25-25.38-33.62-35.31-46.93l-.14-.19c-4.08-5.33-9.91-8.65-16.4-9.34-6.53-.69-13.24,1.32-18.92,5.67-11.49,8.8-13.82,24.4-5.31,35.51,7.48,9.77,18.33,23.64,27.9,35.88,2.9,3.7,5.64,7.21,8.1,10.37l1.1,1.41-1.43,1.07c-9.4,7.05-21.74,16.24-32.4,24.18l-13.92,10.38c-5.24,4.02-8.55,9.81-9.31,16.31-.76,6.52,1.12,13.11,5.29,18.56,8.8,11.49,24.4,13.82,35.51,5.31l46.56-36.24Z" fill="#2b2b2b"/><path d="M1516.76,523.43c-.57-.08-1.06.3-1.14.87-.46,3.44-1.63,12.32-2.39,18.05-.44,3.29-3.5,5.51-6.65,5.09-3.29-.44-5.67-3.38-5.24-6.67.76-5.73,1.94-14.61,2.39-18.05.08-.57-.3-1.06-.87-1.14-1.72-.23-4.58-.61-7.16-.95-3.15-.42-5.39-3.34-4.97-6.49.42-3.15,3.34-5.39,6.49-4.97,2.58.34,5.44.72,7.16.95.57.08,1.06-.3,1.14-.87.66-5.01,3-22.63,3.61-27.21.09-.72-.12-1.33-.79-1.71-3.53-1.92-6.74-4.1-9.51-7.38-2.38-2.94-3.08-7.55-.53-10.27,2.06-2.35,6.5-1.76,8.35.81,1.12,1.46,2.54,2.81,3.59,3.68.39.34.86.11.92-.32.46-3.44,1.46-11.03,2.11-15.9.44-3.29,3.5-5.51,6.79-5.08,3.15.42,5.53,3.36,5.09,6.65-.82,6.16-2.13,16.04-2.58,19.48-.08.57.28,1.2.83,1.42.43.06,1.58.21,2,.27,3.11.7,5.04,3.73,4.5,6.72-.42,3.15-3.48,5.37-6.61,4.81-.14-.02-1.15-.15-1.43-.19-.57-.08-1.06.3-1.14.87-.63,4.73-2.68,20.19-3.3,24.92-.08.57.3,1.06.87,1.14.29.04,1,.13,1.29.17,3.15.42,5.39,3.34,4.97,6.49s-3.34,5.39-6.49,4.97c-.29-.04-1-.13-1.29-.17ZM1580.64,480.16c3.87.51,6.74,4.1,6.21,8.11l-5.09,38.38c-.53,4.01-4.24,6.72-8.11,6.21l-39.1-5.18c-3.87-.51-6.74-4.1-6.21-8.11l5.09-38.38c.53-4.01,4.24-6.72,8.11-6.21l39.1,5.18ZM1560.22,499.02c.36-2.72,2.79-4.58,5.51-4.22s4.73,2.81,4.37,5.53c-.78,5.87-2.01,15.18-2.49,18.76-.1.72.28,1.2.85,1.28.29.04,1,.13,1.29.17.71.1,1.2-.28,1.3-.99.66-5.01,2.96-22.34,3.64-27.5.08-.57-.3-1.06-1.01-1.15-5.01-.66-23.63-3.13-28.79-3.82-.57-.08-1.06.3-1.14.87-.68,5.16-2.98,22.48-3.64,27.5-.1.72.28,1.2.85,1.28.57.08,1.43.19,1.86.25.72.09,1.2-.28,1.3-.99.47-3.58,1.73-13.03,2.49-18.76.36-2.72,2.79-4.58,5.51-4.22,2.58.34,4.58,2.79,4.22,5.51-.76,5.73-2.01,15.18-2.49,18.76-.09.72.28,1.2.85,1.28.43.06,1.29.17,1.72.23.57.08,1.2-.28,1.3-.99.47-3.58,1.71-12.89,2.49-18.76ZM1591.11,537.51c.57.08,1.15.15,1.58.21.71.09,1.2-.28,1.3-.99.21-1.58.47-3.58.67-5.01.09-.72-.12-1.33-.63-1.83-.93-.71-1.71-1.39-2.35-2.06-2.7-2.69-3.62-6.75-1.45-9.96,1.65-2.55,5.77-2.88,8.1-.67,4.48,4.67,8.7,8,12.92,10.31,3,1.56,4.41,5.25,3.25,8.45-1.13,3.06-4.67,4.48-7.69,3.06-.12-.16-.27-.18-.41-.2-.54-.36-1.02.01-1.1.58-.51,3.87-1.8,13.61-2.64,19.91-.42,3.15-3.34,5.39-6.49,4.97-3.15-.42-5.39-3.34-4.97-6.49.34-2.58.72-5.44.95-7.16.08-.57-.3-1.06-1.01-1.15-.43-.06-1-.13-1.58-.21-3.15-.42-5.37-3.48-4.95-6.63.44-3.29,3.36-5.53,6.51-5.11ZM1611.06,495.85c-.42,3.15-3.34,5.39-6.49,4.97-3.15-.42-5.39-3.34-4.97-6.49.23-1.72.49-3.72.66-5.01.08-.57-.3-1.06-1.01-1.15-.29-.04-.72-.09-1.15-.15-3.29-.44-5.53-3.36-5.09-6.65.42-3.15,3.36-5.53,6.65-5.09.43.06.86.11,1.15.15.71.09,1.2-.28,1.28-.85.23-1.72.53-4.01.72-5.44.09-.72-.12-1.33-.63-1.83-1.3-1.19-2.33-2.2-3.61-3.54-2.68-2.83-3.42-7.16-1.37-10.53,1.79-2.53,5.92-2.86,8.09-.53,4.34,4.66,9.34,8.67,14.48,11.68,3.12,1.73,4.82,5.45,3.5,8.77-1.28,3.04-5.25,4.41-8.25,2.84-.12-.16-.27-.18-.39-.34-.55-.22-1.04.15-1.1.58-.51,3.87-1.69,12.75-2.47,18.62Z" fill="#fff"/><path d="M1495.74,683.14c-.52-.5-1.25-.46-1.59-.06-5.73,4.78-10.79,12.12-14.9,20.03-1.52,2.71-5.28,3.53-7.61,1.32-2.88-2.42-3.5-6.58-1.61-9.83,4.54-7.85,9.77-15.46,15.83-20.49.34-.39.44-1.11.07-1.59-3.25-4.07-6.16-8.54-8.66-13.83-1.75-3.29-.91-7.41,1.78-10.11,2.31-2.03,5.87-1.41,7.25,1.4,2.63,5.45,5.96,11.14,9.43,15.68.52.51,1.09.58,1.72.23,4.39-2.33,9.03-4.34,14.02-5.72,3.18-.89,6.57,1.02,7.32,4.18.75,3.16-1,6.43-4.18,7.32-2.59.82-5.21,1.93-8.14,3.15-.47.23-.54.8-.15,1.15,5.93,4.72,13.31,8.47,20.44,10.72,3.08.99,4.83,4.28,4.1,7.54-.7,3.11-4.01,5.01-7.23,4-10.37-3.12-20.44-8.54-27.88-15.06ZM1535.65,605.22c-.7-.24-2.27-.45-2.97-.68-.57-.08-1.2.28-1.28.85-.55,4.15-2.43,18.33-3.4,25.64-.44,3.29-3.36,5.53-6.65,5.09-3.29-.44-5.53-3.36-5.09-6.65l.74-5.58c.08-.57-.44-1.08-1.01-1.15-3.29-.44-7.23-1.54-9.77-2.17-.55-.22-1.2.28-1.28.85-.02.14-.19,1.43-.23,1.72-.42,3.15-3.34,5.39-6.49,4.97-3.29-.44-5.53-3.36-5.11-6.51.19-1.43.55-4.15.66-5.01.09-.72-.26-1.35-.79-1.71-5.1-3.3-9.21-7.49-12.15-13.85-1.44-3.4-.64-7.23,2.15-9.63,2.15-1.9,5.54-1.16,6.66,1.47,2.01,4.64,3.59,5.87,5.35,8,.25.32.86.11.92-.32.49-3.72,1.4-10.6,2.14-16.18.49-3.72,3.9-6.33,7.62-5.84,2.72.36,4.57,2.94,4.21,5.66-.06.43.17.9.58,1.1,3.02,1.42,6.34,2.73,10.11,3.96.43.06,1.04-.15,1.12-.73.23-1.72.84-6.3,1.14-8.59.44-3.29,3.36-5.53,6.65-5.09,3.29.44,5.53,3.36,5.09,6.65-.38,2.86-1.1,8.31-1.35,10.17-.08.57.42,1.22.99,1.3.84.26,2.68.65,3.69.78,3.26.72,5.33,3.77,4.75,7.04-.58,3.27-3.77,5.33-7,4.46ZM1517.53,611.12c.71.09,1.2-.28,1.28-.85.44-3.29.83-6.3,1.04-7.88.08-.57-.28-1.2-.83-1.42-3.49-1.19-6.68-2.34-9.72-3.62-.55-.22-1.18.13-1.26.71-.38,2.87-.87,6.59-1.2,9.02-.1.72.42,1.22.97,1.44,2.68.65,7.56,2.31,9.71,2.6ZM1557.91,636.29c-1.77,2.39-5.63,2.9-8,.98-2.78-2.12-2.86-5.92-.88-8.71,1.09-1.61,2.3-3.05,3.47-4.2,2.18-2.19,6.23-1.94,8.08.63,1.99,2.59,1.37,6.16-.71,8.65-.69.78-1.39,1.71-1.96,2.66ZM1555.43,603.32c4.3.57,10.6,1.41,13.32,1.77.57.08,1.06-.3,1.14-.87.36-2.72,1.46-11.03,2.03-15.32.44-3.29,3.5-5.51,6.65-5.09,3.29.44,5.53,3.36,5.09,6.65-.57,4.3-1.67,12.6-2.03,15.32-.08.57.3,1.06.87,1.13,2.58.34,8.59,1.14,12.6,1.67,3.29.44,5.53,3.36,5.09,6.65s-3.36,5.53-6.65,5.09c-4.01-.53-10.03-1.33-12.6-1.67-.57-.08-1.08.44-1.15,1.01-.3,2.29-1.56,11.74-2.01,15.18-.44,3.29-3.36,5.53-6.67,5.24-3.15-.42-5.53-3.36-5.11-6.51.47-3.58,1.75-13.18,2.05-15.47.08-.57-.28-1.2-.85-1.28-2.72-.36-9.02-1.2-13.32-1.77-3.15-.42-5.53-3.36-5.09-6.65s3.5-5.51,6.65-5.09ZM1564.38,583.08c.4,1.37,1.4,2.66,1.83,3.74,1.48,3.11.86,6.67-1.85,8.5-2.72,1.83-6.8.7-8.16-2.25-.65-1.69-1.59-3.42-2.24-5.11-1.03-3.2.61-6.77,3.7-8.11,2.79-1.23,5.93.35,6.71,3.22ZM1566.3,657.66c10.06,8.76,15.49,10.65,23.2,12.98,3.08.99,4.84,4.14,4.14,7.25-.71,3.11-3.71,4.9-6.8,4.05-2.25-.59-4.08-1.12-6.15-1.98-.55-.22-1.02.01-1.1.58-.72,5.44-3.17,23.92-4.44,33.51-.44,3.29-3.5,5.51-6.65,5.09-3.29-.44-5.67-3.38-5.24-6.67,1.39-10.46,4.18-31.51,4.86-36.66.08-.57-.12-1.33-.67-1.55-3.09-2.01-5.35-3.62-7.43-5.5-2.72-2.55-3.34-6.71-1.47-9.81,1.69-2.84,5.4-3.36,7.75-1.3ZM1585.9,638.4c-.64-.67-1.26-1.48-1.86-2.43-1.97-2.74-1.74-6.64.89-8.92,2.29-1.88,6.16-1.37,8.02,1.06.23.47.6.95.98,1.44,2.13,2.61,2.5,6.45.27,8.93-2.08,2.49-6.31,2.52-8.3-.08ZM1599.24,599.36c-.63.35-1.13.87-1.78,1.37-2.76,2.11-6.5,1.76-8.16-1.08-1.81-2.86-.97-6.98,1.77-8.95.67-.64,1.46-1.12,1.97-1.63,2.43-1.86,5.98-1.1,7.53,1.44,1.79,3.01,1.15,6.71-1.32,8.86Z" fill="#fff"/><path d="M1596.93,566.07c-.33,0-.66-.02-.99-.07-1.99-.26-3.76-1.29-4.98-2.89-1.23-1.6-1.76-3.58-1.49-5.56l.85-6.43-.99-.13c-1.99-.26-3.76-1.32-4.99-2.98-1.21-1.63-1.73-3.63-1.46-5.61.27-2.04,1.3-3.85,2.89-5.1,1.6-1.24,3.58-1.78,5.58-1.52l.99.13.59-4.42c.02-.14,0-.21-.07-.29-.95-.73-1.78-1.46-2.45-2.16-3.46-3.44-4.14-8.45-1.63-12.15,1.01-1.56,2.77-2.61,4.81-2.85,2.19-.26,4.41.44,5.94,1.89,4.33,4.51,8.42,7.78,12.55,10.05,3.76,1.96,5.52,6.51,4.06,10.57-.71,1.92-2.2,3.45-4.08,4.22-1.65.68-3.51.72-5.2.15l-2.47,18.61c-.5,3.78-3.74,6.54-7.46,6.54ZM1590.36,539.21c-.88,0-1.73.29-2.44.84-.87.68-1.43,1.67-1.58,2.8-.14,1.06.15,2.18.81,3.07.66.89,1.6,1.46,2.64,1.6l1.58.21c.77.1,1.45.46,1.91,1,.49.59.71,1.34.61,2.12l-.95,7.16c-.14,1.06.14,2.12.8,2.98s1.6,1.41,2.66,1.55c2.21.3,4.23-1.26,4.52-3.46l2.64-19.91c.12-.92.67-1.69,1.46-2.04.62-.28,1.34-.27,1.97.02.22.06.5.17.78.38.96.39,2.01.39,2.96,0,1-.41,1.75-1.18,2.12-2.18.85-2.36-.21-5.13-2.42-6.29-4.49-2.46-8.85-5.94-13.37-10.65-.72-.68-1.89-1.04-3.06-.9-1.01.12-1.85.6-2.31,1.31-1.84,2.72-.71,5.85,1.21,7.77.6.62,1.32,1.26,2.18,1.91l.16.14c.92.9,1.31,2.04,1.14,3.31l-.67,5.01c-.11.81-.49,1.51-1.09,1.96-.59.45-1.37.65-2.18.54l-1.58-.21c-.18-.02-.35-.04-.53-.04ZM1605.41,540.25s.04.03.07.04l-.07-.04ZM1507.37,549.24c-.33,0-.67-.02-1.01-.07-4.27-.57-7.3-4.44-6.74-8.63l2.29-17.31-6.43-.85c-1.99-.26-3.76-1.29-4.98-2.89s-1.75-3.58-1.49-5.56c.55-4.12,4.33-7.02,8.45-6.47l6.43.85,3.51-26.48c-3.12-1.71-6.73-3.97-9.91-7.73-2.81-3.47-3.74-9.11-.48-12.6,1.2-1.38,3.12-2.13,5.25-2.02,2.36.12,4.53,1.24,5.8,3.01.45.59,1.03,1.23,1.65,1.86l1.8-13.61c.27-2.06,1.34-3.87,3.02-5.11,1.65-1.22,3.68-1.74,5.74-1.47,4.19.56,7.16,4.42,6.6,8.62l-2.52,19.03,1.43.2c4,.9,6.56,4.74,5.84,8.74-.25,1.88-1.33,3.69-2.96,4.89-1.64,1.2-3.71,1.68-5.68,1.33l-.62-.08-3.11,23.46.55.07c4.12.55,7.02,4.34,6.48,8.45-.26,1.99-1.29,3.76-2.89,4.98-1.6,1.23-3.58,1.76-5.56,1.49l-.56-.07-2.29,17.31c-.51,3.85-3.82,6.67-7.6,6.67ZM1496.46,510.88c-1.99,0-3.72,1.48-3.99,3.5-.14,1.06.14,2.12.8,2.98s1.6,1.41,2.66,1.55l7.16.95c.74.1,1.39.47,1.84,1.05s.64,1.31.54,2.05l-2.39,18.04c-.3,2.28,1.37,4.39,3.73,4.7,2.28.3,4.38-1.31,4.69-3.59l2.39-18.04c.2-1.54,1.56-2.58,3.1-2.38h0l1.29.17c1.06.14,2.12-.14,2.98-.8.86-.66,1.41-1.6,1.55-2.66.29-2.2-1.26-4.23-3.46-4.52l-1.29-.17c-.74-.1-1.39-.47-1.84-1.05-.44-.58-.63-1.31-.54-2.05l3.3-24.92c.1-.74.47-1.39,1.05-1.84.58-.44,1.31-.64,2.05-.54l1.43.19c1.11.2,2.2-.06,3.07-.7.88-.64,1.43-1.56,1.57-2.6.39-2.17-.99-4.25-3.08-4.76l-2.13-.28-.2-.08c-1.3-.51-2.11-1.89-1.92-3.28l2.58-19.48c.3-2.28-1.31-4.38-3.59-4.69-1.15-.15-2.28.14-3.2.81-.9.67-1.48,1.65-1.63,2.76l-2.11,15.9c-.11.85-.67,1.56-1.46,1.86-.79.3-1.69.12-2.35-.46-.64-.53-2.38-2.04-3.83-3.93-.67-.93-1.89-1.54-3.16-1.6-1.03-.05-1.95.27-2.48.88-1.97,2.11-1.22,5.79.58,8.02,2.24,2.65,4.93,4.73,8.99,6.95,1.28.72,1.89,1.98,1.69,3.48l-3.61,27.21c-.2,1.53-1.57,2.58-3.1,2.37l-7.16-.95c-.18-.02-.36-.04-.53-.04ZM1516.53,525.16h0s0,0,0,0h0ZM1524.29,472.25h0s0,0,0,0ZM1511.31,465.81s.02.02.03.03c-.01,0-.02-.02-.03-.03ZM1574.61,534.68c-.39,0-.79-.03-1.18-.08l-39.1-5.18c-2.34-.31-4.44-1.52-5.91-3.4-1.48-1.91-2.13-4.28-1.81-6.67l5.09-38.38c.32-2.39,1.55-4.51,3.48-5.97,1.91-1.44,4.25-2.06,6.59-1.75l39.1,5.18c2.34.31,4.44,1.52,5.91,3.4,1.48,1.91,2.13,4.28,1.81,6.67l-5.09,38.38c-.6,4.51-4.46,7.79-8.89,7.79ZM1540.6,476.67c-1.18,0-2.33.39-3.3,1.12-1.18.89-1.93,2.18-2.12,3.63l-5.09,38.38c-.19,1.46.2,2.9,1.1,4.06.9,1.15,2.18,1.89,3.6,2.08l39.1,5.18c2.99.4,5.75-1.72,6.15-4.71l5.09-38.38c.19-1.46-.2-2.9-1.1-4.06-.9-1.15-2.18-1.89-3.6-2.08l-39.1-5.18c-.24-.03-.48-.05-.72-.05ZM1569.96,522.31c-.14,0-.29,0-.44-.03l-1.29-.17c-.73-.1-1.37-.46-1.81-1.03-.46-.6-.66-1.39-.55-2.21l2.49-18.76c.23-1.73-1.05-3.33-2.86-3.57-.85-.11-1.69.1-2.35.61s-1.09,1.26-1.2,2.11l-2.49,18.76c-.22,1.61-1.65,2.71-3.26,2.5l-1.72-.23c-.78-.1-1.45-.51-1.88-1.14-.41-.59-.57-1.33-.47-2.11l2.49-18.76c.23-1.7-1.02-3.32-2.72-3.55-.85-.11-1.69.1-2.35.61-.66.51-1.09,1.26-1.2,2.11l-2.49,18.76c-.22,1.67-1.6,2.72-3.26,2.5l-1.86-.25c-.73-.1-1.37-.46-1.81-1.03-.46-.6-.66-1.39-.55-2.21l3.64-27.5c.1-.74.47-1.39,1.05-1.84.58-.45,1.31-.63,2.05-.54l28.79,3.82c1.64.22,2.72,1.56,2.52,3.12l-3.65,27.5c-.2,1.52-1.36,2.53-2.82,2.53ZM1555.68,516.91h0l.4.05,2.41-18.17c.24-1.78,1.14-3.35,2.54-4.43,1.4-1.07,3.16-1.54,4.94-1.3,3.5.46,6.04,3.47,5.92,6.85l.98-7.36-27.47-3.64-3.47,26.18.54.07,2.41-18.17c.24-1.78,1.14-3.35,2.54-4.43s3.16-1.53,4.94-1.3c3.58.47,6.2,3.9,5.73,7.48l-2.41,18.17ZM1605.34,502.62c-.33,0-.66-.02-.99-.07-1.99-.26-3.76-1.29-4.98-2.89-1.23-1.6-1.76-3.58-1.49-5.56l.57-4.28-.56-.07c-4.26-.57-7.16-4.35-6.6-8.62.56-4.19,4.42-7.15,8.61-6.6l.56.07.62-4.71c.02-.17,0-.23-.12-.35-1.28-1.17-2.35-2.22-3.65-3.58-3.34-3.52-3.99-8.72-1.6-12.65l.07-.1c1.17-1.65,3.08-2.68,5.23-2.82,2.15-.14,4.18.63,5.56,2.11,4.17,4.48,9.05,8.41,14.09,11.37,3.99,2.2,5.83,6.91,4.24,10.92-.8,1.9-2.41,3.39-4.43,4.12-1.78.64-3.7.64-5.4.01l-2.27,17.16c-.5,3.78-3.74,6.54-7.46,6.54ZM1598.88,477.97c-2.06,0-3.86,1.53-4.13,3.63-.31,2.32,1.27,4.38,3.59,4.69l1.15.15c.77.1,1.45.46,1.91,1,.49.59.71,1.34.61,2.12l-.66,5.01c-.14,1.06.14,2.12.8,2.98s1.6,1.41,2.66,1.55c2.21.29,4.23-1.26,4.52-3.46l2.47-18.62c.1-.75.55-1.43,1.22-1.82.68-.4,1.5-.46,2.26-.16l.45.18.19.25s.08.06.12.09c.99.44,2.16.48,3.25.08,1.1-.4,1.97-1.18,2.37-2.15.93-2.35-.24-5.18-2.73-6.56-5.37-3.15-10.51-7.3-14.92-12.02-.66-.71-1.67-1.08-2.77-1-1.06.07-2.02.56-2.58,1.31-1.53,2.58-1.05,6.01,1.18,8.36,1.26,1.31,2.25,2.28,3.52,3.45.96.94,1.35,2.08,1.18,3.35l-.72,5.44c-.21,1.56-1.6,2.57-3.24,2.36l-1.15-.15c-.19-.02-.37-.04-.55-.04Z" fill="#2b2b2b"/><path d="M1569.28,720.96c-.33,0-.67-.02-1.01-.07-2.06-.27-3.89-1.31-5.16-2.91-1.29-1.63-1.86-3.66-1.58-5.72l4.85-36.59c-2.9-1.89-5.29-3.57-7.53-5.59-3.36-3.14-4.1-8.18-1.8-12.02,1.06-1.78,2.84-2.99,4.86-3.32,2-.32,4.02.26,5.54,1.59h0c9.71,8.46,14.9,10.31,22.56,12.63,3.97,1.28,6.25,5.28,5.34,9.31-.45,1.97-1.62,3.61-3.3,4.62-1.69,1.01-3.71,1.28-5.67.74-1.92-.5-3.53-.97-5.22-1.6l-4.28,32.26c-.51,3.85-3.81,6.67-7.6,6.67ZM1568.29,672.74c1.28.63,1.71,2.13,1.56,3.31l-4.86,36.67c-.15,1.11.16,2.21.86,3.09.71.89,1.73,1.46,2.88,1.62,2.28.3,4.38-1.31,4.68-3.59l4.44-33.51c.11-.79.54-1.47,1.19-1.85.67-.39,1.5-.44,2.29-.13,1.97.82,3.67,1.32,5.95,1.92,1.06.29,2.1.16,2.97-.36.85-.51,1.45-1.36,1.69-2.39.51-2.25-.77-4.49-2.97-5.2-8.11-2.45-13.77-4.58-23.81-13.33h0c-.74-.65-1.71-.93-2.69-.78-1.01.16-1.86.75-2.4,1.66-1.44,2.39-.94,5.67,1.16,7.64,2.05,1.85,4.32,3.44,7.08,5.24ZM1474.83,707.45c-1.62,0-3.17-.6-4.36-1.71-3.47-2.95-4.3-7.99-1.96-12.02,5.5-9.52,10.51-16.06,15.72-20.53-3.42-4.35-6.23-8.86-8.55-13.76-2.02-3.79-1.16-8.8,2.12-12.09l.09-.08c1.54-1.35,3.56-1.9,5.53-1.5,1.94.39,3.56,1.64,4.44,3.44,2.7,5.59,5.87,10.9,8.97,15.02,4.94-2.6,9.56-4.48,14.16-5.75,2.01-.56,4.2-.27,6.01.8,1.78,1.05,3.01,2.71,3.48,4.66.98,4.15-1.4,8.28-5.41,9.4-1.96.62-3.96,1.43-6.22,2.36,5.27,3.91,11.76,7.2,18.42,9.3,3.95,1.27,6.21,5.39,5.28,9.59-.44,1.95-1.7,3.64-3.45,4.65-1.81,1.04-4,1.28-6.02.64-10.42-3.14-20.68-8.65-28.19-15.14-4.88,4.19-9.75,10.81-14.1,19.18-1.05,1.87-2.9,3.14-4.96,3.46-.33.05-.67.08-1,.08ZM1480.24,649.85c-2.17,2.22-2.76,5.5-1.43,8.01,2.31,4.87,5.07,9.28,8.48,13.56.87,1.14.81,2.78-.12,3.84l-.2.19c-5.06,4.2-9.96,10.56-15.44,20.02-1.49,2.57-.98,5.77,1.22,7.62l.08.07c.9.85,1.93.84,2.47.75,1.01-.15,1.91-.78,2.41-1.66,4.69-9.03,9.82-15.93,15.23-20.45.47-.47,1.12-.74,1.81-.77.79-.05,1.57.27,2.16.83,7.18,6.28,17.09,11.63,27.2,14.68,1.12.35,2.27.23,3.25-.33.92-.53,1.55-1.37,1.78-2.38.53-2.38-.76-4.79-2.93-5.49-7.65-2.42-15.1-6.33-20.99-11.02-.69-.6-1-1.41-.89-2.21s.62-1.51,1.36-1.87l.76-.32c2.65-1.1,5.16-2.14,7.62-2.93,2.26-.63,3.55-2.93,3-5.25-.24-1.02-.9-1.89-1.85-2.45-1-.59-2.19-.75-3.29-.44-4.45,1.23-8.92,3.05-13.67,5.58-1.27.72-2.69.53-3.76-.52l-.16-.19c-3.33-4.35-6.75-10.03-9.62-15.98-.4-.82-1.11-1.37-1.98-1.54-.88-.18-1.79.06-2.49.66ZM1590.04,642.1c-.05,0-.1,0-.15,0-2.13-.04-4.06-.97-5.31-2.55-.69-.73-1.35-1.6-1.99-2.6-2.51-3.54-1.99-8.46,1.2-11.22,1.46-1.2,3.42-1.74,5.4-1.51,2.07.24,3.95,1.27,5.15,2.84l.18.3c.15.31.47.73.78,1.13,2.76,3.39,2.86,8.21.19,11.17-1.27,1.52-3.31,2.45-5.46,2.45ZM1588.29,627.66c-.86,0-1.66.26-2.25.74-1.81,1.57-2.08,4.45-.58,6.54l.06.09c.54.85,1.09,1.58,1.65,2.16l.13.15c.6.78,1.57,1.24,2.67,1.26,1.13.04,2.23-.44,2.89-1.24,1.56-1.74,1.42-4.6-.29-6.7-.41-.53-.8-1.04-1.1-1.59-.63-.75-1.6-1.25-2.68-1.38-.17-.02-.34-.03-.5-.03ZM1571.68,641.86c-.24,0-.48-.01-.73-.03-4.2-.56-7.23-4.44-6.69-8.48l1.97-14.88-12.59-1.67c-2-.26-3.79-1.3-5.04-2.91-1.27-1.64-1.83-3.66-1.56-5.71.56-4.19,4.41-7.16,8.61-6.6h0s12.59,1.67,12.59,1.67l1.93-14.59c.27-2.05,1.33-3.86,2.99-5.11,1.63-1.23,3.63-1.75,5.62-1.49,2.06.27,3.87,1.31,5.11,2.92,1.24,1.61,1.77,3.63,1.49,5.69l-1.93,14.59,11.87,1.57c4.26.56,7.16,4.35,6.6,8.61-.27,2.06-1.31,3.87-2.92,5.11-1.61,1.24-3.63,1.77-5.69,1.49l-11.87-1.57-1.93,14.59c-.52,3.92-3.89,6.78-7.83,6.78ZM1554.65,605.02c-2.06,0-3.86,1.53-4.13,3.62-.15,1.11.15,2.21.85,3.1.69.88,1.66,1.44,2.74,1.59l13.32,1.77c.78.1,1.48.56,1.92,1.25.37.59.53,1.3.44,1.99l-2.05,15.47c-.29,2.17,1.36,4.25,3.61,4.54,2.33.21,4.4-1.39,4.71-3.73l2.01-15.18c.21-1.59,1.61-2.72,3.12-2.52l12.6,1.67c1.13.15,2.23-.14,3.1-.8.87-.67,1.43-1.66,1.58-2.79.31-2.32-1.27-4.38-3.59-4.69l-12.6-1.67c-1.53-.2-2.58-1.56-2.37-3.1l2.03-15.33c.15-1.13-.14-2.23-.8-3.1-.67-.87-1.66-1.43-2.79-1.58-1.08-.14-2.17.15-3.06.82-.9.68-1.48,1.66-1.62,2.77l-2.03,15.33c-.1.74-.47,1.39-1.05,1.84-.58.44-1.31.64-2.05.54l-13.32-1.76c-.19-.03-.37-.04-.55-.04ZM1553.37,640.2c-1.69,0-3.31-.55-4.56-1.56-3.33-2.54-3.87-7.32-1.21-11.08,1.09-1.61,2.36-3.15,3.67-4.44,1.42-1.42,3.45-2.13,5.59-1.96,2.1.17,3.98,1.2,5.14,2.82,2.3,3,1.99,7.46-.79,10.79-.51.58-1.21,1.45-1.8,2.43l-.1.15c-1.13,1.52-2.94,2.54-4.96,2.8-.33.04-.66.06-.99.06ZM1556.24,624.62c-.97,0-1.89.35-2.51.97-1.16,1.14-2.28,2.5-3.26,3.95-1.37,1.94-1.63,4.73.5,6.34.8.65,1.86.92,2.95.78,1.05-.13,1.97-.62,2.54-1.35.71-1.17,1.52-2.18,2.09-2.83,1.38-1.66,2.19-4.4.64-6.43-.6-.83-1.54-1.33-2.61-1.42-.11,0-.22-.01-.33-.01ZM1522.18,637.92c-.35,0-.7-.02-1.05-.07-2.06-.27-3.87-1.31-5.11-2.92s-1.77-3.63-1.49-5.69l.64-4.86c-2.62-.4-5.47-1.13-7.8-1.72-.28-.07-.54-.14-.8-.2l-.12.91c-.26,1.99-1.29,3.76-2.89,4.98-1.6,1.22-3.58,1.76-5.56,1.49-2.04-.27-3.85-1.3-5.1-2.89-1.24-1.6-1.78-3.58-1.52-5.58l.66-5.01c-5.89-3.81-9.96-8.45-12.8-14.59-1.77-4.17-.72-8.84,2.6-11.69,1.42-1.26,3.39-1.76,5.27-1.34,1.88.43,3.39,1.68,4.14,3.45,1.21,2.8,2.22,4.21,3.27,5.47l1.79-13.52c.62-4.67,4.92-7.96,9.59-7.34,1.78.24,3.36,1.17,4.44,2.64.96,1.3,1.42,2.87,1.32,4.48,2.61,1.21,5.39,2.31,8.43,3.33l1-7.55c.57-4.27,4.35-7.16,8.62-6.6,4.26.57,7.16,4.35,6.6,8.61l-1.28,9.65c.85.23,2.31.53,3.11.63l.15.03c4.15.92,6.83,4.9,6.09,9.06-.36,2.05-1.56,3.86-3.3,4.96-1.76,1.12-3.84,1.43-5.88.89l-.11-.03c-.24-.08-.8-.19-1.26-.28-.27-.05-.54-.11-.8-.16l-3.29,24.82c-.27,2.06-1.31,3.87-2.92,5.1-1.34,1.02-2.95,1.56-4.64,1.56ZM1506.72,618.87c.47.12.98.25,1.52.39,2.41.62,5.41,1.39,7.98,1.73.78.1,1.5.52,1.97,1.14.44.58.64,1.28.54,1.98l-.74,5.58c-.15,1.13.14,2.23.8,3.1.67.87,1.66,1.43,2.79,1.58,1.13.14,2.23-.14,3.1-.8s1.43-1.66,1.58-2.79l3.4-25.64c.09-.7.46-1.33,1.04-1.77.62-.48,1.42-.7,2.21-.59l.33.08c.24.08.8.19,1.25.28.61.12,1.2.24,1.65.38,1.07.27,2.15.11,3.05-.47.92-.59,1.54-1.52,1.73-2.62.41-2.32-1.02-4.47-3.34-5.01-1.07-.15-2.83-.52-3.78-.8-.67-.14-1.29-.53-1.73-1.1-.48-.62-.7-1.4-.6-2.13l1.35-10.17c.31-2.32-1.27-4.38-3.59-4.68-2.32-.31-4.38,1.27-4.69,3.59l-1.14,8.59c-.11.81-.59,1.51-1.32,1.91-.53.29-1.16.4-1.75.32l-.31-.07c-3.76-1.22-7.14-2.55-10.32-4.04-1.09-.53-1.73-1.73-1.57-2.91.12-.87-.11-1.74-.62-2.45-.51-.69-1.25-1.14-2.08-1.25-2.75-.36-5.29,1.58-5.66,4.33l-2.14,16.18c-.12.92-.79,1.67-1.71,1.91-.88.24-1.79-.06-2.33-.76-.29-.34-.61-.71-.93-1.07-1.43-1.62-2.91-3.3-4.64-7.29-.31-.73-.92-1.24-1.69-1.41-.79-.18-1.59.02-2.2.56-2.21,1.9-2.87,4.88-1.7,7.63,2.53,5.47,6.19,9.64,11.49,13.07,1.16.79,1.75,2.09,1.58,3.41l-.66,5.01c-.14,1.06.15,2.12.81,2.97.68.87,1.67,1.43,2.8,1.58,1.06.14,2.12-.14,2.97-.8.86-.66,1.41-1.6,1.55-2.66l.23-1.72c.11-.83.63-1.6,1.38-2.04.66-.39,1.43-.48,2.13-.25ZM1496.28,599.66s.04.05.06.07c-.02-.02-.04-.05-.06-.07ZM1511.61,584.39s0,0,0,0c0,0,0,0,0,0ZM1517.73,612.88c-.14,0-.29,0-.44-.03h0c-1.44-.19-3.81-.89-6.11-1.57-1.43-.42-2.78-.82-3.79-1.06l-.23-.07c-1.43-.56-2.26-1.89-2.07-3.3l1.19-9.02c.11-.81.57-1.5,1.28-1.92.72-.42,1.58-.49,2.35-.18,2.67,1.12,5.54,2.19,9.64,3.59,1.38.54,2.18,1.92,2,3.31l-1.04,7.88c-.19,1.42-1.36,2.38-2.8,2.38ZM1517.76,609.39h0l-.23,1.73.23-1.73h0ZM1508.63,606.92c1.02.26,2.26.63,3.56,1.01,1.76.52,3.72,1.1,4.99,1.36l.9-6.79c-3.45-1.18-6.07-2.15-8.44-3.11l-1,7.54ZM1518.11,602.16s0,0,0,0h0ZM1593.62,603.83c-.46,0-.93-.04-1.38-.13-1.9-.37-3.48-1.5-4.46-3.17-2.23-3.53-1.25-8.64,2.16-11.18.38-.35.76-.64,1.1-.9.29-.22.57-.44.74-.61l.19-.16c1.52-1.17,3.5-1.63,5.41-1.28,1.95.36,3.65,1.52,4.68,3.19,2.2,3.69,1.49,8.35-1.66,11.1l-.29.21c-.27.15-.56.39-.89.67-.22.18-.45.37-.69.56-1.46,1.12-3.19,1.72-4.9,1.72ZM1594.17,590.4c-.31.3-.66.57-1,.83-.31.24-.63.48-.9.74l-.19.16c-2,1.44-2.62,4.52-1.31,6.59.63,1.07,1.51,1.43,2.14,1.55,1.15.23,2.41-.11,3.48-.93.2-.15.39-.31.57-.46.38-.32.77-.65,1.24-.93,1.78-1.65,2.15-4.37.85-6.55-.49-.8-1.34-1.37-2.32-1.55-.92-.17-1.83.03-2.57.56ZM1561.37,597.96c-.7,0-1.41-.1-2.1-.29-2.1-.59-3.8-2-4.65-3.86l-.04-.1c-.3-.79-.68-1.59-1.07-2.45-.4-.87-.82-1.76-1.16-2.66-1.34-4.14.71-8.64,4.64-10.34,1.76-.78,3.77-.75,5.51.08,1.76.83,3.06,2.39,3.58,4.27.18.61.57,1.29.94,1.94.29.51.59,1.04.81,1.57,1.9,4.02.88,8.4-2.48,10.66-1.16.78-2.54,1.18-3.97,1.18ZM1557.81,592.39c.44.91,1.31,1.6,2.4,1.91,1.14.32,2.29.16,3.17-.43,1.89-1.27,2.41-3.86,1.25-6.29l-.04-.09c-.14-.33-.38-.76-.63-1.21-.45-.79-.96-1.69-1.26-2.7v-.03c-.26-.9-.88-1.65-1.72-2.05-.83-.39-1.76-.41-2.6-.03-2.3,1-3.5,3.62-2.74,5.97.27.7.65,1.5,1.04,2.35.39.85.8,1.72,1.14,2.6Z" fill="#2b2b2b"/></g><g id="_レイヤー_3"><path d="M1572.75,682.95l-1.74-.17-584.39-56.93.17-1.74,43.86-450.23,1.74.17,584.39,56.93-.17,1.74-43.86,450.23ZM990.44,622.71l579.17,56.42,43.35-445-579.17-56.42-43.35,445Z" fill="#2b2b2b"/><rect x="1050.07" y="83.7" width="510.29" height="690.12" rx="34.95" ry="34.95" transform="translate(1858.5 -828.74) rotate(95.56)" fill="#fff"/><rect x="1050.07" y="83.7" width="510.29" height="690.12" rx="34.95" ry="34.95" transform="translate(1858.5 -828.74) rotate(95.56)" fill="#fff"/><path d="M1592.59,715.94c-1.24,0-2.49-.06-3.75-.18l-617.31-60.14c-20.82-2.03-36.12-20.62-34.09-41.45l42.7-438.32c.98-10.09,5.84-19.19,13.66-25.63,7.83-6.44,17.7-9.44,27.78-8.46l617.31,60.14c10.09.98,19.19,5.84,25.63,13.66,6.44,7.83,9.44,17.7,8.46,27.78l-42.7,438.32c-.98,10.09-5.83,19.19-13.66,25.63-6.85,5.64-15.27,8.64-24.04,8.64ZM943.41,614.75c-1.71,17.53,11.17,33.19,28.7,34.89l617.31,60.14c8.49.82,16.8-1.7,23.39-7.12,6.59-5.42,10.68-13.08,11.5-21.58l42.7-438.32c.83-8.49-1.7-16.8-7.12-23.39-5.42-6.59-13.08-10.68-21.58-11.5l-617.31-60.14c-8.49-.83-16.8,1.7-23.39,7.12-6.59,5.42-10.68,13.08-11.5,21.58l-42.7,438.32Z" fill="#2b2b2b"/><rect x="1076.39" y="135.71" width="450.61" height="585.41" transform="translate(1854.3 -825.61) rotate(95.56)" fill="#383838"/></g></svg>