<?xml version="1.0" encoding="UTF-8"?><svg id="_レイヤー_6" xmlns="http://www.w3.org/2000/svg" width="2000" height="2000" viewBox="0 0 2000 2000"><path d="M3122.4,1620.64c-74.68,31.73-134.41,37.78-171.31,37.32-26.54-.29-41.27-4.02-41.27-4.02l-2241.62-400.47-176.22-31.5c-20.14-3.61-35.29-29.46-35.29-60.25,0,0-6.31-58.81,3.74-58.81l2470.03,399.67c20.79,0,83.66,10.48,145.53-20.84l726.16-471.12c34.6-16.01,48.02-34.17,50.94-49.78l2.53,1.22-5.81,130.61c0,25.62-10.59,48.44-26.47,57.11l-171.17,185.24-478.21,260.69c-17.87,9.72-35.06,17.93-51.55,24.92Z" fill="#c9a57a"/><path d="M3832.72,966.64c8.17,0,24.36,16.94,20.37,38.66-2.92,15.6-16.34,33.77-50.94,49.78l-726.16,471.12c-61.87,31.32-124.74,20.84-145.53,20.84L479.21,1140.09c-10.05,0-19.52-12.87-19.52-28.64,0-17.35,11.47-38.13,46.26-49.08l800.02-442.24c23.71-11.59,76.22-11.59,107.75-5.82l2419.01,352.32Z" fill="#e7c79e"/><path d="M1435.18,1990.02c-347.64-66.48-629.77-120.39-629.77-120.39-23.4-1.98-42.85-7.8-59.03-16.36-81.47-43.02-80.4-155.15-79.56-194.21.19-7.86.69-234.96.92-344.12.12-34.76.15-57.52.15-57.52l.31-3.96,2241.62,400.47-14.15,375.73c-2.61,158.58-64.79,201.95-117.76,209.87-23.4,3.49-44.99.12-58.88-3.26-10.78-2.68-624.82-120.22-1154.39-221.51v-.06c-43.88-8.32-87.15-16.59-129.46-24.68Z" fill="#c7ccd1"/><polygon points="2039.44 1645.56 2036 1861.55 1541.62 1776.91 1545.06 1560.93 2039.44 1645.56" fill="#b6b6b7"/><path d="M1435.18,1990.02c42.31,8.09,85.58,16.36,129.46,24.68v.06l-.35,4.13,39.43,2392.18-5.75,9.72c-2.88,0-5.79.64-8.71,2.04-44,21.31-83.24,11.35-109.51-1.75-4.03-1.98-8.09-2.56-11.93-1.92l-.77-9.2,1.5-250.45-.61-1.98,33.99-24.39c29.15-20.9,30.8-83.77,2.42-106.94-16.23-13.27-34.25-10.36-34.25-10.36l-34.98-2024.77.08-1.05Z" fill="#c7ccd1"/><path d="M746.38,1853.27l-.54,2.45-56.85,2681.63-1.23,56.99-.12,5.76c-51.9-2.21-84,92.68-47.87,155.38,2.15,3.78,4.53,7.51,7.13,11.24,3.87,5.59,14.35,12.4,30.69,20.26l-.77,3.61-4.56,321.18-.15,1.98c-3.76-.64-7.71-.06-11.62,1.8-44.04,21.31-83.28,11.35-109.51-1.75-2.11-1.05-4.26-1.75-6.37-2.04l.08-1.16s77.37-3312.29,77.37-3515.76c0-248,40.85-279.91,40.85-279.91h4.83c-.23,109.16-.73,336.26-.92,344.12-.84,39.06-1.92,151.19,79.56,194.21Z" fill="#c7ccd1"/><path d="M2757.59,2244.01c-15.51,0-29.28-2.39-39.27-4.82-10.95-2.72-663.99-127.71-1154.25-221.48-.2-.04-.38-.09-.56-.17-45.36-8.61-90.31-17.2-128.9-24.58-342.97-65.59-622.18-118.94-629.61-120.36-22.53-1.92-42.72-7.54-60.02-16.68-35.61-18.8-59.88-52.62-72.15-100.5-10.22-39.9-9.37-79.51-9-96.43.18-7.54.66-218.8.92-344.06.12-34.75.15-57.51.15-57.52,0-1.66,1.35-3,3-3h0c1.66,0,3,1.35,3,3,0,0-.04,22.76-.15,57.52-.26,125.28-.74,336.59-.92,344.18-3.21,148.62,57.88,180.88,77.96,191.48,16.62,8.79,36.1,14.18,57.88,16.02.1,0,.21.02.31.04,0,0,282.13,53.91,629.77,120.39,38.75,7.41,83.9,16.04,129.46,24.68.2.04.39.09.57.17,531.65,101.69,1143.04,218.72,1153.99,221.44,13.73,3.34,34.91,6.61,57.71,3.21,51.13-7.64,112.62-49.75,115.2-206.95l14.16-375.79c.06-1.66,1.45-2.91,3.11-2.88,1.66.06,2.95,1.46,2.88,3.11l-14.15,375.73c-2.65,161.34-66.89,204.74-120.31,212.72-7.14,1.07-14.11,1.5-20.77,1.5Z" fill="#2b2b2b"/><path d="M544.69,5113.61s-.05,0-.07,0c-1.66-.04-2.97-1.41-2.93-3.07.77-33.12,77.37-3314.58,77.37-3515.69,0-246.63,40.29-280.93,42-282.27,1.31-1.02,3.19-.79,4.21.52,1.01,1.3.79,3.16-.49,4.19-.35.3-10.21,9.28-19.94,47.45-9.03,35.44-19.79,104.14-19.79,230.11,0,201.18-76.6,3482.71-77.37,3515.83-.04,1.63-1.37,2.93-3,2.93Z" fill="#2b2b2b"/><path d="M687.77,4597.34s-.04,0-.07,0c-1.66-.04-2.97-1.41-2.93-3.06l1.23-56.99,56.85-2681.63c.03-1.63,1.37-2.94,3-2.94.02,0,.04,0,.06,0,1.66.04,2.97,1.41,2.94,3.06l-56.85,2681.63-1.23,57c-.04,1.63-1.37,2.94-3,2.94Z" fill="#2b2b2b"/><path d="M1470.08,4018.84c-1.63,0-2.97-1.31-3-2.95l-34.98-2024.77c-.03-1.66,1.29-3.02,2.95-3.05h.05c1.63,0,2.97,1.31,3,2.95l34.98,2024.77c.03,1.66-1.29,3.02-2.95,3.05h-.05Z" fill="#2b2b2b"/><path d="M2973.18,1551.72c-11.6,0-21.76-.62-29.92-1.11-5.14-.31-9.58-.58-12.8-.58-.17,0-.33-.01-.49-.04L478.72,1143.05c-.2-.03-.4-.09-.58-.16-17.42-6.69-25.89-16.98-25.89-31.44,0-20.46,15.09-37.39,46.13-51.76l806.15-442.19s.08-.04.12-.07c25.36-12.39,79.89-11.5,109.55-6.09l2418.77,352.29c4.42.12,9.77,3.45,14.37,8.96,3.65,4.38,11.81,16.39,8.71,33.23,0,0,0,0,0,0-2.57,13.76-13.75,33.91-52.43,51.86l-725.98,471c-.09.06-.18.11-.28.16-37.61,19.04-75.32,22.86-104.17,22.86ZM2930.71,1544.03c3.38.01,7.81.28,12.92.59,27.84,1.69,79.63,4.84,130.86-21.04l726.03-471.03c.12-.08.24-.15.37-.21,36.5-16.89,46.93-35.2,49.25-47.59h0c2.63-14.35-4.31-24.58-7.42-28.31-3.89-4.68-7.91-6.8-10-6.8-.14,0-.29-.01-.43-.03l-2419.01-352.32s-.07-.01-.11-.02c-33.18-6.07-83.6-5.29-105.83,5.54l-806.18,442.21c-.06.03-.12.06-.18.09-28.76,13.29-42.74,28.46-42.74,46.35,0,11.78,6.92,19.96,21.76,25.73l2450.7,406.84ZM3853.09,1005.29h0,0Z" fill="#2b2b2b"/><path d="M2954.93,1660.98c-1.32,0-2.61,0-3.87-.02-25.69-.28-40.34-3.71-41.86-4.08l-2241.52-400.45-176.22-31.5c-21.53-3.86-37.76-31.03-37.76-63.21v-58.87c0-1.66,1.34-3,3-3s3,1.34,3,3v58.87c0,29.31,14.11,53.95,32.82,57.3l176.22,31.5,2241.62,400.47c.07.01.14.03.21.04.14.04,14.77,3.64,40.57,3.93,36.67.44,95.99-5.59,170.1-37.08,17.13-7.25,34.38-15.59,51.29-24.79l477.78-260.46,170.84-184.88c.22-.24.48-.44.76-.6,14.9-8.14,24.91-30.03,24.91-54.48,0-.04,0-.09,0-.13l5.81-130.61c.07-1.66,1.51-2.95,3.13-2.86,1.66.07,2.94,1.48,2.86,3.13l-5.81,130.55c-.02,26.32-11.08,50.1-27.59,59.43l-170.85,184.89c-.22.24-.48.44-.77.6l-478.21,260.69c-17.08,9.29-34.52,17.72-51.82,25.04-72.51,30.81-131.15,37.58-168.64,37.58Z" fill="#2b2b2b"/><path d="M2036,1864.55c-.17,0-.34-.01-.51-.04l-494.39-84.63c-1.46-.25-2.52-1.53-2.49-3l3.44-215.98c.01-.88.41-1.7,1.08-2.26.67-.56,1.56-.8,2.42-.65l494.39,84.63c1.46.25,2.52,1.53,2.49,3l-3.44,215.98c-.01.88-.41,1.7-1.08,2.26-.54.45-1.22.69-1.92.69ZM1544.66,1774.39l488.4,83.61,3.34-209.91-488.4-83.61-3.34,209.91Z" fill="#2b2b2b"/><path d="M1631.76,713.09l12.16,29.24c1.09,4.44.1,9.28-2.84,13.85-45.71,70.82-424.22,665.82-453.25,708.97-27.47,40.83-69.67,40.99-78.72,40.52-1.38-.07-2.77-.08-4.18-.02l-831.2,36.78c-13.59.61-21.5-4.68-23.89-13.82l-4.45-16.56c1.88,3.91,7.42,6.18,15.86,5.76l850.05-42.22c16.5-.82,35.68-10.4,42.8-21.38l475.26-732.66c2.02-3.11,2.42-5.89,1.45-8.15l.95-.32Z" fill="#eaeaea"/><path d="M1630.81,713.41c.97,2.25.57,5.03-1.45,8.15l-475.26,732.66c-7.12,10.98-26.31,20.56-42.8,21.38l-850.05,42.22c-8.44.42-13.98-1.85-15.86-5.76l-.68-2.54c-.24-2.73.91-5.98,3.6-9.52l539.64-709.2c6.64-8.72,23.45-16.73,37.6-17.9l786.79-65.29c9.95-.82,16.65,1.55,18.48,5.8ZM1125.14,1417.09l426.81-651.08-746.17,60.13-477.41,632.63,796.78-41.68Z" fill="#fff"/><polygon points="1551.95 766.01 1125.14 1417.09 328.36 1458.77 805.78 826.14 1551.95 766.01" fill="#383838"/><path d="M244.7,1509.51l.68,2.54c-.38-.79-.61-1.63-.68-2.54Z" fill="#fff"/><path d="M259.36,1520.85c-8.33,0-14.35-2.68-16.67-7.5-.54-1.11-.87-2.32-.97-3.59-.32-3.6,1.09-7.5,4.2-11.59l539.64-709.2c7.18-9.44,24.64-17.82,39.74-19.08l786.79-65.29c11.17-.93,19.01,1.84,21.48,7.6.99,2.29,1.5,6.05-1.69,10.96l-475.26,732.66c-7.7,11.88-27.54,21.87-45.17,22.75l-850.05,42.22c-.69.04-1.37.05-2.04.05ZM1616.09,710.44c-1.1,0-2.27.05-3.52.15l-786.79,65.29c-13.15,1.09-29.39,8.75-35.46,16.73L250.69,1501.81c-2.11,2.78-3.18,5.42-3,7.44.05.55.18,1.05.4,1.5,1.37,2.84,6.37,4.4,13.01,4.06l850.05-42.22c15.38-.77,33.89-9.93,40.43-20.02l475.26-732.66c.96-1.48,1.95-3.61,1.21-5.32h0c-.94-2.2-4.96-4.15-11.96-4.15Z" fill="#2b2b2b"/><path d="M324.71,1460.71l2.26-3,477.88-633.26.78-.06,749.74-60.42-1.96,2.99-427.29,651.82-.89.05-800.53,41.88ZM806.7,827.82l-474.68,629.01,792.14-41.44,424.36-647.35-741.82,59.78Z" fill="#2b2b2b"/><path d="M271.62,1545.48c-17.75,0-23.08-9.99-24.68-16.11l-5.35-19.91,5.79-1.57,5.36,19.94c2.68,10.24,12.81,11.97,20.86,11.6l831.2-36.78c1.47-.07,2.98-.06,4.47.02,8.03.41,49.38.48,76.07-39.2,18.11-26.91,172.76-269.44,297.02-464.31,74.6-116.98,139.02-218.01,156.19-244.62,2.45-3.81,3.32-7.71,2.5-11.3l-12.16-29.23,5.55-2.28.08.2,12.25,29.44.06.22c1.29,5.21.14,10.96-3.24,16.2-17.16,26.59-81.58,127.62-156.18,244.59-124.28,194.9-278.96,437.46-297.1,464.43-28.5,42.37-72.79,42.29-81.37,41.84-1.31-.07-2.61-.08-3.89-.02l-831.2,36.78c-.77.03-1.52.05-2.24.05Z" fill="#2b2b2b"/><path d="M250.01,1728.34c-63.12-61.15-100.29-141.56-104.66-226.4-4.38-85.01,24.66-164.29,81.78-223.25l8.62,8.35c-113.19,116.83-103.05,310.93,22.61,432.68l-8.35,8.62Z" fill="#383838"/><path d="M166.72,1709.58c-54.75-53.05-88.35-121.44-94.59-192.57-6.27-71.46,15.77-137.13,62.07-184.91l8.62,8.35c-43.84,45.25-64.7,107.58-58.74,175.51,5.99,68.26,38.3,133.96,90.99,185l-8.35,8.62Z" fill="#383838"/><path d="M746.77,639.33l-107.81,108.88-192.38-192.38-192.38,192.38-108.88-108.88,192.38-192.38-192.38-192.38,108.88-108.88,192.38,192.38,192.38-192.38,107.81,108.88-192.38,192.38,192.38,192.38Z" fill="#dd3131"/><path d="M638.97,752.46l-192.39-192.39-192.38,192.38-113.12-113.12,192.38-192.38-192.38-192.38,113.12-113.12,192.38,192.38,192.39-192.39,112.03,113.14-192.37,192.36,192.37,192.36-112.03,113.14ZM149.58,639.33l104.63,104.63,192.38-192.38,192.36,192.36,103.59-104.61-192.38-192.39,192.38-192.39-103.59-104.61-192.36,192.36-192.38-192.38-104.63,104.63,192.38,192.38-192.38,192.38Z" fill="#2b2b2b"/></svg>