<?xml version="1.0" encoding="UTF-8"?><svg id="_レイヤー_6" xmlns="http://www.w3.org/2000/svg" width="600" height="800" viewBox="0 0 600 800"><path d="M127.24,205.91h-6c0-28.57,5.72-52.32,16.53-68.67,10.25-15.5,24.47-23.95,41.14-24.43h242.08c18.92,0,33.75,8.1,44.07,24.07,9.43,14.6,13.01,32.81,14.35,45.52l-5.97.63c-2.53-23.98-12.7-64.22-52.45-64.22h-242c-14.54.42-27.1,7.94-36.22,21.74-10.16,15.37-15.53,37.97-15.53,65.36Z" fill="#2b2b2b"/><path d="M126.89,272.53h-6v-81.37c0-26.51,15.31-41.11,43.11-41.11h277c23.53,0,38.11,6.38,38.11,38.11v83.27h-6v-83.27c0-27.14-10.81-32.11-32.11-32.11H164c-16.93,0-37.11,6.09-37.11,35.11v81.37Z" fill="#2b2b2b"/><path d="M459.69,687.19H140.31c-10.71,0-19.41-8.71-19.41-19.41v-24.49h6v24.49c0,7.4,6.02,13.41,13.41,13.41h319.39c7.4,0,13.41-6.02,13.41-13.41v-23.15h6v23.15c0,10.71-8.71,19.41-19.41,19.41Z" fill="#2b2b2b"/><path d="M471.61,649.54H128.39c-7.16,0-12.98-5.82-12.98-12.98v-353.21c0-7.16,5.82-12.98,12.98-12.98h343.21c7.16,0,12.98,5.82,12.98,12.98v353.21c0,7.16-5.82,12.98-12.98,12.98ZM128.39,276.38c-3.85,0-6.98,3.13-6.98,6.98v353.21c0,3.85,3.13,6.98,6.98,6.98h343.21c3.85,0,6.98-3.13,6.98-6.98v-353.21c0-3.85-3.13-6.98-6.98-6.98H128.39Z" fill="#2b2b2b"/><path d="M386.62,650.22h-173.23v-377.54h173.23v377.54ZM216.88,646.72h166.23v-370.54h-166.23v370.54Z" fill="#2b2b2b"/></svg>