<?xml version="1.0" encoding="UTF-8"?><svg id="_レイヤー_17" xmlns="http://www.w3.org/2000/svg" width="1000" height="1414" viewBox="0 0 1000 1414"><path d="M946.75,1372.89H34.13c-1.66,0-3-1.34-3-3V136.29c0-1.66,1.34-3,3-3h356.87c1.66,0,3,1.34,3,3s-1.34,3-3,3H37.13v1227.6h906.62V139.29h-354.43c-1.66,0-3-1.34-3-3s1.34-3,3-3h357.43c1.66,0,3,1.34,3,3v1233.6c0,1.66-1.34,3-3,3Z" fill="#2b2b2b"/><path d="M541.65,200.08c-1.36,0-2.6-.94-2.92-2.32-1.57-6.78-3.87-16.13-6.54-26.97-3.76-15.29-8.02-32.63-11.97-49.72-4.15-17.93-7.88-27.42-9.88-32.52-1.65-4.19-2.4-6.11-1.47-8.18.5-1.13,1.39-1.79,2.1-2.17,1.5-2.07,2.83-3.94,4.08-5.71,3.93-5.54,7.04-9.91,12.13-15.9,4.01-4.72,3.87-11.69-.32-16.22-.22-.24-.46-.49-.72-.72-6.96-6.38-18.66-10.87-32.12-12.33-3.12-.34-6.35-.51-9.6-.51-18.07,0-34.99,5.58-43.11,14.22-3.95,4.2-4.4,10.69-1.08,15.41,5.77,8.21,10.46,13.6,18.02,21.66,3.88,1.83,2.92,5.56,1.26,12.04-1.43,5.57-3.82,14.88-6.45,30.73-2.67,16.06-5.6,32.56-7.96,45.82-2.78,15.6-4.97,27.93-5.13,30.57-.1,1.65-1.53,2.91-3.18,2.81-1.65-.1-2.91-1.53-2.81-3.18.18-2.99,2.19-14.23,5.21-31.26,2.36-13.24,5.29-29.72,7.95-45.75,2.67-16.1,5.1-25.58,6.55-31.24.57-2.24,1.12-4.37,1.27-5.46-.24-.14-.46-.32-.65-.52-8.01-8.53-12.9-14.11-18.99-22.78-4.95-7.04-4.27-16.7,1.62-22.97,9.35-9.94,27.54-16.12,47.49-16.12,3.46,0,6.91.18,10.24.55,14.7,1.6,27.64,6.65,35.51,13.86.37.33.73.7,1.07,1.07,6.26,6.77,6.47,17.16.5,24.19-4.92,5.79-7.96,10.07-11.81,15.49-1.39,1.96-2.88,4.06-4.59,6.41-.19.26-.41.48-.67.67.27.83.76,2.08,1.24,3.31,2.06,5.25,5.89,15.01,10.14,33.36,3.94,17.04,8.2,34.36,11.95,49.63,2.67,10.86,4.98,20.23,6.56,27.04.37,1.61-.63,3.23-2.24,3.6-.23.05-.46.08-.68.08Z" fill="#2b2b2b"/><path d="M531.97,209.72c-1.61,0-2.94-1.27-3-2.89,0-.15-.06-.68-.42-2.5-1.33-6.49-5.46-22.21-10.24-40.42-2.81-10.72-6-22.87-9.07-34.85l-2.06-8.1c-4.27-16.91-8.11-23.5-10.66-27.86-2.01-3.44-3.46-5.93-3.23-10.57.1-1.95.72-3.86,1.81-5.51,4.62-7.04,7.77-10.63,14.04-17.77l1.28-1.47c2.18-2.49,3.39-6.55.9-9.6-4.25-5.2-10.31-8.19-18.54-9.15-1.91-.23-3.95-.34-6.06-.34-6.64,0-13.14.75-18.28,2.12-6.01,1.6-10.26,4.01-12.27,6.97-2.31,3.4-1.99,7.14.84,9.77,2.08,1.95,3.92,3.58,5.69,5.16,4.87,4.34,8.71,7.76,12.6,13.28,1.45,2.06,2.21,4.5,2.18,7.05-.05,4.51-1.18,6.87-2.74,10.14-2.02,4.23-5.07,10.63-8.41,27.63-.28,1.46-.57,2.94-.87,4.42l-.32,1.63c-2.34,11.82-4.78,23.93-6.94,34.61-3.97,19.64-7.39,36.59-8.41,43.11-.24,1.52-.28,2.07-.29,2.23-.07,1.66-1.44,2.94-3.12,2.88-1.66-.07-2.94-1.46-2.88-3.12.02-.61.14-1.53.35-2.91,1.03-6.64,4.31-22.85,8.45-43.37,2.16-10.67,4.6-22.77,6.94-34.59l.32-1.63c.29-1.47.58-2.93.86-4.4,3.48-17.75,6.73-24.56,8.89-29.07,1.41-2.95,2.12-4.43,2.15-7.62.01-1.28-.36-2.5-1.08-3.53-3.49-4.95-6.93-8.01-11.69-12.25-1.71-1.53-3.66-3.26-5.79-5.25-5-4.65-5.69-11.7-1.71-17.53,2.87-4.23,8.15-7.4,15.69-9.4,7.22-1.92,14.76-2.32,19.82-2.32,2.34,0,4.62.13,6.76.38,9.7,1.13,17.27,4.94,22.48,11.31,4.03,4.93,3.61,12.06-1.03,17.35l-1.29,1.48c-6.28,7.15-9.14,10.41-13.53,17.1-.5.76-.79,1.63-.83,2.51-.14,2.86.61,4.15,2.42,7.26,2.55,4.37,6.81,11.68,11.29,29.4l2.06,8.09c3.07,11.96,6.25,24.1,9.07,34.81,5,19.04,8.95,34.09,10.32,40.76.36,1.81.5,2.77.53,3.46.06,1.66-1.23,3.05-2.89,3.11-.04,0-.08,0-.11,0Z" fill="#2b2b2b"/><path d="M510.01,123.24h-46.58c-1.66,0-3-1.34-3-3s1.34-3,3-3h46.58c1.66,0,3,1.34,3,3s-1.34,3-3,3Z" fill="#2b2b2b"/><path d="M588.49,225.17h-48.7c-.69,0-1.33-.23-1.84-.63-2.07-.66-3.81-2.18-4.74-4.22l-3.88-8.63c-.56-1.24-.89-2.57-.97-3.93-.03-.32-.04-.71-.02-1.09l.05-1.68-5.39.47c-2.4.63-4.9,2.95-6.14,5.72-.26.58-.46,1.17-.57,1.72l1.1,5.15c.36,1.67-.05,3.41-1.12,4.75-1.08,1.34-2.68,2.12-4.4,2.13l-45.16.23h-.03c-1.72,0-3.32-.76-4.41-2.1-1.09-1.34-1.51-3.09-1.15-4.78l1.09-5.11c-.19-.88-.55-1.8-1.07-2.7-1.36-2.36-3.56-4.21-5.63-4.75l-5.41-.47.05,1.72c.01.19.01.46,0,.74h0c-.06,1.49-.4,2.96-1,4.27l-3.87,8.61c-1.27,2.79-4.05,4.59-7.11,4.59h-45.76c-1.66,0-3-1.34-3-3v-90.46c0-7.98,6.49-14.47,14.46-14.47h45.06c1.66,0,3,1.34,3,3s-1.34,3-3,3h-45.06c-4.67,0-8.46,3.8-8.46,8.47v87.46h42.76c.7,0,1.35-.42,1.64-1.06l3.88-8.62c.28-.61.44-1.29.47-1.98,0-.03,0-.06,0-.09,0-.07,0-.13,0-.2l-.07-2.5c-.02-.37,0-.73.07-1.09.46-2.73,2.94-4.68,5.73-4.43l6.37.55c.14.01.27.03.4.06,3.74.85,7.45,3.78,9.69,7.66.99,1.73,1.64,3.57,1.89,5.33.05.35.04.7-.04,1.04l-1.13,5.3,44.38-.23-1.14-5.35c-.07-.34-.09-.69-.04-1.04.18-1.26.55-2.54,1.12-3.81,2.05-4.59,6.15-8.19,10.46-9.17.13-.03.27-.05.41-.06l6.37-.55c2.67-.25,5.12,1.57,5.68,4.22.1.53.12.94.1,1.33l-.07,2.37c0,.18,0,.34.01.49.04.68.19,1.3.45,1.88l3.88,8.62c.29.64.94,1.06,1.64,1.06.43,0,.85.09,1.22.26h43.95v-87.46c0-4.67-3.8-8.47-8.46-8.47h-53.23c-1.66,0-3-1.34-3-3s1.34-3,3-3h53.23c7.97,0,14.46,6.49,14.46,14.47v90.46c0,1.66-1.34,3-3,3ZM529.15,204.92h0s0,0,0,0ZM528.4,204.23h0s0,0,0,0Z" fill="#2b2b2b"/><path d="M446.57,209.32c-.45,0-.91-.18-1.25-.52l-9.72-9.92h-40.93c-.97,0-1.75-.78-1.75-1.75s.78-1.75,1.75-1.75h41.67c.47,0,.93.19,1.26.53l.28.29,9.94,10.14c.68.69.67,1.8-.02,2.47-.34.33-.78.5-1.23.5Z" fill="#2b2b2b"/><path d="M531.58,209.32c-.46,0-.92-.18-1.27-.54-.67-.7-.64-1.81.06-2.47l11.69-11.17c.33-.31.76-.49,1.21-.49h41.67c.97,0,1.75.78,1.75,1.75s-.78,1.75-1.75,1.75h-40.97l-11.18,10.69c-.34.32-.77.48-1.21.48Z" fill="#2b2b2b"/><path d="M511.16,210.41c-.47,0-.93-.19-1.28-.55l-6.31-6.73h-28.57l-6.53,6.75c-.67.69-1.78.71-2.47.04s-.71-1.78-.04-2.47l7.05-7.28c.33-.34.78-.53,1.26-.53h30.07c.48,0,.95.2,1.28.55l6.83,7.28c.66.7.63,1.81-.08,2.47-.34.32-.77.47-1.2.47Z" fill="#2b2b2b"/><path d="M579.82,130.28h-54.57c-.97,0-1.75-.78-1.75-1.75s.78-1.75,1.75-1.75h54.57c.97,0,1.75.78,1.75,1.75s-.78,1.75-1.75,1.75Z" fill="#2b2b2b"/><path d="M511.33,130.28h-48.97c-.92,0-1.69-.71-1.75-1.63l-.2-3c-.06-.96.67-1.8,1.63-1.86.96-.06,1.8.67,1.86,1.63l.09,1.37h47.33c.97,0,1.75.78,1.75,1.75s-.78,1.75-1.75,1.75Z" fill="#2b2b2b"/><path d="M447.1,130.28h-46.82c-.97,0-1.75-.78-1.75-1.75s.78-1.75,1.75-1.75h46.82c.97,0,1.75.78,1.75,1.75s-.78,1.75-1.75,1.75Z" fill="#2b2b2b"/><path d="M957.5,1373.58H54.85c-.97,0-1.75-.78-1.75-1.75s.78-1.75,1.75-1.75h900.9V139.98h-9.9c-.97,0-1.75-.78-1.75-1.75s.78-1.75,1.75-1.75h11.65c.97,0,1.75.78,1.75,1.75v1233.6c0,.97-.78,1.75-1.75,1.75Z" fill="#2b2b2b"/><path d="M965.87,1381.94H53.25c-.97,0-1.75-.78-1.75-1.75v-10.05c0-.97.78-1.75,1.75-1.75s1.75.78,1.75,1.75v8.3h909.12V148.35h-6.82c-.97,0-1.75-.78-1.75-1.75s.78-1.75,1.75-1.75h8.57c.97,0,1.75.78,1.75,1.75v1233.59c0,.97-.78,1.75-1.75,1.75Z" fill="#2b2b2b"/></svg>