<?xml version="1.0" encoding="UTF-8"?><svg id="_レイヤー_39" xmlns="http://www.w3.org/2000/svg" width="1000" height="1000" viewBox="0 0 1000 1000"><path d="M906.75,98.47h-65.29c-1.66,0-3-1.34-3-3s1.34-3,3-3h65.29c1.66,0,3,1.34,3,3s-1.34,3-3,3Z" fill="#2b2b2b"/><rect x="806.21" y="92.47" width="24.29" height="6" fill="#2b2b2b"/><path d="M906.75,941.09H74.13c-1.66,0-3-1.34-3-3V95.47c0-1.66,1.34-3,3-3h723.02v6H77.13v836.62h826.62V95.47h6v842.62c0,1.66-1.34,3-3,3Z" fill="#2b2b2b"/><path d="M917.5,941.78H94.85c-.97,0-1.75-.78-1.75-1.75s.78-1.75,1.75-1.75h820.9V99.16h-9.9c-.97,0-1.75-.78-1.75-1.75s.78-1.75,1.75-1.75h11.65c.97,0,1.75.78,1.75,1.75v842.62c0,.97-.78,1.75-1.75,1.75Z" fill="#2b2b2b"/><path d="M925.87,950.14H93.25c-.97,0-1.75-.78-1.75-1.75v-10.06c0-.97.78-1.75,1.75-1.75s1.75.78,1.75,1.75v8.31h829.12V107.53h-6.82c-.97,0-1.75-.78-1.75-1.75s.78-1.75,1.75-1.75h8.57c.97,0,1.75.78,1.75,1.75v842.61c0,.97-.78,1.75-1.75,1.75Z" fill="#2b2b2b"/><path d="M798.69,198.54c-2.2,0-4.44-.26-6.65-.78-5.39-1.27-10.22-4-13.6-7.69-3.74-4.08-5.26-9.07-4.17-13.69l20.61-77.63-9.14-1.25,6.66-28.23c2.56-10.86,6.3-15.71,13.81-17.91l.71-.2c11.64-3.4,25.76.13,34.35,8.56,2.74,2.69,4.23,5.36,4.85,8.64.64,3.35.32,7.5-.99,13.07l-26.5,104.77c-1.11,4.69-4.8,8.51-10.11,10.46l-1.15.43c-2.68.98-5.64,1.47-8.68,1.47ZM804.7,81.17c-.49,0-.94.11-1.29.33-.19.12-.42.31-.49.6l-25.25,95.14c-.8,3.43.42,7.26,3.36,10.48,2.91,3.18,7.1,5.54,11.82,6.65,4.6,1.09,9.33.88,13.32-.57l1.15-.43c4.2-1.54,7.08-4.45,7.93-8l26.5-104.76c1.19-5.04,1.49-8.73.95-11.58-.49-2.58-1.64-4.61-3.87-6.8-7.72-7.59-20.44-10.75-30.92-7.7l-.71.2c-6.23,1.82-9.1,5.69-11.38,15.35l-5.78,24.49,4.6.63,5.68-24.06c2.33-9.89,5.09-12.44,9.39-13.71l.71-.2c8.41-2.45,18.64.09,24.86,6.19,2.96,2.92,4.23,6.5,1.96,16.16l-26.5,104.76c-.68,2.88-2.95,5.24-6.23,6.44l-1.15.43c-6.18,2.26-14.18.33-18.61-4.5-2.3-2.52-3.24-5.59-2.56-8.44l25.25-95.14c.06-.24-.07-.53-.18-.71-.33-.53-.98-.95-1.75-1.13-.27-.06-.54-.09-.79-.09ZM804.7,77.67c.53,0,1.06.06,1.59.19,1.67.39,3.1,1.37,3.92,2.69.66,1.06.87,2.27.6,3.41l-25.25,95.14c-.39,1.65.24,3.57,1.75,5.22,3.52,3.84,9.89,5.38,14.82,3.58l1.15-.43c2.16-.79,3.62-2.24,4.03-3.98l26.5-104.76c2.26-9.6.45-11.39-1.01-12.83-5.35-5.25-14.17-7.44-21.43-5.33l-.71.2c-2.28.67-4.66,1.37-6.96,11.15l-1.47,6.25c.75-.33,1.6-.5,2.46-.5Z" fill="#2b2b2b"/><path d="M852.73,97.52l-11.86-.54,2.47-9.74c.26-1.11.99-2.1,2.05-2.75,1.33-.82,3.05-1.06,4.73-.66,3.12.74,5.15,3.48,4.53,6.11l-1.91,7.59ZM845.31,93.68l4.72.22,1.21-4.79c.15-.62-.65-1.56-1.94-1.87-.77-.18-1.55-.1-2.08.23-.19.12-.42.31-.49.61l-1.42,5.61Z" fill="#2b2b2b"/></svg>