<?xml version="1.0" encoding="UTF-8"?><svg id="_レイヤー_11" xmlns="http://www.w3.org/2000/svg" width="2000" height="2000" viewBox="0 0 2000 2000"><path d="M1775.21,2037.19c-.19,0-.38-.02-.57-.05-69.17-13.24-138.41-26.48-206.25-39.46-.19-.04-.38-.09-.56-.16-45.25-8.58-90.25-17.19-128.9-24.58-342.95-65.59-622.14-118.94-629.61-120.36-22.53-1.92-42.73-7.54-60.03-16.68-35.61-18.8-59.88-52.62-72.15-100.5-10.22-39.9-9.37-79.52-9-96.43.09-3.7.26-53.57.46-133.41,0-1.65,1.35-2.99,3-2.99h0c1.66,0,3,1.35,2.99,3.01-.2,81.08-.37,129.75-.46,133.54-2.13,98.62,24.1,163.04,77.96,191.48,16.62,8.79,36.1,14.18,57.89,16.02.1,0,.21.02.31.04,0,0,282.12,53.91,629.77,120.39,38.81,7.42,84.02,16.06,129.46,24.68.2.04.39.09.57.17,67.67,12.94,136.71,26.15,205.69,39.35,1.63.31,2.69,1.88,2.38,3.51-.27,1.44-1.53,2.44-2.94,2.44Z" fill="#2b2b2b"/><path d="M617.77,2048.72s-.04,0-.06,0c-1.66-.03-2.97-1.41-2.94-3.06,5.71-273.33,8.61-431.75,8.61-470.85,0-23.9.39-46.85,1.15-68.2.06-1.66,1.45-2.97,3.1-2.89,1.66.06,2.95,1.45,2.89,3.1-.76,21.29-1.14,44.16-1.14,67.99,0,39.14-2.9,197.6-8.61,470.97-.03,1.64-1.37,2.94-3,2.94Z" fill="#2b2b2b"/><path d="M745.56,2056.02s-.04,0-.06,0c-1.66-.04-2.97-1.41-2.94-3.06l4.61-217.34c.04-1.66,1.39-2.96,3.06-2.94,1.66.04,2.97,1.41,2.94,3.06l-4.61,217.34c-.03,1.63-1.37,2.94-3,2.94Z" fill="#2b2b2b"/><path d="M1570.09,2091.8c-1.63,0-2.97-1.31-3-2.95l-1.48-89.94c-.03-1.66,1.29-3.02,2.95-3.05.02,0,.03,0,.05,0,1.63,0,2.97,1.31,3,2.95l1.48,89.94c.03,1.66-1.29,3.02-2.95,3.05-.02,0-.03,0-.05,0Z" fill="#2b2b2b"/><path d="M1441.08,2070.05c-1.63,0-2.97-1.31-3-2.95l-1.66-96.01c-.03-1.66,1.29-3.02,2.95-3.05.02,0,.04,0,.05,0,1.63,0,2.97,1.31,3,2.95l1.66,96.01c.03,1.66-1.29,3.02-2.95,3.05-.02,0-.04,0-.05,0Z" fill="#2b2b2b"/><path d="M517.94,1128.77c-.16,0-.33-.01-.5-.04l-34.4-5.71c-.2-.03-.4-.09-.58-.16-17.42-6.69-25.89-16.98-25.89-31.44,0-20.46,15.09-37.39,46.13-51.76l132.94-72.92c1.45-.8,3.28-.26,4.07,1.19.8,1.45.27,3.28-1.19,4.07l-133.03,72.97c-.06.03-.12.06-.18.09-28.76,13.29-42.74,28.46-42.74,46.35,0,11.78,6.92,19.96,21.76,25.73l34.1,5.66c1.63.27,2.74,1.82,2.47,3.45-.24,1.47-1.52,2.51-2.96,2.51Z" fill="#2b2b2b"/><path d="M2113.36,1393.63c-.16,0-.33-.01-.5-.04l-801.49-133.06c-1.63-.27-2.74-1.82-2.47-3.45.27-1.64,1.82-2.74,3.45-2.47l801.49,133.06c1.63.27,2.74,1.82,2.47,3.45-.24,1.47-1.52,2.51-2.96,2.51Z" fill="#2b2b2b"/><path d="M1066.18,737c-1.06,0-2.09-.56-2.63-1.56-.8-1.45-.27-3.28,1.19-4.07l244.11-133.9s.08-.04.12-.06c25.36-12.39,79.89-11.5,109.55-6.09l672.2,97.9c1.64.24,2.77,1.76,2.54,3.4-.24,1.64-1.77,2.77-3.4,2.54l-672.25-97.91s-.07-.01-.11-.02c-33.19-6.07-83.6-5.29-105.83,5.54l-244.05,133.87c-.46.25-.95.37-1.44.37Z" fill="#2b2b2b"/><path d="M2092.49,1490.11c-.18,0-.35-.02-.53-.05l-833.79-148.96c-1.63-.29-2.72-1.85-2.43-3.48.29-1.63,1.86-2.72,3.48-2.43l833.79,148.96c1.63.29,2.72,1.85,2.43,3.48-.26,1.45-1.52,2.47-2.95,2.47Z" fill="#2b2b2b"/><path d="M471.11,1185c-1.03,0-2.03-.53-2.59-1.48-6.77-11.56-10.5-26.42-10.5-41.84v-58.86c0-1.66,1.34-3,3-3s3,1.34,3,3v58.86c0,14.37,3.44,28.15,9.68,38.81.84,1.43.36,3.27-1.07,4.1-.48.28-1,.41-1.51.41Z" fill="#2b2b2b"/><path d="M2040.32,1844.51c-.17,0-.34-.01-.51-.04l-494.39-84.63c-1.46-.25-2.52-1.53-2.49-3l3.44-215.98c.01-.88.41-1.7,1.08-2.26.67-.56,1.56-.8,2.42-.65l494.39,84.63c1.46.25,2.52,1.53,2.49,3l-3.44,215.98c-.01.88-.41,1.7-1.08,2.26-.54.45-1.22.69-1.92.69ZM1548.98,1754.35l488.4,83.61,3.34-209.91-488.4-83.61-3.34,209.91Z" fill="#2b2b2b"/><path d="M263.66,1500.82c-8.33,0-14.35-2.69-16.67-7.52l4.41-2.12-4.43,2.08c-.52-1.1-.83-2.28-.94-3.49-.33-3.56,1.12-7.58,4.2-11.63l539.64-709.2c7.19-9.44,24.64-17.82,39.74-19.07l786.79-65.29c11.17-.93,19.01,1.84,21.49,7.6.99,2.29,1.5,6.06-1.69,10.97l-475.26,732.66c-7.71,11.88-27.55,21.87-45.17,22.74l-850.05,42.22c-.7.04-1.38.05-2.05.05ZM252.4,1490.7c1.37,2.84,6.37,4.4,13.01,4.07l850.05-42.22c15.37-.76,33.89-9.93,40.44-20.01l475.26-732.66c.96-1.48,1.95-3.61,1.21-5.33-1.09-2.54-6.3-4.76-15.48-4l-786.79,65.29c-13.15,1.09-29.39,8.75-35.46,16.73L255.01,1481.77c-2.12,2.79-3.18,5.44-3,7.46.05.52.18,1.01.39,1.47h0Z" fill="#2b2b2b"/><path d="M329.03,1440.68l480.15-636.26.78-.06,749.74-60.41-1.96,2.99-427.29,651.82-801.41,41.93ZM811.02,807.78l-474.67,629.01,792.14-41.44,424.36-647.35-741.83,59.77Z" fill="#2b2b2b"/><path d="M275.94,1525.44c-17.75,0-23.08-9.99-24.68-16.11l-5.36-19.91,5.79-1.57,5.37,19.94c2.68,10.25,12.82,11.96,20.86,11.6l831.2-36.78c1.44-.06,2.9-.06,4.46.02,8.02.42,49.39.49,76.08-39.2,18.11-26.93,172.89-269.65,297.26-464.69,74.48-116.79,138.8-217.66,155.95-244.24,2.46-3.81,3.32-7.71,2.5-11.29l-12.14-29.21,5.54-2.3,12.38,29.86c1.29,5.22.15,10.97-3.23,16.2-17.14,26.56-81.46,127.43-155.93,244.21-124.39,195.06-279.19,437.82-297.34,464.81-28.5,42.37-72.78,42.29-81.37,41.84-1.37-.07-2.64-.07-3.89-.02l-831.2,36.78c-.77.03-1.52.05-2.24.05Z" fill="#2b2b2b"/><path d="M254.33,1708.3c-63.12-61.15-100.29-141.56-104.66-226.4-4.38-85.01,24.66-164.29,81.78-223.25l8.62,8.35c-54.78,56.54-82.63,132.64-78.42,214.28,4.22,81.8,40.1,159.37,101.03,218.4l-8.35,8.62Z" fill="#383838"/><path d="M171.04,1689.54c-54.75-53.05-88.35-121.44-94.59-192.57-6.27-71.46,15.77-137.13,62.07-184.91l8.62,8.35c-90.74,93.65-76.27,255.38,32.25,360.52l-8.35,8.62Z" fill="#383838"/><path d="M643.29,732.42l-192.39-192.39-192.38,192.38-113.12-113.12,192.38-192.38-192.38-192.38,113.12-113.12,192.38,192.38,192.39-192.39,112.03,113.14-192.37,192.36,192.37,192.36-112.03,113.14ZM153.9,619.3l104.63,104.63,192.38-192.38,192.36,192.36,103.59-104.61-192.38-192.39,192.38-192.39-103.59-104.61-192.36,192.36-192.38-192.38-104.63,104.63,192.38,192.38-192.38,192.38Z" fill="#2b2b2b"/></svg>