<?xml version="1.0" encoding="UTF-8"?><svg id="_レイヤー_12" xmlns="http://www.w3.org/2000/svg" width="800" height="1000" viewBox="0 0 800 1000"><path d="M89.74,872.64c-9.65,0-17.47-2.69-21.74-5.16-3.13-1.8-5.06-5.18-5.03-8.82l1.24-37.4c.03-3.57,2.05-6.73,5.28-8.17,2.25-1,4.79-1.04,7.17-.11,10.25,4.03,19.28,2.55,25.04.6,1.22-.42,2.49-.57,3.79-.45h0c4.85.44,8.73,4.5,9.02,9.43l2.09,36.54c.23,3.91-1.85,7.41-5.29,8.93-7.66,3.38-15.02,4.61-21.56,4.61ZM73.16,818.31c-.51,0-.93.12-1.24.26-1.07.48-1.71,1.53-1.72,2.81l-1.24,37.4c-.01,1.38.78,2.78,2.03,3.5,6.19,3.58,21.12,7.65,37.88.26,1.13-.5,1.8-1.71,1.72-3.09l-2.09-36.54c-.13-2.19-1.92-3.65-3.57-3.8-.45-.04-.89.01-1.31.16-6.72,2.27-17.23,4-29.17-.69-.47-.19-.91-.26-1.29-.26Z" fill="#2b2b2b"/><path d="M429.14,567.18c-5.6,0-11.17-.35-16.66-1.06-.08-.01-.15-.02-.23-.04l-301.09-62.93c-7.37-1.26-15.86-3.94-16.38-13.42-.36-6.64,3.41-12.91,9.61-15.97l141.29-69.7c10-5.62,26.46-11.03,42.8-9.42.05,0,.09,0,.14.02l332.58,48.65c7.04,1.08,11.17,3.24,13.81,7.21,2.09,3.15,2.77,6.96,1.91,10.72-.89,3.89-3.38,7.29-6.82,9.33l-134.44,79.42c-19.85,11.2-43.37,17.19-66.51,17.19ZM413.37,560.18c26.93,3.45,55.82-2.15,79.29-15.39l134.39-79.39c2.03-1.2,3.5-3.21,4.03-5.5.49-2.14.12-4.29-1.06-6.06-1.63-2.46-4.45-3.79-9.7-4.6l-332.49-48.64c-14.98-1.45-30.51,3.79-39.27,8.73-.05.03-.1.05-.15.08l-141.36,69.74c-4.04,1.99-6.5,6.02-6.27,10.26.16,2.87,1.19,6.09,11.45,7.84.04,0,.07.01.11.02l301.03,62.91Z" fill="#2b2b2b"/><path d="M434.33,586.34c-7.83,0-14.22-.61-18.29-1.32l-299.82-59.76c-16.16-2.81-24.98-18.19-21.89-38.27.25-1.64,1.79-2.76,3.42-2.51,1.64.25,2.76,1.78,2.51,3.42-1.97,12.8,1.31,28.72,17.06,31.45l299.82,59.76c19.72,3.43,61.64.99,89.85-20.19,3.13-2.35,109.94-73.23,123.79-82.41l.37-20.08c.03-1.64,1.37-2.95,3-2.95.02,0,.04,0,.06,0,1.66.03,2.98,1.4,2.94,3.05l-.4,21.66c-.02.99-.52,1.9-1.34,2.44-42.06,27.9-122.27,81.18-124.82,83.08-24.34,18.28-55.38,22.61-76.26,22.61Z" fill="#2b2b2b"/><path d="M649.26,251.21c-1.48,0-2.96-.09-4.44-.28-.02,0-.03,0-.05,0l-326.24-46.61c-6.72-.85-12.7-4.3-16.78-9.7-4.09-5.41-5.79-12.11-4.8-18.9l4.04-84.14c0-.1.02-.2.03-.31,4.61-30.5,33.64-52.67,64.69-49.47l261.05,27.08c34.06,3.53,59.66,32.82,57.07,65.29l-6.51,95.17c-.48,6.04-3.31,11.3-8.19,15.27-5.23,4.25-12.43,6.6-19.87,6.6ZM645.6,244.98c7.35.93,14.73-.95,19.75-5.03,3.58-2.91,5.65-6.73,5.99-11.06l6.51-95.17c2.33-29.28-20.87-55.68-51.71-58.88l-261.05-27.08c-27.87-2.91-53.9,16.95-58.12,44.25l-4.04,84.14c0,.1-.02.2-.03.31-.79,5.23.5,10.39,3.63,14.54,3.1,4.1,7.64,6.72,12.8,7.38l326.26,46.61Z" fill="#2b2b2b"/><path d="M291.87,399.54c-1.03,0-2.03-.53-2.59-1.48-.84-1.43-.36-3.27,1.07-4.11,10.11-5.93,13.04-26.32,13.31-33.67l8.52-157.79c.09-1.65,1.48-2.92,3.16-2.83,1.65.09,2.92,1.5,2.83,3.16l-8.51,157.74c-.04,1.16-1.28,29.78-16.27,38.57-.48.28-1,.41-1.52.41Z" fill="#2b2b2b"/><path d="M318.16,403.72c-1.62,0-2.95-1.29-3-2.92-.05-1.66,1.26-3.04,2.91-3.08,4.54-.13,8.8-17.75,9.79-33.49l5.82-159.91c.06-1.66,1.44-2.93,3.11-2.89,1.66.06,2.95,1.45,2.89,3.11l-5.83,159.98c-.57,9.16-3.37,38.84-15.61,39.19-.03,0-.06,0-.09,0Z" fill="#2b2b2b"/><path d="M632.52,455.19c-.88,0-1.76-.39-2.35-1.14-1.03-1.3-.81-3.19.49-4.21,10.83-8.58,9.97-28.25,9.96-28.45,0-.1,0-.21,0-.31l8.93-172.45c.09-1.66,1.51-2.93,3.15-2.84,1.65.09,2.93,1.5,2.84,3.15l-8.92,172.3c.09,2.25.59,23.13-12.23,33.3-.55.44-1.21.65-1.86.65Z" fill="#2b2b2b"/><path d="M302.58,678.19c-1.58,0-2.9-1.23-2.99-2.82l-6.83-116.13c-.1-1.65,1.16-3.07,2.82-3.17,1.64-.08,3.07,1.16,3.17,2.82l6.83,116.13c.1,1.65-1.16,3.07-2.82,3.17-.06,0-.12,0-.18,0Z" fill="#2b2b2b"/><path d="M72.72,818.65s-.09,0-.13,0c-1.66-.07-2.94-1.47-2.87-3.12.09-2.02,8.58-202.53,7.59-246.58-1.02-45.07,18.6-59.31,19.44-59.89,1.36-.95,3.23-.62,4.18.74.95,1.35.62,3.21-.73,4.17-.25.18-17.83,13.39-16.89,54.85,1,44.24-7.5,244.95-7.59,246.97-.07,1.61-1.4,2.87-3,2.87Z" fill="#2b2b2b"/><path d="M105.21,819.12s-.07,0-.1,0c-1.66-.05-2.96-1.44-2.9-3.1.06-1.98,6.42-198.46,6.71-241.24-.29-25.14,3.58-41.61,11.52-48.9,4.2-3.86,8.07-3.61,8.5-3.56l-.58,5.97h.11c-.07.02-1.95,0-4.3,2.33-3.6,3.57-9.6,14.06-9.24,44.14-.3,42.92-6.65,239.47-6.72,241.45-.05,1.62-1.38,2.9-3,2.9Z" fill="#2b2b2b"/><path d="M283.36,399.69s-.07,0-.1,0c-1.66-.05-2.95-1.44-2.9-3.1l9.11-278.59c.91-29.54,7.52-49.89,19.65-60.47,9.12-7.96,17.99-7.12,18.37-7.08,1.65.17,2.84,1.65,2.67,3.3-.17,1.64-1.64,2.82-3.27,2.67h0c-.28-.03-6.89-.53-14.01,5.8-7.36,6.53-16.35,21.55-17.41,55.98l-9.11,278.59c-.05,1.62-1.39,2.9-3,2.9Z" fill="#2b2b2b"/><path d="M720.68,763.62c-1.54,0-2.85-1.18-2.99-2.74l-26.29-307.42c-.01-.13-.01-.25,0-.38l12.25-292.78c1.79-29.48-6.62-51.49-25-65.47-13.79-10.5-28.38-12.37-28.52-12.38-1.64-.2-2.82-1.69-2.62-3.33.2-1.64,1.69-2.8,3.33-2.62.65.08,16.14,2.02,31.22,13.39,13.91,10.49,29.99,31.28,27.59,70.73l-12.24,292.53,26.27,307.23c.14,1.65-1.08,3.1-2.73,3.25-.09,0-.17.01-.26.01Z" fill="#2b2b2b"/><path d="M345.33,90.4c-.49,0-.99-.03-1.48-.08-3.54-.39-6.66-2.13-8.79-4.88-2.09-2.71-2.97-6.09-2.47-9.51,1.03-7.04,7.69-12.14,14.85-11.37,3.54.38,6.67,2.1,8.81,4.85,2.1,2.7,2.99,6.07,2.51,9.49h0c-.94,6.61-6.8,11.5-13.42,11.5ZM346,67.97c-4.89,0-9.24,3.6-9.95,8.46-.36,2.47.27,4.91,1.78,6.87,1.54,2,3.82,3.26,6.41,3.55,5.35.59,10.31-3.19,11.05-8.43h0c.35-2.47-.29-4.91-1.81-6.85-1.55-2-3.83-3.25-6.42-3.52-.36-.04-.71-.06-1.07-.06ZM357.02,78.65h0,0Z" fill="#2b2b2b"/><path d="M322.79,174.8c-.55,0-1.1-.03-1.65-.1-3.53-.44-6.65-2.23-8.78-5.03-2.15-2.82-3.04-6.33-2.51-9.87,1.07-7.24,7.83-12.41,15.07-11.54,3.53.43,6.65,2.2,8.8,5,2.15,2.81,3.06,6.31,2.55,9.86h0c-.97,6.74-6.83,11.69-13.47,11.69ZM323.31,151.65c-4.91,0-9.27,3.67-10,8.65-.39,2.61.27,5.18,1.84,7.24,1.56,2.05,3.84,3.36,6.43,3.68,5.42.67,10.45-3.19,11.23-8.61h0c.37-2.61-.29-5.17-1.86-7.23-1.57-2.04-3.85-3.34-6.44-3.65-.4-.05-.79-.07-1.18-.07ZM334.53,162.86h0,0Z" fill="#2b2b2b"/><path d="M643.89,123.48c-.54,0-1.09-.03-1.63-.09-7.79-.86-13.59-7.59-12.93-15h0c.31-3.46,1.98-6.61,4.71-8.85,2.94-2.41,6.72-3.51,10.63-3.09,7.79.84,13.61,7.54,12.98,14.95-.29,3.49-1.97,6.65-4.71,8.9-2.5,2.06-5.74,3.18-9.06,3.18ZM632.83,108.7h0c-.49,5.53,3.91,10.56,9.83,11.21,2.99.33,5.87-.49,8.08-2.31,2.01-1.65,3.23-3.96,3.44-6.49.47-5.53-3.96-10.54-9.87-11.17-2.98-.33-5.83.5-8.04,2.31-2,1.64-3.22,3.93-3.45,6.45Z" fill="#2b2b2b"/><path d="M647.67,215.17c-.63,0-1.26-.04-1.89-.12-7.9-.98-13.79-7.99-13.13-15.61h0c.32-3.61,2.04-6.86,4.86-9.15,2.98-2.42,6.81-3.49,10.75-3.01,7.9.95,13.82,7.93,13.19,15.56-.3,3.63-2.03,6.9-4.86,9.21-2.52,2.05-5.63,3.13-8.92,3.13ZM636.14,199.74c-.5,5.77,4.01,11.08,10.07,11.84,3.02.38,5.92-.42,8.17-2.25,2.09-1.7,3.36-4.1,3.58-6.78.48-5.77-4.06-11.06-10.12-11.79-3-.36-5.89.44-8.13,2.26-2.08,1.69-3.35,4.08-3.58,6.73h0Z" fill="#2b2b2b"/><path d="M279.89,418.23c-.98,0-2-.08-3.03-.24-6.66-1.05-11.39-5.17-10.76-9.39.22-1.48,1.07-2.8,2.45-3.81,2.47-1.82,6.42-2.52,10.56-1.87,6.67,1.04,11.41,5.16,10.8,9.38h0c-.22,1.48-1.06,2.81-2.45,3.83-1.87,1.38-4.58,2.11-7.58,2.11ZM276.16,406.18c-2.25,0-4.29.5-5.54,1.42-.62.46-.98.96-1.06,1.51-.29,1.93,3.01,4.66,7.84,5.42,3.16.5,6.29.01,7.99-1.23.62-.46.98-.97,1.06-1.51.28-1.94-3.03-4.66-7.87-5.42-.81-.13-1.63-.19-2.41-.19ZM288.18,412.03h0,0Z" fill="#2b2b2b"/><path d="M142.47,482.81c-1.03,0-2.1-.09-3.18-.27-6.69-1.12-11.42-5.34-10.77-9.62.23-1.51,1.1-2.85,2.51-3.88,2.5-1.82,6.47-2.49,10.61-1.8,6.69,1.11,11.44,5.33,10.81,9.61h0c-.22,1.52-1.09,2.87-2.51,3.9-1.85,1.35-4.52,2.07-7.47,2.07ZM138.53,470.48c-2.21,0-4.21.49-5.45,1.39-.65.47-1.02,1-1.11,1.57-.3,1.99,3.01,4.83,7.89,5.64,3.16.53,6.3.07,8.01-1.18.65-.47,1.02-1,1.1-1.58.29-2-3.03-4.83-7.92-5.64-.85-.14-1.71-.21-2.53-.21ZM150.72,476.59h0,0Z" fill="#2b2b2b"/><path d="M596.53,468.25c-1.11,0-2.27-.09-3.45-.28-7.35-1.16-12.6-5.38-12.21-9.83h0c.13-1.52.92-2.89,2.28-3.95,2.55-2,6.86-2.76,11.53-2.04,7.24,1.12,12.62,5.43,12.25,9.81-.13,1.53-.91,2.9-2.27,3.97-1.92,1.5-4.82,2.31-8.13,2.31ZM584.36,458.46c-.19,2.14,3.74,5.19,9.26,6.06,3.63.57,7.11.05,8.87-1.33.58-.46.9-.96.95-1.5.18-2.15-3.76-5.2-9.3-6.06-3.62-.57-7.08-.04-8.83,1.33-.58.46-.9.96-.95,1.5h0Z" fill="#2b2b2b"/><path d="M459.69,544.5c-1.18,0-2.41-.1-3.66-.31-7.32-1.22-12.75-5.67-12.38-10.12h0c.13-1.56.94-2.96,2.32-4.04,2.59-2.02,6.95-2.76,11.67-1.97,7.32,1.21,12.78,5.65,12.42,10.11-.12,1.57-.93,2.97-2.32,4.05-1.91,1.49-4.79,2.28-8.06,2.28ZM447.14,534.36c-.19,2.23,3.82,5.43,9.47,6.38,3.68.61,7.21.11,8.99-1.28.61-.47.94-1,.98-1.57.18-2.24-3.85-5.44-9.5-6.38-3.66-.61-7.17-.1-8.95,1.28-.61.47-.94,1-.98,1.57h0Z" fill="#2b2b2b"/><path d="M455.41,958.48c-6.43,0-13.65-1.24-21.16-4.61-3.42-1.53-5.52-5.1-5.34-9.1l1.72-38.07c.23-5.08,4.07-9.29,8.91-9.8,1.31-.14,2.6.01,3.85.44,5.76,1.97,14.77,3.41,24.95-.87,2.39-1,4.97-.99,7.25.05,3.21,1.45,5.25,4.67,5.32,8.4l1.61,38.79c.07,3.8-1.81,7.28-4.9,9.17-4.32,2.66-12.33,5.59-22.21,5.59ZM440.48,902.86c-.1,0-.21,0-.31.02h0c-1.66.17-3.43,1.76-3.54,4.1l-1.72,38.07c-.07,1.52.63,2.83,1.79,3.35,16.8,7.52,31.66,3.15,37.79-.62,1.27-.78,2.07-2.3,2.04-3.88l-1.61-38.79c-.03-1.48-.7-2.61-1.8-3.11-.53-.24-1.38-.43-2.45.02-11.92,5.01-22.47,3.31-29.23,1.01-.32-.11-.64-.16-.96-.16ZM439.85,899.89h0,0Z" fill="#2b2b2b"/><path d="M438.47,902.25s-.08,0-.12,0c-1.66-.07-2.94-1.46-2.88-3.12.09-2.1,8.58-210.9,7.59-256.78-1.01-46.83,18.56-61.62,19.39-62.23,1.34-.97,3.22-.68,4.19.66.97,1.33.68,3.2-.64,4.18h0c-.18.13-17.88,13.9-16.94,57.26,1,46.06-7.5,255.05-7.59,257.16-.07,1.61-1.39,2.88-3,2.88Z" fill="#2b2b2b"/><path d="M470.96,901.73s-.06,0-.1,0c-1.66-.05-2.96-1.44-2.9-3.09.06-2.05,6.41-205.31,6.71-250.1-2.76-40.63,17.29-53.64,18.14-54.18l141.32-94.47c.22-.15.45-.26.7-.35,1.09-.38,26.99-9.75,26.99-45.25,0-1.66,1.34-3,3-3s3,1.34,3,3c0,37.35-26.91,49.3-30.63,50.78l-141.12,94.33c-.79.51-17.94,11.98-15.4,48.84,0,.08,0,.15,0,.23-.3,44.63-6.65,248.31-6.72,250.36-.05,1.62-1.38,2.91-3,2.91Z" fill="#2b2b2b"/><path d="M690.81,763.62c-1.55,0-2.86-1.19-2.99-2.76l-21.48-262.57c-5.94-19.06-3.72-66.81-3.62-68.84l8.61-200.45c.07-1.65,1.43-2.96,3.13-2.87,1.66.07,2.94,1.47,2.87,3.13l-8.61,200.46c-.02.51-2.3,49.28,3.44,67.07.07.22.12.45.13.68l21.51,262.9c.13,1.65-1.09,3.1-2.75,3.24-.08,0-.17,0-.25,0Z" fill="#2b2b2b"/><path d="M707.87,817.23c-5.43,0-11.56-.85-18.24-3.17-3.55-1.23-5.91-4.5-6.02-8.34l-1.05-35.6c-.14-4.88,3.4-9.14,8.23-9.91,1.27-.2,2.54-.14,3.79.17,5.92,1.49,15.05,2.3,24.93-2.33,2.28-1.06,4.8-1.2,7.1-.39,3.33,1.17,5.61,4.1,5.95,7.66l4.42,36.06c.35,3.61-1.34,7.17-4.31,9.13-1.35.9-10.65,6.72-24.8,6.72ZM692.26,766.09c-.18,0-.35.01-.53.04h0c-1.61.26-3.24,1.75-3.18,3.81l1.05,35.6c.04,1.32.82,2.44,1.99,2.84,17.36,6.02,31.91,1.02,37.76-2.88,1.14-.76,1.79-2.12,1.66-3.47l-4.42-36.06c-.13-1.3-.86-2.26-1.98-2.65-.82-.29-1.73-.23-2.57.17-11.48,5.38-22.08,4.44-28.95,2.71-.28-.07-.56-.11-.83-.11ZM691.26,763.17h0,0Z" fill="#2b2b2b"/><path d="M315.69,726.81c-9.75,0-16.39-2.94-17.53-3.48-3.06-1.44-5.12-4.53-5.24-7.86l-.37-33.04c-.12-3.28,1.68-6.3,4.7-7.79,2.06-1.02,4.44-1.2,6.7-.51,9.66,2.96,17.97,1.15,23.23-.89,1.12-.44,2.31-.64,3.52-.62h0c4.66.12,8.53,3.62,9.02,8.15l3.43,32.08c.39,3.59-1.45,6.93-4.68,8.51-8.49,4.15-16.32,5.45-22.78,5.45ZM301.21,679.73c-.46,0-.91.1-1.31.3-.89.44-1.4,1.29-1.36,2.27l.37,33.04c.04,1.04.75,2.08,1.81,2.58,5.87,2.79,19.87,5.52,35.11-1.93.95-.46,1.46-1.41,1.35-2.48l-3.43-32.08c-.18-1.7-1.77-2.76-3.21-2.79-.02,0-.06,0-.09,0-.38,0-.75.07-1.11.21-6.16,2.39-15.86,4.5-27.16,1.04-.33-.1-.66-.15-.98-.15Z" fill="#2b2b2b"/><path d="M330.62,678.63c-1.55,0-2.86-1.19-2.99-2.76l-9.18-112.99c-.13-1.65,1.1-3.1,2.75-3.23,1.65-.15,3.1,1.1,3.23,2.75l9.18,112.99c.13,1.65-1.1,3.1-2.75,3.23-.08,0-.16,0-.25,0Z" fill="#2b2b2b"/></svg>