<?xml version="1.0" encoding="UTF-8"?><svg id="_レイヤー_9" xmlns="http://www.w3.org/2000/svg" width="2000" height="1200" viewBox="0 0 2000 1200"><path d="M752.8,935.67c-1.25,0-2.42-.79-2.84-2.04l-29.74-88.08c-.53-1.57.31-3.27,1.88-3.8,1.57-.53,3.27.31,3.8,1.88l29.74,88.08c.53,1.57-.31,3.27-1.88,3.8-.32.11-.64.16-.96.16Z" fill="#2b2b2b"/><path d="M717.12,822.81c-1.28,0-2.46-.82-2.85-2.11-.17-.57-.74-3.16-2.35-10.57-3.9-17.91-12.02-55.19-16.4-69.83-.48-1.59.43-3.26,2.01-3.73,1.59-.48,3.26.43,3.73,2.01,4.44,14.86,12.6,52.29,16.52,70.27,1.12,5.14,2.09,9.57,2.24,10.13.44,1.58-.47,3.25-2.05,3.71-.28.08-.57.12-.85.12Z" fill="#2b2b2b"/><path d="M700.9,933.46c-1.28,0-2.47-.83-2.87-2.12l-25.94-84.76c-.48-1.58.41-3.26,1.99-3.75,1.59-.48,3.26.41,3.75,1.99l25.94,84.76c.48,1.58-.41,3.26-1.99,3.75-.29.09-.59.13-.88.13Z" fill="#2b2b2b"/><path d="M667.75,824.99c-1.41,0-2.67-1-2.94-2.44-4.45-23.52-8.59-38.27-12.24-51.29-3.06-10.93-5.71-20.36-7.97-32.7-.3-1.63.78-3.19,2.41-3.49,1.63-.3,3.19.78,3.49,2.41,2.21,12.06,4.82,21.38,7.85,32.16,3.69,13.14,7.86,28.03,12.36,51.8.31,1.63-.76,3.2-2.39,3.51-.19.04-.38.05-.56.05Z" fill="#2b2b2b"/><path d="M682.15,1068.34c-107.83,0-232.72-11.64-361.8-47.45-16.45-4.56-29.38-8.68-40.69-12.94-23.43-8.82-38.54-15.35-50.79-31.58-1-1.32-.74-3.2.59-4.2,1.32-1,3.2-.74,4.2.59,11.28,14.94,25.7,21.14,48.11,29.58,11.13,4.2,23.9,8.25,40.18,12.77,257.68,71.5,498.7,46.21,619.44,24.78,15.07-2.68,29.98-5.6,44.3-8.66,14.07-3.02,27.81-6.25,40.84-9.61,3.85-1,7.56-1.98,11.03-2.94,33.7-9.63,70.65-30.16,71.89-45.35.14-1.65,1.59-2.89,3.23-2.75,1.65.14,2.88,1.58,2.75,3.23-1.76,21.52-47.71,42.48-76.25,50.64-3.52.97-7.26,1.97-11.15,2.97-13.11,3.37-26.93,6.63-41.08,9.67-14.4,3.08-29.37,6.01-44.51,8.7-60.77,10.79-151.92,22.55-260.3,22.55Z" fill="#2b2b2b"/><path d="M702.29,1007.37h-.25c-120.94-.02-240.07-12.23-310.91-31.88-1.6-.44-2.53-2.1-2.09-3.69.44-1.6,2.09-2.53,3.69-2.09,145.31,40.3,479.64,45.36,587.38-3.53,1.51-.68,3.29-.02,3.97,1.49.68,1.51.02,3.29-1.49,3.97-50.03,22.71-152.2,35.73-280.3,35.73Z" fill="#2b2b2b"/><path d="M941.91,1045.79c-1.25,0-2.42-.79-2.84-2.04-.53-1.57.31-3.27,1.88-3.81,51.81-17.61,92.81-42.73,97.49-59.72,1.04-3.77.29-7.07-2.28-10.09l-.33-.37c-1.11-1.23-1.01-3.13.23-4.24,1.23-1.11,3.13-1.01,4.24.23l.39.44c3.9,4.58,5.11,9.96,3.55,15.63-6.16,22.38-55.34,48.17-101.34,63.81-.32.11-.65.16-.97.16Z" fill="#2b2b2b"/><path d="M786.58,744.32c-1.2,0-2.34-.73-2.8-1.92-6.54-16.94-11.34-40.65-14.25-70.48-4.34-44.48-3.28-90.35,3.13-136.33,1.89-13.57,3.87-30.05,5.97-47.5,4.63-38.46,9.87-82.04,17.29-123.86,2.12-12.02,4.39-23.59,6.76-34.39,25.56-116.73,53.94-120.95,57.87-120.95.13,0,.23,0,.35,0,46.67,0,86.24,10.08,117.62,29.96,1.4.89,1.82,2.74.93,4.14-.89,1.4-2.74,1.81-4.14.93-30.4-19.26-68.9-29.03-114.41-29.03h-.27c-.7.06-27.42,3.57-52.08,116.23-2.35,10.72-4.61,22.21-6.71,34.15-7.39,41.66-12.62,85.16-17.24,123.53-2.1,17.47-4.09,33.98-5.98,47.61-6.35,45.52-7.39,90.91-3.1,134.93,2.86,29.29,7.52,52.47,13.87,68.9.6,1.55-.17,3.28-1.72,3.88-.36.14-.72.2-1.08.2Z" fill="#2b2b2b"/><path d="M675.75,848.42c-.14,0-.28,0-.42-.03-1.95-.27-2.54-.59-2.79-.73-2.97-1.64-10.17-6.08-13.28-12.28-.66-1.32-1.09-2.59-1.32-3.88-.64-3.56.29-6.99,2.76-10.21.54-.7,1.36-1.13,2.25-1.17l4.72-.2s.06,0,.09,0l47.98-1.97c.68-.03,1.36.18,1.91.59.48.35.92.72,1.35,1.07l.1.08s.01,0,.02.01c12.15,10.08,8.75,19.64,6.73,23.27-.09.16-.19.35-.32.55.15.71.05,1.45-.32,2.1-.52.92-1.48,1.5-2.53,1.53l-46.84,1.26s-.05,0-.08,0ZM725.2,842.68s0,0,0,0c0,0,0,0,0,0ZM725.19,842.67h0s0,0,0,0ZM675.2,842.28c.18.04.48.1.74.14l44.02-1.19c.11-.23.23-.47.37-.71.03-.05.06-.09.09-.14.06-.09.11-.18.16-.27,2.85-5.11,1.01-10.55-5.28-15.78l-.1-.08c-.1-.09-.21-.17-.32-.26l-46.96,1.92s-.06,0-.1,0l-3.11.13c-.85,1.47-1.14,2.91-.87,4.39.13.73.39,1.47.78,2.26,2.34,4.66,8.44,8.38,10.58,9.58Z" fill="#2b2b2b"/><path d="M574.5,877c-.43,0-.86-.09-1.25-.27l-26.02-11.98c-1.29-.59-1.99-2.01-1.67-3.39l9.85-43.2c.34-1.49,1.75-2.49,3.28-2.31l103.13,12.22c1.33.16,2.4,1.18,2.61,2.51l3.74,23.56c.13.84-.1,1.7-.63,2.36s-1.33,1.06-2.18,1.1l-62.65,3.03-26.66,15.95c-.47.28-1.01.43-1.54.43ZM551.94,860.31l22.37,10.3,25.95-15.53c.42-.25.9-.4,1.4-.42l60.06-2.9-2.74-17.26s0,0,0,0l-.12-.75-98.2-11.63-8.71,38.19Z" fill="#2b2b2b"/><path d="M961.8,378s-.08,0-.12,0l-162.93-11.5c-.96-.07-1.71-.9-1.65-1.85.06-.96.85-1.7,1.81-1.64h.05s162.97,11.5,162.97,11.5c.96.07,1.69.9,1.62,1.87-.06.92-.83,1.63-1.74,1.63Z" fill="#2b2b2b"/><path d="M1782.33,726.53c-.15,0-.29-.01-.44-.03-1.64-.24-2.77-1.76-2.53-3.4,3.8-25.95,7.66-52.52,11.8-81.23,3.86-26.91,6.27-43.94,6.56-45.98,0-15-2.64-29.43-7.86-42.9-.6-1.54.17-3.28,1.71-3.88,1.54-.6,3.28.17,3.88,1.71,5.52,14.23,8.3,29.47,8.27,45.29,0,.14-.01.28-.03.41,0,0-2.47,17.47-6.59,46.2-4.13,28.72-7.99,55.3-11.8,81.25-.22,1.49-1.5,2.57-2.96,2.57Z" fill="#2b2b2b"/><path d="M1711.24,1102.04c-4.99,0-10.66-1.57-16.45-4.64-171.1-90.89-438.3-116.44-582.35-123.57-24.83-1.23-49.75-2.12-74.07-2.64-25.22-.54-44.92-.57-57.01-.5-6.14.04-9.76.1-10.52.11l-578.89,4.16-57.24.41-109.32.64c-1.08.04-12.72.32-24.86-4.99-13.82-6.05-29.82-20.12-27.52-52.8.12-1.65,1.55-2.9,3.2-2.78,1.65.12,2.9,1.55,2.78,3.2-1.65,23.43,6.41,39.21,23.94,46.88,11.15,4.88,22.15,4.5,22.27,4.49.03,0,.07,0,.11,0l109.37-.64,57.23-.41,578.82-4.15c.77-.01,4.41-.07,10.59-.11,12.13-.07,31.89-.04,57.17.5,24.37.52,49.35,1.42,74.24,2.65,103.75,5.14,200.88,15.73,288.7,31.48,121.7,21.82,221.35,53.04,296.17,92.79,7.46,3.96,14.63,5.01,19.17,2.82,2.8-1.35,4.58-4.01,5.3-7.88,2.96-16.12,6.32-35.3,9.97-57.01,4.11-24.54,8.49-51.51,13.01-80.16,3.42-21.65,7.08-45.21,10.88-70.03.25-1.64,1.78-2.77,3.42-2.51,1.64.25,2.76,1.78,2.51,3.42-3.8,24.83-7.46,48.4-10.88,70.06-4.53,28.68-8.91,55.67-13.02,80.22-3.66,21.75-7.02,40.96-9.99,57.11-1.35,7.3-5.41,10.67-8.59,12.2-2.39,1.15-5.14,1.72-8.15,1.72Z" fill="#2b2b2b"/><path d="M974.7,939.08h-.06l-221.84-.56-522.43-1.32c-2.66.18-36.66,1.95-55.94-20.04-4.46-5.07-7.8-11.13-9.91-18.01l-65.63-179.11c-.07-.2-.13-.41-.15-.62-.04-.32-1.07-7.88-1.22-20.74-.19-19.04,1.6-48.85,11.26-82.79l16.88-69.85,70.5-296.85c.01-.06.03-.12.05-.18l17.48-57.8c.95-3.87,2.12-7.62,3.49-11.16.07-.2.14-.38.22-.56,8.33-21.09,29.36-34.62,52.37-33.68l266.41,11.49c23.3.41,45.63,18.46,46.57,19.23,1.28,1.05,1.47,2.94.42,4.22-1.05,1.28-2.94,1.47-4.22.43-.21-.18-21.69-17.51-42.96-17.88l-266.48-11.49c-20.47-.83-39.2,11.2-46.57,29.96-.02.06-.05.12-.08.18-.02.07-.05.14-.08.2-1.3,3.34-2.41,6.89-3.3,10.56-.01.05-.03.11-.04.16l-17.48,57.79-70.48,296.77-16.9,69.92s-.02.08-.03.12c-9.47,33.27-11.24,62.49-11.05,81.14.13,11.02.93,18.15,1.12,19.68l65.55,178.87c.02.05.04.1.05.15,1.86,6.08,4.79,11.43,8.71,15.88,17.66,20.15,50.78,18.03,51.12,18.01.07,0,.13-.02.22,0l522.54,1.32,221.85.56h.04c6.16,0,11.42-4.52,12.25-10.54.52-3.84.82-7.75.88-11.62.03-3.24-.11-6.5-.41-9.66-5.15-54-59.44-93.76-104.08-117.6-46.76-24.98-93.01-38.18-97.24-39.36l-138.55-6.41-536.21-24.84c-1.66-.08-2.93-1.48-2.86-3.14.08-1.66,1.48-2.93,3.14-2.86l536.21,24.84,138.89,6.42c.22,0,.44.04.65.1.49.13,49.3,13.52,98.71,39.9,29.12,15.54,52.77,32.5,70.32,50.41,22.16,22.61,34.6,46.83,37,71.97.32,3.37.47,6.83.44,10.3-.06,4.12-.38,8.27-.93,12.36-1.24,8.98-9.06,15.72-18.19,15.73Z" fill="#2b2b2b"/><path d="M448.43,687.22c-.82,0-1.65-.02-2.48-.06l-338.42-16.21c-.97-.05-1.71-.87-1.66-1.83.05-.97.88-1.71,1.83-1.66l338.42,16.21c24.2,1.16,45.64-15.94,49.92-39.77l71.5-398.92c4.92-27.41-6.28-75.21-31.24-82.55-.93-.27-1.46-1.25-1.19-2.17.27-.93,1.25-1.46,2.17-1.19,12.34,3.63,22.66,16.36,29.05,35.84,5.48,16.69,7.26,36.1,4.64,50.68l-71.5,398.92c-4.44,24.74-26.14,42.71-51.05,42.71Z" fill="#2b2b2b"/><path d="M480.92,715.36s-.05,0-.07,0l-377.55-15.09c-.97-.04-1.72-.85-1.68-1.82.04-.97.83-1.72,1.82-1.68l377.46,15.08c42.92-2.55,48.82-49.31,48.87-49.79,0-.04,0-.07.02-.1l67.66-382.53c9.32-50.8,4.19-80.15-17.15-98.13-.74-.62-.83-1.73-.21-2.47.62-.74,1.73-.83,2.47-.21,22.44,18.9,27.92,49.23,18.34,101.43l-67.65,382.48c-.26,2.04-7.06,50.21-52.22,52.82-.03,0-.07,0-.1,0Z" fill="#2b2b2b"/><path d="M687.95,731.64c-.27,0-.55-.06-.8-.2-10.26-5.32-27.64-18.16-27.76-32.57-.69-87.33,10.71-190.08,33.9-305.38,18.62-92.57,39.95-168.39,49.05-200.77l1.6-5.7c.55-1.93,1.77-3.54,3.44-4.53.83-.49,1.9-.22,2.4.61.49.83.22,1.9-.61,2.4-.91.54-1.55,1.4-1.86,2.48l-1.6,5.7c-56.04,199.2-83.9,369.16-82.83,505.18.09,11.09,13.47,23.06,25.87,29.49.86.44,1.19,1.5.75,2.36-.31.6-.92.94-1.56.94Z" fill="#2b2b2b"/><path d="M767.44,212.85c-1.14,0-2.23-.65-2.73-1.75l-10.82-23.71c-.72-1.03-1.71-1.23-2.25-1.26h-.16c-1.66.06-3.03-1.24-3.09-2.9s1.25-3.05,2.9-3.11c.22,0,.46,0,.68.01,2.93.16,5.51,1.69,7.09,4.19.07.11.14.23.19.36l10.92,23.92c.69,1.51.02,3.29-1.48,3.97-.4.18-.83.27-1.24.27Z" fill="#2b2b2b"/><path d="M690.64,733.06h0c-.97,0-1.75-.79-1.74-1.76v-1.43c-.71-135.8,20.33-269.85,38.12-358.39,19.27-95.93,38.96-160.6,39.16-161.25.28-.92,1.26-1.44,2.19-1.16.92.28,1.44,1.26,1.16,2.19-.2.64-19.85,65.19-39.08,160.96-17.75,88.37-38.75,222.15-38.05,357.65v1.44c0,.96-.78,1.74-1.74,1.74Z" fill="#2b2b2b"/><path d="M480.92,715.36c-.94,0-1.72-.75-1.75-1.7-.03-.97.73-1.77,1.7-1.8l178.12-5.49c.96-.01,1.77.73,1.8,1.7s-.73,1.77-1.7,1.8l-178.12,5.49s-.04,0-.05,0Z" fill="#2b2b2b"/><path d="M751.81,185.98c-.06,0-.12,0-.17,0-.05,0-.12,0-.22,0h-.78c-.59-.02-1.38-.04-2.35-.05-18.41-.33-112.88-2.08-166.15-3.89-1.66-.06-2.95-1.44-2.9-3.1.06-1.66,1.45-2.95,3.1-2.9,53.23,1.81,147.65,3.55,166.04,3.88.97.01,1.76.03,2.37.04h.69c.14,0,.29.02.42.02.22,0,.32,0,.32,0,1.63.15,2.89,1.58,2.77,3.21-.12,1.6-1.44,2.85-3.01,2.78-.04,0-.08,0-.12,0Z" fill="#2b2b2b"/><path d="M860.61,214.89c-.12,0-.23,0-.35-.02-.47-.05-47.87-5.45-92.13-1.12-1.66.16-3.12-1.05-3.28-2.69-.16-1.65,1.05-3.12,2.69-3.28,44.91-4.38,92.93,1.08,93.4,1.14,1.65.19,2.82,1.68,2.63,3.33-.18,1.53-1.47,2.65-2.98,2.65Z" fill="#2b2b2b"/><path d="M992.66,907.32c-.07,0-.14,0-.21-.01-.96-.12-1.64-.99-1.53-1.95l6.8-56.66c.11-.96.98-1.64,1.95-1.53.96.11,1.64.99,1.53,1.95l-6.8,56.66c-.11.89-.86,1.54-1.73,1.54Z" fill="#2b2b2b"/><path d="M417.64,587.07l-242.82-20.07,80.84-338.81,223.37,16.5-61.39,342.38ZM179.17,563.85l235.59,19.47,60.15-335.42-216.53-16-79.2,331.95Z" fill="#2b2b2b"/><path d="M1861.5,1009.71c-1.84,0-3.6-.79-4.85-2.23l-36.96-42.78c-1.31-1.51-1.84-3.49-1.46-5.45l31.06-159.59c.62-3.17,3.42-5.36,6.65-5.21,1.75.07,3.38.87,4.56,2.23l36.97,42.77c1.3,1.5,1.83,3.49,1.44,5.45l-31.06,159.58c-.47,2.43-2.25,4.35-4.66,4.99-.56.15-1.14.23-1.7.23ZM1855.64,800.45c-.1,0-.4.03-.47.36l-31.06,159.59c-.03.13.01.26.1.37l1.7,1.97s0,0,0,0l35.26,40.81s.18.21.46.13c.27-.07.31-.27.32-.34l31.06-159.59c.03-.14,0-.28-.09-.38l-36.97-42.77c-.09-.1-.19-.16-.29-.16,0,0-.01,0-.03,0Z" fill="#2b2b2b"/><path d="M1855.8,800.03c-1.09,0-2.15-.6-2.68-1.64l-3.57-7.05c-2.77-5.49-4.07-11.62-3.76-17.73,2.67-52.2-14.58-95.52-51.26-128.74-1.23-1.11-1.32-3.01-.21-4.24,1.11-1.23,3.01-1.32,4.24-.21,23.57,21.35,39.58,46.9,47.59,75.94,6.48,23.52,6.32,44.11,5.63,57.56-.26,5.07.82,10.16,3.12,14.72l3.57,7.04c.75,1.48.16,3.28-1.32,4.03-.43.22-.9.32-1.35.32Z" fill="#2b2b2b"/><path d="M1737.81,1033.98c-1.43,0-2.7-1.03-2.95-2.48-.29-1.63.81-3.19,2.44-3.47,35.31-6.17,55.56-40.62,64.48-60.61,1.72-3.85,5.03-6.73,9.08-7.9,4.04-1.16,8.37-.49,11.86,1.86l2.02,1.36c1.37.93,1.74,2.79.81,4.16-.92,1.37-2.79,1.74-4.16.81l-2.01-1.36c-2.02-1.35-4.51-1.74-6.85-1.07-2.35.68-4.26,2.34-5.26,4.58-9.41,21.08-30.88,57.42-68.93,64.08-.17.03-.35.05-.52.05Z" fill="#2b2b2b"/><path d="M1748.24,953.36c-.76,0-1.52-.29-2.11-.87-1.18-1.16-1.19-3.06-.03-4.24,50.99-51.62,58.2-109.38,55.27-148.75-3.19-42.85-18.72-73.88-18.88-74.19-.75-1.48-.16-3.28,1.32-4.03,1.48-.75,3.28-.16,4.03,1.31.66,1.3,16.17,32.24,19.5,76.23,1.95,25.87-.78,50.83-8.12,74.19-9.18,29.2-25.61,55.94-48.85,79.46-.59.59-1.36.89-2.13.89Z" fill="#2b2b2b"/><path d="M1861.12,961.57c-.84,0-1.65-.36-2.23-1.02l-21.17-24.51c-.59-.65-.85-1.59-.68-2.49h0s17.19-88.31,17.19-88.31c.21-1.12,1.03-2,2.13-2.3,1.11-.3,2.26.06,3.02.93l21.17,24.49c.59.69.83,1.61.67,2.49l-17.19,88.32c-.21,1.11-1.03,2-2.13,2.29-.26.07-.52.1-.78.1ZM1860.59,958.51s0,0,0,0h0ZM1840.53,933.94l20.27,23.47,16.93-86.96-20.27-23.46-16.93,86.94ZM1840.35,933.73v.02s0-.01,0-.02ZM1857.67,845.91h0s0,0,0,0Z" fill="#2b2b2b"/><path d="M1598.81,983.08c-2.44,0-4.89-.35-7.27-1.05-148.42-43.9-521.57-79.8-598.31-79.34-.97,0-1.89.01-2.77.04-.96.04-1.77-.74-1.79-1.7s.74-1.77,1.7-1.79c.91-.02,1.85-.03,2.84-.04,43.92-.27,162.53,9.74,275.88,23.33,83.91,10.06,237.52,30.74,323.44,56.15,6.09,1.8,12.67.9,18.05-2.47,5.36-3.36,9.02-8.86,10.05-15.1l4.57-27.59c.16-.95,1.05-1.6,2.01-1.44.95.16,1.6,1.06,1.44,2.01l-4.57,27.6c-1.2,7.23-5.44,13.6-11.65,17.49-4.12,2.58-8.85,3.91-13.63,3.91Z" fill="#2b2b2b"/><rect x="1715.89" y="847.55" width="6" height="20.28" transform="translate(762.71 2523.81) rotate(-86.67)" fill="#2b2b2b"/><path d="M1768.54,863.58c-.09,0-.18,0-.27,0h-.14s-39.29-2.29-39.29-2.29l.35-5.99,39.4,2.29c.5.01.97-.43,1-1.01l31.16-535.09c.03-.59-.42-1.09-1-1.13l-136.96-7.97.35-5.99,136.96,7.97c3.89.23,6.87,3.58,6.64,7.46l-31.16,535.09c-.22,3.78-3.29,6.66-7.04,6.66Z" fill="#2b2b2b"/><path d="M1763.06,886.25c-.14,0-.28,0-.42-.01l-58.69-3.42.35-5.99,58.69,3.42c.37.03.65-.17.82-.33.3-.28.47-.68.5-1.13l1.05-18.11,5.99.35-1.05,18.11c-.11,1.97-.95,3.79-2.35,5.13-1.35,1.29-3.08,1.99-4.9,1.99Z" fill="#2b2b2b"/><polygon points="1762.07 876.16 1706.43 872.92 1706.64 869.42 1758.78 872.46 1759.53 859.49 1763.03 859.69 1762.07 876.16" fill="#2b2b2b"/><rect x="1732.38" y="839.49" width="3.5" height="52.94" transform="translate(768.83 2546.82) rotate(-86.67)" fill="#2b2b2b"/><rect x="1756.2" y="315.19" width="3.5" height="59.97" transform="translate(1311.17 2080.09) rotate(-86.67)" fill="#2b2b2b"/><path d="M1697.66,922.26c-.26,0-.53-.01-.8-.04h-.1s-718.13-95.19-718.13-95.19c-3.86-.51-6.59-4.07-6.08-7.93l3.86-29.09,5.95.79-3.86,29.09c-.08.58.33,1.12.92,1.2l718.18,95.19c.51.05,1.02-.35,1.09-.93l70.42-531.35c.05-.38-.11-.66-.21-.79s-.33-.36-.71-.41l-44.09-5.84.79-5.95,44.09,5.84c1.87.25,3.53,1.21,4.68,2.71,1.15,1.5,1.64,3.35,1.39,5.22l-70.42,531.35c-.47,3.57-3.46,6.14-6.98,6.14Z" fill="#2b2b2b"/><path d="M1690.5,944.47c-.3,0-.61-.02-.92-.06l-697.26-92.41c-3.96-.52-6.73-4.3-6.18-8.42l2.61-19.66,5.95.79-2.61,19.66c-.11.82.36,1.6,1.02,1.68l697.26,92.41c.66.1,1.32-.53,1.43-1.36l2.38-17.98,5.95.79-2.38,17.98c-.5,3.8-3.66,6.58-7.24,6.58Z" fill="#2b2b2b"/><polygon points="1689.74 934.31 1003.34 843.33 997.56 826.73 1000.87 825.59 1005.93 840.15 1686.73 930.38 1688.44 917.5 1691.91 917.97 1689.74 934.31" fill="#2b2b2b"/><rect x="1343.22" y="533.08" width="3.5" height="693.82" transform="translate(295.89 2097.67) rotate(-82.45)" fill="#2b2b2b"/><rect x="1735.24" y="388.52" width="3.5" height="35.16" transform="translate(1106.21 2074.68) rotate(-82.45)" fill="#2b2b2b"/><path d="M1658.39,861.23c-.27,0-.53-.01-.8-.04l-.17-.02-6.98-.92-711.08-94.25c-3.86-.51-6.59-4.07-6.08-7.93l15.43-116.43,5.95.79-15.43,116.43c-.08.58.33,1.12.92,1.2l718.08,95.17c.61.07,1.12-.34,1.2-.92l70.43-531.35c.08-.58-.33-1.12-.92-1.2l-66.4-8.8.79-5.95,66.4,8.8c3.86.51,6.59,4.07,6.08,7.93l-70.43,531.35c-.47,3.57-3.46,6.14-6.98,6.14Z" fill="#2b2b2b"/><path d="M1651.25,883.44c-.31,0-.62-.02-.93-.06l-697.26-92.41c-3.96-.52-6.73-4.3-6.18-8.42l2.61-19.66,5.95.79-2.61,19.66c-.11.82.36,1.6,1.02,1.68l697.26,92.41c.37.05.66-.12.85-.27.32-.26.52-.65.58-1.09l2.38-17.98,5.95.79-2.38,17.98c-.26,1.96-1.23,3.71-2.72,4.94-1.31,1.07-2.88,1.64-4.51,1.64Z" fill="#2b2b2b"/><polygon points="1650.48 873.28 964.07 782.3 958.3 765.7 961.61 764.55 966.67 779.12 1647.47 869.35 1649.18 856.47 1652.65 856.93 1650.48 873.28" fill="#2b2b2b"/><polygon points="1649.37 866.27 961.57 775.11 962.03 771.64 963.1 771.78 1649.83 862.8 1649.37 866.27" fill="#2b2b2b"/><rect x="1685.74" y="315.8" width="3.5" height="55.82" transform="translate(1125.04 1971.4) rotate(-82.45)" fill="#2b2b2b"/><path d="M1280.9,747.82c-1.14,0-2.29-.08-3.45-.23-6.39-.85-12.03-3.99-15.88-8.86-3.86-4.88-5.54-11-4.71-17.22l.03-.21,2.03-13.88c1.18-8.06,2.49-17.07,3.65-25.08l3.46.5c-1.16,8.01-2.48,17.02-3.65,25.09l-2.05,14.06c-.7,5.27.72,10.45,3.99,14.58,3.28,4.15,8.11,6.83,13.6,7.56,5.61.74,11.09-.62,15.44-3.84,4.33-3.21,7.11-7.95,7.82-13.36l5.06-40.56,3.47.43-5.06,40.58c-.84,6.36-4.11,11.94-9.21,15.72-4.18,3.1-9.24,4.73-14.54,4.73Z" fill="#2b2b2b"/><path d="M1592.59,715.94c-1.24,0-2.49-.06-3.75-.18l-617.31-60.14c-10.09-.98-19.19-5.83-25.63-13.66-6.44-7.83-9.44-17.7-8.46-27.78l42.7-438.32c.98-10.09,5.84-19.19,13.66-25.63,7.83-6.44,17.7-9.44,27.78-8.46l617.31,60.14c20.83,2.03,36.12,20.62,34.09,41.45l-42.7,438.32c-.98,10.09-5.83,19.19-13.66,25.63-6.85,5.64-15.27,8.64-24.03,8.64ZM940.43,614.46l2.99.29c-.83,8.49,1.7,16.8,7.12,23.39,5.42,6.59,13.08,10.68,21.58,11.5l617.31,60.14c8.49.83,16.8-1.7,23.39-7.12,6.59-5.42,10.68-13.08,11.5-21.58l42.7-438.32c.83-8.49-1.7-16.8-7.12-23.39-5.42-6.59-13.08-10.68-21.58-11.5l-617.31-60.14c-8.49-.83-16.8,1.7-23.39,7.12-6.59,5.42-10.68,13.08-11.5,21.58l-42.7,438.32-2.99-.29Z" fill="#2b2b2b"/><path d="M1572.75,682.95l-1.74-.17-584.39-56.93.17-1.74,43.86-450.23,1.74.17,584.39,56.93-.17,1.74-43.86,450.23ZM990.44,622.7l579.17,56.42,43.35-445-579.17-56.42-43.35,445Z" fill="#2b2b2b"/><polygon points="1572.92 681.21 1569.43 680.87 1612.95 234.12 1033.79 177.7 990.27 624.45 986.78 624.11 1030.64 173.88 1032.39 174.05 1616.78 230.98 1616.61 232.72 1572.92 681.21" fill="#2b2b2b"/></svg>