<?xml version="1.0" encoding="UTF-8"?><svg id="_レイヤー_11" xmlns="http://www.w3.org/2000/svg" width="800" height="1000" viewBox="0 0 800 1000"><path d="M631.51,937.42c-9.81,0-17.58-2.77-22.31-5.05-3.32-1.59-5.37-4.9-5.21-8.44l1.47-33.12c.16-3.48,2.36-6.5,5.75-7.91,2.28-.94,4.84-1.04,7.21-.27,10.8,3.5,20.48,1.85,26.7-.16,1.22-.4,2.49-.56,3.78-.5h0c5.04.27,9.06,4.18,9.16,8.9l.68,33.65c.08,3.66-2.18,6.98-5.74,8.46-7.84,3.25-15.1,4.42-21.49,4.42ZM615.18,888.12c-.57,0-1.14.11-1.67.33-1.23.51-2,1.5-2.05,2.63l-1.47,33.11c-.05,1.14.64,2.2,1.81,2.76,6.92,3.34,21.18,7.84,38.91.5,1.26-.52,2.06-1.62,2.04-2.79l-.68-33.65c-.04-1.78-1.8-2.95-3.49-3.04t0,0c-.54-.03-1.08.04-1.6.21-7.07,2.28-18.08,4.16-30.4.16-.46-.15-.93-.22-1.39-.22Z" fill="#2b2b2b"/><path d="M168.29,931.16c-9.5,0-17.06-2.6-21.72-4.78-3.34-1.55-5.43-4.84-5.31-8.37l1.05-33.13c.12-3.48,2.28-6.53,5.65-7.98,2.26-.97,4.82-1.1,7.21-.37,10.84,3.37,20.5,1.59,26.7-.49,1.22-.41,2.49-.61,3.77-.54h0c5.04.21,9.11,4.07,9.27,8.79l1.11,33.64c.12,3.66-2.09,7.01-5.64,8.53-8.07,3.46-15.54,4.7-22.09,4.7ZM152.05,882.06c-.59,0-1.18.12-1.72.35-1.23.53-1.98,1.52-2.02,2.66l-1.05,33.13c-.04,1.15.67,2.19,1.85,2.74,6.97,3.25,21.27,7.57,38.91,0,1.26-.54,2.04-1.65,2-2.82l-1.1-33.64c-.06-1.78-1.84-2.92-3.53-2.99h0c-.54-.02-1.08.05-1.6.23-7.04,2.37-18.03,4.39-30.4.54-.44-.14-.89-.2-1.34-.2Z" fill="#2b2b2b"/><path d="M194.54,772.43c-2.04,0-4.08-.12-6.12-.36-1.65-.19-2.82-1.68-2.63-3.33.19-1.65,1.69-2.82,3.33-2.63,9.04,1.05,18.06-.54,26.81-4.73,1.23-.59,1.97-1.73,1.88-2.9l-2.5-33.56c-.13-1.78-1.96-2.84-3.65-2.84-.54,0-1.08.1-1.59.3-6.54,2.51-13.25,3.64-19.97,3.37-1.66-.07-2.94-1.46-2.88-3.12s1.45-2.91,3.12-2.88c5.9.24,11.81-.77,17.58-2.98,1.19-.46,2.46-.7,3.74-.7,5.05,0,9.28,3.69,9.63,8.39l2.5,33.56c.27,3.65-1.8,7.09-5.28,8.76-7.82,3.75-15.86,5.63-23.97,5.63Z" fill="#2b2b2b"/><path d="M610.15,768.8s-.08,0-.12,0c-7.37-.28-14.7-2.12-21.78-5.47-3.49-1.65-5.58-5.07-5.32-8.73l2.32-33.57c.33-4.71,4.54-8.42,9.59-8.45,1.27,0,2.55.22,3.75.68,3.48,1.32,7.08,2.2,10.7,2.63,1.65.2,2.82,1.69,2.63,3.33-.19,1.65-1.68,2.81-3.33,2.63-4.09-.48-8.17-1.49-12.12-2.97-.52-.2-1.04-.33-1.6-.29-1.69,0-3.51,1.08-3.63,2.87l-2.32,33.57c-.08,1.17.66,2.31,1.9,2.89,6.34,3,12.89,4.65,19.44,4.9,1.66.06,2.95,1.46,2.88,3.11-.06,1.62-1.39,2.89-3,2.89Z" fill="#2b2b2b"/><path d="M599.03,549H191.79c-8.27,0-15.97-3.62-21.13-9.92-4.96-6.07-6.93-13.91-5.39-21.53l14.2-70.27c2.5-12.4,13.73-21.4,26.69-21.4h378.5c12.96,0,24.18,9,26.69,21.4l14.2,70.27c1.54,7.62-.42,15.46-5.39,21.53-5.16,6.3-12.86,9.92-21.13,9.92ZM206.16,431.89c-10.11,0-18.86,6.97-20.8,16.58l-14.2,70.27c-1.18,5.84.33,11.87,4.15,16.54,4.01,4.91,10.02,7.72,16.48,7.72h407.23c6.46,0,12.47-2.81,16.49-7.72,3.82-4.67,5.33-10.7,4.15-16.54l-14.2-70.27c-1.94-9.61-10.69-16.58-20.8-16.58H206.16Z" fill="#2b2b2b"/><path d="M601.5,568.52H190.59c-22.74,0-25.37-19.04-25.37-33.37v-17c0-1.66,1.34-3,3-3s3,1.34,3,3v17c0,19.44,5.61,27.37,19.37,27.37h410.91c13.76,0,19.37-7.93,19.37-27.37v-9.46c0-1.66,1.34-3,3-3s3,1.34,3,3v9.46c0,14.33-2.63,33.37-25.37,33.37Z" fill="#2b2b2b"/><path d="M584.22,245.47H211.38c-16.15,0-29.29-13.14-29.29-29.29v-86.64c0-36.91,30.03-66.93,66.93-66.93h297.56c36.91,0,66.93,30.03,66.93,66.93v86.64c0,16.15-13.14,29.29-29.29,29.29ZM249.02,68.61c-33.6,0-60.93,27.33-60.93,60.93v86.64c0,12.84,10.45,23.29,23.29,23.29h372.85c12.84,0,23.29-10.45,23.29-23.29v-86.64c0-33.6-27.33-60.93-60.93-60.93H249.02Z" fill="#2b2b2b"/><path d="M200.62,429.5c-1.66,0-3-1.34-3-3v-185.62c0-1.66,1.34-3,3-3s3,1.34,3,3v185.62c0,1.66-1.34,3-3,3Z" fill="#2b2b2b"/><path d="M223.33,429.5c-1.66,0-3-1.34-3-3v-182.84c0-1.66,1.34-3,3-3s3,1.34,3,3v182.84c0,1.66-1.34,3-3,3Z" fill="#2b2b2b"/><path d="M571.08,431.89c-1.66,0-3-1.34-3-3v-185.23c0-1.66,1.34-3,3-3s3,1.34,3,3v185.23c0,1.66-1.34,3-3,3Z" fill="#2b2b2b"/><path d="M597.37,434.28c-1.66,0-3-1.34-3-3v-191.2c0-1.66,1.34-3,3-3s3,1.34,3,3v191.2c0,1.66-1.34,3-3,3Z" fill="#2b2b2b"/><path d="M151.28,882.4s-.04,0-.07,0c-1.66-.04-2.97-1.41-2.93-3.07.05-2.23,4.91-223.94,4.91-268.8s15.13-58.1,15.78-58.58c1.33-.99,3.21-.7,4.2.63.98,1.32.71,3.18-.6,4.17-.3.25-13.37,11.27-13.37,53.78,0,44.92-4.87,266.7-4.91,268.93-.04,1.63-1.37,2.93-3,2.93Z" fill="#2b2b2b"/><path d="M185.51,881.5s-.06,0-.09,0c-1.66-.05-2.96-1.43-2.91-3.08.06-1.94,5.55-194.5,5.55-252.94s14.4-62.26,17.29-62.29l.06,6s.1.02.27-.02c-.12.03-11.62,3.08-11.62,56.31,0,58.52-5.5,251.17-5.56,253.11-.05,1.63-1.38,2.91-3,2.91Z" fill="#2b2b2b"/><path d="M648,888.15c-1.63,0-2.97-1.31-3-2.95-.04-2.23-4.07-223.98-4.91-268.86-.89-47.14-17.54-64.96-17.71-65.13-1.15-1.19-1.12-3.09.06-4.24,1.18-1.15,3.07-1.13,4.23.04.75.77,18.48,19.39,19.42,69.21.85,44.89,4.87,266.63,4.91,268.87.03,1.66-1.29,3.02-2.94,3.05h-.06Z" fill="#2b2b2b"/><path d="M613.76,887.24c-1.62,0-2.95-1.29-3-2.91-.06-1.94-5.56-194.59-5.56-253.11,0-55.12-14.33-62.45-14.48-62.52l.11.04,2.11-5.62c1.87.7,18.26,8.58,18.26,68.09s5.5,251,5.55,252.94c.05,1.66-1.26,3.04-2.91,3.08-.03,0-.06,0-.09,0Z" fill="#2b2b2b"/><path d="M174.56,470.99c-1.64,0-2.97-1.31-3-2.95l-4.78-307.12s0-.08,0-.12c1.83-76.95,36.94-82.76,38.43-82.97,1.64-.24,3.16.91,3.39,2.55.23,1.63-.9,3.14-2.53,3.38-.19.03-7.92,1.42-15.78,11.24-7.49,9.35-16.61,28.37-17.51,65.88l4.78,307.06c.03,1.66-1.3,3.02-2.95,3.05h-.05Z" fill="#2b2b2b"/><path d="M622.6,521.15h-.02c-1.66-.01-2.99-1.36-2.98-3.02l2.48-357.28c0-.09,0-.18.01-.28,2.59-26.12-2.85-47.91-15.72-62.99-9.72-11.39-20.38-15.1-20.49-15.13-1.57-.53-2.41-2.23-1.88-3.8.53-1.57,2.22-2.42,3.79-1.89.49.16,12.11,4.14,22.91,16.64,9.84,11.4,20.84,32.38,17.38,67.62l-2.47,357.14c-.01,1.65-1.35,2.98-3,2.98Z" fill="#2b2b2b"/><path d="M211.66,722.08c-1.65,0-3-1.34-3-2.99l-.35-153.99c0-1.66,1.34-3,2.99-3.01h0c1.65,0,3,1.34,3,2.99l.35,153.99c0,1.66-1.34,3-2.99,3.01h0Z" fill="#2b2b2b"/><path d="M593.44,718.58c-1.65,0-2.99-1.33-3-2.98l-1-149.59c-.01-1.66,1.32-3.01,2.98-3.02h.02c1.65,0,2.99,1.33,3,2.98l1,149.59c.01,1.66-1.32,3.01-2.98,3.02h-.02Z" fill="#2b2b2b"/><path d="M231.39,122.29c-8.38,0-15.19-6.82-15.19-15.19s6.82-15.19,15.19-15.19,15.19,6.82,15.19,15.19-6.82,15.19-15.19,15.19ZM231.39,95.4c-6.45,0-11.69,5.25-11.69,11.69s5.25,11.69,11.69,11.69,11.69-5.25,11.69-11.69-5.25-11.69-11.69-11.69Z" fill="#2b2b2b"/><path d="M219.29,223.57c-8.38,0-15.19-6.82-15.19-15.19s6.82-15.19,15.19-15.19,15.19,6.82,15.19,15.19-6.82,15.19-15.19,15.19ZM219.29,196.68c-6.45,0-11.69,5.25-11.69,11.69s5.25,11.69,11.69,11.69,11.69-5.25,11.69-11.69-5.25-11.69-11.69-11.69Z" fill="#2b2b2b"/><path d="M568.61,122.29c-8.38,0-15.19-6.82-15.19-15.19s6.82-15.19,15.19-15.19,15.19,6.82,15.19,15.19-6.82,15.19-15.19,15.19ZM568.61,95.4c-6.45,0-11.69,5.25-11.69,11.69s5.25,11.69,11.69,11.69,11.69-5.25,11.69-11.69-5.25-11.69-11.69-11.69Z" fill="#2b2b2b"/><path d="M580.71,223.57c-8.38,0-15.19-6.82-15.19-15.19s6.82-15.19,15.19-15.19,15.19,6.82,15.19,15.19-6.82,15.19-15.19,15.19ZM580.71,196.68c-6.45,0-11.69,5.25-11.69,11.69s5.25,11.69,11.69,11.69,11.69-5.25,11.69-11.69-5.25-11.69-11.69-11.69Z" fill="#2b2b2b"/><path d="M210.37,457.22c-7.46,0-13.3-3.54-13.3-8.05s5.84-8.05,13.3-8.05,13.3,3.54,13.3,8.05-5.84,8.05-13.3,8.05ZM210.37,444.62c-5.61,0-9.8,2.4-9.8,4.55s4.19,4.55,9.8,4.55,9.8-2.4,9.8-4.55-4.19-4.55-9.8-4.55Z" fill="#2b2b2b"/><path d="M197.03,523.54c-7.46,0-13.3-3.54-13.3-8.05s5.84-8.05,13.3-8.05,13.3,3.54,13.3,8.05-5.84,8.05-13.3,8.05ZM197.03,510.95c-5.61,0-9.8,2.4-9.8,4.55s4.19,4.55,9.8,4.55,9.8-2.4,9.8-4.55-4.19-4.55-9.8-4.55Z" fill="#2b2b2b"/><path d="M577.25,457.22c-7.46,0-13.3-3.54-13.3-8.05s5.84-8.05,13.3-8.05,13.3,3.54,13.3,8.05-5.84,8.05-13.3,8.05ZM577.25,444.62c-5.61,0-9.8,2.4-9.8,4.55s4.19,4.55,9.8,4.55,9.8-2.4,9.8-4.55-4.19-4.55-9.8-4.55Z" fill="#2b2b2b"/><path d="M594.97,523.54c-7.46,0-13.3-3.54-13.3-8.05s5.84-8.05,13.3-8.05,13.3,3.54,13.3,8.05-5.84,8.05-13.3,8.05ZM594.97,510.95c-5.61,0-9.8,2.4-9.8,4.55s4.19,4.55,9.8,4.55,9.8-2.4,9.8-4.55-4.19-4.55-9.8-4.55Z" fill="#2b2b2b"/></svg>