<?xml version="1.0" encoding="UTF-8"?><svg id="_レイヤー_6" xmlns="http://www.w3.org/2000/svg" width="2000" height="1600" viewBox="0 0 2000 1600"><path d="M1778.17,1399.32H221.83c-62.94,0-114.14-51.2-114.14-114.14V314.82c0-62.94,51.2-114.14,114.14-114.14h1556.33c62.94,0,114.14,51.2,114.14,114.14v970.36c0,62.94-51.2,114.14-114.14,114.14ZM221.83,206.68c-59.63,0-108.14,48.51-108.14,108.14v970.36c0,59.63,48.51,108.14,108.14,108.14h1556.33c59.63,0,108.14-48.51,108.14-108.14V314.82c0-59.63-48.51-108.14-108.14-108.14H221.83Z" fill="#2b2b2b"/><path d="M734.87,1149.92l-1.78-690.18,532.06-1.37,1.78,690.18-532.06,1.37ZM736.6,463.24l1.76,683.18,525.06-1.35-1.76-683.18-525.06,1.35Z" fill="#2b2b2b"/><path d="M736.62,1208.44c-20.88,0-37.89-16.96-37.95-37.85l-1.91-739.61c-.05-20.92,16.92-37.99,37.85-38.04l528.67-1.36h.1c20.88,0,37.89,16.96,37.95,37.85l1.91,739.61c.05,20.92-16.92,37.99-37.85,38.04l-528.67,1.36h-.1ZM1265.37,1201.07v3s0-3,0-3c17.62-.05,31.91-14.41,31.86-32.03l-1.91-739.61c-.05-17.59-14.37-31.86-31.95-31.86h-.08l-528.67,1.36c-17.62.05-31.91,14.41-31.86,32.03l1.91,739.61c.05,17.59,14.37,31.86,31.95,31.86h.08l528.67-1.36Z" fill="#2b2b2b"/><path d="M445.56,969.63v-96.42H170.55v-146.43h275.01v-96.42l186.9,169.63-186.9,169.63ZM176.55,867.22h275.01v88.87l171.97-156.09-171.97-156.09v88.87H176.55v134.43Z" fill="#2b2b2b"/><path d="M1554.44,969.63l-186.9-169.63,186.9-169.63v96.42h275.01v146.43h-275.01v96.42ZM1376.46,800l171.97,156.09v-88.87h275.01v-134.43h-275.01v-88.87l-171.97,156.09Z" fill="#2b2b2b"/></svg>