<?xml version="1.0" encoding="UTF-8"?><svg id="_レイヤー_19" xmlns="http://www.w3.org/2000/svg" width="1000" height="1600" viewBox="0 0 1000 1600"><path d="M639.99,1027.19c-1.19,0-2.32-.71-2.79-1.88-.62-1.54.13-3.28,1.67-3.9l71.54-28.67c1.54-.62,3.29.13,3.9,1.67.62,1.54-.13,3.28-1.67,3.9l-71.54,28.67c-.37.15-.74.22-1.12.22Z" fill="#2b2b2b"/><path d="M554.08,1052.46c-1.23,0-2.38-.76-2.82-1.98-.56-1.56.25-3.28,1.8-3.84,12.01-4.33,42.42-12.76,57.04-16.81,4.37-1.21,8.15-2.26,8.65-2.43,1.56-.52,3.26.29,3.81,1.83.55,1.54-.22,3.23-1.76,3.8-.48.18-2.15.65-9.1,2.57-14.54,4.03-44.81,12.42-56.6,16.67-.34.12-.68.18-1.02.18Z" fill="#2b2b2b"/><path d="M643.11,1066.95c-1.22,0-2.37-.75-2.82-1.96-.57-1.56.22-3.28,1.78-3.85l68.97-25.37c1.56-.57,3.28.23,3.85,1.78.57,1.56-.22,3.28-1.78,3.85l-68.97,25.37c-.34.13-.69.19-1.04.19Z" fill="#2b2b2b"/><path d="M555.24,1094.6c-1.35,0-2.58-.92-2.91-2.3-.39-1.61.6-3.23,2.21-3.62,9.86-2.38,17.44-4.96,26.22-7.96,10.71-3.65,22.86-7.8,42.35-12.62,1.61-.4,3.24.58,3.63,2.19.4,1.61-.58,3.24-2.19,3.63-19.24,4.76-31.25,8.86-41.85,12.47-8.92,3.04-16.62,5.67-26.75,8.11-.24.06-.47.08-.71.08Z" fill="#2b2b2b"/><path d="M767.03,1453.27c-1.15,0-2.24-.66-2.74-1.78-.68-1.51,0-3.29,1.52-3.96l42.42-18.95c19.4-8.68,35.11-23.77,48.04-46.14,5.42-9.36,10.45-20.02,15.83-33.56,85.64-215.46,23.19-413.81-21.66-512.87-5.63-12.45-11.58-24.67-17.68-36.32-6.14-11.73-12.47-22.97-18.83-33.42-1.8-2.96-3.68-5.99-5.6-9.02-15.28-23.14-51.03-57.72-79.15-58.31-1.66-.03-2.97-1.41-2.94-3.06.03-1.64,1.37-2.94,3-2.94.02,0,.04,0,.06,0,30.61.64,67.58,36.08,84.06,61.05,1.97,3.11,3.87,6.17,5.69,9.17,6.42,10.56,12.82,21.91,19.01,33.75,6.15,11.75,12.15,24.07,17.83,36.62,22.73,50.21,51.86,130.06,61.57,225.35,10.33,101.44-3.06,199.75-39.81,292.2-5.49,13.81-10.64,24.73-16.21,34.35-13.58,23.5-30.19,39.4-50.78,48.61l-42.42,18.95c-.4.18-.81.26-1.22.26Z" fill="#2b2b2b"/><path d="M764.65,1342.73c-.83,0-1.65-.34-2.25-1.01-1.1-1.24-.98-3.14.26-4.23,30.71-27.2,50.07-94.53,53.12-184.71,2.24-66.13-4.56-136.82-19.13-199.06-15.81-67.51-39.03-118.28-67.14-146.8-1.16-1.18-1.15-3.08.03-4.24,1.18-1.16,3.08-1.15,4.24.03,63.38,64.31,92.24,224.89,88,350.28-3.11,91.82-23.2,160.7-55.14,188.99-.57.51-1.28.75-1.99.75Z" fill="#2b2b2b"/><path d="M853.11,837.81c-.9,0-1.79-.41-2.38-1.18-37.53-49.08-93.25-91.06-121.54-76.36l-.38.2c-1.48.75-3.28.15-4.03-1.33-.75-1.48-.15-3.28,1.33-4.03l.35-.18c15.4-8,37.54-2.8,63.99,15.06,22.17,14.97,45.88,37.93,65.05,63,1.01,1.32.76,3.2-.56,4.21-.54.42-1.18.62-1.82.62Z" fill="#2b2b2b"/><path d="M423.2,999.58c-13.7,0-27.48-.57-41.32-1.72-11.32-.94-25.05-1.82-39.58-2.75-32.05-2.06-68.38-4.4-103.35-8.62-10.29-1.24-19.98-2.59-28.8-4.02-98.98-15.98-103.09-39.9-103.21-42.91-7.72-137.14,94.4-165.42,125.88-170.83,1.63-.28,3.18.82,3.46,2.45s-.82,3.18-2.45,3.46c-30.25,5.19-128.35,32.41-120.9,164.59.12.69,4.85,22.25,98.17,37.31,8.74,1.41,18.34,2.75,28.56,3.98,34.8,4.2,71.04,6.53,103.02,8.59,14.56.94,28.32,1.82,39.69,2.76,37.94,3.15,75.53,1.92,111.71-3.64,24.07-3.7,42.99-8.62,56.26-14.61,1.51-.68,3.29,0,3.97,1.5.68,1.51.01,3.29-1.5,3.97-13.76,6.21-33.21,11.29-57.82,15.07-23.44,3.61-47.47,5.42-71.8,5.42ZM112.94,939.36h0ZM112.94,939.31h0s0,0,0,0ZM112.93,939.24s0,0,0,.02c0,.02,0,.04,0,.05,0-.02,0-.04,0-.06Z" fill="#2b2b2b"/><path d="M629.82,1079.49c-2.23,0-4.42-.73-6.54-2.19-.73-.5-1.2-1.3-1.29-2.18l-.38-3.89s0-.05,0-.08l-3.83-39.62c-.07-.68.1-1.37.48-1.94.3-.46.62-.9.92-1.3,8-10.81,16.36-8.36,19.58-6.8.12.06.23.11.33.17.63-.13,1.3-.04,1.9.25.95.47,1.58,1.39,1.67,2.44l3.2,38.7c.01.17.01.33,0,.5-.14,1.73-.41,2.3-.53,2.54-1.25,2.59-4.67,8.86-9.76,11.78-1.09.63-2.17,1.07-3.3,1.33-.81.19-1.62.29-2.43.29ZM627.8,1073.01c1.05.48,2.05.59,3.09.35.55-.13,1.08-.35,1.66-.68,3.58-2.05,6.31-7.06,7.23-8.92.02-.12.04-.3.06-.47l-2.98-36.02c-.12-.06-.25-.12-.38-.19-.12-.06-.24-.13-.38-.2-4.12-1.99-8.2-.31-12.12,4.99,0,0,0,.01-.01.02-.04.06-.08.11-.13.17l3.73,38.59s0,.05,0,.08l.22,2.28ZM621.57,1030.09h0,0ZM638.02,1022.09s0,0,0,0c0,0,0,0,0,0Z" fill="#2b2b2b"/><path d="M662.44,1170.91c-.17,0-.34-.01-.51-.04l-36.2-6.18c-1.51-.26-2.58-1.61-2.49-3.14l5.36-85.86c.06-1.37,1.03-2.52,2.37-2.81l19.33-4.18c.83-.18,1.71,0,2.39.5.69.5,1.14,1.27,1.22,2.12l5.37,51.6,14.36,21.22c.55.82.67,1.86.31,2.78l-8.72,22.1c-.46,1.16-1.58,1.9-2.79,1.9ZM629.4,1159.22l31.14,5.32,7.25-18.36-13.89-20.53c-.28-.41-.45-.88-.5-1.37l-5.1-49.02-13.6,2.94h0l-.23.05-5.06,80.97ZM634.06,1075.27h0,0Z" fill="#2b2b2b"/><path d="M239.31,985.28h-.01c-.96,0-1.74-.77-1.74-1.73v-.04l3.16-211c.01-.96.79-1.72,1.75-1.72h.03c.97.01,1.74.81,1.72,1.78l-3.16,210.97c-.01.96-.79,1.74-1.75,1.74Z" fill="#2b2b2b"/><path d="M727.33,1476.64c-.37,0-.74,0-1.11,0-1.66-.02-2.98-1.39-2.96-3.04.02-1.66,1.35-2.95,3.04-2.96,19.22.26,31.75-7.01,37.21-21.65,3.49-9.33,2.67-18.32,2.67-18.41,0-.04,0-.08,0-.11l-5.56-90.49-33.02-526.3c-.04-.51-.25-3.47-.56-8.58-.61-9.71-1.49-25.82-2.22-47.38-.69-20.07-1.11-40.84-1.23-61.72-.52-86.14,3.79-167.05,12.79-240.49,12.48-101.8,33.75-185.77,63.23-249.58,2.83-6.12,3.39-12.07,1.47-15.53-1.18-2.13-3.27-3.37-6.39-3.76-13.71-1.74-29.74-3.63-47.64-5.62-19.19-2.14-41.72-4.53-66.95-7.1-52.86-5.36-116.54-11.41-189.27-17.96-22.04-1.98-44.21-3.95-67.78-6.02-22.3-1.94-36.47-3.15-38.32-3.31-73.45,4.06-121.05,83.38-141.47,235.77-16.77,125.11-10.88,265.08-7.72,340.28,1.1,26.15,1.61,39.41,1.23,45.67,1.76-.09,3.72-.13,5.23.27,1.6.43,2.55,2.07,2.13,3.67s-2.07,2.55-3.67,2.13c-.86-.23-3.01-.1-4.31-.02-1.85.11-2.87.17-3.81-.2-.04-.02-.08-.03-.11-.05-1.59-.71-2.31-2.5-1.64-4.08.84-2.71-.03-23.29-1.03-47.13-3.17-75.38-9.07-215.7,7.77-341.33,20.88-155.8,70.44-236.87,147.31-240.97.14,0,.28,0,.42,0,0,0,14.57,1.24,38.55,3.33,23.57,2.07,45.75,4.04,67.8,6.02,72.75,6.55,136.45,12.6,189.33,17.96,25.26,2.57,47.8,4.96,67.01,7.1,17.93,1.99,33.99,3.89,47.74,5.64,6.32.81,9.41,4.15,10.88,6.81,2.91,5.26,2.45,12.9-1.28,20.96-67.33,145.73-76.18,368-75.46,487.52.12,20.83.54,41.54,1.23,61.55.73,21.49,1.61,37.54,2.22,47.22.31,5.07.52,8.01.56,8.54l33.02,526.34,5.56,90.45c.09.97.85,10.68-3.02,21.03-4.36,11.71-15.16,25.56-41.8,25.56ZM236.16,772.16c-.02.07-.05.13-.07.19.03-.06.05-.13.07-.19Z" fill="#2b2b2b"/><path d="M532.91,1549.7c-14.73,0-33.41-1.35-54.08-6l-58.58-10.76-248.96-44.72c-.06-.01-.12-.02-.18-.04l-48.63-11.81c-3.25-.6-6.43-1.4-9.44-2.39-.09-.03-.18-.05-.27-.08-.05-.01-.1-.03-.15-.05-18.09-5.98-30.43-22.98-30.71-42.3l-2.74-221.05c-.74-19.47,13.29-38.94,13.89-39.75.98-1.34,2.85-1.63,4.19-.66,1.34.97,1.63,2.85.66,4.19-.13.18-13.4,18.63-12.74,36.07l2.74,221.12c.24,16.74,10.91,31.48,26.54,36.67.06.02.12.04.17.05.08.02.13.04.2.06,2.8.92,5.76,1.67,8.81,2.23.06,0,.11.02.17.04l48.62,11.81,248.88,44.7,58.65,10.77s.08.01.12.02c27.92,6.29,52.13,6.4,67.52,5.39,8.97-.59,14.77-1.57,16.12-1.82l144.99-62.46c.05-.02.1-.04.16-.06,4.87-1.78,9.09-4.41,12.56-7.82,15.72-15.4,12.44-42.43,12.41-42.7,0-.07-.02-.15-.02-.22l-22.93-432.59-9.73-183.67c-.26-4.86-4.05-8.81-8.83-9.2-3.2-.27-6.42-.33-9.59-.19-2.65.11-5.32.37-7.93.77-44.23,6.71-74.54,53.33-92.17,91.25-18.42,39.62-27.22,78.29-28.07,82.15l1.07,114.92,4.09,444.99c.01,1.66-1.32,3.01-2.97,3.03h-.03c-1.64,0-2.98-1.33-3-2.97l-4.09-444.99-1.07-115.26c0-.22.02-.44.07-.65.09-.41,8.94-41.49,28.52-83.65,11.55-24.86,24.53-45.27,38.58-60.65,17.78-19.47,37.35-30.94,58.17-34.1,2.82-.43,5.7-.71,8.57-.83,3.42-.15,6.9-.08,10.34.21,7.74.62,13.91,7.01,14.33,14.86l9.73,183.67,22.92,432.48c.29,2.37,3.27,30.54-14.17,47.63-4.06,3.99-8.98,7.07-14.62,9.14l-145.23,62.56c-.2.08-.4.15-.61.19-.26.05-6.51,1.27-17.18,1.97-4.38.29-9.45.49-15.1.49Z" fill="#2b2b2b"/><path d="M523.1,1543.44c-.96,0-1.74-.77-1.75-1.74l-2.14-280.86c-.15-19.92-15.18-36.77-34.95-39.2l-333.49-40.84c-22.8-2.79-61.67,8.58-66.56,29.41-.22.94-1.17,1.52-2.1,1.3-.94-.22-1.52-1.16-1.3-2.1,5.39-22.96,45.79-35.1,70.4-32.09l333.49,40.84c21.51,2.64,37.86,20.97,38.03,42.64l2.14,280.86c0,.97-.77,1.76-1.74,1.76h-.01Z" fill="#2b2b2b"/><path d="M547.57,1545.61c-.95,0-1.73-.77-1.75-1.72l-4.87-313.12c-4.05-35.11-41.58-37.8-43.18-37.9-.03,0-.07,0-.1,0l-319.75-38.42c-42.36-5.37-66.33.2-80.16,18.6-.58.77-1.68.93-2.45.35-.77-.58-.93-1.68-.35-2.45,14.68-19.55,39.62-25.52,83.39-19.97l319.7,38.41c1.86.14,42.13,3.63,46.39,41.07,0,.06.01.11.01.17l4.87,313.21c.01.97-.76,1.76-1.72,1.78h-.03Z" fill="#2b2b2b"/><path d="M466.42,1085.59c-59.28,0-125.78-5.26-198.48-15.73-77.49-11.16-141.25-25.33-168.47-31.38l-4.81-1.07c-1.68-.37-3.14-1.34-4.09-2.75-.54-.8-.33-1.89.46-2.43.8-.55,1.89-.33,2.43.46.32.47.91,1.07,1.94,1.29l4.82,1.07c167.43,37.22,309.37,52.47,421.88,45.33,9.05-.58,18.24-12.12,22.96-22.59.4-.88,1.43-1.27,2.31-.88.88.4,1.27,1.43.88,2.31-3.96,8.79-13.87,23.87-25.92,24.65-17.84,1.13-36.49,1.7-55.91,1.7Z" fill="#2b2b2b"/><path d="M91.15,1034.18c-1.53,0-2.84-1.18-2.99-2.74-.02-.2-.03-.43-.03-.63,0-2.59,1.22-4.95,3.36-6.47.11-.08.23-.15.35-.21l19.3-10.14c1.47-.77,3.28-.21,4.05,1.26.77,1.47.21,3.28-1.26,4.05l-19.08,10.02c-.62.51-.71,1.14-.71,1.49v.1c.16,1.65-1.04,3.09-2.69,3.25-.1,0-.19.01-.29.01Z" fill="#2b2b2b"/><path d="M475.6,1060.14c-87.13,0-169.03-8.77-227.45-17.17-80.31-11.54-134.76-24.88-135.3-25.01-.94-.23-1.51-1.18-1.28-2.12.23-.94,1.18-1.51,2.12-1.28.54.13,54.86,13.43,135.01,24.95,73.95,10.63,185.63,21.86,297.74,15.05l1.14-.08c.94-.07,1.81.65,1.88,1.61s-.65,1.81-1.61,1.88l-1.17.08c-23.83,1.45-47.65,2.08-71.08,2.08Z" fill="#2b2b2b"/><path d="M542.7,1232.4c-.9,0-1.66-.69-1.74-1.6l-12.73-147.2c-.08-.96.63-1.81,1.59-1.89.95-.09,1.81.63,1.89,1.59l12.73,147.2c.08.96-.63,1.81-1.59,1.89-.05,0-.1,0-.15,0Z" fill="#2b2b2b"/><path d="M95.55,1174.37c-1.63,0-2.96-1.3-3-2.94-.94-43.94-3.85-122.34-4.42-137.61l-.1-2.54s0-.08,0-.12v-.1s0-.05,0-.08c-.02-.23-.01-.33-.01-.33h6s0-.04,0-.14c0,.08.01.21.01.3,0,.08,0,.18,0,.28l.1,2.49c.57,15.29,3.48,93.73,4.42,137.72.04,1.66-1.28,3.03-2.93,3.06-.02,0-.04,0-.07,0Z" fill="#2b2b2b"/><path d="M113.26,1019.26c-1.46,0-2.73-1.06-2.96-2.54-5.7-37.03-3.38-77.07-3.36-77.47.1-1.65,1.51-2.91,3.17-2.81,1.65.1,2.91,1.52,2.81,3.17-.02.39-2.3,39.82,3.3,76.19.25,1.64-.87,3.17-2.51,3.42-.16.02-.31.04-.46.04Z" fill="#2b2b2b"/><path d="M678.07,799.99s-.08,0-.12,0l-3.86-.25-405.22-25.93c-3.55-.36-6.73-.36-9.51,0-10.01,1.29-13.21,7.22-15.54,11.55-.08.17-.19.38-.32.58-.49.83-1.56,1.11-2.4.61-.83-.49-1.11-1.57-.61-2.4.08-.13.15-.27.22-.41,3.26-6.04,7.32-12.01,18.2-13.42,3.05-.39,6.49-.39,10.24,0l405.15,25.92,3.86.25c.96.06,1.7.89,1.63,1.86-.06.93-.83,1.64-1.74,1.64Z" fill="#2b2b2b"/><path d="M435.71,1491.12l-2.01-.36-282.77-51.09,3.4-186.24,286.84,35.15-5.47,202.55ZM154.5,1436.75l277.83,50.2,5.27-195.29-279.82-34.29-3.28,179.38Z" fill="#2b2b2b"/><path d="M685.29,112.96c-.27,0-.54-.02-.81-.06l-133.52-18.37c-2.89-.4-5.03-2.81-5.07-5.74-.02-1.6.63-3.16,1.8-4.28l33.7-32.56c1.28-1.24,3.11-1.84,4.88-1.59l133.52,18.37c2.24.31,4.07,1.84,4.77,3.98.7,2.15.13,4.46-1.49,6.03l-33.7,32.57c-1.12,1.07-2.57,1.64-4.07,1.64ZM552.06,88.63l133.18,18.32,1.49-1.45s0,0,0,0l31.94-30.87-133.17-18.32-33.45,32.32Z" fill="#2b2b2b"/><path d="M423.47,147.9c-.66,0-1.33-.22-1.89-.67-1.29-1.04-1.49-2.93-.44-4.22,16.65-20.57,37.14-35.05,60.91-43.05,19.22-6.47,36.34-7.29,47.54-7.34,4.14-.02,8.21-1.12,11.79-3.18l5.67-3.28c1.43-.83,3.27-.34,4.1,1.09.83,1.43.34,3.27-1.09,4.1l-5.67,3.28c-4.48,2.58-9.58,3.96-14.76,3.98-16.09.08-65.08.32-103.81,48.17-.59.73-1.46,1.11-2.33,1.11Z" fill="#2b2b2b"/><path d="M747.62,178.67c-1.36,0-2.6-.94-2.92-2.32-6.68-28.73-35.96-43.81-52.82-50.24-3.41-1.3-6.05-4.01-7.25-7.45-1.2-3.44-.82-7.2,1.03-10.34l1.03-1.74c.85-1.42,2.69-1.89,4.11-1.04,1.42.85,1.89,2.69,1.04,4.11l-1.03,1.73c-.95,1.6-1.14,3.53-.53,5.29.62,1.76,1.98,3.16,3.73,3.83,17.97,6.86,49.21,23.05,56.52,54.48.38,1.61-.63,3.23-2.24,3.6-.23.05-.46.08-.68.08Z" fill="#2b2b2b"/><path d="M680.4,173.74c-.71,0-1.42-.25-1.99-.75-44.99-39.77-93.05-43.04-125.45-38.77-35.18,4.63-59.92,18.8-60.17,18.95-1.43.83-3.27.34-4.1-1.09-.83-1.43-.34-3.27,1.09-4.1,1.05-.61,26.03-14.92,62.4-19.71,33.64-4.43,83.53-1.04,130.21,40.22,1.24,1.1,1.36,2.99.26,4.24-.59.67-1.42,1.01-2.25,1.01Z" fill="#2b2b2b"/><path d="M662.72,98.32c-.12,0-.24,0-.36-.02,0,0,0,0,0,0l-73.88-10.16c-1.07-.15-1.93-.88-2.25-1.9-.32-1.01-.04-2.09.72-2.82l19.29-18.64c.59-.59,1.47-.88,2.33-.74l73.84,10.15c1.04.14,1.9.85,2.24,1.86.33,1.02.07,2.11-.7,2.85l-19.31,18.65c-.52.5-1.21.77-1.92.77ZM590.47,84.87l72,9.9,17.95-17.33-72.01-9.9-17.94,17.33ZM589.38,85.93h0s0,0,0,0ZM681.94,77.65s0,0,0,0h0ZM608.06,67.49s.02,0,.03,0h-.03ZM608.7,67.27l-.02.02s.01-.01.02-.02Z" fill="#2b2b2b"/><path d="M674.37,802.05c-.91,0-1.68-.71-1.74-1.63l-.06-.89c-.03-.46-.07-.94-.1-1.43-2.27-36.33.58-134.97,6.62-229.45,4.47-69.93,14.53-198.05,31.62-270.38,1.19-5.04.16-10.36-2.83-14.59-2.98-4.21-7.62-6.94-12.75-7.5l-360.58-39.32c-.06,0-.12-.02-.18-.03-6.1-1.32-12.15.72-17.99,6.05-23.08,21.09-42.37,93.46-51.6,193.58-9.61,104.31-7.45,226.56,5.94,335.38.12.96-.56,1.83-1.52,1.95-.96.11-1.83-.56-1.95-1.52-13.42-109.07-15.58-231.58-5.95-336.13,9.44-102.47,28.66-173.85,52.72-195.84,6.69-6.12,13.76-8.44,21-6.91l360.49,39.31c6.12.67,11.67,3.93,15.23,8.96,3.57,5.04,4.8,11.39,3.38,17.41-29.53,124.95-42.11,435.36-38.16,498.81.03.48.06.94.09,1.39l.06.91c.06.96-.66,1.8-1.63,1.86-.04,0-.08,0-.12,0Z" fill="#2b2b2b"/></svg>