<?xml version="1.0" encoding="UTF-8"?><svg id="_レイヤー_7" xmlns="http://www.w3.org/2000/svg" width="1000" height="1000" viewBox="0 0 1000 1000"><path d="M715.34,842.67c-1.36,0-2.6-.94-2.92-2.32-6.25-26.91-15.38-64.02-25.94-106.99-14.92-60.67-31.83-129.43-47.51-197.18-18.94-81.93-31.72-143.63-39.05-188.62-11.85-72.74-7.2-87.75-.52-91.23,6.46-8.9,12.05-16.77,17.46-24.38,15.54-21.87,27.82-39.15,47.84-62.72,18.8-22.15,18.14-54.9-1.53-76.18-1.09-1.19-2.24-2.33-3.41-3.4-35.86-32.85-101.55-53.26-171.44-53.26-75.14,0-143.16,22.71-177.51,59.25-18.53,19.73-20.67,50.14-5.07,72.33,23.54,33.48,42.53,55.21,73.57,88.27,6.12,3.1,10.89,17.76,2.99,91.67-4.82,45.1-13.72,106.61-27.22,188.05-10.56,63.74-22.22,129.23-31.59,181.85-11.04,62.05-19.77,111.06-20.43,122.05-.1,1.65-1.53,2.9-3.18,2.81-1.65-.1-2.91-1.52-2.81-3.18.68-11.34,9-58.07,20.51-122.74,9.36-52.61,21.02-118.08,31.57-181.78,13.48-81.33,22.37-142.73,27.18-187.71,2.86-26.77,4.24-47.71,4.11-62.23-.2-21.89-3.77-23.42-3.93-23.48-.44-.16-.85-.42-1.17-.77-31.49-33.52-50.67-55.44-74.53-89.37-17.22-24.5-14.87-58.1,5.61-79.89,35.45-37.72,105.14-61.15,181.89-61.15,35.85,0,71.13,5.19,102.01,15.02,30.09,9.58,55.5,23.34,73.48,39.81,1.3,1.19,2.57,2.45,3.77,3.76,21.72,23.5,22.45,59.68,1.69,84.13-19.85,23.38-32.06,40.56-47.52,62.32-5.55,7.81-11.29,15.89-17.97,25.08-.35.48-.83.84-1.38,1.05-.44.16-4.31,2.22-3.69,23.42.42,14.41,2.82,35.14,7.13,61.63,7.31,44.87,20.06,106.44,38.97,188.24,15.67,67.71,32.57,136.45,47.49,197.1,10.57,42.99,19.7,80.12,25.96,107.06.37,1.61-.63,3.23-2.24,3.6-.23.05-.46.08-.68.08Z" fill="#2b2b2b"/><path d="M676.94,880.92c-1.6,0-2.93-1.26-3-2.88-.08-1.93-.7-5.73-1.84-11.3-5.32-26.05-21.73-88.55-40.72-160.92-12.08-46.01-25.76-98.15-38.82-149.34-1.78-6.99-3.56-13.99-5.31-20.95-38.88-153.78-56.31-239.2-54.84-268.81.3-6.14,2.28-12.15,5.72-17.39,17.91-27.3,30.18-41.28,54.61-69.11l1.57-1.79c1.26-1.43,2.55-2.9,3.87-4.41,13.51-15.4,15.06-35.78,3.78-49.55-22.54-27.54-56.71-40.93-104.47-40.93-27.05,0-53.61,3.1-74.8,8.72-26.3,6.98-44.38,17.49-53.73,31.24-11.62,17.09-9.81,36.84,4.62,50.31,8.29,7.74,15.9,14.52,22.62,20.5,18.93,16.85,33.88,30.16,48.71,51.24,4.69,6.66,7.12,14.53,7.02,22.73-.34,30.83-14.33,115.72-44.04,267.15-1.37,6.98-2.75,13.99-4.13,21-9.58,48.5-19.62,98.14-28.47,141.94-15.6,77.18-29.07,143.83-33.1,169.69-.73,4.75-1.14,8.05-1.22,9.83-.07,1.66-1.46,2.92-3.12,2.87-1.66-.07-2.94-1.47-2.87-3.12.08-2.03.5-5.47,1.28-10.51,4.05-26,17.53-92.71,33.15-169.96,8.85-43.79,18.88-93.43,28.47-141.91,1.38-7.01,2.76-14.02,4.13-21,18.65-95.05,43.49-226.05,43.92-266.06.08-6.94-1.97-13.58-5.92-19.21-14.44-20.51-28.43-32.97-47.8-50.21-6.74-6-14.38-12.81-22.73-20.59-16.71-15.61-18.86-38.4-5.48-58.07,10.19-14.98,29.42-26.3,57.15-33.66,21.68-5.75,48.79-8.92,76.34-8.92,49.67,0,85.37,14.11,109.11,43.13,13.18,16.09,11.57,39.66-3.91,57.31-1.32,1.51-2.61,2.98-3.88,4.42l-1.57,1.79c-25.01,28.49-36.42,41.49-54.1,68.44-2.85,4.34-4.49,9.32-4.74,14.39-1.42,28.6,16.46,115.95,54.66,267.05,1.75,6.96,3.53,13.95,5.31,20.94,13.05,51.16,26.73,103.3,38.81,149.29,19.8,75.44,35.44,135.03,40.8,161.23,1.22,5.97,1.86,9.98,1.96,12.26.07,1.66-1.22,3.05-2.87,3.12-.04,0-.08,0-.13,0Z" fill="#2b2b2b"/><path d="M589.84,537.89h-184.76c-1.66,0-3-1.34-3-3s1.34-3,3-3h184.76c1.66,0,3,1.34,3,3s-1.34,3-3,3Z" fill="#2b2b2b"/><path d="M901.14,942.2h-193.17c-1.12,0-2.12-.62-2.63-1.56-6.72-1.47-12.48-6.04-15.37-12.46l-15.41-34.21c-1.77-3.95-2.81-8.13-3.1-12.43-.08-1.14-.1-2.3-.06-3.45l.3-9.77c.01-.51-.03-.99-.12-1.43-.64-3.15-3.51-5.29-6.69-5.01l-25.06,2.17c-16.07,3.77-31.59,21.26-34.2,38.49l4.73,22.17c.86,4.04-.13,8.21-2.72,11.42-2.59,3.22-6.45,5.07-10.58,5.09l-179.11.92h-.06c-4.14,0-8-1.84-10.62-5.05-2.62-3.23-3.63-7.41-2.76-11.47l4.71-22.03c-2.62-17.22-18.14-34.72-34.2-38.49l-25.07-2.17c-3.28-.28-6.24,2.04-6.74,5.28-.07.41-.09.78-.08,1.14l.3,9.77c.02.84.02,1.64-.01,2.39-.16,4.67-1.23,9.23-3.15,13.51l-15.41,34.21c-3.55,7.88-11.42,12.97-20.07,12.97H123.27c-1.66,0-3-1.34-3-3v-358.82c0-26.74,21.75-48.49,48.48-48.49h178.71c1.66,0,3,1.34,3,3s-1.34,3-3,3h-178.71c-23.42,0-42.48,19.06-42.48,42.49v355.82h178.51c6.29,0,12.02-3.7,14.59-9.43l15.41-34.21c1.61-3.57,2.49-7.36,2.63-11.27.03-.62.03-1.28,0-1.98l-.3-9.75c-.03-.75.02-1.49.15-2.27.97-6.34,6.76-10.89,13.18-10.33l25.28,2.19c.14.01.27.03.41.06,18.48,4.21,36.38,24.39,39.09,44.08.05.34.03.7-.04,1.04l-4.82,22.55c-.49,2.28.08,4.63,1.55,6.44,1.47,1.8,3.64,2.84,5.96,2.84h.03l179.11-.92c2.32-.01,4.48-1.05,5.93-2.85,1.46-1.81,2.01-4.14,1.53-6.41l-4.84-22.69c-.07-.34-.09-.69-.04-1.03,2.69-19.69,20.59-39.87,39.09-44.08.13-.03.27-.05.41-.06l25.27-2.19c6.22-.54,11.83,3.65,13.08,9.75.19.87.28,1.84.25,2.84l-.3,9.77c-.03.96,0,1.93.05,2.88.24,3.59,1.11,7.08,2.58,10.37l15.41,34.21c2.58,5.73,8.31,9.43,14.6,9.43.9,0,1.72.4,2.28,1.05h185.82v-355.82c0-23.43-19.06-42.49-42.49-42.49h-211.13c-1.66,0-3-1.34-3-3s1.34-3,3-3h211.13c26.74,0,48.49,21.75,48.49,48.49v358.82c0,1.66-1.34,3-3,3Z" fill="#2b2b2b"/><path d="M338.19,883.04c-.45,0-.91-.18-1.25-.53l-40.05-40.88h-164.57c-.97,0-1.75-.78-1.75-1.75s.78-1.75,1.75-1.75h165.3c.47,0,.92.19,1.25.52l1.1,1.12,39.47,40.29c.68.69.67,1.8-.03,2.47-.34.33-.78.5-1.22.5Z" fill="#2b2b2b"/><path d="M675.4,883.04c-.46,0-.92-.18-1.27-.54-.67-.7-.64-1.81.06-2.47l46.34-44.29c.33-.31.76-.48,1.21-.48h165.3c.97,0,1.75.78,1.75,1.75s-.78,1.75-1.75,1.75h-164.6l-45.83,43.81c-.34.32-.77.48-1.21.48Z" fill="#2b2b2b"/><path d="M594.4,887.38c-.47,0-.93-.19-1.28-.55l-26.57-28.35h-117.79l-27.46,28.37c-.67.69-1.78.71-2.47.04-.69-.67-.71-1.78-.04-2.47l27.98-28.9c.33-.34.78-.53,1.26-.53h119.29c.48,0,.95.2,1.28.55l27.09,28.9c.66.71.62,1.81-.08,2.47-.34.32-.77.47-1.2.47Z" fill="#2b2b2b"/><path d="M866.73,557.61h-216.46c-.97,0-1.75-.78-1.75-1.75s.78-1.75,1.75-1.75h216.46c.97,0,1.75.78,1.75,1.75s-.78,1.75-1.75,1.75Z" fill="#2b2b2b"/><path d="M595.05,557.61h-195.02c-.97,0-1.75-.78-1.75-1.75s.78-1.75,1.75-1.75h195.02c.97,0,1.75.78,1.75,1.75s-.78,1.75-1.75,1.75Z" fill="#2b2b2b"/><path d="M340.3,557.61h-185.74c-.97,0-1.75-.78-1.75-1.75s.78-1.75,1.75-1.75h185.74c.97,0,1.75.78,1.75,1.75s-.78,1.75-1.75,1.75Z" fill="#2b2b2b"/><path d="M419.06,536.49c-.17,0-.35-.02-.53-.05-1.63-.29-2.72-1.85-2.43-3.48.45-2.52,44.71-252.33,43.9-273.66-.52-13.29-38.95-48.46-61.91-69.48-15.61-14.29-23.83-21.91-25.43-25.42-2.57-5.64-4.4-19.64,1.66-33.17,5.63-12.56,16.75-21.74,32.18-26.53,45.82-14.24,85.76-19.92,154.33-6.82,24.24,4.63,39.78,14.54,46.19,29.46,10.46,24.34-7.64,53.06-8.42,54.27-.12.18-.25.35-.4.5-1.17,1.17-3.08,1.18-4.25,0-1.05-1.05-1.16-2.68-.34-3.85,1.32-2.09,16.92-27.56,7.9-48.56-5.58-12.98-19.65-21.71-41.81-25.94-67.69-12.93-105.44-7.63-151.43,6.66-13.93,4.33-23.51,12.15-28.49,23.25-5.44,12.16-3.48,24.27-1.67,28.23,1.16,2.56,12.78,13.2,24.02,23.48,34.6,31.67,63.28,59.07,63.85,73.68.84,21.97-42.15,264.62-43.98,274.94-.26,1.45-1.52,2.48-2.95,2.48Z" fill="#2b2b2b"/><path d="M650.64,538.73c-1.38,0-2.63-.96-2.93-2.37l-.18-.84c-1.73-8.24-42.25-202.07-44.69-248.79-1.33-20.85,6.15-28.46,16.5-38.99,2.48-2.52,5.28-5.38,8.2-8.65,32.2-36.13,48.53-62.63,56.56-78.5,5.06-9.99,6.09-21.3,2.88-31.86-7.72-25.41-22.62-35.54-22.77-35.64-1.38-.91-1.76-2.77-.85-4.15.91-1.38,2.76-1.77,4.14-.86.68.45,16.82,11.27,25.22,38.91,3.66,12.05,2.5,24.95-3.26,36.32-8.19,16.18-24.8,43.16-57.44,79.78-3.01,3.38-5.87,6.29-8.4,8.86-10.28,10.47-15.95,16.23-14.79,34.44,2.42,46.3,42.85,239.69,44.57,247.9l.18.83c.35,1.62-.68,3.22-2.3,3.56-.21.05-.42.07-.63.07Z" fill="#2b2b2b"/></svg>