<?xml version="1.0" encoding="UTF-8"?><svg id="_レイヤー_21" xmlns="http://www.w3.org/2000/svg" width="1000" height="1000" viewBox="0 0 1000 1000"><path d="M916.31,974.89H83.69c-1.66,0-3-1.34-3-3V129.27c0-1.66,1.34-3,3-3h606.87c1.66,0,3,1.34,3,3s-1.34,3-3,3H86.69v836.62h826.62V132.27h-24.43c-1.66,0-3-1.34-3-3s1.34-3,3-3h27.43c1.66,0,3,1.34,3,3v842.62c0,1.66-1.34,3-3,3Z" fill="#2b2b2b"/><path d="M841.21,193.06c-1.36,0-2.6-.94-2.92-2.32-1.57-6.76-3.86-16.1-6.52-26.9-3.05-12.41-6.51-26.48-9.85-40.64l-.06-.27c-.7-2.96-1.4-5.93-2.08-8.87-4.15-17.92-7.88-27.42-9.88-32.52-1.65-4.2-2.4-6.11-1.47-8.18.5-1.13,1.39-1.79,2.1-2.17,1.5-2.07,2.83-3.95,4.09-5.72,3.93-5.54,7.04-9.91,12.12-15.9,4.01-4.72,3.87-11.69-.32-16.22-.22-.24-.47-.49-.72-.72-6.96-6.38-18.66-10.87-32.12-12.33-3.12-.34-6.34-.51-9.6-.51-18.07,0-34.99,5.58-43.11,14.22-3.94,4.21-4.4,10.69-1.08,15.41,5.77,8.21,10.46,13.59,18.01,21.65,3.88,1.83,2.92,5.56,1.26,12.05-1.43,5.57-3.82,14.88-6.45,30.73-2.67,16.06-5.6,32.56-7.96,45.82-2.78,15.6-4.97,27.93-5.13,30.57-.1,1.65-1.52,2.91-3.18,2.81-1.65-.1-2.91-1.53-2.81-3.18.18-2.99,2.19-14.23,5.21-31.26,2.36-13.24,5.29-29.72,7.95-45.75,2.67-16.1,5.1-25.58,6.55-31.24.57-2.24,1.12-4.37,1.27-5.46-.24-.14-.46-.32-.65-.52-8.01-8.53-12.89-14.11-18.99-22.78-4.95-7.03-4.27-16.69,1.62-22.97,9.35-9.94,27.54-16.12,47.49-16.12,3.47,0,6.92.18,10.25.55,14.7,1.6,27.64,6.65,35.51,13.86.37.34.73.7,1.08,1.07,6.26,6.77,6.47,17.16.49,24.19-4.92,5.79-7.96,10.07-11.8,15.49-1.4,1.96-2.89,4.06-4.6,6.42-.19.26-.41.48-.67.67.27.83.76,2.08,1.24,3.31,2.06,5.24,5.89,15.01,10.14,33.36.68,2.94,1.38,5.89,2.07,8.84l.06.27c3.33,14.13,6.79,28.18,9.83,40.58,2.66,10.83,4.96,20.18,6.54,26.98.37,1.61-.63,3.23-2.25,3.6-.23.05-.46.08-.68.08Z" fill="#2b2b2b"/><path d="M831.53,202.7c-1.61,0-2.94-1.27-3-2.89,0-.15-.06-.68-.42-2.5-1.33-6.48-5.45-22.16-10.21-40.32-2.75-10.45-5.86-22.3-8.86-34.01l-2.3-9.04c-4.27-16.91-8.11-23.5-10.66-27.86-2.01-3.45-3.46-5.93-3.23-10.57.1-1.95.72-3.86,1.81-5.51,4.62-7.04,7.77-10.62,14.04-17.76l.31-.35c.32-.37.66-.75,1.01-1.14,2.16-2.47,3.37-6.53.88-9.57-4.25-5.21-10.32-8.2-18.54-9.16-1.92-.23-3.96-.34-6.06-.34-6.64,0-13.13.75-18.28,2.12-6.01,1.6-10.26,4.01-12.27,6.97-2.31,3.39-1.99,7.14.84,9.78,2.07,1.93,3.89,3.55,5.65,5.12,4.88,4.35,8.74,7.78,12.64,13.32,1.45,2.05,2.2,4.49,2.18,7.04-.05,4.51-1.18,6.87-2.74,10.13-2.02,4.23-5.07,10.63-8.41,27.63-.29,1.48-.58,2.97-.88,4.47l-.16.83c-.02.12-.06.28-.09.44l-.07.33c-2.38,12.02-4.85,24.28-7.04,35.1-3.92,19.39-7.3,36.14-8.31,42.6-.24,1.52-.28,2.07-.29,2.23-.07,1.66-1.43,2.95-3.12,2.88-1.66-.07-2.94-1.46-2.88-3.12.02-.61.14-1.54.35-2.91,1.03-6.59,4.26-22.6,8.35-42.87,2.18-10.81,4.66-23.06,7.03-35.04l.32-1.63c.29-1.49.59-2.97.87-4.45,3.48-17.75,6.73-24.56,8.89-29.07,1.41-2.95,2.12-4.43,2.15-7.62.01-1.28-.36-2.5-1.08-3.51-3.5-4.97-6.95-8.05-11.72-12.29-1.7-1.52-3.64-3.24-5.75-5.21-5-4.66-5.68-11.71-1.71-17.54,2.87-4.23,8.15-7.4,15.69-9.4,7.22-1.92,14.76-2.32,19.82-2.32,2.34,0,4.61.13,6.76.38,9.71,1.14,17.27,4.94,22.48,11.32,4.03,4.91,3.61,12.04-1.02,17.34-.35.39-.67.75-.98,1.11l-.32.37c-6.27,7.14-9.14,10.4-13.53,17.1-.5.76-.79,1.63-.83,2.51-.14,2.86.61,4.15,2.42,7.26,2.55,4.37,6.81,11.68,11.29,29.4l2.3,9.03c3,11.69,6.11,23.53,8.85,33.97,4.99,19,8.93,34,10.29,40.66.35,1.78.5,2.78.53,3.46.06,1.66-1.23,3.05-2.89,3.11-.04,0-.08,0-.11,0Z" fill="#2b2b2b"/><path d="M809.57,116.22h-46.58c-1.66,0-3-1.34-3-3s1.34-3,3-3h46.58c1.66,0,3,1.34,3,3s-1.34,3-3,3Z" fill="#2b2b2b"/><path d="M888.05,218.15h-48.7c-.69,0-1.33-.23-1.84-.63-2.07-.66-3.82-2.18-4.74-4.23l-3.89-8.61c-.56-1.25-.89-2.57-.97-3.92,0-.01,0-.02,0-.04-.02-.36-.04-.71-.02-1.07l.05-1.68-5.39.47c-2.4.63-4.9,2.95-6.14,5.72-.26.58-.46,1.17-.57,1.72l1.1,5.15c.36,1.68-.05,3.42-1.14,4.77-1.08,1.34-2.69,2.11-4.41,2.11l-45.15.23c-1.77.02-3.35-.76-4.44-2.1-1.09-1.34-1.51-3.08-1.14-4.77l1.09-5.12c-.19-.88-.55-1.8-1.07-2.7-1.36-2.36-3.56-4.21-5.63-4.75l-5.4-.47.05,1.72c.01.19.01.46,0,.74h0c-.06,1.51-.39,2.94-1,4.27l-3.87,8.61c-1.27,2.79-4.05,4.59-7.11,4.59h-45.76c-1.66,0-3-1.34-3-3v-90.46c0-7.98,6.49-14.47,14.46-14.47h45.06c1.66,0,3,1.34,3,3s-1.34,3-3,3h-45.06c-4.67,0-8.46,3.8-8.46,8.47v87.46h42.76c.7,0,1.35-.42,1.64-1.06l3.88-8.62c.28-.61.44-1.29.47-1.98,0-.03,0-.06,0-.09,0-.07,0-.13,0-.2l-.07-2.5c-.02-.37,0-.73.07-1.09.46-2.73,2.96-4.67,5.73-4.43l6.36.55c.14.01.27.03.41.06,3.74.85,7.45,3.78,9.69,7.66.99,1.73,1.64,3.57,1.89,5.33.05.35.04.7-.04,1.04l-1.13,5.3,44.38-.23-1.14-5.35c-.07-.34-.09-.7-.04-1.04.18-1.26.56-2.54,1.12-3.81,2.05-4.59,6.15-8.19,10.46-9.17.13-.03.27-.05.41-.06l6.37-.55c2.67-.23,5.12,1.57,5.68,4.22.1.53.12.94.1,1.33l-.07,2.37c0,.19,0,.34.01.49,0,.03,0,.06,0,.09.04.61.19,1.21.45,1.78l3.89,8.62c.29.65.93,1.06,1.64,1.06.43,0,.85.09,1.22.26h43.95v-87.46c0-4.67-3.79-8.47-8.46-8.47h-53.23c-1.66,0-3-1.34-3-3s1.34-3,3-3h53.23c7.97,0,14.46,6.49,14.46,14.47v90.46c0,1.66-1.34,3-3,3ZM811.38,211.9h0,0ZM828.71,197.9h0s0,0,0,0ZM827.96,197.21s0,0,0,.01h0Z" fill="#2b2b2b"/><path d="M746.13,202.3c-.45,0-.91-.18-1.25-.53l-9.72-9.91h-40.93c-.97,0-1.75-.78-1.75-1.75s.78-1.75,1.75-1.75h41.67c.47,0,.93.19,1.26.53l.28.29,9.94,10.14c.68.69.67,1.8-.02,2.47-.34.33-.78.5-1.23.5Z" fill="#2b2b2b"/><path d="M831.14,202.3c-.46,0-.92-.18-1.27-.54-.67-.7-.64-1.81.06-2.47l11.69-11.17c.33-.31.76-.49,1.21-.49h41.67c.97,0,1.75.78,1.75,1.75s-.78,1.75-1.75,1.75h-40.97l-11.18,10.69c-.34.32-.77.48-1.21.48Z" fill="#2b2b2b"/><path d="M810.72,203.39c-.47,0-.93-.19-1.28-.55l-6.31-6.73h-28.57l-6.53,6.75c-.67.69-1.78.71-2.47.04s-.71-1.78-.04-2.47l7.05-7.28c.33-.34.78-.53,1.26-.53h30.07c.48,0,.95.2,1.28.55l6.83,7.28c.66.71.63,1.81-.08,2.47-.34.32-.77.47-1.2.47Z" fill="#2b2b2b"/><path d="M879.38,124.26h-54.54c-.97,0-1.77-.78-1.77-1.75s.77-1.75,1.74-1.75h54.57c.97,0,1.75.78,1.75,1.75s-.78,1.75-1.75,1.75Z" fill="#2b2b2b"/><path d="M810.89,124.26h-48.97c-.93,0-1.7-.73-1.75-1.66l-.2-4c-.05-.97.7-1.79,1.66-1.83.95-.03,1.79.7,1.83,1.66l.12,2.34h47.31c.97,0,1.75.78,1.75,1.75s-.78,1.75-1.75,1.75Z" fill="#2b2b2b"/><path d="M746.66,124.26h-46.82c-.97,0-1.75-.78-1.75-1.75s.78-1.75,1.75-1.75h46.82c.97,0,1.75.78,1.75,1.75s-.78,1.75-1.75,1.75Z" fill="#2b2b2b"/><path d="M927.06,975.58H104.41c-.97,0-1.75-.78-1.75-1.75s.78-1.75,1.75-1.75h820.9V132.96h-9.9c-.97,0-1.75-.78-1.75-1.75s.78-1.75,1.75-1.75h11.65c.97,0,1.75.78,1.75,1.75v842.62c0,.97-.78,1.75-1.75,1.75Z" fill="#2b2b2b"/><path d="M935.43,983.94H102.81c-.97,0-1.75-.78-1.75-1.75v-10.06c0-.97.78-1.75,1.75-1.75s1.75.78,1.75,1.75v8.31h829.12V141.33h-6.82c-.97,0-1.75-.78-1.75-1.75s.78-1.75,1.75-1.75h8.57c.97,0,1.75.78,1.75,1.75v842.61c0,.97-.78,1.75-1.75,1.75Z" fill="#2b2b2b"/></svg>