<?xml version="1.0" encoding="UTF-8"?><svg id="_レイヤー_14" xmlns="http://www.w3.org/2000/svg" width="1000" height="850" viewBox="0 0 1000 850"><path d="M883.6,724.05c-.33,0-.65-.05-.96-.16-1.32-.45-2.47-.85-3.49-1.22-5.83-2.07-7.4-2.62-17.28-1.87-.17.01-.35.01-.52,0-6.39-.62-7.94-.2-12.08.93-1.85.51-4.15,1.14-7.47,1.83-.42.09-.85.09-1.27,0-10.21-2.27-10.77-2.24-16.14-1.96-1.7.09-3.82.2-6.79.28-.18,0-.35,0-.52-.03-6.24-.93-9.36-.46-13.31.12-2.47.36-5.26.78-9.15.91-.12,0-.24,0-.37,0-5.38-.47-8.34-1.17-10.95-1.79-2.7-.64-4.85-1.15-9.23-1.29-10.22,2.01-11.51,1.97-19.41,1.74-1.58-.05-3.43-.1-5.7-.15-8.3,2.01-11.04,1.29-16.34-.51-1.71-.58-3.81-1.29-6.65-2.02-6.34,2.57-9.41,2.54-14.37,2.51-1.66-.01-3.53-.03-5.87.05-8.36.06-10.61-.15-15.52-.6-2.32-.21-5.2-.47-9.62-.79-7.03.3-8.57.5-13.06,1.1-1.89.25-4.29.57-7.8.99-.16.02-.32.03-.48.02-11.02-.44-11.43-.46-22.12-1.04l-3.01-.16c-6.82-.39-8.68-.19-11.77.13-1.98.21-4.43.47-8.79.65-7,.9-10.5.16-14.55-.7-2.51-.53-5.36-1.13-9.66-1.41-2.57.39-4.63.72-6.57,1.04-4.3.7-8.01,1.31-15.41,2.16-.14.02-.28.02-.42.02-3.62-.09-5.93-.41-7.97-.69-3.5-.48-6.26-.85-14.74.27-.26.03-.52.04-.78,0l-1.33-.17c-8.21-1.06-8.9-1.15-18.66-.37-7.71.98-10.46.23-13.64-.63-2.29-.62-4.88-1.33-10.55-1.49-1.43.24-2.62.45-3.66.64-6.91,1.22-7.12,1.21-18.43.96l-.96-.02s-.09,0-.13,0l-1.24-.08q-9.4-.64-16.95-.18l-2.84.17c-.18,0-.37,0-.55-.02-6.52-.83-9.39-.57-13.37-.21-2.45.22-5.23.47-9.35.54-5.96,1.09-9.09.67-12.39.23-2.84-.38-5.79-.78-11.36-.24-.12.01-.24.02-.36.01-1.55-.04-2.81-.09-3.91-.14-4.83-.21-6.28-.27-17.1,1.88-.36.07-.73.08-1.09.01-3.16-.54-5.54-.92-7.56-1.24-4.48-.72-7.26-1.16-12.81-2.43-9.34,2.3-11.88,2.32-17.81,2.35-1.43,0-3.07.02-5.08.06l-2.7.07c-10.96.29-11.2.28-19.45-.87-5.32.27-7.94.77-10.47,1.25-3.18.6-6.19,1.17-13.4,1.27-.05,0-.11,0-.16,0-5.21-.21-8.38-.6-11.17-.95-3.12-.38-5.59-.69-9.91-.55-.11,0-.22,0-.34,0-5.49-.44-8.19-.46-10.79-.48-3.02-.02-5.87-.05-12.45-.73-6.37.38-9.44-.06-12.69-.53-2.97-.43-6.05-.88-12.41-.68-8.38,1.89-10.02,2-18.71,2.56l-1.64.11c-.24.02-.49,0-.73-.04-2.21-.4-4.09-.8-5.74-1.16-6.01-1.3-8.75-1.89-15.14.45-.55.2-1.14.24-1.71.11-6.38-1.48-8.64-.97-11.25-.4-2.7.6-5.77,1.28-12.36.12-5.46-.28-7.91-.67-10.27-1.04-2.36-.38-4.59-.73-10.02-.98-2.42.29-4.44.51-6.21.71-6.65.75-9.68,1.09-17.38,2.63-.29.06-.59.08-.89.04-3.75-.38-6.46-.84-8.63-1.2-4.67-.79-6.6-1.11-12.2.39-.52.14-1.06.14-1.58,0-5.27-1.46-7.34-.92-10.77-.03-2.67.69-6,1.56-11.49,1.71-.75.01-1.47-.24-2.03-.72-.18-.15-.34-.31-.49-.47-.19-.06-.38-.15-.56-.25-.06-.03-.12-.07-.18-.11-.06,0-.11-.02-.17-.03-.36.18-.75.29-1.17.35-.79.1-1.58-.11-2.2-.58h0c-.81,0-1.81-.35-2.89-1.51-.85-.14-1.91-.61-2.86-1.91-.35-.48-.55-1.04-.58-1.61-.24-.35-.42-.73-.55-1.11-.05-.05-.11-.11-.16-.16-.4-.44-.64-.91-.77-1.37-.13-.13-.25-.28-.35-.43-.98-.49-1.72-1.34-2.08-2.42-.65-.09-1.26-.4-1.72-.88-.8-.82-1.09-1.95-.79-3.03.25-.88.77-1.43,1.32-1.77.06-.22.13-.44.23-.66.13-.29.29-.54.49-.77.06-.12.13-.24.21-.35-.31-2.51-.12-4.11.06-5.56.23-1.89.42-3.52-.68-7.84-.1-.4-.12-.82-.05-1.23.68-4.11.59-5.4.48-6.89-.1-1.38-.21-2.92.1-6.16-1.99-6.82-1.15-9.28.46-12.45.5-.99,1.02-2.01,1.42-3.54,0-2.79-.64-3.67-1.37-4.69-1.39-1.94-2.44-3.92-1.21-8.34-1.16-6.82-.7-8.53.7-12.25.44-1.15.97-2.58,1.57-4.64.24-3.89-.19-5.49-.56-6.9-.36-1.35-.73-2.74-.4-5.04-2.35-6.28-2.17-8.87-1.61-13.12.16-1.21.34-2.57.45-4.28-.09-2.14-.27-3.76-.43-5.2-.3-2.7-.55-4.86.23-7.83-.4-5.54-.05-7.45.66-10.52.36-1.56.8-3.48,1.21-6.82-.26-1.14-.48-2.07-.67-2.87-.96-4.01-1.18-5.18-.93-10.39-.11-5.22.41-7.48,1.12-10.59.33-1.44.7-3.07,1.09-5.35.35-3.45.15-3.85-.56-5.33-.62-1.3-1.57-3.26-2.56-7.27-.15-.6-.11-1.24.12-1.82,1.45-3.68,1.41-5.81,1.32-10.05-.03-1.51-.07-3.22-.04-5.28,0-.03,0-.07,0-.1.12-2.52-.21-4.01-.54-5.46-.67-2.94-.95-5.23,1.03-9.54,0-1.32-.07-2.27-.15-3.19-.19-2.23-.35-4.17.86-8.8-.11-2.7-.57-4.29-1.02-5.84-.65-2.24-1.31-4.55-.64-8.89-.98-4.45-.63-6.59-.3-8.66.22-1.36.43-2.64.28-4.92,0-.13,0-.26,0-.39.48-7.03.63-10.13-.49-16.18-.08-.41-.07-.82.03-1.22.56-2.44,1.1-4.17,1.5-5.43.91-2.92,1.03-3.3-.23-7.26-.16-.51-.19-1.06-.07-1.58.78-3.38.4-4.45-.12-5.93-.58-1.65-1.3-3.7-.67-7.68-.15-6.37-.09-8.54,1.87-14.43-.43-3.12-1.22-5.05-1.98-6.92-1.04-2.54-2.11-5.17-1.67-9.64-.18-3.04,1.12-4.87,2.17-6.34,1.1-1.55,2.34-3.29,2.69-7.66-1.73-3.96-1.87-4.93-2.48-9.31-.2-1.44-.46-3.29-.85-5.8-.03-.17-.04-.34-.04-.51.04-2.84.15-4.57.25-6.24.12-1.87.23-3.65.23-6.94-.29-2.96-.2-4.72-.12-6.14.11-2.07.17-3.21-1.32-7.53-.15-.43-.2-.88-.14-1.33.79-6.72,1.41-9.42,4.03-14.17.05-3.75-.83-5.04-2.01-6.79-1.21-1.79-2.72-4.02-3.05-8.4,0-.09,0-.18,0-.26.06-5.01,1.16-7.25,2.04-9.06.72-1.48,1.24-2.55,1.11-5.68-.01-.27.01-.54.08-.8.57-2.47.35-3.76-.11-6.33-.3-1.69-.67-3.78-.9-6.77-1.29-4.1-.29-6.96.67-9.72.7-1.99,1.42-4.05,1.42-7.06-.02-2.21-.44-2.68-1.2-3.54-1.42-1.61-2.7-3.4-2.76-7.64,0-.04,0-.08,0-.11.09-4.13,1.38-6.8,2.31-8.74,1.05-2.18,1.4-2.91.43-4.98-.3-.65-.36-1.38-.17-2.07,1.07-3.88.7-6.05.31-8.35-.36-2.12-.76-4.51.13-7.71-.65-4.05.17-7.11,1.29-11.25.33-1.21.69-2.56,1.07-4.1-.28-1.14-.72-2.33-1.21-3.68-1-2.71-2.25-6.08-2.77-10.79-.83-4.84-.29-6.57.99-9.99.36-.97.8-2.14,1.29-3.68-.24-2.93-.71-4.76-1.12-6.39-.45-1.77-.88-3.46-.75-5.73-.22-.48-.34-1.03-.34-1.61-.82-1.01-1.04-2.34-1.16-3-.2-1.16.3-2.29,1.21-2.94.04-.09.08-.17.12-.25.06-.11.12-.21.18-.31-.27-.55-.31-1.07-.31-1.31,0-.96.44-1.85,1.18-2.42.1-.52.34-.93.52-1.19.13-.19.28-.35.45-.5-.03-.14-.05-.28-.06-.42-.13-1.38.71-2.67,2.02-3.12.83-.28,1.71-.19,2.43.22.23-.23.49-.42.77-.57.15-.2.32-.39.51-.55.69-.99,1.66-1.27,2.03-1.35.09-.02.2-.04.32-.05.25-.06.49-.09.7-.11.35-.02.67,0,.98.07.51-.06.96.01,1.35.17.17-.15.36-.28.55-.4.28-.23.61-.4.95-.51.61-.47,1.4-.8,2.38-.7.18.02.35.05.51.09.1-.01.2-.02.31-.02.97-.03,1.9.42,2.49,1.17,4.8-.08,7.28.08,9.69.23,2.75.17,5.34.34,11.43.14,1.37-.02,2.5-.03,3.49-.03q6.84-.05,12.57-1.68c.97-.28,2.1-.59,3.43-.96.46-.13.95-.15,1.43-.04,5.14,1.09,8.35,2.18,10.92,3.05,3.55,1.2,5.93,2.01,11.35,2.12l.32-.09c10.49-2.93,10.69-2.96,21.47-3.33l2.22-.08c7.68-.59,10.88.17,13.97.91,2.22.53,4.33,1.04,8.49,1.02.05,0,.11,0,.16,0,5.47.28,8.01-.37,10.69-1.05,3.13-.8,6.37-1.63,13.29-.74,7.14-1.45,9.12-.99,12.49.09,1.75.56,3.93,1.26,8.43,1.76h.04c4.82,0,7.95-.51,10.98-1.01,3.69-.6,7.18-1.18,12.75-.66,6.1-.1,8.43.23,10.9.57,2.12.3,4.3.61,9.61.64,3.53-.45,6.1-.94,8.37-1.38,5.6-1.07,9-1.72,17.27.27,3.1.16,5.33.12,7.49.09,3.87-.05,7.21-.11,13.55,1,8.6.93,11.52.32,17.89-1.01.78-.16,1.61-.34,2.5-.52.2-.04.41-.04.61-.06,4.46.02,7.3.29,9.58.5,3.9.36,6.26.58,13.61-.65.23-.04.47-.05.7-.03,5.3.37,8.44.28,10.96.22,3.96-.1,6.61-.17,13.08,1.59,6.07-.73,8.55-.46,11.66-.11,2.38.26,5.08.56,10.39.48,7.45.06,10.1-.17,15.39-.62,1.8-.15,3.88-.33,6.53-.52,8.34-1.74,11.55-1.26,15.99-.59,1.99.3,4.25.64,7.47.85,2.18-.31,3.86-.63,5.34-.91,5.5-1.06,8.16-1.4,17.54.92,5.83-.61,8.54-.58,11.17-.55,2.75.03,5.34.05,11.77-.71.14-.02.28-.03.41-.02,4.88.09,7.26-.13,9.37-.33,3.17-.3,5.69-.54,13.82.45,5.76-.41,9.35.43,13.89,1.48,2.35.55,5.01,1.17,8.48,1.74,3.94-.13,5.96-.65,8.73-1.36,2.64-.67,5.93-1.51,11.79-2.3.19-.02.38-.03.56-.02,4.96.27,8.03.95,10.27,1.44,3.48.77,4.78,1.05,9.83-.89.34-.13.7-.2,1.06-.2,4.59-.03,7.6-.22,10.26-.4,4.12-.27,7.68-.5,15.03.01,7.64-.09,10.97.92,16.49,2.63,1.48.46,3.14.97,5.11,1.54,5.38-.7,8.02-1.31,10.81-1.96,2.8-.65,5.71-1.32,11.35-2.08.11-.01.22-.02.33-.03,7.2-.15,10.46.48,13.33,1.03,2.46.48,4.6.88,9.23.72.05,0,.1,0,.15,0,6.94.1,9.07-.45,11.52-1.08,2.36-.61,5.04-1.3,11.56-1.49.22-.01.44.01.66.05,4.33.83,6.97,1.58,8.89,2.13,3.4.96,4.8,1.36,11.31,1,5.18-.44,8.28-.92,10.76-1.3,4.31-.66,6.69-1.03,14.07-.36,6.48-.2,8.99.24,12.78.91,2.64.47,5.93,1.05,11.89,1.63,2.71.17,4.86-.49,7.13-1.19,3.28-1.01,6.97-2.14,12.02-.34,10-2.35,12.46-1.77,17.31-.17,1.48.49,3.15,1.03,5.52,1.59,10.58-1.9,13.42-1.95,20.12-2.06,1.3-.02,2.74-.04,4.43-.09,5.49-.56,8.22.11,10.64.7,2.59.63,5.04,1.23,11.96.08,1.74-.27,3.21-.55,4.5-.79,5.17-.97,8.32-1.56,16.16.13,6.3.45,9.64,1.06,12.33,1.55,3.44.63,5.93,1.09,13.16.87,4.93-1.24,7.57-1.76,10.36-2.32,2.76-.55,5.6-1.11,11.02-2.46.47-.19.99-.29,1.53-.29h.02c.84,0,1.6.35,2.15.92.36.18.67.39.93.6,1.08-.17,2.12.26,2.77,1.05.76.03,1.48.25,2.14.67.24.15.45.34.63.54.06.02.12.04.18.06.94.36,1.61,1.14,1.85,2.06.15.16.28.32.41.48.09.09.19.18.28.28.24.06.48.15.7.28.83.46,1.4,1.28,1.53,2.22.21.26.4.51.57.75.34.45.54.99.58,1.56.02.01.03.02.05.03.8-.04,1.59.25,2.18.81.7.66,1.04,1.6.92,2.55-.1.77-.32,1.43-.62,2,.24.48.34,1.02.3,1.57-.08,1.01-.56,1.77-1.35,2.41.94,3.27.6,5.37.23,7.57-.28,1.68-.57,3.42-.41,6.31,0,.03,0,.07,0,.1.06,2.85.35,3.93.71,5.3.46,1.71.97,3.64,1.18,8.39,0,.09,0,.18,0,.26-.17,3.74-.58,6.09-.98,8.37-.37,2.12-.73,4.12-.86,7.28-.02.57-.21,1.13-.54,1.6-1.36,1.93-1.08,2.77.32,6.03.71,1.65,1.59,3.69,2.18,6.27.1.45.1.91,0,1.36-.98,4.14-2.02,5.91-2.86,7.33-.88,1.48-1.46,2.47-1.56,7.92.04,1.6.48,2.26,1.21,3.34,1.57,2.34,2.79,4.72,1.75,10,.49,3.62-.07,6.43-.72,9.67-.36,1.83-.78,3.89-1.08,6.47-.02.18-.06.36-.11.54-.62,2.01-.32,3.13.11,4.69.52,1.93,1.16,4.29-.06,7.78.62,3.94.03,5.81-.54,7.61-.52,1.64-1.11,3.5-.85,8.41,0,.17,0,.35-.02.52-.11.92.38,1.91,1.26,3.58,1.26,2.38,2.98,5.65,2.81,10.56-.02.45-.13.9-.35,1.3-1.43,2.7-1.41,2.94-1.25,5.85.09,1.64.22,3.88.15,7.4,0,.38-.09.76-.24,1.11-1.62,3.81-1.56,3.92-.64,5.77.74,1.49,1.86,3.73,2.87,7.85.2.82.05,1.68-.42,2.39-2.77,4.14-2.97,4.45-4.79,12l.54,1.49c1.92,5.27,2.5,6.86,3.69,13.76.11.63.02,1.27-.27,1.84-.38.78-.76,1.48-1.11,2.15-1.62,3.04-2.29,4.3-1.35,7.54.05.18.09.36.1.54.54,5.52.98,7.3,1.44,9.2.38,1.57.81,3.34,1.31,7.06.04.34.03.68-.04,1.02-.63,2.97-1.21,4.87-1.63,6.25-.68,2.21-.86,2.81-.49,5.29.05.33.04.66-.01.98-.88,4.87-.28,5.81.62,7.24.91,1.44,2.16,3.4,2.49,7.56.03.32,0,.65-.08.96-.76,3.06-1.42,5.1-1.91,6.59-1.05,3.23-1.3,4-.65,9.34.19,1.52.39,2.58.57,3.51.5,2.63.77,4.4.37,9.68.39,3.74-.39,5.85-1.03,7.55-.7,1.88-1.26,3.36.24,8.33.08.26.12.54.13.82.09,5.43.28,6.06,1.74,10.92l.58,1.93c.2.68.16,1.41-.13,2.06-.26.6-.51,1.15-.74,1.67-1.94,4.32-2.24,4.99-1.04,7.83.25.58.3,1.23.16,1.85-.96,4.1-.47,5.09.33,6.74.81,1.67,1.83,3.75,1.83,7.96-.13,4.14-1.32,6.75-2.27,8.84-.85,1.86-1.47,3.21-1.34,5.36.68,4.42,1.27,6.68,1.85,8.86.62,2.34,1.2,4.55,1.73,8.84.04.3.03.6-.03.9-.52,2.9-1.41,4.4-2.12,5.6-.82,1.39-1.47,2.49-1.36,7.24.27,1.31.56,2.37.81,3.32,1,3.76,1.44,6.05-.91,10.87.64,3.5.07,5.45-.48,7.34-.52,1.78-1.06,3.63-.55,7.97.03.29.02.57-.02.86-.27,1.54.02,1.99.71,3.05,1.42,2.2,2.55,4.6.96,9.53-.44,9.39-.49,9.83-1.56,14.43-.31,4.8.74,7.1,2.06,10,.84,1.83,1.78,3.91,2.44,6.72.06.26.08.52.08.78-.09,2.76-1.4,4.41-2.36,5.62-1.19,1.51-2.13,2.7-.78,7.61.12.42.14.86.07,1.29-.55,3.3-.28,4.29.17,5.95.47,1.73,1.12,4.1,1.1,9.06.26,4.91-.98,7.49-3.69,12.75.39,2.87.78,4.64,1.1,6.08.54,2.4.93,4.16.7,8.09,1.28,5.59,1.25,6.56,1.03,12.12-.06,1.44-.13,3.2-.19,5.47-.01.41-.11.82-.29,1.2-1.16,2.47-.97,3.45-.56,5.59.21,1.07.45,2.3.55,3.87.12.28.19.57.24.87.31.37.54.78.7,1.2.12.17.23.35.32.54.27.59.34,1.24.21,1.86.04.16.06.32.07.48.34.86.27,1.82-.19,2.62.26.67.28,1.43.01,2.14-.29.78-.89,1.39-1.63,1.71-.19.72-.64,1.36-1.3,1.77-.08.05-.15.09-.23.14-.17.37-.42.71-.74.99-.8.7-1.61.93-2.25.98-.44.43-.89.75-1.31,1-.09.09-.19.18-.29.26-.21.24-.46.43-.73.59-.08.29-.2.59-.34.89-.22.45-.54.83-.93,1.12-.31.39-.69.71-1.08.96-.94.61-2.15.64-3.12.08-.04-.02-.08-.05-.12-.07-.6.35-1.24.48-1.92.4-.61.32-1.32.44-2.03.29-.95-.2-1.92-.92-2.26-2.12-.05-.03-.09-.07-.14-.1-9,1.6-10.9,1.23-20.55-1.23l-1.45-.37c-8.04,1.86-9.76,2.18-16.42,3.42-1.64.3-3.58.67-6,1.12-.18.04-.37.05-.55.05ZM868.53,714.49c5.17,0,7.76.81,12.62,2.53.81.29,1.69.6,2.67.94,2.07-.39,3.78-.7,5.24-.98,6.91-1.28,8.35-1.55,16.87-3.52.47-.11.95-.1,1.42.01l2.16.55c9.77,2.5,10.21,2.61,20.41.7.27-.55.68-1.08,1.29-1.55.87-.68,2.04-.81,3.04-.38.29-.05.57-.05.86-.01,0-.16.02-.31.03-.46.07-1.05.69-1.98,1.63-2.46.38-.2.8-.3,1.21-.32.15-.32.36-.62.63-.88.3-.29.65-.51,1.02-.65-.45-.49-.79-1.15-.92-2.02-.13-.84.1-1.71.64-2.37s1.34-1.06,2.19-1.1c.03,0,.06,0,.09,0-.09-1.04-.26-1.91-.42-2.76-.46-2.37-.93-4.81.75-8.7.06-2.01.12-3.62.17-4.94.21-5.45.23-5.77-.98-10.96-.07-.29-.09-.59-.07-.88.23-3.38-.03-4.53-.54-6.83-.36-1.63-.86-3.86-1.32-7.57-.07-.6.03-1.21.31-1.74l.16-.31c2.75-5.34,3.49-6.78,3.29-10.27,0-.06,0-.12,0-.18.02-4.21-.46-5.98-.89-7.55-.61-2.24-.97-4.04-.4-7.86-1.72-6.77-.03-9.68,2.02-12.28.65-.83.95-1.23,1.04-1.78-.51-2-1.21-3.53-1.95-5.14-1.5-3.28-3.05-6.68-2.57-13.16.01-.16.04-.31.07-.46q1.04-4.45,1.49-14c.01-.29.07-.57.16-.84,1-2.9.6-3.52-.19-4.75-.86-1.33-2.13-3.31-1.64-6.88-.56-5.28.19-7.85.8-9.93.49-1.7.79-2.72.17-5.4-.17-.7-.07-1.44.27-2.08,1.94-3.68,1.77-4.34.92-7.5-.28-1.04-.62-2.32-.94-3.93-.03-.17-.05-.34-.06-.51-.18-6.22.79-8.37,2.19-10.72.54-.91.97-1.64,1.3-3.18-.46-3.58-.95-5.44-1.51-7.58-.59-2.25-1.26-4.79-2-9.62-.01-.08-.02-.17-.03-.25-.25-3.73.87-6.2,1.87-8.37.85-1.85,1.65-3.61,1.73-6.44,0-2.73-.57-3.89-1.23-5.24-1.23-2.52-2.02-4.74-.98-9.8-1.7-4.67-.48-7.38,1.46-11.7.09-.2.18-.41.28-.62l-.25-.85c-1.55-5.17-1.88-6.42-1.98-12.14-1.78-6.11-1.08-8.84,0-11.75.53-1.43.96-2.56.66-5.04-.02-.2-.03-.4-.01-.59.39-4.97.15-6.25-.26-8.37-.19-.98-.42-2.19-.63-3.91-.77-6.33-.38-8.01.89-11.92.45-1.4,1.01-3.12,1.67-5.69-.25-2.32-.85-3.27-1.53-4.35-1.58-2.49-2.62-4.75-1.54-11.04-.44-3.32-.06-4.8.75-7.45.39-1.26.86-2.81,1.39-5.22-.42-3.05-.78-4.51-1.12-5.93-.5-2.07-.98-4.03-1.55-9.76-1.48-5.41.16-8.49,1.9-11.75.19-.36.39-.73.59-1.12-.98-5.53-1.48-6.89-3.25-11.75l-.85-2.35c-.2-.55-.23-1.15-.09-1.72,1.95-8.12,2.42-9.59,5.09-13.67-.75-2.68-1.51-4.2-2.09-5.36-1.68-3.38-1.86-5.11.26-10.25.04-2.97-.07-4.92-.15-6.37-.19-3.38-.17-4.85,1.59-8.34-.04-2.94-1.05-4.87-2.12-6.91-1.07-2.03-2.17-4.13-1.93-6.82-.28-5.83.54-8.4,1.13-10.29.51-1.61.79-2.49.21-5.55-.11-.57-.05-1.17.18-1.71.86-2.07.58-3.08.13-4.76-.51-1.89-1.15-4.24-.13-7.76.33-2.69.75-4.81,1.13-6.69.63-3.18,1.05-5.28.59-8.1-.06-.37-.05-.75.03-1.12.79-3.63.21-4.5-.75-5.93-.91-1.36-2.17-3.22-2.23-6.62,0-.04,0-.07,0-.11.12-6.61.98-8.54,2.39-10.93.65-1.1,1.31-2.23,2.02-4.97-.46-1.73-1.08-3.17-1.68-4.57-1.35-3.15-2.88-6.69-.23-11.08.17-3.09.54-5.19.9-7.24.38-2.15.74-4.19.89-7.46-.18-4-.59-5.52-.98-6.98-.41-1.54-.83-3.13-.91-6.67-.19-3.52.19-5.76.49-7.57.27-1.62.44-2.67.11-4.21-1.5.1-2.65-.88-3.03-2.03-.31-.93-.16-2.06.58-2.9,0-.04,0-.08,0-.12,0-.3.04-.57.1-.83-.2-.17-.38-.36-.54-.56-.24-.32-.44-.7-.56-1.13-.06-.07-.11-.14-.16-.21-.17-.21-.33-.43-.48-.66-.29-.46-.45-.97-.48-1.5,0-.02-.02-.05-.03-.07-.26-.28-.47-.62-.6-1-.06-.17-.11-.34-.14-.5-.02-.02-.04-.04-.06-.07-.18-.09-.36-.2-.52-.33-.15.01-.3.01-.45,0-.37-.02-.81-.11-1.24-.31-.38.11-.78.14-1.2.09-.08,0-.15-.02-.22-.04-.13,0-.25.01-.38,0-.39,0-.75-.09-1.03-.23-.35-.14-.67-.34-.95-.6-.94.06-2.01-.3-2.82-1.46-.36-.51-.54-1.1-.54-1.7-3.11.73-5.21,1.14-7.26,1.55-2.77.55-5.39,1.07-10.38,2.33-.21.05-.42.08-.64.09-8.11.26-11.04-.28-14.75-.96-2.71-.5-5.77-1.06-11.88-1.48-.14-.01-.29-.03-.43-.06-6.82-1.49-9.07-1.07-14-.14-1.33.25-2.84.53-4.65.82-8.11,1.34-11.27.57-14.33-.18-2.24-.55-4.18-1.02-8.72-.55-.08,0-.16.01-.24.02-1.75.04-3.25.07-4.59.09-6.67.11-9.16.15-19.75,2.08-.39.07-.8.06-1.19-.02-2.98-.67-5.03-1.34-6.67-1.88-3.93-1.29-5.4-1.78-14.94.52-.62.15-1.27.1-1.86-.15-3.54-1.47-5.78-.79-8.89.17-2.57.79-5.48,1.68-9.38,1.43-6.29-.62-9.7-1.22-12.45-1.7-3.7-.65-5.73-1.01-11.72-.81-.12,0-.25,0-.38-.01-6.79-.63-8.67-.34-12.79.3-2.58.4-5.79.89-11.26,1.36-7.29.4-9.36-.08-13.36-1.22-1.87-.53-4.19-1.19-8.06-1.95-5.6.18-7.79.75-9.91,1.29-2.75.71-5.34,1.37-13.03,1.28-5.27.18-7.93-.33-10.51-.83-2.68-.52-5.44-1.05-11.9-.93-5.25.71-7.86,1.31-10.63,1.95-2.91.67-5.93,1.37-12.02,2.14-.4.05-.8.02-1.19-.09-2.31-.65-4.18-1.23-5.84-1.74-5.48-1.7-7.98-2.48-14.75-2.36-.09,0-.17,0-.26,0-7.03-.49-10.26-.29-14.35-.02-2.64.17-5.62.37-10.08.41-6.06,2.25-8.58,1.87-12.75.95-2.11-.46-4.72-1.04-9.03-1.29-5.34.73-8.25,1.47-10.83,2.13-3.09.79-5.53,1.41-10.32,1.55-.2,0-.38,0-.57-.04-3.82-.62-6.66-1.28-9.17-1.87-4.43-1.03-7.35-1.71-12.36-1.32-.2.01-.4,0-.6-.01-7.71-.96-9.85-.75-12.81-.47-2.13.2-4.76.46-9.85.36-6.66.78-9.54.75-12.33.73-2.53-.02-5.15-.05-11.01.58-.35.04-.71.01-1.05-.07-8.9-2.24-10.82-1.87-15.46-.98-1.55.3-3.47.67-5.96,1.01-.2.03-.39.03-.59.02-3.65-.22-6.23-.61-8.3-.92-4.13-.62-6.62-1-14.05.57-.13.03-.26.05-.4.06-2.72.2-4.84.38-6.67.53-5.3.45-8.22.68-15.86.64-5.63.09-8.65-.25-11.07-.52-2.93-.32-5.05-.56-10.85.18-.4.05-.8.02-1.18-.09-6.04-1.68-8-1.63-11.91-1.53-2.59.06-5.8.15-11.17-.21-7.86,1.3-10.79,1.02-14.82.65-2.22-.21-4.72-.44-8.74-.47-.76.16-1.48.31-2.17.45-6.61,1.38-10.25,2.14-19.86,1.09-.07,0-.13-.02-.2-.03-5.84-1.03-8.79-.99-12.52-.93-2.22.03-4.73.07-8.18-.11-.19-.01-.37-.04-.55-.08-7.2-1.76-9.64-1.29-14.99-.27-2.28.43-5.12.98-8.94,1.46-.13.02-.26.03-.39.02-5.85-.03-8.38-.39-10.61-.7-2.34-.33-4.36-.61-10.12-.51-.11,0-.22,0-.34-.01-4.9-.46-7.9.03-11.39.6-3.11.51-6.64,1.09-11.95,1.09-.17,0-.35,0-.53-.02-5.21-.56-7.85-1.41-9.77-2.02-2.54-.81-3.59-1.15-9.94.17-.34.07-.68.08-1.02.04-6.11-.84-8.61-.2-11.51.54-2.85.73-6.08,1.55-12.41,1.23h-.08c-4.78,0-7.42-.63-9.74-1.19-2.77-.66-5.39-1.29-12.17-.76-.04,0-.09,0-.13,0l-2.28.08q-10.16.35-20.06,3.11l-.74.21c-.28.08-.56.11-.85.11-6.67-.09-9.73-1.13-13.61-2.45-2.43-.82-5.16-1.75-9.53-2.71-1.01.28-1.9.54-2.68.76-6.39,1.82-6.66,1.85-14.16,1.91-.99,0-2.11.02-3.41.03-6.31.21-9.17.03-11.94-.15-2.29-.14-4.64-.29-9.22-.22-.62.71-1.57,1.11-2.54,1.02-.31-.03-.8-.12-1.33-.31-.41.35-.9.59-1.42.7-.28.65-.79,1.18-1.42,1.5-.33.63-.88,1.12-1.55,1.39-.04.04-.08.08-.12.12-.01.01-.02.02-.03.03-.3.41-.7.75-1.19.97-.16.07-.31.14-.46.2-.26,1.34-.86,2.11-1.51,2.55-.02.02-.03.05-.05.07.68,1.29.33,2.9-.86,3.79-.31.23-.87.65-1.61,1.01,0,0,0,0,0,.01-.27,1.83,0,2.89.49,4.8.48,1.88,1.07,4.21,1.33,8.01.03.37-.02.74-.13,1.1-.61,1.96-1.14,3.39-1.57,4.54-1.07,2.85-1.29,3.44-.68,6.96.01.06.02.12.03.19.44,4.02,1.5,6.91,2.44,9.45.65,1.76,1.27,3.43,1.61,5.24.08.42.07.84-.03,1.25-.45,1.91-.89,3.52-1.27,4.94-1.12,4.14-1.68,6.21-1.06,9.27.1.51.07,1.04-.09,1.53-.72,2.18-.49,3.54-.14,5.6.4,2.4.9,5.35-.18,9.91,1.53,4.06.24,6.72-.9,9.09-.85,1.76-1.65,3.42-1.72,6.21.04,2.32.5,2.84,1.26,3.71,1.4,1.59,2.66,3.36,2.7,7.49,0,4.05-.97,6.83-1.75,9.06-.86,2.47-1.34,3.83-.54,6.17.08.24.14.5.15.75.21,2.89.56,4.83.86,6.54.48,2.72.86,4.9.13,8.33.12,4.36-.86,6.37-1.72,8.15-.73,1.51-1.37,2.82-1.43,6.38.22,2.7.98,3.82,2.02,5.36,1.45,2.15,3.27,4.82,3.02,11.08-.02.48-.15.94-.39,1.36-2.28,4.03-2.84,5.81-3.58,11.91,1.56,4.68,1.55,6.55,1.41,9.15-.07,1.3-.15,2.78.11,5.36,0,.1.02.2.02.3,0,3.58-.11,5.47-.24,7.46-.1,1.55-.2,3.15-.24,5.7.38,2.43.63,4.23.83,5.65.6,4.35.64,4.61,2.32,8.38.19.43.28.91.25,1.38-.36,6.62-2.46,9.56-3.84,11.51-.93,1.31-1.15,1.65-1.06,2.64.02.2.02.4,0,.6-.34,3.12.28,4.67,1.24,7,.87,2.14,1.96,4.81,2.47,9.14.05.44,0,.89-.14,1.31-1.96,5.75-1.92,7.05-1.77,13.3,0,.2,0,.39-.04.58-.46,2.64-.11,3.62.36,4.96.62,1.77,1.39,3.94.49,8.46,1.48,4.87,1.13,6.49,0,10.1-.35,1.12-.78,2.49-1.24,4.4,1.12,6.3.96,9.84.48,16.86.16,2.83-.13,4.62-.36,6.05-.3,1.87-.52,3.22.35,6.91.09.4.11.81.04,1.21-.59,3.37-.2,4.74.4,6.81.52,1.8,1.16,4.04,1.27,7.76,0,.29-.03.58-.1.87-1.07,3.93-.96,5.15-.79,7.17.09,1.11.21,2.49.16,4.47-.01.43-.11.86-.31,1.25-1.55,3.16-1.33,4.11-.86,6.19.36,1.57.84,3.72.68,7.03-.03,1.93,0,3.57.04,5.01.09,4.11.15,7.15-1.38,11.45.74,2.79,1.39,4.12,1.91,5.21,1.17,2.43,1.6,3.89,1.11,8.64,0,.07-.02.13-.03.2-.42,2.5-.84,4.32-1.17,5.78-.67,2.92-1.07,4.68-.97,9.23,0,.07,0,.14,0,.21-.22,4.66-.09,5.21.77,8.83.22.94.49,2.05.8,3.46.07.33.09.67.05,1-.47,3.98-.97,6.19-1.38,7.96-.6,2.61-.9,3.92-.48,9.24.03.36,0,.73-.11,1.08-.62,2.1-.47,3.41-.18,6.02.17,1.5.38,3.36.47,5.8,0,.1,0,.21,0,.31-.13,1.98-.33,3.48-.5,4.81-.48,3.68-.68,5.2,1.55,10.95.21.54.26,1.12.14,1.68-.3,1.48-.16,1.98.16,3.21.45,1.71,1.08,4.05.73,9.16-.01.21-.05.41-.11.62-.7,2.47-1.32,4.11-1.82,5.42-1.11,2.93-1.37,3.62-.29,9.78.08.47.05.96-.09,1.42-.78,2.48-.56,2.78.15,3.77,1.03,1.43,2.58,3.58,2.5,8.62,0,.22-.03.44-.08.66-.58,2.4-1.36,3.93-1.98,5.17-1.04,2.05-1.56,3.09.1,8.57.12.38.16.79.11,1.19-.33,3.12-.24,4.44-.15,5.71.12,1.71.24,3.33-.45,7.68,1.21,4.99.93,7.35.67,9.44-.08.62-.15,1.22-.17,1.88.6.4,1.07.97,1.34,1.64.51,1.27.22,2.52-.24,3.55,0,.04.02.08.03.12,0,0,0,0,0,0,.67.02,1.33.26,1.87.73.86.74,1.19,1.86.97,2.89.06.08.13.16.19.26.42-.08.85-.06,1.28.05,1.29.33,2.2,1.47,2.25,2.79.37.15.71.34,1.02.57.83-.02,1.49.26,1.88.49.33.19.6.41.83.66.13.05.26.1.39.17,1.02.52,1.65,1.57,1.64,2.7,3.54-.26,5.87-.87,7.96-1.41,3.64-.95,6.8-1.77,13.09-.16,6.31-1.6,9.24-1.1,13.97-.31,2,.34,4.47.75,7.8,1.1,7.63-1.51,10.95-1.89,17.44-2.62,1.82-.21,3.91-.44,6.42-.74.16-.02.32-.02.49-.02,5.95.26,8.49.67,10.94,1.06,2.33.37,4.54.72,9.81.98.13,0,.25.02.38.04,5.54.99,7.8.49,10.19-.04,2.93-.65,5.96-1.32,13.04.21,7.48-2.57,11.56-1.69,17.63-.38,1.52.33,3.22.7,5.18,1.06l1.28-.08c8.77-.57,9.9-.65,18.06-2.49.18-.04.37-.07.56-.07,7.08-.24,10.63.28,13.75.73,3.1.45,5.79.84,11.7.46.17,0,.34,0,.5.01,6.47.68,9.09.7,12.13.72,2.56.02,5.45.04,11.05.48,4.68-.14,7.47.2,10.68.59,2.66.33,5.68.7,10.6.91,6.63-.09,9.25-.59,12.28-1.16,2.65-.5,5.65-1.07,11.58-1.36.19-.01.38,0,.56.03l.15.02q7.97,1.12,18.59.83l2.72-.07c2.06-.04,3.73-.05,5.19-.06,5.89-.03,7.87-.04,17.09-2.34.46-.12.94-.12,1.4-.01,5.82,1.35,8.41,1.76,13.1,2.51,1.92.31,4.16.67,7.08,1.16,11.03-2.17,12.82-2.1,17.98-1.88,1.03.04,2.2.09,3.63.13,6.14-.57,9.54-.12,12.54.28,3.11.42,5.56.74,10.75-.23.17-.03.34-.05.51-.05,4.03-.06,6.75-.3,9.15-.52,4.14-.38,7.42-.67,14.39.2l2.56-.15c7.85-.47,8.01-.46,17.71.19l2.07.1q10.94.24,17.26-.87c1.11-.2,2.41-.43,3.99-.69.19-.03.38-.05.57-.04,6.6.16,9.74,1.02,12.27,1.71,2.78.76,4.79,1.3,11.37.46.05,0,.1-.01.14-.01,10.46-.84,11.54-.69,19.98.4l.94.12c8.98-1.17,12.22-.72,15.95-.21,1.94.26,3.94.54,7.1.63,7.12-.82,10.74-1.41,14.92-2.1,2.04-.33,4.21-.69,6.96-1.1.21-.03.41-.04.62-.03,4.93.29,8.08.96,10.86,1.55,3.83.81,6.6,1.4,12.67.6.09-.01.18-.02.27-.02,4.25-.17,6.63-.42,8.54-.62,3.28-.34,5.44-.57,12.73-.16l3,.16c10.57.57,11.06.59,21.8,1.02,3.34-.4,5.65-.71,7.48-.95,4.6-.61,6.32-.84,13.76-1.15.11,0,.23,0,.34,0,4.58.33,7.54.6,9.91.81,4.72.43,6.89.62,14.86.58,2.39-.08,4.33-.07,6.04-.05,4.85.03,7.07.05,12.91-2.42.59-.25,1.25-.3,1.88-.15,3.6.87,6.1,1.72,8.11,2.4,4.56,1.55,6.1,2.07,13.36.27.25-.06.52-.1.78-.09,2.47.05,4.46.11,6.15.16,7.73.23,8.54.25,18.4-1.69.22-.04.45-.07.67-.06,5.21.15,7.91.79,10.77,1.46,2.5.59,5.08,1.2,9.91,1.63,3.46-.13,5.92-.49,8.3-.84,4.21-.62,7.86-1.15,14.8-.15,2.76-.08,4.75-.18,6.37-.27,5.96-.32,7.07-.28,17.12,1.95,2.81-.61,4.84-1.16,6.5-1.62,4.31-1.18,6.7-1.83,13.98-1.14,2.78-.21,4.99-.31,6.87-.31Z" fill="#2b2b2b"/><path d="M900.71,676.12h-50c-.97,0-1.75-.78-1.75-1.75s.78-1.75,1.75-1.75h49.04c.28-.18.61-.29.96-.29.97,0,1.75.78,1.75,1.75v.29c0,.97-.78,1.75-1.75,1.75ZM800.71,676.12h-50c-.97,0-1.75-.78-1.75-1.75s.78-1.75,1.75-1.75h50c.97,0,1.75.78,1.75,1.75s-.78,1.75-1.75,1.75ZM700.71,676.12h-50c-.97,0-1.75-.78-1.75-1.75s.78-1.75,1.75-1.75h50c.97,0,1.75.78,1.75,1.75s-.78,1.75-1.75,1.75ZM600.71,676.12h-50c-.97,0-1.75-.78-1.75-1.75s.78-1.75,1.75-1.75h50c.97,0,1.75.78,1.75,1.75s-.78,1.75-1.75,1.75ZM500.71,676.12h-50c-.97,0-1.75-.78-1.75-1.75s.78-1.75,1.75-1.75h50c.97,0,1.75.78,1.75,1.75s-.78,1.75-1.75,1.75ZM400.71,676.12h-50c-.97,0-1.75-.78-1.75-1.75s.78-1.75,1.75-1.75h50c.97,0,1.75.78,1.75,1.75s-.78,1.75-1.75,1.75ZM300.71,676.12h-50c-.97,0-1.75-.78-1.75-1.75s.78-1.75,1.75-1.75h50c.97,0,1.75.78,1.75,1.75s-.78,1.75-1.75,1.75ZM200.71,676.12h-50c-.97,0-1.75-.78-1.75-1.75s.78-1.75,1.75-1.75h50c.97,0,1.75.78,1.75,1.75s-.78,1.75-1.75,1.75ZM100.71,676.12h-1.41c-.97,0-1.75-.78-1.75-1.75v-48.59c0-.97.78-1.75,1.75-1.75s1.75.78,1.75,1.75v46.87c.8.16,1.41.87,1.41,1.72,0,.97-.78,1.75-1.75,1.75ZM900.71,625.83c-.97,0-1.75-.78-1.75-1.75v-50c0-.97.78-1.75,1.75-1.75s1.75.78,1.75,1.75v50c0,.97-.78,1.75-1.75,1.75ZM99.29,577.53c-.97,0-1.75-.78-1.75-1.75v-50c0-.97.78-1.75,1.75-1.75s1.75.78,1.75,1.75v50c0,.97-.78,1.75-1.75,1.75ZM900.71,525.83c-.97,0-1.75-.78-1.75-1.75v-50c0-.97.78-1.75,1.75-1.75s1.75.78,1.75,1.75v50c0,.97-.78,1.75-1.75,1.75ZM99.29,477.53c-.97,0-1.75-.78-1.75-1.75v-50c0-.97.78-1.75,1.75-1.75s1.75.78,1.75,1.75v50c0,.97-.78,1.75-1.75,1.75ZM900.71,425.83c-.97,0-1.75-.78-1.75-1.75v-50c0-.97.78-1.75,1.75-1.75s1.75.78,1.75,1.75v50c0,.97-.78,1.75-1.75,1.75ZM99.29,377.53c-.97,0-1.75-.78-1.75-1.75v-50c0-.97.78-1.75,1.75-1.75s1.75.78,1.75,1.75v50c0,.97-.78,1.75-1.75,1.75ZM900.71,325.83c-.97,0-1.75-.78-1.75-1.75v-50c0-.97.78-1.75,1.75-1.75s1.75.78,1.75,1.75v50c0,.97-.78,1.75-1.75,1.75ZM99.29,277.53c-.97,0-1.75-.78-1.75-1.75v-50c0-.97.78-1.75,1.75-1.75s1.75.78,1.75,1.75v50c0,.97-.78,1.75-1.75,1.75ZM900.71,225.83c-.97,0-1.75-.78-1.75-1.75v-46.71c-.88-.1-1.56-.84-1.56-1.74,0-.97.78-1.75,1.75-1.75h1.56c.97,0,1.75.78,1.75,1.75v48.44c0,.97-.78,1.75-1.75,1.75ZM99.29,177.53c-.97,0-1.75-.78-1.75-1.75v-.14c0-.97.78-1.75,1.75-1.75h49.86c.97,0,1.75.78,1.75,1.75s-.78,1.75-1.75,1.75h-49.16c-.21.09-.45.14-.7.14ZM849.15,177.38h-50c-.97,0-1.75-.78-1.75-1.75s.78-1.75,1.75-1.75h50c.97,0,1.75.78,1.75,1.75s-.78,1.75-1.75,1.75ZM749.15,177.38h-50c-.97,0-1.75-.78-1.75-1.75s.78-1.75,1.75-1.75h50c.97,0,1.75.78,1.75,1.75s-.78,1.75-1.75,1.75ZM649.15,177.38h-50c-.97,0-1.75-.78-1.75-1.75s.78-1.75,1.75-1.75h50c.97,0,1.75.78,1.75,1.75s-.78,1.75-1.75,1.75ZM549.15,177.38h-50c-.97,0-1.75-.78-1.75-1.75s.78-1.75,1.75-1.75h50c.97,0,1.75.78,1.75,1.75s-.78,1.75-1.75,1.75ZM449.15,177.38h-50c-.97,0-1.75-.78-1.75-1.75s.78-1.75,1.75-1.75h50c.97,0,1.75.78,1.75,1.75s-.78,1.75-1.75,1.75ZM349.15,177.38h-50c-.97,0-1.75-.78-1.75-1.75s.78-1.75,1.75-1.75h50c.97,0,1.75.78,1.75,1.75s-.78,1.75-1.75,1.75ZM249.15,177.38h-50c-.97,0-1.75-.78-1.75-1.75s.78-1.75,1.75-1.75h50c.97,0,1.75.78,1.75,1.75s-.78,1.75-1.75,1.75Z" fill="#2b2b2b"/><path d="M880.39,663.48c-.32,0-.63-.08-.92-.26l-33.96-21.13c-.82-.51-1.07-1.59-.56-2.41.51-.82,1.59-1.07,2.41-.56l33.96,21.13c.82.51,1.07,1.59.56,2.41-.33.53-.9.83-1.49.83ZM812.47,621.21c-.32,0-.63-.08-.92-.26l-33.96-21.13c-.82-.51-1.07-1.59-.56-2.41.51-.82,1.59-1.07,2.41-.56l33.96,21.13c.82.51,1.07,1.59.56,2.41-.33.53-.9.83-1.49.83ZM744.55,578.94c-.32,0-.63-.08-.92-.26l-33.96-21.13c-.82-.51-1.07-1.59-.56-2.41.51-.82,1.59-1.07,2.41-.56l33.96,21.13c.82.51,1.07,1.59.56,2.41-.33.53-.9.83-1.49.83ZM676.63,536.67c-.32,0-.63-.08-.92-.26l-33.96-21.13c-.82-.51-1.07-1.59-.56-2.41.51-.82,1.59-1.07,2.41-.56l33.96,21.13c.82.51,1.07,1.59.56,2.41-.33.53-.9.83-1.49.83ZM608.71,494.4c-.32,0-.63-.08-.92-.26l-33.96-21.13c-.82-.51-1.07-1.59-.56-2.41.51-.82,1.59-1.08,2.41-.56l33.96,21.13c.82.51,1.07,1.59.56,2.41-.33.53-.9.83-1.49.83ZM540.78,452.13c-.32,0-.63-.08-.92-.26l-33.96-21.13c-.82-.51-1.07-1.59-.56-2.41.51-.82,1.59-1.07,2.41-.56l33.96,21.13c.82.51,1.07,1.59.56,2.41-.33.53-.9.83-1.49.83ZM472.86,409.86c-.32,0-.63-.08-.92-.26l-33.96-21.13c-.82-.51-1.07-1.59-.56-2.41.51-.82,1.59-1.07,2.41-.56l33.96,21.13c.82.51,1.07,1.59.56,2.41-.33.53-.9.83-1.49.83ZM404.94,367.59c-.32,0-.63-.08-.92-.26l-33.96-21.13c-.82-.51-1.07-1.59-.56-2.41.51-.82,1.59-1.07,2.41-.56l33.96,21.13c.82.51,1.07,1.59.56,2.41-.33.53-.9.83-1.49.83ZM337.02,325.32c-.32,0-.64-.08-.92-.26l-33.96-21.13c-.82-.51-1.07-1.59-.56-2.41s1.59-1.07,2.41-.56l33.96,21.13c.82.51,1.07,1.59.56,2.41-.33.53-.9.83-1.49.83ZM269.1,283.06c-.32,0-.64-.08-.92-.26l-33.96-21.13c-.82-.51-1.07-1.59-.56-2.41.51-.82,1.59-1.07,2.41-.56l33.96,21.13c.82.51,1.07,1.59.56,2.41-.33.53-.9.83-1.49.83ZM201.18,240.79c-.32,0-.64-.08-.92-.26l-33.96-21.13c-.82-.51-1.07-1.59-.56-2.41.51-.82,1.59-1.07,2.41-.56l33.96,21.13c.82.51,1.07,1.59.56,2.41-.33.53-.9.83-1.49.83ZM133.25,198.52c-.32,0-.64-.08-.92-.26l-33.96-21.13c-.82-.51-1.07-1.59-.56-2.41s1.59-1.07,2.41-.56l33.96,21.13c.82.51,1.07,1.59.56,2.41-.33.53-.9.83-1.49.83Z" fill="#2b2b2b"/><path d="M119.61,663.48c-.58,0-1.16-.29-1.49-.83-.51-.82-.26-1.9.56-2.41l33.96-21.13c.82-.51,1.9-.26,2.41.56.51.82.26,1.9-.56,2.41l-33.96,21.13c-.29.18-.61.26-.92.26ZM187.53,621.21c-.58,0-1.16-.29-1.49-.83-.51-.82-.26-1.9.56-2.41l33.96-21.13c.82-.51,1.9-.26,2.41.56.51.82.26,1.9-.56,2.41l-33.96,21.13c-.29.18-.61.26-.92.26ZM255.45,578.94c-.58,0-1.16-.29-1.49-.83-.51-.82-.26-1.9.56-2.41l33.96-21.13c.82-.51,1.9-.26,2.41.56s.26,1.9-.56,2.41l-33.96,21.13c-.29.18-.61.26-.92.26ZM323.37,536.67c-.58,0-1.16-.29-1.49-.83-.51-.82-.26-1.9.56-2.41l33.96-21.13c.82-.51,1.9-.26,2.41.56.51.82.26,1.9-.56,2.41l-33.96,21.13c-.29.18-.61.26-.92.26ZM391.3,494.4c-.58,0-1.16-.29-1.49-.83-.51-.82-.26-1.9.56-2.41l33.96-21.13c.82-.51,1.9-.26,2.41.56.51.82.26,1.9-.56,2.41l-33.96,21.13c-.29.18-.61.26-.92.26ZM459.22,452.13c-.58,0-1.16-.29-1.49-.83-.51-.82-.26-1.9.56-2.41l33.96-21.13c.82-.51,1.9-.26,2.41.56.51.82.26,1.9-.56,2.41l-33.96,21.13c-.29.18-.61.26-.92.26ZM527.14,409.86c-.58,0-1.16-.29-1.49-.83-.51-.82-.26-1.9.56-2.41l33.96-21.13c.82-.51,1.9-.26,2.41.56.51.82.26,1.9-.56,2.41l-33.96,21.13c-.29.18-.61.26-.92.26ZM595.06,367.59c-.58,0-1.16-.29-1.49-.83-.51-.82-.26-1.9.56-2.41l33.96-21.13c.82-.51,1.9-.26,2.41.56.51.82.26,1.9-.56,2.41l-33.96,21.13c-.29.18-.61.26-.92.26ZM662.98,325.32c-.58,0-1.16-.29-1.49-.83-.51-.82-.26-1.9.56-2.41l33.96-21.13c.82-.51,1.9-.26,2.41.56.51.82.26,1.9-.56,2.41l-33.96,21.13c-.29.18-.61.26-.92.26ZM730.9,283.06c-.58,0-1.16-.29-1.49-.83-.51-.82-.26-1.9.56-2.41l33.96-21.13c.82-.51,1.9-.26,2.41.56.51.82.26,1.9-.56,2.41l-33.96,21.13c-.29.18-.61.26-.92.26ZM798.83,240.79c-.58,0-1.16-.29-1.49-.83-.51-.82-.26-1.9.56-2.41l33.96-21.13c.82-.51,1.9-.26,2.41.56.51.82.26,1.9-.56,2.41l-33.96,21.13c-.29.18-.61.26-.92.26ZM866.75,198.52c-.58,0-1.16-.29-1.49-.83-.51-.82-.26-1.9.56-2.41l33.96-21.13c.82-.51,1.9-.26,2.41.56.51.82.26,1.9-.56,2.41l-33.96,21.13c-.29.18-.61.26-.92.26Z" fill="#2b2b2b"/></svg>