<?xml version="1.0" encoding="UTF-8"?><svg id="_レイヤー_6" xmlns="http://www.w3.org/2000/svg" width="300" height="1000" viewBox="0 0 300 1000"><path d="M143.4,980.33c-5.87,0-10.91-3.51-12.95-9.08-.01-.04-.03-.08-.04-.11l-44.16-137.69c-.09-.29-.14-.6-.14-.91l-1.22-759.65c0-.21.12-20.62,3.9-27.98,10.8-20.99,57.5-22.61,80.62-17.62,17.03,3.68,29.24,18.69,29.68,36.5l3.42,768.73c0,.33-.05.65-.15.96l-45.56,136.64c-1.6,5.91-6.58,9.91-12.71,10.2-.23.01-.46.02-.69.02ZM136.11,969.23c1.47,3.94,4.95,5.22,7.7,5.08,2.78-.13,6.13-1.73,7.21-5.83.02-.06.03-.12.06-.18l45.43-136.26-3.42-768.17c-.37-14.97-10.63-27.63-24.95-30.72h0c-23.85-5.15-65.53-2-74.01,14.5-2.41,4.69-3.23,19.29-3.23,25.23l1.21,759.18,44,137.18Z" fill="#2b2b2b"/><path d="M87.94,103.67c-.74,0-1.43-.47-1.67-1.21-.3-.92.21-1.91,1.13-2.2.54-.18,55.11-17.46,105.27-1.15.92.3,1.42,1.29,1.12,2.21-.3.92-1.29,1.42-2.21,1.12-49.06-15.96-102.58.98-103.11,1.15-.18.06-.36.08-.54.08Z" fill="#2b2b2b"/><path d="M92.19,169.64c-.54,0-1.07-.25-1.41-.71-.57-.78-.41-1.87.37-2.45,1.33-.98,33.4-23.83,103.33-3.88.93.26,1.47,1.23,1.2,2.16-.27.93-1.23,1.47-2.16,1.2-68.3-19.48-99.98,3.1-100.3,3.33-.31.23-.68.34-1.04.34Z" fill="#2b2b2b"/><path d="M111.42,823.76c-.97,0-1.75-.78-1.75-1.75V161.48c0-.97.78-1.75,1.75-1.75s1.75.78,1.75,1.75v660.53c0,.97-.78,1.75-1.75,1.75Z" fill="#2b2b2b"/><path d="M121.93,936.29c-.26,0-.53-.06-.78-.18-.86-.43-1.21-1.48-.78-2.34.21-.42,5.25-10.31,16.25-13.06,8.28-2.08,17.53.48,27.51,7.59.79.56.97,1.65.41,2.44-.56.79-1.65.97-2.44.41-9.09-6.47-17.37-8.85-24.6-7.05-9.43,2.34-13.96,11.15-14,11.24-.31.61-.93.96-1.57.96Z" fill="#2b2b2b"/><path d="M197.51,834.88c-.29,0-.58-.07-.85-.22-52.89-29.66-106.17-.9-106.7-.6-.85.47-1.91.16-2.38-.68-.47-.84-.16-1.91.68-2.38.56-.31,13.98-7.66,34.33-11.33,18.8-3.39,47.21-4.08,75.77,11.94.84.47,1.14,1.54.67,2.38-.32.57-.92.89-1.53.89Z" fill="#2b2b2b"/><path d="M174.75,822.72c-.97,0-1.75-.78-1.75-1.75V160.44c0-.97.78-1.75,1.75-1.75s1.75.78,1.75,1.75v660.53c0,.97-.78,1.75-1.75,1.75Z" fill="#2b2b2b"/><path d="M143.09,817.94c-.97,0-1.75-.78-1.75-1.75V155.66c0-.97.78-1.75,1.75-1.75s1.75.78,1.75,1.75v660.53c0,.97-.78,1.75-1.75,1.75Z" fill="#2b2b2b"/><path d="M165.7,932.73l-11.99,37.67c-3.57,8.79-16.94,9.69-20.65.96l-11.34-35.67,8.45-9.11c7.7-4.66,17.14-3.39,25.47.02l10.07,6.13Z" fill="#2b2b2b"/><path d="M142.75,979.22c-5.1,0-9.43-2.74-11.31-7.17l-.06-.16-11.65-36.64,9.31-10.04.21-.13c9.11-5.51,19.73-3.1,27.04-.1l.25.12,11.25,6.85-12.46,39.11c-2,4.91-6.89,8.11-12.46,8.16-.04,0-.08,0-.12,0ZM134.69,970.75c1.36,3.12,4.36,4.97,8.06,4.97.03,0,.06,0,.09,0,4.13-.03,7.74-2.35,9.22-5.92l11.56-36.29-8.78-5.34c-6.5-2.65-15.79-4.79-23.56-.22l-7.58,8.18,11,34.62Z" fill="#2b2b2b"/></svg>