<?xml version="1.0" encoding="UTF-8"?><svg id="_レイヤー_5" xmlns="http://www.w3.org/2000/svg" width="1000" height="1000" viewBox="0 0 1000 1000"><path d="M101.54,851.63c-6.46,0-13.8-1.2-21.74-4.54-3.55-1.49-5.79-4.82-5.7-8.49l.85-33.65c.07-2.43,1.13-4.68,3-6.34,2.06-1.83,4.86-2.73,7.67-2.48h0c.77.07,1.55.23,2.32.49,6.2,2.04,15.87,3.75,26.71.29,1.43-.45,2.86-.59,4.28-.43,4.81.5,8.46,4.15,8.64,8.68l1.29,33.14c.14,3.52-1.93,6.82-5.26,8.41-4.7,2.24-12.38,4.93-22.06,4.93ZM84.69,802.09c-1.03,0-2.04.36-2.76,1-.44.39-.96,1.05-.99,2.02l-.85,33.64c-.03,1.18.76,2.28,2.02,2.81,17.7,7.44,31.97,3.02,38.9-.28,1.18-.56,1.88-1.62,1.84-2.75l-1.29-33.13c-.07-1.7-1.75-2.79-3.29-2.95-.6-.07-1.21,0-1.82.19-12.35,3.94-23.34,2-30.39-.31-.34-.11-.67-.18-.99-.21-.13-.01-.26-.02-.39-.02Z" fill="#2b2b2b"/><path d="M699.73,965.33c-6.46,0-13.8-1.2-21.74-4.54-3.56-1.5-5.79-4.84-5.7-8.49l.86-33.65c.07-3.36,2.12-6.39,5.34-7.9h0c2.39-1.12,5.1-1.28,7.64-.44,6.21,2.05,15.87,3.76,26.7.3,1.79-.57,3.69-.65,5.5-.24,4.28.97,7.26,4.38,7.42,8.49l1.29,33.13c.14,3.53-1.93,6.83-5.26,8.41-4.7,2.23-12.37,4.93-22.05,4.93ZM681.04,916.18h0c-1.16.54-1.87,1.52-1.89,2.61l-.86,33.66c-.03,1.17.77,2.28,2.03,2.81,17.7,7.43,31.96,3.01,38.89-.29,1.18-.56,1.89-1.61,1.84-2.75l-1.29-33.13c-.06-1.57-1.42-2.57-2.75-2.87-.77-.17-1.59-.14-2.36.11-12.36,3.94-23.35,2-30.39-.32-1.08-.35-2.22-.29-3.22.18Z" fill="#2b2b2b"/><path d="M906.52,833.02c-6.46,0-13.8-1.2-21.74-4.54-3.55-1.49-5.79-4.82-5.7-8.49l.85-33.64c.11-4.16,3.21-7.7,7.54-8.64,1.79-.39,3.68-.29,5.45.29,6.2,2.04,15.87,3.75,26.7.29,1.03-.33,2.1-.49,3.18-.49,5.26,0,9.54,3.84,9.74,8.74l1.29,33.14c.14,3.52-1.93,6.82-5.26,8.41-4.7,2.24-12.39,4.94-22.06,4.94ZM889.66,783.48c-.3,0-.61.03-.9.1,0,0,0,0-.01,0-1.32.28-2.77,1.32-2.81,2.93l-.85,33.63c-.03,1.18.76,2.28,2.02,2.81,17.69,7.44,31.97,3.02,38.9-.28,1.18-.56,1.89-1.62,1.84-2.75l-1.29-33.13c-.07-1.64-1.75-2.98-3.74-2.98-.46,0-.92.07-1.37.21-12.36,3.94-23.35,2.01-30.39-.31-.46-.15-.93-.23-1.4-.23ZM888.12,780.65h0,0Z" fill="#2b2b2b"/><path d="M343.67,732.64c-6.46,0-13.8-1.2-21.74-4.54-3.55-1.49-5.79-4.82-5.7-8.49l.86-33.65c.11-4.51,3.82-8.29,8.62-8.8,1.45-.16,2.92,0,4.35.46,6.22,2.04,15.89,3.75,26.71.3,1.04-.33,2.1-.49,3.18-.49,5.27,0,9.55,3.84,9.74,8.74l1.29,33.13c.14,3.53-1.93,6.83-5.26,8.41-4.7,2.23-12.37,4.93-22.05,4.93ZM326.82,683.1c-.15,0-.31,0-.46.02,0,0-.01,0-.02,0-1.54.16-3.21,1.26-3.25,2.98l-.86,33.65c-.03,1.18.76,2.28,2.02,2.81,17.7,7.43,31.97,3.01,38.9-.28,1.18-.56,1.89-1.61,1.84-2.75l-1.29-33.13c-.06-1.64-1.74-2.98-3.74-2.98-.46,0-.92.07-1.37.21-12.34,3.94-23.34,2-30.39-.31-.46-.15-.92-.22-1.39-.22ZM326.03,680.15h0,0Z" fill="#2b2b2b"/><path d="M662.27,309c-4.16,0-7.85-.42-10.53-.85-3.22-.51-173.24-21.95-300.85-38.04-.08-.01-.16-.02-.24-.04-11.36-1.42-22.56-2.83-33.51-4.21-88.67-11.17-160.99-20.28-164.08-20.67-6.02-.34-11.44-1.34-16.1-2.97-15.71-5.46-23.36-17.67-22.75-36.29.04-1.06.12-22.57.24-59.02.03-5.97.04-9.88.04-9.88,0-1.65,1.35-2.99,3-2.99h0c1.66,0,3,1.35,2.99,3.01,0,0-.01,3.91-.04,9.89-.08,26.29-.19,57.92-.24,59.21-.19,5.84-.77,23.63,18.73,30.42,4.16,1.45,9.06,2.34,14.57,2.65.07,0,.14,0,.21.02,0,0,73.55,9.26,164.18,20.68,11.03,1.39,22.31,2.81,33.75,4.24.08.01.17.02.25.04,205.77,25.93,298.56,37.67,300.81,38.03,3.47.56,8.82,1.1,14.57.54,18.07-1.78,27.49-12.93,27.99-33.14l3.69-64.64c.09-1.65,1.52-2.93,3.17-2.82,1.65.09,2.92,1.51,2.82,3.17l-3.69,64.54c-.77,31.02-21.26,37.67-33.4,38.86-1.92.19-3.8.27-5.59.27Z" fill="#2b2b2b"/><path d="M85.37,801.92s-.07,0-.11,0c-1.66-.06-2.95-1.45-2.89-3.1.2-5.69,20.17-569.31,20.17-603.8,0-42.29,10.23-49.69,12.28-50.75l2.75,5.33s.05-.02.14-.08c-.09.06-9.16,6.49-9.16,45.49,0,34.6-19.97,598.33-20.17,604.02-.06,1.62-1.39,2.89-3,2.89Z" fill="#2b2b2b"/><path d="M118.63,802.12s-.04,0-.07,0c-1.66-.04-2.97-1.41-2.94-3.06l1.19-55.17c.04-1.66,1.42-2.97,3.06-2.94,1.66.04,2.97,1.41,2.94,3.06l-1.19,55.17c-.04,1.63-1.37,2.94-3,2.94Z" fill="#2b2b2b"/><path d="M122.67,713.24s-.07,0-.1,0c-1.66-.05-2.95-1.44-2.9-3.1l.32-9.79,14.82-460.63c.05-1.66,1.42-2.97,3.1-2.9,1.66.05,2.96,1.44,2.9,3.1l-14.82,460.63-.32,9.79c-.05,1.62-1.39,2.9-3,2.9Z" fill="#2b2b2b"/><path d="M156.24,718.46c-1.12,0-2.2-.63-2.71-1.72-.71-1.5-.07-3.29,1.43-3.99l178.68-84.44c2.57-1.22,4.15-3.65,4.23-6.51.07-2.77-1.32-5.21-3.74-6.5-2.68-1.44-5.7-1.5-6.79-1.46l-201.47,89.41c-1.51.67-3.29-.01-3.96-1.53-.67-1.51.01-3.29,1.53-3.96l201.96-89.63c.29-.13.59-.21.9-.24.23-.03,5.68-.57,10.67,2.12,4.38,2.35,7.02,6.93,6.89,11.94-.13,5.1-3.07,9.61-7.66,11.78l-8.86,4.19-169.82,80.25c-.41.2-.85.29-1.28.29Z" fill="#2b2b2b"/><path d="M721.28,829.38c-1.05,0-2.07-.55-2.62-1.53-.81-1.45-.29-3.27,1.15-4.08l185.5-103.91c.06-.03.12-.07.18-.1,2.57-1.22,4.16-3.66,4.23-6.53.07-2.77-1.32-5.2-3.73-6.5-2.61-1.4-5.52-1.49-6.67-1.46l-175.93,94.77c-1.46.79-3.28.24-4.06-1.22-.79-1.46-.24-3.28,1.22-4.06l176.51-95.08c.34-.18.71-.3,1.1-.34.23-.02,5.67-.58,10.67,2.11,4.38,2.35,7.02,6.93,6.89,11.94-.13,5.07-3.03,9.56-7.57,11.75l-185.42,103.86c-.46.26-.97.38-1.46.38Z" fill="#2b2b2b"/><path d="M678.66,914.62s-.09,0-.13,0c-1.66-.07-2.94-1.47-2.86-3.13,0,0,1.24-27.95,3.14-71.99l1.42-33.14c6.56-154,17.6-423.34,17.74-497.04,0-4.31.04-8.44.08-12.38.71-59.16,5.84-92.11,14.44-92.77,1.67-.13,3.09,1.11,3.22,2.76.1,1.33-.68,2.53-1.85,3.01-1.05,1.08-8.9,11.66-9.81,87.07-.04,3.93-.07,8.04-.08,12.33-.14,73.8-11.18,343.24-17.74,497.28l-1.42,33.14c-1.9,44.04-3.14,71.99-3.14,71.99-.07,1.61-1.4,2.87-3,2.87ZM712.95,210.15s0,0,0,0c0,0,0,0,0,0ZM712.96,210.15s0,0,0,0c0,0,0,0,0,0ZM712.97,210.15s0,0,0,0c0,0,0,0,0,0ZM712.98,210.15s0,0,0,0c0,0,0,0,0,0Z" fill="#2b2b2b"/><path d="M717.79,915.82s-.07,0-.11,0c-1.66-.06-2.95-1.45-2.89-3.1,0,0,1.2-33.98,3.01-86.46.32-9.12.66-18.8,1.01-28.97,5.18-150.78,14.08-417.35,15.52-508.5.16-10.22.22-18.17.18-23.65-.38-47.75,13.18-63.26,21.3-68.25,2.4-1.49,4.1-1.87,4.42-1.94,1.63-.32,3.2.73,3.53,2.36.32,1.61-.71,3.17-2.31,3.52-.09.02-1.04.28-2.48,1.17-5.67,3.49-18.82,16.61-18.45,63.09.04,5.52-.02,13.53-.18,23.79-1.44,91.2-10.34,357.81-15.52,508.62-.35,10.17-.69,19.85-1.01,28.97-1.81,52.48-3.01,86.46-3.01,86.46-.06,1.62-1.39,2.89-3,2.89Z" fill="#2b2b2b"/><path d="M681.54,842.62c-.15,0-.3-.01-.45-.03-20.05-3.01-491.88-74.05-561.99-96.4-6.35-2.01-8.23-3.28-9.16-4.16-.77-.72-1.45-1.43-2.07-2.15-5.04-5.76-6.15-13.66-2.89-20.59,3.31-7.03,10.1-11.26,17.73-11.06.93.02,1.9.12,2.87.28l557.35,94.99c1.63.28,2.73,1.83,2.45,3.46-.28,1.63-1.83,2.73-3.46,2.45l-557.34-94.99c-.69-.11-1.38-.18-2.03-.2-5.2-.13-9.86,2.77-12.14,7.62-2.27,4.81-1.52,10.08,1.99,14.1.5.58,1.03,1.13,1.66,1.72.12.11,1.21,1.02,6.85,2.8,69.65,22.2,556.15,95.45,561.06,96.18,1.64.25,2.77,1.77,2.52,3.41-.22,1.49-1.5,2.55-2.96,2.55Z" fill="#2b2b2b"/><path d="M924.93,782.35c-1.61,0-2.94-1.28-3-2.9-.18-5.13-17.8-513.6-20.02-568.51-1.94-48.07-7.23-56.16-7.84-56.94-1.11-.89-1.46-2.46-.77-3.76.78-1.46,2.6-2.01,4.06-1.23,5.23,2.8,9.08,25.28,10.54,61.69,2.22,54.93,19.84,563.42,20.02,568.55.06,1.66-1.24,3.04-2.89,3.1-.04,0-.07,0-.11,0ZM894.52,154.3s.01,0,.02,0c0,0-.01,0-.02,0ZM894.51,154.29s0,0,0,0c0,0,0,0,0,0Z" fill="#2b2b2b"/><path d="M887.29,708.55c-1.64,0-2.97-1.31-3-2.96-.05-3.4-5.02-341.8-9.39-468.14-1.17-33.81-2.01-43.88-2.5-46.37-4.1-20.5-11.46-21.48-11.54-21.49.09,0,.14,0,.14,0v-6c1.23,0,12.17.74,17.28,26.31.8,4,1.65,19.48,2.62,47.33,4.37,126.4,9.34,464.86,9.39,468.26.02,1.66-1.3,3.02-2.96,3.04-.01,0-.03,0-.04,0Z" fill="#2b2b2b"/><path d="M887.88,782.65s-.03,0-.04,0c-1.66-.02-2.98-1.38-2.96-3.04l.6-45.8c.02-1.64,1.36-2.96,3-2.96.01,0,.03,0,.04,0,1.66.02,2.98,1.38,2.96,3.04l-.6,45.8c-.02,1.64-1.36,2.96-3,2.96Z" fill="#2b2b2b"/><path d="M361.46,681.76c-1.62,0-2.96-1.29-3-2.92l-10.28-410.91c-.04-1.66,1.27-3.03,2.92-3.07,1.65-.04,3.03,1.27,3.07,2.92l10.28,410.91c.04,1.66-1.27,3.03-2.92,3.07-.03,0-.05,0-.08,0Z" fill="#2b2b2b"/><path d="M326.62,613.87c-1.62,0-2.95-1.29-3-2.92l-9.12-347.8c-.04-1.66,1.26-3.03,2.92-3.08,1.69-.03,3.03,1.26,3.08,2.92l9.12,347.8c.04,1.66-1.26,3.03-2.92,3.08-.03,0-.05,0-.08,0Z" fill="#2b2b2b"/><path d="M325.83,681.57h-.03c-1.66-.02-2.99-1.37-2.97-3.03l.39-43.02c.02-1.65,1.36-2.97,3-2.97h.03c1.66.02,2.99,1.37,2.97,3.03l-.39,43.02c-.02,1.65-1.36,2.97-3,2.97Z" fill="#2b2b2b"/><path d="M737.85,291.84c-1.22,0-2.37-.75-2.82-1.96-.57-1.55.22-3.28,1.78-3.85l139.81-51.48c1.55-.57,3.28.22,3.85,1.78.57,1.55-.22,3.28-1.78,3.85l-139.81,51.48c-.34.13-.69.19-1.04.19Z" fill="#2b2b2b"/><path d="M674.07,309.28c-3.39,0-5.92-.2-6.74-.27-1.65-.15-2.87-1.61-2.72-3.26.15-1.65,1.59-2.87,3.26-2.72,6.62.59,26.36.51,30.08-7.36.71-1.5,2.5-2.14,4-1.43,1.5.71,2.14,2.5,1.43,4-4.52,9.55-20.08,11.04-29.3,11.04Z" fill="#2b2b2b"/><path d="M718.49,182.45c-3.06,0-5.73-.11-7.88-.19-1.32-.05-2.46-.1-3.27-.1-.11,0-.22,0-.33-.02L68.12,112.26c-4.3-.1-7.91-3.69-7.91-7.92,0-2.51,1.4-8.63,14.34-11.34l196.07-56.53c7.1-2.29,21.68-2.01,29.28-1.1l631.88,61.37c2.29.08,5,1.61,6.64,3.77,1.53,2.01,2.02,4.38,1.38,6.67,0,0,0,0,0,.01-1.24,4.38-6.24,7.84-15.29,10.6l-178.26,60.62c-10.07,3.36-20.1,4.03-27.76,4.03ZM707.51,176.16c.9,0,2.04.05,3.34.1,7.15.29,20.45.82,33.49-3.53l178.33-60.64c9.91-3.02,11.2-5.97,11.36-6.53.08-.29.11-.7-.3-1.3-.62-.91-1.75-1.49-2.16-1.53-.1,0-.16,0-.26-.01L299.25,41.33c-8.36-1.01-21.41-.89-26.88.87l-196.27,56.59c-.07.02-.15.04-.22.05-7.63,1.58-9.67,4.2-9.67,5.49,0,.97,1.04,1.92,2.09,1.92.11,0,.22,0,.33.02l638.88,69.88ZM936.91,106.38h0,0Z" fill="#2b2b2b"/><path d="M713.72,208.85c-.35,0-.69,0-1.02,0-6.62-.05-10.54-.62-11.15-.72L117.22,139.35l-45.94-5.41c-6.76-.8-11.85-6.53-11.85-13.33v-16.22c0-1.66,1.34-3,3-3s3,1.34,3,3v16.22c0,3.76,2.82,6.93,6.55,7.37l45.94,5.41,584.39,68.79s.1.01.14.02c.03,0,3.74.6,10.29.65,9.44.08,24.72-.95,43.83-6.3,4.42-1.23,8.87-2.65,13.24-4.21l159.85-57.41c2.94-1.06,4.91-3.87,4.91-6.99v-21.35c0-1.66,1.34-3,3-3s3,1.34,3,3v21.35c0,5.64-3.57,10.72-8.88,12.63l-159.85,57.41c-4.5,1.61-9.09,3.07-13.65,4.35-19.11,5.35-34.57,6.52-44.47,6.52Z" fill="#2b2b2b"/><path d="M461.5,250.39c-.11,0-.22,0-.34-.02l-156.75-17.68c-1.54-.17-2.7-1.5-2.66-3.05l1.09-45.12c.02-.84.39-1.64,1.03-2.19.63-.55,1.47-.81,2.31-.72l156.75,17.68c1.54.17,2.7,1.5,2.66,3.05l-1.09,45.12c-.02.84-.39,1.64-1.03,2.19-.55.48-1.25.74-1.97.74ZM307.82,227.03l150.76,17.01.94-39.1-150.76-17-.94,39.1Z" fill="#2b2b2b"/></svg>