<?xml version="1.0" encoding="UTF-8"?><svg id="_レイヤー_8" xmlns="http://www.w3.org/2000/svg" width="1000" height="1000" viewBox="0 0 1000 1000"><path d="M143.21,486.83c-1.53,0-2.83-1.16-2.98-2.71-11.52-118.99,10.57-212.12,65.65-276.79,82-96.29,215.64-104.78,272.71-108.41,1.62-.1,3.08,1.15,3.18,2.8.1,1.65-1.15,3.08-2.8,3.18-56.31,3.58-188.17,11.96-268.52,106.31-53.98,63.39-75.6,155.01-64.24,272.33.16,1.65-1.05,3.12-2.7,3.27-.1,0-.2.01-.29.01Z" fill="#2b2b2b"/><path d="M173.19,668.86c-.67,0-1.35-.23-1.91-.69-8.04-6.68-15.49-14.78-22.78-24.76-22.25-30.52-20.08-75.3-14.33-107.5,3.12-17.51,7.11-30.22,8.09-33.23-.8-6.57-1.47-12.65-2.04-18.56-.16-1.65,1.05-3.11,2.7-3.27,1.64-.16,3.11,1.05,3.27,2.7.58,6.06,1.27,12.3,2.1,19.07.06.45,0,.91-.14,1.33-.05.14-4.66,13.79-8.09,33.01-5.54,31.04-7.74,74.09,13.27,102.91,6.99,9.58,14.11,17.32,21.76,23.68,1.28,1.06,1.45,2.95.39,4.22-.59.71-1.45,1.08-2.31,1.08Z" fill="#2b2b2b"/><path d="M673.62,707.22c-42.27,0-84.82-2.89-117.23-5.09-22.15-1.5-39.65-2.69-48.3-2.33-.08,0-.17,0-.25,0-8.72-.36-26.15.34-48.21,1.23-59.75,2.41-159.77,6.45-224.14-5.88-24.76-4.74-45.15-11.14-64.18-26.96-1.27-1.06-1.45-2.95-.39-4.22,1.06-1.27,2.95-1.45,4.22-.39,18.04,15,37.63,21.12,61.48,25.68,63.7,12.2,163.27,8.18,222.77,5.78,22.1-.89,39.57-1.59,48.58-1.24,9.02-.35,26.6.84,48.83,2.35,69.24,4.7,185.12,12.57,243.69-11.47,20.13-8.27,39.42-17.14,54.14-34.66,6.68-7.95,12.19-17.33,16.85-28.69,11.18-27.29,8.68-60.44,4.61-83.44-3.43-19.45-8.28-33.32-8.33-33.46-.15-.44-.21-.9-.15-1.36.81-6.6,1.47-12.53,2-18.14,11.56-117.69-9.98-209.62-64.02-273.24-80.32-94.57-212.24-103.11-268.57-106.75-1.65-.11-2.91-1.53-2.8-3.19.11-1.65,1.54-2.91,3.19-2.8,57.09,3.7,190.79,12.35,272.75,108.86,55.13,64.91,77.14,158.34,65.42,277.7-.52,5.46-1.15,11.22-1.93,17.61,1.04,3.06,5.21,15.99,8.34,33.73,4.2,23.78,6.75,58.13-4.97,86.76-4.9,11.94-10.72,21.85-17.81,30.27-15.6,18.56-35.61,27.78-56.46,36.34-32.05,13.15-80.42,16.99-129.14,16.99Z" fill="#2b2b2b"/><path d="M162.95,496.07c-.92,0-1.7-.72-1.75-1.66-7.4-139.44,24-243.6,93.33-309.58,38.64-36.77,87.8-60.7,146.11-71.11,44.38-7.92,78.11-4.82,81.81-4.43l.28.03c.96.09,1.67.95,1.57,1.91-.09.96-.95,1.67-1.91,1.57l-.3-.03c-5.41-.55-133.51-12.62-225.15,74.6-68.56,65.25-99.59,168.49-92.25,306.86.05.97-.69,1.79-1.65,1.84-.03,0-.06,0-.09,0Z" fill="#2b2b2b"/><path d="M855.21,496.07s-.06,0-.09,0c-.96-.05-1.71-.88-1.66-1.84,7.32-137.9-23.6-240.97-91.89-306.34-37.89-36.27-86.16-60.05-143.46-70.67-44.45-8.24-78.98-5.25-82.77-4.88l-.61.06c-.96.09-1.82-.61-1.91-1.58-.09-.96.61-1.82,1.58-1.91l.6-.06c3.84-.37,38.83-3.4,83.75,4.93,57.98,10.75,106.85,34.84,145.24,71.58,69.07,66.11,100.34,170.09,92.97,309.05-.05.93-.82,1.66-1.75,1.66Z" fill="#2b2b2b"/><path d="M499.95,512.21c-.91,0-1.68-.7-1.74-1.63-.21-2.98-20.87-298.94,5.79-394.04.26-.93,1.23-1.47,2.16-1.21.93.26,1.47,1.23,1.21,2.16-26.5,94.51-5.88,389.87-5.67,392.84.07.96-.66,1.8-1.62,1.87-.04,0-.08,0-.13,0Z" fill="#2b2b2b"/><path d="M496.36,535.51c-204.81,0-327.1-19.54-328.31-19.74-.95-.16-1.6-1.05-1.45-2.01.16-.95,1.06-1.6,2.01-1.45,1.21.2,123.25,19.7,327.75,19.7s351.5-14.19,352.96-14.33c.96-.09,1.82.61,1.91,1.57.09.96-.61,1.82-1.57,1.91-1.46.14-148.54,14.35-353.3,14.35Z" fill="#2b2b2b"/><path d="M711.5,679.43c-45.64,0-92.82-3.9-131.51-7.11-13.65-1.13-26.54-2.2-37.99-2.98-31.25-2.14-62.95-2.44-94.19-.89-236.83,11.78-270.94,1.22-275.38-1.02-.04-.02-.09-.05-.13-.07-.25-.14-.45-.27-.6-.4l2.28-2.66s-.05-.04-.09-.06c.02.01.05.03.1.06.03.01.05.03.08.04,3.06,1.47,34.54,12.5,273.56.61,31.38-1.55,63.21-1.25,94.61.89,11.48.79,24.38,1.85,38.04,2.98,84.34,6.98,211.79,17.52,275.57-18.59.84-.48,1.91-.18,2.38.66.48.84.18,1.91-.66,2.38-28.68,16.24-71.37,24.74-130.53,25.98-5.15.11-10.33.16-15.54.16Z" fill="#2b2b2b"/><path d="M513.56,911.01c-.3,0-.56,0-.77,0-74.29-1.57-139.21-12.79-217.08-37.53-68.97-21.91-124.57-50.78-152.55-79.21-27.02-27.46-44.47-60.67-51.87-98.71-.77-3.99-1.62-8.12-2.52-12.49-5.67-27.54-12.71-61.82-6.98-92.24,6.52-34.61,26.41-71.62,57.5-107.01.63-.71,1.22-1.39,1.46-1.68.02-.04.05-.07.08-.11.74-1.07,2.12-1.58,3.41-1.15,1.57.52,2.43,2.21,1.92,3.79-.09.26-.24.55-.41.8-.04.06-.08.12-.13.19-.28.37-.76.92-1.82,2.13-38.38,43.7-51.7,80.77-56.11,104.17-5.52,29.26,1.4,62.89,6.96,89.92.9,4.39,1.76,8.54,2.54,12.56,7.16,36.86,24.07,69.04,50.25,95.65,27.31,27.75,82.02,56.07,150.09,77.7,77.29,24.55,141.71,35.69,215.39,37.25,4.31.1,29.13-.89,51.04-1.76,17.69-.7,33-1.31,36.6-1.32l4.01-.33c70.77-5.87,103.08-8.55,149.9-32.65,46.62-23.99,72.21-55.35,100.83-93.84,45.52-61.27,55.49-156.73,55.49-188.34,0-52.57-19.1-77.9-38.66-99.34-1.12-1.22-1.03-3.12.19-4.24,1.22-1.12,3.12-1.03,4.24.19,20.35,22.31,40.22,48.66,40.22,103.38,0,32.16-10.18,129.34-56.67,191.92-29.08,39.13-55.12,71.01-102.9,95.6-47.89,24.65-80.56,27.36-152.15,33.3l-4.13.34c-.08,0-.17.01-.25.01-3.24,0-19.39.64-36.49,1.32-21.96.87-44.64,1.77-50.63,1.77Z" fill="#2b2b2b"/><path d="M525.19,879.47c-78.99,0-158.13-10.87-219.09-30.25-64.26-20.41-115.31-46.53-140.06-71.67-42.51-43.19-83.44-190.56-32.06-243.32,1.16-1.19,3.06-1.21,4.24-.06,1.19,1.16,1.21,3.06.06,4.24-21.28,21.86-27.68,65.59-17.54,120,8.87,47.63,28.8,93.81,49.58,114.92,24.08,24.47,74.24,50.04,137.6,70.17,63.97,20.33,148.22,31.2,231.18,29.85,195.05-3.19,243.61-48.52,290.93-112.2,38.97-52.44,70.13-178.58,46.45-222.37-.79-1.46-.25-3.28,1.21-4.07,1.46-.79,3.28-.25,4.07,1.21,11.53,21.32,11.86,62,.92,111.61-10.22,46.34-28.55,91.25-47.83,117.2-26.49,35.65-53.04,63.36-96.49,82.69-45.64,20.31-108.93,30.45-199.16,31.93-4.66.08-9.34.11-14,.11Z" fill="#2b2b2b"/><path d="M521.15,120.75c-2.54,0-5.22-.25-8.06-.52-1.82-.17-3.7-.35-5.65-.47-2.24-.14-4.52-.14-6.73-.13-6.21.01-12.03.02-16.44-3-1.62-1.11-3.03-2.31-4.19-3.58-3.02-3.24-4.49-6.93-4.26-10.66.01-.26.05-.57.09-.88,1.4-10.4,15.59-17.42,32.98-16.32,14.64.91,26.97,7.57,29.98,16.19h0c.57,1.63.81,3.3.7,4.97-.13,2.03-.75,3.97-1.83,5.78-1.32,2.24-3.36,4.27-6.03,5.99-3.16,2.03-6.68,2.62-10.55,2.62ZM501.68,113.63c2,0,4.04.02,6.13.15,2.04.13,3.97.31,5.84.48,6.33.59,11.34,1.06,14.81-1.17,1.85-1.2,3.28-2.59,4.13-4.02.6-1,.93-2.03,1-3.09.05-.86-.07-1.74-.38-2.61-1.89-5.41-10.98-11.33-24.69-12.19-14.92-.94-25.83,5-26.66,11.14-.02.14-.04.27-.05.41-.13,2.11.77,4.2,2.67,6.25.87.94,1.93,1.85,3.17,2.69,2.88,1.97,7.8,1.97,13.04,1.96.33,0,.66,0,.98,0Z" fill="#2b2b2b"/></svg>