<?xml version="1.0" encoding="UTF-8"?><svg id="_レイヤー_13" xmlns="http://www.w3.org/2000/svg" width="850" height="1000" viewBox="0 0 850 1000"><path d="M81.32,287.23h-22.71c-.97,0-1.75-.78-1.75-1.75s.78-1.75,1.75-1.75h22.71c.97,0,1.75.78,1.75,1.75s-.78,1.75-1.75,1.75Z" fill="#2b2b2b"/><path d="M57.62,251.94c-.86,0-1.6-.63-1.73-1.5-.14-.96.53-1.84,1.48-1.98l.21-.03,11.45-1.56c.96-.13,1.84.54,1.97,1.5.13.96-.54,1.84-1.5,1.97l-11.64,1.59c-.08.01-.17.02-.25.02Z" fill="#2b2b2b"/><path d="M791.76,290.45h-19.52c-.97,0-1.75-.78-1.75-1.75s.78-1.75,1.75-1.75h19.52c.97,0,1.75.78,1.75,1.75s-.78,1.75-1.75,1.75Z" fill="#2b2b2b"/><path d="M788.87,256.65l-11.3-.03c-.97,0-1.75-.79-1.75-1.75,0-.96.79-1.75,1.75-1.75h0l11.29.03c.97,0,1.75.78,1.75,1.75s-.78,1.75-1.75,1.75Z" fill="#2b2b2b"/><path d="M425.93,276.49c-89.04,0-172.76-8.6-235.75-24.2-63.72-15.79-98.81-37.1-98.81-60.01s35.09-44.22,98.81-60.01c62.99-15.61,146.72-24.2,235.75-24.2s172.76,8.6,235.76,24.2c63.72,15.79,98.81,37.1,98.81,60.01s-35.09,44.22-98.81,60.01c-63,15.61-146.72,24.2-235.76,24.2ZM425.93,111.57c-88.76,0-172.19,8.56-234.91,24.1-61.1,15.14-96.15,35.77-96.15,56.61s35.04,41.47,96.15,56.61c62.73,15.54,146.15,24.1,234.91,24.1s172.19-8.56,234.92-24.1c61.11-15.14,96.15-35.77,96.15-56.61s-35.05-41.47-96.15-56.61c-62.73-15.54-146.16-24.1-234.92-24.1Z" fill="#2b2b2b"/><path d="M104.2,440.42c-1.47,0-2.76-1.08-2.97-2.58l-25.36-180.49c-.23-1.59.83-3.12,2.43-3.41,1.63-.3,3.19.76,3.48,2.39,0,.04.02.14.03.17l25.36,180.5c.23,1.64-.91,3.16-2.55,3.39-.14.02-.28.03-.42.03Z" fill="#2b2b2b"/><path d="M433.4,905.57c-61.87,0-115.16-5.94-158.41-17.66-34.78-9.42-63.22-22.59-84.52-39.14-36.09-28.04-39.47-56.04-39.68-58.19l-37.78-268.9c-.23-1.64.91-3.16,2.55-3.39,1.63-.23,3.16.91,3.39,2.55l37.79,268.97c0,.05.01.11.02.16.02.26,2.9,27.52,37.96,54.49,32.68,25.13,100.61,55.09,238.68,55.09s204.63-30.81,235.59-56.66c32.93-27.49,33.87-54.85,33.88-55.12,0-.11.01-.23.03-.34l37.83-281.25c.22-1.64,1.74-2.78,3.37-2.57,1.64.22,2.79,1.73,2.57,3.37l-37.81,281.1c-.11,2.8-2.08,31.08-36.03,59.41-20.28,16.92-47.9,30.39-82.11,40.02-42.51,11.97-95.45,18.04-157.33,18.04Z" fill="#2b2b2b"/><path d="M754.14,431.01c-.19,0-.38-.02-.57-.06-1.61-.32-2.67-1.84-2.38-3.45l23.41-173.04c.22-1.64,1.73-2.8,3.38-2.57,1.64.22,2.79,1.73,2.57,3.38l-23.42,173.12c0,.06-.02.12-.03.17-.28,1.43-1.54,2.45-2.96,2.45Z" fill="#2b2b2b"/><path d="M436.89,645.51c-26.87,0-53.74-1.04-80.39-3.1l-70.64-5.48c-6.05-.11-10.95-5.1-10.95-11.17v-5.1c-66.96-16.73-121-49.69-160.65-97.98-48.01-58.45-66.06-129.25-72.75-178.36-7.24-53.15-3.1-93.12-3.06-93.51.16-1.46,1.34-2.59,2.81-2.67l16.4-.97h0l3.92-.23c1.61-.08,3.03,1.12,3.17,2.75l1.79,21.51c.07.84-.21,1.66-.78,2.28-.57.62-1.37.97-2.21.97h-2.66c.37,3.69.77,7.27,1.18,10.68,6.91,57.97,21.79,108.84,44.21,151.2,33.55,63.43,78.51,96.94,110.31,113.87,27.47,14.63,50.14,19.77,58.37,21.27.22-2.63,1.35-5.08,3.24-6.96,2.11-2.1,4.91-3.26,7.89-3.26.08,0,.16,0,.24,0l68.8,4.98c47.98,3.49,96.69,3.59,144.76.31l70.5-4.8c.07,0,.14,0,.21,0,4.97.01,9.19,3.29,10.62,7.79,76.93-31.92,134.23-80.02,170.34-143.02,34.43-60.09,39.3-116.4,39.79-137.82.05-2.32.05-4.21.04-5.6h-3.36c-1.66,0-3-1.34-3-3v-25.09c0-.82.33-1.6.92-2.17.59-.56,1.39-.86,2.2-.83l20.62.89c1.53.07,2.76,1.27,2.86,2.8,6.7,99.57-15.77,184.28-66.8,251.78-35.55,47.04-78.56,76.42-108.38,92.79-27.09,14.87-48.05,21.86-54.72,23.9v3.83c0,3.01-1.18,5.83-3.31,7.94-2.11,2.08-4.89,3.23-7.85,3.23h0l-68.47,4.32c-21.65,1.36-43.43,2.04-65.2,2.04ZM44.19,253.97c-.76,9.49-2.85,44.81,3.28,89.71,6.6,48.29,24.35,117.88,71.42,175.2,39.25,47.81,92.99,80.28,159.72,96.52,1.34.33,2.29,1.53,2.29,2.92v7.45c0,2.83,2.29,5.14,5.12,5.17.07,0,.14,0,.21,0l70.73,5.49c47.96,3.72,96.66,4.08,144.75,1.06l68.57-4.33c.07,0,.15,0,.22,0,1.36,0,2.7-.52,3.69-1.49.99-.98,1.53-2.28,1.53-3.68v-6.08c0-1.35.91-2.54,2.21-2.89.24-.06,24.04-6.67,55.8-24.11,29.26-16.08,71.45-44.92,106.31-91.05,49.68-65.71,71.8-148.15,65.77-245.08l-14.8-.64v18.96h3.28c1.59,0,2.91,1.25,3,2.83,0,.13.17,3.27.04,8.91-.51,21.88-5.47,79.38-40.59,140.66-37.35,65.18-96.87,114.66-176.9,147.08-.92.38-1.97.26-2.8-.29-.83-.56-1.32-1.49-1.32-2.49v-.88c0-2.81-2.26-5.11-5.06-5.17l-70.38,4.79c-48.35,3.3-97.34,3.19-145.6-.31l-68.68-4.97c-1.35.02-2.61.55-3.57,1.51-.98.98-1.52,2.28-1.52,3.67v2.56c0,.86-.37,1.67-1.01,2.24s-1.5.83-2.35.74c-1.13-.13-28.09-3.51-63.53-22.33-32.63-17.32-78.72-51.6-113.05-116.5-22.77-43.02-37.87-94.6-44.87-153.3-.53-4.47-1.04-9.21-1.52-14.11-.08-.84.2-1.68.77-2.31.57-.63,1.38-.98,2.22-.98h2.71l-1.28-15.34-14.81.88Z" fill="#2b2b2b"/><path d="M423.84,295.36c-98.41,0-190.96-10.17-260.61-28.65-70.84-18.79-109.86-44.3-109.86-71.83s39.02-53.03,109.86-71.82c69.65-18.47,162.2-28.64,260.61-28.64s190.96,10.17,260.61,28.64c70.84,18.79,109.86,44.29,109.86,71.82s-39.02,53.04-109.86,71.83c-69.65,18.47-162.2,28.65-260.61,28.65ZM423.84,100.43c-97.91,0-189.91,10.1-259.07,28.44-66.98,17.76-105.4,41.83-105.4,66.02s38.42,48.26,105.4,66.03c69.16,18.34,161.17,28.44,259.07,28.44s189.91-10.1,259.07-28.44c66.98-17.77,105.4-41.83,105.4-66.03s-38.42-48.25-105.4-66.02c-69.16-18.34-161.17-28.44-259.07-28.44Z" fill="#2b2b2b"/><path d="M399.34,327.93c-205.54,0-290.2-43.02-322.37-68.66-3.64-2.9-6.91-5.82-9.72-8.7-5.34-5.43-9.15-10.84-10.18-14.45-3.66-12.8-3.7-40.08-3.7-41.23,0-1.66,1.34-3,3-3s3,1.34,3,3c0,.27.04,27.59,3.47,39.58.45,1.6,2.8,5.89,8.69,11.89,2.64,2.71,5.73,5.46,9.17,8.21,15.2,12.11,44.38,29.51,97.09,43.6,58.96,15.76,133.5,23.76,221.54,23.76,270.43,0,352.21-48.81,374.82-69.79,6.37-5.91,10.8-11.95,13.16-17.94.03-.07.05-.13.08-.19.01-.03,3.52-8.6.92-38.86-.14-1.65,1.08-3.1,2.73-3.25,1.64-.13,3.1,1.08,3.25,2.73,2.66,30.9-.79,40.38-1.42,41.83-2.7,6.81-7.63,13.57-14.63,20.07-21.58,20.03-62.16,37.01-117.33,49.1-67.51,14.79-155.52,22.29-261.57,22.29Z" fill="#2b2b2b"/><path d="M278.74,619.95c-.91,0-1.68-.7-1.74-1.62-.01-.17-1.19-17.15.4-43.25.06-.97.9-1.69,1.85-1.64.96.06,1.7.89,1.64,1.85-1.57,25.85-.41,42.62-.4,42.79.07.96-.66,1.8-1.62,1.87-.04,0-.08,0-.13,0Z" fill="#2b2b2b"/><path d="M577.94,623.06s-.1,0-.14,0c-.96-.08-1.68-.92-1.6-1.89.02-.2,1.64-20.66.07-46.51-.06-.96.68-1.79,1.64-1.85.95-.04,1.79.68,1.85,1.64,1.58,26.11-.06,46.8-.08,47-.07.91-.84,1.61-1.74,1.61Z" fill="#2b2b2b"/></svg>