<?xml version="1.0" encoding="UTF-8"?><svg id="_レイヤー_19" xmlns="http://www.w3.org/2000/svg" width="1000" height="370" viewBox="0 0 1000 370"><path d="M28.67,320.12c-.96,0-1.86-.46-2.43-1.24-.57-.78-.72-1.79-.42-2.71l54.97-164.92c.33-.98,1.13-1.72,2.13-1.96,0,0,9.29-2.29,25.3-6.18.14-.04.29-.08.43-.11.05-.01.1-.02.14-.03,69.01-16.76,301.83-72.63,406.97-89.34,72.67-11.54,112.66,6.17,130.03,17.76,6.38,4.25,13.89,6.48,21.79,6.39,28.78-.27,101.69-3.76,266.55-24.16,1.52-.18,36.79-4.02,39.99,20.21.13.99.2,2.02.22,3.15,0,.05,0,.11,0,.16l-.71,16.32c-.24,5.12-3.93,9.3-8.97,10.17l-258.28,44.21-15.09,12.93-2.35,87.1c0,.17-.02.33-.05.49-.1.53-2.63,13.05-12.46,26.72-9.06,12.6-26.3,28.57-56.97,33.04-56.91,8.29-568.98,11.83-590.75,11.98h-.02ZM85.96,154.71l-53.12,159.37c50.23-.36,531.92-4.04,585.74-11.89,52.7-7.69,63.58-51.27,64.36-54.76l2.38-88.15c.02-.85.4-1.65,1.05-2.2l16.73-14.34c.41-.35.91-.59,1.45-.68l259.1-44.35c2.24-.38,3.88-2.24,3.99-4.52l.71-16.23c-.01-.85-.06-1.61-.16-2.34-2.43-18.4-33.02-15.09-33.33-15.05-165.14,20.43-238.3,23.93-267.21,24.2-9.1.1-17.79-2.47-25.17-7.39-16.64-11.1-55.11-28.05-125.75-16.82-104.96,16.68-337.74,72.54-406.58,89.26-.06.02-.12.03-.19.04l-.07.02s-.13.04-.16.04c-12.15,2.95-20.44,4.98-23.74,5.79Z" fill="#2b2b2b"/><path d="M28.66,320.12c-1.31,0-2.52-.87-2.89-2.2-.44-1.6.49-3.25,2.09-3.69l602.29-167.31c.08-.02.15-.04.23-.05,9.65-1.87,35.25-9.38,37.74-21.45,1.72-8.33-8.49-17.28-17.35-23.32-4.64-3.17-8.92-6.13-12.92-8.89-40.73-28.18-51.69-35.75-121.52-33.61-1.68.05-3.04-1.25-3.09-2.91-.05-1.66,1.25-3.04,2.91-3.09,71.82-2.21,83.11,5.6,125.12,34.67,3.99,2.76,8.26,5.71,12.89,8.87,15.08,10.28,21.76,20.21,19.84,29.49-3.71,17.95-37.87,25.22-42.35,26.1L29.47,320.01c-.27.07-.54.11-.8.11Z" fill="#2b2b2b"/><path d="M310.84,242.34c-1.37,0-2.61-.95-2.92-2.34-.37-1.62.65-3.22,2.26-3.59,2.35-.53,235.78-53.32,327.24-75.18,43.63-10.42,55.92-21.99,58.55-29.86,1.68-5.03.05-10.45-5-16.55-1.5-1.81-1.86-4.28-.95-6.45.91-2.16,2.91-3.64,5.24-3.86l275.17-33.21c1.64-.2,3.14.97,3.34,2.62.2,1.65-.97,3.14-2.62,3.34l-275.21,33.21s-.07,0-.1.01c-.06,0-.2.02-.28.21-.07.17,0,.26.04.31,6.39,7.71,8.43,15.21,6.07,22.27-4.59,13.73-25.14,24.79-62.85,33.8-91.5,21.87-324.97,74.67-327.32,75.2-.22.05-.45.07-.66.07Z" fill="#2b2b2b"/><path d="M186.56,154.26c-.07,0-.14,0-.21,0l-77.11-5.35c-1.57-.09-2.83-1.4-2.83-2.99s1.33-3,2.99-3h.02c.07,0,.14,0,.21,0l77.14,5.35c1.65.11,2.9,1.55,2.79,3.2-.11,1.58-1.43,2.79-2.99,2.79Z" fill="#2b2b2b"/><path d="M63.33,307.91c-.16,0-.32-.02-.48-.07-.93-.27-1.47-1.23-1.2-2.16l45.72-160.32c.24-.79.99-1.29,1.82-1.23l.36.03c.96.08,1.68.93,1.6,1.89-.04.52-.31.97-.7,1.26l-45.44,159.33c-.22.77-.92,1.27-1.68,1.27Z" fill="#2b2b2b"/><path d="M167.29,280.63c-.08,0-.17,0-.25-.02-.96-.14-1.62-1.02-1.48-1.98l.04-.28,19.23-127.35c.13-.88.93-1.51,1.79-1.49l383.95,14.19c.97.04,1.72.85,1.68,1.81s-.83,1.72-1.81,1.68l-382.39-14.13-19.03,126.06c-.12.87-.87,1.5-1.73,1.5Z" fill="#2b2b2b"/><path d="M907.21,74.85c-4.45,0-6.77-3.21-7.03-6.21-.27-3.01,1.46-6.59,5.87-7.36h0c21.85-3.8,45.88-4.56,47.35,1.53.38,1.59.14,3.01-.73,4.23-2.36,3.3-9.43,5.12-26.1,6.69-7.41.7-13.91,1.08-19.31,1.11h-.04ZM936.42,61.83c-7.39,0-17.52.77-29.77,2.9h0c-2.4.42-3.11,2.2-2.99,3.6.12,1.39,1.13,3.02,3.54,3.02h.02c5.3-.03,11.7-.4,19-1.09,9.13-.86,21.52-2.34,23.58-5.24.19-.27.34-.6.2-1.27-.93-1.04-5.71-1.91-13.61-1.91ZM950.07,63.79h0ZM906.36,63.01h0,0Z" fill="#2b2b2b"/></svg>