<?xml version="1.0" encoding="UTF-8"?><svg id="_レイヤー_5のコピー" xmlns="http://www.w3.org/2000/svg" width="1000" height="1000" viewBox="0 0 1000 1000"><path d="M257.92,714.58c-23.34,0-46.69-1.98-69.9-5.93-11.36-1.94-20.56-3.23-28.97-4.07-13.48-1.35-35.8-7.62-54.29-15.26-19.17-7.92-30.88-27.12-29.13-47.79.08-1.06.21-2.17.38-3.28l.04-.22.74-3.17c2.81-12.09,5.71-24.59,8.25-36.77,5.83-28.01,42.82-72.07,77.92-84.05,1.03-.97,3.68-3.44,7.51-6.98,24.02-22.16,82.31-74.52,104.64-82.11.36-.12.68-.32.95-.59.45-.45.69-1.03.69-1.65,0-6.81,1.16-13.51,3.46-19.9,2.29-6.41,5.64-12.32,9.94-17.57,15.78-19.24,39.12-45.55,60.65-61.61,14.75-11.01,33.83-13.63,51.04-7.01l7.71,2.97c.49.19.99.31,1.49.35,1.66.17,3.29-.37,4.52-1.48,9.56-8.68,95.15-84.87,153.35-85.53,18.9-.22,25.48-1.22,27.66-1.75l3.73-42.95,61.28,9.88v49c4.24,2.45,12.23,10.71,10.75,37.97-.7,12.87,3.19,32.05,7.3,52.35.99,4.89,2,9.87,2.97,14.89.31,1.63-.75,3.2-2.37,3.52-1.63.31-3.2-.75-3.52-2.38-.97-5-1.98-9.97-2.96-14.84-4.19-20.69-8.15-40.24-7.41-53.87,1.54-28.39-7.67-32.48-8.44-32.76l-2.53-.35.22-2.57v-45.84l-49.86-8.04-3.27,37.67c.03.55-.09,1.11-.35,1.63-.92,1.82-2.05,4.09-33.12,4.45-45.47.52-115.3,53.03-149.39,83.98-2.49,2.25-5.81,3.35-9.12,3-1.02-.09-2.07-.34-3.08-.73l-7.71-2.97c-15.28-5.87-32.21-3.55-45.3,6.22-21.04,15.7-44.02,41.63-59.6,60.61-3.87,4.71-6.87,10.03-8.93,15.79-2.06,5.74-3.1,11.76-3.1,17.88,0,2.2-.86,4.28-2.42,5.86-.91.92-2.04,1.64-3.28,2.06-21.84,7.42-83.98,63.75-102.51,80.84-4.98,4.59-7.94,7.38-7.95,7.39l-.48.46-.63.21c-32.93,10.89-69.13,53.69-74.56,79.79-2.55,12.24-5.46,24.78-8.28,36.9l-.71,3.07c-.14.92-.25,1.84-.32,2.73-1.53,18.07,8.7,34.84,25.44,41.75,18,7.44,39.63,13.54,52.59,14.84,8.54.86,17.88,2.17,29.38,4.13,46.3,7.88,93.16,7.79,139.28-.28,1.63-.28,3.19.81,3.47,2.44.29,1.63-.81,3.19-2.44,3.47-23.67,4.14-47.54,6.21-71.42,6.21Z" fill="#2b2b2b"/><path d="M342.62,482.92c-37.23,0-64-11.12-79.76-20.31-2.63-1.54-4.31-4.26-4.49-7.29-.18-3.01,1.15-5.9,3.56-7.73,14.6-11.07,51.69-35.4,62.09-38.32.27-.09.58-.17.87-.22.96-.17,1.86.46,2.04,1.41.17.95-.46,1.86-1.41,2.04-.15.03-.32.07-.49.13-9.74,2.73-46.38,26.68-60.99,37.76-1.5,1.13-2.29,2.86-2.18,4.73.11,1.89,1.12,3.52,2.76,4.48,25.57,14.91,80.8,34.98,163.47,1.97,25.28-10.08,51.62-24.57,78.31-43.04,4.63-3.2,9.58-6.66,15.13-10.57,87.68-61.85,131.86-103.75,135.06-128.09,1.01-7.7-2.13-12.67-5.34-16.52-5.62-6.74-22.31-12.12-44.65-14.4-19.94-2.03-39.83-1.06-48.36,2.35-2.29.91-5.15,1.93-8.47,3.11-22.83,8.12-70.34,25-119.77,76.17-.67.7-1.78.71-2.47.04-.7-.67-.71-1.78-.04-2.47,50-51.75,98.03-68.83,121.11-77.03,3.29-1.17,6.12-2.18,8.34-3.07,17.77-7.11,82.6-4.23,96.99,13.05,3.48,4.17,7.32,10.12,6.12,19.22-3.38,25.72-46.76,67.18-136.51,130.49-5.56,3.92-10.51,7.38-15.15,10.59-26.9,18.63-53.49,33.23-79.01,43.42-33.33,13.31-62.31,18.12-86.77,18.12Z" fill="#2b2b2b"/><path d="M428.11,463.34c-.47,0-.94-.19-1.28-.56-33.31-35.84-67.69-52.69-102.2-50.08-24.37,1.84-40.35,13.15-43.3,15.4l-.5.4c-.76.59-1.86.46-2.46-.3-.59-.76-.46-1.86.3-2.46l.51-.4c3.12-2.37,19.83-14.21,45.19-16.12,24.49-1.86,62.59,5.52,105.02,51.18.66.71.62,1.82-.09,2.47-.34.31-.76.47-1.19.47Z" fill="#2b2b2b"/><path d="M522.15,410.57c-.48,0-.97-.2-1.31-.59-.52-.59-52.26-58.89-95.29-78.58-5.47-2.51-10.63-4.3-15.34-5.34-.94-.21-1.54-1.14-1.33-2.09.21-.94,1.14-1.54,2.09-1.33,4.95,1.09,10.35,2.97,16.04,5.58,43.7,19.99,95.93,78.85,96.45,79.44.64.73.57,1.83-.15,2.47-.33.29-.75.44-1.16.44Z" fill="#2b2b2b"/><path d="M261.82,680.02c-87.45,0-181.97-36.12-183.05-36.54-.9-.35-1.35-1.36-1-2.26.35-.9,1.36-1.35,2.26-1,1.22.47,123.48,47.19,217.82,33.95,13.08-1.83,27.05-4.55,41.52-8.09.94-.23,1.89.35,2.12,1.29.23.94-.35,1.89-1.29,2.12-14.59,3.56-28.68,6.3-41.87,8.15-11.84,1.66-24.1,2.39-36.51,2.39Z" fill="#2b2b2b"/><path d="M410.12,593.8c-.39,0-.78-.13-1.11-.4-77.75-63.75-137.22-82.73-173.42-87.42-39.13-5.07-60.2,5-60.41,5.1-.87.43-1.92.07-2.34-.8-.43-.87-.07-1.91.79-2.34.88-.43,21.99-10.59,62.05-5.48,36.72,4.69,96.98,23.81,175.55,88.23.75.61.86,1.72.24,2.46-.35.42-.85.64-1.35.64Z" fill="#2b2b2b"/><path d="M595.76,811.3c-3.87,0-7.76-.08-11.69-.24-101.91-4.15-178.2-13.12-220.65-25.95-21.69-6.55-36.67-26.94-36.47-49.59l-1.78-33.37c-.04-1.64-.09-38.64,63.9-95.88,15.76-14.1,34.33-28.41,55.19-42.54l57.27-57.28.13-.1,34.42-27.73c1.29-1.04,3.18-.84,4.22.45,1.04,1.29.84,3.18-.45,4.22l-34.29,27.63-57.45,57.46-.24.16c-20.74,14.03-39.17,28.23-54.79,42.2-60.72,54.31-61.88,89.85-61.9,91.16l1.79,33.48v.1c-.22,20.04,13.03,38.08,32.21,43.88,41.96,12.68,117.75,21.56,219.15,25.7,78.63,3.17,129.73-27.25,158.76-53.35,31.42-28.25,44.39-57.49,44.52-57.79l.18-.42.3-.34,34.31-39.74.33-.22,44.82-30.47c.4-.26,35.13-23.29,47.21-64.68,4.67-16.02,5.06-31.54,1.17-46.13-3.58-13.44-9.54-20.99-9.6-21.07l-.55-.69-5.46-52.87c-6.12-84.67-31.29-114.55-31.54-114.84l-.77-.89.04-1.19,1.69-49.14-55.08-4.86-3.08,40.31-2.91-.13c-74.86-3.47-160.48,83.27-161.33,84.15l-.21.19-17.17,14.56c-1.26,1.07-3.16.92-4.23-.35-1.07-1.26-.92-3.16.35-4.23l17.07-14.47c1.68-1.7,23.19-23.27,53.24-44.13,27.81-19.31,68.66-41.82,107.91-41.82.58,0,1.16,0,1.74.02l3.1-40.6,66.8,5.9-1.85,53.7c4.52,5.81,26.48,37.77,32.23,117.31l5.28,51.07c1.7,2.36,6.87,10.18,10.16,22.53,4.18,15.66,3.77,32.27-1.21,49.35-12.72,43.59-48.14,67.02-49.65,68l-44.44,30.21-33.5,38.81c-1.78,3.92-15.15,31.84-45.82,59.42-19.01,17.09-40.73,30.44-64.56,39.68-26.47,10.26-55.6,15.44-86.76,15.44Z" fill="#2b2b2b"/><path d="M564.73,778.14c-80.15,0-172.1-12.43-235.5-41.09-.88-.4-1.27-1.43-.87-2.32.4-.88,1.43-1.27,2.32-.87,84.21,38.07,219.28,47.28,309.18,36.71,23.25-2.74,46.23-12.55,68.28-29.17,40.68-30.66,64.59-74.45,64.82-74.89l.17-.26,35.33-44.38.58-.14c40.61-9.81,67.32-39.36,82.58-62.43,16.6-25.1,23.64-48.19,23.7-48.42.28-.92,1.25-1.45,2.18-1.17.93.28,1.45,1.25,1.17,2.18-.07.23-7.22,23.74-24.08,49.26-15.54,23.51-42.72,53.61-84.15,63.84l-34.49,43.33c-1.55,2.81-25.58,45.64-65.72,75.88-22.56,17-46.1,27.04-69.98,29.85-22.8,2.68-48.5,4.1-75.53,4.1Z" fill="#2b2b2b"/><path d="M708.18,743.19c-.6,0-1.19-.31-1.52-.88-47.84-82.81-113.61-130.63-195.49-142.14-63.14-8.88-113.95,8.04-119.54,10-.44.15-.66.24-.68.25-.9.35-1.91-.08-2.27-.98s.08-1.91.97-2.27c0,0,.28-.11.83-.3,5.65-1.98,57.21-19.15,121.17-10.16,36.59,5.14,70.64,17.83,101.19,37.71,37.75,24.56,70.34,60.28,96.84,106.15.48.84.2,1.91-.64,2.39-.28.16-.58.23-.87.23Z" fill="#2b2b2b"/><path d="M656.2,589.78c-30.77,0-79.84-8.36-157.77-36.72-3.93-1.43-6.78-4.73-7.61-8.83-.83-4.1.49-8.25,3.54-11.1l53.23-49.71c-3.01-.25-5.2-.38-6.4-.45-.97-.05-1.71-.87-1.66-1.84s.89-1.72,1.84-1.65c1.67.09,5.21.31,10.17.78,16.46,1.63,48.73,6.35,80.04,19.71,38.25,16.33,63.57,40.33,75.26,71.36l.25.65-.27.64c-.49,1.16-8.03,17.17-50.61,17.17ZM552.25,483.85l-55.5,51.84c-2.16,2.01-3.09,4.95-2.5,7.84.59,2.9,2.6,5.23,5.38,6.24,95.07,34.6,145.58,38.52,171.21,35.71,23.9-2.62,30.97-11.38,32.44-13.68-26.17-67.86-113.41-84.1-151.02-87.95Z" fill="#2b2b2b"/><path d="M536.19,481.92s-.07-.22-.13-.68c-.62-3.76-2.14-23.41,25.95-53.56,25.14-26.98,61.1-26.09,62.63-26.04,1.66.06,2.95,1.44,2.9,3.1-.06,1.66-1.43,2.94-3.1,2.9-.48-.02-34.85-.75-58.04,24.14-26.85,28.81-24.75,46.58-24.42,48.51l.02.1-.02-.07-5.78,1.6Z" fill="#2b2b2b"/><path d="M776.56,505.51l-1.18-2c-22.82-38.83-103.01-76.56-136.42-90.98-6.68-2.89-11.23-4.74-12.88-5.4-.9-.36-1.33-1.38-.97-2.28.36-.9,1.38-1.33,2.28-.97,1.53.62,5.57,2.26,11.49,4.8.05-.04.1-.09.15-.13l80.67-59.31c41.12-31.04,100.1-57.75,147.49-8.67,12.23,12.67,2.03,44.89-8.72,62.67-26.63,44.07-79.77,100.02-80.3,100.58l-1.6,1.68ZM642.58,410.29c34.35,14.96,110.34,51.31,134.61,89.47,8.99-9.6,54.41-58.82,78.27-98.32,10.59-17.52,19.68-47.57,9.2-58.43-45.6-47.24-102.87-21.16-142.88,9.04l-79.21,58.24Z" fill="#2b2b2b"/><path d="M705.19,573.69c-.65,0-1.27-.36-1.58-.99-.42-.87-.06-1.92.81-2.34,40.19-19.46,70.67-68.17,70.98-68.66.51-.82,1.59-1.07,2.41-.57.82.51,1.08,1.59.57,2.41-.31.5-31.31,50.05-72.43,69.96-.25.12-.51.17-.76.17Z" fill="#2b2b2b"/></svg>