<?xml version="1.0" encoding="UTF-8"?><svg id="_レイヤー_3のコピー" xmlns="http://www.w3.org/2000/svg" width="1000" height="600" viewBox="0 0 1000 600"><path d="M526.43,515.9h-26.29c-.97,0-1.75-.78-1.75-1.75s.78-1.75,1.75-1.75h26.02c80.58-25.41,162.14-17.99,162.96-17.91l240.35,15.39-59.21-373.06c-1.65-.41-3.27-1.18-4.83-2.29-2.16-1.55-4.19-3.73-6.06-6.47-2.25-3.3-3.48-6.27-3.53-6.4-.37-.89.06-1.92.95-2.28.89-.37,1.92.06,2.29.95.01.03,1.16,2.78,3.19,5.76,1.64,2.4,3.39,4.29,5.21,5.59,1.5,1.07,3.03,1.71,4.56,1.92.77.1,1.38.7,1.5,1.46l59.75,376.43c.08.53-.08,1.06-.43,1.45-.36.39-.87.61-1.41.57l-242.59-15.53c-.86-.08-81.92-7.44-161.88,17.84-.17.05-.35.08-.53.08Z" fill="#2b2b2b"/><path d="M503.72,509.33c-.52,0-1.03-.23-1.37-.66-.6-.76-.48-1.86.28-2.46.45-.36,11.21-8.8,36.41-17.47,23.12-7.95,63.34-17.55,123.6-18.17,77.15-.77,228.18,22.66,248.9,25.94l-55.82-375.27c-.14-.96.52-1.85,1.47-1.99.95-.14,1.85.52,1.99,1.47l56.17,377.63c.08.55-.1,1.11-.5,1.5-.4.39-.96.57-1.51.48-1.67-.27-168.43-27.11-250.66-26.27-114.09,1.17-157.44,34.53-157.87,34.87-.32.25-.71.38-1.09.38Z" fill="#2b2b2b"/><path d="M950.66,527.31h-449.6c-1.66,0-3-1.34-3-3s1.34-3,3-3h446.05l-66.5-391.94h-17.19c-1.66,0-3-1.34-3-3s1.34-3,3-3h19.72c1.46,0,2.71,1.06,2.96,2.5l67.52,397.94c.15.87-.1,1.76-.67,2.44-.57.67-1.41,1.06-2.29,1.06Z" fill="#2b2b2b"/><path d="M499.86,515.9h-26.29c-.18,0-.36-.03-.53-.08-79.97-25.28-161.02-17.92-161.83-17.85l-242.64,15.53c-.53.05-1.05-.17-1.41-.57-.36-.39-.52-.93-.43-1.45l59.75-376.43c.12-.76.73-1.36,1.5-1.46,1.51-.2,3.05-.84,4.56-1.92,1.64-1.18,3.25-2.86,4.78-4.99,2.3-3.21,3.6-6.33,3.61-6.37.37-.89,1.39-1.32,2.28-.95.89.37,1.32,1.39.95,2.28-.06.14-1.46,3.52-4.01,7.08-1.75,2.44-3.63,4.39-5.59,5.8-1.58,1.11-3.19,1.88-4.83,2.28l-59.21,373.06,240.41-15.39c.76-.07,82.32-7.49,162.9,17.92h26.01c.97,0,1.75.78,1.75,1.75s-.78,1.75-1.75,1.75Z" fill="#2b2b2b"/><path d="M496.28,509.33c-.38,0-.77-.12-1.09-.38-.52-.41-43.91-33.7-157.87-34.87-82.21-.88-248.99,26-250.66,26.27-.55.09-1.11-.09-1.51-.48-.4-.39-.58-.95-.5-1.5l56.17-377.63c.14-.96,1.03-1.61,1.99-1.47.96.14,1.62,1.03,1.47,1.99l-55.82,375.27c20.72-3.28,171.78-26.75,248.9-25.94,60.26.62,100.48,10.22,123.6,18.17,25.2,8.66,35.97,17.11,36.41,17.47.76.6.88,1.7.28,2.46-.35.43-.86.66-1.37.66Z" fill="#2b2b2b"/><path d="M501.06,527.31H49.34c-.88,0-1.72-.39-2.29-1.06-.57-.67-.81-1.57-.67-2.44L113.9,125.87c.24-1.44,1.49-2.5,2.96-2.5h19.72c1.66,0,3,1.34,3,3s-1.34,3-3,3h-17.19l-66.5,391.94h448.17c1.66,0,3,1.34,3,3s-1.34,3-3,3Z" fill="#2b2b2b"/><path d="M499.85,513.81h0c-.97,0-1.75-.79-1.75-1.75l.69-403.21c0-.97.78-1.75,1.75-1.75h0c.97,0,1.75.79,1.75,1.75l-.69,403.21c0,.97-.78,1.75-1.75,1.75Z" fill="#2b2b2b"/><path d="M144.44,122.19c-1.26,0-2.43-.8-2.85-2.05-.52-1.57.33-3.27,1.9-3.79.4-.13,41.04-13.49,164.09-37.15,50.47-9.7,97.94-8.63,141.08,3.19,32.74,8.97,51.16,21.05,54.52,23.38.27.18.4.29.4.29,1.3,1.02,1.54,2.91.52,4.21-1.01,1.3-2.87,1.55-4.17.55l-.16-.11c-1.99-1.38-20.23-13.63-52.7-22.53-42.25-11.58-88.8-12.62-138.36-3.09-122.52,23.56-162.93,36.82-163.33,36.95-.31.11-.63.16-.95.16Z" fill="#2b2b2b"/><path d="M855.56,122.19c-.3,0-.61-.05-.92-.15-.39-.13-40.56-12.87-162.3-35.52-114.59-21.32-181.94,19.5-189.24,24.22-.52.34-.8.53-.83.55-1.35.95-3.22.63-4.18-.72-.96-1.35-.64-3.22.71-4.18,0,0,.35-.25,1.04-.69,7.5-4.85,76.72-46.82,193.59-25.08,122.25,22.74,162.65,35.58,163.04,35.7,1.58.51,2.44,2.2,1.93,3.78-.41,1.27-1.59,2.08-2.85,2.08Z" fill="#2b2b2b"/><path d="M485.3,515.11c-.52,0-1.04-.23-1.39-.68-42.81-55.33-401.67-8.78-405.29-8.31-.55.07-1.09-.12-1.48-.51-.39-.39-.56-.94-.48-1.48l55.17-371.25c.14-.96,1.03-1.62,1.99-1.47.96.14,1.62,1.03,1.47,1.99l-54.83,368.96c14.75-1.87,98.04-12.14,184.82-16.52,128.32-6.47,202.81,2.43,221.39,26.45.59.76.45,1.86-.31,2.45-.32.25-.7.37-1.07.37Z" fill="#2b2b2b"/><path d="M516.67,512.91c-.57,0-1.13-.28-1.46-.79-.53-.81-.31-1.89.5-2.42,35.63-23.44,115.14-31.31,236.3-23.38,81.4,5.33,155.14,16.39,169.16,18.56l-58.18-369.28c-.15-.96.5-1.85,1.46-2,.96-.16,1.85.5,2,1.46l58.55,371.65c.09.55-.1,1.12-.49,1.51-.4.4-.96.58-1.51.49-.8-.13-81.35-13.02-171.23-18.9-118.68-7.77-199.64.12-234.13,22.81-.3.2-.63.29-.96.29Z" fill="#2b2b2b"/><path d="M863.82,302.29c-.09,0-.18,0-.26-.02l-122.53-18.67c-56.05-9.08-112.48-7.05-167.73,6.02l-40.69,9.64c-.52.12-1.07,0-1.49-.33-.42-.33-.66-.84-.66-1.37V125.47c0-.81.56-1.52,1.36-1.71l41.7-9.62c51.69-9.44,107.37-8.13,165.56,3.88l103,21.27c.73.15,1.28.74,1.38,1.47l22.11,159.53c.08.55-.11,1.1-.5,1.49-.33.33-.77.5-1.23.5ZM672.14,274.53c23.14,0,46.31,1.87,69.43,5.61l120.19,18.31-21.62-155.98-101.79-21.02c-57.75-11.92-112.97-13.22-164.14-3.88l-40.26,9.29v168.48l38.54-9.13c32.91-7.79,66.24-11.69,99.65-11.69Z" fill="#2b2b2b"/><path d="M477.23,457.65c-.24,0-.48-.05-.7-.15l-20.09-8.79c-24.12-10.56-50.77-15.38-77.09-13.95l-31.7,1.36c-.5.01-.97-.17-1.32-.52-.35-.35-.53-.83-.5-1.32l6.58-127.26c.05-.9.77-1.62,1.67-1.66l27.73-1.26c26.98-1.22,54.24,4.01,78.86,15.11l17.29,7.81c.63.28,1.03.91,1.03,1.59v127.27c0,.59-.3,1.14-.79,1.46-.29.19-.62.29-.96.29ZM388.48,431.02c23.79,0,47.59,4.95,69.37,14.49l17.64,7.72v-123.46l-16.26-7.34c-24.12-10.88-50.83-15.99-77.26-14.81l-26.14,1.19-6.4,123.75,29.76-1.28c3.1-.17,6.2-.25,9.3-.25Z" fill="#2b2b2b"/><path d="M859.79,423.48c-.86,0-1.61-.63-1.73-1.51l-13.89-100.83c-.13-.96.54-1.84,1.49-1.97.96-.14,1.84.54,1.97,1.49l13.89,100.83c.13.96-.54,1.84-1.49,1.97-.08.01-.16.02-.24.02Z" fill="#2b2b2b"/><path d="M814.79,460.23c-.88,0-1.64-.66-1.74-1.55l-16.13-143.4c-.11-.96.58-1.83,1.54-1.93.97-.1,1.83.58,1.94,1.54l16.13,143.4c.11.96-.58,1.83-1.54,1.93-.07,0-.13.01-.2.01Z" fill="#2b2b2b"/><path d="M768.22,458.44c-.89,0-1.65-.67-1.74-1.58l-15.24-152.37c-.1-.96.61-1.82,1.57-1.92.96-.1,1.82.6,1.92,1.57l15.24,152.37c.1.96-.61,1.82-1.57,1.92-.06,0-.12,0-.18,0Z" fill="#2b2b2b"/><path d="M718.52,450.37c-.92,0-1.69-.72-1.75-1.65l-8.07-146.99c-.05-.96.69-1.79,1.65-1.84.96-.06,1.79.69,1.84,1.65l8.07,146.99c.05.96-.69,1.79-1.65,1.84-.03,0-.06,0-.1,0Z" fill="#2b2b2b"/><path d="M671.95,441.41c-.93,0-1.7-.73-1.75-1.66l-7.17-140.72c-.05-.96.69-1.79,1.66-1.84.96-.04,1.79.69,1.84,1.66l7.17,140.72c.05.96-.69,1.79-1.66,1.84-.03,0-.06,0-.09,0Z" fill="#2b2b2b"/><path d="M623.14,444.99c-.96,0-1.74-.77-1.75-1.73l-1.79-141.31c-.01-.97.76-1.76,1.73-1.77h.02c.96,0,1.74.77,1.75,1.73l1.79,141.31c.01.97-.76,1.76-1.73,1.77h-.02Z" fill="#2b2b2b"/><path d="M577.02,399.28c-.95,0-1.73-.76-1.75-1.71l-1.79-84.25c-.02-.97.75-1.77,1.71-1.79.95-.02,1.77.75,1.79,1.71l1.79,84.25c.02.97-.75,1.77-1.71,1.79h-.04Z" fill="#2b2b2b"/><path d="M458.12,264.93s-.04,0-.06,0c-.97-.03-1.72-.84-1.69-1.81l4.68-140.82c.03-.96.83-1.71,1.81-1.69.97.03,1.72.84,1.69,1.81l-4.68,140.82c-.03.95-.81,1.69-1.75,1.69Z" fill="#2b2b2b"/><path d="M409.18,264.4s-.08,0-.13,0c-.96-.07-1.69-.91-1.62-1.87l10.09-140.96c.07-.96.91-1.71,1.87-1.62.96.07,1.69.91,1.62,1.87l-10.09,140.96c-.07.92-.83,1.62-1.74,1.62Z" fill="#2b2b2b"/><path d="M362.63,267.59s-.09,0-.13,0c-.96-.07-1.69-.91-1.62-1.87l10.91-150.76c.07-.96.91-1.7,1.87-1.62.96.07,1.69.91,1.62,1.87l-10.91,150.76c-.07.92-.83,1.62-1.74,1.62Z" fill="#2b2b2b"/><path d="M294.99,425.57c-.06,0-.12,0-.17,0-.96-.1-1.66-.95-1.57-1.91l30.37-305.9c.09-.96.95-1.66,1.91-1.57.96.1,1.66.95,1.57,1.91l-30.37,305.9c-.09.9-.85,1.58-1.74,1.58Z" fill="#2b2b2b"/><path d="M246.05,425.04c-.06,0-.12,0-.19,0-.96-.1-1.66-.96-1.55-1.93l32.21-301.21c.1-.96.96-1.65,1.93-1.55.96.1,1.66.96,1.55,1.93l-32.21,301.21c-.1.9-.85,1.56-1.74,1.56Z" fill="#2b2b2b"/><path d="M200.7,443.77c-.07,0-.13,0-.2-.01-.96-.11-1.65-.98-1.54-1.94l36.6-315.85c.11-.96.97-1.66,1.94-1.54.96.11,1.65.98,1.54,1.94l-36.6,315.85c-.1.89-.86,1.55-1.74,1.55Z" fill="#2b2b2b"/><path d="M162.35,400.48c-.07,0-.14,0-.21-.01-.96-.11-1.65-.98-1.54-1.94l31.31-267.68c.11-.96.99-1.65,1.94-1.54.96.11,1.65.98,1.54,1.94l-31.31,267.68c-.1.89-.86,1.55-1.74,1.55Z" fill="#2b2b2b"/></svg>