<?xml version="1.0" encoding="UTF-8"?><svg id="_レイヤー_11" xmlns="http://www.w3.org/2000/svg" width="850" height="1000" viewBox="0 0 850 1000"><path d="M451.13,276.49h-1.43c-10.74,0-21.51-.15-32.03-.42-81.81-2.01-157.51-11.46-213.16-26.6-27.48-7.48-49.01-16.04-63.99-25.43-15.9-9.98-23.96-20.66-23.96-31.75,0-22.91,35.09-44.22,98.81-60.01,63-15.61,146.72-24.2,235.75-24.2s172.76,8.6,235.76,24.2c63.72,15.79,98.81,37.1,98.81,60.01,0,10.56-7.33,20.77-21.78,30.35-.66.5-1.6.48-2.23-.1-.72-.65-.77-1.76-.12-2.47.08-.09.19-.18.29-.26.03-.02.05-.04.08-.06,13.45-8.9,20.27-18.14,20.27-27.46,0-20.84-35.05-41.47-96.15-56.61-62.73-15.54-146.16-24.1-234.92-24.1s-172.18,8.56-234.91,24.1c-61.1,15.14-96.15,35.77-96.15,56.61,0,40.91,130.76,76.18,297.69,80.29,10.48.27,21.23.41,31.94.42h1.43c.97,0,1.75.78,1.75,1.75s-.78,1.75-1.75,1.75Z" fill="#2b2b2b"/><path d="M794.26,320.98c-.12,0-.25,0-.38-.02-1.64-.21-2.8-1.66-2.6-3.3v-.08s8.5-63.11,8.5-63.11c.22-1.64,1.74-2.78,3.37-2.57,1.64.22,2.79,1.73,2.57,3.37l-8.49,63.07c-.2,1.51-1.5,2.64-2.99,2.64Z" fill="#2b2b2b"/><path d="M458.6,905.57c-61.87,0-115.16-5.94-158.41-17.66-34.78-9.42-63.22-22.59-84.52-39.14-36.09-28.04-39.47-56.03-39.68-58.19l-21.25-151.21c-.23-1.64.91-3.16,2.55-3.39,1.64-.22,3.16.91,3.39,2.55l21.26,151.28c0,.05.01.11.02.16.02.26,2.9,27.53,37.96,54.49,32.68,25.13,100.61,55.09,238.68,55.09s204.02-30.58,235.07-56.23c33.27-27.49,34.4-55.29,34.41-55.57,0-.11.01-.22.03-.33l35.43-263.42c.22-1.64,1.74-2.78,3.37-2.57,1.64.22,2.79,1.73,2.57,3.37l-35.41,263.27c-.11,2.8-2.08,31.08-36.03,59.41-20.27,16.92-47.9,30.39-82.11,40.02-42.51,11.97-95.45,18.04-157.33,18.04Z" fill="#2b2b2b"/><path d="M145.61,555.88c-1.47,0-2.76-1.08-2.97-2.58l-41.58-295.96c-.23-1.63.89-3.17,2.51-3.41,1.62-.24,3.14.83,3.41,2.45v.06s41.6,296.03,41.6,296.03c.23,1.64-.91,3.16-2.55,3.39-.14.02-.28.03-.42.03Z" fill="#2b2b2b"/><path d="M315.75,626.5c-4.94,0-9.21-.07-12.73-.12h-.26c-.85-.02-1.66-.39-2.22-1.04-.56-.65-.82-1.5-.71-2.35l.5-3.92c.14-3.41-1.33-4.19-4.15-5.32l-41.51-10.8c-31.47-8.9-62.01-21.12-90.83-36.32l-40.75-21.47c-.32-.08-.69.04-.96.15-.97.42-2.32,1.64-3.17,3.78l-.94,2.38c-.58,1.47-2.19,2.24-3.7,1.76-.68-.21-16.73-5.51-32.11-27.51-13.93-19.92-29.99-58.13-27.44-127.05,1.43-38.88,12.71-96.12,30.94-157.05.47-1.59,2.14-2.49,3.73-2.01,1.59.47,2.49,2.15,2.01,3.73-18.09,60.46-29.28,117.16-30.7,155.55-4.17,112.64,41.38,141.96,52.81,147.52,1.34-3.09,3.57-5.48,6.17-6.61,1.89-.82,3.9-.89,5.65-.19.1.04.2.08.29.13l40.95,21.58c28.45,15.01,58.6,27.07,89.61,35.84l41.63,10.83c.12.03.24.07.36.12,3.02,1.21,8.49,3.39,8.08,11.38,0,.08-.01.15-.02.23l-.09.7c98.58.97,185.93-25.24,259.74-77.93.44-.31.88-.62,1.31-.94,1.34-.97,3.22-.67,4.19.67s.67,3.22-.67,4.19c-.45.33-.91.66-1.36.97-48.5,34.62-103.28,58.25-162.8,70.22-38.6,7.76-70.48,8.89-90.87,8.89Z" fill="#2b2b2b"/><path d="M281.19,683.32c-3.02,0-5.91-.55-7.47-1.15l-44.11-12.84c-25.04-7.29-49.6-16.74-73-28.08-5.87-2.84-11.73-5.83-17.42-8.88l-36.48-17.28c-.13-.06-.26-.14-.39-.22-4.78-3.21-9.56-8.97-7.48-14.7l2.26-10.03c-36.62-33.06-58.56-76.64-65.21-129.55-5.46-43.36-1.43-93.99,12-150.48,11.33-47.69,26.6-87.5,34.69-106.99.64-1.53,2.39-2.25,3.92-1.62,1.53.64,2.26,2.39,1.62,3.92-14.1,33.95-59.1,152.62-46.27,254.41,6.55,52.06,28.27,94.78,64.57,126.99.82.73,1.18,1.84.94,2.9l-2.69,11.95c-.03.15-.08.3-.14.45-.83,2.08,1.86,5.48,4.98,7.63l36.34,17.21s.09.04.13.07c5.64,3.03,11.45,5.99,17.27,8.8,23.1,11.19,47.35,20.52,72.06,27.72l44.25,12.88c.1.03.21.07.31.11,1.65.68,6.9,1.22,9.46.13.46-.2.71-.4.8-.53l2.63-8.9c.41-1.4,1.78-2.29,3.23-2.13.49.06,50.12,5.71,117.6-6.84,62.18-11.56,152.7-41.38,230.81-117.8.31-.3.62-.6.92-.9,1.17-1.17,3.07-1.17,4.24,0,1.17,1.17,1.17,3.07,0,4.24-.32.32-.66.65-.98.96-34.98,34.23-75.34,62.18-119.92,83.06-35.65,16.7-74.07,28.94-114.19,36.37-59.67,11.06-105.63,8.08-116.66,7.1l-1.99,6.72c-.03.08-.05.17-.09.25-.47,1.19-1.56,2.84-4.06,3.9-1.9.8-4.21,1.11-6.45,1.11Z" fill="#2b2b2b"/><path d="M449.04,295.36c-98.41,0-190.96-10.17-260.61-28.64-70.85-18.79-109.86-44.29-109.86-71.82s39.02-53.04,109.86-71.83c69.65-18.47,162.2-28.65,260.61-28.65s190.96,10.17,260.61,28.65c70.84,18.79,109.86,44.3,109.86,71.83,0,17.58-15.28,34.01-45.42,48.85-1.49.73-3.29.12-4.02-1.37-.73-1.49-.12-3.29,1.37-4.02,27.53-13.55,42.08-28.58,42.08-43.47,0-24.19-38.42-48.26-105.4-66.03-69.16-18.34-161.17-28.44-259.07-28.44s-189.91,10.1-259.07,28.44c-66.98,17.77-105.4,41.83-105.4,66.03s38.42,48.25,105.4,66.02c69.16,18.34,161.17,28.44,259.07,28.44,1.89,0,3.79,0,5.68-.02h1.34c1.66,0,3,1.34,3,3s-1.34,3-3,3h-1.31c-1.9.01-3.81.02-5.71.02Z" fill="#2b2b2b"/><path d="M782.57,271.19c-1.02,0-2.01-.52-2.58-1.46-.85-1.42-.39-3.26,1.03-4.12,7.18-4.31,13.35-8.85,18.34-13.48,6.37-5.91,10.79-11.94,13.16-17.94.03-.06.05-.13.08-.19.01-.03,3.52-8.6.91-38.85-.14-1.65,1.08-3.1,2.73-3.25,1.65-.13,3.1,1.08,3.25,2.73,2.67,30.91-.78,40.38-1.42,41.83-2.7,6.82-7.63,13.57-14.63,20.07-5.29,4.91-11.8,9.7-19.34,14.22-.48.29-1.02.43-1.54.43Z" fill="#2b2b2b"/><path d="M424.55,327.93c-205.54,0-290.21-43.02-322.38-68.66-3.64-2.9-6.91-5.82-9.72-8.7-2.23-2.27-4.18-4.51-5.78-6.65-2.28-3.01-3.8-5.71-4.4-7.8-2.29-8.02-3.18-21.69-3.51-31.75-.19-5.49-.19-9.31-.19-9.47,0-1.66,1.34-3,3-3s3,1.34,3,3c0,.04,0,3.89.19,9.27.46,13.74,1.63,24.51,3.29,30.31.14.5.81,2.38,3.42,5.83,1.45,1.93,3.22,3.97,5.28,6.06,2.64,2.7,5.72,5.46,9.17,8.21,15.2,12.11,44.38,29.51,97.1,43.6,58.97,15.76,133.51,23.76,221.55,23.76,11.53,0,22.91-.09,33.83-.27,1.67.01,3.02,1.29,3.05,2.95.03,1.66-1.29,3.02-2.95,3.05-10.95.18-22.37.27-33.93.27Z" fill="#2b2b2b"/><path d="M784,280.87c-.07,0-.13,0-.2,0-1.65-.11-2.91-1.54-2.8-3.19l.55-8.46c.11-1.65,1.52-2.89,3.19-2.8,1.65.11,2.91,1.54,2.8,3.19l-.55,8.46c-.1,1.59-1.42,2.81-2.99,2.81Z" fill="#2b2b2b"/><path d="M578.9,547.5c-3.75,0-7.5-.03-11.24-.07-26.99-.36-54.2-2.03-80.87-4.95-5.47-.6-11.15-1.55-15.13-5.91-4.87-5.34-5.07-13.83-5.2-19.46-1.21-52.58-4.14-105.74-8.69-157.99-.6-6.94-.89-14.52-1.2-22.55-.15-3.89-.3-7.84-.49-11.8-.43-9.3-1.2-21.33-3.31-31.94-.8-4.02-1.77-7.7-2.87-10.94-1.05-3.07-1.74-4.78-2.38-5.92-1.03-1.84-1.37-1.94-6.27-1.76-.99.04-2.11.08-3.37.09-.52,0-2.1.22-3.77.45-4.38.59-11.01,1.49-16.46,1.31h0c-2.45-.08-9.9-.33-10.75-5.71-1.19-7.5,3.1-14.06,6.91-18.23.6-.67,1.25-1.34,1.98-2.03,12.27-11.73,29.27-18.56,50.53-20.31,10.99-.9,22.09-.45,32.83,0,6.58.27,13.39.54,20.05.5,15.86-.1,31.99-2,47.59-3.84l1.87-.22c14.92-1.76,30.09-3.73,44.76-5.64,26.25-3.41,53.39-6.94,80.17-9.4,14.04-1.29,26.95-2.19,39.48-2.75,5.54-.25,10.66-.42,15.63-.52.16,0,.32,0,.48,0,9.7,0,13.37,6.12,14.5,8.78.51,1.17,1.01,2.35,1.51,3.53,2.98,7.01,5.79,13.92,8.33,20.54,3.52,9.07,6.8,18.22,9.75,27.19,5.53,16.81,9.92,32.99,13.44,49.47,5.87,27.43,9.1,55.04,9.87,84.4.2,7.74.75,15.81,1.33,24.34,1.71,25.19,3.48,51.25-3.26,73.3-1.27,4.16-2.73,8.53-5.29,12.2-5.69,8.18-14.98,10.93-24.01,13.05-2.79.65-5.57,1.29-8.37,1.92-40.9,9.17-82.74,15.39-124.36,18.49-21.09,1.58-42.48,2.37-63.74,2.37ZM443.64,269.16c3.57,0,6.14.61,8.24,4.36.93,1.65,1.78,3.89,2.75,6.75,1.18,3.45,2.2,7.34,3.05,11.58,2.17,10.94,2.96,23.21,3.4,32.68.19,3.98.34,7.94.49,11.85.3,7.96.59,15.49,1.18,22.3,4.56,52.36,7.49,105.62,8.71,158.31.15,6.45.57,12.55,3.9,16.2,2.8,3.08,7.26,3.79,11.97,4.31,26.51,2.91,53.56,4.57,80.39,4.92,24.8.33,49.88-.44,74.54-2.28,41.37-3.08,82.97-9.27,123.63-18.39,2.78-.63,5.55-1.27,8.33-1.92,8.08-1.9,16.37-4.31,21.05-11.04,2.15-3.08,3.41-6.87,4.61-10.81,6.46-21.17,4.73-46.76,3.05-71.5-.58-8.59-1.13-16.71-1.34-24.55-.76-29.05-3.96-56.35-9.76-83.48-3.48-16.31-7.83-32.32-13.3-48.95-2.93-8.89-6.18-17.95-9.67-26.95-2.53-6.57-5.31-13.43-8.27-20.38-.5-1.18-1-2.34-1.5-3.52-1.13-2.65-3.76-5.76-9.91-5.76-.12,0-.25,0-.38,0-4.93.11-10.01.27-15.51.52-12.45.56-25.29,1.45-39.24,2.73-26.69,2.45-53.78,5.97-79.99,9.38-14.68,1.91-29.87,3.88-44.82,5.65l-1.86.22c-15.74,1.86-32.01,3.78-48.14,3.88-6.78.04-13.65-.24-20.29-.51-10.59-.43-21.54-.88-32.22,0-20.09,1.65-36.06,8.02-47.49,18.94-.63.6-1.19,1.17-1.72,1.76-3.08,3.38-6.56,8.56-5.68,14.1.04.27,1.18,1.33,5.97,1.49,5.03.17,11.4-.7,15.62-1.27,2.33-.32,3.58-.48,4.37-.49,1.22-.02,2.3-.06,3.26-.09.91-.03,1.76-.06,2.57-.06Z" fill="#2b2b2b"/><path d="M604.5,516.28c-2.46,0-4.93-.01-7.41-.04-.97-.01-1.74-.8-1.73-1.77.01-.96.79-1.73,1.75-1.73h.02c2.47.03,4.92.04,7.37.04,5.79,0,11.7-.08,17.56-.24.02,0,.03,0,.05,0,.94,0,1.72.75,1.75,1.7.03.97-.73,1.77-1.7,1.8-5.9.16-11.84.25-17.66.25ZM572.13,515.41s-.06,0-.1,0c-8.41-.46-16.82-1.11-25-1.94-.96-.1-1.66-.96-1.57-1.92.1-.96.96-1.66,1.92-1.57,8.13.82,16.49,1.47,24.84,1.92.96.05,1.7.88,1.65,1.84-.05.93-.82,1.65-1.75,1.65ZM647.09,514.87c-.91,0-1.68-.71-1.74-1.64-.06-.96.67-1.8,1.63-1.86,8.18-.53,16.55-1.23,24.86-2.07.96-.09,1.82.6,1.92,1.57s-.6,1.82-1.57,1.92c-8.35.84-16.76,1.54-24.99,2.08-.04,0-.08,0-.12,0ZM522.41,510.36c-.09,0-.17,0-.26-.02-6.91-1.05-13.81-2.25-20.52-3.57-.8-.16-1.39-.86-1.41-1.67,0,0-.04-1.52-.11-4.3-.03-.97.73-1.77,1.7-1.8.94-.05,1.77.73,1.8,1.7.03,1.22.06,2.2.08,2.91,6.23,1.21,12.61,2.31,19,3.28.96.15,1.61,1.04,1.47,1.99-.13.87-.88,1.49-1.73,1.49ZM696.85,509.86c-.86,0-1.61-.64-1.73-1.51-.13-.96.54-1.84,1.5-1.97,8.22-1.12,16.51-2.38,24.67-3.78.96-.16,1.86.48,2.02,1.43.16.95-.48,1.86-1.43,2.02-8.19,1.4-16.53,2.67-24.78,3.79-.08.01-.16.02-.24.02ZM746.16,501.44c-.81,0-1.54-.57-1.71-1.4-.2-.95.41-1.87,1.36-2.07,8.5-1.76,16.68-3.62,24.33-5.53.94-.24,1.89.33,2.12,1.27.24.94-.33,1.89-1.27,2.12-7.69,1.92-15.92,3.8-24.47,5.57-.12.02-.24.04-.36.04ZM784.41,480.75s-.08,0-.13,0c-.96-.07-1.69-.91-1.62-1.87.58-8.11.93-16.47,1.02-24.87.01-.96.79-1.73,1.75-1.73h.02c.97.01,1.74.8,1.73,1.77-.1,8.47-.45,16.9-1.03,25.08-.07.92-.83,1.62-1.74,1.62ZM501.01,477.39c-.94,0-1.71-.74-1.75-1.68-.31-8.38-.67-16.81-1.04-25.04-.04-.97.7-1.78,1.67-1.83,1.01-.04,1.78.7,1.83,1.67.38,8.24.73,16.68,1.04,25.07.04.97-.72,1.78-1.68,1.81-.02,0-.04,0-.07,0ZM785.03,430.78c-.93,0-1.71-.73-1.75-1.67-.35-8.14-.92-16.5-1.7-24.86-.09-.96.62-1.82,1.58-1.9.98-.1,1.81.62,1.9,1.58.78,8.42,1.36,16.84,1.71,25.04.04.97-.71,1.78-1.67,1.82-.03,0-.05,0-.08,0ZM498.71,427.3c-.92,0-1.69-.72-1.75-1.65-.47-8.57-.97-16.98-1.49-25-.06-.96.67-1.8,1.63-1.86.99-.08,1.8.67,1.86,1.63.52,8.03,1.03,16.45,1.5,25.03.05.96-.69,1.79-1.65,1.84-.03,0-.07,0-.1,0ZM780.44,380.99c-.86,0-1.61-.63-1.73-1.51-1.13-8.1-2.46-16.39-3.96-24.62-.17-.95.46-1.86,1.41-2.04.95-.18,1.86.46,2.04,1.41,1.51,8.28,2.85,16.62,3.98,24.77.13.96-.54,1.84-1.49,1.97-.08.01-.16.02-.24.02ZM495.42,377.29c-.9,0-1.67-.7-1.74-1.61-.69-8.76-1.42-17.15-2.18-24.93-.09-.96.61-1.82,1.57-1.91.97-.08,1.82.61,1.91,1.57.76,7.8,1.49,16.21,2.18,24.99.08.96-.64,1.81-1.61,1.88-.05,0-.09,0-.14,0ZM771.5,331.78c-.8,0-1.52-.55-1.71-1.37-1.79-8.01-3.76-16.17-5.88-24.25-.24-.93.32-1.89,1.25-2.14.93-.24,1.89.32,2.14,1.25,2.12,8.12,4.11,16.32,5.91,24.37.21.94-.38,1.88-1.33,2.09-.13.03-.26.04-.38.04ZM490.48,327.42c-.87,0-1.62-.65-1.73-1.53-1.18-9.32-2.43-17.63-3.71-24.69-.17-.95.46-1.86,1.41-2.04.94-.17,1.86.46,2.04,1.41,1.3,7.13,2.56,15.5,3.74,24.88.12.96-.56,1.83-1.52,1.96-.07,0-.15.01-.22.01ZM758.84,283.38c-.75,0-1.45-.49-1.67-1.25-2.39-7.96-4.95-15.96-7.6-23.77-.31-.92.18-1.91,1.09-2.22.92-.31,1.91.18,2.22,1.09,2.67,7.85,5.24,15.89,7.64,23.89.28.93-.25,1.9-1.17,2.18-.17.05-.34.07-.5.07ZM480.56,278.37c-.7,0-1.35-.42-1.63-1.1-1.99-5-3.66-6.73-4.7-7.3-4.25-2.3-8.72-4.44-13.31-6.36-.89-.37-1.31-1.4-.94-2.29.37-.89,1.4-1.31,2.29-.94,4.69,1.97,9.28,4.16,13.62,6.51,2.3,1.24,4.35,4.21,6.29,9.08.36.9-.08,1.92-.98,2.27-.21.08-.43.12-.65.12ZM437.82,256.15c-.12,0-.24-.01-.36-.04-9.07-1.91-16.53-2.09-21.07-.52-.91.32-1.91-.17-2.23-1.08-.32-.91.17-1.91,1.08-2.23,5.2-1.8,13.19-1.65,22.93.4.95.2,1.55,1.13,1.35,2.07-.17.83-.9,1.39-1.71,1.39ZM742.73,236c-.7,0-1.37-.43-1.63-1.12-5.56-14.53-9.45-22.99-9.49-23.08-.41-.88-.02-1.92.86-2.32.88-.41,1.92-.02,2.32.86.04.08,3.97,8.64,9.58,23.29.34.9-.11,1.92-1.01,2.26-.21.08-.42.12-.62.12Z" fill="#2b2b2b"/><path d="M501.96,506.8c-.36,0-.73-.11-1.04-.34-.78-.58-.94-1.67-.36-2.45.07-.09,7.17-9.67,18.42-25.04.57-.78,1.67-.95,2.45-.38.78.57.95,1.67.38,2.45-11.26,15.39-18.36,24.97-18.43,25.06-.34.46-.87.71-1.41.71ZM538.66,456.65c-.36,0-.72-.11-1.03-.33-.78-.57-.96-1.66-.39-2.44,6.14-8.47,12.25-16.93,18.17-25.16.56-.79,1.66-.96,2.44-.4.78.56.96,1.66.4,2.44-5.92,8.23-12.03,16.7-18.17,25.17-.34.47-.88.72-1.42.72ZM574.88,406.24c-.35,0-.71-.11-1.01-.32-.79-.56-.97-1.65-.41-2.44,6.15-8.65,12.18-17.17,17.92-25.33.56-.79,1.65-.98,2.44-.42.79.56.98,1.65.42,2.44-5.74,8.17-11.77,16.69-17.93,25.34-.34.48-.88.74-1.43.74ZM610.58,355.45c-.34,0-.69-.1-1-.31-.79-.55-.99-1.64-.44-2.44,6.16-8.89,12.07-17.49,17.56-25.57.54-.8,1.63-1.01,2.43-.46.8.54,1.01,1.63.46,2.43-5.5,8.08-11.41,16.69-17.58,25.59-.34.49-.89.75-1.44.75ZM645.43,304.11c-.33,0-.67-.09-.96-.29-.81-.53-1.03-1.62-.49-2.42,6.18-9.34,11.85-18.08,16.86-25.98.52-.82,1.6-1.06,2.42-.54.82.52,1.06,1.6.54,2.42-5.02,7.92-10.7,16.68-16.9,26.04-.34.51-.89.78-1.46.78ZM678.46,251.62c-.3,0-.6-.08-.88-.24-.84-.48-1.12-1.55-.64-2.39,6.99-12.06,11.64-21.27,13.83-27.37.33-.91,1.33-1.38,2.24-1.06.91.33,1.38,1.33,1.06,2.24-2.26,6.29-7,15.7-14.1,27.94-.32.56-.91.87-1.52.87Z" fill="#2b2b2b"/><path d="M783.39,492.46c-.64,0-1.26-.35-1.57-.97-.05-.1-5.31-10.56-15.17-26.96-.5-.83-.23-1.9.6-2.4.83-.5,1.9-.23,2.4.6,9.93,16.53,15.24,27.09,15.29,27.2.43.86.08,1.92-.78,2.35-.25.13-.52.19-.78.19ZM751.56,439.17c-.57,0-1.12-.27-1.46-.78-5.71-8.57-11.67-17.11-17.71-25.38-.57-.78-.4-1.88.38-2.45.78-.57,1.87-.4,2.45.38,6.08,8.31,12.07,16.89,17.8,25.5.54.8.32,1.89-.49,2.43-.3.2-.63.29-.97.29ZM714.91,389.12c-.51,0-1.02-.22-1.36-.65-6.53-8.11-13.25-16.05-19.98-23.61-.64-.72-.58-1.83.14-2.47.72-.64,1.83-.58,2.47.14,6.77,7.6,13.53,15.59,20.09,23.74.61.75.49,1.85-.27,2.46-.32.26-.71.39-1.1.39ZM673.64,342.85c-.45,0-.9-.17-1.24-.52-7.37-7.42-14.91-14.57-22.42-21.27-.72-.64-.78-1.75-.14-2.47.64-.72,1.75-.78,2.47-.14,7.56,6.74,15.16,13.95,22.57,21.41.68.69.68,1.79,0,2.47-.34.34-.79.51-1.23.51ZM627.34,301.66c-.38,0-.75-.12-1.07-.37-8.26-6.41-16.7-12.46-25.07-17.98-.81-.53-1.03-1.62-.5-2.42.53-.81,1.62-1.03,2.42-.5,8.45,5.57,16.96,11.67,25.29,18.14.76.59.9,1.69.31,2.46-.34.44-.86.68-1.38.68ZM575.58,267.67c-.28,0-.57-.07-.83-.21-9.17-4.96-18.52-9.44-27.78-13.32-.89-.37-1.31-1.4-.94-2.29.37-.89,1.4-1.31,2.29-.94,9.37,3.93,18.82,8.46,28.09,13.47.85.46,1.17,1.52.71,2.37-.32.59-.92.92-1.54.92ZM518.48,243.85c-.17,0-.33-.02-.5-.07-9.91-2.93-19.99-5.29-29.95-7-.95-.16-1.59-1.07-1.43-2.02.16-.95,1.08-1.59,2.02-1.43,10.1,1.73,20.31,4.12,30.35,7.09.93.27,1.46,1.25,1.18,2.17-.23.76-.92,1.25-1.68,1.25Z" fill="#2b2b2b"/><path d="M291.59,669.86c-.79,0-1.51-.54-1.7-1.34-8.35-34.66,11.2-46.2,12.04-46.67.84-.48,1.91-.18,2.39.66.48.84.18,1.91-.66,2.38-.76.44-18.07,10.86-10.37,42.81.23.94-.35,1.88-1.29,2.11-.14.03-.28.05-.41.05Z" fill="#2b2b2b"/><path d="M101.37,591.77s-.08,0-.12,0c-.96-.06-1.69-.89-1.63-1.86,0,0,.02-.33.09-.93.44-4.06,3.21-25.05,14.88-39.14.31-.39.66-.79,1.01-1.19.64-.72,1.75-.78,2.47-.14.72.64.78,1.75.14,2.47-.31.34-.62.7-.9,1.06-11.05,13.35-13.7,33.43-14.12,37.32-.05.49-.07.76-.07.78-.06.92-.83,1.63-1.74,1.63Z" fill="#2b2b2b"/></svg>