<?xml version="1.0" encoding="UTF-8"?><svg id="_レイヤー_35" xmlns="http://www.w3.org/2000/svg" width="1000" height="1000" viewBox="0 0 1000 1000"><path d="M210.8,823.02c-13.32,0-26.52-1.47-39.41-4.45-21.81-5.05-42.25-18.75-57.55-38.56-15.04-19.48-23.54-42.69-23.95-65.36-.02-1.11-.03-2.21-.03-3.33-.02-24.13,5.73-49.24,17.59-76.78,11.41-26.49,32.89-50.95,67.62-76.97l404.93-303.34c4.92-3.68,10.98-5.23,17.06-4.36,6.08.87,11.46,4.06,15.14,8.98,3.68,4.92,5.23,10.97,4.35,17.05-.87,6.08-4.06,11.45-8.98,15.14h0s0,0,0,0l-404.93,303.35c-41.45,31.05-66.18,74.58-66.16,116.43,0,.85,0,1.68.03,2.51.48,26.73,21.62,54.96,45.25,60.43,41.16,9.53,87.44-1.99,126.96-31.61l497.8-372.92c51.57-38.63,56.46-54.02,57.29-68.83l.2-3.52c2.03-35.96-21.34-65.95-56.83-72.95-14.04-2.77-29.78-1.97-80.46,36l-389.56,291.82c-11.89,8.91-19.75,21.81-21.57,35.39l-.81,6.1c-2.57,19.3,14.05,36.19,39.53,40.16,5.88.92,21.18-.98,29.55-5.38,4.34-2.71,9.33-6.97,14.16-11.08l.32-.27c3.85-3.27,7.82-6.66,12.09-9.85l304.49-228.1c10.15-7.6,24.6-5.53,32.2,4.62,7.6,10.15,5.53,24.59-4.62,32.19l-304.48,228.1c-3.2,2.39-6.53,5.23-10.06,8.24-2.79,2.38-5.59,4.61-8.4,6.68-13.82,10.17-28.58,16.92-46.46,21.23-20.03,4.83-43.86-1.62-45.65-2.12-19.51-4.52-32.44-16.87-42.52-28.36-13.84-15.77-19.14-36.68-15.75-62.14l.81-6.1c3.42-25.74,17.85-49.84,39.58-66.13l389.56-291.83c53.23-39.87,82.74-51.05,116.94-44.31,28.15,5.55,53,20.63,69.99,42.46,17.01,21.85,25.49,49.63,23.87,78.22l-.19,3.5c-2.05,36.23-21.13,62.24-75.64,103.07l-497.81,372.91c-38.47,28.83-82.59,44.06-125.51,44.06ZM593.76,255.63c-3.65,0-7.19,1.17-10.16,3.4l-404.93,303.34c-33.85,25.37-54.73,49.06-65.7,74.55-11.53,26.77-17.13,51.1-17.11,74.4,0,1.08.01,2.16.03,3.23.79,44.51,35.27,88.55,76.86,98.18,52.67,12.2,110.97-1.86,159.96-38.57l497.81-372.91c52.83-39.58,71.31-64.46,73.24-98.6l.19-3.5c1.54-27.15-6.49-53.5-22.61-74.2-16.1-20.69-39.68-34.99-66.41-40.26-32.23-6.36-60.54,4.55-112.18,43.23l-389.56,291.83c-20.45,15.32-34.02,37.96-37.24,62.11l-.81,6.1c-3.15,23.67,1.66,42.98,14.31,57.4,9.94,11.32,21.59,22.37,39.43,26.48l.14.04c.24.07,23.85,6.62,42.68,2.08,17.08-4.12,31.15-10.55,44.31-20.23,2.68-1.99,5.38-4.13,8.01-6.38,3.66-3.12,7.06-6.02,10.41-8.52l304.48-228.1c3.63-2.72,5.99-6.7,6.64-11.19.65-4.49-.5-8.97-3.22-12.6-5.62-7.5-16.3-9.04-23.8-3.42l-304.49,228.1c-4.12,3.08-8.02,6.4-11.8,9.61l-.27.23c-5.08,4.32-10.27,8.75-15.02,11.7l-.18.1c-9.86,5.23-26.62,7.11-33.38,6.05-28.83-4.49-47.57-24.21-44.55-46.88l.81-6.1c2.03-15.16,10.74-29.52,23.91-39.4l389.56-291.82c52.66-39.45,69.75-40.13,85.22-37.08,38.51,7.59,63.87,40.15,61.66,79.17l-.2,3.52c-.92,16.33-6.05,33.12-59.69,73.29l-497.8,372.92c-40.95,30.68-89.03,42.58-131.92,32.65-26.51-6.14-49.36-36.43-49.89-66.15-.02-.86-.03-1.74-.03-2.63-.01-19.98,5.62-41.19,16.29-61.36,12.04-22.76,29.62-42.9,52.27-59.87l404.93-303.35c3.63-2.72,5.99-6.69,6.64-11.19.65-4.49-.5-8.97-3.22-12.6-2.72-3.64-6.7-6-11.19-6.64-.82-.12-1.64-.18-2.45-.18Z" fill="#2b2b2b"/></svg>