<?xml version="1.0" encoding="UTF-8"?><svg id="_レイヤー_12" xmlns="http://www.w3.org/2000/svg" width="2000" height="2000" viewBox="0 0 2000 2000"><path d="M258.67,2033.62c-1.42,0-2.68-1.01-2.95-2.46-5.81-31.7-5.19-60.73-4.88-74.67.18-7.49.67-230.26.87-325.7.11-32.9.15-54.45.15-54.45,0-1.66,1.35-2.99,3-2.99h0c1.66,0,3,1.35,3,3.01,0,0-.04,21.55-.15,54.45-.25,118.56-.7,318.55-.87,325.82-.3,13.74-.92,42.35,4.79,73.45.3,1.63-.78,3.19-2.41,3.49-.18.03-.37.05-.54.05Z" fill="#2b2b2b"/><path d="M209.51,2033.34s-.04,0-.06,0c-1.66-.03-2.97-1.4-2.94-3.05,1.29-71.16,1.95-116.42,1.95-134.51,0-233.55,38.2-266.06,39.83-267.33,1.31-1.02,3.19-.79,4.21.52,1.01,1.29.79,3.16-.48,4.18-.26.23-9.63,8.67-18.85,44.95-8.53,33.55-18.7,98.54-18.7,217.69,0,18.13-.66,63.43-1.95,134.62-.03,1.64-1.37,2.95-3,2.95Z" fill="#2b2b2b"/><path d="M2111.19,1138.09c-.14,0-.29-.01-.44-.03l-1150.31-167.54s-.07-.01-.11-.02c-31.39-5.74-79.06-5-100.08,5.23l-61.8,33.9c-1.45.8-3.28.26-4.07-1.19-.8-1.45-.27-3.28,1.19-4.07l61.86-33.93s.08-.04.12-.06c24.03-11.75,75.71-10.9,103.8-5.78l1150.26,167.53c1.64.24,2.77,1.76,2.54,3.4-.22,1.49-1.5,2.57-2.96,2.57Z" fill="#2b2b2b"/><path d="M2048.17,1795.64c-.16,0-.33-.01-.5-.04L75.75,1468.24c-.2-.03-.4-.09-.58-.16-16.56-6.36-24.62-16.15-24.62-29.91,0-19.43,14.31-35.51,43.76-49.14l364.41-199.89c1.45-.8,3.28-.26,4.07,1.19.8,1.45.27,3.28-1.19,4.07l-364.5,199.94c-.06.03-.12.06-.18.09-27.16,12.56-40.37,26.86-40.37,43.73,0,11.07,6.51,18.77,20.49,24.2l1971.63,327.31c1.63.27,2.74,1.82,2.47,3.45-.24,1.47-1.51,2.51-2.96,2.51Z" fill="#2b2b2b"/><path d="M2067.89,1899.45c-.18,0-.35-.02-.53-.05L254.62,1575.55l-166.81-29.81c-20.46-3.67-35.88-29.46-35.88-59.99v-55.72c0-1.66,1.34-3,3-3s3,1.34,3,3v55.72c0,27.67,13.3,50.93,30.94,54.09l166.81,29.81,1812.74,323.85c1.63.29,2.72,1.85,2.43,3.48-.26,1.45-1.52,2.47-2.95,2.47Z" fill="#2b2b2b"/><path d="M1551.5,2054.72s-.03,0-.05,0c-1.66-.03-2.98-1.39-2.95-3.05l1.68-105.37-462.02-79.09-2.6,163.12c-.03,1.66-1.43,2.96-3.05,2.95-1.66-.03-2.98-1.39-2.95-3.05l2.65-166.62c.01-.88.41-1.7,1.08-2.26s1.56-.8,2.42-.65l468.01,80.11c1.46.25,2.52,1.53,2.49,3l-1.72,107.95c-.03,1.64-1.36,2.95-3,2.95Z" fill="#2b2b2b"/><path d="M1443.5,1647.72c-2.37,0-4.73-.28-6.97-.86l-502.62-129.6c-6-1.55-9.93-5.23-10.78-10.11l5.9-1.03-5.9.99c-.16-.95-.2-1.92-.11-2.88.25-2.94,1.64-5.96,4-8.71l403.73-468.69c5.69-6.6,17.6-10.2,27.11-8.19l468.47,98.79c7.04,1.49,11.69,5.5,12.44,10.75.41,2.87-.42,5.81-2.41,8.51l-368.97,500.02c-5.01,6.79-14.62,11-23.89,11ZM929.04,1506.12c.43,2.45,2.75,4.4,6.36,5.33l502.63,129.6c8.51,2.2,19.75-1.42,24.53-7.89l368.97-500.02c.72-.98,1.53-2.48,1.3-4.09-.37-2.61-3.34-4.8-7.74-5.73l-468.47-98.79c-7.32-1.55-17.09,1.31-21.33,6.23l-403.73,468.68c-1.54,1.79-2.43,3.63-2.57,5.31-.04.46-.02.92.05,1.37h0Z" fill="#2b2b2b"/><path d="M1453.34,1601.38l-475.25-120.75,1.83-2.14,358.5-419.64,447.75,95.93-332.83,446.61ZM984.41,1478.62l467.52,118.79,328.18-440.36-440.38-94.35-355.32,415.92Z" fill="#2b2b2b"/><path d="M1446.84,1673.51c-7.72,0-13.57-2.03-15.7-2.9-.7-.28-1.4-.52-2.08-.7l-490.92-130.36c-9.03-2.39-14.18-8.98-14.5-18.56l-.66-17.11,6-.24.66,17.13c.23,6.91,3.61,11.27,10.04,12.97l490.92,130.36c.93.24,1.88.56,2.81.94,4.45,1.8,27.66,9.48,47.57-16.6,13.96-18.28,134.89-184.8,232.06-318.6,57.82-79.62,107.76-148.39,121.06-166.49,1.88-2.56,2.85-5.54,2.8-8.63l-3.49-25.97,5.95-.77.02.17,3.51,26.26c.11,4.49-1.26,8.81-3.97,12.49-13.28,18.09-63.22,86.85-121.04,166.46-97.19,133.83-218.14,300.38-232.14,318.71-13.23,17.32-27.95,21.42-38.9,21.42Z" fill="#2b2b2b"/><path d="M629.34,1337.52c-93.93,0-141.12-26.91-160.89-42.94-7.03-5.71-11.06-13.9-11.06-22.46V451.64c0-1.98.92-3.86,2.53-5.14l.28-.21c.09-.08.16-.18.17-.24l.03-.1c.01-.21-.05-.34-.19-.46-1.41-1.27-2.21-3.04-2.21-4.86v-14.01c0-2.53,3.45-22.47,10.27-59.27l.2-1.06,1.8-43.7c.06-1.38.55-2.69,1.43-3.77l.67-.87c.17-.21.18-.38.05-.57l-.18-.23c-.88-1.19-1.33-2.63-1.27-4.08v-.19s7.22-69.78,7.22-69.78c.11-21.02,21.64-31.61,25.96-33.52.51-.22.98-.36,1.44-.46,82.03-17.98,180.57-7.49,222.65-3.02,2.92.31,5.57.59,7.92.83,32.95,3.38,35.78,29.23,36.01,34.37h0s0,.07,0,.07l4.16,59.65c.33,2.14-.45,4.3-2.11,5.81l-2.17,1.96c-.1.09-.21.23-.21.4s.12.31.21.4l2.74,2.46c1.11,1.01,1.82,2.28,2.08,3.69l7.98,41.78,12.85,73.99c.33,1.93-.23,3.9-1.56,5.4l-2.87,3.24c-.12.14-.17.28-.14.42.03.09.1.23.27.35l3.47,2.51c1.74,1.25,2.79,3.25,2.79,5.33v834.13c0,1.55-.58,3.06-1.62,4.26-7.32,8.41-49.83,50.35-168.69,50.35ZM466.17,447.56c-.35,1.36-1.15,2.56-2.3,3.48l-.27.21c-.11.09-.21.26-.21.41v820.47c0,6.75,3.22,13.24,8.84,17.81,19.15,15.54,65.03,41.6,157.11,41.6,49.53,0,91.25-7.29,124.03-21.68,25.5-11.19,37.17-23.2,40.14-26.61.09-.11.15-.22.15-.32V448.78c0-.16-.11-.33-.3-.46l-3.46-2.5c-1.29-.92-2.21-2.26-2.6-3.77v-.04c-.5-2.07.04-4.19,1.47-5.81l2.87-3.24c.12-.13.16-.26.14-.4l-12.84-73.94-7.98-41.76c-.02-.13-.1-.24-.21-.34l-2.73-2.45c-1.4-1.26-2.2-3.03-2.2-4.85s.8-3.59,2.19-4.85l2.16-1.95c.15-.14.23-.31.21-.45l-.04-.34-4.17-59.79h0c0-.06-.01-.14-.01-.22-.19-4.28-2.58-25.8-30.63-28.68-2.36-.24-5.01-.52-7.94-.84-41.79-4.45-139.65-14.86-220.74,2.91-.11.02-.21.06-.33.11-2.25.99-22.34,10.4-22.34,28.17l-.02.31-7.21,69.79c0,.06.03.13.08.2l.2.25c1.74,2.38,1.68,5.54-.15,7.85l-.69.88c-.1.12-.13.21-.14.3l-1.78,43.64c-.02.37-.06.65-.12.93l-.19,1.02c-9.37,50.58-10.15,57.32-10.17,58.18v14.01c0,.13.08.27.22.4,1.38,1.24,2.18,3.01,2.18,4.85,0,.56-.08,1.12-.23,1.66Z" fill="#2b2b2b"/><path d="M538.83,408.45c-7.82,0-15.67-1.43-22.82-4.16-11.32-4.32-17.81-9.04-19.3-14-2.08-6.96-1.48-44.68-.61-75.1h0c.15-5.32.29-9.83.4-13.05.15-4.57,2.67-8.71,6.75-11.06l.43-.25c5.68-3.29,16.25-9.43,33.02-8.91,24.43.76,29.02,3.98,35.36,8.43.4.28.81.57,1.23.86,6.34,4.4,7.71,9.04,7.73,12.15l.77,76.86c0,.29-.56,24.69-21.23,26.82-6.67.69-13.25,1.15-19.56,1.37-.73.02-1.45.04-2.18.04ZM534.68,285.38c-14.64,0-23.72,5.27-29.24,8.47l-.43.25c-3.03,1.75-4.9,4.79-5.01,8.15-.11,3.21-.25,7.72-.4,13.03h0c-1.2,42.02-1.03,68.99.46,74,1.12,3.76,7.23,7.93,17.19,11.74,7.38,2.82,15.55,4.17,23.63,3.9,6.23-.22,12.73-.68,19.32-1.36,17.56-1.81,18.08-22.46,18.09-23.34l-.77-76.82c-.03-3.29-2.18-6.5-6.23-9.31-.43-.3-.84-.59-1.25-.87-6.06-4.26-10.07-7.08-33.46-7.8-.65-.02-1.29-.03-1.92-.03Z" fill="#2b2b2b"/><path d="M485.25,320.59c-.06,0-.13,0-.19,0l-6.85-.32c-.97-.04-1.71-.86-1.67-1.83.04-.96.83-1.71,1.83-1.67l6.84.31c.26.01.44-.08.53-.18l2.05-2.18c.77-.82,1.88-1.3,3.05-1.3.97,0,1.75.78,1.75,1.75s-.78,1.75-1.75,1.75c-.2,0-.39.07-.5.19l-2.05,2.18c-.77.82-1.87,1.29-3.04,1.29Z" fill="#2b2b2b"/><path d="M491.53,316.94h-.63c-.97,0-1.78-.78-1.78-1.75s.76-1.75,1.72-1.75h.68c.97,0,1.75.78,1.75,1.75s-.78,1.75-1.75,1.75Z" fill="#2b2b2b"/><path d="M492.21,316.94h-.68c-.97,0-1.75-.78-1.75-1.75s.78-1.75,1.75-1.75h.68c.97,0,1.75.78,1.75,1.75s-.78,1.75-1.75,1.75Z" fill="#2b2b2b"/><path d="M496.14,316.94h-3.93c-.97,0-1.75-.78-1.75-1.75s.78-1.75,1.75-1.75h3.93c.97,0,1.75.78,1.75,1.75s-.78,1.75-1.75,1.75Z" fill="#2b2b2b"/><path d="M631.25,332.13c-.08,0-.16,0-.25-.02-5.69-.81-12.7-5.54-17.58-9.36-1.13-.89-2.57-1.38-4.07-1.4l-28.98-.95c-.97-.03-1.72-.84-1.69-1.81.03-.97.84-1.73,1.81-1.69l28.94.94c2.23.02,4.43.79,6.16,2.15,6.26,4.91,12,8.05,15.79,8.63,4.07-.02,98.3-.66,133.23-16.87.88-.41,1.92-.03,2.32.85.41.88.03,1.92-.85,2.32-36.22,16.82-130.82,17.19-134.83,17.2h0Z" fill="#2b2b2b"/><path d="M595.05,467.38c-87.23,0-131.56-18.66-132.04-18.86-.89-.38-1.3-1.41-.91-2.3s1.41-1.29,2.3-.91c.52.22,53.29,22.38,157.39,18.01,104.31-4.39,166.22-22.96,166.84-23.15.92-.28,1.9.24,2.18,1.16s-.24,1.9-1.16,2.18c-.62.19-62.91,18.89-167.71,23.29-9.37.39-18.33.57-26.88.57Z" fill="#2b2b2b"/><path d="M608.96,1292.67c-41.81,0-75.99-7.96-98.67-15.34-29.36-9.54-46.4-20.22-46.57-20.33-.82-.52-1.06-1.6-.54-2.41.52-.82,1.6-1.06,2.41-.54.66.42,67.51,41.82,168.09,34.19,100.84-7.66,153.86-32.37,154.39-32.62.88-.42,1.92-.04,2.33.83.42.87.04,1.92-.83,2.33-.53.25-54.06,25.23-155.62,32.95-8.59.65-16.93.95-24.99.95Z" fill="#2b2b2b"/><path d="M541.94,419.22c-.73,0-1.46,0-2.21-.03-29.29-.76-43.55-14.42-49.45-22.49-2.15-2.93-3.23-6.34-3.14-9.88l2.62-93.67c.15-4.92,2.65-11.98,7-15.4,11.76-9.25,25.45-13.78,40.64-13.49,24.14.47,41.54,10.31,49.78,19.36,2.71,2.99,4.22,6.76,4.27,10.64l.32,24.68h0s.86,68.39.86,68.39c.04,3.12-.85,6.16-2.57,8.79-4.61,7.04-18.4,23.1-48.11,23.1ZM536,267.76c-13.85,0-26.31,4.29-37.07,12.75-3.39,2.66-5.54,8.58-5.66,12.75l-2.62,93.67c-.07,2.75.78,5.42,2.46,7.71,5.52,7.56,18.92,20.34,46.71,21.06,29.51.78,42.9-14.77,47.3-21.48,1.34-2.05,2.03-4.41,2-6.83l-1.18-93.07c-.04-3.02-1.23-5.98-3.36-8.33-7.74-8.51-24.23-17.77-47.26-18.22-.45,0-.89-.01-1.33-.01Z" fill="#2b2b2b"/><path d="M868.39,1470.81c-10.21,0-18.69-3.22-23.67-9.1-4.85-5.71-30.25-18.6-50.54-16.79-.43.04-.9.06-1.4.06-14.74,0-59-16.46-69.77-45.14-7.74-20.62,3.36-42.02,33-63.61,28.94-21.08,63.82-32.59,103.69-34.2,33.03-1.33,62.42,4.45,81.26,9.54,9.22,2.5,19.15,3.53,29.5,3.08,19.38-.85,56.71,5.6,58.29,5.87l.25.06c17.85,5.87,21.02,15.96,20.53,23.39-1.07,16.3-22.13,35.5-43.33,39.5-28.58,5.41-67.99,25.74-86.98,57.6-11.89,19.93-31.86,28.34-46.59,29.56-1.44.12-2.85.18-4.23.18ZM798.03,1441.25c19.84,0,43.61,11.43,49.36,18.19,4.84,5.71,14.18,8.59,24.95,7.7,13.86-1.15,32.67-9.07,43.87-27.87,19.54-32.8,60.01-53.7,89.33-59.25,19.83-3.75,39.51-21.38,40.49-36.29.58-8.85-5.64-15.7-18.01-19.8-2.44-.42-38.96-6.61-57.41-5.8h0c-10.72.47-21-.61-30.57-3.2-32.66-8.82-115.79-24.12-181.98,24.11-28.21,20.55-38.9,40.59-31.78,59.55,10.38,27.65,55.52,43.9,67.59,42.83,1.36-.12,2.75-.18,4.16-.18Z" fill="#2b2b2b"/><path d="M682.12,1499.58c-10.76,0-20.81-4.31-27.63-11.86-5-5.52-7.73-11.97-8.11-19.16h0c-.92-17.44,12.91-32.95,30.84-34.57,26.35-2.38,71.22-1.95,75.59,27.76,1.11,7.56-.7,14.15-5.37,19.61-13.25,15.48-46.4,18.06-64.98,18.21-.11,0-.22,0-.34,0ZM649.87,1468.38c.34,6.36,2.76,12.08,7.21,16.99,6.16,6.82,15.26,10.71,25.03,10.71.1,0,.21,0,.31,0,14.48-.12,49.54-2.03,62.35-16.99,4.04-4.72,5.53-10.22,4.56-16.82-3.95-26.86-46.69-27.06-71.81-24.79-16.07,1.45-28.48,15.31-27.66,30.9h0Z" fill="#2b2b2b"/><path d="M1177.58,1348.09c-16.89,0-34.84-4.25-37.86-21.55-1.13-6.51.22-12.21,4.02-16.97,9.65-12.08,32.76-14.97,45.68-15.63,7.97-.39,15.6,2.81,20.88,8.8,3.81,4.31,6,9.42,6.51,15.19h0c1.24,14.04-8.36,26.97-21.41,28.82-5.21.74-11.44,1.34-17.82,1.34ZM1190.74,1297.4c-.38,0-.76,0-1.14.03-9.93.5-34,2.9-43.12,14.31-3.19,3.99-4.27,8.63-3.3,14.18,3.65,20.94,33.98,19.86,51.74,17.35,11.23-1.6,19.49-12.84,18.42-25.05h0c-.45-5.01-2.34-9.44-5.65-13.18-4.33-4.9-10.45-7.65-16.94-7.65Z" fill="#2b2b2b"/><path d="M1610.03,800.92l-192.39-192.39-192.38,192.38-113.12-113.12,192.38-192.38-192.38-192.37,113.12-113.12,192.38,192.37,192.39-192.39,112.03,113.14-192.37,192.36,192.37,192.36-112.03,113.14ZM1120.63,687.79l104.63,104.63,192.38-192.38,192.36,192.36,103.59-104.61-192.38-192.39,192.38-192.39-103.59-104.61-192.36,192.36-192.38-192.37-104.63,104.63,192.38,192.37-192.38,192.38Z" fill="#2b2b2b"/></svg>