<?xml version="1.0" encoding="UTF-8"?><svg id="_レイヤー_12" xmlns="http://www.w3.org/2000/svg" width="1000" height="1000" viewBox="0 0 1000 1000"><path d="M326.12,779.67c-8.77,0-18.05-.22-27.9-.68-172.32-8.04-172.52-78.56-172.74-153.22v-2.66c0-.37-.01-1.51,1.32-8.58.6-3.18,2.29-11.74,3.02-13.72l54.51-160.1c.48-1.22.8-2.46.95-3.7,1.46-11.47,7.47-52.05,23.75-92.85,20.94-52.47,49.77-83.29,85.72-91.64l.89-29.19,66.09-3.15.48,34.09c6.32,1.25,23.28,5.53,40.62,17.9,19.73,14.06,43.94,41.75,47.33,93.83.59,5.08,25.33,216.24,27.52,228.22.38,2.11,1.3,5.51,2.47,9.82,1.68,6.22,3.78,13.96,5.63,22.79,5.81,27.49,5.69,48.85-.35,65.31-17.55,47.83-42.24,87.53-159.3,87.54ZM189.93,442.83l-54.5,160.09c-.33.89-1.57,6.53-2.73,12.72h0c-.94,5-1.21,7.07-1.22,7.47v2.65c.12,36.92.22,71.8,20.85,98.25,23.29,29.86,69.74,45.43,146.18,48.99,63.41,2.96,107.94-3.85,136.14-20.82,26.48-15.94,36.83-39.42,45.15-62.11,5.64-15.37,5.68-35.65.11-62.01-1.82-8.66-3.89-16.31-5.55-22.46-1.2-4.44-2.15-7.95-2.58-10.31-2.25-12.25-26.55-219.84-27.59-228.67v-.16c-2.59-39.97-17.67-70.05-44.84-89.41-20.26-14.44-39.68-17.17-40.5-17.28l-2.57-.34-.46-32.96-54.35,2.59-.86,28.35-2.33.47c-84.03,17.13-104.94,163.27-107.04,179.87-.21,1.71-.65,3.42-1.29,5.08ZM129.74,615.09h0,0Z" fill="#2b2b2b"/><path d="M209.54,421.29c-1.15,0-2.28-.35-3.25-1.05-2.07-1.49-2.98-4.19-2.34-6.88.45-1.88.94-3.96,1.46-6.24,7.97-34.3,26.63-114.63,87.62-138.43,2.92-1.14,48.77-1.93,62.75-2.15,1.19.02,28.19.71,51.92,25.29,23.75,24.61,35.25,63.6,34.18,115.87-.05,2.42-1.4,4.59-3.52,5.67-2.07,1.05-4.43.87-6.34-.46h0c-13.53-9.51-48.48-20.25-89.09-22.38-34.7-1.82-85.45,1.88-130.13,29.78-1.03.64-2.16.96-3.26.96ZM355.78,270.05c-22.31.35-58.8,1.18-61.54,1.93-59.2,23.1-77.57,102.17-85.42,135.94-.53,2.28-1.02,4.38-1.47,6.26-.31,1.3.07,2.56.98,3.22.76.55,1.68.53,2.61-.04,45.45-28.39,96.95-32.14,132.16-30.31,43.19,2.26,77.41,13.51,90.92,23.01.84.59,1.84.66,2.75.21.98-.5,1.58-1.48,1.61-2.62,1.05-51.26-10.1-89.38-33.13-113.3-22.69-23.56-49.2-24.29-49.46-24.29Z" fill="#2b2b2b"/><path d="M281.85,533.26c-43.72,0-72.51-6.57-85.75-19.61-6.58-6.48-7.78-13.23-7.64-17.75.13-4,1.92-7.86,4.89-10.59,11.09-10.19,45.11-34.29,121.3-37.92,74.13-3.52,112.24,20.79,125.18,31.41,3.7,3.04,5.51,7.88,4.71,12.64h0c-2.39,14.29-4.8,23.36-23.35,29.38-16.98,5.51-47.02,8.61-114.78,11.83-8.65.41-16.84.62-24.56.62ZM329.01,450.55c-4.57,0-9.3.11-14.19.34-77.16,3.68-110.67,29.25-119.1,37-2.29,2.1-3.66,5.06-3.76,8.12-.12,3.82.92,9.55,6.59,15.14,10.21,10.06,37.19,21.35,107.69,18,129.47-6.17,130.5-12.33,134.85-38.29.59-3.53-.75-7.12-3.48-9.36-11.78-9.66-44.99-30.96-108.6-30.96ZM442.82,491.15h0,0Z" fill="#2b2b2b"/><path d="M317.98,746.68c-3.56,0-7.16-.05-10.83-.14-73.79-1.89-122.86-16.01-149.99-43.16-23.11-23.13-25.43-50.62-27.3-72.72-.25-3-.49-5.83-.78-8.54-.25-2.5-.54-4.68-.87-6.7-.16-.95.49-1.85,1.44-2.01.95-.15,1.85.49,2.01,1.44.34,2.09.64,4.35.9,6.91.29,2.73.53,5.58.78,8.6,1.82,21.53,4.08,48.32,26.29,70.54,26.47,26.49,74.75,40.27,147.6,42.13,68.93,1.76,118.34-13.16,146.87-44.36,29.24-31.97,25.22-70.23,25.18-70.61-.11-.96.58-1.83,1.54-1.94.98-.12,1.83.58,1.94,1.54.05.4,4.28,40.15-26.02,73.33-27.71,30.34-74.37,45.69-138.76,45.69Z" fill="#2b2b2b"/><path d="M481.02,629.62c-.37,0-.74-.11-1.05-.35-.36-.27-36.32-26.96-96.97-40.92-55.96-12.87-144.99-17.22-251.4,35.16-.79.38-1.57.76-2.34,1.15-.86.44-1.92.09-2.35-.77-.44-.86-.09-1.92.77-2.35.79-.4,1.6-.8,2.39-1.18,47.4-23.33,95.39-37.55,142.64-42.24,37.82-3.75,75.25-1.45,111.24,6.85,61.32,14.14,97.76,41.22,98.12,41.49.77.58.93,1.68.34,2.45-.34.46-.87.7-1.4.7Z" fill="#2b2b2b"/><path d="M673.88,779.67c-117.08,0-141.75-39.7-159.31-87.54-6.04-16.45-6.16-37.82-.35-65.32,1.86-8.81,3.95-16.55,5.63-22.76,1.17-4.31,2.09-7.72,2.47-9.83,2.2-11.98,26.93-223.14,27.52-228.22,3.39-52.14,27.65-79.84,47.41-93.9,17.35-12.34,34.23-16.6,40.54-17.84l.49-34.09,66.08,3.15.89,29.18c35.94,8.35,64.78,39.17,85.72,91.64,16.29,40.8,22.3,81.38,23.75,92.85.17,1.28.49,2.52.96,3.69l.05.14,54.45,159.97c.73,1.99,2.42,10.54,3.02,13.72h0c1.33,7.07,1.33,8.21,1.33,8.58v2.66c-.23,74.66-.43,145.18-172.75,153.22-9.83.46-19.13.68-27.9.68ZM644.2,226.47l-.47,32.97-2.57.34c-.81.11-20.13,2.8-40.42,17.22-27.22,19.36-42.33,49.46-44.91,89.47v.16c-1.05,8.83-25.36,216.43-27.6,228.68-.43,2.35-1.38,5.87-2.58,10.32-1.66,6.14-3.73,13.79-5.55,22.43-5.57,26.37-5.53,46.65.11,62.02,8.33,22.69,18.67,46.17,45.15,62.11,28.2,16.97,72.73,23.78,136.14,20.82,76.44-3.57,122.89-19.13,146.18-48.99,20.63-26.45,20.73-61.32,20.84-98.25v-2.67c0-.38-.27-2.45-1.21-7.45h0c-1.14-6.09-2.41-11.84-2.74-12.73l-.05-.12-54.44-159.94c-.63-1.61-1.07-3.31-1.3-5.07-2.11-16.62-23.02-162.76-107.05-179.89l-2.33-.47-.86-28.35-54.35-2.59Z" fill="#2b2b2b"/><path d="M790.46,421.29c-1.1,0-2.22-.32-3.25-.96-44.68-27.91-95.43-31.6-130.13-29.78-40.61,2.13-75.56,12.87-89.09,22.38h0c-1.91,1.34-4.27,1.51-6.33.47-2.12-1.08-3.48-3.25-3.53-5.68-1.07-52.28,10.43-91.26,34.18-115.87,23.73-24.59,50.72-25.28,51.86-25.29,14.04.22,59.88,1.02,62.8,2.15,60.99,23.8,79.65,104.13,87.62,138.43.53,2.27,1.01,4.36,1.46,6.24.65,2.68-.27,5.38-2.34,6.88-.97.7-2.1,1.05-3.25,1.05ZM671.86,386.66c33.93,0,77.83,6.11,117.2,30.7.92.57,1.84.59,2.6.04.91-.66,1.3-1.92.99-3.22-.45-1.89-.94-3.98-1.47-6.26-7.84-33.76-26.21-112.83-85.48-135.96-2.67-.73-39.17-1.56-61.53-1.91-.21,0-26.72.73-49.41,24.29-23.04,23.92-34.19,62.04-33.13,113.3.03,1.15.63,2.13,1.61,2.63.9.46,1.9.38,2.74-.21,13.51-9.5,47.73-20.75,90.92-23.01,4.71-.25,9.73-.39,14.97-.39ZM566.98,411.49h0,0Z" fill="#2b2b2b"/><path d="M718.15,533.26c-7.72,0-15.91-.21-24.56-.62-67.76-3.23-97.8-6.32-114.78-11.83-18.55-6.02-20.96-15.08-23.35-29.37h0c-.8-4.76,1-9.6,4.71-12.65,12.94-10.62,51.02-34.93,125.19-31.4,76.19,3.63,110.2,27.73,121.29,37.92,3.02,2.77,4.75,6.53,4.89,10.58.15,4.52-1.05,11.26-7.62,17.74-13.24,13.05-42.04,19.63-85.76,19.63ZM670.99,450.55c-63.63,0-96.82,21.29-108.6,30.96-2.74,2.25-4.07,5.83-3.47,9.36h0c4.33,25.96,5.36,32.12,134.84,38.29,70.52,3.35,97.49-7.94,107.7-18.01,5.67-5.59,6.71-11.31,6.58-15.13-.1-3.11-1.44-5.99-3.76-8.12-8.43-7.75-41.94-33.33-119.09-37-4.89-.23-9.63-.34-14.2-.34Z" fill="#2b2b2b"/><path d="M682,746.67c-64.39,0-111.03-15.35-138.74-45.68-30.31-33.17-26.07-72.93-26.02-73.32.11-.96.97-1.66,1.94-1.54.96.11,1.65.98,1.54,1.94-.04.38-4.07,38.64,25.18,70.61,28.54,31.19,77.97,46.1,146.87,44.35,72.85-1.86,121.13-15.64,147.6-42.13,22.21-22.22,24.47-49.01,26.29-70.54.25-3.02.5-5.87.78-8.61.26-2.55.55-4.81.89-6.9.16-.95,1.07-1.59,2.01-1.44.95.16,1.6,1.06,1.44,2.01-.33,2.02-.62,4.21-.87,6.69-.28,2.71-.52,5.54-.78,8.54-1.87,22.09-4.19,49.59-27.3,72.72-27.13,27.15-76.19,41.27-149.99,43.15-3.67.09-7.29.14-10.85.14Z" fill="#2b2b2b"/><path d="M518.98,629.61c-.45,0-.89-.17-1.24-.51-.68-.68-.69-1.79,0-2.47l.2-.17c1.51-1.13,37.67-27.74,99.09-41.71,35.91-8.17,73.23-10.37,110.93-6.56,47.03,4.76,94.8,18.95,141.98,42.18.78.38,1.58.77,2.38,1.17.86.44,1.21,1.49.77,2.35-.44.86-1.49,1.21-2.35.77-.77-.39-1.55-.77-2.33-1.15-106.05-52.21-194.82-48.04-250.61-35.35-60.46,13.75-95.99,39.77-97.75,41.08-.32.24-.7.37-1.07.37Z" fill="#2b2b2b"/></svg>