<?xml version="1.0" encoding="UTF-8"?><svg id="_レイヤー_18" xmlns="http://www.w3.org/2000/svg" width="450" height="1000" viewBox="0 0 450 1000"><path d="M243.14,116.5c-.38,0-.75-.07-1.11-.21-.01,0-1.33-.53-3.47-1.18-3.76-1.12-9.55-2.46-15.65-2.46s-10.62.87-13.64,1.59c0,0,0,0,0,0-2.15.51-3.4.97-3.42.97-.92.34-1.95.21-2.76-.35s-1.29-1.48-1.29-2.46v-49.06c-.01-1.43,1-2.66,2.4-2.94,0,0,.5-.1,1.43-.26,1.54-.27,4.77-.76,9.14-1.11,3.05-.23,6.15-.35,9.21-.35,3.41,0,7.03.24,10.76.73,4.61.59,8.23,1.39,9.97,1.81.85.2,1.33.32,1.33.32,1.36.36,2.29,1.62,2.23,3.03l-2.12,49.06c-.04.97-.55,1.86-1.37,2.39-.49.32-1.06.48-1.63.48ZM208.57,111.33h0,0ZM222.91,106.65c6.83,0,13.22,1.48,17.38,2.72,0,0,.02,0,.03,0l1.84-42.59c-1.74-.39-4.67-.97-8.2-1.43-3.47-.45-6.83-.68-9.99-.68-2.9,0-5.85.11-8.74.34-3.24.25-5.79.59-7.44.85v42.56s.06-.01.08-.02c3.33-.8,8.65-1.76,15.04-1.76Z" fill="#2b2b2b"/><path d="M203.4,669.39s-.05,0-.07,0c-1.66-.04-2.97-1.41-2.93-3.07l1.26-55.07c.04-1.63,1.37-2.93,3-2.93h39.4c1.64,0,2.97,1.31,3,2.95l.86,53.61c.03,1.66-1.29,3.02-2.95,3.05-1.62.03-3.02-1.29-3.05-2.95l-.81-50.66h-33.51l-1.19,52.14c-.04,1.63-1.37,2.93-3,2.93Z" fill="#2b2b2b"/><path d="M201.83,749.99s-.04,0-.06,0c-.97-.03-1.72-.84-1.69-1.81l2.76-81.85c.03-.97.82-1.74,1.81-1.69.97.03,1.72.84,1.69,1.81l-2.76,81.85c-.03.95-.81,1.69-1.75,1.69Z" fill="#2b2b2b"/><path d="M246.06,750.93c-.94,0-1.72-.75-1.75-1.7l-2.34-84.25c-.03-.97.73-1.77,1.7-1.8.96-.06,1.77.73,1.8,1.7l2.34,84.25c.03.97-.73,1.77-1.7,1.8-.02,0-.03,0-.05,0Z" fill="#2b2b2b"/><path d="M208.57,614.32c-1.66,0-3-1.34-3-3V111.33c0-1.66,1.34-3,3-3s3,1.34,3,3v499.99c0,1.66-1.34,3-3,3Z" fill="#2b2b2b"/><path d="M239.33,614.32c-1.66,0-3-1.34-3-3V112.64c0-1.66,1.34-3,3-3s3,1.34,3,3v498.68c0,1.66-1.34,3-3,3Z" fill="#2b2b2b"/><path d="M328.67,790.92H121.01c-.9,0-1.75-.4-2.32-1.1-.57-.7-.8-1.61-.62-2.49,2.74-13.7,6.24-26.67,10.41-38.54,26.05-74.05,71.04-84.79,73.46-85.32,1.95-.45,3.71,1.03,3.71,2.91,0,1.43-1,2.63-2.34,2.93-.03,0-.06.01-.08.02-1.78.38-43.98,10.1-69.08,81.45-3.71,10.57-6.89,22.04-9.45,34.14h200.34c-1.22-5.96-4.2-18.94-9.65-34.13-11.03-30.72-31.83-69.87-68.25-81.95-1.57-.52-2.42-2.22-1.9-3.79.52-1.57,2.22-2.42,3.79-1.9,38.7,12.84,60.52,53.65,72,85.62,7.65,21.34,10.48,37.96,10.59,38.66.15.87-.1,1.76-.67,2.43-.57.67-1.41,1.06-2.29,1.06Z" fill="#2b2b2b"/><path d="M375.48,949.48c-1.18,0-2.29-.7-2.77-1.85l-52.14-125.49c-.62-1.48.04-3.19,1.5-3.87,1.45-.68,3.18-.1,3.93,1.32l32.69,62.29-38.12-91.69c-.64-1.53.09-3.29,1.62-3.92,1.53-.64,3.29.09,3.92,1.62l63.9,153.7c.62,1.48-.04,3.19-1.5,3.87-1.45.68-3.18.1-3.93-1.32l-32.78-62.46,26.44,63.64c.64,1.53-.09,3.29-1.62,3.92-.38.16-.77.23-1.15.23Z" fill="#2b2b2b"/><path d="M59.95,952.39c-.44,0-.89-.1-1.32-.31-1.49-.73-2.1-2.52-1.38-4.01l21.73-44.51-25.71,41.12c-.85,1.35-2.6,1.81-4,1.03-1.4-.77-1.94-2.5-1.25-3.94l75.62-155.56c.74-1.48,2.54-2.08,4.02-1.34,1.48.74,2.08,2.54,1.34,4.03l-.18.36-50.78,104.48,26.21-41.92c.85-1.35,2.6-1.81,4-1.03,1.4.77,1.94,2.5,1.24,3.94l-46.86,95.98c-.52,1.06-1.59,1.68-2.7,1.68Z" fill="#2b2b2b"/><path d="M228.21,666.33h-8.52c-.97,0-1.75-.78-1.75-1.75v-44.72c0-.97.78-1.75,1.75-1.75h8.52c.97,0,1.75.78,1.75,1.75v44.72c0,.97-.78,1.75-1.75,1.75ZM221.44,662.83h5.02v-41.22h-5.02v41.22Z" fill="#2b2b2b"/><path d="M318.75,751.53h-187.42c-.97,0-1.75-.78-1.75-1.75s.78-1.75,1.75-1.75h187.42c.97,0,1.75.78,1.75,1.75s-.78,1.75-1.75,1.75Z" fill="#2b2b2b"/><path d="M122.09,919.67c-.12,0-.24-.01-.36-.04-.95-.2-1.55-1.12-1.36-2.07l21.29-102.24c.2-.95,1.13-1.56,2.07-1.36.95.2,1.55,1.12,1.36,2.07l-21.29,102.24c-.17.83-.9,1.39-1.71,1.39Z" fill="#2b2b2b"/><path d="M203.02,921.8s-.08,0-.13,0c-.96-.07-1.69-.91-1.62-1.87l4.27-59.63c.07-.96.91-1.72,1.87-1.62.96.07,1.69.91,1.62,1.87l-4.27,59.63c-.07.92-.83,1.62-1.74,1.62Z" fill="#2b2b2b"/><path d="M252,874.94c-.91,0-1.67-.7-1.74-1.62l-4.25-55.37c-.07-.96.65-1.8,1.61-1.88.98-.07,1.81.65,1.88,1.61l4.25,55.37c.07.96-.65,1.8-1.61,1.88-.05,0-.09,0-.14,0Z" fill="#2b2b2b"/><path d="M279.7,934.57c-.89,0-1.65-.67-1.74-1.58l-6.39-63.89c-.1-.96.61-1.82,1.57-1.92.96-.1,1.82.6,1.92,1.57l6.39,63.89c.1.96-.61,1.82-1.57,1.92-.06,0-.12,0-.18,0Z" fill="#2b2b2b"/><path d="M328.68,934.57c-.79,0-1.51-.54-1.7-1.35l-29.81-125.66c-.22-.94.36-1.88,1.3-2.11.94-.23,1.88.36,2.11,1.3l29.81,125.66c.22.94-.36,1.88-1.3,2.11-.14.03-.27.05-.41.05Z" fill="#2b2b2b"/><path d="M306.32,943.09c-.83,0-1.57-.59-1.72-1.44l-18.1-99.03c-.17-.95.46-1.86,1.41-2.04.95-.17,1.86.46,2.04,1.41l18.1,99.03c.17.95-.46,1.86-1.41,2.04-.11.02-.21.03-.32.03Z" fill="#2b2b2b"/><path d="M244.14,66.52c-1.45,0-2.73-1.05-2.96-2.53l-4.22-26.81h-23.41l-4.68,25.23c-.3,1.63-1.87,2.7-3.5,2.4-1.63-.3-2.71-1.87-2.4-3.5l5.13-27.68c.26-1.42,1.5-2.45,2.95-2.45h28.47c1.48,0,2.73,1.07,2.96,2.53l4.62,29.35c.26,1.64-.86,3.17-2.5,3.43-.16.02-.32.04-.47.04Z" fill="#2b2b2b"/><path d="M214.91,62.7c-.08,0-.17,0-.25-.02-.96-.14-1.62-1.02-1.49-1.98l2.64-18.5c.12-.86.86-1.5,1.73-1.5h14.64c.88,0,1.62.65,1.73,1.52l2.38,18.02c.13.96-.55,1.84-1.51,1.96-.96.12-1.84-.55-1.96-1.51l-2.18-16.5h-11.59l-2.42,17c-.12.87-.87,1.5-1.73,1.5Z" fill="#2b2b2b"/><path d="M153.33,936.44c-.08,0-.17,0-.26-.02-.96-.14-1.62-1.03-1.47-1.99l8.52-57.51c.14-.96,1.03-1.61,1.99-1.47.96.14,1.62,1.03,1.47,1.99l-8.52,57.51c-.13.87-.88,1.49-1.73,1.49Z" fill="#2b2b2b"/><path d="M352.61,963.8c-.67-.68-2.16-2.08-3.41-3.24-2.31-2.15-4.09-3.84-5.47-5.22-2.33,5.31-5.7,13.26-6.25,14.69-.45,1.44-1.81,2.48-3.39,2.48-1.87,0-3.4-1.43-3.55-3.26-.83-1.37-5.31-3.81-8.71-5.19-4.23,2.54-7.97,4.44-10.86,2.88-1.26-.15-2.58-.71-4-1.33-.86-.37-2.42-1.05-3.45-1.3v.11c0,2.02-1.73,3.64-3.72,3.56-.56.25-1.37.64-1.97.94-4.03,1.96-6.94,3.37-9.39,1.84-.37-.23-.69-.51-.96-.84-.96-.62-2.2-1.52-3.91-2.78-.81-.61-1.94-1.44-3.02-2.21-2.1,4.56-6.51,7.84-10.3,7.84-1.47,0-2.8-.49-3.83-1.4-.37.04-.75.06-1.15.06-2.19,0-5.47-.68-8.1-2.15-1.47,2.25-3.72,5.38-7.09,9.94-.58.78-1,1.35-1.19,1.62-.62,1.02-1.76,1.72-3.05,1.72-1.97,0-3.56-1.6-3.56-3.56,0-2.8-2.41-6.13-4.22-7.72-.42,1.52-1.79,2.64-3.45,2.64-.13,0-.26,0-.39-.02-.11.06-.23.12-.32.17-2.48,1.26-6.64,3.36-10.21,1.18-.21-.13-.43-.29-.62-.43-3.9,1.2-7.54-2.67-10.5-5.81-.24-.25-.52-.56-.78-.82-.64-.18-1.2-.53-1.64-1.01-.46.32-.93.64-1.28.9-1.53,1.09-3.09,2.21-4.67,2.72-.46,1-1.18,1.9-2.28,2.51-3.03,1.68-6.14-.27-8.42-1.72-.65.69-1.58,1.13-2.6,1.13-.61,0-1.19-.15-1.69-.43-1.66.59-4.54,2.08-5.76,2.71-2.82,1.45-4.1,2.11-5.92,1.01-1.07-.65-1.72-1.83-1.72-3.07-.06-1.44-2.73-4.76-4.71-6.4-.58.42-1.28.65-2.04.65-1.28,0-2.41-.69-3.04-1.71-.94.31-2.29,1.01-3.47,2.11-1.07,1-1.7,2.06-1.7,2.85,0,1.18-.26,2.2-.77,3.03-.8,1.28-2.17,2.04-3.68,2.04-4.17,0-8.88-6.45-11.22-14.01-.32.34-.65.7-.99,1.07-1.88,1.98-4.98,5.3-5.37,6.58-.08,1.9-1.65,3.41-3.56,3.41s-3.56-1.59-3.56-3.56c0-1.43-2.61-4.38-4.35-6.34-.25-.27-.49-.55-.72-.82-3.29,5.64-9.07,9.61-12.44,9.61-1.46,0-2.45-.59-3.01-1.09-.91-.82-1.43-1.98-1.43-3.27-.11-1.46-3.12-6.42-4.75-9.08-.65-1.06-1.24-2.02-1.75-2.89-.3.38-.61.78-.95,1.21-4.88,6.23-7.37,7.5-9.59,7.5-1.72,0-3.24-.94-4.08-2.5-.38-.74-.62-1.59-.7-2.61-.77-.96-2.42-2.57-3.73-3.55-.53.31-1.15.49-1.81.49-1.26,0-2.36-.64-3.01-1.63-1.31,1.08-3.14,2.91-5.47,5.44-.37.39-.71.77-1.05,1.1-.62,1.39-1.97,2.28-3.46,2.28-2.28,0-5.06-2.45-8.14-6.24-2.59-3.2-4.13-5.49-4.13-7.81,0-1.97,1.95-2.15,3.91-2.15.08,0,.15,0,.24.01,1.82.12,3.26,1.6,3.33,3.42.27,1.69,2.22,3.21,5.01,3.52,4.94-5.3,9.09-9.04,13.01-7.51.55.21,1.27.62,1.9,1.35,3.03.9,7.47,4.6,9.46,7.64,2.01-2.14,4.82-5.82,6.89-8.99.63-1,1.75-1.66,3.02-1.66,1.9,0,3.45,1.49,3.55,3.35.3,1.08,2.29,4.34,3.61,6.51,2.23,3.66,3.93,6.51,4.9,8.88,2.48-1.87,6.01-5.73,6.01-9.94,0-1.96,1.59-3.56,3.56-3.56s3.56,1.6,3.56,3.56c.15.84,2.29,3.26,3.56,4.71,1.01,1.13,2.02,2.28,2.93,3.46,1.02-1.19,2.17-2.42,3.37-3.71,1.7-1.82,4.25-4.54,4.73-5.64.17-1.83,1.69-3.26,3.55-3.26,1.97,0,3.56,1.59,3.56,3.56,0,5.44,2.2,10.49,4.12,13.49,2.45-4.52,8.02-7.69,11.98-7.69,1.01,0,1.83.2,2.48.48.24-.04.48-.05.71-.05,3.59,0,8.78,4.73,11.31,9.43,3.01-1.53,5.28-2.55,7.11-2.93.42-.51.88-.87,1.32-1.1,2.66-1.46,5.3.21,7.41,1.56.19.12.43.27.67.42h0c0-1.98,1.6-3.58,3.56-3.58.78,0,1.52.26,2.1.69.4-.27.8-.56,1.12-.78,2.91-2.08,5.93-4.23,8.93-2.69.83.43,1.78,1.22,2.29,2.7.58.52,1.18,1.15,1.82,1.83.53.56,1.46,1.54,2.34,2.38.07-1.91,1.64-3.43,3.56-3.43s3.56,1.59,3.56,3.56c0,1.32.15,2.04.26,2.41.87-.17,2.45-.96,3.18-1.33.26-.13.52-.27.78-.39.19-.61.45-1.15.78-1.64,1.02-1.53,2.67-2.41,4.52-2.41,3.64,0,7.81,3.56,10.34,7.98,3.4-4.68,5.36-7.62,5.85-8.72.31-1.66,1.76-2.92,3.51-2.92s3.27,1.32,3.53,3.03c.86.8,3.6,1.68,5.17,1.7.64-.88,1.69-1.45,2.86-1.45,1.51,0,2.8.95,3.33,2.28,1.41-.93,3.35-3.1,3.35-5.76,0-1.34.8-2.64,2-3.24,2.38-1.2,3.71-.23,11.12,5.24,1.24.91,2.86,2.11,3.56,2.58.04.01.06.02.1.04.97-.39,2.39-1.07,3.26-1.5.76-.37,1.44-.7,2.07-.97.55-1.81,1.57-2.84,2.47-3.43,3.28-2.16,7.47-.36,10.53.96.32.13.69.3,1.03.44,1.15-.48,2.61-.26,3.58.5.83-.37,2.15-1.06,4.21-2.32,1.32-.8,2.8-1.71,4.67-.67.05.04.11.07.15.1,2.38.82,6.49,2.51,9.68,4.88.55-1.27,1.2-2.8,2-4.66,1.09-2.54,2.19-5.07,3.03-6.97,1.76-3.92,2.34-5.25,4.76-5.25.95,0,1.85.39,2.53,1.06.4.42.7.91.88,1.46,1.02,1.44,5.54,5.66,7.75,7.72.81.75,1.49,1.38,2.07,1.92,1.73-2.29,3.92-5.7,4.36-6.95.1-1.49.82-2.73,2.02-3.48,2.59-1.62,5.62-.14,9.46,1.72.87.43,2.13,1.03,3.09,1.43.48-.38.19-2.54.43-3.52.06-.29.17-.48.37-.48,1.97,0,3.46-1.34,3.46.63,0,1.7.77,9.32-.56,10.16-2.72,1.69-6.05.07-9.91-1.82-.61-.3-1.43-.69-2.17-1.02-.61,1.27-1.6,3.01-3.24,5.39-4.25,6.17-5.82,6.65-7.41,6.65-1.28,0-2.46-.64-3.15-1.72-.08-.13-.17-.29-.25-.48Z" fill="#2b2b2b"/></svg>