<?xml version="1.0" encoding="UTF-8"?><svg id="_レイヤー_11" xmlns="http://www.w3.org/2000/svg" width="800" height="1000" viewBox="0 0 800 1000"><path d="M398.67,935.68c-3.76,0-7.26-.02-10.47-.04-90.58-.75-177.86-10.11-212.25-22.76l-2.06-.76.1-2.19c.12-2.74,12.32-274.6,23.66-350.23,9.68-64.6,26.88-157.91,64.21-222.19,2.04-3.51,4.92-6.52,8.34-8.72l.99-.64c4.06-2.64,5.04-2.85,10.49-2.21,1.65.19,2.82,1.68,2.63,3.33-.19,1.65-1.68,2.83-3.33,2.63q-3.86-.45-6.53,1.29l-1.02.66c-2.62,1.68-4.83,3.99-6.39,6.68-36.82,63.39-53.85,155.96-63.46,220.07-10.75,71.7-22.31,321.15-23.5,347.39,34.75,11.88,121.4,20.94,208.17,21.66,4,.03,7.99.05,11.91.05,96.04,0,167.72-9.89,198.34-27.43l-8.88-245.08c-10.68-181.68-65.96-272.73-97.97-310.82-3.57-4.25-8.21-7.47-13.43-9.33-4.53-1.61-9.44-2.16-14.22-1.58-1.64.2-3.14-.97-3.34-2.62-.2-1.64.97-3.14,2.62-3.34,5.7-.69,11.56-.03,16.95,1.89,6.22,2.22,11.76,6.06,16.01,11.13,32.48,38.66,88.59,130.92,99.37,314.4l9.01,248.69-1.5.91c-42.32,25.75-150.14,29.18-204.46,29.18Z" fill="#2b2b2b"/><path d="M268.25,365.56c-.19,0-.38-.03-.57-.09l-5.67-1.95c-.91-.31-1.4-1.31-1.09-2.22s1.31-1.4,2.22-1.09l5.67,1.95c.91.31,1.4,1.31,1.09,2.22-.25.73-.93,1.18-1.66,1.18Z" fill="#2b2b2b"/><path d="M386.68,375.76l-.43-.09-11.79-2.94c-.94-.23-1.51-1.18-1.27-2.12.24-.94,1.18-1.51,2.12-1.27l11.72,2.92c.66.13,1.22.64,1.37,1.34.21.94-.38,1.87-1.32,2.08l-.4.09ZM422.42,375.75c-.79,0-1.5-.53-1.7-1.33-.23-.94.34-1.89,1.27-2.12l11.82-2.95c.94-.23,1.89.34,2.12,1.27.23.94-.34,1.89-1.27,2.12l-11.82,2.95c-.14.04-.29.05-.42.05ZM351.01,374.62c-.83,0-1.56-.59-1.72-1.43-.18-.95.45-1.86,1.4-2.04l11.98-2.22c.95-.17,1.86.45,2.04,1.4s-.45,1.86-1.4,2.04l-11.98,2.22c-.11.02-.21.03-.32.03ZM458.24,374.61l-.49-.05-11.91-2.15c-.95-.17-1.58-1.08-1.41-2.03.17-.95,1.09-1.59,2.03-1.41l11.81,2.13c.69.08,1.3.54,1.51,1.23.27.93-.21,1.89-1.14,2.16l-.4.12ZM410.52,373.19c-.12,0-.25-.01-.37-.04l-5.63-1.22-5.54,1.19c-.94.2-1.88-.4-2.08-1.34-.2-.95.4-1.88,1.34-2.08l6.28-1.35,6.37,1.38c.95.21,1.54,1.14,1.34,2.08-.18.82-.9,1.38-1.71,1.38ZM315.36,372.55c-.17,0-.34-.02-.52-.08l-11.64-3.59c-.92-.29-1.44-1.26-1.16-2.19.29-.92,1.27-1.44,2.19-1.16l11.64,3.59c.92.29,1.44,1.26,1.16,2.19-.23.75-.92,1.24-1.67,1.24ZM339.27,371.35c-.16,0-.31-.02-.47-.06l-5.49-1.53-5.65.89c-.95.16-1.85-.5-2-1.46s.5-1.85,1.46-2l6.4-1.01,6.22,1.74c.93.26,1.47,1.22,1.21,2.16-.22.77-.92,1.28-1.68,1.28ZM279.64,369.57l-.39-.14c-.91-.32-1.42-1.33-1.1-2.24.26-.75.98-1.22,1.7-1.18l11.78-1.53c.96-.12,1.84.55,1.96,1.51.12.96-.55,1.84-1.51,1.96l-12.43,1.61Z" fill="#2b2b2b"/><path d="M469.83,371.16c-.76,0-1.46-.5-1.68-1.26-.27-.93.26-1.9,1.19-2.17l5.76-1.68c.93-.26,1.9.26,2.17,1.19s-.26,1.9-1.19,2.17l-5.76,1.68c-.16.05-.33.07-.49.07Z" fill="#2b2b2b"/><path d="M404.02,338.51h-.08c-3.8-.04-6.83-3.06-9.77-5.98-1.9-1.89-4.27-4.25-5.68-4.28h-.03c-1.4,0-3.84,2.22-5.81,4-3,2.73-6.11,5.55-9.81,5.55-.08,0-.17,0-.25,0-3.85-.13-6.85-3.25-9.75-6.26-1.74-1.81-4.12-4.28-5.46-4.34-1.5-.09-4.01,2.16-6.05,3.95-3.08,2.7-6.28,5.46-10.01,5.29-3.93-.2-6.92-3.41-9.8-6.51-1.67-1.8-3.96-4.26-5.22-4.34-.03,0-.07,0-.1,0-1.59,0-4.18,2.19-6.27,3.96-3.07,2.59-6.22,5.29-9.85,5.03-4.14-.28-7.3-3.8-10.09-6.91-1.47-1.64-3.69-4.11-4.75-4.2-2.13-.17-4.95,2.17-7.46,4.22-2.98,2.43-5.8,4.73-8.94,4.44-1.65-.15-2.87-1.61-2.71-3.26.15-1.65,1.61-2.87,3.26-2.71.82-.03,3.19-1.96,4.6-3.11,3.39-2.77,7.23-5.9,11.72-5.56,3.45.27,6.15,3.27,8.75,6.17,1.92,2.14,4.32,4.81,6.03,4.93,1.17.12,3.71-2.06,5.56-3.62,3.1-2.62,6.61-5.61,10.6-5.36,3.66.22,6.51,3.28,9.26,6.24,1.88,2.02,4.21,4.53,5.72,4.61.02,0,.04,0,.06,0,1.32,0,3.84-2.21,5.69-3.82,3.15-2.75,6.39-5.6,10.26-5.43,3.75.16,6.68,3.22,9.53,6.17,1.88,1.95,4.21,4.37,5.63,4.42h.04c1.38,0,3.82-2.21,5.78-3.99,3.01-2.74,6.12-5.56,9.84-5.56.06,0,.11,0,.17,0,3.81.09,6.84,3.11,9.77,6.03,1.79,1.78,4.24,4.22,5.6,4.23h.01c1.44,0,3.87-2.33,5.83-4.2,2.95-2.82,5.99-5.74,9.71-5.76h.04c3.85,0,7,2.94,10.04,5.78,1.8,1.68,4.27,3.98,5.56,3.98h.03c1.53-.04,3.93-2.54,5.85-4.54,2.76-2.88,5.62-5.86,9.22-6.06,3.98-.21,7.51,2.7,10.63,5.28,1.75,1.45,4.43,3.64,5.53,3.52,1.64-.16,3.12,1.04,3.29,2.69.17,1.65-1.04,3.12-2.69,3.29-3.61.37-6.83-2.29-9.95-4.86-2.12-1.75-4.75-3.92-6.39-3.92-.03,0-.07,0-.1,0-1.24.07-3.54,2.47-5.22,4.22-2.96,3.09-6.03,6.28-10.03,6.39-.06,0-.12,0-.18,0-3.65,0-6.7-2.84-9.65-5.6-1.99-1.86-4.47-4.17-5.95-4.17h0c-1.33,0-3.8,2.37-5.6,4.09-3.01,2.88-6.13,5.86-9.98,5.86Z" fill="#2b2b2b"/><path d="M147.23,727.56c-1.5,0-2.78-1.12-2.97-2.61-.77-5.86.92-18.29,4.27-34.97,4.65-34.75,13.08-91.5,25.17-149.28,26.19-125.2,56.35-195.39,89.65-208.62,1.14-.45,2.44-.17,3.28.72.84.89,1.06,2.2.55,3.32l-37.35,81.49c-2.17,7.05-58.54,190.83-75.2,271.99-2.9,21.56-4.38,34.94-4.42,35.28-.17,1.51-1.43,2.66-2.95,2.67h-.03ZM257.94,341.89c-28.13,20.05-55.08,88.69-78.37,200.04-5.82,27.8-10.78,55.36-14.88,80.34,22.99-87.9,57.26-199.41,59.48-206.61.04-.12.08-.25.14-.37l33.64-73.4Z" fill="#2b2b2b"/><path d="M153.85,755.42c-.07,0-.15,0-.22,0-.64-.05-15.79-1.26-24.69-11.48-.84-.96-.97-2.34-.35-3.45l10.05-17.73c.53-.94,1.53-1.52,2.6-1.52l11.07-.02h0c1.59,0,2.91,1.25,3,2.84l1.52,28.2c.05.86-.28,1.7-.89,2.3-.56.55-1.32.86-2.1.86ZM134.93,741.5c4.93,4.62,11.7,6.6,15.73,7.41l-1.17-21.68h-6.48s-8.08,14.27-8.08,14.27Z" fill="#2b2b2b"/><path d="M126.3,761.77c-.82,0-1.64-.33-2.23-.99-1.11-1.23-1.01-3.13.22-4.24l11.3-10.18c1.23-1.11,3.13-1.01,4.24.22,1.11,1.23,1.01,3.13-.22,4.24l-11.3,10.18c-.57.52-1.29.77-2.01.77Z" fill="#2b2b2b"/><path d="M145.94,763.69c-1.44,0-2.71-1.04-2.95-2.5l-1.37-8.15c-.28-1.63.83-3.18,2.46-3.46,1.63-.28,3.18.83,3.46,2.46l1.37,8.15c.28,1.63-.83,3.18-2.46,3.46-.17.03-.34.04-.5.04Z" fill="#2b2b2b"/><path d="M648.7,742.42c-1.22,0-2.36-.75-2.81-1.94-9.12-24.19-20.43-63.69-33.53-109.42-17.16-59.95-36.62-127.89-57.29-183.02-22.51-60.04-42.56-93.65-59.64-99.97-.66-.22-1.31-.42-1.97-.62-1.57-.45-2.49-2.09-2.06-3.67.43-1.58,2.05-2.53,3.64-2.12.73.19,1.45.41,2.18.67,23.89,7.93,46.74,33.25,67.93,75.3,17.23,34.18,33.51,79.57,48.4,134.89,25.31,94.04,38,185.57,38.12,186.49.21,1.51-.75,2.94-2.24,3.32-.25.06-.49.09-.74.09ZM522.51,365.77c34.43,49.92,67.72,166.2,95.62,263.63,8.06,28.16,15.45,53.95,22.04,75.19-5.98-35.24-16.79-92.43-32.43-150.57-25.32-94.08-54.37-157.98-85.23-188.26Z" fill="#2b2b2b"/><path d="M642.82,772.11l-2.58-34.4,15.54-1.98,14.57,19.38-1.18,1.77c-7.51,11.27-22.38,14.42-23.01,14.55l-3.34.68ZM646.65,742.95l1.62,21.65c3.89-1.32,10.35-4.15,14.65-9.37l-9.85-13.1-6.42.82Z" fill="#2b2b2b"/><path d="M673.7,774.24c-.59,0-1.18-.17-1.7-.53l-12.51-8.64c-1.36-.94-1.71-2.81-.76-4.17.94-1.36,2.81-1.71,4.17-.76l12.51,8.64c1.36.94,1.71,2.81.76,4.17-.58.84-1.52,1.29-2.47,1.29Z" fill="#2b2b2b"/><path d="M655.78,785.85c-1.57,0-2.89-1.22-2.99-2.81l-1-15.44c-.11-1.65,1.15-3.08,2.8-3.19,1.67-.09,3.08,1.15,3.19,2.8l1,15.44c.11,1.65-1.15,3.08-2.8,3.19-.07,0-.13,0-.2,0Z" fill="#2b2b2b"/><path d="M386.71,819.43c-50,0-101.45-3.7-202.43-12.36-.96-.08-1.68-.93-1.59-1.89.08-.96.93-1.68,1.89-1.59,187.86,16.1,204.05,15.04,358.98,4.88,15.7-1.03,32.83-2.15,51.71-3.36.96-.08,1.8.67,1.86,1.63.06.96-.67,1.8-1.63,1.86-18.87,1.21-36,2.33-51.7,3.36-71.88,4.71-113.94,7.47-157.08,7.47Z" fill="#2b2b2b"/><path d="M342.77,335.71c-1.54,0-2.85-1.18-2.99-2.75-.05-.63-5.43-64.23-7.54-128.45-1.24-37.77-1.13-68.37.34-90.97,2.54-39.16,8.55-46.74,13.49-48.96l.59-.27,51.91.27c7.33.04,13.6,5.04,15.26,12.17,3.68,15.78,9.47,49.9,6.97,101.14-3.42,70.09-9.3,150.88-9.36,151.69-.12,1.65-1.56,2.88-3.21,2.77-1.65-.12-2.89-1.56-2.77-3.21.06-.81,5.93-81.53,9.35-151.55,2.47-50.51-3.21-84.01-6.82-99.49-1.03-4.41-4.91-7.51-9.45-7.53l-50.48-.26c-2.42,1.67-7.27,9.36-9.5,43.6-1.45,22.4-1.56,52.8-.33,90.37,2.1,64.06,7.47,127.53,7.52,128.16.14,1.65-1.08,3.1-2.73,3.24-.09,0-.17.01-.26.01Z" fill="#2b2b2b"/></svg>