<?xml version="1.0" encoding="UTF-8"?><svg id="_レイヤー_34" xmlns="http://www.w3.org/2000/svg" width="1000" height="1000" viewBox="0 0 1000 1000"><path d="M496.9,977.04c-25.52,0-50.72-8.14-70.96-22.93-49.25-35.99-77.49-93.12-77.49-156.72V175.39c0-67.97,11.21-100.24,42.83-123.3l3.11-2.27c50.45-36.79,120.02-35.67,169.19,2.72,14.99,11.71,24.42,24.86,30.57,42.64,6.46,18.65,9.46,43.61,9.46,78.55v486.74c0,27.77-12.33,54.17-33.82,72.43l-5.07,4.31c-19.33,16.42-44.12,25.45-69.79,25.45s-51.47-9.4-70.98-26.47c-14.49-12.68-24.67-29.18-29.51-47.23v108.44c0,48.76,21.37,92.35,58.63,119.58,24.25,17.72,57.69,18.89,83.21,2.93.79-.49,1.6-1,2.4-1.53,15.68-10.18,66.86-49.01,66.86-120.98v-505.95c0-12.68,10.32-23,23-23s23,10.32,23,23v505.95c0,34.43-9.02,66.87-26.82,96.42-15.26,25.33-36.36,47.17-61.01,63.16l-.12.08c-.97.62-1.95,1.24-2.91,1.85-19,11.87-41.05,18.15-63.79,18.15ZM477.19,28.96c-27.85,0-55.72,8.54-79.26,25.7l-3.11,2.27c-29.8,21.74-40.37,52.74-40.37,118.46v622c0,61.67,27.35,117.03,75.03,151.88,19.22,14.04,43.16,21.77,67.42,21.77,21.61,0,42.57-5.96,60.61-17.23.94-.59,1.9-1.2,2.86-1.82l.1-.07c23.88-15.49,44.32-36.66,59.12-61.21,17.23-28.6,25.96-60,25.96-93.32v-505.95c0-9.37-7.63-17-17-17s-17,7.63-17,17v505.95c0,74.99-53.27,115.41-69.6,126.02-.84.54-1.67,1.07-2.48,1.58-27.58,17.25-63.72,15.98-89.93-3.17-38.82-28.37-61.09-73.72-61.09-124.42V175.39c0-66.45,11.44-80.07,26.4-90.98l3.11-2.27c36.09-26.32,85.85-25.53,121.01,1.93,13.49,10.52,24.65,24.53,24.65,89.66v486.74c0,16.01-7.19,31.3-19.72,41.95l-5.07,4.3c-25.4,21.58-63.46,21.31-88.52-.63-12.11-10.59-19.06-25.68-19.06-41.38v-380.44c0-9.37-7.63-17-17-17s-17,7.63-17,17v380.44c0,25.5,11.18,49.9,30.67,66.96,18.41,16.11,42.21,24.99,67.02,24.99s47.66-8.53,65.91-24.03l5.07-4.31c20.15-17.12,31.7-41.85,31.7-67.85V173.73c0-34.25-2.9-58.59-9.14-76.59-5.75-16.63-14.57-28.93-28.59-39.88-24.13-18.84-53.41-28.3-82.71-28.3ZM414.25,261.27c12.68,0,23,10.32,23,23v380.44c0,13.97,6.2,27.41,17.01,36.86,22.84,20,57.53,20.25,80.68.57l5.07-4.3c11.18-9.51,17.6-23.13,17.6-37.37V173.73c0-62.43-10.12-75.4-22.35-84.93-33.05-25.81-79.84-26.56-113.78-1.81l-3.11,2.27c-13.56,9.89-23.94,22.52-23.94,86.14v97.19c4.01-6.76,11.38-11.31,19.8-11.31Z" fill="#2b2b2b"/></svg>