<?xml version="1.0" encoding="UTF-8"?><svg id="_レイヤー_9のコピー" xmlns="http://www.w3.org/2000/svg" width="1000" height="600" viewBox="0 0 1000 600"><path d="M526.43,515.9h-26.3c-.97,0-1.75-.78-1.75-1.75s.78-1.75,1.75-1.75h26.03c80.59-25.41,162.14-17.99,162.96-17.91l240.35,15.39-59.21-373.06c-1.64-.41-3.26-1.18-4.83-2.3-2.14-1.52-4.18-3.7-6.06-6.46-2.07-3.03-3.29-5.82-3.51-6.35-.38-.89.04-1.92.93-2.29.89-.38,1.92.04,2.29.93.2.47,1.3,2.98,3.18,5.75,1.65,2.42,3.4,4.3,5.2,5.58,1.52,1.08,3.05,1.73,4.57,1.93.77.1,1.38.7,1.5,1.46l59.75,376.43c.08.53-.08,1.06-.43,1.45-.36.39-.88.6-1.41.57l-242.59-15.53c-.86-.08-81.91-7.44-161.88,17.84-.17.05-.35.08-.53.08Z" fill="#2b2b2b"/><path d="M503.72,509.33c-.52,0-1.03-.23-1.37-.66-.6-.76-.48-1.86.28-2.46.45-.36,11.21-8.8,36.41-17.47,23.12-7.95,63.33-17.55,123.6-18.17,77.14-.77,228.17,22.66,248.89,25.94l-55.79-375.21c-.14-.84.34-1.69,1.17-1.96.92-.31,1.9.17,2.21,1.09.03.1.07.22.08.33l56.15,377.6c.08.55-.1,1.11-.5,1.5-.4.39-.96.57-1.51.48-1.68-.27-168.44-27.16-250.65-26.27-114.1,1.17-157.44,34.53-157.87,34.87-.32.26-.71.38-1.09.38Z" fill="#2b2b2b"/><path d="M950.66,527.31h-449.61c-1.66,0-3-1.34-3-3s1.34-3,3-3h446.06l-66.5-391.94h-17.19c-1.66,0-3-1.34-3-3s1.34-3,3-3h19.72c1.46,0,2.71,1.06,2.96,2.5l67.52,397.94c.15.87-.1,1.76-.67,2.44s-1.41,1.06-2.29,1.06Z" fill="#2b2b2b"/><path d="M499.86,515.9h-26.29c-.18,0-.36-.03-.53-.08-79.97-25.28-161.02-17.92-161.83-17.85l-242.64,15.53c-.53.04-1.05-.17-1.41-.57s-.52-.93-.43-1.45l59.75-376.43c.12-.76.73-1.36,1.5-1.46,1.51-.2,3.04-.85,4.55-1.92,1.64-1.17,3.25-2.85,4.79-4.99,2.31-3.21,3.6-6.33,3.61-6.36.37-.89,1.39-1.33,2.28-.96.89.36,1.32,1.38.96,2.28-.06.14-1.45,3.52-4.01,7.08-1.75,2.45-3.64,4.4-5.6,5.8-1.57,1.11-3.18,1.87-4.81,2.28l-59.21,373.06,240.41-15.39c.76-.07,82.32-7.49,162.9,17.92h26c.97,0,1.76.78,1.76,1.75s-.77,1.75-1.74,1.75Z" fill="#2b2b2b"/><path d="M496.27,509.33c-.38,0-.77-.12-1.09-.38h0c-.42-.34-43.77-33.7-157.86-34.87-82.21-.88-248.99,26-250.66,26.27-.55.08-1.11-.09-1.51-.48-.4-.39-.58-.95-.5-1.5l56.17-377.63c.14-.96,1.03-1.61,1.99-1.47.96.14,1.62,1.03,1.47,1.99l-55.82,375.27c20.37-3.22,166.76-25.96,244.98-25.96,1.33,0,2.63,0,3.92.02,60.26.62,100.47,10.22,123.59,18.17,25.2,8.66,35.96,17.11,36.41,17.47.76.6.88,1.7.28,2.46-.35.43-.85.66-1.37.66Z" fill="#2b2b2b"/><path d="M501.05,527.31H49.34c-.88,0-1.72-.39-2.29-1.06s-.81-1.57-.67-2.44L113.89,125.87c.25-1.44,1.5-2.5,2.96-2.5h19.72c1.66,0,3,1.34,3,3s-1.34,3-3,3h-17.19l-66.49,391.94h448.16c1.66,0,3,1.34,3,3s-1.34,3-3,3Z" fill="#2b2b2b"/><path d="M499.84,513.81h0c-.97,0-1.75-.79-1.75-1.75l.7-403.21c0-.97.79-1.75,1.75-1.75h0c.97,0,1.75.79,1.75,1.75l-.7,403.21c0,.97-.79,1.75-1.75,1.75Z" fill="#2b2b2b"/><path d="M144.43,122.19c-1.26,0-2.43-.79-2.85-2.05-.52-1.57.33-3.27,1.9-3.79.4-.13,41.05-13.49,164.1-37.15,50.47-9.7,97.93-8.63,141.07,3.2,33.23,9.11,52.15,21.75,54.46,23.35.32.21.47.33.47.33,1.27,1.04,1.49,2.94.46,4.22-1.01,1.26-2.82,1.51-4.11.55-.04-.03-.16-.1-.2-.13-1.96-1.37-20.14-13.61-52.68-22.53-42.25-11.58-88.79-12.62-138.35-3.09-122.67,23.59-162.95,36.82-163.34,36.95-.32.11-.63.16-.95.16Z" fill="#2b2b2b"/><path d="M855.55,122.19c-.3,0-.61-.05-.92-.15-.39-.13-40.55-12.86-162.29-35.52-114.64-21.32-181.95,19.5-189.25,24.23-.52.33-.79.52-.82.54-1.35.95-3.22.63-4.17-.72s-.64-3.22.71-4.18c0,0,.35-.25,1.04-.69,7.49-4.85,76.66-46.83,193.59-25.08,122.25,22.75,162.64,35.58,163.03,35.7,1.58.51,2.44,2.2,1.93,3.78-.41,1.27-1.59,2.08-2.86,2.08Z" fill="#2b2b2b"/><path d="M485.3,515.11c-.52,0-1.04-.23-1.38-.68-42.81-55.33-401.68-8.77-405.3-8.3-.54.07-1.09-.12-1.48-.51-.38-.39-.56-.94-.48-1.48l55.17-371.26c.14-.96,1.03-1.62,1.99-1.47.96.14,1.62,1.03,1.47,1.99l-54.83,368.97c14.75-1.88,98.04-12.15,184.83-16.53,128.33-6.47,202.81,2.42,221.4,26.45.59.76.45,1.86-.31,2.46-.32.25-.7.37-1.07.37Z" fill="#2b2b2b"/><path d="M516.67,512.92c-.57,0-1.13-.28-1.46-.79-.53-.81-.31-1.89.5-2.42,35.63-23.45,115.14-31.32,236.3-23.39,81.4,5.33,155.14,16.39,169.16,18.56l-58.18-369.28c-.15-.96.5-1.85,1.46-2,.95-.15,1.85.5,2,1.46l58.55,371.65c.09.55-.1,1.12-.49,1.51-.4.4-.96.58-1.51.49-.8-.13-81.35-13.02-171.23-18.9-118.68-7.76-199.64.13-234.12,22.82-.3.2-.63.29-.96.29Z" fill="#2b2b2b"/><path d="M863.82,302.29c-.09,0-.18,0-.26-.02l-122.54-18.67c-56.08-9.08-112.5-7.05-167.72,6.03l-40.69,9.63c-.52.12-1.07,0-1.49-.33-.42-.33-.66-.84-.66-1.37V125.47c0-.82.56-1.52,1.36-1.71l41.7-9.61c51.68-9.45,107.35-8.14,165.55,3.87l103.01,21.27c.73.15,1.28.74,1.38,1.47l22.11,159.53c.08.55-.11,1.1-.5,1.49-.33.33-.77.5-1.23.5ZM672.14,274.53c23.13,0,46.31,1.87,69.42,5.61l120.21,18.31-21.62-155.98-101.8-21.02c-57.75-11.92-112.97-13.22-164.13-3.87l-40.26,9.28v168.48l38.54-9.12c32.9-7.79,66.23-11.69,99.65-11.69Z" fill="#2b2b2b"/><path d="M456.61,157.1c-.21,0-.43-.04-.63-.12-55.65-21.68-141.58-6.04-142.45-5.88-.95.17-1.86-.45-2.04-1.4s.45-1.86,1.4-2.04c.87-.16,87.79-15.97,144.36,6.06.9.35,1.35,1.37,1,2.27-.27.69-.93,1.12-1.63,1.12Z" fill="#2b2b2b"/><path d="M455.4,188.17c-.21,0-.43-.04-.63-.12-55.66-21.68-141.59-6.04-142.46-5.88-.95.17-1.86-.45-2.04-1.4-.18-.95.45-1.86,1.4-2.04.87-.16,87.79-15.98,144.37,6.06.9.35,1.35,1.37,1,2.27-.27.69-.93,1.12-1.63,1.12Z" fill="#2b2b2b"/><path d="M456.59,220.44c-.21,0-.43-.04-.63-.12-55.65-21.68-141.58-6.05-142.44-5.89-.95.17-1.86-.45-2.04-1.4s.45-1.86,1.4-2.04c.87-.16,87.78-15.97,144.35,6.07.9.35,1.35,1.37,1,2.27-.27.69-.93,1.12-1.63,1.12Z" fill="#2b2b2b"/><path d="M427.3,306.8s-.06,0-.08,0l-98.76-4.68c-.96-.05-1.71-.87-1.67-1.83.05-.96.85-1.7,1.83-1.67l98.76,4.68c.96.05,1.71.87,1.67,1.83-.04.94-.82,1.67-1.75,1.67Z" fill="#2b2b2b"/><path d="M475.9,346.66s-.07,0-.1,0l-173.14-9.77c-.96-.05-1.7-.88-1.65-1.85.05-.97.88-1.71,1.85-1.65l173.14,9.77c.96.05,1.7.88,1.65,1.85-.05.93-.82,1.65-1.75,1.65Z" fill="#2b2b2b"/><path d="M470.85,380.97s-.07,0-.11,0l-177.85-10.63c-.96-.06-1.7-.89-1.64-1.85.06-.96.87-1.7,1.85-1.64l177.85,10.63c.96.06,1.7.89,1.64,1.85-.06.93-.83,1.65-1.75,1.65Z" fill="#2b2b2b"/><path d="M465.9,414.69s-.07,0-.1,0l-181.59-10.1c-.96-.05-1.7-.88-1.65-1.84.05-.96.89-1.69,1.84-1.65l181.59,10.1c.96.05,1.7.88,1.65,1.84-.05.93-.82,1.65-1.75,1.65Z" fill="#2b2b2b"/><path d="M866.66,339.6c-.21,0-.43-.04-.64-.12-96.96-38.19-261.81-27.57-326.85-10.89-.94.24-1.89-.33-2.13-1.26-.24-.94.32-1.89,1.26-2.13,26.67-6.84,81.74-14.94,149.17-15.26,50.97-.25,123.57,4.12,179.84,26.28.9.35,1.34,1.37.99,2.27-.27.69-.93,1.11-1.63,1.11Z" fill="#2b2b2b"/><path d="M868.86,374.82c-.21,0-.43-.04-.64-.12-96.95-38.19-261.8-27.57-326.84-10.89-.94.24-1.89-.33-2.13-1.26-.24-.94.32-1.89,1.26-2.13,26.67-6.84,81.74-14.94,149.17-15.26,50.97-.21,123.56,4.12,179.83,26.28.9.35,1.34,1.37.99,2.27-.27.69-.93,1.11-1.63,1.11Z" fill="#2b2b2b"/><path d="M868.86,410.04c-.21,0-.43-.04-.64-.12-96.95-38.19-261.8-27.57-326.84-10.89-.94.24-1.89-.33-2.13-1.26-.24-.94.32-1.89,1.26-2.13,26.67-6.84,81.74-14.94,149.17-15.26,50.98-.26,123.56,4.12,179.83,26.28.9.35,1.34,1.37.99,2.27-.27.69-.93,1.11-1.63,1.11Z" fill="#2b2b2b"/><path d="M874.24,445.26c-.21,0-.43-.04-.64-.12-96.95-38.18-261.8-27.57-326.85-10.89-.94.24-1.89-.33-2.13-1.26-.24-.94.32-1.89,1.26-2.13,26.68-6.84,81.75-14.94,149.17-15.26,51.03-.25,123.57,4.12,179.83,26.28.9.35,1.34,1.37.99,2.27-.27.69-.93,1.11-1.63,1.11Z" fill="#2b2b2b"/><path d="M193.06,292.16c-12.19,0-25.14-3.62-25.14-10.32s12.95-10.31,25.14-10.31c2.2,0,4.35.11,6.41.32.12,0,.23.02.35.03l-.41,3.48-.23-.02c-1.96-.21-4.02-.31-6.12-.31-13.21,0-21.64,4.03-21.64,6.81s8.43,6.82,21.64,6.82c.67,0,1.35-.01,2.01-.03,4.42-.14,8.58-.75,12.04-1.76,5.25-1.52,7.59-3.62,7.59-5.03,0-1.24-1.66-2.7-4.45-3.9l1.39-3.21c5.42,2.35,6.55,5.17,6.55,7.12,0,3.52-3.59,6.5-10.11,8.39-3.73,1.09-8.2,1.75-12.91,1.9-.7.02-1.41.03-2.12.03Z" fill="#2b2b2b"/><path d="M193.46,457.31c-23.62,0-45.43-10.13-56.58-20.18-5.3-4.78-7.17-12.2-4.76-18.92l33.61-93.79c.54-1.52.82-3.11.82-4.73l1.37-37.91,3.5.13-1.37,37.85c0,1.96-.34,3.95-1.02,5.84l-33.61,93.79c-1.93,5.38-.44,11.32,3.8,15.14,10.65,9.6,31.55,19.28,54.24,19.28s43.15-9.66,53.55-19.24c4.17-3.85,5.61-9.79,3.65-15.12l-35.93-98.08c-.71-1.96-1.07-3.98-1.07-6.02l1.03-33.56,3.5.11-1.03,33.51c0,1.58.29,3.2.86,4.77l35.93,98.07c2.44,6.67.65,14.08-4.57,18.9-10.1,9.3-30.81,20.16-55.93,20.16Z" fill="#2b2b2b"/><path d="M188.19,349.12c-.62,0-1.25-.08-1.87-.24-1.96-.5-3.61-1.73-4.65-3.46s-1.33-3.77-.84-5.73l44.85-177.26c.85-3.37,3.88-5.72,7.35-5.72.62,0,1.23.08,1.85.23,1.97.5,3.62,1.73,4.65,3.47,1.04,1.74,1.33,3.78.84,5.74l-44.85,177.25c-.5,1.96-1.73,3.61-3.47,4.65-1.19.71-2.52,1.07-3.87,1.07ZM233.03,160.21c-1.87,0-3.49,1.27-3.95,3.08l-32.26,127.52h0s-12.59,49.74-12.59,49.74c-.27,1.05-.11,2.14.45,3.08.56.94,1.45,1.6,2.5,1.87,1.06.27,2.15.11,3.09-.45.94-.56,1.6-1.45,1.87-2.5l44.85-177.25c.55-2.18-.77-4.4-2.95-4.95-.34-.08-.67-.13-1-.13ZM195.12,290.38h0,0Z" fill="#2b2b2b"/><path d="M190.87,375.72c-22.86,0-37.19-11.48-37.4-11.66-.75-.61-.85-1.72-.24-2.46.61-.75,1.72-.85,2.46-.24.11.09,7.61,6.13,20.2,9.18,11.62,2.81,30.11,3.58,52.23-8.76.84-.47,1.91-.17,2.38.68.47.84.17,1.91-.68,2.38-14.59,8.14-27.79,10.88-38.96,10.88Z" fill="#2b2b2b"/><path d="M615.58,264.65c-7.23,0-12.29-2.67-15.46-8.13-3.26-5.62-3.97-13.7-4.23-20.1l-4.76-100.6c-.04-.91.61-1.69,1.51-1.82l36.04-4.91c.49-.07.98.08,1.36.39.38.32.61.77.63,1.26l3.09,67.46h0l1.61,35.15c.39,9.69-.4,16.19-2.55,21.07-2.85,6.46-8.23,9.89-16,10.2-.42.02-.83.02-1.24.02ZM594.7,137.26l4.68,99.01c.24,6.01.89,13.54,3.76,18.5,2.67,4.61,6.97,6.63,13.53,6.37,6.49-.26,10.6-2.84,12.93-8.12,1.93-4.37,2.62-10.38,2.26-19.5l-4.61-100.69-32.56,4.44Z" fill="#2b2b2b"/><path d="M775.71,272.19c-.12,0-.23,0-.35,0-7.77-.08-13.25-3.35-16.29-9.72-2.29-4.81-3.27-11.28-3.17-20.97l1.67-102.72c0-.52.24-1,.64-1.33.4-.33.92-.46,1.43-.36l36.17,6.84c.84.16,1.44.9,1.42,1.75l-1.79,97.71c-.07,6.4-.55,14.49-3.64,20.2-3.13,5.78-8.39,8.59-16.1,8.59ZM761.04,140.92l-1.55,95.14h0s-.09,5.49-.09,5.49c-.09,9.12.78,15.11,2.83,19.42,2.48,5.2,6.67,7.66,13.16,7.73.11,0,.21,0,.32,0,6.39,0,10.53-2.15,13.02-6.76,2.72-5.04,3.15-12.58,3.22-18.59l.14-7.51,1.62-88.73-32.68-6.18ZM757.74,236.03h0,0Z" fill="#2b2b2b"/><path d="M699.21,262.63c-17.08,0-19.59-13.84-19.75-28.81l-1.75-100.7c0-.49.19-.96.54-1.29s.82-.52,1.31-.48l36.17,2.12c.91.05,1.63.8,1.65,1.72l.34,20.09h0s1.29,76.66,1.29,76.66c.15,15.09-2.05,30.53-19.47,30.7-.11,0-.22,0-.33,0ZM681.24,134.95l1.72,98.82c.16,15.77,2.98,25.51,16.54,25.36,13.5-.13,16.17-10.95,16.01-27.15l-1.6-95.11-32.67-1.92Z" fill="#2b2b2b"/><path d="M612.4,203.8c-8.58,0-15.61-1.58-16.88-1.89-.06-.01-.2-.05-.26-.07-.91-.32-1.39-1.32-1.06-2.23.31-.88,1.27-1.36,2.15-1.09,2.54.6,21.1,4.65,34.82-1.81.88-.41,1.92-.04,2.33.84.41.88.04,1.92-.84,2.33-6.43,3.02-13.78,3.92-20.25,3.92Z" fill="#2b2b2b"/><path d="M698.8,161.43c-10.65,0-18.94-5.15-19.44-5.47-.82-.52-1.06-1.6-.54-2.42.52-.81,1.6-1.06,2.41-.54h0c.17.1,16.67,10.3,32,.84.82-.51,1.9-.25,2.41.57.51.82.25,1.9-.57,2.41-5.57,3.44-11.19,4.61-16.28,4.61Z" fill="#2b2b2b"/><path d="M779,245.08c-12.98,0-21.95-7.62-22.07-7.72-.73-.63-.81-1.74-.17-2.47.63-.73,1.74-.81,2.47-.17.62.53,15.04,12.69,33.7,3.5.86-.43,1.92-.07,2.34.8.43.87.07,1.92-.8,2.34-5.53,2.72-10.77,3.72-15.47,3.72Z" fill="#2b2b2b"/><path d="M596.15,197.26c-.61,0-1.2-.32-1.52-.89-.48-.84-.18-1.91.66-2.38.68-.39,16.99-9.45,35.51-1.59.89.38,1.3,1.41.93,2.29-.38.89-1.41,1.3-2.29.93-16.88-7.17-32.26,1.33-32.41,1.41-.27.15-.57.23-.86.23Z" fill="#2b2b2b"/><path d="M715.25,152.55c-.27,0-.55-.06-.81-.2-18.61-9.8-33.18-1.42-33.79-1.06-.09.05-.18.1-.27.13-.84.35-1.82,0-2.23-.84-.43-.86-.08-1.92.78-2.35.02,0,.03-.02.05-.03,1.61-.91,17.42-9.32,37.09,1.04.86.45,1.18,1.51.73,2.36-.31.59-.92.93-1.55.93Z" fill="#2b2b2b"/><path d="M792.63,237.59c-.29,0-.59-.07-.87-.23-14.59-8.38-31.6-4.01-33.49-3.48l-.26.07c-.94.24-1.89-.33-2.13-1.26-.24-.94.32-1.89,1.26-2.13l.21-.06c2.02-.56,20.33-5.26,36.15,3.82.84.48,1.13,1.55.65,2.39-.32.56-.91.88-1.52.88Z" fill="#2b2b2b"/></svg>