<?xml version="1.0" encoding="UTF-8"?><svg id="_レイヤー_7" xmlns="http://www.w3.org/2000/svg" width="1000" height="1000" viewBox="0 0 1000 1000"><path d="M791.67,183.43H216.29c-4.57,0-8.5-3.57-9.77-8.87-.54-2.26-.54-4.64,0-6.9l21.08-81.94c1.15-4.84,4.89-7.88,9.76-7.88h521.72c4.53,0,8.52,3.64,9.77,8.89l32.5,80.71c.06.16.11.32.15.48.46,2.08.46,4.28,0,6.35-1.18,5.4-5.22,9.17-9.83,9.17ZM237.36,83.83c-2.12,0-3.4,1.09-3.93,3.32l-21.08,81.94c-.31,1.3-.31,2.72.01,4.07.6,2.51,2.22,4.27,3.93,4.27h575.38c1.77,0,3.4-1.83,3.97-4.45,0,0,0,0,0,0,.25-1.16.27-2.38.05-3.56l-32.49-80.68c-.06-.16-.11-.31-.15-.48-.56-2.57-2.23-4.43-3.97-4.43H237.36Z" fill="#2b2b2b"/><path d="M789.77,209.33h-.04l-123.39-.5-346.79-1.41-101.35-.41c-6.48-.03-11.76-6.51-11.76-14.45v-20.21c0-1.66,1.34-3,3-3s3,1.34,3,3v20.21c0,4.57,2.65,8.44,5.78,8.45l571.53,2.32h.02c1.44,0,2.55-.8,3.23-1.48,1.61-1.6,2.57-4.21,2.57-6.97v-22.33c0-1.66,1.34-3,3-3s3,1.34,3,3v22.33c0,4.39-1.58,8.48-4.34,11.22-2.09,2.08-4.74,3.23-7.46,3.23Z" fill="#2b2b2b"/><path d="M233.58,921.34c-12.48,0-21.88-4.38-27.16-7.65-3.14-1.95-4.83-5.46-4.3-8.94l4.92-32.78c.58-3.85,3.73-6.88,7.82-7.55,2.01-.32,4.06-.06,5.93.78,10.38,4.63,20.18,3.99,26.57,2.63.7-.15,1.43-.22,2.16-.22,2.87,0,5.6,1.18,7.5,3.24,1.72,1.87,2.55,4.25,2.34,6.7l-2.85,33.54c-.3,3.66-2.9,6.73-6.6,7.81-5.88,1.74-11.35,2.44-16.33,2.44ZM216.52,870.28c-.23,0-.46.02-.69.06-1.26.21-2.63,1.07-2.85,2.53l-4.92,32.78c-.17,1.13.41,2.26,1.53,2.95,6.52,4.04,20.22,10,38.62,4.55,1.32-.39,2.23-1.39,2.32-2.56l2.85-33.54c.08-.97-.38-1.7-.78-2.14-.95-1.03-2.58-1.51-4-1.2-7.26,1.53-18.4,2.26-30.25-3.02-.59-.26-1.21-.39-1.83-.39Z" fill="#2b2b2b"/><path d="M747.84,922.19c-8.5,0-15.36-2.09-19.74-3.91-3.4-1.41-5.63-4.61-5.66-8.14l-.33-33.15c-.03-3.48,2.01-6.62,5.32-8.21,2.22-1.07,4.77-1.3,7.18-.66,10.97,2.92,20.55.74,26.66-1.6,1.2-.46,2.46-.7,3.75-.7,5.04,0,9.28,3.69,9.63,8.39l2.5,33.56c.27,3.65-1.8,7.09-5.28,8.76-8.8,4.22-16.98,5.66-24.03,5.66ZM731.92,873.77c-.65,0-1.3.14-1.89.43-1.21.58-1.92,1.6-1.91,2.74l.33,33.15c0,1.15.76,2.16,1.96,2.66,7.09,2.96,21.57,6.68,38.88-1.61,1.23-.59,1.97-1.73,1.88-2.9l-2.5-33.56c-.13-1.78-1.96-2.84-3.65-2.84-.54,0-1.08.1-1.59.3-6.94,2.66-17.83,5.13-30.35,1.8-.38-.1-.77-.15-1.16-.15Z" fill="#2b2b2b"/><path d="M252.34,873.56c-.1,0-.19,0-.29-.01-1.65-.16-2.86-1.62-2.7-3.27l23.9-249.3,32.56-339.55c.04-.54,1.23-14.54,7.77-28.75,8.88-19.32,23.35-29.53,41.83-29.53h277.84c.62.01,14.02.33,27.56,8.62,12.51,7.66,27.42,23.78,27.42,57.12,0,6.73.51,19.29,1.52,37.33,4.29,76.86,16.92,241.89,26.77,366.8,1.13,14.44,2.24,28.43,3.3,41.78l.4,5.04c1.43,17.99,2.77,34.77,3.98,49.89.74,9.23,1.43,17.85,2.07,25.75l.16,2c2.6,32.22,4.21,51.95,4.21,51.95.13,1.65-1.09,3.1-2.75,3.23-1.66.13-3.1-1.1-3.23-2.75,0,0-1.61-19.73-4.21-51.95l-.16-2c-.64-7.9-1.33-16.52-2.07-25.75-1.21-15.12-2.55-31.9-3.98-49.89l-.4-5.04c-1.06-13.35-2.17-27.34-3.3-41.79-9.85-124.94-22.48-290.02-26.77-366.94-1.02-18.15-1.53-30.83-1.53-37.67,0-58.05-47.04-59.7-49.04-59.74h-277.78c-16.15,0-28.37,8.71-36.32,25.9-6.13,13.26-7.29,26.78-7.3,26.91l-56.46,588.89c-.15,1.55-1.46,2.71-2.98,2.71Z" fill="#2b2b2b"/><path d="M214.99,868.68c-.1,0-.2,0-.3-.02-1.65-.16-2.85-1.63-2.69-3.28l12.38-124.34,4.64-46.69,38.67-388.45,4.06-40.82c.03-.5,1.07-14.39,7.28-29.21,8.4-20.04,22.27-31.94,40.11-34.42,1.63-.23,3.16.92,3.38,2.56s-.92,3.16-2.56,3.38c-38.01,5.27-42.2,57.66-42.24,58.19l-4.07,40.9-38.67,388.45-4.64,46.69-12.38,124.34c-.15,1.55-1.46,2.7-2.98,2.7Z" fill="#2b2b2b"/><path d="M766.48,870.07c-1.53,0-2.84-1.17-2.98-2.72l-55.33-600.07c-.04-.59-4.22-52.98-42.24-58.24-1.64-.23-2.79-1.74-2.56-3.38.23-1.64,1.75-2.79,3.38-2.56,17.84,2.47,31.71,14.37,40.11,34.41,6.21,14.81,7.24,28.71,7.28,29.29l55.33,600c.15,1.65-1.06,3.11-2.71,3.26-.09,0-.19.01-.28.01Z" fill="#2b2b2b"/><path d="M715.69,314.91c-.14,0-.28,0-.42,0-1.66-.02-2.99-1.37-2.97-3.03.02-1.65,1.36-2.97,3-2.97h.03c4.95.07,10.59-.88,10.65-.89.05,0,.1-.02.15-.02,1.23-.15,30.19-4.03,30.19-39.04v-62.14c0-1.66,1.34-3,3-3s3,1.34,3,3v62.14c0,39.29-33.17,44.67-35.39,44.98-.54.09-6.02.97-11.23.97Z" fill="#2b2b2b"/><path d="M684.53,314.65h-.03c-9.46-.08-20.37-.18-32.4-.3-48.07-.47-112.69-1.19-175.18-1.88-85.22-.95-165.71-1.84-170.55-1.71h-.21c-1.66,0-3-1.34-3-3s1.34-3,3-3h.13c4.88-.12,81.72.72,170.7,1.71,62.49.69,127.11,1.41,175.17,1.88,12.02.12,22.93.22,32.39.3,1.66.01,2.99,1.37,2.97,3.03-.01,1.65-1.35,2.97-3,2.97Z" fill="#2b2b2b"/><path d="M270.42,309.17c-3.28,0-6.43-.26-9.37-.79-25.93-4.67-26.63-28.38-26.64-28.61v-74.14c0-1.66,1.34-3,3-3s3,1.34,3,3v74.09c.02.71.7,18.97,21.69,22.76,2.59.46,5.39.69,8.32.69,1.66,0,3,1.34,3,3s-1.34,3-3,3Z" fill="#2b2b2b"/><path d="M707.15,744.06c-7.7,0-13.84-1.69-17.36-2.95-3.47-1.25-5.85-4.33-6.06-7.84l-1.97-33.1c-.24-3.91,2.23-7.54,6.15-9.03,1.89-.72,3.93-.87,5.91-.44,6.25,1.33,12.62,1.22,18.91-.33.27-.08.55-.12.84-.12,1.66,0,3,1.34,3,3,0,1.34-.88,2.48-2.09,2.86-.07.02-.14.04-.21.06-7.22,1.79-14.52,1.92-21.71.39-1.07-.23-1.96-.03-2.51.18-1.11.42-2.38,1.48-2.29,3.06l1.97,33.11c.07,1.13.87,2.11,2.1,2.56,4.39,1.58,13.41,3.9,24.43,1.7,1.63-.33,3.21.73,3.53,2.35.32,1.62-.73,3.21-2.36,3.53-3.64.73-7.09,1.02-10.27,1.02Z" fill="#2b2b2b"/><path d="M688.11,694.4c-1.52,0-2.83-1.16-2.98-2.7,0,0-1.79-18.04-4.57-46.39l-.57-5.9c-.55-5.61-1.13-11.58-1.75-17.84-9.11-93.12-25.01-256.96-29.12-308.04-.13-1.65,1.1-3.1,2.75-3.23,1.66-.14,3.1,1.1,3.23,2.75,4.1,51.04,20,214.84,29.11,307.94.62,6.27,1.2,12.23,1.75,17.85l.57,5.89c2.78,28.35,4.57,46.38,4.57,46.38.16,1.65-1.04,3.12-2.69,3.28-.1,0-.2.01-.3.01Z" fill="#2b2b2b"/><path d="M686.18,329.41c-1.51,0-2.8-1.13-2.98-2.67l-1.66-14.76c-.18-1.65,1-3.13,2.65-3.32,1.64-.18,3.13,1,3.32,2.65l1.66,14.76c.18,1.65-1,3.13-2.65,3.32-.11.01-.23.02-.34.02Z" fill="#2b2b2b"/><path d="M224.64,744.07c-.12,0-.23,0-.35-.02-1.02-.12-2.18-.24-3.4-.38-7.54-.82-13.52-1.53-16.2-2.44-3.96-1.36-6.52-4.58-6.53-8.2,0-.16.01-.32.04-.48l5.25-33.3c.15-4.65,4.62-8.84,9.92-9.23,1.56-.13,3.11.09,4.6.66,2.23.85,7.95.84,10.69.83,1.61,0,2.29,0,2.8.08,1.64.26,2.75,1.8,2.49,3.43-.26,1.64-1.81,2.75-3.43,2.49-.15-.01-1.05,0-1.85,0-4.83.01-9.82-.08-12.84-1.22-.64-.25-1.32-.34-1.99-.28-2.45.18-4.39,2.06-4.39,3.5,0,.16-.01.32-.04.48l-5.23,33.21c.11.96,1.05,1.88,2.47,2.37,2.26.77,9.87,1.6,14.91,2.15,1.24.14,2.4.26,3.43.38,1.65.19,2.83,1.68,2.64,3.32-.18,1.53-1.47,2.66-2.98,2.66Z" fill="#2b2b2b"/><path d="M213.5,694.96c-.12,0-.25,0-.37-.02-1.64-.2-2.81-1.7-2.61-3.35l47.86-385.4c.2-1.64,1.7-2.82,3.35-2.61,1.64.2,2.81,1.7,2.61,3.35l-47.86,385.4c-.19,1.52-1.48,2.63-2.97,2.63Z" fill="#2b2b2b"/><path d="M719.86,793.07h-459.78c-1.66,0-3-1.34-3-3s1.34-3,3-3h459.78c1.66,0,3,1.34,3,3s-1.34,3-3,3Z" fill="#2b2b2b"/><path d="M721.65,820.85h-464.26c-1.66,0-3-1.34-3-3s1.34-3,3-3h464.26c1.66,0,3,1.34,3,3s-1.34,3-3,3Z" fill="#2b2b2b"/><path d="M681.92,624.27h-405.55c-1.66,0-3-1.34-3-3s1.34-3,3-3h405.55c1.66,0,3,1.34,3,3s-1.34,3-3,3Z" fill="#2b2b2b"/><path d="M681.92,648.17h-406.75c-1.66,0-3-1.34-3-3s1.34-3,3-3h406.75c1.66,0,3,1.34,3,3s-1.34,3-3,3Z" fill="#2b2b2b"/></svg>