<?xml version="1.0" encoding="UTF-8"?><svg id="_レイヤー_13" xmlns="http://www.w3.org/2000/svg" width="800" height="1000" viewBox="0 0 800 1000"><path d="M222.14,441.64c-6.67,0-11.71-2.89-11.71-6.73s5.03-6.73,11.71-6.73,11.71,2.89,11.71,6.73-5.03,6.73-11.71,6.73ZM222.14,431.68c-4.93,0-8.21,1.94-8.21,3.23s3.27,3.23,8.21,3.23,8.21-1.94,8.21-3.23-3.27-3.23-8.21-3.23Z" fill="#2b2b2b"/><path d="M517.31,447.21c-6.67,0-11.71-2.89-11.71-6.73s5.03-6.73,11.71-6.73,11.71,2.89,11.71,6.73-5.03,6.73-11.71,6.73ZM517.31,437.25c-4.93,0-8.21,1.94-8.21,3.23s3.27,3.23,8.21,3.23,8.21-1.94,8.21-3.23-3.27-3.23-8.21-3.23Z" fill="#2b2b2b"/><path d="M204.21,541.02c-6.67,0-11.71-2.89-11.71-6.73s5.03-6.73,11.71-6.73,11.71,2.89,11.71,6.73-5.03,6.73-11.71,6.73ZM204.21,531.06c-4.93,0-8.21,1.94-8.21,3.23s3.27,3.23,8.21,3.23,8.21-1.94,8.21-3.23-3.27-3.23-8.21-3.23Z" fill="#2b2b2b"/><path d="M519.7,541.22c-6.67,0-11.71-2.89-11.71-6.73s5.03-6.73,11.71-6.73,11.71,2.89,11.71,6.73-5.03,6.73-11.71,6.73ZM519.7,531.26c-4.93,0-8.21,1.94-8.21,3.23s3.27,3.23,8.21,3.23,8.21-1.94,8.21-3.23-3.27-3.23-8.21-3.23Z" fill="#2b2b2b"/><path d="M160.38,551c-5.84,0-11.27-2.62-14.91-7.2-3.65-4.6-4.97-10.51-3.62-16.23l14.23-60.17c3.17-13.38,10.89-25.4,21.74-33.83,10.86-8.44,24.44-12.95,38.15-12.72l324.78,5.54c14.6.25,26.37,11.42,27.38,25.99l4.87,70.29c.48,6.97-1.87,13.63-6.63,18.74-4.76,5.12-11.22,7.95-18.21,7.98h0l-387.71,1.61h-.08ZM548.15,546.39h0,0ZM214.96,426.84c-25.04,0-47.26,17.51-53.04,41.95l-14.23,60.17c-.93,3.92-.02,7.97,2.48,11.12,2.49,3.14,6.21,4.93,10.21,4.93h.06l387.71-1.61c5.31-.02,10.23-2.18,13.84-6.07s5.4-8.95,5.04-14.25l-4.87-70.29c-.79-11.44-10.03-20.21-21.5-20.4l-324.78-5.54c-.31,0-.61,0-.92,0Z" fill="#2b2b2b"/><path d="M604.29,300.39c-.11,0-.22,0-.34-.01-2-.17-3.45-1.81-3.37-3.82h0s1.16-31.68,1.16-31.68c-.63-7.43-7.2-12.17-14.15-17.18-1.26-.91-2.53-1.82-3.76-2.75l-5.31-4.01c-6.12-4.63-11.97-13.4-11.22-22.57l10.07-106.14c.63-5.84,1.76-11.48,3.36-16.8,4.79-15.93,10.54-25.37,17.11-28.04,3.18-1.29,6.57-1.03,9.8.77.11.06.21.12.3.19l8,5.79c6.46,4.68,11.71,10.67,15.19,17.32,4.59,8.8,6.71,18.47,5.98,27.22-.01.15-.04.3-.07.45l-10.76,44.8c-.67,2.79-1.2,5.63-1.58,8.46l-16.77,124.79c-.25,1.88-1.79,3.2-3.64,3.2ZM606.57,296.78h0ZM603.58,296.67h0,0ZM601.91,72.58c-.61,0-1.21.12-1.81.37-4.6,1.87-9.57,10.7-13.63,24.21-1.49,4.97-2.55,10.25-3.14,15.68l-10.06,106.06c-.47,5.84,3.17,12.95,8.86,17.25l5.31,4.01c1.19.9,2.42,1.79,3.65,2.67,6.29,4.54,13.29,9.58,15.77,17.26l11.89-88.49c.41-3.03.98-6.08,1.69-9.06l10.7-44.58c.59-7.58-1.31-15.99-5.34-23.72-3.04-5.83-7.67-11.1-13.38-15.24l-7.84-5.68c-.94-.5-1.81-.74-2.67-.74Z" fill="#2b2b2b"/><path d="M163.48,568.26c-.06,0-.12,0-.18,0-8.04-.49-23.23-5.41-23.23-20.52,0-6.87.17-11.77.49-14.59.18-1.52.54-4.69,3.45-4.69,1.66,0,3,1.34,3,3,0,.51-.13.99-.35,1.41-.15.76-.59,3.89-.59,14.86,0,12.86,15.95,14.41,17.51,14.53,8.19-.08,352.2-3.58,377.44-3.58,20.51,0,25.01-7.95,25.69-9.49l.32-26.35c.02-1.64,1.36-2.96,3-2.96h.04c1.66.02,2.98,1.38,2.96,3.04l-.32,26.86c0,.23-.03.46-.09.69-.14.58-3.87,14.22-31.59,14.22-25.38,0-373.98,3.55-377.5,3.58h-.03ZM144.02,534.46h0,0ZM144.03,534.46h0,0ZM144.04,534.46h0,0ZM144.05,534.46h0,0ZM144.06,534.46h0,0ZM144.07,534.46s0,0,0,0c0,0,0,0,0,0ZM144.08,534.46h0,0ZM144.1,534.46h-.02.02ZM144.11,534.46s0,0,0,0c0,0,0,0,0,0ZM144.12,534.46h0,0ZM144.13,534.46h0,0ZM144.14,534.46s0,0,0,0c0,0,0,0,0,0ZM144.14,534.46h0,0ZM144.15,534.46h0,0ZM144.16,534.46h0,0Z" fill="#2b2b2b"/><path d="M617.59,307.85c-.09,0-.18,0-.27-.01-1.5-.14-14.75-1.59-16.68-10.54-.35-1.62.68-3.22,2.3-3.56,1.62-.35,3.22.68,3.56,2.3.61,2.85,5.02,4.58,8.55,5.37l18.69-130.23c.84-7.45,2.92-14.97,5.11-22.94,3.95-14.34,8.04-29.17,4.5-44.06-3.65-15.37-16.25-25.61-23.43-30.34-3.09-2.04-6.84-2.83-10.55-2.24l-5.65.89c-1.63.26-3.17-.86-3.43-2.49-.26-1.64.86-3.17,2.49-3.43l5.64-.89c5.19-.83,10.45.3,14.79,3.16,7.93,5.22,21.84,16.58,25.97,33.96,3.89,16.38-.4,31.97-4.55,47.04-2.13,7.73-4.14,15.04-4.94,22.11l-19.13,133.33c-.21,1.49-1.49,2.57-2.97,2.57Z" fill="#2b2b2b"/><path d="M569.69,552.73c-1.16,0-2.26-.68-2.75-1.81-.66-1.52.04-3.29,1.56-3.95,16.55-7.19,16.82-39.94,16.82-40.27,0-.1,0-.21.02-.31l21.51-204.35c.17-1.65,1.65-2.85,3.3-2.67,1.65.17,2.84,1.65,2.67,3.3l-21.49,204.2c-.03,3-.75,37.06-20.43,45.61-.39.17-.79.25-1.19.25Z" fill="#2b2b2b"/><path d="M664.49,877.48c-1.51,0-2.81-1.13-2.98-2.67l-35.82-319.25c-3.21-28.65-3.19-57.7.08-86.35l32.16-282.21c.05-.46.21-.89.46-1.28,13.38-20.88,14.64-50.28,14.75-54.15-.99-3.35-7.99-26.09-20.03-42.54-12.34-16.86-32.55-15.92-32.76-15.9-1.62.09-3.07-1.17-3.17-2.83-.09-1.65,1.17-3.07,2.83-3.17.96-.05,23.7-1.12,37.94,18.35,13.61,18.6,20.78,43.81,21.08,44.88.08.27.11.55.11.84-.01,1.37-.47,33.46-15.33,57.16l-32.09,281.53c-3.21,28.2-3.24,56.8-.07,85l35.82,319.25c.18,1.65-1,3.13-2.65,3.32-.11.01-.23.02-.34.02Z" fill="#2b2b2b"/><path d="M632.82,880.46c-1.44,0-2.72-1.04-2.96-2.51-2.05-12.51-50.16-307.39-42.15-387.97.17-1.65,1.65-2.84,3.28-2.69,1.65.16,2.85,1.63,2.69,3.28-7.94,79.79,41.6,383.35,42.1,386.4.27,1.63-.84,3.18-2.48,3.45-.16.03-.33.04-.49.04Z" fill="#2b2b2b"/><path d="M165.87,876.88c-.07,0-.14,0-.21,0-1.65-.12-2.9-1.55-2.78-3.2l17.93-255.44c.03-.41,3.37-41.33,45.12-41.33,39.01,0,299.46,3.55,302.08,3.58.1,0,.21,0,.31.02.54.06,54.61,6.04,59.43-21.73.28-1.63,1.84-2.73,3.47-2.44,1.63.28,2.73,1.84,2.44,3.47-5.71,32.81-61.77,27.14-65.89,26.68-7.54-.1-263.27-3.58-301.85-3.58-36.1,0-39.02,34.29-39.13,35.75l-17.93,255.43c-.11,1.58-1.43,2.79-2.99,2.79Z" fill="#2b2b2b"/><path d="M134.5,872.4c-.07,0-.13,0-.2,0-1.65-.11-2.9-1.54-2.79-3.19l17.03-254.54c0-.06,0-.11.02-.17.23-1.83,5.99-45.02,40.25-52.36,1.62-.35,3.21.69,3.56,2.31.35,1.62-.69,3.21-2.31,3.56-29.46,6.31-35.27,45.2-35.55,47.16l-17.02,254.44c-.11,1.58-1.42,2.8-2.99,2.8Z" fill="#2b2b2b"/><path d="M547.08,431.14c-1.22,0-2.37-.75-2.81-1.96-.58-1.55.22-3.28,1.77-3.86,7.5-2.78,11.58-21.32,12.39-32.36l11.65-158.64c.12-1.65,1.54-2.89,3.21-2.77,1.65.12,2.89,1.56,2.77,3.21l-11.65,158.64c-.24,3.32-2.77,32.54-16.29,37.55-.34.13-.7.19-1.04.19Z" fill="#2b2b2b"/><path d="M564.81,449.56c-1.23,0-2.39-.76-2.83-1.99-.56-1.56.26-3.28,1.82-3.83,22.74-8.12,21.53-41.12,21.51-41.46,0-.1,0-.21,0-.31l8.96-149.68c.1-1.65,1.53-2.88,3.17-2.82,1.65.1,2.91,1.52,2.82,3.17l-8.95,149.53c.11,3.06.75,37.84-25.5,47.21-.33.12-.67.18-1.01.18Z" fill="#2b2b2b"/><path d="M591.1,480.48c-1.58,0-2.91-1.24-2.99-2.84l-3.29-62.49c-.09-1.65,1.18-3.07,2.84-3.15,1.63-.07,3.07,1.18,3.15,2.84l3.29,62.49c.09,1.65-1.18,3.07-2.84,3.15-.05,0-.11,0-.16,0Z" fill="#2b2b2b"/><path d="M587.21,725.11c-1.56,0-2.87-1.2-2.99-2.78l-10.46-143.7c-.12-1.65,1.12-3.09,2.77-3.21,1.65-.1,3.09,1.12,3.21,2.77l10.46,143.7c.12,1.65-1.12,3.09-2.77,3.21-.07,0-.15,0-.22,0Z" fill="#2b2b2b"/><path d="M149.41,930.02c-7.31,0-15.8-1.56-24.5-6.07-3.34-1.73-5.19-5.36-4.71-9.25l4.4-36.33c.6-4.91,4.72-8.71,9.6-8.84h0c1.29-.04,2.57.2,3.76.69,5.62,2.31,14.53,4.36,25.02.99,2.43-.78,4.97-.58,7.15.57,3.12,1.64,4.94,4.92,4.74,8.56l-1.13,37.26c-.21,3.71-2.35,6.96-5.59,8.56-3.9,1.93-10.59,3.87-18.74,3.87ZM134.45,875.52s-.06,0-.09,0h0c-1.66.04-3.54,1.39-3.8,3.57l-4.4,36.33c-.17,1.38.43,2.63,1.52,3.2,16.26,8.44,31.42,5.32,37.82,2.15,1.29-.64,2.18-1.99,2.26-3.44l1.13-37.26c.07-1.36-.5-2.45-1.54-2.99-.53-.28-1.39-.53-2.53-.17-12.21,3.92-22.59,1.54-29.14-1.15-.39-.16-.8-.24-1.21-.24ZM134.28,872.52h0,0Z" fill="#2b2b2b"/><path d="M650.59,934.55c-8.15,0-14.84-1.94-18.75-3.87-3.24-1.59-5.38-4.85-5.58-8.48l-1.14-37.41c-.2-3.57,1.62-6.84,4.75-8.49,2.18-1.14,4.71-1.34,7.14-.57,10.5,3.37,19.4,1.32,25.03-.99,1.19-.49,2.45-.72,3.75-.69h0c4.87.13,9,3.93,9.6,8.84l4.41,36.34c.47,3.89-1.38,7.52-4.71,9.25-8.7,4.51-17.18,6.07-24.5,6.07ZM634.09,881.27c-.6,0-1.08.17-1.42.35-1.04.54-1.61,1.63-1.54,2.92l1.14,37.41c.08,1.38.96,2.73,2.25,3.36,6.4,3.17,21.57,6.29,37.82-2.15,1.09-.57,1.69-1.82,1.52-3.2l-4.41-36.34c-.26-2.17-2.14-3.52-3.8-3.57h0c-.45,0-.89.07-1.3.24-6.56,2.7-16.94,5.08-29.15,1.16-.4-.13-.77-.18-1.1-.18Z" fill="#2b2b2b"/><path d="M206.01,736.86s-.06,0-.09,0c-1.66-.05-2.96-1.43-2.91-3.09l4.48-151.47c.05-1.66,1.44-2.96,3.09-2.91,1.66.05,2.96,1.43,2.91,3.09l-4.48,151.47c-.05,1.63-1.38,2.91-3,2.91Z" fill="#2b2b2b"/><path d="M188.7,786.29c-6.81,0-12.2-1.65-16.32-3.28-1.54-.61-2.29-2.36-1.68-3.9.61-1.54,2.36-2.29,3.9-1.68,6.86,2.73,17.84,5.48,33.97-2.03,1.06-.49,1.67-1.4,1.57-2.32-.01-.13-.02-.26-.02-.39l.74-31.37c-.24-1.24-1.72-2.21-3.4-2.21h-.04c-.51,0-1.02.1-1.49.28-6.54,2.46-16.82,4.77-28.73,1.86-1.61-.39-2.59-2.02-2.2-3.63s2.01-2.6,3.63-2.2c10.42,2.55,19.45.52,25.18-1.64,1.13-.43,2.33-.66,3.56-.67,4.92-.07,9,3.28,9.47,7.72.01.13.02.26.02.39l-.75,31.44c.27,3.43-1.68,6.63-5.03,8.18-8.72,4.06-16.16,5.45-22.4,5.45Z" fill="#2b2b2b"/><path d="M608.23,774.57c-7.2,0-14.73-1.81-22.48-5.42-3.34-1.56-5.3-4.75-5.03-8.18l-.75-31.44c0-.13,0-.26.02-.39.47-4.42,4.5-7.72,9.38-7.72h.09c1.23,0,2.43.23,3.57.67,5.42,2.04,11.01,2.99,16.61,2.81,1.67-.01,3.04,1.25,3.09,2.91.05,1.66-1.25,3.04-2.91,3.09-6.38.18-12.75-.88-18.92-3.2-.48-.18-.99-.28-1.5-.28h-.04c-1.68,0-3.17.98-3.4,2.21l.74,31.37c0,.13,0,.26-.02.39-.1.92.52,1.83,1.57,2.33,9.26,4.31,18.07,5.77,26.19,4.31,1.63-.29,3.19.79,3.48,2.42.29,1.63-.79,3.19-2.42,3.48-2.39.43-4.83.64-7.3.64Z" fill="#2b2b2b"/><path d="M598.05,106.51c-.31,0-.61-.03-.92-.09-3.64-.75-5.58-5.71-4.44-11.31,1.15-5.6,4.9-9.4,8.53-8.65,1.88.38,3.41,1.94,4.19,4.27.68,2.03.77,4.53.25,7.04h0c-1.05,5.13-4.28,8.75-7.61,8.75ZM600.29,89.85c-1.41,0-3.45,2.45-4.17,5.95-.76,3.69.3,6.89,1.71,7.18,1.4.28,3.64-2.24,4.4-5.93.39-1.88.33-3.79-.15-5.23-.36-1.09-.95-1.82-1.57-1.95-.07-.02-.15-.02-.23-.02ZM603.95,97.41h0,0Z" fill="#2b2b2b"/><path d="M584.14,220.73c-.12,0-.24,0-.35-.01-3.7-.29-6.25-4.98-5.81-10.67.2-2.55.97-4.93,2.18-6.7,1.41-2.06,3.24-3.09,5.2-2.96,3.7.29,6.25,4.98,5.81,10.67h0c-.43,5.51-3.48,9.66-7.03,9.66ZM585.01,203.88c-.61,0-1.34.53-1.96,1.45-.86,1.25-1.43,3.07-1.58,4.99-.29,3.76,1.15,6.8,2.59,6.91,1.43.16,3.34-2.68,3.62-6.43h0c.29-3.76-1.15-6.8-2.59-6.91-.03,0-.05,0-.08,0Z" fill="#2b2b2b"/></svg>