<?xml version="1.0" encoding="UTF-8"?><svg id="_レイヤー_43" xmlns="http://www.w3.org/2000/svg" width="1000" height="1532.31" viewBox="0 0 1000 1532.31"><path d="M946.75,1482.39H44.13c-1.66,0-3-1.34-3-3V266.77c0-1.66,1.34-3,3-3h262.87c1.66,0,3,1.34,3,3s-1.34,3-3,3H47.13v1206.62h896.62V269.77h-250.43c-1.66,0-3-1.34-3-3s1.34-3,3-3h253.43c1.66,0,3,1.34,3,3v1212.62c0,1.66-1.34,3-3,3Z" fill="#2b2b2b"/><path d="M957.5,1483.08H64.85c-.97,0-1.75-.78-1.75-1.75s.78-1.75,1.75-1.75h890.9V270.46h-9.9c-.97,0-1.75-.78-1.75-1.75s.78-1.75,1.75-1.75h11.65c.97,0,1.75.78,1.75,1.75v1212.62c0,.97-.78,1.75-1.75,1.75Z" fill="#2b2b2b"/><path d="M965.87,1491.44H63.25c-.97,0-1.75-.78-1.75-1.75v-10.06c0-.97.78-1.75,1.75-1.75s1.75.78,1.75,1.75v8.31h899.12V278.83h-6.82c-.97,0-1.75-.78-1.75-1.75s.78-1.75,1.75-1.75h8.57c.97,0,1.75.78,1.75,1.75v1212.61c0,.97-.78,1.75-1.75,1.75Z" fill="#2b2b2b"/><path d="M500,332.71h-.05l-172.84-3.06c-2.18.15-11.94-.55-18.52-23.46-1.62-5.7-2.97-12.4-3.99-19.92-1.01-7.44-1.05-14.13-.13-19.9,3.98-24.64,24.32-25.31,26.33-25.31l77.03-1.95c1.94-.3,20.53-3.75,20.53-24.55v-29.78c-13.47-16.01-20.79-36.16-20.61-56.83.41-48.85,41.72-88.32,92.25-88.32.26,0,.51,0,.77,0,24.62.19,47.7,9.63,64.98,26.56,17.31,16.96,26.73,39.41,26.52,63.21-.17,20.14-7.48,39.78-20.61,55.38v29.78c0,20.77,18.55,24.24,20.53,24.55l77.04,1.95c2.01,0,22.24.67,26.28,25.12.02.08.04.16.05.25.92,5.73.87,12.41-.14,19.85-1.1,8.13-2.57,15.24-4.35,21.13-6.55,21.73-16.02,22.42-18.16,22.25l-172.84,3.06h-.05ZM326.8,323.64c.06,0,.11,0,.25.01l172.95,3.06,172.95-3.06c.25,0,.24-.03.42.01.75-.06,6.84-1.05,11.94-18,1.69-5.59,3.09-12.39,4.15-20.21.92-6.75.99-12.76.2-17.86-.02-.08-.03-.16-.05-.24-3.3-20.67-19.65-20.34-20.34-20.32-.06,0-.12,0-.18,0l-77.24-1.96c-.11,0-.21-.01-.31-.02-.26-.03-25.88-3.71-25.88-30.51v-31.38c0-1.15.66-2.21,1.7-2.7.04-.02.08-.04.12-.05,11.97-14.46,18.64-32.54,18.79-51.08.19-22.16-8.59-43.06-24.72-58.87-16.16-15.84-37.77-24.66-60.83-24.84-.24,0-.48,0-.72,0-47.24,0-85.86,36.8-86.25,82.37-.16,19.03,6.5,37.6,18.79,52.43.04.02.08.04.12.05,1.04.5,1.7,1.55,1.7,2.7v31.38c0,26.8-25.62,30.48-25.88,30.51-.1.01-.21.02-.31.02l-77.23,1.96c-.06,0-.12,0-.18,0-.67-.03-17.05-.2-20.35,20.27-.83,5.18-.78,11.28.15,18.14.98,7.24,2.27,13.66,3.81,19.08,5.18,18.03,11.52,19.07,12.28,19.12.08-.02.12-.02.16-.02ZM673.45,323.68h0ZM326.56,323.68h0ZM408.08,242.09h0,0Z" fill="#2b2b2b"/><path d="M500,214.74c-.25,0-.49,0-.74,0-22.36-.18-43.79-8.24-60.35-22.7-.73-.64-.8-1.74-.17-2.47.64-.73,1.74-.8,2.47-.17,15.92,13.91,36.55,21.67,58.07,21.84.24,0,.48,0,.72,0,21.55,0,42.22-7.58,58.28-21.4.73-.63,1.84-.55,2.47.18.63.73.55,1.84-.19,2.47-16.69,14.36-38.18,22.25-60.56,22.25Z" fill="#2b2b2b"/><path d="M500.01,192.86c-.19,0-.38,0-.57,0-18.24-.14-35.34-7.13-48.14-19.67-12.81-12.56-19.79-29.17-19.64-46.8.31-36.17,30.9-65.39,68.32-65.39.19,0,.38,0,.57,0,18.24.14,35.34,7.13,48.14,19.67,12.81,12.55,19.79,29.17,19.64,46.8h0c-.31,36.17-30.9,65.39-68.32,65.39ZM499.99,64.51c-35.5,0-64.53,27.67-64.82,61.92-.14,16.66,6.46,32.38,18.59,44.27,12.15,11.9,28.38,18.53,45.71,18.67.18,0,.36,0,.54,0,35.5,0,64.53-27.67,64.82-61.92.14-16.67-6.46-32.39-18.59-44.27-12.15-11.9-28.38-18.53-45.71-18.67-.18,0-.36,0-.54,0ZM566.58,127.46h0,0Z" fill="#2b2b2b"/><path d="M500,148.36c-.06,0-.12,0-.19,0-5.91-.05-11.45-2.31-15.6-6.38-4.17-4.08-6.44-9.49-6.39-15.23.11-11.76,10.04-21.26,22.17-21.26.06,0,.12,0,.19,0,5.91.05,11.44,2.31,15.6,6.38,4.17,4.08,6.44,9.49,6.39,15.22h0c-.11,11.76-10.04,21.26-22.17,21.26ZM500,109c-10.22,0-18.58,7.95-18.67,17.79-.04,4.77,1.86,9.28,5.34,12.7,3.5,3.43,8.18,5.34,13.17,5.38,10.3.12,18.73-7.9,18.83-17.79h0c.04-4.77-1.86-9.28-5.34-12.69-3.5-3.43-8.18-5.34-13.17-5.38-.05,0-.1,0-.16,0ZM520.42,127.09h0,0Z" fill="#2b2b2b"/><path d="M530.3,312.56c-106.01,0-208.97-5.99-210.52-6.08-.96-.06-1.7-.89-1.64-1.85.06-.97.88-1.71,1.85-1.64,2.32.14,233.81,13.6,359.95,0,.96-.11,1.82.59,1.93,1.55s-.59,1.82-1.55,1.93c-42.37,4.56-96.58,6.08-150.01,6.08Z" fill="#2b2b2b"/><path d="M500,258.29c-36.43,0-66.24-12.24-66.53-12.37-.89-.37-1.31-1.4-.94-2.29.37-.89,1.4-1.32,2.29-.94.29.12,29.49,12.1,65.19,12.1s64.9-11.97,65.19-12.1c.89-.37,1.92.05,2.29.94.37.89-.05,1.92-.94,2.29-.3.12-30.1,12.37-66.53,12.37Z" fill="#2b2b2b"/></svg>