<?xml version="1.0" encoding="UTF-8"?><svg id="_レイヤー_6" xmlns="http://www.w3.org/2000/svg" width="1000" height="800" viewBox="0 0 1000 800"><path d="M165.2,672.67c-.68,0-1.36-.23-1.92-.69-8.03-6.69-15.46-14.77-22.71-24.72-15.18-20.82-21.01-51.92-16.86-89.95,2.85-26.11,9.33-46.79,10.63-50.77-15.52-126.37,5.15-224.89,61.46-292.82,81.8-98.69,217.08-107.28,274.85-110.95,1.65-.1,3.08,1.15,3.18,2.8.1,1.65-1.15,3.08-2.8,3.18-56.99,3.62-190.46,12.1-270.61,108.79-55.31,66.73-75.51,163.93-60.04,288.92.06.45,0,.91-.14,1.34-.3.88-29.5,88.34,5.17,135.92,6.96,9.54,14.06,17.27,21.7,23.64,1.27,1.06,1.45,2.95.39,4.22-.59.71-1.45,1.08-2.31,1.08Z" fill="#2b2b2b"/><path d="M665.73,709.82c-42.24,0-84.78-2.89-117.18-5.09-22.19-1.51-39.73-2.69-48.45-2.33-.05,0-.1,0-.15,0-8.77-.36-26.22.34-48.31,1.23-59.7,2.41-159.62,6.44-223.85-5.86-24.62-4.71-44.88-11.07-63.72-26.75-.74-.62-.84-1.72-.22-2.46.62-.74,1.72-.84,2.46-.22,18.26,15.21,38.05,21.39,62.14,26.01,63.83,12.22,163.5,8.2,223.05,5.8,22.11-.89,39.58-1.6,48.52-1.23,8.93-.36,26.52.83,48.76,2.34,69.34,4.71,185.41,12.59,244.24-11.56,20.29-8.33,39.74-17.28,54.62-35.01.62-.74,1.73-.83,2.47-.21s.84,1.73.21,2.47c-15.4,18.33-35.26,27.49-55.97,35.99-31.87,13.08-80.05,16.9-128.62,16.9Z" fill="#2b2b2b"/><path d="M848.99,658.8c-.68,0-1.37-.23-1.93-.7-1.27-1.07-1.43-2.96-.37-4.23,6.68-7.95,12.19-17.33,16.85-28.69,19.9-48.57-3.48-116.23-3.71-116.91-.15-.44-.2-.9-.15-1.36,15.47-124.97-4.73-222.2-60.02-288.99-80.13-96.8-213.58-105.44-270.56-109.12-1.65-.11-2.91-1.53-2.8-3.19.11-1.65,1.56-2.91,3.19-2.8,57.76,3.74,193.01,12.5,274.8,111.29,56.29,67.99,76.96,166.53,61.44,292.87,2.62,7.71,23.29,71.88,3.37,120.5-4.9,11.94-10.72,21.84-17.81,30.27-.59.71-1.44,1.07-2.3,1.07Z" fill="#2b2b2b"/><path d="M155.02,499.92c-.92,0-1.7-.72-1.75-1.66-7.4-139.45,24.01-243.61,93.35-309.6,38.64-36.77,87.8-60.69,146.11-71.11,44.38-7.93,78.1-4.82,81.8-4.44l.28.03c.96.09,1.67.95,1.57,1.91-.09.96-.95,1.67-1.91,1.57l-.3-.03c-5.4-.56-133.47-12.63-225.13,74.6-68.57,65.25-99.61,168.5-92.27,306.88.05.96-.69,1.79-1.66,1.84-.03,0-.06,0-.09,0Z" fill="#2b2b2b"/><path d="M847.28,499.92s-.06,0-.09,0c-.96-.05-1.71-.88-1.66-1.84,7.32-137.9-23.6-240.97-91.9-306.34-37.89-36.27-86.16-60.04-143.46-70.67-44.46-8.24-78.98-5.25-82.77-4.88l-.61.06c-.96.1-1.82-.61-1.91-1.58-.09-.96.61-1.82,1.58-1.91l.6-.06c3.84-.37,38.82-3.41,83.75,4.93,57.98,10.75,106.85,34.83,145.24,71.58,69.07,66.11,100.35,170.09,92.97,309.06-.05.93-.82,1.66-1.75,1.66Z" fill="#2b2b2b"/><path d="M492.02,516.06c-.91,0-1.68-.7-1.74-1.63-.21-2.98-20.87-298.94,5.79-394.04.26-.93,1.23-1.47,2.16-1.21.93.26,1.47,1.23,1.21,2.16-26.5,94.51-5.88,389.87-5.67,392.84.07.96-.66,1.8-1.62,1.87-.04,0-.08,0-.13,0Z" fill="#2b2b2b"/><path d="M488.43,539.36c-204.8,0-327.1-19.55-328.31-19.74-.95-.16-1.6-1.05-1.45-2.01.16-.95,1.07-1.6,2.01-1.45,1.21.2,123.26,19.7,327.75,19.7s351.5-14.19,352.96-14.33c.97-.1,1.82.61,1.91,1.57.09.96-.61,1.82-1.57,1.91-1.46.14-148.54,14.35-353.3,14.35Z" fill="#2b2b2b"/><path d="M703.58,683.28c-45.64,0-92.82-3.9-131.51-7.1-13.65-1.13-26.54-2.2-38-2.98-31.34-2.14-63.03-2.45-94.19-.89-238.41,11.85-271.34,1.16-275.52-1.1-.23-.12-.43-.25-.58-.38l2.3-2.64s-.03-.04-.12-.1c2.54,1.37,31.24,12.77,273.75.72,31.3-1.56,63.13-1.26,94.61.89,11.48.79,24.38,1.85,38.05,2.98,84.33,6.98,211.78,17.52,275.56-18.59.84-.48,1.91-.18,2.38.66.48.84.18,1.91-.66,2.38-28.68,16.24-71.37,24.73-130.53,25.98-5.15.11-10.34.16-15.54.16Z" fill="#2b2b2b"/><path d="M513.23,124.6c-2.54,0-5.22-.25-8.07-.52-1.82-.17-3.7-.35-5.65-.47-2.24-.14-4.52-.14-6.73-.13-6.18,0-12.02.02-16.44-3-1.63-1.12-3.05-2.33-4.21-3.6-2.99-3.21-4.47-6.89-4.25-10.63.01-.26.05-.58.09-.89,1.4-10.39,15.58-17.41,32.98-16.32,14.64.92,26.97,7.58,29.99,16.2h0c.57,1.63.81,3.3.7,4.97-.12,2-.73,3.95-1.83,5.78-1.32,2.24-3.36,4.27-6.03,5.99-3.16,2.03-6.67,2.62-10.55,2.62ZM493.76,117.48c1.99,0,4.04.02,6.12.15,2.04.13,3.97.31,5.83.48,6.33.59,11.33,1.06,14.81-1.17,1.85-1.2,3.28-2.59,4.13-4.02.61-1.01.94-2.03,1-3.07.05-.88-.07-1.75-.38-2.62h0c-1.89-5.41-10.98-11.33-24.7-12.2-14.92-.93-25.83,5.01-26.66,11.15-.02.14-.04.26-.05.39-.16,2.64,1.36,4.85,2.67,6.25.87.95,1.93,1.86,3.18,2.71,2.88,1.97,7.82,1.96,13.05,1.96.33,0,.66,0,.99,0Z" fill="#2b2b2b"/></svg>