<?xml version="1.0" encoding="UTF-8"?><svg id="_レイヤー_16" xmlns="http://www.w3.org/2000/svg" width="1000" height="850" viewBox="0 0 1000 850"><path d="M610.52,792.2c-.37,0-.75-.07-1.11-.21L29.19,561.39c-.76-.3-1.37-.9-1.67-1.66-.31-.76-.29-1.61.04-2.36l4.46-9.92c.23-.51.6-.95,1.07-1.27l17.71-11.8,300.39-255.78s.07-.06.11-.09c2.58-2,63.97-48.96,129.61-52.69,40.96-2.33,89.27,7.75,124.54,15.11,20.01,4.18,37.29,7.78,43.23,6.75,5.09-.88,9.64-1.01,14.04-1.13,10.57-.29,20.55-.57,36.85-11.77,19.88-13.67,133.43-117.83,167.76-149.42,12.46-11.46,29.43-16.37,45.4-13.12,14.73,3,23.91,12.03,26.55,26.11.03.18.05.37.05.55v6.22c0,14.06-5.45,27.3-15.35,37.28l-136.99,140.5c3.88,1.87,10.46,5.07,18.41,8.98,29.7,14.65,67.54,33.94,79.17,42.66,1.33,1,2.74,2.01,4.21,3.06,17.01,12.22,42.71,30.68,33.35,89.44-1.81,11.36-2.95,21.7-3.47,31.61l-3.15,59.88c-.01,2.09-.61,30.09-21.87,48.31-.03.02-.05.04-.08.07l-281.18,224.65c-.54.43-1.2.66-1.87.66ZM34.32,556.97l575.69,228.8,279.78-223.53c19.51-16.76,19.73-43.54,19.73-43.81,0-.05,0-.1,0-.16l3.15-59.95c.53-10.12,1.69-20.67,3.53-32.24,8.78-55.1-14.17-71.58-30.93-83.62-1.5-1.08-2.95-2.12-4.31-3.14-8.79-6.59-36.57-21.53-78.23-42.08-12.77-6.29-22.02-10.72-22.11-10.77-.87-.42-1.49-1.23-1.66-2.18-.17-.95.13-1.93.81-2.62l139.92-143.5c8.79-8.87,13.63-20.61,13.63-33.08v-5.93c-2.25-11.49-9.58-18.57-21.8-21.07-14.09-2.86-29.09,1.5-40.14,11.66-34.4,31.67-148.22,136.06-168.42,149.95-17.76,12.21-29.1,12.52-40.08,12.83-4.19.12-8.51.24-13.18,1.05-7.07,1.23-23.19-2.13-45.49-6.78-34.95-7.29-82.81-17.28-122.98-15-62.95,3.58-124.11,49.8-126.22,51.41L54.56,539.06c-.09.08-.18.15-.28.21l-17.14,11.42-2.82,6.27Z" fill="#2b2b2b"/><path d="M637.15,755.07c-.22,0-.43-.04-.65-.12L66.47,527.89c-.9-.36-1.34-1.38-.98-2.27.36-.9,1.38-1.33,2.27-.98l570.03,227.06c.9.36,1.34,1.38.98,2.27-.27.69-.93,1.1-1.63,1.1Z" fill="#2b2b2b"/><path d="M804.17,297.35c-.75,0-1.49-.28-2.07-.83-1.2-1.15-1.24-3.04-.09-4.24l125.79-131.46c8.2-8.47,12.08-20.47,10.39-32.12l-4.64-25.3c-.3-1.63.78-3.19,2.41-3.49,1.63-.3,3.19.78,3.49,2.41l4.65,25.35s.01.07.02.11c1.98,13.5-2.5,27.4-11.99,37.2l-125.78,131.45c-.59.62-1.38.93-2.17.93Z" fill="#2b2b2b"/><path d="M610.52,792.2c-.63,0-1.27-.2-1.81-.61-1.32-1-1.58-2.88-.58-4.2l27-35.59c.04-.06.09-.11.14-.17l61.92-81.63,169.68-223.65c.86-1.53,8.67-15.85,10.2-35.02,2.14-26.84-8.44-50.09-31.42-69.12-32.76-27.11-133.61-53.12-190.8-66.21-81.83-18.73-159.18-30.77-180.14-30.3-40.73.95-97.45,37.78-99.53,39.14l-144.41,105.17c-1.34.98-3.22.68-4.19-.66-.98-1.34-.68-3.21.66-4.19l144.47-105.21s.07-.05.11-.08c2.42-1.6,59.74-39.17,102.75-40.17,21.28-.51,99.34,11.61,181.62,30.45,57.71,13.21,159.57,39.54,193.29,67.43,30.71,25.42,35.2,54.53,33.56,74.47-1.77,21.51-10.69,36.84-11.07,37.48-.06.1-.12.2-.19.29l-231.85,305.6c-.04.06-.09.11-.14.17l-26.87,35.42c-.59.78-1.49,1.19-2.39,1.19Z" fill="#2b2b2b"/><path d="M699.65,673.59c-.23,0-.46-.04-.68-.14L165.92,482.23c-.69-.25-1.15-.89-1.16-1.62,0-.73.43-1.39,1.11-1.65l243.91-95.19c2.63-1.32,43.02-20.67,120.1-4.07,77.57,16.69,310.37,100.38,312.71,101.22.91.33,1.38,1.33,1.05,2.24s-1.33,1.38-2.24,1.05c-2.34-.84-234.93-84.45-312.27-101.1-76.72-16.52-117.45,3.6-117.86,3.81-.05.03-.11.05-.16.07l-239.64,93.52,528.67,189.65s.13.05.16.06c.89.37,1.31,1.4.94,2.29-.28.67-.93,1.07-1.61,1.07Z" fill="#2b2b2b"/><path d="M853.19,170h0c-2.36,0-4.27-.69-5.68-2.04l-12.58-8.81c-.08-.06-.16-.12-.23-.2-2.42-2.42-3.76-5.65-3.76-9.07s1.34-6.65,3.76-9.07l48.58-48.18c3.09-3.1,8.32-5.19,13.01-5.19h0c3.11,0,5.72.92,7.54,2.66l12.12,7.74c.11.07.21.15.3.24,4.99,5,4.99,13.14,0,18.14l-47.11,46.47c-3.58,3.58-10.52,7.29-15.93,7.29ZM837.05,156.38l12.57,8.8c.08.06.16.12.24.2.74.74,1.86,1.12,3.33,1.12h0c4.3,0,10.43-3.24,13.46-6.27l47.11-46.47c3.58-3.58,3.62-9.41.12-13.06l-12.1-7.73c-.11-.07-.21-.15-.3-.24-1.46-1.47-3.64-1.77-5.21-1.77-3.76,0-8.09,1.71-10.54,4.16l-48.59,48.18c-1.76,1.76-2.73,4.1-2.73,6.59s.93,4.74,2.63,6.49Z" fill="#2b2b2b"/></svg>