<?xml version="1.0" encoding="UTF-8"?><svg id="_レイヤー_8" xmlns="http://www.w3.org/2000/svg" width="300" height="1000" viewBox="0 0 300 1000"><path d="M149.86,975.05c-5.87,0-10.91-3.51-12.95-9.08-.01-.04-.03-.08-.04-.11l-44.16-137.69c-.09-.29-.14-.6-.14-.91l-1.21-761.65c0-1.66,1.34-3,3-3h0c1.66,0,3,1.34,3,3l1.21,761.18,44,137.18c1.47,3.94,4.92,5.22,7.7,5.08,2.78-.13,6.13-1.73,7.21-5.83.02-.06.04-.12.06-.18l45.43-136.26-3.42-762.17c0-1.66,1.33-3.01,2.99-3.01h.01c1.65,0,2.99,1.33,3,2.99l3.42,762.67c0,.33-.05.65-.15.96l-45.56,136.64c-1.6,5.91-6.58,9.91-12.71,10.2-.23.01-.46.02-.69.02Z" fill="#2b2b2b"/><path d="M128.39,931.01c-.26,0-.53-.06-.78-.18-.86-.43-1.21-1.48-.78-2.34.21-.42,5.25-10.31,16.25-13.06,8.28-2.07,17.53.48,27.51,7.59.79.56.97,1.65.41,2.44-.56.79-1.65.97-2.44.41-9.09-6.47-17.36-8.85-24.6-7.05-9.43,2.34-13.96,11.15-14,11.24-.31.61-.92.96-1.57.96Z" fill="#2b2b2b"/><path d="M203.97,829.6c-.29,0-.58-.07-.85-.22-52.89-29.66-106.17-.9-106.7-.6-.85.47-1.91.16-2.38-.68s-.16-1.91.68-2.38c.56-.31,13.98-7.66,34.33-11.33,18.8-3.39,47.21-4.08,75.77,11.94.84.47,1.14,1.54.67,2.38-.32.57-.92.89-1.53.89Z" fill="#2b2b2b"/><path d="M148.51,89.2c-27.86,0-57.48-7.8-57.48-22.27s29.61-22.27,57.48-22.27,57.48,7.81,57.48,22.27-29.61,22.27-57.48,22.27ZM148.51,50.66c-29.46,0-51.48,8.59-51.48,16.27s22.01,16.27,51.48,16.27,51.48-8.59,51.48-16.27-22.01-16.27-51.48-16.27Z" fill="#2b2b2b"/><path d="M149,73.31c-7.95,0-16-2.62-16-7.63s8.05-7.63,16-7.63,16,2.62,16,7.63-8.05,7.63-16,7.63ZM149,61.55c-8.09,0-12.5,2.73-12.5,4.13s4.41,4.13,12.5,4.13,12.5-2.73,12.5-4.13-4.41-4.13-12.5-4.13Z" fill="#2b2b2b"/></svg>