<?xml version="1.0" encoding="UTF-8"?><svg id="_レイヤー_10" xmlns="http://www.w3.org/2000/svg" width="1000" height="1000" viewBox="0 0 1000 1000"><path d="M766.54,922.52H232.55c-.19,0-.38-.02-.57-.05-45.49-8.8-50.75-40.07-50.75-62.83l-.08-16.09c0-1.66,1.33-3.01,2.99-3.01h.01c1.65,0,2.99,1.33,3,2.99l.08,16.1c0,23.73,5.43,49.02,45.61,56.9h533.42c36.3-7.13,40.22-42.14,40.22-56.89,0-.04,0-.08,0-.12l1.55-37.02c.07-1.66,1.48-2.95,3.13-2.86,1.65.07,2.94,1.48,2.86,3.13l-.08,1.68-1.47,35.26c0,9.8-1.54,24.18-8.78,37.1-7.77,13.87-20.08,22.5-36.59,25.67-.19.04-.38.05-.56.05Z" fill="#2b2b2b"/><path d="M244.2,879.5c-38.68,0-55.44-18.9-62.69-34.75-6.06-13.24-5.93-25.17-5.92-25.67-.03-1.85-2.97-196.81-1.49-372.61.14-17.61.34-35.11.58-52.01,1.61-114.04,5.16-187.49,10.55-218.3,1.86-10.66,11.59-18.56,23.14-18.77,2.43-.05,5.15-.1,8.12-.15,7.52-.14,16.71-.31,27.29-.5,12.73-.23,27.47-.49,43.79-.77l27-.44c15.03-.24,31-.49,47.64-.74,23.26-.34,54.13-.78,86.64-1.17,31.24-.38,62.22-.69,92.09-.94,19.93-.16,39.88-.28,59.3-.36,9.17-.04,18.19-.07,27.02-.08,18.98-.03,35.4-.01,50.19.05,9.94.04,18.78.1,27.03.19,19.41.18,36.21.48,49.93.88,8.1.24,15.27.53,21.29.84,18.82,1,34.24,13.77,37.49,31.04,6.85,36.43,10.44,107.04,10.67,209.86.04,16.1,0,33.11-.13,52.02-.64,89.9-3.19,184.47-5.06,253.52-1.22,45.13-2.18,80.78-2.18,98.78,0,9.27-.88,17.87-2.61,25.54-7.41,33.03-29.39,45.62-46.53,50.36-17.31,4.79-32.87,2.72-35.14,2.38-.83,0-3.84.01-8.72.04l-61.75.26c-142.84.59-252.21,1.01-325.07,1.26-24.01.08-45.14.15-61.81.19-13.36.03-23.85.05-30.65.05ZM216.59,163.24c-2.97.05-5.68.1-8.11.15-8.69.16-15.98,5.97-17.35,13.81-5.34,30.5-8.86,103.63-10.46,217.36-.25,16.89-.44,34.37-.58,51.97-1.48,175.72,1.46,370.61,1.48,372.56,0,.2-.09,11.22,5.38,23.17,6.52,14.26,21.74,31.25,57.24,31.25,6.79,0,17.27-.02,30.63-.05,16.66-.04,37.8-.11,61.8-.19,72.86-.25,182.23-.67,325.07-1.26l61.75-.26c5.81-.03,8.97-.04,8.97-.04.18,0,.34.01.5.04.15.03,15.92,2.53,33.01-2.25,22.51-6.29,36.67-21.72,42.08-45.84,1.64-7.25,2.47-15.4,2.47-24.22,0-18.08.96-53.76,2.18-98.94,1.86-69.03,4.41-163.57,5.05-253.4.13-18.88.17-35.88.13-51.96-.22-102.46-3.78-172.69-10.56-208.76-2.74-14.55-15.86-25.31-31.91-26.16-5.98-.31-13.09-.6-21.15-.84-13.69-.4-30.45-.7-49.82-.88-8.24-.09-17.07-.15-27-.19-14.77-.07-31.18-.08-50.15-.05-8.83.01-17.84.04-27,.08-19.41.08-39.35.2-59.28.36-29.86.25-60.84.56-92.07.94-32.51.39-63.37.83-86.62,1.17-16.64.25-32.61.5-47.63.74l-27,.44c-16.32.28-31.06.54-43.78.77-10.58.19-19.77.36-27.29.5h0ZM216.54,160.24h.01-.01Z" fill="#2b2b2b"/><path d="M688.69,748.49h-16.11c-.97,0-1.75-.78-1.75-1.75s.78-1.75,1.75-1.75h16.09c.42,0,8.2-.21,18.23-3,.93-.26,1.9.29,2.16,1.22.26.93-.28,1.9-1.22,2.16-10.33,2.88-18.22,3.11-19.1,3.13-.02,0-.03,0-.05,0ZM660.59,748.49h-35c-.97,0-1.75-.78-1.75-1.75s.78-1.75,1.75-1.75h35c.97,0,1.75.78,1.75,1.75s-.78,1.75-1.75,1.75ZM613.59,748.49h-35c-.97,0-1.75-.78-1.75-1.75s.78-1.75,1.75-1.75h35c.97,0,1.75.78,1.75,1.75s-.78,1.75-1.75,1.75ZM566.59,748.49h-35c-.97,0-1.75-.78-1.75-1.75s.78-1.75,1.75-1.75h35c.97,0,1.75.78,1.75,1.75s-.78,1.75-1.75,1.75ZM519.59,748.49h-35c-.97,0-1.75-.78-1.75-1.75s.78-1.75,1.75-1.75h35c.97,0,1.75.78,1.75,1.75s-.78,1.75-1.75,1.75ZM472.59,748.49h-35c-.97,0-1.75-.78-1.75-1.75s.78-1.75,1.75-1.75h35c.97,0,1.75.78,1.75,1.75s-.78,1.75-1.75,1.75ZM425.59,748.49h-35c-.97,0-1.75-.78-1.75-1.75s.78-1.75,1.75-1.75h35c.97,0,1.75.78,1.75,1.75s-.78,1.75-1.75,1.75ZM378.59,748.49h-35c-.97,0-1.75-.78-1.75-1.75s.78-1.75,1.75-1.75h35c.97,0,1.75.78,1.75,1.75s-.78,1.75-1.75,1.75ZM331.59,748.42s-.03,0-.05,0c-12.71-.35-24.45-2.17-34.89-5.4-.92-.29-1.44-1.27-1.15-2.19.29-.92,1.27-1.44,2.19-1.15,10.14,3.14,21.57,4.9,33.96,5.25.97.03,1.73.83,1.7,1.8-.03.95-.8,1.7-1.75,1.7ZM718.68,741.39c-.67,0-1.31-.39-1.6-1.04-.39-.88.01-1.92.89-2.31,11.1-4.9,19.96-11.93,26.35-20.91.56-.79,1.65-.97,2.44-.41.79.56.97,1.65.41,2.44-6.76,9.5-16.1,16.93-27.79,22.08-.23.1-.47.15-.71.15ZM285.97,738.87c-.24,0-.48-.05-.72-.15-11.16-5.03-20.78-12.06-28.61-20.89-.64-.72-.57-1.83.15-2.47.72-.64,1.83-.58,2.47.15,7.5,8.46,16.73,15.19,27.43,20.02.88.4,1.27,1.43.88,2.32-.29.65-.93,1.03-1.6,1.03ZM751.68,709.51c-.24,0-.48-.05-.72-.15-.88-.4-1.27-1.43-.88-2.31,4.2-9.34,6.33-20.31,6.33-32.62v-.72c0-.96.79-1.75,1.75-1.75h0c.97,0,1.75.79,1.75,1.75v.71c0,12.81-2.23,24.27-6.64,34.06-.29.65-.93,1.03-1.6,1.03ZM250.67,708.9c-.57,0-1.13-.28-1.46-.79-6.24-9.49-10.86-20.49-13.73-32.69-.22-.94.36-1.88,1.3-2.1.94-.22,1.88.36,2.1,1.3,2.77,11.8,7.23,22.42,13.25,31.57.53.81.31,1.89-.5,2.42-.3.2-.63.29-.96.29ZM235.02,664.95c-.87,0-1.62-.64-1.73-1.52-.81-6.21-.98-11.18-.98-14.25,0-1.45.04-2.35.05-2.6-.01-.69-.12-7.26-.28-18.39-.01-.97.76-1.76,1.73-1.77.96-.01,1.76.76,1.77,1.73.17,11.77.28,18.44.28,18.44,0,.04,0,.09,0,.13,0,0-.05.9-.05,2.47,0,2.97.17,7.78.95,13.8.12.96-.55,1.84-1.51,1.96-.08,0-.15.01-.23.01ZM758.26,663.43h-.02c-.97-.01-1.74-.81-1.73-1.77.11-8.52.3-19.66.62-35.05.02-.97.81-1.69,1.79-1.71.97.02,1.73.82,1.71,1.79-.32,15.39-.51,26.52-.62,35.03-.01.96-.79,1.73-1.75,1.73ZM233.67,617.9c-.96,0-1.74-.77-1.75-1.73-.13-9.78-.27-21.61-.41-35.03-.01-.97.77-1.76,1.73-1.77h.02c.96,0,1.74.77,1.75,1.73.14,13.42.29,25.24.41,35.02.01.97-.76,1.76-1.73,1.77h-.02ZM759.13,616.38h-.04c-.97-.02-1.73-.82-1.71-1.79.21-9.7.44-20.17.68-31.27l.08-3.75c.02-.97.81-1.7,1.79-1.71.97.02,1.73.82,1.71,1.79l-.08,3.75c-.24,11.1-.47,21.57-.68,31.27-.02.95-.8,1.71-1.75,1.71ZM233.13,570.86c-.96,0-1.74-.77-1.75-1.73-.11-10.9-.21-22.64-.3-35.03,0-.97.77-1.76,1.74-1.76h.01c.96,0,1.74.77,1.75,1.74.09,12.38.2,24.12.3,35.02,0,.97-.77,1.76-1.73,1.77h-.02ZM760.16,569.34h-.04c-.97-.02-1.73-.82-1.71-1.79.24-11.2.5-22.92.75-35.02.02-.97.79-1.73,1.79-1.71.97.02,1.73.82,1.71,1.79-.25,12.1-.5,23.82-.75,35.02-.02.95-.8,1.71-1.75,1.71ZM232.74,523.83c-.96,0-1.74-.78-1.75-1.74-.08-11.27-.14-22.99-.19-35.03,0-.97.78-1.75,1.74-1.76h0c.96,0,1.75.78,1.75,1.74.05,12.03.11,23.75.19,35.02,0,.97-.77,1.75-1.74,1.76h-.01ZM761.15,522.32h-.04c-.97-.02-1.73-.82-1.71-1.79.23-11.41.46-23.12.68-35.02.02-.97.84-1.72,1.78-1.72.97.02,1.74.82,1.72,1.78-.22,11.9-.45,23.61-.68,35.02-.02.95-.8,1.71-1.75,1.71ZM232.51,476.8c-.96,0-1.75-.78-1.75-1.74-.04-11.48-.06-23.19-.06-35.02,0-.97.78-1.75,1.75-1.75s1.75.78,1.75,1.75c0,11.83.02,23.54.06,35.01,0,.97-.78,1.75-1.74,1.76h0ZM762.05,475.29h-.03c-.97-.02-1.74-.81-1.72-1.78.21-11.56.4-23.26.57-35.02.01-.96.8-1.72,1.75-1.72h.03c.97.01,1.74.81,1.72,1.78-.18,11.75-.37,23.46-.57,35.03-.02.96-.8,1.72-1.75,1.72ZM232.46,429.8h0c-.97,0-1.75-.79-1.75-1.75.01-11.64.04-23.36.1-35.04,0-.96.79-1.74,1.75-1.74h0c.97,0,1.75.79,1.74,1.76-.06,11.68-.09,23.39-.1,35.03,0,.97-.78,1.75-1.75,1.75ZM762.8,428.24h-.02c-.97-.01-1.74-.81-1.73-1.77.16-11.69.31-23.39.42-35.03,0-.97.8-1.77,1.77-1.73.97,0,1.74.8,1.73,1.77-.12,11.64-.26,23.35-.42,35.04-.01.96-.79,1.73-1.75,1.73ZM232.62,382.74h-.01c-.97,0-1.75-.79-1.74-1.76.08-12.13.18-23.92.3-35.03.01-.96.79-1.73,1.75-1.73h.02c.97.01,1.74.8,1.73,1.77-.13,11.11-.23,22.89-.3,35.01,0,.96-.79,1.74-1.75,1.74ZM763.34,381.23h-.02c-.97,0-1.74-.8-1.73-1.77.11-12.11.18-23.89.22-35.02,0-.96.79-1.74,1.75-1.74h0c.97,0,1.75.79,1.74,1.76-.04,11.13-.11,22.92-.22,35.04,0,.96-.79,1.73-1.75,1.73ZM233.08,335.71h-.02c-.97-.01-1.74-.81-1.73-1.77.16-12.27.36-24.06.59-35.03.02-.97.87-1.73,1.79-1.71.97.02,1.73.82,1.71,1.79-.23,10.96-.42,22.74-.59,35.01-.01.96-.79,1.73-1.75,1.73ZM763.58,334.19h0c-.97,0-1.75-.79-1.75-1.75v-6.63c0-9.82-.02-19.36-.08-28.37,0-.97.77-1.75,1.74-1.76,1,.01,1.76.77,1.76,1.74.06,9.02.09,18.57.09,28.39v6.63c0,.97-.79,1.75-1.75,1.75ZM233.93,288.68s-.03,0-.04,0c-.97-.02-1.73-.82-1.71-1.79.3-12.55.64-24.34,1.03-35.04.04-.97.84-1.74,1.81-1.69.97.04,1.72.85,1.69,1.81-.39,10.68-.73,22.46-1.03,34.99-.02.95-.8,1.71-1.75,1.71ZM763.4,287.18c-.96,0-1.74-.77-1.75-1.73-.12-12.53-.31-24.3-.57-34.98-.02-.97.74-1.77,1.71-1.79.01,0,.03,0,.04,0,.95,0,1.73.76,1.75,1.71.25,10.7.44,22.49.57,35.03,0,.97-.77,1.76-1.73,1.77h-.02ZM235.43,241.66s-.05,0-.07,0c-.97-.04-1.72-.86-1.67-1.82.56-13.27,1.2-25.06,1.92-35.03.07-.96.91-1.7,1.87-1.62.96.07,1.69.91,1.62,1.87-.71,9.94-1.35,21.69-1.91,34.93-.04.94-.81,1.68-1.75,1.68ZM762.51,240.17c-.94,0-1.72-.75-1.75-1.7-.39-13.15-.9-24.9-1.51-34.93-.06-.96.68-1.79,1.64-1.85.96-.06,1.79.68,1.85,1.64.61,10.06,1.12,21.85,1.52,35.04.03.97-.73,1.77-1.7,1.8-.02,0-.04,0-.05,0ZM238.31,194.71c-.05,0-.11,0-.16,0-.96-.09-1.67-.94-1.58-1.9,1.59-17.5,3.49-27.95,5.79-31.94.48-.84,1.55-1.12,2.39-.64.84.48,1.13,1.55.64,2.39-1.39,2.41-3.44,9.65-5.34,30.51-.08.91-.85,1.59-1.74,1.59ZM760.16,193.21c-.9,0-1.67-.69-1.74-1.61-1.45-17.93-3.36-29.27-5.67-33.71-.45-.86-.11-1.91.74-2.36.86-.45,1.91-.11,2.36.75,2.56,4.92,4.54,16.39,6.05,35.05.08.96-.64,1.81-1.6,1.88-.05,0-.1,0-.14,0Z" fill="#2b2b2b"/><path d="M295.91,839.36c-18.43,0-33.42-14.02-33.42-31.26s14.99-31.26,33.42-31.26,33.42,14.02,33.42,31.26-14.99,31.26-33.42,31.26ZM295.91,782.84c-15.12,0-27.42,11.33-27.42,25.26s12.3,25.26,27.42,25.26,27.42-11.33,27.42-25.26-12.3-25.26-27.42-25.26Z" fill="#2b2b2b"/><path d="M701.62,839.36c-18.43,0-33.42-14.02-33.42-31.26s14.99-31.26,33.42-31.26,33.42,14.02,33.42,31.26-14.99,31.26-33.42,31.26ZM701.62,782.84c-15.12,0-27.42,11.33-27.42,25.26s12.3,25.26,27.42,25.26,27.42-11.33,27.42-25.26-12.3-25.26-27.42-25.26Z" fill="#2b2b2b"/><path d="M362.23,159.5c-.59,0-1.18-.17-1.7-.53-1.37-.94-1.71-2.81-.77-4.17.8-1.16,19.87-28.64,51.6-50.54,25.04-17.29,50.67-26.05,76.2-26.05.26,0,.51,0,.77,0,30.89.21,60.59,9.03,88.29,26.22,33.97,21.05,52.33,46.87,53.1,47.95.95,1.36.63,3.23-.73,4.18-1.35.95-3.23.63-4.18-.73-.18-.26-18.48-25.93-51.35-46.31-26.75-16.6-55.4-25.12-85.17-25.32-.24,0-.48,0-.72,0-24.29,0-48.77,8.41-72.79,24.99-30.83,21.28-49.88,48.73-50.07,49-.58.85-1.52,1.3-2.48,1.3Z" fill="#2b2b2b"/><path d="M391.83,155.91c-.74,0-1.48-.27-2.06-.82-1.2-1.14-1.25-3.04-.11-4.24.6-.63,14.86-15.57,35.69-29.82,24.42-16.71,46.93-25.04,66.87-24.89,24.51.23,49.1,8.12,73.07,23.45,22.99,14.68,36.68,30.71,37.26,31.39,1.07,1.26.91,3.16-.35,4.23-1.26,1.07-3.16.91-4.23-.35-.13-.16-13.72-16.04-35.91-30.21-23.01-14.71-46.53-22.29-69.9-22.51-18.67-.15-40.03,7.84-63.42,23.85-20.27,13.87-34.58,28.85-34.72,29-.59.62-1.38.93-2.18.93Z" fill="#2b2b2b"/><path d="M775.54,160.2c-.24,0-.49-.03-.74-.09-1.61-.41-2.58-2.04-2.17-3.64,4.72-18.68-9.49-33.9-18.38-41.31-2.05-1.71-3.71-2.92-4.7-3.64l-.58-.42c-4.55-3.38-67.7-23.97-112.25-29.3-19.89-2.36-40.66,6.79-58.48,25.81-1.13,1.21-3.03,1.27-4.24.14-1.21-1.13-1.27-3.03-.14-4.24,19.16-20.45,41.73-30.28,63.57-27.67,45.54,5.44,109.12,25.99,115.12,30.44l.52.38c.98.72,2.81,2.05,5.01,3.88,9.97,8.31,25.88,25.52,20.36,47.39-.34,1.36-1.56,2.27-2.91,2.27Z" fill="#2b2b2b"/><path d="M540.95,157.99c-.53,0-1.07-.14-1.56-.44-1.42-.86-1.87-2.71-1-4.12.11-.18,11.02-18.08,22.09-32.06,1.03-1.3,2.91-1.52,4.21-.49,1.3,1.03,1.52,2.92.49,4.21-10.83,13.69-21.56,31.28-21.67,31.46-.56.93-1.55,1.44-2.57,1.44Z" fill="#2b2b2b"/><path d="M677.43,157.5c-.73,0-1.46-.26-2.03-.79-1.22-1.12-1.3-3.02-.17-4.24.32-.34,7.9-8.55,19.18-17.85,17.27-14.24,42.14-30.08,62.54-24.67.22.05.42.1.61.16,1.58.49,2.47,2.17,1.98,3.75s-2.17,2.47-3.75,1.98c-.08-.02-.16-.04-.24-.06-.02,0-.12-.03-.14-.04-17.94-4.77-41,10.15-57.18,23.5-10.94,9.03-18.51,17.21-18.58,17.29-.59.64-1.4.97-2.21.97Z" fill="#2b2b2b"/><path d="M704.45,157.11c-1.65,0-3-1.34-3-2.99h0c0-.1-.13-9.89-6.43-14.27-1.36-.95-1.7-2.82-.75-4.18.95-1.36,2.82-1.7,4.18-.75,8.9,6.19,9.01,18.67,9.01,19.19,0,1.66-1.34,3-3,3Z" fill="#2b2b2b"/><path d="M216.51,162.38c-1.34,0-2.56-.91-2.91-2.27-4.08-16.15,2.8-31.49,19.9-44.35,1.98-1.49,3.69-2.64,4.82-3.4.52-.35.92-.62,1.17-.8,6.01-4.46,69.6-25.01,115.12-30.44,21.91-2.62,42,4.94,59.72,22.44,1.18,1.16,1.19,3.06.02,4.24-1.16,1.18-3.06,1.19-4.24.03-16.35-16.16-34.79-23.14-54.79-20.75-44.54,5.31-107.69,25.91-112.25,29.3-.3.22-.78.55-1.4.97-1.14.77-2.71,1.82-4.56,3.21-10.47,7.88-22.04,20.88-17.69,38.09.41,1.61-.57,3.24-2.17,3.64-.25.06-.49.09-.74.09Z" fill="#2b2b2b"/><path d="M448.89,159.38c-1.17,0-2.28-.69-2.76-1.83-.07-.18-7.58-17.75-18.76-31.2-1.06-1.27-.89-3.17.39-4.22,1.27-1.06,3.17-.89,4.22.39,11.76,14.15,19.36,31.95,19.67,32.7.65,1.53-.07,3.29-1.59,3.93-.38.16-.78.24-1.17.24Z" fill="#2b2b2b"/><path d="M314.62,161.38c-.79,0-1.59-.31-2.18-.94-.07-.08-7.49-7.87-18.24-16.52-16.47-13.25-39.89-27.96-57.98-22.79-1.59.45-3.25-.47-3.71-2.06s.47-3.25,2.06-3.71c20.56-5.87,45.82,9.75,63.39,23.89,11.09,8.91,18.52,16.74,18.84,17.06,1.14,1.2,1.09,3.1-.12,4.24-.58.55-1.32.82-2.06.82Z" fill="#2b2b2b"/><path d="M287.6,162.37h0c-1.65,0-2.99-1.34-3-2.99,0,0,0-.2.01-.54.12-2.99,1.13-13.18,8.99-18.65,1.36-.95,3.23-.61,4.18.75.95,1.36.61,3.23-.75,4.18-5.73,3.99-6.36,12.35-6.43,13.98,0,.17,0,.27,0,.29,0,1.65-1.35,2.98-3,2.98Z" fill="#2b2b2b"/><path d="M276.15,923.91c-1.43,0-2.7-1.03-2.95-2.48-.08-.47-.17-.98-.24-1.52-1.42-10.19-1.26-33.81-1.12-43.5.01-.66.02-1,.02-1,.05-1.66,1.46-2.94,3.1-2.9,1.66.05,2.95,1.44,2.9,3.1,0,.01-.01.33-.02.9-.1,7.44-.33,32.52,1.07,42.6.06.48.13.9.2,1.29.29,1.63-.81,3.19-2.44,3.47-.17.03-.35.05-.52.05Z" fill="#2b2b2b"/><path d="M336.61,922.72c-.33,0-.67-.06-1-.17-1.48-.52-2.29-2.09-1.9-3.58.01-.05.02-.11.03-.16,1.35-5.59.53-30.18-.09-42.4l-.03-.79c-.07-1.66,1.22-3.05,2.88-3.12,1.69-.06,3.05,1.22,3.12,2.88l.03.74c.19,3.67,1.78,36.08-.04,43.98-.03.18-.08.38-.16.61-.44,1.23-1.59,2-2.83,2ZM333.78,918.72s-.01.03-.02.04c0-.01.01-.03.02-.04ZM333.78,918.71s0,0,0,0c0,0,0,0,0,0Z" fill="#2b2b2b"/><path d="M663.01,924.58c-1.43,0-2.69-1.02-2.95-2.48-.14-.79-.25-1.52-.33-2.24-1.57-12.56-1.03-42.47-1.01-43.74.03-1.64,1.37-2.94,3-2.94.02,0,.04,0,.06,0,1.66.03,2.97,1.4,2.94,3.05,0,.31-.55,30.75.97,42.92.08.73.18,1.35.28,1.91.29,1.63-.8,3.19-2.43,3.47-.18.03-.35.05-.52.05Z" fill="#2b2b2b"/><path d="M723.48,923.39c-.25,0-.5-.03-.76-.1-1.6-.42-2.57-2.05-2.15-3.66.05-.2.1-.43.15-.69,1.21-6.7.37-30.81-.25-42.62-.09-1.65,1.19-3.07,2.84-3.15,1.66-.11,3.07,1.19,3.15,2.84.07,1.42,1.8,34.93.15,44.04-.09.44-.16.79-.24,1.09-.35,1.35-1.57,2.25-2.9,2.25Z" fill="#2b2b2b"/><path d="M175.78,449.49c-.19,0-.39-.02-.59-.06l-18-3.59c-1.45-.29-2.47-1.59-2.41-3.06l1.94-48.4c.06-1.61,1.39-2.88,3-2.88h17.37c1.66,0,3,1.34,3,3s-1.34,3-3,3h-14.48l-1.72,42.96,15.49,3.09c1.62.32,2.68,1.9,2.35,3.53-.28,1.43-1.54,2.41-2.94,2.41Z" fill="#2b2b2b"/><path d="M147.02,537.63c-2.45,0-5.16-.4-8.16-1.35-1.4-.44-3.35-1.54-4.62-4.26-7.39-15.75,17.86-78.66,20.76-85.78.49-1.21,1.71-1.95,3.01-1.86l15.44,1.2c1.5.12,2.67,1.32,2.76,2.82l1.29,22.11c.02.3-.01.61-.08.9l-14.16,56.76c-.05.22-.13.43-.24.63-1.8,3.53-7.11,8.83-16.01,8.83ZM159.74,450.54c-10.52,26.21-24.67,69.13-20.06,78.94.43.91.84,1.04,1,1.09,11.33,3.58,15.92-2.67,16.87-4.24l13.95-55.92-1.11-19.04-10.64-.83Z" fill="#2b2b2b"/><path d="M820.99,450.1c-1.44,0-2.71-1.04-2.95-2.5-.28-1.63.82-3.18,2.46-3.46l18.62-3.15-1.71-42.88h-14.48c-1.66,0-3-1.34-3-3s1.34-3,3-3h17.36c1.61,0,2.93,1.27,3,2.88l1.93,48.4c.06,1.51-1.01,2.83-2.5,3.08l-21.22,3.59c-.17.03-.34.04-.5.04Z" fill="#2b2b2b"/><path d="M852.97,538.24c-8.9,0-14.21-5.29-16.01-8.83-.1-.2-.18-.41-.24-.63l-14.15-56.76c-.07-.29-.1-.6-.08-.9l1.28-22.11c.09-1.5,1.27-2.7,2.76-2.82l15.44-1.2c1.31-.1,2.52.65,3.01,1.86,2.9,7.12,28.15,70.02,20.76,85.78-1.27,2.72-3.22,3.82-4.62,4.26-2.99.95-5.71,1.35-8.16,1.35ZM842.45,526.94c.92,1.53,5.5,7.83,16.87,4.23.16-.05.57-.18,1-1.09,4.6-9.82-9.55-52.73-20.07-78.94l-10.64.83-1.1,19.04,13.94,55.93Z" fill="#2b2b2b"/></svg>