<?xml version="1.0" encoding="UTF-8"?><svg id="_レイヤー_16" xmlns="http://www.w3.org/2000/svg" width="1000" height="1150.57" viewBox="0 0 1000 1150.57"><path d="M918.75,1112.44H62.13c-1.66,0-3-1.34-3-3V242.82c0-1.66,1.34-3,3-3h244.87c1.66,0,3,1.34,3,3s-1.34,3-3,3H65.13v860.62h850.62V245.82h-222.43c-1.66,0-3-1.34-3-3s1.34-3,3-3h225.43c1.66,0,3,1.34,3,3v866.62c0,1.66-1.34,3-3,3Z" fill="#2b2b2b"/><path d="M929.5,1113.13H82.85c-.97,0-1.75-.78-1.75-1.75s.78-1.75,1.75-1.75h844.9V246.51h-9.9c-.97,0-1.75-.78-1.75-1.75s.78-1.75,1.75-1.75h11.65c.97,0,1.75.78,1.75,1.75v866.62c0,.97-.78,1.75-1.75,1.75Z" fill="#2b2b2b"/><path d="M937.87,1121.49H81.25c-.97,0-1.75-.78-1.75-1.75v-10.06c0-.97.78-1.75,1.75-1.75s1.75.78,1.75,1.75v8.31h853.12V254.88h-6.82c-.97,0-1.75-.78-1.75-1.75s.78-1.75,1.75-1.75h8.57c.97,0,1.75.78,1.75,1.75v866.61c0,.97-.78,1.75-1.75,1.75Z" fill="#2b2b2b"/><path d="M500,308.76h-.05l-172.84-3.06c-2.22.15-11.94-.56-18.52-23.46-1.62-5.71-2.97-12.41-3.99-19.92-1.01-7.44-1.05-14.14-.13-19.9,3.99-24.62,24.31-25.3,26.33-25.3l77.03-1.96c1.94-.3,20.53-3.75,20.53-24.54v-29.79c-13.47-16-20.79-36.15-20.61-56.83.41-48.85,41.73-88.32,92.26-88.32.25,0,.5,0,.75,0,24.62.19,47.7,9.63,64.98,26.56,17.31,16.96,26.73,39.41,26.52,63.22-.17,20.13-7.48,39.77-20.61,55.37v29.79c0,20.76,18.55,24.23,20.53,24.54l77.04,1.96c2.02,0,22.37.68,26.32,25.36.93,5.71.89,12.39-.13,19.85-1.1,8.13-2.57,15.24-4.35,21.13-6.55,21.73-16,22.41-18.16,22.25l-172.84,3.06h-.05ZM326.8,299.69c.06,0,.11,0,.25.01l172.95,3.06,172.95-3.06c.24,0,.24-.03.42.01.75-.06,6.84-1.05,11.95-18,1.69-5.59,3.09-12.39,4.15-20.21.94-6.87.99-12.95.15-18.09-3.28-20.51-19.66-20.34-20.36-20.31-.05,0-.12,0-.17,0l-77.24-1.97c-.11,0-.21-.01-.31-.02-.26-.03-25.88-3.71-25.88-30.5v-31.39c0-1.15.66-2.21,1.7-2.7.04-.02.08-.04.12-.05,11.98-14.46,18.64-32.54,18.79-51.07.19-22.16-8.59-43.07-24.72-58.88-16.16-15.84-37.77-24.66-60.83-24.84-47.57-.37-86.58,36.58-86.97,82.37-.16,19.04,6.5,37.61,18.79,52.43.04.02.08.04.12.05,1.04.5,1.7,1.55,1.7,2.7v31.39c0,26.79-25.62,30.47-25.88,30.5-.1.01-.21.02-.31.02l-77.23,1.97c-.06,0-.12,0-.18,0-.67-.04-17.04-.2-20.35,20.26-.83,5.18-.78,11.28.15,18.14.98,7.23,2.27,13.65,3.81,19.08,5.18,18.03,11.52,19.07,12.29,19.12.08-.02.12-.02.16-.02ZM673.45,299.73h0ZM326.56,299.73h0ZM408.08,218.14h0,0Z" fill="#2b2b2b"/><path d="M500.04,190.79c-.26,0-.52,0-.78,0-22.36-.18-43.79-8.24-60.35-22.7-.73-.64-.8-1.74-.17-2.47.64-.73,1.74-.8,2.47-.17,15.92,13.91,36.55,21.67,58.07,21.84.25,0,.5,0,.75,0,21.53,0,42.18-7.58,58.24-21.4.73-.63,1.84-.55,2.47.18.63.73.55,1.84-.18,2.47-16.69,14.36-38.16,22.25-60.53,22.25Z" fill="#2b2b2b"/><path d="M500.01,168.91c-.19,0-.38,0-.57,0-18.24-.14-35.34-7.13-48.14-19.67-12.81-12.56-19.79-29.17-19.64-46.8.31-36.17,30.9-65.39,68.32-65.39.19,0,.38,0,.57,0,18.24.14,35.34,7.13,48.14,19.67,12.81,12.56,19.79,29.17,19.64,46.8h0c-.31,36.17-30.9,65.39-68.32,65.39ZM499.99,40.56c-35.5,0-64.53,27.67-64.82,61.92-.14,16.66,6.46,32.38,18.59,44.27,12.15,11.9,28.38,18.53,45.71,18.67.18,0,.36,0,.54,0,35.5,0,64.53-27.67,64.82-61.92.14-16.66-6.46-32.38-18.59-44.27-12.15-11.9-28.38-18.53-45.71-18.67-.18,0-.36,0-.54,0ZM566.58,103.51h0,0Z" fill="#2b2b2b"/><path d="M500,124.41c-.06,0-.12,0-.19,0-5.91-.05-11.45-2.31-15.6-6.38-4.17-4.08-6.44-9.49-6.39-15.23.11-11.75,10.04-21.25,22.17-21.25.06,0,.12,0,.19,0,5.91.05,11.45,2.31,15.6,6.38,4.17,4.08,6.44,9.49,6.39,15.23h0c-.11,11.75-10.04,21.25-22.17,21.25ZM500,85.06c-10.22,0-18.58,7.94-18.67,17.78-.04,4.78,1.86,9.29,5.34,12.7,3.5,3.43,8.18,5.34,13.17,5.38.05,0,.11,0,.16,0,10.22,0,18.58-7.94,18.67-17.78.04-4.78-1.86-9.28-5.34-12.7-3.5-3.43-8.18-5.34-13.17-5.38-.05,0-.11,0-.16,0ZM520.42,103.15h0,0Z" fill="#2b2b2b"/><path d="M530.3,288.61c-106.01,0-208.97-5.99-210.52-6.08-.96-.06-1.7-.89-1.64-1.85.06-.96.9-1.7,1.85-1.64,2.32.14,233.81,13.6,359.95,0,.95-.1,1.82.59,1.93,1.55s-.59,1.82-1.55,1.93c-42.37,4.57-96.58,6.09-150.01,6.09Z" fill="#2b2b2b"/><path d="M500,234.35c-36.43,0-66.24-12.25-66.53-12.38-.89-.37-1.31-1.4-.94-2.29s1.4-1.32,2.29-.94c.29.12,29.49,12.11,65.19,12.11s64.9-11.98,65.19-12.11c.89-.37,1.92.05,2.29.94.37.89-.05,1.92-.94,2.29-.3.12-30.1,12.38-66.53,12.38Z" fill="#2b2b2b"/><path d="M849.01,437.43H134.99c-.69,0-1.25-.56-1.25-1.25s.56-1.25,1.25-1.25h714.02c.69,0,1.25.56,1.25,1.25s-.56,1.25-1.25,1.25Z" fill="#2b2b2b"/><path d="M849.01,537.29H134.99c-.69,0-1.25-.56-1.25-1.25s.56-1.25,1.25-1.25h714.02c.69,0,1.25.56,1.25,1.25s-.56,1.25-1.25,1.25Z" fill="#2b2b2b"/><path d="M849.01,637.15H134.99c-.69,0-1.25-.56-1.25-1.25s.56-1.25,1.25-1.25h714.02c.69,0,1.25.56,1.25,1.25s-.56,1.25-1.25,1.25Z" fill="#2b2b2b"/><path d="M849.01,737.01H134.99c-.69,0-1.25-.56-1.25-1.25s.56-1.25,1.25-1.25h714.02c.69,0,1.25.56,1.25,1.25s-.56,1.25-1.25,1.25Z" fill="#2b2b2b"/><path d="M849.01,836.87H134.99c-.69,0-1.25-.56-1.25-1.25s.56-1.25,1.25-1.25h714.02c.69,0,1.25.56,1.25,1.25s-.56,1.25-1.25,1.25Z" fill="#2b2b2b"/><path d="M849.01,936.73H134.99c-.69,0-1.25-.56-1.25-1.25s.56-1.25,1.25-1.25h714.02c.69,0,1.25.56,1.25,1.25s-.56,1.25-1.25,1.25Z" fill="#2b2b2b"/><path d="M849.01,1036.59H134.99c-.69,0-1.25-.56-1.25-1.25s.56-1.25,1.25-1.25h714.02c.69,0,1.25.56,1.25,1.25s-.56,1.25-1.25,1.25Z" fill="#2b2b2b"/></svg>