<?xml version="1.0" encoding="UTF-8"?><svg id="_レイヤー_12" xmlns="http://www.w3.org/2000/svg" width="800" height="1000" viewBox="0 0 800 1000"><path d="M574.5,942.09c-.85,0-1.64-.13-2.38-.39-13.22-1.47-331.12-36.71-397.25-37.58l-3.14-.04.18-3.13c.16-2.74,16.29-274.39,28.71-349.85,10.62-64.45,29.15-157.51,67.41-221.24,2.09-3.48,5.01-6.45,8.46-8.59l1-.63c4.1-2.58,5.08-2.77,10.52-2.06,1.64.21,2.8,1.72,2.59,3.36-.21,1.64-1.72,2.8-3.36,2.59q-3.85-.5-6.54,1.19l-1.03.65c-2.65,1.65-4.89,3.92-6.49,6.59-37.73,62.86-56.1,155.17-66.63,219.13-11.66,70.79-26.62,315.6-28.46,346.12,73.9,1.89,391.84,37.24,395.09,37.6l.47.05.43.2s.81.34,3.29-.76c12.85-5.71,38.87-35.03,40.95-40.29-.47-8.37-14.46-158.16-21.88-237.26-25.07-197.07-99.83-297.14-114.57-315.2-3.51-4.3-8.1-7.59-13.29-9.53-4.5-1.68-9.41-2.3-14.2-1.79-1.64.18-3.12-1.02-3.3-2.67s1.02-3.12,2.67-3.3c5.71-.6,11.56.14,16.92,2.13,6.19,2.31,11.67,6.23,15.85,11.35,9.67,11.85,34.88,45.81,60.21,105.15,26.99,63.23,45.72,134.96,55.67,213.19,2.25,24,21.93,233.7,21.93,238.19,0,3.46-7.85,12.76-14.44,19.94-4.45,4.86-15.85,16.82-25.5,23.04-4.04,2.6-7.27,3.87-9.91,3.87ZM618.41,894.79h0s0,0,0,0Z" fill="#2b2b2b"/><path d="M603.13,912.72c-.07,0-.13,0-.2-.01-.96-.11-1.65-.98-1.54-1.94,1.78-15.47-9.64-112.61-19.72-198.31-5.1-43.35-9.91-84.3-13-114.11-8.47-81.89-72.04-214.98-72.68-216.32-.42-.87-.05-1.92.82-2.34.87-.42,1.92-.05,2.33.82.64,1.34,64.48,134.98,73.01,217.47,3.08,29.79,7.9,70.72,12.99,114.06,10.6,90.09,21.55,183.25,19.72,199.12-.1.89-.86,1.55-1.74,1.55Z" fill="#2b2b2b"/><path d="M274.06,357.99c-.2,0-.4-.03-.59-.1l-5.65-2.03c-.91-.33-1.38-1.33-1.05-2.24s1.33-1.38,2.24-1.05l5.65,2.03c.91.33,1.38,1.33,1.05,2.24-.26.71-.93,1.16-1.65,1.16Z" fill="#2b2b2b"/><path d="M428.06,370.4c-.79,0-1.51-.54-1.7-1.35-.22-.94.36-1.88,1.3-2.1l11.86-2.78c.94-.22,1.88.36,2.1,1.3.22.94-.36,1.88-1.3,2.1l-11.86,2.78c-.13.03-.27.05-.4.05ZM392.29,369.9l-.42-.1-11.75-3.11c-.93-.25-1.49-1.21-1.24-2.14.25-.94,1.21-1.49,2.14-1.24l11.68,3.09c.67.15,1.22.67,1.35,1.37.18.95-.42,1.86-1.37,2.05l-.39.08ZM463.86,369.78l-.48-.06-11.88-2.32c-.95-.19-1.57-1.1-1.38-2.05.19-.95,1.11-1.57,2.05-1.38l11.78,2.3c.69.09,1.3.56,1.49,1.26.26.93-.25,1.88-1.18,2.14l-.4.11ZM356.67,368.25c-.84,0-1.58-.6-1.72-1.46-.16-.95.48-1.86,1.43-2.02l12.01-2.04c.95-.17,1.86.48,2.02,1.43.16.95-.48,1.86-1.43,2.02l-12.01,2.04c-.1.02-.2.03-.3.03ZM416.2,367.67c-.13,0-.26-.02-.4-.05l-5.61-1.3-5.55,1.11c-.95.19-1.87-.42-2.06-1.37-.19-.95.42-1.87,1.37-2.06l6.3-1.26,6.35,1.48c.94.22,1.53,1.16,1.31,2.1-.19.81-.91,1.35-1.7,1.35ZM321.06,365.66c-.18,0-.36-.03-.54-.09l-11.59-3.75c-.92-.3-1.42-1.28-1.13-2.2.3-.92,1.29-1.42,2.2-1.13l11.59,3.75c.92.3,1.42,1.28,1.13,2.2-.24.74-.93,1.21-1.67,1.21ZM344.99,364.81c-.16,0-.33-.02-.5-.07l-5.47-1.61-5.66.81c-.96.14-1.84-.53-1.98-1.48-.14-.96.53-1.84,1.49-1.98l6.42-.92,6.2,1.83c.93.27,1.46,1.25,1.18,2.17-.22.76-.92,1.26-1.68,1.26ZM285.37,362.16l-.38-.13c-.91-.32-1.42-1.33-1.1-2.24.27-.75.96-1.22,1.72-1.17l11.8-1.36c.97-.11,1.83.58,1.94,1.54s-.58,1.83-1.54,1.94l-12.45,1.43Z" fill="#2b2b2b"/><path d="M475.54,366.49c-.77,0-1.47-.51-1.69-1.29-.26-.93.29-1.9,1.22-2.15l5.79-1.59c.94-.26,1.9.29,2.15,1.22.26.93-.29,1.9-1.22,2.15l-5.79,1.59c-.16.04-.31.06-.47.06Z" fill="#2b2b2b"/><path d="M427.37,332.72c-3.57,0-6.41-2.96-9.15-5.83-1.56-1.63-3.91-4.09-5.04-4.09h0c-1.04,0-3.45,2.48-4.89,3.96-2.83,2.91-5.75,5.97-9.46,5.84-3.67-.08-6.44-3.2-9.12-6.21-1.39-1.56-3.71-4.18-4.79-4.22,0,0-.02,0-.03,0-1.1,0-3.59,2.41-5.08,3.86-2.89,2.8-5.89,5.7-9.53,5.51-3.7-.19-6.41-3.4-9.03-6.5-1.33-1.58-3.56-4.22-4.59-4.28-.02,0-.03,0-.05,0-1.16,0-3.62,2.28-5.25,3.79-2.92,2.7-5.94,5.5-9.53,5.24-3.76-.27-6.44-3.57-9.02-6.76-1.28-1.58-3.42-4.21-4.38-4.29-1.26-.11-3.84,2.23-5.57,3.77-2.92,2.6-5.96,5.3-9.42,4.99-3.91-.35-6.71-3.94-9.19-7.1-1.1-1.41-3.15-4.04-4.02-4.18-1.56-.15-4.28,2.22-6.28,3.95-2.91,2.52-5.67,4.9-8.84,4.56-1.65-.18-2.84-1.65-2.67-3.3s1.66-2.84,3.3-2.67c.76-.08,2.96-1.99,4.28-3.13,3.13-2.71,6.69-5.78,10.8-5.38,3.37.33,5.8,3.44,8.16,6.45,1.55,1.98,3.68,4.7,5,4.82.94.09,3.5-2.24,4.89-3.49,3.08-2.75,6.27-5.58,10.05-5.28,3.52.28,6.08,3.44,8.55,6.49,1.44,1.78,3.62,4.47,4.79,4.55.98.05,3.52-2.27,5.02-3.66,2.97-2.75,6.08-5.6,9.75-5.38,3.59.22,6.24,3.36,8.81,6.4,1.45,1.72,3.65,4.32,4.75,4.38,1.01.05,3.55-2.37,5.05-3.82,2.88-2.79,5.83-5.68,9.51-5.54,3.63.14,6.39,3.23,9.05,6.23,1.39,1.56,3.71,4.18,4.77,4.2h.02c1.1,0,3.54-2.52,5.01-4.02,2.76-2.84,5.62-5.78,9.2-5.78h.03c3.68.02,6.56,3.03,9.34,5.95,1.42,1.49,3.8,3.97,4.81,3.97h0c1.15-.02,3.44-2.6,4.95-4.31,2.6-2.93,5.29-5.96,8.81-6.12,3.73-.18,6.8,2.69,9.78,5.45,1.39,1.29,3.98,3.68,4.89,3.61,1.64-.15,3.1,1.08,3.25,2.73.14,1.65-1.08,3.1-2.73,3.25-3.57.31-6.58-2.49-9.49-5.19-1.68-1.56-4.2-3.92-5.42-3.86-.99.05-3.25,2.59-4.59,4.11-2.73,3.08-5.56,6.26-9.34,6.32-.04,0-.07,0-.11,0Z" fill="#2b2b2b"/><path d="M147.84,718.2h-.01c-1.52,0-2.79-1.15-2.97-2.65-.45-3.83.58-11.16,2.78-21.18,4.53-31.88,14.51-96.61,29.31-162.62,27.99-124.81,59.17-194.56,92.66-207.3,1.04-.4,2.22-.18,3.06.56s1.19,1.89.92,2.97l-4.89,19.44c-.03.1-.06.2-.09.3-36.4,99.72-100.23,281.54-114.84,346.16-1.92,13.46-2.92,21.43-2.95,21.69-.19,1.5-1.46,2.63-2.98,2.63ZM266.19,332.79c-29.14,17.64-57.86,86.48-83.37,200.23-8.75,39.01-15.81,77.59-21.05,109.15,31.68-105.64,96.91-284.73,101.15-296.37l3.27-13.01Z" fill="#2b2b2b"/><path d="M154.06,746.16c-.09,0-.17,0-.26-.01-.64-.06-15.77-1.49-24.52-11.83-.82-.97-.94-2.36-.3-3.45l10.3-17.58c.54-.92,1.52-1.48,2.59-1.48h.04l11.07.14c1.6.02,2.9,1.29,2.96,2.88l1.12,28.22c.03.86-.3,1.69-.93,2.29-.56.53-1.3.83-2.07.83ZM135.29,731.97c4.88,4.72,11.61,6.78,15.62,7.64l-.86-21.7-6.48-.08-8.29,14.14Z" fill="#2b2b2b"/><path d="M126.42,752.11c-.83,0-1.67-.35-2.26-1.02-1.09-1.25-.96-3.14.28-4.23l11.45-10.02c1.25-1.09,3.14-.96,4.23.28,1.09,1.25.96,3.14-.28,4.23l-11.45,10.02c-.57.5-1.27.74-1.97.74Z" fill="#2b2b2b"/><path d="M146.03,754.31c-1.46,0-2.73-1.06-2.96-2.55l-1.25-8.17c-.25-1.64.87-3.17,2.51-3.42,1.63-.25,3.17.87,3.42,2.51l1.25,8.17c.25,1.64-.87,3.17-2.51,3.42-.15.02-.31.03-.46.03Z" fill="#2b2b2b"/><path d="M649.04,740.3c-.91,0-1.8-.42-2.38-1.17-9.43-12.3-24.91-61.49-44.51-123.77-18.06-57.37-38.52-122.4-59.5-175.33-22.14-55.85-40.97-87.87-56.06-95.31-1.11-.47-2.21-.89-3.33-1.26-1.54-.52-2.39-2.16-1.92-3.71.47-1.55,2.1-2.45,3.66-2.02,1.21.33,2.42.78,3.64,1.36,39.17,16.39,78.33,87.32,116.45,210.96,29.05,94.25,46.72,185.78,46.9,186.7.26,1.37-.45,2.73-1.72,3.3-.4.18-.81.26-1.23.26ZM513.76,365.76c31.94,50.24,65.68,157.46,94.11,247.8,12.81,40.7,24.42,77.59,33.28,100.42-15.16-70.51-63.84-277.06-127.39-348.21Z" fill="#2b2b2b"/><path d="M642.7,769.91l-2.08-34.43,15.56-1.76,14.29,19.59-1.2,1.75c-7.67,11.17-22.58,14.1-23.21,14.22l-3.35.63ZM646.94,740.8l1.31,21.67c3.91-1.26,10.41-4,14.78-9.15l-9.66-13.25-6.44.73Z" fill="#2b2b2b"/><path d="M673.58,772.48c-.6,0-1.21-.18-1.74-.56l-12.39-8.82c-1.35-.96-1.66-2.83-.7-4.18.96-1.35,2.83-1.67,4.18-.7l12.39,8.82c1.35.96,1.66,2.83.7,4.18-.58.82-1.51,1.26-2.45,1.26Z" fill="#2b2b2b"/><path d="M655.49,783.83c-1.59,0-2.91-1.25-2.99-2.85l-.78-15.45c-.08-1.65,1.19-3.06,2.85-3.15,1.65-.09,3.06,1.19,3.15,2.85l.78,15.45c.08,1.65-1.19,3.06-2.85,3.15-.05,0-.1,0-.15,0Z" fill="#2b2b2b"/><path d="M479.41,820.94c-95.01,0-164.75-7.94-209.02-15.32-57.66-9.61-85.87-20.38-86.15-20.49-.9-.35-1.35-1.36-1-2.26.35-.9,1.36-1.35,2.26-1,.28.11,28.26,10.79,85.63,20.33,52.95,8.81,142.48,18.43,268.24,14.22,20.24-.68,39.73-5.53,57.93-14.42l11.33-5.53c.87-.43,1.92-.07,2.34.8.42.87.06,1.92-.8,2.34l-11.33,5.53c-18.65,9.11-38.62,14.08-59.35,14.77-21.04.7-41.08,1.02-60.09,1.02Z" fill="#2b2b2b"/><path d="M336.02,329.21c-1.41,0-2.66-.99-2.94-2.42-.12-.6-11.69-60.25-16.41-122.54-6.41-84.72,2.46-133.84,26.35-146l.67-.34,62.16,1.22.44.15c1.47.5,35.84,13.17,26.11,95.31-9.44,79.68-16.06,165.13-16.12,165.98-.13,1.65-1.55,2.88-3.22,2.76-1.65-.13-2.89-1.57-2.76-3.22.07-.85,6.69-86.43,16.14-166.23,8.63-72.8-18.26-87.23-21.72-88.77l-59.62-1.17c-20.75,11.45-28.51,59.75-22.45,139.81,4.69,61.95,16.2,121.3,16.32,121.89.32,1.63-.74,3.2-2.37,3.52-.19.04-.39.06-.58.06Z" fill="#2b2b2b"/><path d="M398.01,328.86c-.85,0-1.6-.62-1.73-1.49-.09-.6-9.23-61.06-12.86-123.66-4.92-84.67,2.17-132.83,21.08-143.13.85-.46,1.91-.15,2.37.7.46.85.15,1.91-.7,2.37-17.36,9.46-24.02,57.82-19.26,139.84,3.62,62.45,12.74,122.76,12.83,123.36.15.96-.51,1.85-1.47,1.99-.09.01-.18.02-.27.02Z" fill="#2b2b2b"/></svg>