<?xml version="1.0" encoding="UTF-8"?><svg id="_レイヤー_15" xmlns="http://www.w3.org/2000/svg" width="850" height="1000" viewBox="0 0 850 1000"><path d="M385.61,973.64c-107.48,0-220.33-1.63-317.15-6.53-.83-.04-1.61-.43-2.15-1.07-.54-.64-.78-1.47-.68-2.3l4.14-32.65,45.04-355.6c.05-2.53.78-27.1,11.64-56.56,10.39-28.2,32.42-66.15,78.34-86.8,9.36-4.21,19.51-7.1,30.16-8.59l118.08-16.53c.18-.03.37-.03.55-.03,1.1.05,27.15.85,33.12-20.69l-2.52-292.01c-.07-7.8,3.09-15.24,8.67-20.4,5.58-5.15,15.4-11.3,30.51-11.3s25.92,6.28,32.13,11.55c6.15,5.21,9.72,12.83,9.79,20.91l2.51,291.12c.14,1.36,2.44,18.5,30.91,20.81,41.16,3.35,74.55,7.41,111.65,13.58,13.77,2.29,34.14,6.59,51.99,17.47,27.33,16.68,62.02,48.63,72.11,106.07,13.29,75.68,44.37,293.56,57.12,383.72,3.16,22.34,5.05,35.88,5.05,35.88.12.84-.13,1.69-.67,2.35-.55.65-1.34,1.04-2.19,1.07-2.88.1-194.87,6.52-408.14,6.52ZM71.99,961.29c275.17,13.65,677.48,1.26,718.22-.05-.74-5.29-2.34-16.71-4.59-32.56-12.74-90.13-43.81-307.93-57.08-383.52-9.7-55.24-43.06-85.95-69.33-101.99-13.08-7.97-28.46-13.12-49.85-16.67-36.93-6.14-70.17-10.19-111.15-13.52-34.41-2.79-36.4-26.21-36.42-26.45,0-.06,0-.12,0-.18l-2.51-291.24c-.05-6.33-2.85-12.3-7.67-16.39-5.44-4.62-14.76-10.13-28.25-10.13-10.57,0-19.47,3.26-26.43,9.7-4.34,4.01-6.8,9.82-6.75,15.94l2.52,292.42c0,.27-.03.53-.1.79-6.63,25.22-35.65,25.6-38.97,25.54l-117.84,16.5c-10.09,1.42-19.69,4.15-28.54,8.13-44.02,19.8-65.18,56.29-75.17,83.41-10.87,29.49-11.27,54.48-11.27,54.73,0,.11,0,.23-.02.34l-45.06,355.76h0l-3.73,29.44ZM72.75,931.47h0,0Z" fill="#2b2b2b"/><path d="M74.94,934.75c-.18,0-.35-.02-.53-.05-1.63-.29-2.72-1.85-2.42-3.48l71.36-397.48c.18-.87,4.16-19.96,17.6-40.44,12.46-18.99,35.69-42.64,75.63-47.46,64.32-7.76,291.48-4.21,359.57-2.93,20.42.39,40.04,6.31,56.75,17.14,21.71,14.07,39.47,34.23,52.8,59.89,33.6,64.72,80.54,372.94,85.78,407.87l.02.13c.01.1.03.2.04.29l.05.32c.25,1.64-.87,3.17-2.51,3.42-1.63.25-3.17-.87-3.42-2.51l-.06-.36c-.01-.07-.02-.13-.02-.2l-.03-.23c-2.08-13.86-51.45-341-85.17-405.96-12.84-24.73-29.91-44.12-50.74-57.62-15.76-10.22-34.3-15.81-53.6-16.18-67.99-1.27-294.8-4.83-358.73,2.89-30.15,3.64-54.11,18.65-71.21,44.62-12.86,19.53-16.8,38.27-16.84,38.45l-71.35,397.41c-.26,1.45-1.52,2.47-2.95,2.47Z" fill="#2b2b2b"/><path d="M74.94,933.5c-.96,0-1.75-.78-1.75-1.74,0-.97.78-1.75,1.74-1.76l712.92-3.02h0c.96,0,1.75.78,1.75,1.74,0,.97-.78,1.75-1.74,1.76l-712.92,3.02h0Z" fill="#2b2b2b"/><path d="M740.56,853.23h0l-626.63-1.3c-.97,0-1.75-.79-1.75-1.75,0-11.08,52.21-226.86,54.43-236.04.23-.83,5.42-19.33,18.55-38.14,17.49-25.05,40.76-38.3,67.3-38.3h337.87c1.34-.08,18.88-.93,39.09,6.5,19.06,7.01,43.99,23.02,54.56,59.5,19.86,68.54,57.91,245.63,58.29,247.41.11.52-.02,1.06-.35,1.47-.33.41-.83.65-1.36.65ZM115.86,848.43l622.54,1.29c-4.39-20.36-39.13-180.71-57.77-245.05-8.15-28.12-25.74-47.35-52.29-57.15-19.9-7.35-37.66-6.35-37.84-6.33-.04,0-.07,0-.11,0H252.46c-25.67,0-47.33,12.35-64.37,36.72-12.81,18.32-18.04,36.91-18.09,37.1-18.01,74.39-51.43,214.52-54.14,233.42Z" fill="#2b2b2b"/><path d="M430.81,176.96h-11.16c-7.88,0-14.29-6.42-14.29-14.3v-59.49c0-7.88,6.41-14.3,14.29-14.3h11.16c7.89,0,14.3,6.42,14.3,14.3v59.49c0,7.88-6.42,14.3-14.3,14.3ZM419.65,92.37c-5.95,0-10.79,4.84-10.79,10.8v59.49c0,5.96,4.84,10.8,10.79,10.8h11.16c5.96,0,10.8-4.84,10.8-10.8v-59.49c0-5.96-4.85-10.8-10.8-10.8h-11.16Z" fill="#2b2b2b"/></svg>