<?xml version="1.0" encoding="UTF-8"?><svg id="_レイヤー_3" xmlns="http://www.w3.org/2000/svg" width="900" height="500" viewBox="0 0 900 500"><path d="M293.74,417.07c-12.8,0-25.54-3.21-36.81-9.36l-139.81-76.43c-11.76-6.43-19.06-18.74-19.06-32.14v-105.76c0-15.9,11.4-29.22,27.11-31.67l138.33-22.64.97,5.92-138.36,22.64c-12.79,2-22.06,12.82-22.06,25.74v105.76c0,11.2,6.11,21.5,15.94,26.88l139.81,76.43c13.57,7.42,29.46,10.19,44.75,7.79l137.38-22.74.98,5.92-137.4,22.75c-3.9.61-7.84.91-11.77.91Z" fill="#2b2b2b"/><polygon points="777.64 342.24 776.7 336.32 795.86 333.26 791.22 187.01 621.41 90.31 599.55 92.18 599.04 86.2 622.76 84.18 623.57 84.64 797.11 183.46 797.16 185.14 802.03 338.36 777.64 342.24" fill="#2b2b2b"/><path d="M287.6,261.74c-8.1,0-17.49-1.06-28.19-5.52-.04-.02-.08-.04-.13-.06l-140.3-72c-.86-.44-1.2-1.5-.76-2.36.44-.86,1.5-1.2,2.36-.76l140.24,71.97c12.68,5.27,23.48,5.52,32.38,5.07l500.71-74.58c.95-.15,1.85.52,1.99,1.47.14.96-.52,1.85-1.47,1.99l-500.8,74.59c-.06,0-.11.01-.17.02-1.87.1-3.83.16-5.86.16Z" fill="#2b2b2b"/><path d="M279.81,396.46c-.96,0-1.74-.77-1.75-1.73l-1.09-102.47c0-.97.76-1.76,1.73-1.77,1-.02,1.76.77,1.77,1.73l1.09,102.47c0,.97-.76,1.76-1.73,1.77h-.02Z" fill="#2b2b2b"/><path d="M380.95,209.41l-91.65-50.88,341.49-51.34,93.01,53.58-342.86,48.65ZM299.99,160.46l81.63,45.32,331.63-47.05-83.15-47.9-330.11,49.63Z" fill="#2b2b2b"/><path d="M438.32,241.77c-1.12,0-2.26-.29-3.26-.84l-172.96-94.49c-2.57-1.42-3.9-4.19-3.39-7.07.51-2.88,2.7-5.03,5.59-5.49l325.7-50.89c1.52-.24,3.09.06,4.42.83l176.84,100.5c2.52,1.46,3.77,3.95,3.28,6.5-.5,2.6-2.71,4.56-5.64,5h-.03s-329.59,45.87-329.59,45.87c-.32.05-.64.07-.96.07ZM591.04,88.91s-.07,0-.11,0l-325.7,50.89c-.34.05-.55.26-.61.6-.06.34.06.6.37.77l172.96,94.49c.15.08.31.11.48.09l329.61-45.87c.25-.04.42-.11.52-.17-.06-.06-.15-.12-.27-.2l-176.84-100.5c-.13-.08-.26-.11-.39-.11Z" fill="#2b2b2b"/><path d="M447.83,397.19c-1.88,0-3.72-.65-5.19-1.87-1.77-1.47-2.84-3.63-2.94-5.93l-6.09-150.36c-.07-1.66,1.22-3.05,2.88-3.12,1.64-.06,3.05,1.22,3.12,2.88l6.09,150.36c.03.82.5,1.32.77,1.55.27.23.85.59,1.67.46l320.28-47.55c2.75-.41,4.75-2.81,4.65-5.6l-3.92-146.87c-.04-1.66,1.26-3.04,2.92-3.08,1.64-.09,3.04,1.26,3.08,2.92l3.91,146.84c.21,5.81-3.98,10.86-9.77,11.72l-320.28,47.55c-.4.06-.79.09-1.19.09Z" fill="#2b2b2b"/></svg>