<?xml version="1.0" encoding="UTF-8"?><svg id="_レイヤー_18" xmlns="http://www.w3.org/2000/svg" width="1000" height="1000" viewBox="0 0 1000 1000"><path d="M906.75,975.4H74.13c-1.66,0-3-1.34-3-3V129.78c0-1.66,1.34-3,3-3h316.87c1.66,0,3,1.34,3,3s-1.34,3-3,3H77.13v836.62h826.62V132.78h-314.43c-1.66,0-3-1.34-3-3s1.34-3,3-3h317.43c1.66,0,3,1.34,3,3v842.62c0,1.66-1.34,3-3,3Z" fill="#2b2b2b"/><path d="M541.65,193.57c-1.36,0-2.6-.94-2.92-2.32-1.57-6.76-3.86-16.1-6.52-26.9-3.05-12.41-6.51-26.48-9.85-40.64l-.08-.35c-.69-2.94-1.39-5.88-2.06-8.8-4.15-17.93-7.88-27.42-9.88-32.52-1.65-4.19-2.4-6.11-1.47-8.18.5-1.13,1.39-1.79,2.1-2.17,1.5-2.07,2.83-3.95,4.09-5.71,3.93-5.54,7.04-9.91,12.12-15.9,4.01-4.72,3.87-11.69-.32-16.22-.22-.24-.46-.49-.72-.73-6.96-6.38-18.66-10.87-32.12-12.33-3.12-.34-6.35-.51-9.6-.51-18.07,0-34.99,5.58-43.11,14.22-3.94,4.21-4.4,10.69-1.08,15.41,5.77,8.21,10.46,13.59,18.01,21.66,3.88,1.83,2.92,5.56,1.26,12.05-1.43,5.57-3.82,14.88-6.45,30.73-2.67,16.06-5.6,32.56-7.96,45.82-2.78,15.6-4.97,27.93-5.13,30.57-.1,1.65-1.54,2.91-3.18,2.81-1.65-.1-2.91-1.53-2.81-3.18.18-2.99,2.19-14.23,5.21-31.25,2.36-13.24,5.29-29.72,7.95-45.75,2.67-16.1,5.1-25.58,6.55-31.24.57-2.24,1.12-4.37,1.27-5.46-.24-.14-.46-.32-.65-.52-8.01-8.53-12.9-14.12-18.99-22.78-4.95-7.03-4.27-16.69,1.61-22.97,9.35-9.94,27.54-16.12,47.49-16.12,3.46,0,6.91.18,10.25.55,14.7,1.6,27.64,6.65,35.51,13.86.37.33.73.7,1.07,1.07,6.26,6.77,6.47,17.16.5,24.19-4.92,5.79-7.96,10.07-11.81,15.49-1.39,1.96-2.88,4.06-4.59,6.41-.19.26-.41.48-.67.67.27.83.76,2.08,1.24,3.31,2.06,5.24,5.89,15.01,10.14,33.36.67,2.91,1.36,5.84,2.06,8.77l.08.35c3.33,14.13,6.79,28.18,9.83,40.58,2.66,10.83,4.96,20.18,6.54,26.98.37,1.61-.63,3.23-2.25,3.6-.23.05-.46.08-.68.08Z" fill="#2b2b2b"/><path d="M531.97,203.21c-1.61,0-2.94-1.27-3-2.89,0-.15-.06-.68-.42-2.5-1.33-6.47-5.44-22.15-10.21-40.3-2.75-10.46-5.86-22.31-8.86-34.02l-2.3-9.04c-4.27-16.91-8.11-23.5-10.66-27.86-2.01-3.45-3.46-5.93-3.23-10.57.1-1.95.72-3.86,1.81-5.51,4.62-7.04,7.76-10.62,14.03-17.75l.31-.36c.32-.37.66-.75,1.01-1.14,2.16-2.47,3.37-6.53.88-9.57-4.25-5.21-10.32-8.2-18.54-9.16-1.92-.23-3.96-.34-6.06-.34-6.64,0-13.14.75-18.28,2.12-6.01,1.6-10.26,4.01-12.27,6.97-2.31,3.39-1.99,7.14.84,9.78,2.07,1.93,3.89,3.55,5.65,5.12,4.88,4.35,8.74,7.78,12.64,13.32,1.45,2.05,2.2,4.48,2.18,7.04-.05,4.51-1.18,6.87-2.74,10.14-2.02,4.23-5.07,10.63-8.41,27.63-.28,1.47-.58,2.96-.87,4.45l-.17.85c-.02.12-.05.28-.09.44l-.07.33c-2.38,12.02-4.85,24.28-7.04,35.1-3.92,19.39-7.3,36.14-8.31,42.6-.24,1.52-.28,2.07-.29,2.23-.07,1.66-1.43,2.94-3.12,2.88-1.66-.07-2.94-1.46-2.88-3.12.02-.61.14-1.53.35-2.91,1.03-6.59,4.26-22.6,8.35-42.87,2.18-10.81,4.66-23.06,7.03-35.04l.33-1.65c.29-1.48.58-2.95.87-4.43,3.48-17.75,6.73-24.56,8.88-29.07,1.41-2.95,2.12-4.43,2.15-7.62.01-1.28-.36-2.5-1.08-3.51-3.5-4.98-6.95-8.05-11.72-12.3-1.7-1.52-3.64-3.24-5.75-5.21-5-4.66-5.68-11.71-1.71-17.54,2.87-4.23,8.15-7.4,15.69-9.4,7.22-1.92,14.76-2.32,19.82-2.32,2.34,0,4.61.13,6.76.38,9.71,1.14,17.27,4.94,22.48,11.32,4.03,4.91,3.61,12.04-1.02,17.34-.35.39-.67.75-.98,1.11l-.33.37c-6.27,7.14-9.13,10.4-13.52,17.09-.5.76-.79,1.63-.83,2.51-.14,2.86.61,4.15,2.42,7.26,2.55,4.37,6.81,11.68,11.29,29.4l2.3,9.03c3,11.69,6.11,23.54,8.85,33.99,4.99,18.99,8.92,33.99,10.29,40.65.35,1.79.5,2.78.53,3.46.06,1.66-1.23,3.05-2.89,3.11-.04,0-.08,0-.11,0Z" fill="#2b2b2b"/><path d="M510.01,116.73h-46.58c-1.66,0-3-1.34-3-3s1.34-3,3-3h46.58c1.66,0,3,1.34,3,3s-1.34,3-3,3Z" fill="#2b2b2b"/><path d="M588.49,218.66h-48.7c-.69,0-1.33-.23-1.84-.63-2.08-.66-3.82-2.18-4.74-4.23l-3.89-8.61c-.56-1.25-.89-2.56-.97-3.92,0-.01,0-.02,0-.04-.02-.36-.03-.71-.02-1.07l.05-1.68-5.39.47c-2.4.63-4.9,2.95-6.14,5.72-.26.58-.46,1.17-.57,1.72l1.1,5.15c.36,1.68-.05,3.42-1.14,4.77-1.08,1.34-2.69,2.11-4.41,2.11l-45.15.23c-1.74.03-3.35-.76-4.44-2.1-1.09-1.34-1.51-3.08-1.14-4.77l1.09-5.12c-.19-.88-.55-1.8-1.07-2.7-1.36-2.36-3.56-4.21-5.63-4.75l-5.41-.47.05,1.72c.01.2.01.46,0,.73,0,0,0,.01,0,.02-.06,1.48-.4,2.95-1,4.26l-3.87,8.61c-1.27,2.79-4.05,4.59-7.11,4.59h-45.76c-1.66,0-3-1.34-3-3v-90.46c0-7.98,6.49-14.47,14.46-14.47h45.06c1.66,0,3,1.34,3,3s-1.34,3-3,3h-45.06c-4.67,0-8.46,3.8-8.46,8.47v87.46h42.76c.7,0,1.35-.42,1.64-1.06l3.88-8.62c.28-.61.44-1.29.47-1.98,0-.03,0-.06,0-.08,0-.07,0-.14,0-.21l-.07-2.49c-.02-.37,0-.73.07-1.09.46-2.73,2.96-4.67,5.73-4.43l6.37.55c.14.01.27.03.4.06,3.74.85,7.45,3.78,9.69,7.66.99,1.73,1.64,3.57,1.89,5.33.05.35.04.7-.04,1.04l-1.13,5.3,44.38-.23-1.14-5.35c-.07-.34-.09-.7-.04-1.04.18-1.26.56-2.54,1.12-3.81,2.05-4.59,6.15-8.19,10.46-9.17.13-.03.27-.05.41-.06l6.37-.55c2.66-.24,5.12,1.57,5.68,4.21,0,.04.01.07.02.11.07.42.1.84.08,1.22l-.07,2.38c0,.19,0,.34.01.5,0,.03,0,.06,0,.09.04.61.19,1.21.45,1.78l3.89,8.62c.29.65.93,1.06,1.64,1.06.43,0,.85.09,1.22.26h43.95v-87.46c0-4.67-3.79-8.47-8.46-8.47h-53.23c-1.66,0-3-1.34-3-3s1.34-3,3-3h53.23c7.97,0,14.46,6.49,14.46,14.47v90.46c0,1.66-1.34,3-3,3ZM511.81,212.41h0,0ZM529.14,198.41h0s0,0,0,0ZM528.4,197.72h0s0,0,0,0Z" fill="#2b2b2b"/><path d="M446.57,202.81c-.45,0-.91-.18-1.25-.52l-9.72-9.92h-40.93c-.97,0-1.75-.78-1.75-1.75s.78-1.75,1.75-1.75h41.67c.48,0,.93.19,1.26.54l.28.29,9.94,10.14c.68.69.67,1.8-.02,2.47-.34.33-.78.5-1.23.5Z" fill="#2b2b2b"/><path d="M531.58,202.81c-.46,0-.92-.18-1.27-.54-.67-.7-.64-1.81.06-2.47l11.69-11.17c.33-.31.76-.49,1.21-.49h41.67c.97,0,1.75.78,1.75,1.75s-.78,1.75-1.75,1.75h-40.97l-11.18,10.69c-.34.32-.77.48-1.21.48Z" fill="#2b2b2b"/><path d="M511.16,203.9c-.47,0-.93-.19-1.28-.55l-6.31-6.73h-28.57l-6.53,6.75c-.67.69-1.78.71-2.47.04-.69-.67-.71-1.78-.04-2.47l7.05-7.28c.33-.34.78-.53,1.26-.53h30.07c.48,0,.95.2,1.28.55l6.83,7.28c.66.7.63,1.81-.08,2.47-.34.32-.77.47-1.2.47Z" fill="#2b2b2b"/><path d="M579.82,124.77h-54.54c-.97,0-1.77-.78-1.77-1.75s.77-1.75,1.74-1.75h54.57c.97,0,1.75.78,1.75,1.75s-.78,1.75-1.75,1.75Z" fill="#2b2b2b"/><path d="M511.33,124.77h-48.97c-.93,0-1.7-.73-1.75-1.66l-.2-4c-.05-.97.7-1.79,1.66-1.84.98-.03,1.79.7,1.84,1.66l.12,2.34h47.31c.97,0,1.75.78,1.75,1.75s-.78,1.75-1.75,1.75Z" fill="#2b2b2b"/><path d="M447.1,124.77h-46.82c-.97,0-1.75-.78-1.75-1.75s.78-1.75,1.75-1.75h46.82c.97,0,1.75.78,1.75,1.75s-.78,1.75-1.75,1.75Z" fill="#2b2b2b"/><path d="M917.5,976.09H94.85c-.97,0-1.75-.78-1.75-1.75s.78-1.75,1.75-1.75h820.9V133.47h-9.9c-.97,0-1.75-.78-1.75-1.75s.78-1.75,1.75-1.75h11.65c.97,0,1.75.78,1.75,1.75v842.62c0,.97-.78,1.75-1.75,1.75Z" fill="#2b2b2b"/><path d="M925.87,984.45H93.25c-.97,0-1.75-.78-1.75-1.75v-10.06c0-.97.78-1.75,1.75-1.75s1.75.78,1.75,1.75v8.31h829.12V141.84h-6.82c-.97,0-1.75-.78-1.75-1.75s.78-1.75,1.75-1.75h8.57c.97,0,1.75.78,1.75,1.75v842.61c0,.97-.78,1.75-1.75,1.75Z" fill="#2b2b2b"/></svg>