<?xml version="1.0" encoding="UTF-8"?><svg id="_レイヤー_5" xmlns="http://www.w3.org/2000/svg" width="300" height="1000" viewBox="0 0 300 1000"><path d="M159.94,980.33c-5.87,0-10.91-3.51-12.95-9.08-.01-.04-.03-.08-.04-.11l-44.16-137.69c-.09-.29-.14-.6-.14-.91l-1.21-775.99c0-1.66,1.34-3,3-3h0c1.65,0,3,1.34,3,3l1.21,775.52,44,137.18c1.47,3.94,4.95,5.22,7.7,5.08,2.78-.13,6.13-1.73,7.21-5.83.02-.06.03-.12.06-.18l45.43-136.26-3.42-775.49c0-1.66,1.33-3.01,2.99-3.01h.01c1.65,0,2.99,1.33,3,2.99l3.42,775.99c0,.33-.05.65-.15.96l-45.56,136.64c-1.6,5.91-6.58,9.91-12.71,10.2-.23.01-.46.02-.69.02Z" fill="#2b2b2b"/><path d="M138.47,936.29c-.26,0-.53-.06-.78-.18-.86-.43-1.21-1.48-.78-2.34.21-.42,5.25-10.31,16.25-13.06,8.28-2.08,17.53.48,27.51,7.59.79.56.97,1.65.41,2.44-.56.79-1.65.97-2.44.41-9.09-6.47-17.37-8.85-24.6-7.05-9.43,2.34-13.96,11.15-14,11.24-.31.61-.93.96-1.57.96Z" fill="#2b2b2b"/><path d="M119.08,843.16c-.41,0-.82-.15-1.13-.42l-10.43-8.88c-.74-.63-.82-1.73-.2-2.47.63-.74,1.73-.83,2.47-.2l8.87,7.56,10.55-17.24V82.86c0-.97.78-1.75,1.75-1.75s1.75.78,1.75,1.75v739.15c0,.32-.09.64-.26.91l-11.88,19.4c-.27.44-.71.73-1.22.81-.09.01-.18.02-.28.02Z" fill="#2b2b2b"/><path d="M159.92,849.07c-.42,0-.85-.15-1.18-.46l-27.19-24.9c-.71-.65-.76-1.76-.11-2.47.65-.71,1.76-.76,2.47-.11l25.95,23.77,24.67-24.65V81.23c0-.97.78-1.75,1.75-1.75s1.75.78,1.75,1.75v739.74c0,.46-.18.91-.51,1.24l-26.37,26.35c-.34.34-.79.51-1.24.51Z" fill="#2b2b2b"/><path d="M205.31,843.16c-.47,0-.94-.19-1.28-.56l-19.02-20.44c-.66-.71-.62-1.81.09-2.47.71-.66,1.82-.62,2.47.09l17.9,19.23,9.46-7.83c.74-.62,1.85-.51,2.46.23.62.75.51,1.85-.23,2.46l-10.74,8.88c-.33.27-.72.4-1.12.4Z" fill="#2b2b2b"/><path d="M185.59,84.86h-53.92c-2.68,0-5.24-.84-7.4-2.43l-17.18-12.64c-3.23-2.38-5.09-6.05-5.09-10.06s1.85-7.68,5.09-10.06l17.18-12.64c2.16-1.59,4.72-2.43,7.4-2.43h53.92c2.68,0,5.24.84,7.4,2.43l17.18,12.64c3.23,2.38,5.09,6.05,5.09,10.06s-1.85,7.68-5.09,10.06l-17.18,12.64c-2.16,1.59-4.72,2.43-7.4,2.43ZM131.67,40.59c-1.39,0-2.73.44-3.85,1.26l-17.18,12.64c-1.68,1.24-2.64,3.14-2.64,5.23s.96,3.99,2.64,5.23l17.18,12.64c1.12.83,2.45,1.26,3.85,1.26h53.92c1.39,0,2.72-.44,3.85-1.26l17.18-12.64c1.68-1.24,2.64-3.14,2.64-5.23s-.96-3.99-2.64-5.23l-17.18-12.64c-1.12-.83-2.45-1.26-3.85-1.26h-53.92Z" fill="#2b2b2b"/><ellipse cx="158.63" cy="59.73" rx="14.25" ry="6.93" fill="#2b2b2b"/><path d="M158.63,68.41c-9.12,0-16-3.73-16-8.68s6.88-8.68,16-8.68,16,3.73,16,8.68-6.88,8.68-16,8.68ZM158.63,54.54c-7.15,0-12.5,2.74-12.5,5.18s5.35,5.18,12.5,5.18,12.5-2.74,12.5-5.18-5.34-5.18-12.5-5.18Z" fill="#2b2b2b"/><path d="M182.23,932.09l-11.99,37.67c-3.57,8.79-16.94,9.69-20.65.96l-11.34-35.67,8.45-9.11c7.7-4.66,17.14-3.39,25.47.02l10.07,6.13Z" fill="#2b2b2b"/><path d="M159.29,978.58c-5.1,0-9.43-2.74-11.31-7.17l-.06-.16-11.65-36.64,9.31-10.04.21-.13c9.11-5.51,19.73-3.09,27.04-.1l.25.12,11.25,6.85-12.46,39.11c-2,4.91-6.89,8.11-12.46,8.16-.04,0-.08,0-.12,0ZM151.23,970.11c1.36,3.12,4.36,4.97,8.06,4.97.03,0,.06,0,.09,0,4.13-.03,7.74-2.35,9.22-5.92l11.56-36.29-8.78-5.34c-6.5-2.65-15.79-4.78-23.56-.22l-7.58,8.18,11,34.62Z" fill="#2b2b2b"/></svg>