<?xml version="1.0" encoding="UTF-8"?><svg id="_レイヤー_16のコピー" xmlns="http://www.w3.org/2000/svg" width="1000" height="1000" viewBox="0 0 1000 1000"><path d="M616.31,438.41c-1.17,0-2.29-.69-2.77-1.84-.64-1.53.08-3.29,1.61-3.92l71.11-29.74c1.53-.64,3.29.08,3.92,1.61s-.08,3.29-1.61,3.92l-71.11,29.74c-.38.16-.77.23-1.16.23Z" fill="#2b2b2b"/><path d="M530.79,464.96c-1.21,0-2.35-.74-2.81-1.94-.58-1.55.2-3.28,1.75-3.87,11.99-4.53,42.36-13.43,56.96-17.71,4.27-1.25,7.95-2.33,8.44-2.5,1.55-.54,3.27.25,3.83,1.78.57,1.54-.18,3.24-1.71,3.83-.47.18-2.1.66-8.88,2.65-14.53,4.26-44.76,13.12-56.53,17.57-.35.13-.71.19-1.06.19Z" fill="#2b2b2b"/><path d="M620.03,478.12c-1.21,0-2.34-.73-2.8-1.92-.59-1.55.18-3.28,1.72-3.88l68.58-26.4c1.55-.6,3.28.18,3.88,1.72.59,1.55-.18,3.28-1.72,3.88l-68.58,26.4c-.35.14-.72.2-1.08.2Z" fill="#2b2b2b"/><path d="M532.58,507.08c-1.34,0-2.56-.9-2.9-2.25-.41-1.6.55-3.24,2.16-3.65,9.83-2.53,17.37-5.23,26.11-8.35,10.66-3.82,22.73-8.14,42.14-13.25,1.61-.42,3.24.54,3.67,2.14.42,1.6-.54,3.24-2.14,3.67-19.16,5.05-31.11,9.33-41.65,13.1-8.87,3.18-16.54,5.92-26.64,8.51-.25.06-.5.1-.75.1Z" fill="#2b2b2b"/><path d="M749.72,862.54c-1.13,0-2.21-.64-2.72-1.74-.7-1.5-.05-3.29,1.46-3.99l42.13-19.59c19.26-8.96,34.75-24.28,47.34-46.85,5.25-9.38,10.12-20.12,15.33-33.8,93.01-244.66-2.28-465.1-47.56-548.52-6.32-11.63-12.82-22.79-19.32-33.15-1.99-3.16-3.92-6.16-5.74-8.92-15.56-22.83-32.89-36.61-59.77-47.51-1.54-.62-2.27-2.37-1.65-3.91.62-1.54,2.37-2.27,3.91-1.65,28.08,11.39,46.19,25.8,62.5,49.73,1.87,2.84,3.82,5.88,5.83,9.07,6.58,10.47,13.14,21.73,19.52,33.48,27.15,50.01,62.93,130.72,79.2,231.25,18.08,111.65,7.54,220.08-31.3,322.27-5.31,13.96-10.3,24.95-15.7,34.59-13.23,23.71-29.6,39.85-50.05,49.36l-42.13,19.59c-.41.19-.84.28-1.26.28Z" fill="#2b2b2b"/><path d="M745.68,752.04c-.81,0-1.62-.33-2.22-.98-1.12-1.22-1.03-3.12.19-4.24,29.88-27.28,47.98-94.17,49.67-183.53,1.26-66.87-6.73-138.49-22.51-201.65-17.09-68.43-41.34-119.58-70.1-147.9-1.18-1.16-1.2-3.06-.03-4.24,1.16-1.18,3.06-1.2,4.24-.03,37.34,36.77,59.61,102.26,71.71,150.73,15.9,63.66,23.96,135.83,22.69,203.21-.81,42.83-5.53,82.07-13.66,113.48-8.93,34.5-21.7,59.53-37.96,74.37-.58.53-1.3.78-2.02.78Z" fill="#2b2b2b"/><path d="M807.44,210.12c-.89,0-1.77-.39-2.36-1.14-19.18-24.33-36.24-40.37-52.15-49.04-16.77-9.14-31.79-9.76-45.91-1.88-1.45.81-3.28.29-4.08-1.16-.81-1.45-.29-3.27,1.16-4.08,30.08-16.77,64.65.39,105.7,52.45,1.03,1.3.8,3.19-.5,4.21-.55.43-1.21.64-1.86.64Z" fill="#2b2b2b"/><path d="M391.84,414.11c-11.28,0-22.62-.39-34-1.16-11.32-.77-25.05-1.44-39.59-2.16-32.09-1.58-68.45-3.38-103.5-7.07-10.23-1.07-19.94-2.28-28.86-3.58-99.19-14.49-103.68-38.35-103.84-41.36-9.78-137.04,91.91-166.82,123.31-172.69,1.61-.3,3.2.77,3.5,2.4.3,1.63-.77,3.2-2.4,3.5-30.17,5.64-127.86,34.29-118.43,166.37.13.69,5.19,22.17,98.72,35.84,8.84,1.29,18.47,2.49,28.62,3.56,34.88,3.68,71.16,5.47,103.16,7.04,14.56.72,28.32,1.4,39.7,2.17,38.01,2.58,75.57.79,111.65-5.31,24-4.06,42.86-9.26,56.04-15.45,1.5-.7,3.29-.06,3.99,1.44.7,1.5.06,3.29-1.44,3.99-13.67,6.42-33.04,11.78-57.58,15.93-25.73,4.36-52.2,6.54-79.05,6.54ZM88.05,358.48h0ZM88.05,358.43s0,0,0,0c0,0,0,0,0,0ZM88.04,358.36s0,0,0,.02c0,.02,0,.04,0,.05,0-.02,0-.04,0-.06Z" fill="#2b2b2b"/><path d="M606.82,490.86c-2.17,0-4.33-.7-6.42-2.08-.74-.49-1.23-1.29-1.33-2.17l-4.87-43.52c-.08-.7.09-1.4.48-1.98.29-.43.57-.85.85-1.24,0,0,.01-.02.02-.02,7.85-10.95,16.25-8.61,19.49-7.09.09.04.21.09.33.15.63-.14,1.3-.06,1.9.22.96.45,1.6,1.37,1.71,2.42l3.78,38.65c.02.16.02.33,0,.49-.12,1.75-.39,2.34-.51,2.59-1.18,2.55-4.49,8.87-9.56,11.88-1.04.63-2.15,1.1-3.27,1.38-.87.22-1.73.33-2.59.33ZM604.86,484.41c1.06.47,2.06.56,3.08.3.55-.14,1.09-.37,1.66-.71,2.91-1.73,5.55-5.75,7.1-9.03.02-.13.04-.3.05-.46l-3.52-35.97c-.12-.05-.25-.11-.37-.17-.13-.07-.22-.11-.3-.15-4.17-1.95-8.34-.17-12.13,5.11-.05.07-.09.13-.14.2l4.58,40.89ZM616.68,475.1h0ZM614.31,433.34s0,0,0,0c0,0,0,0,0,0ZM614.31,433.34h0s0,0,0,0Z" fill="#2b2b2b"/><path d="M640.91,581.77c-.15,0-.31-.01-.46-.04l-36.29-5.63c-1.52-.24-2.61-1.58-2.54-3.11l4.08-85.98c.05-1.35,1-2.49,2.32-2.8l2.45-.57s0,0,0,0l16.81-3.9c.83-.19,1.7-.02,2.4.47.7.49,1.15,1.25,1.25,2.1l6.15,51.51,14.67,21c.57.81.7,1.85.35,2.78l-8.39,22.22c-.45,1.18-1.57,1.94-2.8,1.94ZM607.75,570.59l31.22,4.84,6.97-18.46-14.2-20.32c-.28-.4-.46-.87-.52-1.36l-5.84-48.94-13.79,3.2-3.85,81.04Z" fill="#2b2b2b"/><path d="M864.16,800.66c-5.08,0-10.18-.84-15.14-2.53l-8.49-2.9c-1.57-.54-2.4-2.24-1.87-3.81.54-1.57,2.24-2.41,3.81-1.87l8.49,2.9c10.55,3.6,21.83,2.78,31.75-2.32,9.88-5.07,17.08-13.71,20.28-24.32,53.27-176.48,31.45-325.27,3.76-419.01-35.21-119.21-94.01-202.32-137.29-240.34-10.08-8.87-27.75-16.24-52.51-21.91-72.64-16.64-207.22-23.61-389.22-20.16-6.96.14-12.88.2-18.12.2-79.03,0-91.55,73.82-97.57,109.3-.81,4.76-1.47,8.67-2.17,11.68,1.59-.09,3.28-.1,4.62.23,1.61.41,2.58,2.04,2.18,3.64-.4,1.61-2.03,2.58-3.64,2.18-.86-.22-3.01-.06-4.3.04-1.81.13-2.82.21-3.75-.12-.82-.29-1.48-.9-1.83-1.68-.33-.74-.35-1.65-.05-2.41h0c1-2.54,1.9-7.85,3.04-14.57,2.93-17.26,7.83-46.14,22.31-70.17,17.65-29.28,44.96-44.13,81.17-44.13,5.19,0,11.08-.07,18-.2,182.48-3.47,317.57,3.55,390.67,20.31,26.11,5.98,44.14,13.59,55.13,23.25,43.91,38.58,103.51,122.71,139.08,243.15,27.92,94.52,49.93,244.54-3.77,422.44-3.68,12.18-11.95,22.1-23.28,27.92-6.72,3.45-13.98,5.19-21.29,5.19Z" fill="#2b2b2b"/><path d="M215.07,402.5c-.97,0-1.75-.76-1.75-1.73v-211.03c0-.97.78-1.75,1.75-1.75s1.75.78,1.75,1.75v210.99c0,.97-.78,1.77-1.75,1.77Z" fill="#2b2b2b"/><path d="M709.3,886.5c-1.66,0-3-1.34-3-3,0-1.66,1.34-3,3-3,19.23,0,31.64-7.48,36.88-22.2,3.34-9.38,2.4-18.36,2.38-18.45,0-.03,0-.07,0-.11l-6.91-90.4-41.81-537.38c-.41-2.47-4.78-30.11.06-57.54,3.2-18.23,9.78-32.16,19.56-41.41,12.58-11.92,30.26-15.88,52.53-11.77,1.63.3,2.71,1.87,2.41,3.5-.3,1.63-1.87,2.71-3.5,2.41-20.28-3.75-36.2-.3-47.31,10.23-8.83,8.34-14.81,21.16-17.78,38.09-4.78,27.08-.08,55.35-.03,55.63.02.09.03.18.03.27l41.82,537.52,6.91,90.36c.1.97,1.01,10.66-2.7,21.07-4.25,11.94-15.08,26.17-42.54,26.18Z" fill="#2b2b2b"/><path d="M655.52,211.11s-.04,0-.06,0c-.97-.04-1.72-.85-1.69-1.81.01-.33,1.28-33.02,9.59-65.03,11.16-43.02,29.91-65.27,54.33-64.39,1.25.04,2.58.15,3.95.33.96.13,1.63,1.01,1.5,1.96-.13.96-1.01,1.63-1.96,1.5-1.25-.17-2.46-.27-3.61-.31-28.46-1.05-43.34,32.99-50.81,61.73-8.22,31.65-9.48,64.01-9.49,64.33-.03.94-.81,1.69-1.75,1.69Z" fill="#2b2b2b"/><path d="M231.44,188.85s-.07,0-.11,0c-.96-.06-1.7-.89-1.64-1.85,3.43-57.31,29.79-88.5,51.3-104.57,23.32-17.43,45.5-21.22,46.44-21.37.96-.17,1.85.49,2.01,1.44.16.95-.49,1.85-1.44,2.01-.22.04-22.39,3.84-45.04,20.82-20.86,15.63-46.42,46-49.77,101.88-.06.93-.83,1.65-1.75,1.65Z" fill="#2b2b2b"/><path d="M513.49,962.49c-14.12,0-31.47-1.23-50.53-5.22l-58.74-9.88-249.6-40.98c-.06,0-.12-.02-.18-.03l-48.8-11.08c-3.3-.56-6.49-1.32-9.48-2.25-.09-.03-.18-.05-.27-.08-.04,0-.11-.03-.14-.04-18.18-5.71-30.77-22.52-31.33-41.85l-6.06-220.97c-1.03-19.46,12.7-39.13,13.29-39.96.96-1.35,2.82-1.68,4.18-.72,1.35.96,1.68,2.83.72,4.18-.13.19-13.11,18.82-12.19,36.25l6.06,221.05c.49,16.76,11.39,31.35,27.13,36.29l.13.04c.06.02.14.04.2.06,2.78.87,5.76,1.57,8.85,2.1.05,0,.11.02.16.03l48.79,11.08,249.52,40.97,58.81,9.89s.08.01.12.02c28,5.88,52.21,5.63,67.59,4.39,8.96-.73,14.75-1.79,16.09-2.05l144.04-64.62s.1-.04.15-.06c4.84-1.86,9.03-4.55,12.44-8.01,15.45-15.59,11.8-42.61,11.76-42.89,0-.07-.02-.15-.02-.22l-29.41-432.2-12.48-183.5c-.33-4.85-4.18-8.75-8.96-9.07-3.19-.21-6.42-.22-9.61-.05-2.67.16-5.33.46-7.9.89-44.13,7.37-73.73,54.44-90.79,92.62-17.82,39.89-26.04,78.69-26.84,82.57l2.78,114.89,10.76,444.88c.04,1.66-1.27,3.03-2.93,3.07-.02,0-.05,0-.07,0-1.62,0-2.96-1.3-3-2.93l-11.78-487.02-1.77-73.09c0-.22.01-.44.06-.65.08-.41,8.31-41.62,27.27-84.07,11.17-25.03,23.85-45.63,37.67-61.22,17.49-19.73,36.88-31.5,57.66-34.96,2.77-.46,5.65-.79,8.54-.96,3.44-.19,6.91-.17,10.35.05,7.76.52,14.01,6.81,14.55,14.65l12.48,183.5,29.4,432.09c.32,2.36,3.73,30.49-13.45,47.84-4,4.04-8.87,7.19-14.48,9.36l-144.28,64.73c-.19.09-.4.15-.61.2-.26.06-6.49,1.36-17.15,2.23-5.29.43-11.59.74-18.72.74Z" fill="#2b2b2b"/><path d="M507.19,956.35c-.95,0-1.73-.76-1.75-1.71l-6.35-280.8c-.45-19.92-15.73-36.54-35.54-38.67l-334.06-35.84c-22.85-2.45-61.54,9.5-66.11,30.41-.21.94-1.14,1.54-2.08,1.34-.94-.21-1.54-1.14-1.33-2.08,5.04-23.04,45.26-35.79,69.91-33.15l334.06,35.84c21.55,2.32,38.18,20.4,38.66,42.07l6.35,280.8c.02.97-.74,1.77-1.71,1.79h-.04Z" fill="#2b2b2b"/><path d="M531.69,958.15c-.94,0-1.72-.75-1.75-1.7l-9.56-313.01c-4.59-35.09-43.35-37.22-43.74-37.24-.04,0-.07,0-.1,0l-320.29-33.63c-42.44-4.73-66.33,1.19-79.87,19.8-.57.78-1.66.95-2.45.39-.78-.57-.95-1.66-.38-2.44,14.38-19.76,39.23-26.11,83.08-21.22l320.24,33.62c1.87.11,42.18,3.01,47,40.37,0,.06.01.11.01.17l9.56,313.1c.03.97-.73,1.77-1.7,1.8-.02,0-.04,0-.05,0Z" fill="#2b2b2b"/><path d="M428.16,499.52c-55.3,0-116.61-4.3-183.17-12.86-77.65-9.99-141.61-23.21-168.92-28.85l-4.82-1c-1.69-.35-3.16-1.3-4.13-2.69-.56-.79-.37-1.88.42-2.44.79-.56,1.88-.37,2.44.42.33.46.93,1.06,1.98,1.27l4.82,1c167.97,34.71,310.12,47.83,422.51,39,9.03-.71,18.05-12.38,22.62-22.93.38-.89,1.41-1.3,2.3-.91.89.38,1.29,1.41.91,2.3-3.83,8.85-13.53,24.08-25.56,25.03-22.51,1.77-46.34,2.65-71.4,2.65Z" fill="#2b2b2b"/><path d="M67.64,453.59c-1.55,0-2.86-1.19-2.99-2.76-.22-2.76.98-5.4,3.23-7.06.11-.08.23-.15.35-.22l19.15-10.43c1.46-.79,3.28-.25,4.07,1.2.79,1.46.25,3.28-1.2,4.07l-18.93,10.31c-.66.56-.71,1.26-.68,1.64.13,1.65-1.1,3.1-2.75,3.23-.08,0-.16,0-.25,0Z" fill="#2b2b2b"/><path d="M432.52,473.96c-79.61,0-153.67-6.96-207.72-13.91-80.47-10.34-135.12-22.85-135.66-22.98-.94-.22-1.53-1.16-1.31-2.1.22-.94,1.16-1.53,2.1-1.31.54.12,55.06,12.61,135.37,22.92,74.1,9.52,185.94,19.08,297.92,10.59l1.17-.09c.96-.07,1.81.65,1.88,1.61.07.96-.65,1.81-1.61,1.88l-1.17.09c-30.58,2.32-61.17,3.29-90.97,3.29Z" fill="#2b2b2b"/><path d="M522.13,645.05c-.89,0-1.65-.67-1.74-1.57l-14.94-146.99c-.1-.96.6-1.82,1.56-1.92.96-.09,1.82.6,1.92,1.56l14.94,146.99c.1.96-.6,1.82-1.56,1.92-.06,0-.12,0-.18,0Z" fill="#2b2b2b"/><path d="M74.14,593.72c-1.61,0-2.94-1.27-3-2.89-1.75-47.94-6.42-136.33-6.62-140.07l-.03-.48c-.1-1.65,1.15-3.08,2.8-3.18,1.64-.12,3.08,1.15,3.18,2.8l.03.53c.2,3.75,4.87,92.2,6.62,140.18.06,1.66-1.23,3.05-2.89,3.11-.04,0-.07,0-.11,0Z" fill="#2b2b2b"/><path d="M89.53,438.37c-1.44,0-2.71-1.04-2.95-2.5-6.25-36.94-4.54-77.01-4.52-77.42.07-1.66,1.47-2.91,3.13-2.86,1.66.07,2.94,1.48,2.86,3.13-.02.39-1.7,39.85,4.44,76.14.28,1.63-.82,3.18-2.46,3.46-.17.03-.34.04-.5.04Z" fill="#2b2b2b"/><path d="M647.01,210.66s-.06,0-.09,0l-405.43-20.05c-3.55-.31-6.73-.26-9.51.13-9.23,1.33-12.53,6.33-15.36,11.78-.08.17-.18.35-.28.53-.45.85-1.51,1.18-2.37.73-.85-.45-1.18-1.51-.73-2.37.08-.16.17-.32.25-.48,3.15-6.06,7.12-12.09,17.99-13.66,3.04-.43,6.49-.49,10.24-.16l405.37,20.04c.97.05,1.71.87,1.66,1.83-.05.94-.82,1.66-1.75,1.66Z" fill="#2b2b2b"/><path d="M419.05,905.35l-285.5-47.18.61-186.27,287.33,30.85-.02,1.59-2.42,201.01ZM137.06,855.2l278.54,46.03,2.35-195.34-280.3-30.1-.59,179.41Z" fill="#2b2b2b"/></svg>