<?xml version="1.0" encoding="UTF-8"?><svg id="_レイヤー_12" xmlns="http://www.w3.org/2000/svg" width="850" height="1000" viewBox="0 0 850 1000"><path d="M451.12,276.49c-89.03,0-172.76-8.6-235.75-24.2-63.72-15.79-98.81-37.1-98.81-60.01s35.09-44.22,98.81-60.01c63-15.61,146.72-24.2,235.75-24.2s172.76,8.6,235.76,24.2c63.72,15.79,98.81,37.1,98.81,60.01s-35.09,44.22-98.81,60.01c-63,15.61-146.72,24.2-235.76,24.2ZM451.12,111.57c-88.76,0-172.18,8.56-234.91,24.1-61.1,15.14-96.15,35.77-96.15,56.61s35.05,41.47,96.15,56.61c62.73,15.54,146.15,24.1,234.91,24.1s172.19-8.56,234.92-24.1c61.11-15.14,96.15-35.77,96.15-56.61s-35.05-41.47-96.15-56.61c-62.73-15.54-146.16-24.1-234.92-24.1Z" fill="#2b2b2b"/><path d="M458.59,905.57c-61.87,0-115.16-5.94-158.41-17.66-34.78-9.42-63.22-22.59-84.52-39.14-36.09-28.04-39.47-56.04-39.68-58.19l-21.24-151.21c-.23-1.64.91-3.16,2.55-3.39,1.64-.24,3.16.91,3.39,2.55l21.25,151.28c0,.05.01.11.02.16.02.26,2.9,27.52,37.96,54.49,32.68,25.13,100.61,55.09,238.68,55.09s204.02-30.58,235.06-56.22c33.27-27.49,34.4-55.29,34.41-55.57,0-.11.01-.22.03-.33l71.7-532.98c.22-1.64,1.73-2.78,3.37-2.57,1.64.22,2.79,1.73,2.57,3.37l-71.68,532.83c-.11,2.8-2.08,31.08-36.03,59.41-20.28,16.92-47.9,30.39-82.11,40.02-42.51,11.97-95.45,18.04-157.33,18.04Z" fill="#2b2b2b"/><path d="M145.61,555.89c-1.47,0-2.76-1.08-2.97-2.58l-41.58-295.97c-.23-1.63.89-3.17,2.52-3.41,1.61-.25,3.14.83,3.4,2.46v.06s41.6,296.03,41.6,296.03c.23,1.64-.91,3.16-2.55,3.39-.14.02-.28.03-.42.03Z" fill="#2b2b2b"/><path d="M281.18,683.32c-3.02,0-5.9-.55-7.47-1.15l-44.11-12.84c-25.04-7.29-49.6-16.74-73-28.08-5.86-2.84-11.73-5.83-17.42-8.88l-36.48-17.28c-.13-.06-.27-.14-.39-.22-4.78-3.21-9.56-8.97-7.49-14.7l2.26-10.03c-36.62-33.07-58.56-76.65-65.21-129.55-5.46-43.36-1.42-93.99,12-150.48,11.33-47.71,26.6-87.51,34.69-106.99.64-1.53,2.39-2.25,3.92-1.62,1.53.64,2.26,2.39,1.62,3.92-14.09,33.94-59.09,152.6-46.27,254.42,6.55,52.05,28.27,94.77,64.56,126.99.82.72,1.18,1.84.94,2.9l-2.69,11.95c-.03.15-.08.3-.14.44-.82,2.08,1.86,5.48,4.99,7.64l36.34,17.21s.09.04.13.07c5.64,3.03,11.45,5.99,17.27,8.8,23.1,11.2,47.35,20.52,72.06,27.72l44.25,12.88c.1.03.21.07.31.11,1.65.68,6.89,1.22,9.45.13.47-.2.72-.4.8-.53l2.62-8.89c.41-1.4,1.78-2.29,3.23-2.13.83.1,83.69,9.41,181.81-23.41,90.43-30.24,212.75-103.53,281.95-280.94,3.93-10.08,7.68-20.47,11.15-30.87l.16-.49c3.01-9.01,4.75-15.59-.29-18.21l-5.49-2.86c-4.43-2.31-14.45-3.33-18.02-.31l-8.41,15.11c-.52,1.54-.76,5.54-.33,6.91,1.04.77,1.5,2.15,1.05,3.42,0,0-.27.75-.8,2.16-.56,1.47-1.35,3.48-2.41,6.05-.01.04-.03.07-.05.1-3.81,8.28-7.88,16.68-12.1,24.95-57.15,111.67-137.82,188.75-239.76,229.1-80.92,32.03-150.97,30.94-177.34,30.53h-.29c-.85-.02-1.66-.39-2.22-1.04-.56-.65-.82-1.5-.71-2.35l.5-3.92c.14-3.41-1.33-4.19-4.15-5.32l-41.5-10.8c-31.48-8.9-62.03-21.12-90.84-36.31l-40.75-21.49c-.31-.08-.69.04-.96.15-.97.42-2.32,1.64-3.16,3.78l-.96,2.39c-.58,1.46-2.19,2.22-3.69,1.75-.68-.21-16.73-5.51-32.11-27.51-13.93-19.92-29.99-58.13-27.44-127.05,1.43-38.86,12.71-96.11,30.94-157.05.47-1.59,2.14-2.49,3.73-2.01,1.59.47,2.49,2.15,2.01,3.73-18.09,60.48-29.28,117.17-30.7,155.55-2.48,66.85,12.79,103.74,26.03,122.92,10.73,15.54,21.89,22.23,26.79,24.61,1.33-3.08,3.56-5.48,6.16-6.61,1.89-.82,3.9-.89,5.65-.19.1.04.2.08.29.13l40.95,21.59c28.45,15,58.6,27.05,89.62,35.83l41.62,10.83c.12.03.24.07.36.12,3.02,1.21,8.49,3.39,8.08,11.38,0,.08-.01.15-.02.23l-.09.7c1.77.02,3.57.03,5.34.03,178.03,0,317.33-88.51,403.26-256.43,4.18-8.18,8.21-16.48,11.97-24.67,1.03-2.48,1.78-4.43,2.33-5.84.06-.15.11-.3.16-.43-1.97-3.79-.62-10.7,0-12.27.05-.12.11-.25.17-.36l8.76-15.73c.13-.24.3-.46.5-.66,6.04-6.04,19.89-3.84,25.31-1.01l5.49,2.86c9.97,5.19,6.06,16.89,3.21,25.43l-.16.49c-3.5,10.49-7.29,20.97-11.25,31.15-30.94,79.31-74.89,144.87-130.65,194.86-44.63,40.01-96.85,70.19-155.23,89.67-89.72,29.95-166.9,25.13-181.65,23.84l-1.98,6.72c-.03.09-.06.17-.09.26-.47,1.19-1.57,2.84-4.07,3.9-1.9.8-4.21,1.1-6.44,1.1Z" fill="#2b2b2b"/><path d="M449.03,295.36c-98.41,0-190.96-10.17-260.61-28.64-70.85-18.79-109.86-44.29-109.86-71.82s39.02-53.03,109.86-71.82c69.65-18.47,162.2-28.65,260.61-28.65s190.96,10.17,260.61,28.65c70.84,18.79,109.86,44.3,109.86,71.82s-39.02,53.03-109.86,71.82c-69.65,18.47-162.2,28.64-260.61,28.64ZM449.03,100.43c-97.9,0-189.91,10.1-259.07,28.44-66.98,17.77-105.4,41.83-105.4,66.03s38.42,48.25,105.4,66.02c69.16,18.34,161.17,28.44,259.07,28.44s189.91-10.1,259.07-28.44c66.98-17.76,105.4-41.83,105.4-66.02s-38.42-48.26-105.4-66.03c-69.16-18.34-161.17-28.44-259.07-28.44Z" fill="#2b2b2b"/><path d="M424.54,327.93c-205.54,0-290.21-43.02-322.38-68.66-3.63-2.89-6.9-5.82-9.71-8.7-2.21-2.23-4.16-4.47-5.78-6.65-2.28-3.01-3.8-5.71-4.4-7.8-2.29-8.03-3.18-21.7-3.51-31.75-.19-5.49-.19-9.31-.19-9.47,0-1.66,1.34-3,3-3s3,1.34,3,3c0,.04,0,3.89.19,9.27.46,13.74,1.63,24.5,3.29,30.31.14.5.81,2.38,3.42,5.83,1.47,1.97,3.25,4,5.27,6.05,2.65,2.71,5.73,5.47,9.17,8.21,15.2,12.11,44.38,29.51,97.09,43.6,58.97,15.76,133.51,23.76,221.55,23.76,115.41,0,208.91-8.85,277.9-26.3,3.44-.88,6.89-1.79,10.24-2.71,28.13-7.77,51.12-16.95,68.33-27.3,7.18-4.31,13.35-8.85,18.35-13.48,6.37-5.91,10.79-11.95,13.16-17.94.03-.07.05-.13.08-.19.01-.03,3.52-8.6.91-38.85-.14-1.65,1.08-3.1,2.73-3.25,1.66-.13,3.1,1.08,3.25,2.73,2.66,30.89-.78,40.38-1.42,41.83-2.7,6.81-7.63,13.57-14.63,20.07-5.3,4.91-11.8,9.7-19.34,14.22-17.68,10.63-41.17,20.03-69.83,27.94-3.39.93-6.87,1.86-10.36,2.75-69.48,17.57-163.48,26.48-279.38,26.48Z" fill="#2b2b2b"/><path d="M758.53,364.88c-1.1,0-2.16-.61-2.69-1.66-.74-1.48-.13-3.28,1.35-4.02,12.81-6.38,20.77-19.24,20.77-33.55,0-.06,0-.13,0-.19l3.58-56.23c.11-1.65,1.56-2.91,3.18-2.8,1.65.11,2.91,1.53,2.8,3.18l-3.57,56.14c-.04,16.57-9.26,31.44-24.09,38.83-.43.21-.89.32-1.34.32Z" fill="#2b2b2b"/><path d="M716.05,366.72c-.94,0-1.72-.75-1.75-1.69l-2.31-68.22c-.03-.97.72-1.78,1.69-1.81.02,0,.04,0,.06,0,.94,0,1.72.75,1.75,1.69l2.31,68.22c.03.97-.72,1.78-1.69,1.81-.02,0-.04,0-.06,0Z" fill="#2b2b2b"/><path d="M709.57,368.11c-.78,0-1.94-.23-3.03-1.32-1.39-1.4-4.29-4.3-5.68-35.26-.68-15.04-.68-30.12-.68-32.99v-.34c0-1.66,1.34-3,3-3s3,1.34,3,3v.35c-.06,32.01,1.78,58.71,4.33,63.57,2.4,0,3.84-.01,4.71-.02.3-.09.63-.12.95-.12,3.28.13,3.63,2.18,3.63,3.06,0,2.99-3.04,3.04-4.35,3.05-1.07.02-2.89.03-5.88.03ZM710.81,362.58h0,0Z" fill="#2b2b2b"/><path d="M291.59,669.86c-.79,0-1.51-.54-1.7-1.34-8.34-34.66,11.21-46.2,12.05-46.67.84-.48,1.91-.18,2.39.66s.18,1.91-.66,2.38c-.77.44-18.06,10.87-10.38,42.81.23.94-.35,1.88-1.29,2.11-.14.03-.28.05-.41.05Z" fill="#2b2b2b"/><path d="M101.37,591.77s-.08,0-.12,0c-.96-.07-1.69-.9-1.63-1.86,0,0,.02-.32.09-.92.44-4.06,3.22-25.06,14.87-39.15.31-.39.66-.79,1.01-1.19.64-.72,1.75-.78,2.47-.14.72.64.78,1.75.14,2.47-.31.35-.62.7-.91,1.06-11.04,13.35-13.69,33.43-14.11,37.32-.05.49-.07.76-.07.78-.06.92-.83,1.63-1.74,1.63Z" fill="#2b2b2b"/></svg>