<?xml version="1.0" encoding="UTF-8"?><svg id="_レイヤー_12" xmlns="http://www.w3.org/2000/svg" width="2000" height="2000" viewBox="0 0 2000 2000"><path d="M1645.39,1140.05l-2.69,1.97c-10.61-.25-26.96,3.45-41.14-11.63-25.03-26.64-3.89-71.38-3.89-71.38,0,0,2.95-41.62,69.41-44.19,0,0,93.48,31.88,60.71,88.05l-.79.02c.25,9.44-2.25,20.38-13.63,25.28l-2.35.09.14,3.79s-2.68,18.56-20.69,17.07c-10.16,20.65-39.04-.82-39.04-.82l-6.04-8.24Z" fill="#f9e2cd"/><path d="M1676.32,1161.08c-12.56,0-26.04-9.9-26.68-10.38-.24-.18-.45-.39-.63-.63l-25.97-35.43c-.98-1.34-.69-3.21.65-4.19,1.33-.98,3.21-.69,4.19.65l25.69,35.05c2.36,1.66,16.19,10.99,26.2,8.56,3.29-.8,5.79-2.81,7.62-6.16l-2.65-24.82c-.18-1.65,1.02-3.13,2.66-3.3,1.64-.18,3.13,1.02,3.3,2.66l2.75,25.72c.06.56-.04,1.13-.29,1.64-2.66,5.42-6.7,8.81-11.99,10.09-1.58.38-3.21.55-4.85.55Z" fill="#2b2b2b"/><path d="M1692.48,1152.2c-.73,0-1.48-.03-2.26-.1-1.65-.14-2.88-1.59-2.74-3.24.14-1.65,1.6-2.88,3.24-2.74,14.07,1.16,17.06-12.21,17.43-14.28l-1.17-31.86c-.06-1.66,1.23-3.05,2.89-3.11,1.67-.06,3.05,1.23,3.11,2.89l1.18,32.16c0,.18,0,.36-.03.54-1.02,7.04-6.85,19.73-21.65,19.73Z" fill="#2b2b2b"/><path d="M1713.37,1131.17c-1.16,0-2.27-.68-2.76-1.82-.65-1.52.05-3.29,1.57-3.94,8.14-3.5,12.12-11.05,11.82-22.45-.2-8.25-2.66-15.41-2.68-15.48-.54-1.56.28-3.27,1.85-3.82,1.56-.55,3.27.28,3.82,1.84.11.33,2.79,8.08,3.01,17.31.36,13.88-4.98,23.6-15.44,28.11-.39.17-.79.25-1.18.25Z" fill="#2b2b2b"/><path d="M1727.79,1105.87c-.51,0-1.03-.13-1.51-.41-1.43-.83-1.91-2.67-1.08-4.1,6.93-11.88,8.36-23.52,4.24-34.58-11.6-31.14-62.81-48.94-63.33-49.12-1.57-.54-2.4-2.24-1.87-3.81.54-1.57,2.24-2.41,3.81-1.87,2.22.76,54.4,18.89,67.01,52.69,4.79,12.83,3.21,26.19-4.67,39.71-.56.96-1.56,1.49-2.59,1.49Z" fill="#2b2b2b"/><path d="M1631.32,1145.25c-9.69,0-21.39-1.58-31.95-12.81-18.81-20.02-11.61-52.82-7.64-66,.48-1.59,2.15-2.48,3.74-2.01,1.59.48,2.48,2.15,2.01,3.74-3.67,12.18-10.41,42.42,6.26,60.16,10.88,11.58,23.21,11.14,33.11,10.79,2.09-.07,4.07-.14,5.92-.1,1.66.04,2.97,1.41,2.93,3.07-.04,1.66-1.43,2.95-3.07,2.93-1.68-.04-3.57.03-5.57.1-1.81.06-3.73.13-5.75.13Z" fill="#2b2b2b"/><path d="M1831.57,1611.57c.87,4.92.27,9.76-1.53,14.11-2.38,5.78-6.85,10.68-12.73,13.71l-.21-.4s-10.07-110.85-66.33-259.36l-.11-1.9c2.09-.14,3.99-.18,5.71-.13,8.61.24,16.1,5.72,18.75,13.6,32.35,96.08,50.54,187.08,56.45,220.37Z" fill="#f4f4f4"/><path d="M1817.1,1638.99l.21.4-.06.03c-1.32.66-2.68,1.24-4.12,1.7-.19.07-.38.13-.58.19-.52.16-1.05.33-1.57.5-13.23,4.5-41.8,7.36-51.85-3.26-11.82-12.47-15.01-38.52-23.08-51.19-6.2-9.73-21.48-26.35-33.21-37.35-1.75-1.64-3.42-3.17-4.97-4.51-2.32-2.02-1.82-5.64.98-6.99.93-.45,1.82-.99,2.66-1.62.01,0,.02,0,.03-.02,16.16-11.93,15.94-55.09-19.71-119.75-.66-1.21-1.15-2.45-1.46-3.71-.1-.42-.19-.84-.25-1.27-1.03-6.74,2.68-13.64,9.54-16.55,29.37-12.46,48.45-16.97,60.82-17.85.06,0,.12-.01.18-.01l.11,1.9c56.26,148.51,66.33,259.36,66.33,259.36Z" fill="#ffac73"/><path d="M1681.83,1417.12c35.65,64.66,35.87,107.82,19.71,119.75-.01.01-.02.01-.03.02l-.51-.72c-5.65-5.1-14.97-8.65-21.47-7.99-26.96,2.73-70.2,11.45-115.22,21.68l-.42-1.74s10.29-62.84-23.21-108.76c2.02-.2,4.11-.38,6.25-.55,39.59-3.1,68.12,11.06,109.85-11.83,5.47-3,19.21-8.17,21.84-13.33l1.75-.24c.31,1.26.8,2.5,1.46,3.71Z" fill="#fff"/><path d="M1534.28,863.86l142.24,155.81-39.55,23.9-44.96,27.18-117.01-137.92-37.58-22.05-.47-.39c5.75-6.95,11.34-14.04,16.59-21.11,15.06-20.25,27.3-40.22,32.33-55.6l.45.15,27.68,13.76c8,4.38,14.88,9.9,20.28,16.27Z" fill="#f9e2cd"/><path d="M1563.89,1548.12l.42,1.74c-.72.17-1.45.33-2.17.49-84.42,19.27-156.64,18.66-185.51-11.45-6.8-7.08-15.42-15.15-22.72-31.4,41.98-10.5,99.29-29.75,148.2-63.42l.91,1.31s14.64-3.79,37.66-6.03c33.5,45.92,23.21,108.76,23.21,108.76Z" fill="#f9e2cd"/><path d="M1353.91,1507.5c-31.93,7.99-54.99,10.92-58.74,11.3-12.37-29.24-20.04-47.97-31.26-72.42l-.23-.17,14.8-19.7c16.8-22.35,38.28-40.9,63.26-53.47,27.88-14.04,86.39-79.14,96.67-150.86,56.42,108.36,105.13,187.24,105.13,187.24-12.6,12.98-26.63,24.48-41.43,34.66-48.91,33.67-106.22,52.92-148.2,63.42Z" fill="#2e4fa2"/><path d="M1276.71,372.61c3.67-3.58,7.8-6.72,12.32-9.34,15.93-9.2,34.67-21.04,52.29-38.94,9.03-9.17,17.77-19.94,25.69-32.76,0,0,17.81,45.51,2.94,85.37,0,0,117.8-33.6,141.45,27.5,0,0-47.78,1.99-52.11,19.65,0,0,39.4,83.18,41.6,130.32,0,0-88.01-47-96.89-37.2,0,0,23.19,81.86,9.2,96.03,0,0-59.57-19.39-109.16-83.24-11.59-14.9-22.62-32.23-32.23-52.29-1.62-3.4-3.21-6.87-4.75-10.43-7.51-17.33-10.76-36.29-8.95-55.1.08-.82.17-1.63.26-2.42,1.65-14.28,8.25-27.34,18.34-37.15Z" fill="#222"/><path d="M1391.26,959.15l.15.16c11.42,30.26,22.01,44.81,27.48,55.34,13.96,26.9,26.89,98.17-1.23,113.4-1.93,1.04-4.3,2.17-7.07,3.37-48.07,20.76-217.04,62.26-315.39,53.51-3.93-.35-7.75-.78-11.44-1.29-13.02-1.82-24.67-9.13-31.81-20.18-26.82-41.54-11.2-56.62-1.47-91.44,5.22-18.67,5.92-38.28,2.59-57.37-2.53-14.48-4.41-28.89-5.75-43.04l-.52.05-21.84,28.57c-11.32-2.41-34.63-15.87-59.74-33.82-15.27-10.91-31.21-23.49-45.53-36.25-14.81-13.18-27.89-26.56-36.71-38.49-5.11-6.91-8.79-13.33-10.56-18.96,0,0,164.8-166.24,222.5-171.52l2.22,2.33s-18.02,24.23.57,22.58c3.9-.35,7.64-1.72,10.95-3.81,14.88-9.36,73.6-44.45,131.81-53.69,2.81-.45,5.65-.54,8.45-.28,2.22.19,4.41.6,6.56,1.24,1.17.34,2.34.75,3.48,1.23,13.63,5.68,32.48,18.05,53.61,51.99l-.46,1.03h0c76.27,33.27,176.09,99.63,176.09,99.63-.32,3.11-1.11,6.54-2.33,10.24-5.03,15.38-17.27,35.35-32.33,55.6-5.25,7.07-10.84,14.16-16.59,21.11-6.77,8.19-13.76,16.16-20.65,23.61-8.7,9.41-17.25,18-25.04,25.15Z" fill="#fff"/><path d="M1438.41,1222.18c-10.28,71.72-68.79,136.82-96.67,150.86-24.98,12.57-46.46,31.12-63.26,53.47l-14.8,19.7-100.06,133.18s-39.57-20.32-86.99-52.35c-31.65-21.38-66.8-47.96-95.99-77.21h-.01c-3.84-3.85-7.55-7.73-11.16-11.65-15.88-17.28-29.36-35.33-38.62-53.66l3.96-4.4,152.16-169.27,8.23-25.92c98.35,8.75,267.32-32.75,315.39-53.51,2.77-1.2,5.14-2.33,7.07-3.37,20.52,30.17,25.25,62.78,20.75,94.13Z" fill="#2e4fa2"/><path d="M1163.68,439.31c.83,45.56-13.89,83.83-13.89,83.83-1.9-15.95-20.29-43.1-43.76-72-41.22,9.53-80.82-6.31-112.06-26.83-38.94-25.57-64.92-58.37-64.92-58.37-17.01,30.64.99,114.62.99,114.62-6.56-4.43-12.58-8.86-18.11-13.26-109.27-87.26-21.39-167.78-21.39-167.78,0,0,11.36-77.17,148.64-113.89,175.14-46.86,254.57,13.44,302.14,138.7-17.62,17.9-36.36,29.74-52.29,38.94-4.52,2.62-8.65,5.76-12.32,9.34-15.55,8.34-68.52,43.27-4.9,105.1,9.61,20.06,20.64,37.39,32.23,52.29l-.25.2c-21.84,24.12-41.67,41.91-55.25,57.85-7.06,8.29-9.44,18.49-9.26,28.83h-.94c-19.31-26.43-41.38-36.71-41.38-36.71h-1.18c11.19-9.44,20.33-23.39,26.86-35.65.72-1.35,1.42-2.71,2.08-4.09,7.49-15.51,11.52-32.48,11.77-49.75.68-46.34-14.93-60.57-31.74-62.6-19.13-2.31-39.84,11.22-39.84,11.22h-1.23Z" fill="#222"/><path d="M1267.06,467.28c1.54,3.56,3.13,7.03,4.75,10.43-63.62-61.83-10.65-96.76,4.9-105.1-10.09,9.81-16.69,22.87-18.34,37.15-.09.79-.18,1.6-.26,2.42-1.81,18.81,1.44,37.77,8.95,55.1Z" fill="#ffce76"/><path d="M1195.78,580.16h1.18s22.07,10.29,41.38,36.73h.94c.45,25.49,16.48,51.75,16.48,51.75l-.28.92c-2.15-.64-4.34-1.05-6.56-1.24-2.8-.26-5.64-.17-8.45.28-58.21,9.24-116.93,44.33-131.81,53.69-3.31,2.09-7.05,3.46-10.95,3.81-18.59,1.65-.57-22.58-.57-22.58l1.4-.04c-.74-6.13-3.36-14.33-10.17-24.37l-.2-.55c-13.81,5.15-29.8,8.89-48.23,10.29-18.88,1.98-34.79-1.21-48-7.47h0s.34-.71.34-.71c0,0,86.64-17.33,69.91-110.84l-123.46,39.13c-1.78-10.28-7.4-19.48-15.77-25.68l-23.2-20.93c20.53-18.59,33.52-44.23,26.02-63.86-2.35-6.16-12.11-20.28-13.96-31.05l.11-.14c5.53,4.4,11.55,8.83,18.11,13.26,0,0-18-83.98-.99-114.62,0,0,25.98,32.8,64.92,58.37,31.24,20.52,70.84,36.36,112.06,26.83,23.47,28.9,41.86,56.05,43.76,72,0,0,14.72-38.27,13.89-83.83h1.23s20.71-13.54,39.84-11.23c16.81,2.03,32.42,16.26,31.74,62.6-.25,17.27-4.28,34.24-11.77,49.75-.66,1.38-1.36,2.74-2.08,4.09-6.53,12.26-15.67,26.21-26.86,35.64ZM1039.65,543.29c2.71-.77,4.53-3.09,4.42-5.65-.77-17.51-5.76-82.84-36.93-78.36-31.51,4.51-14.34,69.55-9.35,85.56.7,2.24,3.88,3.66,6.46,3.76,13.08.51,28.05-3.19,35.4-5.31Z" fill="#f9e2cd"/><path d="M1076.63,1527.04l-20.78,20.21c-33.76,53.61-70.95,84.8-107.29,114.97l-.94-1.14c-56.14-18.9-84.13-70.12-84.13-70.12l-1.38-1.23c.49-.56.98-1.11,1.48-1.67,57.43-65.01,116.24-137.44,116.24-137.44l.8-.8h.01c29.19,29.26,64.34,55.84,95.99,77.22Z" fill="#f9e2cd"/><path d="M1062.19,569.83c16.73,93.51-69.91,110.84-69.91,110.84l-.34.7c-26.64-12.6-42.34-37.69-49.43-58.13l1.15-.39s56.93-7.42,118.53-53.02Z" fill="#e57373"/><path d="M938.73,608.96l123.46-39.13c-61.6,45.6-118.53,53.02-118.53,53.02l-1.15.39c-1.8-5.15-3.04-10-3.78-14.28Z" fill="#fff"/><path d="M1044.07,537.64c.11,2.56-1.71,4.88-4.42,5.65-7.35,2.12-22.32,5.82-35.4,5.31-2.58-.1-5.76-1.52-6.46-3.76-4.99-16.01-22.16-81.05,9.35-85.56,31.17-4.48,36.16,60.85,36.93,78.36Z"/><path d="M947.62,1661.08l.94,1.14c-30.56,25.36-60.52,49.99-87.35,86.61-3.69,5.03-10.98,17.75-10.16,23.48l-2.08.1c-1.01-.89-2.15-1.67-3.41-2.31-67.84-34.29-93.86-70.78-87.8-90.22l.86.28c7.67,1.08,17.41-1.29,22.33-5.6,20.39-17.86,50.5-50.19,81.15-84.82h0s1.38,1.22,1.38,1.22c0,0,27.99,51.22,84.13,70.12Z" fill="#fff"/><path d="M919.69,930.16c14.32,12.76,30.26,25.34,45.53,36.25,0,0-29.61,34.43-103.67,42.72-41.12,4.61-118.34-21.69-152.4-50.45-34.06-28.75,35.85-66.59,35.85-66.59l112.16,22.2,25.27-22.2.55-.42c8.82,11.93,21.9,25.31,36.71,38.49Z" fill="#f9e2cd"/><path d="M849.94,1773.34c4.87,5.12,5.97,13.1,2.11,19.53-16.53,27.51-29.42,42.34-39,50.21l-1.37-1.43c-134.87-93.53-209.47-181.76-209.47-181.76l-.41-.19s.03-.05.04-.08c.67-1.32,1.45-2.6,2.34-3.82.12-.17.24-.33.36-.49.33-.45.66-.89.98-1.34,8.12-11.44,29.75-30.34,44.32-27.13,17.12,3.77,35.32,24.02,49.5,30.11,10.89,4.68,33.33,9.97,49.49,12.54,2.42.38,4.69.71,6.77.96,3.1.37,4.86,3.73,3.38,6.49-.5.93-.9,1.91-1.22,2.94-6.06,19.44,19.96,55.93,87.8,90.22,1.26.64,2.4,1.42,3.41,2.31.34.3.66.61.97.93Z" fill="#ffac73"/><path d="M811.68,1841.65l1.37,1.43c-1.68,1.38-3.26,2.54-4.73,3.52-7.18,4.76-16.57,4.43-23.47-.73-83.94-62.84-153.28-129.54-178.05-154.37-3.65-3.67-6.06-8.13-7.2-12.85-1.5-6.26-.79-13,2.2-18.95l.41.19s74.6,88.23,209.47,181.76Z" fill="#f4f4f4"/><path d="M1026.28,436.77c-.5,0-1-.22-1.35-.63-10.23-12.32-20.13-15.92-29.43-10.7-.2.11-.4.23-.59.35-6.05,3.66-9.58,9.78-9.62,9.84-.48.84-1.54,1.13-2.39.66-.84-.48-1.14-1.54-.66-2.38.16-.28,3.99-6.97,10.82-11.09.21-.13.47-.28.72-.43,7.56-4.24,19.56-5.68,33.84,11.52.62.74.52,1.85-.23,2.46-.33.27-.72.4-1.12.4Z" fill="#2b2b2b"/><path d="M1124.41,1189.13c-10.34,0-20.21-.38-29.48-1.21-3.97-.35-7.87-.79-11.58-1.31-13.98-1.95-26.34-9.8-33.92-21.52-22.29-34.52-16.25-51.61-7.9-75.27,2.04-5.79,4.16-11.78,6.06-18.61,4.96-17.72,5.83-37.1,2.52-56.05-2.44-13.96-4.38-28.52-5.78-43.27-5.75-60.32-1.91-115.71,2.33-151.56,2.65-22.44,5.37-36.22,5.4-36.35.32-1.62,1.9-2.68,3.53-2.36,1.62.32,2.68,1.9,2.36,3.53-.03.13-2.7,13.71-5.32,35.89-4.2,35.56-8.01,90.5-2.31,150.29,1.38,14.6,3.31,29,5.72,42.81,3.46,19.82,2.54,40.12-2.66,58.69-1.96,7.02-4.11,13.11-6.19,18.99-8.07,22.87-13.4,37.98,7.29,70.02,6.63,10.26,17.46,17.12,29.71,18.84,3.61.5,7.41.93,11.29,1.27,9.17.82,18.95,1.19,29.18,1.2,99.44,0,241.57-35.82,284.76-54.47,2.68-1.16,4.98-2.26,6.84-3.26,15.11-8.18,15.77-34.52,14.82-49.49-1.55-24.5-8.78-48.21-14.83-59.88-1.33-2.55-2.98-5.38-4.89-8.65-5.93-10.15-14.06-24.04-22.73-47.01-.58-1.55.2-3.28,1.75-3.87,1.55-.59,3.28.2,3.87,1.75,8.49,22.5,16.47,36.14,22.3,46.1,1.96,3.34,3.64,6.23,5.04,8.92,7.75,14.93,14.12,40.53,15.5,62.27,1.27,20.04-.82,45.87-17.96,55.15-2.01,1.08-4.47,2.25-7.31,3.48-43.57,18.81-187,54.95-287.37,54.95Z" fill="#2b2b2b"/><path d="M1024.96,1003.23c-.21,0-.42-.02-.62-.07-11.47-2.44-34.22-15.27-60.86-34.31-16.09-11.5-31.92-24.1-45.78-36.45-15.94-14.18-28.77-27.65-37.13-38.95-5.51-7.45-9.21-14.12-11.01-19.84-.33-1.06-.05-2.22.73-3.01,6.76-6.82,166.24-167.08,224.36-172.4.91-.09,1.81.25,2.45.92l2.22,2.33c1.01,1.06,1.11,2.69.24,3.86-4.52,6.08-8.4,14.3-6.98,16.83.47.84,2.29,1.21,4.88.97,3.27-.29,6.6-1.46,9.61-3.36,16.47-10.36,74.72-44.87,132.94-54.12,3.04-.49,6.13-.59,9.2-.3,2.41.21,4.82.66,7.14,1.35,1.29.37,2.57.83,3.79,1.34,19.89,8.29,37.88,25.68,54.99,53.17.88,1.41.45,3.26-.96,4.13-1.41.88-3.26.44-4.13-.96-16.43-26.39-33.51-43.01-52.22-50.81-1.02-.43-2.08-.8-3.16-1.12-1.95-.58-3.95-.96-5.98-1.13-2.59-.24-5.18-.15-7.72.25-57.1,9.06-114.46,43.06-130.69,53.27-3.81,2.41-8.06,3.88-12.28,4.26-5.31.47-8.89-.88-10.65-4.02-3.25-5.81,2.18-15.56,5.49-20.59-55.23,8.86-201.47,153.58-216.95,169.02,1.77,4.72,4.97,10.22,9.52,16.38,8.11,10.97,20.66,24.12,36.29,38.03,13.71,12.21,29.36,24.68,45.28,36.05,24.23,17.32,45.64,29.69,56.81,32.87l20.64-27c1.01-1.32,2.89-1.57,4.21-.56,1.32,1.01,1.57,2.89.56,4.21l-21.84,28.57c-.57.75-1.46,1.18-2.38,1.18Z" fill="#2b2b2b"/><path d="M1163.62,1582.39c-.46,0-.93-.11-1.37-.33-.4-.2-40.27-20.77-87.3-52.53-38.72-26.16-71.17-52.26-96.43-77.58-3.74-3.74-7.52-7.68-11.25-11.74-17.15-18.67-30.31-36.95-39.09-54.34-.56-1.1-.38-2.44.45-3.36l3.96-4.4,151.73-168.79,8.14-25.63c.51-1.58,2.2-2.44,3.78-1.93,1.58.51,2.44,2.2,1.93,3.78l-.1.31-8.23,25.91c-.13.41-.34.78-.63,1.1l-154.74,172.13c8.53,16.36,21.04,33.56,37.22,51.16,3.68,3.99,7.4,7.88,11.07,11.55,25.01,25.06,57.15,50.91,95.56,76.85,40.38,27.28,75.44,46.23,84.44,51l113.33-150.84c17.39-23.13,39.63-41.93,64.31-54.35,26.98-13.59,84.98-78.35,95.05-148.61,4.89-34.1-1.92-65.05-20.26-92.02-.93-1.37-.58-3.24.79-4.17,1.37-.93,3.24-.58,4.17.79,19.21,28.24,26.35,60.62,21.24,96.24-5.85,40.84-26.22,76.05-42.27,98.38-18.14,25.24-40.13,46.72-56.02,54.73-23.86,12.01-45.37,30.19-62.21,52.59l-114.86,152.88c-.58.78-1.48,1.2-2.4,1.2Z" fill="#2b2b2b"/><path d="M1155.08,1543.05c-.27,0-.54-.06-.79-.19-64.06-32.59-112.82-73.96-142.45-102.92-32.12-31.4-49.33-55.44-49.5-55.67-.56-.79-.38-1.88.41-2.44.79-.56,1.88-.38,2.44.41.67.95,68.89,95.54,190.69,157.51.86.44,1.2,1.49.77,2.35-.31.61-.92.96-1.56.96Z" fill="#2b2b2b"/><path d="M1364.65,982.22c-.73,0-1.46-.27-2.02-.78l-152.33-139.1c-1.22-1.12-1.31-3.01-.19-4.24,1.12-1.22,3.02-1.31,4.24-.19l150.83,137.73c5.7-3,14.14-9.55,24.06-18.69,7.67-7.04,16.27-15.67,24.87-24.98,7.05-7.62,13.96-15.52,20.54-23.48,5.89-7.12,11.44-14.18,16.49-20.99,16.33-21.96,27.36-40.89,31.89-54.74.93-2.82,1.59-5.44,1.96-7.84-12.98-8.53-104.08-67.82-174.07-98.34-.07-.03-.14-.07-.21-.1-30.89-13.46-53.4-19.51-66.91-17.98-1.65.19-3.13-1-3.32-2.64s1-3.13,2.64-3.32c14.6-1.66,38.22,4.58,70.2,18.53.07.03.14.07.21.1,75.61,33.01,175.34,99.11,176.34,99.78.93.62,1.44,1.7,1.32,2.81-.34,3.28-1.17,6.94-2.47,10.87-5.98,18.27-21.12,40.78-32.77,56.45-5.12,6.89-10.73,14.03-16.69,21.23-6.65,8.05-13.64,16.04-20.76,23.73-8.71,9.42-17.43,18.18-25.21,25.32-8.1,7.46-19.43,17.1-27.43,20.61-.39.17-.8.25-1.2.25Z" fill="#2b2b2b"/><path d="M1365.55,941.67c-.5,0-.99-.21-1.34-.62-.63-.74-.53-1.84.2-2.47,51.81-43.94,92.05-112.17,92.45-112.86.49-.83,1.56-1.11,2.39-.63.83.49,1.11,1.56.63,2.39-.4.69-40.94,69.43-93.21,113.76-.33.28-.73.42-1.13.42Z" fill="#2b2b2b"/><path d="M1295.17,1521.8c-1.19,0-2.29-.71-2.76-1.83-2.38-5.63-4.59-10.87-6.68-15.84-8.66-20.56-15.5-36.8-24.54-56.5-.69-1.51-.03-3.29,1.48-3.98,1.51-.69,3.29-.03,3.98,1.48,9.08,19.79,15.94,36.06,24.62,56.67,1.83,4.35,3.75,8.91,5.8,13.76,6.58-.83,27.49-3.8,56.13-10.96,39.94-9.99,97.9-29.03,147.23-62.98,14.68-10.1,27.91-21.06,39.35-32.62-7.93-12.99-53.1-87.65-104.01-185.43l-.12-.22c-.74-1.48-.13-3.28,1.35-4.02,1.49-.74,3.29-.13,4.02,1.35.02.03.07.12.08.15,55.7,106.98,104.52,186.23,105,187.01.72,1.17.56,2.68-.4,3.67-12.08,12.45-26.18,24.24-41.88,35.04-50.06,34.46-108.75,53.75-149.17,63.86-35.13,8.79-58.94,11.35-59.17,11.38-.1.01-.2.02-.3.02Z" fill="#2b2b2b"/><path d="M762.46,1683.42c-1.45,0-2.88-.09-4.26-.29-1.64-.23-2.78-1.75-2.55-3.39s1.75-2.78,3.39-2.55c6.82.96,15.76-1.23,19.93-4.89,17.85-15.64,45.06-44.08,80.88-84.55,0-.01.02-.02.03-.03.49-.56.97-1.1,1.47-1.66,56.72-64.21,115.56-136.61,116.15-137.33,1.04-1.29,2.93-1.48,4.22-.44,1.29,1.04,1.48,2.93.44,4.22-.59.72-59.51,73.22-116.32,137.54-.5.56-.99,1.11-1.47,1.66-.03.03-.06.06-.08.09-35.92,40.59-63.32,69.22-81.36,85.02-4.61,4.04-12.85,6.6-20.46,6.6Z" fill="#2b2b2b"/><path d="M947.62,1662.83c-.19,0-.37-.03-.56-.09-56.14-18.9-84.82-70.42-85.11-70.94-.46-.85-.15-1.91.7-2.37.85-.46,1.91-.15,2.38.7.28.51,28.34,50.85,83.15,69.3.92.31,1.41,1.3,1.1,2.22-.25.73-.93,1.19-1.66,1.19Z" fill="#2b2b2b"/><path d="M851.04,1775.31c-1.47,0-2.75-1.08-2.97-2.58-1.1-7.7,8.17-22.21,10.71-25.68,26.63-36.34,55.67-60.44,86.42-85.95l1.44-1.19c35.76-29.69,72.75-60.4,106.67-114.26.13-.2.28-.39.45-.55l20.75-20.19c1.12-1.22,3.01-1.31,4.24-.2,1.22,1.12,1.31,3.01.2,4.24l-.1.11s-.08.09-.13.13l-20.52,19.96c-34.38,54.49-73.34,86.83-107.72,115.38l-1.44,1.19c-30.45,25.27-59.22,49.14-85.41,84.88-4.22,5.75-10.2,17.17-9.61,21.28.23,1.64-.9,3.16-2.54,3.4-.14.02-.29.03-.43.03Z" fill="#2b2b2b"/><path d="M797.13,1852.96c-4.96,0-9.92-1.57-14.08-4.68-88.31-66.11-158.86-135.09-178.38-154.65-3.93-3.95-6.69-8.88-7.99-14.26-1.69-7.06-.83-14.51,2.43-21,.01-.02.02-.04.03-.06,0-.01.01-.02.02-.03.75-1.48,1.62-2.9,2.59-4.23.11-.16.25-.34.38-.52l.27-.37c.22-.3.45-.61.67-.91,8.04-11.32,30.93-31.95,47.41-28.32,10.65,2.35,21.14,10.27,31.28,17.93,6.79,5.13,13.2,9.97,18.76,12.36,10.98,4.72,33.32,9.88,48.78,12.33,2.67.42,4.79.72,6.66.94,2.44.29,4.58,1.77,5.71,3.95,1.13,2.18,1.12,4.77-.05,6.94-.4.74-.72,1.53-1,2.41-5.76,18.48,22.03,54.17,86.29,86.65,1.47.74,2.82,1.66,4.04,2.74.4.35.78.72,1.14,1.09,5.94,6.24,6.97,15.76,2.53,23.16-14.48,24.11-27.83,41.26-39.67,50.98t0,0c-1.65,1.35-3.32,2.6-4.97,3.7-3.89,2.58-8.37,3.86-12.85,3.86ZM604.5,1661.01s-.01.02-.02.04c-2.63,5.23-3.32,11.23-1.96,16.9,1.04,4.31,3.26,8.26,6.41,11.43,19.44,19.49,89.73,88.21,177.72,154.08,5.89,4.41,13.94,4.66,20.01.63,1.48-.98,2.99-2.11,4.48-3.34h0c11.31-9.29,24.2-25.92,38.33-49.44,3.06-5.1,2.35-11.64-1.71-15.92-.24-.25-.5-.5-.78-.75-.84-.74-1.77-1.37-2.78-1.88-31.58-15.96-56.65-33.72-72.49-51.35-14.39-16.01-20.36-31.09-16.82-42.44.38-1.23.87-2.4,1.44-3.47.31-.58.14-1.08.01-1.33-.13-.25-.45-.68-1.1-.76-1.95-.23-4.13-.54-6.88-.98-15.82-2.52-38.79-7.84-50.21-12.75-6.22-2.67-12.92-7.73-20-13.08-9.63-7.27-19.59-14.79-28.96-16.86-12.95-2.84-33.73,15.37-41.23,25.94-.24.34-.48.67-.73,1l-.28.38c-.12.16-.23.3-.33.45-.81,1.1-1.51,2.25-2.11,3.45,0,.01-.01.02-.02.03ZM813.05,1843.08h.01-.01Z" fill="#2b2b2b"/><path d="M811.67,1844.65c-.59,0-1.19-.17-1.71-.54-133.65-92.68-209.3-181.4-210.05-182.29-1.07-1.27-.91-3.16.35-4.23s3.16-.91,4.23.35c.74.88,75.94,89.03,208.89,181.23,1.36.94,1.7,2.81.76,4.17-.58.84-1.52,1.29-2.47,1.29Z" fill="#2b2b2b"/><path d="M1299.21,1497.1c-.88,0-1.64-.67-1.74-1.56-.1-.96.59-1.82,1.55-1.93.31-.03,31.61-3.48,73.62-16.08,38.72-11.62,94.72-33.61,141.61-72.41.74-.62,1.85-.51,2.46.23.62.74.51,1.85-.23,2.46-47.37,39.2-103.86,61.38-142.92,73.09-42.3,12.68-73.86,16.16-74.17,16.19-.06,0-.13,0-.19,0Z" fill="#2b2b2b"/><path d="M1101.11,749.6c-14.35,0-23.41-7.12-23.92-7.53-1.29-1.04-1.49-2.93-.46-4.22,1.04-1.29,2.92-1.49,4.21-.46.6.48,14.7,11.37,35.56,3.13,5.79-2.29,14.33-7.67,24.22-13.9,28.26-17.82,70.97-44.75,112.36-39.29,1.64.22,2.8,1.72,2.58,3.37s-1.72,2.8-3.37,2.58c-39.23-5.17-80.84,21.06-108.37,38.42-10.56,6.66-18.9,11.92-25.22,14.41-6.46,2.55-12.38,3.49-17.6,3.49Z" fill="#2b2b2b"/><path d="M1028.99,692.44c-13.75,0-26.62-2.79-38.34-8.35-.07-.03-.14-.07-.21-.11-32.47-15.47-46.32-46.93-50.77-59.76-1.77-5.07-3.09-10.04-3.9-14.75-1.66-9.59-6.85-18.04-14.6-23.78-.08-.06-.15-.12-.22-.18l-23.2-20.93c-.63-.57-.99-1.38-.99-2.22,0-.85.36-1.66.99-2.23,17.89-16.2,32.63-41.21,25.23-60.57-.71-1.87-2.28-4.74-4.1-8.06-3.88-7.08-8.7-15.89-10.01-23.55-.28-1.63.82-3.18,2.45-3.46,1.63-.28,3.18.82,3.46,2.45,1.15,6.67,5.7,15,9.36,21.69,1.92,3.51,3.58,6.55,4.44,8.8,7.14,18.68-2.42,43.88-24.38,64.89l20.66,18.64c8.93,6.66,14.91,16.42,16.82,27.49.76,4.39,1.99,9.03,3.66,13.8,4.21,12.15,17.31,41.95,47.88,56.41.07.03.14.07.21.11,13.78,6.48,29.32,8.87,46.2,7.1,17-1.29,32.95-4.69,47.49-10.12,58.12-21.64,77.16-69.45,77.35-69.93.6-1.54,2.33-2.31,3.88-1.72,1.54.6,2.32,2.33,1.72,3.87-.79,2.06-20.09,50.77-80.85,73.4-15.07,5.62-31.57,9.14-49.05,10.47-3.78.4-7.51.6-11.17.6Z" fill="#2b2b2b"/><path d="M1149.79,526.14c-.12,0-.25,0-.37-.02-1.37-.17-2.44-1.25-2.61-2.62-1.11-9.29-9.48-29.06-43.11-70.46-44.91-55.32-109.3-117.91-109.95-118.54-1.19-1.15-1.22-3.05-.06-4.24,1.15-1.19,3.05-1.22,4.24-.06.65.63,65.29,63.46,110.43,119.06,22.11,27.23,36.1,48.49,41.73,63.41,4.21-14,11.16-42.04,10.59-73.29-.86-47.38-19.5-109.19-103.42-134.58-1.59-.48-2.48-2.15-2-3.74.48-1.59,2.15-2.48,3.74-2,87.38,26.44,106.79,90.84,107.68,140.22.83,45.62-13.48,83.38-14.09,84.96-.45,1.17-1.57,1.92-2.8,1.92Z" fill="#2b2b2b"/><path d="M1169.59,594.25c-1.64,0-2.98-1.32-3-2.97-.02-1.66,1.31-3.02,2.97-3.03,8.07-.09,16.24-3.58,24.29-10.38,11.45-9.65,20.54-24.23,26.15-34.76.8-1.5,1.44-2.76,2.02-3.97,7.27-15.05,11.23-31.82,11.48-48.5.54-37.14-9.25-57.18-29.1-59.58-17.84-2.15-37.64,10.62-37.84,10.75-1.39.91-3.25.52-4.15-.87-.91-1.39-.52-3.25.87-4.15.88-.58,21.85-14.1,41.84-11.69,16.09,1.94,35.12,14.91,34.38,65.62-.25,17.55-4.43,35.19-12.07,51.01-.61,1.28-1.29,2.62-2.13,4.2-5.86,11-15.4,26.26-27.57,36.52-9.14,7.72-18.59,11.69-28.09,11.8h-.03Z" fill="#2b2b2b"/><path d="M1183.43,563.07c-.42,0-.84-.15-1.18-.46-.71-.65-.76-1.76-.11-2.47,31.34-34.33,33.08-65.75,32.38-77.66-.68-11.5-4.32-20.9-10-25.81-14.82-12.86-33.55,4.47-34.34,5.21-.7.66-1.81.63-2.47-.07-.66-.7-.63-1.81.07-2.47.22-.2,21.82-20.24,39.04-5.31,6.39,5.52,10.47,15.82,11.2,28.25.73,12.36-1.05,44.92-33.29,80.23-.35.38-.82.57-1.29.57Z" fill="#2b2b2b"/><path d="M1096.98,719.52c-.5,0-1.01-.13-1.48-.39-1.43-.81-1.94-2.62-1.15-4.06.07-.13,2.06-4.06,1.2-11.23-.86-7.09-4.11-14.84-9.67-23.04-.93-1.37-.57-3.24.8-4.17,1.37-.93,3.24-.57,4.17.8,6.11,9,9.69,17.65,10.67,25.69,1.11,9.21-1.6,14.32-1.92,14.88-.55.97-1.57,1.52-2.61,1.52Z" fill="#2b2b2b"/><path d="M930.04,483.56c-.59,0-1.17-.17-1.68-.51-6.4-4.32-12.56-8.83-18.3-13.4-35.98-28.73-54.78-59.86-55.89-92.54-1.46-43.16,28.3-73.97,33.59-79.09.9-4.48,5.42-22.23,23.32-43.6,18.53-22.12,55.65-52.52,127.32-71.69,85.12-22.78,150.89-21.13,201.07,5.04,45.25,23.6,78.51,66.65,104.65,135.49l.06.17c.05.12.09.25.14.38.55,1.56-.27,3.28-1.83,3.83-1.56.55-3.28-.27-3.83-1.83l-.16-.43c-25.58-67.36-57.93-109.4-101.81-132.28-48.78-25.44-113.14-26.94-196.75-4.57-70.16,18.77-106.31,48.28-124.28,69.74-19.23,22.97-22.15,41.5-22.17,41.69-.1.68-.43,1.31-.94,1.77-.34.31-33.9,31.67-32.39,75.23,1.07,30.82,19.11,60.43,53.63,87.99,3.78,3.01,7.75,6,11.86,8.92-3.99-21.38-13.78-83.19.77-109.39.49-.88,1.38-1.45,2.38-1.53,1-.09,1.97.34,2.6,1.13.26.32,26.16,32.74,64.21,57.73,38.69,25.42,75.62,34.3,109.74,26.42.07-.02.15-.03.22-.04.1-.02.2-.04.3-.07l.25-.06c1.62-.37,3.23.63,3.6,2.25.37,1.61-.63,3.23-2.25,3.6l-.18.04c-.23.06-.45.11-.68.15-35.75,8.24-74.21-.94-114.29-27.27-31.29-20.55-54.53-46.01-62.57-55.36-12.9,32.18,3.05,107.68,3.22,108.47.26,1.2-.24,2.43-1.25,3.12-.51.34-1.09.51-1.68.51Z" fill="#2b2b2b"/><path d="M1255.76,671.64c-1.01,0-2-.51-2.56-1.44-.67-1.1-16.46-27.25-16.92-53.27-.22-12.43,3.14-22.8,9.98-30.83,6.97-8.19,15.39-16.67,25.14-26.48,9.13-9.2,19.48-19.62,30.17-31.44,1.11-1.23,3.01-1.32,4.24-.21,1.23,1.11,1.32,3.01.21,4.24-10.79,11.92-21.19,22.39-30.36,31.63-9.66,9.73-18,18.14-24.83,26.15-5.86,6.88-8.73,15.91-8.54,26.83.43,24.4,15.88,49.99,16.04,50.25.86,1.41.42,3.26-1,4.12-.49.3-1.03.44-1.56.44Z" fill="#2b2b2b"/><path d="M1238.34,619.89c-.93,0-1.84-.43-2.43-1.23-18.58-25.44-40.01-35.67-40.23-35.77-1.5-.7-2.15-2.49-1.45-3.99.7-1.5,2.48-2.15,3.98-1.45.93.43,23,10.91,42.54,37.67.98,1.34.68,3.21-.65,4.19-.53.39-1.15.58-1.77.58Z" fill="#2b2b2b"/><path d="M1413.2,616.24c-.31,0-.62-.05-.93-.15-.6-.2-61.02-20.41-110.6-84.25-12.53-16.11-23.49-33.89-32.57-52.83-1.76-3.69-3.33-7.13-4.8-10.53-7.83-18.07-11.01-37.63-9.18-56.58.08-.84.17-1.67.27-2.47,1.7-14.72,8.53-28.56,19.23-38.96h0c3.86-3.77,8.21-7.06,12.91-9.79,15.83-9.14,34.34-20.85,51.66-38.45,9.55-9.7,18.05-20.54,25.28-32.23.6-.97,1.69-1.52,2.82-1.41,1.13.1,2.11.84,2.52,1.89.71,1.82,16.57,43.18,4.76,82.18,10.1-2.45,32.93-7.31,57.18-7.88,43.78-1.03,72.29,12.31,82.46,38.58.35.9.24,1.92-.29,2.73-.53.81-1.42,1.31-2.38,1.35-17.11.72-44.94,5.81-49.03,16.43,4.79,10.26,39.29,85.54,41.39,130.4.05,1.08-.48,2.1-1.39,2.68-.91.58-2.06.62-3.02.11-.21-.11-21.76-11.6-44.27-21.88-33.62-15.36-44.35-16.67-47.65-16.33,1.66,6.12,6.02,22.86,9.24,40.53,5.64,30.96,5.16,49.27-1.46,55.97-.57.58-1.35.89-2.14.89ZM1366.15,298.46c-6.68,10.05-14.3,19.44-22.7,27.97-17.82,18.11-36.76,30.09-52.93,39.43-4.27,2.48-8.22,5.47-11.73,8.89h0c-9.71,9.44-15.91,22-17.45,35.35-.09.77-.18,1.56-.25,2.37-1.73,17.93,1.29,36.47,8.72,53.62,1.44,3.34,2.98,6.72,4.71,10.33,8.89,18.55,19.62,35.96,31.89,51.74,43.39,55.87,95.1,77.51,105.75,81.52,7.3-12.47-2.65-61.99-11.05-91.65-.28-1-.03-2.07.66-2.83,3.47-3.83,12.75-5.14,55.24,14.21,16.56,7.54,32.71,15.79,40.48,19.84-4.6-46.74-40.55-123.07-40.92-123.87-.29-.62-.37-1.33-.2-2,4.06-16.56,37.84-20.7,50.55-21.67-25.87-52.6-135.03-22.2-136.16-21.88-1.09.31-2.26-.02-3.03-.85-.77-.83-1-2.02-.61-3.08,11.24-30.13,3.09-64.1-.98-77.43ZM1276.71,372.61h0,0Z" fill="#2b2b2b"/><path d="M1271.3,479.66c-.24-.23-.49-.47-.73-.71-23.09-22.44-33.4-43.79-30.64-63.46,3.44-24.53,26.29-39.24,35.95-44.42,2.49-1.33,4.04-2.01,4.1-2.03.89-.39,1.92.02,2.3.91.39.89-.02,1.92-.91,2.3-.01,0-1.5.65-3.84,1.91-9.19,4.93-30.92,18.87-34.14,41.82-2.6,18.5,7.37,38.85,29.63,60.48.24.24.47.46.69.67l-2.42,2.53Z" fill="#2b2b2b"/><path d="M1016.12,963.67c-.28,0-.57-.07-.84-.21-60.18-32.81-113.8-91.91-114.33-92.5-.65-.72-.59-1.82.13-2.47.72-.65,1.82-.59,2.47.13.53.59,53.77,59.25,113.41,91.77.85.46,1.16,1.53.7,2.37-.32.58-.92.91-1.54.91Z" fill="#2b2b2b"/><path d="M1563.89,1549.87c-.09,0-.19,0-.28-.02-.95-.16-1.6-1.06-1.44-2.01.1-.62,9.77-62.67-22.9-107.45-.39-.55-.79-1.09-1.2-1.62-.59-.77-.44-1.87.33-2.45.77-.59,1.87-.44,2.45.33.43.57.85,1.13,1.26,1.7,33.53,45.96,23.61,109.42,23.51,110.05-.14.86-.88,1.47-1.72,1.47Z" fill="#2b2b2b"/><path d="M1503.02,1448.39c-1.33,0-2.55-.9-2.9-2.25-.41-1.6.55-3.24,2.15-3.66.61-.16,15.13-3.87,38.12-6.11,2.03-.2,4.14-.38,6.3-.56,12.97-1.01,24.7-.22,36.04.56,23.18,1.58,45.07,3.07,72.6-12.03,1.44-.79,3.31-1.67,5.47-2.68,5.1-2.4,13.63-6.41,15.14-9.38.75-1.48,2.56-2.06,4.04-1.31,1.48.75,2.06,2.56,1.31,4.04-2.26,4.44-9.16,7.95-17.93,12.08-1.99.93-3.86,1.82-5.14,2.52-29.07,15.94-51.81,14.4-75.9,12.75-11.13-.76-22.64-1.54-35.16-.56-2.12.17-4.19.35-6.19.54-22.49,2.19-37.06,5.91-37.21,5.95-.25.06-.5.1-.75.1Z" fill="#2b2b2b"/><path d="M1784.32,1648.81c-10.87,0-21.59-2.09-27.37-8.19-7.37-7.78-11.38-19.86-15.26-31.55-2.58-7.79-5.03-15.15-8.17-20.09-6.25-9.81-21.53-26.27-32.73-36.77-1.97-1.84-3.52-3.25-4.88-4.43-1.85-1.61-2.77-4-2.44-6.39.32-2.41,1.85-4.49,4.08-5.57.76-.37,1.49-.81,2.16-1.32h0s.06-.04.09-.06c15.26-11.35,13.09-54.76-20.6-115.86-.79-1.45-1.38-2.94-1.75-4.44-.1-.43-.22-.97-.31-1.57-1.26-8.23,3.4-16.36,11.34-19.73,25.72-10.91,46.5-16.99,61.78-18.08.03,0,.06,0,.09,0,.05,0,.11,0,.16,0,2.12-.14,4.12-.19,5.95-.13,9.81.27,18.45,6.56,21.51,15.64,34.08,101.21,51.91,194.59,56.56,220.8.94,5.34.35,10.8-1.71,15.78-2.68,6.51-7.7,11.92-14.13,15.23-.02,0-.1.05-.12.06-1.52.76-2.99,1.37-4.47,1.84-.22.08-.45.15-.69.22-.48.15-1,.31-1.5.48-6.42,2.18-17.07,4.14-27.59,4.14ZM1703.25,1539.33c-.97.72-2.01,1.35-3.1,1.88-.57.28-.71.72-.75.96-.03.23-.02.67.43,1.06,1.42,1.23,3.02,2.69,5.05,4.58,11.47,10.76,27.17,27.7,33.69,37.93,3.55,5.57,6.1,13.27,8.81,21.43,3.67,11.06,7.46,22.5,13.92,29.31,8.33,8.8,34.41,7.35,48.71,2.48.57-.19,1.12-.36,1.65-.53.16-.05.29-.09.43-.14.04-.01.08-.03.12-.04,1.19-.38,2.4-.88,3.69-1.53,5.19-2.68,9.22-7,11.36-12.2,1.63-3.93,2.09-8.24,1.35-12.45-4.63-26.1-22.4-119.12-56.34-219.93-2.26-6.71-8.68-11.35-15.99-11.56-1.65-.05-3.48,0-5.43.12-.03,0-.06,0-.09,0-.02,0-.05,0-.08,0h0c-14.61,1.04-34.75,6.97-59.86,17.62-5.41,2.29-8.6,7.78-7.75,13.33.05.37.12.7.2,1.03.24.98.64,1.98,1.17,2.97,16.61,30.12,26.85,58.03,29.63,80.72,2.53,20.66-1.3,35.89-10.77,42.88h0s-.04.03-.07.05Z" fill="#2b2b2b"/><path d="M1817.09,1641.99c-1.53,0-2.84-1.17-2.98-2.73-.1-1.1-10.7-112.2-66.15-258.57-.59-1.55.19-3.28,1.74-3.87,1.55-.59,3.28.19,3.87,1.74,55.76,147.19,66.41,259.04,66.51,260.15.15,1.65-1.07,3.11-2.72,3.26-.09,0-.18.01-.27.01Z" fill="#2b2b2b"/><path d="M1460.61,1566.42c-4.19,0-8.25-.09-12.2-.28-34.61-1.62-59.49-10.09-73.95-25.16-.57-.59-1.16-1.2-1.76-1.81-6.52-6.72-14.64-15.08-21.54-30.43l-.13-.28c-.67-1.52.01-3.29,1.53-3.96,1.51-.67,3.29.01,3.96,1.53l.12.26c6.46,14.38,13.85,21.99,20.36,28.7.6.62,1.2,1.23,1.78,1.84,26.15,27.27,92.73,31.14,182.68,10.6l.42-.09c.58-.13,1.16-.26,1.73-.39,52.89-12.02,91.77-19.33,115.61-21.75,7.22-.73,17.44,3.03,23.78,8.75,1.23,1.11,1.33,3.01.22,4.24-1.11,1.23-3.01,1.33-4.24.22-5.12-4.63-13.54-7.81-19.16-7.23-23.59,2.39-62.23,9.66-114.86,21.62-.57.14-1.18.27-1.78.4l-.4.09c-37.89,8.65-72.91,13.14-102.18,13.14Z" fill="#2b2b2b"/><path d="M1592.01,1073.75c-.85,0-1.7-.36-2.29-1.06l-116.68-137.53-37.14-21.79c-1.43-.84-1.91-2.68-1.07-4.11s2.68-1.91,4.11-1.07l37.58,22.05c.29.17.55.39.77.65l117.01,137.92c1.07,1.26.92,3.16-.35,4.23-.56.48-1.25.71-1.94.71Z" fill="#2b2b2b"/><path d="M1676.52,1022.67c-.81,0-1.62-.33-2.22-.98l-142.24-155.81s-.05-.05-.07-.08c-5.17-6.1-11.69-11.33-19.38-15.55l-27.63-13.73c-1.48-.74-2.09-2.54-1.35-4.02.74-1.48,2.54-2.09,4.02-1.35l27.68,13.76s.07.04.1.06c8.34,4.57,15.44,10.26,21.09,16.92l142.2,155.77c1.12,1.22,1.03,3.12-.19,4.24-.58.52-1.3.78-2.02.78Z" fill="#2b2b2b"/><path d="M851.55,1012.65c-42.81,0-111.66-24.08-144.34-51.68-7.68-6.49-11.15-13.99-10.29-22.3,2.58-25.1,44.85-48.25,46.65-49.22.61-.33,1.33-.44,2.01-.3l110.71,21.91,24.16-21.22c1.25-1.09,3.14-.97,4.23.27,1.09,1.24.97,3.14-.27,4.23l-25.27,22.2c-.7.62-1.65.87-2.56.69l-111.08-21.98c-6.13,3.49-40.55,23.95-42.61,44.04-.65,6.3,2.03,11.9,8.2,17.1,15.87,13.4,43,27.3,72.57,37.19,30.28,10.12,58.56,14.71,77.56,12.58,71.83-8.04,101.44-41.36,101.73-41.7,1.08-1.25,2.98-1.39,4.23-.31,1.25,1.08,1.4,2.97.32,4.23-1.24,1.44-31.23,35.42-105.61,43.75-3.23.36-6.69.54-10.33.54Z" fill="#2b2b2b"/><path d="M943.65,625.85c-1.48,0-2.77-1.1-2.97-2.61-.21-1.64.94-3.15,2.58-3.36.51-.07,47.11-6.53,100.79-41.15l-104.42,33.1c-1.58.5-3.27-.37-3.77-1.95-.5-1.58.37-3.27,1.95-3.77l123.46-39.13c1.4-.44,2.91.19,3.58,1.5.67,1.31.29,2.9-.89,3.78-61.51,45.54-119.35,53.51-119.93,53.58-.13.02-.26.03-.39.03Z" fill="#2b2b2b"/><path d="M992.27,683.67c-1.4,0-2.65-.99-2.94-2.41-.32-1.62.73-3.2,2.35-3.53h0c.21-.04,21.33-4.44,40.09-19.88,24.93-20.52,34.17-49.96,27.45-87.49-.29-1.63.79-3.19,2.42-3.48,1.63-.29,3.19.79,3.48,2.42,8.9,49.74-11.26,78.21-29.73,93.34-19.92,16.31-41.63,20.79-42.54,20.97-.2.04-.4.06-.59.06Z" fill="#2b2b2b"/><path d="M315.86,1046.37l75.25,7.11,14.81,74.12.32.29-61.27,66.18.4.72-1.14.64-74.07-7,.09-.94-14.81-74.12s13-22.47,27.26-38.43c7.75-8.68,33.17-28.57,33.17-28.57Z" fill="#fff"/><polygon points="344.96 1194.08 406.23 1127.89 406.33 1127.79 488.34 1165.67 488.23 1166.53 477.65 1255.37 389.04 1272.93 388.52 1272.01 345.36 1194.8 344.96 1194.08" fill="#333"/><path d="M391.11,1053.49l-75.25-7.11,7.31-18.39c17.92-9.8,37.61-17.07,58.7-21.25,15.3-3.03,30.54-4.28,45.5-3.88l19.27,18.02-55.55,32.61Z" fill="#333"/><path d="M620.51,1158.95l-10.84,21.1-55.4-50.39-12.22-59.22,34.36,4.14.83-.72c20.59,23.76,35.97,52.55,43.97,84.92l-.7.17Z" fill="#333"/><path d="M359.01,1339.83l29.51-67.82.51.92,88.61-17.55,10.58-88.84.91.11,65.12-36.98,55.4,50.39s2.19,27.84.19,42.58c-1.99,14.74-9.91,44.8-9.91,44.8l-65.12,36.98-31.03,63.64-10.35,4.13c-23.63,9.43-48.87,14.15-74.31,13.91l-14.94-.14-45.18-46.13Z" fill="#fff"/><path d="M623.35,1168.35c8.78,44.3,2.6,88.1-15.04,126.16l-8.36-27.08s7.92-30.06,9.91-44.8c2-14.74-.19-42.58-.19-42.58l10.84-21.1.7-.17c.79,3.16,1.5,6.35,2.14,9.57Z" fill="#fff"/><path d="M537.19,1378.34c-22.12,15.02-47.57,25.95-75.46,31.47-28.86,5.72-57.51,5.09-84.49-.92l26.95-22.94,14.94.14c25.44.24,50.68-4.49,74.31-13.91l10.35-4.13,33.4,10.29Z" fill="#fff"/><path d="M323.18,1027.98l-7.31,18.39s-25.42,19.89-33.17,28.57c-14.26,15.97-27.26,38.43-27.26,38.43l-19.15,6.59c18.38-38.54,48.58-71.04,86.9-91.98Z" fill="#fff"/><path d="M427.39,1002.86c58.42,1.53,112.64,28.06,149.86,71.01l-.83.72-34.36-4.14s-21.87-20.84-43.12-31.48c-10.88-5.45-52.27-18.08-52.27-18.08l-19.27-18.02Z" fill="#fff"/><path d="M388.52,1272.01l-29.51,67.82-74.56-7.05s-15.85-15.74-26.51-33.86c-9.47-16.12-18.17-41.86-18.17-41.86l29.88-68.68.49.05,74.07,7,1.14-.64,43.17,77.22Z" fill="#fff"/><path d="M239.77,1257.06l-20.98-17.19c-6.61-42.25.24-83.74,17.49-119.9l19.15-6.59,14.81,74.12-.09.94-.49-.05-29.88,68.68Z" fill="#333"/><path d="M554.27,1129.66l-65.12,36.98-.91-.11.1-.86-82.01-37.88-.09.1-.32-.29-14.81-74.12,55.55-32.61s41.39,12.63,52.27,18.08c21.25,10.64,43.12,31.48,43.12,31.48l12.22,59.22Z" fill="#fff"/><path d="M534.83,1304.42l65.12-36.98,8.36,27.08c-15.58,33.61-40.08,62.75-71.12,83.83l-33.4-10.29,31.03-63.64Z" fill="#333"/><path d="M287.58,1363.83l-3.13-31.05,74.56,7.05,45.18,46.13-26.95,22.94c-33.33-7.42-64.12-23.05-89.67-45.06Z" fill="#333"/><path d="M257.94,1298.92c10.65,18.12,26.51,33.86,26.51,33.86l3.13,31.05c-33.55-28.91-58.04-68.82-67.31-115.63-.55-2.78-1.04-5.56-1.47-8.34l20.98,17.19s8.69,25.74,18.17,41.86Z" fill="#fff"/><path d="M421.56,1416.79c-15.07,0-30.1-1.66-44.97-4.96-33.46-7.45-64.92-23.26-90.97-45.72-35.54-30.62-59.16-71.19-68.29-117.32-.56-2.85-1.07-5.7-1.5-8.46-6.51-41.61-.37-83.68,17.75-121.65,18.78-39.37,50.09-72.51,88.17-93.32,18.55-10.15,38.59-17.4,59.56-21.56,15.24-3.02,30.77-4.34,46.17-3.94,58.28,1.53,113.7,27.78,152.04,72.04,21.34,24.63,36.76,54.42,44.61,86.15.78,3.12,1.51,6.39,2.17,9.72,8.63,43.57,3.35,87.83-15.26,128.01-15.95,34.41-40.9,63.82-72.15,85.05-23.13,15.71-48.89,26.45-76.56,31.93-13.57,2.69-27.18,4.03-40.76,4.03ZM422.02,1005.79c-13.21,0-26.49,1.31-39.56,3.89-20.37,4.04-39.83,11.08-57.85,20.94-36.98,20.21-67.39,52.4-85.63,90.64-17.59,36.88-23.55,77.74-17.23,118.15.42,2.69.91,5.45,1.45,8.22,8.87,44.8,31.81,84.2,66.33,113.94,25.31,21.81,55.86,37.17,88.36,44.41,27.44,6.11,55.45,6.41,83.26.91,26.87-5.32,51.89-15.76,74.35-31.01,30.36-20.62,54.59-49.18,70.08-82.61,18.08-39.02,23.2-82.01,14.82-124.32-.64-3.23-1.35-6.4-2.1-9.43,0,0,0,0,0,0-7.62-30.82-22.6-59.76-43.33-83.67-37.25-42.99-91.07-68.49-147.67-69.97-1.76-.05-3.52-.07-5.28-.07Z" fill="#2b2b2b"/><path d="M389.04,1274.68c-.62,0-1.21-.34-1.53-.9l-.51-.92-43.57-77.94c-.37-.66-.27-1.48.24-2.04l61.39-66.3c.52-.54,1.32-.7,2-.38l82.01,37.88c.69.32,1.09,1.04,1,1.79l-.1.86h0s-10.58,88.84-10.58,88.84c-.09.75-.65,1.36-1.4,1.51l-88.61,17.56c-.11.02-.23.03-.34.03ZM347.1,1194.33l42.84,76.63,86.12-17.06,10.39-87.18-79.7-36.82-59.64,64.42ZM488.23,1166.53h0,0Z" fill="#2b2b2b"/><path d="M534.83,1306.17c-.43,0-.85-.16-1.18-.46l-55.4-50.4c-.71-.65-.77-1.76-.12-2.47.65-.72,1.76-.77,2.47-.12l54.46,49.54,63.38-35.99c1.2-4.63,7.9-30.66,9.68-43.88,1.78-13.12.17-37.16-.15-41.52l-53.95-49.07-64.02,36.36c-.84.48-1.91.18-2.39-.66-.48-.84-.18-1.91.66-2.39l65.12-36.98c.66-.37,1.48-.28,2.04.23l55.4,50.39c.33.3.53.71.57,1.16.09,1.14,2.18,28.2.18,42.96-1.99,14.68-9.63,43.78-9.95,45.01-.12.46-.42.84-.83,1.08l-65.12,36.98c-.27.15-.57.23-.86.23Z" fill="#2b2b2b"/><path d="M359.01,1341.58c-.06,0-.11,0-.17,0l-74.56-7.05c-.4-.04-.78-.21-1.07-.5-.16-.16-16.14-16.11-26.78-34.22-9.46-16.09-18.23-41.93-18.32-42.19-.14-.41-.12-.86.05-1.26l29.88-68.68c.3-.69,1.01-1.11,1.77-1.04l74.56,7.05c.96.09,1.67.94,1.58,1.91-.09.96-.94,1.67-1.91,1.58l-73.3-6.93-29.1,66.89c1.4,4.05,9.35,26.52,17.8,40.9,9.44,16.05,23.19,30.4,25.8,33.06l72.67,6.87,29.37-67.51c.38-.89,1.41-1.3,2.3-.91s1.3,1.41.91,2.3l-.37.86-29.51,67.82c-.28.64-.91,1.05-1.6,1.05Z" fill="#2b2b2b"/><path d="M420.99,1387.86c-.63,0-1.25,0-1.88,0l-14.94-.14c-.46,0-.91-.19-1.23-.53l-45.18-46.13c-.68-.69-.67-1.8.03-2.47.69-.68,1.8-.67,2.47.03l44.67,45.61,14.21.13c25.35.25,50.12-4.4,73.65-13.79l9.72-3.88,30.74-63.03c.42-.87,1.47-1.23,2.34-.81.87.42,1.23,1.47.81,2.34l-31.03,63.64c-.19.39-.52.7-.92.86l-10.35,4.13c-23.37,9.32-47.96,14.05-73.1,14.05Z" fill="#2b2b2b"/><path d="M270.24,1189.24c-.82,0-1.55-.58-1.71-1.41l-14.81-74.12c-.08-.42-.01-.85.2-1.22.13-.23,13.26-22.81,27.47-38.72,7.77-8.69,32.35-27.97,33.4-28.78.35-.28.8-.41,1.24-.36l75.25,7.11c.77.07,1.4.64,1.55,1.4l14.81,74.12c.19.95-.43,1.87-1.37,2.06-.95.19-1.87-.43-2.06-1.37l-14.55-72.84-73.25-6.92c-3.73,2.94-25.46,20.16-32.4,27.93-12.73,14.25-24.61,34-26.72,37.58l14.68,73.46c.19.95-.43,1.87-1.37,2.06-.12.02-.23.03-.34.03Z" fill="#2b2b2b"/><path d="M554.27,1131.41c-.81,0-1.54-.57-1.71-1.4l-12.11-58.68c-3.04-2.84-23.08-21.18-42.3-30.81-9.83-4.93-45.67-16.03-51.26-17.75l-54.88,32.22c-.83.49-1.91.21-2.4-.62-.49-.83-.21-1.91.62-2.4l55.55-32.61c.42-.25.93-.31,1.4-.16,1.7.52,41.66,12.74,52.54,18.19,21.24,10.64,43.32,31.57,43.54,31.78.26.25.43.56.51.91l12.22,59.22c.2.95-.41,1.87-1.36,2.07-.12.02-.24.04-.36.04Z" fill="#2b2b2b"/><path d="M315.86,1048.12c-.22,0-.43-.04-.65-.12-.9-.36-1.34-1.37-.98-2.27l7.5-18.87c.36-.9,1.37-1.34,2.27-.98.9.36,1.34,1.37.98,2.27l-7.51,18.88c-.27.69-.93,1.1-1.63,1.1Z" fill="#2b2b2b"/><path d="M235.62,1121.94c-.73,0-1.41-.46-1.66-1.18-.31-.91.17-1.91,1.09-2.22l19.81-6.82c.91-.31,1.91.17,2.22,1.09.31.91-.17,1.91-1.09,2.22l-19.81,6.82c-.19.06-.38.1-.57.1Z" fill="#2b2b2b"/><path d="M446.65,1022.63c-.43,0-.86-.16-1.19-.47l-19.27-18.02,1.14-1.33,1.2-1.27,19.32,18.08c.71.66.74,1.77.08,2.47-.34.37-.81.55-1.28.55Z" fill="#2b2b2b"/><path d="M576.41,1076.33c-.07,0-.14,0-.21-.01l-34.36-4.14c-.96-.12-1.64-.99-1.53-1.95.12-.96.98-1.65,1.95-1.53l34.36,4.14c.96.12,1.64.99,1.53,1.95-.11.89-.86,1.54-1.74,1.54Z" fill="#2b2b2b"/><path d="M609.67,1181.81c-.27,0-.54-.06-.8-.19-.86-.44-1.2-1.5-.76-2.36l10.84-21.1c.44-.86,1.5-1.2,2.36-.76s1.2,1.5.76,2.36l-10.84,21.1c-.31.6-.92.95-1.56.95Z" fill="#2b2b2b"/><path d="M608.41,1296.6c-.74,0-1.43-.48-1.67-1.22l-.1-.33-8.36-27.09c-.28-.92.23-1.9,1.16-2.19.92-.28,1.9.23,2.19,1.16l8.46,27.4c.29.92-.22,1.9-1.14,2.2-.17.06-.35.08-.53.08Z" fill="#2b2b2b"/><path d="M538.06,1380.36c-.17,0-.34-.02-.51-.08l-34.27-10.56c-.92-.28-1.44-1.26-1.16-2.19.28-.92,1.27-1.44,2.19-1.16l34.27,10.55c.92.28,1.44,1.26,1.16,2.19-.23.75-.92,1.24-1.67,1.24Z" fill="#2b2b2b"/><path d="M375.88,1411.81c-.5,0-.99-.21-1.33-.62-.63-.74-.54-1.84.2-2.47l28.32-24.09c.74-.63,1.84-.54,2.47.2.63.74.54,1.84-.2,2.47l-28.32,24.09c-.33.28-.73.42-1.13.42Z" fill="#2b2b2b"/><path d="M287.85,1368.32c-.89,0-1.65-.67-1.74-1.58l-3.4-33.78c-.1-.96.6-1.82,1.57-1.92.96-.09,1.82.6,1.92,1.57l3.4,33.78c.1.96-.61,1.82-1.57,1.92-.06,0-.12,0-.18,0Z" fill="#2b2b2b"/><path d="M239.77,1258.81c-.39,0-.78-.13-1.11-.4l-21.62-17.71c-.75-.61-.86-1.71-.25-2.46.61-.75,1.72-.86,2.46-.25l21.62,17.72c.75.61.86,1.71.24,2.46-.35.42-.85.64-1.35.64Z" fill="#2b2b2b"/><path d="M654.28,910.07c11.3,17.37-10.93,29.68-10.93,29.68-31.09,2.39-38.87-16.38-38.87-16.38-7.28-13.92,2.21-32.53,2.21-32.53,0,0,20.59,20.93,44.34,17.55.34-.05.67-.1,1-.16l2.25,1.85Z" fill="#f9e2cd"/><path d="M663.45,884.39s11.01,20.02-11.43,23.84c-.33.06-.66.11-1,.16-23.75,3.38-44.34-17.55-44.34-17.55-10.1-23.59,9.37-36.09,9.37-36.09,0,0,26.33,34,40.74,31,2.48-.51,4.49-1.05,6.14-1.58l.52.23Z" fill="#f9e2cd"/><path d="M672.13,876.14c-1.8,2.73-1.44,5.48-9.19,8.01-1.65.54-3.66,1.07-6.14,1.58-14.41,3.01-40.74-31-40.74-31-8.17-28.87,24.33-29.47,24.33-29.47,0,0,11.15,14.87,23.95,23.35l1.31.79c-2.24,4.33-2.86,9.76-.37,16.5,1.88,5.09,4.26,8.32,6.85,10.24Z" fill="#f9e2cd"/><path d="M714.25,836.18l-.08.65-21.41-2.6c-2.08-.25-4.18-.07-6.19.54-5.54,1.68-16.45,5.99-20.92,14.65l-1.31-.79c-12.8-8.47-23.95-23.35-23.95-23.35,1.06-3.44-1.12-22.83,25.39-22.2,26.51.62,48.47,33.11,48.47,33.11Z" fill="#f9e2cd"/><path d="M672.13,876.14c-2.59-1.92-4.97-5.15-6.85-10.24-2.49-6.74-1.87-12.16.37-16.5,4.47-8.65,15.37-12.96,20.92-14.65,2.01-.61,4.11-.79,6.19-.54l21.41,2.6,1.68.2c3.9,1.28,7.38,3.02,9.96,6.23,8.12,10.11,20.11,22.14,21.09,39.23,0,0,3.68,57.97-37.31,72.44-40.98,14.49-66.23-15.17-66.23-15.17,0,0,22.23-12.31,10.93-29.68l-2.25-1.85c22.43-3.81,11.43-23.84,11.43-23.84l-.52-.23c7.75-2.53,7.39-5.28,9.19-8.01Z" fill="#f9e2cd"/><path d="M702.02,918.75c-.75,0-1.51-.28-2.09-.85-9.11-8.87-22.19-30.51-6.43-48.93,0,0,.01-.01.02-.02.12-.14.25-.27.39-.38,1.28-1.05,3.17-.86,4.22.42.95,1.16.89,2.81-.08,3.89-16,18.73,5.16,39.83,6.07,40.72,1.18,1.16,1.21,3.06.05,4.24-.59.6-1.37.91-2.15.91Z" fill="#2b2b2b"/><path d="M746.18,902.49c-.12,0-.24,0-.36-.02-1.65-.2-2.82-1.69-2.62-3.33,1.13-9.46.72-16.4.71-16.46-.91-15.97-12.44-28.92-17.98-35.14l-.09-.1c-2.29-2.57-7.4-6.11-10.73-7.46l-22.71-2.76c-1.68-.2-3.35-.06-4.95.43-4.4,1.34-15.07,5.29-19.13,13.15-2.13,4.12-2.2,8.72-.22,14.08,1.54,4.16,3.49,7.15,5.82,8.87,7.87,5.83,19.35-4.57,19.84-5.02,1.22-1.12,3.12-1.04,4.24.18,1.12,1.22,1.04,3.12-.18,4.24-1.59,1.46-15.87,14.02-27.47,5.42-3.28-2.42-5.93-6.33-7.87-11.61-2.56-6.93-2.38-13.29.52-18.91,4.92-9.53,16.34-14.2,22.71-16.14,2.41-.73,4.91-.95,7.42-.65l23.09,2.8c.24.03.47.09.69.17,4.25,1.6,10.39,5.82,13.42,9.22l.09.1c5.99,6.73,18.45,20.74,19.48,38.77.02.28.46,7.5-.74,17.54-.18,1.52-1.48,2.65-2.98,2.65Z" fill="#2b2b2b"/><path d="M687.52,961.87c-24.85,0-41.18-14.76-45.38-19.03-30.64,1.79-39.5-16.23-40.37-18.18-6.76-13.07-.45-29.26,1.64-33.91-8.01-20.38,4.42-33.18,9.25-37.18-1.9-8.18-.86-15.03,3.11-20.38,6.02-8.11,17.01-10.2,22-10.73.71-6.53,2.82-22.98,28.08-22.38,27.74.65,49.95,33.05,50.89,34.43.93,1.37.57,3.24-.8,4.16-1.37.93-3.24.57-4.17-.8-.21-.31-21.43-31.22-46.06-31.79-20.07-.46-21.33,11.07-22,17.27-.12,1.15-.22,2.07-.46,2.82-.38,1.24-1.52,2.09-2.81,2.11-.13,0-13.86.39-19.86,8.51-3.11,4.21-3.66,9.98-1.63,17.15.36,1.27-.15,2.63-1.27,3.34-.7.46-17.17,11.5-8.23,32.39.35.82.32,1.75-.08,2.54-.09.17-8.68,17.43-2.22,29.78.04.08.08.16.11.24.29.67,7.53,16.72,35.87,14.54.96-.07,1.89.31,2.51,1.05.98,1.14,24.49,27.88,62.95,14.29,1.56-.55,3.28.27,3.83,1.83.55,1.56-.27,3.28-1.83,3.83-8.31,2.94-16.03,4.12-23.06,4.12Z" fill="#2b2b2b"/><path d="M664.34,851.61c-.57,0-1.14-.16-1.65-.5-13.08-8.66-24.23-23.42-24.7-24.05-.99-1.33-.72-3.21.6-4.2,1.33-.99,3.21-.72,4.2.6.11.15,11,14.57,23.21,22.65,1.38.91,1.76,2.78.85,4.16-.58.87-1.53,1.34-2.5,1.34Z" fill="#2b2b2b"/><path d="M655.02,888.91c-15.81,0-38.66-28.88-41.33-32.33-1.01-1.31-.78-3.19.53-4.21,1.31-1.01,3.19-.77,4.21.53,9.74,12.57,28.62,31.81,37.76,29.9,2.23-.46,4.18-.97,5.82-1.5,4.93-1.61,5.58-2.94,6.49-4.77.3-.61.65-1.31,1.13-2.04.03-.05.06-.09.1-.14.03-.04.08-.12.13-.19.99-1.33,2.87-1.61,4.2-.62,1.33.99,1.61,2.87.62,4.2-.01.02-.04.06-.06.1-.26.4-.48.84-.73,1.35-1.47,2.97-3.23,5.61-10.01,7.82-1.85.6-4.02,1.16-6.46,1.67-.78.16-1.57.24-2.39.24Z" fill="#2b2b2b"/><path d="M645.72,911.76c-22.39,0-40.36-17.99-41.17-18.82-1.16-1.18-1.15-3.08.04-4.24,1.18-1.16,3.08-1.15,4.24.03h0c.2.2,19.85,19.81,41.78,16.69.29-.04.58-.09.88-.14,5.62-.96,9.22-3.03,10.75-6.18,2.7-5.56-1.37-13.19-1.41-13.27-.79-1.45-.26-3.27,1.2-4.07,1.45-.79,3.27-.27,4.07,1.18.23.42,5.6,10.38,1.57,18.74-2.42,5.01-7.5,8.21-15.12,9.5-.33.06-.69.12-1.06.17-1.94.28-3.86.4-5.74.4Z" fill="#2b2b2b"/><path d="M643.36,942.75c-1.06,0-2.08-.56-2.63-1.55-.8-1.45-.28-3.27,1.17-4.08h0c.1-.06,10.13-5.74,12.21-14.16.92-3.73.16-7.42-2.34-11.26-.9-1.39-.51-3.25.88-4.15,1.39-.9,3.25-.51,4.15.88,3.42,5.25,4.47,10.63,3.13,16-2.73,10.96-14.61,17.66-15.12,17.94-.46.25-.96.38-1.45.38Z" fill="#2b2b2b"/><ellipse cx="421.63" cy="1812.65" rx="181.05" ry="21.51" fill="#eaeaea"/></svg>