<?xml version="1.0" encoding="UTF-8"?><svg id="_レイヤー_9" xmlns="http://www.w3.org/2000/svg" width="2000" height="2000" viewBox="0 0 2000 2000"><path d="M1485.6,1147l-3.03,2.22c-11.98-.28-30.45,3.89-46.46-13.14-28.27-30.08-4.39-80.61-4.39-80.61,0,0,3.33-47,78.38-49.9,0,0,105.57,36,68.57,99.43l-.89.02c.28,10.67-2.54,23.02-15.39,28.55l-2.66.1.16,4.28s-3.03,20.96-23.37,19.28c-11.47,23.32-44.08-.93-44.08-.93l-6.82-9.31Z" fill="#f9e2cd"/><path d="M1520.52,1170.37c-14.04,0-29.17-11.11-29.89-11.65-.24-.18-.45-.39-.63-.63l-29.32-40.01c-.98-1.34-.69-3.21.65-4.19,1.33-.98,3.21-.69,4.19.65l29.04,39.63c2.55,1.8,18.42,12.56,29.95,9.76,3.86-.94,6.78-3.31,8.92-7.25l-3.01-28.15c-.18-1.65,1.02-3.13,2.66-3.3,1.66-.18,3.13,1.02,3.3,2.66l3.11,29.05c.06.56-.04,1.13-.29,1.64-2.95,6.01-7.42,9.77-13.28,11.19-1.76.42-3.57.61-5.4.61Z" fill="#2b2b2b"/><path d="M1538.77,1160.34c-.81,0-1.65-.03-2.51-.11-1.65-.14-2.88-1.59-2.74-3.24.14-1.65,1.57-2.88,3.24-2.74,16.3,1.35,19.71-14.22,20.11-16.48l-1.33-36.02c-.06-1.66,1.23-3.05,2.89-3.11,1.64-.06,3.05,1.23,3.11,2.89l1.34,36.32c0,.18,0,.36-.03.54-1.13,7.83-7.62,21.95-24.07,21.95Z" fill="#2b2b2b"/><path d="M1562.37,1136.59c-1.16,0-2.27-.68-2.76-1.82-.65-1.52.05-3.29,1.57-3.94,9.35-4.02,13.92-12.68,13.58-25.72-.23-9.38-3.02-17.52-3.05-17.6-.54-1.56.28-3.27,1.85-3.82,1.57-.55,3.27.28,3.82,1.84.13.37,3.13,9.07,3.38,19.43.41,15.51-5.54,26.36-17.21,31.38-.39.17-.79.25-1.18.25Z" fill="#2b2b2b"/><path d="M1578.65,1108.02c-.51,0-1.03-.13-1.51-.41-1.43-.83-1.91-2.67-1.08-4.1,7.89-13.53,9.51-26.78,4.81-39.38-13.17-35.33-71.17-55.5-71.76-55.7-1.57-.54-2.41-2.24-1.87-3.81.54-1.57,2.24-2.41,3.81-1.87,2.49.85,61.26,21.27,75.44,59.27,5.36,14.38,3.6,29.35-5.25,44.51-.56.96-1.56,1.49-2.59,1.49Z" fill="#2b2b2b"/><path d="M1469.73,1152.49c-10.87,0-23.99-1.77-35.81-14.34-21.11-22.46-13-59.34-8.53-74.15.48-1.59,2.15-2.48,3.74-2.01,1.59.48,2.48,2.15,2.01,3.74-4.17,13.82-11.8,48.13,7.16,68.31,12.41,13.2,26.43,12.71,37.68,12.31,2.36-.08,4.58-.16,6.66-.11,1.66.04,2.97,1.41,2.93,3.07-.04,1.63-1.37,2.93-3,2.93-.02,0-.05,0-.07,0-1.91-.04-4.05.03-6.31.11-2.03.07-4.2.15-6.45.15Z" fill="#2b2b2b"/><path d="M1695.85,1679.5c.98,5.56.3,11.02-1.73,15.93-2.69,6.53-7.74,12.06-14.38,15.48l-.24-.45s-11.37-125.18-74.91-292.9l-.12-2.15c2.36-.16,4.51-.2,6.45-.15,9.72.27,18.18,6.46,21.17,15.36,36.53,108.5,57.08,211.27,63.75,248.87Z" fill="#f4f4f4"/><path d="M1679.51,1710.47l.24.45-.07.03c-1.49.75-3.03,1.4-4.65,1.92-.21.08-.43.15-.66.21-.59.18-1.19.37-1.77.56-14.94,5.08-47.21,8.31-58.56-3.68-13.35-14.08-16.95-43.5-26.06-57.81-7-10.99-24.26-29.76-37.5-42.18-1.98-1.85-3.86-3.58-5.61-5.09-2.62-2.28-2.06-6.37,1.11-7.89,1.05-.51,2.06-1.12,3-1.83.01-.01.02-.01.03-.02,18.25-13.47,18-62.21-22.26-135.24-.75-1.37-1.3-2.77-1.65-4.19-.11-.47-.21-.95-.28-1.43-1.16-7.61,3.03-15.4,10.77-18.69,33.17-14.07,54.72-19.16,68.69-20.16.07,0,.14-.01.2-.01l.12,2.15c63.54,167.71,74.91,292.9,74.91,292.9Z" fill="#ffac73"/><path d="M1526.75,1459.91c40.26,73.02,40.51,121.76,22.26,135.24-.01.01-.02.01-.03.02l-.58-.81c-6.38-5.76-16.91-9.77-24.25-9.02-30.45,3.08-79.28,12.93-130.12,24.48l-.47-1.97s11.62-70.97-26.21-122.82c2.28-.23,4.64-.43,7.06-.62,44.71-3.5,76.93,12.49,124.06-13.36,6.18-3.39,21.69-9.23,24.66-15.05l1.98-.27c.35,1.42.9,2.82,1.65,4.19Z" fill="#fff"/><path d="M1360.12,835.1l160.63,175.96-44.66,26.99-50.77,30.69-132.14-155.76-42.44-24.9-.53-.44c6.49-7.85,12.81-15.86,18.74-23.84,17.01-22.87,30.83-45.42,36.51-62.79l.51.17,31.26,15.54c9.03,4.95,16.8,11.18,22.9,18.37Z" fill="#f9e2cd"/><path d="M1393.55,1607.85l.47,1.97c-.81.19-1.64.37-2.45.55-95.34,21.76-176.9,21.07-209.5-12.93-7.68-8-17.41-17.11-25.66-35.46,47.41-11.86,112.13-33.6,167.36-71.62l1.03,1.48s16.53-4.28,42.53-6.81c37.83,51.86,26.21,122.82,26.21,122.82Z" fill="#f9e2cd"/><path d="M1156.42,1561.97c-36.06,9.02-62.1,12.33-66.34,12.76-13.97-33.02-22.63-54.17-35.3-81.79l-.26-.19,16.71-22.25c18.97-25.24,43.23-46.19,71.44-60.38,31.49-15.86,97.56-89.37,109.17-170.37,63.72,122.37,118.73,211.45,118.73,211.45-14.23,14.66-30.07,27.65-46.79,39.14-55.23,38.02-119.96,59.76-167.36,71.62Z" fill="#2e4fa2"/><path d="M1069.24,280.32c4.14-4.04,8.81-7.59,13.91-10.55,17.99-10.39,39.15-23.76,59.05-43.98,10.2-10.36,20.07-22.52,29.01-37,0,0,20.11,51.4,3.32,96.41,0,0,133.03-37.95,159.74,31.06,0,0-53.96,2.25-58.85,22.19,0,0,44.5,93.94,46.98,147.17,0,0-99.39-53.08-109.42-42.01,0,0,26.19,92.45,10.39,108.45,0,0-67.27-21.9-123.28-94-13.09-16.83-25.55-36.4-36.4-59.05-1.83-3.84-3.63-7.76-5.36-11.78-8.48-19.57-12.15-40.98-10.11-62.23.09-.93.19-1.84.29-2.73,1.86-16.13,9.32-30.88,20.71-41.95Z" fill="#222"/><path d="M1198.6,942.71l.17.18c12.9,34.17,24.86,50.6,31.03,62.5,15.77,30.38,30.37,110.87-1.39,128.06-2.18,1.17-4.86,2.45-7.98,3.81-54.29,23.44-245.11,70.31-356.18,60.43-4.44-.4-8.75-.88-12.92-1.46-14.7-2.06-27.86-10.31-35.92-22.79-30.29-46.91-12.65-63.94-1.66-103.26,5.9-21.08,6.69-43.23,2.92-64.79-2.86-16.35-4.98-32.63-6.49-48.61l-.59.06-24.66,32.26c-12.78-2.72-39.11-17.92-67.47-38.19-17.24-12.32-35.25-26.53-51.42-40.94-16.73-14.88-31.5-29.99-41.46-43.47-5.77-7.8-9.93-15.05-11.93-21.41,0,0,186.11-187.74,251.27-193.7l2.51,2.63s-20.35,27.36.64,25.5c4.4-.4,8.63-1.94,12.37-4.3,16.8-10.57,83.12-50.2,148.86-60.63,3.17-.51,6.38-.61,9.54-.32,2.51.21,4.98.68,7.41,1.4,1.32.38,2.64.85,3.93,1.39,15.39,6.41,36.68,20.38,60.54,58.71l-.52,1.16h0c86.13,37.57,198.86,112.51,198.86,112.51-.36,3.51-1.25,7.39-2.63,11.56-5.68,17.37-19.5,39.92-36.51,62.79-5.93,7.98-12.24,15.99-18.74,23.84-7.65,9.25-15.54,18.25-23.32,26.66-9.83,10.63-19.48,20.33-28.28,28.4Z" fill="#fff"/><path d="M1251.85,1239.76c-11.61,80.99-77.69,154.51-109.17,170.37-28.21,14.2-52.47,35.14-71.44,60.38l-16.71,22.25-113,150.4s-44.69-22.95-98.24-59.12c-35.74-24.14-75.44-54.16-108.4-87.19h-.01c-4.34-4.35-8.53-8.73-12.6-13.16-17.93-19.51-33.16-39.9-43.61-60.6l4.47-4.97,171.84-191.16,9.29-29.27c111.07,9.88,301.89-36.99,356.18-60.43,3.13-1.36,5.8-2.63,7.98-3.81,23.17,34.07,28.52,70.9,23.43,106.3Z" fill="#2e4fa2"/><path d="M941.59,355.65c.94,51.45-15.69,94.67-15.69,94.67-2.15-18.01-22.91-48.67-49.42-81.31-46.55,10.76-91.27-7.13-126.55-30.3-43.98-28.88-73.32-65.92-73.32-65.92-19.21,34.6,1.12,129.44,1.12,129.44-7.41-5-14.21-10.01-20.45-14.97-123.4-98.54-24.16-189.48-24.16-189.48,0,0,12.83-87.15,167.86-128.62,197.79-52.92,287.49,15.18,341.21,156.64-19.9,20.21-41.06,33.59-59.05,43.98-5.1,2.96-9.77,6.5-13.91,10.55-17.56,9.42-77.38,48.87-5.53,118.69,10.85,22.65,23.31,42.23,36.4,59.05l-.28.23c-24.66,27.24-47.06,47.33-62.39,65.33-7.97,9.36-10.66,20.88-10.46,32.56h-1.06c-21.81-29.85-46.73-41.46-46.73-41.46h-1.33c12.64-10.66,22.96-26.41,30.33-40.26.81-1.52,1.6-3.06,2.35-4.62,8.46-17.52,13.01-36.68,13.29-56.18.77-52.33-16.86-68.4-35.84-70.7-21.6-2.61-44.99,12.67-44.99,12.67h-1.39Z" fill="#222"/><path d="M1058.34,387.24c1.74,4.02,3.53,7.94,5.36,11.78-71.85-69.83-12.03-109.27,5.53-118.69-11.39,11.08-18.85,25.83-20.71,41.95-.1.89-.2,1.81-.29,2.73-2.04,21.24,1.63,42.65,10.11,62.23Z" fill="#ffce76"/><path d="M977.84,514.71h1.33s24.92,11.62,46.73,41.48h1.06c.51,28.79,18.61,58.44,18.61,58.44l-.32,1.04c-2.43-.72-4.9-1.19-7.41-1.4-3.16-.29-6.37-.19-9.54.32-65.74,10.43-132.05,50.06-148.86,60.63-3.74,2.36-7.96,3.91-12.37,4.3-20.99,1.86-.64-25.5-.64-25.5l1.58-.05c-.84-6.92-3.79-16.18-11.49-27.52l-.23-.62c-15.6,5.82-33.65,10.04-54.47,11.62-21.32,2.24-39.29-1.37-54.21-8.44h0s.38-.8.38-.8c0,0,97.84-19.57,78.95-125.17l-139.43,44.19c-2.01-11.61-8.36-22-17.81-29l-26.2-23.64c23.18-20.99,37.85-49.95,29.38-72.12-2.65-6.96-13.68-22.9-15.77-35.07l.12-.16c6.25,4.97,13.04,9.97,20.45,14.97,0,0-20.33-94.84-1.12-129.44,0,0,29.34,37.04,73.32,65.92,35.28,23.17,80,41.06,126.55,30.3,26.51,32.64,47.27,63.3,49.42,81.31,0,0,16.62-43.22,15.69-94.67h1.39s23.39-15.29,44.99-12.68c18.98,2.29,36.61,18.36,35.84,70.7-.28,19.5-4.83,38.67-13.29,56.18-.75,1.56-1.54,3.09-2.35,4.62-7.37,13.85-17.7,29.6-30.33,40.25ZM801.52,473.07c3.06-.87,5.12-3.49,4.99-6.38-.87-19.77-6.5-93.55-41.71-88.49-35.58,5.09-16.19,78.54-10.56,96.62.79,2.53,4.38,4.13,7.3,4.25,14.77.58,31.68-3.6,39.98-6Z" fill="#f9e2cd"/><path d="M843.28,1584.04l-23.47,22.82c-38.13,60.54-80.13,95.77-121.16,129.84l-1.06-1.29c-63.4-21.34-95.01-79.19-95.01-79.19l-1.56-1.39c.55-.63,1.11-1.25,1.67-1.89,64.86-73.42,131.27-155.21,131.27-155.21l.9-.9h.01c32.96,33.04,72.66,63.06,108.4,87.21Z" fill="#f9e2cd"/><path d="M826.98,503.05c18.89,105.6-78.95,125.17-78.95,125.17l-.38.79c-30.09-14.23-47.82-42.56-55.82-65.65l1.3-.44s64.29-8.38,133.86-59.88Z" fill="#e57373"/><path d="M687.55,547.24l139.43-44.19c-69.57,51.5-133.86,59.88-133.86,59.88l-1.3.44c-2.03-5.82-3.43-11.29-4.27-16.13Z" fill="#fff"/><path d="M806.51,466.69c.12,2.89-1.93,5.51-4.99,6.38-8.3,2.39-25.21,6.57-39.98,6-2.91-.11-6.5-1.72-7.3-4.25-5.64-18.08-25.03-91.53,10.56-96.62,35.2-5.06,40.84,68.72,41.71,88.49Z"/><path d="M697.59,1735.41l1.06,1.29c-34.51,28.64-68.35,56.45-98.65,97.81-4.17,5.68-12.4,20.05-11.47,26.52l-2.35.11c-1.14-1.01-2.43-1.89-3.85-2.61-76.61-38.72-106-79.93-99.15-101.89l.97.32c8.66,1.22,19.66-1.46,25.22-6.32,23.03-20.17,57.03-56.68,91.64-95.79h.01s1.56,1.38,1.56,1.38c0,0,31.61,57.84,95.01,79.19Z" fill="#fff"/><path d="M666.05,909.97c16.17,14.41,34.17,28.62,51.42,40.94,0,0-33.44,38.88-117.08,48.24-46.44,5.21-133.64-24.49-172.11-56.97-38.46-32.47,40.49-75.2,40.49-75.2l126.66,25.07,28.54-25.07.62-.47c9.96,13.47,24.73,28.58,41.46,43.47Z" fill="#f9e2cd"/><path d="M587.28,1862.19c5.5,5.78,6.74,14.79,2.38,22.06-18.67,31.07-33.22,47.82-44.04,56.7l-1.55-1.61c-152.31-105.63-236.56-205.26-236.56-205.26l-.46-.21s.03-.06.05-.09c.76-1.49,1.64-2.94,2.64-4.31.14-.19.27-.37.41-.55.37-.51.75-1.01,1.11-1.51,9.17-12.92,33.6-34.26,50.05-30.64,19.33,4.26,39.89,27.13,55.9,34,12.3,5.29,37.64,11.26,55.89,14.16,2.73.43,5.3.8,7.65,1.08,3.5.42,5.49,4.21,3.82,7.33-.56,1.05-1.02,2.16-1.38,3.32-6.84,21.95,22.54,63.16,99.15,101.89,1.42.72,2.71,1.6,3.85,2.61.38.34.75.69,1.1,1.05Z" fill="#ffac73"/><path d="M544.07,1939.34l1.55,1.61c-1.9,1.56-3.68,2.87-5.34,3.98-8.11,5.38-18.71,5-26.51-.82-94.79-70.97-173.1-146.29-201.07-174.33-4.12-4.14-6.84-9.18-8.13-14.51-1.69-7.07-.89-14.68,2.48-21.4l.46.21s84.25,99.64,236.56,205.26Z" fill="#f4f4f4"/><path d="M786.42,352.55c-.5,0-1-.22-1.35-.63-11.63-14-22.91-18.09-33.52-12.14-.23.13-.46.26-.68.4-6.88,4.16-10.9,11.12-10.94,11.19-.48.84-1.54,1.14-2.39.66-.84-.48-1.14-1.54-.66-2.38.18-.32,4.48-7.82,12.14-12.44.24-.15.53-.32.81-.48,8.46-4.74,21.9-6.34,37.93,12.95.62.74.52,1.85-.23,2.46-.33.27-.72.4-1.12.4Z" fill="#2b2b2b"/><path d="M897.26,1202.04c-11.67,0-22.81-.43-33.27-1.36-4.48-.4-8.88-.89-13.06-1.47-15.68-2.19-29.54-10.99-38.03-24.13-25.06-38.82-18.28-58.05-8.89-84.66,2.31-6.55,4.7-13.31,6.86-21.04,5.61-20.07,6.6-42.02,2.86-63.47-2.75-15.75-4.95-32.18-6.52-48.84-6.49-68.08-2.15-130.61,2.63-171.08,3-25.32,6.06-40.87,6.09-41.02.32-1.62,1.9-2.68,3.53-2.36,1.62.32,2.68,1.9,2.36,3.53-.03.15-3.05,15.49-6.02,40.56-4.74,40.18-9.05,102.25-2.61,169.81,1.56,16.5,3.74,32.78,6.46,48.37,3.89,22.32,2.86,45.19-2.99,66.11-2.21,7.92-4.63,14.78-6.98,21.42-9.15,25.93-15.2,43.07,8.27,79.41,7.55,11.68,19.87,19.5,33.82,21.45,4.09.56,8.39,1.05,12.77,1.44,10.36.92,21.42,1.35,32.97,1.35,112.35,0,272.96-40.47,321.75-61.55,3.03-1.31,5.64-2.56,7.75-3.69,28.59-15.48,16.9-91.77.15-124.04-1.5-2.89-3.37-6.09-5.54-9.79-6.69-11.45-15.86-27.12-25.64-53.03-.58-1.55.2-3.28,1.75-3.87,1.55-.59,3.28.2,3.87,1.75,9.6,25.43,18.62,40.86,25.21,52.12,2.21,3.77,4.11,7.03,5.68,10.05,8.73,16.82,15.91,45.67,17.46,70.17,2.02,31.82-5.12,53.81-20.08,61.92-2.27,1.22-5.03,2.54-8.22,3.92-49.17,21.24-211.07,62.02-324.36,62.03Z" fill="#2b2b2b"/><path d="M784.93,992.1c-.21,0-.42-.02-.62-.07-12.9-2.75-38.54-17.21-68.59-38.69-18.16-12.97-36.03-27.2-51.67-41.14-17.98-16-32.46-31.19-41.87-43.92-6.19-8.37-10.36-15.88-12.38-22.3-.33-1.06-.05-2.22.73-3.01,7.63-7.7,187.63-188.58,253.13-194.58.91-.08,1.81.25,2.45.92l2.51,2.63c1.01,1.06,1.11,2.69.24,3.86-4.32,5.82-9.82,16.01-7.91,19.42.84,1.51,4.05,1.46,5.88,1.3,3.76-.34,7.57-1.67,11.03-3.85,18.58-11.69,84.31-50.63,149.99-61.06,3.4-.54,6.86-.66,10.29-.34,2.7.23,5.4.74,7.99,1.51,1.44.42,2.88.93,4.24,1.5,22.38,9.33,42.64,28.92,61.93,59.89.88,1.41.45,3.26-.96,4.13-1.41.88-3.26.44-4.13-.96-18.6-29.88-37.95-48.69-59.15-57.53-1.16-.49-2.37-.92-3.61-1.28-2.22-.66-4.51-1.09-6.83-1.29-2.95-.27-5.91-.18-8.81.29-64.55,10.25-129.4,48.68-147.73,60.21-4.25,2.68-8.99,4.33-13.69,4.75-5.83.52-9.75-.94-11.65-4.35-3.73-6.67,3.05-18.23,6.67-23.57-62.06,8.68-229.69,174.74-246.26,191.3,2,5.42,5.66,11.75,10.9,18.83,9.17,12.41,23.36,27.28,41.04,43.01,15.49,13.8,33.18,27.89,51.17,40.74,27.58,19.71,51.94,33.75,64.53,37.25l23.47-30.7c1.01-1.32,2.89-1.57,4.21-.56,1.32,1.01,1.57,2.89.56,4.21l-24.66,32.26c-.57.75-1.46,1.18-2.38,1.18Z" fill="#2b2b2b"/><path d="M941.52,1646.16c-.46,0-.93-.11-1.37-.33-.45-.23-45.46-23.44-98.55-59.3-43.71-29.53-80.33-58.99-108.85-87.56-4.21-4.22-8.48-8.67-12.7-13.24-19.35-21.05-34.18-41.67-44.08-61.28-.56-1.1-.38-2.44.45-3.36l4.47-4.97,171.4-190.68,9.22-29.02c.51-1.58,2.2-2.44,3.78-1.93,1.58.51,2.44,2.2,1.93,3.78l-.11.35-9.29,29.26c-.13.41-.34.78-.63,1.1l-174.93,194.59c9.65,18.57,23.84,38.11,42.21,58.1,4.16,4.51,8.37,8.91,12.52,13.05,28.26,28.32,64.58,57.53,107.97,86.84,46.07,31.12,86,52.65,95.69,57.77l128.18-170.61c19.6-26.08,44.67-47.26,72.49-61.26,14.01-7.06,38.29-28.29,60.95-59.83,17.71-24.65,40.17-63.44,46.6-108.29,5.54-38.6-2.18-73.66-22.94-104.19-.93-1.37-.58-3.24.79-4.17,1.37-.93,3.24-.58,4.17.79,21.63,31.81,29.68,68.28,23.92,108.42-6.6,46.05-29.56,85.74-47.67,110.94-20.45,28.46-45.23,52.67-63.13,61.69-27,13.59-51.34,34.16-70.39,59.51l-129.71,172.65c-.58.78-1.48,1.2-2.4,1.2Z" fill="#2b2b2b"/><path d="M931.88,1601.9c-.27,0-.54-.06-.79-.19-72.32-36.79-127.37-83.49-160.82-116.19-36.26-35.44-55.68-62.57-55.88-62.84-.56-.79-.38-1.88.41-2.44.79-.56,1.88-.38,2.44.41.19.27,19.48,27.2,55.54,62.44,33.26,32.51,88,78.93,159.89,115.51.86.44,1.2,1.49.77,2.35-.31.61-.92.96-1.56.96Z" fill="#2b2b2b"/><path d="M1168.55,968.38c-.74,0-1.46-.27-2.02-.78l-172.03-157.09c-1.22-1.12-1.31-3.01-.19-4.24,1.12-1.22,3.02-1.31,4.24-.19l170.53,155.72c6.48-3.35,16.13-10.82,27.49-21.29,8.67-7.96,18.39-17.72,28.11-28.23,7.97-8.62,15.78-17.55,23.21-26.54,6.65-8.04,12.92-16.02,18.64-23.72,18.46-24.83,30.94-46.25,36.07-61.93,1.09-3.3,1.85-6.37,2.27-9.16-13.87-9.12-117.39-76.58-196.85-111.23-.08-.03-.15-.07-.22-.11-34.95-15.23-60.45-22.08-75.78-20.34-1.63.19-3.13-1-3.32-2.64-.19-1.65,1-3.13,2.64-3.32,16.42-1.86,43.03,5.17,79.08,20.9.08.03.15.07.22.11,85.36,37.27,197.97,111.91,199.1,112.66.93.62,1.44,1.7,1.32,2.81-.38,3.67-1.31,7.78-2.77,12.2-6.73,20.58-23.81,45.97-36.95,63.64-5.78,7.78-12.11,15.84-18.83,23.96-7.5,9.08-15.38,18.09-23.43,26.79-9.83,10.63-19.67,20.51-28.45,28.58-9.12,8.41-21.89,19.26-30.88,23.2-.39.17-.8.25-1.2.25Z" fill="#2b2b2b"/><path d="M1169.57,922.75c-.5,0-.99-.21-1.34-.62-.62-.74-.53-1.84.2-2.47,58.55-49.66,104-126.74,104.46-127.51.49-.83,1.56-1.12,2.39-.63.83.49,1.11,1.56.63,2.39-.46.78-46.21,78.38-105.21,128.41-.33.28-.73.42-1.13.42Z" fill="#2b2b2b"/><path d="M1090.08,1577.74c-1.2,0-2.29-.71-2.76-1.83-2.7-6.38-5.2-12.31-7.57-17.94-9.77-23.2-17.49-41.53-27.7-63.77-.69-1.51-.03-3.29,1.48-3.98,1.5-.69,3.29-.03,3.98,1.48,10.25,22.32,17.98,40.69,27.78,63.94,2.11,5.01,4.32,10.26,6.69,15.85,7.1-.89,30.92-4.22,63.72-12.43,45.14-11.29,110.64-32.8,166.39-71.18,16.69-11.48,31.72-23.95,44.71-37.1-8.49-13.9-59.77-98.56-117.61-209.64l-.12-.23c-.75-1.48-.15-3.28,1.33-4.03,1.48-.75,3.28-.15,4.03,1.33l.1.19c62.91,120.83,118.05,210.34,118.6,211.23.72,1.17.56,2.68-.4,3.67-13.63,14.04-29.52,27.34-47.24,39.52-56.49,38.89-122.72,60.65-168.34,72.06-39.66,9.92-66.5,12.81-66.76,12.84-.1.01-.2.02-.3.02Z" fill="#2b2b2b"/><path d="M488.5,1760.25c-1.63,0-3.23-.1-4.77-.32-1.64-.23-2.78-1.75-2.55-3.39.23-1.64,1.75-2.79,3.39-2.55,7.93,1.12,17.96-1.35,22.82-5.61,20.17-17.67,50.91-49.81,91.37-95.52.01-.02.03-.03.04-.05.55-.62,1.09-1.24,1.65-1.86,64.06-72.52,130.52-154.29,131.18-155.11,1.04-1.29,2.93-1.48,4.22-.44,1.29,1.04,1.48,2.93.44,4.22-.66.82-67.2,82.69-131.35,155.31-.57.64-1.12,1.25-1.66,1.88-.02.02-.04.05-.06.07-40.61,45.88-71.52,78.18-91.87,96.01-5.14,4.5-14.33,7.36-22.84,7.36Z" fill="#2b2b2b"/><path d="M697.59,1737.17c-.19,0-.37-.03-.56-.09-63.32-21.32-95.67-79.42-95.99-80.01-.46-.85-.15-1.91.7-2.37.85-.46,1.91-.15,2.38.7.31.57,32.05,57.5,94.03,78.37.92.31,1.41,1.3,1.1,2.22-.25.73-.93,1.19-1.66,1.19Z" fill="#2b2b2b"/><path d="M588.53,1864.03c-1.47,0-2.75-1.08-2.97-2.58-1.23-8.56,9.17-24.83,12.02-28.72,30.04-41.01,62.82-68.21,97.53-97l1.62-1.34c40.41-33.55,82.2-68.25,120.54-129.13.13-.2.28-.39.45-.55l23.45-22.81c1.11-1.23,3.01-1.32,4.24-.21,1.23,1.11,1.32,3.01.21,4.24l-.11.12s-.09.09-.13.14l-23.21,22.57c-38.8,61.51-82.78,98.02-121.6,130.24l-1.62,1.34c-34.41,28.55-66.92,55.52-96.52,95.93-4.8,6.54-11.6,19.58-10.92,24.32.23,1.64-.9,3.16-2.54,3.4-.14.02-.29.03-.43.03Z" fill="#2b2b2b"/><path d="M527.65,1951.71c-5.52,0-11.04-1.75-15.67-5.21-99.72-74.65-179.37-152.53-201.4-174.62-4.39-4.41-7.47-9.92-8.92-15.93-1.89-7.88-.92-16.21,2.72-23.45,0-.02.02-.03.02-.05,0-.02.02-.04.03-.05.84-1.65,1.81-3.24,2.89-4.72.12-.17.26-.36.41-.55l.36-.48c.25-.33.49-.66.73-1,9.03-12.72,34.7-35.9,53.14-31.83,11.94,2.63,23.76,11.55,35.18,20.18,7.69,5.8,14.95,11.29,21.26,14,12.43,5.34,37.7,11.18,55.18,13.96,3.02.47,5.41.81,7.53,1.07,2.63.31,4.93,1.9,6.15,4.25,1.22,2.35,1.2,5.14-.05,7.48-.46.86-.84,1.77-1.16,2.79-6.55,21.02,24.88,61.54,97.64,98.32,1.62.82,3.13,1.85,4.48,3.04.42.37.83.77,1.27,1.21,6.58,6.92,7.73,17.48,2.8,25.69-16.34,27.19-31.38,46.52-44.71,57.48h0c-1.85,1.52-3.73,2.92-5.58,4.15-4.32,2.87-9.31,4.29-14.29,4.29ZM309.75,1735.17s-.01.02-.02.04c-3.01,5.98-3.81,12.86-2.25,19.35,1.19,4.94,3.73,9.47,7.34,13.1,21.96,22.01,101.35,99.64,200.75,174.05,6.79,5.07,16.05,5.37,23.05.73,1.68-1.12,3.4-2.4,5.1-3.79h0c12.8-10.52,27.4-29.33,43.38-55.93,3.54-5.9,2.73-13.49-1.99-18.44-.28-.29-.58-.58-.91-.87-.97-.85-2.06-1.59-3.22-2.18-35.63-18.01-63.9-38.03-81.75-57.9-16.15-17.98-22.87-34.87-18.91-47.55.43-1.37.96-2.67,1.6-3.85.45-.84.16-1.59.02-1.87-.15-.28-.59-.95-1.54-1.06-2.2-.26-4.66-.61-7.76-1.1-17.84-2.84-43.73-8.84-56.61-14.37-6.98-3-14.53-8.69-22.51-14.73-10.91-8.24-22.19-16.76-32.85-19.11-14.79-3.26-38.44,17.44-46.96,29.45-.26.37-.53.73-.79,1.09l-.34.46c-.15.2-.26.35-.38.51-.92,1.26-1.72,2.57-2.41,3.93,0,.02-.02.03-.03.05ZM545.62,1940.95h0,0ZM309.65,1735.35h0s0,0,0,0Z" fill="#2b2b2b"/><path d="M544.07,1942.34c-.59,0-1.19-.17-1.71-.54-150.89-104.64-236.29-204.79-237.14-205.79-1.07-1.27-.91-3.16.35-4.23s3.16-.91,4.23.35c.84.99,85.78,100.58,235.98,204.74,1.36.94,1.7,2.81.76,4.17-.58.84-1.52,1.29-2.47,1.29Z" fill="#2b2b2b"/><path d="M1094.64,1550c-.88,0-1.64-.67-1.74-1.56-.1-.96.59-1.82,1.55-1.93.35-.04,35.71-3.93,83.17-18.17,43.75-13.12,107.02-37.97,160.01-81.82.74-.62,1.85-.51,2.46.23.62.74.51,1.85-.23,2.46-53.46,44.24-117.23,69.29-161.32,82.5-47.75,14.32-83.37,18.24-83.72,18.27-.06,0-.13,0-.19,0Z" fill="#2b2b2b"/><path d="M870.93,705.67c-16.06,0-26.19-7.96-26.76-8.42-1.29-1.04-1.49-2.93-.46-4.22,1.04-1.29,2.92-1.49,4.21-.46h0c.67.53,16.75,12.99,40.55,3.6,6.58-2.59,16.23-8.68,27.41-15.73,31.87-20.1,80.03-50.46,126.63-44.32,1.64.22,2.8,1.72,2.58,3.37-.22,1.64-1.72,2.8-3.37,2.58-44.44-5.87-91.5,23.81-122.64,43.44-11.91,7.51-21.31,13.44-28.41,16.24-7.25,2.86-13.89,3.92-19.75,3.92Z" fill="#2b2b2b"/><path d="M789.49,641.12c-15.48,0-29.95-3.14-43.13-9.39-.08-.04-.15-.07-.22-.12-36.55-17.4-52.14-52.83-57.15-67.27-2-5.71-3.47-11.3-4.39-16.6-1.89-10.93-7.8-20.56-16.64-27.1-.08-.06-.15-.12-.22-.18l-26.2-23.64c-.63-.57-.99-1.38-.99-2.22,0-.85.36-1.66.99-2.23,20.3-18.38,37.01-46.79,28.6-68.82-.82-2.14-2.59-5.39-4.65-9.15-4.36-7.97-9.79-17.89-11.27-26.48-.28-1.63.82-3.18,2.45-3.46,1.64-.28,3.18.82,3.46,2.45,1.31,7.6,6.47,17.03,10.62,24.61,2.17,3.96,4.03,7.37,5,9.89,8.04,21.03-2.84,49.48-27.74,73.16l23.66,21.34c10.02,7.47,16.71,18.4,18.86,30.81.86,4.98,2.25,10.24,4.14,15.65,4.77,13.76,19.62,47.53,54.27,63.92.07.04.15.07.22.11,15.63,7.36,33.26,10.07,52.39,8.06,19.23-1.46,37.27-5.31,53.73-11.45,65.94-24.55,87.37-78.65,87.58-79.19.59-1.55,2.33-2.32,3.88-1.73,1.55.59,2.32,2.33,1.73,3.88-.23.59-5.67,14.55-19.64,31.79-12.86,15.86-35.69,37.57-71.44,50.88-16.98,6.33-35.58,10.3-55.29,11.8-4.26.45-8.46.67-12.59.67Z" fill="#2b2b2b"/><path d="M925.91,453.32c-.12,0-.25,0-.37-.02-1.37-.17-2.44-1.25-2.61-2.62-1.83-15.34-18.23-42.18-48.77-79.77-50.74-62.5-123.47-133.19-124.2-133.9-1.19-1.15-1.22-3.05-.06-4.24,1.15-1.19,3.05-1.22,4.24-.07.73.71,73.72,71.65,124.68,134.43,25.5,31.4,41.41,55.73,47.47,72.58,4.72-15.43,12.97-47.81,12.31-83.99-.97-53.64-22.07-123.61-117.07-152.35-1.59-.48-2.48-2.15-2-3.74.48-1.59,2.15-2.48,3.74-2,98.46,29.79,120.32,102.36,121.33,157.99.94,51.44-15.72,95.36-15.89,95.8-.45,1.17-1.57,1.92-2.8,1.92Z" fill="#2b2b2b"/><path d="M948.26,530.24c-1.64,0-2.98-1.32-3-2.97-.02-1.66,1.31-3.02,2.97-3.03,9.21-.11,18.52-4.08,27.68-11.82,12.98-10.94,23.27-27.44,29.62-39.37.89-1.67,1.64-3.14,2.29-4.5,8.23-17.05,12.73-36.04,13-54.93.62-42.17-10.55-64.94-33.2-67.67-20.23-2.45-42.77,12.06-42.99,12.21-1.38.9-3.24.51-4.15-.87-.91-1.39-.52-3.24.87-4.15.99-.65,24.56-15.85,46.99-13.14,11.79,1.42,21.05,7.48,27.52,17.99,7.63,12.39,11.32,31.14,10.96,55.73-.29,19.76-4.99,39.63-13.59,57.44-.68,1.43-1.47,2.98-2.4,4.73-6.6,12.39-17.34,29.58-31.05,41.13-10.25,8.66-20.84,13.11-31.48,13.23h-.04Z" fill="#2b2b2b"/><path d="M963.89,495.19c-.42,0-.84-.15-1.18-.46-.71-.65-.76-1.76-.11-2.47,35.45-38.83,37.42-74.39,36.63-87.87-.77-13.04-4.92-23.73-11.37-29.31-16.9-14.66-38.19,5.04-39.09,5.89-.7.66-1.81.63-2.47-.07-.66-.7-.63-1.81.07-2.47.24-.23,24.49-22.72,43.78-5.99,7.17,6.2,11.75,17.77,12.58,31.75.82,13.93-1.19,50.62-37.53,90.44-.35.38-.82.57-1.29.57Z" fill="#2b2b2b"/><path d="M866.27,671.71c-.5,0-1.01-.13-1.48-.39-1.43-.81-1.94-2.63-1.15-4.06.07-.13,2.39-4.66,1.4-12.92-.97-8.07-4.67-16.88-10.99-26.19-.93-1.37-.57-3.24.8-4.17,1.37-.93,3.24-.57,4.17.8,6.86,10.11,10.89,19.82,11.98,28.85,1.25,10.46-1.98,16.32-2.12,16.56-.55.97-1.57,1.52-2.61,1.52Z" fill="#2b2b2b"/><path d="M677.74,405.23c-.59,0-1.17-.17-1.68-.51-7.22-4.88-14.17-9.96-20.64-15.11-40.54-32.37-61.72-67.43-62.97-104.22-1.66-48.83,32.21-83.62,37.9-89.11.95-4.81,5.94-24.91,26.27-49.18,20.89-24.94,62.75-59.21,143.59-80.83,96.03-25.69,170.22-23.84,226.79,5.66,51.02,26.61,88.51,75.16,118,152.81l.07.18c.05.14.11.28.16.43.55,1.56-.27,3.28-1.84,3.82-1.56.55-3.28-.27-3.83-1.84l-.18-.49c-28.93-76.17-65.52-123.71-115.16-149.6-55.18-28.78-127.95-30.48-222.47-5.19-79.02,21.14-119.87,54.36-140.22,78.51-21.97,26.07-25.41,47.44-25.45,47.66-.1.68-.44,1.3-.94,1.77-.38.35-38.42,35.88-36.71,85.25,1.21,34.93,21.63,68.46,60.71,99.67,4.52,3.59,9.27,7.16,14.19,10.64-4.38-23.18-15.94-94.34.65-124.22.49-.88,1.38-1.45,2.38-1.53.99-.08,1.97.34,2.6,1.13.29.37,29.58,37.02,72.61,65.27,43.79,28.76,85.59,38.82,124.23,29.88.07-.02.14-.03.22-.04.13-.02.25-.05.37-.08l.28-.07c1.62-.37,3.23.63,3.6,2.25.37,1.61-.63,3.23-2.25,3.6l-.21.05c-.25.06-.5.12-.76.16-9.54,2.2-19.25,3.29-29.12,3.3-31.79,0-65.18-11.38-99.66-34.03-35.85-23.54-62.34-52.81-70.99-62.93-15.04,36.14,3.18,122.41,3.37,123.31.26,1.2-.24,2.43-1.25,3.12-.51.34-1.09.51-1.68.51Z" fill="#2b2b2b"/><path d="M1045.58,617.63c-1.01,0-2-.51-2.56-1.44-.76-1.24-18.53-30.69-19.05-59.96-.24-13.94,3.52-25.57,11.17-34.56,7.87-9.23,17.37-18.81,28.37-29.89,10.31-10.39,22-22.16,34.08-35.51,1.11-1.23,3.01-1.32,4.24-.21,1.23,1.11,1.32,3.01.21,4.24-12.18,13.45-23.92,25.27-34.27,35.71-10.92,11-20.34,20.49-28.06,29.55-6.68,7.84-9.96,18.13-9.74,30.56.49,27.62,18,56.65,18.17,56.94.86,1.41.42,3.26-1,4.12-.49.3-1.03.44-1.56.44Z" fill="#2b2b2b"/><path d="M1025.91,559.19c-.93,0-1.84-.43-2.43-1.23-21.04-28.81-45.33-40.41-45.58-40.52-1.5-.7-2.15-2.49-1.45-3.99.7-1.5,2.48-2.15,3.98-1.45,1.05.49,25.88,12.28,47.89,42.42.98,1.34.68,3.21-.65,4.19-.53.39-1.15.58-1.77.58Z" fill="#2b2b2b"/><path d="M1223.38,555.07c-.31,0-.62-.05-.93-.15-.68-.22-68.8-23.02-124.72-95.02-14.14-18.18-26.5-38.23-36.73-59.6-1.99-4.17-3.76-8.06-5.41-11.88-8.82-20.34-12.39-42.37-10.34-63.7.09-.95.2-1.88.3-2.79,1.91-16.54,9.58-32.08,21.6-43.76h0c4.34-4.23,9.22-7.93,14.5-11,17.9-10.33,38.83-23.58,58.42-43.48,10.81-10.97,20.43-23.24,28.6-36.47.6-.97,1.68-1.52,2.82-1.41,1.13.1,2.11.84,2.52,1.89.81,2.06,18.85,49.1,5.16,93.21,11.02-2.7,37.26-8.39,65.15-9.05,49.24-1.15,81.34,13.82,92.75,43.32.35.9.24,1.92-.29,2.73-.53.81-1.42,1.31-2.38,1.35-14.06.59-50.81,5.15-55.77,18.95,5.13,10.97,44.4,96.45,46.77,147.27.05,1.08-.48,2.1-1.39,2.68-.91.58-2.07.62-3.02.11-.25-.13-25.08-13.37-50.8-25.08-38.55-17.55-50.27-18.57-53.67-18.04,1.78,6.54,6.83,25.79,10.54,46.15,6.34,34.83,5.83,55.39-1.55,62.87-.57.58-1.35.89-2.13.89ZM1170.38,195.68c-7.64,11.59-16.38,22.41-26.04,32.22-20.1,20.41-41.45,33.94-59.69,44.47-4.85,2.81-9.33,6.21-13.32,10.1,0,0,0,0,0,0-11.03,10.72-18.07,24.98-19.82,40.15-.1.87-.2,1.77-.29,2.68-1.95,20.32,1.46,41.32,9.88,60.74,1.63,3.76,3.37,7.58,5.32,11.68,10.05,20.98,22.18,40.66,36.06,58.5,49.48,63.71,108.53,88.05,119.9,92.3,8.69-13.79-2.33-68.99-12.27-104.08-.28-1-.03-2.07.66-2.83,3.83-4.22,14.18-5.61,61.94,16.14,19.16,8.73,37.83,18.29,46.33,22.72-4.91-52.79-45.89-139.82-46.32-140.73-.3-.62-.37-1.33-.2-2,4.59-18.71,43.49-23.21,57.31-24.22-28.9-60.41-153.19-25.79-154.47-25.43-1.09.31-2.26-.02-3.03-.85s-1-2.02-.61-3.08c12.98-34.78,3.18-73.99-1.34-88.48ZM1069.24,280.32h0,0Z" fill="#2b2b2b"/><path d="M1064.49,401.53c-.43,0-.87-.16-1.21-.48-.27-.26-.55-.53-.82-.8-26.02-25.29-37.65-49.34-34.54-71.48,3.87-27.6,29.6-44.16,40.49-50,2.8-1.5,4.54-2.26,4.61-2.29.89-.38,1.92.02,2.3.91.39.89-.02,1.92-.91,2.3-.02,0-1.7.74-4.36,2.16-10.41,5.58-35.02,21.38-38.67,47.4-2.94,20.97,8.34,44.01,33.53,68.5.27.27.53.52.78.76.7.67.72,1.78.06,2.47-.34.36-.8.54-1.27.54Z" fill="#2b2b2b"/><path d="M774.95,947.59c-.28,0-.57-.07-.84-.21-67.92-37.04-128.45-103.75-129.06-104.42-.65-.72-.59-1.82.13-2.47.72-.65,1.83-.59,2.47.13.6.67,60.74,66.94,128.13,103.69.85.46,1.16,1.53.7,2.37-.32.58-.92.91-1.54.91Z" fill="#2b2b2b"/><path d="M1393.56,1609.6c-.09,0-.19,0-.28-.02-.95-.16-1.6-1.06-1.45-2.01.12-.7,11.05-70.86-25.9-121.51-.44-.62-.89-1.23-1.35-1.83-.59-.77-.44-1.87.33-2.45.77-.59,1.87-.44,2.45.33.49.64.96,1.28,1.42,1.91,37.81,51.83,26.63,123.4,26.51,124.12-.14.86-.88,1.47-1.72,1.47Z" fill="#2b2b2b"/><path d="M1324.81,1494.83c-1.33,0-2.55-.9-2.9-2.25-.42-1.6.55-3.24,2.15-3.66.68-.18,17.06-4.37,42.99-6.89,2.09-.21,4.41-.41,7.11-.63,14.61-1.14,27.85-.24,40.65.63,26.23,1.79,51.01,3.48,82.2-13.63,1.61-.89,3.72-1.88,6.15-3.02,5.8-2.73,15.51-7.3,17.28-10.77.75-1.48,2.56-2.06,4.04-1.31s2.06,2.56,1.31,4.04c-2.5,4.91-10.23,8.84-20.07,13.47-2.35,1.1-4.37,2.06-5.82,2.85-32.73,17.95-58.36,16.2-85.5,14.35-12.58-.86-25.6-1.75-39.77-.63-2.66.21-4.94.41-7,.62-25.43,2.47-41.91,6.69-42.08,6.73-.25.06-.5.1-.75.1Z" fill="#2b2b2b"/><path d="M1642.45,1721.18c-12.16,0-24.14-2.34-30.59-9.14-8.27-8.72-12.78-22.32-17.14-35.48-2.93-8.82-5.69-17.16-9.27-22.78-7.08-11.11-24.36-29.72-37.03-41.6-2.22-2.08-3.98-3.68-5.52-5.01-2-1.74-2.98-4.31-2.63-6.88.35-2.59,1.99-4.83,4.4-5.99.88-.43,1.72-.94,2.51-1.53h0s.07-.05.1-.07c17.37-12.92,14.99-62.15-23.15-131.34-.88-1.61-1.53-3.26-1.93-4.92-.11-.47-.25-1.08-.34-1.74-1.4-9.12,3.77-18.13,12.57-21.86,29-12.3,52.43-19.16,69.64-20.39.03,0,.07,0,.1,0,.06,0,.12,0,.17-.01,2.38-.16,4.63-.21,6.68-.15,10.91.3,20.53,7.3,23.93,17.4,38.47,114.26,58.61,219.7,63.86,249.3,1.05,5.96.39,12.04-1.91,17.61-2.99,7.26-8.59,13.3-15.77,17-.01,0-.09.04-.1.05-1.74.87-3.38,1.55-5.02,2.08-.25.09-.5.17-.77.25-.55.17-1.13.35-1.7.54-7.23,2.46-19.24,4.67-31.08,4.67ZM1550.71,1597.61c-1.07.8-2.23,1.5-3.43,2.08-.81.39-1.01,1.04-1.06,1.39-.04.34-.03.99.62,1.55,1.6,1.38,3.41,3.03,5.69,5.17,12.93,12.13,30.64,31.24,37.98,42.76,3.98,6.25,6.86,14.93,9.91,24.12,4.16,12.53,8.46,25.49,15.8,33.24,10.22,10.8,41.51,7.63,55.41,2.91.64-.21,1.25-.41,1.86-.59.19-.06.34-.1.5-.16.04-.01.08-.03.12-.04,1.37-.44,2.75-1.01,4.23-1.75,5.95-3.07,10.56-8.02,13.01-13.98,1.87-4.51,2.4-9.44,1.55-14.27-5.24-29.49-25.3-134.56-63.64-248.43-2.6-7.73-10-13.08-18.42-13.32-1.88-.05-3.95,0-6.17.14-.03,0-.06,0-.08,0-.06,0-.11,0-.16.01-16.54,1.19-39.31,7.89-67.67,19.92-6.27,2.66-9.97,9.02-8.98,15.47.05.36.12.71.23,1.19.28,1.14.74,2.31,1.36,3.45,18.73,33.97,30.29,65.45,33.42,91.02,2.84,23.19-1.43,40.25-12.01,48.06h0s-.05.04-.08.06Z" fill="#2b2b2b"/><path d="M1679.5,1713.47c-1.53,0-2.84-1.17-2.98-2.73-.11-1.25-12.08-126.75-74.73-292.11-.59-1.55.19-3.28,1.74-3.87,1.55-.59,3.28.19,3.87,1.74,62.95,166.18,74.98,292.44,75.09,293.69.15,1.65-1.07,3.11-2.72,3.26-.09,0-.18.01-.28.01Z" fill="#2b2b2b"/><path d="M1276.92,1628.12c-4.72,0-9.31-.1-13.75-.31-38.99-1.82-67-11.34-83.25-28.3-.65-.67-1.31-1.36-1.99-2.05-7.34-7.56-16.48-16.98-24.24-34.25l-.14-.32c-.67-1.52.01-3.29,1.53-3.96,1.51-.67,3.29.01,3.96,1.53l.13.31c7.32,16.29,15.69,24.91,23.07,32.52.68.7,1.36,1.4,2.01,2.08,29.62,30.9,104.95,35.3,206.67,12.08l.38-.08c.68-.15,1.37-.3,2.05-.46,59.7-13.57,103.61-21.83,130.51-24.55,8.06-.81,19.48,3.39,26.56,9.78,1.23,1.11,1.33,3.01.22,4.24-1.11,1.23-3.01,1.33-4.24.22-5.86-5.29-15.49-8.92-21.93-8.27-26.66,2.7-70.32,10.92-129.76,24.42-.68.16-1.4.32-2.11.48l-.36.08c-42.76,9.76-82.29,14.83-115.31,14.83Z" fill="#2b2b2b"/><path d="M1425.31,1071.74c-.85,0-1.7-.36-2.29-1.06l-131.81-155.37-42-24.64c-1.43-.84-1.91-2.68-1.07-4.11.84-1.43,2.68-1.91,4.11-1.07l42.44,24.9c.29.17.55.39.77.65l132.14,155.76c1.07,1.26.92,3.16-.35,4.23-.56.48-1.25.71-1.94.71Z" fill="#2b2b2b"/><path d="M1520.75,1014.06c-.81,0-1.62-.33-2.22-.98l-160.63-175.96s-.05-.05-.07-.08c-5.88-6.93-13.28-12.87-22-17.65l-31.21-15.51c-1.48-.74-2.09-2.54-1.35-4.02.74-1.48,2.54-2.09,4.02-1.35l31.26,15.54s.07.04.11.06c9.38,5.13,17.36,11.53,23.71,19.02l160.6,175.92c1.12,1.22,1.03,3.12-.19,4.24-.58.52-1.3.78-2.02.78Z" fill="#2b2b2b"/><path d="M589.08,1002.74c-48.26,0-125.88-27.15-162.73-58.27-8.57-7.24-12.44-15.6-11.49-24.85,2.89-28.14,50.46-54.19,52.48-55.28.62-.33,1.32-.44,2.01-.3l125.21,24.78,27.43-24.09c1.25-1.09,3.14-.97,4.23.27,1.09,1.24.97,3.14-.27,4.23l-28.54,25.07c-.7.62-1.65.87-2.56.69l-125.58-24.86c-6.6,3.75-46.08,27.09-48.44,50.11-.74,7.26,2.33,13.68,9.39,19.65,17.96,15.16,48.64,30.89,82.08,42.07,34.25,11.45,66.24,16.63,87.76,14.22,81.52-9.12,114.81-46.84,115.14-47.22,1.08-1.26,2.97-1.4,4.23-.32,1.26,1.08,1.4,2.97.32,4.23-1.4,1.62-35.17,39.88-119.02,49.27-3.64.41-7.54.6-11.65.6Z" fill="#2b2b2b"/><path d="M693.11,565.92c-1.48,0-2.77-1.1-2.97-2.61-.21-1.64.94-3.15,2.58-3.36.59-.08,54.68-7.58,116.38-48.09l-120.65,38.24c-1.58.5-3.27-.37-3.77-1.95-.5-1.58.37-3.27,1.95-3.77l139.43-44.19c1.4-.44,2.91.19,3.58,1.5.67,1.31.29,2.9-.89,3.78-69.39,51.37-134.6,60.36-135.26,60.44-.13.02-.26.03-.39.03Z" fill="#2b2b2b"/><path d="M748.02,631.22c-1.4,0-2.65-.99-2.94-2.41-.32-1.62.73-3.2,2.35-3.53h0c.24-.05,24.16-5.02,45.42-22.51,28.29-23.27,38.78-56.64,31.16-99.19-.29-1.63.79-3.19,2.42-3.48,1.63-.29,3.19.79,3.48,2.42,10.02,55.98-12.66,88.02-33.44,105.04-22.42,18.36-46.84,23.4-47.87,23.61-.2.04-.4.06-.59.06Z" fill="#2b2b2b"/><path d="M366.32,887.28c12.76,19.61-12.34,33.52-12.34,33.52-35.12,2.7-43.9-18.5-43.9-18.5-8.22-15.72,2.49-36.74,2.49-36.74,0,0,23.25,23.64,50.07,19.82.38-.06.75-.11,1.13-.18l2.55,2.08Z" fill="#f9e2cd"/><path d="M376.68,858.28s12.43,22.61-12.9,26.92c-.37.07-.74.13-1.13.18-26.82,3.82-50.07-19.82-50.07-19.82-11.41-26.64,10.58-40.76,10.58-40.76,0,0,29.74,38.4,46.01,35,2.8-.58,5.07-1.18,6.93-1.79l.58.26Z" fill="#f9e2cd"/><path d="M386.47,848.96c-2.04,3.09-1.63,6.18-10.38,9.05-1.86.6-4.13,1.21-6.93,1.79-16.27,3.39-46.01-35-46.01-35-9.23-32.61,27.48-33.28,27.48-33.28,0,0,12.59,16.8,27.05,26.37l1.48.9c-2.53,4.89-3.23,11.02-.42,18.63,2.12,5.75,4.81,9.4,7.73,11.56Z" fill="#f9e2cd"/><path d="M434.05,803.83l-.09.73-24.18-2.94c-2.35-.29-4.72-.08-6.99.61-6.26,1.9-18.58,6.77-23.62,16.54l-1.48-.9c-14.46-9.57-27.05-26.37-27.05-26.37,1.2-3.88-1.26-25.78,28.67-25.07,29.94.7,54.74,37.39,54.74,37.39Z" fill="#f9e2cd"/><path d="M386.47,848.96c-2.92-2.16-5.61-5.81-7.73-11.56-2.81-7.61-2.11-13.74.42-18.63,5.04-9.77,17.36-14.64,23.62-16.54,2.27-.69,4.64-.89,6.99-.61l24.18,2.94,1.89.23c4.41,1.45,8.34,3.41,11.25,7.03,9.17,11.42,22.71,25.01,23.81,44.3,0,0,4.16,65.46-42.14,81.81-46.28,16.36-74.8-17.13-74.8-17.13,0,0,25.1-13.9,12.34-33.52l-2.55-2.08c25.33-4.31,12.9-26.92,12.9-26.92l-.58-.26c8.75-2.86,8.35-5.96,10.38-9.05Z" fill="#f9e2cd"/><path d="M420.23,896.7c-.75,0-1.51-.28-2.09-.85-.3-.29-29.24-29.01-7.24-54.73,0,0,.01-.01.02-.02.13-.15.27-.29.42-.41,1.29-1.03,3.18-.82,4.22.47.93,1.16.86,2.79-.1,3.87-18.32,21.43,5.84,45.5,6.88,46.52,1.18,1.16,1.21,3.06.05,4.24-.59.6-1.37.91-2.15.91Z" fill="#2b2b2b"/><path d="M470.1,878.33c-.12,0-.24,0-.36-.02-1.65-.2-2.82-1.69-2.62-3.33,1.28-10.72.81-18.58.81-18.66-1.04-18.16-14.11-32.86-20.4-39.92l-.11-.12c-2.63-2.95-8.5-7.02-12.3-8.55l-25.7-3.12c-1.96-.24-3.89-.07-5.75.5-5.02,1.52-17.19,6.04-21.83,15.05-2.42,4.69-2.51,10.14-.27,16.21,1.76,4.77,4.02,8.2,6.7,10.19,9.13,6.77,22.34-5.18,22.9-5.69,1.22-1.12,3.12-1.04,4.24.18,1.12,1.22,1.04,3.12-.18,4.24-1.77,1.63-17.69,15.62-30.53,6.09-3.64-2.69-6.58-7.04-8.76-12.93-2.85-7.72-2.66-14.8.57-21.04,5.49-10.64,18.28-15.87,25.42-18.03,2.67-.81,5.44-1.05,8.22-.71l26.08,3.17c.24.03.47.09.69.17,4.67,1.75,11.67,6.57,15,10.3l.11.12c6.73,7.57,20.74,23.32,21.9,43.55.02.32.51,8.43-.84,19.74-.18,1.52-1.48,2.64-2.98,2.64Z" fill="#2b2b2b"/><path d="M403.72,945.4c-12.85,0-23.39-3.47-31.02-7.21-10.62-5.2-17.46-11.7-19.96-14.3-34.56,2.08-44.45-18.22-45.37-20.31-7.64-14.76-.34-33.12,1.92-38.11-9.18-23.15,5.21-37.57,10.45-41.86-2.2-9.22-1.06-16.93,3.4-22.93,6.84-9.22,19.47-11.46,24.88-12v-.04c.77-7.08,2.78-25.89,31.35-25.2,31.13.73,56.11,37.16,57.16,38.71.93,1.37.57,3.24-.8,4.16s-3.24.57-4.17-.8c-.24-.35-24.31-35.42-52.33-36.08-23.06-.53-24.47,12.72-25.24,19.85-.14,1.33-.25,2.3-.5,3.11-.38,1.24-1.52,2.09-2.81,2.11-.15,0-15.84.44-22.74,9.77-3.59,4.85-4.23,11.48-1.91,19.7.36,1.27-.15,2.63-1.27,3.34-.8.52-19.68,13.16-9.44,37.06.35.82.32,1.75-.08,2.54-.1.19-9.89,19.85-2.51,33.99.04.08.08.16.11.24.33.77,8.59,19.14,40.89,16.66.96-.07,1.89.32,2.51,1.05,1.11,1.3,27.81,31.7,71.52,16.25,1.56-.55,3.28.27,3.83,1.83.55,1.56-.27,3.28-1.83,3.83-9.45,3.34-18.19,4.64-26.05,4.64Z" fill="#2b2b2b"/><path d="M377.68,820.88c-.57,0-1.14-.16-1.65-.5-14.72-9.74-27.27-26.36-27.79-27.07-.99-1.33-.72-3.21.6-4.2,1.33-.99,3.21-.72,4.2.6.12.16,12.46,16.5,26.3,25.66,1.38.91,1.76,2.78.85,4.16-.58.87-1.53,1.34-2.5,1.34Z" fill="#2b2b2b"/><path d="M367.13,863c-17.64,0-43.34-32.49-46.35-36.37-1.01-1.31-.78-3.19.53-4.21,1.31-1.01,3.19-.78,4.21.53,11.06,14.27,32.5,36.09,43.03,33.9,2.53-.52,4.75-1.1,6.61-1.7,5.72-1.87,6.53-3.51,7.56-5.59.34-.68.72-1.46,1.25-2.26.03-.05.06-.09.1-.14.04-.06.09-.14.16-.23,1-1.32,2.88-1.59,4.2-.6,1.32,1,1.59,2.88.6,4.2-.02.03-.04.07-.07.11-.31.48-.56.98-.85,1.57-1.62,3.27-3.56,6.18-11.08,8.64-2.07.67-4.51,1.3-7.25,1.87-.86.18-1.74.26-2.65.26Z" fill="#2b2b2b"/><path d="M356.65,888.8c-25.11,0-45.3-20.21-46.21-21.14-1.16-1.18-1.15-3.08.04-4.24,1.18-1.16,3.08-1.15,4.24.03h0c.22.23,22.54,22.52,47.51,18.96.33-.05.67-.1,1-.16,6.47-1.1,10.64-3.52,12.42-7.2,3.14-6.47-1.56-15.25-1.61-15.33-.79-1.45-.26-3.27,1.19-4.07,1.45-.79,3.27-.27,4.07,1.18.26.47,6.23,11.54,1.76,20.81-2.67,5.54-8.32,9.07-16.79,10.51-.37.07-.77.13-1.19.19-2.17.31-4.32.45-6.43.45Z" fill="#2b2b2b"/><path d="M353.98,923.8c-1.06,0-2.08-.56-2.63-1.55-.8-1.45-.28-3.27,1.17-4.08h0c.12-.06,11.59-6.56,13.98-16.24,1.07-4.33.19-8.59-2.7-13.02-.9-1.39-.51-3.25.88-4.15,1.39-.9,3.25-.51,4.15.88,3.8,5.83,4.97,11.81,3.49,17.77-3.04,12.22-16.32,19.7-16.89,20.01-.46.25-.96.38-1.45.38Z" fill="#2b2b2b"/></svg>