<?xml version="1.0" encoding="UTF-8"?><svg id="_レイヤー_16" xmlns="http://www.w3.org/2000/svg" width="2000" height="2000" viewBox="0 0 2000 2000"><path d="M1870.67,1404.05c.5,7.51-1.73,15.16-6.47,21.54-.02.01-.02.02-.03.03l-.42-.34s-69.55-114.34-208.91-244.88l-3.8-.39c.85-.53,1.68-1.03,2.48-1.5.06-.03.13-.07.19-.1,2.19-1.27,4.21-2.32,6.1-3.17,9.42-4.3,20.41-2.35,27.43,4.75,85.8,86.6,153.61,175.22,177.62,208.02,3.54,4.85,5.46,10.4,5.81,16.04Z" fill="#f4f4f4"/><path d="M1864.17,1425.62s-.02.02-.03.04c-1.07,1.41-2.24,2.75-3.54,4.02-.17.17-.34.33-.52.51-.48.44-.97.91-1.44,1.37-11.9,11.86-41.22,30.07-57.7,23.93-19.36-7.2-36.6-33.64-52.02-43.05-11.85-7.21-37.14-17.07-55.62-22.73-2.76-.85-5.37-1.61-7.75-2.24-3.58-.95-4.96-5.12-2.65-8.06.76-.99,1.45-2.04,2.02-3.16t.01-.02s0-.01.01-.02c11.13-21.44-11.96-67.91-84.68-118.84-1.35-.96-2.54-2.04-3.55-3.24-.32-.4-.65-.8-.94-1.23-4.68-6.74-4.32-16.14,1.54-22.92,23.54-27.2,41.03-42.05,53.73-49.97l3.8.39c139.36,130.54,208.91,244.88,208.91,244.88l.42.34Z" fill="#ffac73"/><path d="M1600.26,1257.37c72.72,50.93,95.81,97.4,84.68,118.84l-.96-.47c-8.79-2.52-20.74-1.42-27.4,2.74-27.66,17.22-69.73,49.53-112.92,84.41l-1.37-1.66s-22.16-73.29-82.64-105.13c2.08-1.28,4.24-2.58,6.46-3.9,41.1-24.3,79.39-24.12,112.33-70.93,4.31-6.13,16.4-18.98,16.51-25.95l1.76-1.19c1.01,1.2,2.2,2.28,3.55,3.24Z" fill="#fff"/><path d="M1517.08,383.72s102.74-51.04,100.8,9.05c-1.94,60.08-100.8-9.05-100.8-9.05Z" fill="#8dd4ff"/><path d="M1577.32,992.94c2.76,11.02,2.7,24.52-9.38,33.23l-2.75.72h0s1.16,4.42,1.16,4.42c0,0,1.71,22.48-19.82,25.43-6.53,26.9-46.04,9.24-46.04,9.24l-9.23-8.1-2.64,3.01c-12.52,2.49-30.75,11.1-51.33-2.9-22.87-15.55-25.69-47.69-24.92-67.42l-1.88-.07-173.37-131.3-49.86-16.07-.66-.33c4.93-9.66,9.65-19.43,13.96-29.11,12.38-27.7,21.53-54.34,23.41-73.7l.57.06,36.09,8.92c10.53,3.05,20.05,7.73,28.05,13.8l205.27,144.02c27.96,5.13,103.8,24.85,84.3,85.93l-.93.22Z" fill="#f9e2cd"/><path d="M1422.19,1382.54c.42-.36,14.16-12.06,37.46-26.44,60.48,31.84,82.64,105.13,82.64,105.13l1.37,1.66c-.68.56-1.38,1.12-2.07,1.67-80.94,65.5-159.23,103.08-206.34,85.86-4.25-1.54-8.85-3.11-13.85-5.22l-1.21-.63c.13-.11.25-.21.38-.33,39.54-33.66,65.07-100.57,99.94-162.62,0,0,0-.01.01-.01l1.67.93Z" fill="#f9e2cd"/><path d="M1535.17,225.42c49.37,60.47-26.49,113.72-119.53,121.47-51.73,4.31-92.45,28.56-113.96,34.5-3.34.92-6.15-2.63-4.47-5.66,24.77-44.67,150.37-257.62,237.96-150.31Z" fill="#8dd4ff"/><path d="M1356.97,449.6c32.32-10.88,151.94-38.61,139.44,28.46-7.11,38.11-48.19,38.68-83.35,10.77-20.9-16.59-43.86-29.89-56.13-34.27-2.35-.84-2.33-4.17.04-4.96Z" fill="#8dd4ff"/><path d="M1446.89,1322.27c-6.74,20.68-15.79,40.52-26.37,59.34-.01,0-.01.01-.01.01-34.87,62.05-60.4,128.96-99.94,162.62-.13.12-.25.22-.38.33-59.81,50.11-104.64,60.1-108.49,62.5-28.83-25.02-123.09-116.52-148.15-136.97,103.38-59.42,230.19-156.55,200.21-281.97l.87-.21c118.28,87.11,182.26,134.35,182.26,134.35Z" fill="#2e4fa2"/><path d="M722.5,1610.05c-34.19-30.67-71.7-68.09-101.67-107.73h-.02c-3.93-5.21-7.72-10.44-11.37-15.7-16.08-23.19-29.18-46.91-37.2-70.25l5.44-4.6,209.01-176.66,2.33-6.18.7-.58c.08.11.17.21.26.32,3.13,3.75,6.73,7.65,10.88,11.74,11.27,11.11,26.85,16.64,42.6,15.38,4.47-.37,9.07-.86,13.77-1.47,117.72-15.43,305.19-108.29,356.19-145.22,2.94-2.13,5.41-4.08,7.42-5.79,22.77,29.52,36.48,57.83,42.92,84.82,29.98,125.42-96.83,222.55-200.21,281.97-29.15,16.75-60.45,29.45-84.12,53.31l-20.87,21.03-141.03,142.23s-43.8-30.7-95.03-76.62Z" fill="#2e4fa2"/><path d="M1240.15,290.81c2.26,15.39-28.94,72.06-28.94,72.06-18.93-32.57-107.34-54.74-177.92-67.56-.29-3.27-.56-5.12-.56-5.12-1.54,1.43-3.1,2.83-4.66,4.18-48.25-8.57-86.89-12.68-86.89-12.68l-2.51.12c-.18-1.99-.38-4.02-.61-6.1,1.05.24,2.1.48,3.15.73,0,0,.37-2.17.4-5.85h.66s295.63,4.84,297.88,20.22Z" fill="#f5f5f5"/><path d="M1145.72,911.96l.22.15c21.3,32.54,37.53,46.85,46.7,57.78,23.42,27.92,57.22,108.19,28.2,133.42-2.01,1.71-4.48,3.66-7.42,5.79-51,36.93-238.47,129.79-356.19,145.22-4.7.61-9.3,1.1-13.77,1.47-15.75,1.26-31.33-4.27-42.6-15.38-4.15-4.09-7.75-7.99-10.88-11.74-.09-.11-.18-.21-.26-.32-28.41-34.29-16.55-55.84-14.48-94.87,1.26-23.28-3.05-46.48-11.95-68.01-6.74-16.34-12.71-32.76-17.99-49.02l-.6.2-18.16,39.24c-13.92.13-44.79-9.58-78.95-24.08-20.77-8.82-42.77-19.42-62.91-30.66-20.83-11.59-39.68-23.88-53.14-35.58-7.81-6.78-13.8-13.35-17.36-19.49,0,0,150-238.17,216.34-259.44l3.21,2.15s-.04.1-.12.28c-.02.06-.05.12-.08.19-1.71,4.03-13.1,32.2,6.76,25.88,4.49-1.42,8.52-4.01,11.87-7.33,15.02-14.88,74.76-71.4,140.67-97.45,3.18-1.26,6.49-2.11,9.84-2.54,2.6-.35,5.23-.44,7.87-.27h.07s.05,0,.08,0c1.46.1,2.94.27,4.41.54,11.3,2.01,25.89,6.73,43.89,19.08,13.04,12.76,24.28,21.53,31.2,26.5,2.17,1.56,3.91,2.74,5.15,3.56h.01c1.41.94,2.18,1.4,2.18,1.4.36-.21.73-.45,1.09-.73,97.43,20.15,225.42,69.45,225.42,69.45.43,3.73.4,7.97-.07,12.63-1.88,19.36-11.03,46-23.41,73.7-4.31,9.68-9.03,19.45-13.96,29.11-5.81,11.38-11.93,22.56-18.06,33.11-7.75,13.32-15.55,25.62-22.82,36.05Z" fill="#fff"/><path d="M1140.33,138.69s48.82,13.94,50.51,37.14c0,0-56.58,73.09-248.57,94.77h-.66c.04-3.3-.17-7.8-1.14-13.04,23.24-3.46,172.77-29.14,199.86-118.87Z" fill="#f5f5f5"/><path d="M881.58,373.61c6.08-8.39,14.08-15.37,23.4-20.43,5.27-2.87,10.96-5.13,16.96-6.7,4.62-1.2,9.43-2.5,14.4-3.95,17.74-5.19,37.44-12.3,57.36-23.71,11.49-6.57,23.06-14.58,34.37-24.45,1.73.3,3.46.61,5.22.94,1.21,14.61,2.43,57.55-20.77,89.93,0,0,146.69-2.59,157.35,71.75,0,0-56.27-11.78-66.21,6.44,0,0,22.91,103.31,12.42,155.96,0,0-89.62-77.62-102.69-69.4,0,0,4.22,93.57-14.77,107.92-1.09-.23-2.19-.45-3.27-.66h-.01c-1.24-.83-2.98-2.01-5.15-3.57-11.36-11.42-21.75-20.02-31.2-26.5-20.78-20.34-46.11-50.84-65.72-92.34-3.65-7.72-7.11-15.83-10.29-24.32-5.02-13.31-9.37-27.58-12.82-42.81-.95-4.22-1.83-8.52-2.65-12.89-3.95-21.33-2.49-43.2,4.83-63.42.31-.89.65-1.75.97-2.6,2.1-5.45,4.89-10.54,8.27-15.19Z" fill="#222"/><path d="M385.86,265.4c-2.73.48-4.13.76-4.13.76,1.06-35.4,25.19-63.44,25.19-63.44,1.61-.45,3.23-.89,4.85-1.34,195.41-52.65,481.69,32.01,521.37,44.31,3.04.94,4.63,1.45,4.63,1.45,1.25,3.68,2.13,7.2,2.7,10.42.97,5.24,1.18,9.74,1.14,13.03-.03,3.68-.4,5.85-.4,5.85-1.05-.25-2.1-.49-3.15-.73-98.16-22.6-196.59-30.38-282.77-31.02-139.83-1.03-247.45,16.77-269.43,20.71Z" fill="#f5f5f5"/><path d="M938.67,281.81c3.23,37.21-2.55,60.02-2.55,60.02l.22.7c-4.97,1.45-9.78,2.75-14.4,3.95-6,1.57-11.69,3.83-16.96,6.7-9.32,5.06-17.32,12.04-23.4,20.43-10.49,2.71-29.13,14.65-29.04,52.15,0,1.2.02,2.36.04,3.5l-7.96.14c-.13-8.98-1.11-17.95-2.95-26.82-11.31-54.57-33.35-67.19-53.61-65.19-23.06,2.3-43.83,23.59-43.83,23.59l-1.44.33c-10.55-43.68-34.68-90.39-87.51-115.64v-.98c86.19.64,184.62,8.42,282.78,31.02.23,2.08.43,4.11.61,6.1Z" fill="#222"/><path d="M907.5,172.22c12.89,26.7,20.86,51.51,25.64,73.47-39.68-12.3-325.96-96.96-521.37-44.31,20.1-30.1,55.67-67.33,118.62-105.28,161.58-97.38,330.14-21.16,377.11,76.12Z" fill="#222"/><path d="M817.91,517.36l.83.6c1.71.39,29.42,7.09,58.07,32.27l1.11-.26c6.85,28.41,30.49,53.93,32.7,56.27.02.03.05.06.07.08l-.08,1.23h-.07c-2.64-.17-5.27-.08-7.87.27-3.35.43-6.66,1.28-9.84,2.54-65.91,26.05-125.65,82.57-140.67,97.45-3.35,3.32-7.38,5.91-11.87,7.33-19.86,6.32-8.47-21.85-6.76-25.88l1.91-.64c-.01-.05-.03-.1-.05-.15-.01-.04-.02-.06-.03-.09-2.47-7.01-7.69-15.94-18.31-25.94l-2.14-.24c-15.17,9.21-35.42,20.18-52.15,24.32-30.25,7.47-60.18-.26-60.18-.26-34.56-7.83-57.65-29.15-71.31-51.29-3.46-5.58-6.19-10.94-8.17-15.78-4.78-11.59-13.77-20.92-25.21-26.01l-32.7-18.5c19.23-27.19,27.78-60.68,13.85-81.75-4.37-6.62-19.51-20.64-24.49-32.8l.09-.19c7.65,3.71,15.84,7.35,24.7,10.82-.57-1.28-42.97-94.13-31.1-134.25,0,0,39.06,31.7,91.45,51.54,1.2.45,2.41.9,3.63,1.35,41.29,15.02,90.32,22.19,134.9.86,35.09,27.78,63.77,54.85,70.17,73.07,0,0,7.28-48.76-5.6-102.02l1.44-.33s20.77-21.29,43.83-23.59c20.26-2,42.3,10.62,53.61,65.19,1.84,8.87,2.82,17.84,2.95,26.82.16,11.63-1.09,23.27-3.77,34.64-.41,1.8-.88,3.57-1.38,5.34-4.36,15.78-11.24,34.09-21.56,47.98ZM612.07,512.76c3.03-1.49,4.69-4.63,4.02-7.64-4.67-20.55-24.58-96.78-60.49-84.8-36.31,12.09-2.07,85.37,7.28,103.24,1.3,2.5,5.37,3.5,8.44,3.06,15.58-2.19,32.51-9.79,40.75-13.86Z" fill="#f9e2cd"/><path d="M882.98,510.52c-.6,1.07-1.17,2.13-1.73,3.19-6.12,11.57-6.24,24.17-3.33,36.26l-1.11.26c-28.65-25.18-56.36-31.88-58.07-32.27l-.83-.6c10.32-13.89,17.2-32.2,21.56-47.98.5-1.77.97-3.54,1.38-5.34,2.68-11.37,3.93-23.01,3.77-34.64l7.96-.14c.92,45.19,17.56,38.17,17.58,38.45,3.45,15.23,7.8,29.5,12.82,42.81Z" fill="#222"/><path d="M881.58,373.61c-3.38,4.65-6.17,9.74-8.27,15.19-.32.85-.66,1.71-.97,2.6-7.32,20.22-8.78,42.09-4.83,63.42.82,4.37,1.7,8.67,2.65,12.89-.02-.28-16.66,6.74-17.58-38.45-.02-1.14-.04-2.3-.04-3.5-.09-37.5,18.55-49.44,29.04-52.15Z" fill="#ffce76"/><path d="M678.22,390.26c-44.58,21.33-93.61,14.16-134.9-.86-1.22-.45-2.43-.9-3.63-1.35-52.39-19.84-91.45-51.54-91.45-51.54-11.87,40.12,30.53,132.97,31.1,134.25-8.86-3.47-17.05-7.11-24.7-10.82h-.01c-151.04-73.86-68.93-191.33-68.93-191.33,0,0-.04-1.11.16-3.21,21.98-3.94,129.6-21.74,269.43-20.71v.98c52.82,25.25,76.95,71.96,87.5,115.64,12.88,53.26,5.6,102.02,5.6,102.02-6.4-18.22-35.08-45.29-70.17-73.07Z" fill="#222"/><path d="M722.5,1610.05l-28.07,20.66c-49,58.32-98.42,89.37-146.65,119.34h0l-.93-1.5c-63.77-31.73-88.7-97.33-88.7-97.33l-1.46-1.68h.01c.68-.6,1.35-1.18,2.04-1.76,79.07-68.02,161-144.64,161-144.64l1.08-.83h.02c29.97,39.65,67.48,77.07,101.67,107.74Z" fill="#f9e2cd"/><path d="M363.98,1028.5c-34.5,28.88-72.3,12.95-72.3,12.95,0,0,17.21-25.24-4.32-37.79l-4.4-.04c.34-.24.66-.47.99-.72,22.02-16.23-.63-31.78-.63-31.78l-.32-.32c6.53-6.65,4.73-9.37,5.18-13.22-3.82-.66-8.12-2.84-12.89-7.3-6.32-5.89-8.58-12.05-8.52-17.91v-.08c.16-11.69,9.5-22.17,14.54-26.96,1.83-1.75,3.98-3.08,6.35-3.93l24.4-8.79h0l1.9-.68c4.82-.52,13.19.62,17.69,2.41,9.57,3.79,29.95,11.78,40.25,29.6,0,0,3.31,5.68,6.88,14.63.51,1.28,1.02,2.62,1.53,4.03l2.23.69.37.11,127.88,39.77,20.2-16.96.54-.64c13.46,11.7,32.31,23.99,53.14,35.58,20.14,11.24,42.14,21.84,62.91,30.66,0,0-15.4,44.05-100.16,73.13-42.74,14.67-132.89-47.76-183.21-76.16l-.24-.28Z" fill="#f9e2cd"/><path d="M616.09,505.12c.67,3.01-.99,6.15-4.02,7.64-8.24,4.07-25.17,11.67-40.75,13.86-3.07.44-7.14-.56-8.44-3.06-9.35-17.87-43.59-91.15-7.28-103.24,35.91-11.98,55.82,64.25,60.49,84.8Z"/><path d="M546.84,1748.55l.93,1.5c-40.56,25.2-80.28,49.62-118.25,88.85-5.22,5.38-15.99,19.33-15.96,26.29l-1.97.41-.51-.63c-1.06-1.23-2.3-2.34-3.69-3.31-75.13-51.93-100.15-99.63-89.81-121.82l1.01.43c8.95,2.54,20.94,1.31,27.51-3.01,27.21-17.93,68.39-51.51,110.58-87.72l1.46,1.68s24.93,65.6,88.7,97.33Z" fill="#fff"/><path d="M412.07,1866.24c4.96,6.89,4.96,16.58-.68,23.61-24.21,30.06-41.99,45.61-54.7,53.41l-1.39-1.93c-145.31-133.53-219.7-250.87-219.7-250.87l-.45-.29s.04-.06.05-.09c1.02-1.46,2.16-2.86,3.42-4.16.17-.19.34-.36.51-.53.46-.48.93-.96,1.38-1.43,11.55-12.3,40.42-31.26,57.25-25.06,19.77,7.3,38.13,34.41,54.02,43.99,12.2,7.37,38.06,17.35,56.89,23.06,2.82.85,5.47,1.62,7.91,2.26,3.63.94,5.18,5.23,2.96,8.28-.75,1.03-1.39,2.13-1.94,3.3-.01.02-.02.03-.02.05-10.34,22.19,14.68,69.89,89.81,121.82,1.39.97,2.63,2.08,3.69,3.31l.51.63c.17.21.33.43.48.64Z" fill="#ffac73"/><path d="M355.3,1941.33l1.39,1.93c-2.22,1.37-4.3,2.48-6.21,3.41-9.34,4.5-20.46,2.57-27.84-4.71-89.67-88.63-161.32-179.45-186.76-213.09-3.74-4.98-5.88-10.68-6.46-16.49-.76-7.7,1.19-15.62,5.73-22.21l.45.29s74.39,117.34,219.7,250.87Z" fill="#f4f4f4"/><path d="M311.8,891.88l.26.73-24.4,8.79c-2.37.85-4.52,2.18-6.35,3.93-5.04,4.79-14.38,15.27-14.54,26.96l-1.85-.06c-18.32-2.18-38.34-12.12-38.34-12.12-.72-4.26-13.56-23.92,15.26-37.57,28.8-13.68,69.96,9.34,69.96,9.34Z" fill="#f9e2cd"/><path d="M287.36,1003.66c21.53,12.55,4.32,37.79,4.32,37.79-32.1,19.38-50.6,3.43-50.6,3.43-15.34-11.02-15.22-36.14-15.22-36.14,0,0,27.21,9.24,49.93-1.06,2.46-1.11,4.86-2.46,7.17-4.06l4.4.04Z" fill="#f9e2cd"/><path d="M288.18,957.58c-.45,3.85,1.35,6.57-5.18,13.22-.12.11-.24.23-.36.35-1.48,1.47-3.35,3.13-5.73,5.02-13.85,11.02-60.52-11.25-60.52-11.25-24.39-26.59,10.19-44.81,10.19-44.81,0,0,20.02,9.94,38.34,12.12l1.85.06v.08c-.06,5.86,2.2,12.02,8.52,17.91,4.77,4.46,9.07,6.64,12.89,7.3Z" fill="#f9e2cd"/><path d="M283.32,971.12s22.65,15.55.63,31.78c-.33.25-.65.48-.99.72-2.31,1.6-4.71,2.95-7.17,4.06-22.72,10.3-49.93,1.06-49.93,1.06-23.62-19.86-9.47-43.82-9.47-43.82,0,0,46.67,22.27,60.52,11.25,2.38-1.89,4.25-3.55,5.73-5.02.12-.12.24-.24.36-.35l.32.32Z" fill="#f9e2cd"/><path d="M1525.4,1074.66c-12.64,0-25.42-5.62-26.14-5.94-.27-.12-.53-.29-.75-.48l-39.72-34.8c-1.25-1.09-1.37-2.99-.28-4.23,1.09-1.25,2.99-1.37,4.23-.28l39.36,34.49c2.99,1.25,22.13,8.85,33.58,3.22,3.87-1.9,6.39-5.11,7.71-9.78l-9.66-28.61c-.53-1.57.31-3.27,1.88-3.8,1.57-.53,3.27.31,3.8,1.88l9.95,29.46c.18.54.21,1.12.07,1.67-1.67,6.87-5.41,11.77-11.12,14.58-3.92,1.92-8.41,2.64-12.92,2.64Z" fill="#2b2b2b"/><path d="M1546.53,1059.74c-1.48,0-2.76-1.09-2.97-2.59-.22-1.64.92-3.15,2.57-3.38,17.5-2.4,17.35-19.59,17.25-21.99l-1.08-4.12s-.02-.08-.03-.13l-8.61-32.91c-.42-1.6.54-3.24,2.14-3.66,1.61-.42,3.24.54,3.66,2.14l8.64,33.02s.02.08.03.12l1.13,4.29c.05.17.08.35.09.54.67,8.75-3.16,25.99-22.4,28.63-.14.02-.28.03-.41.03Z" fill="#2b2b2b"/><path d="M1567.94,1029.17c-.93,0-1.85-.43-2.44-1.25-.97-1.34-.67-3.22.68-4.19,8.86-6.38,11.62-16.5,8.22-30.07-2.42-9.78-7.21-17.56-7.26-17.64-.87-1.41-.44-3.26.97-4.13,1.41-.87,3.26-.44,4.13.97.22.35,5.34,8.67,7.98,19.35,3.99,15.95.35,28.53-10.54,36.38-.53.38-1.14.57-1.75.57Z" fill="#2b2b2b"/><path d="M1578.25,995.72c-.3,0-.61-.05-.91-.14-1.58-.5-2.45-2.19-1.95-3.77,4.89-15.32,3.8-29.04-3.23-40.77-16.33-27.22-60.51-37.95-78.75-41.29-5.94-1.08-9.72-1.5-9.76-1.51-1.65-.18-2.83-1.66-2.65-3.31.18-1.65,1.66-2.82,3.31-2.65.16.02,4.01.44,10.18,1.57,19.04,3.49,65.23,14.79,82.82,44.11,7.96,13.28,9.24,28.65,3.8,45.68-.41,1.28-1.59,2.09-2.86,2.09Z" fill="#2b2b2b"/><path d="M1461.91,1068.79c-8.09,0-16.98-1.98-26.3-8.32-24.55-16.69-26.97-51.03-26.23-70.02.08-1.74.18-3.38.3-4.9.12-1.65,1.55-2.88,3.21-2.77,1.65.12,2.89,1.56,2.77,3.21-.11,1.48-.21,3.06-.29,4.72-.69,17.72,1.45,49.73,23.61,64.8,16.03,10.9,30.53,7.13,42.18,4.09,2.42-.63,4.71-1.23,6.88-1.66,1.63-.32,3.2.73,3.53,2.36.32,1.62-.73,3.2-2.36,3.53-2,.4-4.2.97-6.54,1.58-5.95,1.55-12.99,3.38-20.76,3.38Z" fill="#2b2b2b"/><path d="M839.04,1258.97c-15.09,0-29.56-5.85-40.28-16.42-4.11-4.05-7.84-8.07-11.08-11.96l-.08-.09c-.08-.1-.16-.19-.24-.29-22.89-27.66-20.45-47.84-17.37-73.39.89-7.35,1.8-14.95,2.26-23.49,1.2-22.18-2.86-45.24-11.73-66.71-6.49-15.74-12.57-32.3-18.07-49.24-22.48-69.24-32.44-135.21-36.84-178.36-2.75-27-3.16-43.87-3.16-44.04-.04-1.66,1.27-3.03,2.93-3.07,1.67-.04,3.03,1.27,3.07,2.93,0,.17.41,16.82,3.14,43.56,4.37,42.86,14.26,108.38,36.58,177.12,5.45,16.79,11.48,33.21,17.91,48.8,9.21,22.28,13.42,46.25,12.17,69.32-.46,8.74-1.39,16.44-2.29,23.89-3.02,25.08-5.21,43.2,16.08,68.9.04.05.08.1.12.16l.15.18c3.09,3.7,6.69,7.58,10.66,11.5,10.58,10.43,25.25,15.72,40.25,14.53,4.41-.37,9-.86,13.62-1.45,117.77-15.44,304.26-108.06,354.82-144.68,2.68-1.94,5.12-3.84,7.24-5.65,26.2-22.77-3.63-99.5-28.55-129.21-2.23-2.66-4.91-5.55-8.02-8.9-9.6-10.34-22.75-24.51-38.89-49.17-.91-1.39-.52-3.25.87-4.15,1.38-.91,3.25-.52,4.15.87,15.87,24.24,28.81,38.19,38.27,48.37,3.16,3.41,5.89,6.35,8.22,9.12,12.95,15.43,27.07,43.73,34.35,68.81,9.44,32.53,7.14,56.96-6.48,68.8-2.26,1.93-4.82,3.92-7.63,5.96-50.94,36.88-238.84,130.2-357.56,145.77-4.72.61-9.4,1.11-13.91,1.48-1.56.12-3.12.19-4.67.19Z" fill="#2b2b2b"/><path d="M726.27,1058.89c-14.13,0-43.92-9.07-79.85-24.32-21.91-9.3-43.76-19.95-63.2-30.8-22.37-12.45-40.92-24.87-53.65-35.94-8.34-7.24-14.4-14.06-17.99-20.25-.56-.96-.54-2.16.06-3.1,6.15-9.76,151.35-239.34,217.96-260.7.87-.28,1.82-.15,2.59.36l3.21,2.15c1.17.79,1.64,2.3,1.11,3.61,0,0-.04.11-.13.3-.03.07-.06.15-.1.23-4.3,10.14-5.78,19.32-3.5,21.82,1.3,1.43,4.69.63,6.59.02,3.85-1.22,7.54-3.5,10.67-6.6,16.59-16.44,75.84-72.09,141.68-98.11,3.39-1.34,6.94-2.26,10.56-2.73,2.75-.37,5.59-.47,8.41-.29.05,0,.1,0,.15,0,.02,0,.04,0,.06,0,1.67.12,3.27.31,4.75.58,15.02,2.67,29.76,9.07,45.05,19.56,10.26,7.03,20.9,16.07,31.63,26.86.34.33.7.7,1.06,1.08l.36.37c1.16,1.18,1.14,3.08-.04,4.24-1.18,1.16-3.08,1.14-4.24-.04l-.37-.38c-.33-.34-.66-.68-.99-1-10.5-10.55-20.85-19.35-30.8-26.17-14.57-9.99-28.54-16.08-42.72-18.6-1.27-.23-2.65-.4-4.09-.5h-.07s-.05,0-.07,0c-2.43-.16-4.88-.07-7.28.25-3.14.4-6.21,1.2-9.13,2.36-64.78,25.6-123.28,80.56-139.66,96.79-3.8,3.77-8.33,6.56-13.08,8.06-5.81,1.85-10.13,1.28-12.84-1.7-5.36-5.88-1.18-19.19,1.64-26.31-62.46,22.64-199.22,235.61-212.27,256.12,3.35,5.22,8.66,11,15.79,17.19,12.42,10.79,30.62,22.98,52.63,35.22,19.26,10.75,40.91,21.3,62.62,30.52,33.35,14.16,62.02,23.12,75.88,23.8l17.34-37.46c.7-1.5,2.48-2.16,3.98-1.46,1.5.7,2.16,2.48,1.46,3.98l-18.16,39.24c-.49,1.05-1.54,1.73-2.69,1.74-.1,0-.2,0-.3,0ZM910.88,604.57c.23.02.46.06.65.13-.25-.08-.47-.11-.65-.13Z" fill="#2b2b2b"/><path d="M817.53,1689.67c-.6,0-1.2-.18-1.72-.54-.44-.31-44.53-31.33-95.31-76.84-41.77-37.47-76.07-73.8-101.93-107.99-.05-.06-.1-.12-.15-.18-3.93-5.2-7.78-10.51-11.44-15.79-17.34-25-29.98-48.89-37.57-70.99-.4-1.17-.04-2.47.9-3.27l5.44-4.6,208.41-176.16,2.06-5.45c.58-1.55,2.31-2.33,3.87-1.75,1.55.58,2.33,2.32,1.75,3.87l-2.33,6.18c-.18.48-.48.9-.87,1.23l-212.87,179.93c7.48,21.04,19.64,43.76,36.15,67.58,3.58,5.15,7.33,10.34,11.17,15.42.05.06.1.12.15.18,25.65,33.93,59.73,70.03,101.28,107.31,44.3,39.71,83.44,68.3,92.69,74.93l139.24-140.42,20.87-21.03c17.97-18.11,40.52-30.05,62.33-41.6,7.4-3.92,15.05-7.96,22.42-12.2,154.83-88.99,221.72-182.75,198.79-278.67-6.59-27.62-20.85-55.77-42.38-83.69-1.01-1.31-.77-3.2.54-4.21,1.31-1.01,3.2-.77,4.21.54,22.05,28.59,36.67,57.51,43.46,85.96,23.62,98.81-44.22,194.79-201.63,285.27-7.46,4.29-15.16,8.36-22.6,12.3-22.4,11.86-43.56,23.06-60.88,40.52l-20.87,21.03-141.03,142.23c-.58.59-1.35.89-2.13.89Z" fill="#2b2b2b"/><path d="M813.61,1641.64c-.34,0-.69-.1-1-.31-70.92-49.3-122.2-106.54-152.72-145.88-33.09-42.64-49.64-74.07-49.8-74.38-.45-.86-.12-1.91.74-2.36.86-.45,1.91-.12,2.36.74.16.31,16.6,31.52,49.52,73.93,30.37,39.12,81.37,96.05,151.9,145.08.79.55.99,1.64.44,2.44-.34.49-.88.75-1.44.75Z" fill="#2b2b2b"/><path d="M995.34,660.24c-.2,0-.4-.02-.6-.06-1.33-.27-2.66-.53-3.98-.79-.07-.01-.14-.03-.21-.05-39.92-7.76-68.05-8.97-83.61-3.61-1.57.54-3.27-.29-3.81-1.86-.54-1.57.29-3.27,1.86-3.81,16.6-5.72,45.84-4.57,86.91,3.43.07.01.14.03.21.05,1.27.25,2.54.5,3.82.75,1.62.33,2.67,1.91,2.35,3.53-.29,1.42-1.54,2.41-2.94,2.41Z" fill="#2b2b2b"/><path d="M1119.73,945.48c-.51,0-1.03-.13-1.49-.4l-215.13-123.46c-1.44-.82-1.93-2.66-1.11-4.09.83-1.44,2.66-1.93,4.1-1.11l213.38,122.45c5.99-4.99,14.35-15.03,23.78-28.61h0s.04-.06.07-.09c7.24-10.39,15.07-22.76,22.64-35.77,6.29-10.83,12.34-21.92,17.98-32.97,5.17-10.13,9.84-19.88,13.89-28.96,13.46-30.11,21.46-55.27,23.16-72.77.38-3.73.46-7.15.24-10.2-15.65-5.94-133.26-50.05-223.21-68.65-1.09-.23-2.17-.45-3.23-.65-1.63-.32-2.69-1.89-2.37-3.52.32-1.63,1.89-2.68,3.52-2.37,1.1.21,2.21.44,3.32.67,96.54,19.97,224.6,69.09,225.88,69.59,1.04.4,1.77,1.35,1.9,2.46.45,3.91.43,8.38-.07,13.28-2.22,22.91-14.09,53.22-23.66,74.62-4.09,9.18-8.81,19.02-14.03,29.25-5.69,11.14-11.79,22.33-18.14,33.25-7.67,13.18-15.6,25.72-22.95,36.26-.02.03-.04.06-.07.09-7.51,10.81-18.2,24.95-26.61,31.13-.53.39-1.15.58-1.78.58Z" fill="#2b2b2b"/><path d="M1110.52,897.87c-.37,0-.74-.12-1.06-.36-.77-.58-.92-1.68-.34-2.45,49.38-65.18,78.79-155.82,79.08-156.73.29-.92,1.28-1.43,2.2-1.13.92.29,1.43,1.28,1.13,2.2-.29.91-29.89,92.12-79.62,157.77-.34.45-.87.69-1.4.69Z" fill="#2b2b2b"/><path d="M1211.7,1610.08c-.71,0-1.41-.25-1.97-.74-13.08-11.35-39.2-35.98-66.86-62.06-33.22-31.32-67.57-63.71-81.22-74.85-1.28-1.05-1.48-2.94-.43-4.22,1.05-1.28,2.94-1.48,4.22-.43,13.82,11.27,48.25,43.74,81.54,75.13,26.63,25.11,51.85,48.89,65.25,60.65.82-.31,1.9-.69,3.36-1.19,13.07-4.54,52.84-18.36,102.66-60.1.13-.11.2-.16.27-.23.03-.03.06-.06.09-.08,28.16-23.97,49.43-65.73,71.95-109.95,8.68-17.04,17.65-34.66,27.32-51.85h0s.05-.08.07-.12c10.59-18.85,19.13-37.9,25.39-56.64-11.06-8.17-74.19-54.76-180.51-133.06-1.33-.98-1.62-2.86-.64-4.2.98-1.33,2.86-1.62,4.2-.64,116.93,86.12,181.62,133.88,182.26,134.35,1.04.77,1.47,2.11,1.07,3.34-6.46,19.81-15.41,39.96-26.61,59.88-.02.04-.05.09-.08.13-9.58,17.06-18.5,34.58-27.13,51.52-22.79,44.74-44.32,87.01-73.37,111.76-.12.11-.24.21-.36.32,0,0-.07.06-.08.06-50.67,42.45-91.22,56.54-104.55,61.17-1.89.66-3.85,1.34-4.3,1.59-.48.3-1.03.45-1.56.45Z" fill="#2b2b2b"/><path d="M328.64,1744.58c-3.74,0-7.48-.46-10.87-1.42-1.59-.45-2.52-2.11-2.07-3.71.45-1.59,2.11-2.52,3.71-2.07,8.24,2.34,19.24,1.18,25.04-2.63,23.81-15.69,60.9-45.11,110.23-87.45.02-.01.03-.03.04-.04.69-.6,1.37-1.19,2.07-1.78,78.09-67.18,160.06-143.77,160.88-144.54,1.21-1.13,3.11-1.07,4.24.14,1.13,1.21,1.07,3.11-.14,4.24-.82.77-82.88,77.44-161.09,144.72-.69.58-1.34,1.14-1.99,1.71-.02.02-.04.04-.06.06-49.55,42.52-86.85,72.11-110.88,87.95-4.74,3.12-11.93,4.81-19.11,4.81Z" fill="#2b2b2b"/><path d="M546.84,1750.3c-.26,0-.53-.06-.78-.18-63.65-31.67-89.3-97.61-89.56-98.27-.34-.9.11-1.91,1.01-2.26.9-.34,1.91.11,2.26,1.01.25.65,25.45,65.34,87.84,96.39.87.43,1.22,1.48.79,2.35-.31.62-.93.97-1.57.97Z" fill="#2b2b2b"/><path d="M413.56,1868.19c-1.65,0-2.99-1.33-3-2.99-.04-9.06,13.46-24.95,16.81-28.39,37.62-38.87,76.12-62.78,116.88-88.1l1.94-1.21s.1-.06.15-.09c47.47-29.5,96.55-60.02,145.79-118.63.15-.18.33-.35.52-.49l27.94-20.57c1.22-1.13,3.12-1.05,4.24.17,1.12,1.22,1.05,3.11-.17,4.24l-.13.12c-.08.08-.17.15-.26.21l-27.78,20.45c-49.84,59.22-101.52,91.34-147.13,119.68-.05.03-.1.06-.15.09l-1.8,1.12c-40.44,25.12-78.63,48.84-115.73,87.18-6.18,6.37-15.14,18.96-15.12,24.19,0,1.66-1.33,3.01-2.99,3.01h-.01Z" fill="#2b2b2b"/><path d="M339.96,1952.06c-7.1,0-14.14-2.75-19.43-7.97-94.25-93.16-167-186.9-187.05-213.42-3.97-5.28-6.4-11.51-7.05-18-.84-8.5,1.35-17.05,6.17-24.09.04-.08.09-.15.14-.22,1.13-1.62,2.37-3.13,3.69-4.49.19-.21.39-.41.58-.6l1.33-1.38c11.32-12.05,41.66-32.72,60.45-25.8,12.18,4.5,23.32,15.61,34.1,26.35,7.27,7.25,14.14,14.1,20.43,17.89,12.34,7.45,38.17,17.29,56.21,22.76,3.21.97,5.69,1.67,7.8,2.23,2.66.69,4.81,2.65,5.74,5.24.93,2.59.51,5.47-1.11,7.71-.61.84-1.14,1.73-1.62,2.74-.02.04-.03.08-.05.11-9.93,21.32,17.38,68.72,88.8,118.09,1.61,1.12,3.04,2.41,4.26,3.82l.57.7c.21.26.41.53.59.79,5.86,8.14,5.54,19.35-.78,27.23-21.18,26.3-39.84,44.5-55.46,54.09h0c-2.08,1.29-4.2,2.45-6.47,3.55-3.77,1.81-7.81,2.7-11.83,2.7ZM137.74,1691.68c-.04.06-.08.13-.12.19-4.07,5.9-5.92,13.08-5.22,20.21.54,5.4,2.57,10.58,5.87,14.98,19.98,26.42,92.5,119.88,186.47,212.76,6.48,6.39,16.3,8.06,24.43,4.14,2.08-1.01,4.02-2.08,5.94-3.26,0,0,0,0,0,0,15.04-9.23,33.18-26.97,53.93-52.74,4.64-5.79,4.88-14,.58-19.97-.12-.17-.25-.34-.38-.51l-.51-.63c-.83-.96-1.89-1.91-3.07-2.74-34.91-24.13-61.79-49.32-77.72-72.84-14.35-21.18-19.01-39.85-13.14-52.6.03-.07.06-.15.1-.21.64-1.34,1.38-2.6,2.21-3.74.46-.63.58-1.42.31-2.15s-.85-1.26-1.6-1.46c-2.19-.58-4.74-1.3-8.02-2.29-18.4-5.58-44.83-15.66-57.58-23.37-6.91-4.16-14.03-11.26-21.56-18.77-10.32-10.29-21-20.93-31.94-24.97-15.22-5.6-43.26,12.84-54.02,24.3l-1.4,1.45c-.18.18-.31.31-.44.46-.03.03-.05.06-.08.08-1.08,1.11-2.1,2.35-3.03,3.67ZM137.59,1691.9s0,0,0,0c0,0,0,0,0,0ZM138.05,1690.92s0,0,0,0c0,0,0,0,0,0ZM138.06,1690.91s0,0,0,0c0,0,0,0,0,0ZM132.77,1688.33s0,0,0,0c0,0,0,0,0,0Z" fill="#2b2b2b"/><path d="M355.3,1944.33c-.73,0-1.45-.26-2.03-.79-143.94-132.27-219.46-250.3-220.2-251.47-.89-1.4-.47-3.25.93-4.14,1.4-.89,3.25-.47,4.14.93.74,1.17,75.88,118.57,219.2,250.27,1.22,1.12,1.3,3.02.18,4.24-.59.64-1.4.97-2.21.97Z" fill="#2b2b2b"/><path d="M1250.49,1570.05c-.66,0-1.29-.38-1.59-1.01-.41-.88-.03-1.92.85-2.32.38-.17,37.91-17.97,75.72-65.76,30.99-39.13,62.18-102.56,81.4-165.54.28-.93,1.26-1.45,2.18-1.16.92.28,1.45,1.26,1.16,2.18-19.33,63.37-50.76,127.24-82,166.69-38.37,48.48-76.61,66.58-77,66.76-.24.11-.49.16-.74.16Z" fill="#2b2b2b"/><path d="M739.29,742.46c-10.8,0-18.09-3.5-18.62-3.76-1.49-.73-2.09-2.53-1.36-4.02.73-1.48,2.53-2.09,4.01-1.36.87.42,20.53,9.66,43.15-5.66,6.25-4.23,14.88-12.79,24.87-22.71,28.45-28.24,71.46-70.92,121.23-75.3,1.65-.14,3.11,1.08,3.25,2.73.15,1.65-1.07,3.11-2.73,3.25-47.61,4.19-89.69,45.95-117.53,73.59-10.63,10.55-19.02,18.88-25.73,23.42-11.31,7.66-22.02,9.83-30.55,9.83Z" fill="#2b2b2b"/><path d="M634.22,692.8c-18.02,0-31.55-3.42-32.39-3.63-39.04-8.84-61.32-33.5-73.11-52.62-3.43-5.53-6.25-10.99-8.39-16.22-4.52-10.96-12.92-19.63-23.65-24.41-.09-.04-.17-.08-.26-.13l-32.7-18.5c-.74-.42-1.27-1.13-1.45-1.96-.19-.83-.01-1.7.48-2.39,16.88-23.86,27.69-57.35,13.8-78.36-1.35-2.04-3.95-5.01-6.97-8.45-6.37-7.26-14.29-16.31-17.8-24.87-.63-1.53.11-3.29,1.64-3.91,1.53-.63,3.29.11,3.91,1.64,3.12,7.63,10.68,16.25,16.76,23.18,3.16,3.6,5.89,6.72,7.46,9.1,13.19,19.96,8.44,52.04-12.02,82.41l29.72,16.82c12.08,5.42,21.53,15.19,26.63,27.55,2.02,4.93,4.69,10.09,7.95,15.34,11.2,18.15,32.33,41.54,69.42,49.95.38.1,29.68,7.46,58.8.27,13.06-3.23,30.81-11.52,51.31-23.97l.56-.34c.3-.19.6-.37.9-.55,3.27-2,6.61-4.1,10.18-6.42,32.69-21.21,48.02-45.96,55.12-62.98,7.7-18.46,7.68-32.11,7.68-32.24-.01-1.66,1.32-3.01,2.97-3.03,0,0,.02,0,.03,0,1.64,0,2.98,1.32,3,2.96,0,.59.07,14.77-8.01,34.3-7.41,17.9-23.4,43.88-57.52,66.02-3.62,2.35-7,4.48-10.33,6.51l-1.45.89c-21.33,12.95-39.16,21.25-53,24.67-10.19,2.52-20.28,3.37-29.26,3.37Z" fill="#2b2b2b"/><path d="M748.39,466.33c-1.26,0-2.4-.8-2.83-2.01-5.46-15.56-28.75-39.69-69.2-71.71-67.2-53.23-159.15-109.87-160.07-110.44-1.41-.87-1.85-2.71-.99-4.13.87-1.41,2.71-1.85,4.13-.99.92.57,93.17,57.39,160.65,110.84,34.1,27,56.35,48.76,66.39,64.89,1.36-16.91,2.57-52.87-6.6-90.79-13.15-54.45-42.05-92.68-85.89-113.64-1.5-.71-2.13-2.51-1.41-4s2.51-2.13,4-1.41c45.55,21.77,75.54,61.35,89.13,117.64,12.87,53.21,5.73,102.67,5.65,103.17-.2,1.36-1.31,2.41-2.68,2.54-.1,0-.19.01-.29.01Z" fill="#2b2b2b"/><path d="M789.43,541.09c-1.36,0-2.59-.93-2.92-2.32-.38-1.61.62-3.23,2.24-3.6,9.59-2.25,18.38-8.55,26.12-18.74.2-.26.38-.48.53-.72h0c.05-.07.1-.14.15-.21,10.62-14.33,17.29-33.42,21.02-46.92.56-2,.99-3.65,1.35-5.21,2.61-11.08,3.85-22.49,3.7-33.93-.13-8.79-1.1-17.63-2.89-26.25-9.14-44.08-26.09-65.21-50.38-62.81-21.72,2.17-41.78,22.5-41.98,22.7-1.16,1.19-3.06,1.21-4.24.05-1.19-1.16-1.21-3.06-.05-4.24.88-.9,21.81-22.1,45.68-24.48,12.52-1.24,23.49,2.89,32.61,12.28,10.77,11.08,18.93,29.68,24.24,55.29,1.87,9,2.88,18.21,3.01,27.39.16,11.94-1.13,23.84-3.85,35.37-.37,1.64-.82,3.38-1.41,5.47-3.87,14-10.84,33.88-22.04,48.95h0c-.22.32-.46.64-.7.94-8.58,11.29-18.52,18.34-29.5,20.92-.23.05-.46.08-.69.08Z" fill="#2b2b2b"/><path d="M797.85,501.1c-.3,0-.59-.07-.87-.23-.84-.48-1.13-1.55-.65-2.39,27.88-48.59,21.7-86.04,17.75-99.88-3.83-13.41-10.63-23.58-18.66-27.9-21.05-11.37-38.66,14.12-39.4,15.21-.54.8-1.63,1.01-2.43.47-.8-.54-1.01-1.63-.47-2.43.2-.29,20.12-29.2,43.96-16.33,8.86,4.77,16.28,15.71,20.36,30.02,4.07,14.27,10.46,52.83-18.07,102.59-.32.56-.91.88-1.52.88Z" fill="#2b2b2b"/><path d="M736.95,707.09c-.29,0-.58-.04-.88-.13-1.58-.48-2.47-2.14-2-3.72.04-.15,1.4-5.35-1.47-13.64-.01-.04-.03-.08-.04-.12-.01-.03-.02-.06-.03-.09l-.02-.04c-2.87-8.15-8.77-16.47-17.53-24.72-1.21-1.14-1.26-3.04-.13-4.24,1.14-1.21,3.03-1.26,4.24-.13,9.46,8.91,15.88,18.03,19.08,27.13,0,.02.01.04.02.06.03.09.07.19.1.3,3.54,10.3,1.59,16.94,1.51,17.22-.39,1.29-1.58,2.13-2.87,2.13Z" fill="#2b2b2b"/><path d="M936.12,344.83c-.24,0-.49-.03-.74-.09-1.61-.41-2.58-2.04-2.17-3.65.06-.22,5.61-22.84,2.47-59.02-.18-1.96-.38-3.97-.6-6.03-.18-1.65,1.01-3.13,2.65-3.31,1.64-.18,3.13,1,3.31,2.65.23,2.1.43,4.15.62,6.16,3.24,37.3-2.39,60.08-2.63,61.03-.34,1.36-1.57,2.26-2.91,2.26Z" fill="#2b2b2b"/><path d="M933.14,248.69c-1.38,0-2.62-.96-2.93-2.36-5.31-24.37-13.86-48.87-25.41-72.8-23.57-48.81-75.61-89.25-139.22-108.19-76.98-22.91-159.96-11.08-233.64,33.33-53.28,32.12-92.87,67.23-117.67,104.37-.03.04-.06.08-.08.13-.82,1.25-2.47,1.71-3.84,1.02-1.48-.74-2.08-2.54-1.34-4.03.06-.12.14-.25.23-.38.01-.02.03-.04.04-.07,25.29-37.88,65.52-73.6,119.57-106.18,75.15-45.29,159.83-57.35,238.45-33.94,32.28,9.61,62.61,25.15,87.7,44.94,24.47,19.29,43.56,42.25,55.21,66.39,11.76,24.36,20.46,49.3,25.87,74.14.35,1.62-.67,3.22-2.29,3.57-.21.05-.43.07-.64.07ZM414.06,203.33s0,0,0,0c0,0,0,0,0,0Z" fill="#2b2b2b"/><path d="M479.34,473.77c-.43,0-.86-.09-1.26-.28-8.37-3.28-16.47-6.83-24.75-10.85-.06-.03-.11-.06-.17-.09-49.47-24.22-79.51-55.68-89.29-93.52-13.08-50.59,14.44-94.75,18.83-101.35.02-.59.06-1.44.16-2.51,0-.03,0-.05,0-.08.08-1.58,1.39-2.85,3-2.85s3,1.34,3,3c0,.08,0,.2-.01.3,0,.05,0,.1-.01.14-.17,1.83-.15,2.82-.15,2.83.02.64-.17,1.29-.54,1.81-.32.46-31.68,46.25-18.46,97.26,9.35,36.08,38.37,66.24,86.25,89.65.05.02.1.05.15.08,8.14,3.94,16.1,7.43,24.34,10.66.36.14.69.35.98.62,1.2,1.14,1.25,3.05.11,4.25-.59.62-1.38.93-2.18.93ZM388.86,265.41h0s0,0,0,0ZM388.86,265.4h0s0,0,0,0Z" fill="#2b2b2b"/><path d="M479.34,473.76c-1.15,0-2.24-.66-2.74-1.78l-.05-.12c-4.42-9.79-42.85-96.79-31.18-136.21.28-.96,1.03-1.72,1.99-2.01.96-.3,2-.1,2.78.54.39.31,39.32,31.64,90.62,51.06,1.19.45,2.39.89,3.61,1.34,50.73,18.46,95.34,18.78,132.57.97.06-.03.12-.05.18-.08.11-.04.21-.1.32-.15.14-.07.29-.14.43-.21,1.51-.68,3.29,0,3.96,1.51.68,1.51,0,3.29-1.51,3.96l-.25.12c-.2.1-.4.2-.62.28-38.72,18.5-84.86,18.24-137.14-.78-1.24-.46-2.45-.91-3.66-1.36-43.01-16.29-77.48-40.79-88.54-49.13-5.76,31.99,16.94,94.48,31.92,127.67l.06.14c.67,1.51,0,3.29-1.52,3.96-.4.18-.81.26-1.22.26Z" fill="#2b2b2b"/><path d="M910.78,609.41c-.77,0-1.55-.3-2.13-.89-.01-.01-.09-.09-.1-.1-.05-.05-.1-.11-.16-.18-2.95-3.13-26.43-28.75-33.38-57.57-3.47-14.4-2.26-27.3,3.59-38.37.57-1.08,1.15-2.16,1.77-3.25.08-.15.2-.38.32-.58.84-1.43,2.68-1.9,4.11-1.06,1.43.84,1.9,2.68,1.06,4.11-.08.13-.15.28-.22.41-.62,1.12-1.18,2.16-1.73,3.19-5.15,9.73-6.18,21.22-3.07,34.16,6.63,27.5,29.39,52.19,31.96,54.91.03.03.06.06.08.09l.03.03c1.16,1.18,1.14,3.08-.04,4.24-.58.57-1.34.86-2.1.86Z" fill="#2b2b2b"/><path d="M876.81,553.23c-.7,0-1.41-.25-1.98-.75-28.35-24.91-55.61-31.34-56.76-31.6-.09-.02-.26-.06-.35-.09-1.57-.52-2.43-2.21-1.92-3.79.5-1.53,2.12-2.38,3.66-1.96,2.63.62,30.61,7.69,59.32,32.93,1.24,1.09,1.37,2.99.27,4.23-.59.67-1.42,1.02-2.25,1.02Z" fill="#2b2b2b"/><path d="M997.53,661.64c-.53,0-1.07-.14-1.54-.42,0,0-.81-.48-2.29-1.46-.04-.02-.07-.05-.1-.07-1.66-1.1-3.39-2.3-5.16-3.57-7.15-5.13-18.42-13.95-31.55-26.79-27.52-26.94-49.84-58.3-66.33-93.2-3.81-8.05-7.3-16.31-10.39-24.55-5.23-13.88-9.59-28.41-12.94-43.2-.93-4.13-1.83-8.5-2.67-13-4.11-22.21-2.4-44.68,4.96-65,.22-.63.46-1.27.71-1.91l.28-.73c2.18-5.65,5.08-10.99,8.65-15.89h0c6.3-8.69,14.74-16.06,24.4-21.31,5.52-3,11.45-5.35,17.63-6.96,5.27-1.37,9.95-2.65,14.32-3.93,22.03-6.45,40.05-13.89,56.71-23.43,12.06-6.89,23.46-15,33.89-24.11,1.54-1.33,3.08-2.72,4.59-4.12.82-.76,1.99-1,3.04-.63,1.05.37,1.81,1.29,1.97,2.4.01.08.29,1.97.58,5.29,1.32,15.98,2.02,55.29-18.14,87.22,11.84.2,40.54,1.41,69.73,8.04,22.43,5.1,40.79,12.37,54.59,21.61,17.6,11.79,27.83,26.81,30.38,44.64.14.97-.2,1.94-.92,2.61-.71.67-1.71.95-2.67.75-14.7-3.07-53.83-8.15-62.41,4.05,2.65,12.24,22.18,105.78,12.17,156-.21,1.05-.96,1.91-1.97,2.25s-2.13.13-2.94-.57c-.22-.19-22.63-19.57-46.32-37.68-35.79-27.36-47.62-31.36-51.31-31.64.64,17.12,2.46,93.97-16.06,107.97-.4.31-.86.62-1.39.93-.47.27-.99.41-1.51.41ZM997.09,654.8c.11.07.22.14.32.21,13.94-12.51,14.11-79.68,12.98-104.89-.05-1.08.49-2.1,1.4-2.67,4.19-2.63,11.8-.37,24.7,7.34,9.16,5.47,20.92,13.69,34.97,24.43,17.88,13.67,35.03,28.05,42.57,34.46,7.94-52.78-13.08-148.61-13.3-149.61-.16-.71-.05-1.45.29-2.09,9.34-17.12,50.75-11.35,65.1-8.78-15.09-66.64-152.14-65-153.55-64.97-1.13.04-2.18-.6-2.71-1.61-.53-1-.44-2.22.22-3.14,21.89-30.56,21.57-70.53,20.28-87.14-.11.1-.22.19-.33.29-10.72,9.36-22.45,17.7-34.84,24.79-17.08,9.78-35.51,17.4-58.01,23.98-4.43,1.29-9.17,2.59-14.49,3.97-5.71,1.49-11.19,3.66-16.28,6.43-8.88,4.82-16.63,11.58-22.41,19.56,0,0,0,0,0,0-3.26,4.48-5.92,9.36-7.9,14.5l-.28.73c-.22.58-.45,1.17-.66,1.78-7,19.35-8.63,40.74-4.71,61.89.83,4.42,1.71,8.72,2.63,12.78,3.29,14.51,7.56,28.78,12.7,42.41,3.03,8.09,6.46,16.2,10.19,24.1,15.96,33.78,38.47,65.41,65.11,91.48,12.85,12.58,23.87,21.19,30.85,26.21,1.74,1.25,3.44,2.42,5.06,3.5.03.02.06.04.1.07ZM881.58,373.61h0,0Z" fill="#2b2b2b"/><path d="M867.96,469.7c-2.41,0-4.66-.83-6.72-2.47-6.5-5.19-10-17.95-10.41-37.94-.02-1.15-.04-2.32-.04-3.54-.1-42.66,23.21-52,30.35-53.84.13-.04.3-.08.45-.12.94-.22,1.88.37,2.1,1.31s-.37,1.88-1.31,2.1c-.1.02-.21.05-.32.09-6.58,1.7-27.88,10.32-27.78,50.46,0,1.19.02,2.34.04,3.47.48,23.53,5.21,32.17,9.1,35.27,2.78,2.22,5.3,1.7,6.12,1.53.36-.07,1.02-.21,1.67.28.4.3.66.77.69,1.27.07.96-.66,1.8-1.62,1.87h-.04c-.78.16-1.54.24-2.29.24Z" fill="#2b2b2b"/><path d="M706.15,1014.99c-.16,0-.32-.02-.48-.07-79.14-22.78-157.47-78.1-158.25-78.66-.79-.56-.97-1.65-.41-2.44.56-.79,1.65-.97,2.44-.41.78.55,78.63,55.53,157.19,78.14.93.27,1.47,1.24,1.2,2.17-.22.77-.92,1.27-1.68,1.27Z" fill="#2b2b2b"/><path d="M1542.29,1462.98c-.75,0-1.45-.49-1.67-1.24-.22-.73-22.67-72.97-81.78-104.09-.5-.28-.99-.52-1.49-.77l-.69-.35c-.86-.44-1.2-1.5-.76-2.36.44-.86,1.5-1.2,2.36-.76l.67.34c.53.27,1.06.53,1.57.81,60.4,31.8,83.25,105.42,83.47,106.16.28.93-.24,1.9-1.17,2.18-.17.05-.34.08-.51.08Z" fill="#2b2b2b"/><path d="M1422.18,1385.54c-.83,0-1.66-.34-2.25-1.01-1.09-1.23-.99-3.1.23-4.2.02-.02.05-.05.07-.07.14-.12,14.23-12.15,37.84-26.72,2.1-1.29,4.27-2.6,6.5-3.93,13.42-7.93,26.48-13.27,39.12-18.43,25.95-10.6,50.46-20.62,72.29-51.65,1.12-1.6,2.67-3.53,4.46-5.76,4.28-5.35,11.44-14.29,11.51-18.51.03-1.64,1.36-2.95,3-2.95h.05c1.66.03,2.98,1.39,2.95,3.05-.09,5.8-5.61,13.15-12.82,22.16-1.73,2.16-3.22,4.02-4.23,5.47-22.85,32.47-48.15,42.8-74.93,53.75-12.43,5.08-25.29,10.33-38.33,18.04-2.2,1.31-4.35,2.6-6.42,3.87-23.21,14.32-36.94,26.04-37.08,26.16-.57.49-1.27.73-1.96.73Z" fill="#2b2b2b"/><path d="M1808.34,1459.7c-3.01,0-5.85-.43-8.45-1.4-11.95-4.45-22.63-15.32-32.96-25.84-6.94-7.07-13.5-13.75-19.58-17.46-11.59-7.05-37.04-16.94-54.94-22.42-2.91-.9-5.41-1.62-7.64-2.21-2.65-.71-4.75-2.65-5.6-5.21-.86-2.58-.35-5.42,1.36-7.6.68-.89,1.25-1.77,1.7-2.66,0-.02.02-.03.02-.05,0,0,0-.02.01-.03,10.66-20.54-14.68-66.63-83.74-115-1.59-1.13-2.97-2.39-4.12-3.77l-.16-.2c-.3-.38-.65-.8-.97-1.28-5.55-8-4.84-18.93,1.76-26.56,20.74-23.96,39.04-40.97,54.41-50.55.87-.54,1.73-1.06,2.55-1.54.07-.04.14-.08.21-.11,0,0,.01,0,.03-.01,2.28-1.32,4.36-2.4,6.34-3.29,10.49-4.79,22.87-2.63,30.79,5.38,90.19,91.03,158.97,182.49,177.91,208.36,3.78,5.18,5.99,11.28,6.38,17.63.55,8.29-1.95,16.65-7.06,23.51-.04.06-.09.12-.14.17-1.17,1.53-2.44,2.97-3.78,4.28l-.49.48s-.07.07-.1.1c-.46.42-.92.86-1.37,1.3-10,9.97-34.14,26-52.39,26ZM1687.6,1377.6s0,0,0,.01c-.62,1.22-1.38,2.41-2.31,3.62-.49.63-.63,1.35-.41,2.02.13.38.49,1.06,1.45,1.32,2.31.61,4.88,1.35,7.86,2.27,18,5.51,43.85,15.46,56.3,23.04,6.72,4.1,13.53,11.04,20.74,18.38,9.87,10.05,20.07,20.44,30.77,24.42,14.92,5.56,43.43-12.18,54.54-23.24.5-.49,1-.97,1.5-1.42l.46-.45c1.19-1.16,2.25-2.37,3.27-3.71h0s.03-.04.05-.06c.03-.03.05-.07.08-.1,4.19-5.7,6.25-12.6,5.8-19.43-.32-5.22-2.13-10.22-5.24-14.47-18.87-25.78-87.43-116.94-177.33-207.68-6.16-6.23-15.82-7.89-24.05-4.13-1.82.82-3.72,1.81-5.84,3.04-.05.03-.1.05-.15.08-.04.02-.07.04-.1.05-.76.45-1.54.92-2.34,1.42-14.86,9.27-32.71,25.88-53.05,49.39-4.8,5.56-5.35,13.47-1.34,19.25.23.34.46.63.69.91l.12.15c.79.93,1.79,1.85,2.95,2.67,33.8,23.67,59.59,48.33,74.56,71.28,13.54,20.77,17.46,39.02,11.05,51.38,0,0,0,0,0,0ZM1866.29,1427.74h0,0ZM1864.14,1425.66h0,0ZM1864.17,1425.62h0s0,0,0,0Z" fill="#2b2b2b"/><path d="M1863.75,1428.28c-1.01,0-2-.51-2.57-1.44-.69-1.14-70.98-115.53-208.4-244.25-1.21-1.13-1.27-3.03-.14-4.24s3.03-1.27,4.24-.14c138.06,129.32,208.72,244.36,209.42,245.51.86,1.42.41,3.26-1,4.12-.49.3-1.03.44-1.56.44Z" fill="#2b2b2b"/><path d="M1360.83,1557.61c-9.75,0-18.63-1.46-26.61-4.38-.81-.29-1.64-.59-2.49-.89-3.63-1.3-7.39-2.65-11.5-4.38-1.53-.64-2.24-2.4-1.6-3.93.64-1.53,2.41-2.24,3.93-1.6,3.96,1.67,7.63,2.99,11.19,4.26.85.31,1.69.61,2.52.91,42.88,15.67,117.02-15.45,203.43-85.37.7-.55,1.38-1.1,2.05-1.65,50.72-40.96,88.81-69.43,113.24-84.64,7.27-4.54,20.09-5.87,29.81-3.08,1.59.46,2.51,2.12,2.06,3.71-.46,1.59-2.12,2.51-3.71,2.06-8.12-2.33-19.1-1.28-24.98,2.4-24.23,15.08-62.12,43.41-112.62,84.2-.67.55-1.38,1.12-2.09,1.68-41.48,33.57-81.79,59.29-116.53,74.36-25.11,10.89-47.22,16.35-66.1,16.35Z" fill="#2b2b2b"/><path d="M1410.49,993.5c-.63,0-1.27-.2-1.81-.61l-172.96-130.99-49.38-15.91c-1.58-.51-2.44-2.2-1.94-3.78.51-1.58,2.2-2.44,3.78-1.94l49.86,16.07c.32.1.62.26.89.46l173.37,131.3c1.32,1,1.58,2.88.58,4.2-.59.78-1.49,1.19-2.39,1.19Z" fill="#2b2b2b"/><path d="M1496.33,911.47c-.6,0-1.2-.18-1.73-.55l-2.38-1.68-205.26-144.02s-.06-.04-.09-.07c-7.72-5.86-16.81-10.33-27.01-13.29l-36.03-8.91c-1.61-.4-2.59-2.02-2.19-3.63s2.02-2.59,3.63-2.19l36.09,8.92s.08.02.12.03c10.92,3.16,20.67,7.96,28.98,14.26l205.22,143.99,2.39,1.68c1.35.96,1.68,2.83.72,4.18-.58.83-1.51,1.27-2.45,1.27Z" fill="#2b2b2b"/><path d="M532.71,1110.16c-38.02,0-94.38-33.78-140.85-61.62-10.52-6.3-20.46-12.26-29.11-17.15-1.44-.81-1.95-2.64-1.14-4.09.81-1.44,2.64-1.95,4.09-1.14,8.72,4.92,18.69,10.9,29.25,17.22,49.57,29.71,117.47,70.39,151.51,58.71,82.09-28.17,98.15-70.86,98.3-71.29.56-1.56,2.27-2.37,3.83-1.83,1.56.55,2.38,2.25,1.83,3.81-.65,1.85-16.86,45.76-102.02,74.98-4.76,1.63-10.02,2.38-15.69,2.38Z" fill="#2b2b2b"/><path d="M510.8,986.17c-.3,0-.6-.04-.89-.14l-128.22-39.87c-1.59-.47-2.49-2.14-2.02-3.73.47-1.59,2.14-2.49,3.73-2.02l.37.11,126.35,39.29,18.94-15.91c1.27-1.07,3.16-.9,4.23.37,1.07,1.27.9,3.16-.37,4.23l-20.2,16.96c-.55.46-1.23.7-1.93.7Z" fill="#2b2b2b"/><path d="M341.71,986.94c-.3,0-.6-.04-.9-.14-.42-.13-41.48-13.49-32.98-48.27.3-1.35,1.5-2.37,2.93-2.37,1.66,0,3,1.33,3,2.99v.03c0,.24-.03.48-.09.72-3.02,12.26.84,22.86,11.46,31.53,8.2,6.69,17.39,9.63,17.48,9.66,1.58.5,2.46,2.18,1.96,3.76-.4,1.28-1.59,2.1-2.86,2.1Z" fill="#2b2b2b"/><path d="M290.77,960.81c-1,0-2.03-.09-3.1-.27-4.72-.82-9.58-3.53-14.43-8.06-6.36-5.93-9.55-12.7-9.47-20.13.17-12.77,9.77-23.76,15.47-29.18,2.13-2.04,4.63-3.58,7.4-4.58l24.4-8.79s.09-.03.14-.05l1.78-.64c.22-.08.45-.13.69-.16,5.27-.57,14.2.65,19.12,2.61l.16.06c10,3.96,30.81,12.2,41.58,30.82.13.23,3.46,5.97,7.07,15.02.53,1.33,1.06,2.72,1.56,4.12.56,1.56-.24,3.28-1.8,3.84-1.56.57-3.28-.24-3.84-1.8-.48-1.34-.99-2.66-1.5-3.94-3.43-8.61-6.65-14.18-6.69-14.23-9.72-16.82-29.22-24.54-38.59-28.25l-.17-.07c-3.93-1.56-11.54-2.63-15.92-2.25l-1.55.55s-.09.03-.13.04l-24.28,8.75c-1.98.71-3.76,1.81-5.29,3.28-4.05,3.85-13.46,13.96-13.61,24.83-.06,5.74,2.49,11.02,7.57,15.75,3.98,3.73,7.8,5.92,11.36,6.54,12.09,2.07,18.98-15.75,19.26-16.51.59-1.55,2.32-2.33,3.87-1.74,1.55.59,2.33,2.32,1.75,3.87-.84,2.23-8.23,20.56-22.79,20.57Z" fill="#2b2b2b"/><path d="M261.34,1054.11c-13.26,0-20.98-5.93-22.1-6.86-14.33-10.38-16.13-31.42-16.35-37.11-19.93-17.64-12.97-38.32-10.08-44.74-6.52-7.7-9.14-15.56-7.79-23.37,2.1-12.08,13.17-20.26,17.96-23.28-.02-.06-.05-.12-.07-.19-2.65-7.05-9.68-25.79,17.64-38.73,29.85-14.18,70.97,8.46,72.71,9.43,1.45.81,1.96,2.63,1.15,4.08-.81,1.45-2.64,1.96-4.08,1.16-.4-.22-40.17-22.1-67.21-9.25-22.33,10.58-17.3,24-14.59,31.2.5,1.32.86,2.28,1,3.16.22,1.28-.41,2.55-1.56,3.15-.15.08-14.94,8.05-17.05,20.31-1.1,6.4,1.48,13.07,7.67,19.81.89.97,1.04,2.42.37,3.55-.52.89-12.5,22.07,8.82,40,.68.57,1.07,1.42,1.07,2.31,0,.23.09,23.72,13.97,33.69.07.05.14.11.21.16.69.58,17.42,14.19,47.09-3.73.82-.5,1.83-.57,2.72-.2,1.48.62,36.59,14.82,69.21-12.49,2.33-1.95,4.62-4.09,6.8-6.37,1.15-1.2,3.05-1.23,4.24-.09,1.2,1.15,1.24,3.05.09,4.24-2.34,2.44-4.79,4.73-7.28,6.82-31.62,26.47-66.43,16.55-73.92,13.96-12.16,7.09-22.46,9.35-30.65,9.35Z" fill="#2b2b2b"/><path d="M264.92,935.23c-.12,0-.24,0-.36-.02-18.62-2.22-38.48-12-39.32-12.41-1.48-.74-2.09-2.54-1.35-4.02.74-1.48,2.54-2.09,4.02-1.35.2.1,19.79,9.74,37.36,11.83,1.65.2,2.82,1.69,2.62,3.33-.18,1.52-1.48,2.65-2.98,2.65Z" fill="#2b2b2b"/><path d="M265.3,982.19c-18.98,0-46.35-12.73-50.2-14.57-1.5-.71-2.13-2.5-1.42-4,.71-1.5,2.5-2.13,4-1.42,17.39,8.29,48.35,18.78,57.36,11.61,2.15-1.71,4-3.32,5.48-4.8.12-.12.25-.25.38-.37,4.22-4.32,4.21-6.25,4.19-8.69,0-.81-.01-1.72.1-2.72.01-.13.03-.27.07-.48.3-1.63,1.85-2.71,3.49-2.42,1.63.3,2.71,1.86,2.42,3.49,0,.02,0,.08-.01.1-.07.63-.07,1.29-.06,1.98.03,3.76-.4,7.33-5.96,12.99-.04.04-.07.07-.11.11-.09.08-.18.17-.26.26-1.66,1.64-3.67,3.41-5.99,5.25-3.31,2.63-8.05,3.67-13.48,3.67Z" fill="#2b2b2b"/><path d="M251.07,1015.58c-14.16,0-25.44-3.75-26.17-4-1.57-.53-2.41-2.24-1.88-3.81.53-1.57,2.24-2.4,3.8-1.88.26.09,26.39,8.72,47.73-.95,2.33-1.05,4.58-2.33,6.7-3.79.29-.2.58-.42.89-.64,5.67-4.18,8.5-8.53,8.44-12.95-.11-7.76-8.87-13.91-8.96-13.97-1.36-.94-1.7-2.81-.76-4.17.94-1.36,2.8-1.71,4.17-.77.46.32,11.37,7.93,11.56,18.79.11,6.48-3.54,12.49-10.84,17.88-.33.25-.67.5-1.04.75-2.44,1.69-5.02,3.15-7.67,4.34-8.62,3.91-17.77,5.16-25.96,5.16Z" fill="#2b2b2b"/><path d="M291.68,1044.45c-.58,0-1.17-.17-1.69-.52-1.37-.93-1.72-2.8-.79-4.17.12-.18,7.91-11.88,5.55-22.28-1.07-4.69-3.98-8.36-8.9-11.23-1.43-.83-1.92-2.67-1.08-4.1.83-1.43,2.67-1.92,4.1-1.08,6.36,3.71,10.31,8.79,11.73,15.11,2.94,13-6.06,26.4-6.45,26.96-.58.85-1.52,1.31-2.48,1.31Z" fill="#2b2b2b"/><path d="M524.53,418.06c-.97,0-1.75-.78-1.75-1.75,0-5.27,2.61-10.03,7.76-17.49,3.52-5.09,7.44-8.68,11.99-10.98,8.34-4.25,18.39-3.8,29.88,1.37.88.4,1.27,1.43.88,2.31-.4.88-1.43,1.28-2.31.88-10.47-4.71-19.51-5.19-26.86-1.44-4.02,2.03-7.52,5.25-10.7,9.85-5.4,7.84-7.14,11.61-7.14,15.5,0,.97-.78,1.75-1.75,1.75Z" fill="#2b2b2b"/><path d="M545.28,628.38c-.73,0-1.47-.27-2.04-.8-1.21-1.13-1.28-3.03-.15-4.24.41-.44,10.26-10.91,28.64-20.55,16.92-8.88,44.57-18.66,80.2-14.87,1.65.18,2.84,1.65,2.67,3.3s-1.66,2.83-3.3,2.67c-65.29-6.96-103.44,33.13-103.82,33.54-.59.63-1.39.96-2.2.96Z" fill="#2b2b2b"/><path d="M1300.63,384.53c-2.09,0-4.1-.95-5.43-2.64-1.75-2.22-1.98-5.14-.61-7.61,22.64-40.83,102.48-174.58,179.32-181.45,23.82-2.13,45.23,8.2,63.59,30.7,16.1,19.73,20.31,40.3,12.16,59.49-14.67,34.55-68.43,61.43-133.77,66.87-35.97,3-66.72,15.83-89.16,25.2-9.5,3.97-17.71,7.39-24.25,9.2,0,0,0,0,0,0-.61.17-1.23.25-1.85.25ZM1301.68,381.39h0,0ZM1479.88,198.56c-1.8,0-3.62.08-5.45.25-31.64,2.83-67.9,29.17-107.79,78.31-32.26,39.74-57.47,83.23-66.82,100.08-.24.43-.09.78.08.99.17.22.48.45.97.32,6.17-1.71,14.22-5.06,23.53-8.95,22.82-9.53,54.06-22.57,90.98-25.65,30.13-2.51,59.4-10.07,82.4-21.28,23.54-11.47,39.56-25.98,46.34-41.95,7.33-17.25,3.53-35.2-11.29-53.35-15.59-19.1-33.39-28.76-52.96-28.76Z" fill="#2b2b2b"/><path d="M1461.21,511.37c-15.51,0-33.52-7.09-50.02-20.19-21.13-16.78-43.8-29.7-55.27-33.79h0c-2.3-.82-3.77-2.93-3.74-5.37.03-2.43,1.53-4.5,3.84-5.26,25.57-8.61,105.03-27.6,133.63-2.76,9.23,8.02,12.5,19.66,9.71,34.62-2.83,15.14-10.87,25.59-23.26,30.22-4.56,1.7-9.58,2.54-14.88,2.54ZM1358.94,452.1c11.85,4.48,33.97,16.9,55.98,34.38,20.5,16.28,43.13,22.69,59.07,16.73,10.32-3.86,17.05-12.75,19.47-25.7,2.4-12.89-.13-22.38-7.75-28.99-24.25-21.06-95.13-6.86-126.77,3.58Z" fill="#2b2b2b"/><path d="M1595.01,420.26c-30.5,0-77.36-32.49-79.65-34.08-.87-.61-1.35-1.63-1.27-2.68.08-1.06.71-1.99,1.66-2.46,2.7-1.34,66.34-32.6,93.28-15.3,8.27,5.31,12.26,14.44,11.85,27.13-.4,12.32-4.71,20.63-12.83,24.69-3.77,1.89-8.2,2.71-13.04,2.71ZM1523.14,384.2c20.01,13.19,63.5,37.37,82.23,27.99,6.08-3.04,9.19-9.43,9.52-19.52.34-10.58-2.63-17.74-9.09-21.89-20.21-12.98-67.54,6.58-82.65,13.41Z" fill="#2b2b2b"/><path d="M941.21,279.44c-.23,0-.47-.03-.69-.08-1.03-.25-2.06-.48-3.09-.72-85.96-19.79-180.87-30.2-282.16-30.95-140.43-1.01-248.62,17.03-268.88,20.66-2.67.47-4.05.74-4.07.75-.9.18-1.83-.06-2.53-.65-.7-.59-1.09-1.47-1.06-2.38,1.08-36.05,24.9-64.13,25.91-65.31.39-.45.9-.77,1.47-.93.9-.25,1.81-.5,2.72-.75l2.14-.59s.02,0,.02,0c82.6-22.26,190.38-23.02,320.34-2.27,100.18,16,180.48,39.72,202.7,46.61,3.06.94,4.66,1.46,4.66,1.46.9.29,1.62.99,1.92,1.89,1.23,3.63,2.18,7.29,2.81,10.86.84,4.54,1.24,9.12,1.19,13.59-.03,3.87-.43,6.22-.44,6.32-.14.82-.61,1.54-1.3,2-.5.33-1.07.5-1.65.5ZM643.66,241.65c3.86,0,7.74.01,11.66.04,101.65.75,196.94,11.2,283.23,31.05.03-.64.06-1.37.06-2.18.05-4.1-.32-8.28-1.09-12.46-.5-2.83-1.21-5.7-2.12-8.57-.76-.24-1.81-.57-3.14-.98-32.56-10.09-323.72-97.07-519.68-44.29l-2.15.59c-.59.16-1.19.33-1.78.49-3.42,4.26-21.43,27.94-23.71,57.16.13-.02.27-.05.41-.07,19.78-3.54,123.05-20.8,258.31-20.8Z" fill="#2b2b2b"/><path d="M1211.21,365.87c-1.07,0-2.06-.57-2.59-1.49-14.53-25-75.34-47.86-175.86-66.12-1.76-.33-3.48-.64-5.2-.94-47.6-8.45-86.31-12.61-86.69-12.65-1.65-.18-2.84-1.65-2.67-3.3.18-1.65,1.66-2.85,3.3-2.67.39.04,39.3,4.22,87.1,12.71,1.73.3,3.47.61,5.25.94,68.27,12.4,152.85,33.54,177.08,64.75,9.47-17.73,27.33-53.95,26.32-65.37-1.57-1.2-9.57-4.52-50.16-8.06-25.19-2.2-59.32-4.2-101.43-5.93-71.75-2.95-142.72-4.13-143.43-4.14-1.58-.03-2.87-1.28-2.95-2.86s1.09-2.95,2.66-3.13c98.69-11.14,160.61-36.15,195.17-55.16,32.42-17.83,47.26-33.69,50.61-37.56-2.46-15.65-31.25-27.95-45.42-32.47-12.51,37.39-46.87,67.94-102.19,90.83-43.83,18.13-87,25.46-99.19,27.28-1.64.23-3.17-.89-3.41-2.53s.89-3.17,2.53-3.41c12.02-1.79,54.58-9.01,97.78-26.89,54.98-22.75,88.51-52.99,99.65-89.88.47-1.57,2.12-2.46,3.7-2.02,2.08.59,50.86,14.8,52.68,39.81.05.74-.17,1.47-.62,2.05-.59.77-14.97,19.01-53.21,40.05-30.39,16.71-81.56,37.99-159.62,50.68,28.49.68,69.4,1.82,110.11,3.54,43.12,1.82,77.59,3.92,102.44,6.24,45.31,4.23,49.59,8.18,50.18,12.2,2.34,15.93-26.04,68.05-29.28,73.94-.52.95-1.51,1.54-2.59,1.55h-.04Z" fill="#2b2b2b"/><path d="M1223.02,1149.01c-5.59-.89-11.13-2.12-16.57-3.68-165.35-47.44-274.6-97.33-364.5-158.33-74.29-50.41-127.36-103.76-142.5-163.18-26.29-103.18,25.04-146.61,26.88-149.18l9.02,13.75,2.63,4.47c-1.2,1.74-9.96,54.12,12,114.89,16.9,46.78,58.35,92.67,123.19,136.39,84.69,57.1,207.8,109.13,366.05,154.72,4.47,1.29,9.21,1.39,13.72.25,9.09-2.31,20.97-7.12,24.52-16.85,2.37-6.48,3.76-22.02-13.53-53.28-19.93-36.02-54.28-73.89-109.79-126.69l24.5-45.41c59.58,56.69,109.35,105.97,131.85,146.79,20.92,37.95,26.5,70.67,16.58,97.24-14.78,39.59-50.88,51.68-74.64,52.78l-29.42-4.67Z" fill="#f5f5f5"/><path d="M1252.28,1156.69l-29.72-4.72c-5.66-.9-11.35-2.17-16.93-3.76-157.48-45.19-270.16-94.14-365.36-158.73-82.73-56.14-129.75-110.08-143.72-164.92-10.48-41.13-10.13-77.82,1.05-109.04,5.86-16.36,14.47-30.46,25.58-41.9.35-.36.61-.62.76-.79l2.51-3.5,11.5,17.54,3.59,6.12-.9,1.31c-1.79,5.69-8.4,55.51,12.17,112.43,16.68,46.17,57.75,91.57,122.05,134.92,84.4,56.91,207.28,108.83,365.2,154.33,3.99,1.15,8.2,1.23,12.16.22,8.53-2.17,19.36-6.52,22.44-14.97,1.76-4.83,4-19.45-13.34-50.8-18.53-33.49-49.15-68.81-109.23-125.97l-1.66-1.58,27.45-50.88,2.84,2.71c58.79,55.94,109.33,105.64,132.41,147.52,21.36,38.75,27,72.31,16.76,99.74-14.33,38.38-49.33,53.43-77.31,54.73h-.31ZM1223.5,1146.05l29.11,4.62c26.02-1.3,58.41-15.31,71.66-50.81,9.6-25.72,4.08-57.6-16.39-94.75-22.26-40.38-73.26-90.79-128.45-143.36l-21.54,39.94c59.47,56.69,90.01,92.07,108.68,125.83,17.87,32.3,16.27,48.8,13.73,55.76-3.99,10.91-16.67,16.2-26.6,18.72-4.99,1.27-10.28,1.17-15.29-.27-158.53-45.67-281.97-97.86-366.9-155.12-65.38-44.08-107.21-90.46-124.33-137.86-19.68-54.48-15.14-104.31-12.39-115.46l-1.96-3.34-6.9-10.51c-15.36,16.66-44.58,61.13-23.56,143.62,13.6,53.36,59.81,106.16,141.28,161.44,94.65,64.22,206.8,112.93,363.64,157.93,5.34,1.53,10.79,2.75,16.21,3.61h0ZM740.7,694.1s0,0,0,0t0,0Z" fill="#2b2b2b"/><path d="M258.31,1109.56s7.17,11.92,50.64,8.64,47.37-14.94,47.37-14.94l-33.42-463.15c-.46-6.43-4.6-11.15-11.57-12.86-26.59-6.5-54.88-2.53-71.9,4.54-9.71,4.03-13,9.57-12.55,16.23l31.43,461.54Z" fill="#f5f5f5"/><path d="M294.72,1121.77c-31.55,0-38.26-9.45-38.99-10.67l-.37-.62-.05-.72-31.43-461.54c-.58-8.54,4.26-15,14.39-19.21,15.88-6.6,44.73-11.78,73.76-4.69,8.12,1.98,13.3,7.8,13.85,15.56l33.46,463.75-.19.57c-.76,2.26-6.73,13.71-49.99,16.98-5.31.4-10.12.58-14.45.58ZM261.23,1108.37c2.02,1.95,12.26,9.5,47.48,6.84,35-2.65,43.09-10.72,44.54-12.65l-33.35-462.24c-.37-5.18-3.67-8.78-9.29-10.16-25.85-6.32-53.8-2.34-70.04,4.4-10,4.16-10.98,9.27-10.7,13.26l31.36,460.55Z" fill="#2b2b2b"/><path d="M228.97,640.76s6.35,10.48,46.68,7.2,44.44-13.77,44.44-13.77" fill="#f5f5f5"/><path d="M260.94,650.34c-27.3,0-32.85-7.68-33.46-8.68l2.97-1.85c.06.1,6.94,9.5,45.07,6.4,37.99-3.1,42.93-12.62,42.98-12.72l3.24,1.33c-.46,1.18-5.67,11.59-45.93,14.87-5.55.45-10.49.65-14.86.65Z" fill="#2b2b2b"/><path d="M280.93,1002.29c20.98,14.85.99,39.22.99,39.22-34.75,16.99-52.31-1.1-52.31-1.1-14.76-12.72-12.34-38.51-12.34-38.51,0,0,33.32,14.71,59.15-.06.37-.21.72-.42,1.08-.64l3.44,1.1Z" fill="#f9e2cd"/><path d="M279.76,968.48s21.85,18.05-2.26,32.71c-.35.22-.71.43-1.08.64-25.83,14.77-59.15.06-59.15.06-22.44-22.57-5.72-45.9-5.72-45.9,0,0,45.92,27.15,61.16,17.09,2.62-1.73,4.7-3.26,6.35-4.63l.7.03Z" fill="#f9e2cd"/><path d="M285.99,955c-.83,3.98.85,6.97-6.93,13.44-1.65,1.37-3.73,2.9-6.35,4.63-15.23,10.06-61.16-17.09-61.16-17.09-22.63-29.55,14.56-45.11,14.56-45.11,0,0,19.66,12.04,38.3,15.95l1.88.31c-.6,6.02,1.17,12.56,7.12,19.19,4.5,5.01,8.72,7.65,12.58,8.67Z" fill="#f9e2cd"/><path d="M316.26,889.65l.21.78-25.88,6.8c-2.52.66-4.85,1.83-6.89,3.45-5.62,4.48-16.23,14.44-17.41,26.46l-1.88-.31c-18.64-3.91-38.3-15.95-38.3-15.95-.35-4.45-11.74-25.81,19.11-37.22,30.84-11.42,71.04,15.99,71.04,15.99Z" fill="#f9e2cd"/><path d="M285.99,955c-3.86-1.02-8.08-3.66-12.58-8.67-5.95-6.63-7.72-13.17-7.12-19.19,1.19-12.02,11.79-21.98,17.41-26.46,2.04-1.63,4.37-2.79,6.89-3.45l25.88-6.8,2.03-.53c5.09-.31,9.89.1,14.33,2.62,13.99,7.94,33.32,16.33,42.26,35.57,0,0,20.66,43.73,5.77,79.02-3.28,7.79-43.65-6.36-52.33-11.41-20.02-11.65-20.23-52.17-20.23-52.17,0,0-9.2,13.93-22.32,11.47Z" fill="#f9e2cd"/><path d="M364.91,1009.16c-1.25,0-30.7-.23-47.97-20.6-10.56-12.45-14.12-29.57-10.59-50.89.03-.17.07-.35.13-.51.07-.2.16-.4.27-.58.85-1.42,2.69-1.88,4.12-1.03,1.15.69,1.67,2.04,1.37,3.28-3.18,19.42-.06,34.84,9.28,45.85,15.49,18.27,43.12,18.48,43.39,18.48,1.66,0,3,1.34,3,3s-1.34,3-3,3Z" fill="#2b2b2b"/><path d="M287.91,958.53c-1.53,0-3.12-.2-4.78-.63-4.84-1.26-9.65-4.47-14.31-9.55-6.12-6.67-8.82-13.91-8.05-21.52,1.31-12.99,12.42-23.45,18.93-28.52,2.4-1.88,5.14-3.22,8.14-3.99l28.51-7.34c.23-.06.46-.09.69-.09,5.52-.07,14.75,1.96,19.71,4.4l.16.08c10.12,4.98,31.19,15.34,40.73,35.43.15.32,4.02,8.38,7.28,20.44.43,1.6-.51,3.25-2.11,3.68-1.6.44-3.25-.51-3.68-2.11-3.11-11.49-6.87-19.34-6.9-19.42-8.65-18.22-28.45-27.96-37.96-32.64l-.16-.08c-4.02-1.98-11.97-3.78-16.62-3.79l-28.16,7.25c-2.19.56-4.19,1.54-5.94,2.91-4.63,3.61-15.53,13.22-16.65,24.4-.59,5.83,1.6,11.5,6.5,16.86,3.86,4.21,7.7,6.83,11.4,7.8,12.64,3.29,21.6-14.51,21.98-15.27.73-1.49,2.53-2.09,4.02-1.36,1.49.73,2.09,2.53,1.36,4.02-1.05,2.12-9.86,19.04-24.09,19.04Z" fill="#2b2b2b"/><path d="M251,1051.83c-16.62,0-25.56-8.07-26.74-9.2-14.07-11.96-13.98-33.75-13.68-39.58-19.3-19.97-10.01-40.59-6.39-46.89-6.09-8.45-8.13-16.7-6.05-24.55,3.27-12.35,15.81-19.78,21.09-22.42-.02-.08-.05-.17-.07-.25-2.11-7.47-7.73-27.32,22.05-38.1,32.57-11.79,73.55,15.16,75.27,16.32,1.38.92,1.75,2.78.83,4.16-.92,1.38-2.78,1.75-4.16.83-.4-.27-40.2-26.42-69.9-15.67-24.52,8.87-20.49,23.15-18.32,30.82.4,1.41.69,2.42.76,3.33.1,1.3-.65,2.52-1.85,3.02-.16.07-16.6,6.97-19.9,19.5-1.7,6.46.4,13.52,6.25,20.99.83,1.06.85,2.54.06,3.62-.63.87-15.21,21.57,5.53,41.99.64.63.97,1.52.88,2.42-.02.24-2.11,24.4,11.56,35.94.07.06.13.12.2.18.67.66,17.06,16.27,50.03.51,1.49-.72,3.29-.08,4,1.41.71,1.5.08,3.29-1.41,4-11.85,5.67-21.87,7.62-30.03,7.62Z" fill="#2b2b2b"/><path d="M261.84,929.83c-.2,0-.4-.02-.61-.06-19.32-3.97-39.23-15.82-40.07-16.32-1.42-.85-1.88-2.69-1.03-4.12.85-1.42,2.69-1.88,4.12-1.03.2.12,19.89,11.83,38.19,15.59,1.62.33,2.67,1.92,2.33,3.54-.29,1.42-1.54,2.4-2.94,2.4Z" fill="#2b2b2b"/><path d="M261,978.28c-19.95,0-50.58-17.32-54.67-19.69-1.43-.83-1.92-2.66-1.09-4.1.83-1.43,2.67-1.92,4.1-1.09,12.61,7.29,47.86,24.6,59.36,17.17,2.43-1.57,4.53-3.06,6.23-4.44,5.29-4.31,5.46-6.36,5.68-8.96.07-.83.15-1.76.36-2.78.34-1.62,1.94-2.66,3.56-2.31,1.62.34,2.65,1.94,2.31,3.56-.14.64-.19,1.32-.25,2.03-.34,4.08-1.13,7.63-7.87,13.12-1.87,1.52-4.14,3.14-6.76,4.83-2.92,1.89-6.69,2.68-10.95,2.68Z" fill="#2b2b2b"/><path d="M246.56,1011.45c-18.02,0-33.13-6.4-34.08-6.81-1.52-.66-2.22-2.42-1.56-3.94.66-1.52,2.42-2.22,3.94-1.56h0c.33.14,33.03,13.93,57.79.08.33-.19.67-.38,1-.58,6.39-3.8,9.79-8.04,10.13-12.62.59-8-8.05-15.13-8.13-15.2-1.28-1.05-1.48-2.93-.44-4.22,1.04-1.28,2.93-1.48,4.21-.44.46.37,11.14,9.14,10.35,20.27-.48,6.66-4.85,12.5-13.01,17.35-.36.22-.75.45-1.16.68-9.4,5.26-19.61,7-29.02,7Z" fill="#2b2b2b"/><path d="M279.74,1044.5c-.68,0-1.36-.23-1.93-.7-1.27-1.06-1.44-2.95-.37-4.22h0c.09-.11,9.41-11.44,7.93-22.38-.66-4.88-3.47-9.07-8.34-12.45-1.36-.94-1.7-2.81-.76-4.17.94-1.36,2.81-1.7,4.17-.76,6.32,4.38,9.98,9.97,10.88,16.6,1.83,13.58-8.82,26.46-9.28,27.01-.59.71-1.44,1.07-2.3,1.07Z" fill="#2b2b2b"/></svg>