<?xml version="1.0" encoding="UTF-8"?><svg id="_レイヤー_30のコピー" xmlns="http://www.w3.org/2000/svg" width="2400" height="1350" viewBox="0 0 2400 1350"><ellipse cx="1800.98" cy="1276.39" rx="365.21" ry="52.17" fill="#f0c07e"/><path d="M1761.34,906.99c0,195.39-302.5,200.76-675.65,200.76s-675.65-16.13-675.65-200.76c0-110.88,302.5-200.76,675.65-200.76s675.65,89.88,675.65,200.76Z" fill="#f0c07e"/><path d="M831.54,453.35c44.57,10.09,79.34,58.1,58.41,117.05-20.93,58.96-63.66,63.28-63.66,63.28-18.41,83.58-130.49,62.05-138.46,60.41l-5.31-37.97c-.25-1.76.1-3.56.97-5.12l52.3-93.12c1.99-3.53,1.08-7.97-2.12-10.45l-3.96-3.05c-3.67-2.84-8.98-2.04-11.64,1.76l-32.94,46.84c-4.29,6.1-13.85,3.72-14.75-3.69l-9.75-79.34c-.53-4.37-4.44-7.52-8.83-7.11l-9.91.91c-4.23.39-7.45,3.98-7.39,8.24l1.42,97.29c.1,6.65-7.38,10.62-12.83,6.79l-40.62-28.51c-1.52-1.08-3.3-1.55-5.03-1.47-2.26.1-4.45,1.13-5.97,3.01-2.52,3.11-2.41,7.58.25,10.56l66.87,74.79c1.46,1.63,2.21,3.8,2.06,5.99l-2.34,34.06c-4.03,12.77-32.78,22.45-72.15,21.44-42.95-1.1-60.43-54.1-60.43-54.1-81.92,6.08-93.7-68.34-93.7-68.34-17.23-60.87,41.58-97.34,41.58-97.34-14.3-19.35-10.69-48.24-5.53-68.2,5.58-21.56,17.84-40.95,35.61-54.39,26.66-20.17,53.06-18.92,53.06-18.92-3.52-24.62,20.27-87.32,99.86-91.48,79.59-4.16,97.48,71.79,97.48,71.79,0,0,29.26-7.95,70.94,18.59,41.67,26.55,26.52,79.8,26.52,79.8Z" fill="#73a451"/><path d="M687.83,694.09l16.91,120.67c.29,2.06,1.35,3.93,2.97,5.23l22.76,18.26c5.76,4.63,2.88,13.92-4.49,14.48l-111.67,8.46c-7.67.59-11.79-8.83-6.17-14.08l20.14-18.79c1.51-1.42,2.43-3.35,2.57-5.4l7.46-108.43,2.34-34.06c.15-2.19-.6-4.36-2.06-5.99l-66.87-74.79c-2.66-2.98-2.76-7.46-.25-10.56,1.52-1.87,3.71-2.9,5.97-3.01,1.74-.08,3.51.4,5.03,1.47l40.62,28.51c5.45,3.82,12.92-.14,12.83-6.79l-1.42-97.29c-.06-4.25,3.16-7.85,7.39-8.24l9.91-.91c4.39-.41,8.3,2.74,8.83,7.11l9.75,79.34c.9,7.41,10.46,9.8,14.75,3.69l32.94-46.84c2.66-3.8,7.97-4.6,11.64-1.76l3.96,3.05c3.2,2.48,4.11,6.92,2.12,10.45l-52.3,93.12c-.88,1.56-1.22,3.36-.97,5.12l5.31,37.97Z" fill="#7b5736"/><path d="M613.65,862.95c-3.93,0-7.41-2.26-9.01-5.92-1.71-3.9-.81-8.31,2.31-11.21l20.14-18.79c1.19-1.12,1.91-2.62,2.02-4.24l9.81-142.49c.11-1.71-.48-3.43-1.62-4.7l-66.87-74.79c-3.25-3.64-3.38-9.04-.3-12.83,1.78-2.2,4.42-3.53,7.25-3.65,2.21-.1,4.33.52,6.12,1.79l40.62,28.51c2,1.41,4.5,1.57,6.66.42,2.17-1.15,3.44-3.3,3.41-5.75l-1.42-97.29c-.08-5.14,3.87-9.53,8.98-10.01l9.91-.91c5.38-.5,10.07,3.3,10.73,8.64l9.75,79.34c.39,3.22,2.73,4.91,4.79,5.43,2.06.52,4.93.12,6.79-2.53l32.94-46.84c1.56-2.23,3.91-3.68,6.61-4.09,2.7-.41,5.38.28,7.54,1.96l3.96,3.05c3.93,3.04,5.01,8.38,2.58,12.69l-52.3,93.12c-.69,1.22-.96,2.65-.76,4.02l22.23,158.64c.23,1.63,1.06,3.09,2.33,4.11l22.76,18.26c3.24,2.6,4.48,6.68,3.25,10.64-1.23,3.97-4.57,6.63-8.71,6.94l-111.67,8.46c-.26.02-.53.03-.79.03ZM577.81,587.82c-.1,0-.2,0-.29,0-1.83.08-3.54.94-4.69,2.36-1.98,2.45-1.9,5.94.2,8.29l66.87,74.79c1.77,1.97,2.68,4.62,2.5,7.27l-9.81,142.49c-.17,2.5-1.28,4.83-3.12,6.56l-20.14,18.79c-2.44,2.28-2.37,5.24-1.49,7.25.88,2.01,3.03,4.06,6.33,3.8l111.68-8.46c3.2-.24,5.01-2.48,5.63-4.49.62-2.01.4-4.87-2.1-6.88l-22.76-18.26c-1.97-1.58-3.25-3.83-3.61-6.35l-16.92-120.67-5.31-37.97c-.3-2.12.12-4.33,1.18-6.22l52.3-93.12c1.57-2.79.87-6.24-1.67-8.21l-3.95-3.05c-1.4-1.08-3.13-1.53-4.87-1.27-1.74.26-3.26,1.2-4.27,2.64l-32.94,46.84c-2.41,3.43-6.44,4.93-10.51,3.91-4.06-1.02-6.9-4.24-7.41-8.4l-9.75-79.34c-.42-3.45-3.47-5.9-6.93-5.58l-9.91.91c-3.3.3-5.85,3.15-5.8,6.47l1.42,97.29c.05,3.74-1.97,7.15-5.27,8.9-3.3,1.75-7.25,1.5-10.31-.65l-40.62-28.51c-1.08-.77-2.34-1.16-3.66-1.16Z" fill="#2b2b2b"/><path d="M571.8,737.75c-1.88,0-3.77-.02-5.69-.07-18.13-.46-34.62-10.21-47.69-28.18-8.14-11.19-12.54-22.14-13.9-25.83-2.74.18-5.41.26-7.99.26-37.26,0-58.4-17.55-69.78-32.95-12.92-17.48-16.15-35.41-16.43-37.11-9.04-32.09,2.96-57.36,14.64-72.93,10.36-13.81,22.02-22.42,26.17-25.26-13.35-19.69-10.01-47.8-4.75-68.17,5.79-22.39,18.66-42.05,36.25-55.35,22.91-17.33,45.37-19.15,52.16-19.28-1.06-13.2,4.62-34.85,20.1-53.67,13.15-15.98,37.98-35.52,81.62-37.8,41.84-2.19,66.64,17.83,80.05,35.01,12.19,15.61,17.34,31.38,18.78,36.47,6.96-1.29,33.96-4.16,70.62,19.18,17.51,11.16,27.78,28.86,29.69,51.18,1.15,13.42-1,24.6-1.98,28.8,22.71,5.66,42.17,20.67,53.59,41.41,12.49,22.68,14.03,50.21,4.33,77.51-10.98,30.92-28.03,46.78-40.39,54.64-11,6.99-20.2,9.06-23.48,9.62-8.06,34.49-33.74,56.03-74.32,62.33-31.78,4.93-62.53-1.07-65.94-1.77-.33-.07-.5-.11-.5-.11l.81-3.41s.15.03.4.09c3.34.69,33.53,6.57,64.7,1.74,40.06-6.22,64.19-26.68,71.71-60.81l.27-1.24,1.26-.13c.41-.04,41.9-5.01,62.18-62.13,9.36-26.35,7.9-52.86-4.1-74.65-11.23-20.4-30.57-35.01-53.04-40.1l-1.8-.41.5-1.78c.15-.52,14.28-52.32-25.78-77.84-40.44-25.76-69.26-18.46-69.55-18.38l-1.74.47-.42-1.75c-.04-.19-4.59-18.93-18.65-36.88-18.76-23.96-44.68-35.25-77.03-33.56-42.36,2.21-66.4,21.08-79.1,36.52-15.62,18.99-20.86,40.77-19.12,52.96l.3,2.09-2.11-.1c-.26-.01-26.13-.95-51.92,18.56-16.95,12.82-29.37,31.8-34.97,53.43-5.21,20.16-8.53,48.09,5.24,66.72l1.13,1.53-1.61,1c-.14.09-14.64,9.2-26.84,25.5-16.25,21.71-20.95,45.22-13.98,69.88l.04.2c.03.18,3.07,18.5,15.89,35.79,17.12,23.09,42.68,33.54,75.95,31.07l1.36-.1.43,1.3c.17.52,17.6,51.85,58.81,52.9,41.28,1.06,67.1-9.62,70.44-20.21.3-.97.43-1.96.39-2.95l3.5-.16c.06,1.39-.12,2.79-.54,4.15-4.3,13.64-31.98,22.74-68.18,22.74Z" fill="#2b2b2b"/><path d="M1534.78,544.91c31.58,11.2,52.76,49.17,32.42,90.28-20.34,41.12-51.83,40.58-51.83,40.58-20.63,59.27-100.39,33.91-106.05,32.03l-.59-28.11c-.03-1.3.38-2.58,1.15-3.64l46.14-63.29c1.75-2.4,1.47-5.71-.64-7.79l-2.62-2.56c-2.43-2.39-6.36-2.26-8.63.28l-28.04,31.26c-3.65,4.07-10.4,1.51-10.42-3.96l-.24-58.62c-.01-3.23-2.59-5.86-5.82-5.94l-7.29-.19c-3.11-.08-5.77,2.26-6.09,5.36l-7.37,70.97c-.51,4.85-6.29,7.09-9.93,3.84l-27.12-24.28c-1.02-.92-2.27-1.41-3.54-1.51-1.65-.12-3.34.44-4.61,1.67-2.1,2.04-2.41,5.31-.73,7.71l42.23,60.24c.92,1.32,1.28,2.96.98,4.54l-4.65,24.6c-4.04,8.95-25.81,13.51-54.39,9.37-31.19-4.51-39.33-44.62-39.33-44.62-60.18-2.66-62.33-57.86-62.33-57.86-7.28-45.82,38.69-67.29,38.69-67.29-8.74-15.33-3.61-36.05,1.87-50.14,5.92-15.22,16.53-28.28,30.63-36.53,21.15-12.38,40.27-9.19,40.27-9.19-.43-18.23,22.31-61.84,80.63-57.99,58.32,3.85,64.78,60.7,64.78,60.7,0,0,22-3.26,50.05,19.67,28.05,22.93,12.42,60.4,12.42,60.4Z" fill="#73a451"/><path d="M1409.32,707.8l1.89,89.34c.04,1.52.65,2.98,1.71,4.06l14.99,15.26c3.79,3.87.9,10.38-4.52,10.15l-82.05-3.49c-5.64-.24-7.83-7.45-3.28-10.78l16.29-11.94c1.22-.9,2.06-2.23,2.34-3.71l14.81-78.31,4.65-24.6c.3-1.58-.06-3.22-.98-4.54l-42.23-60.24c-1.68-2.4-1.37-5.67.73-7.71,1.27-1.23,2.95-1.79,4.61-1.67,1.27.09,2.52.59,3.54,1.51l27.12,24.28c3.64,3.25,9.42,1.01,9.93-3.84l7.37-70.97c.32-3.1,2.98-5.44,6.09-5.36l7.29.19c3.23.08,5.8,2.71,5.82,5.94l.24,58.62c.02,5.48,6.77,8.04,10.42,3.96l28.04-31.26c2.27-2.54,6.2-2.66,8.63-.28l2.62,2.56c2.12,2.08,2.39,5.39.64,7.79l-46.14,63.29c-.77,1.06-1.18,2.34-1.15,3.64l.59,28.11Z" fill="#7b5736"/><path d="M1423.67,828.38c-.12,0-.23,0-.35,0l-82.06-3.49c-3.32-.14-6.09-2.28-7.06-5.46-.97-3.18.14-6.51,2.82-8.48l16.29-11.94c.87-.64,1.46-1.57,1.65-2.62l19.46-102.92c.21-1.11-.04-2.28-.7-3.21l-42.23-60.25c-2.18-3.12-1.79-7.31.94-9.97,1.58-1.54,3.74-2.33,5.96-2.16,1.72.13,3.3.8,4.58,1.95l27.11,24.27c1.21,1.08,2.83,1.38,4.34.79,1.51-.58,2.52-1.9,2.68-3.51l7.37-70.97c.41-3.92,3.76-6.93,7.68-6.93.07,0,.13,0,.2,0l7.29.19c4.2.11,7.5,3.48,7.52,7.68l.24,58.62c0,2.14,1.41,3.44,2.72,3.93,1.31.5,3.22.47,4.65-1.13l28.04-31.26c1.42-1.58,3.37-2.5,5.5-2.57,2.12-.07,4.14.71,5.66,2.21l2.62,2.56c2.76,2.72,3.11,6.95.83,10.07l-46.14,63.29c-.54.75-.83,1.66-.81,2.57l2.48,117.44c.02,1.08.45,2.11,1.21,2.87l14.99,15.27c2.27,2.31,2.86,5.59,1.55,8.55-1.27,2.85-3.95,4.59-7.04,4.59ZM1337.83,621.34c-1.1,0-2.16.43-2.95,1.19-1.49,1.45-1.71,3.75-.52,5.45l42.23,60.24c1.19,1.69,1.65,3.83,1.27,5.87l-19.46,102.92c-.36,1.92-1.44,3.62-3.02,4.79l-16.29,11.94c-1.78,1.31-1.96,3.25-1.54,4.64.42,1.38,1.66,2.89,3.86,2.99l82.06,3.49c2.13.09,3.48-1.24,4.04-2.51.56-1.27.64-3.16-.84-4.67l-14.99-15.26c-1.38-1.4-2.17-3.27-2.21-5.25l-2.48-117.45c-.04-1.67.49-3.35,1.49-4.71l46.14-63.29c1.25-1.71,1.05-4.03-.46-5.51l-2.62-2.56c-.83-.82-1.94-1.25-3.1-1.21-1.16.04-2.23.54-3,1.4l-28.04,31.26c-2.15,2.4-5.49,3.21-8.5,2.06-3.01-1.15-4.96-3.97-4.97-7.19l-.24-58.62c0-2.3-1.81-4.14-4.11-4.2l-7.29-.19c-2.17-.06-4.08,1.61-4.31,3.79l-7.37,70.97c-.3,2.9-2.18,5.36-4.9,6.41-2.72,1.05-5.76.49-7.93-1.45l-27.12-24.28c-.7-.63-1.56-1-2.5-1.07-.1,0-.21-.01-.31-.01Z" fill="#2b2b2b"/><path d="M1337.39,731.05c-6.35,0-13.27-.51-20.54-1.56-29.14-4.22-38.74-37.44-40.49-44.67-30.99-1.79-46.38-17.65-53.84-30.74-7.89-13.84-8.75-27.19-8.82-28.63-3.83-24.32,7.18-41.82,17.09-52.21,8.44-8.85,17.35-14.09,20.96-16.01-7.8-15.59-2.96-35.68,2.62-50.02,6.19-15.9,17.33-29.19,31.38-37.41,17.73-10.38,33.9-10.12,39.44-9.64.56-9.82,6.62-24.92,19.4-37.17,11.02-10.57,30.92-22.72,63.06-20.6,30.88,2.04,47.3,18.87,55.64,32.64,7.31,12.06,9.8,23.68,10.52,27.93,5.83-.29,25.51.46,49.67,20.2,25.27,20.66,16.21,52.97,13.55,60.72,15.97,6.19,28.78,18.82,35.3,34.89,7.19,17.72,5.92,38.03-3.56,57.2-18.52,37.45-45.87,41.17-52.15,41.52-8.98,24.43-29.64,37.9-59.82,38.98-23.64.85-45.6-6.2-48.03-7.01-.25-.08-.37-.13-.37-.13l1.21-3.28.26.09c2.37.79,23.77,7.66,46.8,6.83,29.5-1.06,48.69-13.77,57.05-37.77l.42-1.2,1.27.02h.01c.8,0,30.82-.39,50.21-39.61,9.03-18.26,10.26-37.56,3.45-54.34-6.37-15.7-19.08-27.92-34.88-33.52l-1.74-.62.71-1.71c.15-.36,14.78-36.55-11.91-58.38-27.04-22.1-48.48-19.33-48.69-19.3l-1.78.26-.21-1.79c-.02-.14-1.7-14.11-10.35-28.31-11.51-18.91-29.28-29.29-52.81-30.85-30.88-2.04-49.89,9.55-60.4,19.63-12.92,12.38-18.57,27.64-18.36,36.57l.05,2.12-2.09-.35c-.19-.03-18.79-2.91-39.1,8.97-13.36,7.82-23.98,20.48-29.88,35.65-5.5,14.13-10.3,34.04-1.98,48.64l.94,1.65-1.72.8c-.45.21-44.69,21.48-37.7,65.43l.02.21c0,.14.64,13.65,8.44,27.26,10.39,18.12,27.96,27.86,52.22,28.93l1.36.06.27,1.34c.08.39,8.28,38.96,37.86,43.24,29.74,4.31,49.27-1.09,52.55-8.36.28-.63.45-1.29.5-1.96l3.49.25c-.08,1.08-.35,2.13-.79,3.14-3.44,7.63-17.15,11.95-35.7,11.95Z" fill="#2b2b2b"/><circle cx="2002.7" cy="384.8" r="343.57" fill="#fffae6"/><path d="M2002.7,732.37c-92.84,0-180.12-36.15-245.77-101.8-65.65-65.65-101.8-152.93-101.8-245.77s36.15-180.12,101.8-245.77c65.65-65.65,152.93-101.8,245.77-101.8s180.12,36.15,245.77,101.8c65.65,65.65,101.8,152.93,101.8,245.77s-36.15,180.12-101.8,245.77c-65.65,65.65-152.93,101.8-245.77,101.8ZM2002.7,45.24c-187.24,0-339.57,152.33-339.57,339.57s152.33,339.57,339.57,339.57,339.57-152.33,339.57-339.57-152.33-339.57-339.57-339.57Z" fill="#2b2b2b"/><path d="M2045.37,853.82c28.32,58.02,74.78,197.02,12.65,342.94-8.34,19.59-18.88,38.26-38.1,47.41l-23.9,11.38h-1.74c4.76-6.45,3.56-11.68,3.56-11.68l-.26-80.58h.02c52.43-67.05,27.29-270.89-18.14-313.49l-.16-.64c23.05-5.84,52.2-9.35,65.88,4.75l.2-.1Z" fill="#fff5f5"/><path d="M2045.37,853.82l-.2.1c-13.68-14.09-42.83-10.58-65.88-4.75-18.2,4.61-32.6,10.67-32.6,10.67l-.23,1.15c-2.36-.44-4.76-.79-7.19-1.07l-20.33-2.33.02-.2c-6.11-16.58-12.12-30.79-23.6-40.13,14.09-12.3,35.25-23.57,59.64-18.62,0,0,63.14,3.77,87.57,49.59.91,1.77,1.84,3.63,2.79,5.58Z" fill="#c74444"/><path d="M1977.58,907.57c-.06-.44-1.15-7.94-5.58-15.07-1.73-3.21-3.62-5.83-5.62-8.01-4.73-5.16-11.42-5.81-18.5-4.98,0,0-.02,0-.02,0-2.48.08-5.16.43-8.05,1.11-1.2.27-2.37.63-3.51,1.06-.99.22-1.98.44-2.94.64-7.03,3.12-12.91,9.74-17.83,19.12-13.77,24.01-18.51,62.8-20.13,88.44,0,.02,0,.05,0,.07-1.65,16.7-2.81,34.42-3.62,52.55-3.57,79.49-.6,166.38-4.84,205.56-.51,4.79-1.31,12.64-1.66,17.44-2.9,39.75-60.35,31.3-60.35,31.3l-32.31-5.35-28.93-4.79-124.15-20.56-10.71-1.77c-5.05-.88-9.29-1.67-12.93-2.42-10.86-2.26-16.24-4.3-21.18-8.06-.79-.6-1.58-1.25-2.36-1.95-12.34-10.92-13.25-25.41-13.25-25.41-8.76-58.5,5.03-190.2,11.72-246.75,3.28-27.77,11.83-54.79,25.57-79.48,40.48-72.72,91.01-66.9,91.01-66.9-25.72-1.01-77.05,49.69-95.2,124.32-14.18,58.32-18.73,202.23-18.73,202.23,0,0,4.28,23.51,57.18,28.59,51.78,4.98,183.32,22.38,183.32,22.38,0,0,28.01,2.94,23.78-35.22,0,0,5.36-106.16,16.06-219.04,4.29-28.12,10.22-64.78,32.1-82.92,10.14-8.4,17.93-13.96,44.17-11.92,26.53,6.05,47.23,23.39,46.62,58.93.02.56.05,1.12.07,1.68l.79,240.92.26,80.58s1.2,5.24-3.56,11.68c-3.37,4.56-9.73,9.72-21.61,14.06l-1.57-.15c10.05-9.91,8.9-26.69,8.9-26.69l-.26-229.85-.03-25.61c3.35-38.63,1.93-63.43-2.13-79.74ZM1780.54,1266.7c8.94-.71,16.08-8.96,15.97-18.44-.1-9.48-7.41-16.65-16.35-16-8.98.65-16.19,8.92-16.08,18.47.11,9.54,7.49,16.68,16.46,15.97ZM1626.31,1246.08c8.75-.64,15.7-9.09,15.54-18.89-.16-9.8-7.37-17.28-16.13-16.7-8.79.58-15.81,9.05-15.64,18.91.17,9.86,7.44,17.32,16.22,16.68Z" fill="#c74444"/><path d="M1977.58,907.57c4.06,16.3,5.49,41.1,2.13,79.74l-36.19,16.89-.08.16c-2.2-1.07-7.13-2.33-12.59,3.8-1.07.33-2.13.71-3.18,1.09-25.03,8.97-33.11,6.54-33.11,6.54,0,0-.14-10.58.82-25.83,0-.02,0-.05,0-.07,3.67-36.91,9.79-68.74,20.13-88.44,5.41-9.44,12.22-16.59,20.77-19.76,3.8-.84,7.74-1.72,11.56-2.17,0,0,.02,0,.02,0,12.5-.41,19.85,6.12,24.12,12.99,2.15,4.01,4.05,8.94,5.58,15.07Z" fill="#c74444"/><polygon points="1947.35 1065.82 1958.01 1076.77 1949.66 1092.15 1926.54 1088.17 1933.11 1036.61 1945.74 1034.39 1947.35 1065.82" fill="#d9d9d9"/><path d="M1828.23,847.19l20.55,2.36,20.95,2.4,27.85,3.19,21.36,2.45,20.33,2.33c2.43.28,4.83.64,7.19,1.07,1.22.23,2.44.48,3.64.76-26.25-2.04-34.04,3.52-44.17,11.92-21.88,18.15-27.81,54.8-32.1,82.92-10.7,112.88-16.06,219.04-16.06,219.04,4.23,38.17-23.78,35.22-23.78,35.22,0,0-131.54-17.4-183.32-22.38-52.9-5.08-57.18-28.59-57.18-28.59,0,0,4.55-143.91,18.73-202.23,18.15-74.63,69.48-125.33,95.2-124.32l31.58,3.62,32.07,3.68,38.22,4.38,18.95,2.17Z" fill="#c74444"/><path d="M1944.66,1005.1l.72,23.3s-.07.11-.19.3c-1.09,1.7-6.7,9.67-13.05,5.77l-.05-1.08-1.22-25.24c5.46-6.13,10.39-4.87,12.59-3.8.78.38,1.21.73,1.21.73Z" fill="#c74444"/><path d="M1943.53,1004.2l36.19-16.89.03,25.61h-1.4l-32.1,15.89-1.07-.1c.13-.19.19-.3.19-.3l-.72-23.3s-.44-.36-1.21-.73l.08-.16Z" fill="#c74444"/><path d="M1945.74,1034.39l-12.62,2.21-6.57,51.57,23.11,3.98,8.35-15.38-10.66-10.95-1.62-31.43ZM1932.13,1034.48c6.35,3.9,11.96-4.08,13.05-5.77l1.07.1,32.1-15.89h1.4l.26,229.85s1.15,16.77-8.9,26.69c-2.08,2.06-4.65,3.82-7.81,5.07l-84.66,39.02s-21.84,4.97-49.72-.74l-34.55-5.57.09-.56-1.86-15.17v-.06s32.32,5.35,32.32,5.35c0,0,57.45,8.45,60.35-31.3.35-4.8,1.15-12.64,1.66-17.44,4.24-39.18,1.27-126.07,4.84-205.56l1.15.05s13.77.61,38.84-9.14l.33-.02.05,1.08Z" fill="#c74444"/><path d="M1927.67,1009.25c1.06-.38,2.11-.75,3.18-1.09l1.22,25.24-.33.02c-25.06,9.75-38.84,9.14-38.84,9.14l-1.15-.05c.81-18.12,1.97-35.85,3.62-52.55-.97,15.25-.82,25.83-.82,25.83,0,0,8.08,2.43,33.11-6.54Z" fill="#c74444"/><path d="M1852.92,817.61c-16.46,5.81-24.12,27.88-24.69,29.58l-18.95-2.17.17-1.52s13.69-34.79,45.3-37.68c2.39-.22,4.89-.26,7.5-.08,14.8,1,25.24,5.11,33.11,11.51,11.48,9.34,17.49,23.55,23.6,40.13l-.02.2-21.36-2.45.13-1.15s-4.48-14.83-14-25.91c-5.33-6.2-12.23-11.22-20.81-11.82-3.63-.26-6.95.26-9.97,1.34Z" fill="#c74444"/><path d="M1897.7,853.99l-.13,1.15-27.85-3.19v-.05s3.44-11.12,13.89-23.73l.09-.08c9.52,11.08,14,25.91,14,25.91Z" fill="#c74444"/><path d="M1854.62,804.53l.13,1.3c-31.61,2.89-45.3,37.68-45.3,37.68l-.17,1.52-38.22-4.38.19-1.65-11.83-32.71c-3.57-9.86,2.43-20.27,12.8-22.35,23.53-4.72,47.24-4.08,63.62-2.57,11.77,1.07,20.37,11.75,18.77,23.18Z" fill="#c74444"/><path d="M1852.92,817.61l-4.11,31.65-.03.29-20.55-2.36c.57-1.7,8.23-23.77,24.69-29.58Z" fill="#c74444"/><polygon points="1792.59 1291.51 1794.45 1306.68 1794.36 1307.24 1764.67 1302.46 1764.75 1301.92 1763.51 1287.65 1763.67 1286.66 1792.6 1291.45 1792.59 1291.51" fill="#c74444"/><path d="M1759.42,806.28l11.83,32.71-.19,1.65-32.07-3.68.05-.41c-.05.31,8.06-50.89,33.19-52.63-10.37,2.08-16.37,12.49-12.8,22.35Z" fill="#fff5f5"/><path d="M1763.51,1287.65l1.25,14.27-.09.54-123.16-19.85v-.04c-3.37-3.66-2.06-15.99-2.06-15.99l.08-.48,124.15,20.56-.17,1Z" fill="#c74444"/><path d="M1641.51,1282.57v.04s-16.73-2.7-16.73-2.7c-2.01-.32-3.97-.78-5.87-1.35-4.56-7.22-3.21-15.8-3.21-15.8l.19-.86c3.64.76,7.88,1.54,12.93,2.42l10.71,1.77-.08.48s-1.31,12.33,2.07,15.99Z" fill="#c74444"/><path d="M1615.89,1261.9l-.19.86s-1.36,8.58,3.21,15.8c-7.06-2.13-13.34-5.97-18.03-11.31-3.16-3.59-5.76-7.98-6.46-13.04l.29-.38c4.94,3.76,10.31,5.8,21.18,8.06Z" fill="#c74444"/><path d="M1641.54,1226.01c.16,9.8-6.79,18.25-15.54,18.89-8.78.64-16.06-6.82-16.22-16.68-.17-9.86,6.85-18.33,15.64-18.91,8.76-.58,15.97,6.9,16.13,16.7Z" fill="#d9d9d9"/><path d="M1796.2,1247.09c.1,9.48-7.04,17.73-15.97,18.44-8.97.71-16.35-6.43-16.46-15.97-.11-9.54,7.1-17.82,16.08-18.47,8.94-.64,16.25,6.52,16.35,16Z" fill="#d9d9d9"/><path d="M1943.53,1007.2c-1.13,0-2.21-.64-2.72-1.73-.7-1.5-.05-3.29,1.45-3.99l36.19-16.89c1.5-.7,3.29-.05,3.99,1.45.7,1.5.05,3.29-1.45,3.99l-36.19,16.89c-.41.19-.84.28-1.27.28Z" fill="#2b2b2b"/><path d="M1897.93,1019.08c-2.62,0-3.91-.33-4.24-.43-1.59-.48-2.49-2.15-2.01-3.74.47-1.56,2.1-2.46,3.67-2.03.29.06,8.4,1.73,31.3-6.47,1.09-.39,2.18-.78,3.3-1.13,1.58-.49,3.26.39,3.76,1.97.49,1.58-.39,3.26-1.97,3.76-1.02.32-2.03.68-3.04,1.04-16.43,5.88-25.9,7.02-30.78,7.02Z" fill="#2b2b2b"/><path d="M1946.25,1031.81c-1.1,0-2.17-.61-2.69-1.67-.74-1.48-.13-3.28,1.36-4.02l32.1-15.89c1.48-.73,3.28-.13,4.02,1.36.74,1.48.13,3.28-1.36,4.02l-32.1,15.89c-.43.21-.88.31-1.33.31Z" fill="#2b2b2b"/><path d="M1893.46,1045.56c-.39,0-.62,0-.68-.01-1.66-.07-2.94-1.48-2.86-3.13.07-1.65,1.43-2.94,3.12-2.86.17,0,13.63.4,37.62-8.94,1.55-.6,3.28.16,3.88,1.71.6,1.54-.16,3.28-1.71,3.88-22.57,8.78-36.23,9.35-39.38,9.35Z" fill="#2b2b2b"/><path d="M1918.96,860.39c-1.22,0-2.37-.75-2.82-1.96-5.87-15.93-11.62-29.85-22.67-38.83-7.86-6.4-18.14-9.95-31.42-10.85-2.37-.16-4.73-.14-7.02.07-29.43,2.69-42.65,35.46-42.78,35.79-.61,1.54-2.35,2.3-3.89,1.69-1.54-.61-2.3-2.35-1.69-3.89.59-1.49,14.75-36.54,47.82-39.57,2.6-.24,5.29-.27,7.98-.08,14.56.99,25.94,4.97,34.8,12.18,12.21,9.93,18.57,25.26,24.52,41.41.57,1.55-.22,3.28-1.78,3.85-.34.13-.69.19-1.04.19Z" fill="#2b2b2b"/><path d="M1897.7,856.99c-1.29,0-2.48-.84-2.87-2.13-.04-.14-4.43-14.38-13.4-24.82-5.75-6.68-12.06-10.31-18.74-10.78-3.03-.21-5.97.18-8.76,1.17-15.26,5.39-22.55,26.8-22.85,27.7-.52,1.57-2.23,2.47-3.8,1.95-1.57-.52-2.44-2.15-1.93-3.72l.05-.14c.85-2.54,8.84-25.2,26.53-31.44,3.56-1.27,7.33-1.77,11.19-1.5,8.34.59,16.04,4.91,22.87,12.86,9.82,11.43,14.41,26.37,14.6,27,.48,1.59-.42,3.26-2,3.74-.29.09-.58.13-.87.13Z" fill="#2b2b2b"/><path d="M1996.02,1258.56c-1.12,0-2.2-.63-2.71-1.71-.71-1.5-.08-3.29,1.42-4l23.9-11.38c18.9-9,29.12-28.24,36.63-45.88,66.4-155.95,7.15-300.01-12.59-340.45-.94-1.93-1.87-3.78-2.77-5.53-23.32-43.73-84.46-47.93-85.08-47.97-.14,0-.28-.03-.42-.05-25.79-5.23-46.83,9-57.07,17.94-.03.02-.06.05-.09.07-.06.05-.13.11-.18.14-1.33.98-3.21.69-4.19-.64-.96-1.3-.71-3.11.53-4.11,0,0,0,0,0,0,11.06-9.65,33.79-24.95,61.99-19.32,2.06.14,17.18,1.37,35.23,7.76,25.37,8.98,44.24,23.99,54.59,43.4.94,1.82,1.88,3.7,2.84,5.67,20.02,41.02,80.11,187.15,12.72,345.44-7.95,18.67-18.87,39.09-39.57,48.95l-23.9,11.38c-.42.2-.86.29-1.29.29Z" fill="#2b2b2b"/><path d="M1869.73,854.89c-.29,0-.59-.04-.89-.14-1.58-.49-2.46-2.17-1.98-3.75.15-.48,3.74-11.84,14.44-24.76,1.06-1.28,2.95-1.45,4.22-.4,1.28,1.06,1.45,2.95.4,4.22-9.89,11.94-13.29,22.6-13.33,22.7-.4,1.28-1.59,2.11-2.87,2.11Z" fill="#2b2b2b"/><path d="M1997.59,1166.29c-.65,0-1.3-.21-1.85-.64-1.31-1.02-1.54-2.91-.52-4.21,23.02-29.45,33.12-90.69,27-163.82-5.62-67.24-23.64-125.77-44.83-145.63-1.21-1.13-1.27-3.03-.14-4.24,1.13-1.21,3.03-1.27,4.24-.14,22.19,20.81,40.96,80.89,46.7,149.51,6.24,74.6-4.32,137.41-28.25,168.01-.59.76-1.47,1.15-2.37,1.15Z" fill="#2b2b2b"/><path d="M1946.69,862.84c-1.17,0-2.28-.69-2.77-1.84-.64-1.53.07-3.29,1.6-3.93.6-.25,14.82-6.21,33.03-10.82,23.2-5.88,53.97-9.68,68.77,5.56,1.15,1.19,1.13,3.09-.06,4.24-1.19,1.15-3.09,1.13-4.24-.06-12.8-13.19-41.32-9.42-62.99-3.93-17.78,4.5-32.03,10.47-32.18,10.53-.38.16-.77.24-1.16.24Z" fill="#2b2b2b"/><path d="M1771.25,841.99c-1.23,0-2.38-.76-2.82-1.98l-11.83-32.71c-1.98-5.47-1.5-11.47,1.31-16.46,2.86-5.08,7.86-8.67,13.72-9.85,24.13-4.84,48.39-4.1,64.49-2.62,6.49.59,12.54,3.87,16.6,8.98,4.02,5.07,5.75,11.32,4.87,17.6-.23,1.64-1.75,2.79-3.39,2.56-1.64-.23-2.79-1.74-2.56-3.39.65-4.64-.64-9.27-3.63-13.04-3.04-3.84-7.58-6.29-12.44-6.73-15.7-1.44-39.33-2.17-62.76,2.53-4.15.83-7.67,3.35-9.68,6.91-1.98,3.52-2.3,7.6-.9,11.48l11.83,32.71c.56,1.56-.24,3.28-1.8,3.84-.34.12-.68.18-1.02.18Z" fill="#2b2b2b"/><path d="M1848.81,852.26c-.13,0-.26,0-.39-.03-1.64-.21-2.8-1.72-2.59-3.36l4.14-31.82c.24-1.64,1.78-2.77,3.4-2.53,1.64.24,2.77,1.77,2.53,3.41l-.02.12-4.11,31.6c-.2,1.51-1.49,2.61-2.97,2.61Z" fill="#2b2b2b"/><path d="M1739.04,839.56c-.16,0-.31-.01-.47-.04l.47-2.96-2.96-.49c.89-5.45,9.48-53.31,35.94-55.14,1.65-.11,3.09,1.13,3.2,2.79s-1.13,3.09-2.79,3.2c-22.23,1.54-30.35,49.63-30.43,50.11-.24,1.47-1.52,2.52-2.96,2.52Z" fill="#2b2b2b"/><path d="M1764.75,1304.92c-1.54,0-2.85-1.18-2.98-2.74l-1.25-14.27c-.14-1.65,1.08-3.11,2.73-3.25,1.65-.14,3.11,1.08,3.25,2.73l1.25,14.27c.14,1.65-1.08,3.11-2.73,3.25-.09,0-.18.01-.27.01Z" fill="#2b2b2b"/><path d="M1794.45,1309.68c-1.49,0-2.79-1.11-2.97-2.63l-1.86-15.17c-.2-1.64.97-3.14,2.61-3.34,1.63-.2,3.14.97,3.34,2.61l1.86,15.17c.2,1.64-.97,3.14-2.61,3.34-.12.02-.25.02-.37.02Z" fill="#2b2b2b"/><path d="M1619.02,1281.74c-1.02,0-2.01-.52-2.57-1.45l-.11-.18c-5.07-8.03-3.66-17.42-3.6-17.82.26-1.64,1.8-2.75,3.43-2.5,1.63.26,2.75,1.79,2.5,3.42-.02.12-1.08,7.63,2.78,13.74l.14.23c.86,1.42.4,3.26-1.02,4.12-.48.29-1.02.43-1.55.43Z" fill="#2b2b2b"/><path d="M1641.51,1285.57c-.81,0-1.61-.32-2.21-.96-4.09-4.43-3.09-16.06-2.84-18.34.18-1.65,1.65-2.84,3.3-2.67,1.65.17,2.84,1.65,2.67,3.3-.56,5.31-.18,12.06,1.29,13.64,1.12,1.22,1.05,3.12-.17,4.24-.58.53-1.31.8-2.03.8Z" fill="#2b2b2b"/><path d="M1837.34,1300.57c-7.18,0-12.33-.73-12.86-.81l-196.15-32.48c-5.67-.99-9.69-1.75-13.05-2.45-11.4-2.37-17.04-4.55-22.38-8.61-.85-.64-1.68-1.33-2.54-2.09-12.59-11.15-14.1-25.62-14.24-27.32-8.83-59.23,5.26-192.75,11.73-247.44,3.39-28.64,12.11-55.76,25.93-80.59,21.32-38.3,45.55-54.87,62.12-62.02,18.22-7.86,31.3-6.47,31.86-6.41l231.85,26.57c2.49.29,4.98.66,7.4,1.1,1.41.27,2.64.53,3.78.79,32.08,7.32,49.47,29.27,48.94,61.81v.07c.02.52.05,1.04.06,1.56l1.05,321.32c.26,1.59.7,7.18-4.14,13.74-4.5,6.09-12.24,11.16-22.99,15.09-1.55.57-3.28-.23-3.85-1.79-.57-1.56.23-3.28,1.79-3.85,9.63-3.52,16.44-7.9,20.23-13.02,3.78-5.12,3.07-9.1,3.04-9.27-.05-.22-.06-.39-.07-.61l-1.05-321.51c-.01-.42-.04-.92-.06-1.41v-.15c0-.06,0-.12,0-.18.65-37.74-23.72-51.26-44.29-55.95-1.08-.25-2.23-.49-3.53-.74-2.27-.42-4.62-.77-6.98-1.04l-231.85-26.57c-.11-.01-12.34-1.24-29.18,6.12-15.61,6.83-38.49,22.65-58.87,59.26-13.44,24.14-21.92,50.51-25.21,78.37-6.45,54.48-20.49,187.49-11.74,245.95.01.09.02.17.03.26,0,.12,1.04,13.44,12.24,23.35.74.66,1.46,1.25,2.19,1.8,4.54,3.46,9.57,5.35,19.98,7.52,3.29.69,7.25,1.43,12.83,2.41l196.07,32.47c.25.04,30.73,4.31,46.96-8.72,5.96-4.79,9.3-11.47,9.91-19.84.4-5.58,1.38-14.83,1.67-17.54,2.24-20.72,2.45-54.94,2.7-94.57.21-34.49.46-73.59,2.13-110.8.88-19.66,2.07-36.9,3.63-52.71.16-1.65,1.64-2.85,3.28-2.69,1.65.16,2.85,1.63,2.69,3.28-1.55,15.7-2.74,32.84-3.61,52.39-1.67,37.09-1.91,76.13-2.12,110.57-.25,39.79-.46,74.16-2.73,95.18-.29,2.68-1.25,11.84-1.65,17.33-.74,10.11-4.83,18.22-12.15,24.1-11.17,8.96-27.47,10.76-38.76,10.76Z" fill="#2b2b2b"/><path d="M1895.39,992.88c-.1,0-.2,0-.3-.01-1.65-.16-2.85-1.63-2.69-3.28,4.17-41.96,10.86-71.25,20.46-89.54,5.41-10.31,11.9-17.2,19.27-20.47.19-.09.39-.15.6-.19.96-.2,1.93-.41,2.91-.63l.44-.1c3.73-.82,7.59-1.67,11.42-2.12,1.64-.19,3.14.99,3.33,2.63.19,1.65-.99,3.14-2.63,3.33-3.53.41-7.24,1.23-10.83,2.02l-.44.1c-.89.2-1.77.39-2.65.58-6,2.76-11.42,8.7-16.11,17.65-9.24,17.59-15.72,46.16-19.81,87.34-.15,1.55-1.46,2.7-2.98,2.7Z" fill="#2b2b2b"/><path d="M1856.32,1318.57c-7.96,0-17.52-.68-27.95-2.81l-204.07-32.89c-2.11-.34-4.22-.82-6.26-1.44-7.75-2.34-14.46-6.56-19.42-12.2-4.06-4.62-6.48-9.53-7.18-14.6-.23-1.64.92-3.16,2.56-3.39,1.64-.23,3.16.92,3.39,2.56.54,3.89,2.48,7.75,5.75,11.47,4.21,4.8,9.97,8.4,16.64,10.41,1.79.54,3.63.96,5.48,1.26l204.13,32.9s.08.01.12.02c25.17,5.15,45.54,1.35,48.17.81l84.35-38.88s.1-.04.15-.06c2.59-1.03,4.88-2.51,6.81-4.42,8.92-8.8,8.03-24.2,8.02-24.36,0-.06,0-.13,0-.2l-.29-255.46c0-.09,0-.18.01-.26,3.05-35.18,2.38-60.94-2.05-78.75-1.38-5.55-3.17-10.39-5.31-14.38-1.54-2.86-3.24-5.28-5.18-7.4-3.38-3.68-8.29-4.92-15.94-4.03-1.65.19-3.14-.98-3.33-2.63-.19-1.65.98-3.14,2.63-3.33,6.06-.71,14.83-.87,21.06,5.93,2.29,2.49,4.26,5.31,6.05,8.61,2.41,4.49,4.33,9.65,5.85,15.77,4.59,18.45,5.32,44.81,2.22,80.59l.29,255.24c.1,1.67.78,18.48-9.79,28.92-2.48,2.45-5.42,4.37-8.73,5.7l-84.58,38.99c-.19.09-.39.15-.59.2-.58.13-9.45,2.09-22.98,2.09Z" fill="#2b2b2b"/><path d="M1935.65,1038.55c-1.66,0-3.37-.46-5.09-1.51-.84-.52-1.38-1.42-1.43-2.41l-1.28-26.32c-.04-.79.23-1.55.76-2.14,6.94-7.79,13.6-5.74,16.15-4.5,1.01.49,1.63.97,1.8,1.11.67.55,1.07,1.36,1.1,2.23l.72,23.3c.02.55-.13,1.11-.4,1.59,0,0-.09.17-.28.45-2.73,4.24-7.16,8.2-12.04,8.2ZM1935.04,1032.44c3.16.57,6.19-3.28,7.31-4.89l-.64-20.68c-1.86-.74-4.57-.75-7.79,2.42l1.12,23.15Z" fill="#2b2b2b"/><path d="M1949.66,1095.15c-.17,0-.34-.01-.51-.04l-23.11-3.98c-1.58-.27-2.67-1.74-2.47-3.34l6.57-51.57c.17-1.3,1.16-2.35,2.46-2.58l12.62-2.21c.84-.15,1.72.07,2.39.61.67.54,1.08,1.33,1.13,2.19l1.56,30.31,9.87,10.14c.92.94,1.11,2.37.49,3.52l-8.35,15.38c-.53.98-1.55,1.57-2.64,1.57ZM1929.88,1085.7l18.16,3.12,6.27-11.55-9.11-9.36c-.51-.52-.81-1.21-.85-1.94l-1.44-28.05-7.11,1.25-5.92,46.53Z" fill="#2b2b2b"/><path d="M1835.34,1212.67c-.92,0-1.48-.06-1.54-.06l-2.03-.27c-.96-.13-1.63-1.01-1.51-1.96.13-.96,1.01-1.63,1.96-1.51l1.99.26s.37.04,1.13.04c5.03,0,17.07-1.7,20.31-17.44.19-.95,1.13-1.56,2.07-1.36.95.19,1.56,1.12,1.36,2.07-3.86,18.78-19.14,20.24-23.73,20.24ZM1820.05,1210.79c-.08,0-.15,0-.23-.01-8.66-1.13-20.79-2.71-34.79-4.5-.96-.12-1.64-1-1.51-1.96.12-.96.99-1.64,1.96-1.51,14,1.79,26.13,3.37,34.79,4.5.96.13,1.63,1,1.51,1.96-.12.88-.87,1.52-1.73,1.52ZM1773.33,1204.76c-.07,0-.15,0-.22-.01-11.03-1.4-22.84-2.89-34.77-4.37-.96-.12-1.64-.99-1.52-1.95.12-.96.99-1.64,1.95-1.52,11.93,1.48,23.75,2.97,34.78,4.38.96.12,1.64,1,1.52,1.96-.11.88-.87,1.53-1.73,1.53ZM1726.62,1198.91c-.07,0-.14,0-.21-.01-12.75-1.57-24.46-2.97-34.8-4.18-.96-.11-1.65-.98-1.54-1.94.11-.96.97-1.65,1.94-1.54,10.35,1.21,22.06,2.62,34.82,4.18.96.12,1.64.99,1.52,1.95-.11.89-.86,1.54-1.74,1.54ZM1679.87,1193.35c-.07,0-.13,0-.2-.01-11.76-1.34-21.58-2.38-29.17-3.11-1.94-.19-3.86-.4-5.7-.64-.96-.12-1.63-1-1.51-1.96.12-.96,1-1.63,1.96-1.51,1.81.23,3.69.45,5.59.63,7.62.73,17.45,1.78,29.23,3.12.96.11,1.65.98,1.54,1.94-.1.89-.86,1.55-1.74,1.55ZM1633.2,1187.59c-.12,0-.25-.01-.37-.04-14.05-3.04-24.95-7.92-32.39-14.5-.72-.64-.79-1.75-.15-2.47.64-.72,1.75-.79,2.47-.15,6.98,6.18,17.35,10.79,30.81,13.7.94.2,1.54,1.14,1.34,2.08-.18.82-.9,1.38-1.71,1.38ZM1858.13,1181.89c-.93,0-1.7-.73-1.75-1.67-.07-1.41-.19-2.89-.35-4.39-.01-.09-.01-.19,0-.28,0-.11.58-11.55,1.71-30.51.06-.96.88-1.7,1.85-1.64.96.06,1.7.89,1.64,1.85-1.06,17.82-1.64,28.98-1.71,30.34.17,1.53.29,3.03.35,4.47.05.97-.7,1.79-1.67,1.83-.03,0-.06,0-.08,0ZM1594.32,1164.07c-.67,0-1.31-.39-1.6-1.04-.64-1.44-.99-2.69-.99-3.13,0-.18.42-13.2,1.36-32.64.05-.97.85-1.71,1.83-1.66.96.05,1.71.87,1.66,1.83-.87,18.01-1.29,30.5-1.35,32.3.07.28.26.95.68,1.87.39.88,0,1.92-.89,2.31-.23.1-.47.15-.71.15ZM1860.21,1134.9s-.07,0-.11,0c-.96-.06-1.7-.89-1.64-1.85.72-11.62,1.48-23.39,2.26-34.97.07-.96.91-1.69,1.86-1.63.96.07,1.69.9,1.63,1.86-.78,11.57-1.54,23.33-2.26,34.95-.06.93-.83,1.64-1.75,1.64ZM1595.46,1117.08s-.06,0-.09,0c-.96-.05-1.71-.88-1.65-1.84.63-11.99,1.34-23.77,2.1-35.02.07-.96.89-1.69,1.86-1.63.96.06,1.69.9,1.63,1.86-.76,11.24-1.46,23-2.1,34.97-.05.93-.82,1.66-1.75,1.66ZM1863.29,1087.97s-.08,0-.12,0c-.96-.07-1.69-.9-1.62-1.87.81-11.71,1.67-23.47,2.53-34.94.07-.96.91-1.69,1.88-1.61.96.07,1.69.91,1.61,1.88-.87,11.47-1.72,23.22-2.53,34.92-.06.92-.83,1.63-1.74,1.63ZM1598.4,1070.09s-.09,0-.13,0c-.96-.07-1.69-.91-1.62-1.87.9-12.35,1.88-24.12,2.91-34.97.09-.96.93-1.67,1.91-1.58.96.09,1.67.94,1.58,1.91-1.02,10.83-2,22.57-2.9,34.9-.07.92-.83,1.62-1.74,1.62ZM1866.74,1041.06s-.09,0-.14,0c-.96-.07-1.68-.92-1.61-1.88.91-11.75,1.86-23.5,2.82-34.92.08-.96.93-1.68,1.89-1.6.96.08,1.68.93,1.6,1.89-.96,11.41-1.91,23.15-2.82,34.9-.07.92-.84,1.61-1.74,1.61ZM1602.49,1023.19c-.06,0-.12,0-.18,0-.96-.1-1.66-.96-1.56-1.92,1.35-12.96,2.8-24.69,4.32-34.86.14-.96,1.03-1.62,1.99-1.47.96.14,1.62,1.03,1.47,1.99-1.51,10.12-2.95,21.8-4.3,34.71-.09.9-.85,1.57-1.74,1.57ZM1870.58,994.19c-.05,0-.1,0-.15,0-.96-.08-1.68-.93-1.59-1.89,1.03-11.92,2.1-23.66,3.16-34.89.09-.96.92-1.67,1.91-1.58.96.09,1.67.94,1.58,1.91-1.06,11.22-2.12,22.95-3.16,34.86-.08.91-.84,1.6-1.74,1.6ZM1608.71,976.53c-.1,0-.2,0-.3-.03-.95-.17-1.59-1.07-1.42-2.03,1.13-6.47,2.32-12.27,3.53-17.23,1.38-5.7,3.01-11.42,4.82-17.01.3-.92,1.28-1.42,2.21-1.13.92.3,1.42,1.29,1.12,2.2-1.79,5.51-3.38,11.15-4.75,16.76-1.19,4.89-2.36,10.61-3.48,17-.15.85-.89,1.45-1.72,1.45ZM1875.54,947.44c-.09,0-.19,0-.29-.02-.95-.16-1.6-1.06-1.44-2.01,1.59-9.65,3.91-22.28,7.74-34.37.29-.92,1.27-1.43,2.2-1.14.92.29,1.43,1.28,1.14,2.2-3.76,11.88-6.05,24.35-7.63,33.89-.14.86-.88,1.47-1.72,1.47ZM1620.98,931.21c-.21,0-.42-.04-.62-.12-.9-.34-1.36-1.36-1.01-2.26,4.21-11.04,9.25-21.77,14.99-31.89.48-.84,1.54-1.14,2.38-.66.84.48,1.14,1.54.66,2.39-5.65,9.97-10.62,20.54-14.76,31.41-.27.7-.93,1.13-1.63,1.13ZM1887.36,902.05c-.23,0-.46-.04-.68-.14-.89-.38-1.3-1.41-.93-2.29,5.06-11.92,11.3-20.85,19.06-27.29.58-.48,1.16-.96,1.73-1.42.75-.61,1.85-.5,2.46.26.61.75.5,1.85-.25,2.46-.56.46-1.13.92-1.7,1.4-7.32,6.07-13.23,14.56-18.08,25.96-.28.67-.93,1.07-1.61,1.07ZM1642.05,889.28c-.32,0-.65-.09-.94-.28-.81-.52-1.05-1.6-.53-2.42,6.65-10.38,13.91-19.78,21.57-27.93.66-.7,1.77-.74,2.47-.08.7.66.74,1.77.08,2.47-7.51,7.99-14.63,17.22-21.17,27.42-.33.52-.9.81-1.48.81ZM1917.58,867.35c-.65,0-1.27-.36-1.57-.98-.43-.87-.07-1.92.8-2.34,6.28-3.08,13.46-4.45,23.27-4.45,3.08,0,6.5.14,10.15.43.57.04,1.16.09,1.76.14.96.08,1.72.94,1.64,1.9-.08.96-.89,1.68-1.85,1.6h-.1c-.58-.06-1.15-.11-1.71-.15-3.58-.28-6.9-.42-9.89-.42-9.26,0-15.96,1.26-21.74,4.09-.25.12-.51.18-.77.18ZM1671.99,853.2c-.48,0-.96-.2-1.3-.58-.65-.72-.59-1.82.13-2.47,11.04-9.94,21.63-16.17,30.64-18.01.95-.19,1.87.42,2.07,1.36.19.95-.42,1.87-1.36,2.06-8.28,1.69-18.58,7.79-29,17.18-.33.3-.75.45-1.17.45Z" fill="#2b2b2b"/><path d="M1625.27,1249.12c-4.3,0-8.4-1.61-11.67-4.59-4.04-3.69-6.41-9.18-6.51-15.07-.19-11.42,8.08-21.27,18.44-21.95,4.74-.31,9.3,1.32,12.87,4.6,4.01,3.7,6.37,9.18,6.46,15.04h0c.18,11.34-8.04,21.18-18.33,21.93-.42.03-.84.05-1.26.05ZM1626.66,1213.46c-.25,0-.49,0-.74.02-7.22.48-12.98,7.59-12.84,15.87.07,4.24,1.73,8.16,4.56,10.74,2.36,2.16,5.37,3.22,8.45,2.99,7.17-.52,12.89-7.63,12.76-15.85h0c-.07-4.23-1.72-8.14-4.53-10.73-2.15-1.98-4.85-3.05-7.67-3.05Z" fill="#2b2b2b"/><path d="M1779.31,1269.75c-4.47,0-8.69-1.63-12.01-4.67-3.89-3.55-6.15-8.77-6.21-14.32-.13-11.09,8.33-20.73,18.86-21.49,5-.36,9.74,1.3,13.4,4.67,3.86,3.56,6.11,8.77,6.16,14.3.12,11-8.29,20.63-18.74,21.46-.49.04-.98.06-1.47.06ZM1781.27,1235.22c-.3,0-.59.01-.89.03-7.43.54-13.39,7.47-13.3,15.44.04,3.96,1.56,7.49,4.26,9.96,2.45,2.24,5.64,3.32,8.96,3.06,7.37-.59,13.3-7.5,13.21-15.42h0c-.04-3.94-1.54-7.47-4.23-9.95-2.21-2.04-5.03-3.13-8.01-3.13Z" fill="#2b2b2b"/><path d="M1865.44,1316.27c-1.66,0-3-1.34-3-3v-19.97c0-1.66,1.34-3,3-3s3,1.34,3,3v19.97c0,1.66-1.34,3-3,3Z" fill="#2b2b2b"/><path d="M1894.56,1018.78c-1.64,0-2.98-1.32-3-2.96,0-.11-.13-10.87.83-26.06h0s0-.06,0-.1c1.75-27.66,6.74-65.67,20.52-89.72,6.19-10.8,13.71-17.89,22.33-21.08,1.25-.47,2.56-.86,3.88-1.17,2.92-.69,5.77-1.08,8.47-1.18.09,0,.18-.01.27-.01,11.37-.37,20.58,4.61,26.67,14.41,4.55,7.33,5.82,15.02,5.99,16.13.03.18.05.36.05.54,0,1.66-1.34,3-3,3-1.38,0-2.54-.93-2.89-2.19-.04-.14-.07-.28-.09-.42,0-.07-1.01-7.21-5.16-13.89-4.93-7.94-12.1-11.83-21.33-11.58-.06,0-.11,0-.17.01-2.35.07-4.86.42-7.46,1.03-1.08.25-2.13.56-3.14.94-7.29,2.7-13.75,8.9-19.23,18.44-13.22,23.05-18.03,60.11-19.74,87.14,0,.03,0,.06,0,.09-.95,14.93-.82,25.48-.82,25.58.02,1.66-1.3,3.02-2.96,3.04-.01,0-.03,0-.04,0Z" fill="#2b2b2b"/><path d="M1535.36,889.98c.52,2.9.17,5.76-.9,8.33-1.4,3.4-4.05,6.3-7.52,8.08l-.12-.23s-5.94-65.42-39.14-153.05l-.06-1.12c1.23-.08,2.36-.11,3.37-.08,5.08.14,9.5,3.37,11.07,8.03,19.08,56.69,29.82,110.39,33.31,130.04Z" fill="#f4f4f4"/><path d="M1526.82,906.16l.12.23-.04.02c-.77.4-1.58.73-2.43,1.01-.11.04-.22.08-.34.11-.31.1-.63.2-.93.3-7.81,2.66-24.67,4.34-30.6-1.92-6.97-7.36-8.86-22.73-13.62-30.21-3.66-5.74-12.68-15.56-19.59-22.05-1.04-.97-2.02-1.86-2.94-2.66-1.36-1.19-1.07-3.33.58-4.12.56-.27,1.09-.59,1.59-.96,9.54-7.05,9.41-32.51-11.63-70.66-.4-.71-.68-1.45-.86-2.2-.06-.25-.11-.5-.15-.75-.61-3.97,1.58-8.04,5.62-9.76,17.33-7.35,28.6-10.02,35.89-10.53.04,0,.07,0,.11,0l.06,1.12c33.2,87.63,39.14,153.05,39.14,153.05Z" fill="#ffac73"/><path d="M1447.01,775.23c21.04,38.15,21.17,63.62,11.63,70.66l-.32-.41c-3.33-3.01-8.83-5.1-12.66-4.71-15.91,1.61-41.43,6.76-67.99,12.79l-.25-1.03s6.08-37.08-13.69-64.18c1.19-.12,2.42-.22,3.69-.32,23.36-1.83,40.19,6.52,64.82-6.98,3.23-1.77,11.34-4.83,12.89-7.87l1.03-.15c.18.75.47,1.48.86,2.2Z" fill="#fff"/><path d="M1359.94,448.75l83.93,91.94-49.87,30.14-69.05-81.39-22.17-13.01-.28-.24c3.39-4.1,6.7-8.28,9.8-12.46,8.88-11.94,16.11-23.73,19.08-32.8l.26.09,16.34,8.11c4.71,2.58,8.77,5.84,11.97,9.6Z" fill="#f9e2cd"/><path d="M1377.4,852.53l.25,1.03c-.43.09-.86.19-1.29.29-49.81,11.37-92.43,11.01-109.47-6.76-4.01-4.18-9.1-8.95-13.41-18.54,24.77-6.2,58.6-17.56,87.46-37.42l.53.77s8.64-2.24,22.23-3.55c19.77,27.1,13.69,64.18,13.69,64.18Z" fill="#f9e2cd"/><path d="M1253.5,828.56c-18.84,4.72-32.45,6.45-34.66,6.67-7.3-17.25-11.82-28.3-18.44-42.73l-.14-.11,8.73-11.62c9.92-13.19,22.59-24.14,37.33-31.56,16.45-8.28,50.98-46.69,57.04-89.02,33.3,63.94,62.04,110.49,62.04,110.49-7.44,7.66-15.71,14.45-24.44,20.45-28.86,19.86-62.69,31.22-87.46,37.42Z" fill="#2e4fa2"/><path d="M1228.84,366.12c45.01,19.63,103.9,58.79,103.9,58.79-.18,1.84-.66,3.86-1.37,6.04-2.97,9.07-10.2,20.86-19.08,32.8-3.1,4.17-6.4,8.36-9.8,12.46-3.99,4.83-8.12,9.54-12.19,13.94-5.13,5.55-10.18,10.62-14.76,14.84l.08.09c6.73,17.86,12.98,26.45,16.21,32.66,8.24,15.87,15.87,57.92-.73,66.92-1.14.61-2.54,1.28-4.17,1.98-28.37,12.25-128.08,36.74-186.11,31.58-2.32-.21-4.57-.46-6.74-.76-7.68-1.07-14.56-5.39-18.77-11.91-15.83-24.51-6.62-33.41-.87-53.96,3.08-11.02,3.5-22.58,1.53-33.85-1.49-8.54-2.6-17.05-3.39-25.4l-.31.03-12.88,16.87c-6.69-1.42-20.44-9.37-35.25-19.96-9.01-6.44-18.42-13.86-26.87-21.39-8.74-7.78-16.46-15.67-21.66-22.71-3.02-4.08-5.19-7.87-6.23-11.19,0,0,97.25-98.1,131.3-101.22l1.31,1.38s-10.63,14.3.34,13.32c2.3-.2,4.5-1.01,6.46-2.24,8.79-5.53,43.44-26.23,77.79-31.68,1.66-.27,3.33-.32,4.98-.17,1.32.11,2.61.36,3.87.73.7.2,1.38.44,2.05.73,8.05,3.35,19.17,10.66,31.64,30.69l-.27.61Z" fill="#fff"/><path d="M1303.36,660.2c-6.07,42.32-40.59,80.73-57.04,89.02-14.73,7.42-27.41,18.37-37.33,31.56l-8.73,11.62-59.04,78.59s-23.36-11.99-51.34-30.89c-18.67-12.62-39.41-28.31-56.64-45.57-2.26-2.26-4.46-4.56-6.59-6.87-9.37-10.19-17.33-20.84-22.79-31.66l2.33-2.6,89.79-99.89,4.86-15.29c58.03,5.16,157.75-19.33,186.11-31.58,1.63-.7,3.03-1.37,4.17-1.98,12.11,17.8,14.9,37.05,12.24,55.55Z" fill="#2e4fa2"/><path d="M1246.07,130.37c5.32-5.41,10.48-11.76,15.16-19.33,0,0,10.51,26.86,1.73,50.38,0,0,69.51-19.83,83.48,16.23,0,0-28.19,1.17-30.75,11.59,0,0,23.25,49.08,24.54,76.9,0,0-51.93-27.73-57.17-21.95,0,0,13.68,48.3,5.43,56.66,0,0-35.15-11.44-64.42-49.11-6.83-8.8-13.34-19.02-19.01-30.86-.96-2.01-1.89-4.05-2.81-6.15-4.43-10.23-6.34-21.41-5.28-32.51.05-.49.1-.96.15-1.43.97-8.42,4.87-16.13,10.83-21.92,2.17-2.11,4.6-3.97,7.26-5.51,9.41-5.43,20.46-12.42,30.86-22.98Z" fill="#222"/><path d="M1202.25,214.73c.91,2.1,1.85,4.15,2.81,6.15-37.54-36.49-6.28-57.1,2.89-62.03-5.96,5.79-9.85,13.5-10.83,21.92-.05.47-.1.94-.15,1.43-1.06,11.1.86,22.28,5.28,32.51Z" fill="#ffce76"/><path d="M1185.3,303.02h.55c.27,15.04,9.72,30.54,9.72,30.54l-.17.54c-1.26-.37-2.56-.62-3.87-.73-1.65-.15-3.32-.09-4.98.17-34.35,5.45-69,26.15-77.79,31.68-1.95,1.23-4.15,2.04-6.46,2.24-10.97.98-.34-13.32-.34-13.32l.83-.02c-.44-3.62-1.98-8.46-6-14.39l-.12-.32c-8.15,3.04-17.58,5.24-28.46,6.07-11.14,1.17-20.52-.71-28.32-4.41l.19-.42s51.13-10.22,41.25-65.4l-72.85,23.09c-1.04-6.07-4.36-11.5-9.3-15.16l-13.7-12.35c12.12-10.97,19.79-26.09,15.36-37.68-1.39-3.63-7.15-11.97-8.24-18.32l.07-.09c3.26,2.6,6.81,5.22,10.69,7.83,0,0-10.62-49.56-.58-67.64,0,0,15.32,19.36,38.3,34.44,18.43,12.1,41.8,21.46,66.13,15.83,13.85,17.05,24.7,33.07,25.83,42.49,0,0,8.68-22.59,8.2-49.47h.73s12.22-7.99,23.51-6.63c9.92,1.19,19.13,9.6,18.73,36.93-.15,10.19-2.53,20.21-6.95,29.36-.39.81-.8,1.62-1.23,2.41-3.85,7.23-9.25,15.46-15.85,21.03h.7s13.03,6.07,24.42,21.67ZM1068.05,259.59c1.6-.46,2.68-1.83,2.61-3.33-.46-10.34-3.4-48.88-21.79-46.25-18.6,2.67-8.46,41.05-5.52,50.49.41,1.32,2.29,2.15,3.81,2.21,7.72.31,16.55-1.88,20.88-3.13Z" fill="#f9e2cd"/><path d="M1191.32,286c-4.16,4.89-5.56,10.91-5.46,17.01h-.55c-11.39-15.6-24.42-21.67-24.42-21.67h-.7c6.6-5.57,12-13.8,15.85-21.03.43-.8.84-1.6,1.23-2.41,4.42-9.15,6.8-19.17,6.95-29.36.4-27.34-8.81-35.74-18.73-36.93-11.29-1.36-23.51,6.62-23.51,6.62h-.73c.48,26.88-8.2,49.47-8.2,49.47-1.13-9.42-11.98-25.44-25.83-42.49-24.32,5.62-47.69-3.73-66.13-15.83-22.98-15.09-38.3-34.44-38.3-34.44-10.04,18.08.58,67.64.58,67.64-3.88-2.61-7.43-5.23-10.69-7.83-64.49-51.49-12.62-99.01-12.62-99.01,0,0,6.7-45.53,87.71-67.21,103.35-27.65,150.23,7.94,178.3,81.85-10.4,10.57-21.46,17.55-30.86,22.98-2.67,1.54-5.1,3.4-7.26,5.51-9.18,4.92-40.43,25.53-2.89,62.03,5.67,11.84,12.18,22.06,19.01,30.86l-.15.12c-12.88,14.23-24.58,24.73-32.6,34.14Z" fill="#222"/><path d="M1081.35,275.25c9.87,55.18-41.25,65.4-41.25,65.4l-.19.42c-15.72-7.44-24.98-22.24-29.17-34.3l.68-.23s33.6-4.38,69.94-31.29Z" fill="#e57373"/><path d="M1008.5,298.34l72.85-23.09c-36.34,26.9-69.94,31.29-69.94,31.29l-.68.23c-1.06-3.04-1.79-5.9-2.23-8.43Z" fill="#fff"/><path d="M1070.67,256.25c.06,1.5-1.01,2.87-2.61,3.33-4.33,1.25-13.17,3.43-20.88,3.13-1.52-.06-3.4-.89-3.81-2.21-2.94-9.45-13.08-47.83,5.52-50.49,18.39-2.64,21.33,35.91,21.79,46.25Z"/><path d="M964.16,876.1c33.89-38.37,68.6-81.1,68.6-81.1l.47-.47c17.23,17.26,37.97,32.95,56.64,45.57l-12.26,11.93c-19.92,31.63-41.87,50.04-63.31,67.84l-.55-.67c-33.13-11.15-49.65-41.38-49.65-41.38l-.81-.73c.3-.33.58-.65.87-.98Z" fill="#f9e2cd"/><path d="M997.26,487.88c8.45,7.53,17.86,14.95,26.87,21.39,0,0-17.48,20.31-61.18,25.21-24.27,2.71-69.84-12.81-89.94-29.77-20.09-16.97,21.16-39.29,21.16-39.29l66.19,13.09,14.91-13.09.32-.25c5.2,7.04,12.92,14.94,21.66,22.71Z" fill="#f9e2cd"/><path d="M964.1,877.81s16.52,30.22,49.65,41.38l.55.67c-18.03,14.96-35.71,29.5-51.54,51.11-2.18,2.97-6.48,10.48-6,13.86l-1.23.05c-.59-.53-1.26-.99-2.01-1.36-40.03-20.23-55.38-41.76-51.81-53.23l.51.17c4.52.63,10.27-.76,13.17-3.3,12.04-10.54,29.81-29.62,47.89-50.06h0s.81.73.81.73Z" fill="#fff"/><path d="M956.1,985.43c2.87,3.02,3.53,7.74,1.25,11.53-9.75,16.23-17.36,24.98-23.01,29.63l-.8-.85c-79.59-55.19-123.61-107.25-123.61-107.25l-.24-.12s.01-.03.02-.04c.4-.78.86-1.53,1.39-2.26.06-.09.14-.19.21-.29.2-.26.4-.53.58-.78,4.79-6.76,17.55-17.9,26.15-16.01,10.1,2.22,20.84,14.17,29.21,17.77,6.43,2.76,19.66,5.88,29.2,7.4,1.42.22,2.77.42,3.99.57,1.83.22,2.87,2.2,1.99,3.83-.29.55-.53,1.13-.72,1.73-3.57,11.47,11.78,33,51.81,53.23.75.38,1.42.84,2.01,1.36.2.18.39.36.57.55Z" fill="#ffac73"/><path d="M933.53,1025.74l.8.85c-.99.81-1.92,1.5-2.79,2.08-4.24,2.8-9.78,2.61-13.84-.43-49.54-37.08-90.46-76.44-105.07-91.1-2.15-2.16-3.58-4.79-4.25-7.58-.89-3.7-.47-7.67,1.3-11.18l.24.12s44.02,52.06,123.61,107.25Z" fill="#f4f4f4"/><path d="M840.65,476.02c6.67,10.25-6.45,17.51-6.45,17.51-18.35,1.41-22.94-9.67-22.94-9.67-4.29-8.21,1.3-19.2,1.3-19.2,0,0,12.15,12.35,26.16,10.36.2-.03.39-.06.59-.1l1.33,1.09Z" fill="#f9e2cd"/><path d="M846.06,460.86s6.5,11.82-6.74,14.07c-.19.04-.39.07-.59.1-14.02,2-26.16-10.36-26.16-10.36-5.96-13.92,5.53-21.3,5.53-21.3,0,0,15.54,20.06,24.04,18.29,1.46-.3,2.65-.62,3.62-.93l.3.14Z" fill="#f9e2cd"/><path d="M851.18,456c-1.06,1.61-.85,3.23-5.42,4.73-.97.32-2.16.63-3.62.93-8.5,1.77-24.04-18.29-24.04-18.29-4.82-17.04,14.36-17.39,14.36-17.39,0,0,6.58,8.78,14.13,13.78l.78.47c-1.32,2.56-1.69,5.76-.22,9.73,1.11,3.01,2.51,4.91,4.04,6.04Z" fill="#f9e2cd"/><path d="M876.04,432.41l-.05.38-12.64-1.53c-1.23-.15-2.47-.04-3.65.32-3.27.99-9.71,3.54-12.34,8.64l-.78-.47c-7.55-5-14.13-13.78-14.13-13.78.63-2.03-.66-13.47,14.98-13.1,15.64.37,28.6,19.54,28.6,19.54Z" fill="#f9e2cd"/><path d="M851.18,456c-1.53-1.13-2.93-3.04-4.04-6.04-1.47-3.98-1.1-7.18.22-9.73,2.64-5.11,9.07-7.65,12.34-8.64,1.19-.36,2.42-.47,3.65-.32l12.64,1.53.99.12c2.3.76,4.36,1.78,5.88,3.67,4.79,5.97,11.87,13.07,12.44,23.15,0,0,2.17,34.21-22.02,42.75-24.18,8.55-39.08-8.95-39.08-8.95,0,0,13.12-7.26,6.45-17.51l-1.33-1.09c13.24-2.25,6.74-14.07,6.74-14.07l-.3-.14c4.57-1.5,4.36-3.11,5.42-4.73Z" fill="#f9e2cd"/><path d="M1425.5,611.73l-1.58,1.16c-6.26-.15-15.91,2.03-24.28-6.87-14.77-15.72-2.3-42.12-2.3-42.12,0,0,1.74-24.56,40.96-26.07,0,0,55.16,18.81,35.83,51.96h-.47c.15,5.58-1.33,12.04-8.04,14.93l-1.39.05.08,2.24s-1.58,10.95-12.21,10.07c-5.99,12.19-23.03-.49-23.03-.49l-3.56-4.86Z" fill="#f9e2cd"/><path d="M1060.16,197.44c-.5,0-1-.22-1.35-.63-5.78-6.96-11.32-9.03-16.46-6.15l-.12.07s-.1.05-.14.08l-.08.05c-3.38,2.04-5.38,5.5-5.4,5.53-.48.84-1.55,1.13-2.39.65-.84-.48-1.13-1.54-.66-2.38.1-.17,2.44-4.25,6.59-6.78.11-.07.21-.13.32-.2l.11-.06c4.75-2.66,12.19-3.59,20.92,6.93.62.74.51,1.85-.23,2.46-.33.27-.72.4-1.12.4Z" fill="#2b2b2b"/><path d="M1118,641.92c-6.12,0-11.95-.23-17.44-.71-2.36-.21-4.68-.47-6.89-.78-8.61-1.2-16.21-6.03-20.88-13.25-13.48-20.88-9.65-31.74-4.8-45.5,1.2-3.4,2.44-6.91,3.55-10.9,2.88-10.3,3.38-21.54,1.46-32.52-1.44-8.27-2.6-16.89-3.42-25.64-3.4-35.71-1.12-68.48,1.38-89.69,1.57-13.29,3.13-21.22,3.19-21.55.32-1.62,1.9-2.68,3.53-2.36,1.62.32,2.68,1.9,2.36,3.53-.02.08-1.59,8.06-3.12,21.09-2.47,20.92-4.71,53.24-1.37,88.42.81,8.59,1.95,17.06,3.36,25.17,2.08,11.86,1.52,24.02-1.59,35.17-1.17,4.18-2.5,7.95-3.67,11.28-4.64,13.15-7.7,21.85,4.18,40.25,3.72,5.75,9.79,9.6,16.67,10.56,2.11.29,4.33.54,6.6.74,5.39.48,11.13.7,17.14.7,58.49,0,142.11-21.08,167.51-32.05,1.54-.66,2.86-1.29,3.94-1.87,13.72-7.43,8.13-46.23-.51-62.89-.77-1.48-1.73-3.13-2.85-5.05-3.52-6.03-8.35-14.28-13.5-27.94-.58-1.55.2-3.28,1.75-3.87,1.55-.58,3.28.2,3.87,1.75,4.97,13.19,9.65,21.19,13.06,27.03,1.16,1.99,2.16,3.7,3,5.31,8.65,16.66,16.87,60.74-1.96,70.94-1.24.67-2.72,1.37-4.42,2.1-25.78,11.13-110.7,32.53-170.12,32.53Z" fill="#2b2b2b"/><path d="M1059.39,532.23c-.21,0-.42-.02-.62-.07-6.91-1.47-20.51-9.11-36.37-20.45-9.58-6.85-18.96-14.32-27.12-21.59-9.6-8.55-17.03-16.34-22.08-23.17-3.33-4.5-5.58-8.57-6.68-12.07-.33-1.06-.05-2.22.73-3.01,4-4.04,98.42-98.91,133.15-102.09.91-.08,1.82.26,2.45.92l1.31,1.38c1,1.06,1.1,2.68.23,3.85-2.33,3.14-4.21,7.12-4.04,8.48.22.06.73.15,1.71.07,1.73-.15,3.5-.77,5.13-1.79,9.76-6.14,44.3-26.61,78.91-32.11,1.88-.3,3.81-.37,5.72-.2,1.48.13,2.98.41,4.45.84.79.23,1.59.51,2.37.84,11.97,4.98,22.77,15.41,33.02,31.86.88,1.41.45,3.26-.96,4.13-1.41.88-3.26.45-4.13-.96-9.57-15.36-19.46-25.01-30.25-29.5-.57-.24-1.15-.45-1.73-.61-1.1-.32-2.2-.53-3.3-.63-1.43-.13-2.86-.08-4.25.14-33.49,5.32-67.15,25.27-76.66,31.26-2.43,1.53-5.13,2.46-7.79,2.69-4.55.41-6.57-1.4-7.46-3-1.76-3.14-.16-7.51,1.75-10.95-33.39,8.92-112.71,86.98-124.02,98.24,1.05,2.51,2.78,5.41,5.17,8.64,4.73,6.4,12.08,14.1,21.24,22.26,8,7.13,17.21,14.46,26.62,21.19,13.45,9.61,25.75,16.8,32.35,18.97l11.66-15.26c1.01-1.32,2.89-1.57,4.21-.56,1.32,1.01,1.57,2.89.56,4.21l-12.88,16.87c-.57.75-1.46,1.18-2.38,1.18ZM1100.2,364.35h0Z" fill="#2b2b2b"/><path d="M1141.21,873.98c-.46,0-.93-.11-1.37-.33-.24-.12-23.84-12.29-51.65-31.07-22.9-15.48-42.11-30.93-57.09-45.93-2.31-2.3-4.55-4.65-6.67-6.97-10.2-11.1-18.03-21.98-23.26-32.33-.56-1.1-.38-2.43.44-3.35l2.33-2.6,89.36-99.41,4.72-14.86c.5-1.58,2.2-2.45,3.77-1.94,1.58.51,2.45,2.19,1.94,3.77l-4.91,15.47c-.13.41-.34.78-.63,1.1l-90.74,100.94c4.96,9.33,12.15,19.13,21.38,29.17,2.07,2.26,4.25,4.54,6.5,6.78,14.71,14.73,33.62,29.94,56.2,45.2,22.57,15.24,42.32,26.07,48.79,29.53l66.24-88.17c10.39-13.81,23.66-25.02,38.38-32.44,15.73-7.92,49.54-45.72,55.42-86.76,2.84-19.81-1.11-37.78-11.75-53.43-.93-1.37-.58-3.24.79-4.17s3.24-.58,4.17.79c11.51,16.93,15.8,36.33,12.73,57.66-6.26,43.68-41.52,82.64-58.67,91.27-13.9,7-26.45,17.61-36.28,30.68l-67.77,90.21c-.58.78-1.48,1.2-2.4,1.2Z" fill="#2b2b2b"/><path d="M1136.17,850.25c-.27,0-.54-.06-.79-.19-72.5-36.88-113.12-93.25-113.52-93.81-.56-.79-.38-1.88.41-2.44.79-.56,1.88-.38,2.44.41.4.56,40.56,56.25,112.26,92.72.86.44,1.21,1.49.77,2.35-.31.61-.92.96-1.56.96Z" fill="#2b2b2b"/><path d="M1259.83,519.83c-.74,0-1.46-.27-2.02-.78l-89.88-82.08c-1.22-1.12-1.31-3.01-.19-4.24s3.01-1.31,4.24-.19l88.35,80.68c3.24-1.87,7.83-5.5,13.2-10.44,4.5-4.14,9.55-9.21,14.59-14.67,4.15-4.49,8.21-9.14,12.08-13.81,3.46-4.17,6.72-8.32,9.7-12.33,9.56-12.85,16-23.9,18.63-31.95.43-1.31.75-2.53.97-3.66-9.69-6.35-61.69-39.98-101.86-57.49-18.1-7.9-31.2-11.45-38.98-10.57-1.65.19-3.13-1-3.32-2.64-.19-1.65,1-3.13,2.64-3.32,8.96-1.02,22.71,2.6,42.05,11.04,44.73,19.51,103.78,58.64,104.37,59.04.92.62,1.43,1.69,1.32,2.8-.2,2.02-.69,4.2-1.5,6.68-3.58,10.94-12.59,24.34-19.52,33.66-3.04,4.1-6.37,8.33-9.89,12.58-3.93,4.75-8.07,9.48-12.29,14.06-5.16,5.57-10.32,10.76-14.94,15.01-4.85,4.47-11.66,10.24-16.54,12.39-.39.17-.8.25-1.21.25Z" fill="#2b2b2b"/><path d="M1260.37,495.38c-.5,0-.99-.21-1.34-.62-.62-.74-.53-1.84.2-2.47,30.48-25.84,54.17-66,54.41-66.41.49-.83,1.56-1.12,2.39-.63.83.49,1.11,1.56.63,2.39-.24.41-24.22,41.08-55.16,67.31-.33.28-.73.42-1.13.42Z" fill="#2b2b2b"/><path d="M1218.83,838.23c-1.2,0-2.29-.71-2.76-1.83-1.44-3.39-2.76-6.54-4.02-9.53-5.08-12.05-9.08-21.57-14.38-33.12-.69-1.51-.03-3.29,1.48-3.98,1.5-.69,3.29-.03,3.98,1.48,5.34,11.64,9.37,21.19,14.46,33.29,1,2.36,2.04,4.83,3.14,7.44,5.34-.71,17.35-2.65,32.05-6.33,23.47-5.87,57.53-17.05,86.49-36.98,8.3-5.71,15.81-11.9,22.36-18.42-5.86-9.62-31.79-52.75-60.92-108.67l-.08-.15c-.74-1.48-.13-3.28,1.35-4.02,1.48-.74,3.28-.13,4.02,1.35l.05.1c32.84,63.05,61.62,109.78,61.9,110.25.72,1.17.56,2.68-.4,3.67-7.19,7.41-15.57,14.42-24.89,20.84-29.69,20.44-64.48,31.87-88.43,37.86-21.01,5.26-34.96,6.73-35.09,6.74-.1,0-.2.01-.3.01Z" fill="#2b2b2b"/><path d="M904.53,933.61c-.92,0-1.84-.06-2.73-.18-1.64-.23-2.79-1.75-2.56-3.39.23-1.64,1.75-2.78,3.39-2.56,3.72.52,8.56-.64,10.78-2.59,10.52-9.21,26.54-25.96,47.62-49.79.01-.02.03-.03.04-.05l.84-.95c33.45-37.87,68.16-80.57,68.51-81,1.05-1.29,2.93-1.48,4.22-.44,1.29,1.04,1.48,2.93.44,4.22-.35.43-35.14,43.22-68.68,81.2l-.88.99s-.02.02-.03.03c-21.23,24-37.42,40.92-48.13,50.29-2.96,2.59-8.04,4.2-12.83,4.2Z" fill="#2b2b2b"/><path d="M1013.74,920.94c-.18,0-.37-.03-.56-.09-33.39-11.24-49.93-40.94-50.62-42.2-.46-.85-.15-1.91.7-2.37.85-.47,1.91-.15,2.38.69.16.3,16.61,29.77,48.67,40.56.92.31,1.41,1.3,1.1,2.22-.25.73-.93,1.19-1.66,1.19Z" fill="#2b2b2b"/><path d="M956.75,987.83c-1.47,0-2.75-1.08-2.97-2.58-.81-5.74,6.48-15.96,6.56-16.06,15.8-21.56,32.99-35.83,51.2-50.94l.84-.7c21.02-17.45,42.76-35.49,62.69-67.13.13-.2.28-.39.45-.55l12.26-11.93c1.18-1.15,3.1-1.16,4.26,0,1.16,1.17,1.19,3.02.03,4.19-.01.01-.09.09-.1.1l-12.01,11.68c-20.39,32.27-43.42,51.38-63.74,68.24l-.84.7c-17.91,14.86-34.83,28.91-50.19,49.87-2.84,3.86-5.69,9.97-5.45,11.67.23,1.64-.91,3.16-2.55,3.39-.14.02-.28.03-.42.03Z" fill="#2b2b2b"/><path d="M924.94,1033.64c-3.19,0-6.37-1.01-9.04-3.01-52.29-39.14-93.89-79.84-105.39-91.38-2.48-2.48-4.22-5.59-5.04-9-1.07-4.43-.53-9.1,1.51-13.18.02-.04.04-.08.06-.12h0c.5-.97,1.03-1.84,1.63-2.66.03-.05.13-.19.23-.33.2-.26.38-.5.55-.74,5.04-7.1,18.81-19.47,29.23-17.18,6.54,1.44,12.84,6.2,18.94,10.8,3.95,2.98,7.67,5.79,10.81,7.14,6.16,2.65,19.32,5.74,28.49,7.19,1.51.24,2.78.42,3.88.55,1.84.22,3.46,1.33,4.31,2.98.86,1.65.84,3.61-.03,5.24-.2.37-.37.79-.5,1.21-2.62,8.42,8.61,28.59,50.3,49.67.96.49,1.86,1.09,2.65,1.8.25.22.49.46.73.7,3.9,4.1,4.58,10.33,1.66,15.17-8.62,14.35-16.59,24.58-23.68,30.4h0c-1.04.86-2.06,1.62-3.02,2.26-2.5,1.66-5.39,2.48-8.26,2.48ZM812.4,919.64s-.02.05-.03.07c-1.43,2.83-1.8,6.07-1.06,9.14.56,2.33,1.76,4.46,3.46,6.17,11.43,11.47,52.77,51.92,104.74,90.82,3.05,2.29,7.23,2.42,10.39.33.79-.53,1.65-1.17,2.54-1.89,6.56-5.39,14.07-15.1,22.34-28.85,1.52-2.53,1.18-5.79-.85-7.92-.11-.11-.24-.24-.39-.37-.41-.37-.87-.68-1.38-.93-42.38-21.43-57.32-43.97-53.32-56.8.19-.6.42-1.19.69-1.76-1.04-.13-2.21-.3-3.56-.51-9.4-1.49-23.08-4.67-29.92-7.61-3.81-1.64-7.82-4.66-12.06-7.87-5.58-4.21-11.34-8.57-16.61-9.73-6.54-1.44-18.21,7.97-23.06,14.81-.22.31-.44.6-.66.88-.02.03-.07.09-.1.15-.46.63-.82,1.22-1.17,1.88ZM934.34,1026.59h0,0ZM899.77,927.15s0,0,0,0c0,0,0,0,0,0Z" fill="#2b2b2b"/><path d="M933.53,1028.74c-.59,0-1.19-.17-1.71-.53-79-54.78-123.75-107.26-124.19-107.78-1.07-1.27-.91-3.16.35-4.23,1.26-1.07,3.16-.91,4.23.35.44.52,44.72,52.43,123.03,106.72,1.36.94,1.7,2.81.76,4.17-.58.84-1.52,1.29-2.47,1.29Z" fill="#2b2b2b"/><path d="M1221.22,823.15c-.88,0-1.64-.67-1.74-1.56-.1-.96.59-1.82,1.55-1.93.73-.08,73.83-8.37,126.63-52.06.74-.62,1.85-.51,2.46.23.62.74.51,1.85-.23,2.46-53.63,44.38-127.74,52.77-128.48,52.85-.06,0-.13.01-.19.01Z" fill="#2b2b2b"/><path d="M1104.35,382.55c-8.92,0-14.59-4.46-14.91-4.72-1.29-1.04-1.49-2.93-.45-4.22,1.04-1.29,2.92-1.49,4.21-.46.35.27,8.18,6.25,19.77,1.67,3.31-1.31,8.31-4.46,14.09-8.1,16.83-10.61,42.26-26.65,67.12-23.37,1.64.22,2.8,1.72,2.58,3.37-.22,1.64-1.72,2.8-3.37,2.58-22.72-3-47.03,12.34-63.13,22.49-6.29,3.96-11.25,7.1-15.09,8.61-3.96,1.56-7.6,2.14-10.81,2.14Z" fill="#2b2b2b"/><path d="M1061.76,348.82c-8.28,0-16.05-1.69-23.14-5.04-19.67-9.3-28.04-28.29-30.72-36.03-1.07-3.06-1.86-6.06-2.35-8.9-.92-5.35-3.81-10.06-8.13-13.26-.08-.06-.15-.12-.22-.18l-13.7-12.35c-.63-.57-.99-1.38-.99-2.23s.36-1.66.99-2.23c12.31-11.14,18.17-24.96,14.57-34.39-.39-1.02-1.34-2.76-2.35-4.6-2.33-4.26-5.23-9.56-6.05-14.28-.28-1.63.81-3.18,2.45-3.47,1.63-.28,3.19.81,3.47,2.45.65,3.73,3.28,8.55,5.4,12.42,1.16,2.11,2.15,3.94,2.69,5.34,4.28,11.21-1.1,26.14-13.74,38.7l11.18,10.08c5.5,4.12,9.18,10.14,10.35,16.97.43,2.48,1.16,5.23,2.11,7.95,2.44,7.02,10.01,24.25,27.62,32.58,7.96,3.77,16.94,5.16,26.72,4.14,9.96-.76,19.26-2.74,27.73-5.89,33.73-12.56,44.82-40.28,44.93-40.56.6-1.54,2.34-2.31,3.88-1.72,1.54.6,2.31,2.33,1.72,3.87-.48,1.24-12.06,30.49-48.43,44.03-8.99,3.35-18.84,5.45-29.28,6.25-2.26.24-4.5.36-6.69.36Z" fill="#2b2b2b"/><path d="M1133.05,250.7c-.12,0-.25,0-.37-.02-1.37-.17-2.44-1.25-2.61-2.62-.64-5.33-5.52-16.76-25.18-40.95-26.46-32.59-64.4-69.47-64.78-69.84-1.19-1.15-1.22-3.05-.06-4.24,1.15-1.19,3.05-1.22,4.24-.07.38.37,38.58,37.5,65.26,70.37,11.74,14.45,19.5,25.84,23.47,34.47,2.42-8.86,5.52-23.47,5.23-39.51-.72-40.07-20.97-66.41-60.16-78.27-1.59-.48-2.48-2.15-2-3.74.48-1.59,2.15-2.48,3.74-2,52.28,15.82,63.89,54.36,64.42,83.9.49,27.15-8.03,49.65-8.39,50.6-.45,1.17-1.57,1.92-2.8,1.92Z" fill="#2b2b2b"/><path d="M1144.73,290.89c-1.64,0-2.98-1.32-3-2.96-.02-1.66,1.31-3.02,2.96-3.04,4.46-.06,9.02-2.02,13.55-5.84,6.61-5.58,11.88-14.04,15.14-20.15.41-.75.8-1.52,1.17-2.3,4.22-8.73,6.52-18.45,6.66-28.11.31-21.18-5.1-32.59-16.09-33.91-10.05-1.21-21.4,6.08-21.51,6.16-1.39.9-3.25.51-4.15-.88-.9-1.39-.52-3.24.87-4.15.54-.35,13.26-8.57,25.51-7.09,10,1.2,21.82,9.11,21.37,39.96-.15,10.53-2.66,21.12-7.25,30.62-.41.86-.85,1.72-1.29,2.54-3.5,6.56-9.21,15.7-16.55,21.9-5.62,4.74-11.45,7.18-17.35,7.25-.01,0-.03,0-.04,0Z" fill="#2b2b2b"/><path d="M1152.9,271.97c-.42,0-.84-.15-1.18-.46-.71-.65-.76-1.76-.11-2.47,12.7-13.91,19.77-30.84,18.92-45.29-.39-6.6-2.45-11.97-5.66-14.74-8.25-7.15-18.86,2.64-19.31,3.06-.71.66-1.81.63-2.47-.07-.66-.7-.63-1.81.07-2.47,4.58-4.32,15.48-10.54,24-3.16,3.92,3.39,6.42,9.65,6.86,17.19.43,7.38-.63,26.83-19.83,47.86-.34.38-.82.57-1.29.57Z" fill="#2b2b2b"/><path d="M1101.89,364.8c-.5,0-1.01-.13-1.48-.39-1.42-.81-1.94-2.61-1.16-4.04.08-.16,1.02-2.15.57-5.89-.48-4-2.33-8.4-5.5-13.07-.93-1.37-.57-3.24.8-4.17,1.37-.93,3.24-.57,4.17.8,3.71,5.47,5.89,10.76,6.49,15.72.71,5.82-1.07,9.16-1.28,9.52-.55.97-1.57,1.52-2.61,1.52Z" fill="#2b2b2b"/><path d="M1003.38,225.57c-.58,0-1.17-.17-1.68-.51-3.83-2.59-7.5-5.27-10.88-7.97-21.52-17.18-32.77-35.86-33.44-55.52-.86-25.3,16.09-43.54,19.93-47.34.72-3.28,3.68-13.64,13.94-25.9,11.04-13.19,33.15-31.3,75.76-42.7,50.54-13.52,89.64-12.51,119.54,3.08,26.99,14.08,46.8,39.69,62.34,80.6l.08.21-2.78,1.14-2.8,1.07,2.8-1.07-2.82,1.02c-.04-.1-.08-.2-.11-.31-14.96-39.39-33.87-63.98-59.48-77.34-28.5-14.86-66.19-15.72-115.22-2.6-40.79,10.91-61.88,27.98-72.39,40.38-11.31,13.34-13.11,24.27-13.13,24.38-.1.67-.44,1.3-.94,1.76-.19.18-19.6,18.35-18.72,43.47.63,17.8,11.12,34.95,31.19,50.98,1.44,1.15,2.94,2.3,4.48,3.44-2.57-14.77-7.03-47.67,1.13-62.36.49-.88,1.38-1.45,2.38-1.53,1.01-.08,1.97.34,2.6,1.13.15.19,15.32,19.17,37.6,33.8,22.55,14.8,44.02,19.99,63.8,15.42.04,0,.07-.02.11-.02.09-.02.18-.04.27-.06l.75,2.91.67,2.92c-.21.05-.35.08-.5.11-21.43,4.94-44.44-.53-68.4-16.26-17.24-11.32-30.11-24.82-35.8-31.29-6.17,19.52,2.56,60.9,2.66,61.35.26,1.2-.24,2.43-1.25,3.11-.51.34-1.09.51-1.68.51Z" fill="#2b2b2b"/><path d="M1195.58,336.55c-1.01,0-2-.51-2.56-1.44-.4-.66-9.88-16.38-10.16-32.05-.13-7.64,1.94-14.04,6.17-19.01,4.15-4.86,9.12-9.88,14.89-15.68,5.38-5.42,11.48-11.57,17.78-18.52,1.11-1.23,3.01-1.32,4.24-.21,1.23,1.11,1.32,3.01.21,4.24-6.39,7.06-12.54,13.25-17.97,18.72-5.68,5.72-10.58,10.66-14.58,15.35-3.25,3.82-4.85,8.88-4.74,15.01.25,14.02,9.19,28.89,9.28,29.04.86,1.42.41,3.26-1,4.12-.49.3-1.03.44-1.56.44Z" fill="#2b2b2b"/><path d="M1185.31,306.02c-.93,0-1.84-.43-2.43-1.23-10.81-14.81-23.14-20.67-23.27-20.72-1.5-.7-2.15-2.48-1.45-3.99.7-1.5,2.49-2.15,3.99-1.45.56.26,13.86,6.58,25.58,22.62.98,1.34.68,3.21-.65,4.19-.53.39-1.15.58-1.77.58Z" fill="#2b2b2b"/><path d="M1288.48,303.86c-.31,0-.62-.05-.93-.15-1.47-.48-36.36-12.16-65.86-50.13-7.46-9.6-13.97-20.17-19.35-31.4-.95-1.98-1.91-4.08-2.85-6.25-4.7-10.87-6.61-22.62-5.52-34l.16-1.48c1.04-8.97,5.2-17.4,11.72-23.74,2.38-2.31,5.02-4.32,7.86-5.95,9.27-5.36,20.11-12.22,30.22-22.49,5.57-5.67,10.53-11.99,14.75-18.8.6-.97,1.68-1.51,2.82-1.41,1.13.1,2.11.84,2.52,1.89.41,1.06,9.38,24.44,3.41,47.24,17.02-3.96,69.21-13.13,81.79,19.37.35.9.24,1.92-.29,2.73-.53.81-1.42,1.31-2.38,1.35-10.22.43-24.95,3.32-27.63,8.45,3.58,7.73,23.08,50.85,24.3,76.91.05,1.08-.48,2.1-1.39,2.68-.91.58-2.06.62-3.02.11-.12-.06-12.06-6.43-24.86-12.33-17.01-7.84-24.24-9.67-27.18-10,1.18,4.47,3.37,13.22,5.04,22.4,4.53,24.9,1.49,31.39-1.2,34.11-.57.58-1.35.89-2.13.89ZM1260.27,117.96c-3.62,5.17-7.66,10.04-12.06,14.52-10.62,10.78-21.88,17.92-31.5,23.48-2.41,1.39-4.65,3.09-6.67,5.06,0,0,0,0,0,0-5.53,5.38-9.06,12.52-9.94,20.12l-.15,1.41c-.99,10.34.76,21.07,5.05,31,.91,2.1,1.84,4.13,2.76,6.05,5.2,10.85,11.48,21.05,18.68,30.31,24.22,31.17,52.84,44.13,60.82,47.3,2.72-7.29-1.27-31.63-7.09-52.19-.28-1-.03-2.07.67-2.83,2.3-2.53,7.01-4.21,34.02,8.09,8.51,3.88,16.84,8.07,21.9,10.67-3.55-27.49-23.56-69.96-23.77-70.42-.3-.62-.37-1.33-.2-2,2.41-9.83,19.99-12.73,29.05-13.56-16.27-27.85-77.4-10.84-78.04-10.65-1.09.31-2.26-.02-3.03-.85-.77-.83-1-2.02-.61-3.08,5.9-15.8,2.55-33.49.12-42.41ZM1207.95,158.86h0,0Z" fill="#2b2b2b"/><path d="M1205.47,223.04c-.43,0-.87-.16-1.21-.48-.15-.15-.31-.29-.45-.44-13.79-13.4-19.95-26.21-18.28-38.06,2.08-14.8,15.79-23.63,21.59-26.74,1.49-.8,2.44-1.21,2.48-1.22.89-.38,1.92.03,2.3.92.38.89-.03,1.92-.92,2.3,0,0-.86.37-2.2,1.09-5.33,2.86-17.92,10.93-19.78,24.15-1.5,10.68,4.31,22.48,17.28,35.08.14.14.27.26.4.39.7.67.73,1.77.06,2.47-.34.36-.81.54-1.27.54Z" fill="#2b2b2b"/><path d="M1054.16,508.37c-.28,0-.57-.07-.84-.21-35.62-19.42-67.33-54.39-67.65-54.74-.65-.72-.59-1.82.13-2.47.72-.65,1.82-.59,2.47.13.31.35,31.64,34.88,66.73,54.01.85.46,1.16,1.53.7,2.37-.32.58-.92.91-1.54.91Z" fill="#2b2b2b"/><path d="M1377.41,854.28c-.09,0-.19,0-.28-.02-.95-.16-1.6-1.06-1.45-2.01.06-.36,5.71-36.7-13.38-62.87-.23-.33-.46-.64-.7-.94-.59-.77-.44-1.87.33-2.45.77-.59,1.87-.44,2.45.33.26.34.52.68.76,1.03,19.96,27.35,14.24,63.93,13.99,65.47-.14.86-.88,1.47-1.72,1.47Z" fill="#2b2b2b"/><path d="M1341.48,794.91c-1.33,0-2.55-.9-2.9-2.25-.42-1.6.55-3.24,2.15-3.66.36-.09,9.03-2.31,22.69-3.63,1.21-.12,2.45-.23,3.74-.33,7.74-.61,14.71-.13,21.45.33,14.08.96,26.23,1.79,42.16-6.95.88-.48,2-1.01,3.29-1.62,2.29-1.08,7.67-3.61,8.37-4.99.76-1.47,2.56-2.06,4.04-1.3,1.47.76,2.06,2.56,1.3,4.04-1.52,2.96-5.76,5.14-11.16,7.68-1.15.54-2.24,1.06-2.96,1.45-17.47,9.58-31.06,8.65-45.46,7.67-6.52-.44-13.27-.9-20.57-.33-1.25.1-2.45.2-3.63.32-13.2,1.28-21.69,3.45-21.77,3.47-.25.07-.5.1-.75.1Z" fill="#2b2b2b"/><path d="M1507.52,913.2c-6.71,0-13.38-1.34-17.08-5.24-4.54-4.79-6.95-12.05-9.28-19.07-1.5-4.52-2.92-8.8-4.7-11.59-3.5-5.5-12.47-15.23-19.11-21.47-1.09-1.02-2.03-1.87-2.86-2.59-1.4-1.23-2.09-3.04-1.84-4.86.25-1.83,1.4-3.41,3.09-4.23.38-.18.74-.4,1.13-.68,6.95-5.13,9.37-27.17-12.49-66.8-.51-.93-.9-1.92-1.15-2.93-.08-.32-.14-.64-.19-.96-.84-5.48,2.21-10.82,7.41-13.02,15.32-6.5,27.72-10.12,36.85-10.76.02,0,.04,0,.07,0,.03,0,.06,0,.09,0,1.29-.08,2.51-.11,3.61-.08,6.3.18,11.86,4.22,13.83,10.07,20.14,59.82,30.67,114.99,33.42,130.47.6,3.37.23,6.83-1.08,10-1.69,4.11-4.86,7.52-8.92,9.61-.95.49-1.92.89-2.91,1.21-.17.06-.29.1-.4.13l-.85.27c-3.98,1.35-10.34,2.54-16.65,2.54ZM1459.01,849.22c.73.65,1.54,1.38,2.44,2.23,6.83,6.41,16.18,16.51,20.08,22.63,2.18,3.42,3.71,8.03,5.33,12.92,2.12,6.4,4.32,13.02,7.94,16.83,4.51,4.76,19.52,3.85,27.46,1.15.31-.1.61-.2.91-.3.05-.02.17-.05.22-.07l.19-.07c.66-.22,1.33-.5,1.97-.82,2.82-1.45,4.99-3.78,6.14-6.57.87-2.11,1.12-4.41.72-6.65-2.73-15.39-13.19-70.19-33.2-129.61-1.17-3.47-4.51-5.88-8.31-5.98-.93-.03-1.97,0-3.08.07-.02,0-.05,0-.07,0-.01,0-.03,0-.04,0-8.47.6-20.21,4.07-34.91,10.3-2.67,1.13-4.25,3.82-3.83,6.54.02.13.06.32.1.5.12.5.31.97.57,1.44,22.33,40.5,21.51,66.61,10.79,74.53-.48.35-.94.65-1.42.91Z" fill="#2b2b2b"/><path d="M1526.82,909.16c-1.53,0-2.84-1.17-2.98-2.73-.06-.65-6.31-66.07-38.96-152.26-.59-1.55.19-3.28,1.74-3.87,1.55-.59,3.28.19,3.87,1.74,32.96,87.01,39.26,153.18,39.32,153.84.15,1.65-1.07,3.11-2.72,3.26-.09,0-.18.01-.28.01Z" fill="#2b2b2b"/><path d="M1316.46,864.56c-2.49,0-4.91-.05-7.25-.16-20.75-.97-35.71-6.09-44.47-15.22l-1.07-1.11c-3.9-4.03-8.76-9.05-12.91-18.27l-.08-.18c-.67-1.52.02-3.29,1.54-3.95,1.52-.67,3.29.02,3.95,1.54l.07.16c3.71,8.25,7.97,12.65,11.74,16.54l1.09,1.13c15.12,15.76,53.99,17.92,106.64,5.91l1.31-.29c31.21-7.09,54.21-11.42,68.33-12.85,4.64-.47,10.95,1.83,14.98,5.47,1.23,1.11,1.33,3.01.21,4.24-1.11,1.23-3.01,1.32-4.24.21-2.75-2.48-7.4-4.26-10.35-3.96-13.88,1.41-36.63,5.69-67.63,12.73l-1.31.29c-22.43,5.12-43.19,7.78-60.55,7.78Z" fill="#2b2b2b"/><path d="M1394,573.83c-.85,0-1.7-.36-2.29-1.06l-68.72-81-21.73-12.75c-1.43-.84-1.91-2.68-1.07-4.11.84-1.43,2.68-1.91,4.11-1.07l22.17,13.01c.29.17.55.39.77.65l69.05,81.39c1.07,1.26.92,3.16-.35,4.23-.56.48-1.25.71-1.94.71Z" fill="#2b2b2b"/><path d="M1443.87,543.69c-.81,0-1.62-.33-2.22-.98l-83.93-91.94s-.05-.05-.07-.08c-2.96-3.48-6.68-6.47-11.07-8.88l-16.28-8.09c-1.48-.74-2.09-2.54-1.35-4.02.74-1.48,2.54-2.09,4.02-1.35l16.34,8.11s.07.04.11.06c5.04,2.76,9.34,6.21,12.78,10.25l83.89,91.9c1.12,1.22,1.03,3.12-.19,4.24-.58.53-1.3.78-2.02.78Z" fill="#2b2b2b"/><path d="M957.14,537.78c-25.53,0-66.58-14.34-86.05-30.78-1.27-1.07-1.43-2.96-.36-4.23,1.07-1.27,2.96-1.43,4.23-.36,19.77,16.69,64.83,31.64,87.67,29.08,41.82-4.69,59.07-24,59.24-24.19,1.09-1.25,2.98-1.38,4.23-.3,1.25,1.08,1.39,2.97.31,4.22-.75.87-18.76,21.26-63.12,26.23-1.92.22-3.99.32-6.16.32Z" fill="#2b2b2b"/><path d="M960.37,481.51c-.2,0-.39-.02-.59-.06l-64.79-12.94c-1.62-.32-2.68-1.9-2.36-3.53.33-1.62,1.9-2.68,3.53-2.35l63.34,12.65,13.79-12.12c1.25-1.09,3.14-.97,4.23.27,1.09,1.24.97,3.14-.27,4.23l-14.91,13.09c-.55.49-1.26.75-1.98.75Z" fill="#2b2b2b"/><path d="M1011.4,309.53c-1.48,0-2.77-1.1-2.97-2.61-.21-1.64.94-3.15,2.59-3.36.27-.04,22.64-3.16,50.18-18.78l-51.79,16.42c-1.58.5-3.27-.37-3.77-1.95-.5-1.58.37-3.27,1.95-3.77l72.85-23.09c1.4-.44,2.91.19,3.58,1.5.67,1.31.29,2.9-.89,3.78-36.55,27.05-69.94,31.67-71.34,31.85-.13.02-.26.03-.39.03Z" fill="#2b2b2b"/><path d="M1040.1,343.65c-1.4,0-2.65-.99-2.94-2.41-.33-1.62.73-3.2,2.35-3.53,1.99-.4,48.11-10.39,38.89-61.93-.29-1.63.79-3.19,2.42-3.48,1.63-.29,3.19.79,3.48,2.42,5.36,29.94-6.82,47.11-17.98,56.24-11.99,9.81-25.09,12.52-25.64,12.63-.2.04-.4.06-.59.06Z" fill="#2b2b2b"/><path d="M1443.72,625.37c-7.63,0-15.46-5.64-16.44-6.37-.24-.18-.45-.39-.63-.63l-15.32-20.91c-.98-1.34-.69-3.21.65-4.19,1.33-.98,3.21-.69,4.19.65l15.04,20.53c2.71,1.91,9.63,5.87,14.29,4.74,1.5-.36,2.63-1.23,3.52-2.7l-1.52-14.25c-.18-1.65,1.02-3.13,2.66-3.3,1.65-.18,3.13,1.02,3.3,2.66l1.62,15.18c.06.56-.04,1.13-.29,1.64-1.72,3.49-4.44,5.77-7.89,6.61-1.04.25-2.11.36-3.18.36Z" fill="#2b2b2b"/><path d="M1453.32,620.13c-.47,0-.96-.02-1.46-.06-1.65-.14-2.88-1.59-2.74-3.24.14-1.65,1.58-2.88,3.24-2.74,7,.58,8.66-5.77,8.95-7.29l-.69-18.67c-.06-1.66,1.23-3.05,2.89-3.11,1.65-.07,3.05,1.23,3.11,2.89l.7,18.98c0,.18,0,.36-.03.54-.65,4.53-4.41,12.7-13.96,12.7Z" fill="#2b2b2b"/><path d="M1465.62,607.72c-1.16,0-2.27-.68-2.76-1.82-.65-1.52.05-3.29,1.57-3.94,4.3-1.85,6.39-5.91,6.23-12.08-.11-4.66-1.5-8.72-1.52-8.76-.54-1.56.29-3.27,1.85-3.82,1.56-.54,3.27.28,3.82,1.84.07.2,1.71,4.96,1.85,10.59.23,8.73-3.18,14.87-9.86,17.75-.39.17-.79.24-1.18.24Z" fill="#2b2b2b"/><path d="M1474.13,592.79c-.51,0-1.03-.13-1.51-.41-1.43-.83-1.91-2.67-1.08-4.1,3.95-6.77,4.74-13.1,2.41-19.35-6.64-17.82-36.32-28.15-36.62-28.26-1.57-.54-2.4-2.24-1.87-3.81s2.24-2.4,3.81-1.87c1.33.45,32.66,11.34,40.3,31.83,2.96,7.93,2,16.17-2.85,24.48-.56.96-1.56,1.49-2.59,1.49Z" fill="#2b2b2b"/><path d="M1417.31,616.02c-5.83,0-13.28-.96-19.85-7.94-11.54-12.28-7.19-32.16-4.79-40.14.48-1.59,2.15-2.49,3.74-2.01,1.59.48,2.49,2.15,2.01,3.74-2.1,6.98-5.98,24.3,3.42,34.3,6.04,6.43,12.71,6.19,18.6,5.98,1.25-.04,2.44-.09,3.57-.06,1.66.04,2.97,1.41,2.93,3.07-.04,1.63-1.37,2.93-3,2.93-.02,0-.05,0-.07,0-.96-.02-2.05.02-3.21.06-1.03.04-2.14.08-3.33.08Z" fill="#2b2b2b"/><path d="M868.82,482.37c-.75,0-1.51-.28-2.09-.85-5.66-5.51-13.75-18.98-3.88-30.54.15-.18.32-.34.51-.48,1.32-.99,3.21-.73,4.2.6.87,1.16.77,2.75-.16,3.79-8.66,10.16,3.02,21.84,3.52,22.33,1.18,1.16,1.2,3.06.05,4.24-.59.6-1.37.9-2.15.9Z" fill="#2b2b2b"/><path d="M894.88,472.77c-.12,0-.24,0-.36-.02-1.65-.2-2.82-1.69-2.62-3.33.65-5.45.42-9.45.41-9.49-.52-9-7.12-16.43-10.3-20-1.25-1.4-3.98-3.31-5.78-4.08l-13.24-1.61c-.82-.1-1.63-.03-2.42.21-2.45.74-8.38,2.93-10.55,7.15-1.09,2.11-1.11,4.5-.07,7.32.82,2.23,1.84,3.8,3.01,4.67,3.82,2.84,10.08-2.82,10.15-2.88,1.22-1.12,3.12-1.04,4.24.19,1.12,1.22,1.04,3.12-.19,4.24-4.58,4.2-11.98,7.57-17.77,3.28-2.13-1.57-3.83-4.07-5.07-7.41-1.63-4.43-1.51-8.52.37-12.15,3.11-6.03,10.19-8.94,14.14-10.14,1.59-.48,3.23-.63,4.89-.43l13.63,1.65c.24.03.47.09.69.17,2.66,1,6.51,3.64,8.4,5.77,3.68,4.14,11.23,12.62,11.86,23.69.01.16.27,4.53-.45,10.56-.18,1.52-1.48,2.64-2.97,2.64Z" fill="#2b2b2b"/><path d="M860.28,507.81c-14.4,0-24.13-8.15-27.27-11.21-18.19.84-23.76-9.94-24.45-11.44-4-7.77-.71-17.19.74-20.58-3.96-10.71,1.05-18.66,5.42-22.42-.96-4.85-.22-8.96,2.22-12.25,3.46-4.67,9.44-6.2,12.86-6.7.59-4.4,2.88-13.69,17.71-13.34,16.99.4,30.45,20.02,31.02,20.86.93,1.37.57,3.24-.81,4.17-1.37.93-3.24.57-4.17-.8-.18-.26-12.33-17.9-26.19-18.22-.23,0-.46,0-.69,0-10.05,0-10.64,5.46-11.04,9.1-.08.75-.14,1.34-.32,1.89-.38,1.24-1.52,2.09-2.81,2.11-.07,0-7.59.23-10.76,4.53-1.59,2.16-1.85,5.2-.76,9.05.36,1.27-.15,2.63-1.27,3.34-.94.62-9.16,6.45-4.39,17.59.35.82.32,1.75-.08,2.54-.05.09-4.83,9.73-1.32,16.44.04.08.08.16.11.24.15.34,4.2,9.04,19.94,7.82.95-.07,1.89.32,2.51,1.05.55.64,13.94,15.8,35.8,8.07,1.56-.55,3.28.27,3.83,1.83.55,1.56-.27,3.28-1.83,3.83-5.05,1.78-9.73,2.5-14.01,2.5Z" fill="#2b2b2b"/><path d="M846.58,442.75c-.57,0-1.14-.16-1.65-.5-7.9-5.23-14.6-14.1-14.88-14.48-.99-1.33-.72-3.2.6-4.2,1.32-.99,3.2-.73,4.2.6.06.08,6.37,8.43,13.39,13.08,1.38.91,1.76,2.78.85,4.16-.58.87-1.53,1.34-2.5,1.34Z" fill="#2b2b2b"/><path d="M841.11,464.76c-9.73,0-22.75-16.15-25.39-19.55-1.01-1.31-.77-3.19.54-4.21,1.31-1.01,3.19-.78,4.21.53,5.81,7.49,16.51,18.14,21.06,17.19,1.27-.26,2.38-.55,3.31-.85,2.42-.79,2.66-1.29,3.11-2.19.19-.37.42-.84.74-1.33.02-.03.03-.05.05-.07.04-.06.08-.12.12-.18.99-1.33,2.87-1.61,4.2-.62,1.31.97,1.6,2.81.67,4.14-.02.02-.03.05-.05.07-.11.18-.22.4-.35.66-.95,1.93-2.18,3.79-6.63,5.24-1.15.37-2.44.71-3.94,1.02-.53.11-1.08.16-1.63.16Z" fill="#2b2b2b"/><path d="M835.61,478.24c-13.74,0-24.69-10.97-25.19-11.47-1.16-1.18-1.15-3.08.04-4.24,1.18-1.16,3.08-1.15,4.24.03.12.12,11.3,11.25,23.61,9.49.15-.02.31-.05.47-.08,2.92-.5,4.75-1.5,5.46-2.98,1.28-2.66-.79-6.65-.81-6.69-.8-1.45-.27-3.28,1.18-4.07,1.45-.8,3.28-.27,4.07,1.18.37.68,3.56,6.78.95,12.19-1.61,3.33-4.91,5.45-9.82,6.28-.19.04-.42.07-.66.11-1.2.17-2.39.25-3.55.25Z" fill="#2b2b2b"/><path d="M834.2,496.53c-1.06,0-2.08-.56-2.63-1.55-.8-1.45-.28-3.27,1.17-4.07,1.53-.86,5.71-3.9,6.61-7.59.46-1.85.06-3.71-1.22-5.67-.9-1.39-.51-3.25.88-4.15,1.39-.9,3.25-.51,4.15.88,2.21,3.4,2.89,6.9,2.01,10.41-1.74,6.98-9.2,11.19-9.52,11.36-.46.26-.96.38-1.45.38Z" fill="#2b2b2b"/><path d="M821.14,622.78c.46,1.86.88,3.75,1.26,5.65,5.18,26.14,1.53,51.99-8.88,74.45l-4.93-15.98s4.67-17.74,5.85-26.44c1.18-8.7-.11-25.13-.11-25.13l6.4-12.45.41-.1Z" fill="#fff"/><path d="M821.14,622.78l-.41.1-6.4,12.45-32.69-29.74-7.21-34.94,20.28,2.45.49-.42c12.15,14.02,21.22,31.01,25.95,50.11Z" fill="#333"/><path d="M770.16,708.72l-18.31,37.55-6.11,2.43c-13.94,5.56-28.84,8.35-43.85,8.21l-8.81-.08-26.66-27.23,17.41-40.02.3.54,52.29-10.36,6.25-52.42.54.06,38.43-21.82,32.69,29.74s1.29,16.43.11,25.13c-1.18,8.7-5.85,26.44-5.85,26.44l-38.43,21.82Z" fill="#fff"/><path d="M795.19,572.68l-.49.42-20.28-2.45s-12.91-12.29-25.45-18.58c-6.42-3.22-30.84-10.67-30.84-10.67l-11.37-10.63c34.47.9,66.47,16.56,88.43,41.91Z" fill="#fff"/><path d="M808.59,686.9l4.93,15.98c-9.19,19.83-23.65,37.03-41.97,49.47l-19.71-6.07,18.31-37.55,38.43-21.82Z" fill="#333"/><path d="M751.85,746.28l19.71,6.07c-13.06,8.87-28.07,15.31-44.53,18.57-17.03,3.37-33.94,3-49.86-.55l15.91-13.53,8.81.08c15.01.14,29.91-2.65,43.85-8.21l6.11-2.43Z" fill="#fff"/><polygon points="683.83 689.6 658.36 644.03 658.12 643.61 694.28 604.55 694.33 604.49 742.73 626.85 742.67 627.36 736.42 679.78 684.13 690.14 683.83 689.6" fill="#333"/><path d="M706.76,530.77l11.37,10.63-32.78,19.24-44.4-4.2,4.32-10.85c10.57-5.78,22.19-10.07,34.64-12.54,9.03-1.79,18.02-2.52,26.85-2.29Z" fill="#333"/><path d="M694.09,604.38l-8.74-43.73,32.78-19.24s24.42,7.45,30.84,10.67c12.54,6.28,25.45,18.58,25.45,18.58l7.21,34.94-38.43,21.82-.54-.06.06-.51-48.39-22.36-.06.06-.19-.17Z" fill="#fff"/><path d="M694.09,604.38l.19.17-36.16,39.06.24.42-.67.38-43.71-4.13.05-.56-8.74-43.73s7.67-13.26,16.09-22.68c4.57-5.12,19.57-16.86,19.57-16.86l44.4,4.2,8.74,43.73Z" fill="#fff"/><path d="M658.36,644.03l25.47,45.56-17.41,40.02-44-4.16s-9.35-9.29-15.64-19.98c-5.59-9.51-10.72-24.7-10.72-24.7l17.63-40.52.29.03,43.71,4.13.67-.38Z" fill="#fff"/><path d="M666.41,729.62l26.66,27.23-15.91,13.53c-19.67-4.38-37.84-13.6-52.91-26.59l-1.84-18.33,44,4.16Z" fill="#333"/><path d="M645.27,545.6l-4.32,10.85s-15,11.74-19.57,16.86c-8.42,9.42-16.09,22.68-16.09,22.68l-11.3,3.88c10.85-22.74,28.67-41.92,51.28-54.28Z" fill="#fff"/><path d="M605.29,595.99l8.74,43.73-.05.56-.29-.03-17.63,40.52-12.38-10.14c-3.9-24.93.14-49.42,10.32-70.76l11.3-3.88Z" fill="#333"/><path d="M606.77,705.48c6.29,10.69,15.64,19.98,15.64,19.98l1.84,18.33c-19.8-17.06-34.25-40.61-39.72-68.23-.32-1.64-.62-3.28-.87-4.92l12.38,10.14s5.13,15.19,10.72,24.7Z" fill="#fff"/><path d="M703.32,776.26c-8.99,0-17.95-.99-26.81-2.96-19.93-4.44-38.68-13.86-54.21-27.25-21.18-18.25-35.26-42.43-40.7-69.92-.34-1.7-.64-3.39-.89-5.04-3.88-24.79-.22-49.87,10.58-72.51,11.19-23.46,29.85-43.22,52.54-55.62,11.06-6.05,23-10.37,35.5-12.85,9.08-1.8,18.34-2.59,27.51-2.35,34.74.91,67.77,16.56,90.62,42.94,12.72,14.68,21.91,32.43,26.59,51.34h0c.46,1.86.9,3.81,1.29,5.79,5.14,25.96,2,52.35-9.1,76.29-9.5,20.5-24.37,38.03-43,50.69-13.79,9.36-29.14,15.77-45.63,19.03-8.08,1.6-16.2,2.4-24.29,2.4ZM703.6,533.73c-7.72,0-15.47.76-23.1,2.27-11.9,2.36-23.26,6.47-33.79,12.23-21.59,11.8-39.35,30.6-50.01,52.94-10.28,21.55-13.76,45.41-10.07,69.01.24,1.57.53,3.18.85,4.8,5.18,26.16,18.58,49.17,38.73,66.54,14.79,12.74,32.63,21.71,51.6,25.93,16.02,3.57,32.38,3.75,48.63.53,15.69-3.11,30.3-9.2,43.42-18.11,17.73-12.05,31.88-28.73,40.93-48.25,10.56-22.79,13.55-47.89,8.66-72.6-.37-1.89-.79-3.74-1.23-5.51,0,0,0,0,0,0-4.45-18-13.2-34.9-25.3-48.86-21.75-25.11-53.18-40.01-86.24-40.87-1.03-.03-2.06-.04-3.09-.04Z" fill="#2b2b2b"/><path d="M684.13,691.89c-.63,0-1.21-.34-1.53-.9l-.3-.54-25.71-45.99c-.37-.66-.27-1.48.25-2.04l36.16-39.06s.07-.07.08-.08c.52-.54,1.32-.69,2-.38l48.39,22.36c.69.32,1.09,1.04,1,1.8l-.06.51h0s-6.25,52.42-6.25,52.42c-.09.75-.65,1.36-1.4,1.51l-52.29,10.36c-.11.02-.23.03-.34.03ZM660.27,643.87l24.77,44.31,49.8-9.86,6.01-50.41-46.09-21.29-34.49,37.25ZM742.67,627.36h0,0Z" fill="#2b2b2b"/><path d="M770.16,710.47c-.42,0-.85-.16-1.18-.46l-32.69-29.74c-.71-.65-.77-1.76-.12-2.47.65-.71,1.76-.77,2.47-.12l31.76,28.88,36.68-20.83c.88-3.39,4.6-18,5.62-25.51,1.01-7.42.15-20.88-.07-24.07l-31.24-28.42-37.33,21.2c-.84.48-1.91.18-2.39-.66-.48-.84-.18-1.91.66-2.39l38.43-21.82c.66-.37,1.48-.28,2.04.23l32.69,29.74c.33.3.53.71.57,1.16.05.68,1.29,16.72.1,25.5-1.18,8.7-5.7,25.92-5.89,26.65-.12.46-.42.84-.83,1.08l-38.43,21.82c-.27.15-.57.23-.86.23Z" fill="#2b2b2b"/><path d="M666.41,731.37c-.05,0-.11,0-.17,0l-44-4.16c-.4-.04-.78-.21-1.07-.5-.39-.39-9.59-9.57-15.92-20.33-5.62-9.56-10.66-24.4-10.87-25.03-.14-.41-.12-.86.05-1.26l17.63-40.52c.3-.69,1.02-1.12,1.77-1.04l44,4.16c.96.09,1.67.94,1.58,1.91-.09.96-.92,1.67-1.91,1.58l-42.74-4.04-16.86,38.73c1.03,2.96,5.56,15.59,10.35,23.74,5.34,9.07,13.04,17.23,14.93,19.18l42.1,3.98,17.13-39.36c.39-.89,1.42-1.29,2.3-.9.89.39,1.29,1.42.9,2.3l-.22.5-17.41,40.02c-.28.64-.91,1.05-1.6,1.05Z" fill="#2b2b2b"/><path d="M702.99,758.68c-.37,0-.74,0-1.11,0l-8.81-.08c-.46,0-.91-.19-1.23-.53l-26.66-27.23c-.68-.69-.67-1.8.03-2.47.69-.68,1.8-.66,2.47.03l26.15,26.71,8.09.07c14.85.13,29.38-2.58,43.19-8.09l5.48-2.18,18.01-36.95c.42-.87,1.48-1.23,2.34-.81.87.42,1.23,1.47.81,2.34l-18.31,37.55c-.19.39-.52.7-.93.86l-6.11,2.43c-13.88,5.54-28.47,8.34-43.4,8.34Z" fill="#2b2b2b"/><path d="M614.02,641.47c-.82,0-1.55-.58-1.71-1.41l-8.74-43.73c-.08-.42-.01-.85.2-1.22.32-.55,7.86-13.52,16.3-22.97,4.62-5.18,19.18-16.59,19.8-17.07.35-.28.79-.41,1.24-.36l44.4,4.2c.77.07,1.4.64,1.55,1.4l8.74,43.73c.19.95-.42,1.87-1.37,2.06-.95.19-1.87-.43-2.06-1.37l-8.48-42.46-42.41-4.01c-2.73,2.15-14.87,11.81-18.8,16.22-7.22,8.09-14,19.21-15.55,21.83l8.61,43.08c.19.95-.42,1.87-1.37,2.06-.12.02-.23.03-.34.03Z" fill="#2b2b2b"/><path d="M781.63,607.35c-.81,0-1.54-.57-1.71-1.4l-7.1-34.4c-2.25-2.08-13.68-12.42-24.63-17.91-5.6-2.81-25.73-9.07-29.84-10.34l-32.11,18.85c-.83.49-1.91.21-2.39-.62-.49-.83-.21-1.91.62-2.4l32.78-19.24c.42-.25.93-.31,1.4-.16,1,.31,24.64,7.54,31.12,10.78,12.62,6.33,25.33,18.36,25.87,18.87.26.25.43.56.51.91l7.21,34.94c.2.95-.41,1.87-1.36,2.07-.12.02-.24.04-.36.04Z" fill="#2b2b2b"/><path d="M640.95,558.2c-.21,0-.43-.04-.65-.12-.9-.36-1.34-1.37-.98-2.27l4.43-11.14c.36-.9,1.37-1.34,2.27-.98.9.36,1.34,1.38.98,2.27l-4.43,11.14c-.27.69-.93,1.1-1.63,1.1Z" fill="#2b2b2b"/><path d="M593.6,601.76c-.73,0-1.41-.46-1.66-1.18-.31-.91.18-1.91,1.09-2.22l11.68-4.02c.92-.32,1.91.17,2.22,1.09.31.91-.17,1.91-1.09,2.22l-11.69,4.02c-.19.06-.38.09-.57.09Z" fill="#2b2b2b"/><path d="M718.13,543.15c-.43,0-.86-.16-1.2-.47l-11.37-10.63c-.71-.66-.76-1.78-.1-2.49.66-.71,1.75-.76,2.45-.11l11.41,10.67c.71.66.74,1.77.08,2.47-.34.37-.81.55-1.28.55Z" fill="#2b2b2b"/><path d="M794.7,574.85c-.07,0-.14,0-.21-.01l-20.28-2.45c-.96-.12-1.64-.99-1.53-1.95.12-.96.98-1.64,1.95-1.53l20.28,2.45c.96.12,1.64.99,1.53,1.95-.11.89-.86,1.54-1.74,1.54Z" fill="#2b2b2b"/><path d="M814.32,637.09c-.27,0-.54-.06-.8-.19-.86-.44-1.2-1.5-.76-2.36l6.4-12.45c.44-.86,1.5-1.2,2.36-.76.86.44,1.2,1.5.76,2.36l-6.4,12.45c-.31.6-.92.95-1.56.95Z" fill="#2b2b2b"/><path d="M813.58,704.82c-.74,0-1.43-.48-1.67-1.22l-.06-.19-4.94-16c-.29-.92.23-1.9,1.16-2.19.92-.28,1.9.23,2.19,1.16l4.99,16.16c.29.92-.22,1.91-1.14,2.2-.18.06-.35.08-.53.08Z" fill="#2b2b2b"/><path d="M772.07,754.26c-.17,0-.34-.03-.51-.08l-20.22-6.23c-.92-.28-1.44-1.26-1.16-2.19.29-.92,1.27-1.44,2.19-1.16l20.22,6.23c.92.28,1.44,1.26,1.16,2.19-.23.75-.92,1.24-1.67,1.24Z" fill="#2b2b2b"/><path d="M676.37,772.81c-.5,0-.99-.21-1.33-.61-.63-.74-.54-1.84.2-2.47l16.71-14.22c.74-.63,1.84-.54,2.47.2.63.74.54,1.84-.2,2.47l-16.71,14.21c-.33.28-.73.42-1.13.42Z" fill="#2b2b2b"/><path d="M624.42,747.15c-.89,0-1.65-.67-1.74-1.58l-2.01-19.94c-.1-.96.6-1.82,1.57-1.92.97-.1,1.82.6,1.92,1.57l2.01,19.94c.1.96-.6,1.82-1.57,1.92-.06,0-.12,0-.18,0Z" fill="#2b2b2b"/><path d="M596.05,682.53c-.39,0-.78-.13-1.11-.4l-12.76-10.45c-.75-.61-.86-1.71-.25-2.46.61-.75,1.71-.86,2.46-.25l12.76,10.45c.75.61.86,1.71.25,2.46-.35.42-.85.64-1.35.64Z" fill="#2b2b2b"/><ellipse cx="703.36" cy="1008.63" rx="106.83" ry="12.69" fill="#896937"/><path d="M2199.36,140.59c5.31,7.69,7.66,17.03,7.03,26.35l-29.13,434.62c-2.95,31.52-44.8,25.84-44.8,25.84l-.05-.43c16.59-1.72,30.03-15.16,31.21-32.36l29.88-434.9c1.2-17.32-10.45-32.56-26.82-36.41v-.05c17.17,1.28,27.03,9.17,32.68,17.34Z" fill="#eaeaea"/><path d="M2166.68,123.3c16.37,3.85,28.02,19.09,26.82,36.41l-29.88,434.9c-1.18,17.2-14.62,30.64-31.21,32.36-1.98.21-4,.25-6.05.11l-286.76-19.7c-19.26-1.33-33.79-18.01-32.47-37.26l29.88-434.91c1.32-19.25,18-33.79,37.26-32.46l286.76,19.7c1.94.13,3.82.42,5.65.85ZM2142.83,592.34l29.41-428.06-314.8-21.63-29.41,428.06,314.8,21.63Z" fill="#fff"/><rect x="1785.6" y="209.72" width="429.07" height="315.54" transform="translate(1496.41 2337.74) rotate(-86.07)" fill="#383838"/><path d="M2139.82,630.81c-4.4,0-7.43-.39-7.76-.44l.8-5.95h0c.33.04,21.11,2.67,33.1-6.87,4.87-3.87,7.67-9.35,8.31-16.27l29.12-434.54c.6-8.83-1.71-17.51-6.51-24.44-6.67-9.64-16.9-15.04-30.42-16.05l.45-5.98c15.2,1.13,27.27,7.57,34.91,18.63,5.56,8.05,8.24,18.09,7.56,28.26l-29.13,434.62c-.81,8.7-4.37,15.57-10.58,20.5-9.09,7.22-21.78,8.55-29.86,8.55Z" fill="#2b2b2b"/><path d="M2128.76,630.16c-.87,0-1.74-.03-2.6-.09l-286.76-19.7c-20.87-1.44-36.69-19.59-35.26-40.46l29.88-434.91c.69-10.11,5.28-19.35,12.92-26,7.64-6.66,17.42-9.94,27.54-9.24l286.76,19.7c2.04.14,4.11.45,6.13.92,18.17,4.27,30.42,20.9,29.13,39.54l-29.88,434.9c-1.27,18.45-15.52,33.23-33.89,35.14h0c-1.31.14-2.64.21-3.97.21ZM1871.81,105.67c-7.71,0-15.07,2.75-20.93,7.86-6.43,5.61-10.3,13.38-10.88,21.89l-29.88,434.91c-1.21,17.57,12.11,32.85,29.68,34.06l286.76,19.7c1.85.13,3.71.09,5.53-.1h0c15.46-1.6,27.46-14.04,28.53-29.58l29.88-434.9c1.09-15.69-9.22-29.69-24.51-33.28-1.7-.4-3.44-.66-5.16-.78l-286.77-19.7c-.75-.05-1.5-.08-2.25-.08Z" fill="#2b2b2b"/><path d="M2144.46,594.21l-318.29-21.87,29.65-431.55,318.29,21.87-29.65,431.55ZM1829.9,569.08l311.31,21.39,29.17-424.57-311.31-21.39-29.17,424.57Z" fill="#2b2b2b"/><polygon points="1902.99 631.86 2014.32 676.93 1968.35 789.31 2022.98 811.43 1876.95 856.21 1801.8 721.88 1856.63 744.08 1902.99 631.86" fill="#cecece"/><path d="M1875.03,860.98l-82.27-147.08,61.69,24.98,46.36-112.23,118.74,48.07-45.98,112.38,61.35,24.84-159.89,49.03ZM1810.85,729.86l68.01,121.58,132.17-40.53-47.91-19.4,45.98-112.38-103.93-42.08-46.36,112.23-47.96-19.42Z" fill="#2b2b2b"/><path d="M661.76,1194.9l-102.52,103.52-182.91-182.91-182.92,182.91-103.5-103.52,182.91-182.91-182.91-182.91,103.5-103.52,182.92,182.91,182.91-182.91,102.52,103.52-182.92,182.91,182.92,182.91Z" fill="#dd3131"/><path d="M559.26,1302.67l-182.92-182.92-182.92,182.91-107.74-107.76,182.91-182.91-182.91-182.91,107.74-107.76,182.92,182.91,182.92-182.92,106.74,107.78-182.91,182.9,182.91,182.9-106.74,107.78ZM94.16,1194.9l99.26,99.27,182.92-182.91,182.9,182.9,98.29-99.25-182.93-182.92,182.93-182.92-98.29-99.25-182.9,182.9-182.92-182.91-99.26,99.27,182.91,182.91-182.91,182.91Z" fill="#2b2b2b"/></svg>