<?xml version="1.0" encoding="UTF-8"?><svg id="_レイヤー_30" xmlns="http://www.w3.org/2000/svg" width="2000" height="2000" viewBox="0 0 2000 2000"><ellipse cx="1303.12" cy="1868.03" rx="527" ry="75.29" fill="#f0c07e"/><path d="M1376.06,907.23c0,195.39-302.5,200.76-675.65,200.76S24.76,1091.86,24.76,907.23c0-110.88,302.5-200.76,675.65-200.76s675.65,89.88,675.65,200.76Z" fill="#f0c07e"/><path d="M446.26,453.59c44.57,10.09,79.34,58.1,58.41,117.05-20.93,58.96-63.66,63.28-63.66,63.28-18.41,83.58-130.49,62.05-138.46,60.41l-5.31-37.97c-.25-1.76.1-3.56.97-5.12l52.3-93.12c1.99-3.53,1.08-7.97-2.12-10.45l-3.96-3.05c-3.67-2.84-8.98-2.04-11.64,1.76l-32.94,46.84c-4.29,6.1-13.85,3.72-14.75-3.69l-9.75-79.34c-.53-4.37-4.44-7.52-8.83-7.11l-9.91.91c-4.23.39-7.45,3.98-7.39,8.24l1.42,97.29c.1,6.65-7.38,10.62-12.83,6.79l-40.62-28.51c-1.52-1.08-3.3-1.55-5.03-1.47-2.26.1-4.45,1.13-5.97,3.01-2.52,3.11-2.41,7.58.25,10.56l66.87,74.79c1.46,1.63,2.21,3.8,2.06,5.99l-2.34,34.06c-4.03,12.77-32.78,22.45-72.15,21.44-42.95-1.1-60.43-54.1-60.43-54.1-81.92,6.08-93.7-68.34-93.7-68.34-17.23-60.87,41.58-97.34,41.58-97.34-14.3-19.35-10.69-48.24-5.53-68.2,5.58-21.56,17.84-40.95,35.61-54.39,26.66-20.17,53.06-18.92,53.06-18.92-3.52-24.62,20.27-87.32,99.86-91.48,79.59-4.16,97.48,71.79,97.48,71.79,0,0,29.26-7.95,70.94,18.59,41.67,26.55,26.52,79.8,26.52,79.8Z" fill="#73a451"/><path d="M253.03,714.74l2.34-34.06c.15-2.19-.6-4.36-2.06-5.99l-66.87-74.79c-2.66-2.98-2.76-7.46-.25-10.56,1.52-1.87,3.71-2.9,5.97-3.01,1.74-.08,3.51.4,5.03,1.47l40.62,28.51c5.45,3.82,12.92-.14,12.83-6.79l-1.42-97.29c-.06-4.25,3.16-7.85,7.39-8.24l9.91-.91c4.39-.41,8.3,2.74,8.83,7.11l9.75,79.34c.9,7.41,10.46,9.8,14.75,3.69l32.94-46.84c2.66-3.8,7.97-4.6,11.64-1.76l3.96,3.05c3.2,2.48,4.11,6.92,2.12,10.45l-52.3,93.12c-.88,1.56-1.22,3.36-.97,5.12l5.31,37.97,16.91,120.67c.29,2.06,1.35,3.93,2.97,5.23l22.76,18.26c5.76,4.63,2.88,13.92-4.49,14.48l-111.67,8.46c-7.67.59-11.79-8.83-6.17-14.08l20.14-18.79c1.51-1.42,2.43-3.35,2.57-5.4l7.46-108.43Z" fill="#7b5736"/><path d="M228.37,863.2c-3.93,0-7.41-2.26-9.01-5.92-1.71-3.9-.81-8.31,2.31-11.21l20.14-18.79c1.19-1.12,1.91-2.62,2.02-4.24l9.81-142.49c.11-1.71-.48-3.43-1.62-4.7l-66.87-74.79c-3.25-3.64-3.38-9.04-.3-12.83,1.78-2.2,4.42-3.53,7.25-3.65,2.21-.1,4.33.52,6.12,1.79l40.62,28.51c2.01,1.41,4.5,1.56,6.66.42,2.17-1.15,3.44-3.3,3.41-5.75l-1.42-97.29c-.08-5.14,3.87-9.53,8.98-10.01l9.91-.91c5.37-.5,10.07,3.3,10.73,8.64l9.75,79.34c.39,3.22,2.73,4.91,4.79,5.43,2.06.52,4.93.12,6.79-2.53l32.94-46.84c1.56-2.23,3.91-3.69,6.61-4.09,2.7-.41,5.38.28,7.54,1.96l3.96,3.05c3.92,3.04,5.01,8.38,2.58,12.69l-52.3,93.12c-.69,1.22-.96,2.65-.76,4.02l22.23,158.64c.23,1.63,1.06,3.09,2.33,4.11l22.76,18.26c3.24,2.6,4.48,6.68,3.26,10.64-1.23,3.97-4.57,6.63-8.71,6.94l-111.68,8.46c-.26.02-.53.03-.79.03ZM192.53,588.07c-.1,0-.2,0-.29,0-1.83.08-3.54.94-4.69,2.36-1.99,2.45-1.9,5.94.2,8.29l66.87,74.79c1.77,1.97,2.68,4.62,2.5,7.27l-9.81,142.49c-.17,2.5-1.28,4.83-3.12,6.56l-20.14,18.79c-2.44,2.28-2.37,5.24-1.49,7.25.88,2.01,3,4.06,6.33,3.8l111.68-8.46c3.2-.24,5.01-2.48,5.63-4.49.62-2.01.4-4.87-2.1-6.88l-22.75-18.26c-1.97-1.58-3.25-3.83-3.61-6.35l-22.23-158.64c-.3-2.12.12-4.33,1.18-6.22l52.3-93.12c1.57-2.79.87-6.24-1.67-8.21l-3.95-3.05c-1.4-1.08-3.13-1.53-4.87-1.27-1.74.26-3.26,1.2-4.27,2.65l-32.94,46.84c-2.41,3.43-6.44,4.93-10.51,3.91-4.06-1.02-6.9-4.24-7.41-8.4l-9.75-79.33c-.42-3.45-3.46-5.9-6.93-5.58l-9.91.91c-3.3.3-5.85,3.15-5.8,6.47l1.42,97.29c.05,3.74-1.97,7.15-5.27,8.9-3.3,1.75-7.25,1.5-10.31-.65l-40.62-28.51c-1.08-.77-2.34-1.16-3.66-1.16Z" fill="#2b2b2b"/><path d="M186.52,737.99c-1.88,0-3.77-.02-5.69-.07-18.13-.46-34.62-10.21-47.69-28.18-8.14-11.19-12.54-22.14-13.9-25.83-2.74.18-5.41.26-7.99.26-37.26,0-58.4-17.55-69.78-32.95-12.92-17.48-16.15-35.41-16.44-37.11-9.04-32.09,2.97-57.36,14.64-72.93,10.36-13.81,22.02-22.42,26.17-25.26-13.35-19.69-10.01-47.8-4.75-68.17,5.79-22.39,18.66-42.05,36.24-55.35,22.91-17.33,45.37-19.15,52.16-19.28-1.06-13.2,4.62-34.84,20.1-53.67,13.15-15.98,37.98-35.52,81.62-37.8,41.86-2.19,66.64,17.83,80.05,35.01,12.19,15.61,17.34,31.38,18.78,36.47,6.96-1.29,33.96-4.16,70.62,19.18,17.52,11.16,27.78,28.86,29.69,51.18,1.15,13.42-1,24.6-1.98,28.8,22.7,5.66,42.17,20.67,53.59,41.41,12.49,22.68,14.03,50.21,4.33,77.51-10.98,30.92-28.02,46.78-40.39,54.64-11,6.99-20.2,9.06-23.48,9.62-8.06,34.49-33.73,56.03-74.32,62.33-31.78,4.93-62.53-1.07-65.94-1.77-.33-.07-.5-.11-.5-.11l.81-3.4s.15.03.39.08c3.35.69,33.53,6.57,64.7,1.74,40.06-6.22,64.19-26.68,71.71-60.81l.27-1.24,1.26-.13c.41-.04,41.9-5.01,62.19-62.13,9.36-26.35,7.9-52.86-4.1-74.65-11.23-20.4-30.57-35.01-53.04-40.1l-1.8-.41.5-1.78c.15-.52,14.28-52.32-25.78-77.84-40.44-25.76-69.26-18.46-69.55-18.38l-1.74.47-.42-1.75c-.04-.19-4.59-18.93-18.65-36.88-18.76-23.96-44.68-35.25-77.03-33.56-42.37,2.21-66.4,21.08-79.1,36.52-15.62,18.99-20.86,40.77-19.12,52.96l.3,2.09-2.11-.1c-.26-.01-26.13-.95-51.92,18.56-16.96,12.82-29.37,31.8-34.97,53.43-5.21,20.16-8.53,48.09,5.24,66.72l1.13,1.53-1.61,1c-.15.09-14.64,9.2-26.84,25.5-16.25,21.71-20.95,45.22-13.98,69.88l.04.2c.03.18,3.07,18.5,15.89,35.79,17.12,23.09,42.67,33.54,75.95,31.07l1.36-.1.43,1.3c.17.52,17.6,51.85,58.81,52.9,41.27,1.06,67.1-9.62,70.44-20.21.3-.97.43-1.96.39-2.95l3.5-.16c.06,1.4-.12,2.79-.54,4.15-4.3,13.64-31.98,22.74-68.18,22.74Z" fill="#2b2b2b"/><path d="M1149.5,545.15c31.58,11.2,52.76,49.17,32.42,90.28-20.34,41.12-51.83,40.58-51.83,40.58-20.63,59.27-100.39,33.91-106.05,32.03l-.59-28.11c-.03-1.3.38-2.58,1.15-3.64l46.14-63.29c1.75-2.4,1.47-5.71-.64-7.79l-2.62-2.56c-2.43-2.39-6.36-2.26-8.63.28l-28.04,31.26c-3.65,4.07-10.4,1.51-10.42-3.96l-.24-58.62c-.01-3.23-2.59-5.86-5.82-5.94l-7.29-.19c-3.11-.08-5.77,2.26-6.09,5.36l-7.37,70.97c-.51,4.85-6.29,7.09-9.93,3.84l-27.12-24.28c-1.02-.92-2.27-1.41-3.54-1.51-1.65-.12-3.34.44-4.61,1.67-2.1,2.04-2.41,5.31-.73,7.71l42.23,60.24c.92,1.32,1.28,2.96.98,4.54l-4.65,24.6c-4.04,8.95-25.81,13.51-54.39,9.37-31.19-4.51-39.33-44.62-39.33-44.62-60.18-2.66-62.33-57.86-62.33-57.86-7.28-45.82,38.69-67.29,38.69-67.29-8.74-15.33-3.61-36.05,1.87-50.14,5.92-15.22,16.53-28.28,30.63-36.53,21.15-12.38,40.27-9.19,40.27-9.19-.43-18.23,22.31-61.84,80.63-57.99,58.32,3.85,64.78,60.7,64.78,60.7,0,0,22-3.26,50.05,19.67,28.05,22.93,12.42,60.4,12.42,60.4Z" fill="#73a451"/><path d="M986.22,718.63l4.65-24.6c.3-1.58-.06-3.22-.98-4.54l-42.23-60.24c-1.68-2.4-1.37-5.67.73-7.71,1.27-1.23,2.95-1.79,4.61-1.67,1.27.09,2.52.59,3.54,1.51l27.12,24.28c3.64,3.25,9.42,1.01,9.93-3.84l7.37-70.97c.32-3.1,2.98-5.44,6.09-5.36l7.29.19c3.23.08,5.8,2.71,5.82,5.94l.24,58.62c.02,5.48,6.77,8.04,10.42,3.96l28.04-31.26c2.27-2.54,6.2-2.66,8.63-.28l2.62,2.56c2.12,2.08,2.39,5.39.64,7.79l-46.14,63.29c-.77,1.06-1.18,2.34-1.15,3.64l.59,28.11,1.89,89.34c.04,1.52.65,2.98,1.71,4.06l14.99,15.26c3.79,3.87.9,10.38-4.52,10.15l-82.05-3.49c-5.64-.24-7.83-7.45-3.28-10.78l16.29-11.94c1.22-.9,2.06-2.23,2.34-3.71l14.81-78.31Z" fill="#7b5736"/><path d="M1038.39,828.62c-.12,0-.23,0-.35,0l-82.06-3.49c-3.32-.14-6.09-2.28-7.06-5.46-.97-3.18.14-6.51,2.82-8.48l16.29-11.94c.87-.64,1.46-1.57,1.65-2.62l19.46-102.92c.21-1.11-.05-2.28-.7-3.21l-42.23-60.25c-2.18-3.12-1.79-7.31.94-9.97,1.58-1.54,3.75-2.33,5.96-2.16,1.72.13,3.31.8,4.58,1.95l27.11,24.27c1.21,1.08,2.83,1.38,4.34.79,1.51-.58,2.52-1.9,2.68-3.51l7.37-70.97c.41-3.99,3.86-7.04,7.88-6.93l7.29.19c4.2.11,7.5,3.48,7.52,7.68l.24,58.62c0,2.14,1.41,3.44,2.72,3.93,1.31.5,3.22.46,4.65-1.13l28.04-31.26c1.42-1.58,3.37-2.5,5.5-2.57,2.13-.07,4.14.72,5.66,2.21l2.62,2.56c2.76,2.72,3.11,6.95.83,10.07l-46.14,63.29c-.54.75-.83,1.66-.81,2.57l2.48,117.45c.03,1.08.46,2.11,1.21,2.87l14.99,15.27c2.27,2.31,2.86,5.59,1.54,8.55-1.27,2.85-3.95,4.59-7.04,4.59ZM952.55,621.59c-1.1,0-2.16.43-2.95,1.19-1.49,1.45-1.71,3.75-.52,5.45l42.23,60.24c1.19,1.69,1.65,3.83,1.27,5.87l-19.46,102.92c-.36,1.92-1.44,3.62-3.02,4.79l-16.29,11.94c-1.78,1.31-1.96,3.25-1.54,4.64.42,1.38,1.66,2.89,3.86,2.99l82.06,3.49c2.11.09,3.48-1.24,4.04-2.51.56-1.27.64-3.16-.84-4.67l-14.99-15.26c-1.38-1.4-2.17-3.27-2.21-5.25l-2.48-117.45c-.04-1.67.49-3.35,1.49-4.71l46.14-63.29c1.25-1.71,1.06-4.03-.46-5.51l-2.61-2.56c-.83-.82-1.93-1.24-3.1-1.21-1.16.04-2.23.54-3,1.4l-28.04,31.26c-2.15,2.4-5.49,3.21-8.5,2.06-3.01-1.15-4.96-3.97-4.97-7.19l-.24-58.62c0-2.3-1.81-4.14-4.11-4.2l-7.29-.19c-2.23-.06-4.08,1.61-4.31,3.79l-7.37,70.97c-.3,2.9-2.18,5.36-4.9,6.41-2.72,1.05-5.76.49-7.93-1.45l-27.12-24.28c-.7-.63-1.56-1-2.5-1.07-.1,0-.21-.01-.31-.01Z" fill="#2b2b2b"/><path d="M952.11,731.29c-6.35,0-13.27-.51-20.54-1.56-29.14-4.22-38.74-37.44-40.49-44.67-30.99-1.79-46.37-17.65-53.84-30.74-7.89-13.84-8.75-27.19-8.82-28.63-3.83-24.32,7.17-41.82,17.09-52.21,8.44-8.85,17.35-14.09,20.96-16.01-7.8-15.59-2.96-35.68,2.62-50.02,6.19-15.9,17.33-29.19,31.38-37.41,17.73-10.38,33.9-10.12,39.44-9.64.56-9.82,6.62-24.92,19.4-37.17,11.02-10.57,30.91-22.72,63.06-20.6,30.88,2.04,47.3,18.87,55.64,32.64,7.31,12.06,9.8,23.68,10.52,27.93,5.86-.29,25.52.46,49.67,20.2,25.27,20.66,16.21,52.97,13.55,60.72,15.97,6.19,28.78,18.82,35.3,34.89,7.19,17.72,5.92,38.03-3.56,57.2-18.52,37.45-45.87,41.17-52.15,41.52-8.98,24.43-29.64,37.9-59.82,38.98-23.65.85-45.6-6.2-48.03-7.01-.25-.08-.37-.13-.37-.13l1.2-3.29.27.09c2.37.79,23.76,7.66,46.8,6.83,29.5-1.06,48.69-13.77,57.05-37.77l.42-1.2,1.27.02c.3.01,30.66-.05,50.23-39.61,9.03-18.26,10.26-37.56,3.45-54.34-6.37-15.7-19.08-27.92-34.89-33.52l-1.74-.62.71-1.71c.15-.36,14.78-36.55-11.91-58.38-27.04-22.1-48.48-19.33-48.69-19.3l-1.78.26-.21-1.79c-.02-.14-1.7-14.11-10.35-28.31-11.51-18.91-29.28-29.29-52.81-30.85-30.87-2.04-49.89,9.55-60.4,19.63-12.92,12.38-18.57,27.64-18.36,36.57l.05,2.12-2.09-.35c-.18-.03-18.79-2.91-39.1,8.97-13.37,7.82-23.98,20.48-29.88,35.65-5.5,14.13-10.31,34.04-1.98,48.64l.94,1.65-1.72.8c-.45.21-44.69,21.48-37.7,65.43l.02.21c0,.13.64,13.65,8.44,27.26,10.39,18.12,27.96,27.86,52.22,28.93l1.36.06.27,1.34c.08.39,8.28,38.96,37.86,43.24,29.74,4.31,49.27-1.09,52.55-8.36.28-.63.45-1.29.5-1.96l3.49.26c-.08,1.07-.35,2.13-.79,3.13-3.44,7.63-17.15,11.95-35.7,11.95Z" fill="#2b2b2b"/><circle cx="1536.64" cy="556.31" r="434.66" fill="#fffae6"/><path d="M1536.64,994.97c-59.22,0-116.66-11.6-170.75-34.47-52.24-22.09-99.15-53.72-139.43-94.01s-71.91-87.2-94.01-139.43c-22.88-54.08-34.47-111.53-34.47-170.75s11.6-116.66,34.47-170.75c22.09-52.24,53.72-99.15,94.01-139.43,40.28-40.28,87.2-71.91,139.43-94.01,54.08-22.87,111.53-34.47,170.75-34.47s116.66,11.6,170.75,34.47c52.24,22.09,99.15,53.72,139.43,94.01,40.28,40.28,71.91,87.2,94.01,139.43,22.88,54.08,34.47,111.53,34.47,170.75s-11.6,116.66-34.47,170.75c-22.09,52.24-53.72,99.15-94.01,139.43s-87.2,71.91-139.43,94.01c-54.08,22.87-111.53,34.47-170.75,34.47ZM1536.64,125.66c-237.46,0-430.66,193.19-430.66,430.66s193.19,430.66,430.66,430.66,430.66-193.19,430.66-430.66-193.19-430.66-430.66-430.66Z" fill="#2b2b2b"/><path d="M1660.33,1260.68c40.87,83.72,107.91,284.3,18.26,494.87-12.03,28.26-27.24,55.21-54.98,68.42l-34.49,16.43h-2.52c6.87-9.3,5.13-16.86,5.13-16.86l-.38-116.28h.03c75.65-96.76,39.37-390.9-26.18-452.36l-.23-.92c33.27-8.42,75.33-13.49,95.07,6.85l.28-.14Z" fill="#fff5f5"/><path d="M1660.33,1260.68l-.28.14c-19.74-20.34-61.8-15.27-95.07-6.85-26.26,6.65-47.05,15.4-47.05,15.4l-.33,1.66c-3.41-.63-6.87-1.15-10.38-1.55l-29.34-3.36.03-.28c-8.81-23.92-17.49-44.43-34.05-57.9,20.33-17.75,50.87-34.02,86.07-26.87,0,0,91.11,5.44,126.36,71.56,1.31,2.55,2.65,5.24,4.03,8.05Z" fill="#c74444"/><path d="M1562.52,1338.25c-.09-.64-1.66-11.46-8.05-21.75-2.5-4.63-5.22-8.42-8.11-11.56-6.82-7.44-16.48-8.38-26.69-7.18,0,0-.03,0-.03,0-3.57.11-7.44.62-11.62,1.6-1.73.4-3.42.9-5.06,1.52-1.43.32-2.85.63-4.25.92-10.14,4.5-18.62,14.06-25.73,27.59-19.86,34.64-26.71,90.62-29.05,127.62,0,.03,0,.07,0,.1-2.39,24.09-4.06,49.67-5.23,75.83-5.15,114.7-.87,240.09-6.99,296.62-.74,6.92-1.9,18.24-2.39,25.16-4.19,57.36-87.08,45.17-87.08,45.17l-46.63-7.72-41.74-6.92-179.15-29.67-15.45-2.56c-7.29-1.27-13.41-2.4-18.66-3.5-15.68-3.26-23.44-6.21-30.56-11.64-1.15-.87-2.27-1.8-3.41-2.81-17.8-15.76-19.11-36.67-19.11-36.67-12.64-84.41,7.26-274.46,16.92-356.06,4.74-40.07,17.07-79.06,36.9-114.69,58.42-104.94,131.33-96.54,131.33-96.54-37.11-1.46-111.18,71.7-137.37,179.4-20.46,84.16-27.02,291.82-27.02,291.82,0,0,6.18,33.92,82.51,41.25,74.72,7.18,264.53,32.29,264.53,32.29,0,0,40.42,4.25,34.32-50.83,0,0,7.74-153.18,23.17-316.08,6.19-40.58,14.75-93.48,46.32-119.66,14.63-12.13,25.87-20.14,63.74-17.2,38.28,8.73,68.16,33.76,67.27,85.03.03.8.07,1.61.09,2.43l1.14,347.65.38,116.28s1.73,7.55-5.13,16.85c-4.87,6.58-14.04,14.02-31.18,20.29l-2.27-.22c14.5-14.31,12.84-38.51,12.84-38.51l-.37-331.68-.04-36.95c4.84-55.75,2.78-91.54-3.08-115.06ZM1278.19,1856.48c12.89-1.03,23.2-12.93,23.05-26.61-.14-13.68-10.69-24.02-23.59-23.09-12.95.94-23.37,12.88-23.21,26.65.16,13.76,10.81,24.08,23.75,23.05ZM1055.63,1826.72c12.63-.92,22.65-13.12,22.43-27.25-.22-14.14-10.63-24.94-23.27-24.1-12.69.84-22.81,13.06-22.57,27.29.24,14.22,10.74,24.99,23.41,24.07Z" fill="#c74444"/><path d="M1562.52,1338.25c5.86,23.52,7.92,59.31,3.08,115.06l-52.22,24.38-.12.23c-3.17-1.55-10.28-3.37-18.17,5.48-1.54.48-3.07,1.03-4.59,1.57-36.13,12.94-47.78,9.43-47.78,9.43,0,0-.21-15.26,1.19-37.27,0-.03,0-.07,0-.1,5.29-53.27,14.13-99.19,29.05-127.62,7.81-13.62,17.63-23.95,29.98-28.51,5.48-1.21,11.16-2.48,16.68-3.13,0,0,.03,0,.03,0,18.04-.59,28.65,8.84,34.8,18.74,3.11,5.79,5.85,12.89,8.05,21.75Z" fill="#c74444"/><polygon points="1518.9 1566.61 1534.27 1582.41 1522.22 1604.6 1488.87 1598.86 1498.35 1524.45 1516.56 1521.25 1518.9 1566.61" fill="#d9d9d9"/><path d="M1347,1251.12l29.65,3.4,30.23,3.46,40.18,4.61,30.83,3.53,29.34,3.36c3.51.4,6.97.92,10.38,1.55,1.77.34,3.52.7,5.25,1.1-37.87-2.94-49.11,5.07-63.74,17.2-31.58,26.19-40.13,79.08-46.32,119.66-15.44,162.89-23.17,316.08-23.17,316.08,6.11,55.08-34.32,50.83-34.32,50.83,0,0-189.81-25.11-264.53-32.29-76.33-7.33-82.51-41.25-82.51-41.25,0,0,6.56-207.67,27.02-291.82,26.19-107.7,100.26-180.85,137.37-179.4l45.57,5.22,46.27,5.31,55.15,6.32,27.35,3.13Z" fill="#c74444"/><path d="M1515,1478.98l1.03,33.63s-.09.16-.28.44c-1.58,2.45-9.67,13.95-18.83,8.33l-.08-1.56-1.77-36.42c7.88-8.85,15-7.03,18.17-5.48,1.12.54,1.75,1.06,1.75,1.06Z" fill="#c74444"/><path d="M1513.38,1477.69l52.22-24.38.04,36.95h-2.02l-46.32,22.93-1.54-.15c.18-.28.28-.44.28-.44l-1.03-33.63s-.63-.52-1.75-1.06l.12-.23Z" fill="#c74444"/><path d="M1516.56,1521.25l-18.22,3.2-9.48,74.41,33.35,5.74,12.05-22.19-15.38-15.8-2.33-45.36ZM1496.93,1521.38c9.16,5.62,17.25-5.88,18.83-8.33l1.54.15,46.32-22.93h2.02l.37,331.68s1.65,24.2-12.84,38.51c-3.01,2.97-6.71,5.51-11.27,7.32l-122.16,56.31s-31.51,7.17-71.75-1.07l-49.86-8.04.13-.81-2.69-21.9.02-.09,46.63,7.72s82.9,12.19,87.08-45.17c.5-6.93,1.65-18.24,2.39-25.16,6.12-56.53,1.83-181.92,6.99-296.62l1.65.08s19.87.89,56.04-13.19l.48-.03.08,1.56Z" fill="#c74444"/><path d="M1490.5,1484.97c1.52-.54,3.05-1.09,4.59-1.57l1.77,36.42-.48.03c-36.17,14.07-56.04,13.19-56.04,13.19l-1.65-.08c1.17-26.15,2.84-51.73,5.23-75.83-1.4,22.01-1.19,37.27-1.19,37.27,0,0,11.65,3.51,47.78-9.43Z" fill="#c74444"/><path d="M1382.63,1208.43c-23.76,8.39-34.81,40.23-35.63,42.69l-27.35-3.13.25-2.19s19.76-50.2,65.37-54.37c3.45-.32,7.06-.37,10.82-.11,21.36,1.45,36.43,7.37,47.78,16.62,16.56,13.47,25.24,33.98,34.05,57.9l-.03.28-30.83-3.53.19-1.65s-6.46-21.4-20.2-37.38c-7.69-8.94-17.65-16.19-30.03-17.06-5.24-.37-10.03.38-14.39,1.93Z" fill="#c74444"/><path d="M1447.25,1260.94l-.19,1.65-40.18-4.61v-.08s4.97-16.05,20.04-34.24l.13-.11c13.74,15.99,20.2,37.38,20.2,37.38Z" fill="#c74444"/><path d="M1385.09,1189.56l.19,1.87c-45.61,4.17-65.37,54.37-65.37,54.37l-.25,2.19-55.15-6.32.28-2.39-17.06-47.2c-5.15-14.23,3.51-29.24,18.48-32.25,33.95-6.81,68.17-5.88,91.8-3.71,16.99,1.55,29.39,16.95,27.09,33.45Z" fill="#c74444"/><path d="M1382.63,1208.43l-5.93,45.68-.04.41-29.65-3.4c.82-2.45,11.87-34.3,35.63-42.69Z" fill="#c74444"/><polygon points="1295.57 1892.27 1298.26 1914.17 1298.13 1914.98 1255.28 1908.07 1255.41 1907.3 1253.61 1886.71 1253.85 1885.27 1295.59 1892.19 1295.57 1892.27" fill="#c74444"/><path d="M1247.71,1192.08l17.06,47.2-.28,2.39-46.27-5.31.07-.59c-.07.45,11.64-73.44,47.89-75.95-14.97,3.01-23.63,18.02-18.48,32.25Z" fill="#fff5f5"/><path d="M1253.61,1886.71l1.8,20.59-.13.78-177.72-28.64v-.06c-4.87-5.28-2.97-23.08-2.97-23.08l.11-.69,179.15,29.67-.24,1.44Z" fill="#c74444"/><path d="M1077.57,1879.37v.06s-24.14-3.89-24.14-3.89c-2.89-.47-5.73-1.12-8.48-1.95-6.58-10.41-4.63-22.8-4.63-22.8l.27-1.24c5.25,1.09,11.37,2.22,18.66,3.5l15.45,2.56-.11.69s-1.9,17.8,2.98,23.08Z" fill="#c74444"/><path d="M1040.59,1849.55l-.27,1.24s-1.96,12.39,4.63,22.8c-10.19-3.08-19.25-8.61-26.01-16.31-4.56-5.19-8.31-11.52-9.33-18.81l.42-.55c7.12,5.43,14.88,8.37,30.56,11.64Z" fill="#c74444"/><path d="M1077.6,1797.76c.22,14.13-9.8,26.33-22.43,27.25-12.67.92-23.17-9.85-23.41-24.07-.24-14.23,9.88-26.45,22.57-27.29,12.64-.84,23.05,9.96,23.27,24.1Z" fill="#d9d9d9"/><path d="M1300.78,1828.17c.15,13.68-10.16,25.58-23.05,26.61-12.94,1.03-23.59-9.29-23.75-23.05-.16-13.77,10.25-25.71,23.21-26.65,12.9-.93,23.45,9.41,23.59,23.09Z" fill="#d9d9d9"/><path d="M1513.38,1480.69c-1.13,0-2.21-.64-2.72-1.73-.7-1.5-.05-3.29,1.45-3.99l52.22-24.38c1.5-.7,3.29-.05,3.99,1.45.7,1.5.05,3.29-1.45,3.99l-52.22,24.38c-.41.19-.84.28-1.27.28Z" fill="#2b2b2b"/><path d="M1447.66,1497.86c-3.6,0-5.36-.45-5.8-.58-1.59-.48-2.49-2.15-2.01-3.74.47-1.57,2.12-2.47,3.69-2.02.3.07,12.08,2.76,45.95-9.37,1.54-.55,3.12-1.11,4.71-1.61,1.58-.5,3.26.39,3.76,1.97.49,1.58-.39,3.26-1.97,3.76-1.48.46-3,1-4.46,1.52-23.6,8.45-37.04,10.07-43.86,10.07Z" fill="#2b2b2b"/><path d="M1517.31,1516.2c-1.1,0-2.17-.61-2.69-1.67-.74-1.48-.13-3.28,1.36-4.02l46.32-22.93c1.48-.74,3.28-.13,4.02,1.36.74,1.48.13,3.28-1.36,4.02l-46.32,22.93c-.43.21-.88.31-1.33.31Z" fill="#2b2b2b"/><path d="M1441.16,1536.05c-.55,0-.87-.01-.96-.02-1.66-.07-2.94-1.48-2.86-3.13.07-1.65,1.45-2.92,3.12-2.86h0c.2,0,19.83.63,54.82-12.99,1.54-.6,3.28.16,3.88,1.71.6,1.54-.16,3.28-1.71,3.88-32.37,12.6-51.84,13.4-56.3,13.4Z" fill="#2b2b2b"/><path d="M1477.92,1268.84c-1.22,0-2.37-.75-2.82-1.96-8.54-23.17-16.92-43.43-33.13-56.61-11.57-9.42-26.64-14.63-46.09-15.95-3.49-.24-6.97-.2-10.34.11-43.19,3.95-62.66,52-62.85,52.48-.61,1.54-2.35,2.3-3.89,1.69-1.54-.61-2.3-2.35-1.69-3.89.83-2.12,20.98-51.97,67.89-56.26,3.69-.34,7.49-.38,11.3-.12,20.73,1.4,36.91,7.06,49.47,17.28,17.38,14.14,26.12,35.17,34.97,59.19.57,1.55-.22,3.28-1.78,3.85-.34.13-.69.19-1.04.19Z" fill="#2b2b2b"/><path d="M1447.25,1263.94c-1.29,0-2.48-.84-2.87-2.13-.06-.21-6.46-21-19.6-36.3-8.54-9.92-17.95-15.31-27.96-16.02-4.55-.32-8.98.27-13.18,1.76-22.61,7.99-33.34,39.47-33.79,40.81l-.06.18c-.54,1.57-2.24,2.4-3.81,1.87-1.57-.53-2.4-2.24-1.87-3.81l.04-.13c1.21-3.64,12.56-35.78,37.48-44.58,4.97-1.77,10.22-2.47,15.6-2.09,11.67.82,22.47,6.91,32.09,18.09,13.99,16.28,20.52,37.57,20.8,38.47.48,1.59-.42,3.26-2,3.74-.29.09-.58.13-.87.13Z" fill="#2b2b2b"/><path d="M1589.13,1843.39c-1.12,0-2.2-.63-2.71-1.71-.71-1.5-.08-3.29,1.42-4l34.49-16.43c27.67-13.17,42.58-41.2,53.51-66.88,96.03-225.56,10.35-433.9-18.2-492.38-1.39-2.85-2.74-5.54-4-8-17.71-33.22-50.33-50.46-74.58-59.07-26.49-9.41-49.07-10.86-49.29-10.87-.14,0-.28-.03-.42-.05-37.77-7.66-68.53,13.12-83.5,26.19-.03.02-.05.05-.08.07-.07.06-.13.11-.19.15-1.32,1-3.2.73-4.2-.59-.98-1.3-.74-3.13.51-4.14.01-.01.03-.02.04-.03,15.79-13.78,48.23-35.64,88.41-27.58,2.54.17,24.38,1.87,50.57,11.14,36.29,12.85,63.27,34.28,78.05,62,1.3,2.54,2.67,5.26,4.08,8.15,16.82,34.46,46.78,106.38,58.36,200.82,12.8,104.32-.67,204.1-40.03,296.54-11.38,26.72-26.98,55.92-56.45,69.95l-34.49,16.43c-.42.2-.86.29-1.29.29Z" fill="#2b2b2b"/><path d="M1406.89,1260.9c-.29,0-.59-.04-.89-.14-1.58-.49-2.47-2.17-1.98-3.75.21-.68,5.31-16.83,20.59-35.27,1.06-1.28,2.95-1.45,4.22-.4,1.28,1.06,1.45,2.95.4,4.22-14.47,17.46-19.43,33.06-19.48,33.21-.4,1.28-1.59,2.11-2.86,2.11Z" fill="#2b2b2b"/><path d="M1591.39,1710.25c-.65,0-1.3-.21-1.85-.64-1.31-1.02-1.54-2.91-.52-4.21,33.42-42.75,48.09-131.47,39.24-237.32-8.14-97.33-34.31-182.13-65.1-211.01-1.21-1.13-1.27-3.03-.14-4.24s3.03-1.27,4.24-.14c31.8,29.82,58.72,116.18,66.98,214.89,8.98,107.32-6.16,197.6-40.49,241.51-.59.76-1.47,1.15-2.37,1.15Z" fill="#2b2b2b"/><path d="M1517.93,1272.37c-1.17,0-2.28-.69-2.77-1.84-.64-1.53.07-3.29,1.6-3.93.21-.09,21.3-8.92,47.48-15.54,33.14-8.39,77.04-13.88,97.96,7.67,1.15,1.19,1.13,3.09-.06,4.24-1.19,1.15-3.09,1.13-4.24-.06-18.92-19.49-60.57-14.03-92.18-6.03-25.72,6.51-46.41,15.17-46.62,15.26-.38.16-.77.24-1.16.24Z" fill="#2b2b2b"/><path d="M1264.78,1242.28c-1.23,0-2.38-.76-2.82-1.98l-17.06-47.2c-2.72-7.52-2.07-15.78,1.8-22.65,3.94-7,10.83-11.94,18.91-13.56,34.67-6.96,69.53-5.88,92.67-3.76,9,.82,17.4,5.36,23.03,12.46,5.57,7.02,7.97,15.68,6.76,24.39-.23,1.64-1.74,2.79-3.39,2.56-1.64-.23-2.79-1.74-2.56-3.39.99-7.06-.97-14.1-5.52-19.83-4.62-5.82-11.5-9.54-18.88-10.22-22.74-2.09-56.98-3.15-90.94,3.67-6.36,1.28-11.78,5.15-14.86,10.62-3.05,5.42-3.54,11.7-1.38,17.66l17.06,47.2c.56,1.56-.24,3.28-1.8,3.84-.34.12-.68.18-1.02.18Z" fill="#2b2b2b"/><path d="M1376.7,1257.11c-.13,0-.26,0-.39-.03-1.64-.21-2.8-1.72-2.59-3.36l5.97-45.92c.25-1.64,1.78-2.76,3.42-2.51,1.64.25,2.76,1.78,2.51,3.42l-.03.17-5.93,45.61c-.2,1.51-1.49,2.61-2.97,2.61Z" fill="#2b2b2b"/><path d="M1218.3,1238.78c-.15,0-.31-.01-.47-.04-1.63-.26-2.75-1.79-2.49-3.42,0-.02,0-.03,0-.05.54-3.31,12.92-75.83,50.64-78.43,1.66-.11,3.09,1.13,3.2,2.79.11,1.65-1.13,3.09-2.79,3.2-33.1,2.29-45.02,72.71-45.14,73.43-.24,1.47-1.52,2.53-2.96,2.53Z" fill="#2b2b2b"/><path d="M1255.4,1910.3c-1.54,0-2.85-1.18-2.99-2.74l-1.8-20.59c-.14-1.65,1.08-3.11,2.73-3.25,1.65-.15,3.11,1.08,3.25,2.73l1.8,20.59c.14,1.65-1.08,3.11-2.73,3.25-.09,0-.18.01-.26.01Z" fill="#2b2b2b"/><path d="M1298.26,1917.17c-1.49,0-2.79-1.11-2.97-2.63l-2.69-21.9c-.2-1.64.97-3.14,2.61-3.34,1.65-.2,3.14.97,3.34,2.61l2.69,21.9c.2,1.64-.97,3.14-2.61,3.34-.12.02-.25.02-.37.02Z" fill="#2b2b2b"/><path d="M1045.12,1876.85c-1.02,0-2.01-.52-2.57-1.45l-.17-.26c-7.07-11.18-5.1-24.26-5.02-24.81.26-1.64,1.8-2.75,3.43-2.5,1.63.26,2.75,1.79,2.5,3.42h0c-.02.11-1.67,11.45,4.2,20.74l-2.45,1.73,2.52-1.63.13.21c.85,1.42.4,3.26-1.02,4.12-.48.29-1.02.43-1.54.43Z" fill="#2b2b2b"/><path d="M1077.57,1882.37c-.81,0-1.61-.32-2.21-.96-5.52-5.98-4.1-22.23-3.76-25.43.17-1.65,1.66-2.84,3.3-2.67,1.65.17,2.84,1.65,2.67,3.3-.72,6.83-.52,17.78,2.2,20.72,1.12,1.22,1.05,3.12-.17,4.24-.58.53-1.31.8-2.03.8Z" fill="#2b2b2b"/><path d="M1360.2,1904.03c-10.28,0-17.67-1.04-18.42-1.15l-283.02-46.87c-8.16-1.43-13.95-2.51-18.78-3.52-16.22-3.38-24.24-6.45-31.77-12.19-1.2-.91-2.37-1.88-3.58-2.95-17.95-15.89-19.95-36.51-20.11-38.58-12.73-85.29,7.59-277.87,16.92-356.74,4.87-41.16,17.4-80.12,37.26-115.8,30.59-54.95,65.28-78.68,89-88.92,25.97-11.21,44.51-9.23,45.29-9.14l334.57,38.34c3.57.41,7.13.94,10.58,1.58,2.01.38,3.76.75,5.39,1.13,21.28,4.85,38.07,14.11,49.89,27.5,13.49,15.28,20.11,35.6,19.7,60.42.03.78.07,1.57.09,2.37l1.52,463.76c.3,1.85,1.06,9.73-5.72,18.9-6.34,8.57-17.29,15.74-32.57,21.32-1.55.57-3.28-.23-3.85-1.79-.57-1.56.23-3.28,1.79-3.85,14.15-5.17,24.18-11.65,29.8-19.25,5.86-7.94,4.67-14.17,4.61-14.43-.04-.2-.07-.43-.07-.63l-1.52-463.94c-.02-.72-.06-1.52-.09-2.31,0-.06,0-.12,0-.18.96-55.36-34.79-75.18-64.94-82.06-1.56-.37-3.24-.72-5.15-1.08-3.31-.61-6.73-1.12-10.16-1.52l-334.57-38.34c-.17-.02-18.03-1.85-42.62,8.86-22.76,9.91-56.11,32.91-85.75,86.16-19.47,34.99-31.77,73.2-36.54,113.58-9.31,78.66-29.59,270.75-16.93,355.26.01.09.02.17.03.26.01.19,1.51,19.91,18.11,34.61,1.1.97,2.16,1.84,3.24,2.67,6.72,5.12,14.13,7.92,29.36,11.09,4.77.99,10.49,2.07,18.56,3.48l282.94,46.85c.39.06,44.93,6.31,68.8-12.85,8.91-7.15,13.89-17.1,14.8-29.58.58-8.02,1.99-21.36,2.4-25.26,3.24-29.96,3.55-79.38,3.9-136.61.31-49.76.66-106.16,3.07-159.82,1.27-28.36,2.98-53.21,5.24-75.99.16-1.65,1.64-2.85,3.28-2.69,1.65.16,2.85,1.63,2.69,3.28-2.25,22.67-3.95,47.42-5.22,75.66-2.4,53.55-2.75,109.89-3.06,159.59-.36,57.39-.66,106.95-3.94,137.22-.42,3.87-1.81,17.13-2.38,25.05-1.04,14.21-6.77,25.59-17.04,33.83-15.82,12.69-38.96,15.24-55.05,15.24Z" fill="#2b2b2b"/><path d="M1443.92,1460.03c-.1,0-.2,0-.3-.01-1.65-.16-2.85-1.63-2.69-3.28,6-60.38,15.61-102.49,29.38-128.72,7.67-14.61,16.81-24.34,27.17-28.94.19-.09.39-.15.6-.19,1.38-.29,2.79-.6,4.21-.91l.63-.14c5.36-1.18,10.9-2.4,16.36-3.04,1.65-.19,3.13.99,3.33,2.63.19,1.65-.99,3.14-2.63,3.33-5.16.6-10.55,1.79-15.77,2.94l-.62.14c-1.33.3-2.65.59-3.96.86-8.98,4.09-17.05,12.87-24.01,26.12-13.41,25.54-22.81,66.92-28.72,126.52-.15,1.55-1.46,2.7-2.98,2.7Z" fill="#2b2b2b"/><path d="M1387.55,1930c-11.41,0-25.12-.97-40.1-4.03l-294.5-47.47c-2.99-.48-5.97-1.17-8.86-2.04-10.94-3.3-20.42-9.25-27.4-17.21-5.68-6.47-9.06-13.32-10.05-20.38-.23-1.64.92-3.16,2.56-3.39,1.64-.23,3.16.92,3.39,2.56.82,5.87,3.71,11.67,8.61,17.25,6.25,7.11,14.76,12.45,24.63,15.42,2.64.79,5.36,1.42,8.08,1.86l294.56,47.48s.08.01.12.02c37.06,7.58,66.95,1.82,70.2,1.14l121.86-56.17s.1-.04.15-.06c3.9-1.55,7.36-3.79,10.26-6.67,13.32-13.14,11.97-35.95,11.96-36.18,0-.06,0-.13,0-.2l-.41-368.63c0-.09,0-.18.01-.26,4.42-50.9,3.44-88.22-3-114.08-2.02-8.12-4.64-15.2-7.79-21.05-2.28-4.22-4.79-7.8-7.67-10.95-5.19-5.66-12.63-7.58-24.13-6.23-1.66.19-3.14-.99-3.33-2.63-.19-1.65.98-3.14,2.63-3.33,8.45-.99,20.67-1.22,29.25,8.14,3.23,3.52,6.02,7.5,8.54,12.16,3.43,6.39,6.15,13.73,8.32,22.45,6.59,26.49,7.63,64.41,3.16,115.91l.41,368.4c.12,2.06,1.21,25.99-13.74,40.74-3.46,3.42-7.57,6.1-12.19,7.94l-122.09,56.27c-.19.09-.39.15-.59.2-.83.19-13.51,2.99-32.85,2.99Z" fill="#2b2b2b"/><path d="M1501.99,1525.9c-2.17,0-4.4-.59-6.63-1.96-.84-.52-1.38-1.42-1.43-2.41l-1.84-37.98c-.04-.79.23-1.55.76-2.14,9.41-10.56,18.33-7.84,21.72-6.18,1.36.66,2.19,1.31,2.34,1.44.67.55,1.07,1.36,1.09,2.22l1.03,33.63c.02.55-.13,1.11-.4,1.6,0,0-.12.22-.36.58-3.72,5.78-9.73,11.2-16.28,11.2ZM1499.84,1519.47c5.98,2.17,11.58-5.33,13.17-7.7l-.96-31.1s-.07-.03-.11-.05c-2.59-1.27-7.72-2.36-13.8,3.9l1.69,34.96Z" fill="#2b2b2b"/><path d="M1522.22,1607.6c-.17,0-.34-.01-.51-.04l-33.35-5.74c-1.58-.27-2.67-1.74-2.47-3.34l9.48-74.41c.17-1.3,1.16-2.35,2.46-2.58l18.22-3.2c.84-.15,1.72.07,2.39.61.67.54,1.08,1.33,1.13,2.19l2.28,44.23,14.59,14.99c.92.94,1.11,2.37.49,3.52l-12.05,22.19c-.53.98-1.55,1.57-2.64,1.57ZM1492.21,1596.39l28.4,4.89,9.97-18.36-13.83-14.21c-.51-.52-.81-1.21-.85-1.94l-2.16-41.97-12.7,2.23-8.83,69.37Z" fill="#2b2b2b"/><path d="M1357.27,1777.73h0c-1.31,0-2.11-.08-2.14-.09l-8.8-1.16c-.96-.13-1.63-1-1.51-1.96.13-.96,1.01-1.63,1.96-1.51l8.76,1.15h0s.66.06,1.73.06h0c3.8,0,13.44-.78,20.95-7.98.7-.67,1.8-.65,2.47.05.67.7.65,1.81-.05,2.47-8.42,8.08-19.15,8.95-23.37,8.95ZM1334.61,1774.94c-.08,0-.15,0-.23-.01-9.24-1.21-21.14-2.75-34.79-4.51-.96-.12-1.64-1-1.51-1.96.12-.96,1-1.63,1.96-1.51,13.65,1.76,25.55,3.31,34.79,4.51.96.13,1.63,1,1.51,1.96-.12.88-.87,1.52-1.73,1.52ZM1287.89,1768.89c-.07,0-.15,0-.23-.01-10.89-1.4-22.61-2.89-34.78-4.43-.96-.12-1.64-1-1.52-1.96.12-.96,1-1.64,1.96-1.52,12.18,1.54,23.9,3.04,34.79,4.43.96.12,1.64,1,1.51,1.96-.11.88-.87,1.53-1.73,1.53ZM1241.18,1762.96c-.07,0-.15,0-.22-.01-11.42-1.44-23.11-2.89-34.79-4.33-.96-.12-1.64-.99-1.52-1.95.12-.96,1-1.64,1.95-1.52,11.68,1.44,23.38,2.9,34.8,4.33.96.12,1.64,1,1.52,1.95-.11.88-.87,1.53-1.73,1.53ZM1386.21,1759.48c-.24,0-.48-.05-.72-.15-.88-.4-1.27-1.43-.88-2.31,2.58-5.73,3.89-12.86,3.89-21.19,0-3.3-.21-6.85-.62-10.56-.01-.1-.01-.21,0-.31l.09-1.74c.05-.97.88-1.71,1.84-1.66.96.05,1.71.87,1.66,1.84l-.06,1.14c0,.11-.01.26-.03.43.42,3.8.63,7.45.63,10.86,0,8.82-1.41,16.44-4.2,22.63-.29.65-.93,1.03-1.6,1.03ZM1194.45,1757.16c-.07,0-.14,0-.21-.01-12.37-1.51-24.08-2.92-34.8-4.19-.96-.11-1.65-.98-1.53-1.94.11-.96.98-1.65,1.94-1.53,10.73,1.27,22.44,2.68,34.82,4.19.96.12,1.64.99,1.52,1.95-.11.89-.86,1.54-1.73,1.54ZM1147.7,1751.56c-.07,0-.14,0-.21-.01-13-1.51-24.72-2.84-34.84-3.93-.96-.1-1.66-.97-1.55-1.93.1-.96.96-1.66,1.93-1.55,10.13,1.09,21.86,2.42,34.87,3.93.96.11,1.65.98,1.54,1.94-.1.89-.86,1.55-1.74,1.55ZM1100.89,1746.37c-.06,0-.12,0-.18,0-3.56-.37-6.93-.7-10.1-1.01-8.81-.85-17.14-2.09-24.74-3.71-.95-.2-1.55-1.13-1.35-2.08.2-.95,1.13-1.55,2.08-1.35,7.47,1.59,15.67,2.82,24.35,3.65,3.17.3,6.56.64,10.12,1.01.96.1,1.66.96,1.56,1.92-.09.9-.85,1.57-1.74,1.57ZM1054.6,1738.77c-.16,0-.33-.02-.49-.07-13-3.79-23.75-8.91-31.98-15.22-.77-.59-.91-1.69-.32-2.45.59-.77,1.69-.91,2.45-.32,7.88,6.04,18.25,10.96,30.83,14.63.93.27,1.46,1.24,1.19,2.17-.22.76-.92,1.26-1.68,1.26ZM1014.54,1715.59c-.51,0-1.01-.22-1.35-.64-5.44-6.61-6.53-11.7-6.64-12.26-.02-.13-.03-.26-.03-.39,0-.08.27-8.34.83-21.95.04-.97.87-1.71,1.82-1.68.97.04,1.72.86,1.68,1.82-.52,12.37-.78,20.3-.82,21.7.21.87,1.42,5.13,5.87,10.53.61.75.51,1.85-.24,2.46-.33.27-.72.4-1.11.4ZM1390.36,1713.04s-.07,0-.1,0c-.97-.05-1.71-.88-1.65-1.84.6-10.88,1.28-22.65,2.02-35,.06-.97.9-1.7,1.85-1.64.96.06,1.7.89,1.64,1.85-.74,12.34-1.42,24.11-2.02,34.98-.05.93-.82,1.65-1.75,1.65ZM1009.62,1670.15s-.05,0-.08,0c-.97-.04-1.71-.86-1.67-1.83.52-11.64,1.11-23.43,1.74-35.05.05-.96.88-1.7,1.84-1.65.96.05,1.71.88,1.65,1.84-.63,11.61-1.21,23.39-1.74,35.02-.04.94-.82,1.67-1.75,1.67ZM1393.12,1666.06s-.07,0-.11,0c-.96-.06-1.7-.89-1.64-1.85.71-11.51,1.46-23.28,2.23-34.97.06-.96.9-1.69,1.86-1.63.96.06,1.7.9,1.63,1.86-.77,11.68-1.52,23.45-2.23,34.95-.06.93-.83,1.64-1.75,1.64ZM1012.03,1623.11s-.07,0-.1,0c-.96-.06-1.7-.88-1.65-1.85.68-11.92,1.42-23.7,2.19-35.01.07-.96.9-1.69,1.86-1.63.96.07,1.69.9,1.63,1.86-.77,11.31-1.5,23.07-2.19,34.98-.05.93-.83,1.65-1.75,1.65ZM1396.14,1619.12s-.08,0-.12,0c-.96-.06-1.69-.9-1.63-1.86.78-11.62,1.59-23.38,2.42-34.95.07-.96.91-1.69,1.87-1.62.96.07,1.69.91,1.62,1.87-.82,11.56-1.63,23.32-2.41,34.93-.06.92-.83,1.63-1.74,1.63ZM1015.05,1576.12s-.08,0-.13,0c-.96-.07-1.69-.91-1.62-1.87.87-12.09,1.79-23.86,2.73-34.97.08-.96.93-1.68,1.89-1.6.96.08,1.68.93,1.6,1.89-.95,11.1-1.86,22.85-2.73,34.93-.07.92-.83,1.62-1.74,1.62ZM1399.41,1572.2s-.08,0-.13,0c-.96-.07-1.69-.91-1.62-1.87.84-11.61,1.72-23.36,2.6-34.93.07-.96.91-1.68,1.88-1.61.96.07,1.68.92,1.61,1.88-.89,11.56-1.76,23.31-2.6,34.92-.07.92-.83,1.62-1.74,1.62ZM1018.84,1529.17c-.05,0-.11,0-.16,0-.96-.09-1.67-.94-1.58-1.9,1.11-12.29,2.29-24.04,3.5-34.92.11-.96.97-1.66,1.93-1.55.96.11,1.65.97,1.55,1.93-1.2,10.85-2.38,22.58-3.49,34.85-.08.91-.85,1.59-1.74,1.59ZM1402.94,1525.3s-.09,0-.14,0c-.96-.08-1.68-.92-1.61-1.88.92-11.73,1.86-23.47,2.81-34.91.08-.96.93-1.68,1.89-1.6.96.08,1.68.93,1.6,1.89-.95,11.44-1.89,23.18-2.81,34.9-.07.92-.84,1.61-1.74,1.61ZM1023.71,1482.35c-.07,0-.14,0-.21-.01-.96-.12-1.64-.99-1.53-1.95,1.52-12.67,3.12-24.37,4.77-34.8.15-.95,1.04-1.6,2-1.46.95.15,1.61,1.05,1.46,2-1.64,10.38-3.23,22.05-4.75,34.67-.11.89-.86,1.54-1.74,1.54ZM1406.75,1478.43s-.1,0-.15,0c-.96-.08-1.68-.93-1.6-1.89,1-11.83,2.02-23.57,3.03-34.9.09-.96.92-1.67,1.9-1.59.96.09,1.67.94,1.59,1.9-1.01,11.32-2.03,23.05-3.03,34.88-.08.91-.84,1.6-1.74,1.6ZM1030.45,1435.75c-.1,0-.2,0-.31-.03-.95-.17-1.59-1.08-1.42-2.03,1.56-8.81,3.2-16.74,4.86-23.57.87-3.59,1.82-7.21,2.81-10.77.26-.93,1.22-1.48,2.15-1.22.93.26,1.48,1.22,1.22,2.15-.98,3.53-1.92,7.11-2.78,10.66-1.64,6.76-3.26,14.62-4.81,23.36-.15.85-.89,1.44-1.72,1.44ZM1410.86,1431.59c-.05,0-.11,0-.16,0-.96-.09-1.67-.94-1.58-1.9.63-6.92,1.28-13.87,1.94-20.84.65-4.25,1.39-9.09,2.19-14.04.16-.95,1.04-1.6,2.01-1.45.95.16,1.6,1.05,1.45,2.01-.8,4.93-1.54,9.76-2.18,13.9-.65,6.87-1.29,13.81-1.92,20.73-.08.91-.85,1.59-1.74,1.59ZM1041.5,1390.07c-.18,0-.35-.03-.53-.08-.92-.29-1.43-1.28-1.14-2.2,3.53-11.14,7.68-22.23,12.33-32.94.39-.89,1.42-1.29,2.3-.91.89.39,1.29,1.42.91,2.3-4.61,10.6-8.71,21.57-12.21,32.6-.24.75-.93,1.22-1.67,1.22ZM1417.01,1384.99c-.1,0-.21,0-.31-.03-.95-.17-1.58-1.08-1.41-2.03,2.39-13.14,4.95-24.36,7.85-34.29.27-.93,1.24-1.46,2.17-1.19.93.27,1.46,1.24,1.19,2.17-2.86,9.82-5.4,20.92-7.76,33.94-.15.85-.89,1.44-1.72,1.44ZM1058.75,1346.38c-.25,0-.51-.06-.75-.17-.87-.42-1.24-1.46-.82-2.33,5.09-10.65,10.75-21.05,16.82-30.9.51-.82,1.59-1.08,2.41-.57.82.51,1.08,1.59.57,2.41-6.01,9.74-11.61,20.03-16.64,30.57-.3.63-.93,1-1.58,1ZM1428.47,1339.45c-.19,0-.39-.03-.58-.1-.91-.32-1.39-1.32-1.07-2.23,4.42-12.52,9.51-22.91,15.57-31.75.54-.8,1.63-1,2.43-.46.8.55,1,1.63.46,2.43-5.88,8.59-10.83,18.71-15.15,30.94-.25.72-.93,1.17-1.65,1.17ZM1081.98,1305.55c-.34,0-.67-.1-.97-.3-.8-.54-1.02-1.63-.48-2.43,6.74-10.03,13.93-19.45,21.37-27.98.64-.73,1.74-.8,2.47-.17.73.64.8,1.74.17,2.47-7.35,8.42-14.45,17.72-21.1,27.63-.34.5-.89.77-1.45.77ZM1451.23,1298.68c-.42,0-.84-.15-1.17-.45-.72-.65-.77-1.75-.13-2.47,2.55-2.83,5.27-5.44,8.07-7.76,6.5-5.39,12.52-10.11,20.47-13.35.9-.37,1.92.06,2.28.96.37.89-.06,1.92-.96,2.28-7.5,3.06-13.06,7.43-19.56,12.81-2.68,2.22-5.27,4.71-7.71,7.42-.35.38-.82.58-1.3.58ZM1490.63,1274.7c-.83,0-1.56-.59-1.72-1.43-.17-.95.45-1.86,1.4-2.04,5.32-.98,11.24-1.45,18.09-1.45,4.43,0,9.34.21,14.59.61.84.06,1.71.13,2.59.21.96.08,1.71.93,1.63,1.9-.08.96-.88,1.68-1.86,1.6h-.07c-.86-.08-1.71-.16-2.55-.21-5.17-.4-9.99-.6-14.33-.6-6.64,0-12.35.46-17.46,1.4-.11.02-.21.03-.32.03ZM1111.33,1268.9c-.44,0-.88-.16-1.22-.49-.7-.67-.71-1.78-.04-2.47,8.95-9.26,17.95-17.01,26.77-23.03.8-.54,1.89-.34,2.43.46.54.8.34,1.89-.46,2.43-8.62,5.89-17.44,13.48-26.22,22.57-.34.36-.8.53-1.26.53ZM1148.08,1239.87c-.63,0-1.23-.34-1.55-.93-.45-.85-.13-1.91.73-2.37,9.53-5.05,18.13-7.46,25.47-7.18.97.04,1.72.85,1.68,1.82-.04.97-.86,1.71-1.82,1.68-6.73-.27-14.72,2.03-23.69,6.78-.26.14-.54.2-.82.2Z" fill="#2b2b2b"/><path d="M1054.13,1829.77c-5.87,0-11.48-2.2-15.95-6.28-5.56-5.08-8.82-12.66-8.96-20.79-.27-15.79,11.11-29.39,25.37-30.33,6.47-.43,12.71,1.81,17.58,6.3,5.52,5.09,8.76,12.65,8.89,20.75h0c.25,15.67-11.06,29.26-25.21,30.29-.58.04-1.15.06-1.72.06ZM1056.14,1778.32c-.38,0-.77.01-1.15.04-11.11.73-19.98,11.61-19.77,24.24.11,6.49,2.67,12.49,7.01,16.46,3.67,3.36,8.36,5.01,13.18,4.66,11.03-.8,19.85-11.67,19.65-24.21h0c-.1-6.46-2.64-12.45-6.96-16.43-3.36-3.09-7.57-4.76-11.96-4.76Z" fill="#2b2b2b"/><path d="M1276.42,1859.55c-6.12,0-11.89-2.23-16.44-6.39-5.42-4.95-8.45-11.94-8.53-19.7-.18-15.31,11.48-28.62,25.99-29.68,6.82-.49,13.34,1.78,18.34,6.39,5.38,4.96,8.39,11.94,8.47,19.66h0c.16,15.19-11.42,28.49-25.81,29.63-.67.05-1.34.08-2.01.08ZM1279.24,1809.72c-.46,0-.92.02-1.38.05-11.4.83-20.57,11.42-20.42,23.62.07,6.08,2.41,11.53,6.58,15.34,3.81,3.48,8.76,5.17,13.93,4.75,11.32-.9,20.42-11.48,20.29-23.58h0c-.06-6.05-2.38-11.49-6.53-15.31-3.44-3.17-7.82-4.87-12.46-4.87Z" fill="#2b2b2b"/><path d="M1400.7,1926.67c-1.66,0-3-1.34-3-3v-28.82c0-1.66,1.34-3,3-3s3,1.34,3,3v28.82c0,1.66-1.34,3-3,3Z" fill="#2b2b2b"/><path d="M1442.72,1497.4c-1.64,0-2.98-1.32-3-2.96,0-.15-.19-15.6,1.19-37.43,0-.08,0-.18.02-.29,2.53-39.77,9.69-94.35,29.44-128.8,8.78-15.3,19.39-25.34,31.54-29.83,1.75-.66,3.58-1.21,5.44-1.64,4.14-.97,8.19-1.54,12.01-1.67.1-.01.21-.02.31-.02,15.88-.51,28.84,6.45,37.35,20.16,6.49,10.45,8.26,21.45,8.46,22.8.03.18.05.37.05.55,0,1.66-1.34,3-3,3-1.39,0-2.56-.94-2.9-2.22-.04-.13-.06-.26-.08-.4-.06-.43-1.52-10.73-7.63-20.57-7.39-11.9-18.15-17.73-31.98-17.33-.07,0-.14.01-.21.01-3.48.11-7.19.62-11.03,1.52-1.61.37-3.18.84-4.69,1.41-10.81,4-20.37,13.15-28.43,27.2-19.2,33.48-26.18,87.17-28.66,126.32,0,.04,0,.08,0,.12-1.37,21.62-1.18,36.88-1.18,37.03.02,1.66-1.3,3.02-2.96,3.04-.01,0-.03,0-.04,0Z" fill="#2b2b2b"/><path d="M1150.09,890.22c.52,2.9.17,5.76-.9,8.33-1.4,3.4-4.05,6.3-7.52,8.08l-.12-.23s-5.94-65.42-39.14-153.05l-.06-1.12c1.23-.08,2.36-.11,3.37-.08,5.08.14,9.5,3.37,11.07,8.03,19.08,56.69,29.82,110.39,33.31,130.04Z" fill="#f4f4f4"/><path d="M1141.55,906.4l.12.23-.04.02c-.77.4-1.58.73-2.43,1.01-.11.04-.22.08-.34.11-.31.1-.63.2-.93.3-7.81,2.66-24.67,4.34-30.6-1.92-6.97-7.36-8.86-22.73-13.62-30.21-3.66-5.74-12.68-15.56-19.59-22.05-1.04-.97-2.02-1.86-2.94-2.66-1.36-1.19-1.07-3.33.58-4.12.56-.27,1.09-.59,1.59-.96,9.54-7.05,9.41-32.51-11.63-70.66-.4-.71-.68-1.45-.86-2.2-.06-.25-.11-.5-.15-.75-.61-3.97,1.58-8.04,5.62-9.76,17.33-7.35,28.6-10.02,35.89-10.53.04,0,.07,0,.11,0l.06,1.12c33.2,87.63,39.14,153.05,39.14,153.05Z" fill="#ffac73"/><path d="M1061.73,775.48c21.04,38.15,21.17,63.62,11.63,70.66l-.32-.41c-3.33-3.01-8.83-5.1-12.66-4.71-15.91,1.61-41.43,6.76-67.99,12.79l-.25-1.03s6.08-37.08-13.69-64.18c1.19-.12,2.42-.22,3.69-.32,23.36-1.83,40.19,6.52,64.82-6.98,3.23-1.77,11.34-4.83,12.89-7.87l1.03-.15c.18.75.47,1.48.86,2.2Z" fill="#fff"/><path d="M974.66,448.99l83.93,91.94-49.87,30.14-69.05-81.39-22.17-13.01-.28-.24c3.39-4.1,6.7-8.28,9.8-12.46,8.88-11.94,16.11-23.73,19.08-32.8l.26.09,16.34,8.11c4.71,2.58,8.77,5.84,11.97,9.6Z" fill="#f9e2cd"/><path d="M992.13,852.78l.25,1.03c-.43.09-.86.19-1.29.29-49.81,11.37-92.43,11.01-109.47-6.76-4.01-4.18-9.1-8.95-13.41-18.54,24.77-6.2,58.6-17.56,87.46-37.42l.53.77s8.64-2.24,22.23-3.55c19.77,27.1,13.69,64.18,13.69,64.18Z" fill="#f9e2cd"/><path d="M868.22,828.8c-18.84,4.72-32.45,6.45-34.66,6.67-7.3-17.25-11.82-28.3-18.44-42.73l-.14-.11,8.73-11.62c9.92-13.19,22.59-24.14,37.33-31.56,16.45-8.28,50.98-46.69,57.04-89.02,33.3,63.94,62.04,110.49,62.04,110.49-7.44,7.66-15.71,14.45-24.44,20.45-28.86,19.86-62.69,31.22-87.46,37.42Z" fill="#2e4fa2"/><path d="M843.56,366.36c45.01,19.63,103.9,58.79,103.9,58.79-.18,1.84-.66,3.86-1.37,6.04-2.97,9.07-10.2,20.86-19.08,32.8-3.1,4.17-6.4,8.36-9.8,12.46-3.99,4.83-8.12,9.54-12.19,13.94-5.13,5.55-10.18,10.62-14.76,14.84l.08.09c6.73,17.86,12.98,26.45,16.21,32.66,8.24,15.87,15.87,57.92-.73,66.92-1.14.61-2.54,1.28-4.17,1.98-28.37,12.25-128.08,36.74-186.11,31.58-2.32-.21-4.57-.46-6.74-.76-7.68-1.07-14.56-5.39-18.77-11.91-15.83-24.51-6.62-33.41-.87-53.96,3.08-11.02,3.5-22.58,1.53-33.85-1.49-8.54-2.6-17.05-3.39-25.4l-.31.03-12.88,16.87c-6.69-1.42-20.44-9.37-35.25-19.96-9.01-6.44-18.42-13.86-26.87-21.39-8.74-7.78-16.46-15.67-21.66-22.71-3.02-4.08-5.19-7.87-6.23-11.19,0,0,97.25-98.1,131.3-101.22l1.31,1.38s-10.63,14.3.34,13.32c2.3-.2,4.5-1.01,6.46-2.24,8.79-5.53,43.44-26.23,77.79-31.68,1.66-.27,3.33-.32,4.98-.17,1.32.11,2.61.36,3.87.73.7.2,1.38.44,2.05.73,8.05,3.35,19.17,10.66,31.64,30.69l-.27.61Z" fill="#fff"/><path d="M918.08,660.44c-6.07,42.32-40.59,80.73-57.04,89.02-14.73,7.42-27.41,18.37-37.33,31.56l-8.73,11.62-59.04,78.59s-23.36-11.99-51.34-30.89c-18.67-12.62-39.41-28.31-56.64-45.57-2.26-2.26-4.46-4.56-6.59-6.87-9.37-10.19-17.33-20.84-22.79-31.66l2.33-2.6,89.79-99.89,4.86-15.29c58.03,5.16,157.75-19.33,186.11-31.58,1.63-.7,3.03-1.37,4.17-1.98,12.11,17.8,14.9,37.05,12.24,55.55Z" fill="#2e4fa2"/><path d="M860.79,130.62c5.32-5.41,10.48-11.76,15.16-19.33,0,0,10.51,26.86,1.73,50.38,0,0,69.51-19.83,83.48,16.23,0,0-28.19,1.17-30.75,11.59,0,0,23.25,49.08,24.54,76.9,0,0-51.93-27.73-57.17-21.95,0,0,13.68,48.3,5.43,56.66,0,0-35.15-11.44-64.42-49.11-6.83-8.8-13.34-19.02-19.01-30.86-.96-2.01-1.89-4.05-2.81-6.15-4.43-10.23-6.34-21.41-5.28-32.51.05-.49.1-.96.15-1.43.97-8.42,4.87-16.13,10.83-21.92,2.17-2.11,4.6-3.97,7.26-5.51,9.41-5.43,20.46-12.42,30.86-22.98Z" fill="#222"/><path d="M816.97,214.98c.91,2.1,1.85,4.15,2.81,6.15-37.54-36.49-6.28-57.1,2.89-62.03-5.96,5.79-9.85,13.5-10.83,21.92-.05.47-.1.94-.15,1.43-1.06,11.1.86,22.28,5.28,32.51Z" fill="#ffce76"/><path d="M800.03,303.26h.55c.27,15.04,9.72,30.54,9.72,30.54l-.17.54c-1.26-.37-2.56-.62-3.87-.73-1.65-.15-3.32-.09-4.98.17-34.35,5.45-69,26.15-77.79,31.68-1.95,1.23-4.15,2.04-6.46,2.24-10.97.98-.34-13.32-.34-13.32l.83-.02c-.44-3.62-1.98-8.46-6-14.39l-.12-.32c-8.15,3.04-17.58,5.24-28.46,6.07-11.14,1.17-20.52-.71-28.32-4.41l.19-.42s51.13-10.22,41.25-65.4l-72.85,23.09c-1.04-6.07-4.36-11.5-9.3-15.16l-13.7-12.35c12.12-10.97,19.79-26.09,15.36-37.68-1.39-3.63-7.15-11.97-8.24-18.32l.07-.09c3.26,2.6,6.81,5.22,10.69,7.83,0,0-10.62-49.56-.58-67.64,0,0,15.32,19.36,38.3,34.44,18.43,12.1,41.8,21.46,66.13,15.83,13.85,17.05,24.7,33.07,25.83,42.49,0,0,8.68-22.59,8.2-49.47h.73s12.22-7.99,23.51-6.63c9.92,1.19,19.13,9.6,18.73,36.93-.15,10.19-2.53,20.21-6.95,29.36-.39.81-.8,1.62-1.23,2.41-3.85,7.23-9.25,15.46-15.85,21.03h.7s13.03,6.07,24.42,21.67ZM682.77,259.83c1.6-.46,2.68-1.83,2.61-3.33-.46-10.34-3.4-48.88-21.79-46.25-18.6,2.67-8.46,41.05-5.52,50.49.41,1.32,2.29,2.15,3.81,2.21,7.72.31,16.55-1.88,20.88-3.13Z" fill="#f9e2cd"/><path d="M806.04,286.24c-4.16,4.89-5.56,10.91-5.46,17.01h-.55c-11.39-15.6-24.42-21.67-24.42-21.67h-.7c6.6-5.57,12-13.8,15.85-21.03.43-.8.84-1.6,1.23-2.41,4.42-9.15,6.8-19.17,6.95-29.36.4-27.34-8.81-35.74-18.73-36.93-11.29-1.36-23.51,6.62-23.51,6.62h-.73c.48,26.88-8.2,49.47-8.2,49.47-1.13-9.42-11.98-25.44-25.83-42.49-24.32,5.62-47.69-3.73-66.13-15.83-22.98-15.09-38.3-34.44-38.3-34.44-10.04,18.08.58,67.64.58,67.64-3.88-2.61-7.43-5.23-10.69-7.83-64.49-51.49-12.62-99.01-12.62-99.01,0,0,6.7-45.53,87.71-67.21,103.35-27.65,150.23,7.94,178.3,81.85-10.4,10.57-21.46,17.55-30.86,22.98-2.67,1.54-5.1,3.4-7.26,5.51-9.18,4.92-40.43,25.53-2.89,62.03,5.67,11.84,12.18,22.06,19.01,30.86l-.15.12c-12.88,14.23-24.58,24.73-32.6,34.14Z" fill="#222"/><path d="M696.07,275.49c9.87,55.18-41.25,65.4-41.25,65.4l-.19.42c-15.72-7.44-24.98-22.24-29.17-34.3l.68-.23s33.6-4.38,69.94-31.29Z" fill="#e57373"/><path d="M623.22,298.58l72.85-23.09c-36.34,26.9-69.94,31.29-69.94,31.29l-.68.23c-1.06-3.04-1.79-5.9-2.23-8.43Z" fill="#fff"/><path d="M685.39,256.5c.06,1.5-1.01,2.87-2.61,3.33-4.33,1.25-13.17,3.43-20.88,3.13-1.52-.06-3.4-.89-3.81-2.21-2.94-9.45-13.08-47.83,5.52-50.49,18.39-2.64,21.33,35.91,21.79,46.25Z"/><path d="M578.88,876.35c33.89-38.37,68.6-81.1,68.6-81.1l.47-.47c17.23,17.26,37.97,32.95,56.64,45.57l-12.26,11.93c-19.92,31.63-41.87,50.04-63.31,67.84l-.55-.67c-33.13-11.15-49.65-41.38-49.65-41.38l-.81-.73c.3-.33.58-.65.87-.98Z" fill="#f9e2cd"/><path d="M611.99,488.12c8.45,7.53,17.86,14.95,26.87,21.39,0,0-17.48,20.31-61.18,25.21-24.27,2.71-69.84-12.81-89.94-29.77-20.09-16.97,21.16-39.29,21.16-39.29l66.19,13.09,14.91-13.09.32-.25c5.2,7.04,12.92,14.94,21.66,22.71Z" fill="#f9e2cd"/><path d="M578.82,878.06s16.52,30.22,49.65,41.38l.55.67c-18.03,14.96-35.71,29.5-51.54,51.11-2.18,2.97-6.48,10.48-6,13.86l-1.23.05c-.59-.53-1.26-.99-2.01-1.36-40.03-20.23-55.38-41.76-51.81-53.23l.51.17c4.52.63,10.27-.76,13.17-3.3,12.04-10.54,29.81-29.62,47.89-50.06h0s.81.73.81.73Z" fill="#fff"/><path d="M570.83,985.67c2.87,3.02,3.53,7.74,1.25,11.53-9.75,16.23-17.36,24.98-23.01,29.63l-.8-.85c-79.59-55.19-123.61-107.25-123.61-107.25l-.24-.12s.01-.03.02-.04c.4-.78.86-1.53,1.39-2.26.06-.09.14-.19.21-.29.2-.26.4-.53.58-.78,4.79-6.76,17.55-17.9,26.15-16.01,10.1,2.22,20.84,14.17,29.21,17.77,6.43,2.76,19.66,5.88,29.2,7.4,1.42.22,2.77.42,3.99.57,1.83.22,2.87,2.2,1.99,3.83-.29.55-.53,1.13-.72,1.73-3.57,11.47,11.78,33,51.81,53.23.75.38,1.42.84,2.01,1.36.2.18.39.36.57.55Z" fill="#ffac73"/><path d="M548.25,1025.98l.8.85c-.99.81-1.92,1.5-2.79,2.08-4.24,2.8-9.78,2.61-13.84-.43-49.54-37.08-90.46-76.44-105.07-91.1-2.15-2.16-3.58-4.79-4.25-7.58-.89-3.7-.47-7.67,1.3-11.18l.24.12s44.02,52.06,123.61,107.25Z" fill="#f4f4f4"/><path d="M455.37,476.26c6.67,10.25-6.45,17.51-6.45,17.51-18.35,1.41-22.94-9.67-22.94-9.67-4.29-8.21,1.3-19.2,1.3-19.2,0,0,12.15,12.35,26.16,10.36.2-.03.39-.06.59-.1l1.33,1.09Z" fill="#f9e2cd"/><path d="M460.78,461.1s6.5,11.82-6.74,14.07c-.19.04-.39.07-.59.1-14.02,2-26.16-10.36-26.16-10.36-5.96-13.92,5.53-21.3,5.53-21.3,0,0,15.54,20.06,24.04,18.29,1.46-.3,2.65-.62,3.62-.93l.3.14Z" fill="#f9e2cd"/><path d="M465.9,456.24c-1.06,1.61-.85,3.23-5.42,4.73-.97.32-2.16.63-3.62.93-8.5,1.77-24.04-18.29-24.04-18.29-4.82-17.04,14.36-17.39,14.36-17.39,0,0,6.58,8.78,14.13,13.78l.78.47c-1.32,2.56-1.69,5.76-.22,9.73,1.11,3.01,2.51,4.91,4.04,6.04Z" fill="#f9e2cd"/><path d="M490.76,432.66l-.05.38-12.64-1.53c-1.23-.15-2.47-.04-3.65.32-3.27.99-9.71,3.54-12.34,8.64l-.78-.47c-7.55-5-14.13-13.78-14.13-13.78.63-2.03-.66-13.47,14.98-13.1,15.64.37,28.6,19.54,28.6,19.54Z" fill="#f9e2cd"/><path d="M465.9,456.24c-1.53-1.13-2.93-3.04-4.04-6.04-1.47-3.98-1.1-7.18.22-9.73,2.64-5.11,9.07-7.65,12.34-8.64,1.19-.36,2.42-.47,3.65-.32l12.64,1.53.99.12c2.3.76,4.36,1.78,5.88,3.67,4.79,5.97,11.87,13.07,12.44,23.15,0,0,2.17,34.21-22.02,42.75-24.18,8.55-39.08-8.95-39.08-8.95,0,0,13.12-7.26,6.45-17.51l-1.33-1.09c13.24-2.25,6.74-14.07,6.74-14.07l-.3-.14c4.57-1.5,4.36-3.11,5.42-4.73Z" fill="#f9e2cd"/><path d="M1040.23,611.97l-1.58,1.16c-6.26-.15-15.91,2.03-24.28-6.87-14.77-15.72-2.3-42.12-2.3-42.12,0,0,1.74-24.56,40.96-26.07,0,0,55.16,18.81,35.83,51.96h-.47c.15,5.58-1.33,12.04-8.04,14.93l-1.39.05.08,2.24s-1.58,10.95-12.21,10.07c-5.99,12.19-23.03-.49-23.03-.49l-3.56-4.86Z" fill="#f9e2cd"/><path d="M674.89,197.68c-.5,0-1-.22-1.35-.63-5.78-6.96-11.32-9.03-16.46-6.15l-.13.07s-.1.05-.15.09c-3.46,2.09-5.46,5.55-5.48,5.59-.48.84-1.54,1.13-2.39.65-.84-.48-1.13-1.54-.66-2.38.1-.17,2.45-4.28,6.63-6.8.04-.03.16-.1.29-.17l.11-.07c4.75-2.66,12.19-3.59,20.92,6.93.62.74.52,1.85-.23,2.46-.33.27-.72.4-1.12.4Z" fill="#2b2b2b"/><path d="M732.73,642.16c-6.12,0-11.95-.23-17.44-.71-2.36-.21-4.67-.47-6.89-.78-8.61-1.2-16.22-6.03-20.88-13.25-13.48-20.88-9.65-31.74-4.79-45.5,1.2-3.4,2.44-6.91,3.55-10.9,2.88-10.29,3.38-21.54,1.46-32.52-1.44-8.26-2.6-16.89-3.42-25.64-3.4-35.7-1.12-68.48,1.38-89.69,1.57-13.29,3.13-21.22,3.19-21.55.32-1.62,1.9-2.68,3.53-2.36,1.62.32,2.68,1.9,2.36,3.53-.02.08-1.59,8.06-3.12,21.09-2.47,20.92-4.71,53.25-1.37,88.42.81,8.59,1.94,17.06,3.36,25.17,2.07,11.86,1.52,24.02-1.59,35.17-1.17,4.18-2.5,7.95-3.67,11.28-4.64,13.16-7.7,21.85,4.18,40.25,3.72,5.75,9.79,9.6,16.67,10.56,2.12.29,4.34.54,6.6.74,5.39.48,11.13.7,17.14.7,58.49,0,142.11-21.08,167.51-32.05,1.53-.66,2.86-1.29,3.94-1.87,13.72-7.43,8.13-46.23-.51-62.89-.77-1.48-1.73-3.13-2.85-5.05-3.52-6.03-8.35-14.28-13.5-27.94-.58-1.55.2-3.28,1.75-3.87,1.55-.58,3.28.2,3.87,1.75,4.97,13.18,9.65,21.18,13.06,27.03,1.16,1.99,2.16,3.7,3,5.31,8.65,16.66,16.87,60.74-1.96,70.94-1.24.67-2.73,1.37-4.42,2.1-25.78,11.13-110.7,32.53-170.12,32.53Z" fill="#2b2b2b"/><path d="M674.11,532.47c-.21,0-.42-.02-.62-.07-6.91-1.47-20.51-9.11-36.37-20.45-9.59-6.86-18.96-14.32-27.12-21.59-9.6-8.55-17.03-16.34-22.08-23.17-3.33-4.5-5.58-8.57-6.68-12.07-.33-1.06-.05-2.22.73-3.01,4-4.04,98.42-98.91,133.15-102.1.92-.08,1.82.26,2.45.92l1.31,1.38c1,1.06,1.1,2.68.23,3.85-2.33,3.14-4.21,7.12-4.04,8.48.22.06.73.15,1.71.07,1.73-.15,3.5-.77,5.13-1.79,9.76-6.14,44.3-26.61,78.91-32.11,1.88-.3,3.81-.37,5.72-.2,1.48.13,2.98.41,4.45.84.79.23,1.59.51,2.37.84,11.97,4.98,22.77,15.41,33.02,31.86.88,1.41.45,3.26-.96,4.13-1.4.88-3.26.45-4.13-.96-9.57-15.36-19.46-25.01-30.25-29.5-.57-.24-1.15-.45-1.73-.61-1.1-.32-2.2-.53-3.29-.63-1.43-.13-2.86-.08-4.25.14-33.49,5.32-67.15,25.27-76.66,31.26-2.43,1.53-5.13,2.46-7.79,2.69-4.55.41-6.57-1.4-7.46-3-1.76-3.14-.16-7.51,1.75-10.95-33.39,8.92-112.71,86.98-124.03,98.24,1.05,2.51,2.78,5.41,5.17,8.64,4.73,6.4,12.08,14.1,21.25,22.26,8,7.13,17.21,14.46,26.62,21.19,13.45,9.61,25.75,16.8,32.35,18.97l11.65-15.26c1.01-1.32,2.89-1.57,4.21-.56,1.32,1.01,1.57,2.89.56,4.21l-12.88,16.86c-.57.75-1.46,1.18-2.38,1.18ZM714.93,364.59h0Z" fill="#2b2b2b"/><path d="M755.93,874.23c-.46,0-.93-.11-1.37-.33-.24-.12-23.84-12.29-51.65-31.07-22.9-15.48-42.11-30.93-57.09-45.93-2.31-2.31-4.55-4.65-6.67-6.97-10.2-11.1-18.03-21.98-23.26-32.33-.56-1.1-.38-2.43.44-3.35l2.33-2.6,89.36-99.41,4.72-14.87c.51-1.58,2.2-2.44,3.78-1.93,1.58.51,2.44,2.2,1.93,3.78l-.06.18-4.85,15.28c-.13.41-.34.78-.63,1.1l-90.73,100.94c4.96,9.32,12.15,19.13,21.38,29.17,2.07,2.26,4.25,4.54,6.5,6.78,14.71,14.73,33.62,29.94,56.2,45.2,22.57,15.24,42.32,26.07,48.8,29.53l66.24-88.17c10.39-13.81,23.66-25.02,38.38-32.44,15.73-7.92,49.54-45.72,55.42-86.76,2.84-19.81-1.11-37.78-11.76-53.43-.93-1.37-.58-3.24.79-4.17,1.37-.93,3.24-.58,4.17.79,11.51,16.93,15.8,36.32,12.73,57.66-6.26,43.68-41.52,82.64-58.67,91.27-13.9,7-26.45,17.61-36.28,30.68l-67.77,90.21c-.58.78-1.48,1.2-2.4,1.2Z" fill="#2b2b2b"/><path d="M750.89,850.5c-.27,0-.54-.06-.79-.19-72.5-36.88-113.12-93.25-113.52-93.81-.56-.79-.38-1.88.41-2.44s1.88-.38,2.44.41c.4.56,40.56,56.25,112.26,92.72.86.44,1.2,1.49.77,2.35-.31.61-.92.96-1.56.96Z" fill="#2b2b2b"/><path d="M874.56,520.07c-.73,0-1.46-.27-2.02-.78l-89.88-82.08c-1.22-1.12-1.31-3.01-.19-4.24,1.12-1.22,3.02-1.31,4.24-.19l88.35,80.68c3.24-1.87,7.83-5.5,13.2-10.44,4.5-4.14,9.55-9.22,14.59-14.67,4.16-4.5,8.22-9.15,12.07-13.81,3.46-4.17,6.72-8.32,9.7-12.33,9.56-12.85,16-23.9,18.64-31.95.43-1.31.75-2.53.97-3.66-9.69-6.35-61.69-39.98-101.86-57.49-18.1-7.9-31.21-11.45-38.98-10.57-1.64.19-3.13-1-3.32-2.64-.19-1.65,1-3.13,2.64-3.32,8.95-1.01,22.71,2.6,42.05,11.04,44.73,19.51,103.77,58.64,104.37,59.04.92.61,1.43,1.69,1.32,2.8-.2,2.02-.69,4.2-1.5,6.68-3.58,10.93-12.59,24.34-19.52,33.66-3.04,4.1-6.37,8.33-9.89,12.58-3.92,4.74-8.06,9.47-12.29,14.06-5.15,5.57-10.32,10.76-14.94,15.01-4.85,4.47-11.66,10.24-16.54,12.39-.39.17-.8.25-1.21.25Z" fill="#2b2b2b"/><path d="M875.09,495.62c-.5,0-.99-.21-1.34-.62-.62-.74-.53-1.84.2-2.47,30.49-25.85,54.17-66,54.41-66.41.49-.83,1.56-1.11,2.39-.63.83.49,1.11,1.56.63,2.39-.24.41-24.22,41.08-55.16,67.31-.33.28-.73.42-1.13.42Z" fill="#2b2b2b"/><path d="M833.55,838.47c-1.19,0-2.29-.71-2.76-1.83-1.43-3.37-2.75-6.51-4-9.48-5.08-12.07-9.1-21.6-14.4-33.16-.69-1.51-.03-3.29,1.48-3.98,1.51-.69,3.29-.03,3.98,1.48,5.35,11.65,9.38,21.22,14.48,33.34.99,2.35,2.02,4.81,3.12,7.4,5.34-.7,17.35-2.65,32.05-6.33,23.47-5.87,57.53-17.05,86.49-36.98,8.3-5.71,15.81-11.9,22.36-18.42-5.86-9.62-31.79-52.75-60.91-108.67l-.08-.15c-.74-1.48-.13-3.28,1.35-4.02,1.48-.74,3.28-.13,4.02,1.35l.04.07c32.85,63.08,61.63,109.81,61.92,110.28.72,1.17.56,2.68-.4,3.67-7.2,7.41-15.57,14.42-24.89,20.83-29.69,20.43-64.48,31.87-88.43,37.86-21.01,5.27-34.96,6.73-35.1,6.74-.1,0-.2.01-.3.01Z" fill="#2b2b2b"/><path d="M519.26,933.85c-.93,0-1.84-.06-2.73-.18-1.64-.23-2.79-1.75-2.56-3.39.23-1.64,1.75-2.79,3.39-2.56,3.72.52,8.56-.64,10.78-2.59,10.52-9.21,26.54-25.96,47.62-49.79.01-.02.03-.03.04-.04l.85-.95c33.45-37.87,68.16-80.57,68.51-81,1.04-1.29,2.93-1.48,4.22-.44,1.29,1.04,1.48,2.93.44,4.22-.35.43-35.14,43.22-68.68,81.2l-.88.99s-.02.02-.02.03c-21.23,24-37.42,40.92-48.13,50.3-2.96,2.59-8.03,4.2-12.83,4.2Z" fill="#2b2b2b"/><path d="M628.47,921.19c-.19,0-.37-.03-.56-.09-33.39-11.24-49.93-40.94-50.62-42.2-.46-.85-.15-1.91.7-2.37.85-.46,1.91-.15,2.38.69.16.3,16.61,29.77,48.67,40.56.92.31,1.41,1.3,1.1,2.22-.25.73-.93,1.19-1.66,1.19Z" fill="#2b2b2b"/><path d="M571.48,988.07c-1.47,0-2.75-1.08-2.97-2.58-.81-5.74,6.48-15.96,6.56-16.06,15.8-21.56,32.99-35.83,51.2-50.94l.84-.7c21.02-17.45,42.76-35.49,62.69-67.13.13-.2.28-.39.45-.55l12.26-11.93c1.18-1.15,3.1-1.16,4.26.01,1.16,1.17,1.18,3.03.02,4.2l-.09.09-12.01,11.68c-20.39,32.26-43.42,51.38-63.74,68.24l-.84.7c-17.91,14.86-34.83,28.91-50.19,49.87-2.84,3.86-5.69,9.97-5.45,11.67.23,1.64-.91,3.16-2.55,3.39-.14.02-.28.03-.42.03Z" fill="#2b2b2b"/><path d="M539.66,1033.89c-3.19,0-6.37-1.01-9.04-3.01-52.28-39.14-93.89-79.84-105.39-91.38-2.48-2.48-4.22-5.6-5.04-9-1.06-4.42-.53-9.09,1.5-13.16.02-.04.03-.07.05-.1.52-1.01,1.06-1.88,1.65-2.7.04-.05.13-.19.23-.32.21-.27.39-.51.56-.75,5.04-7.1,18.81-19.47,29.23-17.18,6.54,1.44,12.84,6.2,18.94,10.8,3.95,2.98,7.67,5.79,10.81,7.14,6.16,2.65,19.32,5.74,28.49,7.19,1.5.24,2.77.42,3.88.55,1.84.22,3.46,1.33,4.31,2.98.86,1.65.84,3.61-.04,5.24-.2.37-.37.79-.5,1.21-2.62,8.42,8.61,28.59,50.3,49.67.96.49,1.86,1.09,2.65,1.8.25.22.5.46.73.7,3.9,4.1,4.57,10.32,1.66,15.16-8.63,14.35-16.59,24.58-23.68,30.4,0,0,0,0,0,0-1.04.85-2.05,1.6-3.02,2.25-2.51,1.66-5.39,2.48-8.27,2.48ZM427.13,919.87s-.02.05-.04.08c-1.43,2.84-1.81,6.08-1.07,9.15.56,2.33,1.76,4.46,3.46,6.17,11.43,11.47,52.78,51.92,104.74,90.82,3.06,2.29,7.23,2.42,10.39.33.8-.53,1.66-1.17,2.54-1.89,6.56-5.39,14.07-15.09,22.35-28.86,1.53-2.53,1.18-5.79-.85-7.92-.11-.11-.24-.24-.38-.37-.42-.37-.88-.68-1.38-.93-42.38-21.43-57.32-43.97-53.32-56.8.19-.6.42-1.19.69-1.76-1.05-.13-2.22-.3-3.56-.51-9.4-1.49-23.08-4.67-29.92-7.61-3.81-1.64-7.82-4.66-12.06-7.87-5.58-4.21-11.34-8.57-16.61-9.72-6.53-1.44-18.2,7.96-23.06,14.81-.23.31-.44.6-.66.88l-.11.15c-.45.61-.81,1.2-1.15,1.86ZM549.06,1026.83h0,0ZM514.5,927.4h0s0,0,0,0Z" fill="#2b2b2b"/><path d="M548.25,1028.98c-.59,0-1.19-.17-1.71-.53-79-54.78-123.75-107.26-124.19-107.78-1.07-1.27-.91-3.16.35-4.23,1.27-1.07,3.16-.91,4.23.35.44.52,44.72,52.43,123.03,106.72,1.36.94,1.7,2.81.76,4.17-.58.84-1.52,1.29-2.47,1.29Z" fill="#2b2b2b"/><path d="M835.94,823.39c-.88,0-1.64-.67-1.74-1.56-.1-.96.59-1.82,1.55-1.93.73-.08,73.82-8.37,126.63-52.06.74-.62,1.85-.51,2.46.23.62.74.51,1.85-.23,2.46-53.63,44.38-127.74,52.77-128.49,52.85-.06,0-.13.01-.19.01Z" fill="#2b2b2b"/><path d="M719.08,382.79c-8.92,0-14.59-4.46-14.91-4.72-1.29-1.04-1.49-2.93-.45-4.22,1.04-1.29,2.92-1.49,4.21-.46.37.29,8.2,6.24,19.77,1.67,3.31-1.31,8.31-4.46,14.09-8.1,16.83-10.61,42.25-26.65,67.12-23.37,1.64.22,2.8,1.72,2.58,3.37-.22,1.64-1.73,2.8-3.37,2.58-22.71-3-47.03,12.34-63.13,22.5-6.29,3.96-11.25,7.1-15.09,8.61-3.96,1.56-7.6,2.14-10.81,2.14Z" fill="#2b2b2b"/><path d="M676.48,349.07c-8.28,0-16.05-1.69-23.14-5.04-19.67-9.3-28.04-28.29-30.72-36.03-1.07-3.06-1.86-6.05-2.35-8.9-.92-5.35-3.81-10.06-8.13-13.26-.08-.06-.15-.12-.22-.18l-13.7-12.35c-.63-.57-.99-1.38-.99-2.23s.36-1.66.99-2.23c12.31-11.15,18.17-24.97,14.57-34.39-.39-1.02-1.34-2.76-2.35-4.6-2.33-4.26-5.23-9.56-6.05-14.28-.28-1.63.81-3.18,2.44-3.47,1.63-.28,3.19.81,3.47,2.45.65,3.73,3.28,8.55,5.4,12.42,1.16,2.11,2.15,3.93,2.69,5.34,4.28,11.21-1.1,26.14-13.74,38.7l11.18,10.08c5.5,4.12,9.18,10.14,10.35,16.97.44,2.52,1.14,5.19,2.11,7.95,2.44,7.02,10.01,24.25,27.63,32.58,7.96,3.77,16.95,5.16,26.72,4.14,9.96-.76,19.26-2.74,27.73-5.89,33.73-12.56,44.82-40.28,44.93-40.56.6-1.54,2.33-2.31,3.88-1.72,1.54.6,2.31,2.33,1.72,3.87-.48,1.24-12.06,30.49-48.43,44.03-8.99,3.35-18.84,5.45-29.28,6.25-2.26.24-4.5.36-6.69.36Z" fill="#2b2b2b"/><path d="M747.77,250.94c-.12,0-.25,0-.37-.02-1.37-.17-2.44-1.25-2.61-2.62-.64-5.33-5.52-16.76-25.18-40.95-26.46-32.59-64.4-69.47-64.78-69.84-1.19-1.15-1.22-3.05-.06-4.24,1.15-1.19,3.05-1.22,4.24-.07.38.37,38.58,37.5,65.26,70.37,11.74,14.45,19.5,25.84,23.47,34.47,2.42-8.86,5.52-23.47,5.23-39.51-.73-40.07-20.97-66.41-60.16-78.27-1.59-.48-2.48-2.15-2-3.74.48-1.59,2.15-2.48,3.74-2,52.28,15.82,63.89,54.36,64.42,83.9.49,27.15-8.03,49.65-8.4,50.6-.45,1.17-1.57,1.92-2.8,1.92Z" fill="#2b2b2b"/><path d="M759.46,291.13c-1.64,0-2.98-1.32-3-2.96-.02-1.66,1.31-3.02,2.96-3.04,4.47-.06,9.03-2.02,13.55-5.84,6.61-5.58,11.88-14.04,15.14-20.15.41-.75.8-1.52,1.17-2.3,4.22-8.73,6.52-18.45,6.66-28.11.31-21.18-5.1-32.59-16.09-33.91-10.04-1.21-21.4,6.08-21.51,6.16-1.39.9-3.25.51-4.15-.88-.9-1.39-.52-3.24.87-4.15.54-.35,13.28-8.57,25.51-7.09,10,1.2,21.82,9.11,21.37,39.96-.15,10.53-2.66,21.12-7.25,30.62-.41.86-.85,1.72-1.29,2.54-3.5,6.56-9.21,15.7-16.55,21.9-5.62,4.74-11.45,7.18-17.35,7.25-.01,0-.03,0-.04,0Z" fill="#2b2b2b"/><path d="M767.62,272.21c-.42,0-.84-.15-1.18-.46-.71-.65-.76-1.76-.11-2.47,12.7-13.91,19.77-30.84,18.92-45.29-.39-6.6-2.45-11.97-5.66-14.75-8.26-7.15-18.86,2.64-19.31,3.06-.7.66-1.81.63-2.47-.07-.66-.7-.63-1.81.07-2.47,4.58-4.32,15.48-10.54,24-3.16,3.92,3.39,6.42,9.65,6.86,17.19.43,7.38-.63,26.83-19.83,47.86-.35.38-.82.57-1.29.57Z" fill="#2b2b2b"/><path d="M716.61,365.05c-.5,0-1.01-.13-1.48-.39-1.43-.81-1.94-2.61-1.16-4.04.08-.16,1.02-2.14.57-5.89-.48-4-2.33-8.4-5.5-13.07-.93-1.37-.57-3.24.8-4.17,1.37-.93,3.24-.57,4.17.8,3.71,5.47,5.89,10.76,6.49,15.72.71,5.82-1.07,9.16-1.28,9.52-.55.97-1.57,1.52-2.61,1.52Z" fill="#2b2b2b"/><path d="M618.1,225.81c-.59,0-1.17-.17-1.68-.51-3.83-2.58-7.49-5.27-10.88-7.97-21.52-17.18-32.77-35.86-33.44-55.52-.86-25.3,16.09-43.54,19.93-47.34.72-3.28,3.68-13.64,13.94-25.9,11.04-13.19,33.15-31.3,75.76-42.7,50.54-13.52,89.64-12.51,119.54,3.08,26.99,14.08,46.8,39.69,62.34,80.6l.07.19s.04.09.04.1c.59,1.55-.2,3.28-1.75,3.87-1.55.58-3.28-.2-3.87-1.75l2.81-1.06-2.83.99-.1-.27c-14.96-39.4-33.87-64-59.48-77.35-28.5-14.86-66.19-15.72-115.22-2.6-40.79,10.91-61.88,27.98-72.39,40.38-11.31,13.34-13.11,24.27-13.13,24.38-.1.67-.44,1.3-.94,1.76-.19.18-19.6,18.35-18.72,43.47.63,17.8,11.12,34.95,31.19,50.98,1.44,1.15,2.94,2.3,4.48,3.44-2.57-14.77-7.03-47.67,1.13-62.36.49-.88,1.38-1.45,2.38-1.53,1-.08,1.97.34,2.6,1.13.15.19,15.32,19.17,37.6,33.8,22.55,14.8,44.02,19.99,63.8,15.42.04,0,.07-.02.11-.02.09-.02.18-.04.27-.06l.75,2.9.67,2.92c-.21.05-.36.08-.5.11-21.43,4.94-44.44-.53-68.4-16.26-17.24-11.32-30.1-24.82-35.8-31.29-6.17,19.52,2.56,60.9,2.66,61.35.26,1.2-.24,2.43-1.25,3.11-.51.34-1.09.51-1.68.51Z" fill="#2b2b2b"/><path d="M810.3,336.8c-1.01,0-2-.51-2.56-1.44-.4-.66-9.88-16.38-10.16-32.05-.13-7.64,1.94-14.04,6.17-19.01,4.15-4.86,9.12-9.88,14.89-15.69,5.38-5.42,11.48-11.57,17.78-18.52,1.11-1.23,3.01-1.32,4.24-.21,1.23,1.11,1.32,3.01.21,4.24-6.39,7.06-12.54,13.25-17.96,18.72-5.68,5.72-10.58,10.66-14.58,15.35-3.25,3.82-4.85,8.88-4.74,15.01.25,14.02,9.19,28.89,9.28,29.04.86,1.42.41,3.26-1,4.12-.49.3-1.03.44-1.56.44Z" fill="#2b2b2b"/><path d="M800.03,306.26c-.93,0-1.84-.43-2.43-1.23-10.75-14.72-23.15-20.67-23.27-20.73-1.5-.7-2.14-2.49-1.44-3.99s2.48-2.15,3.98-1.45c.56.26,13.86,6.58,25.58,22.62.98,1.34.68,3.21-.65,4.19-.53.39-1.15.58-1.77.58Z" fill="#2b2b2b"/><path d="M903.2,304.1c-.31,0-.62-.05-.93-.15-1.47-.48-36.36-12.16-65.86-50.13-7.46-9.6-13.97-20.17-19.35-31.4-.96-2-1.89-4.05-2.85-6.25-4.7-10.86-6.61-22.62-5.52-34l.16-1.48c1.04-8.97,5.2-17.4,11.72-23.74h0c2.38-2.31,5.02-4.32,7.86-5.95,9.27-5.36,20.11-12.22,30.22-22.49,5.57-5.67,10.54-11.99,14.75-18.8.6-.97,1.69-1.51,2.82-1.41,1.13.1,2.11.84,2.52,1.89.41,1.06,9.38,24.44,3.41,47.24,17.02-3.96,69.21-13.13,81.79,19.37.35.9.24,1.92-.29,2.73s-1.42,1.31-2.38,1.35c-10.22.43-24.95,3.32-27.63,8.45,3.58,7.73,23.08,50.85,24.29,76.91.05,1.08-.48,2.1-1.39,2.68s-2.06.62-3.02.11c-.12-.06-12.06-6.43-24.86-12.33-17.01-7.84-24.24-9.67-27.18-10,1.18,4.47,3.37,13.22,5.04,22.4,4.53,24.9,1.49,31.39-1.2,34.11-.57.58-1.35.89-2.14.89ZM874.99,118.2c-3.62,5.17-7.66,10.04-12.06,14.51-10.62,10.78-21.88,17.92-31.5,23.48-2.41,1.39-4.65,3.09-6.67,5.06,0,0,0,0,0,0-5.53,5.38-9.06,12.52-9.94,20.12l-.15,1.41c-.99,10.34.76,21.07,5.05,31,.93,2.13,1.83,4.11,2.76,6.05,5.2,10.85,11.48,21.05,18.68,30.31,24.18,31.13,52.76,44.1,60.79,47.28,1.01-2.78,1.86-9.8-1.31-27.22-2.33-12.83-5.72-24.83-5.75-24.95-.28-1-.03-2.07.66-2.83,2.3-2.53,7.01-4.21,34.02,8.09,8.52,3.88,16.84,8.07,21.9,10.67-3.56-27.48-23.56-69.96-23.77-70.42-.29-.62-.37-1.33-.2-2,2.41-9.83,19.99-12.73,29.05-13.56-16.27-27.85-77.4-10.84-78.04-10.65-1.09.31-2.26-.02-3.03-.85-.77-.83-1-2.02-.61-3.08,5.9-15.8,2.55-33.49.12-42.41ZM822.67,159.11h0,0Z" fill="#2b2b2b"/><path d="M818.98,222.8c-.16-.15-.3-.29-.44-.43-13.79-13.4-19.95-26.22-18.29-38.06,2.08-14.8,15.79-23.63,21.59-26.74,1.49-.8,2.44-1.21,2.48-1.22.89-.38,1.91.03,2.3.92.38.89-.03,1.92-.92,2.3,0,0-.86.37-2.2,1.09-5.33,2.86-17.92,10.93-19.78,24.15-1.5,10.68,4.31,22.48,17.28,35.08.14.14.27.26.4.38l-2.41,2.54Z" fill="#2b2b2b"/><path d="M668.89,508.61c-.28,0-.57-.07-.84-.21-35.62-19.42-67.33-54.39-67.65-54.74-.65-.72-.59-1.82.13-2.47.72-.65,1.82-.59,2.47.13.31.35,31.65,34.88,66.73,54.01.85.46,1.16,1.53.7,2.37-.32.58-.92.91-1.54.91Z" fill="#2b2b2b"/><path d="M992.13,854.53c-.09,0-.19,0-.28-.02-.95-.16-1.6-1.06-1.44-2.01.06-.36,5.71-36.7-13.38-62.87-.23-.33-.46-.63-.7-.94-.59-.77-.44-1.87.33-2.45.77-.59,1.87-.44,2.45.33.26.34.52.68.76,1.02,19.96,27.35,14.24,63.93,13.99,65.47-.14.86-.88,1.47-1.72,1.47Z" fill="#2b2b2b"/><path d="M956.21,795.15c-1.34,0-2.55-.9-2.9-2.25-.41-1.6.55-3.24,2.15-3.65.36-.09,9.03-2.31,22.69-3.63,1.21-.12,2.45-.23,3.74-.33,7.74-.61,14.71-.13,21.45.33,14.08.96,26.24,1.79,42.16-6.95.88-.48,2-1.01,3.29-1.62,2.29-1.08,7.67-3.61,8.37-4.99.76-1.47,2.56-2.06,4.04-1.3,1.47.76,2.06,2.56,1.3,4.04-1.52,2.96-5.76,5.14-11.16,7.68-1.15.54-2.24,1.06-2.96,1.45-17.47,9.58-31.06,8.65-45.46,7.67-6.52-.44-13.27-.9-20.57-.33-1.25.1-2.45.2-3.63.32-13.16,1.27-21.69,3.45-21.77,3.47-.25.06-.5.1-.75.1Z" fill="#2b2b2b"/><path d="M1122.24,913.45c-6.71,0-13.38-1.34-17.08-5.24-4.54-4.79-6.95-12.05-9.28-19.07-1.5-4.52-2.92-8.8-4.7-11.59-3.5-5.5-12.47-15.23-19.11-21.47-1-.94-1.96-1.81-2.86-2.59-1.4-1.23-2.09-3.04-1.84-4.86.25-1.83,1.4-3.41,3.08-4.23.38-.18.74-.4,1.13-.68,6.95-5.13,9.37-27.17-12.48-66.8-.51-.93-.9-1.91-1.15-2.93-.08-.33-.14-.66-.19-.97-.84-5.47,2.21-10.81,7.41-13.01,15.32-6.5,27.72-10.12,36.85-10.76.02,0,.04,0,.07,0,.03,0,.06,0,.1,0,1.29-.08,2.5-.11,3.61-.08,6.3.18,11.85,4.22,13.83,10.07,20.13,59.81,30.67,114.99,33.42,130.47.6,3.37.23,6.83-1.08,10-1.7,4.11-4.86,7.52-8.92,9.61-.02.01-.08.04-.11.05-.85.43-1.81.83-2.8,1.16-.17.06-.3.1-.4.13-.3.1-.58.18-.84.27-3.98,1.35-10.34,2.54-16.65,2.54ZM1073.73,849.46c.73.65,1.54,1.38,2.44,2.23,6.83,6.41,16.18,16.51,20.08,22.63,2.18,3.42,3.71,8.03,5.33,12.92,2.12,6.4,4.32,13.01,7.94,16.83,4.52,4.76,19.52,3.84,27.46,1.15.32-.11.63-.21.95-.31.05-.02.13-.04.18-.05l.2-.07c.67-.22,1.34-.5,1.97-.82,2.82-1.45,4.99-3.78,6.15-6.58.87-2.11,1.12-4.41.72-6.65-2.73-15.39-13.19-70.19-33.2-129.61-1.17-3.47-4.51-5.88-8.31-5.98-.94-.03-1.97,0-3.09.07-.04,0-.07,0-.11,0-8.47.6-20.21,4.06-34.91,10.3-2.67,1.13-4.25,3.82-3.83,6.54.02.14.06.33.1.51.12.49.31.97.57,1.44,22.33,40.49,21.51,66.61,10.79,74.53-.48.35-.94.65-1.41.91Z" fill="#2b2b2b"/><path d="M1141.54,909.4c-1.53,0-2.84-1.17-2.98-2.73-.06-.65-6.31-66.07-38.96-152.26-.59-1.55.19-3.28,1.74-3.87,1.55-.59,3.28.19,3.87,1.74,32.96,87.01,39.26,153.18,39.32,153.84.15,1.65-1.07,3.11-2.72,3.26-.09,0-.18.01-.28.01Z" fill="#2b2b2b"/><path d="M931.18,864.8c-2.49,0-4.91-.05-7.25-.16-20.75-.97-35.71-6.09-44.47-15.22l-1.07-1.11c-3.9-4.03-8.76-9.05-12.91-18.28l-.08-.18c-.67-1.52.02-3.29,1.53-3.96s3.29.02,3.96,1.53l.06.14c3.72,8.27,7.98,12.68,11.75,16.56l1.09,1.13c15.13,15.76,53.99,17.92,106.64,5.91l1.31-.29c31.21-7.09,54.21-11.42,68.33-12.85,4.65-.47,10.95,1.83,14.98,5.47,1.23,1.11,1.32,3.01.21,4.24-1.11,1.23-3.01,1.32-4.24.21-2.75-2.48-7.39-4.26-10.35-3.96-13.88,1.41-36.64,5.69-67.63,12.73l-1.31.29c-22.43,5.12-43.19,7.77-60.55,7.77Z" fill="#2b2b2b"/><path d="M1008.72,574.08c-.85,0-1.7-.36-2.29-1.06l-68.72-81-21.73-12.75c-1.43-.84-1.91-2.68-1.07-4.11.84-1.43,2.68-1.91,4.11-1.07l22.17,13.01c.29.17.55.39.77.65l69.05,81.39c1.07,1.26.92,3.16-.35,4.23-.56.48-1.25.71-1.94.71Z" fill="#2b2b2b"/><path d="M1058.59,543.93c-.81,0-1.62-.33-2.22-.98l-83.93-91.94s-.05-.05-.07-.08c-2.96-3.48-6.68-6.47-11.07-8.88l-16.28-8.09c-1.48-.74-2.09-2.54-1.35-4.02s2.54-2.09,4.02-1.35l16.34,8.11s.07.04.11.06c5.04,2.76,9.34,6.21,12.78,10.25l83.89,91.9c1.12,1.22,1.03,3.12-.19,4.24-.58.53-1.3.78-2.02.78Z" fill="#2b2b2b"/><path d="M571.86,538.02c-25.53,0-66.58-14.34-86.05-30.78-1.27-1.07-1.43-2.96-.36-4.23,1.07-1.27,2.96-1.43,4.23-.36,19.77,16.69,64.83,31.64,87.67,29.08,41.82-4.69,59.07-24,59.24-24.19,1.09-1.25,2.98-1.38,4.23-.3,1.25,1.08,1.39,2.97.31,4.22-.75.87-18.76,21.26-63.12,26.23-1.92.22-3.99.32-6.16.32Z" fill="#2b2b2b"/><path d="M575.09,481.75c-.2,0-.39-.02-.59-.06l-64.79-12.94c-1.62-.32-2.68-1.9-2.35-3.53.32-1.63,1.91-2.68,3.53-2.35l63.34,12.65,13.79-12.12c1.24-1.09,3.14-.97,4.23.27,1.09,1.24.97,3.14-.27,4.23l-14.91,13.09c-.55.49-1.26.75-1.98.75Z" fill="#2b2b2b"/><path d="M626.13,309.78c-1.48,0-2.77-1.1-2.97-2.61-.21-1.64.94-3.15,2.59-3.36.27-.04,22.64-3.16,50.18-18.78l-51.79,16.42c-1.58.5-3.27-.37-3.77-1.95-.5-1.58.37-3.27,1.95-3.77l72.85-23.09c1.4-.44,2.91.19,3.58,1.5.67,1.31.29,2.9-.89,3.78-36.55,27.05-69.94,31.67-71.34,31.85-.13.02-.26.03-.39.03Z" fill="#2b2b2b"/><path d="M654.82,343.89c-1.4,0-2.65-.99-2.94-2.41-.32-1.62.73-3.2,2.35-3.53,1.99-.4,48.11-10.39,38.89-61.93-.29-1.63.79-3.19,2.42-3.48,1.63-.29,3.19.79,3.48,2.42,5.36,29.94-6.82,47.11-17.98,56.24-11.99,9.81-25.09,12.52-25.64,12.63-.2.04-.4.06-.59.06Z" fill="#2b2b2b"/><path d="M1058.44,625.62c-7.63,0-15.46-5.64-16.44-6.37-.24-.18-.45-.39-.63-.63l-15.32-20.91c-.98-1.34-.69-3.21.65-4.19,1.34-.98,3.21-.69,4.19.65l15.04,20.53c2.71,1.91,9.63,5.87,14.29,4.74,1.5-.36,2.63-1.23,3.52-2.7l-1.52-14.25c-.18-1.65,1.02-3.13,2.66-3.3,1.64-.18,3.13,1.02,3.3,2.66l1.62,15.18c.06.56-.04,1.13-.29,1.64-1.72,3.49-4.44,5.77-7.89,6.61-1.04.25-2.11.36-3.18.36Z" fill="#2b2b2b"/><path d="M1068.04,620.38c-.47,0-.96-.02-1.46-.06-1.65-.14-2.88-1.59-2.74-3.24.14-1.65,1.59-2.88,3.24-2.74,7.02.58,8.66-5.77,8.95-7.29l-.69-18.67c-.06-1.66,1.23-3.05,2.89-3.11,1.67-.06,3.05,1.23,3.11,2.89l.7,18.98c0,.18,0,.36-.03.54-.65,4.53-4.41,12.7-13.96,12.7Z" fill="#2b2b2b"/><path d="M1080.34,607.96c-1.16,0-2.27-.68-2.76-1.82-.65-1.52.05-3.29,1.57-3.94,4.3-1.85,6.39-5.91,6.23-12.08-.11-4.66-1.5-8.72-1.51-8.76-.54-1.56.29-3.27,1.85-3.82,1.56-.54,3.27.28,3.82,1.84.07.2,1.71,4.96,1.85,10.59.23,8.73-3.18,14.87-9.86,17.75-.39.17-.79.24-1.18.24Z" fill="#2b2b2b"/><path d="M1088.85,593.03c-.51,0-1.03-.13-1.51-.41-1.43-.83-1.91-2.67-1.08-4.1,3.95-6.77,4.74-13.11,2.41-19.36-6.66-17.85-36.31-28.14-36.61-28.25-1.57-.53-2.41-2.24-1.87-3.81s2.24-2.41,3.81-1.87c1.33.45,32.66,11.34,40.3,31.83,2.96,7.93,2,16.17-2.85,24.48-.56.96-1.56,1.49-2.59,1.49Z" fill="#2b2b2b"/><path d="M1032.03,616.27c-5.82,0-13.28-.96-19.85-7.94-11.54-12.28-7.19-32.16-4.79-40.14.48-1.59,2.15-2.48,3.74-2.01,1.59.48,2.48,2.15,2.01,3.74-2.1,6.98-5.98,24.3,3.41,34.3,6.04,6.42,12.71,6.19,18.6,5.98,1.25-.04,2.43-.09,3.57-.06,1.66.04,2.97,1.41,2.93,3.07-.04,1.66-1.43,2.97-3.07,2.93-.96-.02-2.05.02-3.21.06-1.03.04-2.14.08-3.33.08Z" fill="#2b2b2b"/><path d="M483.54,482.61c-.75,0-1.51-.28-2.09-.85-5.66-5.51-13.76-18.99-3.87-30.55.01-.01.02-.02.03-.04.14-.16.3-.3.46-.43,1.33-.99,3.21-.72,4.2.6.87,1.17.77,2.76-.17,3.8-8.64,10.16,3.03,21.83,3.53,22.32,1.18,1.16,1.2,3.06.05,4.24-.59.6-1.37.9-2.15.9Z" fill="#2b2b2b"/><path d="M509.6,473.02c-.12,0-.24,0-.36-.02-1.65-.2-2.82-1.69-2.62-3.33.65-5.45.42-9.45.41-9.49-.52-9-7.12-16.43-10.3-20-1.25-1.4-3.98-3.31-5.78-4.08l-13.24-1.61c-.82-.1-1.63-.03-2.42.21-2.45.74-8.38,2.93-10.55,7.15-1.09,2.11-1.11,4.5-.07,7.32.82,2.23,1.84,3.8,3.01,4.67,3.83,2.84,10.08-2.82,10.14-2.88,1.22-1.12,3.12-1.04,4.24.18,1.12,1.22,1.04,3.12-.18,4.24-4.58,4.2-11.97,7.58-17.77,3.28-2.13-1.58-3.83-4.07-5.07-7.41-1.63-4.43-1.51-8.52.37-12.15,3.11-6.03,10.19-8.94,14.14-10.14,1.58-.48,3.23-.63,4.89-.43l13.63,1.65c.24.03.47.09.69.17,2.66,1,6.51,3.64,8.4,5.77,3.68,4.14,11.23,12.62,11.86,23.69.01.16.27,4.53-.45,10.56-.18,1.52-1.48,2.64-2.98,2.64Z" fill="#2b2b2b"/><path d="M475,508.06c-14.4,0-24.13-8.15-27.27-11.21-18.18.84-23.76-9.94-24.45-11.44-4-7.77-.7-17.19.74-20.58-3.96-10.71,1.05-18.66,5.41-22.42-.96-4.85-.22-8.96,2.22-12.25,3.46-4.67,9.44-6.2,12.86-6.7.59-4.4,2.88-13.7,17.71-13.34,16.99.4,30.45,20.02,31.02,20.86.93,1.37.57,3.24-.81,4.17-1.37.93-3.24.57-4.16-.8h0c-.12-.18-12.3-17.9-26.19-18.22-10.73-.25-11.33,5.37-11.73,9.09-.08.75-.15,1.34-.32,1.89-.38,1.24-1.52,2.09-2.81,2.11-.07,0-7.59.23-10.76,4.53-1.59,2.16-1.85,5.2-.76,9.05.36,1.27-.15,2.63-1.27,3.34-.94.62-9.16,6.45-4.39,17.59.35.82.32,1.75-.08,2.54-.05.09-4.83,9.73-1.32,16.44.04.08.08.16.11.24.15.34,4.19,9.04,19.94,7.82.96-.07,1.89.32,2.51,1.05.55.64,13.94,15.8,35.8,8.07,1.56-.55,3.28.27,3.83,1.83.55,1.56-.27,3.28-1.83,3.83-5.05,1.78-9.73,2.5-14.01,2.5Z" fill="#2b2b2b"/><path d="M461.3,443c-.57,0-1.14-.16-1.65-.5-7.9-5.23-14.6-14.1-14.88-14.48-.99-1.33-.72-3.2.6-4.2,1.33-.99,3.21-.73,4.2.6.06.08,6.37,8.43,13.39,13.08,1.38.91,1.76,2.78.85,4.16-.58.87-1.53,1.34-2.5,1.34Z" fill="#2b2b2b"/><path d="M455.84,465c-9.73,0-22.75-16.15-25.39-19.55-1.01-1.31-.78-3.19.53-4.21,1.31-1.01,3.19-.78,4.21.53,5.81,7.49,16.53,18.14,21.06,17.19,1.27-.26,2.38-.55,3.31-.85,2.42-.79,2.66-1.29,3.11-2.19.19-.37.42-.84.74-1.33.03-.05.06-.09.09-.13,0,0,0,0,0,0,0,0,.04-.06.08-.12.99-1.33,2.87-1.61,4.2-.62,1.32.98,1.6,2.85.63,4.17h0c-.12.18-.23.42-.37.69-.95,1.93-2.18,3.79-6.63,5.24-1.15.37-2.44.71-3.94,1.02-.53.11-1.08.16-1.63.16Z" fill="#2b2b2b"/><path d="M450.34,478.48c-13.73,0-24.69-10.97-25.19-11.47-1.16-1.18-1.15-3.08.04-4.24,1.18-1.16,3.08-1.15,4.24.03.12.12,11.3,11.25,23.6,9.49.15-.02.31-.05.47-.08,2.91-.5,4.74-1.49,5.46-2.97,1.09-2.24-.21-5.6-.81-6.71-.78-1.45-.25-3.27,1.21-4.06,1.45-.79,3.26-.26,4.06,1.18.37.68,3.56,6.78.95,12.19-1.61,3.33-4.92,5.45-9.82,6.28-.19.04-.42.07-.66.11-1.2.17-2.39.25-3.55.25Z" fill="#2b2b2b"/><path d="M448.93,496.77c-1.06,0-2.08-.56-2.63-1.55-.8-1.45-.28-3.27,1.17-4.07,1.53-.86,5.71-3.9,6.61-7.59.46-1.85.06-3.71-1.22-5.67-.9-1.39-.51-3.25.88-4.15,1.39-.9,3.25-.51,4.15.88,2.21,3.4,2.89,6.9,2.01,10.41-1.74,6.98-9.2,11.19-9.52,11.36-.46.26-.96.38-1.45.38Z" fill="#2b2b2b"/><path d="M435.86,623.03c.46,1.86.88,3.75,1.26,5.65,5.18,26.14,1.53,51.99-8.88,74.45l-4.93-15.98s4.67-17.74,5.85-26.44c1.18-8.7-.11-25.13-.11-25.13l6.4-12.45.41-.1Z" fill="#fff"/><path d="M435.86,623.03l-.41.1-6.4,12.45-32.69-29.74-7.21-34.94,20.28,2.45.49-.42c12.15,14.02,21.22,31.01,25.95,50.11Z" fill="#333"/><path d="M384.88,708.97l-18.31,37.55-6.11,2.43c-13.94,5.56-28.84,8.35-43.85,8.21l-8.81-.08-26.66-27.23,17.41-40.02.3.54,52.29-10.36,6.25-52.42.54.06,38.43-21.82,32.69,29.74s1.29,16.43.11,25.13c-1.18,8.7-5.85,26.44-5.85,26.44l-38.43,21.82Z" fill="#fff"/><path d="M409.91,572.92l-.49.42-20.28-2.45s-12.91-12.29-25.45-18.58c-6.42-3.22-30.84-10.67-30.84-10.67l-11.37-10.63c34.47.9,66.47,16.56,88.43,41.91Z" fill="#fff"/><path d="M423.31,687.14l4.93,15.98c-9.19,19.83-23.65,37.03-41.97,49.47l-19.71-6.07,18.31-37.55,38.43-21.82Z" fill="#333"/><path d="M366.57,746.52l19.71,6.07c-13.06,8.87-28.07,15.31-44.53,18.57-17.03,3.37-33.94,3-49.86-.55l15.91-13.53,8.81.08c15.01.14,29.91-2.65,43.85-8.21l6.11-2.43Z" fill="#fff"/><polygon points="298.55 689.84 273.08 644.28 272.84 643.85 309 604.8 309.05 604.74 357.45 627.09 357.39 627.6 351.14 680.02 298.85 690.38 298.55 689.84" fill="#333"/><path d="M321.48,531.02l11.37,10.63-32.78,19.24-44.4-4.2,4.32-10.85c10.57-5.78,22.19-10.07,34.64-12.54,9.03-1.79,18.02-2.52,26.85-2.29Z" fill="#333"/><path d="M308.81,604.62l-8.74-43.73,32.78-19.24s24.42,7.45,30.84,10.67c12.54,6.28,25.45,18.58,25.45,18.58l7.21,34.94-38.43,21.82-.54-.06.06-.51-48.39-22.36-.06.06-.19-.17Z" fill="#fff"/><path d="M308.81,604.62l.19.17-36.16,39.06.24.42-.67.38-43.71-4.13.05-.56-8.74-43.73s7.67-13.26,16.09-22.68c4.57-5.12,19.57-16.86,19.57-16.86l44.4,4.2,8.74,43.73Z" fill="#fff"/><path d="M273.08,644.28l25.47,45.56-17.41,40.02-44-4.16s-9.35-9.29-15.64-19.98c-5.59-9.51-10.72-24.7-10.72-24.7l17.63-40.52.29.03,43.71,4.13.67-.38Z" fill="#fff"/><path d="M281.13,729.86l26.66,27.23-15.91,13.53c-19.67-4.38-37.84-13.6-52.91-26.59l-1.84-18.33,44,4.16Z" fill="#333"/><path d="M259.99,545.84l-4.32,10.85s-15,11.74-19.57,16.86c-8.42,9.42-16.09,22.68-16.09,22.68l-11.3,3.88c10.85-22.74,28.67-41.92,51.28-54.28Z" fill="#fff"/><path d="M220.01,596.23l8.74,43.73-.05.56-.29-.03-17.63,40.52-12.38-10.14c-3.9-24.93.14-49.42,10.32-70.76l11.3-3.88Z" fill="#333"/><path d="M221.49,705.72c6.29,10.69,15.64,19.98,15.64,19.98l1.84,18.33c-19.8-17.06-34.25-40.61-39.72-68.23-.32-1.64-.62-3.28-.87-4.92l12.38,10.14s5.13,15.19,10.72,24.7Z" fill="#fff"/><path d="M318.04,776.51c-8.99,0-17.95-.99-26.81-2.96-19.93-4.44-38.68-13.86-54.21-27.25-21.18-18.25-35.26-42.43-40.7-69.92-.34-1.69-.64-3.39-.89-5.04-3.88-24.79-.22-49.87,10.58-72.51,11.19-23.46,29.85-43.21,52.54-55.62,11.06-6.05,23-10.37,35.5-12.85,9.08-1.8,18.34-2.59,27.51-2.35,34.74.91,67.77,16.56,90.62,42.94,12.72,14.68,21.91,32.43,26.59,51.34h0c.46,1.86.9,3.81,1.29,5.79,5.14,25.97,2,52.35-9.1,76.29-9.5,20.5-24.37,38.03-43,50.69-13.79,9.36-29.14,15.77-45.63,19.03-8.08,1.6-16.2,2.4-24.29,2.4ZM318.32,533.97c-7.72,0-15.47.76-23.1,2.27-11.9,2.36-23.26,6.47-33.78,12.23-21.59,11.8-39.35,30.6-50.01,52.94-10.28,21.55-13.76,45.41-10.07,69.01.24,1.57.53,3.19.85,4.8,5.18,26.16,18.58,49.17,38.73,66.54,14.79,12.74,32.63,21.71,51.6,25.93,16.02,3.57,32.38,3.75,48.63.53,15.69-3.11,30.3-9.2,43.42-18.11,17.73-12.05,31.88-28.73,40.93-48.25,10.56-22.79,13.55-47.89,8.65-72.6-.37-1.89-.79-3.74-1.23-5.5h0c-4.45-18.01-13.2-34.9-25.3-48.87-21.75-25.11-53.18-40.01-86.24-40.87-1.03-.03-2.06-.04-3.09-.04Z" fill="#2b2b2b"/><path d="M298.85,692.13c-.62,0-1.21-.34-1.53-.9l-26.01-46.53c-.37-.66-.27-1.48.24-2.04l36.16-39.06s.07-.07.07-.08c.52-.54,1.32-.7,2-.38l48.39,22.36c.69.32,1.09,1.04,1,1.79l-.06.51h0s-6.25,52.42-6.25,52.42c-.09.75-.65,1.36-1.4,1.51l-52.29,10.36c-.11.02-.23.03-.34.03ZM274.99,644.11l24.77,44.31,49.8-9.86,6.01-50.4-46.09-21.29-34.49,37.25ZM357.39,627.6h0,0Z" fill="#2b2b2b"/><path d="M384.88,710.72c-.43,0-.85-.16-1.18-.46l-32.69-29.74c-.72-.65-.77-1.76-.12-2.47.65-.72,1.76-.77,2.47-.12l31.76,28.88,36.68-20.83c.88-3.39,4.6-18,5.62-25.51,1.01-7.42.15-20.88-.07-24.07l-31.24-28.42-37.33,21.2c-.84.48-1.91.18-2.39-.66-.48-.84-.18-1.91.66-2.39l38.43-21.82c.66-.37,1.48-.28,2.04.23l32.69,29.74c.33.3.53.71.57,1.16.05.68,1.29,16.72.1,25.5-1.18,8.7-5.7,25.92-5.89,26.65-.12.46-.42.84-.83,1.08l-38.43,21.82c-.27.15-.57.23-.86.23Z" fill="#2b2b2b"/><path d="M281.14,731.61c-.05,0-.11,0-.17,0l-44-4.16c-.4-.04-.78-.21-1.07-.5-.39-.39-9.59-9.57-15.92-20.33-5.62-9.56-10.66-24.4-10.87-25.03-.14-.41-.12-.86.05-1.26l17.63-40.52c.3-.69,1.01-1.12,1.77-1.04l.29.03,43.71,4.13c.96.09,1.67.94,1.58,1.91-.09.96-.94,1.67-1.91,1.58l-42.74-4.04-16.86,38.73c1.03,2.96,5.56,15.59,10.35,23.74,5.34,9.09,13.04,17.23,14.93,19.18l42.1,3.98,17.13-39.36c.39-.89,1.42-1.29,2.3-.91.89.39,1.29,1.42.91,2.3l-17.63,40.52c-.28.64-.91,1.05-1.6,1.05Z" fill="#2b2b2b"/><path d="M317.71,758.92c-.37,0-.74,0-1.11,0l-8.81-.08c-.46,0-.91-.19-1.23-.53l-26.66-27.23c-.68-.69-.66-1.8.03-2.47.69-.68,1.8-.66,2.48.03l26.15,26.71,8.09.08c14.85.14,29.39-2.58,43.19-8.09l5.48-2.18,18.02-36.95c.42-.87,1.47-1.23,2.34-.81.87.42,1.23,1.47.81,2.34l-18.31,37.55c-.19.39-.52.7-.92.86l-6.11,2.43c-13.88,5.54-28.48,8.34-43.4,8.34Z" fill="#2b2b2b"/><path d="M228.75,641.72c-.82,0-1.55-.58-1.71-1.41l-8.74-43.73c-.08-.42-.01-.85.2-1.22.32-.55,7.86-13.52,16.3-22.97,4.62-5.18,19.18-16.59,19.8-17.07.35-.28.8-.41,1.24-.36l44.4,4.2c.77.07,1.4.64,1.55,1.4l8.74,43.73c.19.95-.43,1.87-1.37,2.06-.95.19-1.87-.43-2.06-1.37l-8.48-42.46-42.41-4.01c-2.73,2.15-14.87,11.81-18.8,16.22-7.22,8.09-13.99,19.21-15.55,21.83l8.61,43.08c.19.95-.43,1.87-1.37,2.06-.12.02-.23.03-.34.03Z" fill="#2b2b2b"/><path d="M396.35,607.59c-.81,0-1.54-.57-1.71-1.4l-7.1-34.4c-2.25-2.08-13.68-12.42-24.63-17.91-5.6-2.81-25.73-9.07-29.84-10.34l-32.11,18.85c-.83.49-1.91.21-2.4-.62-.49-.83-.21-1.91.62-2.4l32.78-19.24c.42-.25.93-.31,1.4-.16,1,.31,24.64,7.54,31.12,10.78,12.62,6.33,25.33,18.36,25.87,18.87.26.25.43.56.51.91l7.21,34.94c.2.95-.41,1.87-1.36,2.07-.12.02-.24.04-.36.04Z" fill="#2b2b2b"/><path d="M255.67,558.45c-.22,0-.43-.04-.65-.12-.9-.36-1.34-1.37-.98-2.27l4.43-11.13c.36-.9,1.37-1.34,2.27-.98.9.36,1.34,1.37.98,2.27l-4.43,11.14c-.27.69-.93,1.1-1.63,1.1Z" fill="#2b2b2b"/><path d="M208.32,602c-.73,0-1.41-.46-1.66-1.18-.31-.91.18-1.91,1.09-2.22l11.69-4.02c.92-.31,1.91.17,2.22,1.09.31.91-.17,1.91-1.09,2.22l-11.69,4.02c-.19.06-.38.09-.57.09Z" fill="#2b2b2b"/><path d="M332.85,543.4c-.43,0-.86-.16-1.19-.47l-11.37-10.63,1.16-1.31,1.2-1.28,11.4,10.66c.71.66.74,1.77.08,2.47-.34.37-.81.55-1.28.55Z" fill="#2b2b2b"/><path d="M409.42,575.09c-.07,0-.14,0-.21-.01l-20.28-2.45c-.96-.12-1.64-.99-1.53-1.95.12-.96.98-1.64,1.95-1.53l20.28,2.45c.96.12,1.64.99,1.53,1.95-.11.89-.86,1.54-1.74,1.54Z" fill="#2b2b2b"/><path d="M429.05,637.33c-.27,0-.54-.06-.8-.19-.86-.44-1.2-1.5-.76-2.36l6.4-12.45c.44-.86,1.5-1.2,2.36-.76.86.44,1.2,1.5.76,2.36l-6.4,12.45c-.31.6-.92.95-1.56.95Z" fill="#2b2b2b"/><path d="M428.3,705.07c-.74,0-1.43-.48-1.67-1.22l-.06-.19-4.93-15.99c-.28-.92.23-1.9,1.16-2.19.92-.28,1.9.23,2.19,1.16l4.99,16.17c.29.92-.22,1.9-1.14,2.19-.17.06-.35.08-.53.08Z" fill="#2b2b2b"/><path d="M386.79,754.5c-.17,0-.34-.03-.52-.08l-20.22-6.23c-.92-.28-1.44-1.26-1.16-2.19.28-.92,1.26-1.44,2.19-1.16l20.22,6.23c.92.28,1.44,1.26,1.16,2.19-.23.75-.92,1.24-1.67,1.24Z" fill="#2b2b2b"/><path d="M291.09,773.05c-.49,0-.99-.21-1.33-.61-.63-.74-.54-1.84.2-2.47l16.71-14.22c.74-.63,1.84-.54,2.47.2.63.74.54,1.84-.2,2.47l-16.71,14.21c-.33.28-.73.42-1.13.42Z" fill="#2b2b2b"/><path d="M239.14,747.39c-.89,0-1.65-.67-1.74-1.58l-2.01-19.94c-.1-.96.6-1.82,1.57-1.92.96-.1,1.82.6,1.92,1.57l2.01,19.94c.1.96-.6,1.82-1.57,1.92-.06,0-.12,0-.18,0Z" fill="#2b2b2b"/><path d="M210.77,682.77c-.39,0-.78-.13-1.11-.4l-12.76-10.45c-.75-.61-.86-1.71-.25-2.46.61-.75,1.71-.86,2.46-.25l12.76,10.45c.75.61.86,1.71.25,2.46-.35.42-.85.64-1.35.64Z" fill="#2b2b2b"/><ellipse cx="318.09" cy="1008.88" rx="106.83" ry="12.69" fill="#896937"/><path d="M803.73,1563.69l-120.97,122.16-215.86-215.84-215.84,215.84-122.16-122.16,215.84-215.84-215.84-215.86,122.16-122.16,215.84,215.86,215.86-215.86,120.97,122.16-215.86,215.86,215.86,215.84Z" fill="#dd3131"/><path d="M682.78,1690.1l-215.87-215.85-215.84,215.84-126.4-126.4,215.84-215.84-215.84-215.86,126.4-126.4,215.84,215.86,215.87-215.87,125.19,126.42-215.85,215.85,215.85,215.83-125.19,126.42ZM133.15,1563.69l117.91,117.91,215.84-215.84,215.85,215.83,116.75-117.89-215.87-215.85,215.87-215.87-116.75-117.89-215.85,215.85-215.84-215.86-117.91,117.91,215.84,215.86-215.84,215.84Z" fill="#2b2b2b"/><polygon points="1424.44 891.15 1585.1 956.2 1518.75 1118.36 1597.58 1150.28 1386.86 1214.9 1278.43 1021.06 1357.55 1053.09 1424.44 891.15" fill="#cecece"/><path d="M1384.95,1219.67l-115.56-206.58,85.98,34.81,66.89-161.94,168.06,68.04-66.35,162.16,85.55,34.64-224.58,68.87ZM1287.48,1029.04l101.3,181.08,196.86-60.37-72.11-29.19,66.35-162.16-153.25-62.05-66.89,161.94-72.25-29.25Z" fill="#2b2b2b"/><path d="M1789.1,248.74c6.95,10.05,10.03,22.29,9.2,34.49l-38.13,568.92c-3.19,34.15-41.31,34.94-54.32,34.2,18.6.48,34.45-13.78,35.74-32.53l40.59-590.85c1.01-14.63-7.16-27.79-19.61-33.84,12.82,4.19,21.14,11.79,26.53,19.6Z" fill="#eaeaea"/><path d="M1705.75,886.34c-.48,0-.96-.03-1.44-.05l-396.92-27.27c-19.26-1.32-33.8-18-32.48-37.25l40.59-590.85c1.32-19.26,18.01-33.79,37.27-32.46l396.92,27.27c4.59.31,8.93,1.51,12.83,3.4.01,0,.03,0,.04.01,12.45,6.05,20.62,19.2,19.61,33.84l-40.59,590.85c-1.28,18.75-17.13,33.01-35.74,32.53-.03,0-.07-.01-.09-.01ZM1715.1,840.08l38.5-560.33-412.08-28.31-38.5,560.33,412.08,28.31Z" fill="#fff"/><rect x="1247.48" y="339.24" width="561.66" height="413.05" transform="translate(879.08 2033.07) rotate(-86.07)" fill="#383838"/><path d="M1761.59,231.98c-4.73-1.55-9.94-2.54-15.48-2.95l.44-5.98c6.03.44,11.72,1.53,16.91,3.23l-1.87,5.7Z" fill="#2b2b2b"/><path d="M1710.81,889.49c-2,0-3.74-.06-5.13-.14l.34-5.99c14.42.81,48.28-.63,51.17-31.49l38.13-568.84c.79-11.77-2.29-23.34-8.68-32.59-6.09-8.81-14.5-15.02-25-18.45l1.86-5.7c11.77,3.85,21.21,10.83,28.07,20.74,7.16,10.36,10.61,23.28,9.73,36.4l-38.13,568.92c-3.09,33.05-36.21,37.14-52.35,37.14Z" fill="#2b2b2b"/><path d="M1705.58,889.34c-2.72-.16-4.38-.38-4.44-.39l.79-5.95s1.53.2,4.01.35l-.36,5.99Z" fill="#2b2b2b"/><path d="M1706.78,889.37c-.34,0-.67,0-1.01-.01h-.3c-.43-.02-.85-.04-1.28-.07l-397-27.27c-20.88-1.43-36.7-19.58-35.26-40.45l40.59-590.85c1.43-20.87,19.59-36.68,40.47-35.25l396.92,27.27c4.65.32,9.12,1.46,13.3,3.4h.59l.54.54c13.73,6.89,21.89,21.17,20.83,36.52l-40.59,590.85c-1.37,20-17.88,35.33-37.79,35.34ZM1706.15,883.36c.18,0,.37,0,.55,0,16.84,0,30.73-12.91,31.88-29.74l40.59-590.85c.89-12.86-5.92-24.83-17.38-30.66l-.59-.29c-3.66-1.78-7.6-2.83-11.72-3.11l-396.92-27.27c-17.58-1.21-32.86,12.11-34.07,29.68l-40.59,590.85c-1.21,17.57,12.11,32.85,29.69,34.06l396.92,27.27c.41.02.82.05,1.23.05l.4.02Z" fill="#2b2b2b"/><path d="M1716.72,841.95l-415.57-28.55.12-1.75,38.62-562.08,415.57,28.55-.12,1.75-38.62,562.08ZM1304.89,810.14l408.58,28.07,38.26-556.84-408.58-28.07-38.26,556.84Z" fill="#2b2b2b"/></svg>